<svg width="64" height="64" viewBox="0 0 64 64" fill="none" xmlns="http://www.w3.org/2000/svg">
<g clip-path="url(#clip0_10660_6389)">
<path fill-rule="evenodd" clip-rule="evenodd" d="M0 0H64V64H0V0Z" fill="#000001"/>
<path fill-rule="evenodd" clip-rule="evenodd" d="M42.6621 0H63.9996V64H42.6621V0Z" fill="#009900"/>
<path fill-rule="evenodd" clip-rule="evenodd" d="M21.3379 0H42.6629V64H21.3379V0Z" fill="#BF0000"/>
<path fill-rule="evenodd" clip-rule="evenodd" d="M34.067 34.7315H34.9448C34.9448 35.0699 35.1563 35.4295 35.4207 35.6304H33.7285C33.9929 35.3978 34.067 35.1016 34.067 34.7315Z" fill="white" stroke="#BD6B00" stroke-width="0.0528819"/>
<path fill-rule="evenodd" clip-rule="evenodd" d="M28.4824 29.7288L28.9689 30.2577L34.9975 30.2788L35.484 29.75L33.9398 29.7183L33.1995 29.1894H30.7669L30.0689 29.7288H28.4824Z" fill="white"/>
<path fill-rule="evenodd" clip-rule="evenodd" d="M30.9457 29.1154H33.0293C33.3043 28.9673 33.3994 28.4914 33.3994 28.227C33.3994 27.4443 32.8389 27.0636 32.2889 27.0424C32.2043 27.0424 32.1091 26.979 32.088 26.9049C32.0351 26.7357 32.0457 26.6194 31.9822 26.63C31.9399 26.63 31.9505 26.7357 31.9082 26.8838C31.8764 26.9684 31.7918 27.0424 31.6966 27.053C31.0198 27.0847 30.5755 27.5818 30.5861 28.227C30.5967 28.65 30.6496 28.9039 30.9457 29.1154Z" fill="white" stroke="#BD6B00" stroke-width="0.0528819"/>
<path fill-rule="evenodd" clip-rule="evenodd" d="M27.5293 36.5294H36.4452L35.652 35.8843H28.3119L27.5293 36.5294Z" fill="white"/>
<path fill-rule="evenodd" clip-rule="evenodd" d="M31.622 34.0863L31.7806 34.5728H32.1508L31.8547 34.0863H31.622ZM31.4105 34.5728L31.5162 35.0593H31.9393L31.7806 34.5728H31.4105ZM32.1508 34.5728L32.4469 35.0593H33.0709L32.5844 34.5728H32.1508ZM28.502 35.6727C28.8298 35.366 29.0413 35.1122 29.0413 34.742H29.8452C29.8452 34.9536 29.9192 35.0699 30.0355 35.0593H30.8499V34.5834H30.2576V31.971C30.2365 31.0403 31.3787 30.5115 31.8441 30.5115H29.0625V30.4269H34.9112V30.5115H32.1085C32.944 30.5115 33.7478 31.3047 33.7584 31.971V32.7114H33.6526L33.6421 31.9816C33.6421 31.2518 32.7219 30.5749 31.9816 30.5961C31.347 30.6067 30.3528 31.2201 30.3634 31.971V32.2037L31.8758 32.2143L31.8652 32.4787L32.0979 32.6267L32.5739 32.7748V33.1767L32.9123 33.2719V33.6632L33.3142 33.843V34.2449L33.5786 34.4036L33.568 34.8161L33.9171 35.0593H33.0921L33.6103 35.641H32.8383L32.4575 35.0593H31.9604L32.1825 35.6304H31.6537L31.5162 35.0593H30.8605V35.6727H28.5125H28.502ZM30.8499 34.0863V34.5728H31.4105L31.3047 34.0863H30.8393H30.8499Z" fill="white"/>
<path d="M31.7806 34.5728L31.622 34.0863H31.8547L32.1508 34.5728M31.7806 34.5728H32.1508M31.7806 34.5728L31.9393 35.0593H31.5162M31.7806 34.5728H31.4105M32.1508 34.5728L32.4469 35.0593H33.0709L32.5844 34.5728H32.1508ZM31.4105 34.5728L31.5162 35.0593M31.4105 34.5728H30.8499V34.0863H30.8393H31.3047L31.4105 34.5728ZM31.5162 35.0593L31.6537 35.6304H32.1825L31.9604 35.0593H32.4575L32.8383 35.641H33.6103L33.0921 35.0593H33.9171L33.568 34.8161L33.5786 34.4036L33.3142 34.2449V33.843L32.9123 33.6632V33.2719L32.5739 33.1767V32.7748L32.0979 32.6267L31.8652 32.4787L31.8758 32.2143L30.3634 32.2037V31.971C30.3528 31.2201 31.347 30.6067 31.9816 30.5961C32.7219 30.5749 33.6421 31.2518 33.6421 31.9816L33.6526 32.7114H33.7584V31.971C33.7478 31.3047 32.944 30.5115 32.1085 30.5115H34.9112V30.4269H29.0625V30.5115H31.8441C31.3787 30.5115 30.2365 31.0403 30.2576 31.971V34.5834H30.8499V35.0593H30.0355C29.9192 35.0699 29.8452 34.9536 29.8452 34.742H29.0413C29.0413 35.1122 28.8298 35.366 28.502 35.6727H28.5125H30.8605V35.0593H31.5162Z" stroke="#BD6B00" stroke-width="0.0528819"/>
<path fill-rule="evenodd" clip-rule="evenodd" d="M30.8828 33.2402H31.2318V34.044H30.8828V33.2402Z" stroke="#BD6B00" stroke-width="0.0528819"/>
<path fill-rule="evenodd" clip-rule="evenodd" d="M30.3848 34.0969H30.7232V33.5046C30.7232 33.2508 30.9559 32.9863 31.0617 32.9758C31.1886 32.9758 31.3684 33.219 31.3789 33.4834V34.0969H31.7385V32.5739H30.3848V34.0969ZM33.0923 34.4459H33.5154V34.7843H33.0923V34.4459ZM32.8385 33.8853H33.2615V34.2132H32.8385V33.8853ZM32.426 33.3142H32.8491V33.6421H32.426V33.3142ZM32.077 32.8383H32.5V33.1661H32.077V32.8383Z" stroke="#BD6B00" stroke-width="0.0528819"/>
<path fill-rule="evenodd" clip-rule="evenodd" d="M31.793 34.0969L32.2372 34.118L33.0093 34.7949V34.393L32.7448 34.2026V33.8853L32.3641 33.6738V33.3248L31.9939 33.1979V32.7431L31.8141 32.5844L31.793 34.0969Z" stroke="#BD6B00" stroke-width="0.0528819"/>
<path fill-rule="evenodd" clip-rule="evenodd" d="M33.6328 33.0921H33.7386V33.843H33.6328V33.0921Z" fill="white" stroke="#BD6B00" stroke-width="0.0528819"/>
<path fill-rule="evenodd" clip-rule="evenodd" d="M27.4866 30.5749C27.3597 30.3634 27.2011 30.8711 26.6617 31.2413C26.4184 31.4105 26.2386 31.8653 26.2386 32.1614C26.2386 32.3729 26.2598 32.5739 26.2386 32.7748C26.228 32.8912 26.0905 33.1767 26.1857 33.2508C26.4184 33.42 26.7251 33.8219 26.8626 33.9594C26.9895 34.0651 27.0953 33.3988 27.1799 33.1133C27.2857 32.796 27.2434 32.4047 27.5184 32.1191C27.7087 31.9076 28.1952 31.7172 28.1529 31.6326L27.4866 30.5749Z" fill="white" stroke="#BD6B00" stroke-width="0.0528819"/>
<path fill-rule="evenodd" clip-rule="evenodd" d="M27.455 32.2037C27.413 32.1039 27.356 32.0112 27.2858 31.9287C27.2184 31.8451 27.1311 31.7797 27.032 31.7383C26.9345 31.7094 26.8468 31.6546 26.7781 31.5797C26.7377 31.5343 26.7087 31.4799 26.6935 31.421C26.6815 31.3511 26.6815 31.2795 26.6935 31.2095L26.6618 31.2412C26.4185 31.4105 26.2387 31.8653 26.2387 32.1614C26.2355 32.2424 26.2355 32.3236 26.2387 32.4046C26.2599 32.4575 26.2705 32.5104 26.3022 32.5421L26.4185 32.6268L26.7041 32.7008C26.811 32.7489 26.9052 32.8213 26.9791 32.9123C27.0561 32.9938 27.1202 33.0866 27.1695 33.1873L27.1906 33.1027C27.2752 32.8171 27.2646 32.4787 27.4656 32.2037H27.455Z" fill="#BF0000" stroke="#BD6B00" stroke-width="0.0528819"/>
<path d="M26.6947 31.1989C26.6418 31.548 26.8428 31.6749 27.0331 31.7383C27.2235 31.8124 27.3822 32.0133 27.4562 32.2037M26.2188 32.3623C26.3034 32.6796 26.5149 32.6373 26.7053 32.7008C26.8956 32.7748 27.0966 33.0181 27.1812 33.2085" stroke="#BD6B00" stroke-width="0.0528819"/>
<path fill-rule="evenodd" clip-rule="evenodd" d="M27.3086 30.3634L27.4144 30.3L29.2864 33.4623L29.1806 33.5258L27.3086 30.3634Z" fill="white" stroke="#BD6B00" stroke-width="0.0528819"/>
<path fill-rule="evenodd" clip-rule="evenodd" d="M27.509 30.2365C27.509 30.2926 27.4867 30.3464 27.447 30.3861C27.4074 30.4257 27.3536 30.448 27.2975 30.448C27.2414 30.448 27.1876 30.4257 27.1479 30.3861C27.1082 30.3464 27.0859 30.2926 27.0859 30.2365C27.0859 30.1804 27.1082 30.1266 27.1479 30.0869C27.1876 30.0473 27.2414 30.025 27.2975 30.025C27.3536 30.025 27.4074 30.0473 27.447 30.0869C27.4867 30.1266 27.509 30.1804 27.509 30.2365ZM29.1166 27.6982H29.8781V27.8674H29.1166V27.6982ZM29.1166 28.026H29.8781V29.4856H29.1166V28.026ZM29.0743 27.4972H29.9204C29.9416 27.2117 29.656 26.9049 29.4973 26.9049C29.3281 26.9155 29.0637 27.2222 29.0743 27.4972Z" fill="white" stroke="#BD6B00" stroke-width="0.0528819"/>
<path fill-rule="evenodd" clip-rule="evenodd" d="M31.2213 27.328C31.0627 27.3915 30.9357 27.5713 30.8617 27.7828C30.7877 27.9943 30.7559 28.2376 30.7982 28.4279C30.7982 28.502 30.83 28.5443 30.8511 28.5866C30.8723 28.6183 30.8934 28.6395 30.9146 28.6395C30.9463 28.6395 30.978 28.6395 30.9886 28.6077L31.0098 28.5231C30.9992 28.3116 30.9992 28.1212 31.0415 27.952C31.0885 27.7641 31.201 27.5991 31.3588 27.4866C31.3905 27.4655 31.4011 27.4338 31.4117 27.4126C31.4113 27.3847 31.3999 27.3581 31.3799 27.3386C31.3376 27.3068 31.2742 27.2963 31.2213 27.328ZM31.2425 27.3703C31.2848 27.3491 31.3271 27.3703 31.3482 27.3809L31.3588 27.402C31.3588 27.4126 31.3588 27.4232 31.3271 27.4443C31.1646 27.5635 31.0486 27.7355 30.9992 27.9308C30.9553 28.1251 30.9446 28.3253 30.9675 28.5231C30.9675 28.546 30.96 28.5683 30.9463 28.5866C30.9463 28.5866 30.9463 28.5972 30.9252 28.5866C30.9252 28.5866 30.904 28.5866 30.8829 28.5549C30.8619 28.5151 30.8477 28.4723 30.8406 28.4279C30.8088 28.2376 30.8406 28.0049 30.9146 27.7934C30.9886 27.603 31.105 27.4338 31.2319 27.3703H31.2425Z" fill="#BD6B00"/>
<path fill-rule="evenodd" clip-rule="evenodd" d="M31.4963 27.5289C31.3376 27.603 31.2318 27.7722 31.179 27.9731C31.1228 28.1763 31.112 28.3893 31.1472 28.5971C31.1684 28.7346 31.253 28.8087 31.3165 28.8087C31.3482 28.8193 31.3799 28.8087 31.4011 28.7769C31.4222 28.7452 31.4328 28.7135 31.4222 28.6712C31.3799 28.502 31.3693 28.3116 31.3905 28.1318C31.4222 27.952 31.4963 27.7933 31.6232 27.6982C31.6549 27.6664 31.6761 27.6453 31.6761 27.6135C31.677 27.6021 31.6757 27.5905 31.672 27.5796C31.6684 27.5687 31.6626 27.5587 31.6549 27.5501C31.6126 27.5184 31.5491 27.5078 31.4963 27.5289ZM31.5174 27.5818C31.5597 27.5607 31.602 27.5712 31.6232 27.5818L31.6337 27.6135L31.602 27.6559C31.531 27.7128 31.472 27.7832 31.4284 27.8631C31.3849 27.943 31.3576 28.0307 31.3482 28.1212C31.3165 28.3116 31.3376 28.5125 31.3693 28.6712C31.3799 28.7135 31.3693 28.7346 31.3693 28.7558L31.3165 28.7664C31.2847 28.7664 31.2107 28.7135 31.1895 28.5866C31.1578 28.4068 31.1684 28.1741 31.2213 27.9837C31.2742 27.7933 31.3799 27.6347 31.5174 27.5818Z" fill="#BD6B00"/>
<path fill-rule="evenodd" clip-rule="evenodd" d="M29.0736 30.6701H29.9197V31.8335H29.0736V30.6701ZM29.1264 32.5104H29.9408V32.7642H29.1264V32.5104ZM29.1053 32.944H29.9514V33.8642H29.1053V32.944ZM29.0418 34.0546H29.962V34.5728H29.0418V34.0546ZM29.1582 32.2989H29.8985L30.0466 32.045H29.0312L29.1582 32.2989ZM30.1523 31.3893L30.1629 30.7547H30.6706C30.4524 30.9246 30.2752 31.1415 30.1523 31.3893Z" fill="white" stroke="#BD6B00" stroke-width="0.0528819"/>
<path fill-rule="evenodd" clip-rule="evenodd" d="M29.2109 31.6537C29.2109 31.7912 29.3696 31.7383 29.3696 31.6643V31.072C29.3696 30.9663 29.6234 30.9874 29.6234 31.0614V31.696C29.6234 31.8018 29.8032 31.7912 29.7926 31.696V30.9557C29.7926 30.723 29.2109 30.7336 29.2109 30.9451V31.6537ZM29.2109 33.0604H29.8138V33.8007H29.2109V33.0604Z" stroke="#BD6B00" stroke-width="0.0528819"/>
<path fill-rule="evenodd" clip-rule="evenodd" d="M29.5914 33.3777H29.803V33.4834H29.5914V33.3777ZM29.2213 33.3777H29.4328V33.4834H29.2213V33.3777ZM29.4328 33.0604H29.5914V33.3777H29.4328V33.0604ZM29.4328 33.4834H29.5914V33.8113H29.4328V33.4834ZM26.0801 25.5512C26.1224 26.1329 25.932 26.4607 25.6253 26.4078C25.5407 26.0906 25.731 25.8684 26.0801 25.5512ZM25.3926 26.8521C25.1176 26.7146 25.3186 25.6358 25.4243 25.181C25.4984 25.7627 25.6359 26.5876 25.3926 26.8521Z" fill="white"/>
<path d="M29.5914 33.3777H29.803V33.4834H29.5914M29.5914 33.3777V33.4834M29.5914 33.3777V33.0604H29.4328V33.3777M29.5914 33.3777H29.4328M29.5914 33.4834H29.4328M29.5914 33.4834V33.8113H29.4328V33.4834M29.4328 33.3777H29.2213V33.4834H29.4328M29.4328 33.3777V33.4834M26.0801 25.5512C26.1224 26.1329 25.932 26.4607 25.6253 26.4078C25.5407 26.0906 25.731 25.8684 26.0801 25.5512ZM25.3926 26.8521C25.1176 26.7146 25.3186 25.6358 25.4243 25.181C25.4984 25.7627 25.6359 26.5876 25.3926 26.8521Z" stroke="#BD6B00" stroke-width="0.0528819"/>
<path fill-rule="evenodd" clip-rule="evenodd" d="M25.4877 26.9049C25.953 27.0636 26.3338 26.5665 26.4501 25.9848C26.0694 26.5136 25.4454 26.5136 25.4983 26.9049H25.4877ZM25.1387 27.4443C24.7791 27.3491 24.9906 26.2069 25.0646 25.7521C25.1387 26.228 25.3925 27.2857 25.1387 27.4443ZM25.2656 27.4126C25.2867 27.0213 25.6781 27.127 25.953 26.9155C25.9002 27.127 25.7415 27.4655 25.2656 27.4126ZM24.8214 27.9414C24.4618 27.8357 24.6733 26.6088 24.6522 26.1011C24.7579 26.5453 25.0964 27.8251 24.8214 27.9414ZM24.9906 27.8885C25.2867 27.9837 25.6781 27.7828 25.7098 27.4338C25.4454 27.6135 25.0435 27.4761 24.9906 27.8885Z" fill="white" stroke="#BD6B00" stroke-width="0.0528819"/>
<path fill-rule="evenodd" clip-rule="evenodd" d="M24.5468 28.4808C24.2084 28.5126 24.3565 27.4655 24.3565 26.4925C24.4834 27.402 24.8324 28.2376 24.5468 28.4808Z" fill="white" stroke="#BD6B00" stroke-width="0.0528819"/>
<path fill-rule="evenodd" clip-rule="evenodd" d="M24.6738 28.4385C24.9065 28.5443 25.319 28.3645 25.4353 27.9731C25.0123 28.1529 24.7373 27.9731 24.6738 28.4385ZM27.3814 26.0905C27.3179 26.6088 27.1064 26.9049 26.7997 26.852C26.7151 26.5348 26.9689 26.3232 27.3814 26.0905ZM26.5564 27.402C27.0747 27.4761 27.2545 27.0847 27.6141 26.5665C27.117 26.9261 26.5353 26.9895 26.5564 27.4126V27.402Z" fill="white" stroke="#BD6B00" stroke-width="0.0528819"/>
<path fill-rule="evenodd" clip-rule="evenodd" d="M26.3976 27.3491C26.1226 27.0107 26.3976 26.5771 26.6091 26.2175C26.5668 26.7569 26.7466 27.0636 26.3976 27.3491ZM26.2918 27.9097C26.2495 27.5712 26.8206 27.4972 27.0745 27.3174C26.9793 27.5078 26.863 28.026 26.2812 27.9097H26.2918Z" fill="white" stroke="#BD6B00" stroke-width="0.0528819"/>
<path fill-rule="evenodd" clip-rule="evenodd" d="M26.165 27.9097C25.7737 27.8674 25.9324 27.2011 26.2179 26.8415C26.1016 27.3491 26.4295 27.6982 26.165 27.9097Z" fill="white" stroke="#BD6B00" stroke-width="0.0528819"/>
<path fill-rule="evenodd" clip-rule="evenodd" d="M25.8685 28.4702C25.4243 28.2587 25.7098 27.7087 25.8685 27.3809C25.805 27.8145 26.1646 28.1424 25.8685 28.4597V28.4702Z" fill="white" stroke="#BD6B00" stroke-width="0.0528819"/>
<path fill-rule="evenodd" clip-rule="evenodd" d="M25.9537 28.4068C26.1864 28.7241 26.6412 28.3222 26.7364 27.8568C26.345 28.1847 26.0489 28.1318 25.9537 28.4174V28.4068ZM24.9384 30.5538C24.8961 30.099 25.2345 29.2846 24.9913 28.8404C24.9595 28.777 25.0653 28.6183 25.1393 28.7135C25.2451 28.8721 25.3508 29.3164 25.4037 29.1471C25.446 28.9673 25.4566 28.6606 25.6153 28.5972C25.721 28.5654 25.8585 28.5337 25.8162 28.7029C25.7739 28.851 25.6893 29.0625 25.7845 29.0731C25.8374 29.0731 25.996 28.8616 26.1335 28.7558C26.2393 28.6712 26.4085 28.8193 26.2393 28.9462C25.7316 29.3692 25.2345 29.5702 24.9384 30.5538ZM24.0182 37.3755C23.9548 37.3755 23.8807 37.3438 23.9548 37.439C24.5576 38.1794 24.7268 38.3909 25.6047 38.2851C26.4825 38.1688 26.694 37.9255 27.3181 37.5765C27.4987 37.4814 27.6964 37.4232 27.8997 37.405C28.1031 37.3869 28.308 37.4092 28.5026 37.4707C28.6718 37.5236 28.7776 37.5236 28.6507 37.3967C28.5238 37.2804 28.3863 37.1111 28.2276 36.9948C27.8331 36.7309 27.3522 36.6287 26.8844 36.7092C26.2498 36.815 25.7104 37.2275 25.0653 37.3861C24.7198 37.4559 24.3638 37.4559 24.0182 37.3861V37.3755ZM29.0737 38.6976C29.1795 38.7187 29.2535 38.9303 29.317 38.7928C29.4016 38.5495 29.3381 38.3697 29.2324 38.3803C29.1055 38.412 28.9045 38.6976 29.0737 38.6976Z" fill="white" stroke="#BD6B00" stroke-width="0.0528819"/>
<path fill-rule="evenodd" clip-rule="evenodd" d="M23.6067 30.2048C23.4798 30.0567 23.5115 30.0144 23.7125 30.0038C23.8606 30.0038 24.1567 30.1096 24.273 30.0144C24.3788 29.9404 24.3259 29.6231 24.3788 29.4856C24.4 29.3904 24.4528 29.274 24.5903 29.4644C24.9711 30.0778 25.4364 30.8182 25.648 31.5374C25.7537 31.9393 25.648 32.5739 25.2884 32.9969C25.2884 32.6373 25.1615 32.3941 25.0028 32.0874C24.7913 31.696 24.0404 30.6067 23.6067 30.1942V30.2048Z" fill="white"/>
<path fill-rule="evenodd" clip-rule="evenodd" d="M25.1817 33.42C25.6047 33.42 25.6788 32.8594 25.6788 32.7008C25.4672 32.7431 25.1076 33.0921 25.1817 33.42ZM28.8305 38.9091C29.1267 38.9726 29.1161 38.2534 28.8094 37.9467C28.9469 38.412 28.5978 38.8351 28.82 38.8985L28.8305 38.9091ZM28.7036 38.8985C28.7248 39.237 27.8575 38.8562 27.646 38.5813C28.1536 38.8034 28.6825 38.6236 28.7036 38.8985ZM28.3334 38.412C28.3652 38.7399 27.5931 38.4438 27.3498 38.1899C27.8681 38.3592 28.3017 38.137 28.3334 38.4015V38.412ZM28.4709 38.4543C28.7776 38.5284 28.7248 37.7774 28.4286 37.5236C28.5767 38.0207 28.2383 38.3803 28.4709 38.4543ZM28.1536 37.9996C28.4604 38.0736 28.2806 37.4284 28.0585 37.1746C28.1008 37.64 27.9527 37.9678 28.1642 37.9996H28.1536ZM27.995 37.9996C28.0267 38.338 27.4239 38.0842 27.1912 37.7563C27.6989 37.9149 27.9633 37.7246 27.995 37.9996ZM27.8363 37.7351C28.0267 37.5977 27.8258 37.2275 27.445 37.2486C27.4873 37.4707 27.6142 37.8726 27.8363 37.7351ZM29.317 39.2899C29.3276 39.6283 28.4709 39.4591 28.1959 39.0995C28.7459 39.2053 29.2853 39.0149 29.3065 39.2899H29.317ZM25.8903 38.6764C25.922 39.0149 24.9807 38.6341 24.748 38.3168C25.2451 38.4861 25.8586 38.4015 25.8903 38.6764ZM26.4614 38.8139C26.6624 38.6764 26.2605 38.3168 25.9326 38.2322C25.9749 38.4543 26.2499 38.9514 26.4614 38.8245V38.8139ZM26.5249 39.0572C26.546 39.3639 25.5201 39.1947 25.2557 38.9091C26.1336 39.0678 26.4931 38.7928 26.5249 39.0572Z" fill="white" stroke="#BD6B00" stroke-width="0.0528819"/>
<path fill-rule="evenodd" clip-rule="evenodd" d="M27.012 39.2581C27.1178 39.5437 26.1342 39.4697 25.7852 39.311C26.3457 39.311 26.9274 39.0572 27.012 39.2581Z" fill="white" stroke="#BD6B00" stroke-width="0.0528819"/>
<path fill-rule="evenodd" clip-rule="evenodd" d="M27.4668 39.4697C27.5725 39.7235 26.663 39.7235 26.2188 39.5754C26.811 39.5754 27.361 39.2158 27.4668 39.4697ZM28.1331 39.6072C28.3023 39.9139 27.3293 39.935 27.0226 39.787C27.5725 39.7129 27.9956 39.3639 28.1331 39.6072ZM27.0014 39.0889C26.6947 39.2793 26.7158 38.7082 26.4726 38.3168C26.8533 38.6659 27.2129 38.9091 27.0014 39.0889Z" fill="white" stroke="#BD6B00" stroke-width="0.0528819"/>
<path fill-rule="evenodd" clip-rule="evenodd" d="M27.5516 39.3004C27.2977 39.5225 27.0862 38.7399 26.8535 38.2957C27.2343 38.7187 27.7842 39.1101 27.5516 39.2899V39.3004ZM28.2708 39.512C28.0592 39.7658 27.4247 38.7716 27.192 38.2428C27.541 38.6553 28.44 39.3004 28.2708 39.512ZM27.6573 40.2735C27.5516 40.6542 25.944 39.9139 25.7536 39.5225C26.6843 40.0091 27.6785 39.9033 27.6573 40.2629V40.2735ZM22.5066 32.4681C22.4643 32.4152 22.3586 32.4681 22.3797 32.5844C22.4114 32.7431 22.6441 33.5575 23.046 33.8325C23.3316 34.044 24.844 34.3719 25.5209 34.5199C25.9017 34.594 26.2084 34.7843 26.4622 35.0805C26.3754 34.7295 26.2694 34.3835 26.1449 34.044C26.018 33.7267 25.6795 33.3882 25.32 33.3777C24.6748 33.3459 23.8287 33.2931 23.2047 33.0287C22.922 32.9095 22.6771 32.7157 22.4961 32.4681H22.5066Z" fill="white" stroke="#BD6B00" stroke-width="0.0528819"/>
<path fill-rule="evenodd" clip-rule="evenodd" d="M26.24 35.6939C26.4515 35.842 26.6736 35.3026 26.4198 34.7843C26.4092 35.2814 26.0179 35.4506 26.24 35.6939Z" fill="white" stroke="#BD6B00" stroke-width="0.0528819"/>
<path fill-rule="evenodd" clip-rule="evenodd" d="M26.4404 36.191C26.7259 36.2756 26.8105 35.7679 26.6307 35.366C26.6625 35.7997 26.1759 36.0641 26.4404 36.191Z" fill="white" stroke="#BD6B00" stroke-width="0.0528819"/>
<path fill-rule="evenodd" clip-rule="evenodd" d="M26.6621 36.5929C26.9371 36.7304 27.0323 36.2121 26.8419 35.842C26.863 36.3179 26.4506 36.466 26.6621 36.5823V36.5929Z" fill="white" stroke="#BD6B00" stroke-width="0.0528819"/>
<path fill-rule="evenodd" clip-rule="evenodd" d="M26.5453 36.6246C26.4396 36.9419 25.805 36.3391 25.6992 36.0112C26.0905 36.4025 26.6194 36.3496 26.5453 36.614V36.6246Z" fill="white" stroke="#BD6B00" stroke-width="0.0528819"/>
<path fill-rule="evenodd" clip-rule="evenodd" d="M26.2601 36.1275C26.1332 36.4448 25.34 35.5987 25.1602 35.2074C25.5515 35.5987 26.3447 35.8948 26.2601 36.1169V36.1275Z" fill="white" stroke="#BD6B00" stroke-width="0.0528819"/>
<path fill-rule="evenodd" clip-rule="evenodd" d="M26.1027 35.6304C25.9758 36.0006 25.1191 35.017 24.8652 34.668C25.2883 35.0487 26.1979 35.366 26.1027 35.6304ZM26.0709 35.2708C26.3882 35.2074 26.0604 34.9536 25.6796 34.5411C25.669 34.9747 25.7325 35.2814 26.0709 35.2708Z" fill="white" stroke="#BD6B00" stroke-width="0.0528819"/>
<path fill-rule="evenodd" clip-rule="evenodd" d="M25.5515 35.017C25.689 34.8795 25.4351 34.8161 25.1179 34.4565C25.065 34.6997 25.414 35.1439 25.5621 35.017H25.5515ZM27.0322 36.6246C27.2014 36.7304 27.3072 36.3814 27.1062 36.0747C27.0533 36.4131 26.8841 36.4977 27.0322 36.6246ZM23.4151 34.4776C23.066 34.6891 22.5055 33.843 22.3574 33.494C22.6641 33.8959 23.4785 34.2555 23.4151 34.4776Z" fill="white" stroke="#BD6B00" stroke-width="0.0528819"/>
<path fill-rule="evenodd" clip-rule="evenodd" d="M23.7232 34.9641C23.5222 35.1757 22.9088 34.594 22.6973 34.2978C23.0146 34.5834 23.8078 34.6151 23.7232 34.9641Z" fill="white" stroke="#BD6B00" stroke-width="0.0528819"/>
<path fill-rule="evenodd" clip-rule="evenodd" d="M24.0501 35.4083C23.9867 35.7045 23.0982 35.0382 22.8867 34.7209C23.2675 35.091 24.1136 35.0593 24.0501 35.4083Z" fill="white" stroke="#BD6B00" stroke-width="0.0528819"/>
<path fill-rule="evenodd" clip-rule="evenodd" d="M23.9123 35.7362C23.7748 36.0006 23.045 35.3343 22.8652 34.9959C23.32 35.3766 24.0286 35.4718 23.9229 35.7362H23.9123ZM23.5421 34.4353C23.7642 34.1921 23.669 34.0757 23.4998 33.695C23.4152 34.0863 23.2777 34.2449 23.5421 34.4353ZM23.8488 34.8901C24.2719 34.9112 23.8488 34.4036 23.7431 33.9699C23.7854 34.4565 23.6373 34.8478 23.8488 34.8901Z" fill="white" stroke="#BD6B00" stroke-width="0.0528819"/>
<path fill-rule="evenodd" clip-rule="evenodd" d="M24.1146 35.292C24.4001 35.2285 24.3261 34.8161 24.0934 34.319C24.1463 34.8584 23.8502 35.1651 24.1146 35.292ZM24.0088 36.1064C23.903 36.4237 23.0781 35.6833 22.9512 35.3872C23.3742 35.7468 24.0828 35.8631 24.0088 36.1064Z" fill="white" stroke="#BD6B00" stroke-width="0.0528819"/>
<path fill-rule="evenodd" clip-rule="evenodd" d="M24.5058 36.614C24.3895 36.9313 23.5222 36.2756 23.2578 35.916C23.7761 36.3391 24.5693 36.2968 24.5058 36.614Z" fill="white" stroke="#BD6B00" stroke-width="0.0528819"/>
<path fill-rule="evenodd" clip-rule="evenodd" d="M25.0126 37.1323C24.8751 37.5871 23.9656 36.8573 23.7012 36.4977C24.2723 36.9419 25.0761 36.815 25.0126 37.1323ZM24.1665 35.9689C24.4098 36.0852 24.505 35.3978 24.3675 34.9007C24.3675 35.4295 23.8704 35.8314 24.156 35.9583L24.1665 35.9689Z" fill="white" stroke="#BD6B00" stroke-width="0.0528819"/>
<path fill-rule="evenodd" clip-rule="evenodd" d="M24.5784 36.5189C24.8745 36.6035 24.7899 35.8525 24.5255 35.3555C24.4938 35.8525 24.2822 36.3073 24.5784 36.5189ZM25.1072 37.0371C25.4245 37.0477 25.213 36.3919 24.938 36.0218C24.9803 36.4977 24.8322 36.9736 25.1072 37.0371ZM24.5255 37.3121C24.4197 37.4813 24.1871 37.1746 23.7852 36.9419C24.1448 37.0477 24.5678 37.1534 24.5255 37.3121ZM24.3351 31.7383C24.6524 31.5057 24.4092 31.0826 24.3351 30.6807C24.2294 31.0614 23.9755 31.5691 24.3351 31.7383ZM24.3351 32.2989C23.8592 32.246 23.9332 31.6537 23.9121 31.273C24.0601 31.7912 24.4409 31.8758 24.3351 32.3095V32.2989ZM24.3986 32.2248C24.7899 32.2037 24.7688 31.7595 24.7899 31.3153C24.589 31.7278 24.3669 31.7912 24.3986 32.2248Z" fill="white" stroke="#BD6B00" stroke-width="0.0528819"/>
<path fill-rule="evenodd" clip-rule="evenodd" d="M24.3882 32.7748C24.0709 32.8066 23.9228 32.4998 23.8594 32.0345C24.1449 32.4681 24.3988 32.3306 24.3882 32.7748ZM24.494 32.7431C24.8853 32.796 24.8112 32.3412 24.8112 32.0027C24.6843 32.32 24.367 32.4258 24.494 32.7431Z" fill="white" stroke="#BD6B00" stroke-width="0.0528819"/>
<path fill-rule="evenodd" clip-rule="evenodd" d="M23.8809 32.5527C23.9126 32.8489 24.103 33.3565 24.4097 33.2402C24.526 32.8806 24.1347 32.8066 23.8809 32.5527Z" fill="white" stroke="#BD6B00" stroke-width="0.0528819"/>
<path fill-rule="evenodd" clip-rule="evenodd" d="M24.4946 33.2719C24.3677 33.0181 24.8119 32.8806 24.8965 32.5421C24.9494 33.0287 24.9071 33.346 24.4946 33.2825V33.2719ZM23.236 30.1836C23.4793 29.9298 23.2677 29.5067 23.1937 29.1048C23.0879 29.4856 22.9293 29.9932 23.236 30.1836ZM23.236 30.6701C22.8129 30.723 22.7072 29.8558 22.6543 29.475C22.8024 29.9932 23.2889 30.2153 23.236 30.6807V30.6701ZM23.3206 30.6701C23.6167 30.5115 23.5533 30.173 23.6379 29.9298C23.4475 30.2365 23.2571 30.2788 23.3206 30.6701Z" fill="white" stroke="#BD6B00" stroke-width="0.0528819"/>
<path fill-rule="evenodd" clip-rule="evenodd" d="M23.2251 31.2413C22.7914 31.273 22.527 30.3105 22.5059 29.9298C22.6434 30.448 23.2885 30.723 23.2356 31.2413H23.2251ZM23.3202 31.2201C23.7433 31.1249 23.6904 30.8499 23.627 30.4163C23.4895 30.8605 23.2568 30.7653 23.3202 31.2201Z" fill="white" stroke="#BD6B00" stroke-width="0.0528819"/>
<path fill-rule="evenodd" clip-rule="evenodd" d="M23.225 31.7912C22.7385 31.8758 22.7702 31.0932 22.3789 30.5326C22.7174 30.9557 23.3308 31.4845 23.225 31.7912ZM23.3308 31.7595C23.7115 31.7806 23.7538 31.2201 23.7327 30.9874C23.6375 31.2201 23.2039 31.4316 23.3414 31.7701L23.3308 31.7595Z" fill="white" stroke="#BD6B00" stroke-width="0.0528819"/>
<path fill-rule="evenodd" clip-rule="evenodd" d="M22.4629 31.1884C22.6427 31.7912 22.9071 32.3941 23.2244 32.3518C23.383 32.0028 22.9177 31.9604 22.4629 31.1884Z" fill="white" stroke="#BD6B00" stroke-width="0.0528819"/>
<path fill-rule="evenodd" clip-rule="evenodd" d="M23.3408 32.2566C23.2139 31.9922 23.6581 31.8653 23.7427 31.5268C23.7955 32.0133 23.7532 32.3306 23.3408 32.2566ZM22.5898 31.8758C22.8543 32.4152 22.9706 33.0392 23.3302 32.944C23.4677 32.521 22.9283 32.4364 22.5898 31.8758Z" fill="white" stroke="#BD6B00" stroke-width="0.0528819"/>
<path fill-rule="evenodd" clip-rule="evenodd" d="M23.4051 32.8489C23.2464 32.5527 23.6906 32.4575 23.807 32.0662C23.8599 32.5739 23.807 32.944 23.4051 32.8383V32.8489ZM24.1666 29.2C24.4204 29.2635 24.6954 28.9779 24.6002 28.5443C24.3041 28.6077 24.1772 28.8827 24.1666 29.2ZM23.3311 28.9779C23.3522 29.1048 23.5108 29.1154 23.458 28.9356C23.4185 28.819 23.4185 28.6926 23.458 28.576C23.5089 28.4178 23.5089 28.2477 23.458 28.0895C23.4157 27.9837 23.2676 28.0472 23.3311 28.1318C23.3945 28.227 23.4051 28.4279 23.3522 28.5231C23.2887 28.6606 23.3099 28.8404 23.3311 28.9779ZM25.753 30.6701C25.6473 30.8076 25.4463 30.7124 25.605 30.5115C25.7319 30.3528 25.9223 30.2153 25.9223 30.0461C25.9434 29.8346 26.0598 29.5173 26.1761 29.401C26.2924 29.2846 26.4299 29.4433 26.303 29.5279C26.1655 29.6125 26.0703 29.9932 26.0809 30.1413C26.0703 30.3528 25.8694 30.5115 25.753 30.6701ZM25.4357 30.4269C25.33 30.5749 25.1819 30.4798 25.2665 30.2471C25.3406 30.0884 25.3511 29.8769 25.4357 29.7606C25.5627 29.5808 25.753 29.4327 25.8694 29.3164C25.9963 29.2106 26.0809 29.3164 25.9751 29.4221C25.8455 29.5516 25.7286 29.6933 25.6261 29.8452C25.4781 30.0779 25.5415 30.2682 25.4357 30.4269ZM23.7753 29.6654C23.7647 29.8769 23.9339 29.9192 23.9233 29.6231C23.9233 29.3058 23.6906 29.0096 23.8176 28.5337C23.9022 28.301 23.9022 27.8674 23.8599 27.6453C23.8176 27.4126 23.6483 27.5607 23.7224 27.7405C23.7858 27.952 23.7118 28.3327 23.6589 28.5337C23.5003 29.1048 23.7858 29.3798 23.7647 29.6654H23.7753ZM24.23 28.502C24.2089 28.7029 24.0397 28.7135 24.0926 28.4491C24.1349 28.2376 24.1349 28.0683 24.0926 27.8885C24.0291 27.6664 24.0502 27.2857 24.0926 27.127C24.1454 26.9578 24.3041 27.053 24.2406 27.1799C24.1668 27.3798 24.1557 27.5975 24.2089 27.8039C24.2723 28.0155 24.2618 28.3116 24.23 28.5125V28.502ZM22.5801 32.4258C22.6647 32.521 22.7917 32.4575 22.6859 32.32C22.5801 32.2143 22.6119 32.1931 22.5484 32.0662C22.4849 31.9181 22.4955 31.8441 22.4215 31.7489C22.3474 31.6432 22.2523 31.7489 22.3157 31.823C22.4003 31.9287 22.3792 31.9922 22.4215 32.0874C22.5272 32.246 22.4955 32.3306 22.5801 32.4258ZM24.7377 35.0276C24.867 35.099 24.9769 35.2009 25.058 35.3244C25.1391 35.4478 25.1889 35.5892 25.2031 35.7362C25.2141 35.9996 25.2866 36.2567 25.4146 36.4871C25.2031 36.4343 25.0973 36.0958 25.0656 35.7679C25.0338 35.4295 24.854 35.292 24.7483 35.0276H24.7377ZM25.2771 35.6516C25.4569 35.9795 25.7002 36.1064 25.7213 36.3496C25.7425 36.6352 25.7636 36.6458 25.8377 36.9208C25.6261 36.8679 25.5732 36.8467 25.5204 36.4237C25.4886 36.1275 25.2454 35.9266 25.2771 35.6516Z" fill="white" stroke="#BD6B00" stroke-width="0.0528819"/>
<path fill-rule="evenodd" clip-rule="evenodd" d="M30.8406 38.6976C30.9463 38.888 31.0521 39.1735 31.2636 39.1206C31.2636 38.9831 31.0415 38.8774 30.8406 38.6976ZM31.1579 38.761C31.5492 38.9303 31.8982 38.888 31.9511 39.1418C31.5704 39.1841 31.4223 39.036 31.1473 38.761H31.1579ZM29.4551 37.4178C29.7179 37.6221 29.9042 37.909 29.9839 38.2322C30.0692 38.5246 30.1975 38.8026 30.3646 39.0572C30.0896 38.8724 29.8905 38.5944 29.8041 38.2745C29.7301 37.9572 29.6349 37.714 29.4551 37.4284V37.4178ZM29.7829 37.4178C30.0791 37.6505 30.3541 37.9255 30.4387 38.2534C30.5233 38.5601 30.5762 38.7928 30.7771 39.0995C30.4598 38.8985 30.3435 38.6024 30.2483 38.2745C30.1743 37.9572 29.9839 37.7246 29.7829 37.4284V37.4178ZM30.756 38.1899C30.7518 38.1635 30.7569 38.1364 30.7704 38.1133C30.7839 38.0902 30.805 38.0724 30.83 38.063C30.9205 38.031 31.0122 38.0028 31.105 37.9784C31.2108 37.9467 31.2742 38.0207 31.2742 38.0736V38.2851C31.2742 38.3591 31.2531 38.3697 31.2002 38.3803C31.1261 38.3909 31.0204 38.4014 30.9463 38.4543C30.8829 38.4966 30.8194 38.4649 30.7877 38.4014L30.756 38.1899ZM31.8771 38.1899C31.8771 38.1265 31.8559 38.0736 31.8136 38.063C31.7333 38.0298 31.6465 38.0153 31.5598 38.0207C31.454 38.0207 31.4434 38.0419 31.4434 38.0842V38.3063C31.4434 38.3909 31.4434 38.3909 31.4857 38.412C31.5598 38.412 31.6761 38.412 31.7502 38.4755C31.803 38.5072 31.8559 38.4755 31.8665 38.412L31.8771 38.1899Z" fill="white"/>
<path fill-rule="evenodd" clip-rule="evenodd" d="M36.5212 30.5749C36.6481 30.3634 36.8067 30.8711 37.3461 31.2413C37.5894 31.4105 37.7692 31.8653 37.7692 32.1614C37.7692 32.3729 37.748 32.5739 37.7692 32.7748C37.7798 32.8912 37.9173 33.1767 37.8221 33.2508C37.5894 33.42 37.2827 33.8219 37.1452 33.9594C37.0183 34.0651 36.9125 33.3988 36.8279 33.1133C36.7221 32.796 36.7644 32.4047 36.4895 32.1191C36.2991 31.9076 35.8126 31.7172 35.8549 31.6326L36.5212 30.5749Z" fill="white" stroke="#BD6B00" stroke-width="0.0528819"/>
<path fill-rule="evenodd" clip-rule="evenodd" d="M36.5528 32.2037C36.5948 32.1039 36.6519 32.0112 36.722 31.9287C36.7895 31.8451 36.8767 31.7797 36.9758 31.7383C37.0733 31.7094 37.161 31.6546 37.2297 31.5797C37.2701 31.5343 37.2992 31.4799 37.3143 31.421C37.3263 31.3511 37.3263 31.2795 37.3143 31.2095L37.346 31.2412C37.5893 31.4105 37.7691 31.8653 37.7691 32.1614C37.7723 32.2424 37.7723 32.3236 37.7691 32.4046C37.7479 32.4575 37.7373 32.5104 37.7056 32.5421L37.5893 32.6268L37.3037 32.7008C37.1968 32.7489 37.1026 32.8213 37.0287 32.9123C36.9517 32.9938 36.8876 33.0866 36.8384 33.1873L36.8172 33.1027C36.7326 32.8171 36.7432 32.4787 36.5422 32.2037H36.5528Z" fill="#BF0000" stroke="#BD6B00" stroke-width="0.0528819"/>
<path d="M37.3131 31.1989C37.366 31.548 37.1651 31.6749 36.9747 31.7383C36.7843 31.8124 36.6257 32.0133 36.5516 32.2037M37.7891 32.3623C37.7045 32.6796 37.4929 32.6373 37.3026 32.7008C37.1122 32.7748 36.9112 33.0181 36.8266 33.2085" stroke="#BD6B00" stroke-width="0.0528819"/>
<path fill-rule="evenodd" clip-rule="evenodd" d="M36.6992 30.3634L36.5935 30.3L34.7214 33.4623L34.8272 33.5258L36.6992 30.3634Z" fill="white" stroke="#BD6B00" stroke-width="0.0528819"/>
<path fill-rule="evenodd" clip-rule="evenodd" d="M36.4988 30.2365C36.4988 30.2926 36.5211 30.3464 36.5608 30.3861C36.6004 30.4257 36.6542 30.448 36.7103 30.448C36.7664 30.448 36.8203 30.4257 36.8599 30.3861C36.8996 30.3464 36.9219 30.2926 36.9219 30.2365C36.9219 30.1804 36.8996 30.1266 36.8599 30.0869C36.8203 30.0473 36.7664 30.025 36.7103 30.025C36.6542 30.025 36.6004 30.0473 36.5608 30.0869C36.5211 30.1266 36.4988 30.1804 36.4988 30.2365ZM34.8912 27.6982H34.1297V27.8674H34.8912V27.6982ZM34.8912 28.026H34.1297V29.4856H34.8912V28.026ZM34.9335 27.4972H34.0874C34.0663 27.2117 34.3518 26.9049 34.5105 26.9049C34.6797 26.9155 34.9441 27.2222 34.9335 27.4972Z" fill="white" stroke="#BD6B00" stroke-width="0.0528819"/>
<path fill-rule="evenodd" clip-rule="evenodd" d="M32.7865 27.328C32.9452 27.3915 33.0721 27.5713 33.1461 27.7828C33.2201 27.9943 33.2519 28.2376 33.2096 28.4279C33.2096 28.502 33.1778 28.5443 33.1567 28.5866C33.1355 28.6183 33.1144 28.6395 33.0932 28.6395C33.0615 28.6395 33.0298 28.6395 33.0192 28.6077L32.998 28.5231C33.0086 28.3116 33.0086 28.1212 32.9663 27.952C32.9193 27.7641 32.8068 27.5991 32.649 27.4866C32.6173 27.4655 32.6067 27.4338 32.5961 27.4126C32.5965 27.3847 32.6079 27.3581 32.6279 27.3386C32.6702 27.3068 32.7336 27.2963 32.7865 27.328ZM32.7654 27.3703C32.7231 27.3491 32.6808 27.3703 32.6596 27.3809L32.649 27.402C32.649 27.4126 32.649 27.4232 32.6807 27.4443C32.8432 27.5635 32.9592 27.7355 33.0086 27.9308C33.0525 28.1251 33.0632 28.3253 33.0403 28.5231C33.0403 28.546 33.0478 28.5683 33.0615 28.5866C33.0615 28.5866 33.0615 28.5972 33.0827 28.5866C33.0827 28.5866 33.1038 28.5866 33.125 28.5549C33.1459 28.5151 33.1602 28.4723 33.1673 28.4279C33.199 28.2376 33.1673 28.0049 33.0932 27.7934C33.0192 27.603 32.9029 27.4338 32.7759 27.3703H32.7654Z" fill="#BD6B00"/>
<path fill-rule="evenodd" clip-rule="evenodd" d="M32.5116 27.5289C32.6702 27.603 32.776 27.7722 32.8288 27.9731C32.885 28.1763 32.8959 28.3893 32.8606 28.5971C32.8394 28.7346 32.7548 28.8087 32.6914 28.8087C32.6596 28.8193 32.6279 28.8087 32.6067 28.7769C32.5856 28.7452 32.575 28.7135 32.5856 28.6712C32.6279 28.502 32.6385 28.3116 32.6173 28.1318C32.5856 27.952 32.5116 27.7933 32.3846 27.6982C32.3529 27.6664 32.3318 27.6453 32.3318 27.6135C32.3308 27.6021 32.3322 27.5905 32.3358 27.5796C32.3394 27.5687 32.3453 27.5587 32.3529 27.5501C32.3952 27.5184 32.4587 27.5078 32.5116 27.5289ZM32.4904 27.5818C32.4481 27.5607 32.4058 27.5712 32.3846 27.5818L32.3741 27.6135L32.4058 27.6559C32.4768 27.7128 32.5358 27.7832 32.5794 27.8631C32.6229 27.943 32.6502 28.0307 32.6596 28.1212C32.6914 28.3116 32.6702 28.5125 32.6385 28.6712C32.6279 28.7135 32.6385 28.7346 32.6385 28.7558L32.6914 28.7664C32.7231 28.7664 32.7971 28.7135 32.8183 28.5866C32.85 28.4068 32.8394 28.1741 32.7865 27.9837C32.7337 27.7933 32.6279 27.6347 32.4904 27.5818Z" fill="#BD6B00"/>
<path fill-rule="evenodd" clip-rule="evenodd" d="M34.9343 30.6701H34.0881V31.8335H34.9343V30.6701ZM34.8814 32.5104H34.067V32.7642H34.8814V32.5104ZM34.9025 32.944H34.0564V33.8642H34.9025V32.944ZM34.966 34.0546H34.0458V34.5728H34.966V34.0546ZM34.8496 32.2989H34.1093L33.9612 32.045H34.9766L34.8496 32.2989ZM33.8555 31.3893L33.8449 30.7547H33.3372C33.5555 30.9246 33.7326 31.1415 33.8555 31.3893Z" fill="white" stroke="#BD6B00" stroke-width="0.0528819"/>
<path fill-rule="evenodd" clip-rule="evenodd" d="M34.7969 31.6537C34.7969 31.7912 34.6382 31.7383 34.6382 31.6643V31.072C34.6382 30.9663 34.3844 30.9874 34.3844 31.0614V31.696C34.3844 31.8018 34.2046 31.7912 34.2152 31.696V30.9557C34.2152 30.723 34.7969 30.7336 34.7969 30.9451V31.6537ZM34.7969 33.0604H34.194V33.8007H34.7969V33.0604Z" stroke="#BD6B00" stroke-width="0.0528819"/>
<path fill-rule="evenodd" clip-rule="evenodd" d="M34.4164 33.3777H34.2049V33.4834H34.4164V33.3777ZM34.7866 33.3777H34.575V33.4834H34.7866V33.3777ZM34.575 33.0604H34.4164V33.3777H34.575V33.0604ZM34.575 33.4834H34.4164V33.8113H34.575V33.4834ZM37.9277 25.5512C37.8854 26.1329 38.0758 26.4607 38.3825 26.4078C38.4671 26.0906 38.2768 25.8684 37.9277 25.5512ZM38.6152 26.8521C38.8902 26.7146 38.6892 25.6358 38.5835 25.181C38.5094 25.7627 38.372 26.5876 38.6152 26.8521Z" fill="white"/>
<path d="M34.4164 33.3777H34.2049V33.4834H34.4164M34.4164 33.3777V33.4834M34.4164 33.3777V33.0604H34.575V33.3777M34.4164 33.3777H34.575M34.4164 33.4834H34.575M34.4164 33.4834V33.8113H34.575V33.4834M34.575 33.3777H34.7866V33.4834H34.575M34.575 33.3777V33.4834M37.9277 25.5512C37.8854 26.1329 38.0758 26.4607 38.3825 26.4078C38.4671 26.0906 38.2768 25.8684 37.9277 25.5512ZM38.6152 26.8521C38.8902 26.7146 38.6892 25.6358 38.5835 25.181C38.5094 25.7627 38.372 26.5876 38.6152 26.8521Z" stroke="#BD6B00" stroke-width="0.0528819"/>
<path fill-rule="evenodd" clip-rule="evenodd" d="M38.5201 26.9049C38.0548 27.0636 37.674 26.5665 37.5577 25.9848C37.9384 26.5136 38.5624 26.5136 38.5095 26.9049H38.5201ZM38.8691 27.4443C39.2287 27.3491 39.0172 26.2069 38.9432 25.7521C38.8691 26.228 38.6153 27.2857 38.8691 27.4443ZM38.7422 27.4126C38.7211 27.0213 38.3297 27.127 38.0548 26.9155C38.1076 27.127 38.2663 27.4655 38.7422 27.4126ZM39.1864 27.9414C39.546 27.8357 39.3345 26.6088 39.3557 26.1011C39.2499 26.5453 38.9115 27.8251 39.1864 27.9414ZM39.0172 27.8885C38.7211 27.9837 38.3298 27.7828 38.298 27.4338C38.5624 27.6135 38.9643 27.4761 39.0172 27.8885Z" fill="white" stroke="#BD6B00" stroke-width="0.0528819"/>
<path fill-rule="evenodd" clip-rule="evenodd" d="M39.461 28.4808C39.7994 28.5126 39.6513 27.4655 39.6513 26.4925C39.5244 27.402 39.1754 28.2376 39.461 28.4808Z" fill="white" stroke="#BD6B00" stroke-width="0.0528819"/>
<path fill-rule="evenodd" clip-rule="evenodd" d="M39.334 28.4385C39.1013 28.5443 38.6888 28.3645 38.5725 27.9731C38.9955 28.1529 39.2705 27.9731 39.334 28.4385ZM36.6264 26.0905C36.6899 26.6088 36.9014 26.9049 37.2081 26.852C37.2927 26.5348 37.0389 26.3232 36.6264 26.0905ZM37.4514 27.402C36.9331 27.4761 36.7533 27.0847 36.3938 26.5665C36.8908 26.9261 37.4725 26.9895 37.4514 27.4126V27.402Z" fill="white" stroke="#BD6B00" stroke-width="0.0528819"/>
<path fill-rule="evenodd" clip-rule="evenodd" d="M37.6102 27.3491C37.8852 27.0107 37.6102 26.5771 37.3987 26.2175C37.441 26.7569 37.2612 27.0636 37.6102 27.3491ZM37.716 27.9097C37.7583 27.5712 37.1872 27.4972 36.9333 27.3174C37.0285 27.5078 37.1449 28.026 37.7266 27.9097H37.716Z" fill="white" stroke="#BD6B00" stroke-width="0.0528819"/>
<path fill-rule="evenodd" clip-rule="evenodd" d="M37.8428 27.9097C38.2341 27.8674 38.0755 27.2011 37.7899 26.8415C37.9062 27.3491 37.5784 27.6982 37.8428 27.9097Z" fill="white" stroke="#BD6B00" stroke-width="0.0528819"/>
<path fill-rule="evenodd" clip-rule="evenodd" d="M38.1394 28.4702C38.5836 28.2587 38.298 27.7087 38.1394 27.3809C38.2028 27.8145 37.8432 28.1424 38.1394 28.4597V28.4702Z" fill="white" stroke="#BD6B00" stroke-width="0.0528819"/>
<path fill-rule="evenodd" clip-rule="evenodd" d="M38.0541 28.4068C37.8214 28.7241 37.3666 28.3222 37.2715 27.8568C37.6628 28.1847 37.9589 28.1318 38.0541 28.4174V28.4068ZM39.0694 30.5538C39.1117 30.099 38.7733 29.2846 39.0166 28.8404C39.0483 28.777 38.9425 28.6183 38.8685 28.7135C38.7627 28.8721 38.657 29.3164 38.6041 29.1471C38.5618 28.9673 38.5512 28.6606 38.3926 28.5972C38.2868 28.5654 38.1493 28.5337 38.1916 28.7029C38.2339 28.851 38.3185 29.0625 38.2233 29.0731C38.1705 29.0731 38.0118 28.8616 37.8743 28.7558C37.7685 28.6712 37.5993 28.8193 37.7685 28.9462C38.2762 29.3692 38.7733 29.5702 39.0694 30.5538ZM39.9896 37.3755C40.053 37.3755 40.1271 37.3438 40.053 37.439C39.4502 38.1794 39.281 38.3909 38.4031 38.2851C37.5253 38.1688 37.3138 37.9255 36.6898 37.5765C36.5091 37.4814 36.3114 37.4232 36.1081 37.405C35.9047 37.3869 35.6998 37.4092 35.5052 37.4707C35.336 37.5236 35.2302 37.5236 35.3571 37.3967C35.4841 37.2804 35.6215 37.1111 35.7802 36.9948C36.1747 36.7309 36.6556 36.6287 37.1234 36.7092C37.758 36.815 38.2974 37.2275 38.9425 37.3861C39.2881 37.4559 39.6441 37.4559 39.9896 37.3861V37.3755ZM34.9341 38.6976C34.8283 38.7187 34.7543 38.9303 34.6908 38.7928C34.6062 38.5495 34.6697 38.3697 34.7754 38.3803C34.9024 38.412 35.1033 38.6976 34.9341 38.6976Z" fill="white" stroke="#BD6B00" stroke-width="0.0528819"/>
<path fill-rule="evenodd" clip-rule="evenodd" d="M40.4011 30.2048C40.528 30.0567 40.4963 30.0144 40.2953 30.0038C40.1472 30.0038 39.8511 30.1096 39.7348 30.0144C39.629 29.9404 39.6819 29.6231 39.629 29.4856C39.6078 29.3904 39.555 29.274 39.4175 29.4644C39.0367 30.0778 38.5714 30.8182 38.3598 31.5374C38.2541 31.9393 38.3598 32.5739 38.7194 32.9969C38.7194 32.6373 38.8463 32.3941 39.005 32.0874C39.2165 31.696 39.9674 30.6067 40.4011 30.1942V30.2048Z" fill="white"/>
<path fill-rule="evenodd" clip-rule="evenodd" d="M38.8261 33.42C38.4031 33.42 38.329 32.8594 38.329 32.7008C38.5406 32.7431 38.9002 33.0921 38.8261 33.42ZM35.1773 38.9091C34.8811 38.9726 34.8917 38.2534 35.1984 37.9467C35.0609 38.412 35.41 38.8351 35.1879 38.8985L35.1773 38.9091ZM35.3042 38.8985C35.283 39.237 36.1503 38.8562 36.3618 38.5813C35.8542 38.8034 35.3254 38.6236 35.3042 38.8985ZM35.6744 38.412C35.6426 38.7399 36.4147 38.4438 36.658 38.1899C36.1397 38.3592 35.7061 38.137 35.6744 38.4015V38.412ZM35.5369 38.4543C35.2302 38.5284 35.283 37.7774 35.5792 37.5236C35.4311 38.0207 35.7696 38.3803 35.5369 38.4543ZM35.8542 37.9996C35.5475 38.0736 35.7273 37.4284 35.9494 37.1746C35.9071 37.64 36.0551 37.9678 35.8436 37.9996H35.8542ZM36.0128 37.9996C35.9811 38.338 36.5839 38.0842 36.8166 37.7563C36.309 37.9149 36.0445 37.7246 36.0128 37.9996ZM36.1715 37.7351C35.9811 37.5977 36.182 37.2275 36.5628 37.2486C36.5205 37.4707 36.3936 37.8726 36.1715 37.7351ZM34.6908 39.2899C34.6802 39.6283 35.5369 39.4591 35.8119 39.0995C35.2619 39.2053 34.7225 39.0149 34.7013 39.2899H34.6908ZM38.1175 38.6764C38.0858 39.0149 39.0271 38.6341 39.2598 38.3168C38.7627 38.4861 38.1492 38.4015 38.1175 38.6764ZM37.5464 38.8139C37.3454 38.6764 37.7473 38.3168 38.0752 38.2322C38.0329 38.4543 37.7579 38.9514 37.5464 38.8245V38.8139ZM37.4829 39.0572C37.4618 39.3639 38.4877 39.1947 38.7521 38.9091C37.8743 39.0678 37.5147 38.7928 37.4829 39.0572Z" fill="white" stroke="#BD6B00" stroke-width="0.0528819"/>
<path fill-rule="evenodd" clip-rule="evenodd" d="M36.9958 39.2581C36.89 39.5437 37.8736 39.4697 38.2227 39.311C37.6621 39.311 37.0804 39.0572 36.9958 39.2581Z" fill="white" stroke="#BD6B00" stroke-width="0.0528819"/>
<path fill-rule="evenodd" clip-rule="evenodd" d="M36.541 39.4697C36.4353 39.7235 37.3449 39.7235 37.7891 39.5754C37.1968 39.5754 36.6468 39.2158 36.541 39.4697ZM35.8747 39.6072C35.7055 39.9139 36.6785 39.935 36.9853 39.787C36.4353 39.7129 36.0122 39.3639 35.8747 39.6072ZM37.0064 39.0889C37.3131 39.2793 37.292 38.7082 37.5352 38.3168C37.1545 38.6659 36.7949 38.9091 37.0064 39.0889Z" fill="white" stroke="#BD6B00" stroke-width="0.0528819"/>
<path fill-rule="evenodd" clip-rule="evenodd" d="M36.4562 39.3004C36.7101 39.5225 36.9216 38.7399 37.1543 38.2957C36.7735 38.7187 36.2236 39.1101 36.4562 39.2899V39.3004ZM35.7371 39.512C35.9486 39.7658 36.5832 38.7716 36.8158 38.2428C36.4668 38.6553 35.5678 39.3004 35.7371 39.512ZM36.3505 40.2735C36.4562 40.6542 38.0639 39.9139 38.2542 39.5225C37.3235 40.0091 36.3293 39.9033 36.3505 40.2629V40.2735ZM41.5012 32.4681C41.5435 32.4152 41.6492 32.4681 41.6281 32.5844C41.5964 32.7431 41.3637 33.5575 40.9618 33.8325C40.6762 34.044 39.1638 34.3719 38.4869 34.5199C38.1062 34.594 37.7994 34.7843 37.5456 35.0805C37.6324 34.7295 37.7384 34.3835 37.8629 34.044C37.9898 33.7267 38.3283 33.3882 38.6879 33.3777C39.333 33.3459 40.1791 33.2931 40.8031 33.0287C41.0858 32.9095 41.3307 32.7157 41.5118 32.4681H41.5012Z" fill="white" stroke="#BD6B00" stroke-width="0.0528819"/>
<path fill-rule="evenodd" clip-rule="evenodd" d="M37.7678 35.6939C37.5563 35.842 37.3342 35.3026 37.588 34.7843C37.5986 35.2814 37.9899 35.4506 37.7678 35.6939Z" fill="white" stroke="#BD6B00" stroke-width="0.0528819"/>
<path fill-rule="evenodd" clip-rule="evenodd" d="M37.5675 36.191C37.2819 36.2756 37.1973 35.7679 37.3771 35.366C37.3454 35.7997 37.8319 36.0641 37.5675 36.191Z" fill="white" stroke="#BD6B00" stroke-width="0.0528819"/>
<path fill-rule="evenodd" clip-rule="evenodd" d="M37.3457 36.5929C37.0707 36.7304 36.9755 36.2121 37.1659 35.842C37.1448 36.3179 37.5572 36.466 37.3457 36.5823V36.5929Z" fill="white" stroke="#BD6B00" stroke-width="0.0528819"/>
<path fill-rule="evenodd" clip-rule="evenodd" d="M37.4625 36.6246C37.5682 36.9419 38.2028 36.3391 38.3086 36.0112C37.9173 36.4025 37.3884 36.3496 37.4625 36.614V36.6246Z" fill="white" stroke="#BD6B00" stroke-width="0.0528819"/>
<path fill-rule="evenodd" clip-rule="evenodd" d="M37.7477 36.1275C37.8746 36.4448 38.6679 35.5987 38.8477 35.2074C38.4563 35.5987 37.6631 35.8948 37.7477 36.1169V36.1275Z" fill="white" stroke="#BD6B00" stroke-width="0.0528819"/>
<path fill-rule="evenodd" clip-rule="evenodd" d="M37.9051 35.6304C38.0321 36.0006 38.8887 35.017 39.1426 34.668C38.7195 35.0487 37.81 35.366 37.9051 35.6304ZM37.9369 35.2708C37.6196 35.2074 37.9474 34.9536 38.3282 34.5411C38.3388 34.9747 38.2753 35.2814 37.9369 35.2708Z" fill="white" stroke="#BD6B00" stroke-width="0.0528819"/>
<path fill-rule="evenodd" clip-rule="evenodd" d="M38.4563 35.017C38.3188 34.8795 38.5727 34.8161 38.89 34.4565C38.9428 34.6997 38.5938 35.1439 38.4457 35.017H38.4563ZM36.9756 36.6246C36.8064 36.7304 36.7006 36.3814 36.9016 36.0747C36.9545 36.4131 37.1237 36.4977 36.9756 36.6246ZM40.5928 34.4776C40.9418 34.6891 41.5023 33.843 41.6504 33.494C41.3437 33.8959 40.5293 34.2555 40.5928 34.4776Z" fill="white" stroke="#BD6B00" stroke-width="0.0528819"/>
<path fill-rule="evenodd" clip-rule="evenodd" d="M40.2846 34.9641C40.4856 35.1757 41.099 34.594 41.3105 34.2978C40.9933 34.5834 40.2 34.6151 40.2846 34.9641Z" fill="white" stroke="#BD6B00" stroke-width="0.0528819"/>
<path fill-rule="evenodd" clip-rule="evenodd" d="M39.9577 35.4083C40.0212 35.7045 40.9096 35.0382 41.1211 34.7209C40.7403 35.091 39.8942 35.0593 39.9577 35.4083Z" fill="white" stroke="#BD6B00" stroke-width="0.0528819"/>
<path fill-rule="evenodd" clip-rule="evenodd" d="M40.0955 35.7362C40.233 36.0006 40.9628 35.3343 41.1426 34.9959C40.6878 35.3766 39.9792 35.4718 40.0849 35.7362H40.0955ZM40.4657 34.4353C40.2436 34.1921 40.3388 34.0757 40.508 33.695C40.5926 34.0863 40.7301 34.2449 40.4657 34.4353ZM40.159 34.8901C39.7359 34.9112 40.159 34.4036 40.2647 33.9699C40.2224 34.4565 40.3705 34.8478 40.159 34.8901Z" fill="white" stroke="#BD6B00" stroke-width="0.0528819"/>
<path fill-rule="evenodd" clip-rule="evenodd" d="M39.8932 35.292C39.6077 35.2285 39.6817 34.8161 39.9144 34.319C39.8615 34.8584 40.1576 35.1651 39.8932 35.292ZM39.999 36.1064C40.1048 36.4237 40.9297 35.6833 41.0566 35.3872C40.6336 35.7468 39.925 35.8631 39.999 36.1064Z" fill="white" stroke="#BD6B00" stroke-width="0.0528819"/>
<path fill-rule="evenodd" clip-rule="evenodd" d="M39.502 36.614C39.6183 36.9313 40.4856 36.2756 40.75 35.916C40.2318 36.3391 39.4385 36.2968 39.502 36.614Z" fill="white" stroke="#BD6B00" stroke-width="0.0528819"/>
<path fill-rule="evenodd" clip-rule="evenodd" d="M38.9952 37.1323C39.1327 37.5871 40.0422 36.8573 40.3066 36.4977C39.7355 36.9419 38.9317 36.815 38.9952 37.1323ZM39.8413 35.9689C39.598 36.0852 39.5028 35.3978 39.6403 34.9007C39.6403 35.4295 40.1374 35.8314 39.8519 35.9583L39.8413 35.9689Z" fill="white" stroke="#BD6B00" stroke-width="0.0528819"/>
<path fill-rule="evenodd" clip-rule="evenodd" d="M39.4294 36.5189C39.1333 36.6035 39.2179 35.8525 39.4823 35.3555C39.514 35.8525 39.7256 36.3073 39.4294 36.5189ZM38.9006 37.0371C38.5833 37.0477 38.7948 36.3919 39.0698 36.0218C39.0275 36.4977 39.1756 36.9736 38.9006 37.0371ZM39.4823 37.3121C39.5881 37.4813 39.8208 37.1746 40.2227 36.9419C39.8631 37.0477 39.44 37.1534 39.4823 37.3121ZM39.6727 31.7383C39.3554 31.5057 39.5987 31.0826 39.6727 30.6807C39.7784 31.0614 40.0323 31.5691 39.6727 31.7383ZM39.6727 32.2989C40.1486 32.246 40.0746 31.6537 40.0957 31.273C39.9477 31.7912 39.5669 31.8758 39.6727 32.3095V32.2989ZM39.6092 32.2248C39.2179 32.2037 39.2391 31.7595 39.2179 31.3153C39.4189 31.7278 39.641 31.7912 39.6092 32.2248Z" fill="white" stroke="#BD6B00" stroke-width="0.0528819"/>
<path fill-rule="evenodd" clip-rule="evenodd" d="M39.6196 32.7748C39.9369 32.8066 40.085 32.4998 40.1484 32.0345C39.8629 32.4681 39.609 32.3306 39.6196 32.7748ZM39.5139 32.7431C39.1225 32.796 39.1966 32.3412 39.1966 32.0027C39.3235 32.32 39.6408 32.4258 39.5139 32.7431Z" fill="white" stroke="#BD6B00" stroke-width="0.0528819"/>
<path fill-rule="evenodd" clip-rule="evenodd" d="M40.127 32.5527C40.0952 32.8489 39.9048 33.3565 39.5981 33.2402C39.4818 32.8806 39.8731 32.8066 40.127 32.5527Z" fill="white" stroke="#BD6B00" stroke-width="0.0528819"/>
<path fill-rule="evenodd" clip-rule="evenodd" d="M39.5132 33.2719C39.6401 33.0181 39.1959 32.8806 39.1113 32.5421C39.0584 33.0287 39.1007 33.346 39.5132 33.2825V33.2719ZM40.7718 30.1836C40.5286 29.9298 40.7401 29.5067 40.8141 29.1048C40.9199 29.4856 41.0785 29.9932 40.7718 30.1836ZM40.7718 30.6701C41.1949 30.723 41.3006 29.8558 41.3535 29.475C41.2054 29.9932 40.7189 30.2153 40.7718 30.6807V30.6701ZM40.6872 30.6701C40.3911 30.5115 40.4545 30.173 40.3699 29.9298C40.5603 30.2365 40.7507 30.2788 40.6872 30.6701Z" fill="white" stroke="#BD6B00" stroke-width="0.0528819"/>
<path fill-rule="evenodd" clip-rule="evenodd" d="M40.7828 31.2413C41.2164 31.273 41.4808 30.3105 41.502 29.9298C41.3645 30.448 40.7193 30.723 40.7722 31.2413H40.7828ZM40.6876 31.2201C40.2645 31.1249 40.3174 30.8499 40.3809 30.4163C40.5183 30.8605 40.751 30.7653 40.6876 31.2201Z" fill="white" stroke="#BD6B00" stroke-width="0.0528819"/>
<path fill-rule="evenodd" clip-rule="evenodd" d="M40.7828 31.7912C41.2693 31.8758 41.2376 31.0932 41.6289 30.5326C41.2905 30.9557 40.677 31.4845 40.7828 31.7912ZM40.677 31.7595C40.2963 31.7806 40.254 31.2201 40.2751 30.9874C40.3703 31.2201 40.8039 31.4316 40.6665 31.7701L40.677 31.7595Z" fill="white" stroke="#BD6B00" stroke-width="0.0528819"/>
<path fill-rule="evenodd" clip-rule="evenodd" d="M41.5449 31.1884C41.3651 31.7912 41.1007 32.3941 40.7834 32.3518C40.6248 32.0028 41.0901 31.9604 41.5449 31.1884Z" fill="white" stroke="#BD6B00" stroke-width="0.0528819"/>
<path fill-rule="evenodd" clip-rule="evenodd" d="M40.667 32.2566C40.794 31.9922 40.3498 31.8653 40.2651 31.5268C40.2123 32.0133 40.2546 32.3306 40.667 32.2566ZM41.418 31.8758C41.1536 32.4152 41.0372 33.0392 40.6776 32.944C40.5401 32.521 41.0795 32.4364 41.418 31.8758Z" fill="white" stroke="#BD6B00" stroke-width="0.0528819"/>
<path fill-rule="evenodd" clip-rule="evenodd" d="M40.6027 32.8489C40.7614 32.5527 40.3172 32.4575 40.2008 32.0662C40.1479 32.5739 40.2008 32.944 40.6027 32.8383V32.8489ZM39.8412 29.2C39.5874 29.2635 39.3124 28.9779 39.4076 28.5443C39.7037 28.6077 39.8307 28.8827 39.8412 29.2ZM40.6768 28.9779C40.6556 29.1048 40.497 29.1154 40.5498 28.9356C40.5893 28.819 40.5893 28.6926 40.5498 28.576C40.4989 28.4178 40.4989 28.2477 40.5498 28.0895C40.5922 27.9837 40.7402 28.0472 40.6768 28.1318C40.6133 28.227 40.6027 28.4279 40.6556 28.5231C40.7191 28.6606 40.6979 28.8404 40.6768 28.9779ZM38.2548 30.6701C38.3605 30.8076 38.5615 30.7124 38.4028 30.5115C38.2759 30.3528 38.0855 30.2153 38.0855 30.0461C38.0644 29.8346 37.9481 29.5173 37.8317 29.401C37.7154 29.2846 37.5779 29.4433 37.7048 29.5279C37.8423 29.6125 37.9375 29.9932 37.9269 30.1413C37.9375 30.3528 38.1384 30.5115 38.2548 30.6701ZM38.5721 30.4269C38.6778 30.5749 38.8259 30.4798 38.7413 30.2471C38.6672 30.0884 38.6567 29.8769 38.5721 29.7606C38.4451 29.5808 38.2548 29.4327 38.1384 29.3164C38.0115 29.2106 37.9269 29.3164 38.0327 29.4221C38.1623 29.5516 38.2792 29.6933 38.3817 29.8452C38.5298 30.0779 38.4663 30.2682 38.5721 30.4269ZM40.2326 29.6654C40.2431 29.8769 40.0739 29.9192 40.0845 29.6231C40.0845 29.3058 40.3172 29.0096 40.1902 28.5337C40.1056 28.301 40.1056 27.8674 40.1479 27.6453C40.1902 27.4126 40.3595 27.5607 40.2854 27.7405C40.222 27.952 40.296 28.3327 40.3489 28.5337C40.5075 29.1048 40.222 29.3798 40.2431 29.6654H40.2326ZM39.7778 28.502C39.7989 28.7029 39.9681 28.7135 39.9153 28.4491C39.873 28.2376 39.873 28.0683 39.9153 27.8885C39.9787 27.6664 39.9576 27.2857 39.9153 27.127C39.8624 26.9578 39.7037 27.053 39.7672 27.1799C39.841 27.3798 39.8521 27.5975 39.7989 27.8039C39.7355 28.0155 39.746 28.3116 39.7778 28.5125V28.502ZM41.4277 32.4258C41.3431 32.521 41.2162 32.4575 41.3219 32.32C41.4277 32.2143 41.396 32.1931 41.4594 32.0662C41.5229 31.9181 41.5123 31.8441 41.5863 31.7489C41.6604 31.6432 41.7556 31.7489 41.6921 31.823C41.6075 31.9287 41.6286 31.9922 41.5863 32.0874C41.4806 32.246 41.5123 32.3306 41.4277 32.4258ZM39.2701 35.0276C39.1408 35.099 39.0309 35.2009 38.9498 35.3244C38.8687 35.4478 38.8189 35.5892 38.8047 35.7362C38.7937 35.9996 38.7212 36.2567 38.5932 36.4871C38.8047 36.4343 38.9105 36.0958 38.9422 35.7679C38.974 35.4295 39.1538 35.292 39.2595 35.0276H39.2701ZM38.7307 35.6516C38.5509 35.9795 38.3077 36.1064 38.2865 36.3496C38.2653 36.6352 38.2442 36.6458 38.1702 36.9208C38.3817 36.8679 38.4346 36.8467 38.4875 36.4237C38.5192 36.1275 38.7624 35.9266 38.7307 35.6516Z" fill="white" stroke="#BD6B00" stroke-width="0.0528819"/>
<path fill-rule="evenodd" clip-rule="evenodd" d="M33.1672 38.6976C33.0615 38.888 32.9557 39.1735 32.7442 39.1206C32.7442 38.9831 32.9663 38.8774 33.1672 38.6976ZM32.8499 38.761C32.4586 38.9303 32.1096 38.888 32.0567 39.1418C32.4375 39.1841 32.5855 39.036 32.8605 38.761H32.8499ZM34.5527 37.4178C34.2899 37.6221 34.1036 37.909 34.0239 38.2322C33.9387 38.5246 33.8103 38.8026 33.6432 39.0572C33.9182 38.8724 34.1173 38.5944 34.2037 38.2745C34.2777 37.9572 34.3729 37.714 34.5527 37.4284V37.4178ZM34.2249 37.4178C33.9287 37.6505 33.6537 37.9255 33.5691 38.2534C33.4845 38.5601 33.4316 38.7928 33.2307 39.0995C33.548 38.8985 33.6643 38.6024 33.7595 38.2745C33.8335 37.9572 34.0239 37.7246 34.2249 37.4284V37.4178ZM33.2518 38.1899C33.256 38.1635 33.2509 38.1364 33.2374 38.1133C33.2239 38.0902 33.2029 38.0724 33.1778 38.063C33.0873 38.031 32.9956 38.0028 32.9028 37.9784C32.7971 37.9467 32.7336 38.0207 32.7336 38.0736V38.2851C32.7336 38.3591 32.7548 38.3697 32.8076 38.3803C32.8817 38.3909 32.9874 38.4014 33.0615 38.4543C33.1249 38.4966 33.1884 38.4649 33.2201 38.4014L33.2518 38.1899ZM32.1307 38.1899C32.1307 38.1265 32.1519 38.0736 32.1942 38.063C32.2745 38.0298 32.3613 38.0153 32.448 38.0207C32.5538 38.0207 32.5644 38.0419 32.5644 38.0842V38.3063C32.5644 38.3909 32.5644 38.3909 32.5221 38.412C32.448 38.412 32.3317 38.412 32.2577 38.4755C32.2048 38.5072 32.1519 38.4755 32.1413 38.412L32.1307 38.1899Z" fill="white"/>
<path fill-rule="evenodd" clip-rule="evenodd" d="M35.0163 41.1619C35.0163 41.2888 35.0374 41.3946 35.1221 41.4898C34.6382 41.3436 34.1171 41.3851 33.6625 41.6061C33.4721 41.6907 33.2395 41.5003 33.4616 41.3205C33.7789 41.0773 34.4875 41.2148 35.0163 41.1619ZM28.9349 41.1619C28.9441 41.2695 28.9296 41.3778 28.8926 41.4792C29.3579 41.2994 29.855 41.458 30.331 41.6484C30.6483 41.7859 30.68 41.5426 30.6271 41.4686C30.5686 41.3802 30.4904 41.3064 30.3987 41.2532C30.3069 41.2 30.2041 41.1688 30.0983 41.1619H28.9349ZM29.3368 38.8668C29.1993 38.8139 29.0512 38.8668 28.9137 39.0149C28.4589 39.4591 27.9195 39.8927 27.4859 40.2417C27.3273 40.3792 27.1686 40.6331 27.8455 40.8763C27.8772 40.8975 28.3743 41.0879 28.6916 41.0879C28.8291 41.0879 28.8291 41.2782 28.7974 41.3311C28.7445 41.4369 28.7868 41.4792 28.681 41.5744C28.5647 41.6801 28.681 41.7965 28.7868 41.7119C29.1676 41.3734 29.8021 41.5955 30.405 41.7859C30.5531 41.8282 30.8069 41.8176 30.8069 41.6167C30.8069 41.4051 30.9655 41.2571 31.0607 41.2465C31.3146 41.2888 32.5414 41.2994 32.9116 41.2571C33.1231 41.2253 33.1443 41.5638 33.2606 41.6801C33.3452 41.7753 33.6519 41.7965 33.874 41.7013C34.2971 41.5109 34.9317 41.5109 35.1961 41.7013C35.3019 41.7753 35.397 41.7013 35.3336 41.6272C35.249 41.5215 35.2595 41.458 35.2172 41.3734C35.1115 41.1619 35.1961 41.1196 35.3019 41.109C36.4653 40.9504 36.846 40.559 36.4864 40.2312C36.021 39.8293 35.5134 39.4168 35.0692 38.9409C34.9423 38.8139 34.8576 38.7611 34.6144 38.8668C33.7721 39.2487 32.8629 39.4608 31.9386 39.4908C31.0431 39.433 30.1637 39.2257 29.3368 38.8774V38.8668Z" fill="white"/>
<path fill-rule="evenodd" clip-rule="evenodd" d="M34.817 38.9303L34.6478 38.9726C33.6959 39.311 32.8287 39.5437 31.9297 39.5437C31.0519 39.5437 30.1317 39.2899 29.2962 38.9514C29.2448 38.9337 29.1889 38.9337 29.1375 38.9514C29.0846 38.962 29.0318 38.9937 29 39.0255C28.6092 39.4164 28.1922 39.7804 27.752 40.1148C27.678 40.1677 27.6886 40.3052 27.8049 40.3475C28.6827 40.6648 29.5394 41.2465 31.9932 41.2253C34.4786 41.2042 35.3564 40.6331 36.1391 40.3687C36.192 40.3475 36.2449 40.3158 36.2766 40.2629C36.2841 40.2503 36.289 40.2363 36.2908 40.2217C36.2926 40.2071 36.2914 40.1924 36.2872 40.1783C36.2735 40.1452 36.2517 40.1161 36.2237 40.0937C35.7689 39.7235 35.293 39.4274 34.9757 38.9937C34.944 38.9409 34.8805 38.9303 34.817 38.9409V38.9303ZM34.817 38.9832C34.8699 38.9832 34.9228 38.9832 34.9334 39.0149C35.2507 39.4697 35.7478 39.7552 36.192 40.1254L36.2343 40.1994C36.2372 40.2061 36.2387 40.2133 36.2387 40.2206C36.2387 40.2279 36.2372 40.2351 36.2343 40.2417C36.2237 40.2735 36.1708 40.3052 36.1285 40.3158C35.3247 40.5908 34.468 41.1619 32.0037 41.183C29.55 41.2042 28.7039 40.6225 27.8261 40.3052C27.7414 40.2629 27.752 40.1783 27.7838 40.1571C28.228 39.8187 28.651 39.4379 29.0318 39.0572C29.0645 39.0265 29.1046 39.0047 29.1481 38.9937H29.275C30.1109 39.3569 31.0082 39.5579 31.9191 39.586C32.8393 39.586 33.7171 39.3533 34.669 39.0255C34.72 39.0053 34.7733 38.9911 34.8276 38.9832H34.817Z" fill="#BD6B00"/>
<path fill-rule="evenodd" clip-rule="evenodd" d="M28.7974 22.9705C28.7974 22.8225 29.009 22.8119 28.9878 23.0128C28.9561 23.2561 29.4637 23.8907 29.506 24.282C29.5378 24.5464 29.3474 24.7685 29.1676 24.9166C29.0639 24.99 28.9421 25.0338 28.8154 25.0431C28.6886 25.0524 28.5617 25.0269 28.4484 24.9695C28.3532 24.8848 28.2686 24.6204 28.3426 24.5147C28.3638 24.4829 28.4801 24.906 28.734 24.906C29.083 24.906 29.3686 24.6416 29.3686 24.4089C29.3897 24.007 28.808 23.3724 28.7974 22.9705ZM29.8022 23.9647C29.8656 23.9224 29.9503 24.1022 29.8868 24.1445C29.8339 24.1762 29.7282 24.007 29.8022 23.9541V23.9647ZM29.9608 23.5945C29.9291 23.6157 29.8762 23.5945 29.8868 23.5734C29.9884 23.4322 30.118 23.3134 30.2675 23.2244C30.3099 23.2032 30.3733 23.2667 30.3522 23.2984C30.2443 23.4238 30.1108 23.5248 29.9608 23.5945ZM31.2935 22.5369C31.3252 22.4734 31.5156 22.3994 31.5684 22.3571C31.6107 22.3042 31.6319 22.3994 31.6107 22.4311C31.579 22.5052 31.4098 22.6109 31.3358 22.6215C31.304 22.6215 31.2723 22.5792 31.2935 22.5475V22.5369ZM31.7482 22.5686C31.8039 22.428 31.895 22.3041 32.0126 22.209C32.0655 22.1773 32.1501 22.209 32.129 22.2513C32.0572 22.3912 31.9518 22.5111 31.8223 22.6004C31.7905 22.6321 31.7377 22.6004 31.7482 22.5686ZM31.3569 22.8542C31.3252 22.8753 31.3463 22.9282 31.3675 22.9388C31.4309 22.9599 31.5261 22.9599 31.579 22.9388C31.6425 22.8965 31.6107 22.6321 31.5261 22.7696C31.4627 22.8542 31.4204 22.833 31.3569 22.8542ZM30.5848 23.4465C30.4473 23.3407 30.6271 23.1926 30.7646 23.2984C31.0502 23.5099 30.3416 24.3349 29.9608 24.7156C29.8868 24.7897 29.8233 24.6099 29.9185 24.5147C30.1939 24.284 30.4328 24.013 30.6271 23.7109C30.6694 23.658 30.7012 23.5416 30.5848 23.4465ZM32.203 22.7484C32.2136 22.6427 32.0338 22.7484 32.0338 22.6109C32.0338 22.5369 32.2348 22.484 32.3194 22.5686C32.4569 22.7167 32.3511 22.9599 32.1078 22.9811C31.9175 22.9811 31.579 23.2667 31.6319 23.3195C31.6848 23.3936 32.203 23.4359 32.5097 23.3936C32.7001 23.3619 32.6578 23.5311 32.4674 23.5522C32.2771 23.5734 32.129 23.5522 31.9598 23.6157C31.7482 23.6686 31.6636 23.933 31.5473 24.0387C31.5261 24.0599 31.4627 23.9541 31.4838 23.9118C31.5684 23.7849 31.6954 23.5945 31.8434 23.5311C31.928 23.4993 31.5896 23.4888 31.4838 23.457C31.3992 23.4359 31.4204 23.3195 31.4521 23.2561C31.4944 23.1715 31.8117 22.8436 31.9492 22.8542C32.0655 22.8542 32.1924 22.8225 32.203 22.7484ZM32.7318 22.7696C32.7953 22.7167 32.8376 22.6321 32.8905 22.5792C32.9222 22.5475 32.9857 22.5792 32.9751 22.6638C32.9645 22.7378 32.8693 22.7907 32.8165 22.8436C32.7636 22.8753 32.7107 22.8013 32.7424 22.7696H32.7318ZM33.4193 22.5263C33.5145 22.5263 33.5251 22.6955 33.4405 22.7167C33.377 22.7378 33.3347 22.5369 33.4193 22.5263ZM33.1972 23.0551C33.1972 23.2138 33.2712 23.2032 33.4087 23.1926C33.5462 23.1926 33.6626 23.1926 33.6626 23.0657C33.6626 22.9282 33.5885 22.8013 33.5568 22.8965C33.5462 22.9811 33.5251 23.1292 33.4722 23.0657C33.4299 23.0128 33.451 23.0023 33.3664 23.0869C33.3135 23.1397 33.3135 23.0657 33.2818 23.0234C33.2607 22.9917 33.1972 23.0446 33.1972 23.0657V23.0551ZM32.2242 23.8166C32.1924 24.0176 32.2242 24.2926 32.3194 24.2926C32.4463 24.2926 32.7001 23.8695 32.827 23.6368C32.9011 23.5099 33.0174 23.4888 32.9645 23.6263C32.8905 23.8272 32.9011 24.2608 32.9645 24.3878C33.0068 24.4512 33.2818 24.3243 33.3241 24.2291C33.4087 24.0493 33.3347 23.7214 33.3664 23.5205C33.377 23.3936 33.5039 23.3619 33.4933 23.4888C33.4768 23.7528 33.4732 24.0176 33.4828 24.282C33.4828 24.3878 33.7895 24.5358 33.8318 24.2185C33.8529 24.0282 33.9587 23.8272 33.8318 23.6157C33.7472 23.4782 33.9481 23.4888 34.0539 23.6791C34.1279 23.8061 33.9904 24.0176 34.001 24.1762C34.001 24.4301 33.8106 24.5781 33.6731 24.5781C33.5462 24.5781 33.4616 24.4195 33.3558 24.4195C33.2501 24.4195 33.1232 24.5993 33.0386 24.5887C32.6578 24.5676 32.8588 24.0282 32.7424 24.0176C32.6155 24.0176 32.478 24.5464 32.3194 24.5358C32.1713 24.5147 32.0021 24.0916 32.0761 23.9224C32.129 23.7532 32.2348 23.7109 32.2242 23.8166ZM34.0116 22.9705C33.8318 22.8648 34.0116 22.5792 34.1068 22.6744C34.276 22.8859 34.4452 23.3619 34.5721 23.4042C34.6462 23.4253 34.6356 23.0446 34.6885 22.8753C34.7308 22.7378 34.8788 22.7802 34.8577 22.9494C34.8471 23.0023 34.6462 23.6263 34.6673 23.6474C34.8082 23.9113 34.9251 24.1874 35.0163 24.4724C35.0481 24.5993 34.9 24.5147 34.8788 24.4935C34.7837 24.3455 34.625 23.8061 34.625 23.8378L34.4452 24.6522C34.4241 24.7579 34.2654 24.7368 34.3077 24.5464C34.3394 24.3983 34.551 23.6686 34.5404 23.6368C34.4193 23.3761 34.238 23.1477 34.0116 22.9705Z" fill="white"/>
<path fill-rule="evenodd" clip-rule="evenodd" d="M34.3294 24.7262C34.2871 24.7262 34.2025 24.832 34.4563 24.8849C34.7842 24.9483 35.1544 24.832 35.2601 24.5041C35.3976 24.1128 35.4717 23.7426 35.5457 23.6051C35.6303 23.4465 35.7361 23.457 35.6515 23.2244C35.5986 23.0446 35.4928 23.0974 35.4717 23.1926C35.4188 23.4359 35.1967 24.2503 35.1227 24.3878C34.9957 24.6627 34.7313 24.7685 34.3294 24.7262Z" fill="white"/>
<path fill-rule="evenodd" clip-rule="evenodd" d="M35.0056 23.4359C34.9633 23.3618 34.8787 23.4359 34.8998 23.5099C34.9049 23.5398 34.9204 23.5669 34.9437 23.5863C34.967 23.6057 34.9964 23.6161 35.0267 23.6157C35.1008 23.6157 35.2594 23.6263 35.2594 23.5099C35.2594 23.4253 35.1854 23.3513 35.1431 23.4465C35.0902 23.5311 35.0373 23.5205 35.0056 23.4465V23.4359ZM35.0796 23.1186C35.0585 23.1397 35.0796 23.2349 35.1114 23.2243C35.2329 23.2252 35.3527 23.1962 35.4604 23.1397C35.4815 23.1186 35.4709 23.0657 35.4392 23.0657C35.3335 23.0657 35.1642 23.0657 35.0796 23.1186ZM36.0103 23.3618C36.095 23.2349 36.3065 23.2243 36.2219 23.4041C36.0047 23.8403 35.7825 24.2739 35.5556 24.705C35.4709 24.8531 35.4075 24.7791 35.4709 24.6627C35.545 24.5147 35.9892 23.3936 36.0103 23.3618Z" fill="white"/>
<path fill-rule="evenodd" clip-rule="evenodd" d="M35.1963 24.9166C35.1752 24.832 35.0377 24.705 35.0588 24.9377C35.08 25.3396 35.6405 25.2127 35.7992 25.0752C35.9578 24.9377 35.8309 25.53 36.0319 25.5935C36.1376 25.6252 36.3492 25.4771 36.4549 25.3396C36.7405 24.9695 36.9309 24.4301 37.1953 24.0705C37.301 23.9224 37.1424 23.8166 37.0895 23.933C36.8357 24.3349 36.5395 25.1598 36.2117 25.3714C35.9473 25.5406 36.0319 25.1598 36.0213 25.0329C36.0107 24.9483 35.905 24.8214 35.7675 24.9377C35.6568 25.0263 35.5177 25.0714 35.3761 25.0646C35.3021 25.0646 35.2281 25.0646 35.1963 24.9166Z" fill="white"/>
<path fill-rule="evenodd" clip-rule="evenodd" d="M36.191 24.1762C36.191 24.1445 36.0747 24.1339 36.0853 24.2503C36.0853 24.3349 36.191 24.356 36.2016 24.356C36.3603 24.2291 36.1699 24.2926 36.191 24.1657V24.1762ZM35.9478 24.6416C35.9161 24.6416 35.8843 24.7474 35.9689 24.7579L36.3814 24.7368C36.4237 24.7368 36.4449 24.6416 36.3391 24.6522C36.2122 24.6522 36.0536 24.6204 35.9478 24.6522V24.6416ZM29.3904 22.8859C29.4433 22.8859 29.5597 23.034 29.5491 23.0869C29.5491 23.108 29.4222 23.0869 29.3904 23.0551C29.3587 23.0234 29.3693 22.8859 29.3904 22.8859ZM28.8299 23.9859C28.7241 24.0493 28.851 24.1657 28.9357 24.1128C29.2318 23.9118 29.676 23.7109 29.7818 23.3195C29.8135 23.1926 29.9298 22.9917 30.0462 22.9494C30.1519 22.8965 30.3212 23.1503 30.4269 22.9494C30.4904 22.8436 30.7125 23.0234 30.7654 22.9071C30.8288 22.7696 30.7971 22.6955 30.7971 22.5475C30.7971 22.4629 30.7231 22.4417 30.6702 22.5792C30.649 22.6427 30.6702 22.7061 30.6596 22.7484C30.6384 22.7696 30.5961 22.7907 30.5538 22.7696C30.5327 22.7484 30.5538 22.6955 30.4904 22.6638C30.4692 22.6638 30.4269 22.6532 30.4058 22.685C30.3317 22.8225 30.3 22.9494 30.1837 22.7907C30.0885 22.685 30.0356 22.4629 29.9721 22.759C29.951 22.8648 29.7923 23.0128 29.6972 23.0128C29.5808 23.0128 29.6125 22.6955 29.3587 22.7484C29.2212 22.7801 29.2318 23.034 29.2529 23.1186C29.2847 23.2561 29.676 23.1609 29.6443 23.2455C29.5808 23.5311 29.1789 23.8166 28.8299 23.9859ZM26.4291 25.3819C26.4185 25.4348 26.4819 25.5617 26.5454 25.5723C26.6088 25.5723 26.6512 25.4348 26.63 25.3819C26.6088 25.3502 26.4396 25.3502 26.4291 25.3819ZM26.7781 25.9002C26.7358 25.8579 26.6088 25.9742 26.7146 26.0588C26.7675 26.1117 26.979 26.1752 27.0319 26.08C27.1165 25.9531 26.9579 25.4983 27.0319 25.4454C27.0848 25.3925 27.328 25.7415 27.455 25.7627C27.7405 25.805 27.6665 25.2762 27.9838 25.3185C28.1847 25.3396 28.2059 25.0858 28.1742 24.9166C28.153 24.7579 27.8992 24.5358 27.7828 24.4301C27.6348 24.3031 27.5607 24.5358 27.6559 24.5993C27.7828 24.705 28.0049 24.906 28.0367 25.0329C28.0472 25.0964 27.8886 25.2233 27.8251 25.1916C27.6771 25.107 27.5501 24.7685 27.4232 24.6945C27.3809 24.6733 27.2752 24.7262 27.3175 24.832C27.3809 24.9483 27.6348 25.1175 27.6453 25.2444C27.6559 25.3502 27.5396 25.5829 27.455 25.5829C27.3598 25.5829 27.1377 25.2973 27.0636 25.1598C27.0213 25.107 26.905 25.107 26.8838 25.2021C26.877 25.3975 26.8947 25.5929 26.9367 25.7838C26.9579 25.9531 26.8415 25.9636 26.7781 25.9002ZM26.355 24.9906C26.3127 25.0329 26.4396 25.1175 26.4608 25.0964C26.5031 25.0541 26.6829 24.8531 26.6512 24.7791C26.6194 24.7156 26.3762 24.5676 26.3339 24.6416C26.2598 24.7579 26.5665 24.8214 26.5137 24.8531C26.4545 24.8912 26.4011 24.9375 26.355 24.9906ZM26.7886 24.1022C26.7886 24.1022 26.8733 24.3666 26.9367 24.2503C26.979 24.1762 26.7886 24.1022 26.7886 24.1022ZM26.9156 24.5252C26.8944 24.5252 26.8098 24.5993 26.8627 24.631C26.9473 24.6733 27.1694 24.7156 27.1165 24.557C27.0848 24.4618 27.455 24.557 27.3598 24.3031C27.3215 24.2249 27.2582 24.1616 27.18 24.1233C27.1377 24.1233 27.0213 24.1762 27.0954 24.2185C27.1482 24.2397 27.3069 24.3349 27.254 24.3983C27.18 24.4618 27.1377 24.3666 27.0531 24.3878C27.0108 24.3878 27.0425 24.5147 27.0108 24.5464C27.0108 24.5676 26.9367 24.5041 26.9156 24.5147V24.5252ZM27.4973 23.5205C27.432 23.5744 27.3872 23.6491 27.3703 23.732C27.3703 23.7532 27.4021 23.7955 27.4232 23.7849C27.4884 23.7355 27.5335 23.6641 27.5501 23.584C27.5501 23.5522 27.529 23.4993 27.4973 23.5205ZM27.7934 23.4888C27.7088 23.383 27.8992 23.2138 27.9732 23.4359C28.0261 23.5734 28.5549 24.2714 28.6607 24.5041C28.7453 24.6627 28.6607 24.7262 28.5655 24.6099C28.3011 24.2714 28.079 23.8484 27.7934 23.4888ZM28.3434 23.4993C28.4386 23.3936 28.6289 23.182 28.5761 23.0763C28.5338 22.9705 28.4174 22.9705 28.3963 23.0023C28.2905 23.1397 28.4809 23.108 28.4491 23.1503C28.3963 23.2561 28.3434 23.3195 28.3116 23.4253C28.3011 23.457 28.3222 23.5205 28.3434 23.4993ZM36.5718 23.8378C36.4978 23.7849 36.6353 23.5205 36.7304 23.6263C36.9737 23.9118 37.09 24.8531 37.1641 25.5617C37.1641 25.5617 37.0583 25.6569 37.0583 25.6358C37.0583 25.2656 36.8997 24.1128 36.5718 23.8378ZM30.9557 22.9282C30.8711 22.7378 31.0721 22.6744 31.1038 22.8013C31.2413 23.4147 31.5797 23.8801 31.8442 24.2926C31.9182 24.4195 31.8442 24.5041 31.6644 24.3772C31.5374 24.2926 31.3999 23.9647 31.3471 23.9541C31.2201 23.933 30.9452 24.4829 30.3846 24.3243C30.2365 24.282 30.2471 23.8484 30.2365 23.658C30.2365 23.5628 30.3423 23.5522 30.3423 23.658C30.3423 23.8378 30.3423 24.208 30.5644 24.2291C30.7548 24.2291 31.1567 23.9753 31.2413 23.7638C31.3259 23.5522 31.0404 23.1397 30.9557 22.9176V22.9282Z" fill="white"/>
<path fill-rule="evenodd" clip-rule="evenodd" d="M36.7207 25.4877C36.763 25.3608 37.3659 24.3454 37.4505 24.1233C37.4928 24.0176 37.662 24.3137 37.4928 24.4724C37.3447 24.5993 36.9111 25.3185 36.8265 25.5723C36.7842 25.6781 36.6784 25.6252 36.7207 25.4877Z" fill="white"/>
<path fill-rule="evenodd" clip-rule="evenodd" d="M37.7451 24.5253C37.8508 24.1022 38.1258 24.5887 37.8826 24.8214C37.523 25.181 37.4066 25.8685 36.8249 25.9742C36.6769 26.0059 36.4019 25.9002 36.3173 25.8367C36.2855 25.8156 36.3384 25.6675 36.4336 25.7415C36.5711 25.8473 36.8672 25.879 37.0259 25.7521C37.3715 25.4152 37.6199 24.9914 37.7451 24.5253ZM31.7165 25.8685C31.6848 25.9002 31.6108 25.9002 31.6002 25.9425C31.5685 26.0906 31.6002 26.1752 31.5685 26.3232C31.5367 26.4713 31.431 26.4713 31.4415 26.355C31.4415 26.2069 31.579 25.9848 31.4839 25.9742C31.4204 25.9636 31.3781 25.879 31.4415 25.8367C31.5579 25.7627 31.6213 25.7733 31.6954 25.7944C31.7271 25.805 31.7377 25.8473 31.7165 25.8685Z" fill="white"/>
<path fill-rule="evenodd" clip-rule="evenodd" d="M31.6334 25.6569C31.4853 25.805 31.3372 25.8579 31.1997 26.0271C31.1363 26.0906 31.1469 26.1857 31.1046 26.2809C31.0728 26.3761 30.9565 26.3867 30.9248 26.3761C30.8719 26.3338 30.8825 26.1646 30.819 26.2492C30.7555 26.3444 30.7238 26.4607 30.6392 26.4607C30.5652 26.4607 30.4277 26.3021 30.5017 26.3021C30.745 26.2704 30.7344 26.0906 30.819 26.0694C30.9248 26.0588 30.9248 26.2281 30.9988 26.1963C31.0411 26.1752 31.0728 25.9742 31.1257 25.9213C31.2844 25.7521 31.4113 25.6675 31.5805 25.5406C31.6545 25.4771 31.718 25.5935 31.6334 25.6675V25.6569ZM32.1939 26.1857C32.067 26.2069 32.0882 26.3655 32.1305 26.3761C32.1834 26.4078 32.2785 26.4184 32.3103 26.2386C32.3314 26.1646 32.342 26.6088 32.5006 26.4396C32.6064 26.3338 32.8285 26.4607 32.9237 26.3338C32.9977 26.2386 33.0295 26.1752 32.966 26.0483C32.9449 26.0165 32.8602 26.0271 32.8602 26.1223C32.8602 26.2069 32.8074 26.3021 32.7227 26.2915C32.6804 26.2809 32.7439 26.0906 32.7016 26.0377C32.6917 26.028 32.6784 26.0226 32.6646 26.0226C32.6507 26.0226 32.6374 26.028 32.6276 26.0377C32.5958 26.08 32.6593 26.2704 32.5641 26.2915C32.4372 26.3127 32.5006 26.1646 32.4583 26.1434C32.2785 26.0588 32.268 26.1646 32.1939 26.1752V26.1857ZM33.1458 25.8685C33.241 25.8473 33.2093 25.8473 33.3573 25.731C33.4102 25.6887 33.4208 25.8156 33.4102 25.8685C33.4102 25.9425 33.3044 25.8896 33.2727 25.9636C33.2304 26.0588 33.2516 26.2809 33.2304 26.3655C33.2304 26.4078 33.1458 26.4078 33.1458 26.3655C33.1246 26.2598 33.1564 26.154 33.1458 26.0165C33.1458 25.9742 33.0929 25.9002 33.1458 25.879V25.8685ZM32.617 25.604C32.5958 25.6992 32.5958 25.7733 32.5958 25.8473C32.5958 25.9002 32.7016 25.8685 32.7016 25.8579C32.7016 25.7733 32.7227 25.6464 32.7016 25.6146C32.6804 25.604 32.6276 25.5829 32.617 25.604Z" fill="white"/>
<path fill-rule="evenodd" clip-rule="evenodd" d="M31.95 24.6204L31.802 25.2127L31.5904 24.8108V25.2233L31.1251 24.6733L31.2837 25.2656L30.8607 24.906L31.0933 25.3079L30.353 24.832L30.8184 25.3819L30.2261 25.0858L30.6491 25.4454L29.6973 25.0858L30.6174 25.5406C31.0354 25.3503 31.4908 25.2563 31.95 25.2656C32.4683 25.2656 32.9336 25.3714 33.2721 25.5406L34.2028 25.0858L33.2509 25.4454L33.674 25.0858L33.0923 25.3819L33.5471 24.832L32.8067 25.3079L33.0394 24.906L32.6163 25.255L32.775 24.6733L32.3202 25.2233V24.8108L32.1087 25.2127L31.95 24.6204Z" fill="white"/>
<path d="M31.1246 37.4625L31.1121 37.7375H31.0621V37.55C31.0505 37.4944 31.0337 37.44 31.0121 37.3875C30.9952 37.344 30.9743 37.3021 30.9496 37.2625C30.9191 37.2146 30.8857 37.1687 30.8496 37.125L30.9371 36.9C31.0006 36.9724 31.0475 37.0577 31.0746 37.15C31.1131 37.2498 31.1343 37.3555 31.1371 37.4625M31.8246 37.0375C31.8246 37.1125 31.8121 37.1625 31.7871 37.1875C31.7621 37.225 31.7121 37.25 31.6621 37.2625L31.6871 37.4C31.6985 37.4704 31.6985 37.5421 31.6871 37.6125V37.7375H31.6371V37.6125C31.6319 37.5785 31.6236 37.545 31.6121 37.5125C31.6001 37.479 31.5876 37.4456 31.5746 37.4125C31.5536 37.3606 31.5286 37.3104 31.4996 37.2625L31.3996 37.1L31.4621 36.9L31.5621 37.0125L31.6496 37.0375C31.7371 37.0375 31.7746 37 31.7746 36.9125H31.8121C31.8115 36.9333 31.8115 36.9542 31.8121 36.975V37.0375M32.4496 37.525L32.3996 37.7375L32.3246 37.6625C32.3059 37.6229 32.2933 37.5808 32.2871 37.5375C32.283 37.4792 32.283 37.4208 32.2871 37.3625C32.2505 37.3723 32.2125 37.3765 32.1746 37.375C32.1246 37.375 32.0871 37.375 32.0496 37.3375C32.0341 37.3259 32.0215 37.3108 32.0128 37.2934C32.0041 37.276 31.9996 37.2569 31.9996 37.2375C31.9996 37.15 32.0246 37.075 32.0746 37.0125C32.1121 36.9375 32.1621 36.9 32.2246 36.9C32.2621 36.9 32.2996 36.9125 32.3121 36.9375L32.3496 37.0375V37.2375C32.3496 37.325 32.3496 37.3875 32.3746 37.4125C32.3746 37.45 32.4121 37.475 32.4496 37.525ZM32.2621 37.1625C32.2621 37.1125 32.2246 37.0875 32.1746 37.0875C32.1571 37.0872 32.1399 37.0915 32.1246 37.1C32.0996 37.1125 32.0996 37.125 32.0996 37.1375C32.0996 37.1625 32.1246 37.175 32.1996 37.175C32.2204 37.1774 32.2413 37.1774 32.2621 37.175M33.1246 37.4625L33.0996 37.725C33.0496 37.6875 32.9996 37.625 32.9621 37.5375C32.9044 37.4043 32.8584 37.2662 32.8246 37.125C32.796 37.2512 32.7627 37.3763 32.7246 37.5L32.6496 37.6625C32.6303 37.6926 32.6047 37.7182 32.5746 37.7375V37.4875L32.6746 37.3375C32.7069 37.2826 32.7321 37.2238 32.7496 37.1625C32.7674 37.08 32.7799 36.9965 32.7871 36.9125H32.8371L32.9246 37.1625C32.9687 37.2758 33.037 37.3782 33.1246 37.4625Z" fill="white"/>
<path d="M35.0625 39.9C35.1 39.9375 35.125 39.975 35.1375 40.025L35.1625 40.175H35.0875C35.0632 40.1262 35.0339 40.0801 35 40.0375C34.9603 39.9939 34.9186 39.9522 34.875 39.9125L34.7125 39.7625C34.6479 39.7058 34.5812 39.6516 34.5125 39.6L34.45 39.55L34.425 39.475C34.4169 39.4212 34.4127 39.3669 34.4125 39.3125L34.675 39.525C34.7612 39.5968 34.8446 39.6718 34.925 39.75L35.0625 39.9ZM34.1125 39.325L34.1 39.525L33.7875 39.5125L33.8125 39.3125H34.1125M34.95 40.2L34.2 40.4375L34.05 40.2375L34.7 40.05C34.6813 40.0194 34.6604 39.9901 34.6375 39.9625L34.55 39.9C34.5491 39.9192 34.5442 39.9381 34.5356 39.9553C34.527 39.9725 34.5149 39.9878 34.5 40C34.4721 40.0285 34.4378 40.0499 34.4 40.0625C34.3427 40.0779 34.2823 40.0779 34.225 40.0625C34.1625 40.0625 34.125 40.025 34.1 39.9875C34.0589 39.9243 34.0372 39.8504 34.0375 39.775C34.0375 39.675 34.0625 39.6125 34.1125 39.5875C34.1875 39.5625 34.2875 39.5875 34.425 39.65C34.5438 39.7077 34.6468 39.7935 34.725 39.9L34.95 40.2ZM34.3625 39.8C34.3384 39.789 34.3133 39.7807 34.2875 39.775C34.2671 39.7691 34.2454 39.7691 34.225 39.775C34.2141 39.7763 34.2038 39.7805 34.195 39.7871C34.1862 39.7936 34.1793 39.8024 34.175 39.8125C34.1706 39.8201 34.1683 39.8287 34.1683 39.8375C34.1683 39.8463 34.1706 39.8549 34.175 39.8625L34.225 39.8875H34.2875C34.3028 39.8782 34.3157 39.8653 34.325 39.85L34.3625 39.8ZM33.5625 39.65L33.5125 39.85L33.2 39.8125L33.25 39.625L33.5625 39.65ZM34.3125 40.4L34.1375 40.45C34.0796 40.4598 34.0204 40.4598 33.9625 40.45C33.9103 40.4488 33.8591 40.436 33.8125 40.4125C33.7875 40.4625 33.7375 40.5 33.675 40.5375C33.6229 40.5603 33.5684 40.577 33.5125 40.5875L33.3875 40.625L33.2875 40.425L33.4125 40.4L33.5375 40.3625L33.6125 40.3125C33.5848 40.2934 33.5555 40.2766 33.525 40.2625C33.5019 40.2506 33.4757 40.2463 33.45 40.25C33.4419 40.2471 33.4331 40.2471 33.425 40.25C33.4212 40.2622 33.4212 40.2753 33.425 40.2875H33.3625C33.3125 40.2 33.3 40.1375 33.325 40.0875C33.3625 40.0375 33.425 40 33.525 39.975C33.625 39.95 33.7125 39.95 33.7875 39.975C33.8625 39.975 33.9125 40.0125 33.9375 40.05C33.95 40.075 33.9625 40.1 33.95 40.125C33.95 40.15 33.95 40.1875 33.9125 40.25C33.9531 40.2634 33.9969 40.2634 34.0375 40.25L34.2 40.2125L34.3125 40.4ZM33.5125 40.5875L33.35 40.6125C33.2625 40.6125 33.1875 40.6125 33.125 40.5625C33.0483 40.4962 32.992 40.4095 32.9625 40.3125L32.8875 40.1C32.8755 40.0518 32.8494 40.0083 32.8125 39.975L32.7125 39.9375L32.775 39.725L32.9125 39.8375L33.0125 40L33.0625 40.15C33.0896 40.2284 33.1321 40.3007 33.1875 40.3625C33.2125 40.4 33.2375 40.4125 33.275 40.4L33.4375 40.375L33.5125 40.5875ZM32.825 39.8375L32.7125 40.025L32.425 39.95L32.525 39.7625L32.825 39.8375ZM33 40.675L32.25 40.7375L32.2125 40.5375L32.8375 40.475C32.8201 40.4401 32.7943 40.4101 32.7625 40.3875C32.7309 40.3641 32.6974 40.3432 32.6625 40.325L32.725 40.1375C32.7875 40.175 32.85 40.2125 32.875 40.2625C32.9 40.3125 32.9375 40.3875 32.95 40.475L33 40.675ZM32.4 40.775C32.3245 40.7719 32.2493 40.7636 32.175 40.75C32.1196 40.7378 32.0652 40.7211 32.0125 40.7C31.9724 40.7173 31.9305 40.7299 31.8875 40.7375H31.5125C31.45 40.7375 31.4125 40.7375 31.3875 40.7125L31.3125 40.6125C31.2656 40.6536 31.2101 40.6835 31.15 40.7C31.0976 40.7172 31.0427 40.7257 30.9875 40.725H30.8125L30.8375 40.5L31 40.5125C31.0875 40.5125 31.1625 40.5125 31.2125 40.475C31.2875 40.4375 31.3375 40.375 31.3375 40.3H31.4125C31.4074 40.3416 31.4033 40.3832 31.4 40.425C31.4 40.4625 31.4 40.4875 31.4375 40.5L31.525 40.525H31.8875C31.9375 40.5 31.9625 40.4625 31.975 40.4L31.9875 40.3625C32.0034 40.3527 32.0201 40.3444 32.0375 40.3375L32.0875 40.325V40.4L32.05 40.5C32.1182 40.5263 32.1897 40.5431 32.2625 40.55C32.2625 40.5375 32.2625 40.5125 32.2375 40.4875C32.2375 40.45 32.2125 40.4375 32.2125 40.425C32.2142 40.4156 32.2185 40.407 32.225 40.4L32.2625 40.375L32.3625 40.2875L32.4 40.375C32.4 40.4 32.4125 40.4375 32.4 40.475L32.3875 40.775M31.2625 39.9L31.075 40.025L30.9375 39.95L30.8 40.05L30.6125 39.9375L30.7875 39.8125L30.9375 39.9L31.075 39.7875L31.2625 39.9ZM30.9625 40.7L30.2375 40.575L30.325 40.375L30.925 40.475C30.9355 40.4425 30.9355 40.4075 30.925 40.375C30.9067 40.348 30.8857 40.3229 30.8625 40.3L31.025 40.1375C31.0625 40.1875 31.0875 40.2375 31.0875 40.2875C31.0875 40.3375 31.0875 40.4125 31.0375 40.5L30.9625 40.7ZM30.35 40.6L30.2 40.5625C30.1125 40.55 30.0625 40.5125 30.05 40.45C30.0375 40.3875 30.0625 40.3 30.1375 40.175L30.2625 39.9625L30.2875 39.85L30.25 39.775L30.475 39.625L30.5 39.7625C30.5 39.8125 30.475 39.875 30.425 39.9375L30.35 40.0875C30.3047 40.1506 30.2748 40.2233 30.2625 40.3C30.2625 40.3375 30.275 40.3625 30.3125 40.3625L30.4625 40.4L30.35 40.6ZM29.975 39.8125L29.725 39.925L29.55 39.75L29.8 39.65L29.975 39.8125ZM29.8625 40.475C29.8225 40.5306 29.7714 40.5774 29.7125 40.6125C29.6625 40.65 29.6 40.6625 29.5375 40.675C29.4587 40.6858 29.3788 40.6858 29.3 40.675C29.2062 40.6588 29.1141 40.6337 29.025 40.6C28.8967 40.5645 28.7803 40.4954 28.6875 40.4C28.625 40.325 28.625 40.25 28.6875 40.175C28.7398 40.1101 28.8033 40.0551 28.875 40.0125C28.9955 39.9519 29.121 39.9018 29.25 39.8625L29.3 39.9125C29.175 39.9625 29.075 40 29.025 40.0375C28.9783 40.0586 28.9359 40.0883 28.9 40.125C28.8625 40.175 28.8625 40.225 28.9125 40.2875C29.091 40.4282 29.3103 40.5071 29.5375 40.5125C29.6625 40.5125 29.7375 40.475 29.775 40.4375L29.825 40.35L29.8375 40.175L30.0875 40.025L30.075 40.175C30.0625 40.225 30.025 40.275 29.975 40.3375L29.8625 40.475Z" fill="#BF0000"/>
<g clip-path="url(#clip1_10660_6389)">
<path d="M0 0H64V64H0V0Z" fill="#FF0000"/>
<path d="M25.6117 12.4375C24.9867 12.4375 23.9617 12.6375 23.9867 13.1125C22.2367 12.825 22.0617 13.5375 22.1617 14.175C22.3367 13.925 22.5367 13.7875 22.6867 13.7625C22.9242 13.725 23.1617 13.8 23.4117 13.95C23.6456 14.102 23.8562 14.2873 24.0367 14.5C23.4367 14.6375 22.9617 14.55 22.4867 14.4625C22.2151 14.4073 21.9564 14.3013 21.7242 14.15C21.5242 14.0125 21.4617 13.8875 21.1492 13.5625C20.7867 13.1875 20.3992 13.3 20.5242 13.875C20.7992 14.4125 21.2742 14.6625 21.8617 14.75C22.1367 14.8 22.5617 14.9 23.0367 14.9C23.5117 14.9 24.0492 14.8375 24.3492 14.9C24.1742 15 23.9742 15.2 23.5742 15.275C23.1742 15.35 22.5742 15.025 22.1992 14.95C22.2492 15.2625 22.6367 15.55 23.4117 15.7C24.6867 15.975 25.7492 16.2 26.4492 16.575C27.1492 16.95 27.5867 17.425 27.8992 17.8C28.5242 18.55 28.5617 19.1125 28.5992 19.2375C28.7242 20.425 28.3242 21.0875 27.5492 21.2875C27.1742 21.3875 26.4867 21.2 26.2367 20.9125C25.9867 20.6125 25.7367 20.1125 25.8117 19.325C25.8742 19.0125 26.2367 18.2 25.9367 18.0375C24.5483 17.2783 23.1119 16.6102 21.6367 16.0375C21.2992 15.9 21.0117 16.35 20.9117 16.5375C19.9291 16.3986 18.9896 16.0428 18.1616 15.4958C17.3335 14.9488 16.6376 14.2243 16.1242 13.375C15.5492 12.3625 14.6117 13.375 14.7617 14.3375C15.0242 15.4125 15.8367 16.1875 16.8242 16.7375C17.8242 17.3 19.0867 17.8375 20.3617 17.8125C21.0492 17.9375 21.0492 18.8375 20.2242 19C18.5992 19 17.3242 18.975 16.1117 17.8C15.1867 16.9625 14.6742 17.9625 14.9367 18.525C15.3867 20.275 17.8867 20.775 20.4117 20.2C21.3867 20.0375 20.7992 21.075 20.5242 21.1C19.4742 21.85 17.5867 22.6 15.9242 21.0875C15.1617 20.5 14.6492 21 14.9242 21.8375C15.6742 24.025 18.4867 23.5625 20.4242 22.4875C20.9242 22.2125 21.3742 22.8625 20.7617 23.35C18.3617 25.025 17.1492 25.05 16.0617 24.4C14.7117 23.8625 14.5867 25.375 15.3992 25.875C16.2992 26.425 18.5742 26 20.2617 24.95C20.9742 24.425 21.0117 25.25 20.5492 25.575C18.5617 27.3 17.7742 27.7625 15.6992 27.475C14.6742 27.4 14.6992 28.6625 15.4992 29.1625C16.5992 29.8375 18.7617 28.7125 20.4367 27.325C21.1367 26.95 21.2617 27.575 20.9117 28.3C20.1724 29.3456 19.1668 30.1742 17.9992 30.7C17.221 31.0088 16.3601 31.0397 15.5617 30.7875C14.7867 30.5125 14.6867 31.3125 15.1117 32.0375C15.3617 32.475 16.4367 32.625 17.5742 32.2125C18.7242 31.8125 19.9492 30.8625 20.7867 29.7375C21.5367 29.1 21.4367 29.9625 21.0992 30.575C19.4117 33.2375 17.8617 34.225 15.8367 34.0625C14.9242 33.9125 14.7242 34.6125 15.2992 35.2625C16.2992 36.1 17.5742 36.0625 18.6742 35.2375C19.9978 33.9178 21.2817 32.5589 22.5242 31.1625C23.2117 30.6125 23.4367 31.1625 23.2367 32.2875C23.0492 32.925 22.5867 33.6 21.3242 34.1C20.4492 34.6 21.0992 35.275 21.7492 35.2875C22.1117 35.2875 22.8367 34.875 23.3742 34.25C24.1117 33.4375 24.1492 32.875 24.5617 31.6125C24.9367 30.9875 25.6117 31.275 25.6117 31.925C25.2867 33.2 25.0117 33.425 24.3617 33.95C23.7242 34.5375 24.7867 34.7375 25.1492 34.5C26.1867 33.8 26.5617 32.9 26.9117 32.075C27.1617 31.475 27.8867 31.7625 27.5492 32.7375C26.7492 35.05 25.4242 35.9625 23.1117 36.4375C22.8742 36.475 22.7367 36.6125 22.8117 36.8875L23.7492 37.825C22.3117 38.2375 21.1492 38.475 19.7242 38.8875L17.7492 37.575C17.5617 37.15 17.4742 36.4875 16.4492 36.95C15.7367 36.625 15.4242 36.75 15.0242 37.075C15.5867 37.0875 15.8367 37.2375 16.0617 37.5C16.3492 38.25 17.0117 38.325 17.6867 38.125C18.1242 38.4875 18.3617 38.775 18.8117 39.15L16.5867 39.075C15.7992 38.2375 15.1742 38.2875 14.6117 38.95C14.1742 39.0125 13.9867 39.0125 13.6992 39.5375C14.1617 39.35 14.4492 39.2875 14.6617 39.5C15.4867 39.9875 16.0367 39.875 16.4492 39.5L18.7867 39.6375C18.4992 39.8875 18.0867 40.025 17.7867 40.2875C16.5742 39.9375 15.9492 40.4125 15.7367 41.3875C15.5617 41.7793 15.501 42.2127 15.5617 42.6375C15.6867 42.2375 15.8742 41.9 16.2242 41.6875C17.2992 41.9625 17.6992 41.525 17.7617 40.875C18.2867 40.45 19.0742 40.3625 19.5867 39.925C20.1992 40.125 20.4867 40.25 21.0992 40.4375C21.3117 41.1 21.8117 41.3625 22.5992 41.1875C23.5617 41.225 23.3867 41.6125 23.4742 41.925C23.7242 41.475 23.7242 41.05 23.1242 40.6375C22.9117 40.0625 22.4367 39.8 21.8242 40.1375C21.2367 39.975 21.0867 39.7375 20.5117 39.5625C21.9742 39.1 23.0117 39 24.4867 38.525C24.8617 38.875 25.1367 39.125 25.5117 39.425C25.7117 39.55 25.8867 39.575 26.0117 39.425C26.9242 38.1 27.3367 36.925 28.1867 36.05C28.5117 35.6875 28.9367 35.2 29.3867 35.075C29.6117 35.025 29.8867 35.05 30.0742 35.25C30.2492 35.45 30.3992 35.8 30.3242 36.3375C30.2492 37.1125 30.0742 37.3625 29.8492 37.8125C29.6367 38.275 29.3617 38.5625 29.0992 38.9125C28.5492 39.625 27.8367 40.0375 27.4117 40.3125C26.5617 40.8625 26.1992 40.625 25.5367 40.5875C24.6992 40.6875 24.4742 41.1 25.1617 41.675C25.6834 41.9623 26.2873 42.0637 26.8742 41.9625C27.2867 41.8875 27.7492 41.3625 28.0992 41.0875C28.4742 40.6375 29.1117 41.1625 28.6867 41.675C27.8992 42.6125 27.1117 43.225 26.1492 43.2125C25.1242 43.3375 25.3117 43.925 25.9867 44.2C27.2117 44.7 28.3117 43.7625 28.8617 43.1375C29.2992 42.675 29.6117 42.65 29.5242 43.3875C29.0992 44.7 28.5117 45.2125 27.5617 45.275C26.7867 45.2125 26.7742 45.8 27.3492 46.2125C28.6367 47.0875 29.5617 45.5875 29.9992 44.6625C30.3117 43.8375 30.7867 44.225 30.8367 44.9125C30.8367 45.825 30.4367 46.5625 29.3367 47.5C30.1742 48.8375 31.1492 50.2125 31.9992 51.5625L34.5617 23.0375L31.9992 18.5375C31.7367 18.2875 30.8367 17.225 30.5992 17.075C30.5117 16.9875 30.4617 16.925 30.5867 16.875C30.7117 16.825 30.9867 16.775 31.1867 16.75C30.6367 16.2 30.1867 16.025 29.1492 15.725C29.3992 15.625 29.6492 15.6875 30.3867 15.65C29.9302 15.0293 29.3056 14.5522 28.5867 14.275C29.1492 13.9 29.2492 13.8625 29.8117 13.4C28.8492 13.325 28.0242 13.15 27.2117 12.9C26.7072 12.6596 26.1667 12.5034 25.6117 12.4375ZM25.6992 13.5625C26.1992 13.5625 26.5242 13.7375 26.5242 13.9375C26.5242 14.15 26.2117 14.325 25.6992 14.325C25.1992 14.325 24.8742 14.1375 24.8742 13.925C24.8742 13.7125 25.1992 13.55 25.6992 13.55V13.5625Z" fill="#000001"/>
<path d="M38.3883 12.4375C39.0133 12.4375 40.0383 12.6375 40.0133 13.1125C41.7633 12.825 41.9383 13.5375 41.8383 14.175C41.6633 13.925 41.4633 13.7875 41.3133 13.7625C41.0758 13.725 40.8383 13.8 40.5883 13.95C40.3544 14.102 40.1438 14.2873 39.9633 14.5C40.5633 14.6375 41.0383 14.55 41.5133 14.4625C41.7849 14.4073 42.0436 14.3013 42.2758 14.15C42.4758 14.0125 42.5383 13.8875 42.8508 13.5625C43.2133 13.1875 43.6008 13.3 43.4758 13.875C43.2008 14.4125 42.7258 14.6625 42.1383 14.75C41.8633 14.8 41.4383 14.9 40.9633 14.9C40.4883 14.9 39.9508 14.8375 39.6508 14.9C39.8258 15 40.0258 15.2 40.4258 15.275C40.8258 15.35 41.4258 15.025 41.8008 14.95C41.7508 15.2625 41.3633 15.55 40.5883 15.7C39.3133 15.975 38.2508 16.2 37.5508 16.575C36.8508 16.95 36.4133 17.425 36.1008 17.8C35.4758 18.55 35.4383 19.1125 35.4008 19.2375C35.2758 20.425 35.6758 21.0875 36.4508 21.2875C36.8258 21.3875 37.5133 21.2 37.7633 20.9125C38.0133 20.6125 38.2633 20.1125 38.1883 19.325C38.1258 19.0125 37.7633 18.2 38.0633 18.0375C39.4517 17.2783 40.8881 16.6102 42.3633 16.0375C42.7008 15.9 42.9883 16.35 43.0883 16.5375C44.0709 16.3986 45.0104 16.0428 45.8384 15.4958C46.6665 14.9488 47.3624 14.2243 47.8758 13.375C48.4508 12.3625 49.3883 13.375 49.2383 14.3375C48.9758 15.4125 48.1633 16.1875 47.1758 16.7375C46.1758 17.3 44.9133 17.8375 43.6383 17.8125C42.9508 17.9375 42.9508 18.8375 43.7758 19C45.4008 19 46.6758 18.975 47.8883 17.8C48.8133 16.9625 49.3258 17.9625 49.0633 18.525C48.6133 20.275 46.1133 20.775 43.5883 20.2C42.6133 20.0375 43.2008 21.075 43.4758 21.1C44.5258 21.85 46.4133 22.6 48.0758 21.0875C48.8383 20.5 49.3508 21 49.0758 21.8375C48.3258 24.025 45.5133 23.5625 43.5758 22.4875C43.0758 22.2125 42.6258 22.8625 43.2383 23.35C45.6383 25.025 46.8508 25.05 47.9383 24.4C49.2883 23.8625 49.4133 25.375 48.6008 25.875C47.7008 26.425 45.4258 26 43.7383 24.95C43.0258 24.425 42.9883 25.25 43.4508 25.575C45.4383 27.3 46.2258 27.7625 48.3008 27.475C49.3258 27.4 49.3008 28.6625 48.5008 29.1625C47.4008 29.8375 45.2383 28.7125 43.5633 27.325C42.8633 26.95 42.7383 27.575 43.0883 28.3C43.8276 29.3456 44.8332 30.1742 46.0008 30.7C46.779 31.0088 47.6399 31.0397 48.4383 30.7875C49.2133 30.5125 49.3133 31.3125 48.8883 32.0375C48.6383 32.475 47.5633 32.625 46.4258 32.2125C45.2758 31.8125 44.0508 30.8625 43.2133 29.7375C42.4633 29.1 42.5633 29.9625 42.9008 30.575C44.5883 33.2375 46.1383 34.225 48.1633 34.0625C49.0758 33.9125 49.2758 34.6125 48.7008 35.2625C47.7008 36.1 46.4258 36.0625 45.3258 35.2375C44.0022 33.9178 42.7183 32.5589 41.4758 31.1625C40.7883 30.6125 40.5633 31.1625 40.7633 32.2875C40.9508 32.925 41.4133 33.6 42.6758 34.1C43.5508 34.6 42.9008 35.275 42.2508 35.2875C41.8883 35.2875 41.1633 34.875 40.6258 34.25C39.8883 33.4375 39.8508 32.875 39.4383 31.6125C39.0633 30.9875 38.3883 31.275 38.3883 31.925C38.7133 33.2 38.9883 33.425 39.6383 33.95C40.2758 34.5375 39.2133 34.7375 38.8508 34.5C37.8133 33.8 37.4383 32.9 37.0883 32.075C36.8383 31.475 36.1133 31.7625 36.4508 32.7375C37.2508 35.05 38.5758 35.9625 40.8883 36.4375C41.1258 36.475 41.2633 36.6125 41.1883 36.8875L40.2508 37.825C41.6883 38.2375 42.8508 38.475 44.2758 38.8875L46.2508 37.575C46.4383 37.15 46.5258 36.4875 47.5508 36.95C48.2633 36.625 48.5758 36.75 48.9758 37.075C48.4133 37.0875 48.1633 37.2375 47.9383 37.5C47.6508 38.25 46.9883 38.325 46.3133 38.125C45.8758 38.4875 45.6383 38.775 45.1883 39.15L47.4133 39.075C48.2008 38.2375 48.8258 38.2875 49.3883 38.95C49.8258 39.0125 50.0133 39.0125 50.3008 39.5375C49.8383 39.35 49.5508 39.2875 49.3383 39.5C48.5133 39.9875 47.9633 39.875 47.5508 39.5L45.2133 39.6375C45.5008 39.8875 45.9133 40.025 46.2133 40.2875C47.4258 39.9375 48.0508 40.4125 48.2633 41.3875C48.4383 41.7793 48.499 42.2127 48.4383 42.6375C48.3133 42.2375 48.1258 41.9 47.7758 41.6875C46.7008 41.9625 46.3008 41.525 46.2383 40.875C45.7133 40.45 44.9258 40.3625 44.4133 39.925C43.8008 40.125 43.5133 40.25 42.9008 40.4375C42.6883 41.1 42.1883 41.3625 41.4008 41.1875C40.4383 41.225 40.6133 41.6125 40.5258 41.925C40.2758 41.475 40.2758 41.05 40.8758 40.6375C41.0883 40.0625 41.5633 39.8 42.1758 40.1375C42.7633 39.975 42.9133 39.7375 43.4883 39.5625C42.0258 39.1 40.9883 39 39.5133 38.525C39.1383 38.875 38.8633 39.125 38.4883 39.425C38.2883 39.55 38.1133 39.575 37.9883 39.425C37.0758 38.1 36.6633 36.925 35.8133 36.05C35.4883 35.6875 35.0633 35.2 34.6133 35.075C34.3883 35.025 34.1133 35.05 33.9258 35.25C33.7508 35.45 33.6008 35.8 33.6758 36.3375C33.7508 37.1125 33.9258 37.3625 34.1508 37.8125C34.3633 38.275 34.6383 38.5625 34.9008 38.9125C35.4508 39.625 36.1633 40.0375 36.5883 40.3125C37.4383 40.8625 37.8008 40.625 38.4633 40.5875C39.3008 40.6875 39.5258 41.1 38.8383 41.675C38.3166 41.9623 37.7127 42.0637 37.1258 41.9625C36.7133 41.8875 36.2508 41.3625 35.9008 41.0875C35.5258 40.6375 34.8883 41.1625 35.3133 41.675C36.1008 42.6125 36.8883 43.225 37.8508 43.2125C38.8758 43.3375 38.6883 43.925 38.0133 44.2C36.7883 44.7 35.6883 43.7625 35.1383 43.1375C34.7008 42.675 34.3883 42.65 34.4758 43.3875C34.9008 44.7 35.4883 45.2125 36.4383 45.275C37.2133 45.2125 37.2258 45.8 36.6508 46.2125C35.3633 47.0875 34.4383 45.5875 34.0008 44.6625C33.6883 43.8375 33.2133 44.225 33.1633 44.9125C33.1633 45.825 33.5633 46.5625 34.6633 47.5C33.8258 48.8375 32.8508 50.2125 32.0008 51.5625L29.4383 23.0375L32.0008 18.5375C32.2633 18.2875 33.1633 17.225 33.4008 17.075C33.4883 16.9875 33.5383 16.925 33.4133 16.875C33.2883 16.825 33.0133 16.775 32.8133 16.75C33.3633 16.2 33.8133 16.025 34.8508 15.725C34.6008 15.625 34.3508 15.6875 33.6133 15.65C34.0698 15.0293 34.6944 14.5522 35.4133 14.275C34.8508 13.9 34.7508 13.8625 34.1883 13.4C35.1508 13.325 35.9758 13.15 36.7883 12.9C37.2928 12.6596 37.8333 12.5034 38.3883 12.4375ZM38.3008 13.5625C37.8008 13.5625 37.4758 13.7375 37.4758 13.9375C37.4758 14.15 37.7883 14.325 38.3008 14.325C38.8008 14.325 39.1258 14.1375 39.1258 13.925C39.1258 13.7125 38.8008 13.55 38.3008 13.55V13.5625Z" fill="#000001"/>
</g>
</g>
<defs>
<clipPath id="clip0_10660_6389">
<rect width="64" height="64" rx="32" fill="white"/>
</clipPath>
<clipPath id="clip1_10660_6389">
<rect width="64" height="64" fill="white"/>
</clipPath>
</defs>
</svg>
