<svg width="64" height="64" viewBox="0 0 64 64" fill="none" xmlns="http://www.w3.org/2000/svg">
<g clip-path="url(#clip0_10660_6515)">
<path d="M0 0H64V64H0V0Z" fill="#FF0000"/>
<path d="M25.6117 12.4375C24.9867 12.4375 23.9617 12.6375 23.9867 13.1125C22.2367 12.825 22.0617 13.5375 22.1617 14.175C22.3367 13.925 22.5367 13.7875 22.6867 13.7625C22.9242 13.725 23.1617 13.8 23.4117 13.95C23.6456 14.102 23.8562 14.2873 24.0367 14.5C23.4367 14.6375 22.9617 14.55 22.4867 14.4625C22.2151 14.4073 21.9564 14.3013 21.7242 14.15C21.5242 14.0125 21.4617 13.8875 21.1492 13.5625C20.7867 13.1875 20.3992 13.3 20.5242 13.875C20.7992 14.4125 21.2742 14.6625 21.8617 14.75C22.1367 14.8 22.5617 14.9 23.0367 14.9C23.5117 14.9 24.0492 14.8375 24.3492 14.9C24.1742 15 23.9742 15.2 23.5742 15.275C23.1742 15.35 22.5742 15.025 22.1992 14.95C22.2492 15.2625 22.6367 15.55 23.4117 15.7C24.6867 15.975 25.7492 16.2 26.4492 16.575C27.1492 16.95 27.5867 17.425 27.8992 17.8C28.5242 18.55 28.5617 19.1125 28.5992 19.2375C28.7242 20.425 28.3242 21.0875 27.5492 21.2875C27.1742 21.3875 26.4867 21.2 26.2367 20.9125C25.9867 20.6125 25.7367 20.1125 25.8117 19.325C25.8742 19.0125 26.2367 18.2 25.9367 18.0375C24.5483 17.2783 23.1119 16.6102 21.6367 16.0375C21.2992 15.9 21.0117 16.35 20.9117 16.5375C19.9291 16.3986 18.9896 16.0428 18.1616 15.4958C17.3335 14.9488 16.6376 14.2243 16.1242 13.375C15.5492 12.3625 14.6117 13.375 14.7617 14.3375C15.0242 15.4125 15.8367 16.1875 16.8242 16.7375C17.8242 17.3 19.0867 17.8375 20.3617 17.8125C21.0492 17.9375 21.0492 18.8375 20.2242 19C18.5992 19 17.3242 18.975 16.1117 17.8C15.1867 16.9625 14.6742 17.9625 14.9367 18.525C15.3867 20.275 17.8867 20.775 20.4117 20.2C21.3867 20.0375 20.7992 21.075 20.5242 21.1C19.4742 21.85 17.5867 22.6 15.9242 21.0875C15.1617 20.5 14.6492 21 14.9242 21.8375C15.6742 24.025 18.4867 23.5625 20.4242 22.4875C20.9242 22.2125 21.3742 22.8625 20.7617 23.35C18.3617 25.025 17.1492 25.05 16.0617 24.4C14.7117 23.8625 14.5867 25.375 15.3992 25.875C16.2992 26.425 18.5742 26 20.2617 24.95C20.9742 24.425 21.0117 25.25 20.5492 25.575C18.5617 27.3 17.7742 27.7625 15.6992 27.475C14.6742 27.4 14.6992 28.6625 15.4992 29.1625C16.5992 29.8375 18.7617 28.7125 20.4367 27.325C21.1367 26.95 21.2617 27.575 20.9117 28.3C20.1724 29.3456 19.1668 30.1742 17.9992 30.7C17.221 31.0088 16.3601 31.0397 15.5617 30.7875C14.7867 30.5125 14.6867 31.3125 15.1117 32.0375C15.3617 32.475 16.4367 32.625 17.5742 32.2125C18.7242 31.8125 19.9492 30.8625 20.7867 29.7375C21.5367 29.1 21.4367 29.9625 21.0992 30.575C19.4117 33.2375 17.8617 34.225 15.8367 34.0625C14.9242 33.9125 14.7242 34.6125 15.2992 35.2625C16.2992 36.1 17.5742 36.0625 18.6742 35.2375C19.9978 33.9178 21.2817 32.5589 22.5242 31.1625C23.2117 30.6125 23.4367 31.1625 23.2367 32.2875C23.0492 32.925 22.5867 33.6 21.3242 34.1C20.4492 34.6 21.0992 35.275 21.7492 35.2875C22.1117 35.2875 22.8367 34.875 23.3742 34.25C24.1117 33.4375 24.1492 32.875 24.5617 31.6125C24.9367 30.9875 25.6117 31.275 25.6117 31.925C25.2867 33.2 25.0117 33.425 24.3617 33.95C23.7242 34.5375 24.7867 34.7375 25.1492 34.5C26.1867 33.8 26.5617 32.9 26.9117 32.075C27.1617 31.475 27.8867 31.7625 27.5492 32.7375C26.7492 35.05 25.4242 35.9625 23.1117 36.4375C22.8742 36.475 22.7367 36.6125 22.8117 36.8875L23.7492 37.825C22.3117 38.2375 21.1492 38.475 19.7242 38.8875L17.7492 37.575C17.5617 37.15 17.4742 36.4875 16.4492 36.95C15.7367 36.625 15.4242 36.75 15.0242 37.075C15.5867 37.0875 15.8367 37.2375 16.0617 37.5C16.3492 38.25 17.0117 38.325 17.6867 38.125C18.1242 38.4875 18.3617 38.775 18.8117 39.15L16.5867 39.075C15.7992 38.2375 15.1742 38.2875 14.6117 38.95C14.1742 39.0125 13.9867 39.0125 13.6992 39.5375C14.1617 39.35 14.4492 39.2875 14.6617 39.5C15.4867 39.9875 16.0367 39.875 16.4492 39.5L18.7867 39.6375C18.4992 39.8875 18.0867 40.025 17.7867 40.2875C16.5742 39.9375 15.9492 40.4125 15.7367 41.3875C15.5617 41.7793 15.501 42.2127 15.5617 42.6375C15.6867 42.2375 15.8742 41.9 16.2242 41.6875C17.2992 41.9625 17.6992 41.525 17.7617 40.875C18.2867 40.45 19.0742 40.3625 19.5867 39.925C20.1992 40.125 20.4867 40.25 21.0992 40.4375C21.3117 41.1 21.8117 41.3625 22.5992 41.1875C23.5617 41.225 23.3867 41.6125 23.4742 41.925C23.7242 41.475 23.7242 41.05 23.1242 40.6375C22.9117 40.0625 22.4367 39.8 21.8242 40.1375C21.2367 39.975 21.0867 39.7375 20.5117 39.5625C21.9742 39.1 23.0117 39 24.4867 38.525C24.8617 38.875 25.1367 39.125 25.5117 39.425C25.7117 39.55 25.8867 39.575 26.0117 39.425C26.9242 38.1 27.3367 36.925 28.1867 36.05C28.5117 35.6875 28.9367 35.2 29.3867 35.075C29.6117 35.025 29.8867 35.05 30.0742 35.25C30.2492 35.45 30.3992 35.8 30.3242 36.3375C30.2492 37.1125 30.0742 37.3625 29.8492 37.8125C29.6367 38.275 29.3617 38.5625 29.0992 38.9125C28.5492 39.625 27.8367 40.0375 27.4117 40.3125C26.5617 40.8625 26.1992 40.625 25.5367 40.5875C24.6992 40.6875 24.4742 41.1 25.1617 41.675C25.6834 41.9623 26.2873 42.0637 26.8742 41.9625C27.2867 41.8875 27.7492 41.3625 28.0992 41.0875C28.4742 40.6375 29.1117 41.1625 28.6867 41.675C27.8992 42.6125 27.1117 43.225 26.1492 43.2125C25.1242 43.3375 25.3117 43.925 25.9867 44.2C27.2117 44.7 28.3117 43.7625 28.8617 43.1375C29.2992 42.675 29.6117 42.65 29.5242 43.3875C29.0992 44.7 28.5117 45.2125 27.5617 45.275C26.7867 45.2125 26.7742 45.8 27.3492 46.2125C28.6367 47.0875 29.5617 45.5875 29.9992 44.6625C30.3117 43.8375 30.7867 44.225 30.8367 44.9125C30.8367 45.825 30.4367 46.5625 29.3367 47.5C30.1742 48.8375 31.1492 50.2125 31.9992 51.5625L34.5617 23.0375L31.9992 18.5375C31.7367 18.2875 30.8367 17.225 30.5992 17.075C30.5117 16.9875 30.4617 16.925 30.5867 16.875C30.7117 16.825 30.9867 16.775 31.1867 16.75C30.6367 16.2 30.1867 16.025 29.1492 15.725C29.3992 15.625 29.6492 15.6875 30.3867 15.65C29.9302 15.0293 29.3056 14.5522 28.5867 14.275C29.1492 13.9 29.2492 13.8625 29.8117 13.4C28.8492 13.325 28.0242 13.15 27.2117 12.9C26.7072 12.6596 26.1667 12.5034 25.6117 12.4375ZM25.6992 13.5625C26.1992 13.5625 26.5242 13.7375 26.5242 13.9375C26.5242 14.15 26.2117 14.325 25.6992 14.325C25.1992 14.325 24.8742 14.1375 24.8742 13.925C24.8742 13.7125 25.1992 13.55 25.6992 13.55V13.5625Z" fill="#000001"/>
<path d="M38.3883 12.4375C39.0133 12.4375 40.0383 12.6375 40.0133 13.1125C41.7633 12.825 41.9383 13.5375 41.8383 14.175C41.6633 13.925 41.4633 13.7875 41.3133 13.7625C41.0758 13.725 40.8383 13.8 40.5883 13.95C40.3544 14.102 40.1438 14.2873 39.9633 14.5C40.5633 14.6375 41.0383 14.55 41.5133 14.4625C41.7849 14.4073 42.0436 14.3013 42.2758 14.15C42.4758 14.0125 42.5383 13.8875 42.8508 13.5625C43.2133 13.1875 43.6008 13.3 43.4758 13.875C43.2008 14.4125 42.7258 14.6625 42.1383 14.75C41.8633 14.8 41.4383 14.9 40.9633 14.9C40.4883 14.9 39.9508 14.8375 39.6508 14.9C39.8258 15 40.0258 15.2 40.4258 15.275C40.8258 15.35 41.4258 15.025 41.8008 14.95C41.7508 15.2625 41.3633 15.55 40.5883 15.7C39.3133 15.975 38.2508 16.2 37.5508 16.575C36.8508 16.95 36.4133 17.425 36.1008 17.8C35.4758 18.55 35.4383 19.1125 35.4008 19.2375C35.2758 20.425 35.6758 21.0875 36.4508 21.2875C36.8258 21.3875 37.5133 21.2 37.7633 20.9125C38.0133 20.6125 38.2633 20.1125 38.1883 19.325C38.1258 19.0125 37.7633 18.2 38.0633 18.0375C39.4517 17.2783 40.8881 16.6102 42.3633 16.0375C42.7008 15.9 42.9883 16.35 43.0883 16.5375C44.0709 16.3986 45.0104 16.0428 45.8384 15.4958C46.6665 14.9488 47.3624 14.2243 47.8758 13.375C48.4508 12.3625 49.3883 13.375 49.2383 14.3375C48.9758 15.4125 48.1633 16.1875 47.1758 16.7375C46.1758 17.3 44.9133 17.8375 43.6383 17.8125C42.9508 17.9375 42.9508 18.8375 43.7758 19C45.4008 19 46.6758 18.975 47.8883 17.8C48.8133 16.9625 49.3258 17.9625 49.0633 18.525C48.6133 20.275 46.1133 20.775 43.5883 20.2C42.6133 20.0375 43.2008 21.075 43.4758 21.1C44.5258 21.85 46.4133 22.6 48.0758 21.0875C48.8383 20.5 49.3508 21 49.0758 21.8375C48.3258 24.025 45.5133 23.5625 43.5758 22.4875C43.0758 22.2125 42.6258 22.8625 43.2383 23.35C45.6383 25.025 46.8508 25.05 47.9383 24.4C49.2883 23.8625 49.4133 25.375 48.6008 25.875C47.7008 26.425 45.4258 26 43.7383 24.95C43.0258 24.425 42.9883 25.25 43.4508 25.575C45.4383 27.3 46.2258 27.7625 48.3008 27.475C49.3258 27.4 49.3008 28.6625 48.5008 29.1625C47.4008 29.8375 45.2383 28.7125 43.5633 27.325C42.8633 26.95 42.7383 27.575 43.0883 28.3C43.8276 29.3456 44.8332 30.1742 46.0008 30.7C46.779 31.0088 47.6399 31.0397 48.4383 30.7875C49.2133 30.5125 49.3133 31.3125 48.8883 32.0375C48.6383 32.475 47.5633 32.625 46.4258 32.2125C45.2758 31.8125 44.0508 30.8625 43.2133 29.7375C42.4633 29.1 42.5633 29.9625 42.9008 30.575C44.5883 33.2375 46.1383 34.225 48.1633 34.0625C49.0758 33.9125 49.2758 34.6125 48.7008 35.2625C47.7008 36.1 46.4258 36.0625 45.3258 35.2375C44.0022 33.9178 42.7183 32.5589 41.4758 31.1625C40.7883 30.6125 40.5633 31.1625 40.7633 32.2875C40.9508 32.925 41.4133 33.6 42.6758 34.1C43.5508 34.6 42.9008 35.275 42.2508 35.2875C41.8883 35.2875 41.1633 34.875 40.6258 34.25C39.8883 33.4375 39.8508 32.875 39.4383 31.6125C39.0633 30.9875 38.3883 31.275 38.3883 31.925C38.7133 33.2 38.9883 33.425 39.6383 33.95C40.2758 34.5375 39.2133 34.7375 38.8508 34.5C37.8133 33.8 37.4383 32.9 37.0883 32.075C36.8383 31.475 36.1133 31.7625 36.4508 32.7375C37.2508 35.05 38.5758 35.9625 40.8883 36.4375C41.1258 36.475 41.2633 36.6125 41.1883 36.8875L40.2508 37.825C41.6883 38.2375 42.8508 38.475 44.2758 38.8875L46.2508 37.575C46.4383 37.15 46.5258 36.4875 47.5508 36.95C48.2633 36.625 48.5758 36.75 48.9758 37.075C48.4133 37.0875 48.1633 37.2375 47.9383 37.5C47.6508 38.25 46.9883 38.325 46.3133 38.125C45.8758 38.4875 45.6383 38.775 45.1883 39.15L47.4133 39.075C48.2008 38.2375 48.8258 38.2875 49.3883 38.95C49.8258 39.0125 50.0133 39.0125 50.3008 39.5375C49.8383 39.35 49.5508 39.2875 49.3383 39.5C48.5133 39.9875 47.9633 39.875 47.5508 39.5L45.2133 39.6375C45.5008 39.8875 45.9133 40.025 46.2133 40.2875C47.4258 39.9375 48.0508 40.4125 48.2633 41.3875C48.4383 41.7793 48.499 42.2127 48.4383 42.6375C48.3133 42.2375 48.1258 41.9 47.7758 41.6875C46.7008 41.9625 46.3008 41.525 46.2383 40.875C45.7133 40.45 44.9258 40.3625 44.4133 39.925C43.8008 40.125 43.5133 40.25 42.9008 40.4375C42.6883 41.1 42.1883 41.3625 41.4008 41.1875C40.4383 41.225 40.6133 41.6125 40.5258 41.925C40.2758 41.475 40.2758 41.05 40.8758 40.6375C41.0883 40.0625 41.5633 39.8 42.1758 40.1375C42.7633 39.975 42.9133 39.7375 43.4883 39.5625C42.0258 39.1 40.9883 39 39.5133 38.525C39.1383 38.875 38.8633 39.125 38.4883 39.425C38.2883 39.55 38.1133 39.575 37.9883 39.425C37.0758 38.1 36.6633 36.925 35.8133 36.05C35.4883 35.6875 35.0633 35.2 34.6133 35.075C34.3883 35.025 34.1133 35.05 33.9258 35.25C33.7508 35.45 33.6008 35.8 33.6758 36.3375C33.7508 37.1125 33.9258 37.3625 34.1508 37.8125C34.3633 38.275 34.6383 38.5625 34.9008 38.9125C35.4508 39.625 36.1633 40.0375 36.5883 40.3125C37.4383 40.8625 37.8008 40.625 38.4633 40.5875C39.3008 40.6875 39.5258 41.1 38.8383 41.675C38.3166 41.9623 37.7127 42.0637 37.1258 41.9625C36.7133 41.8875 36.2508 41.3625 35.9008 41.0875C35.5258 40.6375 34.8883 41.1625 35.3133 41.675C36.1008 42.6125 36.8883 43.225 37.8508 43.2125C38.8758 43.3375 38.6883 43.925 38.0133 44.2C36.7883 44.7 35.6883 43.7625 35.1383 43.1375C34.7008 42.675 34.3883 42.65 34.4758 43.3875C34.9008 44.7 35.4883 45.2125 36.4383 45.275C37.2133 45.2125 37.2258 45.8 36.6508 46.2125C35.3633 47.0875 34.4383 45.5875 34.0008 44.6625C33.6883 43.8375 33.2133 44.225 33.1633 44.9125C33.1633 45.825 33.5633 46.5625 34.6633 47.5C33.8258 48.8375 32.8508 50.2125 32.0008 51.5625L29.4383 23.0375L32.0008 18.5375C32.2633 18.2875 33.1633 17.225 33.4008 17.075C33.4883 16.9875 33.5383 16.925 33.4133 16.875C33.2883 16.825 33.0133 16.775 32.8133 16.75C33.3633 16.2 33.8133 16.025 34.8508 15.725C34.6008 15.625 34.3508 15.6875 33.6133 15.65C34.0698 15.0293 34.6944 14.5522 35.4133 14.275C34.8508 13.9 34.7508 13.8625 34.1883 13.4C35.1508 13.325 35.9758 13.15 36.7883 12.9C37.2928 12.6596 37.8333 12.5034 38.3883 12.4375ZM38.3008 13.5625C37.8008 13.5625 37.4758 13.7375 37.4758 13.9375C37.4758 14.15 37.7883 14.325 38.3008 14.325C38.8008 14.325 39.1258 14.1375 39.1258 13.925C39.1258 13.7125 38.8008 13.55 38.3008 13.55V13.5625Z" fill="#000001"/>
<g clip-path="url(#clip1_10660_6515)">
<path d="M32 0H64V64H32V0Z" fill="white"/>
<path d="M0 0H32V64H0V0Z" fill="#006233"/>
<path d="M45.8759 24C44.1149 20.9497 41.3965 18.5658 38.1425 17.2179C34.8884 15.8701 31.2806 15.6336 27.8784 16.5452C24.4763 17.4568 21.47 19.4655 19.3259 22.2598C17.1817 25.0541 16.0195 28.4779 16.0195 32C16.0195 35.5222 17.1817 38.9459 19.3259 41.7402C21.47 44.5345 24.4763 46.5432 27.8784 47.4548C31.2806 48.3664 34.8884 48.1299 38.1425 46.7821C41.3965 45.4342 44.1149 43.0503 45.8759 40C44.2185 42.0702 41.9589 43.5744 39.4096 44.3049C36.8603 45.0353 34.147 44.9559 31.6447 44.0776C29.1424 43.1993 26.9747 41.5655 25.4412 39.402C23.9076 37.2384 23.0839 34.6519 23.0839 32C23.0839 29.3481 23.9076 26.7616 25.4412 24.5981C26.9747 22.4345 29.1424 20.8007 31.6447 19.9224C34.147 19.0441 36.8603 18.9647 39.4096 19.6951C41.9589 20.4256 44.2185 21.9298 45.8759 24ZM46.4009 32L32.0009 27.3L40.9634 39.575V24.425L32.0009 36.7L46.4009 32Z" fill="#D21034"/>
</g>
</g>
<defs>
<clipPath id="clip0_10660_6515">
<rect width="64" height="64" rx="32" fill="white"/>
</clipPath>
<clipPath id="clip1_10660_6515">
<rect width="64" height="64" fill="white"/>
</clipPath>
</defs>
</svg>
