<svg width="64" height="64" viewBox="0 0 64 64" fill="none" xmlns="http://www.w3.org/2000/svg">
<g clip-path="url(#clip0_10660_6523)">
<path d="M32 0H64V64H32V0Z" fill="white"/>
<path d="M0 0H32V64H0V0Z" fill="#006233"/>
<path d="M45.8759 24C44.1149 20.9497 41.3965 18.5658 38.1425 17.2179C34.8884 15.8701 31.2806 15.6336 27.8784 16.5452C24.4763 17.4568 21.47 19.4655 19.3259 22.2598C17.1817 25.0541 16.0195 28.4779 16.0195 32C16.0195 35.5222 17.1817 38.9459 19.3259 41.7402C21.47 44.5345 24.4763 46.5432 27.8784 47.4548C31.2806 48.3664 34.8884 48.1299 38.1425 46.7821C41.3965 45.4342 44.1149 43.0503 45.8759 40C44.2185 42.0702 41.9589 43.5744 39.4096 44.3049C36.8603 45.0353 34.147 44.9559 31.6447 44.0776C29.1424 43.1993 26.9747 41.5655 25.4412 39.402C23.9076 37.2384 23.0839 34.6519 23.0839 32C23.0839 29.3481 23.9076 26.7616 25.4412 24.5981C26.9747 22.4345 29.1424 20.8007 31.6447 19.9224C34.147 19.0441 36.8603 18.9647 39.4096 19.6951C41.9589 20.4256 44.2185 21.9298 45.8759 24ZM46.4009 32L32.0009 27.3L40.9634 39.575V24.425L32.0009 36.7L46.4009 32Z" fill="#D21034"/>
</g>
<defs>
<clipPath id="clip0_10660_6523">
<rect width="64" height="64" rx="32" fill="white"/>
</clipPath>
</defs>
</svg>
