<svg width="64" height="64" viewBox="0 0 64 64" fill="none" xmlns="http://www.w3.org/2000/svg">
<g clip-path="url(#clip0_10660_6527)">
<path d="M0 0H64V64H0V0Z" fill="#000066"/>
<path d="M0 32L64 0V64L0 32Z" fill="#BD1021"/>
<path d="M5.17578 32L63.9258 3.425V60.575" fill="white"/>
<path d="M41.8621 36.0625C42.5371 36.1 42.5121 36.775 42.5121 36.775L44.9246 36.8375C45.2371 35.9875 45.5496 36.0875 46.1371 36.5125C46.4946 36.7565 46.8864 36.946 47.2996 37.075C47.5496 35.875 49.2496 36.1125 49.2496 36.1125C49.9746 34.375 50.0371 34.4 49.5996 34.175C49.3405 34.0459 49.1269 33.841 48.9871 33.5875C48.6215 33.1014 48.3888 32.5284 48.3121 31.925C48.2621 31.4875 47.7496 32.1375 47.6621 32.0125C47.5746 31.8625 46.8121 31.95 46.8121 31.95C46.9996 32.15 46.3621 32.025 46.3621 32.025C46.4246 32.0875 46.3621 32.275 46.3621 32.275C46.2996 32.1875 45.8121 32.1 45.8121 32.1C45.7738 32.1784 45.7232 32.2502 45.6621 32.3125C45.3996 32.2125 44.8746 32.225 44.8746 32.225C44.3612 32.207 43.8535 32.3372 43.4121 32.6C43.1996 32.725 42.4121 33.1 41.7871 33.725C41.1496 34.35 40.7871 34.2625 40.7871 34.2625C40.5996 34.9625 39.0871 35.8 39.0871 35.8C38.8371 36.0125 38.0746 36.1125 37.6871 35.8C37.2996 35.475 37.6871 34.875 37.6871 34.875C37.8371 34.625 37.9746 34.625 37.9871 33.6875C37.9996 33.0625 38.6496 32.5375 39.3246 31.8125C40.1496 30.9 41.3121 29.4 41.3121 29.4C41.3121 29.8625 41.5621 29.9375 41.5621 29.9375C41.7871 29.475 42.1121 29.1 42.1121 29.1C42.1371 29.1375 42.1871 29.1625 42.1871 29.1625C42.4371 28.8125 42.5996 28.675 42.5996 28.675C42.5121 28.6375 41.7871 28.675 41.1246 29.2625C40.4496 29.85 39.9996 29.65 39.9996 29.65C39.5371 29.5 39.4996 29.15 39.4996 29.15C39.1496 27.675 40.4871 26.65 40.4871 26.65C38.6996 26.2125 39.9871 23.9375 42.2121 22.9625C44.4246 22 44.3996 21.5625 44.3996 21.5625C44.5016 21.6878 44.5857 21.8266 44.6496 21.975C44.6496 21.9625 44.8246 21.725 46.1121 21.15C46.7754 20.8681 47.4044 20.5116 47.9871 20.0875C48.1621 20.4125 48.1371 20.6375 48.1371 20.6375C51.6371 19.4125 55.0746 16.5875 55.0746 16.5875C55.1746 16.825 55.1246 17.1875 55.1246 17.1875C55.6996 16.65 57.7496 15.4375 57.7496 15.4375C57.7871 16.2125 57.1496 16.5125 57.1496 16.5125C57.1995 16.6106 57.2333 16.7161 57.2496 16.825C57.9014 16.4155 58.5433 15.9904 59.1746 15.55C59.7496 16.05 59.2371 16.85 59.2371 16.85C59.4371 16.825 59.5746 16.65 59.5746 16.65C59.7371 17.5 58.7871 18.25 58.7871 18.25C58.9471 18.2215 59.0999 18.162 59.2371 18.075C59.0496 19 57.2996 20.025 57.2996 20.025C57.5496 20.25 57.3121 20.55 57.0996 20.7C56.8871 20.825 56.5246 21.125 56.6371 21.25C56.7496 21.375 57.5246 20.8125 57.5246 20.8125C57.6496 21.2 56.6621 21.975 56.6621 21.975C57.3621 22.0625 59.2871 21.1875 59.2871 21.1875C59.1246 21.9375 58.4121 22.5125 57.4996 22.85C56.6121 23.1875 56.6621 23.2375 56.6621 23.2375C56.8121 23.3625 58.0371 23 58.0371 23C57.6746 23.825 56.3871 24.4 56.3871 24.4C56.7371 24.7125 57.2246 24.35 57.7121 24.025C58.2959 23.6552 58.9265 23.3651 59.5871 23.1625C60.2996 22.9125 60.8121 23.1 60.8121 23.1C61.4371 22.9125 61.9371 23.1875 61.9371 23.1875C63.0871 23.275 63.2121 23.6875 63.2121 23.6875C63.3371 23.725 63.4371 23.775 63.7371 24C64.0371 24.2125 64.0121 24.8875 63.9996 25.225C63.9996 25.55 63.8996 25.55 63.8371 25.6375C63.7871 25.7375 63.7746 25.8375 63.7746 25.9625C63.7746 26.0875 63.4746 26.8875 61.6871 26.8875H58.9621C58.8121 26.8875 58.6371 26.975 58.6371 26.975C57.8871 27.35 58.2871 26.725 57.3871 27.45C56.4871 28.2 56.0246 28.075 56.0246 28.075C55.5258 28.5892 54.982 29.0578 54.3996 29.475C53.8621 29.825 53.9496 29.7875 54.4246 29.9875C54.8996 30.1875 55.5996 29.9875 55.5996 29.9875C55.1496 30.3 55.4746 30.4375 55.4746 30.4375C56.0496 30.0625 56.4246 30.2 56.4246 30.2C56.6121 30.725 55.9246 31.55 55.9246 31.55C56.1871 31.575 56.6871 31.55 56.6871 31.55C56.5621 31.9 56.0746 32.2875 55.7121 32.4C55.3371 32.525 55.3996 32.575 55.5121 32.775C55.6121 33.0125 55.5371 33.2375 55.5371 33.2375C54.8871 32.8 54.8746 33.1875 54.8746 33.1875C54.7996 33.7 54.8121 34.4625 54.8121 34.4625C54.3621 34.2375 54.3371 34.5375 54.3371 34.5375C54.1869 34.9193 53.9568 35.2645 53.6621 35.55C53.6496 35.2625 53.3746 35.175 53.3746 35.175C53.0871 35.7375 52.5496 36.075 52.5496 36.075C52.4871 36.55 52.6246 37.2125 52.6246 37.2125C52.2746 37.15 52.1496 37.15 52.0996 37.225C52.0496 37.3125 52.1746 37.35 52.1746 37.35L56.6246 37.4625C56.6871 37.4625 56.9496 37.5 56.9496 37.9625C56.9621 38.4625 56.5746 38.4875 56.5746 38.4875L51.6996 38.3625C51.6996 38.3625 51.7246 38.5 51.4746 38.6375C51.2246 38.775 51.3121 38.4875 51.2246 39.0875C51.1621 39.675 50.1996 39.0375 50.1996 39.0375C50.0371 39.275 49.6621 39.575 49.6621 39.575C49.4371 38.9125 49.2121 38.7 48.8621 39.275C48.5246 39.85 49.4996 39.75 49.4996 39.75L55.5246 38.875C55.8371 38.85 56.1621 38.875 56.3121 39.3C56.4371 39.7375 55.6121 39.8 55.6121 39.8L49.7496 40.45C49.6246 40.7875 49.1371 40.775 49.1371 40.775C49.1871 41.1 48.8371 41.3125 48.6621 41.425C48.4746 41.55 47.9121 41.5 47.9121 41.5C47.2371 41.9625 46.9121 41.6 46.9121 41.6C46.4621 41.7875 46.1871 41.7 45.8246 41.55C45.4496 41.3875 45.4871 40.95 45.4871 40.95L41.7871 41.325C41.6801 41.3685 41.5825 41.4321 41.4996 41.5125C41.6246 41.675 41.2246 42.0625 41.2246 42.0625C41.3496 42.1375 41.5496 42.35 41.5871 42.8125C41.6121 43.3125 40.9871 43.3875 41.2996 43.7375C41.5996 44.075 42.1871 43.7875 42.8371 43.4875C43.4621 43.175 44.0871 43.2125 44.3621 43.2125C44.6371 43.2125 45.3996 43.4125 45.8746 43.5875C46.3496 43.7375 46.5121 43.6375 46.5496 43.4C46.5746 43.15 46.7996 43.0875 46.7996 43.0875C46.7371 43.325 46.8621 43.4375 46.8621 43.4375C47.0496 43.4375 47.3621 43.2625 47.3621 43.2625C47.3371 43.45 47.0996 43.5625 47.0996 43.5625C46.6371 43.8625 47.2746 43.75 47.2746 43.75C47.9463 43.5697 48.6433 43.5021 49.3371 43.55C49.9843 43.7439 50.6188 43.9777 51.2371 44.25C51.2871 44.0875 51.2621 43.7 51.2621 43.7C51.476 43.7598 51.6673 43.8816 51.8121 44.05C51.9746 43.8875 51.8746 43.6 51.8746 43.6C53.1496 44.325 51.5996 44.65 51.1871 44.8C50.7746 44.925 50.7746 45.1 50.7746 45.1C51.1246 45 51.3621 44.95 51.6496 44.925C51.9246 44.9125 51.8246 44.925 52.5121 44.8C53.1996 44.65 53.5496 44.95 53.5496 44.95C52.9746 44.975 52.7996 45.15 52.7996 45.15C53.1746 45.3875 52.8246 45.6 52.8246 45.6C52.3121 44.95 51.8621 45.625 51.8621 45.625C52.1547 45.6216 52.4446 45.6813 52.7121 45.8C52.8246 45.875 53.0871 46.0125 53.4246 46.175C53.8996 46.375 53.7996 46.25 54.1746 46.375C54.5496 46.525 54.3996 46.875 54.3996 46.875C54.2867 46.6856 54.1091 46.5436 53.8996 46.475C53.8746 46.8625 53.4871 46.9375 53.4871 46.9375C53.9746 46.4125 52.9371 46.175 52.4496 46.1875C51.9746 46.1875 51.6121 46.5 51.6121 46.5C52.5871 47.425 53.2621 47.125 53.2621 47.125C53.1371 47.45 52.3371 47.3125 52.3371 47.3125C52.7121 47.6 52.6621 47.8 52.6621 47.8C52.4621 47.6 52.1496 47.7 51.4371 47.25C50.7496 46.8 50.1246 46.95 50.1246 46.95C50.8121 47.6625 49.8746 48.1 49.8746 48.1C49.5246 48.3125 50.0246 48.5625 50.0246 48.5625C49.5871 48.65 49.5246 48.2125 49.5246 48.2125C49.2996 48.1625 48.9746 48.4375 48.9746 48.4375C48.9996 48 49.5871 48.225 49.5996 47.7625C49.6121 47.3 49.0621 46.9375 47.4121 47.1625C45.7621 47.4 45.2871 46.8625 45.2871 46.8625C45.1371 46.8625 45.1246 47.0125 45.1246 47.0125C45.3746 47.275 45.4996 47.3875 45.4621 47.5625C45.4121 47.75 45.5496 47.8125 45.5496 47.8125C45.2371 47.7875 45.2246 47.4375 45.2246 47.4375C45.2246 47.5875 45.1621 47.5875 45.0621 47.75C44.9621 47.9125 45.0621 48.1 45.0621 48.1C44.9246 47.9875 44.6871 47.85 44.9121 47.5375C45.0746 47.2875 44.5621 46.975 44.5621 46.975C44.3496 46.7625 43.8121 46.9625 43.8121 46.9625C42.6871 47.175 42.0371 46.4625 42.0371 46.4625C41.9121 46.4625 41.6621 46.4 41.6621 46.4C40.4746 46.925 39.4246 45.775 39.4246 45.775C38.5371 45.95 38.1246 45.525 37.8621 45.0875C37.7079 44.7927 37.4623 44.5558 37.1621 44.4125C36.8121 44.2125 36.4746 43.5875 36.8121 43.2625C37.0871 42.975 37.0121 42.9125 37.0121 42.9125C36.5371 42.125 37.8246 41.8875 37.8621 41.6875C37.8871 41.425 38.1621 41.25 38.4496 41.225C38.7496 41.2125 38.7496 41.225 38.9496 41.05C39.1246 40.8375 39.4871 41.0875 39.4871 41.0875C39.5746 41.0375 40.2121 40.5375 40.7746 40.7875C41.3496 41.0375 41.8246 40.875 41.8246 40.875C42.2246 40.7875 45.5621 40.3375 45.5621 40.3375C45.7621 40 45.9371 39.6125 46.8496 39.4125C47.7621 39.2125 48.4496 38.6125 48.4496 38.6125C48.2871 38.4375 48.0121 38.45 47.8746 38.4375C47.7371 38.425 47.4496 38.1625 47.4496 38.1625C47.2746 38.25 47.1996 38.2125 45.9871 38.95C44.8996 39.6 44.8621 38.3 44.8621 38.3H42.5246C42.4871 38.8 42.1121 39 42.1121 39L41.2371 39.0375C40.7746 38.7875 40.7746 37.9375 40.7746 37.9375C39.3725 37.9067 37.9861 38.2382 36.7496 38.9C33.8246 37.4125 31.5371 37.0625 31.5371 37.0625C35.0871 36.6875 36.9746 35.6875 36.9746 35.6875C38.1262 36.3896 39.4292 36.8053 40.7746 36.9C40.8371 36.1875 41.3246 36.0125 41.3246 36.0125L41.8621 36.0625Z" fill="black"/>
<path d="M37.6243 41.9625C36.8868 42.3875 37.0243 42.625 37.0868 42.7625C37.1493 42.8875 37.1618 43.025 36.9618 43.2375C36.7493 43.4375 36.7743 43.5125 36.7743 43.5125C36.8118 44.225 37.3118 44.3875 37.5243 44.5625C37.7118 44.7 38.0118 45.175 38.0118 45.175C38.1245 45.3583 38.2857 45.5068 38.4777 45.6039C38.6697 45.701 38.8849 45.7429 39.0993 45.725C39.3993 45.725 39.3743 45.7 39.2243 45.5625L38.7743 45.1875C39.0685 45.3198 39.3324 45.5113 39.5493 45.75C40.2993 46.575 40.9993 46.4625 41.2993 46.425C41.6118 46.3875 41.5618 46.2 41.5618 46.2C41.5493 46.175 41.2618 46.15 41.2618 46.15C40.1118 46.05 39.7743 45.3 39.7743 45.3C40.352 45.808 41.0927 46.0918 41.8618 46.1C42.1868 46.0875 42.1618 46.1875 42.0993 46.2C42.0243 46.2125 41.9368 46.2 41.7743 46.1875C41.6243 46.1875 41.6243 46.2125 41.6493 46.2875C41.6993 46.3375 41.8368 46.35 42.0243 46.3375C42.1993 46.3375 42.0493 46.3625 42.5243 46.7125C42.9993 47.0875 44.1493 46.7875 44.1493 46.7875C43.3993 46.6 43.2993 46.25 43.2993 46.25C42.2743 46.375 41.8618 45.7625 41.8618 45.7625C41.6321 45.584 41.3851 45.429 41.1243 45.3C40.5493 45.05 40.4618 44.525 40.4618 44.525C40.6243 44.775 40.9368 45.025 41.3368 45.15C41.7493 45.25 41.8493 45.3 41.8493 45.3C41.7491 45.3227 41.6444 45.314 41.5493 45.275C41.1493 45.15 41.3743 45.3125 41.3743 45.3125C41.8243 45.675 41.9368 45.6375 41.9368 45.6375C43.0993 45.7625 42.5243 45.3 42.5243 45.3C43.3368 45.5 43.4868 45.1875 43.4868 45.1875C43.6618 45.5625 44.2868 45.4125 44.2868 45.4125C43.4493 45.825 44.0743 45.7 44.0743 45.7C44.9243 45.55 45.0993 45.7625 45.0993 45.7625C45.3118 45.975 45.5493 45.95 45.5493 45.95C45.5493 45.95 45.6993 45.95 46.0118 46.0125C46.3368 46.075 46.8368 46.35 47.2993 46.3C47.7493 46.2375 47.8368 46.375 47.8368 46.375C47.7368 46.35 47.5368 46.3125 47.1868 46.475C46.8243 46.6375 46.1993 46.6875 45.2868 46.475C44.3743 46.2625 44.3118 46.3 44.3118 46.3C44.51 46.4326 44.6662 46.6191 44.7618 46.8375C44.7993 46.9875 44.9618 47 44.9618 47C45.0243 46.8 45.2868 46.7125 45.2868 46.7125C45.4743 46.875 45.9618 47.0875 45.9618 47.0875C46.0118 46.9875 45.9618 46.9125 45.9618 46.9125C46.2993 47.25 46.7118 47.15 46.7118 47.15C46.8118 47.075 46.7868 46.875 46.7868 46.875C46.9243 46.875 46.9493 46.9625 47.0368 47.0375C47.1618 47.0875 47.4618 47.05 47.4618 47.05C47.3368 47 47.2493 46.825 47.2493 46.825C47.7243 46.5125 48.7118 46.6375 48.7118 46.6375C49.4243 46.775 49.3368 47.25 49.3368 47.25C49.4686 47.3258 49.5869 47.423 49.6868 47.5375C49.7493 47.3625 49.6868 47.2 49.6868 47.2C50.0243 47.35 50.0868 47.7375 50.0868 47.7375C50.4618 47.3 49.7243 46.8125 49.7243 46.8125C50.0868 46.7625 50.4743 46.8 50.7243 46.825C51.0476 46.8819 51.3498 47.0243 51.5993 47.2375C51.8354 47.3954 52.0979 47.5097 52.3743 47.575C52.3743 47.475 52.0993 47.3125 52.0368 47.275C51.9743 47.25 51.9493 47.15 51.9493 47.15C52.1993 47.2 52.3618 47.175 52.3618 47.175C51.9712 46.9587 51.6063 46.6987 51.2743 46.4C51.5993 46.4375 51.7868 46.2375 51.7868 46.2375C51.0993 46.2375 51.0743 46.075 51.0743 46.075C51.1618 46.0875 51.4743 46.175 51.8868 46.0875C52.2993 46 52.8618 46.0875 52.8618 46.0875C52.5618 45.6125 51.4243 45.7 51.0493 45.7125C50.6743 45.7375 50.5493 45.6875 50.5493 45.6875C50.5993 45.6625 50.6743 45.6 50.9493 45.5875C51.2368 45.5875 51.5243 45.625 51.8493 45.3875C52.1618 45.175 52.6118 45.25 52.6118 45.25C52.5118 45.025 51.9868 44.95 51.5368 45.25C51.0868 45.525 50.6618 45.45 50.6618 45.45C51.3868 45.35 51.5868 45.0875 51.5868 45.0875C51.3868 45.025 51.2618 45.1 50.8368 45.1875C50.3993 45.275 50.2868 45.125 50.2868 45.125C50.7493 44.85 51.0868 44.7375 51.0868 44.7375C50.6868 44.6375 50.3118 44.4625 50.3118 44.4625C49.8993 44.8625 49.5618 45.0875 48.7618 44.675C47.9618 44.2375 47.5368 44.3 47.5368 44.3C47.8389 44.1298 48.1822 44.0468 48.5287 44.06C48.8751 44.0732 49.2111 44.1823 49.4993 44.375C50.0243 44.6875 50.1868 44.4375 50.1868 44.4375C50.0118 44.3375 50.0368 44.2375 50.0368 44.2375C51.3118 44.8875 51.8743 44.4875 52.1618 44.3C52.4368 44.1 52.0243 43.85 52.0243 43.85C51.9993 44.25 51.4743 44.4625 51.0618 44.3125C50.6493 44.175 50.2743 44 49.6868 43.7375C49.0868 43.4875 48.3618 43.625 47.6618 43.775C46.9618 43.9125 46.8868 43.85 46.8118 43.8C46.7493 43.7375 46.7243 43.575 46.3618 43.7125C46.0118 43.8625 45.1868 43.475 44.6743 43.35C43.9685 43.2225 43.2402 43.3416 42.6118 43.6875C41.8868 44.1 41.5243 44 41.3118 43.9C41.0993 43.8 40.9493 43.525 41.1868 43.275C41.4243 43.025 41.4368 42.975 41.4243 42.625C41.3993 42.275 41.0493 42.0625 41.0493 42.0625C41.3743 41.7375 41.4493 41.65 41.3368 41.5125C41.2368 41.375 41.3993 41.375 41.5868 41.2875C41.7743 41.2125 41.6868 41.2 41.6493 41.0875C41.5993 40.9875 41.4993 41.0125 41.4993 41.0125C41.0743 41.025 40.8368 40.9 40.8368 40.9C40.1493 40.5875 39.4868 41.2125 39.4868 41.2125C39.0993 40.9 38.9993 41.1125 38.9243 41.175C38.8743 41.25 38.7243 41.3 38.5493 41.325C38.3743 41.3375 38.1118 41.4 38.0368 41.575C38.0368 41.575 37.9493 41.7 38.0368 41.825C38.0368 41.825 38.1493 42 37.9618 42.2C37.7618 42.4 37.6868 42.4375 37.7618 42.625C37.8118 42.8125 37.7993 42.9625 37.7118 43.075C37.7118 43.075 37.6243 42.975 37.6493 42.85C37.6743 42.725 37.6743 42.6375 37.6493 42.575C37.6493 42.575 37.4493 42.7625 37.4243 42.9C37.4243 42.9 37.3368 42.6875 37.6243 42.4C37.8993 42.125 38.0368 41.9875 37.9493 41.875C37.8868 41.7875 37.6868 41.925 37.6368 41.9625H37.6243Z" fill="#FFC221"/>
<path d="M38.4365 45.075C38.4365 45.075 38.0865 44.8 38.124 44.425C38.1615 44.05 38.1615 44.025 38.124 43.925C38.124 43.925 38.049 43.9625 38.0615 44.1125L38.0365 44.4125C38.0365 44.4125 37.849 44.1125 37.7615 44.05C37.7615 44.05 37.8365 43.725 37.7365 43.5875C37.6365 43.45 37.5365 43.4375 37.424 43.4875C37.249 43.5375 37.1365 43.6875 37.674 44.1375C37.674 44.1375 37.874 44.3 38.0115 44.6375C38.149 45 38.3865 45.05 38.424 45.075H38.4365ZM40.1865 44.0375C40.1865 44.0375 40.149 43.8375 40.349 43.4625C40.4132 43.3487 40.449 43.2211 40.4533 43.0906C40.4577 42.96 40.4305 42.8303 40.374 42.7125C40.3365 42.6125 40.3115 42.65 40.499 42.4875C40.749 42.2875 40.4115 42.0375 40.8115 41.6875C40.8115 41.6875 41.0615 41.475 41.1115 41.3875C41.1115 41.3875 40.7115 41.6 40.4365 41.7125C40.1615 41.825 39.149 42.325 39.374 42.6625C39.599 43 39.574 43.0125 39.5365 43.1625C39.5365 43.1625 38.9115 42.8375 39.149 42.3125C39.149 42.3125 39.2365 42.1125 39.4865 41.8625C39.7365 41.65 39.599 41.9125 40.0615 41.6375C40.0615 41.6375 40.4365 41.4125 40.6365 41.125C40.6365 41.125 40.3865 41.275 40.299 41.3C40.299 41.3 39.749 41.4 39.524 41.625C39.3115 41.875 38.8365 42.2625 38.9865 42.7125C38.9865 42.7125 38.449 42.65 38.324 42.0875C38.324 42.0875 37.3115 43.325 39.449 43.9125C39.449 43.9125 39.824 44.025 40.1865 44.0375Z" fill="black"/>
<path d="M49.5243 39.8625C50.3243 39.75 54.9243 39.05 55.3493 39C55.7993 38.9625 55.9743 38.9 56.1243 39.275C56.2993 39.675 55.4993 39.6875 55.4993 39.6875L49.9993 40.3125C49.7493 40.3375 49.6868 40.2375 49.6868 40.2375L49.4743 39.9625C49.4743 39.9625 49.4118 39.8875 49.5243 39.8625Z" fill="#FFC221"/>
<path d="M38.2995 42.375C38.2995 42.375 37.6995 43.6125 40.037 43.9125C40.037 43.9125 40.037 43.7875 40.137 43.575C40.237 43.3875 40.437 42.9875 40.237 42.7375C40.0495 42.4875 40.3995 42.6125 40.437 42.275C40.4995 41.95 40.412 41.9875 40.5745 41.775C40.5745 41.775 39.8495 42.0375 39.5745 42.3625C39.287 42.6875 39.9495 42.925 39.5745 43.2875C39.5745 43.2875 39.2245 43.1625 39.037 42.8C39.037 42.8 38.587 42.8125 38.287 42.3625L38.2995 42.375Z" fill="#5A3719"/>
<path d="M40.5869 43.9C40.5869 43.9 41.1619 44.4 41.8369 44.375C42.5244 44.35 42.8244 44.175 42.9994 43.9C42.9994 43.9 43.1244 44.1 43.1244 44.2375C43.1244 44.2375 43.7244 43.75 44.7494 44.1875C45.7744 44.625 45.4494 44.4875 45.6744 44.525C45.6744 44.525 45.2369 44.45 44.2494 44.9C43.2244 45.3625 40.5494 45.2 40.5744 43.9H40.5869Z" fill="black"/>
<path d="M39.6255 41.6875C39.6255 41.6875 39.8755 41.7375 40.1255 41.4375C40.1255 41.4375 39.788 41.5125 39.6255 41.6875ZM37.663 44.0125C37.663 44.0125 37.188 43.6375 37.488 43.5625C37.488 43.5625 37.713 43.5125 37.663 44.0125Z" fill="#5A3719"/>
<path d="M48.1367 46.375C48.1367 46.375 48.4117 45.9125 49.1367 45.9125C49.8867 45.9125 49.9617 46.2625 50.8867 46.325C50.8867 46.325 49.7742 46.6375 48.9992 46.3625C48.8619 46.3071 48.7148 46.2796 48.5667 46.2818C48.4186 46.2839 48.2724 46.3156 48.1367 46.375Z" fill="black"/>
<path d="M40.8242 44.2375C40.8242 44.2375 41.9492 44.9 42.9242 44.175C42.9242 44.175 42.9992 44.25 43.0742 44.425C43.0742 44.425 43.8242 43.7125 45.1492 44.4875C45.1492 44.4875 44.9867 44.4625 44.3617 44.7375C43.5492 45.0875 41.4992 45.325 40.8242 44.225V44.2375Z" fill="#5A3719"/>
<path d="M45.0996 44.9125C45.0996 44.9125 46.1621 45.0375 47.0496 44.975C47.5996 44.95 48.1996 44.85 47.9121 45.025C47.5996 45.2125 47.7496 45.2375 49.0246 45.125C50.2746 45 49.0121 45.3625 49.8746 45.475C49.8746 45.475 47.7621 46.55 45.0996 44.9125Z" fill="black"/>
<path d="M47.8758 44.2375C47.8758 44.2375 48.5008 44.0125 49.0883 44.275C49.6508 44.55 49.5633 44.575 49.9508 44.6125C49.9508 44.6125 49.6883 44.9875 49.0508 44.6875C48.6862 44.4745 48.2893 44.3225 47.8758 44.2375ZM48.5758 46.1375C48.5758 46.1375 49.1883 45.8375 49.8633 46.15C49.9383 46.2 50.1133 46.275 50.3008 46.3125C50.3008 46.3125 49.7883 46.475 49.2508 46.3125C49.0317 46.2333 48.8057 46.1747 48.5758 46.1375ZM45.5508 45.05C45.5508 45.05 46.9258 45.175 47.6508 45.025C47.6508 45.025 46.8008 45.4375 48.9508 45.25C48.9508 45.25 49.4133 45.2 49.3633 45.275C49.3008 45.35 49.2633 45.4 49.5008 45.475C49.5008 45.475 47.9133 46.2 45.5508 45.05Z" fill="#5A3719"/>
<path d="M38.7492 43.9C38.7492 43.9 38.7617 44 39.0617 44.1375C39.3742 44.2625 39.5367 44.5125 39.5992 44.6375C39.6452 44.7306 39.7101 44.8131 39.7897 44.8798C39.8693 44.9465 39.9619 44.996 40.0617 45.025C40.0617 45.025 38.9867 45.25 38.5242 44.6875C38.5242 44.6875 38.1492 44.3 38.7367 43.9" fill="black"/>
<path d="M47.1497 46.3625C47.1497 46.3625 46.7372 46.325 46.1497 46.1375C45.5747 45.925 45.4246 46.1 45.0996 45.8625C44.7746 45.6125 44.1122 45.7625 43.9997 45.7875C43.8747 45.7875 43.5247 45.7875 43.9497 45.5C43.9497 45.5 43.6121 45.5 43.4746 45.3125C43.4746 45.3125 43.3246 45.475 42.7246 45.4125C42.7246 45.4125 42.9997 45.825 41.9372 45.7C42.1144 45.9073 42.3493 46.0572 42.6119 46.1306C42.8745 46.2041 43.1531 46.1978 43.4121 46.1125C43.4121 46.1125 43.3372 46.4375 43.8247 46.5625C44.3247 46.6875 44.4121 46.775 44.6746 46.875C44.6746 46.875 44.6996 46.675 44.0496 46.2C44.0496 46.2 44.3997 46.1875 44.8997 46.3125C45.3997 46.4375 46.5372 46.7125 47.1497 46.3625ZM47.4121 46.85C47.4121 46.85 47.5246 47.1 47.8496 47.0375C48.1621 46.975 48.6872 46.8875 49.1997 47.15C49.1997 47.15 49.2997 46.7125 48.2622 46.6875C48.2622 46.6875 47.6246 46.7125 47.4121 46.85ZM38.7122 44.05C38.7122 44.05 38.3121 44.375 38.6746 44.7125C38.9996 45.025 39.5122 45 39.7622 44.9875C39.7622 44.9875 39.5996 44.9125 39.4871 44.7125C39.3496 44.525 39.3497 44.3875 39.0747 44.2625C38.7997 44.1375 38.7622 44.1125 38.7122 44.05ZM38.3122 42.3625C38.3122 42.3625 37.6997 43.6125 40.0496 43.9125C40.0496 43.9125 40.0497 43.7875 40.1497 43.575C40.2247 43.3875 40.4372 42.9875 40.2497 42.7375C40.0497 42.4875 40.3997 42.6125 40.4497 42.275C40.4997 41.95 40.4122 41.9875 40.5747 41.775C40.5747 41.775 39.8497 42.0375 39.5747 42.3625C39.2872 42.6875 39.9497 42.925 39.5747 43.2875C39.5747 43.2875 39.2246 43.1625 39.0371 42.8125C39.0371 42.8125 38.5871 42.8125 38.2871 42.3625H38.3122Z" fill="#5A3719"/>
<path d="M44.4258 45.25C44.4258 45.25 44.9258 45.1625 46.1633 45.625C47.4133 46.0875 47.9258 45.975 48.1133 45.975C48.1133 45.975 47.4133 46.3375 46.3258 45.85C45.3633 45.425 45.3008 45.6 44.4258 45.25Z" fill="black"/>
<path d="M52.2242 44.975C52.2242 44.975 52.4992 44.9625 52.6742 45.025C52.6742 45.025 52.7742 44.9375 53.0492 44.9C53.0492 44.9 52.8742 44.75 52.2242 44.975ZM51.3742 44.275C51.3742 44.275 51.6492 44.275 51.7492 44.125C51.7492 44.125 51.5867 43.95 51.3742 43.85C51.3742 43.85 51.4242 44.0625 51.3742 44.275ZM41.8117 41.1C41.8117 41.1 41.7492 40.95 42.0617 40.9125L46.2242 40.3125C46.2242 40.3125 46.4242 40.3125 46.4617 40.4375C46.4867 40.6 46.4367 40.7 45.4992 40.8125C44.5617 40.9125 42.0867 41.225 42.0867 41.225C42.0867 41.225 41.8367 41.275 41.8117 41.1Z" fill="#FFC221"/>
<path d="M45.5879 40.925C45.5879 40.925 45.5879 41.475 46.1504 41.55C46.6879 41.6375 46.8754 41.525 47.0254 41.2375C47.0629 41.1625 47.2254 40.5875 46.9879 40.55C46.8575 40.5332 46.7251 40.5461 46.6004 40.5875C46.4129 40.675 46.2379 40.7625 46.2879 40.85C46.4379 41.0625 46.4629 41.1 46.4129 41.125C46.2754 41.1625 46.1754 41.0375 46.1504 40.95C46.1254 40.85 46.2254 40.7875 45.8629 40.85C45.7129 40.8625 45.5879 40.8625 45.5879 40.925Z" fill="#FFC221"/>
<path d="M47.9129 40.5C48.1879 40.5375 48.1629 41.1375 47.8379 41.4125C47.4629 41.7125 47.1254 41.6 47.1254 41.6C46.9254 41.525 46.9629 41.55 47.1004 41.3375C47.2254 41.125 47.3004 40.85 47.2254 40.6625C47.2004 40.6 47.2629 40.5375 47.3504 40.5375C47.3504 40.5375 47.6254 40.475 47.9129 40.5Z" fill="#FFC221"/>
<path d="M48.1618 40.5625C48.1618 40.5625 48.3618 40.8125 48.1118 41.2875C48.1118 41.2875 47.9868 41.425 48.2493 41.4125C48.4993 41.3875 49.0743 41.125 48.9993 40.775C48.9993 40.775 48.9993 40.6875 48.8368 40.6875C48.6868 40.7 48.8118 40.6125 48.8743 40.5875C48.9368 40.5875 49.1243 40.5 48.6243 40.175C48.6243 40.175 48.5493 40.1125 48.4493 40.1375C48.3743 40.175 48.1118 40.2625 48.1118 40.4375C48.1118 40.5 48.1618 40.5625 48.1618 40.5625Z" fill="#FFC221"/>
<path d="M48.6992 40.125C48.6992 40.125 49.1117 40.4125 49.0992 40.5C49.0992 40.575 49.0617 40.7 49.1742 40.675C49.2742 40.675 49.6992 40.575 49.5867 40.3C49.4617 40.0125 49.3367 39.925 49.1492 39.8375C48.9492 39.775 48.8992 39.8625 48.7242 40C48.7242 40 48.5992 40.075 48.6992 40.125ZM46.5617 40.525C46.5617 40.525 46.6242 40.325 46.2617 40.2375C46.2617 40.2375 46.4117 40.1125 46.7242 40.175C47.0117 40.2375 46.9867 40.45 46.9867 40.4625C46.9867 40.4625 46.7492 40.4625 46.5617 40.525ZM47.3367 40.475C47.3367 40.475 47.7367 40.4 47.9242 40.425C47.9242 40.425 47.7242 39.975 47.1742 40.1125C47.1742 40.1125 47.3742 40.3625 47.3367 40.475ZM48.0367 40.375C48.0367 40.375 48.0367 40.225 48.3867 40.0875C48.3867 40.0875 48.2242 39.925 47.9742 39.95C47.7117 39.95 47.6492 40.05 47.6492 40.05C47.6492 40.05 47.9617 40.1625 48.0367 40.3625V40.375ZM48.1617 39.875C48.1617 39.875 48.3992 39.95 48.5367 40.0625C48.5367 40.0625 48.7367 39.8375 48.9117 39.7875C48.9117 39.7875 48.5742 39.6125 48.1617 39.8875V39.875Z" fill="#FFC221"/>
<path d="M36.7492 38.7875C36.7492 38.7875 37.7117 37.975 38.2492 38.075C38.7867 38.175 38.5242 38.1125 39.0992 38.0125C39.6992 37.925 40.2992 37.8625 40.5492 37.8875C40.5492 37.8875 39.8242 37.3875 38.5617 37.3875C38.5617 37.3875 37.6742 37.7 37.0617 38.1125C37.0617 38.1125 35.8617 37.45 34.6367 37.8375C34.6367 37.8375 35.9742 38.3375 36.7617 38.7875H36.7492Z" fill="#5A3719"/>
<path d="M46.9508 40.2L47.1133 40.175C47.1133 40.175 47.3758 40.5 47.1883 40.5C47.0258 40.5 47.0758 40.4625 47.0633 40.375C47.0436 40.3037 46.9993 40.2417 46.9383 40.2H46.9508ZM45.7383 40.225C45.7383 40.225 45.6383 40.35 45.8258 40.325C46.0508 40.2875 46.0133 40.325 46.2383 40.1625C46.2383 40.1625 46.4008 40 46.6758 40.1C46.6758 40.1 46.9008 40.175 47.0883 40.0875C47.2883 39.9875 47.3258 40 47.4258 40C47.5258 40.0125 47.5258 40.0375 47.6508 39.9375C47.8008 39.8375 48.0258 39.9125 48.1758 39.7875C48.3258 39.6625 48.5133 39.775 48.1758 39.5375C48.1758 39.5375 48.1008 39.4625 48.1133 39.4125C48.1133 39.4125 48.2383 39.45 48.3508 39.5375C48.4508 39.625 48.6008 39.6 48.6383 39.575C48.6383 39.575 48.6633 39.275 48.9508 39C49.2508 38.725 49.2508 38.7125 49.0758 38.7125C48.9008 38.7125 48.6133 38.6375 48.5133 38.7125C48.4133 38.7875 47.5508 39.35 47.0383 39.45C46.5383 39.55 46.0758 39.7 45.7383 40.225ZM32.2383 37.1C32.2383 37.1 33.8008 37.5 34.1383 37.6625C34.1383 37.6625 34.2258 37.4125 33.5133 37.2125C33.5133 37.2125 35.2383 37.1625 37.0383 37.9875C37.0383 37.9875 37.9133 37.2375 40.7383 37.4625C40.7383 37.4625 40.7383 37.2125 40.7633 37.025C40.7633 37.025 38.7883 36.9625 36.9758 35.8625C36.9758 35.8625 35.3383 36.6625 32.2383 37.1125V37.1ZM40.8633 37.85C40.7758 36.2625 41.3633 36.1125 41.3633 36.1125C41.3633 36.1125 41.6633 36.125 41.9633 36.175C41.9633 36.175 41.4883 36.75 41.6133 37.8875C41.6133 37.8875 41.6633 38.0625 41.2633 38.0625C40.8633 38.0625 40.8758 37.875 40.8758 37.875L40.8633 37.85Z" fill="#FFC221"/>
<path d="M41.2879 38.9C41.2879 38.9 40.9879 38.6 40.9629 38.25C40.9629 38.25 40.9629 38.1625 41.2504 38.1625C41.5504 38.175 41.5879 38.15 41.6629 38.325C41.7254 38.4875 41.9129 38.8375 41.9629 38.8875L41.2879 38.9Z" fill="#5A3719"/>
<path d="M41.9242 38.1125C41.895 37.9097 41.8825 37.7049 41.8867 37.5C41.9117 36.625 42.0492 36.7 42.1117 36.8125H42.4242C42.4242 36.8125 42.1992 35.8125 41.9242 36.4C41.7262 36.8383 41.6569 37.3238 41.7242 37.8C41.7492 38.0625 41.7742 38.225 41.8117 38.325L41.9242 38.1125Z" fill="#FFC221"/>
<path d="M45.3492 38.1125C45.3492 38.1125 45.9242 38.2125 45.0367 38.4125C45.0367 38.4125 45.0742 39.5 46.1242 38.7375C46.1242 38.7375 46.7617 38.3375 47.1867 38.175C47.1867 38.175 47.4117 38.1125 47.3867 37.9375C47.3867 37.9375 47.4117 37.7375 47.1867 37.7875C47.1867 37.7875 46.9992 37.7875 46.8742 37.75C46.8742 37.75 46.7492 37.6 46.6742 37.65C46.5867 37.7125 46.3867 37.675 46.5492 37.875C46.6992 38.05 46.7492 38 46.8242 37.95C46.8992 37.9 47.2367 37.775 46.9242 38.05C46.6117 38.325 46.3742 37.8875 46.2742 37.8L45.3492 38.1125ZM42.4117 38.2375H42.1617C42.1617 38.2375 42.0117 38.4375 41.9117 38.1125L41.8242 38.325C41.8242 38.325 42.1242 39.4875 42.4117 38.2375Z" fill="#5A3719"/>
<path d="M42.0494 36.8875C42.0494 36.8875 41.9119 37.6625 42.0869 38.1125L44.8994 38.175C44.8994 38.175 44.8619 37.6375 44.8994 36.8875H44.4994C44.4994 36.8875 44.4369 37.5125 44.4994 37.8875H44.4244C44.4244 37.8875 44.3744 37.3625 44.4244 36.8875H44.0994C44.0994 36.8875 44.0494 37.4625 44.0869 37.8875H44.0244C44.0244 37.8875 43.9744 37.3875 44.0244 36.8875H43.7119C43.7119 36.8875 43.6494 37.4 43.7119 37.8875H43.6244C43.6244 37.8875 43.5619 37.375 43.6244 36.8875H43.2619C43.2619 36.8875 43.1869 37.375 43.2619 37.8875H43.1994C43.1994 37.8875 43.1119 37.4 43.1994 36.8875H42.8369C42.8369 36.8875 42.7619 37.4375 42.8369 37.8875H42.7619C42.7619 37.8875 42.7119 37.3625 42.7744 36.8875H42.4369C42.4369 36.8875 42.3494 37.35 42.4369 37.8875H42.3494C42.3494 37.8875 42.2994 37.4875 42.3744 36.8875H42.0494ZM45.0119 38.275C45.0119 38.275 44.9494 36.9 45.1994 36.55C45.4619 36.2 45.5244 36.2625 45.9744 36.55C46.4244 36.8375 46.9994 37.15 47.0994 37.175C47.1869 37.2125 47.3244 37.25 47.3244 37.5C47.3244 37.75 47.3619 37.825 46.9744 37.5C46.9244 37.4625 46.7369 37.3 46.5994 37.25C46.2619 37.15 46.6869 37.325 46.8119 37.5125C46.9119 37.6625 47.0119 37.6375 46.7369 37.7125C46.1562 37.8821 45.5809 38.0697 45.0119 38.275Z" fill="#FFC221"/>
<path d="M46.0008 37.2875C46.0008 37.2875 45.7883 37.0375 46.0633 36.9875C46.3133 36.925 46.3383 37.3875 46.3883 37.6625C46.4258 37.95 46.0633 37.3875 46.0133 37.3L46.0008 37.2875ZM45.6258 38.5C45.6258 38.5 45.3258 38.6125 45.5258 38.7C45.7258 38.8 46.2758 38.3375 46.0883 38.375C45.8883 38.4 45.6258 38.5 45.6258 38.5ZM46.0383 38.075C46.0383 38.075 46.3008 38.05 46.2383 38.1625C46.2008 38.2875 46.1008 38.2125 46.0633 38.175C46.0133 38.1625 45.8383 38.0875 46.0383 38.075Z" fill="black"/>
<path d="M47.4624 37.7125C47.4624 37.7125 47.5249 38.2375 47.9749 38.375C47.9749 38.375 48.2499 38.4375 48.1874 38.2125L48.1124 37.9375C48.0749 37.85 47.8874 37.8 47.8624 37.7875C47.8499 37.7875 47.8249 37.725 47.9499 37.775C48.0749 37.8125 48.0874 37.825 48.0749 37.725C48.0749 37.6375 47.9999 37.675 47.8874 37.625C47.8499 37.6 47.8874 37.5625 47.9374 37.575C47.9874 37.575 48.0999 37.625 48.0999 37.45C48.0999 37.45 48.1249 37.3375 47.9874 37.3375C47.8374 37.3375 47.8499 37.2625 47.8874 37.25C47.9374 37.25 48.0874 37.35 48.1374 37.1625C48.1874 36.9875 47.9249 37.1 47.9624 37C47.9999 36.9 48.1874 37.05 48.1874 36.9375C48.2124 36.8375 48.3624 36.7875 48.0999 36.75C47.9874 36.7375 48.0999 36.675 48.2249 36.7C48.3749 36.7125 48.4624 36.55 48.5374 36.4875C48.6374 36.425 49.0999 36.15 48.4624 36.2375C47.8374 36.325 47.6499 36.6375 47.6249 36.7C47.4701 37.0135 47.4135 37.3663 47.4624 37.7125Z" fill="#FFC221"/>
<path d="M48.9246 38.125C49.0121 38.1125 49.0871 38.125 49.1121 38.175C49.2121 38.3875 48.9871 38.325 48.8496 38.475C48.7121 38.625 48.6996 38.6 48.5246 38.55C48.3371 38.4875 48.2746 38.2125 48.2746 38.2125C48.2496 38.1125 48.3246 38.1125 48.4121 38.125C48.4121 38.125 48.7246 38.1625 48.9246 38.125ZM48.2496 38.0125C48.2496 38.0125 48.2496 38.0625 48.3746 38.075C48.4621 38.075 48.7746 38.1125 48.9746 38.05C48.9746 38.05 49.0246 38.05 48.9996 37.925C48.9996 37.925 48.9996 37.8375 48.8371 37.875C48.6621 37.9 48.4246 37.875 48.3371 37.8625C48.2621 37.8375 48.2121 37.8625 48.2496 38V38.0125ZM48.2246 37.6375C48.2246 37.6375 48.2246 37.7875 48.3746 37.8125H48.8371C48.9121 37.8125 49.0246 37.775 49.0371 37.6875C49.0371 37.575 49.0746 37.5125 48.8621 37.5625C48.6496 37.6125 48.4121 37.575 48.3871 37.5625C48.3621 37.5625 48.2246 37.525 48.2246 37.625V37.6375ZM48.2996 37.2875C48.2996 37.2875 48.2496 37.375 48.2621 37.4375C48.2621 37.5125 48.3871 37.55 48.5996 37.55C48.8121 37.55 49.0121 37.5125 49.0246 37.4375C49.0371 37.3625 49.0871 37.275 48.9246 37.3125C48.7673 37.3377 48.6069 37.3377 48.4496 37.3125C48.3621 37.275 48.2996 37.2625 48.2996 37.2875Z" fill="#FFC221"/>
<path d="M56.2758 38.1375C56.2758 38.1375 56.2758 38.275 56.3883 38.4375L50.3633 38.2625C50.3633 38.2625 50.4383 38.2125 50.4633 37.975L56.2758 38.1375Z" fill="#5A3719"/>
<path d="M48.3504 37.05C48.3504 37.05 48.3004 37.2 48.4004 37.225C48.5004 37.2625 48.6879 37.2875 48.9379 37.25C48.9379 37.25 49.0629 37.25 49.1004 37.125C49.1504 37 49.1379 37.0625 48.8004 37C48.8004 37 48.6879 36.9625 49.0004 36.9625C49.0004 36.9625 49.1879 36.9625 49.2004 36.9375C49.2379 36.9125 49.4754 36.7125 49.1629 36.7375C48.8629 36.7375 49.0129 36.675 49.1629 36.675C49.3254 36.675 49.3629 36.7125 49.4129 36.675C49.4629 36.6375 49.4129 36.65 49.3379 36.5625C49.2629 36.475 49.3129 36.5 49.3754 36.5625C49.4379 36.6 49.4754 36.6125 49.5379 36.5625C49.6129 36.4875 49.4879 36.4 49.5379 36.4125C49.5879 36.4125 49.6254 36.525 49.8129 36.4375C50.0254 36.325 50.2879 36.375 50.3629 36.4375C50.4254 36.4875 50.6379 36.5625 50.7629 36.4375C50.8879 36.3125 50.6129 36.1875 50.7254 36.1875C50.8504 36.1625 50.9254 36.2125 50.9754 36.1125C51.0254 36.0125 50.7879 35.9375 51.0129 35.8625C51.2254 35.8125 51.0379 35.2 50.9754 35.15C50.9754 35.15 50.7254 35.2875 50.4629 35.7125C50.1879 36.15 50.0254 36.4125 49.6629 36.275C49.1629 36.075 48.8754 36.3625 48.7879 36.4C48.6629 36.4875 49.0629 36.525 48.8254 36.525C48.6004 36.525 48.6004 36.55 48.5754 36.5875C48.5629 36.6125 48.5754 36.65 48.6254 36.6625C48.6629 36.6625 48.7504 36.7375 48.6129 36.7375C48.4629 36.7375 48.3629 36.7125 48.4129 36.8625C48.4129 36.8625 48.4129 36.8875 48.4879 36.9C48.5754 36.9 48.6129 37 48.4504 37C48.3504 37 48.3504 37.0375 48.3504 37.05ZM48.9004 38.55C48.9004 38.55 48.8004 38.625 48.9379 38.6375C49.0879 38.6375 49.1629 38.675 49.2129 38.6C49.2629 38.525 49.4629 38.55 49.3379 38.4375C49.1879 38.325 49.1004 38.3875 48.9004 38.5625V38.55Z" fill="#FFC221"/>
<path d="M49.5243 36.7375C49.5243 36.7375 50.0243 36.2625 50.4368 36.5875L50.9118 36.9625C50.9118 36.9625 50.9618 37 50.8493 37.1C50.7243 37.2125 50.8493 37.2125 50.9743 37.1375C51.0993 37.075 51.0993 37.1375 51.1618 37.2125C51.2243 37.275 51.3118 37.3125 51.1118 37.3125H50.4993C50.4993 37.3125 50.2243 37.3375 50.3743 37.2125C50.4993 37.1 50.4743 36.9625 50.4118 36.9625C50.3368 36.9625 50.4118 37.0375 50.3618 37.0875C50.3118 37.1375 50.2243 37.1875 50.1118 37.1875C49.9993 37.1875 49.9368 37.2625 50.0868 37.3125C50.2493 37.375 50.0743 37.4125 49.9868 37.4125C49.8993 37.4125 49.5243 37.4375 49.9118 37.4875C50.3118 37.5375 49.8743 37.525 50.1618 37.6875C50.4993 37.875 50.2618 38.2625 50.1368 38.3C50.1368 38.3 50.0118 38.375 50.1743 38.35C50.3493 38.325 50.4368 38.3125 50.3118 38.4C50.1993 38.5 49.9618 38.7875 49.6368 38.5625C49.6368 38.5625 49.4743 38.5 49.7493 38.475C50.0243 38.475 49.5243 38.4 49.4368 38.35C49.3618 38.3 49.0618 37.975 49.2493 38.0125C49.4493 38.05 49.3743 37.9375 49.2493 37.9C49.1368 37.8625 49.1243 37.6875 49.2493 37.7125C49.3743 37.7625 49.5243 37.8375 49.6368 37.825C49.7493 37.825 49.7118 37.775 49.4868 37.7125C49.2618 37.6375 49.1743 37.625 49.2243 37.4375C49.2743 37.25 49.5243 37.5125 49.4743 37.375C49.4118 37.225 49.1868 37.3 49.2993 37.125C49.4118 36.95 49.4493 37.0125 49.4993 37.0375C49.5493 37.05 49.6243 37.0375 49.4993 36.9375C49.3868 36.8625 49.4993 36.7625 49.5243 36.7375Z" fill="#FFC221"/>
<path d="M49.875 36.875C49.875 36.875 49.875 36.8125 49.975 36.825C50.0625 36.825 50.0375 36.7875 50.0625 36.7625C50.0875 36.7625 50.3125 36.8375 50.1 36.9125C50.025 36.9375 49.9 36.9125 49.8875 36.875H49.875Z" fill="black"/>
<path d="M50.3748 37.4C50.3748 37.4 50.1998 37.4875 50.3498 37.6625C50.4748 37.825 50.4748 37.875 50.4748 37.975C50.4623 38.075 56.2748 38.1375 56.2748 38.1375C56.2748 38.1375 56.2623 37.7625 56.4998 37.55L50.3748 37.4Z" fill="#FFC221"/>
<path d="M56.3633 38.0375C56.3633 38.0375 56.3883 37.7125 56.5633 37.6125C56.6633 37.55 56.7883 37.5875 56.8383 37.8375C56.9258 38.2 56.6133 38.5125 56.4758 38.375C56.3508 38.25 56.3758 38.0375 56.3758 38.0375H56.3633Z" fill="#5A3719"/>
<path d="M49.7004 39.3875C49.7004 39.3875 50.0879 39.05 50.1504 38.9125C50.1504 38.9125 51.2004 39.6625 51.1379 38.975C51.1379 38.975 51.1379 38.7875 51.1629 38.6125C51.1629 38.6125 51.5379 38.6625 51.6004 38.3625L50.6254 38.325C50.6254 38.325 50.5254 38.3 50.3754 38.4625C50.2254 38.625 49.9129 38.8 49.6254 38.65C49.6254 38.65 49.5004 38.55 49.3754 38.6375C49.2504 38.725 49.2504 38.7375 49.3504 38.8375C49.4504 38.9375 49.6629 39.225 49.7004 39.3875ZM51.9504 37.3375L51.3754 37.325C51.3754 37.325 51.1754 37.025 50.7629 36.7C50.7629 36.7 50.6379 36.65 50.8629 36.4625C51.1129 36.275 51.1754 36.0875 51.1754 35.9875C51.1754 35.9125 51.1754 35.7625 51.2629 35.8625C51.3379 35.975 51.9254 36.5125 52.0129 36.3625C52.1004 36.2 52.1254 36.125 52.1254 36.075C52.1504 36.025 52.1629 35.875 52.2504 36.0375C52.3379 36.1875 52.3879 36.15 52.4004 36.5375C52.4004 36.5375 52.4004 36.95 52.4754 37.0875C52.4754 37.0875 51.7254 36.85 51.9629 37.3375H51.9504ZM49.4754 36.1125C49.4754 36.1125 49.9129 36.3625 50.1254 36.0375C50.3254 35.7125 50.4754 35.6625 50.3129 35.325C50.1504 35.025 50.3129 34.875 50.4379 34.7375C50.5629 34.6125 50.6754 34.6375 50.6879 34.1125C50.7004 33.6125 51.0629 33.45 51.2129 33.2875C51.3754 33.1375 51.7629 32.9 51.1629 32.7875C50.5754 32.7 49.3754 32.3875 49.0754 31.925C48.7629 31.4625 48.6254 31.7375 48.6254 31.75C48.6254 31.775 48.5254 32.1125 48.8254 32.725C49.1254 33.3375 49.3879 33.725 49.7004 33.925C49.9879 34.1375 50.2504 34.2375 50.1004 34.65C49.9504 35.0625 49.7004 35.7875 49.4754 36.125V36.1125Z" fill="#7B3C20"/>
<path d="M51.0875 34.8125C51.0875 34.8125 51.15 35.875 51.925 36.25C51.925 36.25 52.1 35.8375 52.025 35.425C52.025 35.425 52.275 35.45 52.35 35.5625C52.35 35.5625 52.35 35.2625 52 35.15C51.625 35.0375 51.8125 34.35 51.9375 34.275C52.0625 34.2 52.025 34.05 51.9375 33.925C51.85 33.8 51.8375 33.625 52.1375 33.7C52.4375 33.775 52.3875 33.625 52.2 33.475C52.025 33.325 52.0375 33.1375 52.2875 33.1375C52.5375 33.1375 52.975 32.8875 52.7125 32.8125C52.4625 32.7375 52.375 32.65 52.7125 32.5625C53.075 32.4375 53.25 32.325 52.9875 32.3C52.7125 32.2625 52.5375 32.175 52.8 32.1375C53.05 32.0875 52.7625 31.825 52.4625 31.8125C52.15 31.8 51.525 31.9125 52.025 31.5125C52.525 31.1125 51.3125 31.4125 51.8125 31.1375C52.3125 30.8875 51.6375 30.9875 51.5375 30.9875C51.45 30.9875 51.45 30.9875 51.4875 30.8625C51.525 30.725 51.425 30.65 51.2625 30.7375C51.125 30.825 51.125 30.825 51.1375 30.6375C51.1375 30.45 50.9625 30.5875 50.85 30.6375C50.725 30.6875 50.4625 30.8875 50.3375 30.7875C50.2375 30.6625 50.175 30.55 49.8375 30.75C49.475 30.9625 49.5625 30.7875 49.575 30.6875C49.575 30.5875 49.7 30.2375 49.2375 30.625C48.775 31.0125 49.1375 30.2125 48.775 30.475C48.4 30.75 48.3625 30.8 48.3 30.6875C48.25 30.5625 48.175 30.4625 47.7625 30.725C47.35 30.975 47.6625 30.5625 47.7125 30.475C47.775 30.375 47.95 29.7875 47.5875 30.25C47.5875 30.25 47.4125 30.575 47.025 30C47.025 30 46.625 30.575 46.5125 30.3125C46.4 30.0625 46.3 30.0375 46.1625 30.2C46.0375 30.3625 46.125 30.2 46.075 30.05C46.0125 29.925 45.975 29.6625 45.2875 30.15C44.6125 30.6625 45.5375 30.3 45.0125 30.525C44.4875 30.75 43.225 31.4625 44.375 31.3C45.5375 31.1375 43.8125 31.75 44.2125 31.8625C44.6125 31.975 44.4875 32.325 46 31.9125C47.5 31.5 47.25 31.85 48.025 31.5125C48.8 31.1875 47.85 31.625 48.875 31.6125C49.9125 31.575 49.05 31.6125 49.25 31.8125C49.4625 32.025 50.325 32.525 51.125 32.625C51.95 32.7 52.15 32.4 51.925 32.75C51.675 33.1 51.6 33.2375 51.4625 33.375C51.3375 33.475 50.9375 33.7625 50.925 34.25C50.925 34.7375 50.3 34.8125 50.525 35.3625L51.0875 34.8125Z" fill="#5A3719"/>
<path d="M52.4257 36C52.4257 36 52.2382 35.8625 52.2382 35.625C52.2382 35.625 52.3632 35.65 52.4257 35.725C52.4257 35.725 52.8882 35.2 52.3132 35.0125C51.7632 34.8125 52.0382 34.3125 52.2382 34.3125C52.4257 34.3125 52.4632 34.2625 52.3007 34.0375C52.1382 33.8375 52.1507 33.8125 52.4757 33.7625C52.7757 33.7125 52.7507 33.6375 52.6007 33.5625C52.5075 33.5093 52.4231 33.4419 52.3507 33.3625C52.3507 33.3625 53.2508 32.975 52.9633 32.7875C52.6632 32.6125 52.9633 32.6625 53.2133 32.475C53.4882 32.2875 53.5257 32.25 53.5507 32.175C53.5507 32.175 53.3007 32.2 53.1007 32.175C53.1007 32.175 53.3257 32.05 53.1007 31.8625C52.8757 31.675 52.8007 31.525 52.4257 31.6125C52.0757 31.6875 52.2007 31.575 52.3257 31.425C52.4757 31.275 52.4132 31.1875 52.1508 31.15C52.1508 31.15 52.1882 31 52.3757 30.8125C52.3757 30.8125 51.8882 30.85 51.7257 30.7625C51.7257 30.7625 51.9257 30.6375 51.9257 30.4625C51.9257 30.4625 51.6757 30.5625 51.3257 30.525C51.3257 30.525 51.5382 30.35 51.5382 30.2C51.5382 30.2 50.9382 30.325 50.6632 30.5375C50.6632 30.5375 50.6132 30.5375 50.5757 30.4625C50.5257 30.4125 50.4882 30.3375 49.8382 30.5375C49.8382 30.5375 49.9132 30.25 50.0757 30.125C50.2257 30.025 50.2007 29.8 49.2007 30.425C49.2007 30.425 49.0632 30.35 48.9507 30.05C48.9507 30.05 48.7257 30.35 48.5632 30.45C48.5632 30.45 48.4132 30.5125 48.4382 30.325C48.4632 30.1125 48.3382 30.25 48.2382 30.325C48.1382 30.3625 48.0632 30.5125 48.1132 30.1125C48.1632 29.7125 47.9632 29.625 47.9632 29.625C47.9632 29.625 47.6632 30.075 47.4757 30.125C47.4757 30.125 47.1507 29.8 47.0257 29.5875C46.9132 29.3875 46.9132 29.3 46.8007 29.675C46.6757 30.05 46.5507 30.075 46.5507 30.075C46.5507 30.075 46.3382 29.9 46.3132 29.8C46.3132 29.8 46.2882 29.9125 46.2132 29.95C46.2132 29.95 46.0382 29.7375 46.0507 29.45C46.0507 29.45 44.9632 30.05 44.8257 30.4125C44.8257 30.4125 43.8007 30.35 43.3882 30.425C43.3882 30.425 43.4882 30.1 43.7632 29.925C43.7632 29.925 43.4882 29.9 43.4757 29.625C43.4757 29.625 43.6882 29.65 43.8257 29.625C43.9507 29.5875 43.6382 29.2 43.9757 29.1875C44.3132 29.1875 44.5257 29.35 44.3882 28.9C44.2257 28.45 44.2882 28.45 44.2882 28.45C44.2882 28.45 44.8882 28.8 44.9757 28.7C45.0757 28.625 44.9007 28.45 45.4257 28.525C45.9507 28.625 45.8007 28.325 46.0132 28.3C46.2132 28.3 46.3132 28.425 46.1882 27.4875C46.0632 26.55 46.8257 27.95 46.3132 26.525C46.3132 26.525 46.1882 26.0875 45.8632 25.9C45.8632 25.9 45.7882 26.2125 45.4507 25.95C45.0882 25.6625 44.4007 25.575 44.7007 25.35C44.9882 25.125 45.1257 24.85 45.0382 24.6625C45.0382 24.6625 44.6882 25.0125 44.1007 24.7625C43.6257 24.55 43.5257 24.925 43.0507 24.825C43.0507 24.825 43.0507 24.7 43.4507 24.375C43.8632 24.05 43.2257 24.475 42.9757 24.5375C42.7257 24.6 42.6507 24.5375 43.1757 24.125C43.7132 23.7125 44.7757 23 44.6257 22.3875C44.6257 22.3875 44.8757 22.7125 45.5382 22.475C46.1882 22.25 46.6882 22.1625 46.8757 21.8125C47.0757 21.4875 47.5882 21.15 47.7257 21.0625C47.8632 20.9875 48.0382 20.9375 47.8382 21.2625C47.6257 21.5875 47.3007 22.1375 46.4007 22.5125C45.4882 22.8875 45.1507 23.15 44.9757 23.3625C44.8132 23.55 43.9757 23.9875 44.5257 23.925C45.0632 23.8375 45.9882 23.925 45.5507 23.8C45.1257 23.675 44.6257 23.875 45.0257 23.5125C45.4257 23.15 45.5007 23.0375 46.0757 22.7875C46.6632 22.5375 47.3007 21.9875 47.2382 22.5875C47.1757 23.1625 46.0882 23.8 45.8257 23.9875C45.5632 24.1875 45.6632 24.1625 45.6632 24.2375C45.6632 24.3125 45.6257 24.475 45.5132 24.5375C45.4007 24.6125 45.4382 24.7 45.4632 24.8625C45.5007 25.0375 45.4382 25.1 45.5132 25.125C45.6007 25.15 45.6757 25.1625 45.7007 25.275C45.7382 25.4 45.7882 25.4125 45.9507 25.4C46.1007 25.3875 46.2007 25.4 46.2007 25.5C46.2257 25.5875 46.3757 25.7125 46.3882 25.4375C46.4007 25.15 46.5132 25.1 46.2257 25.225C45.9382 25.35 45.8757 25.3125 45.8882 25.175C45.8882 25.05 45.8507 25.075 45.7382 25.0625C45.6132 25.0625 45.5757 24.8875 45.7882 24.775C46.0007 24.6625 46.0007 24.775 46.2632 24.55C46.5257 24.325 46.5257 24.275 46.5757 24.175C46.6132 24.0625 46.2007 24.475 45.9882 24.5625C45.7882 24.6625 45.8507 24.5 45.8882 24.275C45.9132 24.05 46.4132 23.7375 46.6382 23.7375C46.8757 23.7375 47.3882 23.8625 47.1757 24.1875C46.9507 24.5 46.3132 24.875 46.5757 24.9C46.8507 24.925 46.9007 24.825 47.0632 24.95C47.2132 25.1 47.0632 25.3875 47.0007 25.5375C46.9289 25.6826 46.8266 25.8106 46.7007 25.9125C46.7007 25.9125 46.4132 25.3875 46.4257 25.8C46.4257 26.2125 46.3632 26.35 46.4257 26.3625C46.4882 26.3875 46.8007 26.6 46.9007 26.6C47.0007 26.6 46.3507 26.9 46.6257 26.925C46.9007 26.95 47.3507 26.8 47.5007 26.5125C47.5007 26.5125 46.9257 26.3875 46.7132 26.175C46.7132 26.175 47.3507 26.025 47.1757 25.4C47.1757 25.4 47.8257 25.575 47.5507 25.875C47.2632 26.1625 47.0882 26.125 47.3382 26.2C47.5882 26.275 47.6882 26.35 47.6882 26.35C47.6882 26.35 47.8632 26.4375 47.7632 26.5625C47.6632 26.7125 47.6632 26.9125 47.7632 26.9C47.8257 26.9 48.1007 26.775 47.8882 26.65C47.6382 26.5 48.1382 26.525 47.9257 26.4C47.7257 26.275 47.6632 26.2625 47.6132 26.2C47.5507 26.15 50.2382 24.575 48.8757 25.1625C48.8757 25.1625 49.1632 24.5375 49.5632 24.5375C49.9382 24.5375 49.9757 24.85 49.7632 25.1C49.5257 25.3375 49.3882 25.7125 48.8632 25.7875C48.8632 25.7875 49.6132 26.1625 48.7257 26.7625C48.7257 26.7625 48.5257 26.85 48.6007 26.9125C48.6757 26.9875 49.2007 26.6875 49.2757 26.5125C49.3477 26.3337 49.4868 26.1901 49.6632 26.1125C49.8632 26.0125 50.8632 25.3375 51.1632 24.825C51.4632 24.325 51.5382 24.3125 52.1132 23.8375C52.6882 23.3625 52.6007 23.4625 52.6757 23.35C52.7507 23.2375 52.7757 23.05 53.0507 22.9C53.3007 22.75 54.3507 22.175 54.6757 21.9375C55.0007 21.7 55.6757 21.2625 55.9507 20.9C56.2382 20.5375 57.0132 20.075 57.2007 20.15C57.4007 20.25 57.2007 20.525 56.7382 20.8625C56.2757 21.2 55.1632 22.1125 54.9757 22.2625C54.5211 22.6258 54.0158 22.9206 53.4757 23.1375C53.1257 23.1875 53.1632 23.3125 52.9507 23.55C52.7382 23.7875 52.2382 24.2625 52.0757 24.3875C51.9132 24.5375 51.5132 24.8 51.4882 25C51.4757 25.1875 51.5632 25.2125 51.2382 25.5C50.7678 25.9415 50.2324 26.3083 49.6507 26.5875C49.6507 26.5875 50.2507 26.7875 49.9007 27.2C49.5382 27.6 49.5632 27.5375 49.5382 27.575C49.5382 27.575 50.4382 27.425 49.8132 28.1375C49.8132 28.1375 49.6757 28.35 49.9632 28.1375C50.2632 27.8875 50.1382 27.5875 50.1007 27.55C50.1007 27.55 50.5883 27.2375 51.1508 27.2375C51.7008 27.2375 51.6757 27.1875 51.1757 27.05C51.1757 27.05 51.5382 26.6125 51.8257 26.8375C52.1382 27.0375 52.0382 27.175 51.7257 27.3375C51.4007 27.5125 50.9382 27.5625 50.6007 27.7625C50.6007 27.7625 51.2507 27.8875 51.6007 27.625C51.9507 27.35 51.9757 27.4875 52.0132 27.5375C52.0632 27.5875 52.1007 27.6625 51.9507 27.9C51.7882 28.125 51.7757 28.125 51.7882 28.175C51.7882 28.2375 51.7632 28.3875 51.4507 28.425C51.1507 28.4875 50.9882 28.625 51.1007 28.775C51.2007 28.925 51.2007 29.2875 50.9382 29.2625C50.6757 29.225 50.7382 29.0125 50.6382 28.925C50.5382 28.85 50.3882 28.725 49.9132 28.9625C49.4382 29.2125 49.4132 28.9125 49.4257 28.75C49.4257 28.75 49.1257 29.025 48.8632 28.7875C48.6132 28.5375 48.8382 28.4375 48.9882 28.3125C49.1382 28.1875 49.7382 27.925 49.3757 27.975C49.0007 28.0125 48.4757 28.0375 48.3632 27.775C48.2257 27.4875 48.6132 27.525 48.6882 27.55C48.7507 27.5625 48.9882 27.775 49.0132 27.5125C49.0132 27.225 49.4132 27.2 49.2757 27.1375C49.1507 27.1 48.9507 27.2625 48.9007 27.3375C48.9007 27.3375 48.6257 26.95 48.1757 27.0625C47.7257 27.2 48.3132 27.15 48.4257 27.175C48.5507 27.1875 48.4757 27.425 48.0757 27.7875C47.6757 28.1375 47.8507 28.0375 48.1507 28.0375C48.4632 28.0375 49.1882 28.0375 48.7757 28.375C48.3382 28.7375 48.1632 28.9 47.9507 28.85C47.7257 28.7875 47.9632 28.6375 48.0757 28.5625C48.1757 28.5125 48.2257 28.4 48.0132 28.4875C47.8007 28.5625 47.7382 28.575 47.5632 28.2875C47.4007 27.975 47.4632 28.075 47.5382 27.875C47.6132 27.675 47.7757 27.475 47.5757 27.55C47.3757 27.625 47.4007 27.625 47.4132 27.4C47.4257 27.175 47.1882 27.125 47.1882 27.125C47.1882 27.125 47.3007 27.35 47.2007 27.5C47.1257 27.6375 47.1132 27.6875 47.2507 27.725C47.4007 27.7625 47.5257 27.8875 47.3382 28.0125C47.1382 28.1375 47.1757 28.125 47.2882 28.2C47.4132 28.2875 47.5882 28.375 47.4007 28.5625C47.2132 28.7375 47.3632 28.6875 47.4632 28.6875C47.5632 28.6875 47.7632 28.7625 47.7632 28.9375C47.7632 29.125 47.7632 29.1625 48.0632 29C48.3632 28.825 48.9632 28.85 48.9632 29.075C48.9507 29.325 48.8757 29.3875 49.2132 29.175C49.5257 28.975 49.6632 29.3625 49.8882 29.175C50.1007 28.9875 50.2507 28.8 50.5132 29.125C50.7632 29.45 50.6757 29.5375 50.3632 29.775C50.0632 30 50.5257 29.825 50.7507 29.7C50.9757 29.575 51.6507 29.5 52.0382 29.675C52.4132 29.8375 52.5257 29.8 52.7882 29.675C53.0882 29.575 53.2257 29.55 53.6508 29.825C53.932 30.036 54.2741 30.15 54.6257 30.15C54.6257 30.15 54.1632 30.3375 53.6257 30.3625C53.1007 30.4125 52.8257 30.4875 52.7257 30.575C52.7257 30.575 53.0382 30.7875 53.1007 31.0125C53.1007 31.0125 53.4507 30.9625 53.6132 31.025C53.6132 31.025 53.5382 31.275 53.7382 31.4125C53.9632 31.55 54.1132 31.6 53.9507 31.7875C53.7882 31.975 54.2008 31.8875 53.9633 32.1375C53.7382 32.4125 53.6757 32.525 53.6632 32.75C53.6632 32.95 53.7132 32.975 53.5132 33C53.3132 33.025 53.5507 33.25 53.4507 33.5375C53.3632 33.7875 52.7882 33.7625 52.8132 34.5C52.8132 34.5 52.9757 34.15 53.3132 33.825C53.6507 33.525 53.6632 33.4875 53.6508 33.3C53.6508 33.1125 53.6382 33.15 53.8257 33.0125C53.9882 32.8625 53.7382 32.7375 53.9257 32.525C54.1007 32.325 53.9382 32.3625 54.1632 32.1625C54.3632 31.9625 53.9632 31.9375 54.1882 31.725C54.3882 31.525 53.6507 31.2625 53.8757 31.1375C54.0882 31 54.4508 30.8 53.2133 30.825C53.2133 30.825 53.5132 30.325 54.5507 30.4375C54.5507 30.4375 54.3007 30.6375 54.2632 30.825L54.4633 30.9125C54.4633 30.9125 54.4132 31.05 54.2133 31.2125C54.2133 31.2125 54.7757 31.525 54.8632 31.7125C54.8632 31.7125 54.5257 31.8125 54.4382 31.9625C54.4382 31.9625 54.5882 32.1375 54.6382 32.3375C54.6382 32.3375 54.2633 32.3 54.2133 32.5875C54.1632 32.8625 54.0507 32.675 54.0507 32.8375C54.0507 33 54.0507 33.075 53.9257 33.1C53.8007 33.125 53.9007 33.2625 53.9257 33.35C53.9382 33.45 53.9882 33.6625 53.9757 33.725C53.9757 33.725 53.7757 33.725 53.6882 33.75C53.6882 33.75 53.7508 34.1625 53.5258 34.2125C53.3007 34.275 53.6508 34.3625 53.4008 34.4C53.1632 34.4375 53.2008 34.4625 52.9008 34.9875C52.9008 34.9875 53.1508 34.85 53.4008 34.675C53.6757 34.5 53.4007 34.55 53.8257 34.1375C54.2507 33.7 54.1757 33.675 54.1382 33.4625C54.1007 33.25 54.1007 33.075 54.2507 32.8625C54.4132 32.6625 54.4507 32.425 55.0132 32.4625C55.0132 32.4625 54.8507 32.0875 54.6382 32C54.6382 32 54.9132 31.8125 55.1882 31.8C55.1882 31.8 54.9382 31.4875 54.4382 31.2125C54.4382 31.2125 54.8507 30.85 54.9507 30.6875C54.9507 30.6875 54.7632 30.725 54.6007 30.6875C54.6007 30.6875 54.6757 30.525 55.0507 30.275C55.0507 30.275 55.2632 30.4625 55.2382 30.6625C55.2382 30.6625 55.8882 30.3 56.2382 30.35C56.2382 30.35 56.4257 30.8 55.5382 31.6625C55.5382 31.6625 56.0882 31.7125 56.3257 31.6875C56.3257 31.6875 56.2008 32.1 55.5258 32.35C54.8632 32.6 55.6632 32.9 54.9882 32.85C54.3132 32.8 54.5132 33.025 54.5382 33.3625C54.5507 33.7125 54.5757 34.075 54.5632 34.1625C54.5632 34.1625 54.0257 33.9875 54.0382 34.5125C54.0382 35.0375 53.7507 35.15 53.7007 35.2C53.7007 35.2 53.5382 35.075 53.3007 34.975C53.3007 34.975 52.9632 35.6125 52.4257 35.9875V36Z" fill="#5A3719"/>
<path d="M51.6507 29.4C51.6507 29.4 51.8257 29.375 52.1507 29.575C52.4507 29.775 52.7632 29.3625 52.4257 29.2625C52.0632 29.1625 52.4257 29.025 52.7257 29.2875C53.0507 29.5375 53.1757 29.4125 53.2882 29.325C53.4132 29.2375 53.5382 29.175 53.3257 29.0375C53.1132 28.8875 53.4757 28.9625 53.6382 29.075C53.8007 29.175 53.7382 29.275 53.7132 29.3C53.6882 29.3375 53.6757 29.675 53.9882 29.3625C54.3132 29.0375 54.4757 28.725 54.4632 28.5625C54.4632 28.5625 54.6382 28.675 54.6632 28.875C54.6882 29.075 54.9382 28.775 55.0132 28.6625C55.1007 28.5625 55.2257 28.275 55.2132 28.0625C55.2132 28.0625 55.4257 28.4 55.7507 28.0625C56.0632 27.7375 55.9382 27.9375 56.3132 27.8375C56.7461 27.7204 57.1365 27.4818 57.4382 27.15C57.7007 26.825 57.7257 27.05 58.0632 26.9625C58.4007 26.875 59.0757 26.4125 59.1382 26.15C59.2007 25.9 59.1882 25.7375 59.1007 25.8375C59.0007 25.9125 59.0382 25.8375 58.9007 25.7625C58.7382 25.6625 58.5257 25.875 58.5257 25.875C58.5257 25.875 58.7382 26.0375 58.5757 26.1125C58.4132 26.175 58.2757 26.4125 57.9507 26.3125C57.6507 26.225 57.3257 26.6125 57.3257 26.6125C57.3257 26.6125 57.6007 26.825 57.2257 26.9625C56.8757 27.1125 56.9257 27.15 56.7132 27C56.7132 27 56.3257 27.4875 56.0882 27.5875C56.0882 27.5875 56.0007 27.5875 55.9382 27.4875C55.9382 27.4875 55.6882 27.775 55.5632 27.825C55.5632 27.825 55.3882 27.675 55.2507 27.625C55.2507 27.625 54.9382 28 54.6882 28.125C54.6882 28.125 54.6132 27.975 54.4507 27.875C54.4507 27.875 54.3757 28.375 53.8382 28.6625C53.8382 28.6625 53.8757 28.5375 53.6007 28.35C53.6007 28.35 52.9382 28.925 52.6882 28.9875C52.4257 29.0375 52.6507 28.8625 52.6882 28.7875C52.7257 28.7125 52.8882 28.475 52.5632 28.375C52.2382 28.275 52.3132 28.45 52.2382 28.475C52.1632 28.5125 52.1632 28.4125 51.9382 28.45C51.7382 28.475 51.7632 28.575 51.6757 28.6125C51.5757 28.6375 51.2007 28.55 51.2257 28.7875C51.2507 29.0375 51.4257 29.2125 51.1007 29.35C50.7632 29.5 51.2257 29.475 51.6507 29.4Z" fill="#7B3C20"/>
<path d="M52.9871 28.7125C52.9871 28.7125 53.0621 28.3875 52.7871 28.2375C52.7871 28.2375 54.5371 27.9625 53.2121 27.2875C53.2121 27.2875 54.7996 26.975 54.4246 26.475C54.0496 25.975 53.6746 26.0625 53.6371 26.0875C53.5871 26.0875 53.9746 25.7875 54.0746 25.8375C54.1746 25.875 55.4496 26.35 55.1121 25.9375C54.7996 25.525 54.8246 25.55 54.7746 25.425C54.7746 25.425 55.1871 25.425 55.8246 26.0375C55.8246 26.0375 55.9496 25.9125 55.9496 25.65C55.9496 25.65 56.3871 25.775 56.5371 25.9125C56.5371 25.9125 56.6121 25.7625 56.5746 25.6625C56.5746 25.6625 56.9746 25.875 57.1121 26.1C57.1121 26.1 57.2871 25.95 57.3121 25.7625C57.3121 25.7625 57.6996 25.925 57.8121 26.05C57.8121 26.05 57.9371 25.875 57.8871 25.6375C57.8871 25.6375 58.5246 25.825 58.6246 25.4375C58.6246 25.4375 59.2621 25.5625 58.8496 25.8125C58.2996 26.15 58.7871 25.7375 58.2246 26.125C57.7996 26.4375 57.5621 26.7875 57.3496 26.7125C57.1996 26.65 57.0121 27.0875 56.8121 26.8875C56.6121 26.6625 56.6121 26.7625 56.4496 26.9875C56.339 27.1528 56.2135 27.3076 56.0746 27.45C56.0746 27.45 55.9746 27.3875 55.8746 27.2875C55.8746 27.2875 55.7496 27.5 55.5996 27.6625C55.5996 27.6625 55.4746 27.4875 55.2621 27.3875C55.2621 27.3875 54.9371 27.7625 54.7496 27.8875C54.7496 27.8875 54.5496 27.7 54.3621 27.6375C54.3621 27.6375 54.3246 28.1375 53.9371 28.3875C53.9371 28.3875 53.8621 28.2375 53.5996 28.1375C53.5996 28.1375 53.4121 28.4375 52.9871 28.7V28.7125Z" fill="#5A3719"/>
<path d="M52.0623 27.9375C52.0623 27.9375 51.8498 28.1 51.9873 28.275C52.1248 28.45 52.1373 28.2375 52.3123 28.2375C52.4873 28.2125 54.6373 27.8375 52.6873 27.2625C52.6873 27.2625 52.7623 27.175 53.0998 27.1625C53.4373 27.1125 54.6623 26.7875 54.0998 26.35C53.5248 25.925 53.0373 26.5 53.5248 25.975C53.8998 25.5625 53.5998 25.3625 53.5998 25.3625L52.2248 26.2625C51.9748 26.3875 51.5998 26.675 52.0373 26.8C52.4623 26.925 52.7498 26.3375 52.7873 26.475C52.8248 26.6 51.9248 27.1 52.0623 27.3375C52.1873 27.5625 52.1623 27.7625 52.3748 27.7125C52.5998 27.675 53.1998 27.825 52.7123 27.8125C52.2248 27.7875 52.0623 27.9375 52.0623 27.9375Z" fill="#5A3719"/>
<path d="M52.8366 26.85C52.8366 26.85 52.6366 27 52.8991 26.925C53.1616 26.85 53.6866 26.7375 53.5991 26.6125C53.4866 26.4625 53.1491 26.625 52.8491 26.8625L52.8366 26.85Z" fill="black"/>
<path d="M56.2998 24.6125C56.2998 24.6125 57.2998 24.575 57.7123 24.8625C58.1248 25.1375 58.3248 25.325 58.4498 25.3625C58.4498 25.3625 58.4248 25.7375 57.7873 25.4625C57.7873 25.4625 57.8248 25.65 57.7498 25.8375C57.7498 25.8375 57.5123 25.6625 57.2498 25.6125C57.2498 25.6125 57.1873 25.75 57.1123 25.8375C57.1123 25.8375 56.8248 25.55 56.4873 25.4625L56.3873 25.6625C56.3873 25.6625 56.0373 25.45 55.7623 25.45C55.7623 25.45 55.8248 25.6625 55.7623 25.7625C55.7623 25.7625 55.0498 25.175 54.3998 25.25C54.3998 25.25 54.7123 25.7125 54.9123 25.9375C54.9123 25.9375 53.5998 25.8375 53.8248 25.125C54.0373 24.425 53.8123 24.6 54.6623 24.6125H56.2998Z" fill="#7B3C20"/>
<path d="M50.1624 26.5625C50.1624 26.5625 50.0124 26.6875 50.1624 26.7875C50.3124 26.8875 50.8249 26.5125 50.8999 26.4625C50.9749 26.4 51.1499 26.4125 50.8999 26.6125C50.6499 26.8125 50.3999 27.0125 50.2124 27.225C50.2124 27.225 51.0874 26.975 51.6499 26.5C52.2124 26 51.6249 26.325 52.5874 25.8625C53.5499 25.3875 54.0499 24.65 53.5374 24.7375C53.0249 24.8125 52.5499 25.4 52.1499 25.625C51.7499 25.85 51.5249 25.875 51.5874 25.75C51.6499 25.625 51.9374 25.6625 52.4999 25.225C53.0499 24.775 52.9249 24.825 52.9249 24.6625C52.9249 24.5 52.7249 24.1125 53.5499 23.675C54.3874 23.2375 56.9749 21.7375 57.1999 21.2C57.1999 21.2 56.4499 21.2875 55.4499 22.025C54.8974 22.485 54.2933 22.8793 53.6499 23.2C53.3749 23.3 53.3999 23.225 53.2374 23.45C52.8053 23.9016 52.3549 24.3353 51.8874 24.75C51.7124 24.875 51.6499 24.975 51.6374 25.25C51.6374 25.3875 50.5124 26.25 50.1749 26.5625H50.1624Z" fill="#5A3719"/>
<path d="M53.5882 24.5875C53.5882 24.5875 53.3757 24.6625 53.2007 24.5875C53.0132 24.4875 53.0757 24.0875 53.5257 23.85C54.0528 23.563 54.6162 23.3486 55.2007 23.2125C55.2007 23.2125 55.1382 23.7125 53.8507 24.1625C53.8507 24.1625 53.9382 24.4125 53.5882 24.5875Z" fill="#5A3719"/>
<path d="M54.0371 24.25C54.0371 24.25 54.0746 24.375 54.0371 24.4875C54.0371 24.4875 56.4121 24.7125 57.6621 23.2625C57.6621 23.2625 55.9621 23.425 55.2871 23.825C55.2871 23.825 55.7246 23.3 56.9871 22.8625C58.2496 22.425 58.7746 21.8625 58.8871 21.575C58.8871 21.575 57.2621 22.1375 56.5121 22.1375C56.5121 22.1375 56.3621 22.1375 56.2121 22.2125C56.0621 22.3 55.0496 23.0375 54.7746 23.1625C54.7746 23.1625 55.3496 23.1125 55.5496 22.9375C55.5496 22.9375 55.1496 24 54.0371 24.25Z" fill="#AA5323"/>
<path d="M49.4621 25.6125C49.4621 25.6125 49.1496 25.8375 49.2746 25.9375C49.3996 26.05 49.6246 26.0625 50.0871 25.6875C50.5621 25.275 51.6996 24.3125 50.9746 24.275C50.9746 24.275 50.0621 24.2125 50.0996 24.775C50.1246 25.3375 49.4996 25.575 49.4621 25.6125ZM47.3371 25.275C47.3371 25.275 47.9496 25.6375 47.7121 25.925C47.7121 25.925 49.5746 24.35 49.0371 24C48.5371 23.6625 48.1246 24.3125 48.2496 24.375C48.3746 24.4375 48.6371 24.325 48.5496 24.4375C48.1659 24.7452 47.7607 25.0251 47.3371 25.275ZM46.8496 24.775C46.8496 24.775 47.2621 24.9 47.2871 25.075C47.2871 25.2375 48.5121 24.2125 48.1871 23.775C48.0371 23.5875 47.3746 23.5 47.3371 23.9C47.2996 24.275 47.9496 23.85 47.7121 24.125C47.4371 24.5 46.9496 24.7125 46.8496 24.775ZM51.1996 23.9125C51.1996 23.9125 50.9496 24.1 51.1871 24.2125C51.4246 24.325 51.5621 24.15 51.6871 24.05C51.7996 23.9375 52.3746 23.5125 52.4996 23.25C52.6496 22.975 52.8371 22.8875 53.0496 22.75C53.2621 22.625 54.7371 21.875 55.6496 21.0625C56.5621 20.25 56.1746 20.4625 57.1121 19.9375C58.0496 19.4125 58.6746 18.9375 58.8746 18.3625C58.8746 18.3625 58.4371 18.5125 58.0621 18.7625C57.6746 19.0125 56.8121 19.55 56.6246 19.6375C56.4496 19.7 56.2246 19.7125 56.0871 19.85C55.9621 19.9875 55.9621 20.15 55.5121 20.525C55.0496 20.9 52.7121 22.55 52.4246 22.7875C52.0093 23.1549 51.6009 23.5299 51.1996 23.9125Z" fill="#5A3719"/>
<path d="M49.3242 24.4625C49.3242 24.4625 49.5742 24.325 50.0617 24.3625C50.5367 24.3875 52.4367 22.5375 52.9867 22.175C53.8407 21.5911 54.6745 20.9782 55.4867 20.3375C55.7367 20.1 55.7742 19.8625 55.9742 19.725C56.1742 19.6 56.3617 19.6125 56.8242 19.35C57.2867 19.0875 59.5242 17.75 59.3992 16.975C59.3992 16.975 56.0617 18.9625 55.2992 19.6125C54.2357 20.4441 53.139 21.2322 52.0117 21.975C51.6367 22.225 51.3367 22.625 50.6992 23.15C50.0617 23.65 49.4242 24.1 49.3242 24.4625Z" fill="#AA5323"/>
<path d="M48.6258 23.75C48.6258 23.75 49.2383 23.6875 49.3258 24C49.3258 24 50.6383 23.0875 50.9508 22.7125C51.2508 22.3375 50.8383 22.55 51.5883 22.0625C52.8159 21.2463 54.0206 20.3959 55.2008 19.5125C55.5508 19.2 56.2383 18.7875 56.7758 18.4125C57.3258 18.05 59.4383 17.0125 59.2008 16.1625L57.3008 17.425C56.9508 17.6625 56.8008 17.525 56.4508 17.8C56.0758 18.0875 55.3008 18.6375 55.1633 18.825C54.5539 19.3521 53.9154 19.8446 53.2508 20.3C52.6633 20.675 51.3758 21.4375 50.7383 21.9875C50.04 22.5829 49.3316 23.1663 48.6133 23.7375L48.6258 23.75Z" fill="#AA5323"/>
<path d="M46.7117 23.575C46.7117 23.575 47.0117 23.575 47.1242 23.7C47.1242 23.7 47.6867 23.1875 48.2992 23.7C48.2992 23.7 50.5492 22.1625 50.7742 21.7875C50.9992 21.4125 51.3742 21.4 52.2367 20.7625C53.1117 20.125 53.6617 19.85 54.2367 19.4125C54.8242 18.95 55.3242 18.4375 55.7367 18.1625C56.1492 17.9 57.2117 17.2 57.0367 16.6125C57.0367 16.6125 56.1742 17.0875 55.6242 17.7C55.0617 18.325 55.1242 17.8 54.5492 18.3C53.8911 18.9117 53.1607 19.4406 52.3742 19.875C51.6492 20.2375 52.0867 20.2 51.5492 20.5375C51.0367 20.875 51.0742 20.825 50.8742 20.875C50.614 20.9371 50.3787 21.0766 50.1992 21.275C49.8049 21.6113 49.3728 21.9008 48.9117 22.1375C48.1307 22.5509 47.39 23.0364 46.6992 23.5875L46.7117 23.575Z" fill="#AA5323"/>
<path d="M47.3755 22.4125C47.3755 22.4125 47.263 22.1625 47.4755 21.975C47.688 21.8 48.1005 21.325 48.1505 21.0375C48.213 20.725 48.163 20.7875 48.7755 20.525C50.5818 19.769 52.2935 18.8041 53.8755 17.65C54.1255 17.45 54.7505 17.025 54.988 16.825C54.988 16.825 55.1005 17.15 54.8255 17.3875C53.9067 18.1017 52.9468 18.7612 51.9505 19.3625C51.663 19.525 50.9505 19.8875 50.688 20.1125C50.438 20.3125 50.4755 20.375 49.3255 20.9375C48.188 21.4875 48.138 21.5625 48.163 21.6C48.2005 21.65 48.713 21.425 48.963 21.275C49.213 21.1375 50.138 20.7 50.4255 20.475C50.7005 20.25 51.1755 19.9125 51.3755 19.8C51.5755 19.7 53.2505 18.675 53.7505 18.3125C54.2255 17.9625 54.363 17.85 54.463 17.9125C54.563 17.9625 54.738 17.9625 54.5255 18.1625C54.313 18.3625 53.6255 18.9875 53.363 19.1625C53.1005 19.325 52.2755 19.8125 52.0505 19.925C51.8255 20.05 51.738 20.2625 51.6005 20.3625C51.4755 20.4625 51.1005 20.7125 50.6505 20.8125C50.2005 20.9125 50.1255 21.2625 49.8255 21.4625C49.5255 21.65 47.413 22.7875 47.3505 22.8375C47.3505 22.8375 47.4755 22.7125 47.388 22.4125H47.3755Z" fill="#AA5323"/>
<path d="M54.688 17.6625C54.688 17.6625 54.5755 17.7625 54.638 17.825C54.713 17.9125 55.013 18.1125 55.388 17.75C55.9114 17.2583 56.4714 16.807 57.063 16.4C57.363 16.2125 57.5255 16.0375 57.513 15.775C57.513 15.775 56.0005 16.5875 54.688 17.6625ZM56.7755 17.5375C56.7755 17.5375 57.0005 17.1375 57.5755 16.775C58.1505 16.4 59.013 15.875 59.113 15.75C59.113 15.75 59.313 15.975 58.8755 16.2625C58.3942 16.5652 57.9191 16.8778 57.4505 17.2C57.2497 17.3526 57.0201 17.4632 56.7755 17.525V17.5375Z" fill="#AA5323"/>
<path d="M45.1749 21.75C45.1749 21.75 44.5499 22.0875 44.7749 22.3C44.9999 22.5 45.3374 22.4375 45.4874 22.375C45.6124 22.325 45.8874 22.25 45.9249 22.25C45.9624 22.2375 46.5124 22.075 46.6624 21.8125C46.7874 21.5625 47.1624 21.2625 47.4624 21.0625C47.7624 20.85 47.8749 20.625 47.8249 20.475C47.8249 20.475 45.3249 21.65 45.1749 21.75ZM41.3999 24.675C41.3999 24.675 41.8499 24.4125 42.4624 24.575C42.4624 24.575 42.4374 24.4375 42.3374 24.35C42.3374 24.35 43.0874 24.1625 43.2499 23.825C43.4124 23.4875 43.4499 23.575 43.5874 23.475C43.7374 23.375 44.7374 22.5625 44.6249 22.3875C44.4999 22.2125 44.4874 21.9875 44.3999 21.9C44.3999 21.9 44.1999 22.1875 43.2124 22.65C42.2374 23.1375 41.1499 23.4875 40.3499 24.55C39.5624 25.625 39.6499 26.2375 40.6124 26.5125C40.6124 26.5125 41.2874 26.0875 42.9499 26.225C44.6124 26.3875 45.1749 27 45.2874 27.1125C45.3874 27.2375 45.7249 27.6375 45.3999 28.3375C45.3999 28.3375 45.7374 28.475 45.7499 28.1625C45.7874 27.8375 45.7999 27.9125 45.8749 27.95C45.9624 28.0125 46.0499 28.0125 45.9999 27.775C45.9749 27.525 45.8749 26.9875 45.6999 26.8C45.5624 26.6125 45.7374 26.7 45.8249 26.725C45.9249 26.775 46.2749 27.0625 46.0749 26.525C45.8624 26.025 45.7999 26.275 45.7874 26.2875C45.7874 26.325 45.7499 26.45 45.2874 26.1125C44.9364 25.8413 44.5379 25.6379 44.1124 25.5125C43.8124 25.4375 44.0249 25.4375 44.2124 25.375C44.3999 25.3 44.6249 25.275 44.7124 25.0625C44.7124 25.0625 44.5374 25.1125 44.2124 24.9875C43.9524 24.9111 43.6781 24.8962 43.4113 24.944C43.1445 24.9917 42.8924 25.1007 42.6749 25.2625C42.6749 25.2625 42.8374 24.6375 42.3499 24.675C41.8499 24.7125 41.5249 24.7 40.9999 25.1125C40.9999 25.1125 40.9749 24.4875 41.4624 24.1625C41.9624 23.8375 41.8874 24.0375 42.1624 23.95C42.4374 23.875 42.4624 23.6 42.3374 23.5C42.3374 23.5 42.9874 23.625 44.0624 22.725C44.0624 22.725 43.4749 23.475 42.7749 23.6375C42.7749 23.6375 42.6624 24.05 42.0249 24.1375C41.3999 24.2125 41.4124 24.5875 41.4124 24.675H41.3999Z" fill="#7B3C20"/>
<path d="M39.575 28.375C39.575 28.375 39.875 26.4875 41.65 26.35C43.175 26.225 43.675 26.425 43.975 26.525C44.275 26.625 45.0375 26.8375 44.7375 27.0875C44.45 27.325 44.2875 27.2875 44.2875 27.2875C44.2875 27.2875 44.6125 26.9125 44.3125 26.8375C44 26.7875 43.9875 26.9625 43.9375 27.1125C43.8875 27.2875 43.8875 27.4625 43.725 27.5875C43.725 27.5875 43.575 27.4125 43.35 27.5625C43.125 27.7125 43.325 27.725 43.4125 27.7C43.5 27.675 43.6125 27.625 43.5875 27.775C43.5625 27.9 43.45 28.15 43.0875 28.3375C42.7125 28.5125 42.725 28.5125 42.3 28.5875C41.8625 28.65 41.4625 28.825 40.9125 29.2875C40.35 29.775 39.75 29.6125 39.625 29.0875C39.525 28.625 39.575 28.375 39.575 28.375Z" fill="#5A3719"/>
<path d="M41.5875 28.3C41.5875 28.3 41.75 27.925 41.4625 27.7625C41.4625 27.7625 40.5375 27.925 40.25 27.65C40.25 27.65 41.25 27.5875 41.875 27.3375C42.5 27.1125 42.325 26.9375 42.1125 26.8875C41.8875 26.85 41.4875 26.95 41.45 27.1375C41.45 27.1375 41.325 26.95 41.4875 26.8C41.65 26.6625 41.8875 26.6375 42.1125 26.7C42.3375 26.7625 42.525 26.8625 43.25 26.4875C43.25 26.4875 43.675 26.5875 43.6875 26.8625C43.6875 27.15 43.6625 27.2625 43.6125 27.3C43.5875 27.35 43.5375 27.425 43.45 27.425C43.3625 27.425 43.2375 27.4 43.1375 27.5875C43.0375 27.7875 42.9625 27.9625 42.775 28.0875C42.775 28.0875 42.9875 27.475 42.45 27.3375C42.45 27.3375 42.0125 27.5875 41.675 27.6125C41.675 27.6125 42.1125 28.0125 41.575 28.3H41.5875Z" fill="black"/>
<path d="M42.5495 27.175C42.5495 27.175 42.3495 26.9625 42.612 26.925C42.887 26.925 43.237 27.1125 43.162 27.2875C43.0995 27.45 42.787 27.4375 42.5495 27.175Z" fill="#5A3719"/>
<path d="M57.6752 24.2125C57.6752 24.2125 57.1752 24.35 57.6377 24.6625C58.0877 24.9625 58.3127 25.225 58.6377 25.3C58.9752 25.3875 59.3127 25.5 59.3127 25.8375C59.3127 26.1625 59.2377 26.3 59.0627 26.525C58.8752 26.7625 59.1627 26.85 59.4002 26.725L60.0002 26.4375C60.1502 26.3375 60.4127 26.35 60.1877 26.475C59.9377 26.6 59.6877 26.675 60.0002 26.675C60.3002 26.6875 62.1627 26.725 62.5502 26.6C62.9377 26.475 63.4502 26.4375 63.4877 25.9375C63.4877 25.9375 63.5127 25.7125 63.6502 25.6125C63.8002 25.5125 63.9002 25.3 63.6877 25.4375C63.4752 25.6 63.3127 25.6625 63.2752 25.625C63.2377 25.575 63.2127 25.55 63.3752 25.475C63.5252 25.4 63.6127 25.475 63.7502 25.275C63.9002 25.05 63.8877 25.0875 63.8127 25C63.7377 24.925 63.5627 24.875 63.6502 24.775C63.7377 24.6625 63.8127 24.3625 63.4752 24.525C63.1377 24.7125 62.4627 25.175 62.1377 25.25C61.8377 25.325 61.6002 25.4125 61.1877 25.5C60.7922 25.5802 60.4124 25.7237 60.0627 25.925C59.6127 26.175 59.6502 25.775 59.7252 25.725C59.7252 25.725 59.9002 26.0375 60.3502 25.6375C60.8002 25.25 60.6502 25.6125 61.7627 25.25C62.8627 24.8875 62.6002 24.825 63.0252 24.6125C63.4752 24.3875 63.8752 24.3625 63.5752 24.0625C63.2627 23.7625 63.2377 23.7375 62.8502 24.0625C62.2273 24.5293 61.4961 24.8303 60.7252 24.9375C60.7252 24.9375 63.2252 23.8625 62.9752 23.7125C62.755 23.5665 62.5151 23.4529 62.2627 23.375C62.0877 23.325 62.0377 23.2875 61.6377 23.475C61.2377 23.65 61.1752 23.6875 61.0627 23.7C60.9377 23.7 60.6002 23.775 60.1252 24.025C59.6502 24.275 59.4002 24.375 59.0627 24.5625C59.0627 24.5625 59.2877 24.1125 60.2877 23.8125C61.2627 23.525 61.7627 23.2625 61.6627 23.2125C61.5627 23.1625 61.3002 23.1 61.1252 23.15C60.9377 23.175 61.0002 23.125 60.3752 23.375C59.7877 23.6 60.0377 23.55 59.5627 23.6625C59.0627 23.7625 58.8752 23.8625 58.6377 23.9625C58.6377 23.9625 58.7377 23.8375 59.0627 23.7125C59.2377 23.6625 58.8752 23.5875 59.3502 23.575H59.4752C59.8769 23.4892 60.2642 23.346 60.6252 23.15C60.5252 23.125 59.9502 23.0625 59.3502 23.35C58.7627 23.6125 59.0252 23.525 58.8252 23.55C58.6252 23.6 58.1752 23.875 58.0252 24C57.8752 24.125 57.6752 24.2125 57.6752 24.2125Z" fill="white"/>
<path d="M43.0123 26.9125C43.0123 26.9125 43.2498 26.9875 43.3123 27.15C43.3748 27.3125 43.5123 27.075 43.5123 27C43.5123 26.9375 43.3623 26.6 43.1123 26.75C42.8623 26.9 42.9873 26.9 43.0123 26.9125Z" fill="#5A3719"/>
<path d="M42.375 30.1375C42.375 30.1375 42.8625 29.9125 43.2875 29.9375C43.2875 29.9375 43.1125 29.35 43.4125 29.4375C43.7 29.55 43.6125 29.5125 43.675 29.5125C43.675 29.5125 43.7 29.125 43.6125 28.9625C43.6125 28.9625 43.925 29.0375 44.225 29.0375C44.225 29.0375 43.9375 28.4875 44.25 28.1C44.3076 28.2111 44.3871 28.3094 44.4838 28.3889C44.5805 28.4684 44.6923 28.5275 44.8125 28.5625V28.2375C44.8125 28.2375 45.0375 28.2125 45.225 28.3C45.4 28.4 45.55 27.3 45.0125 27.05C45.0125 27.05 44.8875 27.2625 44.3875 27.3625C43.8875 27.4625 43.8875 27.5625 43.6875 27.95C43.4875 28.3375 43.3125 28.325 42.875 28.6C42.5754 28.8287 42.3389 29.1298 42.1875 29.475C42.1875 29.475 42.4 29.725 42.375 30.1375Z" fill="#7B3C20"/>
<path d="M59.0627 23.7125C59.2377 23.6875 58.8752 23.5875 59.3502 23.575H59.4752C59.8769 23.4892 60.2642 23.346 60.6252 23.15C60.5252 23.125 59.9502 23.0625 59.3502 23.3375C58.7502 23.6125 59.0252 23.525 58.8252 23.5625C58.536 23.6628 58.2656 23.8107 58.0252 24C57.8752 24.125 57.6752 24.2125 57.6752 24.2125C57.6752 24.2125 57.1752 24.35 57.6377 24.6625C58.0877 24.9625 58.3127 25.225 58.6377 25.3C58.9752 25.3875 59.3127 25.5 59.3127 25.8375C59.3199 25.9631 59.3015 26.0888 59.2585 26.207C59.2155 26.3252 59.1489 26.4334 59.0627 26.525C58.8752 26.7625 59.1627 26.85 59.4002 26.725L60.0002 26.4375C60.1502 26.3375 60.4127 26.35 60.1752 26.475C59.9252 26.6 59.6877 26.675 60.0002 26.675C60.3002 26.6875 62.1627 26.725 62.5502 26.6C62.9377 26.475 63.4502 26.4375 63.4877 25.9375C63.4877 25.9375 63.5127 25.7125 63.6502 25.6125C63.8002 25.5125 63.9002 25.3 63.6877 25.4375C63.4752 25.6 63.3127 25.6625 63.2752 25.625C63.2377 25.575 63.2127 25.55 63.3752 25.475C63.5252 25.4 63.6127 25.475 63.7502 25.275C63.9002 25.05 63.8877 25.0875 63.8127 25C63.7627 24.9625 63.7002 24.9375 63.6752 24.8875C63.6752 24.8875 63.5502 24.7875 63.4252 24.875C63.134 25.0328 62.8229 25.1505 62.5002 25.225C62.2752 25.25 62.0252 25.35 61.6252 25.55C61.2252 25.75 60.5252 26.175 60.4127 25.775L60.0627 25.925C59.6002 26.1625 59.6377 25.825 59.7252 25.725C59.7252 25.725 59.4752 26 59.4877 25.7625C59.4877 25.5125 59.6502 25.55 59.9252 25.475C60.1877 25.3875 60.6127 25.225 60.4377 25.075C60.2627 24.9375 60.0752 25.225 59.8877 25.3125C59.6877 25.4 59.3002 25.475 59.2377 25.1875C59.1752 24.9125 59.1752 24.7125 58.6627 24.6875C58.1377 24.6625 58.1502 24.325 58.2877 24.1875C58.4502 24.05 58.5627 23.8125 59.0627 23.7125Z" fill="#999999"/>
<path d="M60.738 26.25C60.738 26.25 61.5505 25.8875 62.3005 25.7125C63.0505 25.5375 62.463 25.7375 62.338 25.775C62.213 25.8125 61.038 26.2 60.763 26.3375C60.488 26.4625 60.538 26.35 60.738 26.275V26.25ZM60.913 26.4375C60.913 26.4375 61.838 26.125 62.013 26.25C62.188 26.375 62.038 26.325 61.838 26.35C61.638 26.375 61.088 26.475 60.938 26.475C60.788 26.475 60.913 26.4375 60.913 26.4375ZM62.4005 26.1125C62.4005 26.1125 62.5755 26.075 62.588 26.15C62.6005 26.2125 62.513 26.225 62.413 26.2125C62.313 26.1875 62.238 26.1375 62.4005 26.1125Z" fill="black"/>
<path d="M38.1258 34.125C38.1258 34.125 38.0883 33.3125 38.5008 32.9C38.9133 32.4875 40.8758 30.4375 41.1758 29.8625C41.1758 29.8625 41.4258 30.0375 41.4383 30.3625C41.4383 30.3625 41.7758 29.8 42.0383 29.575C42.0383 29.575 42.2758 29.825 42.2383 30.3C42.2383 30.3 42.7133 30.05 43.4508 30.05C43.4508 30.05 43.1633 30.35 43.1633 30.55C43.1633 30.55 44.1758 30.425 44.7258 30.525C44.7258 30.525 43.3133 31.3 43.7008 31.375C44.1133 31.45 44.5133 31.375 44.5133 31.375C44.5133 31.375 44.0633 31.825 43.3508 31.9125C43.3508 31.9125 44.2633 31.9125 44.4508 32.1125C44.4508 32.1125 43.5633 32.2375 42.8508 32.7875C42.8508 32.7875 42.7758 32.75 42.7758 32.55C42.7758 32.55 42.7508 32.7375 42.5508 32.9125C42.3383 33.075 41.8633 33.4375 41.6758 33.625C41.5008 33.8 41.1758 34.1625 40.8008 34.15C40.8008 34.15 40.8758 33.8625 40.6133 33.775C40.4767 33.7292 40.3298 33.7237 40.1901 33.7591C40.0504 33.7946 39.924 33.8695 39.8258 33.975C39.8258 33.975 38.8758 34 38.5633 34.0375C38.5633 34.0375 38.7758 33.7 38.9758 33.7C39.1758 33.7 39.9758 33.825 40.0508 33.275C40.1133 32.7375 39.5383 32.875 39.7508 32.5625C39.9758 32.2375 39.9258 32.25 39.9383 32.2125C39.9383 32.2125 39.7508 32.3125 39.6508 32.6C39.5635 32.9247 39.3643 33.208 39.0883 33.4C38.8227 33.5668 38.6 33.7937 38.4383 34.0625C38.4383 34.0625 38.2633 34.0875 38.1133 34.125H38.1258Z" fill="white"/>
<path d="M39.0371 33.625C39.0371 33.625 39.0621 33.5375 39.3371 33.475C39.6246 33.425 39.6496 33.3 39.5996 33.225C39.5621 33.1875 39.3996 33.1875 39.6621 32.8625C39.6621 32.8625 39.7621 32.9 39.8246 32.975C39.8996 33.05 40.1996 33.7 39.0371 33.6375V33.625Z" fill="white"/>
<path d="M38.3758 33.0625C38.3758 33.6 39.0883 33.4 39.0883 33.4C38.8995 33.533 38.7274 33.6883 38.5758 33.8625C38.6258 33.6125 38.1758 33.5375 38.1758 33.5375C38.2168 33.3695 38.2843 33.2092 38.3758 33.0625ZM40.9508 30.1875L41.1758 29.8625C41.1758 29.8625 41.4258 30.0375 41.4383 30.3625C41.4383 30.3625 41.7758 29.8 42.0383 29.575C42.0383 29.575 42.2758 29.825 42.2383 30.3C42.2383 30.3 42.7133 30.05 43.4508 30.05C43.4508 30.05 43.1633 30.35 43.1633 30.55C43.1633 30.55 44.1758 30.425 44.7258 30.525C44.7258 30.525 43.3133 31.3 43.7008 31.375C44.1133 31.45 44.5133 31.375 44.5133 31.375C44.5133 31.375 44.0633 31.825 43.3508 31.9125C43.3508 31.9125 44.2633 31.9125 44.4508 32.1125C44.4508 32.1125 44.1758 32.15 43.8258 32.275C43.8258 32.275 43.5758 32.025 42.8133 32.075C42.8133 32.075 43.4008 31.7375 43.8758 31.625C43.8758 31.625 43.6758 31.3625 43.3383 31.6C43.3383 31.6 42.7008 31.1625 43.2383 30.7875C43.2383 30.7875 42.8633 30.7125 42.6133 30.8875C42.6133 30.8875 42.6133 30.575 42.8883 30.45C42.8883 30.45 42.1758 30.325 42.0133 30.85C42.0133 30.85 41.8633 30.6375 41.9383 30.4C41.9383 30.4 41.5008 30.65 41.3008 30.925C41.3008 30.925 41.2258 30.3875 40.9508 30.1875ZM39.5758 33.6C39.4508 33.6375 39.2633 33.65 39.0383 33.6375C39.0383 33.6375 39.0508 33.5625 39.2133 33.5125C39.2133 33.5125 39.2508 33.6 39.5633 33.6" fill="#999999"/>
<path d="M40.8758 31.575C40.8758 31.575 41.2008 31.825 41.3133 31.975C41.3133 31.975 41.6133 31.775 41.7133 31.6C41.7133 31.6 41.9633 31.75 42.0258 31.975C42.0258 31.975 42.2008 31.875 42.2258 31.725C42.2258 31.725 42.6383 31.8 42.7758 31.925C42.7758 31.925 42.8383 31.55 42.7758 31.2875C42.7758 31.2875 43.0633 31.3125 43.2383 31.3875C43.2383 31.3875 43.0758 31.125 43.9008 30.7875C43.9008 30.7875 43.2758 30.925 43.0258 31.1875C43.0258 31.1875 42.7758 31.2125 42.6508 31.1375V31.725C42.6508 31.725 42.5008 31.65 42.1883 31.575C42.1883 31.575 42.1133 31.7125 42.0633 31.75C42.0633 31.75 41.8508 31.575 41.7758 31.3875C41.7758 31.3875 41.4633 31.6625 41.3633 31.775C41.3633 31.775 41.0633 31.575 40.8633 31.575H40.8758Z" fill="black"/>
<path d="M39.0008 35.65C39.0008 35.65 39.1258 35.7125 39.4258 35.4625C39.7258 35.2125 40.5883 34.675 40.6633 34.2375C40.7508 33.8 40.3883 33.775 40.1133 33.9C39.8258 34.025 39.9508 34.275 39.9633 34.35C39.9633 34.425 39.9883 34.725 39.5258 35.15L38.9883 35.65H39.0008Z" fill="#FFC221"/>
<path d="M38.9005 35.775C38.9005 35.775 38.213 35.4875 38.8255 35.1875C39.438 34.8875 39.713 34.8 39.788 34.5375C39.863 34.2875 39.8255 34.325 39.588 34.425C39.363 34.5375 38.488 34.9375 38.363 34.5625C38.363 34.5625 38.713 34.7 39.163 34.4875C39.613 34.2625 39.988 34.2 39.7005 34.1125C39.413 34.025 38.3755 34.1375 38.213 34.1875C38.038 34.2375 38.088 34.225 38.0505 34.3875C38.0255 34.5625 37.838 34.925 37.763 35.0125C37.7005 35.125 37.513 35.5625 37.838 35.7625C38.001 35.8499 38.1828 35.8966 38.3677 35.8988C38.5527 35.901 38.7355 35.8585 38.9005 35.775Z" fill="#FFC221"/>
<path d="M38.6259 34.2875C38.6259 34.2875 38.4759 34.3125 38.5009 34.375C38.5384 34.425 38.5759 34.425 38.6259 34.425C38.6884 34.425 38.7759 34.3875 38.7884 34.3625C38.7884 34.3125 38.6884 34.2625 38.6384 34.2875H38.6259Z" fill="black"/>
<path d="M38.8498 35.625C38.8498 35.625 38.5373 35.475 38.8998 35.275C39.2748 35.075 39.6498 34.875 39.7123 34.8C39.7123 34.8 39.5373 35.05 38.8623 35.625H38.8498Z" fill="white"/>
</g>
<defs>
<clipPath id="clip0_10660_6527">
<rect width="64" height="64" rx="32" fill="white"/>
</clipPath>
</defs>
</svg>
