<svg width="64" height="64" viewBox="0 0 64 64" fill="none" xmlns="http://www.w3.org/2000/svg">
<g clip-path="url(#clip0_10660_6599)">
<path d="M0 0H64V64H0V0Z" fill="#D0103A"/>
<path d="M0 0H43.525V64H0V0Z" fill="#FEDF00"/>
<path d="M0 0H20.475V64H0V0Z" fill="#0018A8"/>
<path d="M30.0379 21.6625C30.8129 21.6625 31.1254 22.325 31.9004 22.325C32.3754 22.325 32.6504 22.175 33.0629 21.9375C33.3629 21.775 33.5379 21.6875 33.8754 21.6875C34.2129 21.6875 34.4254 21.7875 34.6004 22.075C34.7114 22.2815 34.7551 22.5175 34.7254 22.75C34.6689 23.038 34.5808 23.3188 34.4629 23.5875C34.4004 23.7375 34.3379 23.8375 34.3379 24C34.3379 24.4125 34.8879 24.55 35.2629 24.5625C35.3504 24.5625 36.0504 24.5625 36.4754 24.1375C36.2379 24.1375 35.9754 23.95 35.9754 23.7125C35.9754 23.4625 36.1629 23.275 36.4129 23.2C36.4629 23.1875 36.5379 23.225 36.5879 23.2C36.6504 23.175 36.6129 23.1 36.6754 23.0625C36.8004 22.9625 36.8754 22.9 37.0379 22.9C37.1275 22.8943 37.2162 22.9209 37.2879 22.975C37.3254 23 37.3504 23.05 37.4004 23.05C37.5254 23.05 37.5754 22.975 37.6879 22.975C37.7754 22.975 37.8379 22.975 37.9129 23.025C37.9879 23.0625 37.9879 23.175 38.0629 23.175C38.1004 23.175 38.3004 23.1 38.4129 23.1C38.6254 23.1 38.7504 23.175 38.8879 23.35C38.9254 23.3875 38.9504 23.475 38.9879 23.475C39.0872 23.4826 39.1832 23.5137 39.268 23.5659C39.3528 23.6181 39.4239 23.6898 39.4754 23.775C39.5004 23.8125 39.5379 23.9125 39.5879 23.9375C39.6379 23.95 39.6754 23.95 39.7504 24C39.8347 24.0513 39.9051 24.1227 39.9552 24.2077C40.0054 24.2928 40.0338 24.3889 40.0379 24.4875C40.0379 24.55 40.0004 24.6375 39.9879 24.7C39.8004 25.35 39.3504 25.575 38.9004 26.125C38.7004 26.375 38.5504 26.5625 38.5504 26.875C38.5504 26.95 38.6504 27.0875 38.6754 27.15C38.6629 27 38.7254 26.825 38.8754 26.8125C39.0879 26.8125 39.2504 26.9625 39.2754 27.1625C39.2754 27.2125 39.2754 27.3 39.2504 27.35C39.3629 27.275 39.5004 27.225 39.6504 27.2125C39.7128 27.2078 39.7755 27.2078 39.8379 27.2125C40.1779 27.2374 40.5015 27.3686 40.7629 27.5875C41.0035 27.7935 41.1948 28.0511 41.3225 28.341C41.4501 28.6309 41.5109 28.9459 41.5004 29.2625C41.4129 29.8 41.4629 30.75 40.1254 31.1375C40.3754 31.2375 40.5379 31.425 40.5379 31.65C40.5379 31.9 40.3504 32.125 40.1004 32.125C40.0355 32.1295 39.9704 32.1196 39.9099 32.0958C39.8493 32.072 39.7948 32.035 39.7504 31.9875C39.4754 32.2625 39.4129 32.55 39.4129 32.95C39.4129 33.1875 39.4629 33.325 39.5629 33.5375C39.634 33.7454 39.7643 33.9279 39.9379 34.0625C40.0379 33.9125 40.1379 33.8125 40.3129 33.8125C40.5004 33.8125 40.6504 33.8625 40.7254 34.025C40.7379 34.0625 40.7254 34.1125 40.7504 34.15C40.7754 34.2125 40.8379 34.225 40.8754 34.2875C40.9129 34.3875 40.8754 34.4625 40.9129 34.5625C40.9379 34.625 41.0004 34.6375 41.0379 34.6875C41.0754 34.8 41.0879 34.8625 41.0879 34.975C41.0879 35.275 40.8129 35.475 40.5129 35.475C40.4129 35.475 40.3629 35.45 40.2754 35.4625C40.4504 35.625 40.5754 35.7125 40.7129 35.9125C40.9121 36.2164 41.0125 36.5744 41.0004 36.9375C41.0004 37.3875 40.9254 37.6625 40.7254 38.0625C40.5762 38.4058 40.3337 38.7003 40.0254 38.9125C39.5523 39.2505 39.0024 39.4653 38.4254 39.5375C38.0004 39.625 37.7629 39.6625 37.3254 39.6875L35.9129 39.7625C35.2004 39.8125 34.7004 39.9125 34.1879 40.425C34.4379 40.6 34.6004 40.775 34.6004 41.075C34.6004 41.375 34.4129 41.6 34.1129 41.7C34.0504 41.7125 33.9879 41.7 33.9379 41.725C33.8629 41.7625 33.8629 41.85 33.7879 41.9C33.6767 41.9723 33.5453 42.0073 33.4129 42C33.1379 42 32.9629 41.9375 32.7629 41.75C32.5504 41.925 32.4754 42.0875 32.2254 42.2375C32.1379 42.275 32.1004 42.3375 32.0129 42.3375C31.8629 42.3375 31.7879 42.25 31.6754 42.1625C31.5077 42.0456 31.3564 41.9069 31.2254 41.75C31.0004 41.8875 30.8629 42 30.6004 42C30.4626 42.0046 30.3269 41.9652 30.2129 41.8875C30.1379 41.85 30.1254 41.775 30.0504 41.7375C29.9754 41.6875 29.9254 41.7125 29.8379 41.675C29.5379 41.55 29.3379 41.325 29.3379 40.9875C29.3379 40.7 29.5254 40.5125 29.7879 40.4C29.2879 39.9 28.7879 39.8125 28.0879 39.775C27.5379 39.725 27.2129 39.725 26.6754 39.6875C26.2504 39.6625 26.0004 39.6125 25.5754 39.55C25.2504 39.5 25.0629 39.475 24.7629 39.3375C23.7379 38.8625 23.0879 38.2125 22.9504 37.0875V36.8375C22.9504 36.25 23.1754 35.9 23.5754 35.4875C23.4754 35.4625 23.4129 35.4875 23.3004 35.4625C23.0504 35.3625 22.8629 35.1875 22.8629 34.9125C22.8629 34.8125 22.8629 34.7375 22.9129 34.6625C22.9504 34.5875 23.0129 34.575 23.0379 34.5125C23.0504 34.4125 23.0379 34.35 23.0754 34.2625C23.1004 34.2 23.1504 34.2 23.1754 34.1375C23.2629 33.95 23.3754 33.8 23.5879 33.8C23.7629 33.8 23.8754 33.9 23.9629 34.05C24.1379 33.9625 24.1879 33.8375 24.2879 33.675C24.4504 33.4 24.5129 33.2125 24.5129 32.9C24.5215 32.7126 24.4918 32.5254 24.4254 32.35C24.3754 32.2 24.3629 32.1 24.2504 31.975C24.2071 32.0248 24.1532 32.0641 24.0926 32.0901C24.032 32.1161 23.9663 32.128 23.9004 32.125C23.6129 32.125 23.4004 31.875 23.4004 31.5875C23.4004 31.375 23.5004 31.2125 23.7004 31.125C23.5379 31 23.4004 30.975 23.2379 30.875C22.9754 30.7 22.8754 30.5375 22.7129 30.275C22.5879 30.1 22.5629 29.9875 22.5129 29.8C22.4401 29.5996 22.4021 29.3882 22.4004 29.175V29.0125C22.4754 28.525 22.5629 28.2125 22.8754 27.825C23.0179 27.6121 23.2171 27.4433 23.4504 27.3375C23.6997 27.2055 23.982 27.149 24.2629 27.175C24.3879 27.2 24.4504 27.2 24.5504 27.2625C24.5879 27.2875 24.6629 27.35 24.6629 27.3L24.6379 27.175C24.6379 26.9625 24.7879 26.775 24.9879 26.775C25.1379 26.775 25.2004 26.9 25.2754 27.025C25.3254 26.95 25.3504 26.9 25.3504 26.8125C25.3504 26.4625 25.1629 26.2875 24.9504 26.025C24.4879 25.4375 23.9004 25.1625 23.9004 24.425C23.9004 24.2 24.0129 24.05 24.2004 23.925C24.2504 23.9 24.3254 23.925 24.3879 23.9C24.4254 23.8625 24.4254 23.8125 24.4504 23.7625C24.4912 23.6965 24.5468 23.6408 24.6129 23.6C24.7129 23.5 24.8129 23.5375 24.9254 23.45C24.9879 23.4125 25.0004 23.3625 25.0504 23.3C25.1754 23.15 25.3004 23.075 25.5004 23.075C25.6004 23.075 25.6629 23.075 25.7504 23.1125C25.7879 23.1125 25.8504 23.175 25.8629 23.1625C25.8754 23.1375 25.9379 23.075 26.0004 23.0375C26.0879 23 26.1254 22.9875 26.2254 22.9875C26.3379 22.9875 26.4004 23.05 26.5129 23.05C26.5629 23.05 26.5629 23.0125 26.6004 22.9875C26.7004 22.925 26.7504 22.8875 26.8754 22.8875C27.0004 22.8875 27.0504 22.925 27.1504 22.9875C27.2379 23.0375 27.2504 23.1125 27.3504 23.175L27.5004 23.2125C27.7504 23.2875 27.9504 23.4625 27.9504 23.7375C27.9504 23.8875 27.9254 23.9875 27.8129 24.0875C27.7254 24.1625 27.6379 24.15 27.5254 24.1875C27.8434 24.4408 28.2448 24.5657 28.6504 24.5375C29.0879 24.5375 29.6004 24.375 29.6004 23.95C29.6004 23.75 29.4879 23.65 29.4129 23.475C29.274 23.2087 29.2011 22.9129 29.2004 22.6125C29.2004 22.3375 29.2254 22.175 29.3879 21.95C29.5504 21.7125 29.7629 21.6625 30.0379 21.6625Z" fill="#C7B37F"/>
<path d="M27.2383 23.9C27.2633 24.0125 27.3508 24.1 27.4883 24.15C27.5574 24.1647 27.6293 24.1597 27.6956 24.1353C27.762 24.111 27.8201 24.0684 27.8633 24.0125C27.9633 23.8875 27.9508 23.725 27.9258 23.6C27.8919 23.5089 27.8308 23.4303 27.7508 23.375L27.2383 23.9Z" stroke="#703D29" stroke-width="0.0625" stroke-linejoin="round"/>
<path d="M40.0998 31.6125C39.9748 31.325 39.6748 31.45 39.6498 31.6125C39.6123 31.9875 39.9373 32.0875 40.1623 32.025C40.2748 32 40.3623 31.925 40.4123 31.8375C40.4748 31.7375 40.4873 31.5875 40.4498 31.4625C40.431 31.4034 40.4013 31.3483 40.3623 31.3C40.3284 31.2512 40.2861 31.2089 40.2373 31.175C40.1498 31.125 40.0498 31.1125 39.8998 31.1125C39.3498 31.1125 38.8623 31.775 38.6998 32.4625C38.6093 32.8566 38.6008 33.265 38.6748 33.6625C38.7586 34.0861 38.9626 34.4766 39.2623 34.7875C39.5414 35.0573 39.8795 35.2585 40.2498 35.375C40.3873 35.4125 40.5248 35.4125 40.6373 35.375C40.9748 35.3125 41.1248 35 40.9623 34.6875C40.8248 34.4375 40.4248 34.2875 40.2373 34.6125C40.2065 34.6613 40.1893 34.7173 40.1873 34.775C40.1873 34.8625 40.2248 34.9625 40.2873 35C40.4373 35.1 40.6623 35.075 40.6623 34.8125" stroke="#703D29" stroke-width="0.0625" stroke-linecap="round"/>
<path d="M38.3754 35.4C38.5459 35.2018 38.7802 35.0692 39.0379 35.025C39.3379 35 39.6004 35.0875 39.8629 35.225C40.186 35.3757 40.459 35.6161 40.6496 35.9174C40.8402 36.2187 40.9402 36.5685 40.9379 36.925C40.9379 37.3 40.8379 37.675 40.7504 37.875C40.6629 38.0375 40.4379 38.7625 39.2129 39.275C38.3832 39.5313 37.5188 39.6578 36.6504 39.65C35.6004 39.7 34.6504 39.7375 34.0879 40.425" stroke="#703D29" stroke-width="0.0875"/>
<path d="M38.6385 36.575C38.6135 36.4625 38.6385 36.3625 38.726 36.2375C38.851 36.075 39.0885 36.025 39.3135 36.15C39.3885 36.1875 39.476 36.25 39.5635 36.3625L39.6885 36.5125L39.7885 36.7625C40.0385 37.4625 39.6385 38.225 39.1385 38.525C38.7385 38.775 38.2635 38.875 37.701 38.9375L37.0385 38.975H36.0885C35.847 38.9625 35.605 38.9625 35.3635 38.975L34.6135 39.05L34.0635 39.15L33.876 39.2L33.751 39.2375C33.4134 39.3322 33.0898 39.4709 32.7885 39.65C32.701 39.7 32.601 39.7625 32.5385 39.825L32.401 39.95C32.2135 40.125 32.0135 40.325 31.9635 40.6125V40.775C31.9635 40.95 32.101 41.2 32.501 41.275M33.051 24.2625C33.126 24.4125 33.176 24.5125 33.126 24.65C33.076 24.825 32.951 24.9375 32.776 24.9375C32.376 24.9375 32.151 24.4625 32.326 24.1625C32.6385 23.625 33.251 23.925 33.826 24.1875C33.7885 24.0625 33.7385 24.0125 33.751 23.8375C33.751 23.425 34.076 23.2375 34.201 22.8375C34.276 22.6125 34.301 22.4125 34.126 22.25C33.9885 22.1 33.8135 22.1125 33.626 22.1875C33.2385 22.3375 32.776 22.7625 31.9635 22.775C31.151 22.775 30.676 22.3375 30.2885 22.1875C30.101 22.1125 29.926 22.1 29.7885 22.25C29.6135 22.4125 29.6385 22.625 29.7135 22.85C29.8385 23.225 30.151 23.425 30.1635 23.85C30.1635 24.0125 30.126 24.05 30.0885 24.1875C30.6635 23.9375 31.301 23.6 31.5885 24.1625C31.751 24.475 31.5385 24.9375 31.1385 24.9375C30.9635 24.9375 30.8385 24.8125 30.7885 24.65C30.7385 24.5125 30.7885 24.375 30.8635 24.2625" stroke="#703D29" stroke-width="0.075"/>
<path d="M31.4633 23.9875C31.6133 24.1125 31.7133 24.25 31.7008 24.4875C31.6883 24.7375 31.6133 24.8 31.4258 24.9375M31.6633 24.5625C31.6508 24.7125 31.5883 24.8125 31.4383 24.875" stroke="#703D29" stroke-width="0.075" stroke-linecap="round"/>
<path d="M27.675 23.325L27.7375 23.375L27.8125 23.4625L27.8625 23.5625L27.8875 23.6375V23.825L27.8625 23.9125L27.8125 23.975L27.7625 24.0375L27.675 24.075L27.5625 24.1L27.475 24.125L27.375 24.075L27.275 24.0125L27.225 23.925L27.1875 23.825V23.7875L27.675 23.325Z" fill="#C7B37F"/>
<path d="M27.5243 23.7125C27.4868 23.55 27.2993 23.5125 27.2243 23.6125C27.0993 23.7625 27.1868 24.0125 27.4243 24.0875C27.4934 24.1022 27.5653 24.0972 27.6316 24.0728C27.698 24.0485 27.7561 24.0059 27.7993 23.95C27.8993 23.825 27.8993 23.6625 27.8618 23.55C27.8368 23.4625 27.7743 23.4 27.6868 23.3375C27.4118 23.125 26.9743 23.175 26.8368 23.525C26.6493 23.975 27.0493 24.3125 27.4243 24.5625C27.8993 24.875 28.4243 24.9375 28.8368 24.9375C29.7493 24.925 30.4493 24.4875 30.8993 24.2375C30.9993 24.175 31.1118 24.1875 31.1618 24.2625C31.2243 24.3375 31.2243 24.45 31.1368 24.5375" stroke="#703D29" stroke-width="0.0625" stroke-linecap="round"/>
<path d="M24.7992 36.125L24.5992 36.1875L24.3867 36.35L24.2992 36.475L24.1867 36.675L24.1367 36.825L24.0992 37.0125L24.0742 37.1375M25.9742 36.1375V36.3125L25.9367 36.4375L25.8492 36.65L25.7117 36.8375L25.5617 36.9625L25.4367 37.0125L25.2867 37.05" stroke="#703D29" stroke-width="0.0625"/>
<path d="M31.975 40.9125C31.9375 41.075 31.7875 41.2625 31.4375 41.3375H31.375" stroke="#703D29" stroke-width="0.075"/>
<path d="M40.4254 35.625C40.6072 35.7991 40.751 36.0089 40.8478 36.2412C40.9446 36.4735 40.9923 36.7233 40.9879 36.975C40.9754 37.325 40.8879 37.725 40.7879 37.9125C40.7004 38.075 40.4754 38.8125 39.2504 39.3125C38.4212 39.5725 37.5569 39.7032 36.6879 39.7C35.6629 39.75 34.7129 39.7875 34.1504 40.45" stroke="#703D29" stroke-width="0.0875"/>
<path d="M38.75 36.2875C38.825 36.175 39.1 36.05 39.325 36.1625C39.4258 36.2098 39.5121 36.2832 39.575 36.375" stroke="#703D29" stroke-width="0.0625"/>
<path d="M40.1621 35.375L40.2996 35.425C40.4301 35.4639 40.5691 35.4639 40.6996 35.425C40.9746 35.35 41.1621 35.0875 41.0121 34.7375C40.9723 34.6533 40.9121 34.5802 40.8371 34.525" stroke="#703D29" stroke-width="0.0875"/>
<path d="M24.0246 27.975C23.8371 28.1 23.6996 28.125 23.5496 28.2875C23.4324 28.5042 23.3441 28.7353 23.2871 28.975M27.8996 23.8C27.8996 23.975 27.7746 24.0875 27.5996 24.125" stroke="#703D29" stroke-width="0.0625" stroke-linecap="round"/>
<path d="M39.7129 27.2C40.1879 27.2 41.5629 27.5625 41.5754 29.175C41.5754 30.775 40.5754 31.0375 40.1879 31.1375" stroke="#703D29" stroke-width="0.0625"/>
<path d="M39.8375 27.2C40.65 27.1625 41.4875 27.7625 41.525 29.2625C41.5625 30.4375 40.725 30.9625 40.325 31.075M39.375 32.8375L39.4 32.6875L39.45 32.4375L39.525 32.225L39.6125 32.0625L39.7125 31.9375M40.5 31.6L40.4875 31.75L40.4375 31.8625L40.375 31.9625L40.2875 32.025L40.1625 32.0625H39.975M38.55 26.775L38.5875 26.6125L38.6625 26.45L38.75 26.3L38.925 26.0875L39.05 25.9375L39.2625 25.725L39.45 25.5375L39.575 25.4L39.725 25.2125L39.85 25L39.9375 24.8375L39.9875 24.6125L40 24.35L39.975 24.2625M38.75 37.0875L38.9125 37.05L39.0375 36.9875L39.1 36.925L39.15 36.8375L39.175 36.7125V36.6375M23.375 35.4125L23.4875 35.425H23.6375L23.8 35.3625M24.3 31.7L24.275 31.85L24.25 31.9L24.2 31.9625L24.1375 32.0125L24.0625 32.05L23.9625 32.0625H23.9M24.9 30.5L24.8625 30.725L24.8125 30.8125L24.725 30.9375L24.6 31.025L24.4875 31.0875L24.2625 31.1375M25.7875 27.1625L25.75 27.2875L25.6875 27.3875L25.6125 27.5L25.5125 27.5875L25.3875 27.65L25.2875 27.675H25.2125M25.25 27.05V27.15" stroke="#703D29" stroke-width="0.0625"/>
<path d="M25.4246 30.4125C25.3656 30.4654 25.298 30.5077 25.2246 30.5375M40.2746 35L40.3246 35.025C40.4496 35.1125 40.7371 35 40.6621 34.775" stroke="#703D29" stroke-width="0.0625" stroke-linecap="round"/>
<path d="M39.7746 31.9625C39.8746 32.0875 40.0746 32.125 40.2246 32.0875C40.3371 32.0625 40.4121 31.9875 40.4746 31.8875C40.5246 31.7875 40.5496 31.65 40.5121 31.5125C40.4933 31.4534 40.4636 31.3983 40.4246 31.35C40.3857 31.2978 40.3393 31.2515 40.2871 31.2125L40.2496 31.1875M40.8996 34.5875C40.9021 34.5626 40.9021 34.5374 40.8996 34.5125C40.8996 34.4 40.8496 34.3 40.7746 34.225C40.7496 34.2 40.7246 34.1625 40.6871 34.15M40.7371 34.1875C40.7371 34 40.5746 33.875 40.3871 33.8375M39.9746 34.125C39.9246 34.0875 39.8746 34.0625 39.8496 34.0125C39.5752 33.7261 39.4189 33.3466 39.4121 32.95C39.4121 32.5375 39.5746 32.1125 39.7621 31.95M34.1246 40.4125L34.3121 40.25L34.4371 40.15L34.6621 40.0125L34.8871 39.9L35.0371 39.8625L35.3496 39.8L35.7121 39.7375M32.7496 41.675C32.5601 41.9516 32.2956 42.1684 31.9871 42.3C31.6787 42.1684 31.4141 41.9516 31.2246 41.675" stroke="#703D29" stroke-width="0.0625"/>
<path d="M31.4371 41.2625C31.3996 41.4148 31.3268 41.5561 31.2246 41.675" stroke="#703D29" stroke-width="0.0625" stroke-linecap="round"/>
<path d="M31.4758 41.05L31.4258 41.275M31.2008 41.6875L31.1008 41.7875L30.9258 41.875L30.7383 41.9375M30.1758 24.1625C30.2008 24.0875 30.2258 24.025 30.2133 23.9C30.2133 23.475 29.9008 23.2875 29.7758 22.9C29.7008 22.675 29.6633 22.475 29.8383 22.3C29.9883 22.1625 30.1508 22.175 30.3383 22.2375C30.7383 22.3875 31.2008 22.825 32.0133 22.8375M32.0133 22.8375C31.2008 22.825 30.7383 22.3875 30.3508 22.2375C30.1508 22.1625 29.9758 22.1375 29.8258 22.2875C29.6508 22.45 29.7008 22.6625 29.7758 22.9125C29.9008 23.2875 30.1883 23.475 30.2008 23.9C30.2008 24.025 30.1758 24.0875 30.1508 24.15M32.0133 22.8375C32.8258 22.825 33.3008 22.3875 33.6758 22.2375C33.8633 22.175 34.0258 22.1625 34.1758 22.3C34.0258 22.1625 33.9258 22.15 33.7258 22.1875C33.5008 22.225 32.8133 22.7625 32.0133 22.8125M39.9758 34.125C39.7827 33.9814 39.6257 33.7948 39.5172 33.58C39.4087 33.3652 39.3517 33.1281 39.3508 32.8875C39.3508 32.475 39.5133 32.05 39.7133 31.8875M32.7133 41.6375C32.5271 41.9123 32.2671 42.1289 31.9633 42.2625C31.6499 42.1336 31.3807 41.9165 31.1883 41.6375" stroke="#703D29" stroke-width="0.0625"/>
<path d="M30.6621 24.375L30.8996 24.25C30.9996 24.175 31.1371 24.1875 31.1871 24.25C31.2496 24.3375 31.2621 24.4625 31.1746 24.5375" stroke="#703D29" stroke-width="0.0625" stroke-linecap="round"/>
<path d="M29.4742 24.925C30.0242 24.8125 30.4742 24.5625 30.7992 24.375M34.0367 40.8L34.1117 40.8875L34.1367 40.975C34.1617 41.125 34.0617 41.225 33.9492 41.2375C33.8771 41.2462 33.8041 41.2315 33.7411 41.1955C33.678 41.1595 33.6283 41.104 33.5992 41.0375M29.4367 24.9C29.9867 24.775 30.4367 24.5375 30.7742 24.35M40.5242 35.0375C40.4367 35.075 40.3742 35.075 40.2492 35.0125L40.0617 34.9125C39.8117 34.775 39.4992 34.5375 39.2117 34.0125C39.1386 33.87 39.0839 33.7188 39.0492 33.5625C39.0242 33.45 38.9992 33.3375 38.9992 33.225C38.9943 33.0149 39.0153 32.805 39.0617 32.6C39.119 32.2716 39.2564 31.9625 39.4617 31.7C39.5867 31.5375 39.6742 31.45 39.8992 31.45M25.5242 27.5125C25.6093 27.5817 25.6772 27.6696 25.7227 27.7693C25.7682 27.869 25.7902 27.9779 25.7867 28.0875C25.7867 28.4 25.5367 28.9 24.8867 29.0875C24.6367 29.15 24.4117 29.0875 24.2617 29" stroke="#703D29" stroke-width="0.0625"/>
<path d="M25.625 28.5625C25.75 28.6375 25.7875 28.7375 25.7875 28.8875C25.7875 28.9875 25.725 29.1375 25.6 29.2625C25.4882 29.3842 25.3532 29.4823 25.203 29.551C25.0527 29.6197 24.8902 29.6576 24.725 29.6625C24.5117 29.6681 24.3019 29.6069 24.125 29.4875C23.9378 29.361 23.8041 29.1694 23.75 28.95" stroke="#703D29" stroke-width="0.0625"/>
<path d="M25.6246 29.225C25.7496 29.35 25.7871 29.5 25.7871 29.6875C25.7871 29.9625 25.6746 30.175 25.4121 30.4C25.3577 30.4527 25.2942 30.495 25.2246 30.525M38.1746 28.325V28.6875M38.1371 28.2375V28.7375M38.1746 27.1625V27.8125M38.1371 27.025V27.9M37.9496 36.1125C37.8246 36.3625 37.7246 36.4875 37.5371 36.675C37.3683 36.8475 37.1691 36.9873 36.9496 37.0875C36.7439 37.1882 36.5251 37.2597 36.2996 37.3C36.0371 37.3625 35.8746 37.375 35.6121 37.3875C35.3621 37.3875 35.2246 37.3875 34.9746 37.3625C34.7121 37.3625 34.5621 37.3125 34.2996 37.2875C34.0871 37.275 33.9621 37.25 33.7371 37.25C33.3659 37.2411 32.9964 37.3047 32.6496 37.4375C32.3746 37.55 32.0746 37.7375 32.0121 37.8125C31.9496 37.7375 31.6371 37.55 31.3746 37.4375C31.0239 37.3031 30.65 37.2394 30.2746 37.25C30.0621 37.25 29.9371 37.275 29.7246 37.2875C29.4621 37.3125 29.3121 37.35 29.0496 37.3625C28.6072 37.4049 28.161 37.3839 27.7246 37.3C27.4621 37.2375 27.3121 37.2 27.0621 37.075C26.825 36.9641 26.6125 36.8068 26.4371 36.6125M30.6371 41.95L30.8246 41.925M33.8496 41.6875L34.0246 41.675L34.1996 41.6L34.3246 41.5375L34.4871 41.3375L34.5246 41.2625L34.5496 41.1V41.025M39.2496 27.35C39.3246 27.0875 39.2246 26.8125 38.9746 26.8125M25.7746 31.475C25.7157 31.669 25.5864 31.834 25.4121 31.9375M25.7871 27.2625C25.7575 27.3525 25.7086 27.4349 25.6438 27.504C25.5791 27.5731 25.5 27.6272 25.4121 27.6625C25.2371 27.75 25.0121 27.6625 24.9121 27.5875" stroke="#703D29" stroke-width="0.0625"/>
<path d="M24.375 28.2375C24.5375 28.3125 24.6875 28.2 24.6625 28C24.6497 27.941 24.6187 27.8875 24.5738 27.8471C24.529 27.8067 24.4725 27.7815 24.4125 27.775" stroke="#703D29" stroke-width="0.0625" stroke-linecap="round"/>
<path d="M25.0135 36.6625C25.051 36.7 25.0635 36.7375 25.101 36.7375C25.1635 36.75 25.226 36.775 25.2885 36.6875C25.376 36.575 25.326 36.4125 25.2385 36.3C25.1628 36.2245 25.0649 36.1753 24.9591 36.1596C24.8534 36.1438 24.7454 36.1624 24.651 36.2125C24.5885 36.25 24.4885 36.3 24.401 36.4125L24.2885 36.575L24.176 36.825C23.976 37.4 24.2135 38.0125 24.601 38.3875" stroke="#703D29" stroke-width="0.0625"/>
<path d="M34.0242 40.7875L34.0867 40.8625L34.1117 40.95C34.1367 41.1 34.0367 41.2 33.9117 41.2C33.7492 41.225 33.6367 41.125 33.5742 41" stroke="#703D29" stroke-width="0.0625" stroke-linecap="round"/>
<path d="M38.95 23.475C39.1183 23.5032 39.2719 23.5879 39.3855 23.7152C39.4991 23.8424 39.566 24.0046 39.575 24.175C39.575 24.625 39.425 24.7875 39.1875 25.1C38.9375 25.4375 38.125 26.0625 38.125 26.775C38.125 27.2 38.25 27.475 38.55 27.6125C38.75 27.7 38.9875 27.6125 39.0875 27.5125C39.3375 27.275 39.25 26.8625 38.9625 26.8125C38.65 26.7625 38.5875 27.275 38.9 27.2375M40.6875 34.15C40.673 34.0638 40.6288 33.9854 40.5626 33.9284C40.4964 33.8713 40.4124 33.8392 40.325 33.8375C40.2255 33.8375 40.1302 33.877 40.0598 33.9473C39.9895 34.0177 39.95 34.113 39.95 34.2125C39.95 34.3125 40 34.4 40.0625 34.4625" stroke="#703D29" stroke-width="0.0625"/>
<path d="M38.3885 27.5125C38.3035 27.5817 38.2355 27.6696 38.19 27.7693C38.1445 27.869 38.1226 27.9779 38.126 28.0875C38.126 28.4 38.376 28.9 39.026 29.0875C39.2635 29.15 39.501 29.1375 39.651 29.05M24.0385 28.025C23.8483 28.0842 23.682 28.2024 23.5635 28.3625C23.445 28.5491 23.3643 28.7572 23.326 28.975C23.3135 29.0625 23.2885 29.35 23.3385 29.6375C23.3805 29.8386 23.4612 30.0296 23.576 30.2L23.676 30.325L23.7885 30.4125M30.1885 39.6125C30.676 39.8375 31.026 39.9875 31.3385 40.475C31.4484 40.677 31.4873 40.9101 31.4487 41.1368C31.4102 41.3635 31.2965 41.5707 31.126 41.725C31.0352 41.8061 30.9276 41.866 30.8109 41.9006C30.6942 41.9352 30.5713 41.9435 30.451 41.925C30.2635 41.9 30.076 41.7625 30.051 41.675M25.401 30.425C25.5272 30.5035 25.6297 30.6147 25.698 30.7467C25.7662 30.8787 25.7974 31.0267 25.7885 31.175C25.7885 31.55 25.601 31.775 25.3885 31.9125" stroke="#703D29" stroke-width="0.0625"/>
<path d="M25.1504 31.6375C25.5629 32.15 25.7754 32.45 25.7879 33.05C25.8004 33.625 25.6129 34.0125 25.2879 34.425" stroke="#703D29" stroke-width="0.0625" stroke-linecap="round"/>
<path d="M32.9754 24.9375C33.0539 24.8835 33.1113 24.804 33.1379 24.7125C33.1879 24.5625 33.1879 24.4375 33.1004 24.325C33.2004 24.45 33.2129 24.5625 33.1879 24.7125C33.1629 24.8125 33.1004 24.8625 33.0254 24.9375M38.1754 33.5625V35.1625C38.1753 35.305 38.1627 35.4472 38.1379 35.5875M38.1379 33.4V35.375L38.0879 35.6375M38.1379 31.35V32.8M38.1754 31.4625V32.6375M38.1754 29.95V30.8375M38.1379 29.85V30.95M38.1754 29.05V29.4M38.1379 28.975V29.475M37.9629 36L37.9254 36.0625C37.8219 36.2797 37.6776 36.4749 37.5004 36.6375C37.3343 36.8042 37.1395 36.9397 36.9254 37.0375C36.7164 37.1436 36.4933 37.2194 36.2629 37.2625C36.0129 37.325 35.8504 37.3375 35.5754 37.35C35.3254 37.35 35.2004 37.35 34.9504 37.325C34.6754 37.3125 34.5379 37.275 34.2754 37.25C34.0504 37.2375 33.9254 37.2125 33.7129 37.2125C33.3375 37.2022 32.9637 37.2659 32.6129 37.4C32.3504 37.5125 32.0504 37.7 31.9879 37.775C31.7989 37.6137 31.5832 37.4868 31.3504 37.4C30.9996 37.2659 30.6258 37.2022 30.2504 37.2125C30.0379 37.2125 29.9129 37.2375 29.6879 37.25C29.4379 37.275 29.2879 37.3125 29.0129 37.325C28.5746 37.3662 28.1327 37.3452 27.7004 37.2625C27.2323 37.1786 26.7984 36.9616 26.4504 36.6375C26.3632 36.5486 26.2838 36.4524 26.2129 36.35M26.0129 36.0375C26.0313 36.1752 26.0208 36.3153 25.982 36.4487C25.9433 36.5821 25.8772 36.706 25.7879 36.8125C25.7004 36.9 25.5129 37.0625 25.2879 37.0625C24.9129 37.075 24.7879 36.8125 24.7754 36.75" stroke="#703D29" stroke-width="0.0625"/>
<path d="M25.5625 35.875C25.6385 35.952 25.7017 36.0406 25.75 36.1375C25.8375 36.3125 25.8125 36.6125 25.7375 36.7625C25.7257 36.7756 25.7132 36.7882 25.7 36.8M23.6875 38.6C23.9125 38.85 24.25 39.1 24.775 39.3125C25.6041 39.573 26.4685 39.7038 27.3375 39.7C28.3375 39.7375 29.275 39.7875 29.8375 40.4125M31.575 40C31.7502 40.1538 31.8872 40.3464 31.975 40.5625M31.2375 41.7125C31.2177 41.7344 31.1969 41.7552 31.175 41.775C31.0856 41.8543 30.9801 41.9133 30.8657 41.9478C30.7513 41.9823 30.6308 41.9916 30.5125 41.975C30.4262 41.966 30.3428 41.9391 30.2674 41.896C30.1921 41.853 30.1266 41.7947 30.075 41.725M29.5375 41.425L29.575 41.4625C29.7032 41.6071 29.8823 41.6967 30.075 41.7125M32.775 41.7125C32.5837 41.9845 32.3194 42.1968 32.0125 42.325C31.7041 42.1934 31.4395 41.9766 31.25 41.7L31.225 41.6625M32.775 41.7L32.85 41.775C32.9394 41.8543 33.0449 41.9133 33.1593 41.9478C33.2737 41.9823 33.3942 41.9916 33.5125 41.975C33.5957 41.9674 33.6761 41.9409 33.7476 41.8976C33.8191 41.8543 33.8798 41.7953 33.925 41.725L33.975 41.65" stroke="#703D29" stroke-width="0.0625"/>
<path d="M33.9 41.6625L33.825 41.7875L33.7125 41.875L33.55 41.95H33.375" stroke="#703D29" stroke-width="0.0625"/>
<path d="M34.3008 40.525C34.4025 40.5997 34.4841 40.6985 34.5383 40.8125C34.5633 40.8875 34.5883 40.975 34.5883 41.0625C34.5937 41.2083 34.5447 41.3509 34.4508 41.4625C34.3815 41.54 34.2968 41.6023 34.2021 41.6453C34.1074 41.6884 34.0048 41.7112 33.9008 41.7125C33.8883 41.713 33.8758 41.713 33.8633 41.7125M33.8758 41.6875C33.7803 41.6896 33.6854 41.6718 33.5971 41.6352C33.5089 41.5986 33.4293 41.5441 33.3633 41.475M39.7383 34.6875C39.5352 34.5015 39.366 34.2815 39.2383 34.0375C39.1651 33.895 39.1105 33.7438 39.0758 33.5875C39.0508 33.475 39.0258 33.375 39.0258 33.2625C39.0258 33.0625 39.0383 32.8625 39.0883 32.6375C39.1497 32.3044 39.2913 31.9912 39.5008 31.725C39.5633 31.65 39.6258 31.55 39.7008 31.5M39.5758 23.925C39.8258 23.95 40.0508 24.2125 40.0508 24.4875C40.0508 24.875 39.9258 25.0375 39.6133 25.4125C39.3508 25.75 38.5508 26.325 38.5758 26.875C38.5758 26.975 38.6383 27.075 38.7008 27.15M38.3758 27.5C38.4258 27.5625 38.5008 27.6 38.5758 27.6375C38.6441 27.6649 38.7176 27.6768 38.7911 27.6725C38.8645 27.6682 38.9361 27.6477 39.0008 27.6125M36.8883 23.2875C36.9874 23.351 37.0657 23.4423 37.1133 23.55C37.2883 24 36.8883 24.3375 36.5133 24.5875C36.2642 24.7526 35.9831 24.8634 35.6883 24.9125" stroke="#703D29" stroke-width="0.0625"/>
<path d="M36.4621 24.15C36.3746 24.15 36.2621 24.125 36.1496 24C36.1198 23.9753 36.0944 23.9458 36.0746 23.9125M34.5871 24.4C34.54 24.3742 34.4976 24.3403 34.4621 24.3C34.3746 24.2 34.3121 24.0625 34.3746 23.8625C34.4371 23.675 34.7496 23.1375 34.7496 22.775C34.7871 22.2125 34.5621 21.875 34.2246 21.75" stroke="#703D29" stroke-width="0.0625"/>
<path d="M34.7375 22.65L34.725 22.8625L34.6625 23.075L34.55 23.3625L34.4625 23.5625L34.375 23.75L34.3375 23.875L34.3125 23.975L34.325 24.075M38.1375 36.7C38.1375 36.7375 38.1875 36.775 38.1875 36.775C38.252 36.8628 38.3344 36.9361 38.4292 36.9899C38.5239 37.0438 38.629 37.077 38.7375 37.0875C39.1125 37.0875 39.2 36.825 39.2125 36.7625C39.2625 36.475 39.1625 36.3875 39.0125 36.3125C39.0125 36.3125 38.925 36.275 38.825 36.2875" stroke="#703D29" stroke-width="0.0625" stroke-linecap="round"/>
<path d="M23.6994 35.4375C23.5768 35.4722 23.447 35.4722 23.3244 35.4375C23.0369 35.35 22.8244 35.075 22.9369 34.75M24.2744 31.5625C24.2994 31.5875 24.3119 31.6375 24.3119 31.6625C24.3494 32.0375 24.0369 32.1375 23.8119 32.0875C23.6826 32.0484 23.5717 31.9641 23.4994 31.85C23.4602 31.7814 23.4387 31.704 23.4369 31.625M25.6494 29.25C25.6994 29.3125 25.7494 29.375 25.7744 29.4375M25.6494 28.5875C25.7119 28.625 25.7494 28.6625 25.7744 28.7125" stroke="#703D29" stroke-width="0.0625"/>
<path d="M25.7883 29.05C25.7493 29.1423 25.6943 29.2269 25.6258 29.3C25.513 29.4194 25.3775 29.5152 25.2273 29.5817C25.077 29.6483 24.9151 29.6842 24.7508 29.6875C24.5374 29.693 24.3277 29.6319 24.1508 29.5125C23.9494 29.3871 23.8023 29.1909 23.7383 28.9625" stroke="#703D29" stroke-width="0.0625" stroke-linecap="round"/>
<path d="M25.5371 27.525C25.6499 27.6123 25.7364 27.7291 25.7871 27.8625" stroke="#703D29" stroke-width="0.0625"/>
<path d="M25.7867 28.325C25.723 28.5216 25.6086 28.698 25.455 28.8362C25.3013 28.9745 25.1139 29.0698 24.9117 29.1125C24.6887 29.1612 24.4554 29.1209 24.2617 29" stroke="#703D29" stroke-width="0.0625" stroke-linecap="round"/>
<path d="M24 28.25C24.025 28.5125 24.2125 28.7125 24.5375 28.725C25.0125 28.725 25.2875 28.05 24.875 27.5625" stroke="#703D29" stroke-width="0.0625"/>
<path d="M22.9492 30.55C23.0117 30.6375 23.0992 30.7125 23.1742 30.7875C23.3498 30.9359 23.554 31.0465 23.7742 31.1125M24.2992 31.1625C24.7242 31.1125 24.9617 30.8 24.9117 30.4375C24.8742 30.15 24.6117 29.9375 24.4367 29.9375" stroke="#703D29" stroke-width="0.0625" stroke-linecap="round"/>
<path d="M24.9883 26.8125C25.1633 26.8125 25.2758 26.975 25.2633 27.1125" stroke="#703D29" stroke-width="0.0625"/>
<path d="M24.9375 24.3125C25.034 24.5554 25.2103 24.7582 25.4375 24.8875M39.875 28C39.9211 28.0715 39.9466 28.1544 39.9487 28.2395C39.9507 28.3247 39.9292 28.4087 39.8865 28.4823C39.8439 28.556 39.7817 28.6165 39.7069 28.6571C39.6321 28.6977 39.5475 28.7169 39.4625 28.7125C39.3745 28.7109 39.2882 28.6871 39.2118 28.6434C39.1353 28.5997 39.0711 28.5375 39.025 28.4625" stroke="#703D29" stroke-width="0.0625" stroke-linecap="round"/>
<path d="M38.1758 24.9125V26.4875" stroke="#703D29" stroke-width="0.0625"/>
<path d="M24.3752 28.2375C24.5252 28.3375 24.7002 28.1625 24.6252 27.975C24.5877 27.85 24.4002 27.7125 24.1502 27.875C23.8877 28.0625 23.9627 28.6625 24.4877 28.6625C24.9502 28.675 25.2377 27.9875 24.8252 27.5125C24.4252 27.05 23.7002 27.15 23.2002 27.5375C22.8468 27.8387 22.601 28.2468 22.5002 28.7C22.4322 29.0046 22.4322 29.3204 22.5002 29.625C22.5504 29.8921 22.6523 30.1469 22.8002 30.375L22.9252 30.5375L23.1252 30.7375C23.4108 30.9898 23.7817 31.1238 24.1627 31.1125C24.6377 31.1 24.9127 30.7625 24.8502 30.375C24.8002 30 24.4252 29.8125 24.1752 30C24.0127 30.1125 23.9502 30.475 24.2502 30.5625C24.4127 30.6125 24.5627 30.4 24.4502 30.275M37.4002 23.0875C37.6752 22.9375 37.8752 22.9625 38.0252 23.175C38.1716 23.3863 38.2299 23.6464 38.1877 23.9C38.1377 24.175 38.0627 24.275 37.8377 24.475" stroke="#703D29" stroke-width="0.0625" stroke-linecap="round"/>
<path d="M38.0508 23.2C38.3633 23 38.7008 23.075 38.8758 23.3625C39.0014 23.5407 39.059 23.758 39.0383 23.975C39.0265 24.1631 38.9677 24.3452 38.8673 24.5046C38.7668 24.6641 38.6279 24.7957 38.4633 24.8875" stroke="#703D29" stroke-width="0.0625" stroke-linecap="round"/>
<path d="M39.4994 23.9125C39.7494 23.9375 39.9619 24.1625 39.9619 24.4375C39.9619 24.8125 39.8619 24.9875 39.5494 25.3625C39.2869 25.6875 38.4994 26.2625 38.5119 26.825C38.5119 27.025 38.6994 27.225 38.8494 27.2375" stroke="#703D29" stroke-width="0.0625"/>
<path d="M39.5383 28.2375C39.3883 28.3375 39.2133 28.175 39.2883 27.9875C39.3383 27.8625 39.5133 27.7125 39.7508 27.875C40.0258 28.0625 39.9508 28.6625 39.4258 28.6625C38.9633 28.675 38.6383 28.0125 39.0883 27.5125C39.5008 27.05 40.2633 27.1375 40.7383 27.5125C40.9383 27.6875 41.3633 28.1375 41.4383 28.7125C41.5508 29.4125 41.5258 30.2875 40.8133 30.8125C40.5016 31.0262 40.1283 31.1316 39.7508 31.1125C39.2758 31.1 39.0008 30.7625 39.0633 30.375C39.1133 30 39.4758 29.8375 39.7383 30C40.0133 30.1375 39.9633 30.5375 39.6633 30.5625C39.4883 30.5875 39.3508 30.4 39.4633 30.275" stroke="#703D29" stroke-width="0.0625" stroke-linecap="round"/>
<path d="M39.2871 28C39.3621 27.6375 39.6621 27.6125 39.9121 27.6125C40.5621 27.6125 41.0246 28.4 41.0371 29.1625C41.0371 30.1125 40.6246 30.675 39.9121 30.7C39.7496 30.7125 39.4371 30.625 39.4246 30.4125" stroke="#703D29" stroke-width="0.0625"/>
<path d="M39.6867 27.8375C40.3867 27.9875 40.6367 28.6125 40.6367 29.2125C40.6367 29.7 40.5867 30.3625 39.6367 30.5875" stroke="#703D29" stroke-width="0.0625" stroke-linecap="square"/>
<path d="M40.8379 34.5375C40.8513 34.4702 40.8465 34.4006 40.8241 34.3357C40.8017 34.2709 40.7625 34.2132 40.7105 34.1684C40.6585 34.1237 40.5956 34.0936 40.5281 34.0811C40.4607 34.0687 40.3911 34.0744 40.3266 34.0976C40.262 34.1208 40.2048 34.1608 40.1608 34.2134C40.1167 34.266 40.0874 34.3293 40.0759 34.3969C40.0643 34.4645 40.0709 34.534 40.095 34.5982C40.1191 34.6625 40.1598 34.7191 40.2129 34.7625" stroke="#703D29" stroke-width="0.0625"/>
<path d="M39.45 33.9375C39.6016 34.1892 39.8173 34.3962 40.075 34.5375M39.95 35.5875C39.6125 35.375 38.9875 35.0875 38.425 35.3625C38.3286 35.4035 38.2414 35.4633 38.1684 35.5384C38.0954 35.6135 38.0382 35.7025 38 35.8C37.946 35.963 37.9348 36.1372 37.9677 36.3058C38.0005 36.4744 38.0762 36.6317 38.1875 36.7625C38.3136 36.9118 38.493 37.006 38.6875 37.025C39.0625 37.025 39.15 36.775 39.1625 36.7125C39.2 36.4375 39.0375 36.325 38.9625 36.3C38.8875 36.275 38.6875 36.275 38.6375 36.425C38.625 36.475 38.625 36.5625 38.6625 36.625" stroke="#703D29" stroke-width="0.0625" stroke-linecap="round"/>
<path d="M34.0496 40.8375C34.1496 41.0625 34.0371 41.1625 33.8871 41.175C33.6746 41.2 33.5621 41.0375 33.5496 40.8875C33.5246 40.6375 33.7371 40.4 33.9871 40.4125C34.0957 40.4149 34.2011 40.4495 34.2901 40.5118C34.3791 40.5741 34.4476 40.6613 34.4871 40.7625C34.5121 40.8375 34.5246 40.9125 34.5246 41C34.5332 41.15 34.484 41.2976 34.3871 41.4125C34.3192 41.4885 34.2365 41.5499 34.1441 41.5929C34.0517 41.6358 33.9515 41.6595 33.8496 41.6625C33.4246 41.675 33.0996 41.2875 33.0996 40.875C33.0996 40.1125 34.2371 39.6875 34.6996 39.575C35.2856 39.4359 35.8849 39.3605 36.4871 39.35C36.8496 39.325 37.1121 39.3375 37.4996 39.3C37.8496 39.2625 38.0371 39.2375 38.3996 39.1625C38.8657 39.0581 39.2965 38.834 39.6496 38.5125C39.9822 38.2628 40.2126 37.9005 40.2977 37.4934C40.3828 37.0863 40.3169 36.6621 40.1121 36.3C40.0003 36.1211 39.8505 35.9691 39.6734 35.8546C39.4963 35.7401 39.2961 35.666 39.0871 35.6375C38.7121 35.575 38.3871 35.7375 38.1871 36.1125C38.1457 36.2118 38.1254 36.3187 38.1275 36.4263C38.1297 36.5339 38.1542 36.6399 38.1996 36.7375C38.2621 36.85 38.4496 37.025 38.6746 37.025C39.0496 37.025 39.1496 36.775 39.1621 36.7125C39.1996 36.4375 39.0371 36.325 38.9621 36.3C38.8871 36.275 38.6871 36.275 38.6371 36.425C38.6246 36.475 38.6246 36.5625 38.6621 36.625" stroke="#703D29" stroke-width="0.0625" stroke-linecap="round"/>
<path d="M33.7244 39.625C33.2244 39.8375 32.8744 40 32.5744 40.4625C32.4892 40.6152 32.4461 40.7877 32.4494 40.9625C32.4494 41.225 32.5744 41.525 32.7869 41.7125C32.8766 41.7958 32.9837 41.858 33.1005 41.8948C33.2172 41.9315 33.3407 41.9419 33.4619 41.925C33.6494 41.9 33.8369 41.7625 33.8619 41.675" stroke="#703D29" stroke-width="0.0625" stroke-linecap="round"/>
<path d="M38.5 30.4125C38.2875 30.4875 38.125 30.8375 38.125 31.1625C38.125 31.5375 38.3 31.7875 38.525 31.9125" stroke="#703D29" stroke-width="0.0625"/>
<path d="M38.7506 31.6375C38.3506 32.15 38.1256 32.45 38.1256 33.05C38.1131 33.625 38.2881 34.0125 38.6256 34.425" stroke="#703D29" stroke-width="0.0625" stroke-linecap="round"/>
<path d="M36.5879 23.2L36.6254 23.15C36.7879 22.9 37.0879 22.8375 37.3129 23C37.5629 23.2 37.6379 23.5375 37.5629 23.9C37.5363 24.0137 37.4872 24.121 37.4185 24.2154C37.3498 24.3099 37.2629 24.3897 37.1629 24.45" stroke="#703D29" stroke-width="0.0625"/>
<path d="M26.5011 23.0875C26.2511 22.9625 26.0386 22.9875 25.8761 23.175C25.8032 23.2793 25.7523 23.3974 25.7265 23.5221C25.7007 23.6467 25.7005 23.7753 25.7261 23.9C25.7761 24.1625 25.8511 24.275 26.0761 24.475" stroke="#703D29" stroke-width="0.0625" stroke-linecap="round"/>
<path d="M25.8627 23.2C25.5502 23 25.2127 23.075 25.0377 23.3625C24.9121 23.5407 24.8545 23.758 24.8752 23.975C24.887 24.1631 24.9458 24.3452 25.0463 24.5046C25.1467 24.6641 25.2856 24.7957 25.4502 24.8875" stroke="#703D29" stroke-width="0.0625"/>
<path d="M24.9633 23.475C24.8007 23.4958 24.6509 23.574 24.5409 23.6954C24.4309 23.8169 24.3679 23.9737 24.3633 24.1375C24.3633 24.5875 24.4758 24.7625 24.7258 25.1C24.9758 25.4375 25.7883 26.0625 25.7883 26.775C25.7883 27.2 25.6633 27.475 25.3633 27.6125C25.1633 27.7 24.9258 27.6125 24.8258 27.5125C24.5758 27.275 24.6758 26.8625 24.9383 26.8125C25.2633 26.7625 25.3258 27.275 25.0133 27.2375" stroke="#703D29" stroke-width="0.0625"/>
<path d="M24.4004 23.9125C24.1504 23.9375 23.9004 24.1625 23.9004 24.4125C23.9004 24.8 24.0504 24.975 24.3629 25.3625C24.6129 25.6875 25.3629 26.2625 25.3504 26.8125C25.3504 27.0125 25.2004 27.275 25.0629 27.2375" stroke="#703D29" stroke-width="0.0625"/>
<path d="M23.8121 31.6125C23.9371 31.325 24.2371 31.45 24.2496 31.6125C24.2996 31.9875 23.9746 32.0875 23.7496 32.025C23.6246 32 23.5496 31.925 23.4996 31.8375C23.4541 31.7529 23.4346 31.6568 23.4434 31.5612C23.4523 31.4656 23.4893 31.3747 23.5496 31.3C23.5835 31.2512 23.6259 31.2089 23.6746 31.175C23.7621 31.125 23.8621 31.1125 24.0121 31.1125C24.5621 31.1125 25.0496 31.775 25.2121 32.4625C25.3026 32.8566 25.3111 33.265 25.2371 33.6625C25.1533 34.0861 24.9494 34.4766 24.6496 34.7875C24.3703 35.057 24.0323 35.2581 23.6621 35.375C23.5316 35.4139 23.3926 35.4139 23.2621 35.375C22.9871 35.3 22.7996 35.025 22.9496 34.6875C23.0746 34.425 23.4871 34.2875 23.6746 34.6125C23.6871 34.65 23.7121 34.7 23.7121 34.775C23.7121 34.8625 23.6746 34.9625 23.6121 35C23.4746 35.1 23.2371 35.075 23.2496 34.8125" stroke="#703D29" stroke-width="0.0625" stroke-linecap="round"/>
<path d="M23.3757 35.0375C23.4757 35.075 23.5382 35.075 23.6632 35.0125L23.8507 34.9125C24.1007 34.775 24.4132 34.5375 24.6882 34.0125C24.7657 33.8707 24.8246 33.7194 24.8632 33.5625C24.8882 33.45 24.9132 33.3375 24.9132 33.225C24.9181 33.0149 24.8971 32.805 24.8507 32.6C24.7935 32.2716 24.6561 31.9625 24.4507 31.7C24.3257 31.5375 24.2382 31.45 24.0132 31.45M23.0757 34.5375C23.0624 34.4702 23.0672 34.4006 23.0896 34.3357C23.112 34.2709 23.1511 34.2132 23.2032 34.1684C23.2552 34.1237 23.3181 34.0936 23.3856 34.0811C23.453 34.0687 23.5226 34.0744 23.5871 34.0976C23.6517 34.1208 23.7089 34.1608 23.7529 34.2134C23.797 34.266 23.8263 34.3293 23.8378 34.3969C23.8494 34.4645 23.8428 34.534 23.8187 34.5982C23.7946 34.6625 23.7539 34.7191 23.7007 34.7625" stroke="#703D29" stroke-width="0.0625"/>
<path d="M23.2246 34.15C23.2392 34.0638 23.2833 33.9855 23.3495 33.9284C23.4157 33.8713 23.4997 33.8392 23.5871 33.8375C23.6866 33.8375 23.7819 33.877 23.8523 33.9473C23.9226 34.0177 23.9621 34.113 23.9621 34.2125C23.9542 34.3088 23.9094 34.3984 23.8371 34.4625" stroke="#703D29" stroke-width="0.0625"/>
<path d="M23.9375 34.125C24.1306 33.9814 24.2876 33.7948 24.3961 33.58C24.5045 33.3652 24.5615 33.1281 24.5625 32.8875C24.5625 32.475 24.4 32.05 24.2 31.8875" stroke="#703D29" stroke-width="0.0625"/>
<path d="M24.4629 33.9375C24.3117 34.1896 24.096 34.3967 23.8379 34.5375" stroke="#703D29" stroke-width="0.0625" stroke-linecap="round"/>
<path d="M25.4627 35.375C25.3627 35.15 25.1877 35.05 24.8877 35.0125C24.5985 34.9905 24.3098 35.0605 24.0627 35.2125C23.8265 35.3195 23.6154 35.4749 23.4431 35.6687C23.2709 35.8625 23.1413 36.0904 23.0627 36.3375C23.0052 36.5235 22.9799 36.718 22.9877 36.9125C22.9877 37.275 23.0877 37.6625 23.1877 37.85C23.2627 38.025 23.4877 38.75 24.7127 39.25C25.5453 39.5155 26.4139 39.6504 27.2877 39.65C28.3252 39.6875 29.2877 39.725 29.8377 40.4125" stroke="#703D29" stroke-width="0.0625"/>
<path d="M23.9629 35.5875C24.3004 35.375 24.9129 35.0875 25.4754 35.3625C25.6696 35.4502 25.8252 35.6057 25.9129 35.8C25.9669 35.963 25.9781 36.1372 25.9452 36.3058C25.9124 36.4744 25.8367 36.6317 25.7254 36.7625C25.6379 36.85 25.4629 37.0125 25.2254 37.025C24.8504 37.025 24.7629 36.775 24.7504 36.7125C24.7129 36.4375 24.8754 36.325 24.9504 36.3C25.0129 36.275 25.2254 36.275 25.2754 36.425C25.2879 36.475 25.2879 36.5625 25.2504 36.625" stroke="#703D29" stroke-width="0.0625" stroke-linecap="round"/>
<path d="M25.2754 36.575C25.2929 36.5161 25.2941 36.4535 25.2786 36.3941C25.2632 36.3346 25.2319 36.2805 25.1879 36.2375C25.1112 36.1637 25.0134 36.1156 24.9081 36.1C24.8029 36.0843 24.6953 36.1018 24.6004 36.15C24.4997 36.1973 24.4134 36.2707 24.3504 36.3625L24.2254 36.5125L24.1254 36.7625C23.8754 37.4625 24.2754 38.2125 24.7754 38.525C25.2121 38.7816 25.7066 38.9235 26.2129 38.9375L26.8754 38.975H28.5504L29.3004 39.05L29.8504 39.15L30.0379 39.2L30.1629 39.2375C30.5005 39.3322 30.8241 39.4709 31.1254 39.65C31.2129 39.7 31.3129 39.75 31.3754 39.825L31.5129 39.95C31.7004 40.125 31.9004 40.325 31.9504 40.6125V40.775C31.9504 40.95 31.8129 41.2 31.4129 41.275" stroke="#703D29" stroke-width="0.0625"/>
<path d="M29.875 40.8375C29.75 41.0625 29.875 41.1625 30.025 41.175C30.2375 41.2 30.35 41.0375 30.3625 40.8875C30.3875 40.6375 30.175 40.4 29.925 40.4125C29.8164 40.4149 29.711 40.4495 29.622 40.5118C29.533 40.5741 29.4644 40.6613 29.425 40.7625C29.3986 40.8388 29.3859 40.9192 29.3875 41C29.3754 41.1484 29.4201 41.2958 29.5125 41.4125C29.5818 41.49 29.6665 41.5523 29.7612 41.5953C29.8559 41.6384 29.9585 41.6612 30.0625 41.6625C30.4875 41.675 30.8125 41.2875 30.8125 40.875C30.8125 40.1125 29.675 39.6875 29.2125 39.575C28.6265 39.4359 28.0272 39.3605 27.425 39.35C27.0625 39.325 26.8 39.3375 26.4125 39.3C26.0625 39.2625 25.875 39.2375 25.5125 39.1625C25.0464 39.0581 24.6156 38.834 24.2625 38.5125C23.9298 38.2628 23.6995 37.9005 23.6144 37.4934C23.5293 37.0863 23.5952 36.6621 23.8 36.3C23.9118 36.1211 24.0615 35.9691 24.2387 35.8546C24.4158 35.7401 24.616 35.666 24.825 35.6375C25.2 35.575 25.525 35.7375 25.7125 36.1125C25.8125 36.2875 25.7875 36.5875 25.7125 36.7375C25.6611 36.8218 25.5898 36.8922 25.5048 36.9423C25.4197 36.9925 25.3236 37.0209 25.225 37.025C24.85 37.025 24.7625 36.775 24.75 36.7125C24.7125 36.4375 24.875 36.325 24.95 36.3C25.0125 36.275 25.225 36.275 25.275 36.425C25.2875 36.475 25.2875 36.5625 25.25 36.625" stroke="#703D29" stroke-width="0.0625"/>
<path d="M27.325 23.2L27.2875 23.15C27.125 22.9 26.825 22.8375 26.6 23C26.35 23.2 26.275 23.5375 26.35 23.9C26.3766 24.0137 26.4257 24.121 26.4944 24.2154C26.5631 24.3099 26.65 24.3897 26.75 24.45" stroke="#703D29" stroke-width="0.0625" stroke-linecap="round"/>
<path d="M36.6758 23.9625C36.2758 24.4 35.8633 24.5375 35.2633 24.5625C35.0758 24.5625 34.7133 24.5 34.5133 24.35C34.3883 24.25 34.2258 24.1 34.3258 23.8C34.3883 23.6125 34.7008 23.0875 34.7008 22.7125C34.7258 22.15 34.5133 21.8375 34.1758 21.725C33.5508 21.5 32.8758 22.125 32.4758 22.2625C32.3112 22.3197 32.1373 22.3452 31.9633 22.3375C31.7633 22.3375 31.6508 22.3375 31.4383 22.2625C31.0383 22.125 30.3633 21.5125 29.7383 21.725C29.4008 21.85 29.1883 22.15 29.2133 22.725C29.2133 23.0875 29.5258 23.6125 29.5883 23.8C29.6883 24.0875 29.5383 24.25 29.4008 24.35C29.1749 24.488 28.9155 24.5614 28.6508 24.5625C28.0383 24.5375 27.6508 24.4 27.2383 23.9625" stroke="#703D29" stroke-width="0.0625"/>
<path d="M29.7383 39.4375C29.8133 39.475 29.7508 39.425 30.2633 39.65C30.7383 39.8625 31.0883 40.05 31.3883 40.525C31.5052 40.7523 31.5363 41.0141 31.4758 41.2625" stroke="#703D29" stroke-width="0.0625" stroke-linecap="round"/>
<path d="M29.7617 41.6C29.8626 41.6519 29.9734 41.6817 30.0867 41.6875C30.5117 41.7 30.8367 41.3125 30.8367 40.9C30.8367 40.625 30.6867 40.4 30.4742 40.2" stroke="#703D29" stroke-width="0.0625"/>
<path d="M29.8635 40.8375C29.751 41.075 29.901 41.1875 30.051 41.2125C30.2635 41.2375 30.376 41.0625 30.401 40.9125C30.4064 40.8309 30.3895 40.7494 30.352 40.6767C30.3146 40.6041 30.258 40.543 30.1885 40.5" stroke="#703D29" stroke-width="0.0625" stroke-linecap="round"/>
<path d="M39.0004 23.475C39.3254 23.475 39.6129 23.8375 39.6129 24.2C39.6129 24.625 39.3879 24.8875 39.2254 25.075C39.1004 25.2375 38.9504 25.375 38.7754 25.55" stroke="#703D29" stroke-width="0.0625"/>
<path d="M38.6247 23.1375C38.7442 23.1889 38.8447 23.2763 38.9122 23.3875C39.0334 23.5673 39.0865 23.7845 39.0622 24C39.0497 24.425 38.7497 24.7125 38.4747 24.8875M37.9997 23.1375L38.0622 23.2125C38.1369 23.3135 38.1889 23.4295 38.2148 23.5524C38.2407 23.6753 38.2398 23.8024 38.2122 23.925C38.192 24.0379 38.1482 24.1454 38.0836 24.2402C38.0189 24.335 37.935 24.415 37.8372 24.475M37.3372 23.025C37.5872 23.225 37.6747 23.575 37.5872 23.925C37.5247 24.175 37.3622 24.3375 37.1747 24.45M38.2872 28.5625C38.3122 28.65 38.3622 28.6875 38.4372 28.75C38.6052 28.9234 38.8168 29.0486 39.0497 29.1125C39.1542 29.1426 39.2638 29.1503 39.3715 29.1352C39.4792 29.1202 39.5825 29.0826 39.6747 29.025M23.3747 34.425C23.4997 34.425 23.6247 34.5 23.7122 34.65C23.7366 34.6963 23.7494 34.7477 23.7497 34.8C23.7497 34.8875 23.7122 34.975 23.6497 35.025C23.4997 35.1125 23.2497 35.075 23.2622 34.8125" stroke="#703D29" stroke-width="0.0625" stroke-linecap="round"/>
<path d="M24.1496 31.125C24.6496 31.225 25.1121 31.8125 25.2746 32.4625C25.3651 32.8566 25.3736 33.265 25.2996 33.6625C25.2158 34.0861 25.0118 34.4766 24.7121 34.7875C24.6496 34.8625 24.5871 34.9125 24.4996 34.975L24.3871 35.05M23.5996 33.8375C23.7996 33.8375 23.9746 34.025 23.9746 34.2375C23.9734 34.3303 23.9377 34.4194 23.8746 34.4875" stroke="#703D29" stroke-width="0.0625"/>
<path d="M23.4629 34.075C23.6754 34.075 23.8754 34.275 23.8754 34.4875C23.8764 34.5477 23.8633 34.6072 23.8373 34.6615C23.8112 34.7157 23.7729 34.7631 23.7254 34.8" stroke="#703D29" stroke-width="0.0625"/>
<path d="M25.4004 31.95C25.5879 32.2 25.7254 32.4375 25.7754 32.725M25.7754 33.575C25.7422 33.714 25.6918 33.8484 25.6254 33.975C25.5349 34.1473 25.4166 34.3036 25.2754 34.4375" stroke="#703D29" stroke-width="0.0625" stroke-linecap="round"/>
<path d="M25.4258 30.4375C25.5905 30.554 25.7133 30.7206 25.7758 30.9125" stroke="#703D29" stroke-width="0.0625"/>
<path d="M25.7871 29.95C25.7179 30.1315 25.6014 30.2912 25.4496 30.4125M24.5371 28.6875L24.7496 28.6375L24.8746 28.5375L24.9621 28.4125L25.0246 28.2375L25.0621 28.0875" stroke="#703D29" stroke-width="0.0625" stroke-linecap="round"/>
<path d="M24.1 27.925L23.85 28.0125C23.7086 28.0794 23.5877 28.183 23.5 28.3125C23.3873 28.4963 23.311 28.7 23.275 28.9125C23.25 29 23.225 29.2875 23.275 29.575C23.3189 29.7815 23.4039 29.977 23.525 30.15L23.625 30.275C23.75 30.4 23.875 30.4875 24.0625 30.45" stroke="#703D29" stroke-width="0.0625"/>
<path d="M25.3 26.975C25.275 27.1 25.2 27.2625 25 27.25" stroke="#703D29" stroke-width="0.0625" stroke-linecap="round"/>
<path d="M24.5617 27.85C24.3742 27.6625 23.9617 27.6125 23.5617 27.875C23.4992 27.9 23.4492 27.95 23.3992 28C23.3477 28.0445 23.3016 28.0948 23.2617 28.15L23.1117 28.4C23.0738 28.48 23.0444 28.5638 23.0242 28.65C22.9492 28.9375 22.9492 29.2125 22.9492 29.275L22.9867 29.55C23.0239 29.7701 23.1001 29.9817 23.2117 30.175C23.2884 30.3201 23.3989 30.4446 23.5337 30.5382C23.6686 30.6317 23.8239 30.6915 23.9867 30.7125C24.1617 30.725 24.4742 30.6375 24.4867 30.4125" stroke="#703D29" stroke-width="0.0625"/>
<path d="M36.3742 23.7125C36.3992 23.5375 36.5992 23.5125 36.6742 23.6125C36.7992 23.7625 36.7242 24.0125 36.4867 24.0875C36.4176 24.1022 36.3457 24.0972 36.2794 24.0728C36.213 24.0485 36.1549 24.0059 36.1117 23.95C35.9992 23.825 36.0117 23.675 36.0492 23.55C36.0742 23.4625 36.1367 23.4 36.2242 23.3375C36.4867 23.125 36.9367 23.175 37.0742 23.525C37.2617 23.975 36.8617 24.3125 36.4867 24.5625C36.0117 24.875 35.4867 24.9375 35.0742 24.9375C34.1617 24.925 33.4617 24.4875 33.0117 24.2375C32.9117 24.175 32.7992 24.1875 32.7492 24.2625C32.6867 24.3375 32.6867 24.45 32.7742 24.525" stroke="#703D29" stroke-width="0.0625" stroke-linecap="round"/>
<path d="M36.5617 23.55C36.6617 23.55 36.6867 23.6 36.7117 23.6375C36.8367 23.7875 36.7492 24.0375 36.5117 24.1125M38.2992 29.2625C37.9492 29.6375 38.2617 30.3 38.5242 30.45C38.6117 30.5125 38.6492 30.475 38.7242 30.525" stroke="#703D29" stroke-width="0.0625" stroke-linecap="round"/>
<path d="M38.3125 28.5375C38.1875 28.625 38.1625 28.7125 38.15 28.8625C38.1456 28.936 38.1566 29.0095 38.1825 29.0784C38.2083 29.1474 38.2484 29.2101 38.3 29.2625C38.5486 29.4941 38.8729 29.6274 39.2125 29.6375C39.4301 29.6457 39.6446 29.5844 39.825 29.4625C40.0122 29.3359 40.1459 29.1444 40.2 28.925M38.125 35.125V35.375C38.075 35.65 38.0375 35.8125 37.9125 36.0625C37.8077 36.2752 37.6635 36.4661 37.4875 36.625C37.3187 36.7974 37.1195 36.9373 36.9 37.0375C36.6949 37.1425 36.4761 37.2183 36.25 37.2625C36.0233 37.3067 35.7934 37.3318 35.5625 37.3375H34.9375L34.25 37.25C34.0375 37.225 33.9125 37.2125 33.7 37.2125C33.3246 37.2019 32.9507 37.2656 32.6 37.4C32.3716 37.4881 32.1602 37.6149 31.975 37.775C31.9 37.7 31.6 37.5 31.325 37.4C31.1609 37.3294 30.9888 37.279 30.8125 37.25C30.5875 37.2125 30.4625 37.2125 30.2375 37.2125C30.0125 37.2125 29.9 37.225 29.675 37.25C29.425 37.275 29.2625 37.3125 29 37.325C28.75 37.3375 28.625 37.35 28.375 37.3375C28.1 37.3375 27.95 37.3125 27.675 37.2625C27.4489 37.2183 27.2301 37.1425 27.025 37.0375C26.775 36.9125 26.65 36.825 26.4375 36.625C26.266 36.4649 26.1261 36.2741 26.025 36.0625C25.9107 35.8491 25.8386 35.6157 25.8125 35.375V24.95H38.125V35.125Z" stroke="#703D29" stroke-width="0.0625"/>
<path d="M24.7867 36.5625C24.7867 36.4962 24.8131 36.4326 24.8599 36.3857C24.9068 36.3388 24.9704 36.3125 25.0367 36.3125C25.103 36.3125 25.1666 36.3388 25.2135 36.3857C25.2604 36.4326 25.2867 36.4962 25.2867 36.5625C25.2867 36.6288 25.2604 36.6924 25.2135 36.7393C25.1666 36.7862 25.103 36.8125 25.0367 36.8125C24.9704 36.8125 24.9068 36.7862 24.8599 36.7393C24.8131 36.6924 24.7867 36.6288 24.7867 36.5625ZM23.2617 34.8C23.2617 34.675 23.3367 34.575 23.4367 34.575C23.5367 34.575 23.6117 34.675 23.6117 34.8C23.6117 34.925 23.5367 35.025 23.4367 35.025C23.3367 35.025 23.2617 34.925 23.2617 34.8Z" fill="#C7B37F" stroke="#C7B37F" stroke-width="0.0375"/>
<path d="M24.125 30.3625C24.125 30.2625 24.2125 30.175 24.3 30.175C24.4 30.175 24.475 30.2625 24.475 30.3625C24.475 30.4625 24.4 30.5375 24.3 30.5375C24.2125 30.5375 24.1375 30.4625 24.1375 30.3625H24.125ZM27.2 23.8C27.1875 23.6875 27.25 23.6 27.325 23.6C27.4125 23.5875 27.5 23.6625 27.5125 23.7625C27.5125 23.8625 27.4625 23.95 27.375 23.9625C27.2875 23.9625 27.2 23.9 27.2 23.8Z" fill="#C7B37F"/>
<path d="M23.9242 31.4C23.8961 31.4114 23.8706 31.4284 23.8492 31.45L23.7867 31.5375L23.7617 31.6625M24.2367 34.325L24.3242 34.225L24.3992 34.125L24.4492 34.0375L24.5117 33.9125M24.3867 35.2875L24.2367 35.3625L24.1242 35.425C24.0813 35.4523 24.0396 35.4815 23.9992 35.5125L23.8742 35.6125M25.3742 31.825L25.2992 31.7375L25.2117 31.65L25.1117 31.5875" stroke="#C7B37F" stroke-width="0.0625" stroke-linecap="round"/>
<path d="M25.4129 30.5L25.2879 30.55C25.2435 30.5647 25.1972 30.5731 25.1504 30.575" stroke="#C7B37F" stroke-width="0.0625"/>
<path d="M23.75 28.85C23.75 28.9 23.7625 28.9375 23.7875 28.9875L23.875 29.1625C23.9457 29.2696 24.0397 29.3594 24.15 29.425L24.3 29.5125M24.1875 28.925L24.3125 28.9875C24.4071 29.0287 24.5093 29.05 24.6125 29.05L24.8 29.0375M25.5125 24.975L25.3125 24.85C25.1965 24.7723 25.095 24.675 25.0125 24.5625L24.925 24.4375M25.675 23.9875L25.7375 24.15L25.8875 24.3625C25.975 24.4625 26.05 24.4875 26.1625 24.5625M26.3 23.975L26.3625 24.125L26.45 24.25L26.575 24.375C26.65 24.4375 26.7 24.45 26.775 24.5" stroke="#C7B37F" stroke-width="0.0625" stroke-linecap="round"/>
<path d="M33.3246 23.1625C33.3246 22.9875 33.1621 22.975 33.0871 22.975C32.9121 22.975 32.8621 23.1 32.6246 23.225C32.4258 23.3472 32.1954 23.408 31.9621 23.4C31.7229 23.4109 31.4864 23.3452 31.2871 23.2125C31.0496 23.0875 31.0121 22.975 30.8371 22.975C30.7371 22.975 30.5996 23.0625 30.6121 23.225V23.3125C30.6121 23.3125 30.6371 23.3125 30.6371 23.3375C30.6371 23.25 30.6496 23.2125 30.6871 23.1625C30.7065 23.1372 30.731 23.1164 30.759 23.1013C30.787 23.0862 30.8179 23.0773 30.8496 23.075C31.0371 23.075 31.0996 23.2 31.3371 23.325C31.5346 23.4515 31.7651 23.5168 31.9996 23.5125C32.2496 23.5125 32.3871 23.475 32.6746 23.325C32.9121 23.2 32.9746 23.075 33.1621 23.075C33.2246 23.075 33.2621 23.1125 33.2871 23.175V23.2625H33.3121C33.3121 23.25 33.3371 23.2375 33.3246 23.1625Z" fill="#703D29" stroke="#703D29" stroke-width="0.0125"/>
<path d="M26.4371 37.4C26.4871 37.35 26.5371 37.3625 26.5371 37.3375L26.5121 37.3125L26.4246 37.2875L26.3371 37.25C26.3371 37.25 26.2996 37.225 26.2871 37.25C26.2871 37.2875 26.3996 37.2875 26.3496 37.3875C26.3496 37.4125 26.3371 37.45 26.2746 37.5125L26.0121 37.8L25.9871 37.825V37.375L25.9996 37.2C26.0246 37.15 26.0746 37.2 26.0871 37.1625C26.0871 37.1375 26.0871 37.1375 26.0621 37.125C26.0371 37.125 26.0121 37.125 25.9371 37.0875L25.8496 37.05C25.8371 37.05 25.7996 37.025 25.7871 37.05L25.7996 37.075C25.8371 37.1 25.8496 37.1125 25.8496 37.1625V37.9125C25.8496 37.9625 25.8621 37.9875 25.8746 37.9875L25.9121 37.9625L26.4371 37.3875V37.4Z" fill="#703D29"/>
<path d="M26.7504 37.5125C26.7879 37.4125 26.8504 37.475 26.8629 37.4375L26.8254 37.4125L26.7004 37.375L26.5754 37.325H26.5379C26.5379 37.375 26.6629 37.375 26.6254 37.4875L26.4504 38.0375C26.4129 38.1375 26.3504 38.0875 26.3379 38.125V38.1375L26.4629 38.175L26.6129 38.225H26.6504C26.6629 38.1875 26.5254 38.2 26.5754 38.0625L26.7504 37.5125ZM27.1254 37.6375C27.1379 37.5625 27.1754 37.5625 27.2129 37.575C27.3129 37.6125 27.3379 37.7125 27.3129 37.825C27.2879 37.8875 27.2629 37.95 27.1129 37.9125C27.0754 37.9 27.0379 37.8875 27.0504 37.8625L27.1254 37.6375ZM26.8379 38.125C26.7879 38.2625 26.7129 38.2 26.7129 38.25L26.7379 38.2625L26.9004 38.3125L26.9879 38.3375H27.0254C27.0254 38.2875 26.9129 38.3125 26.9504 38.1875L27.0129 37.9875C27.0129 37.95 27.0129 37.9375 27.0754 37.95C27.1254 37.975 27.1379 37.9875 27.1504 38.0375L27.1879 38.25C27.1879 38.325 27.2129 38.4125 27.2879 38.425C27.3254 38.45 27.4129 38.4375 27.4129 38.4V38.3875H27.3754L27.3379 38.35L27.2754 37.975L27.3504 37.95C27.3879 37.925 27.4254 37.9 27.4504 37.825C27.4629 37.775 27.4879 37.6125 27.2629 37.5375L27.0629 37.4875L26.9379 37.45H26.9129C26.9004 37.5 27.0254 37.4875 26.9879 37.6125L26.8379 38.1125V38.125ZM27.6754 38.375C27.6504 38.5 27.5504 38.425 27.5254 38.4625C27.5254 38.4875 27.5379 38.5 27.5629 38.5L27.7129 38.525L27.8504 38.575L27.9129 38.5625C27.9129 38.525 27.7754 38.525 27.8129 38.3875L27.9379 37.8625C27.9379 37.8 27.9629 37.8 28.0004 37.8125L28.0879 37.8375C28.2129 37.8625 28.1504 37.975 28.1879 37.9875C28.2254 37.9875 28.2129 37.95 28.2254 37.925V37.7875L27.9004 37.7125L27.5879 37.6375C27.5629 37.6375 27.5629 37.6375 27.5629 37.6625L27.5004 37.8125V37.85C27.5629 37.8625 27.5629 37.7 27.6754 37.725L27.7629 37.75C27.8129 37.7625 27.8254 37.775 27.8129 37.825L27.6879 38.3625L27.6754 38.375ZM28.9504 38.0375C28.9879 37.975 29.0379 37.9875 29.0379 37.9625L29.0004 37.9375H28.9129L28.8254 37.9125C28.8129 37.9125 28.7754 37.9 28.7754 37.9125C28.7754 37.9625 28.8879 37.9375 28.8629 38.0375C28.8629 38.0625 28.8504 38.1125 28.8004 38.175L28.5879 38.5125L28.5754 38.5375V38.5L28.5004 38.1C28.488 38.0468 28.4838 37.992 28.4879 37.9375C28.4879 37.8875 28.5504 37.9125 28.5629 37.875L28.5254 37.85L28.4004 37.8375L28.3004 37.8125C28.2879 37.8125 28.2504 37.8 28.2504 37.8125L28.2629 37.8375C28.3129 37.8625 28.3254 37.875 28.3254 37.925L28.4629 38.6625C28.4754 38.7125 28.4879 38.725 28.5004 38.725L28.5254 38.7L28.9504 38.0375ZM29.0129 38.7125L29.0254 38.7625L29.2004 38.8375C29.3379 38.8625 29.4504 38.775 29.4879 38.625C29.5129 38.475 29.4504 38.4125 29.3379 38.3375C29.2129 38.2375 29.1504 38.2125 29.1754 38.1375C29.1754 38.0625 29.2379 38.0125 29.3004 38.0375C29.4879 38.0625 29.4754 38.2875 29.5004 38.2875C29.5129 38.2875 29.5254 38.2875 29.5254 38.25L29.5379 38.0875V38.05H29.4754C29.4379 38.05 29.4129 38 29.3254 37.9875C29.2004 37.9625 29.1004 38.05 29.0754 38.1875C29.0504 38.3125 29.1004 38.3625 29.2004 38.425C29.3504 38.5375 29.4129 38.55 29.4004 38.6625C29.3754 38.75 29.3004 38.8 29.2254 38.7875C29.1004 38.7625 29.0629 38.65 29.0379 38.5375L29.0254 38.5C29.0004 38.5 29.0004 38.5375 29.0004 38.55V38.7125H29.0129ZM30.5879 38.275C30.6254 38.2 30.6629 38.2125 30.6754 38.1875C30.6754 38.1625 30.6504 38.1625 30.6379 38.1625H30.5379L30.4504 38.15L30.4004 38.1625C30.4004 38.2125 30.5254 38.1625 30.5004 38.2875C30.5004 38.3 30.5004 38.35 30.4629 38.4125L30.2879 38.775L30.2629 38.8V38.775L30.1379 38.375C30.1213 38.3224 30.1128 38.2676 30.1129 38.2125C30.1129 38.1625 30.1879 38.175 30.1879 38.15C30.1879 38.125 30.1879 38.125 30.1504 38.125H30.0254L29.9254 38.1125C29.9129 38.1125 29.8754 38.1 29.8754 38.1125L29.8879 38.1375C29.9379 38.1625 29.9504 38.175 29.9629 38.2125L30.1754 38.9375C30.1879 38.9875 30.2004 39 30.2129 39L30.2379 38.9625L30.5879 38.275Z" fill="#703D29"/>
<path d="M30.7504 38.85C30.7504 38.975 30.6504 38.95 30.6504 39H30.7754L30.9004 39.0125L30.9504 39C30.9504 38.9375 30.8129 39.025 30.8129 38.7875V38.3625C30.8129 38.3625 30.8379 38.3625 30.8504 38.3875L31.3504 39.0125H31.3879V38.9875L31.4004 38.325C31.4004 38.2 31.5004 38.225 31.5004 38.1875L31.4754 38.175H31.2254V38.1875C31.2254 38.225 31.3504 38.2125 31.3504 38.3125V38.7125L31.3379 38.7625L31.3004 38.725L30.8754 38.2C30.8629 38.175 30.8754 38.1625 30.8379 38.1625H30.6629L30.6504 38.1875C30.6504 38.2375 30.7754 38.1625 30.7629 38.4V38.85H30.7504ZM31.8004 38.3125C31.8004 38.1875 31.8754 38.2375 31.8754 38.2L31.8379 38.1875H31.5504C31.5504 38.2375 31.6629 38.2 31.6629 38.3125V38.8875C31.6629 39.0125 31.5879 38.975 31.5879 39.0125V39.025H31.8754L31.9129 39.0125C31.9129 38.975 31.7879 39.025 31.7879 38.8875L31.8004 38.3125ZM32.2504 38.8625C32.2504 39.0125 32.1254 38.95 32.1254 38.9875C32.1254 39.025 32.1504 39.025 32.1629 39.025H32.4629C32.5004 39.025 32.5254 39.025 32.5254 39C32.5254 38.9625 32.3879 39 32.3879 38.85V38.3125C32.3879 38.25 32.3879 38.25 32.4254 38.25H32.5254C32.6504 38.25 32.6129 38.375 32.6504 38.375C32.6879 38.375 32.6754 38.325 32.6754 38.3125L32.6629 38.2C32.6629 38.2 32.6629 38.175 32.6379 38.175H32.0004C31.9754 38.175 31.9754 38.2 31.9754 38.2125L31.9629 38.3625L31.9754 38.4125C32.0254 38.4125 31.9879 38.25 32.1129 38.25H32.2004C32.2504 38.25 32.2629 38.25 32.2629 38.3125V38.8625H32.2504ZM32.8754 38.6375H32.8379V38.5875L32.9129 38.3625H32.9254L33.0504 38.575V38.6125L33.0254 38.625L32.8754 38.6375ZM33.0629 38.6875C33.0879 38.6875 33.1004 38.6875 33.1379 38.7875L33.1629 38.8625C33.1629 38.9375 33.0879 38.9375 33.0879 38.9625C33.0879 38.9875 33.1129 38.975 33.1254 38.975H33.2504L33.3754 38.9625C33.4129 38.9625 33.4254 38.9625 33.4254 38.9375C33.4254 38.9 33.3629 38.95 33.3254 38.8625L32.9754 38.1625L32.9504 38.125L32.9254 38.175L32.6879 38.9125C32.6629 38.975 32.6129 38.975 32.6129 39C32.6129 39.025 32.6379 39.0125 32.6504 39.0125H32.8379C32.8629 39 32.9004 39.0125 32.9004 38.975C32.9004 38.95 32.7754 38.975 32.7754 38.8875L32.7879 38.8C32.8129 38.7125 32.8254 38.7125 32.8504 38.7125L33.0629 38.6875ZM33.8879 38.1875C33.8879 38.1125 33.8879 38.1125 34.0129 38.1C34.2129 38.0625 34.1504 38.225 34.2004 38.2125C34.2254 38.2125 34.2129 38.1625 34.2129 38.15L34.2004 38.025H34.1754L33.9254 38.05L33.6504 38.0875C33.6254 38.0875 33.6254 38.0875 33.6254 38.1125C33.6254 38.15 33.7504 38.1125 33.7504 38.2125L33.8254 38.7625C33.8504 38.9125 33.7629 38.85 33.7629 38.9125H33.7879L33.9254 38.9L34.0504 38.8875C34.0754 38.8875 34.1004 38.8875 34.1004 38.8625C34.1004 38.825 33.9754 38.8625 33.9629 38.7375L33.9379 38.5625C33.9379 38.5 33.9254 38.4875 33.9754 38.475H34.0504C34.1629 38.45 34.1504 38.5875 34.1754 38.575C34.2129 38.575 34.2004 38.5375 34.1879 38.5125L34.1629 38.3125C34.1629 38.275 34.1379 38.275 34.1379 38.275C34.1129 38.275 34.1254 38.4 34.0379 38.4L33.9629 38.4125C33.9129 38.4125 33.9129 38.4125 33.9129 38.3625L33.8879 38.1875ZM34.2879 38.4625C34.3254 38.7125 34.5004 38.8375 34.7129 38.8C35.0504 38.7375 35.0629 38.425 35.0254 38.275C34.9879 38.025 34.8004 37.9 34.5879 37.9375C34.3379 37.9875 34.2379 38.2125 34.2879 38.4625ZM34.4004 38.375C34.3629 38.2 34.4004 38.0375 34.5754 38C34.7004 37.9625 34.8629 38.075 34.9129 38.3375C34.9504 38.5375 34.9129 38.7125 34.7379 38.7375C34.5504 38.775 34.4379 38.55 34.4004 38.375ZM35.2379 37.9625C35.2129 37.8875 35.2504 37.875 35.2879 37.875C35.3879 37.85 35.4754 37.9125 35.5004 38.0375C35.5129 38.1 35.5254 38.1625 35.3754 38.2C35.3379 38.2125 35.3004 38.225 35.2879 38.2L35.2379 37.95V37.9625ZM35.2379 38.525C35.2754 38.675 35.1754 38.65 35.1879 38.6875C35.1879 38.7125 35.2129 38.7125 35.2254 38.7L35.3879 38.6625L35.4754 38.65C35.5004 38.65 35.5004 38.625 35.5004 38.625C35.5004 38.575 35.4004 38.65 35.3754 38.525L35.3254 38.325C35.3129 38.2875 35.3004 38.275 35.3629 38.2625C35.4129 38.2625 35.4379 38.2625 35.4754 38.3L35.6004 38.4625C35.6504 38.525 35.7004 38.5875 35.7879 38.575C35.8254 38.5625 35.8879 38.5125 35.8754 38.4875C35.8754 38.475 35.8754 38.4625 35.8629 38.475H35.7879L35.5379 38.1875L35.6004 38.125C35.6129 38.0875 35.6379 38.0375 35.6254 37.9625C35.6129 37.9125 35.5504 37.75 35.3129 37.8125L35.1129 37.8625L34.9879 37.8875L34.9629 37.9125C34.9754 37.9625 35.0879 37.8875 35.1129 38.0125L35.2379 38.525ZM36.1004 38.3375C36.1379 38.4625 36.0004 38.45 36.0129 38.4875C36.0129 38.5125 36.0379 38.5125 36.0504 38.5125L36.2004 38.4625L36.3504 38.425C36.3754 38.425 36.4004 38.425 36.3879 38.4C36.3879 38.3625 36.2629 38.425 36.2254 38.2875L36.0879 37.7625C36.0754 37.7125 36.0879 37.7 36.1254 37.6875L36.2129 37.6625C36.3379 37.625 36.3379 37.7625 36.3754 37.7625C36.4004 37.7625 36.3754 37.7125 36.3754 37.7L36.3254 37.5875C36.3254 37.5875 36.3254 37.5625 36.3004 37.5625L35.9879 37.65L35.6754 37.7375C35.6504 37.7375 35.6629 37.75 35.6629 37.7625L35.6879 37.925C35.6879 37.9375 35.6879 37.9625 35.7129 37.9625C35.7504 37.95 35.6879 37.8 35.8004 37.775L35.8879 37.75C35.9254 37.75 35.9379 37.75 35.9629 37.8L36.0879 38.3375H36.1004ZM36.6504 37.6C36.6129 37.4875 36.7004 37.5125 36.6879 37.475H36.6504C36.6004 37.475 36.5629 37.5 36.5254 37.5125L36.4004 37.5375C36.4004 37.5375 36.3629 37.5375 36.3754 37.5625C36.3754 37.6 36.5004 37.5375 36.5254 37.6375L36.6754 38.1875C36.7004 38.3125 36.6254 38.2875 36.6379 38.3375L36.7629 38.3125L36.9254 38.275C36.9504 38.2625 36.9504 38.25 36.9504 38.2375C36.9504 38.2 36.8379 38.2875 36.8004 38.15L36.6504 37.6ZM36.8754 37.8625C36.9504 38.1 37.1379 38.2 37.3504 38.1375C37.6754 38.025 37.6379 37.725 37.5879 37.575C37.5129 37.325 37.3004 37.2375 37.1129 37.3C36.8629 37.3875 36.7879 37.625 36.8754 37.8625ZM36.9754 37.7625C36.9254 37.6 36.9254 37.425 37.1004 37.3625C37.2254 37.3125 37.3879 37.4 37.4754 37.6625C37.5379 37.85 37.5379 38.0125 37.3504 38.075C37.1754 38.1375 37.0379 37.925 36.9754 37.7625ZM37.7379 37.225C37.7129 37.15 37.7379 37.1375 37.7879 37.125C37.8879 37.0875 37.9754 37.15 38.0129 37.25C38.0379 37.325 38.0629 37.375 37.9129 37.45C37.8754 37.45 37.8379 37.475 37.8254 37.45L37.7379 37.225ZM37.8254 37.7875C37.8754 37.9125 37.7754 37.9125 37.8004 37.95C37.8004 37.975 37.8254 37.9625 37.8379 37.95C37.8879 37.95 37.9379 37.9125 37.9879 37.9L38.0754 37.8625C38.1004 37.8625 38.1004 37.85 38.1004 37.8375C38.0879 37.8 38.0004 37.875 37.9504 37.7625L37.8754 37.575C37.8754 37.525 37.8504 37.525 37.9129 37.5C37.9629 37.4875 37.9754 37.4875 38.0254 37.525L38.1754 37.675C38.2379 37.725 38.3004 37.775 38.3754 37.75C38.4129 37.7375 38.4629 37.6875 38.4504 37.65C38.4504 37.65 38.4504 37.6375 38.4379 37.65H38.3629L38.0879 37.4L38.1254 37.3375C38.1379 37.3 38.1504 37.25 38.1254 37.175C38.1004 37.125 38.0254 36.975 37.8004 37.0625L37.6004 37.15L37.4754 37.1875V37.2125C37.4879 37.25 37.5754 37.1625 37.6254 37.2875L37.8254 37.7875Z" fill="#703D29"/>
<path d="M26.4121 25.5552H31.6665V30.8032H26.4121V25.5552Z" fill="#D52B1E"/>
<path d="M28.8761 29.6832C28.8761 29.6832 28.8761 29.8752 28.8249 30.0224C28.7609 30.1952 28.7609 30.1952 28.7033 30.2784C28.6412 30.3799 28.5583 30.4672 28.4601 30.5344C28.3321 30.6112 28.2041 30.6496 28.0761 30.6368C27.7305 30.6112 27.5641 30.2272 27.4873 29.92C27.4041 29.5936 27.1673 29.408 27.0073 29.536C26.9177 29.6 26.9177 29.7152 26.9881 29.8304C27.0571 29.9136 27.148 29.9757 27.2505 30.0096L27.0649 30.2464C27.0649 30.2464 26.6617 30.1952 26.5849 29.7728C26.5529 29.6128 26.6297 29.3184 26.8985 29.2288C27.2377 29.1136 27.4489 29.3568 27.5577 29.5616C27.6985 29.8432 27.7625 30.3552 28.1593 30.2784C28.3769 30.2336 28.4793 29.92 28.4793 29.7728L28.6329 29.6064L28.8697 29.6832H28.8761Z" fill="white"/>
<path d="M29.202 29.6832C29.202 29.6832 29.202 29.8752 29.2532 30.0224C29.3172 30.1952 29.3172 30.1952 29.3748 30.2784C29.4369 30.3799 29.5198 30.4672 29.618 30.5344C29.746 30.6112 29.874 30.6496 30.002 30.6368C30.3476 30.6112 30.514 30.2272 30.5908 29.92C30.674 29.5936 30.9108 29.408 31.0708 29.536C31.1604 29.6 31.1604 29.7152 31.09 29.8304C31.021 29.9136 30.9301 29.9757 30.8276 30.0096L31.0132 30.2464C31.0132 30.2464 31.4164 30.1952 31.4932 29.7728C31.5252 29.6128 31.4484 29.3184 31.1796 29.2288C30.8404 29.1136 30.6292 29.3568 30.5204 29.5616C30.3796 29.8432 30.3156 30.3552 29.9188 30.2784C29.7012 30.2336 29.5988 29.92 29.5988 29.7728L29.4452 29.6064L29.2084 29.6832H29.202Z" fill="white"/>
<path d="M29.5089 27.456L30.2001 26.7072C30.2001 26.7072 30.3025 26.624 30.3025 26.4896L30.1617 26.5152L30.1297 26.4384L30.1233 26.368L30.3153 26.3232V26.24L30.3345 26.1568L30.1297 26.1696L30.1489 26.08L30.1809 26.016L30.3025 25.9904H30.4241C30.5393 25.7728 31.0129 25.5808 31.3457 25.9264C31.5889 26.1824 31.5377 26.6432 31.2177 26.7712C31.1462 26.803 31.0669 26.8133 30.9897 26.8008C30.9124 26.7883 30.8404 26.7535 30.7825 26.7008L30.9105 26.4448C31.0833 26.5536 31.2305 26.4256 31.2177 26.2912C31.2049 26.1184 31.0897 26.016 30.9425 26.0032C30.7953 25.9904 30.6865 26.0672 30.6225 26.1952C30.5841 26.2784 30.6033 26.336 30.5905 26.4256C30.5777 26.5216 30.5905 26.5728 30.5585 26.6688C30.5273 26.7572 30.4745 26.8364 30.4049 26.8992L29.7009 27.6672L26.9489 30.6368L26.7441 30.4448L29.5089 27.456Z" fill="#FEDF00"/>
<path d="M27.4883 27.712C27.4883 27.712 27.6611 28.5696 28.2499 29.856C28.5507 29.7472 28.7235 29.6768 29.0435 29.6768C29.3571 29.6768 29.5299 29.7408 29.8307 29.856C30.1583 29.1697 30.4136 28.4512 30.5923 27.712L29.0435 25.728L27.4883 27.712Z" fill="white"/>
<path d="M29.1905 26.3936L30.2657 27.7824C30.2657 27.7824 30.1249 28.4544 29.6897 29.4656C29.5169 29.4272 29.3697 29.3952 29.1905 29.3824V26.3936ZM28.8897 26.3936L27.8145 27.7824C27.8145 27.7824 27.9553 28.4544 28.3905 29.4656C28.5633 29.4272 28.7105 29.3952 28.8897 29.3824V26.3936Z" fill="#FEDF00"/>
<path d="M32.2246 25.55H37.4996V30.8H32.2496L32.2246 25.55Z" fill="#FEDF00"/>
<path d="M32.9629 25.55H33.7504V30.8H32.9629V25.55ZM34.4629 25.55H35.2504V30.8H34.4754L34.4629 25.55ZM35.9629 25.55H36.7504V30.8H35.9754L35.9629 25.55Z" fill="#D52B1E"/>
<path d="M26.4246 35.35C26.4496 35.45 26.4746 35.6 26.5621 35.775C26.6621 35.925 26.6246 35.925 26.8371 36.15C27.0686 36.3755 27.3588 36.5314 27.6746 36.6C28.0996 36.725 28.3871 36.725 28.7371 36.7125C29.0121 36.7 29.2246 36.6625 29.3996 36.6375C29.6496 36.6125 29.8246 36.5875 30.1121 36.575C30.2412 36.5687 30.3705 36.5687 30.4996 36.575C30.6496 36.575 30.7996 36.6125 30.9621 36.6375C31.3121 36.7125 31.6621 36.85 31.6621 36.85V31.3625H26.4121V35.1125L26.4246 35.35Z" fill="#FEDF00"/>
<path d="M27.0371 36.3125L27.2871 36.4625L27.6246 36.5875V31.3625H27.0371V36.3125ZM29.9621 36.5625V31.3625H29.3746V36.6375L29.9621 36.575V36.5625ZM31.1246 31.3625H30.5496V36.575C30.7435 36.5938 30.9357 36.6273 31.1246 36.675V31.3625ZM28.7996 31.3625V36.7H28.2121V31.3625H28.7996Z" fill="#D52B1E" stroke="#D52B1E" stroke-width="0.0375"/>
<path d="M37.4721 35.3536C37.4492 35.5013 37.4016 35.6441 37.3313 35.776C37.2353 35.9232 37.2673 35.9232 37.0561 36.16C36.8272 36.3857 36.5385 36.5412 36.2241 36.608C35.8778 36.6993 35.519 36.7339 35.1617 36.7104C34.8865 36.6976 34.6817 36.6656 34.5025 36.6464C34.2593 36.608 34.0737 36.5888 33.7985 36.5824C33.6663 36.5759 33.5339 36.5759 33.4017 36.5824C33.0024 36.6276 32.6095 36.7177 32.2305 36.8512V31.36H37.4913V35.104L37.4721 35.3536Z" fill="#FEDF00"/>
<path d="M33.5745 31.808L33.5361 31.8208L33.4849 31.872C33.4593 31.8976 33.4401 31.904 33.4081 31.9232L33.3697 31.9552C33.3505 31.9744 33.3697 31.9936 33.3505 32.0192C33.3441 32.0448 33.3313 32.0576 33.3121 32.0832C33.2865 32.1088 33.2673 32.1152 33.2481 32.1472L33.1713 32.2112L33.1521 32.2176H33.1137C33.0881 32.2304 33.0817 32.256 33.0625 32.2688L33.0817 32.3072L33.1329 32.3968C33.1457 32.416 33.1457 32.4416 33.1649 32.448C33.1969 32.4608 33.2225 32.4608 33.2481 32.4544C33.2993 32.4672 33.3313 32.4672 33.3761 32.4864L33.4721 32.5376C33.5041 32.5568 33.5233 32.5632 33.5553 32.5696H33.6705V32.5888L33.7985 32.6528C33.7953 32.661 33.7932 32.6696 33.7921 32.6784C33.7857 32.6976 33.7793 32.7232 33.7857 32.7296C33.8241 32.8512 33.8625 32.9216 33.8817 32.9344C33.9201 32.9472 33.9329 32.992 33.9521 33.0304L33.9329 33.0496C33.8945 33.088 33.8561 33.1136 33.8241 33.1648C33.7793 33.2416 33.7473 33.2416 33.8049 33.344L33.9009 33.4976C33.9265 33.5424 33.9393 33.5744 33.9521 33.6256C33.9649 33.6704 33.9713 33.7024 33.9713 33.7536L34.0353 33.7728L34.0801 33.7344L34.1185 33.6576V33.5936C34.1057 33.5872 34.0993 33.568 34.1057 33.5488C34.1057 33.5232 34.1377 33.5296 34.1505 33.5104C34.1697 33.4784 34.1249 33.4592 34.1057 33.44C34.0673 33.3952 34.0161 33.3824 34.0033 33.3184C34.0033 33.3056 34.0033 33.2928 34.0289 33.2736L34.1569 33.1584C34.1697 33.1648 34.1953 33.1712 34.2209 33.1648L34.3041 33.1904C34.3425 33.2032 34.3617 33.1904 34.3809 33.1904H34.4065L34.4129 33.2288C34.4193 33.2928 34.4065 33.4208 34.4257 33.4528L34.4449 33.4912L34.4577 33.5296V33.6576L34.4449 33.7664C34.4449 33.792 34.4321 33.8112 34.4129 33.8304C34.4001 33.856 34.3745 33.856 34.3489 33.8752V33.9392L34.4193 33.9712L34.5025 33.9904L34.5473 33.9712L34.5537 33.9328L34.5857 33.9008C34.6113 33.888 34.6369 33.9008 34.6433 33.8944C34.6561 33.8752 34.6433 33.8688 34.6433 33.8432C34.6433 33.8048 34.6305 33.7792 34.6241 33.7408C34.6149 33.6815 34.6127 33.6214 34.6177 33.5616C34.6177 33.5232 34.6177 33.4976 34.6305 33.4656C34.6369 33.4016 34.6561 33.376 34.6689 33.3248C34.6881 33.2608 34.6881 33.2224 34.6945 33.1648C34.9103 33.1973 35.1305 33.1842 35.3409 33.1264C35.3921 33.1712 35.4497 33.2032 35.5137 33.2288V33.2928C35.5137 33.312 35.5137 33.3184 35.5265 33.3376L35.5457 33.3568C35.5649 33.3568 35.5777 33.3568 35.5905 33.344C35.6033 33.3312 35.6033 33.3184 35.6033 33.2992V33.2544H35.7185V33.3248C35.7249 33.344 35.7377 33.3504 35.7505 33.3504C35.7565 33.3532 35.7631 33.3547 35.7697 33.3547C35.7763 33.3547 35.7829 33.3532 35.7889 33.3504C35.8081 33.3376 35.8017 33.312 35.8081 33.2864V33.2416L35.8721 33.216C35.8738 33.2352 35.8738 33.2544 35.8721 33.2736L35.8529 33.3312C35.8401 33.3696 35.8209 33.3824 35.8017 33.4208C35.7761 33.4592 35.7697 33.4848 35.7377 33.5168L35.6993 33.5616L35.6609 33.6192L35.6033 33.6832C35.5585 33.7216 35.5265 33.696 35.4753 33.7408L35.4561 33.8048L35.5457 33.8432L35.6289 33.856L35.6545 33.8432C35.6545 33.824 35.6545 33.8048 35.6737 33.792C35.6865 33.7728 35.6993 33.7728 35.7185 33.7664C35.7441 33.7664 35.7697 33.7664 35.7825 33.7536C35.8081 33.7344 35.8081 33.6896 35.8273 33.6576C35.8744 33.5627 35.9396 33.4779 36.0193 33.408L36.1281 33.3184C36.1409 33.2928 36.1601 33.2864 36.1601 33.2544L36.1473 33.216L36.1345 33.152C36.2305 33.1968 36.1985 33.1968 36.2113 33.2416C36.2305 33.28 36.2113 33.3056 36.2177 33.3504C36.2241 33.4016 36.2497 33.4208 36.2497 33.472C36.2561 33.5296 36.2433 33.5616 36.2305 33.6192C36.2241 33.6704 36.2241 33.7024 36.1985 33.7472C36.1833 33.7845 36.1592 33.8175 36.1281 33.8432L36.0897 33.8752L36.0833 33.9392L36.1537 33.9648L36.2561 33.9904L36.2817 33.9712C36.2945 33.9264 36.2817 33.8624 36.3073 33.8624C36.3329 33.856 36.3521 33.8624 36.3585 33.8432V33.7984L36.4033 33.5104L36.4289 33.3888L36.4545 33.28C36.4993 33.152 36.4417 33.1328 36.3905 33.0496C36.3585 33.0048 36.3457 32.9856 36.3457 32.9536V32.768C36.3438 32.7083 36.3438 32.6485 36.3457 32.5888L36.3713 32.576C36.4481 32.5312 36.4801 32.5184 36.5249 32.416C36.5385 32.3859 36.5451 32.353 36.5441 32.32V32.256L36.5185 32.192C36.5085 32.173 36.4955 32.1557 36.4801 32.1408C36.4353 32.0768 36.3713 32.0704 36.3073 32.0448C36.2113 32.0128 36.1473 32.0192 36.0513 32.0128C35.9361 32 35.8785 32 35.7697 32.0128C35.6417 32.0128 35.5713 32.0384 35.4433 32.0576L35.1297 32.0832C34.9825 32.0832 34.8481 32.0512 34.7585 32.0576C34.6049 32.0704 34.5985 32.1088 34.3617 32.128C34.2808 32.1346 34.1997 32.1388 34.1185 32.1408L33.9777 32.096C34.0353 32.0768 34.0481 32.064 34.0737 32.032C34.0929 32.0064 34.0865 31.9872 34.1121 31.9616L34.1569 31.8976C34.1399 31.8848 34.1202 31.8761 34.0993 31.872H34.0353C34.0086 31.873 33.9825 31.8795 33.9585 31.8912L33.9073 31.9296L33.7665 31.8528C33.7065 31.8223 33.6414 31.8028 33.5745 31.7952V31.808Z" fill="#D52B1E"/>
<path d="M36.403 32.608L36.3518 32.6272C36.2942 32.6528 36.2494 32.6528 36.1854 32.6592C36.019 32.672 35.9102 32.5888 35.7374 32.6016C35.6478 32.608 35.6094 32.6784 35.5134 32.704C35.4777 32.7116 35.4412 32.7159 35.4046 32.7168L35.4366 32.6528C35.4366 32.6528 35.3598 32.672 35.3086 32.672C35.2742 32.6714 35.2398 32.6671 35.2062 32.6592L35.2702 32.5952L35.187 32.5824C35.1635 32.5708 35.142 32.5557 35.123 32.5376C35.1596 32.5327 35.1959 32.5263 35.2318 32.5184C35.3278 32.4928 35.3598 32.4416 35.4814 32.4288C35.5518 32.4288 35.6734 32.4288 35.9678 32.48C36.1598 32.512 36.2494 32.4928 36.3198 32.4608C36.371 32.4416 36.3838 32.3968 36.3902 32.3456C36.3966 32.2944 36.3646 32.256 36.339 32.2304C36.3326 32.2304 36.307 32.2112 36.2686 32.2048" stroke="#FEDF00" stroke-width="0.064" stroke-linecap="round"/>
<path d="M33.5867 32.0384C33.5547 32.0384 33.5291 32.0384 33.5035 32.0576C33.4715 32.0768 33.4651 32.1024 33.4395 32.128C33.4715 32.1344 33.4907 32.1536 33.5163 32.1472C33.5419 32.1472 33.5483 32.1344 33.5675 32.1152C33.5867 32.0896 33.5931 32.0704 33.5931 32.0384H33.5867Z" fill="#FCD900" stroke="#FEDF00" stroke-width="0.032"/>
<path d="M34.3045 32.8832C34.3213 32.9341 34.3427 32.9834 34.3685 33.0304C34.3813 33.0816 34.3685 33.1072 34.3813 33.1584V33.2608M34.8165 32.8128L34.7973 32.896L34.7333 33.12V33.1648M34.0293 32.9088C34.0869 32.9216 34.0677 33.12 34.1509 33.1648" stroke="#FEDF00" stroke-width="0.064" stroke-linecap="round"/>
<path d="M35.8457 33.2672L35.8713 33.248C35.936 33.2215 35.9948 33.1823 36.0441 33.1328" stroke="#FEDF00" stroke-width="0.064"/>
<path d="M35.3535 33.152C35.5775 33.0944 35.7311 32.9856 35.8399 32.9664M35.5839 32.8704H35.6351C35.7311 32.8512 35.7439 32.9088 35.8079 32.9472C35.9295 33.0112 35.9423 33.0944 36.0831 33.1648L36.1087 33.1712L36.1599 33.1968" stroke="#FEDF00" stroke-width="0.064" stroke-linecap="round"/>
<path d="M33.1328 32.288H33.1776L33.2288 32.2752C33.248 32.2752 33.2608 32.2752 33.2736 32.288C33.2864 32.288 33.2864 32.2944 33.2928 32.3072C33.2928 32.32 33.3056 32.3264 33.2992 32.3392C33.2992 32.352 33.28 32.3648 33.2608 32.3648C33.248 32.3648 33.2352 32.3648 33.2288 32.3456C33.2271 32.3416 33.2261 32.3372 33.2261 32.3328C33.2261 32.3284 33.2271 32.324 33.2288 32.32C33.2199 32.3245 33.21 32.3269 33.2 32.3269C33.19 32.3269 33.1801 32.3245 33.1712 32.32C33.163 32.3175 33.1554 32.3134 33.1488 32.3079C33.1422 32.3024 33.1367 32.2956 33.1328 32.288Z" fill="#FCD900" stroke="#FEDF00" stroke-width="0.032"/>
<path d="M33.6063 32.9088L33.4783 32.8512C33.5039 32.8384 33.5231 32.8384 33.5423 32.8192C33.5615 32.7936 33.5615 32.768 33.5743 32.736C33.5871 32.704 33.5871 32.672 33.6191 32.6464C33.6383 32.6336 33.6703 32.6336 33.6895 32.64C33.7151 32.64 33.7407 32.6656 33.7471 32.6848C33.7471 32.7232 33.7343 32.7488 33.7279 32.7808C33.7279 32.8192 33.7087 32.8384 33.7151 32.8704C33.7151 32.896 33.7279 32.9088 33.7407 32.9344L33.6127 32.9088H33.6063ZM33.5423 32.9728C33.5412 32.9653 33.5423 32.9577 33.5454 32.9509C33.5486 32.944 33.5537 32.9383 33.5602 32.9343C33.5666 32.9303 33.5741 32.9284 33.5816 32.9286C33.5891 32.9289 33.5964 32.9314 33.6026 32.9358C33.6087 32.9402 33.6134 32.9463 33.6161 32.9533C33.6188 32.9604 33.6194 32.9681 33.6177 32.9754C33.6161 32.9828 33.6123 32.9895 33.6069 32.9947C33.6014 33 33.5945 33.0035 33.5871 33.0048C33.5816 33.0057 33.5759 33.0055 33.5704 33.0039C33.565 33.0024 33.56 32.9998 33.5557 32.9961C33.5514 32.9924 33.548 32.9879 33.5457 32.9827C33.5434 32.9776 33.5422 32.972 33.5423 32.9664V32.9728ZM33.4335 31.9104H33.4207C33.3951 31.8848 33.3951 31.8592 33.3823 31.8336C33.372 31.8092 33.3655 31.7832 33.3631 31.7568V31.6288C33.3631 31.6096 33.3631 31.5904 33.3503 31.5712C33.3503 31.5584 33.3247 31.552 33.3311 31.5456C33.3311 31.5392 33.3503 31.5456 33.3567 31.5456C33.3823 31.5456 33.3951 31.552 33.4207 31.5712C33.4399 31.5904 33.4527 31.6096 33.4591 31.6352L33.4847 31.7312L33.5039 31.7824L33.5359 31.8208L33.4911 31.872L33.4335 31.9104ZM33.6639 32.5888L33.8047 32.6528C33.9011 32.5948 33.9788 32.5104 34.0287 32.4096C34.0863 32.2944 34.0927 32.2368 34.1183 32.128L34.0031 32.096H33.9775C33.9455 32.2112 33.9327 32.2688 33.8751 32.3648C33.8239 32.448 33.7663 32.512 33.7087 32.5568L33.6639 32.5888ZM33.9839 33.7536L34.0351 33.6704L34.1247 33.6H34.1503C34.1495 33.6611 34.1387 33.7216 34.1183 33.7792L34.0927 33.8432L34.0607 33.8752C34.0287 33.824 33.9775 33.792 33.9775 33.7472L33.9839 33.7536ZM36.0959 33.8688L36.1855 33.9072L36.2815 33.9648V33.9968L36.1855 34.0096C36.1578 34.0118 36.13 34.0118 36.1023 34.0096H36.0383L35.9999 33.984C36.0319 33.9392 36.0511 33.8816 36.0895 33.8688H36.0959ZM35.4687 33.7408L35.5583 33.7728L35.6543 33.8368C35.6543 33.8432 35.6607 33.856 35.6543 33.8624C35.598 33.8775 35.5397 33.884 35.4815 33.8816L35.4175 33.8752L35.3727 33.856C35.4111 33.8112 35.4303 33.7472 35.4687 33.7408ZM34.3551 33.8752L34.4511 33.9072L34.5471 33.9712V34.0032C34.4884 34.0168 34.4279 34.0211 34.3679 34.016H34.3039L34.2655 33.9904C34.2975 33.9456 34.3167 33.888 34.3551 33.8752ZM33.7791 31.968C33.7407 31.9488 33.7151 31.904 33.7407 31.8656C33.7471 31.8528 33.7663 31.8528 33.7791 31.84C33.7919 31.8208 33.7855 31.808 33.7791 31.7888L33.7727 31.7248L33.7599 31.6608C33.7599 31.6224 33.7599 31.5968 33.7855 31.5584C33.7983 31.5392 33.8303 31.52 33.8367 31.52C33.8495 31.5264 33.8367 31.552 33.8367 31.5712C33.8367 31.6032 33.8431 31.616 33.8559 31.648L33.9007 31.7312C33.9135 31.7696 33.9263 31.7824 33.9263 31.8208C33.9263 31.8528 33.9263 31.8656 33.9135 31.8976C33.9052 31.9176 33.892 31.9353 33.8751 31.9488C33.8602 31.9611 33.8427 31.9698 33.8239 31.9744C33.8114 31.978 33.7981 31.978 33.7855 31.9744L33.7791 31.968Z" fill="#0065BD"/>
<path d="M33.5745 34.1504L33.5361 34.1632L33.4849 34.2144C33.4593 34.24 33.4401 34.2464 33.4081 34.2656L33.3697 34.2976C33.3505 34.3168 33.3697 34.336 33.3505 34.3616C33.3441 34.3872 33.3313 34.4 33.3121 34.4256C33.2865 34.4512 33.2673 34.4576 33.2481 34.4896L33.1713 34.5536L33.1521 34.56H33.1137C33.0881 34.5728 33.0817 34.5984 33.0625 34.6112L33.0817 34.6496L33.1329 34.7392C33.1457 34.7584 33.1457 34.784 33.1649 34.7904C33.1969 34.8032 33.2225 34.8032 33.2481 34.7968C33.2993 34.8096 33.3313 34.8096 33.3761 34.8288L33.4721 34.88C33.5041 34.8992 33.5233 34.9056 33.5553 34.912H33.6705V34.9312L33.7985 34.9952C33.7953 35.0034 33.7932 35.012 33.7921 35.0208C33.7857 35.04 33.7793 35.0656 33.7857 35.072C33.8241 35.1936 33.8625 35.264 33.8817 35.2768C33.9201 35.2896 33.9329 35.3344 33.9521 35.3728L33.9329 35.392C33.8945 35.4304 33.8561 35.456 33.8241 35.5072C33.7793 35.584 33.7473 35.584 33.8049 35.6864L33.9009 35.84C33.9265 35.8848 33.9393 35.9168 33.9521 35.968C33.9649 36.0128 33.9713 36.0448 33.9713 36.096L34.0353 36.1152L34.0801 36.0768L34.1185 36V35.936C34.1057 35.9296 34.0993 35.9104 34.1057 35.8912C34.1057 35.8656 34.1377 35.872 34.1505 35.8528C34.1697 35.8208 34.1249 35.8016 34.1057 35.7824C34.0673 35.7376 34.0161 35.7248 34.0033 35.6608C34.0033 35.648 34.0033 35.6352 34.0289 35.616L34.1569 35.5008C34.1697 35.5072 34.1953 35.5136 34.2209 35.5072L34.3041 35.5328C34.3425 35.5456 34.3617 35.5328 34.3809 35.5328H34.4065L34.4129 35.5712C34.4193 35.6352 34.4065 35.7632 34.4257 35.7952L34.4449 35.8336L34.4577 35.872V36L34.4449 36.1088C34.4449 36.1344 34.4321 36.1536 34.4129 36.1728C34.4001 36.1984 34.3745 36.1984 34.3489 36.2176V36.2816L34.4193 36.3136L34.5025 36.3328L34.5473 36.3136L34.5537 36.2752L34.5857 36.2432C34.6113 36.2304 34.6369 36.2432 34.6433 36.2368C34.6561 36.2176 34.6433 36.2112 34.6433 36.1856C34.6433 36.1472 34.6305 36.1216 34.6241 36.0832C34.6149 36.0239 34.6127 35.9638 34.6177 35.904C34.6177 35.8656 34.6177 35.84 34.6305 35.808C34.6369 35.744 34.6561 35.7184 34.6689 35.6672C34.6881 35.6032 34.6881 35.5648 34.6945 35.5072C34.9103 35.5397 35.1305 35.5266 35.3409 35.4688C35.3921 35.5136 35.4497 35.5456 35.5137 35.5712V35.6352C35.5137 35.6544 35.5137 35.6608 35.5265 35.68L35.5457 35.6992C35.5649 35.6992 35.5777 35.6992 35.5905 35.6864C35.6033 35.6736 35.6033 35.6608 35.6033 35.6416V35.5968H35.7185V35.6672C35.7249 35.6864 35.7377 35.6928 35.7505 35.6928C35.7565 35.6956 35.7631 35.6971 35.7697 35.6971C35.7763 35.6971 35.7829 35.6956 35.7889 35.6928C35.8081 35.68 35.8017 35.6544 35.8081 35.6288V35.584L35.8721 35.5584C35.8738 35.5776 35.8738 35.5968 35.8721 35.616L35.8529 35.6736C35.8401 35.712 35.8209 35.7248 35.8017 35.7632C35.7761 35.8016 35.7697 35.8272 35.7377 35.8592L35.6993 35.904L35.6609 35.9616L35.6033 36.0256C35.5585 36.064 35.5265 36.0384 35.4753 36.0832L35.4561 36.1472L35.5457 36.1856L35.6289 36.1984L35.6545 36.1856C35.6545 36.1664 35.6545 36.1472 35.6737 36.1344C35.6865 36.1152 35.6993 36.1152 35.7185 36.1088C35.7441 36.1088 35.7697 36.1088 35.7825 36.096C35.8081 36.0768 35.8081 36.032 35.8273 36C35.8744 35.9051 35.9396 35.8203 36.0193 35.7504L36.1281 35.6608C36.1409 35.6352 36.1601 35.6288 36.1601 35.5968L36.1473 35.5584L36.1345 35.4944C36.2305 35.5392 36.1985 35.5392 36.2113 35.584C36.2305 35.6224 36.2113 35.648 36.2177 35.6928C36.2241 35.744 36.2497 35.7632 36.2497 35.8144C36.2561 35.872 36.2433 35.904 36.2305 35.9616C36.2241 36.0128 36.2241 36.0448 36.1985 36.0896C36.1833 36.1269 36.1592 36.1599 36.1281 36.1856L36.0897 36.2176L36.0833 36.2816L36.1537 36.3072L36.2561 36.3328L36.2817 36.3136C36.2945 36.2688 36.2817 36.2048 36.3073 36.2048C36.3329 36.1984 36.3521 36.2048 36.3585 36.1856V36.1408L36.4033 35.8528L36.4289 35.7312L36.4545 35.6224C36.4993 35.4944 36.4417 35.4752 36.3905 35.392C36.3585 35.3472 36.3457 35.328 36.3457 35.296V35.1104C36.3438 35.0507 36.3438 34.9909 36.3457 34.9312L36.3713 34.9184C36.4481 34.8736 36.4801 34.8608 36.5249 34.7584C36.5385 34.7283 36.5451 34.6954 36.5441 34.6624V34.5984L36.5185 34.5344C36.5085 34.5154 36.4955 34.4981 36.4801 34.4832C36.4353 34.4192 36.3713 34.4128 36.3073 34.3872C36.2113 34.3552 36.1473 34.3616 36.0513 34.3552C35.9361 34.3424 35.8785 34.3424 35.7697 34.3552C35.6417 34.3552 35.5713 34.3808 35.4433 34.4L35.1297 34.4256C34.9825 34.4256 34.8481 34.3936 34.7585 34.4C34.6049 34.4128 34.5985 34.4512 34.3617 34.4704C34.2808 34.477 34.1997 34.4812 34.1185 34.4832L33.9777 34.4384C34.0353 34.4192 34.0481 34.4064 34.0737 34.3744C34.0929 34.3488 34.0865 34.3296 34.1121 34.304L34.1569 34.24C34.1399 34.2272 34.1202 34.2185 34.0993 34.2144H34.0353C34.0086 34.2154 33.9825 34.2219 33.9585 34.2336L33.9073 34.272L33.7665 34.1952C33.7065 34.1647 33.6414 34.1452 33.5745 34.1376V34.1504Z" fill="#D52B1E"/>
<path d="M36.403 34.9504L36.3518 34.9696C36.2942 34.9952 36.2494 34.9952 36.1854 35.0016C36.019 35.0144 35.9102 34.9312 35.7374 34.944C35.6478 34.9504 35.6094 35.0208 35.5134 35.0464C35.4777 35.054 35.4412 35.0583 35.4046 35.0592L35.4366 34.9952C35.4366 34.9952 35.3598 35.0144 35.3086 35.0144C35.2742 35.0138 35.2398 35.0095 35.2062 35.0016L35.2702 34.9376L35.187 34.9248C35.1635 34.9132 35.142 34.8981 35.123 34.88C35.1596 34.8751 35.1959 34.8687 35.2318 34.8608C35.3278 34.8352 35.3598 34.784 35.4814 34.7712C35.5518 34.7712 35.6734 34.7712 35.9678 34.8224C36.1598 34.8544 36.2494 34.8352 36.3198 34.8032C36.371 34.784 36.3838 34.7392 36.3902 34.688C36.3966 34.6368 36.3646 34.5984 36.339 34.5728C36.3326 34.5728 36.307 34.5536 36.2686 34.5472" stroke="#FEDF00" stroke-width="0.064" stroke-linecap="round"/>
<path d="M33.5867 34.3808C33.5547 34.3808 33.5291 34.3808 33.5035 34.4C33.4715 34.4192 33.4651 34.4448 33.4395 34.4704C33.4715 34.4768 33.4907 34.496 33.5163 34.4896C33.5419 34.4896 33.5483 34.4768 33.5675 34.4576C33.5867 34.432 33.5931 34.4128 33.5931 34.3808H33.5867Z" fill="#FCD900" stroke="#FEDF00" stroke-width="0.032"/>
<path d="M34.3045 35.2256C34.3213 35.2765 34.3427 35.3258 34.3685 35.3728C34.3813 35.424 34.3685 35.4496 34.3813 35.5008V35.6032M34.8165 35.1552L34.7973 35.2384L34.7333 35.4624V35.5072M34.0293 35.2512C34.0869 35.264 34.0677 35.4624 34.1509 35.5072" stroke="#FEDF00" stroke-width="0.064" stroke-linecap="round"/>
<path d="M35.8457 35.6096L35.8713 35.5904C35.936 35.5639 35.9948 35.5247 36.0441 35.4752" stroke="#FEDF00" stroke-width="0.064"/>
<path d="M35.3535 35.4944C35.5775 35.4368 35.7311 35.328 35.8399 35.3088M35.5839 35.2128H35.6351C35.7311 35.1936 35.7439 35.2512 35.8079 35.2896C35.9295 35.3536 35.9423 35.4368 36.0831 35.5072L36.1087 35.5136L36.1599 35.5392" stroke="#FEDF00" stroke-width="0.064" stroke-linecap="round"/>
<path d="M33.1328 34.6304H33.1776L33.2288 34.6176C33.248 34.6176 33.2608 34.6176 33.2736 34.6304C33.2864 34.6304 33.2864 34.6368 33.2928 34.6496C33.2928 34.6624 33.3056 34.6688 33.2992 34.6816C33.2992 34.6944 33.28 34.7072 33.2608 34.7072C33.248 34.7072 33.2352 34.7072 33.2288 34.688C33.2271 34.684 33.2261 34.6796 33.2261 34.6752C33.2261 34.6708 33.2271 34.6664 33.2288 34.6624C33.2199 34.6669 33.21 34.6692 33.2 34.6692C33.19 34.6692 33.1801 34.6669 33.1712 34.6624C33.163 34.6599 33.1554 34.6558 33.1488 34.6503C33.1422 34.6448 33.1367 34.638 33.1328 34.6304Z" fill="#FCD900" stroke="#FEDF00" stroke-width="0.032"/>
<path d="M33.6063 35.2512L33.4783 35.1936C33.5039 35.1808 33.5231 35.1808 33.5423 35.1616C33.5615 35.136 33.5615 35.1104 33.5743 35.0784C33.5871 35.0464 33.5871 35.0144 33.6191 34.9888C33.6383 34.976 33.6703 34.976 33.6895 34.9824C33.7151 34.9824 33.7407 35.008 33.7471 35.0272C33.7471 35.0656 33.7343 35.0912 33.7279 35.1232C33.7279 35.1616 33.7087 35.1808 33.7151 35.2128C33.7151 35.2384 33.7279 35.2512 33.7407 35.2768L33.6127 35.2512H33.6063ZM33.5423 35.3152C33.5412 35.3077 33.5423 35.3001 33.5454 35.2933C33.5486 35.2864 33.5537 35.2806 33.5602 35.2767C33.5666 35.2727 33.5741 35.2708 33.5816 35.271C33.5891 35.2713 33.5964 35.2738 33.6026 35.2782C33.6087 35.2825 33.6134 35.2887 33.6161 35.2957C33.6188 35.3028 33.6194 35.3104 33.6177 35.3178C33.6161 35.3252 33.6123 35.3319 33.6069 35.3371C33.6014 35.3423 33.5945 35.3459 33.5871 35.3472C33.5816 35.3481 33.5759 35.3478 33.5704 35.3463C33.565 35.3448 33.56 35.3422 33.5557 35.3385C33.5514 35.3348 33.548 35.3303 33.5457 35.3251C33.5434 35.32 33.5422 35.3144 33.5423 35.3088V35.3152ZM33.4335 34.2528H33.4207C33.3951 34.2272 33.3951 34.2016 33.3823 34.176C33.372 34.1515 33.3655 34.1256 33.3631 34.0992V33.9712C33.3631 33.952 33.3631 33.9328 33.3503 33.9136C33.3503 33.9008 33.3247 33.8944 33.3311 33.888C33.3311 33.8816 33.3503 33.888 33.3567 33.888C33.3823 33.888 33.3951 33.8944 33.4207 33.9136C33.4399 33.9328 33.4527 33.952 33.4591 33.9776L33.4847 34.0736L33.5039 34.1248L33.5359 34.1632L33.4911 34.2144L33.4335 34.2528ZM33.6639 34.9312L33.8047 34.9952C33.9011 34.9372 33.9788 34.8528 34.0287 34.752C34.0863 34.6368 34.0927 34.5792 34.1183 34.4704L34.0031 34.4384H33.9775C33.9455 34.5536 33.9327 34.6112 33.8751 34.7072C33.8239 34.7904 33.7663 34.8544 33.7087 34.8992L33.6639 34.9312ZM33.9839 36.096L34.0351 36.0128L34.1247 35.9424H34.1503C34.1495 36.0035 34.1387 36.064 34.1183 36.1216L34.0927 36.1856L34.0607 36.2176C34.0287 36.1664 33.9775 36.1344 33.9775 36.0896L33.9839 36.096ZM36.0959 36.2112L36.1855 36.2496L36.2815 36.3072V36.3392L36.1855 36.352C36.1578 36.3541 36.13 36.3541 36.1023 36.352H36.0383L35.9999 36.3264C36.0319 36.2816 36.0511 36.224 36.0895 36.2112H36.0959ZM35.4687 36.0832L35.5583 36.1152L35.6543 36.1792C35.6543 36.1856 35.6607 36.1984 35.6543 36.2048C35.598 36.2199 35.5397 36.2264 35.4815 36.224L35.4175 36.2176L35.3727 36.1984C35.4111 36.1536 35.4303 36.0896 35.4687 36.0832ZM34.3551 36.2176L34.4511 36.2496L34.5471 36.3136V36.3456C34.4884 36.3592 34.4279 36.3635 34.3679 36.3584H34.3039L34.2655 36.3328C34.2975 36.288 34.3167 36.2304 34.3551 36.2176ZM33.7791 34.3104C33.7407 34.2912 33.7151 34.2464 33.7407 34.208C33.7471 34.1952 33.7663 34.1952 33.7791 34.1824C33.7919 34.1632 33.7855 34.1504 33.7791 34.1312L33.7727 34.0672L33.7599 34.0032C33.7599 33.9648 33.7599 33.9392 33.7855 33.9008C33.7983 33.8816 33.8303 33.8624 33.8367 33.8624C33.8495 33.8688 33.8367 33.8944 33.8367 33.9136C33.8367 33.9456 33.8431 33.9584 33.8559 33.9904L33.9007 34.0736C33.9135 34.112 33.9263 34.1248 33.9263 34.1632C33.9263 34.1952 33.9263 34.208 33.9135 34.24C33.9052 34.26 33.892 34.2777 33.8751 34.2912C33.8602 34.3035 33.8427 34.3122 33.8239 34.3168C33.8114 34.3204 33.7981 34.3204 33.7855 34.3168L33.7791 34.3104Z" fill="#0065BD"/>
<path d="M26.4121 25.55H31.6621V30.8H26.4121V25.55ZM32.2246 25.55H37.4996V30.8H32.2496L32.2246 25.55ZM26.4246 35.35C26.4496 35.45 26.4746 35.6 26.5621 35.775C26.6621 35.925 26.6246 35.925 26.8371 36.15C27.0686 36.3755 27.3588 36.5314 27.6746 36.6C28.0996 36.725 28.3871 36.725 28.7371 36.7125C29.0121 36.7 29.2246 36.6625 29.3996 36.6375C29.6496 36.6125 29.8246 36.5875 30.1121 36.575C30.2412 36.5687 30.3705 36.5687 30.4996 36.575C30.6496 36.575 30.7996 36.6125 30.9621 36.6375C31.3121 36.7125 31.6621 36.85 31.6621 36.85V31.3625H26.4121V35.1125L26.4246 35.35ZM37.4746 35.35C37.4621 35.45 37.4246 35.6 37.3371 35.775C37.2371 35.925 37.2746 35.925 37.0621 36.15C36.8306 36.3755 36.5404 36.5314 36.2246 36.6C35.879 36.6956 35.52 36.7336 35.1621 36.7125C34.8871 36.7 34.6746 36.6625 34.4996 36.6375C34.2675 36.605 34.0338 36.5841 33.7996 36.575C33.6664 36.5683 33.5329 36.5683 33.3996 36.575C33.2496 36.575 33.0996 36.6125 32.9371 36.6375C32.5871 36.7125 32.2246 36.85 32.2246 36.85V31.3625H37.4996V35.1125L37.4746 35.35Z" stroke="#703D29" stroke-width="0.05"/>
</g>
<defs>
<clipPath id="clip0_10660_6599">
<rect width="64" height="64" rx="32" fill="white"/>
</clipPath>
</defs>
</svg>
