<svg width="64" height="64" viewBox="0 0 64 64" fill="none" xmlns="http://www.w3.org/2000/svg">
<g clip-path="url(#clip0_10660_6743)">
<path fill-rule="evenodd" clip-rule="evenodd" d="M0 0H64V32.475H0V0Z" fill="#FF0000"/>
<path fill-rule="evenodd" clip-rule="evenodd" d="M0 31.525H64V64H0V31.525Z" fill="#000001"/>
<path fill-rule="evenodd" clip-rule="evenodd" d="M28.5867 18.525C49.2367 23.9375 35.9617 50.475 19.6742 39.425L18.5742 41.125C28.1617 47.95 37.6492 42.45 40.3242 35.325C43.0992 27.975 39.3742 17.6375 28.7492 16.575L28.5867 18.525Z" fill="#FFEC00"/>
<path fill-rule="evenodd" clip-rule="evenodd" d="M21.2496 41.35L23.9621 42.6125L22.6871 45.3375L19.9746 44.0625L21.2496 41.35ZM39.8746 28.9125H42.8746V31.9125H39.8746V28.9125ZM38.4121 24.05L41.1996 22.975L42.2871 25.7625L39.4996 26.85L38.4121 24.05ZM35.1621 20.4125L37.2996 18.3L39.4121 20.425L37.2871 22.5375L35.1621 20.4125ZM31.8871 15.4375L34.6871 16.4875L33.6246 19.2875L30.8246 18.2375L31.8871 15.4375ZM39.4996 33.75L42.2871 34.8625L41.1621 37.6375L38.3871 36.525L39.4996 33.75ZM30.7621 42.5L33.5121 41.3375L34.6996 44.0875L31.9496 45.2625L30.7621 42.5ZM25.8246 42.85H28.8246V45.85H25.8246V42.85ZM30.9871 28.35L28.4496 26.475L25.9121 28.3L26.9121 25.425L24.3746 23.55H27.4371L28.4996 20.725L29.4746 23.5625L32.5621 23.525L30.1121 25.4375L30.9871 28.35Z" fill="#FFEC00"/>
<path fill-rule="evenodd" clip-rule="evenodd" d="M41.9996 43.3C41.8496 43.35 41.2246 44.85 40.7871 45.575L41.2496 45.7C42.9496 46.3 43.7996 46.85 44.5246 47.8875C44.6923 48.0508 44.9125 48.1493 45.146 48.1653C45.3796 48.1813 45.6112 48.1139 45.7996 47.975C45.7996 47.975 46.1496 47.85 46.5996 47.35C46.9746 46.7875 46.8746 46.35 46.4246 45.9625C45.0496 44.9625 43.5621 44.2125 41.9996 43.3Z" fill="#FFEE00"/>
<path fill-rule="evenodd" clip-rule="evenodd" d="M45.6629 46.6C45.6629 46.7442 45.6056 46.8825 45.5036 46.9845C45.4017 47.0865 45.2634 47.1437 45.1191 47.1437C44.9749 47.1437 44.8366 47.0865 44.7346 46.9845C44.6327 46.8825 44.5754 46.7442 44.5754 46.6C44.5754 46.4574 44.632 46.3207 44.7328 46.2199C44.8336 46.1191 44.9703 46.0625 45.1129 46.0625C45.2554 46.0625 45.3922 46.1191 45.493 46.2199C45.5938 46.3207 45.6504 46.4574 45.6504 46.6H45.6629ZM42.9879 44.9C42.9879 45.0442 42.9306 45.1825 42.8286 45.2845C42.7267 45.3865 42.5883 45.4437 42.4441 45.4437C42.2999 45.4437 42.1616 45.3865 42.0597 45.2845C41.9577 45.1825 41.9004 45.0442 41.9004 44.9C41.9004 44.7558 41.9577 44.6175 42.0597 44.5155C42.1616 44.4135 42.2999 44.3562 42.4441 44.3562C42.5883 44.3562 42.7267 44.4135 42.8286 44.5155C42.9306 44.6175 42.9879 44.7558 42.9879 44.9ZM44.3504 45.775C44.3504 45.9192 44.2931 46.0575 44.1911 46.1595C44.0892 46.2615 43.9509 46.3187 43.8066 46.3187C43.6624 46.3187 43.5241 46.2615 43.4221 46.1595C43.3202 46.0575 43.2629 45.9192 43.2629 45.775C43.2629 45.6308 43.3202 45.4925 43.4221 45.3905C43.5241 45.2885 43.6624 45.2312 43.8066 45.2312C43.9509 45.2312 44.0892 45.2885 44.1911 45.3905C44.2931 45.4925 44.3504 45.6308 44.3504 45.775Z" fill="#000001"/>
<path fill-rule="evenodd" clip-rule="evenodd" d="M40.563 45.4625C35.238 42.425 29.6505 39.15 24.313 36.1125C21.9755 34.65 21.863 31.9375 23.438 29.875C23.588 29.5875 23.788 29.65 23.863 29.8125C24.0505 30.8125 24.613 31.85 25.288 32.5C30.8281 35.985 36.3162 39.552 41.7505 43.2C41.3255 43.925 41.0005 44.7375 40.563 45.45V45.4625Z" fill="#FFEE00"/>
<path fill-rule="evenodd" clip-rule="evenodd" d="M37.1504 38.1875L39.3754 40.1875L37.3754 42.4125L35.1504 40.4125L37.1504 38.1875Z" fill="#FFEC00"/>
<path d="M41.4375 43.6L25.8125 34.1625M39.5125 41.425L34.25 38.0125M36.525 43.35L31.1625 40.25" stroke="black" stroke-width="0.375"/>
</g>
<defs>
<clipPath id="clip0_10660_6743">
<rect width="64" height="64" rx="32" fill="white"/>
</clipPath>
</defs>
</svg>
