<svg width="64" height="64" viewBox="0 0 64 64" fill="none" xmlns="http://www.w3.org/2000/svg">
<g clip-path="url(#clip0_10660_6755)">
<path d="M0 0H64V64H0V0Z" fill="#012169"/>
<path d="M0 0L32 32L0 0ZM32 0L0 32L32 0Z" fill="black"/>
<path d="M0 0L32 32M32 0L0 32" stroke="white" stroke-width="6.25"/>
<mask id="mask0_10660_6755" style="mask-type:luminance" maskUnits="userSpaceOnUse" x="0" y="0" width="38" height="38">
<path d="M0 0V16H37.3375V32H32L0 0ZM32 0H16V37.3375H0V32L32 0Z" fill="white"/>
</mask>
<g mask="url(#mask0_10660_6755)">
<path d="M0 0L32 32L0 0ZM32 0L0 32L32 0Z" fill="black"/>
<path d="M0 0L32 32M32 0L0 32" stroke="#C8102E" stroke-width="3.75"/>
</g>
<path d="M16 0V37.3375V0ZM0 16H37.3375H0Z" fill="black"/>
<path d="M16 0V37.3375M0 16H37.3375" stroke="white" stroke-width="9.375"/>
<path d="M16 0V37.3375V0ZM0 16H37.3375H0Z" fill="black"/>
<path d="M16 0V37.3375M0 16H37.3375" stroke="#C8102E" stroke-width="6.25"/>
<path d="M0 32H32V0H42.6625V42.6625H0V32Z" fill="#012169"/>
<path d="M40.4492 28.0125C40.4492 39.3125 41.6742 43.2 44.1242 45.825C45.4152 47.2579 46.8857 48.5183 48.4992 49.575C50.1125 48.518 51.5829 47.2576 52.8742 45.825C55.3117 43.2 56.5367 39.3125 56.5367 28.0125C54.7617 28.825 53.7492 29.225 52.2867 29.2C50.9564 29.0667 49.6675 28.6625 48.4992 28.0125C47.3309 28.6625 46.042 29.0667 44.7117 29.2C43.2492 29.225 42.2367 28.825 40.4617 28.0125H40.4492Z" fill="white"/>
<path d="M48.7566 33.6718C49.1241 34.5727 50.3491 35.5737 50.6676 36.0742C50.2511 36.5747 50.1776 36.5246 50.2266 37.4255C50.9616 36.6497 50.9616 36.5496 51.4516 36.6748C52.4806 37.7258 51.6476 40.0031 50.7656 40.5036C49.9326 41.0291 50.0796 40.5036 48.8056 41.1542C49.3691 41.6547 50.0551 41.0792 50.6186 41.2293C50.9126 41.6047 50.4716 42.2553 50.7166 42.906C51.2066 42.8559 51.1576 41.8299 51.2556 41.4545C51.6231 40.1032 53.8036 39.1773 53.9016 37.926C54.3671 37.7008 54.8081 37.8509 55.3716 38.1763C55.1021 37.0251 54.1711 37.0251 53.9261 36.6748C53.3381 35.7488 52.8236 34.7228 51.5741 34.4225C50.6431 34.2473 50.7166 34.4976 50.1041 34.0722C49.7121 33.7719 48.5606 33.2213 48.7566 33.6718Z" fill="#FF9900"/>
<path d="M51.28 34.898C51.3882 34.898 51.476 34.8083 51.476 34.6978C51.476 34.5872 51.3882 34.4976 51.28 34.4976C51.1717 34.4976 51.084 34.5872 51.084 34.6978C51.084 34.8083 51.1717 34.898 51.28 34.898Z" fill="white"/>
<path d="M45.7037 37.5481C46.3118 36.7955 46.6058 35.2218 46.8902 34.7004C47.5181 34.8428 47.5091 34.9325 48.266 34.4675C47.251 34.1661 47.1643 34.2128 47.0437 33.7119C47.4726 32.2917 49.8332 31.9804 50.6786 32.5432C51.5228 33.05 50.9992 33.1627 52.1578 34.0093C52.3277 33.2667 51.5089 32.916 51.3755 32.337C51.5631 31.8962 52.3324 31.9906 52.7811 31.4654C52.5088 31.0463 51.6435 31.5697 51.2728 31.6566C49.9313 31.9558 48.1107 30.4191 46.9818 30.915C46.5693 30.5998 46.4931 30.1314 46.5114 29.4706C45.6409 30.2516 46.076 31.0924 45.8872 31.4772C45.3605 32.4407 44.7128 33.3845 45.0368 34.6531C45.3202 35.5757 45.5025 35.3924 45.4205 36.1442C45.3438 36.6385 45.4053 37.9355 45.7037 37.5481Z" fill="#FF9900"/>
<path d="M45.5851 34.6966C45.5345 34.5988 45.4159 34.5614 45.3202 34.6131C45.2245 34.6647 45.1879 34.7858 45.2385 34.8836C45.2891 34.9813 45.4077 35.0187 45.5034 34.9671C45.5991 34.9154 45.6357 34.7943 45.5851 34.6966Z" fill="white"/>
<path d="M50.6403 38.0424C49.6949 37.9002 48.2237 38.4572 47.6396 38.4783C47.4342 37.8559 47.5141 37.8173 46.7328 37.3962C47.0051 38.4393 47.0891 38.4908 46.7316 38.8554C45.3193 39.215 43.8376 37.3129 43.8721 36.283C43.8603 35.2831 44.2256 35.6824 44.3361 34.2319C43.6257 34.4675 43.7552 35.3645 43.3388 35.7806C42.8723 35.8446 42.5536 35.1235 41.8813 35.0029C41.6708 35.4577 42.5571 35.9432 42.8216 36.2223C43.7662 37.2399 43.4196 39.6258 44.4191 40.356C44.3682 40.8795 44.0149 41.1883 43.4516 41.5141C44.5564 41.871 45.0362 41.0559 45.4564 41.0218C46.5364 40.9839 47.6626 41.0618 48.5584 40.1225C49.1852 39.3976 48.9373 39.3331 49.6099 39.0159C50.0639 38.8274 51.1193 38.1027 50.6403 38.0424Z" fill="#FF9900"/>
<path d="M48.311 39.6202C48.2553 39.715 48.2853 39.838 48.378 39.8949C48.4708 39.9519 48.5913 39.9212 48.647 39.8264C48.7028 39.7317 48.6728 39.6087 48.58 39.5517C48.4873 39.4948 48.3668 39.5255 48.311 39.6202Z" fill="white"/>
<path d="M42.4746 43.425C42.9013 44.3031 43.4576 45.1121 44.1246 45.825C45.4156 47.2579 46.8861 48.5183 48.4996 49.575C50.1126 48.5177 51.583 47.2573 52.8746 45.825C53.5417 45.1121 54.0979 44.3031 54.5246 43.425H42.4746Z" fill="#99CCFF"/>
<path d="M40.1258 27.5625C40.1258 39.3375 41.3883 43.3875 43.9383 46.125C45.2868 47.6069 46.8202 48.9092 48.5008 50C50.1783 48.9053 51.7076 47.5986 53.0508 46.1125C55.6008 43.375 56.8758 39.3375 56.8758 27.5625C55.0258 28.4125 53.9633 28.825 52.4383 28.8125C51.0633 28.775 49.6133 28.1 48.5008 27.5625C47.3758 28.1 45.9258 28.775 44.5633 28.8125C43.0258 28.825 41.9758 28.4125 40.1133 27.5625H40.1258ZM40.6258 28.1875C42.3633 29 43.3633 29.3875 44.8008 29.3625C46.1016 29.2283 47.3609 28.8284 48.5008 28.1875C49.5508 28.6875 50.9133 29.3375 52.2008 29.3625C53.6383 29.3875 54.6258 28.9875 56.3758 28.1875C56.3758 39.3125 55.1758 43.1375 52.7758 45.7125C51.5143 47.1158 50.0775 48.3509 48.5008 49.3875C46.9193 48.3522 45.4783 47.117 44.2133 45.7125C41.8133 43.1375 40.6258 39.3 40.6258 28.1875Z" fill="#FDC301"/>
</g>
<defs>
<clipPath id="clip0_10660_6755">
<rect width="64" height="64" rx="32" fill="white"/>
</clipPath>
</defs>
</svg>
