<svg width="64" height="64" viewBox="0 0 64 64" fill="none" xmlns="http://www.w3.org/2000/svg">
<g clip-path="url(#clip0_10660_6777)">
<path d="M0 0H64V64H0V0Z" fill="#3A7DCE"/>
<path d="M13.4617 30.1125C13.0242 29.125 13.0242 29.125 13.0242 28.15C12.7992 28.15 12.7617 28.2 12.6367 28.15C12.5117 28.1125 12.4617 29.0625 12.0492 28.875C11.9867 28.7875 12.3492 28.1 11.9492 27.825C11.8242 27.725 11.9867 27.1625 11.9242 26.925C11.9242 26.925 11.4242 27.2125 11.0492 26.1875C10.8742 25.925 10.6242 26.4375 10.6242 26.4375C10.6242 26.4375 10.7367 26.75 10.5367 26.8125C10.2492 26.5875 10.0492 26.7125 9.69922 26.4C9.33672 26.0875 9.77422 25.725 9.09922 25.45C9.53672 24.225 9.53672 24.475 10.6242 23.975C9.97422 23.4875 9.97422 23.4875 9.53672 22.75C8.87422 22.5 8.66172 22.2625 8.01172 21.775C7.13672 20.55 6.69922 18.1 6.69922 16.375C7.24922 15.8 8.01172 18.3375 9.09922 19.075L10.6242 19.8125C11.4992 20.3125 11.7117 20.7875 12.3742 21.2875L14.3242 22.025C15.1992 22.75 15.6367 23.7375 16.2867 23.975C16.9992 23.975 17.1367 23.525 17.3617 23.4875C18.6367 23.425 19.2992 23.2375 19.5492 22.8C19.7992 22.45 20.4242 23 22.1742 22.2625L21.9492 21.2875C21.9492 21.2875 22.4242 20.85 23.0492 21.0375C23.0242 20.5875 22.9867 19.4 23.5992 18.85C23.2242 18.4125 23.4742 18.1 23.4742 18.1C23.4742 18.1 23.8242 17.725 23.8742 17.525C23.6867 16.4375 24.0242 16.425 24.1117 16.1125C24.1867 15.7875 23.8117 15.9 23.9117 15.4625C24.0242 15.025 24.6617 14.9125 24.7367 14.55C24.8242 14.2 24.5492 14.0125 24.5742 13.925C24.6992 13.5875 24.5867 12.775 24.5742 12.4625C25.7367 12.1 26.1242 11.0375 26.5367 11.475C26.7492 10 26.9742 9.5125 28.2867 9.5125C28.4617 9.0625 27.7992 8.675 28.0617 8.5375C28.4992 8.475 28.8242 8.5 29.3367 9.25C29.4992 9.4875 29.5242 8.9 29.6867 8.8375C29.8617 8.775 30.2492 8.775 30.3117 8.4875C30.3617 8.1875 30.4492 7.8 30.6742 7.3125C30.8617 6.9125 30.9992 7.4625 31.1742 8.2375C32.0867 8.275 34.1617 8.5125 35.0367 8.775C35.6867 8.975 36.1242 8.5875 36.7492 8.5125C37.2117 9.0375 37.6492 8.6375 37.8867 9.7625C38.2367 10.35 38.7992 9.8 38.9242 9.9875C39.6617 12.2375 42.1742 10.7125 42.3492 10.75C42.6742 10.75 43.0617 11.7625 43.3117 11.75C43.7242 11.6625 43.6117 11.35 43.9617 11.475C43.8742 12.325 44.6742 13.3125 44.6742 13.9375C44.6742 13.9375 44.8617 14.05 45.0492 13.8625C45.2242 13.675 45.3867 13.1875 45.5492 13.2C45.9242 13.2625 46.0867 13.325 46.5242 13.4C47.6992 13.8625 48.3117 13.9625 48.7742 14.1875C48.9742 14.6375 49.1867 14.8625 49.6242 14.775C49.9742 15.05 49.7117 15.4 49.9242 15.425C50.3617 15.175 50.5117 14.9125 50.9367 15.15C51.3742 15.4 51.8117 15.9 52.0367 16.375C52.0367 16.625 51.8117 17.6 52.0367 19.075C52.1367 19.575 52.1992 19.95 52.6617 20.8C52.5367 21.6625 53.2492 23.1125 53.2492 23.4875C53.2492 23.975 52.8992 24.2375 52.6867 24.7125C53.5617 25.4625 52.6867 26.675 52.2492 27.4125C55.5242 28.15 53.9992 29.625 56.6117 28.8875C55.9492 30.6 56.1867 30.4625 56.8367 32.175C55.5367 33.1625 56.8117 33.4625 55.9367 34.675C55.8867 34.7625 56.4617 35.75 57.2617 35.75C57.0492 37.7125 56.3867 36.975 56.6117 39.9125C54.8867 39.875 55.5867 42.1125 54.4242 41.875C54.4992 43.2875 55.0867 43.4 54.8617 44.825C53.9867 45.075 53.9867 45.075 53.5617 45.8L52.8992 45.55C52.6867 46.7875 52.2492 47.025 52.8992 48.25C52.8992 48.25 52.0617 48.2875 51.8117 48.25C51.7992 48.675 52.1867 48.7875 52.2492 49.2375C52.2117 49.4125 50.9992 50.1875 50.0742 50.2125C49.8242 50.825 50.7242 51.4625 50.6742 51.775C49.6492 51.9875 49.1992 53.4 49.1992 53.4C49.1992 53.4 49.7242 53.65 49.6367 53.9C49.3492 53.6625 49.1992 53.65 48.7617 53.65C48.5492 53.7125 48.0117 53.6375 47.5117 54.6C46.9492 54.8125 46.6867 54.725 46.2617 55.3625C46.0742 54.7625 45.7992 55.3625 45.4742 55.6125C45.1367 55.8375 44.6992 56.4125 44.6367 56.3875C44.6492 56.225 44.8367 55.6125 44.8367 55.6125L43.7492 55.8625H43.6242C43.5242 55.875 43.5492 55.15 43.3492 55.175C43.1367 55.2125 42.5492 56.0875 42.3492 56.125C42.1492 56.15 42.0867 55.8375 41.9117 55.875C41.7367 55.8875 41.3992 56.8 41.2867 56.825C41.1617 56.85 40.6617 56.275 40.2492 56.35C38.0992 57.2 37.7617 54.675 37.4242 56.1C36.9742 55.8375 37.0492 55.9875 36.5992 56.125C36.3117 56.2125 36.2867 55.6875 36.0242 55.7C35.4992 55.7125 35.5242 56.2625 35.2492 56.1C35.0242 54.95 33.6242 55.1625 33.4867 54.6625C33.3742 54.1625 34.0867 54.1625 34.3242 53.8125C34.4992 53.3125 34.1367 53.125 34.8617 52.6375C35.7867 51.925 35.2492 51.6625 35.4117 51.125C35.7117 50.35 35.7117 50.1625 35.4617 49.475C35.4617 49.475 34.7367 47.275 34.5867 47.275C34.1617 47.1375 34.1617 48.0875 33.5242 48.35C32.2117 48.8375 29.8992 47.1 29.4992 47.1C29.1242 47.1125 27.4367 47.5625 27.4992 46.6C27.2492 47.5375 26.2992 46.825 26.2492 46.825C25.3742 46.825 25.7117 47.575 25.1242 47.55C24.8617 47.45 22.1742 47.275 22.1742 47.275V47.775L20.4242 46.775L18.8992 46.2875C17.5992 45.8 18.2492 44.575 16.0742 45.3125V43.8375H14.9867C15.4117 40.9 14.9867 42.375 14.7617 39.675L13.8867 39.925C13.0117 38.5875 15.0992 38.85 13.2367 37.95C13.2367 37.95 13.2742 36.4875 12.7992 36.975C12.7117 37.0375 13.0242 37.7125 13.0242 37.7125C11.2742 37.4625 10.8367 36.975 10.8367 35.0125C10.8367 35.0125 12.2742 35.25 12.1492 35.0125C11.9492 34.6375 11.6742 32.2625 11.7242 32.1C11.6992 31.775 13.0617 30.9625 12.7992 30.1875C12.9617 30.1125 13.4617 30.1125 13.4617 30.1125Z" fill="white"/>
<path d="M57.7828 37.2499C57.7182 37.4072 57.729 37.5644 57.7935 37.6854C57.9118 37.4798 57.815 37.3951 57.7935 37.2499H57.7828ZM6.60026 19.1774C6.60026 19.1774 6.27768 19.129 6.3422 19.4556C6.44972 19.2137 6.58951 19.1895 6.60026 19.1774ZM6.568 18.4032C6.38521 18.4032 6.1594 18.379 6.24542 18.7056C6.35295 18.4516 6.568 18.4153 6.568 18.4032ZM7.93358 22.7943C7.93358 22.7943 8.21315 22.7701 8.14864 23.0967C8.04111 22.8548 7.93358 22.8064 7.93358 22.7943Z" stroke="white" stroke-width="0.285123" stroke-linejoin="round"/>
</g>
<defs>
<clipPath id="clip0_10660_6777">
<rect width="64" height="64" rx="32" fill="white"/>
</clipPath>
</defs>
</svg>
