<svg width="64" height="64" viewBox="0 0 64 64" fill="none" xmlns="http://www.w3.org/2000/svg">
<g clip-path="url(#clip0_10660_8474)">
<path d="M0 0H64V64H0V0Z" fill="#74ACDF"/>
<path d="M0 21.3375H64V42.675H0V21.3375Z" fill="white"/>
<path d="M31.5898 32.1664L35.2378 40.1024C35.2378 40.1024 35.3018 40.256 35.4042 40.2176C35.5066 40.1664 35.4426 40.0128 35.4426 40.0128L32.409 31.8208M32.3194 34.9184C32.2682 36.1216 33.0106 36.7872 32.921 37.8624C32.8186 38.9504 33.4074 39.552 33.561 39.9744C33.689 40.3968 33.4074 40.64 33.5226 40.704C33.6506 40.768 33.9066 40.4352 33.8298 39.8336C33.7402 39.2448 33.2922 39.0656 33.3946 37.7472C33.497 36.4288 32.857 36.1216 33.0106 34.9312" fill="#F6B40E"/>
<path d="M31.5898 32.1664L35.2378 40.1024C35.2378 40.1024 35.3018 40.256 35.4042 40.2176C35.5066 40.1664 35.4426 40.0128 35.4426 40.0128L32.409 31.8208M32.3194 34.9184C32.2682 36.1216 33.0106 36.7872 32.921 37.8624C32.8186 38.9504 33.4074 39.552 33.561 39.9744C33.689 40.3968 33.4074 40.64 33.5226 40.704C33.6506 40.768 33.9066 40.4352 33.8298 39.8336C33.7402 39.2448 33.2922 39.0656 33.3946 37.7472C33.497 36.4288 32.857 36.1216 33.0106 34.9312" stroke="#85340A" stroke-width="0.1408"/>
<path d="M31.5592 31.997L31.8925 40.7249C31.8925 40.7249 31.8928 40.8913 32.0021 40.895C32.1163 40.8869 32.116 40.7205 32.116 40.7205L32.4483 31.9912M31.1801 34.8187C30.6723 35.9107 31.1035 36.8098 30.6093 37.7688C30.0983 38.7348 30.4121 39.516 30.3923 39.965C30.3489 40.4042 29.9957 40.5211 30.0776 40.6243C30.1714 40.7325 30.5353 40.523 30.6945 39.9378C30.8371 39.3595 30.4918 39.0225 31.0909 37.8436C31.69 36.6648 31.2163 36.136 31.8138 35.095" fill="#F6B40E"/>
<path d="M31.5592 31.997L31.8925 40.7249C31.8925 40.7249 31.8928 40.8913 32.0021 40.895C32.1163 40.8869 32.116 40.7205 32.116 40.7205L32.4483 31.9912M31.1801 34.8187C30.6723 35.9107 31.1035 36.8098 30.6093 37.7688C30.0983 38.7348 30.4121 39.516 30.3923 39.965C30.3489 40.4042 29.9957 40.5211 30.0776 40.6243C30.1714 40.7325 30.5353 40.523 30.6945 39.9378C30.8371 39.3595 30.4918 39.0225 31.0909 37.8436C31.69 36.6648 31.2163 36.136 31.8138 35.095" stroke="#85340A" stroke-width="0.1408"/>
<path d="M31.5935 31.828L28.5614 40.0192C28.5614 40.0192 28.4981 40.173 28.5976 40.2183C28.7063 40.2545 28.7696 40.1006 28.7696 40.1006L32.4172 32.1629M30.1635 34.2899C29.2765 35.1045 29.3308 36.1001 28.5071 36.797C27.6654 37.4939 27.6563 38.3357 27.4663 38.743C27.2581 39.1322 26.887 39.105 26.9232 39.2317C26.9685 39.3675 27.3848 39.3132 27.7559 38.8335C28.1089 38.3538 27.9188 37.9103 28.9235 37.0504C29.9281 36.1906 29.6928 35.5208 30.6432 34.7877" fill="#F6B40E"/>
<path d="M31.5935 31.828L28.5614 40.0192C28.5614 40.0192 28.4981 40.173 28.5976 40.2183C28.7063 40.2545 28.7696 40.1006 28.7696 40.1006L32.4172 32.1629M30.1635 34.2899C29.2765 35.1045 29.3308 36.1001 28.5071 36.797C27.6654 37.4939 27.6563 38.3357 27.4663 38.743C27.2581 39.1322 26.887 39.105 26.9232 39.2317C26.9685 39.3675 27.3848 39.3132 27.7559 38.8335C28.1089 38.3538 27.9188 37.9103 28.9235 37.0504C29.9281 36.1906 29.6928 35.5208 30.6432 34.7877" stroke="#85340A" stroke-width="0.1408"/>
<path d="M31.6905 31.6853L25.7546 38.0925C25.7546 38.0925 25.6372 38.2105 25.7118 38.2904C25.7983 38.3654 25.9157 38.2475 25.9157 38.2475L32.3233 32.3098M29.4272 33.4125C28.296 33.8256 27.9651 34.7662 26.9375 35.0949C25.8931 35.4166 25.5626 36.1908 25.2312 36.4944C24.8899 36.7743 24.5575 36.6072 24.5424 36.7381C24.5323 36.8809 24.9377 36.99 25.4641 36.6889C25.9738 36.3808 25.9679 35.8983 27.2252 35.4884C28.4824 35.0784 28.5213 34.3696 29.6798 34.0559" fill="#F6B40E"/>
<path d="M31.6905 31.6853L25.7546 38.0925C25.7546 38.0925 25.6372 38.2105 25.7118 38.2904C25.7983 38.3654 25.9157 38.2475 25.9157 38.2475L32.3233 32.3098M29.4272 33.4125C28.296 33.8256 27.9651 34.7662 26.9375 35.0949C25.8931 35.4166 25.5626 36.1908 25.2312 36.4944C24.8899 36.7743 24.5575 36.6072 24.5424 36.7381C24.5323 36.8809 24.9377 36.99 25.4641 36.6889C25.9738 36.3808 25.9679 35.8983 27.2252 35.4884C28.4824 35.0784 28.5213 34.3696 29.6798 34.0559" stroke="#85340A" stroke-width="0.1408"/>
<path d="M32.5501 35.1232C32.6141 36.2752 33.2669 36.7872 33.1389 37.8496C33.4205 37.0176 32.7421 36.3648 32.7805 35.136M31.7949 32.0896L34.2909 37.5424L32.2045 31.9232" fill="#85340A"/>
<path d="M31.313 35.0961C30.9312 36.1849 31.3384 36.9077 30.8136 37.8403C31.3922 37.1794 31.0152 36.3167 31.5209 35.1961M31.7762 32.0044L31.9955 37.9973L32.2183 32.0074" fill="#85340A"/>
<path d="M30.1814 34.5976C29.4121 35.4575 29.5116 36.2811 28.6699 36.9418C29.4573 36.5526 29.4392 35.6113 30.3353 34.7696M31.7925 31.9185L29.7017 37.5392L32.1998 32.0905" fill="#85340A"/>
<path d="M29.3248 33.7037C28.285 34.2037 28.0617 35.0027 27.0312 35.291C27.9077 35.2328 28.2512 34.3562 29.4011 33.9215M31.8385 31.8451L27.7559 36.2378L32.1489 32.1598" fill="#85340A"/>
<path d="M31.8341 31.5904L23.8981 35.2384C23.8981 35.2384 23.7445 35.3024 23.7829 35.4048C23.8341 35.5072 23.9877 35.4432 23.9877 35.4432L32.1797 32.4096M29.0821 32.32C27.8789 32.2688 27.2133 33.0112 26.1381 32.9216C25.0501 32.8192 24.4485 33.408 24.0261 33.5616C23.6037 33.6896 23.3605 33.408 23.2965 33.5232C23.2325 33.6512 23.5653 33.9072 24.1669 33.8304C24.7557 33.7408 24.9349 33.2928 26.2533 33.3952C27.5717 33.4976 27.8789 32.8576 29.0693 33.0112" fill="#F6B40E"/>
<path d="M31.8341 31.5904L23.8981 35.2384C23.8981 35.2384 23.7445 35.3024 23.7829 35.4048C23.8341 35.5072 23.9877 35.4432 23.9877 35.4432L32.1797 32.4096M29.0821 32.32C27.8789 32.2688 27.2133 33.0112 26.1381 32.9216C25.0501 32.8192 24.4485 33.408 24.0261 33.5616C23.6037 33.6896 23.3605 33.408 23.2965 33.5232C23.2325 33.6512 23.5653 33.9072 24.1669 33.8304C24.7557 33.7408 24.9349 33.2928 26.2533 33.3952C27.5717 33.4976 27.8789 32.8576 29.0693 33.0112" stroke="#85340A" stroke-width="0.1408"/>
<path d="M32.003 31.5579L23.275 31.8912C23.275 31.8912 23.1086 31.8916 23.1049 32.0009C23.113 32.1151 23.2794 32.1147 23.2794 32.1147L32.0088 32.447M29.1813 31.1788C28.0892 30.6711 27.1902 31.1022 26.2311 30.608C25.2651 30.097 24.484 30.4108 24.035 30.3911C23.5957 30.3477 23.4788 29.9944 23.3756 30.0764C23.2675 30.1701 23.477 30.534 24.0622 30.6933C24.6405 30.8358 24.9775 30.4905 26.1563 31.0896C27.3352 31.6888 27.8639 31.215 28.9049 31.8125" fill="#F6B40E"/>
<path d="M32.003 31.5579L23.275 31.8912C23.275 31.8912 23.1086 31.8916 23.1049 32.0009C23.113 32.1151 23.2794 32.1147 23.2794 32.1147L32.0088 32.447M29.1813 31.1788C28.0892 30.6711 27.1902 31.1022 26.2311 30.608C25.2651 30.097 24.484 30.4108 24.035 30.3911C23.5957 30.3477 23.4788 29.9944 23.3756 30.0764C23.2675 30.1701 23.477 30.534 24.0622 30.6933C24.6405 30.8358 24.9775 30.4905 26.1563 31.0896C27.3352 31.6888 27.8639 31.215 28.9049 31.8125" stroke="#85340A" stroke-width="0.1408"/>
<path d="M32.1716 31.5927L23.9805 28.5606C23.9805 28.5606 23.8266 28.4973 23.7814 28.5968C23.7452 28.7054 23.8991 28.7688 23.8991 28.7688L31.8368 32.4163M29.7098 30.1627C28.8952 29.2757 27.8996 29.33 27.2027 28.5063C26.5057 27.6646 25.664 27.6555 25.2567 27.4655C24.8675 27.2573 24.8947 26.8862 24.7679 26.9224C24.6322 26.9677 24.6865 27.384 25.1662 27.7551C25.6459 28.1081 26.0894 27.918 26.9492 28.9227C27.8091 29.9273 28.4788 29.692 29.212 30.6424" fill="#F6B40E"/>
<path d="M32.1716 31.5927L23.9805 28.5606C23.9805 28.5606 23.8266 28.4973 23.7814 28.5968C23.7452 28.7054 23.8991 28.7688 23.8991 28.7688L31.8368 32.4163M29.7098 30.1627C28.8952 29.2757 27.8996 29.33 27.2027 28.5063C26.5057 27.6646 25.664 27.6555 25.2567 27.4655C24.8675 27.2573 24.8947 26.8862 24.7679 26.9224C24.6322 26.9677 24.6865 27.384 25.1662 27.7551C25.6459 28.1081 26.0894 27.918 26.9492 28.9227C27.8091 29.9273 28.4788 29.692 29.212 30.6424" stroke="#85340A" stroke-width="0.1408"/>
<path d="M32.315 31.6895L25.9077 25.7536C25.9077 25.7536 25.7898 25.6362 25.7099 25.7109C25.6349 25.7974 25.7528 25.9148 25.7528 25.9148L31.6904 32.3223M30.5878 29.4262C30.1747 28.295 29.2341 27.9642 28.9054 26.9365C28.5836 25.8922 27.8094 25.5617 27.5059 25.2302C27.226 24.889 27.3931 24.5565 27.2621 24.5415C27.1194 24.5313 27.0102 24.9367 27.3114 25.4632C27.6195 25.9729 28.102 25.967 28.5119 27.2242C28.9218 28.4814 29.6307 28.5203 29.9443 29.6789" fill="#F6B40E"/>
<path d="M32.315 31.6895L25.9077 25.7536C25.9077 25.7536 25.7898 25.6362 25.7099 25.7109C25.6349 25.7974 25.7528 25.9148 25.7528 25.9148L31.6904 32.3223M30.5878 29.4262C30.1747 28.295 29.2341 27.9642 28.9054 26.9365C28.5836 25.8922 27.8094 25.5617 27.5059 25.2302C27.226 24.889 27.3931 24.5565 27.2621 24.5415C27.1194 24.5313 27.0102 24.9367 27.3114 25.4632C27.6195 25.9729 28.102 25.967 28.5119 27.2242C28.9218 28.4814 29.6307 28.5203 29.9443 29.6789" stroke="#85340A" stroke-width="0.1408"/>
<path d="M28.8762 32.5504C27.7242 32.6144 27.2122 33.2672 26.1498 33.1392C26.9818 33.4208 27.6346 32.7424 28.8634 32.7808M31.9098 31.7952L26.457 34.2912L32.0762 32.2048" fill="#85340A"/>
<path d="M28.905 31.3133C27.8162 30.9316 27.0933 31.3388 26.1608 30.8139C26.8217 31.3925 27.6844 31.0156 28.805 31.5213M31.9967 31.7765L26.0037 31.9958L31.9936 32.2186" fill="#85340A"/>
<path d="M29.4025 30.1808C28.5426 29.4114 27.719 29.511 27.0583 28.6692C27.4475 29.4567 28.3888 29.4386 29.2305 30.3346M32.0816 31.7918L26.4609 29.7011L31.9096 32.1991" fill="#85340A"/>
<path d="M30.2964 29.3252C29.7965 28.2854 28.9974 28.0621 28.7091 27.0316C28.7673 27.9081 29.6439 28.2516 30.0787 29.4015M32.1551 31.8388L27.7624 27.7563L31.8403 32.1493" fill="#85340A"/>
<path d="M32.4102 31.8336L28.7622 23.8976C28.7622 23.8976 28.6982 23.744 28.5958 23.7824C28.4934 23.8336 28.5574 23.9872 28.5574 23.9872L31.591 32.1792M31.6806 29.0816C31.7318 27.8784 30.9894 27.2128 31.079 26.1376C31.1814 25.0496 30.5926 24.448 30.439 24.0256C30.311 23.6032 30.5926 23.36 30.4774 23.296C30.3494 23.232 30.0934 23.5648 30.1702 24.1664C30.2598 24.7552 30.7078 24.9344 30.6054 26.2528C30.503 27.5712 31.143 27.8784 30.9894 29.0688" fill="#F6B40E"/>
<path d="M32.4102 31.8336L28.7622 23.8976C28.7622 23.8976 28.6982 23.744 28.5958 23.7824C28.4934 23.8336 28.5574 23.9872 28.5574 23.9872L31.591 32.1792M31.6806 29.0816C31.7318 27.8784 30.9894 27.2128 31.079 26.1376C31.1814 25.0496 30.5926 24.448 30.439 24.0256C30.311 23.6032 30.5926 23.36 30.4774 23.296C30.3494 23.232 30.0934 23.5648 30.1702 24.1664C30.2598 24.7552 30.7078 24.9344 30.6054 26.2528C30.503 27.5712 31.143 27.8784 30.9894 29.0688" stroke="#85340A" stroke-width="0.1408"/>
<path d="M32.4408 32.003L32.1075 23.2751C32.1075 23.2751 32.1072 23.1087 31.9979 23.105C31.8837 23.1131 31.884 23.2795 31.884 23.2795L31.5517 32.0088M32.8199 29.1813C33.3277 28.0893 32.8965 27.1902 33.3907 26.2312C33.9017 25.2652 33.5879 24.484 33.6077 24.035C33.6511 23.5958 34.0043 23.4789 33.9224 23.3756C33.8286 23.2675 33.4647 23.477 33.3055 24.0622C33.1629 24.6405 33.5082 24.9775 32.9091 26.1564C32.31 27.3352 32.7837 27.8639 32.1862 28.905" fill="#F6B40E"/>
<path d="M32.4408 32.003L32.1075 23.2751C32.1075 23.2751 32.1072 23.1087 31.9979 23.105C31.8837 23.1131 31.884 23.2795 31.884 23.2795L31.5517 32.0088M32.8199 29.1813C33.3277 28.0893 32.8965 27.1902 33.3907 26.2312C33.9017 25.2652 33.5879 24.484 33.6077 24.035C33.6511 23.5958 34.0043 23.4789 33.9224 23.3756C33.8286 23.2675 33.4647 23.477 33.3055 24.0622C33.1629 24.6405 33.5082 24.9775 32.9091 26.1564C32.31 27.3352 32.7837 27.8639 32.1862 28.905" stroke="#85340A" stroke-width="0.1408"/>
<path d="M32.4065 32.172L35.4386 23.9808C35.4386 23.9808 35.5019 23.827 35.4024 23.7817C35.2937 23.7455 35.2304 23.8994 35.2304 23.8994L31.5828 31.8371M33.8365 29.7101C34.7235 28.8955 34.6692 27.8999 35.4929 27.203C36.3346 26.5061 36.3437 25.6643 36.5337 25.257C36.7419 24.8678 37.113 24.895 37.0768 24.7683C37.0315 24.6325 36.6152 24.6868 36.2441 25.1665C35.8911 25.6462 36.0812 26.0897 35.0765 26.9496C34.0719 27.8094 34.3072 28.4792 33.3568 29.2123" fill="#F6B40E"/>
<path d="M32.4065 32.172L35.4386 23.9808C35.4386 23.9808 35.5019 23.827 35.4024 23.7817C35.2937 23.7455 35.2304 23.8994 35.2304 23.8994L31.5828 31.8371M33.8365 29.7101C34.7235 28.8955 34.6692 27.8999 35.4929 27.203C36.3346 26.5061 36.3437 25.6643 36.5337 25.257C36.7419 24.8678 37.113 24.895 37.0768 24.7683C37.0315 24.6325 36.6152 24.6868 36.2441 25.1665C35.8911 25.6462 36.0812 26.0897 35.0765 26.9496C34.0719 27.8094 34.3072 28.4792 33.3568 29.2123" stroke="#85340A" stroke-width="0.1408"/>
<path d="M32.3095 32.3147L38.2454 25.9075C38.2454 25.9075 38.3628 25.7895 38.2882 25.7096C38.2017 25.6346 38.0843 25.7525 38.0843 25.7525L31.6767 31.6902M34.5728 30.5875C35.704 30.1744 36.0349 29.2338 37.0625 28.9051C38.1069 28.5834 38.4374 27.8092 38.7688 27.5056C39.1101 27.2257 39.4425 27.3928 39.4576 27.2619C39.4677 27.1191 39.0623 27.01 38.5359 27.3111C38.0262 27.6192 38.0321 28.1017 36.7748 28.5116C35.5176 28.9216 35.4787 29.6304 34.3202 29.9441" fill="#F6B40E"/>
<path d="M32.3095 32.3147L38.2454 25.9075C38.2454 25.9075 38.3628 25.7895 38.2882 25.7096C38.2017 25.6346 38.0843 25.7525 38.0843 25.7525L31.6767 31.6902M34.5728 30.5875C35.704 30.1744 36.0349 29.2338 37.0625 28.9051C38.1069 28.5834 38.4374 27.8092 38.7688 27.5056C39.1101 27.2257 39.4425 27.3928 39.4576 27.2619C39.4677 27.1191 39.0623 27.01 38.5359 27.3111C38.0262 27.6192 38.0321 28.1017 36.7748 28.5116C35.5176 28.9216 35.4787 29.6304 34.3202 29.9441" stroke="#85340A" stroke-width="0.1408"/>
<path d="M31.4499 28.8768C31.3859 27.7248 30.7331 27.2128 30.8611 26.1504C30.5795 26.9824 31.2579 27.6352 31.2195 28.864M32.2051 31.9104L29.7091 26.4576L31.7955 32.0768" fill="#85340A"/>
<path d="M32.687 28.9039C33.0688 27.8151 32.6616 27.0923 33.1864 26.1597C32.6078 26.8206 32.9848 27.6833 32.4791 28.8039M32.2238 31.9956L32.0045 26.0027L31.7817 31.9926" fill="#85340A"/>
<path d="M33.8186 29.4024C34.5879 28.5425 34.4884 27.7189 35.3301 27.0582C34.5427 27.4474 34.5608 28.3887 33.6647 29.2304M32.2075 32.0815L34.2983 26.4608L31.8002 31.9095" fill="#85340A"/>
<path d="M34.6752 30.2963C35.715 29.7963 35.9383 28.9973 36.9688 28.709C36.0923 28.7672 35.7488 29.6438 34.5989 30.0785M32.1615 32.1549L36.2441 27.7622L31.8511 31.8402" fill="#85340A"/>
<path d="M32.1659 32.4096L40.1019 28.7616C40.1019 28.7616 40.2555 28.6976 40.2171 28.5952C40.1659 28.4928 40.0123 28.5568 40.0123 28.5568L31.8203 31.5904M34.9179 31.68C36.1211 31.7312 36.7867 30.9888 37.8619 31.0784C38.9499 31.1808 39.5515 30.592 39.9739 30.4384C40.3963 30.3104 40.6395 30.592 40.7035 30.4768C40.7675 30.3488 40.4347 30.0928 39.8331 30.1696C39.2443 30.2592 39.0651 30.7072 37.7467 30.6048C36.4283 30.5024 36.1211 31.1424 34.9307 30.9888" fill="#F6B40E"/>
<path d="M32.1659 32.4096L40.1019 28.7616C40.1019 28.7616 40.2555 28.6976 40.2171 28.5952C40.1659 28.4928 40.0123 28.5568 40.0123 28.5568L31.8203 31.5904M34.9179 31.68C36.1211 31.7312 36.7867 30.9888 37.8619 31.0784C38.9499 31.1808 39.5515 30.592 39.9739 30.4384C40.3963 30.3104 40.6395 30.592 40.7035 30.4768C40.7675 30.3488 40.4347 30.0928 39.8331 30.1696C39.2443 30.2592 39.0651 30.7072 37.7467 30.6048C36.4283 30.5024 36.1211 31.1424 34.9307 30.9888" stroke="#85340A" stroke-width="0.1408"/>
<path d="M31.997 32.4421L40.725 32.1088C40.725 32.1088 40.8914 32.1084 40.8951 31.9991C40.887 31.8849 40.7206 31.8853 40.7206 31.8853L31.9912 31.553M34.8187 32.8212C35.9108 33.3289 36.8098 32.8978 37.7689 33.392C38.7349 33.903 39.516 33.5892 39.965 33.6089C40.4043 33.6523 40.5212 34.0056 40.6244 33.9236C40.7325 33.8299 40.523 33.466 39.9378 33.3067C39.3595 33.1642 39.0225 33.5095 37.8437 32.9104C36.6648 32.3112 36.1361 32.7849 35.0951 32.1875" fill="#F6B40E"/>
<path d="M31.997 32.4421L40.725 32.1088C40.725 32.1088 40.8914 32.1084 40.8951 31.9991C40.887 31.8849 40.7206 31.8853 40.7206 31.8853L31.9912 31.553M34.8187 32.8212C35.9108 33.3289 36.8098 32.8978 37.7689 33.392C38.7349 33.903 39.516 33.5892 39.965 33.6089C40.4043 33.6523 40.5212 34.0056 40.6244 33.9236C40.7325 33.8299 40.523 33.466 39.9378 33.3067C39.3595 33.1642 39.0225 33.5095 37.8437 32.9104C36.6648 32.3112 36.1361 32.7849 35.0951 32.1875" stroke="#85340A" stroke-width="0.1408"/>
<path d="M31.8284 32.4073L40.0195 35.4394C40.0195 35.4394 40.1734 35.5027 40.2186 35.4032C40.2548 35.2945 40.1009 35.2312 40.1009 35.2312L32.1632 31.5837M34.2902 33.8373C35.1048 34.7243 36.1004 34.67 36.7973 35.4937C37.4943 36.3354 38.336 36.3445 38.7433 36.5345C39.1325 36.7427 39.1053 37.1138 39.2321 37.0776C39.3678 37.0323 39.3135 36.616 38.8338 36.2449C38.3541 35.8919 37.9106 36.082 37.0508 35.0773C36.1909 34.0727 35.5212 34.308 34.788 33.3576" fill="#F6B40E"/>
<path d="M31.8284 32.4073L40.0195 35.4394C40.0195 35.4394 40.1734 35.5027 40.2186 35.4032C40.2548 35.2945 40.1009 35.2312 40.1009 35.2312L32.1632 31.5837M34.2902 33.8373C35.1048 34.7243 36.1004 34.67 36.7973 35.4937C37.4943 36.3354 38.336 36.3445 38.7433 36.5345C39.1325 36.7427 39.1053 37.1138 39.2321 37.0776C39.3678 37.0323 39.3135 36.616 38.8338 36.2449C38.3541 35.8919 37.9106 36.082 37.0508 35.0773C36.1909 34.0727 35.5212 34.308 34.788 33.3576" stroke="#85340A" stroke-width="0.1408"/>
<path d="M31.685 32.3105L38.0923 38.2464C38.0923 38.2464 38.2102 38.3638 38.2901 38.2891C38.3651 38.2026 38.2472 38.0852 38.2472 38.0852L32.3096 31.6777M33.4122 34.5738C33.8253 35.705 34.7659 36.0358 35.0946 37.0635C35.4164 38.1078 36.1906 38.4383 36.4941 38.7698C36.774 39.111 36.6069 39.4435 36.7379 39.4585C36.8806 39.4687 36.9898 39.0633 36.6886 38.5368C36.3805 38.0271 35.898 38.033 35.4881 36.7758C35.0782 35.5186 34.3693 35.4797 34.0557 34.3211" fill="#F6B40E"/>
<path d="M31.685 32.3105L38.0923 38.2464C38.0923 38.2464 38.2102 38.3638 38.2901 38.2891C38.3651 38.2026 38.2472 38.0852 38.2472 38.0852L32.3096 31.6777M33.4122 34.5738C33.8253 35.705 34.7659 36.0358 35.0946 37.0635C35.4164 38.1078 36.1906 38.4383 36.4941 38.7698C36.774 39.111 36.6069 39.4435 36.7379 39.4585C36.8806 39.4687 36.9898 39.0633 36.6886 38.5368C36.3805 38.0271 35.898 38.033 35.4881 36.7758C35.0782 35.5186 34.3693 35.4797 34.0557 34.3211" stroke="#85340A" stroke-width="0.1408"/>
<path d="M35.1238 31.4496C36.2758 31.3856 36.7878 30.7328 37.8502 30.8608C37.0182 30.5792 36.3654 31.2576 35.1366 31.2192M32.0902 32.2048L37.543 29.7088L31.9238 31.7952" fill="#85340A"/>
<path d="M35.095 32.6867C36.1838 33.0684 36.9067 32.6612 37.8392 33.1861C37.1783 32.6075 36.3156 32.9844 35.195 32.4787M32.0033 32.2235L37.9963 32.0042L32.0064 31.7814" fill="#85340A"/>
<path d="M34.5975 33.8192C35.4574 34.5886 36.281 34.489 36.9417 35.3308C36.5525 34.5433 35.6112 34.5614 34.7695 33.6654M31.9184 32.2082L37.5391 34.2989L32.0904 31.8009" fill="#85340A"/>
<path d="M33.7036 34.6748C34.2035 35.7146 35.0026 35.9379 35.2909 36.9684C35.2327 36.0919 34.3561 35.7484 33.9213 34.5985M31.8449 32.1611L36.2376 36.2437L32.1597 31.8507" fill="#85340A"/>
<path d="M31.9992 35.55C33.9598 35.55 35.5492 33.9606 35.5492 32C35.5492 30.0394 33.9598 28.45 31.9992 28.45C30.0386 28.45 28.4492 30.0394 28.4492 32C28.4492 33.9606 30.0386 35.55 31.9992 35.55Z" fill="#F6B40E" stroke="#85340A" stroke-width="0.1875"/>
<path d="M33.2121 31.25C32.9621 31.25 32.7371 31.35 32.5996 31.5625C32.8746 31.8125 33.4746 31.8375 33.8871 31.5375C33.8008 31.4444 33.6964 31.3698 33.5804 31.3182C33.4644 31.2666 33.3391 31.2392 33.2121 31.2375V31.25ZM33.2121 31.3C33.4496 31.3 33.6621 31.4 33.6996 31.5125C33.4246 31.8125 32.9871 31.7875 32.7121 31.5625C32.8371 31.375 33.0246 31.3 33.2121 31.3Z" fill="#843511"/>
<path d="M33.2618 31.075C32.9118 31.075 32.8243 31.15 32.6618 31.2875C32.4993 31.425 32.4118 31.4 32.3868 31.425C32.3618 31.45 32.3868 31.5375 32.4368 31.5125C32.4993 31.475 32.6118 31.425 32.7743 31.2875C32.9368 31.1625 33.0993 31.1625 33.2743 31.1625C33.7493 31.1625 34.0243 31.5625 34.0868 31.5375C34.1368 31.5125 33.8118 31.075 33.2618 31.075Z" fill="#85340A"/>
<path d="M34.25 31.2375C33.625 30.6875 32.825 30.6125 32.3875 31.0125C32.2851 31.1486 32.2166 31.3072 32.1875 31.475C32.125 31.7875 32.225 32.125 32.475 32.475C32.4375 32.475 32.3875 32.4875 32.35 32.525C32.1375 32.1 32.0625 31.675 32.1375 31.275L32.225 30.9625C32.825 30.4625 33.65 30.4125 34.25 31.2375Z" fill="#85340A"/>
<path d="M33.1992 31.7625C33.3373 31.7625 33.4492 31.6506 33.4492 31.5125C33.4492 31.3744 33.3373 31.2625 33.1992 31.2625C33.0611 31.2625 32.9492 31.3744 32.9492 31.5125C32.9492 31.6506 33.0611 31.7625 33.1992 31.7625Z" fill="#85340A"/>
<path d="M33.9133 31.675C33.4508 32.025 32.9883 32 32.7133 31.8375C32.4383 31.675 32.4383 31.6125 32.5008 31.6125C32.5508 31.6125 32.6133 31.675 32.8258 31.7875C33.0508 31.8875 33.3758 31.8875 33.9258 31.6625L33.9133 31.675Z" fill="#85340A"/>
<path d="M31.4496 32.5C31.4077 32.5059 31.3681 32.5223 31.3343 32.5477C31.3005 32.5732 31.2737 32.6067 31.2564 32.6453C31.2391 32.6839 31.2319 32.7262 31.2354 32.7684C31.2389 32.8105 31.2531 32.851 31.2765 32.8862C31.3 32.9214 31.332 32.9501 31.3695 32.9695C31.407 32.989 31.4489 32.9986 31.4912 32.9975C31.5334 32.9963 31.5747 32.9845 31.6112 32.9631C31.6476 32.9417 31.6781 32.9114 31.6996 32.875C31.7996 32.95 31.9246 32.95 31.9996 32.95H32.0371C32.0996 32.95 32.2371 32.95 32.3246 32.875C32.3746 32.9375 32.4496 32.975 32.5246 32.975C32.582 32.9694 32.6357 32.9441 32.6766 32.9034C32.7175 32.8627 32.7431 32.8091 32.749 32.7517C32.7548 32.6943 32.7407 32.6366 32.7089 32.5885C32.6771 32.5403 32.6297 32.5047 32.5746 32.4875C32.6371 32.5125 32.6871 32.575 32.6871 32.65C32.6871 32.6948 32.6693 32.7377 32.6377 32.7693C32.606 32.801 32.5631 32.8187 32.5184 32.8187C32.4736 32.8187 32.4307 32.801 32.399 32.7693C32.3674 32.7377 32.3496 32.6948 32.3496 32.65C32.3209 32.7159 32.2737 32.7722 32.2139 32.8121C32.1541 32.852 32.084 32.8738 32.0121 32.875C31.9412 32.8697 31.8729 32.8463 31.8138 32.8069C31.7547 32.7674 31.7067 32.7134 31.6746 32.65C31.6746 32.7375 31.5996 32.8125 31.5121 32.8125C31.469 32.8191 31.425 32.8084 31.3899 32.7826C31.3547 32.7568 31.3312 32.7181 31.3246 32.675C31.318 32.6319 31.3287 32.5879 31.3545 32.5528C31.3803 32.5176 31.419 32.4941 31.4621 32.4875L31.4496 32.5ZM31.7246 33.225C31.4496 33.225 31.3496 33.475 31.0996 33.6375C31.2246 33.575 31.3496 33.475 31.5371 33.3625C31.7246 33.25 31.8871 33.3875 31.9996 33.3875C32.1121 33.3875 32.2746 33.25 32.4621 33.3625C32.6496 33.475 32.7621 33.575 32.8996 33.6375C32.6496 33.4625 32.5496 33.225 32.2746 33.225C32.179 33.2322 32.0856 33.2576 31.9996 33.3C31.8746 33.25 31.7746 33.225 31.7246 33.225Z" fill="#85340A"/>
<path d="M31.6258 33.5375C31.5258 33.5375 31.3758 33.575 31.1758 33.6375C31.6758 33.5125 31.7758 33.6875 32.0008 33.6875C32.2133 33.6875 32.3258 33.525 32.8258 33.6375C32.2758 33.4625 32.1633 33.575 32.0008 33.575C31.8883 33.575 31.8133 33.5375 31.6258 33.5375Z" fill="#85340A"/>
<path d="M31.1996 33.625H31.0996C31.6746 33.6875 31.3996 34.0125 31.9996 34.0125C32.5996 34.0125 32.3246 33.6875 32.8996 33.6375C32.2996 33.575 32.4871 33.9375 31.9996 33.9375C31.5371 33.9375 31.6746 33.625 31.1996 33.625Z" fill="#85340A"/>
<path d="M29.7871 31.2375C30.4121 30.6875 31.2121 30.6125 31.6496 31.0125C31.752 31.1486 31.8205 31.3072 31.8496 31.475C31.9121 31.7875 31.8121 32.125 31.5621 32.475C31.5996 32.475 31.6496 32.4875 31.6871 32.525C31.8996 32.1 31.9746 31.675 31.8996 31.275L31.8121 30.9625C31.2121 30.4625 30.3871 30.4125 29.7871 31.2375Z" fill="#85340A"/>
<path d="M30.7754 31.075C31.1254 31.075 31.2129 31.15 31.3754 31.2875C31.5379 31.425 31.6254 31.4 31.6504 31.425C31.6754 31.45 31.6504 31.5375 31.6004 31.5125C31.5379 31.475 31.4254 31.425 31.2629 31.2875C31.1004 31.1625 30.9379 31.1625 30.7629 31.1625C30.2879 31.1625 30.0129 31.5625 29.9504 31.5375C29.9004 31.5125 30.2254 31.075 30.7754 31.075Z" fill="#85340A"/>
<path d="M30.7629 31.25C30.5129 31.25 30.2879 31.35 30.1504 31.5625C30.4254 31.8125 31.0254 31.8375 31.4379 31.5375C31.3516 31.4444 31.2472 31.3698 31.1312 31.3182C31.0152 31.2666 30.8899 31.2392 30.7629 31.2375V31.25ZM30.7629 31.3C31.0004 31.3 31.2129 31.4 31.2504 31.5125C30.9754 31.8125 30.5379 31.7875 30.2629 31.5625C30.3879 31.375 30.5754 31.3 30.7629 31.3Z" fill="#843511"/>
<path d="M30.7871 31.7625C30.9252 31.7625 31.0371 31.6506 31.0371 31.5125C31.0371 31.3744 30.9252 31.2625 30.7871 31.2625C30.649 31.2625 30.5371 31.3744 30.5371 31.5125C30.5371 31.6506 30.649 31.7625 30.7871 31.7625Z" fill="#85340A"/>
<path d="M30.1258 31.675C30.5883 32.025 31.0508 32 31.3258 31.8375C31.6008 31.675 31.6008 31.6125 31.5383 31.6125C31.4883 31.6125 31.4258 31.675 31.2133 31.7875C30.9883 31.8875 30.6633 31.8875 30.1133 31.6625L30.1258 31.675Z" fill="#85340A"/>
</g>
<defs>
<clipPath id="clip0_10660_8474">
<rect width="64" height="64" rx="32" fill="white"/>
</clipPath>
</defs>
</svg>
