<svg width="64" height="64" viewBox="0 0 64 64" fill="none" xmlns="http://www.w3.org/2000/svg">
<g clip-path="url(#clip0_10660_8532)">
<mask id="mask0_10660_8532" style="mask-type:luminance" maskUnits="userSpaceOnUse" x="0" y="0" width="64" height="64">
<path d="M0 0H64V64H0V0Z" fill="white"/>
</mask>
<g mask="url(#mask0_10660_8532)">
<path d="M0 0V64H96V0H0Z" fill="#3399CC"/>
<path d="M0 42.6625V46.225H96V42.6625H0ZM0 49.7875V53.3375H96V49.775H0V49.7875Z" fill="#FFFF00"/>
<path d="M15.2504 3.5L15.5504 3.8125L15.2629 3.5125L15.2504 3.5ZM15.5504 4.1L15.8504 4.4L15.5629 4.1H15.5504Z" fill="#99CCCC"/>
<path d="M15.5504 4.4L15.8504 4.7L15.5629 4.4H15.5504Z" fill="#CCCCFF"/>
<path d="M15.25 5L15.55 5.2875L15.2625 5H15.25Z" fill="#CC6666"/>
<path d="M15.5504 5.5875L15.8504 5.8875L15.5629 5.5875H15.5504Z" fill="#FFCCCC"/>
<path d="M14.3758 5.8875L14.6633 6.1875L14.3633 5.8875H14.3758Z" fill="#66CCCC"/>
<path d="M15.2125 4.1125L13.125 12.025L5.1875 14.175L13.1 16.2375L15.2125 24.15L17.325 16.2375L25.225 14.125L17.3125 12.025L15.2125 4.1125Z" fill="#CC0000" stroke="white" stroke-width="0.375"/>
<path d="M14.3758 6.1875L14.6633 6.4875L14.3633 6.1875" fill="#99CCFF"/>
<path d="M14.3758 7.375L14.6633 7.675L14.3633 7.375" fill="#FFCCCC"/>
<path d="M13.4746 8.875L13.7746 9.1625L13.4746 8.8625V8.875Z" fill="#99CCCC"/>
<path d="M17.0371 8.875L17.3371 9.1625L17.0496 8.8625L17.0371 8.875Z" fill="#99CCCC"/>
<path d="M13.1758 9.75L13.4758 10.05L13.1758 9.7625V9.75Z" fill="#99CCCC"/>
<path d="M17.3379 9.75L17.6379 10.05L17.3379 9.7625V9.75Z" fill="#99CCCC"/>
<path d="M11.875 12.5375L12.0875 12.6375L11.8875 12.5375" fill="#CC3333"/>
<path d="M8.12578 13.025L8.41328 13.325L8.11328 13.025H8.12578Z" fill="#99CCFF"/>
<path d="M6.32422 13.625L6.62422 13.925L6.33672 13.625H6.32422Z" fill="#CCCCFF"/>
<path d="M6.32422 14.8125L6.62422 15.125L6.33672 14.825L6.32422 14.8125Z" fill="#CCCCFF"/>
<path d="M7.8125 15.4125L8.1125 15.7125L7.825 15.4125H7.8125Z" fill="#6699CC"/>
<path d="M8.12578 15.4125L8.41328 15.7125L8.11328 15.4125H8.12578Z" fill="#99CCFF"/>
<path d="M10.0996 15.5L10.2996 15.6125L10.0996 15.5125" fill="#CC3333"/>
<path d="M11.875 16.1L12.0875 16.2L11.8875 16.1" fill="#CC3333"/>
<path d="M14.3758 21.0625L14.6633 21.3625L14.3633 21.0625" fill="#FFCCCC"/>
<path d="M14.3758 22.25L14.6633 22.55L14.3633 22.25H14.3758Z" fill="#99CCFF"/>
<path d="M14.3758 22.55L14.6633 22.85L14.3633 22.55" fill="#66CCCC"/>
<path d="M15.5504 22.85L15.8504 23.15L15.5629 22.85H15.5504Z" fill="#FFCCCC"/>
<path d="M15.25 23.45L15.55 23.7375L15.2625 23.45H15.25Z" fill="#CC6666"/>
<path d="M15.5504 24.0375L15.8504 24.3375L15.5629 24.0375H15.5504Z" fill="#CCCCFF"/>
<path d="M15.5504 24.3375L15.8504 24.6375L15.5629 24.3375" fill="#99CCCC"/>
</g>
</g>
<defs>
<clipPath id="clip0_10660_8532">
<rect width="64" height="64" rx="32" fill="white"/>
</clipPath>
</defs>
</svg>
