<svg width="64" height="64" viewBox="0 0 64 64" fill="none" xmlns="http://www.w3.org/2000/svg">
<g clip-path="url(#clip0_10660_8714)">
<path d="M0 0H64V64H0V0Z" fill="#00008B"/>
<path d="M32 0V4L20.125 16L32 27.6875V32H27.8125L15.875 20.25L4.25 32H0V27.75L11.625 16.0625L0 4.625V0H3.875L15.875 11.75L27.5 0H32Z" fill="white"/>
<path d="M11.5 20.25L12.1875 22.375L2.625 32H0V31.8125L11.5 20.25ZM19.25 19.5L22.625 20L32 29.1875V32L19.25 19.5ZM32 0L20 12.25L19.75 9.5L29.125 0H32ZM0 0.0625L12.0625 11.875L8.375 11.375L0 3.0625V0.0625Z" fill="#FF0000"/>
<path d="M11 0V32H21V0H11ZM0 11V21H32V11H0Z" fill="white"/>
<path d="M0 13V19H32V13H0ZM13 0V32H19V0H13Z" fill="#FF0000"/>
<path d="M25.2492 50.35L19.5242 51.025L20.0992 56.7625L15.9992 52.7125L11.8742 56.7375L12.4867 51L6.76172 50.275L11.6242 47.175L8.62422 42.25L14.0742 44.125L16.0492 38.7L17.9867 44.1375L23.4492 42.3L20.4117 47.2L25.2617 50.3375L25.2492 50.35ZM53.0867 51.35L50.5242 51.675L50.7992 54.2375L48.9492 52.4375L47.1117 54.25L47.3617 51.6875L44.7992 51.3875L46.9617 49.9875L45.5992 47.8L48.0492 48.6125L48.9117 46.175L49.7992 48.6L52.2367 47.7625L50.8992 49.9625L53.0867 51.35ZM51.8742 36.7L52.2117 35.075L50.9867 33.95L52.6367 33.7625L53.3242 32.25L54.0117 33.7625L55.6617 33.95L54.4367 35.075L54.7742 36.7L53.3242 35.875L51.8742 36.7ZM41.3617 29.2L38.8242 29.475L39.0492 32.0125L37.2492 30.2L35.3992 31.9625L35.6992 29.425L33.1742 29.0875L35.3367 27.7375L34.0242 25.55L36.4367 26.4L37.3367 24.0125L38.1742 26.425L40.5992 25.6375L39.2367 27.8L41.3617 29.2ZM63.3367 25.1L60.7242 25.4375L61.0117 28.05L59.1242 26.2125L57.2492 28.0625L57.5117 25.4375L54.8992 25.1375L57.1117 23.7L55.7242 21.4625L58.2242 22.3L59.0992 19.825L59.9992 22.3L62.4867 21.4375L61.1117 23.6875L63.3367 25.1ZM53.0742 14.6625L50.4867 14.95L50.7242 17.55L48.8867 15.7L46.9992 17.5L47.2992 14.9125L44.7117 14.5625L46.9242 13.1875L45.5867 10.95L48.0492 11.8125L48.9617 9.375L49.8117 11.8375L52.2867 11.025L50.8992 13.225L53.0742 14.6625Z" fill="white"/>
</g>
<defs>
<clipPath id="clip0_10660_8714">
<rect width="64" height="64" rx="32" fill="white"/>
</clipPath>
</defs>
</svg>
