<svg width="64" height="64" viewBox="0 0 64 64" fill="none" xmlns="http://www.w3.org/2000/svg">
<g clip-path="url(#clip0_10660_8725)">
<path d="M0 0H64V64H0V0Z" fill="#3F9C35"/>
<path d="M0 0H64V42.6625H0V0Z" fill="#ED2939"/>
<path d="M0 0H64V21.3375H0V0Z" fill="#00B9E4"/>
<path d="M29.85 41.6C35.1519 41.6 39.45 37.3019 39.45 32C39.45 26.6981 35.1519 22.4 29.85 22.4C24.5481 22.4 20.25 26.6981 20.25 32C20.25 37.3019 24.5481 41.6 29.85 41.6Z" fill="white"/>
<path d="M31.9883 40C36.4066 40 39.9883 36.4183 39.9883 32C39.9883 27.5817 36.4066 24 31.9883 24C27.57 24 23.9883 27.5817 23.9883 32C23.9883 36.4183 27.57 40 31.9883 40Z" fill="#ED2939"/>
<path d="M40.525 26.6625L41.5375 29.5375L44.2875 28.225L42.9875 30.975L45.8625 32L42.9875 33.025L44.2875 35.775L41.5375 34.4625L40.525 37.3375L39.5 34.4625L36.75 35.775L38.0625 33.025L35.1875 32L38.0625 30.975L36.75 28.225L39.5 29.5375L40.525 26.6625Z" fill="white"/>
</g>
<defs>
<clipPath id="clip0_10660_8725">
<rect width="64" height="64" rx="32" fill="white"/>
</clipPath>
</defs>
</svg>
