<svg width="64" height="64" viewBox="0 0 64 64" fill="none" xmlns="http://www.w3.org/2000/svg">
<g clip-path="url(#clip0_10660_8747)">
<path d="M0 -0.0249939H64V64H0V-0.0249939Z" fill="#00267F"/>
<path d="M21.3379 -0.0249939H42.6629V64H21.3379V-0.0249939Z" fill="#FFC726"/>
<path d="M32.0004 21.6625C31.3129 23.55 30.6004 25.525 29.0879 27.0375C29.6794 26.8548 30.294 26.7579 30.9129 26.75V34.7L28.6629 35.0375C28.5754 35.0375 28.5504 34.9125 28.5504 34.7375C28.3168 32.4562 27.8262 30.2086 27.0879 28.0375C27.0379 27.75 26.1879 26.625 26.8379 26.825C26.9254 26.825 27.8004 27.2 27.6629 27.025C26.4072 25.7582 24.7848 24.9186 23.0254 24.625C22.8754 24.5875 22.7754 24.6625 22.9129 24.8375C25.1629 28.3 27.0504 32.3875 27.0379 37.2375C27.9129 37.2375 30.0379 36.725 30.9129 36.725V42.3375H32.0129L32.2629 26.6625L32.0004 21.6625Z" fill="#000001"/>
<path d="M31.9996 21.6625C32.6871 23.55 33.3996 25.525 34.9121 27.0375C34.3206 26.8548 33.706 26.7579 33.0871 26.75V34.7L35.3371 35.0375C35.4246 35.0375 35.4496 34.9125 35.4496 34.7375C35.6832 32.4562 36.1738 30.2086 36.9121 28.0375C36.9621 27.75 37.8121 26.625 37.1621 26.825C37.0746 26.825 36.1996 27.2 36.3371 27.025C37.5928 25.7582 39.2152 24.9186 40.9746 24.625C41.1246 24.5875 41.2246 24.6625 41.0871 24.8375C38.8371 28.3 36.9496 32.3875 36.9621 37.2375C36.0871 37.2375 33.9621 36.725 33.0871 36.725V42.3375H31.9871L31.7371 26.6625L31.9996 21.6625Z" fill="#000001"/>
</g>
<defs>
<clipPath id="clip0_10660_8747">
<rect width="64" height="64" rx="32" fill="white"/>
</clipPath>
</defs>
</svg>
