<svg width="64" height="64" viewBox="0 0 64 64" fill="none" xmlns="http://www.w3.org/2000/svg">
<g clip-path="url(#clip0_10660_8752)">
<path d="M0 0H64V64H0V0Z" fill="#CE1720"/>
<mask id="mask0_10660_8752" style="mask-type:luminance" maskUnits="userSpaceOnUse" x="0" y="0" width="16" height="65">
<path d="M0.625 0H14.6875V43.2356H15.25V63.4312L14.6875 64.0001H0.625V0Z" fill="white"/>
</mask>
<g mask="url(#mask0_10660_8752)">
<path d="M3.15625 0V0.995557H2.52344V1.99111H1.75V3.12889H1.1875V4.05334H0.0625V1.70667H1.1875V0.426667H0.0625V0H3.15625ZM4.98438 5.47557V6.54223H4.42188V7.39557H3.85938V6.54223H3.29688V5.47557H2.73438V4.05334H3.29688V2.98667H3.85938V2.13334H4.42188V2.98667H4.98438V4.05334H5.54688V5.47557H4.98438ZM3.78906 5.40445H4.49219V4.12445H3.78906V5.40445ZM1.96094 13.0134H2.52344V11.7334H1.96094V13.0134ZM5.75781 13.0134H6.32031V11.7334H5.75781V13.0134ZM0.0625 21.6889H1.04688V22.6134H1.46875V23.7512H2.10156V24.8178H2.94531V23.7512H3.57812V22.6134H4.14062V21.6889H3.29688V20.6223H4.77344V21.3334H5.6875V22.5423H6.46094V23.8934H5.89844V24.8889H5.40625V25.8134H4.98438V26.8089H4.35156V27.6623H3.85938V28.4445H3.22656V29.4401H2.3125V28.3734H1.67969V27.3778H1.1875V26.7378H0.0625V25.1023H1.1875V23.68H0.0625V21.6889Z" fill="white"/>
<path d="M12.1562 0V0.995557H12.7891V1.99111H13.5625V3.12889H14.125V4.05334H15.25V1.70667H14.125V0.426667H15.25V0H12.1562ZM10.3281 5.47557V6.54223H10.8906V7.39557H11.4531V6.54223H12.0156V5.47557H12.5781V4.05334H12.0156V2.98667H11.4531V2.13334H10.8906V2.98667H10.3281V4.05334H9.76562V5.47557H10.3281ZM11.5234 5.40445H10.8203V4.12445H11.5234V5.40445ZM13.3516 13.0134H12.7891V11.7334H13.3516V13.0134ZM9.55469 13.0134H8.99219V11.7334H9.55469V13.0134ZM15.25 21.6889H14.2656V22.6134H13.8438V23.7512H13.2109V24.8178H12.3672V23.7512H11.7344V22.6134H11.1719V21.6889H12.0156V20.6223H10.5391V21.3334H9.625V22.5423H8.85156V23.8934H9.41406V24.8889H9.90625V25.8134H10.3281V26.8089H10.9609V27.6623H11.4531V28.4445H12.0859V29.4401H13V28.3734H13.6328V27.3778H14.125V26.7378H15.25V25.1023H14.125V23.68H15.25V21.6889Z" fill="white"/>
<path d="M7.375 0V2.27556H7.9375V0H10.1875V0.995557H9.625V1.99111H8.78125V3.12889H8.21875V4.05334H7.09375V3.12889H6.53125V1.99111H5.6875V0.995557H5.125V0H7.375ZM7.23438 19.4845V18.7023H6.8125V17.7778H6.32031V16.7823H5.75781V15.7867H5.19531V15.0756H4.5625V14.08H3.71875V15.0756H3.08594V15.7867H2.59375V16.7823H2.03125V17.7778H1.60938V18.7023H1.1875V19.9111H0.0625V16.7823H1.1875V15.36H0.0625V13.0134H1.1875V14.0089H1.89062V15.0045H2.59375V14.0089H3.29688V13.0134H3.85938V11.7334H3.29688V10.7378H2.59375V9.74224H1.89062V10.7378H1.1875V11.7334H0.0625V8.81779H1.1875V7.46668H0.0625V5.47557H1.1875V6.40001H1.75V7.53779H2.52344V8.46224H3.15625V9.52891H3.64844V10.3822H4.63281V9.52891H5.125V8.46224H5.75781V7.53779H6.53125V6.40001H7.09375V5.47557H8.21875V6.40001H8.78125V7.53779H9.55469V8.46224H10.1875V9.52891H10.6797V10.3822H11.6641V9.52891H12.1562V8.46224H12.7891V7.53779H13.5625V6.40001H14.125V5.47557H15.25V7.46668H14.125V8.81779H15.25V11.7334H14.125V10.7378H13.4219V9.74224H12.7188V10.7378H12.0156V11.7334H11.4531V13.0134H12.0156V14.0089H12.7188V15.0045H13.4219V14.0089H14.125V13.0134H15.25V15.36H14.125V16.7823H15.25V19.9111H14.125V18.7023H13.7031V17.7778H13.2812V16.7823H12.7188V15.7867H12.2266V15.0756H11.5938V14.08H10.75V15.0756H10.1172V15.7867H9.55469V16.7823H8.99219V17.7778H8.5V18.7023H8.07812V19.4845H7.23438ZM7.375 7.6089V9.52891H7.9375V7.6089H7.375ZM7.09375 11.7334V10.7378H6.39062V9.74224H5.6875V10.7378H4.98438V11.7334H4.42188V13.0134H4.98438V14.0089H5.6875V15.0045H6.39062V14.0089H7.09375V13.0134H8.21875V14.0089H8.92188V15.0045H9.625V14.0089H10.3281V13.0134H10.8906V11.7334H10.3281V10.7378H9.625V9.74224H8.92188V10.7378H8.21875V11.7334H7.09375ZM7.375 15.0045V16.9245H7.9375V15.0045H7.375Z" fill="white"/>
<path d="M3.15625 64.0001V63.0046H2.52344V62.009H1.75V60.8712H1.1875V59.9468H0.0625V62.2935H1.1875V63.5735H0.0625V64.0001H3.15625ZM4.98438 58.5246V57.4579H4.42188V56.6046H3.85938V57.4579H3.29688V58.5246H2.73438V59.9468H3.29688V61.0134H3.85938V61.8668H4.42188V61.0134H4.98438V59.9468H5.54688V58.5246H4.98438ZM3.78906 58.5957H4.49219V59.8757H3.78906V58.5957ZM1.96094 50.9868H2.52344V52.2668H1.96094V50.9868ZM5.75781 50.9868H6.32031V52.2668H5.75781V50.9868ZM0.0625 42.3112H1.04688V41.3867H1.46875V40.249H2.10156V39.1823H2.94531V40.249H3.57812V41.3867H4.14062V42.3112H3.29688V43.3779H4.77344V42.6667H5.6875V41.4579H6.46094V40.1067H5.89844V39.1112H5.40625V38.1867H4.98438V37.1912H4.35156V36.3378H3.85938V35.5556H3.22656V34.5601H2.3125V35.6267H1.67969V36.6223H1.1875V37.2623H0.0625V38.8979H1.1875V40.3201H0.0625V42.3112Z" fill="white"/>
<path d="M12.1562 64.0001V63.0046H12.7891V62.009H13.5625V60.8712H14.125V59.9468H15.25V62.2935H14.125V63.5735H15.25V64.0001H12.1562ZM10.3281 58.5246V57.4579H10.8906V56.6046H11.4531V57.4579H12.0156V58.5246H12.5781V59.9468H12.0156V61.0134H11.4531V61.8668H10.8906V61.0134H10.3281V59.9468H9.76562V58.5246H10.3281ZM11.5234 58.5957H10.8203V59.8757H11.5234V58.5957ZM13.3516 50.9868H12.7891V52.2668H13.3516V50.9868ZM9.55469 50.9868H8.99219V52.2668H9.55469V50.9868ZM15.25 42.3112H14.2656V41.3867H13.8438V40.249H13.2109V39.1823H12.3672V40.249H11.7344V41.3867H11.1719V42.3112H12.0156V43.3779H10.5391V42.6667H9.625V41.4579H8.85156V40.1067H9.41406V39.1112H9.90625V38.1867H10.3281V37.1912H10.9609V36.3378H11.4531V35.5556H12.0859V34.5601H13V35.6267H13.6328V36.6223H14.125V37.2623H15.25V38.8979H14.125V40.3201H15.25V42.3112Z" fill="white"/>
<path d="M7.375 64.0001V61.7246H7.9375V64.0001H10.1875V63.0046H9.625V62.009H8.78125V60.8712H8.21875V59.9468H7.09375V60.8712H6.53125V62.009H5.6875V63.0046H5.125V64.0001H7.375ZM7.23438 44.5156V45.2979H6.8125V46.2223H6.32031V47.2179H5.75781V48.2134H5.19531V48.9245H4.5625V49.9201H3.71875V48.9245H3.08594V48.2134H2.59375V47.2179H2.03125V46.2223H1.60938V45.2979H1.1875V44.089H0.0625V47.2179H1.1875V48.6401H0.0625V50.9868H1.1875V49.9912H1.89062V48.9956H2.59375V49.9912H3.29688V50.9868H3.85938V52.2668H3.29688V53.2623H2.59375V54.2579H1.89062V53.2623H1.1875V52.2668H0.0625V55.1823H1.1875V56.5334H0.0625V58.5246H1.1875V57.6001H1.75V56.4623H2.52344V55.5379H3.15625V54.4712H3.64844V53.6179H4.63281V54.4712H5.125V55.5379H5.75781V56.4623H6.53125V57.6001H7.09375V58.5246H8.21875V57.6001H8.78125V56.4623H9.55469V55.5379H10.1875V54.4712H10.6797V53.6179H11.6641V54.4712H12.1562V55.5379H12.7891V56.4623H13.5625V57.6001H14.125V58.5246H15.25V56.5334H14.125V55.1823H15.25V52.2668H14.125V53.2623H13.4219V54.2579H12.7188V53.2623H12.0156V52.2668H11.4531V50.9868H12.0156V49.9912H12.7188V48.9956H13.4219V49.9912H14.125V50.9868H15.25V48.6401H14.125V47.2179H15.25V44.089H14.125V45.2979H13.7031V46.2223H13.2812V47.2179H12.7188V48.2134H12.2266V48.9245H11.5938V49.9201H10.75V48.9245H10.1172V48.2134H9.55469V47.2179H8.99219V46.2223H8.5V45.2979H8.07812V44.5156H7.23438ZM7.375 56.3912V54.4712H7.9375V56.3912H7.375ZM7.09375 52.2668V53.2623H6.39062V54.2579H5.6875V53.2623H4.98438V52.2668H4.42188V50.9868H4.98438V49.9912H5.6875V48.9956H6.39062V49.9912H7.09375V50.9868H8.21875V49.9912H8.92188V48.9956H9.625V49.9912H10.3281V50.9868H10.8906V52.2668H10.3281V53.2623H9.625V54.2579H8.92188V53.2623H8.21875V52.2668H7.09375ZM7.375 48.9956V47.0756H7.9375V48.9956H7.375Z" fill="white"/>
<path d="M0.0625 29.0134H1.1875V30.0089H1.67969V30.5778H2.24219V31.5734H2.73438V32.4267H2.24219V33.4223H1.67969V33.9912H1.1875V34.9867H0.0625V29.0134ZM15.25 29.0134V34.9867H14.125V33.9912H13.6328V33.4223H13.0703V32.4267H12.5781V31.5734H13.0703V30.5778H13.6328V30.0089H14.125V29.0134H15.25ZM4.98438 32.6401H5.54688V31.3601H4.98438V32.6401ZM10.3281 32.6401V31.3601H9.76562V32.6401H10.3281ZM7.375 28.4445H7.9375V27.1645H7.375V28.4445ZM7.375 35.5556V36.8356H7.9375V35.5556H7.375ZM3.85938 30.2223H4.84375V29.4401H5.54688V28.7289H5.89844V28.0178H6.32031V27.0223H6.88281V26.0267H7.16406V25.1023H8.14844V26.0267H8.42969V27.0223H8.99219V28.0178H9.41406V28.7289H9.76562V29.4401H10.4688V30.2223H11.4531V33.7778H10.4688V34.5601H9.76562V35.2712H9.41406V35.9823H8.99219V36.9778H8.42969V37.9734H8.14844V38.8978H7.16406V37.9734H6.88281V36.9778H6.32031V35.9823H5.89844V35.2712H5.54688V34.5601H4.84375V33.7778H3.85938V30.2223ZM7.375 30.8623V29.7956H6.8125V29.0845H6.25V30.8623H6.8125V31.5023H7.16406V32.4978H6.8125V33.1378H6.25V34.9156H6.8125V34.2045H7.375V33.1378H7.9375V34.2045H8.5V34.9156H9.0625V33.1378H8.5V32.4978H8.14844V31.5023H8.5V30.8623H9.0625V29.0845H8.5V29.7956H7.9375V30.8623H7.375Z" fill="white"/>
</g>
<path d="M14.6621 42.6625H64.0371V64H14.6621V42.6625Z" fill="#007C30"/>
</g>
<defs>
<clipPath id="clip0_10660_8752">
<rect width="64" height="64" rx="32" fill="white"/>
</clipPath>
</defs>
</svg>
