<svg width="64" height="64" viewBox="0 0 64 64" fill="none" xmlns="http://www.w3.org/2000/svg">
<g clip-path="url(#clip0_10660_8903)">
<path d="M0 0H64V64H0V0Z" fill="#CF142B"/>
<path d="M0 0H32V32H0V0Z" fill="#000066"/>
<path d="M32 0V4L20.125 16L32 27.6875V32H27.8125L15.875 20.25L4.25 32H0V27.75L11.625 16.0625L0 4.625V0H3.875L15.875 11.75L27.5 0H32Z" fill="white"/>
<path d="M11.5 20.25L12.1875 22.375L2.625 32H0V31.8125L11.5 20.25ZM19.25 19.5L22.625 20L32 29.1875V32L19.25 19.5ZM32 0L20 12.25L19.75 9.5L29.125 0H32ZM0 0.0625L12.0625 11.875L8.375 11.375L0 3.0625V0.0625Z" fill="#C8102E"/>
<path d="M11 0V32H21V0H11ZM0 11V21H32V11H0Z" fill="white"/>
<path d="M0 13V19H32V13H0ZM13 0V32H19V0H13Z" fill="#C8102E"/>
<path d="M58.3758 18.325V38.525C58.3758 43.9125 47.6133 45.675 47.6133 45.675C47.6133 45.675 36.8008 43.925 36.8008 38.5V18.325H58.3758Z" fill="white"/>
<path d="M58.3758 38.525C58.3758 43.9125 47.6133 45.675 47.6133 45.675C47.6133 45.675 36.8008 43.925 36.8008 38.5C36.8008 38.5 36.8008 38.0625 37.0258 37.825C37.0258 37.825 36.9008 38.7125 37.5883 39.4C37.5883 39.4 37.0508 38.425 37.5883 37.4875C37.5883 37.4875 37.3883 38.7125 38.1383 39.4C38.1383 39.4 37.7258 38.4125 38.1883 37.3125C38.1883 37.3125 37.9633 39.1 38.7883 39.475C38.7883 39.475 39.0133 38.425 38.6758 37.775C38.6758 37.775 39.2508 38 39.2133 39.5C39.2133 39.5 39.4008 39.275 39.4383 38.1875C39.4383 38.1875 39.4758 39.4375 39.8883 39.725C39.8883 39.725 40.0383 39.6 39.8383 39.0375C39.6508 38.4875 39.9133 38.2875 39.9633 38.2875C39.9633 38.2875 39.8758 38.9125 40.3883 39.3875C40.3883 39.3875 40.1758 38.4 40.4883 38.2625C40.4883 38.2625 40.4133 39.1 41.0758 39.275C41.0758 39.275 41.1258 39.0375 40.9758 38.775C40.9758 38.775 40.8508 38.4625 40.9508 38.2125C40.9508 38.2125 41.1508 38.9625 41.4383 39.0875C41.4383 39.0875 41.2758 38.6375 41.4383 38.2125C41.4383 38.2125 41.4633 38.8375 42.0383 39.1C42.0383 39.1 41.6633 38.6 41.7883 38.075L45.3883 38.25L47.2508 38.3375L52.8383 37.9625L53.7883 37.125C53.7883 37.125 54.1758 37.6375 53.5758 38.475C53.5758 38.475 54.1633 38.375 54.3633 37.4375C54.3633 37.4375 54.6008 37.95 54.2758 38.5375C54.2758 38.5375 54.9258 37.8625 55.0258 37.125C55.0258 37.125 55.2758 37.85 54.6508 38.625C54.6508 38.625 55.2133 38.425 55.4508 37.6125C55.4508 37.6125 55.6383 38.1125 55.1008 38.8C55.1008 38.8 56.1133 38.2875 56.1008 37.175C56.1008 37.175 56.5008 37.775 56.0258 38.625C56.0258 38.625 56.5258 38.1625 56.6008 37.4625C56.6008 37.4625 56.8758 37.775 56.5633 38.6375C56.5633 38.6375 57.1883 38.0375 57.3008 37.4C57.3008 37.4 57.4258 38 56.8883 38.75C56.8883 38.75 57.2633 38.65 57.6133 37.925C57.6133 37.925 57.7008 38.225 57.3883 38.75C57.3883 38.75 57.7258 38.6875 57.9508 38.0125C57.9508 38.0125 58.0008 38.4125 57.8883 38.7625C57.8883 38.7625 58.1633 38.6 58.2258 37.85C58.2258 37.85 58.3633 38.0875 58.3633 38.4V38.5L58.3758 38.525Z" fill="#2F8F22"/>
<path d="M52.8367 26.8375C52.8367 26.8375 52.4617 26.9125 51.9742 26.7625C51.4992 26.6125 51.2992 26.675 51.1492 26.7625C51.1492 26.7625 51.3492 26.375 50.8742 26.0625C50.8742 26.0625 51.0242 26.4625 50.8117 26.6375C50.8117 26.6375 50.7242 26.725 50.5992 26.6C50.5992 26.6 50.4367 26.4125 50.2617 26.3C50.2617 26.3 50.6617 26.15 50.5867 25.7375C50.5117 25.325 50.2867 25.2875 50.1867 25.225C50.1665 25.324 50.1665 25.426 50.1867 25.525C50.1867 25.525 49.7367 25.275 50.3367 24.9375C50.9367 24.6 50.8367 24.3875 50.7117 24.2125C50.5963 24.0357 50.4477 23.8829 50.2742 23.7625C50.2742 23.7625 50.3992 23.9625 50.3617 24.125C50.3492 24.275 50.0617 24.375 50.1242 24.1125C50.1867 23.8125 50.1242 23.8625 50.1242 23.575C50.1242 23.575 50.6492 23.75 50.8742 23.225C50.8742 23.225 51.0617 22.6875 50.3992 22.425C50.3992 22.425 50.5617 22.65 50.4867 22.8C50.4867 22.8 50.3367 23.075 50.1742 22.875C50.0117 22.6625 49.8867 22.6 49.8992 22.35C49.8992 22.35 50.5242 22.4375 50.3492 21.7625C50.3492 21.7625 50.2492 22.2125 49.4492 21.6125C49.4492 21.6125 49.9742 21.0875 49.7617 20.6625C49.7617 20.6625 49.7117 20.475 49.1617 20.575C49.1617 20.575 49.6367 20.275 49.4367 20.0125C49.4367 20.0125 49.3367 19.85 48.8742 20.0625C48.8742 20.0625 49.0492 19.775 48.5992 19.4375C48.5992 19.4375 48.3117 19.5875 48.1617 19.7375C48.1617 19.7375 47.8617 19.3625 47.6617 19.2C47.6617 19.2 47.3117 19.3375 47.2242 19.7375C47.2242 19.7375 47.0492 19.55 46.6867 19.4375C46.6867 19.4375 46.4992 19.7875 46.7367 20.0625C46.7367 20.0625 46.5617 20.0625 46.2492 19.925C46.2492 19.925 45.8867 19.775 45.9492 20.0625C45.9992 20.3625 46.0242 20.4375 46.0992 20.5875C46.0992 20.5875 45.2992 20.4 45.3242 20.8375C45.333 20.9862 45.3718 21.1315 45.4384 21.2648C45.5051 21.398 45.598 21.5163 45.7117 21.6125C45.7117 21.6125 45.2617 22.2125 44.8742 21.7625C44.8742 21.7625 44.7242 21.9125 45.0242 22.2875C45.0242 22.2875 45.3242 22.6 45.0742 22.8125C45.0742 22.8125 44.7617 23.0625 44.6117 22.5625C44.6117 22.5625 44.0867 23.075 44.6992 23.4625C44.6992 23.4625 45.0867 23.6875 45.4867 23.3375C45.4867 23.3375 45.3617 24.3375 44.9867 24.1375C44.9867 24.1375 44.7617 23.9875 45.1617 23.775C45.1617 23.775 44.5617 23.7 44.4742 24.275C44.4742 24.275 44.3992 24.7125 44.9242 24.9C44.9242 24.9 45.3117 25.05 44.9117 25.35C44.9117 25.35 44.6117 25.5625 44.7992 25.9C44.7992 25.9 45.0242 26.25 44.4492 26.3C44.4492 26.3 44.1492 26.3 44.0242 26.25C44.0242 26.25 43.8992 26.5 43.9867 26.75C43.9867 26.75 43.6867 26.5375 43.0492 26.775C42.3867 27.025 42.4242 26.85 42.3867 26.925L42.1992 27.225C42.1992 27.225 42.5367 27.675 42.5492 27.6375L42.4742 28.1375L42.6617 28.2125L43.9992 27.6125L45.3742 26.9L46.4992 26.95L47.1867 27.1125L48.0992 27.1875L48.7742 26.8375H49.7242L50.7617 27.3625L51.9617 28.075L52.5867 28.2L53.0617 28.1625V27.1875L52.8367 26.8375Z" fill="#D40000" stroke="black" stroke-width="0.15" stroke-linejoin="round"/>
<path d="M41.9498 27.9625C41.9498 27.9625 42.4623 28.2375 42.6998 27.925C42.6998 27.925 42.9748 27.375 42.3498 27.175C42.3498 27.175 42.6873 26.775 42.3123 26.4C42.3123 26.4 42.1248 26.2 41.7998 26.3375C41.7998 26.3375 41.6498 26.05 41.3373 26.0625C41.3373 26.0625 41.0373 26.0625 40.9498 26.375C40.9498 26.375 40.5623 26.225 40.3498 26.45C40.3498 26.45 39.9748 26.85 40.4748 27.175L40.8498 27.2125L41.1998 27.0375L41.5998 27.15C41.5998 27.15 41.4998 27.55 41.9498 27.9625Z" fill="#D40000" stroke="black" stroke-width="0.15" stroke-linejoin="round"/>
<path d="M53.6256 27.0125C53.7991 26.9932 53.9743 27.0286 54.1267 27.1138C54.2791 27.1989 54.4011 27.3296 54.4756 27.4875C54.8131 28.2625 54.1006 28.6875 54.1006 28.6875C54.1506 28.85 54.1631 29.0875 54.1631 29.0875C55.1506 29.2125 54.9756 30.3125 54.9756 30.3125L54.6381 30.0375C54.0756 29.8125 53.4756 30.3125 53.0631 31.1125C52.6506 31.9375 52.8381 32.3 52.9131 33.275C52.9881 34.2375 54.5506 34.825 54.5506 34.825L53.3256 37.95C52.8506 39.2 51.8381 38.6875 51.5381 38.4125C51.2631 38.1625 51.1881 38.3125 51.0506 38.4125C50.9006 38.5375 51.7131 39.1625 50.2256 39.7625C48.7756 40.35 48.5131 40.8 48.2631 40.95C48.0256 41.1 47.0131 41.0125 46.9256 40.875C46.8006 40.75 46.8631 40.75 46.4756 40.5125C46.1006 40.3 45.4631 40.075 44.7631 39.7375C44.0631 39.4 44.0756 38.9625 44.0881 38.875C44.0881 38.7875 44.3381 38.0625 43.5131 38.6375C42.6881 39.225 41.9881 38.3625 41.9881 38.3625C41.8381 38.15 41.1381 36.3125 41.1381 36.3125C40.9938 35.8007 40.8142 35.2995 40.6006 34.8125C40.6006 34.8125 40.5631 34.9125 41.1756 34.5625C41.7631 34.225 42.0506 33.65 42.2631 33.075C42.4631 32.5 42.2631 31.5125 42.1881 31.325C42.1131 31.125 41.6631 30.2125 41.1006 30.025C40.5381 29.825 40.1506 30.325 40.1506 30.325C40.1506 30.325 39.9881 29.2 40.9756 29.075C40.9756 29.075 40.9756 28.85 41.0381 28.6875C41.0381 28.6875 40.3381 28.2625 40.6631 27.4875C40.6631 27.4875 40.8881 26.95 41.5131 27.0125L41.3631 27.3125C41.3631 27.3125 41.2131 28.8875 43.5256 27.8375C45.8381 26.7625 45.7631 26.5625 47.1006 27.2375L48.0506 27.225C48.0506 27.225 49.4381 26.5625 49.8881 26.85C50.3381 27.1375 51.9256 28.025 51.9256 28.025C51.9256 28.025 53.4756 28.6125 53.8006 27.525L53.6256 27.0125Z" fill="#64B4D1" stroke="black" stroke-width="0.15"/>
<path d="M46.6379 33.875C46.6379 33.875 46.5629 33.3875 46.4879 33.075C46.4879 33.075 46.3129 32.5875 46.6129 32.225L46.9629 31.8125C46.9629 31.8125 47.1879 31.5125 47.4629 31.475C47.4629 31.475 47.7629 31.475 47.7754 31.4125C47.8004 31.35 48.1129 30.85 48.8504 31.4125C48.8504 31.4125 49.0629 31.0375 49.4379 30.9625C49.4379 30.9625 49.8129 30.8625 50.0129 31.1375C50.0129 31.1375 50.4379 30.8125 50.8129 31.35C50.8129 31.35 51.3129 31.05 51.7129 31.6375C51.7129 31.6375 52.2004 31.3875 52.5129 31.9C52.8254 32.4375 52.7629 32.65 52.7629 32.65L53.0129 33.5L53.8254 34.5L51.9129 35.225H51.0504L49.3379 35.675L46.3004 35.9125L45.4629 34.9125L46.6504 33.875H46.6379Z" fill="white" stroke="#00247D" stroke-width="0.15" stroke-miterlimit="10"/>
<path d="M44.0746 38.9375C44.0746 38.9375 43.6246 38.95 43.3871 39.0875C43.1621 39.1875 42.9871 39.3125 42.7246 39.4875C42.7246 39.4875 42.5871 39.65 42.0621 39.55C42.0621 39.55 41.1746 39.3375 41.1746 40.05C41.1746 40.05 40.0621 40.125 40.5121 41.0875C40.5121 41.0875 40.8121 41.8375 41.4371 41.3125C41.4371 41.3125 41.0371 41.875 41.8121 42.1C41.8121 42.1 42.3621 42.25 42.5246 41.6625C42.5246 41.6625 42.6121 41.4375 42.3996 41.1625C42.3996 41.1625 42.6746 41.1125 42.8496 40.825C42.8496 40.825 42.2871 41.55 42.9121 41.825C42.9121 41.825 43.6996 42.0125 43.7496 41.2C43.7496 41.2 43.6746 40.8 43.9871 40.6625C43.9871 40.6625 44.6121 40.5125 44.8746 39.8375C44.8746 39.8375 43.9871 39.35 44.0746 38.9375ZM42.2371 31.75C42.2371 31.75 41.5371 31.4375 41.1996 31.75C41.1996 31.75 40.7496 31.475 40.2621 31.75C40.2621 31.75 39.7996 32.05 39.4746 32.4C39.4746 32.4 39.2496 32.5875 39.3246 33.2C39.3246 33.2 39.4496 33.6375 39.3746 33.8375C39.3746 33.8375 39.2246 33.8125 38.9121 34.1875C38.9121 34.1875 38.5371 34.625 38.1621 34.225C38.1621 34.225 38.2871 34.8 38.9371 34.7C38.9371 34.7 38.6246 34.95 38.8871 35.575C38.8871 35.575 39.0996 36.025 38.7621 36.6C38.7621 36.6 39.3371 36.375 39.3246 35.7C39.3246 35.7 39.2621 35.25 39.4496 34.95C39.4496 34.95 39.2621 35.225 39.6496 35.8375C39.6496 35.8375 39.9496 36.2875 39.7121 36.7375C39.7121 36.7375 40.2621 36.5375 40.2121 35.8625C40.1496 35.1875 39.8371 35.4625 40.0371 34.8375C40.0371 34.8375 40.0996 35.1625 40.2621 35.3375C40.3866 35.4425 40.4803 35.5794 40.5331 35.7335C40.586 35.8876 40.596 36.0532 40.5621 36.2125C40.5621 36.2125 40.8871 35.7875 40.8121 35.3625C40.7907 35.171 40.7357 34.9848 40.6496 34.8125L41.6871 34.2125L42.2246 33.275L42.2371 31.75Z" fill="#D40000" stroke="black" stroke-width="0.15" stroke-linejoin="round"/>
<path d="M40.65 34.4375C40.65 34.4375 40.2 34.4125 40.15 34.0625M39.375 33.8375C39.375 33.8375 39.525 33.8375 39.675 33.9875C39.675 33.9875 39.7625 34.1375 39.925 34.1125" stroke="black" stroke-width="0.15" stroke-miterlimit="10"/>
<path d="M41.2883 33.15C41.2883 33.15 41.0633 33.15 40.9258 33.05C40.9258 33.05 40.8008 32.9625 40.7383 33.1C40.7383 33.1 40.6133 33.3 40.8258 33.3875C40.8258 33.3875 41.1133 33.5375 40.6758 33.8125C40.6758 33.8125 41.1758 33.6125 40.9758 33.3625C40.9758 33.3625 40.7508 33.2125 40.8258 33.15C40.8258 33.15 40.8508 33.1 40.9508 33.15C41.0383 33.225 41.2133 33.2 41.2883 33.15Z" fill="black"/>
<path d="M48.1242 34.375L48.3742 34.3L46.6367 28.3H46.5742L48.1242 34.375Z" fill="#784421" stroke="black" stroke-width="0.15"/>
<path d="M42.3125 41.0375C42.3125 41.0375 41.9125 40.8 41.5625 41.075C41.5625 41.075 41.6125 40.925 41.875 40.8625C41.875 40.8625 42.0125 40.4625 42.4 40.5C42.4 40.5 42.2375 40.7 42.025 40.85C42.025 40.85 42.2625 40.875 42.3375 41.0375H42.3125Z" fill="black"/>
<path d="M40.876 41.975C40.876 41.975 40.226 41.575 40.5885 40.8875C40.5885 40.8875 40.6885 40.7 40.8885 40.7375C40.8885 40.7375 41.2885 40.8625 40.976 41.425C40.976 41.425 40.8135 41.7875 40.8885 41.9875L40.876 41.975ZM42.201 42.6375C42.201 42.6375 41.276 42.2125 41.5635 41.4875C41.5635 41.4875 41.651 41.2375 41.851 41.2625C41.851 41.2625 42.2135 41.2875 42.1385 41.7625C42.1385 41.7625 42.0385 42.2125 42.201 42.6375Z" fill="#64B4D1" stroke="#00247D" stroke-width="0.15" stroke-miterlimit="2.6"/>
<path d="M41.9996 39.95C41.9996 39.95 41.7246 40.1625 41.6246 40.3C41.6246 40.3 41.4996 40.15 41.3496 40.075C41.3496 40.075 41.5246 40.0375 41.6121 40.1125C41.6121 40.1125 41.7621 39.9875 41.9996 39.95Z" fill="black"/>
<path d="M42.8242 42.45C42.8242 42.45 43.5742 42.275 43.4242 41.5125C43.4242 41.5125 43.3492 41.1875 43.0492 41.2375C43.0492 41.2375 42.6742 41.3375 42.9117 41.8125C42.9117 41.8125 43.0617 42.1375 42.8242 42.45Z" fill="#64B4D1" stroke="#00247D" stroke-width="0.15" stroke-miterlimit="2.6"/>
<path d="M46.1258 26.5875L46.8383 26.825C46.8383 26.825 47.5008 27.1125 48.3633 26.825L49.0258 26.575L48.5758 27.25V27.6125L48.8508 28.0125C48.8508 28.0125 48.6758 28.0875 48.1758 27.7625C48.1758 27.7625 47.6258 27.3375 46.9633 27.7625C46.9633 27.7625 46.5883 28.0125 46.3008 28.0125L46.7258 27.5375L46.5633 27.1L46.1133 26.5625L46.1258 26.5875Z" fill="#F5CE00" stroke="black" stroke-width="0.15" stroke-miterlimit="2.6"/>
<path d="M43.1134 41.5625C43.1134 41.5625 43.1384 41.5125 43.1134 41.5L43.0509 41.525C43.0509 41.525 42.9759 41.65 43.0509 41.825C43.0509 41.825 43.1134 41.9375 43.0759 42.05L43.0884 42.1C43.0884 42.1 43.1259 42.0875 43.1259 42.05C43.1259 42.05 43.1634 41.95 43.0884 41.825C43.0884 41.825 43.0134 41.65 43.1134 41.5625Z" fill="white"/>
<path d="M53.1627 27.9625C53.1627 27.9625 52.6502 28.2375 52.4127 27.925C52.4127 27.925 52.1627 27.375 52.7877 27.175C52.7877 27.175 52.4377 26.775 52.7877 26.4C52.7877 26.4 52.9877 26.2 53.3127 26.3375C53.3127 26.3375 53.4627 26.05 53.7752 26.0625C53.7752 26.0625 54.0752 26.0625 54.1627 26.375C54.1627 26.375 54.5627 26.225 54.7877 26.45C54.7877 26.45 55.1377 26.85 54.6252 27.175L54.2752 27.2125L53.9127 27.0375L53.5252 27.15C53.5252 27.15 53.6252 27.55 53.1627 27.9625Z" fill="#D40000" stroke="black" stroke-width="0.15" stroke-linejoin="round"/>
<path d="M49.0258 27.55C49.0258 27.55 49.0258 27.65 48.9258 27.675C48.9258 27.675 48.8008 27.7125 48.7258 27.5625V27.525C48.7258 27.4625 48.7008 27.275 48.9008 27.1125C48.9008 27.1125 49.2383 26.85 49.8633 27.175C50.4661 27.514 51.0834 27.8268 51.7133 28.1125C51.7133 28.1125 52.0883 28.3125 52.6883 28.3375C52.6883 28.3375 53.5133 28.4 53.8508 27.825C53.8508 27.825 54.1258 27.3875 53.8508 27.1C53.8508 27.1 53.7508 26.975 53.5758 27C53.4847 27.0203 53.4045 27.0738 53.3508 27.15C53.3508 27.15 53.2133 27.325 53.3508 27.4625C53.3508 27.4625 53.5508 27.5875 53.6258 27.3375C53.6258 27.3625 53.6883 27.55 53.5883 27.7C53.5883 27.7 53.0883 28.45 51.7133 27.6875L49.9383 26.675C49.9383 26.675 49.0383 26.2125 48.4883 26.9375C48.4883 26.9375 48.0508 27.5375 48.6133 27.925C48.6133 27.925 49.0383 28.175 49.2883 27.775C49.2883 27.775 49.5133 27.3875 49.1633 27.225C49.1633 27.225 48.8758 27.075 48.7508 27.375C48.6258 27.675 48.9758 27.75 49.0008 27.5375C49.0008 27.5375 49.0008 27.4875 49.0383 27.5375L49.0258 27.55Z" fill="#F5CE00" stroke="black" stroke-width="0.15" stroke-miterlimit="2.6"/>
<path d="M41.9121 30.65V29.525C41.9121 29.425 41.9121 29.375 42.0621 29.25C42.1871 29.15 42.3371 28.9625 42.5246 29.4625C42.5246 29.4625 42.9246 29.025 43.0621 28.9625C43.0621 28.9625 43.2996 28.775 43.4621 29.05C43.4621 29.05 43.6746 28.725 43.8371 28.65C43.8371 28.65 44.2371 28.4 44.2496 29.175L44.5621 28.875C44.5621 28.875 44.8121 28.6875 45.0871 28.9625C45.0871 28.9625 45.5371 29.4125 45.5871 29.5375C45.5871 29.5375 45.6996 29.6625 45.7121 29.875C45.7121 29.875 45.7121 30.125 45.8371 30.25C45.8371 30.25 45.9871 30.375 46.1121 30.4C46.1121 30.4 46.4246 30.4125 46.5621 30.725C46.5621 30.725 46.6121 30.6625 46.7746 32.125V34.8125L44.9746 36.95L42.0746 36.125L40.9246 35.6375L40.6621 34.8125L41.7871 34.075L42.3746 32.45L42.1996 31.2875L41.9121 30.6375V30.65Z" fill="#E4CB5E" stroke="black" stroke-width="0.15" stroke-miterlimit="2.6"/>
<path d="M49.875 32.05L50.025 31.8625L50.3375 31.6125C50.3375 31.6125 50.8375 32.9125 50.8625 33.2V33.6C50.8625 33.6 51.6125 33.8 51.75 34.9375L51.125 36.0875L50.1625 35.5375L49.875 35.35V32.05Z" fill="#784421" stroke="black" stroke-width="0.15"/>
<path d="M40.7125 41.05C40.7125 41.05 40.7375 41.0125 40.7125 40.975L40.65 41.025C40.65 41.025 40.45 41.2375 40.6125 41.575C40.6125 41.575 40.6125 41.625 40.6625 41.6C40.6625 41.6 40.6875 41.6 40.6625 41.5625C40.6625 41.5625 40.5125 41.2625 40.7125 41.0625V41.05Z" fill="white"/>
<path d="M43.6258 40.825C43.6258 40.825 43.6383 40.725 43.5883 40.625C43.5883 40.625 43.5383 40.55 43.5508 40.4375M44.2508 29.175C44.2508 29.175 44.2508 29.4625 44.3383 29.675C44.4133 29.875 44.7133 30.2375 44.7133 30.4125" stroke="black" stroke-width="0.15" stroke-miterlimit="10"/>
<path d="M51.05 38.9375C51.05 38.9375 51.5 38.95 51.7375 39.0875C51.975 39.1875 52.15 39.3125 52.425 39.4875C52.425 39.4875 52.55 39.65 53.0625 39.55C53.0625 39.55 53.975 39.3375 53.975 40.05C53.975 40.05 55.0625 40.125 54.6125 41.0875C54.6125 41.0875 54.3125 41.8375 53.6875 41.3125C53.6875 41.3125 54.0875 41.875 53.3125 42.1C53.3125 42.1 52.7625 42.25 52.6 41.6625C52.6 41.6625 52.5125 41.4375 52.725 41.1625C52.725 41.1625 52.475 41.1125 52.2875 40.825C52.2875 40.825 52.85 41.55 52.225 41.825C52.225 41.825 51.4375 42.0125 51.3875 41.2C51.3875 41.2 51.45 40.8 51.15 40.6625C51.15 40.6625 50.525 40.5125 50.25 39.8375C50.25 39.8375 51.1375 39.35 51.05 38.9375Z" fill="#D40000" stroke="black" stroke-width="0.15" stroke-linejoin="round"/>
<path d="M43.9004 30.425L44.6504 36.4M44.0754 30.4125L44.9129 35.9875M44.2254 30.3875L45.1879 35.9125" stroke="black" stroke-width="0.15" stroke-miterlimit="10"/>
<path d="M45.7504 35.4375L46.0129 35.35L44.2629 29.35H44.2129L45.7504 35.4375Z" fill="#784421" stroke="black" stroke-width="0.15"/>
<path d="M44.7504 30.1625L46.5254 34.6M44.6504 30.225L46.3379 34.85" stroke="black" stroke-width="0.15" stroke-miterlimit="10"/>
<path d="M41.876 42.2C41.876 42.2 41.6635 42.0125 41.6885 41.6625C41.6885 41.6625 41.6885 41.5875 41.6635 41.575C41.6635 41.575 41.6135 41.5625 41.6135 41.65C41.6135 41.65 41.5635 42.0125 41.8135 42.2125C41.8135 42.2125 41.826 42.25 41.851 42.2375C41.851 42.2375 41.8885 42.2375 41.851 42.2H41.876Z" fill="white"/>
<path d="M44.85 30.1L46.6375 34.15M44.375 30.35L45.5 35.8125" stroke="black" stroke-width="0.15" stroke-miterlimit="10"/>
<path d="M53.4244 34.375C52.6244 33.925 52.4494 32.95 52.4494 32.95C52.3403 32.3463 52.4143 31.7238 52.6619 31.1625C53.1619 30.0875 54.0369 29.875 54.0369 29.875C54.0369 29.875 53.1869 30.475 52.9369 31.275C52.9369 31.275 52.7619 31.9625 52.8744 32.6125C52.9744 33.3 52.9244 33.125 53.0869 33.65L53.4244 34.4V34.375Z" fill="#F5CE00" stroke="black" stroke-width="0.15" stroke-miterlimit="2.6"/>
<path d="M49.9996 31.8375L46.6871 32.9L46.4996 34.4C45.7121 35.5375 44.0996 35.7375 44.0996 35.7375L45.3496 37.075L47.7371 37.575L49.0121 36.6L50.1621 35.55C50.0371 34.9875 50.0996 34.15 50.0996 34.15C50.0996 34 50.1621 33.675 50.1621 33.675C50.1621 33.675 49.9621 32.3375 50.0121 31.8625L49.9996 31.8375Z" fill="#784421" stroke="black" stroke-width="0.15"/>
<path d="M46.5508 34.025C46.5508 34.025 48.7383 33.3375 50.0508 32.775M45.4883 35.275C45.4883 35.275 48.2383 34.775 50.1633 33.675L50.8633 33.2" stroke="black" stroke-width="0.15" stroke-miterlimit="10"/>
<path d="M50.8617 33.6L50.1117 34.15C50.1117 34.15 47.0367 35.55 44.6992 35.6M50.0992 35.15C50.0992 35.15 47.7367 36.3625 46.3992 36.375" stroke="black" stroke-width="0.15" stroke-miterlimit="10"/>
<path d="M52.9004 31.75C52.9004 31.75 53.6004 31.4375 53.9379 31.75C53.9379 31.75 54.3879 31.475 54.9004 31.75C54.9004 31.75 55.3379 32.05 55.6754 32.4C55.6754 32.4 55.9004 32.5875 55.8254 33.2C55.8254 33.2 55.7004 33.6375 55.7754 33.8375C55.7754 33.8375 55.9254 33.8125 56.2254 34.1875C56.2254 34.1875 56.6254 34.625 56.9754 34.225C56.9754 34.225 56.8629 34.8 56.2254 34.7C56.2254 34.7 56.5254 34.95 56.2504 35.575C56.2504 35.575 56.0629 36.025 56.3754 36.6C56.3754 36.6 55.8004 36.375 55.8379 35.7C55.8379 35.7 55.8754 35.25 55.7129 34.95C55.7129 34.95 55.8754 35.225 55.4879 35.8375C55.4879 35.8375 55.2004 36.2875 55.4504 36.7375C55.4504 36.7375 54.8754 36.5375 54.9504 35.8625C54.9879 35.1875 55.3254 35.4625 55.1004 34.8375C55.1004 34.8375 55.0629 35.1625 54.9004 35.3375C54.7759 35.4425 54.6822 35.5794 54.6294 35.7335C54.5765 35.8876 54.5665 36.0532 54.6004 36.2125C54.6004 36.2125 54.2754 35.7875 54.3504 35.3625C54.4254 34.925 54.4879 34.8125 54.4879 34.8125L53.4504 34.2125L52.9254 33.275L52.9004 31.75Z" fill="#D40000" stroke="black" stroke-width="0.15" stroke-linejoin="round"/>
<path d="M40.9996 35.55C40.9996 35.55 41.0996 35.0875 41.5246 35.25C41.5246 35.25 41.6746 34.5 42.4996 34.475C43.2996 34.45 43.3496 35.275 43.3496 35.325C43.3496 35.325 43.5996 34.975 43.9746 35.0125C43.9746 35.0125 44.6746 34.975 44.4371 36.075L44.5621 36.225C44.5621 36.225 45.0621 34.9875 46.1496 35.3C46.1496 35.3 47.1871 35.625 46.5246 36.6375C46.5246 36.6375 47.0371 37.325 47.4746 37.2625C47.9246 37.2 48.3121 37.0625 48.7371 36.2875C49.1871 35.5125 50.1996 35.3875 50.4496 35.4375C50.6996 35.475 50.9121 35.6625 50.9496 35.8375C50.9496 35.8375 51.4996 34.05 53.4371 34.3125L54.2121 34.725L54.5121 34.85L54.0621 36.1L52.9996 38.5L52.1871 38.75L51.3371 38.2625L51.0371 38.4125L51.0246 39.15L49.8996 39.95L49.1246 40.2625L48.2746 40.8625L48.0746 41.3875C48.0746 41.3875 47.6121 41.175 47.0746 41.3875L46.8871 40.9375L46.3871 40.475L44.4496 39.55L44.0996 38.425L43.7496 38.2625L43.3496 38.7125L42.7746 38.7875L41.9121 38.1875L40.9746 35.5625L40.9996 35.55Z" fill="white" stroke="#00247D" stroke-width="0.15" stroke-miterlimit="10"/>
<path d="M49.4385 26.75C49.4385 26.75 48.6885 26.725 48.726 27.5" stroke="black" stroke-width="0.15" stroke-miterlimit="2.6"/>
<path d="M54.3002 34.9125C53.0127 34.5125 52.6627 33.125 52.6627 33.125C52.5138 32.478 52.5706 31.8006 52.8253 31.1875C53.4253 29.8125 54.4003 29.8125 54.4003 29.8125C54.5294 29.7906 54.662 29.8202 54.7695 29.895C54.877 29.9698 54.9509 30.0838 54.9752 30.2125C55.0127 30.5125 54.8128 30.625 54.8128 30.625C54.4628 30.8125 54.2377 30.5625 54.2377 30.5625C54.0877 30.3625 54.2128 30.2 54.2128 30.2C54.3003 30.075 54.4628 30.15 54.4628 30.15C54.6128 30.175 54.5878 30.35 54.5878 30.35C54.5878 30.35 54.6253 30.15 54.4378 30.125C54.4378 30.125 54.0378 30.0375 53.5878 30.6C53.5878 30.6 52.9877 31.3625 52.9877 32.3625C52.9877 32.3625 52.9128 34.2125 54.8378 34.6875C54.8378 34.6875 54.6253 34.9875 54.2503 36.075C54.2503 36.075 53.8378 37.475 53.4503 38.2375C53.4503 38.2375 52.9127 39.3125 51.7252 38.875C51.7252 38.875 51.0253 38.5625 51.0253 38.0625C51.0253 38.0625 50.9753 37.5875 51.4003 37.5625C51.4003 37.5625 51.8128 37.525 51.8128 37.875C51.8128 37.875 51.8127 38.25 51.3627 38.175C51.3627 38.175 51.2127 38.1375 51.2377 37.9875C51.2377 37.9875 51.2628 37.8375 51.4503 37.9125C51.6503 37.9875 51.4503 37.9125 51.4503 37.9C51.4503 37.9 51.3752 37.8625 51.3002 37.9C51.3002 37.9 51.2252 37.9 51.2252 38.025C51.2252 38.025 51.2253 38.1 51.3253 38.1625L51.5253 38.1875C51.5253 38.1875 51.6502 38.4375 51.9127 38.525C52.0603 38.5691 52.216 38.5784 52.3678 38.5524C52.5196 38.5264 52.6633 38.4657 52.7877 38.375C52.9554 38.2297 53.0843 38.045 53.1627 37.8375C53.4195 37.2898 53.6408 36.7261 53.8253 36.15C53.8253 36.15 54.0502 35.4375 54.2377 35.0625L54.3002 34.9125Z" fill="#F5CE00" stroke="black" stroke-width="0.15" stroke-miterlimit="2.6"/>
<path d="M50.6616 38.425C50.6616 38.425 50.9116 38.4 50.9116 38.6125C50.9116 38.6125 50.9116 38.9125 50.5116 38.85C50.5116 38.85 50.1366 38.775 50.2741 38.35C50.2741 38.35 50.3616 38.0625 50.7241 38.1C50.7241 38.1 51.0616 38.1 51.2241 38.575C51.2241 38.575 51.3366 38.9875 51.1241 39.325C50.8991 39.7 50.3491 39.95 50.0866 40.075C50.0866 40.075 48.9866 40.4875 48.6616 40.7375C48.6616 40.7375 48.1616 41.1 48.3991 41.4375C48.3991 41.4375 48.4866 41.575 48.5991 41.575C48.5991 41.575 48.7491 41.575 48.7741 41.425C48.7741 41.425 48.7741 41.5125 48.6741 41.55C48.6741 41.55 48.5741 41.6 48.4741 41.5125C48.4741 41.5125 48.3491 41.3875 48.4366 41.2125C48.4366 41.2125 48.5741 41.0125 48.8866 41.1375C48.8866 41.1375 49.1366 41.275 49.0366 41.55C49.0366 41.55 48.9366 41.8125 48.6241 41.8C48.6241 41.8 48.3741 41.8 48.2116 41.65C47.9741 41.3875 47.9616 40.9 48.1866 40.65C48.1866 40.65 48.3866 40.3875 48.7866 40.2L49.9116 39.7625C50.2117 39.6506 50.4845 39.4758 50.7116 39.25C50.7116 39.25 50.8741 39.075 50.9366 38.75C50.9366 38.75 50.9741 38.5 50.8241 38.45L50.6741 38.4125L50.6616 38.425Z" fill="#F5CE00" stroke="black" stroke-width="0.15" stroke-miterlimit="2.6"/>
<path d="M50.6875 38.425C50.6875 38.425 50.9625 38.375 51.125 38.7C51.125 38.7 51.2125 38.8875 51.225 39.0125M51.325 37.8875C51.325 37.8875 51.05 37.925 51.1875 38.3125C51.3375 38.675 51.5625 38.775 51.6375 38.8375" stroke="black" stroke-width="0.15" stroke-miterlimit="2.6"/>
<path d="M46.1246 27.55C46.1246 27.55 46.1246 27.65 46.2371 27.675C46.2371 27.675 46.3371 27.7 46.3996 27.5625L46.4121 27.525C46.4121 27.4625 46.4496 27.275 46.2496 27.1125C46.2496 27.1125 45.9121 26.85 45.2871 27.175C45.2871 27.175 44.7871 27.425 44.4496 27.625C44.4496 27.625 43.5496 28.1 43.4371 28.125C43.4371 28.125 43.0496 28.325 42.4496 28.35C42.4496 28.35 41.6246 28.4125 41.2871 27.8375C41.2871 27.8375 41.0246 27.4 41.2871 27.1125C41.2871 27.1125 41.3871 26.9875 41.5746 27.0125C41.6496 27.025 41.7246 27.0625 41.7996 27.1625C41.7996 27.1625 41.9246 27.3375 41.7746 27.475C41.7746 27.475 41.5871 27.6 41.5121 27.35C41.5121 27.375 41.4621 27.55 41.5746 27.725C41.5746 27.725 42.0621 28.4625 43.4246 27.6875L45.2121 26.6875C45.2121 26.6875 46.0996 26.225 46.6496 26.9375C46.6496 26.9375 47.0871 27.5375 46.5246 27.9375C46.5246 27.9375 46.1121 28.1875 45.8496 27.7875C45.8496 27.7875 45.6371 27.4125 45.9746 27.2375C45.9746 27.2375 46.2621 27.0875 46.3996 27.3875C46.5246 27.6875 46.1496 27.7625 46.1371 27.55C46.1371 27.55 46.1371 27.5 46.1121 27.55H46.1246ZM41.7246 34.3875C42.5121 33.95 42.6871 32.95 42.6871 32.95C42.8621 31.95 42.4746 31.1625 42.4746 31.1625C41.9746 30.0875 41.0996 29.875 41.0996 29.875C41.0996 29.875 41.9621 30.475 42.1996 31.275C42.1996 31.275 42.3871 31.9625 42.2746 32.6125C42.1621 33.3 42.2121 33.125 42.0496 33.65L41.7246 34.3875Z" fill="#F5CE00" stroke="black" stroke-width="0.15" stroke-miterlimit="2.6"/>
<path d="M45.7129 26.75C45.7129 26.75 46.4629 26.725 46.4129 27.5" stroke="black" stroke-width="0.15" stroke-miterlimit="2.6"/>
<path d="M40.8256 34.9125C42.1256 34.5125 42.4631 33.125 42.4631 33.125C42.616 32.4793 42.5635 31.802 42.3131 31.1875C41.7256 29.8125 40.7381 29.8125 40.7381 29.8125C40.6109 29.7941 40.4815 29.8254 40.3767 29.8999C40.272 29.9743 40.2 30.0863 40.1756 30.2125C40.1256 30.5125 40.3381 30.625 40.3381 30.625C40.6756 30.8125 40.9006 30.5625 40.9006 30.5625C41.0506 30.3625 40.9256 30.2 40.9256 30.2C40.8381 30.075 40.6756 30.15 40.6756 30.15C40.5256 30.175 40.5506 30.35 40.5506 30.35C40.5506 30.35 40.5131 30.15 40.7131 30.125C40.7131 30.125 41.1131 30.0375 41.5631 30.6C41.5631 30.6 42.1506 31.3625 42.1506 32.3625C42.1506 32.3625 42.2256 34.2125 40.3006 34.6875C40.3006 34.6875 40.5131 34.9875 40.8881 36.075C40.8881 36.075 41.3006 37.475 41.7006 38.2375C41.7006 38.2375 42.2256 39.3125 43.4256 38.875C43.4256 38.875 44.1256 38.5625 44.1256 38.0625C44.1256 38.0625 44.1631 37.5875 43.7506 37.5625C43.7506 37.5625 43.3256 37.525 43.3256 37.875C43.3256 37.875 43.3256 38.25 43.7756 38.175C43.7756 38.175 43.9256 38.1375 43.9006 37.9875C43.9006 37.9875 43.8881 37.8375 43.6881 37.9125C43.5006 37.9875 43.6881 37.9125 43.6881 37.9C43.6881 37.9 43.7631 37.8625 43.8381 37.9C43.8381 37.9 43.9131 37.9 43.9131 38.025C43.9131 38.025 43.9131 38.1 43.8256 38.1625L43.6256 38.1875C43.6256 38.1875 43.5006 38.4375 43.2256 38.525C43.0787 38.5742 42.9219 38.5863 42.7692 38.5601C42.6165 38.534 42.4727 38.4703 42.3506 38.375C42.1829 38.2297 42.0541 38.045 41.9756 37.8375C41.719 37.2897 41.4977 36.726 41.3131 36.15C41.3131 36.15 41.1006 35.4375 40.9131 35.0625L40.8381 34.9125H40.8256Z" fill="#F5CE00" stroke="black" stroke-width="0.15" stroke-miterlimit="2.6"/>
<path d="M44.4752 38.425C44.4752 38.425 44.2377 38.4 44.2377 38.6125C44.2377 38.6125 44.2377 38.9125 44.6252 38.85C44.6252 38.85 45.0002 38.775 44.8752 38.35C44.8752 38.35 44.7752 38.0625 44.4127 38.1C44.4127 38.1 44.0752 38.1 43.9252 38.575C43.9252 38.575 43.8002 38.9875 44.0127 39.325C44.2377 39.7 44.7877 39.95 45.0627 40.075C45.0627 40.075 46.1502 40.4875 46.4752 40.7375C46.4752 40.7375 46.9752 41.1 46.7377 41.4375C46.7377 41.4375 46.6627 41.575 46.5377 41.575C46.5377 41.575 46.3877 41.575 46.3752 41.425C46.3752 41.425 46.3752 41.5125 46.4627 41.55C46.4627 41.55 46.5627 41.6 46.6627 41.5125C46.6627 41.5125 46.7877 41.3875 46.7002 41.2125C46.7002 41.2125 46.5752 41.0125 46.2627 41.1375C46.2627 41.1375 46.0002 41.275 46.1127 41.55C46.1127 41.55 46.2127 41.8125 46.5252 41.8C46.5252 41.8 46.7627 41.8 46.9252 41.65C47.1627 41.3875 47.1752 40.9 46.9627 40.65C46.9627 40.65 46.7627 40.3875 46.3752 40.2C46.1252 40.125 45.6877 39.9375 45.2377 39.7625C44.9348 39.6562 44.6608 39.4808 44.4377 39.25C44.4377 39.25 44.2752 39.075 44.2127 38.75C44.2127 38.75 44.1627 38.5 44.3127 38.45L44.4752 38.425Z" fill="#F5CE00" stroke="black" stroke-width="0.15" stroke-miterlimit="2.6"/>
<path d="M44.4496 38.425C44.4496 38.425 44.1746 38.375 44.0121 38.7C44.0121 38.7 43.9246 38.8875 43.9121 39.0125M43.8246 37.8875C43.8246 37.8875 44.0871 37.925 43.9496 38.3125C43.8121 38.675 43.5746 38.775 43.5121 38.8375M46.9371 27.45C46.9371 27.45 47.5746 27.0375 48.2371 27.4875M43.2746 31.4C43.2746 31.4 43.3621 31.025 42.9371 30.4L42.5371 29.4625M43.4621 29.05L43.7621 29.875L44.1246 30.725" stroke="black" stroke-width="0.15" stroke-miterlimit="2.6"/>
<path d="M43.5633 31.7875C43.5633 31.7875 43.8133 32.05 43.7883 32.4875M42.7883 31.5C42.7883 31.5 43.0383 31.625 43.0133 32.35C43.0133 32.35 43.0133 32.85 43.3883 33.125M42.7383 33.3C42.7383 33.3 43.5633 33.2125 43.6258 33.7375C43.6258 33.7375 43.6258 34.2375 43.9258 34.275C43.9258 34.275 44.3383 34.3125 44.4258 34.725M43.0008 33.875C43.0008 33.875 43.1508 34.0875 43.3008 34.2M44.0758 33.325C44.0758 33.325 44.2883 33.6625 44.3258 33.8375M45.0008 29.4625C45.0008 29.4625 45.1883 29.725 45.3758 29.8375M45.7758 31.0375C45.7758 31.0375 46.1883 31.2375 46.1383 32.2875C46.1383 32.2875 46.0758 32.9125 46.2633 33.25" stroke="black" stroke-width="0.15" stroke-miterlimit="10"/>
<path d="M43.8125 30.325L43.85 30.425C43.85 30.425 44.6 30.4625 45 29.95L44.95 29.85C44.95 29.85 44.3 29.8125 43.825 30.325H43.8125Z" fill="#784421" stroke="black" stroke-width="0.15"/>
<path d="M46.5 34.3125C46.5 34.3125 49.0875 33.5625 50.0875 33.1125" stroke="black" stroke-width="0.15" stroke-miterlimit="10"/>
<path d="M46.2379 29.5625L46.2129 29.4875L47.4629 28.9875L47.5004 29.0875L46.2379 29.5625Z" fill="#784421" stroke="black" stroke-width="0.15"/>
<path d="M46.3379 29.5125L47.1879 33.675M46.4879 29.475L47.4629 33.6M46.6504 29.4L47.7129 33.5125M47.0754 29.25L48.5129 32.325M47.2629 29.2L48.8004 32.225M47.4004 29.125L49.0629 32.1625M47.1254 33.7L47.7879 33.5M46.6379 33.3C46.6379 33.3 48.5504 32.7375 50.0129 32.15M46.6129 33.5C46.6129 33.5 49.0379 32.875 50.0129 32.4M47.3504 35.475L47.4754 35.8875L47.8254 35.7625L47.7129 35.375M48.3379 35.2125L48.4629 35.5875L48.8004 35.475L48.6754 35.1M46.6754 32.9L46.6504 32.375L49.8379 31.4125L50.0129 31.8625M48.0129 31.9625L48.1754 32.4375M49.1129 31.6375L49.3254 32.0875M49.3754 31.55L49.5754 31.9625M49.6379 31.4625L49.8254 31.9125M49.8254 31.4125L50.1879 31.2125L50.3379 31.6M50.0129 31.3125L50.1879 31.725" stroke="black" stroke-width="0.15" stroke-miterlimit="10"/>
<path d="M42.1131 37.3875C42.1131 37.3875 41.4881 36.75 42.1131 36.1375C42.1131 36.1375 41.4256 35.8125 41.5256 35.2625M43.2256 37.8875C43.2256 37.8875 42.5756 37.975 42.7631 36.7125C42.7631 36.7125 42.5006 37.2125 42.4006 37.4625C42.3615 37.5868 42.3648 37.7206 42.4101 37.8428C42.4553 37.965 42.5399 38.0686 42.6506 38.1375C42.7756 38.2125 43.3506 38.3625 43.5256 37.9875M42.5006 35.9625C42.5006 35.9625 42.2256 36.2 42.4256 36.6375M42.7631 36.0125C42.7631 36.0125 42.7881 36.45 43.0131 36.6875M42.9631 35.85C42.9631 35.85 42.9631 36.35 43.3131 36.675M43.1381 35.675C43.1381 35.675 43.1381 36.2375 43.5506 36.6M45.2381 36.5125C45.2381 36.5125 45.4506 36.025 45.8881 36.0625C45.8881 36.0625 45.6881 36.1625 45.6881 36.375C45.6881 36.375 45.6506 36.75 46.0381 36.775C46.0381 36.775 46.3506 36.825 46.5256 36.65" stroke="#00247D" stroke-width="0.15" stroke-miterlimit="10"/>
<path d="M46.3133 38.6375C46.3133 38.6375 45.1883 38.1125 45.3133 37.375C45.3133 37.375 45.3633 36.925 45.8133 36.7M45.5633 37.175C45.5633 37.175 45.4633 37.4875 45.6883 37.7125M45.8133 36.9625C45.8133 36.9625 45.6758 37.3125 45.9133 37.5625M46.0883 36.775C46.0883 36.775 45.9258 37.075 46.1133 37.3375M45.0758 38.7125C45.0758 38.7125 45.6758 39.25 46.1508 39.25M44.8758 38.8875C44.8758 38.8875 45.4508 39.3375 45.8008 39.4125M44.6758 39.0125C44.6758 39.0125 45.3758 39.625 45.8008 39.6625M47.5133 40.2375C47.5133 40.2375 46.8383 40.6125 47.3758 41.0125M47.0758 39.8375L48.2008 39.2625M47.3508 40.0375C47.3508 40.0375 48.4883 39.35 48.8133 39.2M47.9383 40.1C47.9383 40.1 48.9008 39.45 49.4383 39.1625M48.5758 40.05C48.5758 40.05 49.2508 39.55 49.8883 39.1625M50.1133 38.525C50.1133 38.525 49.7883 38.0375 48.7133 38.525C48.7133 38.525 49.1133 38.1625 49.8883 37.875M50.9633 35.8375C50.9633 35.8375 51.0508 36.225 50.9633 36.4625" stroke="#00247D" stroke-width="0.15" stroke-miterlimit="10"/>
<path d="M49.2371 37.7125C49.2371 37.7125 49.4496 37.3875 50.0246 37.2125C50.0246 37.2125 50.1746 37.5875 50.6121 37.525C50.6121 37.525 51.2746 37.3875 51.0621 36.65C51.0621 36.65 50.9371 36.125 50.1746 36.0625M52.4246 35.15C52.4246 35.15 53.1996 35.3 53.1746 35.9125C53.1746 35.9125 53.2621 36.8625 52.2621 37.0375M53.0746 35.5375C53.0746 35.5375 53.2871 35.075 53.7621 34.8875M53.1996 34.6125C53.1996 34.6125 53.3996 34.9625 53.5371 35M53.0871 34.875L53.3371 35.1875M53.0121 35.125C53.069 35.2008 53.1363 35.2681 53.2121 35.325M49.0371 31.475C49.0371 31.475 49.1871 31.225 49.5746 31.325M51.0996 33.3C51.0996 33.3 51.3371 32.325 52.1496 32.675M51.8246 32.6C51.8246 32.6 51.8996 32.15 51.6996 31.9125M51.2621 32.5625C51.2621 32.5625 51.3621 32.75 51.2621 32.9" stroke="#00247D" stroke-width="0.15" stroke-miterlimit="10"/>
<path d="M52.9383 42.625C52.9383 42.625 53.8633 42.2125 53.5883 41.4875C53.5883 41.4875 53.5008 41.2375 53.2883 41.2625C53.2883 41.2625 52.9258 41.275 52.9883 41.7625C52.9883 41.7625 53.1133 42.2375 52.9258 42.6375L52.9383 42.625Z" fill="#64B4D1" stroke="#00247D" stroke-width="0.15" stroke-miterlimit="2.6"/>
<path d="M53.275 42.2C53.275 42.2 53.475 42.0125 53.45 41.6625C53.45 41.6625 53.4375 41.5875 53.4625 41.575C53.4625 41.575 53.5125 41.5625 53.5125 41.65C53.5125 41.65 53.575 42.0125 53.325 42.2125C53.325 42.2125 53.325 42.25 53.2875 42.2375C53.2875 42.2375 53.2625 42.2375 53.275 42.2Z" fill="white"/>
<path d="M54.2498 41.975C54.2498 41.975 54.9123 41.575 54.5498 40.8875C54.5498 40.8875 54.4498 40.7 54.2498 40.7375C54.2498 40.7375 53.8498 40.8625 54.1623 41.425C54.1623 41.425 54.3123 41.7875 54.2498 41.9875V41.975Z" fill="#64B4D1" stroke="#00247D" stroke-width="0.15" stroke-miterlimit="2.6"/>
<path d="M54.4249 41.05C54.4249 41.05 54.3874 41.0125 54.4249 40.975L54.4624 41.025C54.4624 41.025 54.6624 41.2375 54.5124 41.575C54.5124 41.575 54.4874 41.625 54.4499 41.6V41.5625C54.4499 41.5625 54.5999 41.2625 54.4249 41.0625V41.05Z" fill="white"/>
<path d="M52.3002 42.45C52.3002 42.45 51.5752 42.275 51.7127 41.5125C51.7127 41.5125 51.7752 41.1875 52.0877 41.2375C52.0877 41.2375 52.4627 41.3375 52.2252 41.8125C52.2252 41.8125 52.0752 42.1375 52.3002 42.45Z" fill="#64B4D1" stroke="#00247D" stroke-width="0.15" stroke-miterlimit="2.6"/>
<path d="M52.0241 41.5625C52.0241 41.5625 51.9991 41.5125 52.0241 41.5C52.0241 41.5 52.0616 41.5 52.0741 41.525C52.0741 41.525 52.1491 41.65 52.0991 41.825C52.0991 41.825 52.0366 41.9375 52.0616 42.05C52.0616 42.05 52.0616 42.0875 52.0366 42.1L51.9991 42.05C51.9991 42.05 51.9741 41.95 52.0366 41.825C52.0366 41.825 52.1116 41.65 52.0366 41.5625H52.0241Z" fill="white"/>
<path d="M52.825 41.0375C52.825 41.0375 53.2375 40.8 53.575 41.075C53.575 41.075 53.5375 40.925 53.275 40.8625C53.275 40.8625 53.1375 40.4625 52.75 40.5C52.75 40.5 52.9 40.7 53.125 40.85C53.125 40.85 52.9 40.875 52.825 41.0375ZM53.125 39.95C53.125 39.95 53.425 40.1625 53.525 40.3C53.525 40.3 53.625 40.15 53.775 40.075C53.775 40.075 53.6125 40.0375 53.525 40.1125C53.525 40.1125 53.375 39.9875 53.1375 39.95H53.125Z" fill="black"/>
<path d="M51.5118 40.825C51.5118 40.825 51.4868 40.725 51.5618 40.625C51.5618 40.625 51.5993 40.55 51.5868 40.4375M54.5118 34.4375C54.5118 34.4375 54.9368 34.4125 55.0118 34.0625M55.7618 33.8375C55.7618 33.8375 55.6118 33.8375 55.4743 33.9875C55.4743 33.9875 55.3743 34.1375 55.2243 34.1125" stroke="black" stroke-width="0.15" stroke-miterlimit="10"/>
<path d="M53.8758 33.15C53.8758 33.15 54.0883 33.15 54.2133 33.05C54.2133 33.05 54.3383 32.9625 54.4258 33.1C54.4258 33.1 54.5508 33.3 54.3133 33.3875C54.3133 33.3875 54.0508 33.5375 54.4758 33.8125C54.4758 33.8125 53.9633 33.6125 54.1758 33.3625C54.1758 33.3625 54.4008 33.2125 54.3133 33.15C54.3133 33.15 54.2883 33.1 54.1883 33.15C54.1008 33.225 53.9383 33.2 53.8633 33.15H53.8758Z" fill="black"/>
<path d="M54.1621 27.7C54.1621 27.7 54.2746 27.55 54.2246 27.15C54.1746 26.75 54.5496 26.6875 54.6871 26.8C54.6871 26.8 54.8371 26.925 54.6871 27.1875C54.5804 27.4166 54.3937 27.5988 54.1621 27.7Z" fill="#64B4D1" stroke="#00247D" stroke-width="0.15" stroke-miterlimit="2.6"/>
<path d="M54.3008 27.375C54.3008 27.375 54.4508 27.2375 54.3758 26.925L54.3883 26.9H54.4383C54.4383 26.9 54.5133 27.25 54.3633 27.425C54.3633 27.425 54.3258 27.4625 54.3008 27.425V27.375Z" fill="white"/>
<path d="M54.0618 27.55C54.0618 27.55 54.0493 27.375 53.7618 27.1C53.4618 26.8 53.6993 26.55 53.8868 26.55C53.8868 26.55 54.0618 26.55 54.1368 26.8375C54.1972 27.0764 54.1706 27.3289 54.0618 27.55Z" fill="#64B4D1" stroke="#00247D" stroke-width="0.15" stroke-miterlimit="2.6"/>
<path d="M54.0125 27.175C54.0125 27.175 54.0125 26.975 53.75 26.7625V26.7125H53.7875C53.7875 26.7125 54.075 26.9375 54.075 27.1875C54.075 27.1875 54.075 27.225 54.05 27.225C54.05 27.225 54.0125 27.225 54.0125 27.175Z" fill="white"/>
<path d="M53.6616 27.4125C53.6616 27.4125 53.5866 27.2875 53.2241 27.15C52.8741 27.025 52.9616 26.7125 53.0991 26.65C53.0991 26.65 53.2741 26.5875 53.4366 26.7875C53.5844 26.962 53.6643 27.1839 53.6616 27.4125Z" fill="#64B4D1" stroke="#00247D" stroke-width="0.15" stroke-miterlimit="2.6"/>
<path d="M53.5 27.1625C53.5 27.1625 53.425 26.9875 53.0875 26.9C53.0875 26.9 53.0625 26.9 53.0625 26.8625C53.0625 26.8625 53.0625 26.8375 53.1125 26.85C53.1125 26.85 53.4625 26.925 53.575 27.15L53.55 27.1875C53.55 27.1875 53.525 27.1875 53.5125 27.1625H53.5Z" fill="white"/>
<path d="M53.8741 27.55C53.8741 27.55 53.7116 27.6125 53.3241 27.425C52.9491 27.2375 52.7741 27.5625 52.8491 27.7125C52.8491 27.7125 52.9116 27.9125 53.2116 27.8625C53.4658 27.8487 53.706 27.7419 53.8866 27.5625L53.8741 27.55Z" fill="#64B4D1" stroke="#00247D" stroke-width="0.15" stroke-miterlimit="2.6"/>
<path d="M52.9994 27.675C52.9994 27.675 53.1619 27.8 53.4744 27.675H53.5244C53.5244 27.675 53.5244 27.7 53.4994 27.7125C53.4994 27.7125 53.1619 27.8625 52.9369 27.725C52.9369 27.725 52.9119 27.725 52.9369 27.6875H52.9869L52.9994 27.675Z" fill="white"/>
<path d="M53.3242 26.3375C53.3242 26.3375 53.5117 26.4375 53.4742 26.65" stroke="black" stroke-width="0.15" stroke-miterlimit="2.6"/>
<path d="M54.1621 26.375C54.1621 26.375 54.2371 26.6125 54.1621 26.75" stroke="black" stroke-width="0.15" stroke-miterlimit="10"/>
<path d="M40.9502 27.7C40.9502 27.7 40.8377 27.55 40.8877 27.15C40.9252 26.725 40.5752 26.6875 40.4377 26.8C40.4377 26.8 40.2877 26.925 40.4252 27.1875C40.532 27.4166 40.7186 27.5988 40.9502 27.7Z" fill="#64B4D1" stroke="#00247D" stroke-width="0.15" stroke-miterlimit="2.6"/>
<path d="M40.8125 27.375C40.8125 27.375 40.6875 27.2375 40.7375 26.925V26.9H40.675C40.675 26.9 40.6125 27.25 40.7625 27.425C40.7625 27.425 40.8 27.4625 40.8125 27.425V27.375Z" fill="white"/>
<path d="M41.0617 27.55C41.0617 27.55 41.0617 27.375 41.3617 27.1C41.6617 26.8 41.4242 26.55 41.2367 26.55C41.2367 26.55 41.0492 26.55 40.9867 26.8375C40.9263 27.0764 40.9529 27.3289 41.0617 27.55Z" fill="#64B4D1" stroke="#00247D" stroke-width="0.15" stroke-miterlimit="2.6"/>
<path d="M41.1121 27.175C41.1121 27.175 41.1121 26.975 41.3621 26.7625C41.3621 26.7625 41.3871 26.725 41.3621 26.7125H41.3371C41.3371 26.7125 41.0371 26.9375 41.0371 27.1875C41.0371 27.1875 41.0371 27.225 41.0746 27.225C41.0746 27.225 41.1121 27.225 41.1121 27.175Z" fill="white"/>
<path d="M41.4493 27.4125C41.4493 27.4125 41.5243 27.2875 41.8993 27.15C42.2368 27.025 42.1493 26.7125 41.9993 26.65C41.9993 26.65 41.8493 26.5875 41.6743 26.7875C41.5265 26.962 41.4466 27.1839 41.4493 27.4125Z" fill="#64B4D1" stroke="#00247D" stroke-width="0.15" stroke-miterlimit="2.6"/>
<path d="M41.625 27.1625C41.625 27.1625 41.6875 26.9875 42.0125 26.9C42.0125 26.9 42.05 26.9 42.05 26.8625C42.05 26.8625 42.05 26.8375 42.0125 26.85C42.0125 26.85 41.6625 26.925 41.5625 27.15V27.1875C41.5625 27.1875 41.6 27.1875 41.6125 27.1625H41.625Z" fill="white"/>
<path d="M41.2246 27.55C41.2246 27.55 41.4121 27.6125 41.7746 27.425C42.1621 27.2375 42.3371 27.5625 42.2746 27.7125C42.2746 27.7125 42.1996 27.9125 41.8996 27.8625C41.6454 27.8487 41.4052 27.7419 41.2246 27.5625V27.55Z" fill="#64B4D1" stroke="#00247D" stroke-width="0.15" stroke-miterlimit="2.6"/>
<path d="M42.1246 27.675C42.1246 27.675 41.9621 27.8 41.6246 27.675H41.5996V27.7125C41.5996 27.7125 41.9621 27.8625 42.1621 27.725C42.1621 27.725 42.1996 27.725 42.1621 27.6875L42.1246 27.675Z" fill="white"/>
<path d="M41.8006 26.3375C41.8006 26.3375 41.6006 26.4375 41.6506 26.65" stroke="black" stroke-width="0.15" stroke-miterlimit="2.6"/>
<path d="M40.9493 26.375C40.9493 26.375 40.8743 26.6125 40.9493 26.75" stroke="black" stroke-width="0.15" stroke-miterlimit="10"/>
<path d="M49.2629 24.2C49.2629 24.2 49.3879 24.5375 49.3379 24.85C49.2879 25.15 49.3504 25.2125 49.4629 25.275C49.5504 25.3125 49.7504 25.225 49.7629 25C49.7629 25 50.0129 25.475 49.5504 25.7875C49.5504 25.7875 49.2004 26 48.9254 25.7375C48.8129 25.625 48.7754 25.3625 48.8254 25.1125C48.8254 25.1125 48.9004 24.775 48.7754 24.425C48.7754 24.425 48.9629 24.625 48.9254 25.0375C48.9254 25.0375 48.8129 25.7875 49.3629 25.7375C49.3629 25.7375 49.7379 25.7375 49.7504 25.2875C49.7504 25.2875 49.6004 25.4375 49.4379 25.3875C49.3624 25.3696 49.2968 25.3231 49.2549 25.2578C49.2129 25.1926 49.1979 25.1136 49.2129 25.0375C49.2379 24.8375 49.2879 24.5 49.2629 24.2ZM48.6629 25.3875C48.6629 25.3875 48.6254 25.9875 48.1004 26.125C48.1004 26.125 48.1754 26.0125 48.0504 25.7125C48.0504 25.7125 47.9254 25.5625 47.9254 25.3C47.9254 25.3 47.7879 25.425 47.9629 25.775C48.0879 25.9875 47.9754 26.225 47.9504 26.2375C47.9004 26.25 48.8254 26.1125 48.6504 25.4L48.6629 25.3875ZM47.9629 24.825C47.9629 24.825 47.8379 24.675 47.8129 24.35C47.8129 24.0125 47.7629 23.925 47.7129 23.9C47.7129 23.9 47.7754 24.1875 47.7629 24.35C47.7629 24.5375 47.7629 24.65 47.8004 24.725C47.8004 24.725 47.5004 24.7625 47.3254 24.35C47.1629 23.9375 46.9879 23.975 46.8879 23.975C46.8879 23.975 47.0004 23.9875 47.1879 24.35C47.4004 24.725 47.4629 24.8125 47.9629 24.8125V24.825ZM46.6254 23.95C46.6254 23.95 46.7754 24.35 46.7879 24.55C46.7879 24.55 46.4004 24.425 46.2879 24.1125C46.2879 24.1125 45.8879 24.2375 46.0379 24.7C46.0379 24.7 45.6879 24.575 45.5254 24.3C45.5254 24.3 45.7129 24.45 45.9004 24.5125C45.9004 24.5125 45.8754 24.125 46.3504 23.9875C46.3504 23.9875 46.4254 24.325 46.6879 24.4L46.6254 23.95ZM47.2504 23.275C47.2504 23.275 47.4004 23.4625 47.6629 23.4625C47.7421 23.4705 47.822 23.4574 47.8945 23.4245C47.9669 23.3915 48.0294 23.3399 48.0754 23.275C48.0754 23.275 48.0504 23.6 47.6629 23.6125C47.6629 23.6125 47.2504 23.6125 47.2504 23.275ZM45.5629 25.5875L45.8129 25.825C45.8129 25.825 45.9629 25.975 46.0629 25.7875C46.0629 25.7875 46.2379 25.4875 46.4379 25.5125C46.4379 25.5125 46.2754 25.6 46.1379 25.8875C46.1379 25.8875 46.1004 25.975 45.9879 25.9875C45.9254 25.9875 45.8629 26.0125 45.7629 25.9L45.5629 25.6V25.5875ZM47.6504 21.9125C47.2504 21.9125 47.5879 22.2125 47.5879 22.2125C47.5879 22.7125 47.2129 22.8875 46.9379 22.7375C46.6504 22.5875 46.8754 22.2375 46.8754 22.2375C46.8754 22.2375 46.5754 22.425 46.7504 22.725C46.9504 23.025 47.4754 22.875 47.6504 22.6125C47.8504 22.8875 48.3629 23.025 48.5504 22.725C48.7504 22.425 48.4379 22.225 48.4379 22.225C48.4379 22.225 48.6629 22.5875 48.3879 22.725C48.1129 22.8875 47.7129 22.725 47.7254 22.225C47.7254 22.225 48.0754 21.9125 47.6629 21.9125H47.6504ZM47.9004 21.3625C47.9004 21.3625 48.0504 21.6125 48.0254 21.9875C48.0254 21.9875 48.1504 21.6125 47.9004 21.375V21.3625ZM46.6504 21.95C46.6504 21.95 46.6254 21.675 46.3504 21.65C46.3504 21.65 46.6004 21.8125 46.6504 21.95ZM48.6629 21.95C48.6629 21.95 48.7004 21.675 48.9629 21.65C48.9629 21.65 48.7379 21.8125 48.6629 21.95ZM46.2504 22.35C46.2504 22.35 46.4629 22.4125 46.5754 22.2625L46.2504 22.35ZM45.5754 20.7125C45.5754 20.7125 45.8254 20.7 46.0629 21.05C46.0629 21.05 45.8129 21.175 45.7629 21.25C45.7629 21.25 45.7629 21.125 45.8879 21.0375C45.8879 21.0375 45.8379 20.8625 45.5754 20.725V20.7125ZM49.5754 20.7125C49.5754 20.7125 49.3254 20.7 49.1004 21.05C49.1004 21.05 49.3379 21.175 49.4004 21.25C49.4004 21.25 49.4004 21.125 49.2754 21.0375C49.2754 21.0375 49.3254 20.8625 49.5754 20.725V20.7125ZM47.7379 20.9875C47.7379 20.9875 47.9504 21.05 48.2129 20.9C48.2129 20.9 48.5504 20.725 48.7504 20.9C48.7504 20.9 48.5754 20.8125 48.2129 20.9875C48.2129 20.9875 47.8754 21.1875 47.7379 20.9875Z" fill="black"/>
<path d="M47.9629 21.2C47.9629 21.2 48.1504 20.8875 48.7129 20.95C48.7129 20.95 48.5629 21.4 47.9629 21.2Z" fill="white"/>
<path d="M48.3383 21.2375C48.3935 21.2375 48.4383 21.1759 48.4383 21.1C48.4383 21.0241 48.3935 20.9625 48.3383 20.9625C48.2831 20.9625 48.2383 21.0241 48.2383 21.1C48.2383 21.1759 48.2831 21.2375 48.3383 21.2375Z" fill="#784421"/>
<path d="M48.3379 21.1875C48.3724 21.1875 48.4004 21.1483 48.4004 21.1C48.4004 21.0517 48.3724 21.0125 48.3379 21.0125C48.3034 21.0125 48.2754 21.0517 48.2754 21.1C48.2754 21.1483 48.3034 21.1875 48.3379 21.1875Z" fill="black"/>
<path d="M46.7754 20.5125C46.7754 20.5125 47.1129 20.55 47.3379 20.6625C47.3379 20.6625 47.5629 20.8125 47.8129 20.625C47.8129 20.625 48.1004 20.45 48.2754 20.2375C48.2754 20.2375 47.8504 20.525 47.6879 20.575C47.6879 20.575 47.5379 20.45 47.4879 20.2875C47.4879 20.2875 47.5004 20.1625 47.7379 19.95C47.7379 19.95 47.4254 20.05 47.3629 20.3125C47.4064 20.4195 47.47 20.5171 47.5504 20.6C47.5504 20.6 47.4879 20.6375 47.3379 20.525C47.3379 20.525 47.0004 20.425 46.7754 20.525V20.5125ZM47.6629 22.6375C47.3754 22.9 47.6629 22.875 47.6629 22.875C47.6629 22.875 47.9629 22.9 47.6629 22.625V22.6375ZM47.4879 20.9875C47.4879 20.9875 47.2629 21.05 46.9879 20.9C46.9879 20.9 46.6629 20.725 46.4629 20.9C46.4629 20.9 46.6379 20.8125 47.0004 20.9875C47.0004 20.9875 47.3504 21.1875 47.5004 20.9875H47.4879Z" fill="black"/>
<path d="M47.2617 21.2C47.2617 21.2 47.0867 20.8875 46.5117 20.95C46.5117 20.95 46.6617 21.4 47.2617 21.2Z" fill="white"/>
<path d="M46.8754 21.2375C46.9306 21.2375 46.9754 21.1759 46.9754 21.1C46.9754 21.0241 46.9306 20.9625 46.8754 20.9625C46.8202 20.9625 46.7754 21.0241 46.7754 21.1C46.7754 21.1759 46.8202 21.2375 46.8754 21.2375Z" fill="#784421"/>
<path d="M46.875 21.1875C46.9095 21.1875 46.9375 21.1483 46.9375 21.1C46.9375 21.0517 46.9095 21.0125 46.875 21.0125C46.8405 21.0125 46.8125 21.0517 46.8125 21.1C46.8125 21.1483 46.8405 21.1875 46.875 21.1875Z" fill="black"/>
<path d="M58.4121 18.325V38.525C58.4121 43.9125 47.6371 45.675 47.6371 45.675C47.6371 45.675 36.8496 43.925 36.8496 38.525V18.325H58.4121Z" stroke="black" stroke-width="0.15"/>
</g>
<defs>
<clipPath id="clip0_10660_8903">
<rect width="64" height="64" rx="32" fill="white"/>
</clipPath>
</defs>
</svg>
