<svg width="64" height="64" viewBox="0 0 64 64" fill="none" xmlns="http://www.w3.org/2000/svg">
<g clip-path="url(#clip0_10660_8999)">
<path d="M0 0H64V64H0V0Z" fill="#FFD520"/>
<path d="M0 64H64V0L0 64Z" fill="#FF4E12"/>
<path d="M35.239 20.3125C34.739 20.1375 34.439 20.3875 34.4515 21.025C34.464 21.65 34.8015 22.0125 35.289 21.775L35.239 20.3125Z" fill="white" stroke="black" stroke-width="0.05"/>
<path d="M35.6629 19.1375C35.2629 18.8125 34.8754 18.95 34.6879 19.55C34.5004 20.15 34.7004 20.6 35.2379 20.5375L35.6629 19.1375Z" fill="white" stroke="black" stroke-width="0.05"/>
<path d="M36.3377 18C35.9877 17.625 35.5877 17.6875 35.3127 18.25C35.0377 18.8125 35.1502 19.2875 35.6877 19.3125L36.3377 18ZM35.9002 23.525C35.3002 23.75 35.2377 24.5625 35.6127 25.0625C35.9877 25.5625 36.6752 25.6625 37.0627 25.0625L35.9002 23.525Z" fill="white" stroke="black" stroke-width="0.05"/>
<path d="M35.2 21.8C34.6375 21.6125 34.125 22.375 34.0375 23.05C33.9375 23.925 32.7125 24.2 33.3875 25.5125C33.525 24.675 34.075 24.225 34.5125 24.1875C34.95 24.1625 35.6125 24.0625 35.8875 23.525L35.2 21.8ZM36.9875 25.1625C36.3375 25.325 36.2375 26.2 36.7125 26.825C37.1125 27.3625 38.375 27.2375 38.3375 26.7L37 25.1625H36.9875ZM38.8625 30.45C38.8875 29.8875 37.9875 29.6625 37.55 29.775C37.1 29.8875 36.2625 29.7625 36.0625 29.2875C35.9125 29.6625 36.1375 30.075 36.775 30.2875C37.25 30.4375 37.25 30.7875 37.1 30.9375C37.475 31 38.5375 31 38.85 30.45H38.8625Z" fill="white" stroke="black" stroke-width="0.05"/>
<path d="M38.3516 26.8375C37.7016 26.5625 37.3141 26.9875 37.0766 27.4125C36.7016 28.025 35.6016 27.2375 35.2266 28.05C35.7266 27.8375 36.2516 28.3 36.4891 28.4625C37.1891 28.9125 38.5141 28.775 38.7016 27.7125L38.3516 26.8375Z" fill="white" stroke="black" stroke-width="0.05"/>
<path d="M38.7268 27.6C38.0768 28.075 37.8268 28.6625 37.8518 29.05C37.8518 29.45 38.4143 30.3 39.0018 30.3625C39.3518 29.65 39.5268 28.1625 38.7268 27.6ZM36.0518 30.625C36.0518 30.3875 36.4018 30.3 36.6393 30.375C36.8643 30.45 37.2268 30.6875 37.1018 30.9375L36.0518 30.625ZM32.5018 29.3375C32.4393 29.05 32.9018 28.5625 33.5018 28.8375C34.1268 29.1 34.2018 29.625 33.9518 29.825L32.5018 29.3375Z" fill="white" stroke="black" stroke-width="0.05"/>
<path d="M34.0008 29.85C33.9508 29.7 34.3883 29.3875 35.1383 29.575C35.8883 29.7625 36.0758 30.25 36.0508 30.625L34.0008 29.85ZM32.4258 29.3375C32.8133 29.0375 32.6758 28.4625 32.3133 28.3C31.6758 27.9875 31.9133 27.175 31.5008 27.0125C31.0883 26.8625 30.7008 26.575 30.6883 26.2875C30.4758 26.6875 30.6008 27.0375 30.8883 27.2875C31.1758 27.5375 30.6633 28.5625 31.0258 28.8375L32.4258 29.3375ZM24.0133 29.1125C23.6883 28.6 22.8883 28.7 22.5758 29.05C22.2383 29.425 22.2883 29.95 22.6008 30.175L24.0133 29.1125ZM25.8883 28.35C25.7633 27.6625 24.9383 27.575 24.4883 27.75C24.0258 27.925 23.7133 28.625 24.0133 29.125L25.8883 28.35Z" fill="white" stroke="black" stroke-width="0.05"/>
<path d="M27.1498 28.25C27.4498 27.675 26.8748 26.8125 26.2123 26.6875C25.6623 26.575 25.0123 26.5875 24.7998 26.0375C24.6748 26.5125 25.0123 26.8125 25.4248 27.075C25.8373 27.35 25.3498 28.0375 26.0123 28.425L27.1498 28.25Z" fill="white" stroke="black" stroke-width="0.05"/>
<path d="M27.0883 28.275C26.9633 27.8625 27.2383 27.3 27.8008 27.3375C28.3633 27.3875 28.6758 27.7875 28.4258 28.3L27.0883 28.275Z" fill="white" stroke="black" stroke-width="0.05"/>
<path d="M28.3509 28.3C28.2634 27.875 28.6259 27.3625 29.1759 27.4875C29.7259 27.6 29.9884 28.05 29.6759 28.525L28.3509 28.3Z" fill="white" stroke="black" stroke-width="0.05"/>
<path d="M29.5888 28.5C29.5388 28.075 29.9138 27.575 30.4638 27.725C31.0138 27.8625 31.2513 28.325 30.9013 28.7875L29.5888 28.5ZM20.1263 35.7C19.0763 35.7 18.8138 35.95 18.6638 37.025C18.4763 38.375 20.3138 38.525 20.1263 35.7Z" fill="white" stroke="black" stroke-width="0.05"/>
<path d="M20.5883 34.2875C18.9758 33.6625 18.0883 36.225 16.5008 35.775C17.0758 36.6875 18.4633 35.775 18.9758 35.8625C19.8508 36.025 21.7508 35.7 20.6008 34.2875H20.5883ZM19.5383 37.7875C18.7383 37.4125 17.8758 38.6375 18.0383 39.175C18.2383 39.8625 20.0633 39.3 19.5383 37.7875ZM15.8008 43.05C16.2508 43.175 16.7758 43.425 16.6758 44.275C16.5883 45.125 14.9883 46.85 13.5508 46.95C12.1008 47.0375 11.5883 48.7875 10.3383 48.3C11.5008 48.075 11.5008 46.7625 12.4133 46.35C11.7508 46.1125 11.4133 47.6 10.5633 47.6C9.71328 47.6 9.31328 48.9625 8.27578 48.8625C7.23828 48.775 7.12578 50.5 5.05078 50.525C3.47578 50.5375 1.51328 52.4 0.800781 51.6C2.33828 51.375 2.96328 50.525 3.87578 49.5875C5.35078 48.0875 7.01328 48.75 7.58828 47.425C6.92714 47.8668 6.14574 48.0938 5.35078 48.075C4.38828 48.0625 3.32578 49.6125 2.25078 48.925C2.87578 48.85 3.28828 48.575 3.93828 47.8875C4.61328 47.1875 5.60078 47.6375 6.38828 46.9125C7.61328 45.7875 8.66328 46.725 9.83828 45.3125C9.51328 45.1625 8.80078 45.275 8.15078 45.6125C7.48828 45.9625 6.65078 45.375 5.88828 45.7875C5.97578 44.8625 7.73828 45.3875 8.83828 44.75C10.0883 44.025 11.1008 44.25 12.0883 44.325C10.7133 44.325 10.1883 43.025 8.30078 43.4C7.48828 43.5625 6.82578 42.275 6.01328 42.925C6.03828 42.4375 6.88828 42.05 7.76328 42.525C8.63828 42.9875 9.01328 42.1125 10.7633 43.2125C11.4758 43.6625 12.7133 42.925 13.5008 43.4125C13.4008 43.1125 12.9508 42.925 12.4258 42.975C12.7508 42.3 14.8758 42.3875 15.8008 43.0625V43.05Z" fill="white" stroke="black" stroke-width="0.05"/>
<path d="M17.2004 42.0375C16.5129 41.5 15.5504 42.15 14.9004 41.8875C14.9004 42.3375 15.1129 42.9875 15.8379 43.2375C16.3169 42.8619 16.7759 42.4613 17.2129 42.0375H17.2004Z" fill="white" stroke="black" stroke-width="0.05"/>
<path d="M18.2891 40.5125C17.2016 39.9625 17.0141 41.325 16.1641 41.05C16.2016 41.4375 16.5141 41.925 17.2016 42.0375L18.2891 40.5125Z" fill="white" stroke="black" stroke-width="0.05"/>
<path d="M18.9258 39.275C17.3258 38.65 17.1258 40.1875 16.1758 39.8875C16.4008 40.4125 17.7508 40.7 18.4383 40.5125L18.9383 39.2625L18.9258 39.275ZM21.1258 32.5375C20.7008 31.9375 19.8133 32.425 19.6633 33.1375C19.5258 33.8375 19.8758 34.825 20.4633 34.6125L21.1258 32.5375Z" fill="white" stroke="black" stroke-width="0.05"/>
<path d="M22.2129 30.65C21.4629 30.4875 20.6254 30.5625 20.7129 31.275C20.4379 31.4 20.3504 32.3375 21.1254 32.5375L22.2129 30.6625V30.65Z" fill="white" stroke="black" stroke-width="0.05"/>
<path d="M22.7008 30.1625C21.9758 29.325 21.1633 29.3375 20.7133 29.7C19.8883 30.3625 19.0883 29.975 19.0508 30.6375C19.5508 30.2625 20.0008 30.7125 20.4008 30.575C20.8133 30.4375 21.1133 31.225 22.2383 30.8875L22.7008 30.1625ZM20.9508 42.8375C21.0633 43.0375 21.7383 43.1375 22.0758 42.7875C22.5008 42.325 22.0258 41.0625 21.3258 40.9625C20.6383 40.875 20.5758 42.4 20.9508 42.8375Z" fill="white" stroke="black" stroke-width="0.05"/>
<path d="M20.1641 42.875C21.1641 43.225 21.5766 42.4125 21.0391 41.8875C20.769 42.2313 20.4767 42.557 20.1641 42.8625V42.875Z" fill="white" stroke="black" stroke-width="0.05"/>
<path d="M16.4641 44.2125C16.2766 44.7875 15.3016 44.875 14.2141 46.6375C13.1016 48.3875 12.0516 47.65 11.7891 48.8625C13.1016 47.8 14.1391 48.5 14.9266 47.45C16.1266 45.85 17.1016 46.075 17.5641 45C18.2266 43.4625 21.1141 43.5 21.2641 41.075C20.3016 40.8875 17.2141 43.5 16.4641 44.2125ZM41.2516 20.5C42.5016 20.9125 42.5391 22.5375 43.9766 23.075C45.4266 23.6 45.5641 24.8875 46.7391 24.575C45.6391 24.275 45.7141 23.0125 44.5766 22.7C43.2266 22.325 42.7266 20.275 41.6516 19.9625M47.0016 29.025C47.2266 29.525 47.1891 30.4125 46.4141 30.65C46.8391 30.925 47.4641 30.6625 47.8016 30.0875C47.2891 31.2375 47.6391 32.275 48.4516 32.4625C48.0641 31.675 48.9391 31.3 48.6516 30.775C49.1766 31 49.6266 31.7 49.6141 32.15C50.2891 31.4 49.1141 30.3875 49.3266 29.675L47.0016 29.025ZM38.8766 37.0875C38.1016 36.4125 37.7766 37.2625 37.4016 36.9625C37.0516 36.7 36.5766 36.6625 36.4016 36.9375C37.0516 36.95 36.7391 37.4625 38.0141 37.5875C36.7391 37.675 36.9641 39.1 36.1141 39.0375C37.0266 39.9 37.4891 38.2625 38.2391 38.5375C38.0141 38.6 38.5766 39.1125 38.1891 39.8C38.8141 39.7875 39.0766 38.9125 39.1641 38.45L38.8766 37.0875ZM21.9391 44.4125C21.6516 44.1875 20.8391 44.075 20.5266 44.2625C20.2141 44.45 20.3266 44.5 20.7016 44.525C21.0766 44.5625 21.5641 45.1625 20.7516 45.2C20.3766 45.2125 20.5016 46.125 19.7141 46.2C20.0266 46.575 20.9516 46.325 21.2766 45.8875C21.2141 46.25 21.6891 46.5625 21.5016 46.9875C22.0766 47.05 21.7516 45.8125 22.6641 45.875C22.2891 45.925 22.4391 46.775 23.1016 46.55C22.7141 46.7375 22.9141 47.2 23.3516 47.0875C23.0766 47.175 22.9766 47.5375 23.3641 47.75C23.7391 47.225 23.3266 45.375 21.9391 44.4125ZM56.1266 27.0875C56.7034 27.0875 57.2566 26.8583 57.6645 26.4505C58.0724 26.0426 58.3016 25.4893 58.3016 24.9125C58.3016 24.3356 58.0724 23.7824 57.6645 23.3745C57.2566 22.9666 56.7034 22.7375 56.1266 22.7375C55.5497 22.7375 54.9965 22.9666 54.5886 23.3745C54.1807 23.7824 53.9516 24.3356 53.9516 24.9125C53.9516 25.4893 54.1807 26.0426 54.5886 26.4505C54.9965 26.8583 55.5497 27.0875 56.1266 27.0875Z" fill="white"/>
<path d="M41.2516 20.5C42.5016 20.9125 42.5391 22.5375 43.9766 23.075C45.4266 23.6 45.5641 24.8875 46.7391 24.575C45.6391 24.275 45.7141 23.0125 44.5766 22.7C43.2266 22.325 42.7266 20.275 41.6516 19.9625M16.4641 44.2125C16.2766 44.7875 15.3016 44.875 14.2141 46.6375C13.1016 48.3875 12.0516 47.65 11.7891 48.8625C13.1016 47.8 14.1391 48.5 14.9266 47.45C16.1266 45.85 17.1016 46.075 17.5641 45C18.2266 43.4625 21.1141 43.5 21.2641 41.075C20.3016 40.8875 17.2141 43.5 16.4641 44.2125ZM47.0016 29.025C47.2266 29.525 47.1891 30.4125 46.4141 30.65C46.8391 30.925 47.4641 30.6625 47.8016 30.0875C47.2891 31.2375 47.6391 32.275 48.4516 32.4625C48.0641 31.675 48.9391 31.3 48.6516 30.775C49.1766 31 49.6266 31.7 49.6141 32.15C50.2891 31.4 49.1141 30.3875 49.3266 29.675L47.0016 29.025ZM38.8766 37.0875C38.1016 36.4125 37.7766 37.2625 37.4016 36.9625C37.0516 36.7 36.5766 36.6625 36.4016 36.9375C37.0516 36.95 36.7391 37.4625 38.0141 37.5875C36.7391 37.675 36.9641 39.1 36.1141 39.0375C37.0266 39.9 37.4891 38.2625 38.2391 38.5375C38.0141 38.6 38.5766 39.1125 38.1891 39.8C38.8141 39.7875 39.0766 38.9125 39.1641 38.45L38.8766 37.0875ZM21.9391 44.4125C21.6516 44.1875 20.8391 44.075 20.5266 44.2625C20.2141 44.45 20.3266 44.5 20.7016 44.525C21.0766 44.5625 21.5641 45.1625 20.7516 45.2C20.3766 45.2125 20.5016 46.125 19.7141 46.2C20.0266 46.575 20.9516 46.325 21.2766 45.8875C21.2141 46.25 21.6891 46.5625 21.5016 46.9875C22.0766 47.05 21.7516 45.8125 22.6641 45.875C22.2891 45.925 22.4391 46.775 23.1016 46.55C22.7141 46.7375 22.9141 47.2 23.3516 47.0875C23.0766 47.175 22.9766 47.5375 23.3641 47.75C23.7391 47.225 23.3266 45.375 21.9391 44.4125ZM56.1266 27.0875C56.7034 27.0875 57.2566 26.8583 57.6645 26.4505C58.0724 26.0426 58.3016 25.4893 58.3016 24.9125C58.3016 24.3356 58.0724 23.7824 57.6645 23.3745C57.2566 22.9666 56.7034 22.7375 56.1266 22.7375C55.5497 22.7375 54.9965 22.9666 54.5886 23.3745C54.1807 23.7824 53.9516 24.3356 53.9516 24.9125C53.9516 25.4893 54.1807 26.0426 54.5886 26.4505C54.9965 26.8583 55.5497 27.0875 56.1266 27.0875Z" stroke="black" stroke-width="0.05"/>
<path d="M44.7504 29.7125C45.4129 29.0875 46.4129 28.775 47.1004 29.25C47.7879 29.7125 50.0879 30.275 51.2254 29.5C52.3504 28.7125 52.8754 28.3 53.3754 28.4C53.7504 28.9625 54.2129 29.225 54.7754 29.275C54.9504 29.4625 55.5629 29.625 55.9004 29.575C56.4004 29.7 57.0254 29.5375 57.5129 29.0125C58.2629 29.1125 58.9629 28.55 59.2379 27.7C60.0379 27.6125 60.0879 26.7125 59.5754 26.125C59.1129 26.025 59.4754 24.4375 57.7629 24.75C58.4754 25.1875 57.9254 26.075 58.5254 26.475C58.1254 26.475 57.6004 26.65 57.4754 27.2625C57.6254 26.8375 57.4504 26.5625 57.3379 26.4625C57.3504 26.1 56.5504 25.2125 55.8004 25.5375C56.3379 25.6625 56.0379 26.5375 56.4254 26.8625C56.2787 26.87 56.1354 26.9097 56.0058 26.9789C55.8762 27.048 55.7633 27.1448 55.6754 27.2625C55.4629 26.9 54.7504 26.525 54.3004 26.5C54.3004 26.375 54.2879 26.125 54.2254 26C53.9843 25.5755 53.8878 25.0842 53.9504 24.6C53.5754 25 53.2504 25.575 53.0754 25.975C52.4754 25.575 51.0004 26.1625 50.3004 26.325C49.6129 26.4875 47.3004 26.1 46.7629 25.5375C46.0193 24.9448 45.1451 24.5377 44.2129 24.35C42.8754 23.9625 42.8629 22.5 41.3879 21.4875C41.3629 23.3125 44.1254 29.0875 44.7504 29.7125ZM29.3754 43.5875C29.9323 43.5875 30.4665 43.3663 30.8603 42.9724C31.2541 42.5786 31.4754 42.0445 31.4754 41.4875C31.4754 40.9306 31.2541 40.3964 30.8603 40.0026C30.4665 39.6088 29.9323 39.3875 29.3754 39.3875C28.8184 39.3875 28.2843 39.6088 27.8905 40.0026C27.4966 40.3964 27.2754 40.9306 27.2754 41.4875C27.2754 42.0445 27.4966 42.5786 27.8905 42.9724C28.2843 43.3663 28.8184 43.5875 29.3754 43.5875Z" fill="white" stroke="black" stroke-width="0.05"/>
<path d="M24.3383 41.975C24.7633 42.525 25.4883 42.4875 25.7883 42.4375C26.0383 43.1 26.8383 43.0875 27.1883 43.4375C27.5258 43.8125 28.7133 43.775 29.0633 43.5625C28.7383 43.5375 28.3258 43.35 27.9383 43.025C27.4633 42.625 27.6883 41.8375 27.3133 41.55C27.5883 41.2375 27.6383 40.7125 27.5758 40.5125C27.8758 40.3375 28.1008 40.0625 28.1258 39.9125C28.5595 39.8856 28.9704 39.7089 29.2883 39.4125C29.5508 39.6625 30.2258 39.3375 30.5883 39.7625C30.6758 38.725 29.6758 38.175 29.0258 38.5125C28.7508 38.3875 28.0508 38.475 27.9258 38.6625C27.7008 38.5625 27.0883 38.875 26.8008 39.0875C27.1258 38.9125 27.1758 38.4 27.0508 38.2125C27.3008 38.0875 27.6133 37.7375 27.6383 37.4625C28.0133 37.525 28.5758 37.275 28.8383 37.3375C28.4258 36.8125 27.7508 36.625 27.0633 36.6625C26.3383 36.7125 26.0383 37.2125 25.9383 37.75C25.5258 38 25.3758 38.85 25.5383 39.15C25.2883 39.15 25.0633 39.375 24.9758 39.5125C24.6148 39.3614 24.2294 39.2767 23.8383 39.2625M23.9883 38.4125C23.8383 38 24.0258 37.6375 24.1133 37.3125C24.3633 36.4875 24.2133 36.275 23.4883 36.3875C23.5301 37.0874 23.6996 37.7736 23.9883 38.4125Z" fill="white"/>
<path d="M24.3383 41.975C24.7633 42.525 25.4883 42.4875 25.7883 42.4375C26.0383 43.1 26.8383 43.0875 27.1883 43.4375C27.5258 43.8125 28.7133 43.775 29.0633 43.5625C28.7383 43.5375 28.3258 43.35 27.9383 43.025C27.4633 42.625 27.6883 41.8375 27.3133 41.55C27.5883 41.2375 27.6383 40.7125 27.5758 40.5125C27.8758 40.3375 28.1008 40.0625 28.1258 39.9125C28.5595 39.8856 28.9704 39.7089 29.2883 39.4125C29.5508 39.6625 30.2258 39.3375 30.5883 39.7625C30.6758 38.725 29.6758 38.175 29.0258 38.5125C28.7508 38.3875 28.0508 38.475 27.9258 38.6625C27.7008 38.5625 27.0883 38.875 26.8008 39.0875C27.1258 38.9125 27.1758 38.4 27.0508 38.2125C27.3008 38.0875 27.6133 37.7375 27.6383 37.4625C28.0133 37.525 28.5758 37.275 28.8383 37.3375C28.4258 36.8125 27.7508 36.625 27.0633 36.6625C26.3383 36.7125 26.0383 37.2125 25.9383 37.75C25.5258 38 25.3758 38.85 25.5383 39.15C25.2883 39.15 25.0633 39.375 24.9758 39.5125C24.6148 39.3614 24.2294 39.2767 23.8383 39.2625M23.9883 38.4125C23.8383 38 24.0258 37.6375 24.1133 37.3125C24.3633 36.4875 24.2133 36.275 23.4883 36.3875C23.5301 37.0874 23.6996 37.7736 23.9883 38.4125Z" stroke="black" stroke-width="0.05"/>
<path d="M23.4375 36.425C23.625 36.625 24.3 36.7125 24.3625 36.1125C24.45 35.425 24.175 35.1625 23.575 35.425C23.525 35.5875 23.475 36.225 23.45 36.425H23.4375Z" fill="white" stroke="black" stroke-width="0.05"/>
<path d="M23.5887 35.4C23.8387 35.5 24.3762 35.7125 24.6762 35.125C24.9262 34.6375 24.6012 34.2625 24.0762 34.3C23.9512 34.4375 23.7012 34.9375 23.5762 35.4H23.5887Z" fill="white" stroke="black" stroke-width="0.05"/>
<path d="M24.0508 34.25C24.1133 34.4375 24.7508 35.0625 25.2258 34.6125C25.6883 34.1625 25.6883 33.4875 24.9883 33.2375C24.8008 33.2625 24.2383 33.925 24.0508 34.25Z" fill="white" stroke="black" stroke-width="0.05"/>
<path d="M24.9891 33.225C25.1266 33.625 25.5641 34.3 26.3891 33.975C27.2016 33.675 26.8516 32.65 26.4766 32.45C26.2641 32.45 25.3641 32.8625 24.9766 33.225H24.9891Z" fill="white" stroke="black" stroke-width="0.05"/>
<path d="M26.4756 32.45C26.4131 32.7875 26.4756 33.7375 27.6006 33.7125C28.7006 33.7125 28.3881 32.4 28.1006 32.2125C27.6506 32.2125 26.8881 32.225 26.4756 32.45Z" fill="white" stroke="black" stroke-width="0.05"/>
<path d="M28.1639 32.25C28.0389 32.525 27.7514 34.275 29.9264 33.8C30.2139 33.7375 30.9514 32.1125 28.1514 32.2625L28.1639 32.25Z" fill="white" stroke="black" stroke-width="0.05"/>
<path d="M29.3499 32.4125C29.1249 32.6375 29.6999 34.4125 31.1749 34.1125C32.6499 33.8125 31.4124 32.125 29.3499 32.4125Z" fill="white" stroke="black" stroke-width="0.05"/>
<path d="M30.6016 32.675C30.3766 33.175 30.7266 34.6125 32.5391 34.6125C34.2016 34.6125 32.4641 32.7125 30.6141 32.675H30.6016Z" fill="white" stroke="black" stroke-width="0.05"/>
<path d="M32.0391 33.1C31.9141 33.375 31.7766 34.9 33.9141 35.0375C35.4766 35.125 35.1016 32.925 32.0391 33.1Z" fill="white" stroke="black" stroke-width="0.05"/>
<path d="M34.3381 33.75C34.0756 34.225 33.7881 35.4 36.1506 35.5C37.6506 35.55 36.7256 33.775 34.3381 33.75Z" fill="white" stroke="black" stroke-width="0.05"/>
<path d="M36.3008 34.1125C35.9633 34.575 36.2133 35.5 37.0883 35.675C38.1883 35.9 38.3383 34.8625 37.5883 34.3625C36.8383 33.8625 36.3008 34.1125 36.3008 34.1125Z" fill="white" stroke="black" stroke-width="0.05"/>
<path d="M37.3758 34.325C37.1258 34.7625 37.2758 35.825 38.9383 35.825C39.2883 35.825 40.6008 34.4875 37.3758 34.325ZM24.4883 54.8C25.1364 54.8 25.758 54.5425 26.2163 54.0843C26.6746 53.626 26.932 53.0044 26.932 52.3563C26.932 51.7081 26.6746 51.0866 26.2163 50.6283C25.758 50.17 25.1364 49.9125 24.4883 49.9125C23.8418 49.9125 23.2218 50.1693 22.7647 50.6264C22.3076 51.0836 22.0508 51.7035 22.0508 52.35C22.0508 52.9965 22.3076 53.6165 22.7647 54.0736C23.2218 54.5307 23.8418 54.7875 24.4883 54.7875V54.8Z" fill="white" stroke="black" stroke-width="0.05"/>
<path d="M42.3885 19.2875C42.201 19.475 41.8135 20.0375 41.7385 20.2625C40.9135 22.7125 43.101 24.55 44.3635 27.175C44.8896 28.3647 45.1027 29.6692 44.9823 30.9644C44.862 32.2597 44.4123 33.5026 43.676 34.575C43.1385 35.2875 43.301 35.4875 42.6135 36.2125C42.351 36.4875 42.051 36.8375 42.1385 37.8375C42.5885 37.6875 43.2135 38.0875 43.3385 38.4375C43.651 38.2875 44.0885 38.35 44.251 38.5375C44.776 38.2875 45.226 38.4125 45.6885 38.9125C46.101 38.85 46.5385 38.9125 46.9385 39.35C47.1635 38.9125 47.601 38.75 47.9135 38.85C47.8885 38.2875 48.451 37.875 48.951 38.1C48.9102 37.9382 48.914 37.7684 48.9618 37.6086C49.0097 37.4487 49.0999 37.3048 49.2229 37.1921C49.3459 37.0793 49.4971 37.002 49.6605 36.9681C49.8239 36.9343 49.9934 36.9453 50.151 37C50.7135 36.5625 51.8385 36.525 52.401 37.1875C51.401 36.9 51.4385 37.975 50.5885 37.875C50.8135 38.5 50.2385 38.875 49.676 39.0625C50.0385 38.9 50.426 38.6875 50.551 38.9125C50.8635 38.6375 51.501 38.7375 51.651 38.875C52.076 38.75 52.476 38.85 52.651 39.35C53.226 39.7 53.601 40.575 53.1885 41.225C53.0635 40.5375 52.601 40.575 52.4135 40.2875C51.9635 40.45 51.5385 40.45 51.4135 40.1625C51.1635 40.4125 50.301 40.6375 49.926 40.2625C49.7885 40.825 49.301 41.3 48.7385 41.3C48.8885 41.7375 48.451 42.4875 48.1135 42.8625C48.6385 43.15 48.4885 43.775 48.3635 44.15C49.176 44.275 48.4885 45 49.901 45.475C49.201 45.6875 47.851 45.475 47.6635 44.625C46.976 44.5875 46.501 43.9 46.5385 43.175C46.001 42.675 45.9135 41.9625 46.6635 41.45C46.0385 41.6375 45.6885 40.6375 44.7885 41.05C44.326 41.25 43.1385 40.9 43.151 40.4875C42.9635 40.8 41.8135 40.675 41.651 40.1375C41.276 40.3375 40.401 40 40.4135 39.475C39.926 39.7 39.276 39.3 39.301 38.8C38.851 38.7375 38.801 38.3375 38.826 37.9875C38.426 37.8 38.5385 37.4 38.701 36.9375C38.4135 36.625 38.5385 36.1875 38.751 35.775C38.4385 35.4625 38.501 35.0875 38.601 34.65C37.0885 34.525 35.201 34.15 30.876 32.825C24.351 30.825 22.5885 35.525 24.026 38.475C25.701 41.875 23.8385 42.6125 24.401 45.1625C25.001 45.2875 25.3135 45.7875 25.276 46.325C25.6385 46.325 25.901 46.6625 25.776 47.2875C25.9419 47.2607 26.1118 47.2727 26.2723 47.3226C26.4328 47.3725 26.5795 47.4589 26.701 47.575C26.9135 47.1625 27.6385 47.075 28.0135 47.55C28.8385 47.4875 29.2385 48.1375 29.2135 48.9625C29.4084 49.3316 29.4943 49.7486 29.4611 50.1647C29.4279 50.5809 29.277 50.9789 29.026 51.3125C29.0635 50.9875 29.026 50.5125 29.001 50.225C28.976 49.7125 28.251 49.6 28.326 49.175C27.951 49.2125 27.5885 49 27.4635 48.725C27.3545 48.817 27.2235 48.8792 27.0833 48.9055C26.9431 48.9318 26.7984 48.9213 26.6635 48.875C27.0885 49.0625 27.4135 49.825 27.2885 50.325C27.5135 50.7 27.4635 51.3875 27.201 51.7C27.076 52.3 26.601 52.525 25.9885 52.25C26.1408 52.1477 26.2636 52.0074 26.3447 51.8429C26.4259 51.6784 26.4625 51.4955 26.451 51.3125C26.2455 51.1042 26.1214 50.8293 26.101 50.5375C25.4885 50.6375 24.6385 50.1125 24.476 49.9125C24.1559 49.9141 23.8393 49.9788 23.5442 50.1028C23.2491 50.2268 22.9813 50.4078 22.7561 50.6353C22.5309 50.8628 22.3527 51.1324 22.2318 51.4288C22.1108 51.7251 22.0494 52.0424 22.051 52.3625C21.9885 51.8625 21.351 51.3625 21.426 50.9375C21.051 49.775 21.5885 48.6875 23.126 48.475C22.9385 48.0375 23.5885 47.575 23.3385 47.075C22.8501 46.1851 22.2493 45.3617 21.551 44.625C22.0885 43.7125 21.926 42.5 21.6135 41.7375C21.1635 40.65 20.7385 40.925 19.1385 42.675C16.5135 45.55 13.0385 44.75 9.96351 46.6375C9.15101 47.1375 8.33851 47.325 9.21351 46.45C10.0885 45.575 12.4135 44.7 13.926 43.9375C16.751 42.525 19.1385 40.1625 20.076 35.5875C22.2885 24.8125 30.4385 28.3625 35.576 30.375C40.4135 32.25 39.5385 27.9875 37.0885 25.4125C34.151 22.325 34.7385 19.8875 36.1135 17.9375C38.601 17.6 43.351 18.4625 42.3885 19.2875Z" fill="white" stroke="black" stroke-width="0.05"/>
<path d="M51.125 45.75C51.4779 45.75 51.8274 45.6805 52.1535 45.5454C52.4795 45.4104 52.7758 45.2124 53.0253 44.9628C53.2749 44.7133 53.4729 44.417 53.6079 44.091C53.743 43.7649 53.8125 43.4154 53.8125 43.0625C53.8125 42.7096 53.743 42.3601 53.6079 42.034C53.4729 41.708 53.2749 41.4117 53.0253 41.1622C52.7758 40.9126 52.4795 40.7146 52.1535 40.5796C51.8274 40.4445 51.4779 40.375 51.125 40.375C50.4122 40.375 49.7287 40.6581 49.2247 41.1622C48.7206 41.6662 48.4375 42.3497 48.4375 43.0625C48.4375 43.7753 48.7206 44.4588 49.2247 44.9628C49.7287 45.4669 50.4122 45.75 51.125 45.75Z" fill="white" stroke="black" stroke-width="0.05"/>
<path d="M40.8892 19.4125C40.2892 22.05 40.7892 23.25 41.6767 24.4125C43.4892 26.8125 44.9267 32.2875 42.8642 35.8625" stroke="black" stroke-width="0.05"/>
<path d="M44.0273 32.775C44.2773 32.675 44.7523 32.3875 44.8648 31.8625M44.2148 31.625C44.2898 31.175 45.0023 30.975 45.0148 30.5M44.2273 29.85C44.1898 29.3875 44.9398 28.9625 44.8273 28.4875M43.8273 28.1625C43.7648 27.9 44.4523 27.3875 44.2648 26.9625M43.3023 26.5125C43.1648 26.2125 43.6398 25.875 43.4273 25.55M42.5523 25.1875C42.5023 24.9875 42.8023 24.5375 42.6398 24.275M41.8023 23.65C41.8648 23.5625 42.1148 23.375 42.0148 23.1375M41.2773 22.5125C41.3898 22.45 41.6898 22.35 41.6523 22.125" stroke="black" stroke-width="0.05" stroke-linecap="round"/>
<path d="M25.5645 52.1C24.9395 51.875 24.152 52.1875 24.002 52.725M24.4645 53.2125C24.552 52.675 25.3645 52.4375 25.6145 52.6875C25.102 52.4125 24.852 53.4125 25.302 53.4375M29.527 40.8C29.152 40.9875 29.027 41.675 29.527 42.1875M30.0895 40.95C29.827 41.175 29.8395 41.825 30.227 41.9875C29.902 41.75 30.227 41.35 30.477 41.325C30.702 41.325 30.852 41.6 30.577 41.875M52.1395 42.5C51.2645 42.275 50.552 43.2875 51.352 44.2C51.352 43.325 51.977 42.7375 52.727 42.9M52.3895 43.5C52.3447 43.4982 52.3 43.5058 52.2582 43.5221C52.2165 43.5384 52.1786 43.5632 52.1469 43.5949C52.1152 43.6266 52.0904 43.6645 52.0741 43.7063C52.0577 43.748 52.0502 43.7927 52.052 43.8375C52.052 44.0125 52.202 44.175 52.4395 44.175C52.602 44.175 52.727 44 52.727 43.85M55.477 24.225C55.627 24.775 56.352 24.9875 56.9395 24.8625M56.9395 24.5125C56.4895 24.5375 56.1145 24.1125 56.1395 23.75C56.1395 24.0125 56.7645 24.1375 56.9395 23.9625" stroke="black" stroke-width="0.05" stroke-linecap="round" stroke-linejoin="round"/>
<path d="M25.7891 42.4375C25.6641 42.125 26.1641 41.8125 26.1766 41.5125C26.2016 41.2125 26.7516 40.9875 27.3016 41.55M27.0516 38.2C26.9266 38.25 26.8391 38.325 26.7516 38.35M28.1266 39.9125C28.0016 39.9125 27.7141 39.9125 27.5641 39.8M27.5766 40.5125C27.4641 40.5625 27.2266 40.6625 27.0766 40.6875M22.2016 49.9875C22.1766 50.275 22.4516 50.6875 22.6141 50.8125M23.4141 49.3125C23.2641 49.5625 23.1641 49.9625 23.2641 50.2375M25.7641 50.2625C25.4766 50.075 25.6641 49.5875 25.6391 49.2625C25.6016 48.95 25.9641 48.45 26.6641 48.8875M23.1141 48.475C23.4016 48.425 23.7016 48.4375 23.8891 48.5125M26.7016 47.575C26.6019 47.7196 26.5416 47.8876 26.5266 48.0625M28.0266 47.5375C27.8016 47.5375 27.6141 47.7 27.5141 47.8625M24.9766 39.5C25.2266 39.5875 25.8766 39.9875 25.9016 40.4M27.6391 37.45C26.8641 37.45 26.5766 36.65 27.1516 36.65M29.0266 38.5C28.7266 38.625 28.8641 39.15 29.2766 39.4M27.1891 43.4375C27.0391 43.25 27.2266 42.6875 27.7141 42.8625M28.3391 49.1625C28.3641 48.6875 28.9641 48.4125 29.2141 48.9375M26.1016 50.525C26.0641 50 26.3266 49.825 26.5641 49.8C26.8016 49.7625 27.1391 49.9625 27.2891 50.3M21.4141 50.925C21.4516 50.6125 21.7266 50.275 22.0016 50.325M50.1516 37C49.9391 37.15 49.8141 37.8125 50.5891 37.875M48.9641 38.1C48.9641 38.175 49.0516 38.2875 49.1141 38.325M52.6516 39.35C52.4516 39.1875 51.9266 39.825 52.4016 40.2875M47.6641 44.625C47.5391 44.175 47.9641 44.0625 48.3516 44.15M46.6641 41.45C46.9016 41.3 47.1391 41.125 47.4266 41.05M46.5391 43.175C46.5391 42.8 46.7266 42.4875 46.9016 42.4M47.9141 38.85C47.9074 39.2456 48.0113 39.6352 48.2141 39.975M51.6516 38.875C51.4266 38.95 51.2266 39.0375 51.1391 39.225M51.4016 40.1625C51.5141 40.075 51.6391 39.9625 51.6891 39.8875M57.3391 26.4625C57.3391 26.9 56.7891 27.1375 56.4266 26.8625M58.5266 26.4875C58.7766 26.6625 59.6141 26.4875 59.4141 26M57.5016 29C57.2733 28.9352 57.069 28.8048 56.9141 28.625M59.2391 27.7C59.0299 27.7538 58.8084 27.7316 58.6141 27.6375M54.7766 29.275C54.9391 29.275 55.3141 29.2125 55.5641 29.075M54.3141 26.5C54.1504 26.4696 53.9812 26.5007 53.8391 26.5875M57.4641 27.2625C57.4062 27.508 57.2755 27.7302 57.0891 27.9" stroke="black" stroke-width="0.05" stroke-linecap="round"/>
<path d="M53.7773 27.9625C54.1648 27.7875 54.6523 29.125 55.5898 28.65M55.6773 27.275C55.5523 27.4375 55.4648 27.7 55.4523 27.9375" stroke="black" stroke-width="0.05" stroke-linecap="round" stroke-linejoin="round"/>
<path d="M36.902 25.225C37.027 25.2125 37.252 25.1625 37.2895 25M20.752 39.85C21.227 40.1125 21.552 40.575 21.352 41.25M42.327 23.8C42.477 23.8875 43.002 23.8875 43.302 23.775M43.677 24.1125C43.677 24.325 43.727 25.1625 43.302 25.3375M43.4645 25.2125C43.852 25.3375 44.6395 25.3 44.8895 24.5875M44.3395 25.1875C44.4067 25.2904 44.4512 25.4065 44.4699 25.528C44.4886 25.6494 44.4812 25.7735 44.448 25.8919C44.4149 26.0103 44.3568 26.1202 44.2777 26.2143C44.1986 26.3084 44.1004 26.3845 43.9895 26.4375M44.4895 25.7125C44.952 25.8625 46.002 25.875 45.8895 24.9875M45.5395 25.7125C45.852 26.15 47.227 26.6625 47.0145 25.75M44.2645 26.975C44.802 27.1 45.552 26.7375 45.2395 25.8M46.7395 26.275C46.827 26.6375 48.577 27.0125 48.3395 26.2M48.0145 26.6625C48.3395 27.4125 50.0895 27.3625 49.5395 26.35M49.252 27.125C49.602 27.55 51.127 27.3 50.527 26.275M50.5145 27.1125C51.4645 27.825 52.577 26.8 51.377 26.0375M51.927 26.875C52.7645 27.55 53.802 26.325 53.0645 25.975M45.2145 26.6C45.4895 26.675 46.052 26.6375 46.177 26.15M45.9645 26.475C45.9395 27.2 47.1395 27.475 47.4395 26.65M47.0395 27.0875C47.2645 27.5625 48.3145 27.75 48.4895 27.0875M48.3145 27.3875C48.4895 27.8625 49.402 27.8125 49.652 27.325M49.3145 27.6375C49.602 28.2625 50.7645 28.2625 51.027 27.3625M50.827 27.75C51.277 28.0375 52.252 27.925 52.177 27.05M51.9895 27.675C52.6645 28.225 53.6145 27.6875 53.152 26.7625M53.102 28.3875C53.4645 28.3375 53.652 27.6125 53.277 27.425M44.7395 28.525C45.4895 28.1125 45.627 27.425 45.1145 26.75M45.377 27.8375C45.852 28.1125 46.752 27.8125 46.902 27.125M46.027 27.9125C46.277 28.25 46.3395 28.675 45.9895 29.075M46.2395 28.35C47.077 27.825 48.1145 28.7875 47.3395 29.375M47.202 28.3C47.3895 28.25 47.7145 27.9125 47.752 27.5125M47.577 28.6625C47.9145 28.3 50.277 29.0375 48.7895 29.7875M48.6645 27.6625C49.127 27.85 49.3645 28.4875 48.6645 28.7125M49.2645 29.25C49.7645 28.725 51.3395 29.0625 50.777 29.7125M50.402 29.0375C50.677 28.0875 52.3645 28.675 51.8145 29.075M50.0645 28.075C50.102 28.275 50.1145 28.7375 49.8145 28.9875M51.4645 27.9C51.4962 28.0043 51.5048 28.1142 51.4896 28.2222C51.4745 28.3301 51.4361 28.4334 51.377 28.525M52.5395 27.9C52.627 28.0875 52.7895 28.4 52.4395 28.675M39.102 20.6875C39.1145 21.5875 39.427 22.1875 40.6395 21.6125M39.477 21.7625C38.877 22.5625 39.552 23.425 40.727 22.5625M37.6395 22.15C38.452 23.025 39.9145 22.3875 38.977 21.05M39.9645 22.9C39.802 23.775 40.5145 23.9375 41.0895 23.55M36.9145 22.3C37.0645 23.1625 37.952 23.85 38.8145 23.3M38.002 23.5C38.002 24.7375 39.7145 24.875 40.102 23.5875M39.477 24.375C40.0395 25.5 41.227 25.05 41.627 24.3625M38.252 22.55C38.477 23.1125 38.9145 23.725 39.9395 23.2625M35.1145 22.2875C35.252 22.75 36.077 23.2875 37.0145 22.6625M35.702 22.875C35.202 23.6125 36.202 24.3 37.402 23.2M36.2895 23.7875C36.502 24.8125 36.9145 25.65 38.377 24.3125M37.6395 24.85C38.177 25.5125 38.9895 25.9125 39.7645 24.8" stroke="black" stroke-width="0.05"/>
<path d="M40.3388 25.0375C40.2888 25.825 40.4513 26.2125 41.0638 26.1875C41.5388 26.1625 42.0013 25.775 42.2638 25.3625M40.9513 26.1875C40.9388 27.075 41.6388 27.7875 42.9513 26.875M41.5013 27.2375C41.2513 27.9125 42.0013 29.0125 43.4763 28.4375M38.3763 25.4375C38.2763 26.3125 39.0888 26.8875 40.3763 25.775M39.0013 26.4C39.0513 27.1125 39.8513 27.9625 41.0263 26.7375M39.5638 27.3C39.4763 28.5 40.5888 28.85 41.5263 27.925M37.9013 26.4C38.1513 26.4125 38.3388 26.2 38.4638 26.0375M38.4263 27.2875C38.6388 27.325 39.0138 27.125 39.1388 26.875M38.9763 28.7125C39.2263 28.975 40.0763 28.7875 40.1763 28.425M39.9263 28.6875C40.3888 29.7875 41.6388 29.75 42.1638 28.5M41.9138 28.95C42.1638 29.5875 42.7513 30 43.7263 29.775M42.3888 29.6C41.8388 30.5 42.5638 31.55 43.7888 30.5125M42.6888 30.9375C42.6263 31.5 43.1513 32.15 43.8513 32.225M40.3763 29.2875C40.1888 30.5625 41.1013 31.1625 42.2513 30.5M39.0513 29.9C39.3513 30.1375 39.8763 30.1625 40.3763 29.975M41.0013 30.725C40.7138 31.7875 41.8138 32.55 42.7513 31.3625M39.4763 30.075C39.4763 30.625 40.0263 31.225 40.9513 31.05M43.5388 32.15C42.9138 32.575 42.7888 33.325 43.6638 33.8125M42.0013 31.9375C42.0263 32.5625 42.3263 32.9375 43.0388 32.9875M41.0763 31.6C40.1263 32.4625 41.0513 33.475 42.1763 32.6125M41.7263 32.8875C41.4138 33.875 42.6013 34.475 43.2263 33.4625M39.7888 30.775C39.4388 31.75 39.8763 32.4 40.6763 32.3375M38.5513 30.5875C38.5888 31.175 39.0888 31.375 39.6638 31.25M38.9138 31.2C38.4763 32.025 39.1263 32.45 39.9763 32.15M42.5513 33.9625C42.4138 34.4875 42.4888 34.8625 43.2513 35.0375M42.6013 34.7C41.6638 35.125 41.6013 36.025 42.3138 36.6M41.8513 33.7125C41.7396 33.8087 41.6525 33.9301 41.5973 34.0667C41.5421 34.2033 41.5203 34.3512 41.5337 34.4979C41.5472 34.6447 41.5955 34.7861 41.6746 34.9104C41.7538 35.0347 41.8615 35.1383 41.9888 35.2125M37.7388 30.8375C37.2013 31.375 37.7013 32.825 38.8888 32.025M40.7888 32.675C40.0638 33.275 40.4013 34.3625 41.5888 34.05M39.5888 32.225C39.2138 33.2875 39.5888 33.6625 40.4263 33.6875" stroke="black" stroke-width="0.05"/>
<path d="M36.9262 30.8C36.8099 30.8808 36.7121 30.9854 36.6393 31.1068C36.5664 31.2282 36.5202 31.3637 36.5037 31.5043C36.4871 31.645 36.5007 31.7875 36.5433 31.9225C36.586 32.0575 36.6568 32.1819 36.7512 32.2875C37.0262 32.6 37.5637 32.4625 37.7262 32.05M35.5762 30.375C34.8637 31.3 35.5762 32.4 36.6012 32.075M39.4387 33.125C38.7012 33.375 38.1387 34.0625 38.6012 34.6375C38.8512 34.9875 40.0262 35.0375 40.3512 33.7M38.1012 32.2625C37.6887 32.875 37.8262 33.45 38.6012 33.75M38.0637 33.4C37.6137 33.65 37.3137 33.95 37.4137 34.5M37.0387 32.45C36.8762 33.1875 37.0762 33.6375 37.5387 33.8625M37.0262 33.325C36.3262 33.275 35.9637 33.575 36.2012 34.2625M36.2637 33.5C35.5637 33.25 35.4637 32.65 35.7637 32.025M35.6637 32.95C34.9137 32.975 34.5762 33.35 34.5762 33.875" stroke="black" stroke-width="0.05"/>
<path d="M34.6399 30.0125C34.0899 30.25 33.9149 30.9875 34.1274 31.3875C34.3274 31.8 34.9774 31.8375 35.3649 31.5625M33.1149 29.4375C32.6024 30 33.1774 31.1 34.0774 30.825M31.8274 28.9875C31.3524 29.65 31.8649 30.75 33.0774 30.4375M33.1399 33.5C33.0149 32.7125 33.8274 32.2 34.8274 33.2125M34.3399 31.625C34.1992 31.756 34.0909 31.9179 34.0236 32.098C33.9564 32.2781 33.932 32.4713 33.9524 32.6625M30.5274 28.625C30.0149 29.5 30.6399 30.3125 31.7524 30M33.4399 30.8125C32.6899 31.55 32.9399 32.2875 33.5024 32.7125M32.9649 31.675C31.8399 31.6875 31.7899 32.975 32.7024 33.3875M32.1149 30.3875C31.6649 30.7 31.5149 31.5625 32.3024 31.9125M32.0899 32.3125C31.6149 32.1 31.0524 32.3625 31.0899 32.9125M31.3774 32.3375C30.9524 31.3375 29.7149 31.5 29.8274 32.5375M31.7274 31.0875C31.4524 31.1375 30.9274 31.3 30.7274 31.7125M30.8024 29.9625C30.3024 30.525 30.6774 31.2125 31.0899 31.3375M29.3024 28.375C29.2149 29.05 29.4774 29.375 30.3274 29.325M29.6024 29.2375C29.2774 30.0625 29.7149 30.4125 30.5649 30.3625M29.7899 30.2375C29.2899 30.8375 29.6399 31.4875 30.1274 31.75M29.5524 31C28.6649 30.8875 28.5274 31.925 28.8149 32.4125" stroke="black" stroke-width="0.05"/>
<path d="M28.8397 28.2875C28.2897 28.525 27.9647 29.2125 28.2647 29.6375C28.5647 30.0625 29.1647 29.925 29.4897 29.7M28.4522 29.825C28.0022 30.5125 28.4147 31.0375 28.9022 31.2375" stroke="black" stroke-width="0.05"/>
<path d="M26.7022 28.2125C26.3272 28.5875 26.5647 29.35 27.4397 29.375C28.1397 29.375 28.5022 28.7125 28.2897 28.25M27.3147 29.375C27.0272 30 27.2022 30.675 28.2647 30.5625M28.7272 31.55C28.0647 31.25 27.1897 31.55 27.5647 32.3375M27.4647 30.4375C27.2022 30.8125 27.3022 31.35 27.5897 31.6875M27.4272 31.4375C26.9772 31.5125 26.5522 31.75 26.8272 32.4375M26.7647 31.875C26.2022 31.7125 25.4772 32.125 25.9147 32.7M25.8147 32.15C25.3397 32.075 24.7522 32.5875 25.2272 33.1M25.0397 32.675C24.6022 32.8 24.0772 33.3 24.5397 33.675M27.2522 30.2125C26.6272 30.5 26.5522 31.2125 26.8522 31.7125M26.5897 28.9125C25.6522 29.275 25.6647 30.5375 26.7022 30.9125M26.2647 30.6375C25.6897 30.975 25.5897 31.6 25.9647 32.0125M25.2772 28.4375C24.9022 28.5625 24.9272 29.725 25.9272 29.6875M24.2397 28.8375C23.4897 29.3375 24.3897 30.6125 25.6147 29.7M24.9397 30.0125C24.8272 30.525 24.9772 31.1 25.8147 31.1625M24.9897 30.7C24.8261 30.7828 24.6952 30.9185 24.6185 31.0851C24.5417 31.2517 24.5236 31.4394 24.5671 31.6176C24.6105 31.7958 24.713 31.954 24.8579 32.0666C25.0027 32.1791 25.1813 32.2394 25.3647 32.2375M23.0897 29.5875C22.3272 30.3 23.7147 30.9125 24.2397 29.8875M22.0272 30.7625C21.6522 31.225 22.9647 32.4125 23.5397 30.425M23.6897 30.3875C23.7147 30.8625 24.0022 31.1375 24.5772 31.175M24.5772 31.625C23.6397 31.775 23.3397 32.9375 24.3772 33.1875M22.8522 31.475C22.8272 31.9125 23.2772 32.275 23.8022 32.2M24.2647 33.15C23.4147 33.3375 23.3147 34.4375 24.0647 34.375M23.6772 35.4C22.9647 35.1875 22.9522 34.35 23.5772 34.025" stroke="black" stroke-width="0.05"/>
<path d="M23.0895 34.6625C22.4895 35.0125 22.727 35.8875 23.0395 36.0125C23.352 36.1375 23.602 35.975 23.6395 35.7125M23.5895 36.9125C23.652 37.325 22.1395 37.1625 22.9145 35.9M22.9145 36.9875C22.402 37.7875 23.227 38.4375 23.752 37.7625M22.977 37.95C22.777 38.6 23.552 39.0625 24.052 38.5625M21.2895 31.9375C21.002 32.5125 22.4145 32.725 22.5145 31.5375M20.8895 32.7875C20.6145 33.9125 22.7395 33.6875 22.1895 32.225M22.2395 32.975C22.3808 33.041 22.5356 33.0729 22.6915 33.0684C22.8474 33.0638 23.0001 33.0229 23.1374 32.9488C23.2746 32.8747 23.3926 32.7695 23.482 32.6417C23.5713 32.5138 23.6295 32.3669 23.652 32.2125M23.0145 33.0125C23.0544 33.1716 23.1258 33.3211 23.2246 33.4521C23.3234 33.5831 23.4474 33.6929 23.5895 33.775M21.9895 33.3125C21.902 33.925 22.5145 34.425 23.2145 34.375M22.0895 33.9C21.752 34.375 21.652 35.275 22.727 35.35M20.452 34.0625C20.277 34.55 21.302 35.05 21.902 34.25M20.1395 35.3C20.052 35.675 20.977 36.175 21.4895 34.6M21.077 35.4C21.302 35.7875 22.0395 36.1 22.4895 35.3375M21.752 35.8C21.5645 36.35 22.0895 36.875 22.7145 36.7125M20.5895 35.675C20.4645 36.4625 21.3645 36.925 21.927 36.5125M19.977 36.0125C19.7145 37.025 21.002 37.4 21.477 36.65M21.1645 36.95C21.202 37.5125 22.0895 38 22.777 37.525M19.5895 37.425C19.527 37.675 20.5895 37.925 20.7395 37.05M20.202 37.6375C20.452 38.2875 21.302 38.4375 21.7895 37.65M21.502 37.9625C21.6145 38.5625 22.377 38.9 23.0645 38.4875M23.3395 38.725C23.1645 39.525 24.002 40.1625 24.5145 39.725M22.0145 38.5875C21.7645 39.4625 22.852 39.9625 23.4645 39.475M20.6895 38.1375C20.627 38.9625 21.2645 39.45 22.002 39.0875M19.2895 38.2125C19.077 38.75 20.2395 39.1875 20.7895 38.7375M18.5645 39.675C18.8645 40.025 19.902 39.675 20.002 38.9125M19.7145 39.475C20.0895 39.9125 20.9895 40.15 21.3395 39.2125M21.0395 39.7C21.0145 40.375 22.227 40.8625 22.6145 39.6125M24.0395 39.8625C23.927 40.1875 24.1895 40.7125 24.727 40.775M23.0395 39.65C22.9645 40.025 23.5145 40.5625 24.0895 40.35M24.2145 40.5C24.052 40.9125 24.177 41.5 24.727 41.5M24.2645 41.2625C23.852 41.6125 24.0145 42.225 24.6145 42.25M24.052 41.85C23.4645 42.2375 23.677 43.1 24.4395 43.05M22.2895 40.175C22.2895 41.025 23.3395 41.15 23.5395 40.375M23.1395 40.875C22.977 41.375 23.3895 41.8625 24.027 41.725M23.2645 46.9375C23.402 47.1375 23.9895 46.7875 23.827 46.4375C23.677 46.1 23.052 46.2875 23.127 46.65M23.6895 46.3C23.7645 45.6125 22.9395 45.5 22.7395 46.1M23.0395 45.75C23.252 45.4125 22.552 44.9375 22.277 45.4375M22.527 45.2375C22.7145 44.7375 21.927 44.5125 21.8645 44.975M21.6895 44.3125C21.7895 44.0625 22.6645 44.2125 22.2895 44.7375M22.9645 45.3625C23.3145 45.05 22.727 44.4 22.3645 44.6375M25.2895 46.325C25.0145 46.35 24.727 46.525 24.927 47.1125C25.077 47.5125 25.677 47.5375 25.7645 47.2875" stroke="black" stroke-width="0.05"/>
<path d="M24.8767 46.6125C24.6267 46.4375 24.0392 46.7375 24.3017 47.2875M24.3017 47.2875C24.5017 47.7125 25.0142 47.5375 25.0892 47.325M24.3017 47.2875C24.1892 47.55 23.5142 47.6625 23.3892 47.4125M23.8392 46.6375C23.9892 46.55 24.2392 46.6625 24.3017 46.7875M23.8017 42.775C23.3392 43.075 23.6267 43.975 24.3267 43.75M23.6517 43.5C23.2892 43.7875 23.6267 44.675 24.3017 44.3375M23.7642 44.3375C23.5142 44.5875 23.7642 45.2875 24.4142 45.1625M23.6642 44.6875C23.5392 44.625 23.1642 44.675 23.0017 44.9M23.2517 41.5125C22.9142 41.8375 23.0767 42.5125 23.7267 42.5625M23.1392 42.1875C22.6392 42.4375 22.6392 43.425 23.6392 43.4625M23.1017 43.3C22.8267 43.525 22.9517 44.375 23.6642 44.2625M23.3267 44.2375C23.2267 44.3375 23.2017 44.5875 23.2892 44.7M23.0142 43.9125C22.7642 43.9125 22.4267 44.1 22.3392 44.3625M21.8892 43.45C21.9892 43.2 22.7642 43.2125 22.8142 43.95M22.8892 43.075C22.8024 43.093 22.7219 43.1337 22.656 43.193C22.5901 43.2523 22.5412 43.3281 22.5142 43.4125M22.5517 40.775C22.2142 41.075 22.0517 42.0375 23.0767 42.225M21.8767 42.7625C21.8767 42.5125 22.5767 42.2875 22.8142 42.675M21.4267 41.3625C21.5267 41.55 22.0142 41.825 22.3017 41.6125M18.9017 39.825C18.8971 39.9379 18.9172 40.0503 18.9607 40.1546C19.0041 40.2588 19.0698 40.3523 19.1531 40.4286C19.2365 40.5048 19.3355 40.5618 19.4432 40.5958C19.5509 40.6297 19.6647 40.6397 19.7767 40.625C20.3017 40.5625 20.4017 40.1 20.2517 39.8M19.8517 40.6375C19.5142 41.0625 19.9392 41.6625 20.3267 41.4875M20.2517 40.3375C20.4517 40.2625 21.1267 40.1625 21.3267 40.475M18.0767 40.475C17.9142 40.7 18.8892 40.9375 19.2017 40.475M18.8892 40.725C18.8517 41.025 19.0142 41.5625 19.8142 41.35" stroke="black" stroke-width="0.05"/>
<path d="M19.9381 41.825C20.0631 41.575 19.4631 41.125 19.0131 41.6125C18.5506 42.1 19.0756 42.65 19.3506 42.4625M17.8506 40.775C17.6006 41.1875 18.5256 41.9375 19.0381 41.2375" stroke="black" stroke-width="0.05"/>
<path d="M17.252 41.4875C16.9145 41.825 17.327 42.4375 17.8145 42.25C18.3145 42.0625 18.2645 41.55 18.152 41.4125" stroke="black" stroke-width="0.05"/>
<path d="M16.6015 42.1125C16.3515 42.3625 16.6015 42.925 16.9765 42.925C17.3515 42.925 17.564 42.6375 17.489 42.275M18.114 42.0625C18.0515 42.4375 18.589 42.6875 18.939 42.3375M18.9515 41.6875C19.0015 41.6 18.9515 41.475 18.8765 41.4125M16.039 42.6C15.7265 42.85 16.389 43.525 16.8015 42.9M18.4015 42.4625C18.2015 42.65 18.514 43.15 18.8265 43M17.3265 42.8125C17.364 43.15 18.0265 43.4 18.4515 42.8875M17.6765 43.1375C17.5765 43.3625 17.789 43.7 18.039 43.65M23.9265 45.0875C23.6765 45.5625 24.464 46.125 25.0265 45.55M24.489 45.8C24.364 46.05 24.514 46.425 24.739 46.55M23.7515 46.3375C23.814 46.1125 24.1515 45.8875 24.4515 46M23.3515 45.725C23.389 45.5125 23.6765 45.3 23.889 45.35M41.8265 35.925C40.714 35.95 41.189 37.7375 42.139 37.375M41.464 37.25C41.2515 37.6125 41.6765 38.1875 42.139 37.85M42.014 37.9125C41.689 38.4625 42.864 39.3 43.339 38.4375M42.964 38.775C42.964 39.2875 44.489 39.6125 44.264 38.5875M44.1265 39.15C44.4765 39.7625 45.8265 39.825 45.689 38.9M45.389 39.5375C45.6765 39.95 46.989 40.2 46.9515 39.35M40.039 34.375C40.2265 34.8625 40.8765 35.0375 41.5765 34.75M39.6265 34.725C40.0765 35 39.4265 36.2875 38.7515 35.775M39.6265 35.525C40.1265 35.75 40.714 35.5875 40.8765 34.9M40.589 35.425C40.639 35.7875 41.1515 36.075 41.839 35.925M39.3765 35.8C40.0015 36.3375 39.1015 37.425 38.689 36.925M39.614 36.2125C39.914 36.425 40.689 36.3 40.764 35.7125M40.414 36.2125C40.4765 36.5875 40.789 36.725 41.2015 36.75M39.4515 36.725C39.764 37.1625 40.539 37.3 40.889 36.7125M41.464 37.7125C40.9765 37.8125 40.514 37.4625 40.539 37.0375C40.6015 37.6375 39.864 37.95 39.4015 37.6875M38.839 37.9875C39.239 38.1875 39.6765 37.425 39.339 36.8875M39.3015 38.8C39.8015 38.8375 39.8515 38.0875 39.4015 37.675M40.414 39.475C40.8265 39.375 40.7015 38.475 39.714 38.4125M41.6515 40.1375C42.0515 40.025 41.739 39.0375 40.6515 39.1M43.1515 40.475C43.414 40.075 42.5265 39.375 41.814 39.7375M43.889 41.05C44.3765 41.175 44.7015 39.9 43.164 40.1M44.789 41.05C45.2015 40.925 45.5015 40.175 44.264 40.425M45.7265 41.1125C46.1015 41.3 46.2765 40.2 45.1265 40.4875M40.3515 37.5625C40.514 37.8375 40.4515 38.3875 40.1515 38.5375M40.4015 38.225C40.714 38.35 41.139 38.225 41.389 37.725M40.9515 38.225C41.039 38.4375 41.0765 38.875 40.8765 39.1M41.0265 38.6C41.3765 38.7875 41.7765 38.5375 41.9515 38.175M41.739 38.4875C41.989 38.6375 42.2015 39.375 41.789 39.675M42.014 39.3375C42.314 39.35 42.764 39.35 43.039 38.9625M42.839 39.175C43.1015 39.25 43.414 39.7 43.3015 40.0875M43.3265 39.95C43.6265 39.9125 44.139 39.7 44.2765 39.35M44.139 39.5875C44.2722 39.6679 44.3795 39.7848 44.4482 39.9244C44.5169 40.064 44.5441 40.2204 44.5265 40.375M44.5265 40.125C44.8265 40.1 45.089 39.95 45.1765 39.625M45.089 39.8375C45.314 39.9125 45.589 40.1625 45.589 40.4625M45.564 40.275C45.789 40.2375 45.939 40.1 46.089 39.8875M46.6765 39.85C46.964 40.1375 46.589 41.075 46.0015 40.9M40.6515 20.825C40.0765 21.175 38.4265 21.075 39.239 19.7M40.814 19.9C39.664 20.3625 38.2515 19.475 39.7265 18.525M39.339 18.2125C38.3765 18.2125 37.739 19.75 39.0265 20.275M35.614 18.85C35.364 19.35 36.264 19.875 36.864 19.3875C37.3515 19.0125 37.314 17.9875 37.0265 17.6M35.1265 20C34.814 21.0375 37.1265 21.1 36.7515 19.45M35.0015 21.5375C35.0765 22.325 37.214 22.075 36.5265 20.4875M36.7765 20.05C36.9515 20.2875 37.414 20.6875 38.214 20.6125M37.1515 18.9375C37.2265 19.2125 37.7015 19.4375 38.314 19.225M15.739 42.825C15.189 43.2125 16.0265 43.825 16.3265 43.15M15.314 43.125C14.7765 43.5 15.6015 44.125 15.914 43.45M14.864 43.4125C14.3265 43.8 15.1515 44.4125 15.464 43.7375M14.389 43.6875C13.8765 43.9625 14.4765 44.6375 15.014 44.0375M13.889 43.9375C13.364 44.2125 13.9765 44.8875 14.5015 44.3M16.5015 43.1375C16.5015 43.5375 17.264 43.7 17.539 43.1M17.0015 43.5C16.764 43.8 17.2015 44.175 17.439 44.0375M15.989 43.45C15.964 43.7875 16.6265 43.975 16.9515 43.6125M16.3515 43.8C16.139 44.075 16.5515 44.45 16.8265 44.3375M15.5515 43.75C15.5765 44.025 15.9515 44.325 16.364 44.15M15.789 44.1125C15.639 44.25 15.714 44.5875 15.939 44.6875M14.9765 44.0875C14.914 44.3375 15.3265 44.7625 15.7515 44.4875M15.064 44.3625C14.814 44.575 14.839 44.8625 15.164 44.9125M14.464 44.3375C14.4265 44.5 14.639 44.775 14.914 44.7375M13.114 44.325C12.864 44.45 13.514 45.1375 13.914 44.5125M12.5015 44.6125C12.189 44.7625 12.964 45.5125 13.314 44.7375M14.539 44.575C14.289 44.6375 14.139 44.9875 14.339 45.125M13.739 44.7C13.714 44.85 14.0015 45.075 14.239 44.9875M13.539 44.7625C13.289 44.9125 13.414 45.325 13.7015 45.2625M12.7015 45.0375C12.4765 45.2 12.6265 45.5375 12.9265 45.45M13.1015 45.0125C13.1015 45.1 13.3015 45.2375 13.464 45.1875M11.9265 44.875C11.6515 45 11.664 45.6875 12.589 45.3125M11.3015 45.15C10.9265 45.3375 11.0515 45.8625 11.889 45.3625M11.9515 45.4C11.8515 45.475 11.739 45.825 12.1265 45.6875M11.2515 45.5625C11.089 45.7 11.189 46 11.539 45.8875M10.439 45.6125C10.1515 45.775 10.7765 45.9875 11.189 45.5625M10.6265 45.8125C10.5015 45.9375 10.5015 46.3125 10.8265 46.1875M9.82646 45.9625C9.63896 46.1125 9.95146 46.3 10.5515 46.0375M10.0515 46.1625C9.83896 46.35 9.86396 46.575 10.1765 46.5125M9.41396 46.2625C9.16396 46.4875 9.51396 46.6375 9.93896 46.4625M9.41396 46.5125C9.00146 46.7 9.17646 47.05 9.43896 46.9125M23.314 47.7125C23.214 47.925 23.5265 48.0875 23.8265 48.05C24.114 48 24.389 47.7625 24.1765 47.425M24.1765 47.8375C24.464 48.0625 24.9765 47.8125 24.9765 47.475" stroke="black" stroke-width="0.05"/>
<path d="M41.5004 14.5875C40.2504 13.9625 37.6379 12.7875 36.9004 13.7375C37.5754 13.45 39.5504 13.75 41.1879 15.2625L41.5004 14.5875Z" fill="white" stroke="black" stroke-width="0.05"/>
<path d="M42.25 14.5125C40.8125 12.825 39.95 13.2 38.9125 12.625C37.925 12.075 36.3625 11.9625 36.0625 12.8375C37.5 12.1375 38.8125 13.2125 39.6125 13.3375C40.7375 13.5125 41.3625 14.375 41.6875 14.775L42.2625 14.525L42.25 14.5125ZM47.725 14.3C46.975 12.575 45.3625 13.025 44.65 12.3C43.6125 11.225 41 10.2375 39.9125 10.975C42.2875 10.85 43.3125 12.6125 44.5875 13.225C45.5 13.675 46.4625 14.6125 47.725 14.3Z" fill="white" stroke="black" stroke-width="0.05"/>
<path d="M44.9012 14.1125C43.6137 12.5125 41.6512 11.1 40.7262 11.6375C41.9262 11.7 42.3012 12.525 43.1512 13.0625C44.0012 13.6 43.6137 14.3625 44.9012 14.1125ZM38.7762 16.9375C37.4387 16.4375 34.8012 16.1875 33.5762 17.725C35.6137 18.0625 38.7012 17.875 38.7887 16.9375H38.7762Z" fill="white" stroke="black" stroke-width="0.05"/>
<path d="M38.5383 17.5375C37.1883 16.9125 36.1258 17.7875 34.8633 17.6625C32.4383 17.425 30.7133 17.5625 30.4883 18.725C31.8758 17.4875 34.2008 18.5125 35.1383 18.25C36.0883 18 39.5633 18.225 40.6633 18.7C40.1008 18 39.2258 17.825 38.5383 17.5375ZM42.7758 13.9375C42.4508 12.9 42.4758 11.8125 44.0258 11.8875C43.6383 11.3875 42.1883 11.1375 41.9508 12.9625C40.2383 11.7125 38.3758 11.4875 38.0258 12.575C38.9008 11.825 40.2758 12.375 41.9008 14.225C42.1753 14.0832 42.4707 13.9861 42.7758 13.9375Z" fill="white" stroke="black" stroke-width="0.05"/>
<path d="M40.4137 15.375C39.4387 14.75 38.1262 13.725 40.4262 13.3125C39.4512 12.775 38.0012 13.0125 38.1637 14.8375C35.5137 13.7625 33.6262 14.125 33.2262 15.175C32.7887 16.3375 34.4262 16.9875 34.7012 16.25C34.4012 16.375 33.3887 16.025 33.9137 15.375C34.4512 14.7125 37.1887 15.2 39.7887 16.5625C40.5137 16.9375 42.9887 16.875 40.4137 15.375Z" fill="white" stroke="black" stroke-width="0.05"/>
<path d="M39.7259 17.1C38.9759 15.5625 36.5384 16.95 36.0509 15.475C35.3759 17.65 39.5134 16.4375 39.7259 17.1ZM55.2259 18.7625C55.7259 19.0125 56.1759 18.6125 55.3884 18.3C55.8884 18.55 56.3509 18.175 55.5634 17.85C56.0759 18.1 56.5259 17.725 55.7384 17.4C55.5259 17.6125 55.2384 18.3875 55.2134 18.7625H55.2259ZM55.4759 15.8125C56.6134 14.6125 55.3884 14.2125 56.7759 12.9875C57.9009 11.9875 56.9884 11.3125 58.0634 10.5375C58.4009 10.2875 59.1509 9.78751 59.2259 9.28751C59.6759 10.4125 57.8134 10.5625 57.9384 12.3875C58.0134 13.55 57.2259 13.45 56.9384 15.3875C56.8634 15.8125 56.5884 16.725 55.4884 15.8125H55.4759Z" fill="white" stroke="black" stroke-width="0.05"/>
<path d="M55.9883 16.3375C56.6133 14.9875 57.3383 15.0125 57.6758 14.4875C58.3383 13.4875 59.7383 14.6625 60.9258 13.7625C60.7133 15.0375 59.1258 14.5875 58.4258 15.4C57.7508 16.2125 57.1758 16.5875 55.9883 16.3375Z" fill="white" stroke="black" stroke-width="0.05"/>
<path d="M56.1375 16.7875C57.2375 15.9125 58.05 16.4875 58.8125 16.0375C60.725 14.8625 61.5 16.2625 63.2 15.7125C62.75 16.8125 60.225 15.875 59.125 16.6875C58.025 17.5 54.1625 18.2875 56.1375 16.7875ZM52.9375 23.0375C52.9088 22.7367 52.7819 22.4537 52.5762 22.2323C52.3706 22.0109 52.0978 21.8633 51.8 21.8125C51.1375 21.7375 50.85 21.05 50.35 21.0125C49.85 20.9875 49.5125 19.9875 48.825 20C48.1375 20.0125 47.85 20.9125 49.475 21.725C51.1 22.5375 52.875 23.475 52.9375 23.0375ZM50.9 23.4625C50.2125 23.5 50.1125 24.5 49.45 24.5375C50.3625 25.025 51.025 24.3125 51.5 23.6875L50.9 23.4625Z" fill="white" stroke="black" stroke-width="0.05"/>
<path d="M51.4629 23.5875C50.8754 24.0875 50.7004 25.15 51.5629 25.45C51.0379 24.7375 52.4754 24.4125 52.0254 23.75L51.4629 23.5875Z" fill="white" stroke="black" stroke-width="0.05"/>
<path d="M52.0629 23.625C51.5879 24.5375 52.8004 24.65 52.4879 25.3375C53.1754 25.175 53.2879 23.875 52.6629 23.525L52.0629 23.625Z" fill="white" stroke="black" stroke-width="0.05"/>
<path d="M47.4512 21.675C48.5762 21.6125 49.6137 22.225 50.3012 23.2125C50.7387 23.8375 52.2137 24.0875 52.7262 23.5875C53.2262 23.0875 52.9387 22.025 51.6887 22.3625C51.3762 21.8375 50.4637 22.025 50.0262 21.5875C49.5887 21.1375 47.8887 19.8875 47.4512 21.675Z" fill="white" stroke="black" stroke-width="0.05"/>
<path d="M51.6883 22.375C51.3883 22.425 51.2883 22.95 51.4758 23.2125L51.6883 22.375ZM52.3258 22.6875C52.4258 22.8375 52.3633 23.0625 52.3133 23.175L52.3258 22.6875ZM49.2383 21.725C49.8133 21.75 49.9258 22.175 50.5508 22.3375L49.2383 21.725Z" fill="white"/>
<path d="M51.6883 22.375C51.3883 22.425 51.2883 22.95 51.4758 23.2125M52.3258 22.6875C52.4258 22.8375 52.3633 23.0625 52.3133 23.175M49.2383 21.725C49.8133 21.75 49.9258 22.175 50.5508 22.3375" stroke="black" stroke-width="0.05" stroke-linecap="round"/>
<path d="M48.8513 20.3C50.8513 20.8 52.4513 21.2375 53.4388 21.8C54.6326 22.396 56.007 22.521 57.2888 22.15C58.6263 21.775 61.2013 21.425 61.0763 23.0875C61.7763 22.2625 60.8888 21.3625 59.1013 21.2125C59.1388 20.3875 58.2638 19.65 57.6388 20.1375C58.2138 20.0625 58.7138 21.1375 57.5763 21.5875C57.6357 21.3946 57.6369 21.1884 57.5796 20.9948C57.5223 20.8012 57.4091 20.6289 57.2542 20.4994C57.0994 20.3698 56.9097 20.289 56.709 20.2668C56.5084 20.2447 56.3056 20.2823 56.1263 20.375C56.6638 20.5375 57.2138 21.4375 56.0013 21.7875C55.2388 22.0125 54.1263 21.725 53.3013 21.225C52.4763 20.725 47.8263 18.9 48.8388 20.2875L48.8513 20.3Z" fill="white" stroke="black" stroke-width="0.05"/>
<path d="M53.9142 19.475C53.2892 19.7625 53.6892 20.425 52.7267 20.8C51.7517 21.175 51.0767 22.05 51.2892 22.775C51.9517 21.3375 53.1142 21.4 53.5267 20.825C53.9267 20.2625 54.5267 19.4375 53.9142 19.475Z" fill="white" stroke="black" stroke-width="0.05"/>
<path d="M54.0875 19.575C54.05 20.725 53.15 20.3 53.5 21.9125C53.73 22.6036 53.7212 23.352 53.475 24.0375C54.475 23.3125 53.8375 21.7625 54.2875 21.175C54.5512 20.8427 54.762 20.4716 54.9125 20.075C54.6625 20.7375 54.6875 21.95 55.325 22.275C54.8125 21.05 56.725 20.05 55.4 18.6375C55.2125 18.975 54.625 19.5875 54.0875 19.575ZM50.8875 18.425C51.0375 18.675 51.2 19.2625 51.0625 19.5875C51.4407 19.3338 51.7499 18.9902 51.9625 18.5875C52.6125 18.675 52.8625 19.475 52.25 19.8375C52.625 19.8375 53.275 19.8375 53.625 19.4C53.1875 18.9125 51.825 18.1625 50.875 18.425H50.8875Z" fill="white" stroke="black" stroke-width="0.05"/>
<path d="M41.125 16.175C40.9553 16.0401 40.7523 15.9538 40.5375 15.925C39.5875 15.7375 40.0875 14.8875 40.8875 14.8875C42.6125 13.0125 43.5875 14.4625 45.6875 13.8625C46.4375 13.65 46.9375 13.7125 47.3375 13.8875C48.275 13.2625 49.375 13.4375 50.175 14.175C50.2625 14.0375 50.3875 13.925 50.55 13.875C51.3 13.675 51.8875 14.3 52.0875 15.125C52.6625 15 53.325 15.3 53.7625 15.6875C54.35 15.375 54.7625 15.3625 54.9125 15.6875C55.45 15.4375 56.1375 15.275 56.4875 16.125C56.8375 16.975 55.675 16.7125 55.4875 18.5C55.3625 19.6125 54.1375 20.05 53.1625 19.375C51.6 18.3375 50.0875 18.1625 49.325 19.7625C48.575 21.3625 47.9875 22.3 46.1625 21.7625C45.5 21.5875 44.6625 21.8375 44.125 22.5625C43.5875 23.275 42.775 22.6 41.8 22.6875C43.025 22.5 42.55 22.1875 43.6125 22.1125C44.5875 22.05 44.3375 21.15 44.9625 21.0125C42.525 21.6375 42.6125 20.7375 40.6 21.3625C41.475 20.2375 42.8625 20.8625 43.55 20.2C41.7375 20.175 40.925 18.9875 40.1 19.475C38.8125 20.2625 39.375 22.5 36.025 22.3C34.4 22.2125 33.35 22.425 32.375 23.4C34.075 19.9 36.375 21.825 37.5 20.7C38.0822 20.1782 38.5872 19.5764 39 18.9125C39.0501 18.8154 39.1208 18.7304 39.2071 18.6635C39.2935 18.5965 39.3935 18.5493 39.5 18.525C36.7 17.65 38.3875 16.275 41.125 16.175Z" fill="white" stroke="black" stroke-width="0.05"/>
<path d="M54.9125 15.6875C54.9625 15.775 54.975 15.8875 54.975 16.025C54.975 16.725 53.95 16.75 53.8875 17.775C53.85 18.3 53.7875 18.6 53.425 18.5375C53.0625 18.475 52.75 17.9125 53.1 17.25" fill="white"/>
<path d="M54.9125 15.6875C54.9625 15.775 54.975 15.8875 54.975 16.025C54.975 16.725 53.95 16.75 53.8875 17.775C53.85 18.3 53.7875 18.6 53.425 18.5375C53.0625 18.475 52.75 17.9125 53.1 17.25" stroke="black" stroke-width="0.05" stroke-linecap="round"/>
<path d="M41.6387 15.15C41.4199 14.9923 41.1583 14.9051 40.8887 14.9L41.6387 15.15ZM47.3262 13.8875C48.1637 14.25 48.5637 15.1125 49.7762 15.1375C50.9387 15.1875 51.6512 16.875 53.6012 15.775L53.7512 15.7M50.1762 14.175C50.0106 14.4804 49.9533 14.8329 50.0137 15.175L50.1762 14.175ZM46.3887 17.725C44.9012 17.725 44.5262 18.475 44.5262 19.2C44.5262 19.925 45.2262 20.8625 46.4387 20.8625C47.6637 20.8625 48.3262 20.1125 48.3262 19.2875C48.3262 18.4625 47.5762 17.725 46.3762 17.725H46.3887Z" fill="white"/>
<path d="M41.6387 15.15C41.4199 14.9923 41.1583 14.9051 40.8887 14.9M47.3262 13.8875C48.1637 14.25 48.5637 15.1125 49.7762 15.1375C50.9387 15.1875 51.6512 16.875 53.6012 15.775L53.7512 15.7M50.1762 14.175C50.0106 14.4804 49.9533 14.8329 50.0137 15.175M46.3887 17.725C44.9012 17.725 44.5262 18.475 44.5262 19.2C44.5262 19.925 45.2262 20.8625 46.4387 20.8625C47.6637 20.8625 48.3262 20.1125 48.3262 19.2875C48.3262 18.4625 47.5762 17.725 46.3762 17.725H46.3887Z" stroke="black" stroke-width="0.05"/>
<path d="M46.651 20.825C46.6135 20.425 45.876 20.4875 45.901 20.175C45.926 19.8625 46.3135 19.725 46.3135 19.3C46.3135 18.875 46.976 18.825 47.1885 19.175C47.4135 19.5125 48.076 20.175 48.2135 19.8375M47.201 19.1625C46.9997 19.3776 46.8836 19.6586 46.8744 19.9531C46.8652 20.2475 46.9636 20.5353 47.151 20.7625M47.6635 19.7C47.5635 19.9375 47.5385 20.3 47.6635 20.5125V19.7Z" fill="white"/>
<path d="M46.651 20.825C46.6135 20.425 45.876 20.4875 45.901 20.175C45.926 19.8625 46.3135 19.725 46.3135 19.3C46.3135 18.875 46.976 18.825 47.1885 19.175C47.4135 19.5125 48.076 20.175 48.2135 19.8375M47.201 19.1625C46.9997 19.3776 46.8836 19.6586 46.8744 19.9531C46.8652 20.2475 46.9636 20.5353 47.151 20.7625M47.6635 19.7C47.5635 19.9375 47.5385 20.3 47.6635 20.5125" stroke="black" stroke-width="0.05"/>
<path d="M53.5254 18.55C54.6879 18.6375 54.8754 17.375 54.0254 17.3M52.1129 15.1125C51.7129 14.6125 50.7879 14.4375 50.7754 15.5125" stroke="black" stroke-width="0.05"/>
<path d="M50.6633 16.75C50.2758 15.775 49.2633 15.625 48.7383 16.125C48.2883 16.525 48.2758 17.575 49.2383 17.8C49.5633 17.4125 50.2133 16.8875 50.6633 16.75ZM50.2383 16.1375C49.6633 15.6375 48.8383 16.5875 49.5883 17.4625L50.2383 16.1375ZM39.5008 18.5C39.8758 18.4125 40.4258 18.6 41.2758 19C41.8133 19.25 43.4008 19.7875 44.4133 19.25C43.3758 19.625 42.6008 18.05 41.8133 18.25C41.0258 18.4375 39.5883 18.725 38.9883 18.15C40.4633 18.25 41.2508 17.075 42.9383 18.0875C43.417 18.3874 43.9735 18.5395 44.5383 18.525C43.1633 16.8625 41.3383 17.925 41.1508 16.575C41.9883 17.475 44.0258 16.375 45.0508 18.05M41.4508 16.825C41.2508 16.5875 41.3383 16.35 41.1383 16.1625L41.4508 16.825Z" fill="white"/>
<path d="M50.2383 16.1375C49.6633 15.6375 48.8383 16.5875 49.5883 17.4625M39.5008 18.5C39.8758 18.4125 40.4258 18.6 41.2758 19C41.8133 19.25 43.4008 19.7875 44.4133 19.25C43.3758 19.625 42.6008 18.05 41.8133 18.25C41.0258 18.4375 39.5883 18.725 38.9883 18.15C40.4633 18.25 41.2508 17.075 42.9383 18.0875C43.417 18.3874 43.9735 18.5395 44.5383 18.525C43.1633 16.8625 41.3383 17.925 41.1508 16.575C41.9883 17.475 44.0258 16.375 45.0508 18.05M41.4508 16.825C41.2508 16.5875 41.3383 16.35 41.1383 16.1625M50.6633 16.75C50.2758 15.775 49.2633 15.625 48.7383 16.125C48.2883 16.525 48.2758 17.575 49.2383 17.8C49.5633 17.4125 50.2133 16.8875 50.6633 16.75Z" stroke="black" stroke-width="0.05"/>
<path d="M52.1127 15.125C51.7627 14.75 51.0127 15.0375 51.2252 15.7875C51.3045 15.6119 51.4258 15.4584 51.5784 15.3407C51.731 15.223 51.9102 15.1446 52.1002 15.1125L52.1127 15.125ZM49.9752 17.125C50.1839 16.9657 50.4158 16.8392 50.6627 16.75C50.5681 16.5001 50.4084 16.28 50.2002 16.1125C50.0252 15.9875 49.5002 16.6875 49.9752 17.125Z" fill="black"/>
<path d="M49.0498 15.85C48.4873 15.475 47.9623 15.5125 47.7998 15.825C47.3873 15.8125 47.0498 16.1125 47.0248 16.7M47.8998 16.95C47.2248 16.4875 46.2998 16.6625 46.3623 17.7M45.9623 18.2875C46.2873 18.025 46.7623 17.8375 47.1123 18.3M50.9873 17.2625C50.8623 17.4375 50.7748 17.7125 50.9873 18.1125C50.7373 17.7875 50.0998 17.7875 49.4248 18.6625M52.4873 17.225C51.6748 17.3125 51.6873 17.85 52.3498 18.0875M46.6748 15.225C45.9873 15.0875 45.4873 15.5 46.4373 15.85M47.9998 14.75C47.0248 14.5 46.6248 14.75 47.0748 14.975M45.1873 18.65C45.1498 19 45.3498 19.45 45.9123 18.9375M45.3748 19.6875C45.3748 19.7875 45.3623 19.8875 45.2998 19.975M43.1123 15.1C42.5248 14.9125 42.4123 14.3625 43.0998 14.4125M42.9123 16.3625C42.2498 16.1375 42.2498 15.4875 42.7998 15.5625M44.1373 16.025C43.3623 15.8375 43.3373 15.3125 43.9123 15.3875M44.2248 14.3875C43.8248 14.3625 43.1873 14.825 44.2498 15.0875M45.3748 15.3125C44.4123 15.1625 44.4373 15.5625 44.9998 15.8125M46.0998 14.4C45.3498 14.2625 45.0998 14.7 45.5998 14.8875M43.7873 17.125C43.6123 16.975 43.4623 16.2625 44.3248 16.475M45.5748 16.9C44.9998 16.75 44.4498 17.3125 44.9748 17.65M46.3498 16.225C45.7248 16.125 45.2248 16.2875 45.5498 16.5125" stroke="black" stroke-width="0.05" stroke-linecap="round"/>
<path d="M52.0766 15.125C51.8919 15.1586 51.7182 15.2364 51.5702 15.3518C51.4221 15.4672 51.3042 15.6167 51.2266 15.7875" fill="white"/>
<path d="M52.0766 15.125C51.8919 15.1586 51.7182 15.2364 51.5702 15.3518C51.4221 15.4672 51.3042 15.6167 51.2266 15.7875" stroke="black" stroke-width="0.05"/>
</g>
<defs>
<clipPath id="clip0_10660_8999">
<rect width="64" height="64" rx="32" fill="white"/>
</clipPath>
</defs>
</svg>
