<svg width="64" height="64" viewBox="0 0 64 64" fill="none" xmlns="http://www.w3.org/2000/svg">
<g clip-path="url(#clip0_10660_9768)">
<path fill-rule="evenodd" clip-rule="evenodd" d="M0 0H64V64H0V0Z" fill="#229E45"/>
<path fill-rule="evenodd" clip-rule="evenodd" d="M32.6746 50.675L61.3996 32.025L32.4996 13.325L3.66211 32.075L32.6746 50.675Z" fill="#F8E509"/>
<path fill-rule="evenodd" clip-rule="evenodd" d="M45.1867 32C45.2372 33.6276 44.9601 35.2487 44.3717 36.767C43.7834 38.2853 42.8958 39.6699 41.7618 40.8385C40.6278 42.007 39.2705 42.9357 37.7705 43.5693C36.2705 44.203 34.6584 44.5286 33.0301 44.527C31.4017 44.5253 29.7903 44.1963 28.2916 43.5596C26.7929 42.9229 25.4375 41.9914 24.3059 40.8205C23.1743 39.6496 22.2896 38.2632 21.7044 36.7437C21.1192 35.2241 20.8454 33.6025 20.8992 31.975C21.0036 28.8218 22.3304 25.8328 24.599 23.6403C26.8677 21.4478 29.9001 20.2237 33.0551 20.227C36.21 20.2302 39.24 21.4605 41.5041 23.6577C43.7682 25.8549 45.0888 28.8466 45.1867 32Z" fill="#2B49A3"/>
<path fill-rule="evenodd" clip-rule="evenodd" d="M29.0367 39.275L28.6617 39.05L28.2742 39.25L28.3617 38.8125L28.0617 38.5L28.4867 38.45L28.6867 38.05L28.8742 38.4625L29.2992 38.5375L28.9742 38.8375M37.1867 41.3375L36.8117 41.1125L36.4117 41.3125L36.4992 40.875L36.1992 40.5625L36.6367 40.5125L36.8367 40.1125L37.0117 40.525L37.4367 40.6L37.1242 40.9M33.6742 38.0375L33.3492 37.85L33.0117 38.0125L33.0867 37.6375L32.8367 37.3625L33.1992 37.325L33.3742 36.9875L33.5242 37.3375L33.8992 37.4L33.6242 37.65M41.8992 36.85L41.5742 36.6625L41.2492 36.825L41.3242 36.4625L41.0742 36.2L41.4367 36.15L41.5992 35.825L41.7617 36.1625L42.1242 36.225L41.8492 36.475M33.5242 34.3875L33.1492 34.1625L32.7617 34.3625L32.8492 33.925L32.5492 33.6125L32.9742 33.5625L33.1742 33.175L33.3617 33.575L33.7867 33.65L33.4617 33.95M23.4992 30.625L23.1242 30.4L22.7492 30.6L22.8242 30.1625L22.5242 29.85L22.9617 29.8L23.1617 29.4L23.3367 29.8125L23.7617 29.8875L23.4492 30.1875M24.7117 35.625L24.3367 35.4125L23.9492 35.6L24.0367 35.175L23.7367 34.85L24.1617 34.8L24.3617 34.425L24.5492 34.8125L24.9742 34.9L24.6492 35.1875M37.2242 28.775L36.8992 28.5875L36.5492 28.75L36.6242 28.375L36.3742 28.0875L36.7492 28.05L36.9242 27.7L37.0867 28.0625L37.4617 28.125L37.1742 28.3875M36.5492 32.0375L36.2492 31.875L35.9867 32L36.0367 31.7L35.8367 31.4875L36.1367 31.45L36.2742 31.175L36.3992 31.4625L36.6992 31.5125L36.4742 31.7125M22.9242 36.525L22.6742 36.375L22.4117 36.5L22.4617 36.2125L22.2617 36L22.5617 35.975L22.6867 35.725L22.8117 35.975L23.0992 36.0375L22.8867 36.2375M41.9617 37.675L41.7492 37.575L41.5367 37.6625L41.5867 37.45L41.4242 37.2875L41.6617 37.2625L41.7742 37.075L41.8617 37.275L42.0992 37.3125L41.9242 37.4625" fill="#FFFFEF"/>
<path fill-rule="evenodd" clip-rule="evenodd" d="M22.9379 36.5375L22.6879 36.3875L22.4254 36.5125L22.4879 36.225L22.2754 36.0125L22.5629 35.9875L22.7004 35.7375L22.8254 35.9875L23.1129 36.05L22.9004 36.25" fill="#FFFFEF"/>
<path fill-rule="evenodd" clip-rule="evenodd" d="M22.9379 36.5375L22.6879 36.3875L22.4254 36.5125L22.4879 36.225L22.2754 36.0125L22.5629 35.9875L22.7004 35.7375L22.8254 35.9875L23.1129 36.05L22.9004 36.25M26.9254 36.5375L26.6754 36.3875L26.4254 36.5125L26.4754 36.225L26.2754 36.0125L26.5629 35.9875L26.6879 35.725L26.8129 35.9875L27.1004 36.05L26.8879 36.25M26.4254 37.875L26.1754 37.725L25.9254 37.85L25.9754 37.5625L25.7754 37.35L26.0629 37.3125L26.1879 37.0625L26.3129 37.3125L26.6004 37.375L26.3879 37.575M34.7254 35.45L34.4754 35.3L34.2129 35.425L34.2629 35.1375L34.0629 34.925L34.3504 34.9L34.4879 34.6375L34.6129 34.9L34.8879 34.95L34.6754 35.15M32.2879 35.45L32.0379 35.3L31.7754 35.425L31.8379 35.1375L31.6379 34.925L31.9254 34.9L32.0504 34.6375L32.1754 34.9L32.4629 34.95L32.2504 35.15M25.6879 34.6L25.5379 34.5125L25.3754 34.5875L25.4004 34.4L25.2754 34.275L25.4629 34.25L25.5504 34.0875L25.6129 34.2625L25.8004 34.2875L25.6754 34.4125M41.6504 38.75L41.4004 38.6125L41.1379 38.7375L41.2004 38.45L41.0004 38.2375L41.2879 38.2L41.4129 37.95L41.5379 38.2L41.8254 38.2625L41.6129 38.4625M39.6129 39.0125L39.4129 38.8875L39.2004 39.0125L39.2504 38.7625L39.0754 38.5875L39.3254 38.5625L39.4254 38.35L39.5254 38.5625L39.7754 38.6125L39.5879 38.775M40.5879 39L40.3879 38.875L40.1879 38.9875L40.2254 38.7625L40.0754 38.6L40.3004 38.575L40.4004 38.375L40.4879 38.575L40.7129 38.6125L40.5504 38.775M43.3254 36.6L43.1379 36.4875L42.9379 36.5875L42.9879 36.375L42.8379 36.2125L43.0504 36.1875L43.1504 36L43.2379 36.2L43.4504 36.2375L43.2879 36.3875M39.6254 40.3625L39.3754 40.225L39.1254 40.35L39.1879 40.075L38.9879 39.8875L39.2629 39.85L39.4004 39.6125L39.5254 39.8625L39.7879 39.9125L39.5879 40.0875M39.6379 41.45L39.4129 41.325L39.1879 41.4375L39.2379 41.1625L39.0629 40.975L39.3129 40.9375L39.4379 40.7L39.5379 40.95L39.7879 41L39.6004 41.175M37.7879 39L37.6004 38.8875L37.4004 38.9875L37.4504 38.7625L37.3004 38.6125L37.5129 38.5875L37.6129 38.3875L37.7004 38.5875L37.9129 38.625L37.7504 38.775M36.0629 39L35.8754 38.8875L35.6754 38.9875L35.7254 38.7625L35.5754 38.6125L35.7879 38.5875L35.8879 38.3875L35.9754 38.5875L36.1879 38.625L36.0379 38.775M33.1254 36.425L32.9379 36.3125L32.7379 36.4125L32.7879 36.2L32.6379 36.0375L32.8504 36.0125L32.9504 35.825L33.0379 36.025L33.2504 36.0625L33.0879 36.2M33.4504 41.6375L33.2879 41.55L33.1254 41.6375L33.1629 41.45L33.0379 41.325L33.2129 41.2875L33.3004 41.125L33.3754 41.3L33.5629 41.325L33.4254 41.45M29.0254 33.2L28.6504 32.9875L28.2629 33.175L28.3504 32.75L28.0504 32.425L28.4754 32.375L28.6754 31.9875L28.8629 32.3875L29.2879 32.4625L28.9629 32.7625" fill="#FFFFEF"/>
<path fill-rule="evenodd" clip-rule="evenodd" d="M44.3867 36.375C44.6219 35.7621 44.8059 35.1308 44.9367 34.4875C38.4867 28.8125 31.2867 25.9 22.1867 26.5C21.8607 27.1371 21.593 27.8023 21.3867 28.4875C25.5614 28.0659 29.778 28.5513 33.7477 29.9105C37.7174 31.2697 41.3465 33.4706 44.3867 36.3625V36.375Z" fill="white"/>
<path d="M41.4875 33.175L41.7125 33.3C41.6775 33.3696 41.6686 33.4494 41.6875 33.525C41.7 33.575 41.75 33.6375 41.8125 33.675C41.8875 33.725 41.95 33.75 42.0125 33.75C42.0625 33.75 42.1125 33.7125 42.1375 33.675C42.15 33.65 42.1625 33.625 42.15 33.5875L42.1125 33.4875L41.9625 33.325C41.8828 33.2439 41.8229 33.1455 41.7875 33.0375C41.7656 32.9562 41.7738 32.8697 41.8106 32.7939C41.8473 32.7182 41.9101 32.6582 41.9875 32.625C42.0542 32.5955 42.1283 32.5867 42.2 32.6C42.2903 32.6196 42.3754 32.658 42.45 32.7125C42.5584 32.7887 42.6446 32.8922 42.7 33.0125C42.7151 33.0678 42.7174 33.1259 42.7065 33.1823C42.6957 33.2386 42.6721 33.2917 42.6375 33.3375L42.4125 33.2C42.4375 33.1375 42.45 33.075 42.4375 33.025C42.425 32.9875 42.375 32.9375 42.3125 32.9C42.25 32.85 42.1875 32.8375 42.1375 32.8375C42.123 32.8379 42.1088 32.8415 42.0959 32.848C42.0829 32.8545 42.0715 32.8637 42.0625 32.875C42.0539 32.8876 42.0482 32.9021 42.0461 32.9173C42.0439 32.9325 42.0452 32.9479 42.05 32.9625C42.05 33.0125 42.1125 33.0875 42.2 33.175L42.3875 33.425C42.4216 33.4872 42.4373 33.5578 42.4329 33.6286C42.4285 33.6994 42.4041 33.7675 42.3625 33.825C42.3189 33.8869 42.258 33.9348 42.1875 33.9625C42.1132 33.9965 42.0298 34.0053 41.95 33.9875C41.8552 33.9633 41.766 33.9209 41.6875 33.8625C41.5694 33.7916 41.4807 33.6807 41.4375 33.55C41.4 33.4375 41.4125 33.3125 41.4875 33.175ZM40.3875 32.4625L40.6375 32.5875C40.6082 32.6498 40.5994 32.7199 40.6125 32.7875C40.625 32.85 40.675 32.9125 40.7375 32.95C40.8125 33 40.875 33.0125 40.9375 33C40.9875 33 41.0375 32.975 41.0625 32.925C41.0744 32.9019 41.0787 32.8757 41.075 32.85C41.075 32.8125 41.0625 32.7875 41.025 32.75L40.875 32.5875C40.7927 32.511 40.7286 32.417 40.6875 32.3125C40.6709 32.2629 40.6657 32.2101 40.6722 32.1582C40.6787 32.1063 40.6967 32.0565 40.725 32.0125C40.7621 31.9574 40.8142 31.9141 40.875 31.8875C40.9419 31.8587 41.0157 31.85 41.0875 31.8625C41.1625 31.8625 41.2375 31.9 41.3375 31.9625C41.4625 32.05 41.5625 32.1375 41.5875 32.25C41.6062 32.3035 41.6126 32.3605 41.6061 32.4168C41.5996 32.4731 41.5804 32.5272 41.55 32.575L41.3125 32.4375C41.35 32.375 41.35 32.3125 41.3375 32.275C41.3125 32.225 41.275 32.1875 41.2125 32.15C41.1589 32.1086 41.0928 32.0865 41.025 32.0875C41.0095 32.0894 40.9946 32.0949 40.9815 32.1036C40.9685 32.1122 40.9577 32.1239 40.95 32.1375C40.9434 32.1511 40.9399 32.1661 40.9399 32.1812C40.9399 32.1964 40.9434 32.2114 40.95 32.225C40.95 32.2625 41.0125 32.3375 41.1 32.4375C41.2 32.525 41.2625 32.6125 41.3 32.6625C41.3385 32.7249 41.3578 32.7973 41.3556 32.8706C41.3534 32.9439 41.3297 33.015 41.2875 33.075C41.2449 33.1398 41.1845 33.1908 41.1135 33.2219C41.0425 33.2529 40.964 33.2627 40.8875 33.25C40.7893 33.2309 40.6959 33.1927 40.6125 33.1375C40.4927 33.0711 40.3999 32.965 40.35 32.8375C40.3144 32.7123 40.3278 32.5782 40.3875 32.4625ZM39.0375 32.0875L39.7375 30.9625L40.575 31.4625L40.45 31.6625L39.85 31.2875L39.6875 31.5375L40.2625 31.8875L40.1375 32.0875L39.575 31.7375L39.3875 32.05L40.0125 32.425L39.9 32.625L39.0375 32.0875ZM37.0625 30.475L37.175 30.275L37.675 30.55L37.4375 31.0125C37.2348 31.0574 37.0229 31.0309 36.8375 30.9375C36.7257 30.8795 36.6309 30.7933 36.5625 30.6875C36.4964 30.5921 36.4615 30.4785 36.4625 30.3625C36.4625 30.2375 36.5 30.125 36.5625 30.0125C36.6202 29.897 36.7062 29.7981 36.8125 29.725C36.9 29.65 37.025 29.6125 37.15 29.6125C37.2375 29.6125 37.35 29.65 37.4625 29.7C37.5857 29.7579 37.6867 29.8545 37.75 29.975C37.8 30.075 37.8125 30.1875 37.7875 30.3125L37.525 30.2375C37.5391 30.174 37.5302 30.1076 37.5 30.05C37.4667 29.9887 37.4139 29.9403 37.35 29.9125C37.3056 29.885 37.2559 29.8674 37.2041 29.861C37.1523 29.8545 37.0998 29.8593 37.05 29.875C36.9625 29.9125 36.875 30 36.8 30.125C36.7391 30.2399 36.7171 30.3715 36.7375 30.5C36.7625 30.6 36.825 30.675 36.9375 30.725L37.1 30.775H37.2625L37.3375 30.625L37.0625 30.475ZM28.4625 28.35L28.6625 27.025L29.0625 27.0875L29.1625 28.025L29.5375 27.15L29.925 27.2125L29.7375 28.5375L29.4875 28.5L29.6375 27.4625L29.225 28.4625L28.975 28.425L28.8625 27.3375L28.7125 28.3875L28.4625 28.35ZM27.125 28.1875L27.25 26.8625L28.225 26.95L28.2125 27.175L27.4875 27.1125L27.4625 27.4L28.125 27.4625L28.1125 27.6875L27.45 27.625L27.4125 28L28.15 28.0625L28.125 28.2875L27.125 28.1875Z" fill="#309E3A"/>
<path d="M22.6744 27.35C22.6744 27.225 22.6994 27.1 22.7369 27.0125L22.8619 26.8375L23.0494 26.7125C23.1417 26.6808 23.2395 26.668 23.3369 26.675C23.4237 26.6744 23.5096 26.6919 23.5892 26.7263C23.6688 26.7608 23.7404 26.8114 23.7994 26.875C23.9244 27 23.9619 27.1625 23.9619 27.375C23.9619 27.6 23.8869 27.7625 23.7744 27.875C23.7118 27.9357 23.6372 27.9826 23.5554 28.0128C23.4736 28.0429 23.3864 28.0556 23.2994 28.05C23.2136 28.0522 23.1282 28.0367 23.0486 28.0044C22.9691 27.9722 22.897 27.9239 22.8369 27.8625C22.7751 27.796 22.7286 27.7168 22.7005 27.6304C22.6725 27.5441 22.6635 27.4527 22.6744 27.3625V27.35Z" fill="#309E3A"/>
<path d="M22.95 27.35C22.95 27.5 22.975 27.625 23.05 27.7C23.1125 27.7875 23.2 27.825 23.3 27.825C23.3511 27.826 23.4018 27.8165 23.4491 27.7972C23.4964 27.7778 23.5392 27.749 23.575 27.7125C23.6375 27.6375 23.675 27.525 23.6875 27.375C23.6875 27.2125 23.6625 27.1 23.5875 27.025C23.5572 26.9875 23.5192 26.957 23.476 26.9354C23.4329 26.9139 23.3857 26.9018 23.3375 26.9C23.2125 26.9 23.125 26.9375 23.0625 27.0125C22.9875 27.0875 22.95 27.2 22.9375 27.35H22.95Z" fill="#F7FFFF"/>
<path d="M24.25 28.05L24.2625 26.7125H24.825C24.975 26.7125 25.075 26.7375 25.1375 26.7625C25.2 26.7875 25.2625 26.825 25.2875 26.8875C25.3125 26.95 25.35 27.0125 25.35 27.1C25.35 27.2 25.3125 27.275 25.2625 27.35C25.2 27.4125 25.1125 27.45 24.9875 27.475C25.05 27.5 25.1 27.5375 25.1375 27.575L25.2875 27.8L25.45 28.05H25.125L24.9375 27.7625C24.8917 27.6928 24.8416 27.626 24.7875 27.5625C24.7666 27.5403 24.741 27.5232 24.7125 27.5125C24.6723 27.4981 24.6302 27.4897 24.5875 27.4875H24.525V28.05H24.25Z" fill="#309E3A"/>
<path d="M24.5254 27.275H24.7254C24.8084 27.2854 24.8924 27.2854 24.9754 27.275L25.0379 27.2125C25.0629 27.1875 25.0754 27.15 25.0754 27.1125C25.0754 27.0625 25.0629 27.025 25.0379 27C25.0115 26.972 24.9761 26.9543 24.9379 26.95H24.5379L24.5254 27.275Z" fill="white"/>
<path d="M25.7742 26.775L26.2617 26.8C26.3464 26.8013 26.4304 26.8139 26.5117 26.8375C26.5829 26.8644 26.647 26.9071 26.6992 26.9625C26.7576 27.0317 26.8002 27.1127 26.8242 27.2C26.8492 27.2875 26.8492 27.3875 26.8492 27.5125C26.853 27.6082 26.8359 27.7036 26.7992 27.7921C26.7625 27.8805 26.7071 27.96 26.6367 28.025C26.5867 28.0625 26.5242 28.1 26.4492 28.125H26.1992L25.6992 28.1125L25.7742 26.775Z" fill="#309E3A"/>
<path d="M26.0238 27.0125L25.9863 27.8875L26.1863 27.9125H26.3488L26.4613 27.85C26.4988 27.825 26.5113 27.7875 26.5363 27.725L26.5738 27.475L26.5613 27.25C26.5363 27.1875 26.5238 27.15 26.4863 27.125C26.453 27.0881 26.4095 27.062 26.3613 27.05C26.2914 27.0353 26.2203 27.027 26.1488 27.025L26.0238 27.0125Z" fill="white"/>
<path d="M32.3125 29.1625L32.625 27.8625L33.0375 27.9625C33.2 28 33.3 28.0375 33.35 28.0625C33.4125 28.1 33.475 28.15 33.5 28.225C33.5375 28.3125 33.5375 28.4 33.5125 28.5C33.5014 28.5645 33.4737 28.6249 33.432 28.6754C33.3904 28.7258 33.3362 28.7644 33.275 28.7875C33.232 28.8087 33.1853 28.8214 33.1375 28.825C33.0445 28.8169 32.9524 28.8002 32.8625 28.775L32.6875 28.7375L32.5625 29.225L32.3125 29.1625Z" fill="#309E3A"/>
<path d="M32.8258 28.15L32.7383 28.525L32.8883 28.55C32.9883 28.575 33.0633 28.5875 33.1008 28.575C33.1354 28.5714 33.1681 28.5576 33.1948 28.5354C33.2216 28.5131 33.241 28.4834 33.2508 28.45L33.2383 28.3125C33.2167 28.2721 33.1812 28.241 33.1383 28.225L32.9508 28.175L32.8258 28.15Z" fill="white"/>
<path d="M33.5508 29.5375L33.9883 28.275L34.5258 28.4625C34.6233 28.49 34.716 28.5321 34.8008 28.5875C34.8508 28.6375 34.8883 28.7 34.9133 28.775C34.9508 28.8875 34.9133 28.9125 34.8883 28.9875C34.8633 29.0875 34.8008 29.15 34.7258 29.1875C34.6827 29.2125 34.6352 29.2287 34.5858 29.2352C34.5364 29.2416 34.4863 29.2381 34.4383 29.225L34.5383 29.375L34.6133 29.625L34.6758 29.925L34.3758 29.825L34.2883 29.4875C34.2688 29.4067 34.2437 29.3273 34.2133 29.25C34.2025 29.2215 34.1854 29.1959 34.1633 29.175C34.1253 29.1474 34.0831 29.1263 34.0383 29.1125L33.9883 29.1L33.8008 29.625L33.5508 29.5375Z" fill="#309E3A"/>
<path d="M34.0508 28.9L34.2383 28.9625L34.4758 29.025C34.5133 29.025 34.5383 29.025 34.5633 29L34.6258 28.9125V28.7875C34.6099 28.7548 34.5835 28.7284 34.5508 28.7125L34.3633 28.65L34.1633 28.575L34.0508 28.9Z" fill="white"/>
<path d="M35.1125 29.4875C35.1442 29.3731 35.1996 29.2667 35.275 29.175C35.3125 29.1125 35.375 29.075 35.4375 29.0375C35.4992 29.0034 35.5673 28.9822 35.6375 28.975C35.725 28.975 35.825 28.975 35.925 29.0125C36.0098 29.0337 36.0892 29.0725 36.1581 29.1263C36.227 29.1801 36.2838 29.2478 36.325 29.325C36.4 29.475 36.4125 29.6625 36.3375 29.8625C36.3168 29.9524 36.2785 30.0374 36.2249 30.1125C36.1713 30.1875 36.1033 30.2513 36.025 30.3C35.9478 30.3384 35.8636 30.3605 35.7776 30.3648C35.6915 30.3691 35.6055 30.3555 35.525 30.325C35.4401 30.3038 35.3607 30.265 35.2918 30.2112C35.2229 30.1574 35.1661 30.0897 35.125 30.0125C35.0515 29.8461 35.047 29.6573 35.1125 29.4875Z" fill="#309E3A"/>
<path d="M35.3758 29.5625C35.3383 29.7 35.3383 29.8125 35.3758 29.9125C35.4258 30.0125 35.5008 30.075 35.6008 30.1125C35.7008 30.1375 35.7883 30.125 35.8758 30.075C35.9633 30.025 36.0383 29.925 36.0883 29.775C36.1258 29.625 36.1258 29.5125 36.0883 29.4125C36.0673 29.3663 36.0361 29.3255 35.9972 29.2931C35.9582 29.2606 35.9125 29.2373 35.8633 29.225C35.8156 29.2095 35.765 29.2048 35.7153 29.2113C35.6656 29.2178 35.6179 29.2353 35.5758 29.2625C35.4883 29.3125 35.4258 29.4125 35.3758 29.5625Z" fill="white"/>
<path d="M37.7129 31.35L38.3254 30.1625L38.8254 30.4125C38.9504 30.4875 39.0379 30.5375 39.0754 30.5875C39.1254 30.65 39.1504 30.7125 39.1629 30.775C39.1754 30.8375 39.1629 30.925 39.1129 30.9875C39.0754 31.075 39.0129 31.1375 38.9254 31.175C38.8379 31.2 38.7504 31.2 38.6379 31.1625C38.6754 31.2125 38.7004 31.275 38.7129 31.325L38.7504 31.5875L38.7754 31.9L38.4879 31.75L38.4504 31.4L38.4129 31.15C38.4021 31.1215 38.385 31.0959 38.3629 31.075C38.3295 31.0443 38.2915 31.019 38.2504 31L38.2004 30.975L37.9504 31.475L37.7129 31.35Z" fill="#309E3A"/>
<path d="M38.3008 30.7875L38.4758 30.875L38.7008 30.975C38.7383 30.975 38.7633 30.975 38.7883 30.95C38.822 30.9326 38.8496 30.9053 38.8674 30.8718C38.8853 30.8383 38.8925 30.8002 38.8883 30.7625C38.8748 30.7252 38.8481 30.694 38.8133 30.675C38.7603 30.6397 38.7061 30.6064 38.6508 30.575L38.4633 30.4875L38.3008 30.7875Z" fill="white"/>
<path d="M42.6496 33.7875C42.7246 33.6625 42.7996 33.5875 42.8996 33.5375C42.9606 33.4968 43.0283 33.4672 43.0996 33.45C43.1656 33.4372 43.2335 33.4372 43.2996 33.45C43.3871 33.4625 43.4871 33.5 43.5746 33.575C43.6485 33.6201 43.7122 33.6801 43.7617 33.7511C43.8111 33.8221 43.8453 33.9026 43.8621 33.9875C43.8802 34.1694 43.8313 34.3516 43.7246 34.5C43.6771 34.5807 43.6139 34.651 43.5388 34.7068C43.4636 34.7627 43.378 34.8028 43.2871 34.825C43.2025 34.8408 43.1155 34.839 43.0316 34.8197C42.9477 34.8003 42.8687 34.7638 42.7996 34.7125C42.7257 34.6674 42.662 34.6075 42.6125 34.5364C42.563 34.4654 42.5288 34.3849 42.5121 34.3C42.4982 34.2106 42.502 34.1192 42.5235 34.0313C42.5449 33.9433 42.5835 33.8605 42.6371 33.7875H42.6496Z" fill="#309E3A"/>
<path d="M42.8739 33.925C42.7989 34.05 42.7614 34.175 42.7739 34.275C42.7824 34.3256 42.8012 34.3739 42.8292 34.4169C42.8571 34.4599 42.8936 34.4967 42.9364 34.525C42.976 34.5525 43.021 34.5712 43.0684 34.5798C43.1159 34.5884 43.1646 34.5868 43.2114 34.575C43.3114 34.55 43.4114 34.475 43.4989 34.3375C43.5864 34.2125 43.6239 34.1 43.5989 34C43.5989 33.9 43.5364 33.825 43.4489 33.75C43.3614 33.675 43.2614 33.675 43.1614 33.7C43.0614 33.725 42.9739 33.8 42.8864 33.925H42.8739Z" fill="white"/>
<path d="M30.8008 28.625L31.0133 27.675L31.7133 27.8375L31.6758 28L31.1758 27.875L31.1258 28.0875L31.5883 28.2L31.5508 28.3625L31.0883 28.2375L31.0258 28.5L31.5508 28.625L31.5133 28.7875L30.8008 28.625Z" fill="#309E3A"/>
</g>
<defs>
<clipPath id="clip0_10660_9768">
<rect width="64" height="64" rx="32" fill="white"/>
</clipPath>
</defs>
</svg>
