<svg width="64" height="64" viewBox="0 0 64 64" fill="none" xmlns="http://www.w3.org/2000/svg">
<g clip-path="url(#clip0_10660_9803)">
<path d="M0 0H64V64H0V0Z" fill="white"/>
<path fill-rule="evenodd" clip-rule="evenodd" d="M64 55.5C63.2875 56.375 62.675 58.425 60.7625 58.425C56.95 58.425 56 54.1 53.1375 54.1C51.2375 54.1 50.2875 58.4375 48.3875 58.4375C44.5625 58.4375 43.6125 54.1 40.7625 54.1C38.85 54.1 37.9 58.4375 36.0125 58.4375C32.1875 58.4375 31.2375 54.1 28.3875 54.1C26.475 54.1 25.525 58.4375 23.625 58.4375C19.8125 58.4375 18.8625 54.1 16 54.1C14.0875 54.1 13.1375 58.4375 11.2375 58.4375C7.425 58.4375 6.475 54.1 3.6125 54.1C1.7125 54.1 1.15 57.1875 0 57.1875V62.75C1.15 62.75 1.7125 59.6625 3.625 59.6625C6.475 59.6625 7.4375 64 11.2375 64C13.15 64 14.1 59.6625 16 59.6625C18.8625 59.6625 19.8125 64 23.625 64C25.525 64 26.475 59.6625 28.375 59.6625C31.2375 59.6625 32.2 64 36 64C37.9125 64 38.8625 59.6625 40.7625 59.6625C43.625 59.6625 44.575 64 48.3875 64C50.2875 64 51.2375 59.6625 53.1375 59.6625C56 59.6625 56.9625 64 60.7625 64C62.675 64 63.2875 62.775 64 61.9V55.5ZM64 44.675C63.2875 45.5625 62.675 47.6 60.7625 47.6C56.95 47.6 56 43.275 53.1375 43.275C51.2375 43.275 50.2875 47.6 48.3875 47.6C44.5625 47.6 43.6125 43.275 40.7625 43.275C38.85 43.275 37.9 47.6 36.0125 47.6C32.1875 47.6 31.2375 43.275 28.3875 43.275C26.475 43.275 25.525 47.6 23.625 47.6C19.8125 47.6 18.8625 43.275 16 43.275C14.0875 43.275 13.1375 47.6 11.2375 47.6C7.425 47.6 6.475 43.275 3.6125 43.275C1.7125 43.275 1.15 46.3625 0 46.3625V51.9375C1.15 51.9375 1.7125 48.85 3.625 48.85C6.475 48.85 7.4375 53.1875 11.2375 53.1875C13.15 53.1875 14.1 48.85 16 48.85C18.8625 48.85 19.8125 53.1875 23.625 53.1875C25.525 53.1875 26.475 48.85 28.375 48.85C31.2375 48.85 32.2 53.1875 36 53.1875C37.9125 53.1875 38.8625 48.85 40.7625 48.85C43.625 48.85 44.575 53.1875 48.3875 53.1875C50.2875 53.1875 51.2375 48.85 53.1375 48.85C56 48.85 56.9625 53.1875 60.7625 53.1875C62.675 53.1875 63.2875 51.9625 64 51.075V44.675ZM64 33.85C63.2875 34.75 62.675 36.7875 60.7625 36.7875C56.95 36.7875 56 32.45 53.1375 32.45C51.2375 32.45 50.2875 36.7875 48.3875 36.7875C44.5625 36.7875 43.6125 32.45 40.7625 32.45C38.85 32.45 37.9 36.7875 36.0125 36.7875C32.1875 36.7875 31.2375 32.45 28.3875 32.45C26.475 32.45 25.525 36.7875 23.625 36.7875C19.8125 36.7875 18.8625 32.45 16 32.45C14.0875 32.45 13.1375 36.7875 11.2375 36.7875C7.425 36.7875 6.475 32.45 3.6125 32.45C1.7125 32.45 1.15 35.55 0 35.55V41.1125C1.15 41.1125 1.7125 38.0375 3.625 38.0375C6.475 38.0375 7.4375 42.3625 11.2375 42.3625C13.15 42.3625 14.1 38.0375 16 38.0375C18.8625 38.0375 19.8125 42.3625 23.625 42.3625C25.525 42.3625 26.475 38.0375 28.375 38.0375C31.2375 38.0375 32.2 42.3625 36 42.3625C37.9125 42.3625 38.8625 38.0375 40.7625 38.0375C43.625 38.0375 44.575 42.3625 48.3875 42.3625C50.2875 42.3625 51.2375 38.0375 53.1375 38.0375C56 38.0375 56.9625 42.3625 60.7625 42.3625C62.675 42.3625 63.2875 41.125 64 40.25V33.85ZM64 23.0375C63.2875 23.9125 62.675 25.9625 60.7625 25.9625C56.95 25.9625 56 21.6375 53.1375 21.6375C51.2375 21.6375 50.2875 25.9625 48.3875 25.9625C44.5625 25.9625 43.6125 21.6375 40.7625 21.6375C38.85 21.6375 37.9 25.9625 36.0125 25.9625C32.1875 25.9625 31.2375 21.6375 28.3875 21.6375C26.475 21.6375 25.525 25.9625 23.625 25.9625C19.8125 25.9625 18.8625 21.6375 16 21.6375C14.0875 21.6375 13.1375 25.9625 11.2375 25.9625C7.425 25.9625 6.475 21.6375 3.6125 21.6375C1.7125 21.6375 1.15 24.725 0 24.725V30.3C1.15 30.3 1.7125 27.2125 3.625 27.2125C6.475 27.2125 7.4375 31.55 11.2375 31.55C13.15 31.55 14.1 27.2125 16 27.2125C18.8625 27.2125 19.8125 31.55 23.625 31.55C25.525 31.55 26.475 27.2125 28.375 27.2125C31.2375 27.2125 32.2 31.55 36 31.55C37.9125 31.55 38.8625 27.2125 40.7625 27.2125C43.625 27.2125 44.575 31.55 48.3875 31.55C50.2875 31.55 51.2375 27.2125 53.1375 27.2125C56 27.2125 56.9625 31.55 60.7625 31.55C62.675 31.55 63.2875 30.3 64 29.425V23.0375ZM64 12.2125C63.2875 13.0875 62.675 15.15 60.7625 15.15C56.95 15.15 56 10.8125 53.1375 10.8125C51.2375 10.8125 50.2875 15.15 48.3875 15.15C44.5625 15.15 43.6125 10.8125 40.7625 10.8125C38.85 10.8125 37.9 15.15 36.0125 15.15C32.1875 15.15 31.2375 10.8125 28.3875 10.8125C26.475 10.8125 25.525 15.15 23.625 15.15C19.8125 15.15 18.8625 10.8125 16 10.8125C14.0875 10.8125 13.1375 15.15 11.2375 15.15C7.425 15.15 6.475 10.8125 3.6125 10.8125C1.7125 10.825 1.1375 13.9375 0 13.9375V19.5C1.15 19.5 1.7125 16.4125 3.625 16.4125C6.475 16.4125 7.425 20.7375 11.25 20.7375C13.15 20.7375 14.1 16.4125 16 16.4125C18.8625 16.4125 19.8125 20.7375 23.625 20.7375C25.525 20.7375 26.475 16.4125 28.375 16.4125C31.2375 16.4125 32.1875 20.7375 36 20.7375C37.9125 20.7375 38.8625 16.4125 40.7625 16.4125C43.625 16.4125 44.575 20.7375 48.3875 20.7375C50.2875 20.7375 51.2375 16.4125 53.1375 16.4125C56 16.4125 56.9625 20.7375 60.7625 20.7375C62.6625 20.7375 63.2875 19.5125 64 18.625V12.25V12.2125ZM64 1.4C63.2875 2.275 62.675 4.3375 60.7625 4.3375C56.95 4.3375 56 0 53.1375 0C51.2375 0 50.2875 4.3375 48.3875 4.3375C44.5625 4.3375 43.6125 0 40.7625 0C38.85 0 37.9 4.3375 36.0125 4.3375C32.1875 4.3375 31.2375 0 28.3875 0C26.475 0 25.525 4.3375 23.6125 4.3375C19.8 4.3375 18.875 0 16 0C14.0875 0 13.15 4.3375 11.2375 4.3375C7.425 4.3375 6.475 0 3.6125 0C1.725 0 1.15 3.1 0 3.1V8.675C1.15 8.675 1.7125 5.5875 3.625 5.5875C6.475 5.5875 7.425 9.925 11.25 9.925C13.15 9.925 14.1 5.5875 16 5.5875C18.8625 5.5875 19.8125 9.925 23.625 9.925C25.525 9.925 26.475 5.5875 28.375 5.5875C31.2375 5.5875 32.1875 9.925 36 9.925C37.9125 9.925 38.8625 5.5875 40.7625 5.5875C43.625 5.5875 44.575 9.925 48.3875 9.925C50.2875 9.925 51.2375 5.5875 53.1375 5.5875C56 5.5875 56.9625 9.925 60.7625 9.925C62.6625 9.925 63.2875 8.6875 64 7.8V1.4Z" fill="#000063"/>
<path fill-rule="evenodd" clip-rule="evenodd" d="M47.1625 21.125L46.75 58.775C46.75 60.7625 48.5375 60.7625 48.725 58.775L48.3375 21.15L47.1625 21.125Z" fill="#A24300" stroke="white" stroke-width="0.2375"/>
<path fill-rule="evenodd" clip-rule="evenodd" d="M51.2617 35.125L50.0117 33.75L49.7117 35.1375L49.1617 33.1375L48.6617 34.1375L48.5742 32.0125L48.0742 33.025L47.9742 30.9L47.4742 31.9L47.1742 29.4L46.6742 30.4L46.3867 27.9L45.8867 28.9L45.5867 26.4L45.4492 25.15L45.6992 24.65L46.3492 24.9L47.3992 25.8875L49.4867 27.875L48.1867 27.375L50.2867 29.375L48.9867 28.875L51.0867 30.875L49.7867 30.375L51.6742 32L50.3742 31.5L52.2742 33.1125L50.9742 32.6125L52.4117 34.3625L50.9117 33.4875L51.2617 35.125Z" fill="#006D00" stroke="white" stroke-width="0.2125"/>
<path d="M51.2617 35.125L45.6992 24.65M49.4992 27.875L46.4992 26.15L45.8867 28.9" stroke="black" stroke-width="0.0375"/>
<path d="M50.2883 29.375L47.2883 27.6375L46.6758 30.4125" stroke="black" stroke-width="0.0375"/>
<path d="M51.0879 30.875L48.0879 29.1375L47.4629 31.9" stroke="black" stroke-width="0.0375"/>
<path d="M51.675 32L48.875 30.625L48.0625 33.0125" stroke="black" stroke-width="0.0375"/>
<path d="M52.2746 33.125L49.4746 31.75L48.6621 34.15" stroke="black" stroke-width="0.0375"/>
<path d="M52.4117 34.375L49.8742 32.5L49.6992 35.1375" stroke="black" stroke-width="0.0375"/>
<path fill-rule="evenodd" clip-rule="evenodd" d="M36.65 17.25L38.6875 18.0375L38.1 16.4875L39.875 18.2375L39.7125 16.9875L41.15 19.0875L40.975 17.8375L42.425 19.9375L42.25 18.675L44.125 21.05L43.95 19.8L45.8125 22.175L45.6375 20.925L47.5125 23.3L48.4375 24.5L48.525 25.125L47.7625 25.1875L46.1375 24.6875L42.925 23.7L44.45 23.575L41.225 22.575L42.7625 22.45L39.5375 21.45L41.0625 21.325L38.2625 20.6125L39.7875 20.4875L36.9875 19.775L38.5125 19.6375L36.0625 18.575L38.0125 18.725L36.6625 17.25H36.65Z" fill="#006D00" stroke="white" stroke-width="0.225"/>
<path d="M36.6504 17.25L48.5254 25.125M42.9254 23.7L46.8254 24L45.6379 20.925" stroke="black" stroke-width="0.0375"/>
<path d="M41.2246 22.575L45.1246 22.875L43.9496 19.8" stroke="black" stroke-width="0.0375"/>
<path d="M39.5371 21.4625L43.4371 21.75L42.2496 18.675" stroke="black" stroke-width="0.0375"/>
<path d="M38.2617 20.625H41.7367L40.9867 17.825" stroke="black" stroke-width="0.0375"/>
<path d="M37 19.775H40.475L39.7125 16.9875" stroke="black" stroke-width="0.0375"/>
<path d="M36.0625 18.575L39.625 19.225L38.1 16.4875" stroke="black" stroke-width="0.0375"/>
<path fill-rule="evenodd" clip-rule="evenodd" d="M60.3133 19.875L58.6258 21.125L60.5008 21.3375L57.8758 21.9625L59.2758 22.3625L56.4508 22.575L57.8383 22.9875L55.0133 23.1875L56.4008 23.6L53.1008 24.0125L54.4883 24.425L51.1883 24.8375L52.5758 25.2625L49.2758 25.675L47.6258 25.875L46.9258 25.675L47.1758 25.05L48.4008 24.0125L50.8383 21.95L50.3133 23.1875L52.7508 21.125L52.2258 22.3625L54.6633 20.3L54.1383 21.5375L56.1008 19.675L55.5758 20.925L57.5258 19.05L57.0133 20.3L59.1883 18.85L58.1883 20.3L60.3133 19.875Z" fill="#006D00" stroke="white" stroke-width="0.225"/>
<path d="M60.3125 19.875L46.9375 25.6625M50.8375 21.95L48.8375 24.8375L52.5875 25.2625" stroke="black" stroke-width="0.0375"/>
<path d="M52.75 21.125L50.75 24L54.5 24.4125" stroke="black" stroke-width="0.0375"/>
<path d="M54.6621 20.3L52.6621 23.1875L56.4121 23.6" stroke="black" stroke-width="0.0375"/>
<path d="M56.0992 19.675L54.5742 22.3625L57.8367 22.9875" stroke="black" stroke-width="0.0375"/>
<path d="M57.5375 19.05L56 21.75L59.25 22.375" stroke="black" stroke-width="0.0375"/>
<path d="M59.1879 18.85L56.9629 21.325H60.5004" stroke="black" stroke-width="0.0375"/>
<path fill-rule="evenodd" clip-rule="evenodd" d="M60.0492 32.4125L57.9242 31.7875L58.6867 33.2875L56.7242 31.675L57.0242 32.925L55.3742 30.9375L55.6742 32.1875L54.0117 30.2L54.3117 31.45L52.2117 29.2125L52.5117 30.4625L50.3992 28.2375L50.6992 29.475L48.5867 27.25L47.5367 26.125L47.3867 25.5125L48.1367 25.3875L49.7992 25.7625L53.1117 26.4875L51.6117 26.7375L54.9117 27.475L53.4117 27.725L56.7242 28.45L55.2242 28.7L58.0867 29.2L56.5867 29.45L59.4367 29.925L57.9367 30.175L60.4867 31.05H58.5367L60.0367 32.4125H60.0492Z" fill="#006D00" stroke="white" stroke-width="0.225"/>
<path d="M60.05 32.4125L47.375 25.5M53.1 26.475L49.175 26.4875L50.6875 29.4625" stroke="black" stroke-width="0.0375"/>
<path d="M54.9125 27.475H51L52.5 30.45" stroke="black" stroke-width="0.0375"/>
<path d="M56.725 28.45L52.8125 28.475L54.3125 31.4375" stroke="black" stroke-width="0.0375"/>
<path d="M58.0883 29.1875L54.6133 29.45L55.6758 32.175" stroke="black" stroke-width="0.0375"/>
<path d="M59.4371 29.925L55.9746 30.1875L57.0246 32.9125" stroke="black" stroke-width="0.0375"/>
<path d="M60.5 31.0375L56.875 30.6875L58.6875 33.2875" stroke="black" stroke-width="0.0375"/>
<path fill-rule="evenodd" clip-rule="evenodd" d="M38.0508 33.125L39.1133 31.65L37.4883 31.8875L39.4883 30.7625L38.2133 30.7L40.5133 29.875L39.2383 29.825L41.5258 29.0125L40.2508 28.95L42.8758 27.85L41.6133 27.7875L44.2383 26.6875L42.9633 26.6375L45.6008 25.525L46.9133 24.975L47.5508 25L47.5133 25.625L46.8008 26.8L45.3508 29.175L45.4383 27.9625L44.0008 30.3375L44.0758 29.125L42.6383 31.5L42.7258 30.2875L41.6258 32.375L41.7008 31.1625L40.6008 33.25L40.6883 32.025L39.2883 33.8L39.7133 32.2875L38.0508 33.125Z" fill="#006D00" stroke="white" stroke-width="0.2125"/>
<path d="M38.0508 33.125L47.5508 25M45.3758 29.1875L46.2133 26.1875L42.9758 26.65" stroke="black" stroke-width="0.0375"/>
<path d="M44.0008 30.35L44.8383 27.325L41.6133 27.7875" stroke="black" stroke-width="0.0375"/>
<path d="M42.6367 31.5L43.4992 28.5L40.2617 28.9625" stroke="black" stroke-width="0.0375"/>
<path d="M41.6258 32.375L42.1258 29.65L39.2383 29.825" stroke="black" stroke-width="0.0375"/>
<path d="M40.5996 33.25L41.0996 30.5125L38.2246 30.7" stroke="black" stroke-width="0.0375"/>
<path d="M39.2875 33.8L40.425 31.1L37.5 31.8875" stroke="black" stroke-width="0.0375"/>
<path fill-rule="evenodd" clip-rule="evenodd" d="M57.25 13.625L55.2 15L54.875 13.5375L53.6625 15.5625L53.4375 14.5875L52.4625 16.675L52.325 15.7125L51.55 17.85L51.1125 16.825L50.35 19.425L49.9125 18.3875L49.15 20.9875L48.7125 19.9625L47.9375 22.55L47.5625 23.85L47.775 24.375L48.6 24.1L50.025 23.05L52.8625 20.9375L51.2375 21.475L54.075 19.375L52.425 19.9125L55.275 17.8L53.6375 18.3375L56.4875 16.7L54.5375 17.1625L57.6125 15.575L55.7375 16.0625L57.9875 14.275L56.05 15.2L57.25 13.625Z" fill="#006D00" stroke="white" stroke-width="0.225"/>
<path d="M56.4629 14.375L53.5004 16.9125L47.7754 24.375" stroke="black" stroke-width="0.0375"/>
<path d="M52.2492 21.25L48.9742 22.8L48.6992 20.425" stroke="black" stroke-width="0.0375"/>
<path d="M53.4996 19.7L50.1871 21.2375L49.9121 18.8625" stroke="black" stroke-width="0.0375"/>
<path d="M54.6742 18.125L51.3867 19.6625L51.1367 17.2875" stroke="black" stroke-width="0.0375"/>
<path d="M55.6633 16.9625L52.6008 18.0875L52.2383 16.1625" stroke="black" stroke-width="0.0375"/>
<path d="M56.7875 15.8375L53.5 16.925L53.375 15.0375" stroke="black" stroke-width="0.0375"/>
<path d="M57.225 14.775L54.1875 16.3375L54.775 13.975" stroke="black" stroke-width="0.0375"/>
<path fill-rule="evenodd" clip-rule="evenodd" d="M46.1625 11.0625L47.0875 13.15L48.2625 12.05L48.05 14.325L48.8375 13.5875L48.4125 15.8125L49.1125 15.05L48.4625 17.2125L49.4625 16.5375L48.55 19.1L49.55 18.4125L48.625 20.975L49.625 20.2875L48.7 22.85L48.2375 24.1375L47.7375 24.475L47.2 23.875L46.625 22.3375L45.475 19.2625L46.55 20.4625L45.4 17.3875L46.475 18.575L45.325 15.5L46.3875 16.7L44.9625 14.025L46.3375 15.2875L44.6875 12.5625L45.9875 13.8125L45.15 11.275L46.2375 12.95L46.1625 11.0625Z" fill="#006D00" stroke="white" stroke-width="0.225"/>
<path d="M46.4004 12.05L47.3754 15.55L47.7379 24.475" stroke="black" stroke-width="0.0375"/>
<path d="M45.8125 19.8125L47.6625 22.6L49.3375 20.6875" stroke="black" stroke-width="0.0375"/>
<path d="M45.6875 17.925L47.5875 20.7125L49.2625 18.8125" stroke="black" stroke-width="0.0375"/>
<path d="M45.6367 16.05L47.5117 18.8375L49.1617 16.925" stroke="black" stroke-width="0.0375"/>
<path d="M45.5 14.625L47.4375 16.9625L48.9125 15.4625" stroke="black" stroke-width="0.0375"/>
<path d="M45.2246 13.1625L47.3746 15.55L48.6246 14" stroke="black" stroke-width="0.0375"/>
<path d="M45.5 12.05L47.15 14.75L48.075 12.4625" stroke="black" stroke-width="0.0375"/>
<path fill-rule="evenodd" clip-rule="evenodd" d="M33.9004 26.4125L36.5754 24.5625L35.2379 23.875L37.5754 24.275L36.7754 23.2125L39.0504 24.0625L38.2379 23L40.5254 23.85L39.7129 22.8L42.4629 23.725L41.6629 22.6625L44.3379 24.0375L43.5254 22.9875L46.2754 23.9125L47.6129 24.6L48.0129 25.1375L47.4754 25.5125L46.0129 25.7125L43.6379 26.6875L44.0754 25.85L41.1254 26.25L42.2004 25.5125L39.1879 26.3875L40.2504 25.6375L37.7129 26.6L38.8504 25.4L36.2379 26.8L37.3754 25.6125L35.2504 27.1L36.4379 25.45L33.9004 26.4125Z" fill="#006D00" stroke="white" stroke-width="0.2125"/>
<path d="M34.75 25.9125L37.5 24.725L39 24.5L40.225 24.4875L42.35 24.6125L44.25 24.7L48 25.125" stroke="black" stroke-width="0.0375"/>
<path d="M44.0004 26.3L46.1254 25L43.9629 23.3125" stroke="black" stroke-width="0.0375"/>
<path d="M41.625 26.1L44.2375 24.7125L42.0875 23.025" stroke="black" stroke-width="0.0375"/>
<path d="M39.9371 26.0625L42.3246 24.625L40.1621 23.0625M36.7871 26.4375L38.9871 24.5125L37.1996 23.5375" stroke="black" stroke-width="0.0375"/>
<path d="M35.8008 26.575L37.5133 24.725L36.1383 24.225M38.2508 26.225L40.4258 24.5L38.6758 23.3125" stroke="black" stroke-width="0.0375"/>
<path fill-rule="evenodd" clip-rule="evenodd" d="M42.8883 46.6943L42.8631 43.5737L41.959 42.1162C41.7326 41.3997 41.8436 41.0538 42.2106 41.0292C42.5761 41.0075 42.9386 41.2145 43.4654 41.2377C43.9922 41.2608 43.8931 40.4286 44.6714 40.4517C45.4497 40.4749 46.8067 40.8917 47.9609 40.9611C49.1166 41.0292 49.7188 40.5906 51.0506 40.5443C52.3824 40.498 52.7331 41.1219 52.8085 41.1219C52.884 41.1219 53.2613 40.8685 53.6372 40.8222C54.0145 40.7759 54.1403 40.9611 54.1403 40.9611C54.1403 40.9611 54.1152 41.7471 53.9391 42.2088C53.763 42.672 53.1356 43.4348 53.1104 43.4348C53.0853 43.4348 52.884 46.8333 52.884 46.8564C52.884 46.8796 42.8883 46.7638 42.8883 46.6943Z" fill="#CC0000" stroke="black" stroke-width="0.0189296"/>
<path fill-rule="evenodd" clip-rule="evenodd" d="M53.2227 43.5005C53.2227 43.5005 54.2289 42.7922 54.2556 41.0882C54.2704 40.1074 53.7465 39.3991 52.4355 39.3991C50.6006 39.3991 47.9799 40.1224 47.9799 40.1224V40.3635C47.9799 40.3635 50.0767 39.6402 52.4369 39.6402C53.4846 39.6402 54.0099 40.3485 54.0099 41.0732C54.0099 42.28 52.9593 43.5019 52.9593 43.5019V45.432H53.2227V43.5005Z" fill="#FFF100" stroke="black" stroke-width="0.0189296"/>
<path fill-rule="evenodd" clip-rule="evenodd" d="M53.7708 42.9933C53.7681 43.0266 53.7729 43.06 53.7849 43.0915C53.7968 43.123 53.8157 43.1519 53.8404 43.1764C53.865 43.2008 53.8949 43.2203 53.9281 43.2337C53.9614 43.247 53.9972 43.2539 54.0335 43.2539C54.0697 43.2539 54.1056 43.247 54.1388 43.2337C54.172 43.2203 54.2019 43.2008 54.2266 43.1764C54.2512 43.1519 54.2701 43.123 54.2821 43.0915C54.2941 43.06 54.2989 43.0266 54.2961 42.9933C54.2912 42.9323 54.2613 42.8753 54.2126 42.8337C54.1639 42.7921 54.0999 42.769 54.0335 42.769C53.967 42.769 53.9031 42.7921 53.8543 42.8337C53.8056 42.8753 53.7758 42.9323 53.7708 42.9933Z" fill="white" stroke="black" stroke-width="0.0189296"/>
<path fill-rule="evenodd" clip-rule="evenodd" d="M54.0345 42.4433C54.0318 42.4766 54.0366 42.51 54.0485 42.5415C54.0605 42.573 54.0794 42.6019 54.1041 42.6264C54.1287 42.6508 54.1586 42.6703 54.1918 42.6837C54.225 42.697 54.2609 42.7039 54.2972 42.7039C54.3334 42.7039 54.3693 42.697 54.4025 42.6837C54.4357 42.6703 54.4656 42.6508 54.4902 42.6264C54.5149 42.6019 54.5338 42.573 54.5458 42.5415C54.5577 42.51 54.5625 42.4766 54.5598 42.4433C54.5548 42.3823 54.525 42.3253 54.4763 42.2837C54.4276 42.2421 54.3636 42.219 54.2972 42.219C54.2307 42.219 54.1667 42.2421 54.118 42.2837C54.0693 42.3253 54.0395 42.3823 54.0345 42.4433Z" fill="white" stroke="black" stroke-width="0.0189296"/>
<path fill-rule="evenodd" clip-rule="evenodd" d="M54.1712 41.8808C54.1685 41.9141 54.1733 41.9475 54.1852 41.979C54.1972 42.0105 54.2161 42.0394 54.2408 42.0639C54.2654 42.0883 54.2953 42.1078 54.3285 42.1212C54.3618 42.1345 54.3976 42.1414 54.4339 42.1414C54.4701 42.1414 54.506 42.1345 54.5392 42.1212C54.5724 42.1078 54.6023 42.0883 54.627 42.0639C54.6516 42.0394 54.6705 42.0105 54.6825 41.979C54.6945 41.9475 54.6992 41.9141 54.6965 41.8808C54.6915 41.8198 54.6617 41.7628 54.613 41.7212C54.5643 41.6796 54.5003 41.6565 54.4339 41.6565C54.3674 41.6565 54.3034 41.6796 54.2547 41.7212C54.206 41.7628 54.1762 41.8198 54.1712 41.8808Z" fill="white" stroke="black" stroke-width="0.0189296"/>
<path fill-rule="evenodd" clip-rule="evenodd" d="M54.2708 41.2808C54.2681 41.3141 54.2729 41.3475 54.2849 41.379C54.2968 41.4105 54.3157 41.4394 54.3404 41.4638C54.365 41.4883 54.3949 41.5078 54.4281 41.5212C54.4614 41.5345 54.4972 41.5414 54.5335 41.5414C54.5697 41.5414 54.6056 41.5345 54.6388 41.5212C54.672 41.5078 54.7019 41.4883 54.7266 41.4638C54.7512 41.4394 54.7701 41.4105 54.7821 41.379C54.7941 41.3475 54.7989 41.3141 54.7961 41.2808C54.7912 41.2198 54.7613 41.1628 54.7126 41.1212C54.6639 41.0796 54.5999 41.0565 54.5335 41.0565C54.467 41.0565 54.4031 41.0796 54.3543 41.1212C54.3056 41.1628 54.2758 41.2198 54.2708 41.2808Z" fill="white" stroke="black" stroke-width="0.0189296"/>
<path fill-rule="evenodd" clip-rule="evenodd" d="M54.2474 40.6308C54.2447 40.6641 54.2494 40.6975 54.2614 40.729C54.2734 40.7605 54.2923 40.7894 54.3169 40.8139C54.3416 40.8383 54.3715 40.8578 54.4047 40.8712C54.4379 40.8845 54.4738 40.8914 54.51 40.8914C54.5463 40.8914 54.5822 40.8845 54.6154 40.8712C54.6486 40.8578 54.6785 40.8383 54.7031 40.8139C54.7278 40.7894 54.7467 40.7605 54.7587 40.729C54.7706 40.6975 54.7754 40.6641 54.7727 40.6308C54.7677 40.5698 54.7379 40.5128 54.6892 40.4712C54.6405 40.4296 54.5765 40.4065 54.51 40.4065C54.4436 40.4065 54.3796 40.4296 54.3309 40.4712C54.2822 40.5128 54.2524 40.5698 54.2474 40.6308Z" fill="white" stroke="black" stroke-width="0.0189296"/>
<path fill-rule="evenodd" clip-rule="evenodd" d="M53.3958 43.4808C53.3931 43.5141 53.3979 43.5475 53.4099 43.579C53.4218 43.6105 53.4407 43.6394 53.4654 43.6639C53.49 43.6883 53.5199 43.7078 53.5531 43.7212C53.5864 43.7345 53.6222 43.7414 53.6585 43.7414C53.6947 43.7414 53.7306 43.7345 53.7638 43.7212C53.797 43.7078 53.8269 43.6883 53.8516 43.6639C53.8762 43.6394 53.8951 43.6105 53.9071 43.579C53.9191 43.5475 53.9239 43.5141 53.9211 43.4808C53.9162 43.4198 53.8863 43.3628 53.8376 43.3212C53.7889 43.2796 53.7249 43.2565 53.6585 43.2565C53.592 43.2565 53.5281 43.2796 53.4793 43.3212C53.4306 43.3628 53.4008 43.4198 53.3958 43.4808Z" fill="white" stroke="black" stroke-width="0.0189296"/>
<path fill-rule="evenodd" clip-rule="evenodd" d="M54.0208 40.0183C54.0181 40.0516 54.0229 40.085 54.0349 40.1165C54.0468 40.148 54.0657 40.1769 54.0904 40.2014C54.115 40.2258 54.1449 40.2453 54.1781 40.2587C54.2114 40.272 54.2472 40.2789 54.2835 40.2789C54.3197 40.2789 54.3556 40.272 54.3888 40.2587C54.422 40.2453 54.4519 40.2258 54.4766 40.2014C54.5012 40.1769 54.5201 40.148 54.5321 40.1165C54.5441 40.085 54.5489 40.0516 54.5461 40.0183C54.5412 39.9573 54.5113 39.9003 54.4626 39.8587C54.4139 39.8171 54.3499 39.794 54.2835 39.794C54.217 39.794 54.1531 39.8171 54.1043 39.8587C54.0556 39.9003 54.0258 39.9573 54.0208 40.0183Z" fill="white" stroke="black" stroke-width="0.0189296"/>
<path fill-rule="evenodd" clip-rule="evenodd" d="M53.5345 39.5308C53.5318 39.5641 53.5366 39.5975 53.5485 39.629C53.5605 39.6605 53.5794 39.6894 53.6041 39.7138C53.6287 39.7383 53.6586 39.7578 53.6918 39.7712C53.725 39.7845 53.7609 39.7914 53.7972 39.7914C53.8334 39.7914 53.8693 39.7845 53.9025 39.7712C53.9357 39.7578 53.9656 39.7383 53.9902 39.7138C54.0149 39.6894 54.0338 39.6605 54.0458 39.629C54.0577 39.5975 54.0625 39.5641 54.0598 39.5308C54.0548 39.4698 54.025 39.4128 53.9763 39.3712C53.9276 39.3296 53.8636 39.3065 53.7972 39.3065C53.7307 39.3065 53.6667 39.3296 53.618 39.3712C53.5693 39.4128 53.5395 39.4698 53.5345 39.5308Z" fill="white" stroke="black" stroke-width="0.0189296"/>
<path fill-rule="evenodd" clip-rule="evenodd" d="M52.8841 39.2058C52.8814 39.2391 52.8862 39.2725 52.8981 39.304C52.9101 39.3355 52.929 39.3644 52.9537 39.3889C52.9783 39.4133 53.0082 39.4328 53.0414 39.4462C53.0746 39.4595 53.1105 39.4664 53.1468 39.4664C53.183 39.4664 53.2189 39.4595 53.2521 39.4462C53.2853 39.4328 53.3152 39.4133 53.3399 39.3889C53.3645 39.3644 53.3834 39.3355 53.3954 39.304C53.4074 39.2725 53.4121 39.2391 53.4094 39.2058C53.4044 39.1448 53.3746 39.0878 53.3259 39.0462C53.2772 39.0046 53.2132 38.9815 53.1468 38.9815C53.0803 38.9815 53.0163 39.0046 52.9676 39.0462C52.9189 39.0878 52.8891 39.1448 52.8841 39.2058Z" fill="white" stroke="black" stroke-width="0.0189296"/>
<path fill-rule="evenodd" clip-rule="evenodd" d="M52.2337 39.1683C52.231 39.2016 52.2358 39.235 52.2477 39.2665C52.2597 39.298 52.2786 39.3269 52.3033 39.3514C52.3279 39.3758 52.3578 39.3953 52.391 39.4087C52.4243 39.422 52.4601 39.4289 52.4964 39.4289C52.5326 39.4289 52.5685 39.422 52.6017 39.4087C52.6349 39.3953 52.6648 39.3758 52.6895 39.3514C52.7141 39.3269 52.733 39.298 52.745 39.2665C52.757 39.235 52.7617 39.2016 52.759 39.1683C52.754 39.1073 52.7242 39.0503 52.6755 39.0087C52.6268 38.9671 52.5628 38.944 52.4964 38.944C52.4299 38.944 52.3659 38.9671 52.3172 39.0087C52.2685 39.0503 52.2387 39.1073 52.2337 39.1683Z" fill="white" stroke="black" stroke-width="0.0189296"/>
<path fill-rule="evenodd" clip-rule="evenodd" d="M51.5345 39.1808C51.5318 39.2141 51.5366 39.2475 51.5485 39.279C51.5605 39.3105 51.5794 39.3394 51.6041 39.3639C51.6287 39.3883 51.6586 39.4078 51.6918 39.4212C51.725 39.4345 51.7609 39.4414 51.7972 39.4414C51.8334 39.4414 51.8693 39.4345 51.9025 39.4212C51.9357 39.4078 51.9656 39.3883 51.9902 39.3639C52.0149 39.3394 52.0338 39.3105 52.0458 39.279C52.0577 39.2475 52.0625 39.2141 52.0598 39.1808C52.0548 39.1198 52.025 39.0628 51.9763 39.0212C51.9276 38.9796 51.8636 38.9565 51.7972 38.9565C51.7307 38.9565 51.6667 38.9796 51.618 39.0212C51.5693 39.0628 51.5395 39.1198 51.5345 39.1808Z" fill="white" stroke="black" stroke-width="0.0189296"/>
<path fill-rule="evenodd" clip-rule="evenodd" d="M50.8216 39.2808C50.8189 39.3141 50.8237 39.3475 50.8356 39.379C50.8476 39.4105 50.8665 39.4394 50.8912 39.4638C50.9158 39.4883 50.9457 39.5078 50.9789 39.5212C51.0121 39.5345 51.048 39.5414 51.0843 39.5414C51.1205 39.5414 51.1564 39.5345 51.1896 39.5212C51.2228 39.5078 51.2527 39.4883 51.2774 39.4638C51.302 39.4394 51.3209 39.4105 51.3329 39.379C51.3449 39.3475 51.3496 39.3141 51.3469 39.2808C51.3419 39.2198 51.3121 39.1628 51.2634 39.1212C51.2147 39.0796 51.1507 39.0565 51.0843 39.0565C51.0178 39.0565 50.9538 39.0796 50.9051 39.1212C50.8564 39.1628 50.8266 39.2198 50.8216 39.2808Z" fill="white" stroke="black" stroke-width="0.0189296"/>
<path fill-rule="evenodd" clip-rule="evenodd" d="M50.1341 39.3683C50.1314 39.4016 50.1362 39.435 50.1481 39.4665C50.1601 39.498 50.179 39.5269 50.2037 39.5514C50.2283 39.5758 50.2582 39.5953 50.2914 39.6087C50.3246 39.622 50.3605 39.6289 50.3968 39.6289C50.433 39.6289 50.4689 39.622 50.5021 39.6087C50.5353 39.5953 50.5652 39.5758 50.5899 39.5514C50.6145 39.5269 50.6334 39.498 50.6454 39.4665C50.6574 39.435 50.6621 39.4016 50.6594 39.3683C50.6544 39.3073 50.6246 39.2503 50.5759 39.2087C50.5272 39.1671 50.4632 39.144 50.3968 39.144C50.3303 39.144 50.2663 39.1671 50.2176 39.2087C50.1689 39.2503 50.1391 39.3073 50.1341 39.3683Z" fill="white" stroke="black" stroke-width="0.0189296"/>
<path fill-rule="evenodd" clip-rule="evenodd" d="M49.3724 39.4808C49.3697 39.5141 49.3744 39.5475 49.3864 39.579C49.3984 39.6105 49.4173 39.6394 49.4419 39.6639C49.4666 39.6883 49.4965 39.7078 49.5297 39.7212C49.5629 39.7345 49.5988 39.7414 49.635 39.7414C49.6713 39.7414 49.7072 39.7345 49.7404 39.7212C49.7736 39.7078 49.8035 39.6883 49.8281 39.6639C49.8528 39.6394 49.8717 39.6105 49.8837 39.579C49.8956 39.5475 49.9004 39.5141 49.8977 39.4808C49.8927 39.4198 49.8629 39.3628 49.8142 39.3212C49.7655 39.2796 49.7015 39.2565 49.635 39.2565C49.5686 39.2565 49.5046 39.2796 49.4559 39.3212C49.4072 39.3628 49.3774 39.4198 49.3724 39.4808Z" fill="white" stroke="black" stroke-width="0.0189296"/>
<path fill-rule="evenodd" clip-rule="evenodd" d="M48.722 39.6558C48.7193 39.6891 48.7241 39.7225 48.736 39.754C48.748 39.7855 48.7669 39.8144 48.7916 39.8388C48.8162 39.8633 48.8461 39.8828 48.8793 39.8962C48.9125 39.9095 48.9484 39.9164 48.9847 39.9164C49.0209 39.9164 49.0568 39.9095 49.09 39.8962C49.1232 39.8828 49.1531 39.8633 49.1777 39.8388C49.2024 39.8144 49.2213 39.7855 49.2333 39.754C49.2452 39.7225 49.25 39.6891 49.2473 39.6558C49.2423 39.5948 49.2125 39.5378 49.1638 39.4962C49.1151 39.4546 49.0511 39.4315 48.9847 39.4315C48.9182 39.4315 48.8542 39.4546 48.8055 39.4962C48.7568 39.5378 48.727 39.5948 48.722 39.6558Z" fill="white" stroke="black" stroke-width="0.0189296"/>
<path fill-rule="evenodd" clip-rule="evenodd" d="M42.1921 42.9933C42.1948 43.0266 42.19 43.06 42.178 43.0915C42.1661 43.123 42.1472 43.1519 42.1225 43.1764C42.0979 43.2008 42.068 43.2203 42.0348 43.2337C42.0015 43.247 41.9657 43.2539 41.9294 43.2539C41.8932 43.2539 41.8573 43.247 41.8241 43.2337C41.7908 43.2203 41.761 43.2008 41.7363 43.1764C41.7117 43.1519 41.6928 43.123 41.6808 43.0915C41.6688 43.06 41.664 43.0266 41.6668 42.9933C41.6717 42.9323 41.7016 42.8753 41.7503 42.8337C41.799 42.7921 41.863 42.769 41.9294 42.769C41.9959 42.769 42.0598 42.7921 42.1085 42.8337C42.1573 42.8753 42.1871 42.9323 42.1921 42.9933Z" fill="white" stroke="black" stroke-width="0.0189296"/>
<path fill-rule="evenodd" clip-rule="evenodd" d="M41.9167 42.4433C41.9194 42.4766 41.9146 42.51 41.9026 42.5415C41.8907 42.573 41.8718 42.6019 41.8471 42.6264C41.8225 42.6508 41.7926 42.6703 41.7594 42.6837C41.7261 42.697 41.6903 42.7039 41.654 42.7039C41.6178 42.7039 41.5819 42.697 41.5487 42.6837C41.5155 42.6703 41.4856 42.6508 41.4609 42.6264C41.4363 42.6019 41.4174 42.573 41.4054 42.5415C41.3934 42.51 41.3886 42.4766 41.3914 42.4433C41.3963 42.3823 41.4262 42.3253 41.4749 42.2837C41.5236 42.2421 41.5876 42.219 41.654 42.219C41.7205 42.219 41.7844 42.2421 41.8332 42.2837C41.8819 42.3253 41.9117 42.3823 41.9167 42.4433Z" fill="white" stroke="black" stroke-width="0.0189296"/>
<path fill-rule="evenodd" clip-rule="evenodd" d="M41.7917 41.8808C41.7944 41.9141 41.7896 41.9475 41.7776 41.979C41.7657 42.0105 41.7468 42.0394 41.7221 42.0639C41.6975 42.0883 41.6676 42.1078 41.6344 42.1212C41.6011 42.1345 41.5653 42.1414 41.529 42.1414C41.4928 42.1414 41.4569 42.1345 41.4237 42.1212C41.3905 42.1078 41.3606 42.0883 41.3359 42.0639C41.3113 42.0394 41.2924 42.0105 41.2804 41.979C41.2684 41.9475 41.2636 41.9141 41.2664 41.8808C41.2713 41.8198 41.3012 41.7628 41.3499 41.7212C41.3986 41.6796 41.4626 41.6565 41.529 41.6565C41.5955 41.6565 41.6594 41.6796 41.7082 41.7212C41.7569 41.7628 41.7867 41.8198 41.7917 41.8808Z" fill="white" stroke="black" stroke-width="0.0189296"/>
<path fill-rule="evenodd" clip-rule="evenodd" d="M41.6921 41.2808C41.6948 41.3141 41.69 41.3475 41.678 41.379C41.6661 41.4105 41.6472 41.4394 41.6225 41.4639C41.5979 41.4883 41.568 41.5079 41.5348 41.5212C41.5015 41.5345 41.4657 41.5414 41.4294 41.5414C41.3932 41.5414 41.3573 41.5345 41.3241 41.5212C41.2908 41.5079 41.261 41.4883 41.2363 41.4639C41.2117 41.4394 41.1928 41.4105 41.1808 41.379C41.1688 41.3475 41.164 41.3141 41.1668 41.2808C41.1717 41.2198 41.2016 41.1628 41.2503 41.1212C41.299 41.0796 41.363 41.0565 41.4294 41.0565C41.4959 41.0565 41.5598 41.0796 41.6085 41.1212C41.6573 41.1628 41.6871 41.2198 41.6921 41.2808Z" fill="white" stroke="black" stroke-width="0.0189296"/>
<path fill-rule="evenodd" clip-rule="evenodd" d="M41.7038 40.6308C41.7065 40.6641 41.7017 40.6975 41.6898 40.729C41.6778 40.7605 41.6589 40.7894 41.6342 40.8139C41.6096 40.8383 41.5797 40.8578 41.5465 40.8712C41.5132 40.8845 41.4774 40.8914 41.4411 40.8914C41.4049 40.8914 41.369 40.8845 41.3358 40.8712C41.3026 40.8578 41.2727 40.8383 41.248 40.8139C41.2234 40.7894 41.2045 40.7605 41.1925 40.729C41.1805 40.6975 41.1758 40.6641 41.1785 40.6308C41.1835 40.5698 41.2133 40.5128 41.262 40.4712C41.3107 40.4296 41.3747 40.4065 41.4411 40.4065C41.5076 40.4065 41.5716 40.4296 41.6203 40.4712C41.669 40.5128 41.6988 40.5698 41.7038 40.6308Z" fill="white" stroke="black" stroke-width="0.0189296"/>
<path fill-rule="evenodd" clip-rule="evenodd" d="M41.9303 40.0183C41.9331 40.0516 41.9283 40.085 41.9163 40.1165C41.9043 40.148 41.8854 40.1769 41.8608 40.2014C41.8361 40.2258 41.8063 40.2453 41.773 40.2587C41.7398 40.272 41.7039 40.2789 41.6677 40.2789C41.6314 40.2789 41.5956 40.272 41.5624 40.2587C41.5291 40.2453 41.4992 40.2258 41.4746 40.2014C41.4499 40.1769 41.431 40.148 41.4191 40.1165C41.4071 40.085 41.4023 40.0516 41.405 40.0183C41.41 39.9573 41.4398 39.9003 41.4886 39.8587C41.5373 39.8171 41.6013 39.794 41.6677 39.794C41.7341 39.794 41.7981 39.8171 41.8468 39.8587C41.8955 39.9003 41.9254 39.9573 41.9303 40.0183Z" fill="white" stroke="black" stroke-width="0.0189296"/>
<path fill-rule="evenodd" clip-rule="evenodd" d="M42.405 39.5308C42.4077 39.5641 42.4029 39.5975 42.3909 39.629C42.379 39.6605 42.3601 39.6894 42.3354 39.7139C42.3107 39.7383 42.2809 39.7579 42.2476 39.7712C42.2144 39.7845 42.1786 39.7914 42.1423 39.7914C42.106 39.7914 42.0702 39.7845 42.037 39.7712C42.0037 39.7579 41.9739 39.7383 41.9492 39.7139C41.9245 39.6894 41.9056 39.6605 41.8937 39.629C41.8817 39.5975 41.8769 39.5641 41.8796 39.5308C41.8846 39.4698 41.9145 39.4128 41.9632 39.3712C42.0119 39.3296 42.0759 39.3065 42.1423 39.3065C42.2087 39.3065 42.2727 39.3296 42.3214 39.3712C42.3701 39.4128 42.4 39.4698 42.405 39.5308Z" fill="white" stroke="black" stroke-width="0.0189296"/>
<path fill-rule="evenodd" clip-rule="evenodd" d="M43.0788 39.2058C43.0815 39.2391 43.0767 39.2725 43.0648 39.304C43.0528 39.3355 43.0339 39.3644 43.0092 39.3889C42.9846 39.4133 42.9547 39.4328 42.9215 39.4462C42.8882 39.4595 42.8524 39.4664 42.8161 39.4664C42.7799 39.4664 42.744 39.4595 42.7108 39.4462C42.6776 39.4328 42.6477 39.4133 42.623 39.3889C42.5984 39.3644 42.5795 39.3355 42.5675 39.304C42.5555 39.2725 42.5508 39.2391 42.5535 39.2058C42.5585 39.1448 42.5883 39.0878 42.637 39.0462C42.6857 39.0046 42.7497 38.9815 42.8161 38.9815C42.8826 38.9815 42.9466 39.0046 42.9953 39.0462C43.044 39.0878 43.0738 39.1448 43.0788 39.2058Z" fill="white" stroke="black" stroke-width="0.0189296"/>
<path fill-rule="evenodd" clip-rule="evenodd" d="M43.7175 39.1683C43.7202 39.2016 43.7154 39.235 43.7034 39.2665C43.6915 39.298 43.6726 39.3269 43.6479 39.3514C43.6232 39.3758 43.5934 39.3953 43.5601 39.4087C43.5269 39.422 43.4911 39.4289 43.4548 39.4289C43.4185 39.4289 43.3827 39.422 43.3495 39.4087C43.3162 39.3953 43.2864 39.3758 43.2617 39.3514C43.237 39.3269 43.2181 39.298 43.2062 39.2665C43.1942 39.235 43.1894 39.2016 43.1921 39.1683C43.1971 39.1073 43.227 39.0503 43.2757 39.0087C43.3244 38.9671 43.3884 38.944 43.4548 38.944C43.5212 38.944 43.5852 38.9671 43.6339 39.0087C43.6826 39.0503 43.7125 39.1073 43.7175 39.1683Z" fill="white" stroke="black" stroke-width="0.0189296"/>
<path fill-rule="evenodd" clip-rule="evenodd" d="M44.4167 39.1808C44.4194 39.2141 44.4146 39.2475 44.4026 39.279C44.3907 39.3105 44.3718 39.3394 44.3471 39.3639C44.3225 39.3883 44.2926 39.4078 44.2594 39.4212C44.2261 39.4345 44.1903 39.4414 44.154 39.4414C44.1178 39.4414 44.0819 39.4345 44.0487 39.4212C44.0155 39.4078 43.9856 39.3883 43.9609 39.3639C43.9363 39.3394 43.9174 39.3105 43.9054 39.279C43.8934 39.2475 43.8886 39.2141 43.8914 39.1808C43.8963 39.1198 43.9262 39.0628 43.9749 39.0212C44.0236 38.9796 44.0876 38.9565 44.154 38.9565C44.2205 38.9565 44.2844 38.9796 44.3332 39.0212C44.3819 39.0628 44.4117 39.1198 44.4167 39.1808Z" fill="white" stroke="black" stroke-width="0.0189296"/>
<path fill-rule="evenodd" clip-rule="evenodd" d="M45.1296 39.2808C45.1323 39.3141 45.1275 39.3475 45.1155 39.379C45.1036 39.4105 45.0847 39.4394 45.06 39.4639C45.0354 39.4883 45.0055 39.5079 44.9723 39.5212C44.939 39.5345 44.9032 39.5414 44.8669 39.5414C44.8307 39.5414 44.7948 39.5345 44.7616 39.5212C44.7283 39.5079 44.6985 39.4883 44.6738 39.4639C44.6492 39.4394 44.6303 39.4105 44.6183 39.379C44.6063 39.3475 44.6015 39.3141 44.6043 39.2808C44.6092 39.2198 44.6391 39.1628 44.6878 39.1212C44.7365 39.0796 44.8005 39.0565 44.8669 39.0565C44.9334 39.0565 44.9973 39.0796 45.046 39.1212C45.0948 39.1628 45.1246 39.2198 45.1296 39.2808Z" fill="white" stroke="black" stroke-width="0.0189296"/>
<path fill-rule="evenodd" clip-rule="evenodd" d="M45.8288 39.3683C45.8315 39.4016 45.8267 39.435 45.8148 39.4665C45.8028 39.498 45.7839 39.5269 45.7592 39.5514C45.7346 39.5758 45.7047 39.5953 45.6715 39.6087C45.6382 39.622 45.6024 39.6289 45.5661 39.6289C45.5299 39.6289 45.494 39.622 45.4608 39.6087C45.4276 39.5953 45.3977 39.5758 45.373 39.5514C45.3484 39.5269 45.3295 39.498 45.3175 39.4665C45.3055 39.435 45.3008 39.4016 45.3035 39.3683C45.3085 39.3073 45.3383 39.2503 45.387 39.2087C45.4357 39.1671 45.4997 39.144 45.5661 39.144C45.6326 39.144 45.6966 39.1671 45.7453 39.2087C45.794 39.2503 45.8238 39.3073 45.8288 39.3683Z" fill="white" stroke="black" stroke-width="0.0189296"/>
<path fill-rule="evenodd" clip-rule="evenodd" d="M46.5788 39.4808C46.5815 39.5141 46.5767 39.5475 46.5648 39.579C46.5528 39.6105 46.5339 39.6394 46.5092 39.6639C46.4846 39.6883 46.4547 39.7078 46.4215 39.7212C46.3882 39.7345 46.3524 39.7414 46.3161 39.7414C46.2799 39.7414 46.244 39.7345 46.2108 39.7212C46.1776 39.7078 46.1477 39.6883 46.123 39.6639C46.0984 39.6394 46.0795 39.6105 46.0675 39.579C46.0555 39.5475 46.0508 39.5141 46.0535 39.4808C46.0585 39.4198 46.0883 39.3628 46.137 39.3212C46.1857 39.2796 46.2497 39.2565 46.3161 39.2565C46.3826 39.2565 46.4466 39.2796 46.4953 39.3212C46.544 39.3628 46.5738 39.4198 46.5788 39.4808Z" fill="white" stroke="black" stroke-width="0.0189296"/>
<path fill-rule="evenodd" clip-rule="evenodd" d="M47.2292 39.6558C47.2319 39.6891 47.2271 39.7225 47.2151 39.754C47.2032 39.7855 47.1843 39.8144 47.1596 39.8389C47.135 39.8633 47.1051 39.8829 47.0719 39.8962C47.0386 39.9095 47.0028 39.9164 46.9665 39.9164C46.9303 39.9164 46.8944 39.9095 46.8612 39.8962C46.828 39.8829 46.7981 39.8633 46.7734 39.8389C46.7488 39.8144 46.7299 39.7855 46.7179 39.754C46.7059 39.7225 46.7011 39.6891 46.7039 39.6558C46.7088 39.5948 46.7387 39.5378 46.7874 39.4962C46.8361 39.4546 46.9001 39.4315 46.9665 39.4315C47.033 39.4315 47.0969 39.4546 47.1457 39.4962C47.1944 39.5378 47.2242 39.5948 47.2292 39.6558Z" fill="white" stroke="black" stroke-width="0.0189296"/>
<path fill-rule="evenodd" clip-rule="evenodd" d="M42.5553 43.4808C42.5581 43.5141 42.5533 43.5475 42.5413 43.579C42.5293 43.6105 42.5104 43.6394 42.4858 43.6639C42.4611 43.6883 42.4313 43.7078 42.398 43.7212C42.3648 43.7345 42.3289 43.7414 42.2927 43.7414C42.2564 43.7414 42.2206 43.7345 42.1874 43.7212C42.1541 43.7078 42.1242 43.6883 42.0996 43.6639C42.0749 43.6394 42.056 43.6105 42.0441 43.579C42.0321 43.5475 42.0273 43.5141 42.03 43.4808C42.035 43.4198 42.0648 43.3628 42.1136 43.3212C42.1623 43.2796 42.2263 43.2565 42.2927 43.2565C42.3591 43.2565 42.4231 43.2796 42.4718 43.3212C42.5205 43.3628 42.5504 43.4198 42.5553 43.4808Z" fill="white" stroke="black" stroke-width="0.0189296"/>
<path fill-rule="evenodd" clip-rule="evenodd" d="M42.7402 43.5005C42.7402 43.5005 41.734 42.7922 41.7073 41.0882C41.6925 40.1074 42.2164 39.3991 43.5274 39.3991C45.3623 39.3991 47.983 40.1224 47.983 40.1224V40.3635C47.983 40.3635 45.8861 39.6402 43.5259 39.6402C42.4783 39.6402 41.953 40.3485 41.953 41.0732C41.953 42.28 43.0036 43.5019 43.0036 43.5019V45.432H42.7402V43.5005Z" fill="#FFF100" stroke="black" stroke-width="0.0189296"/>
<path fill-rule="evenodd" clip-rule="evenodd" d="M44.5684 44.3953C44.5684 44.3953 44.6438 44.2117 44.9181 44.2117C45.1045 44.2117 45.2673 44.3953 45.2673 44.579V44.9469H45.4424V44.579C45.4424 44.3953 45.617 44.2117 45.7916 44.2117C46.054 44.2117 46.1413 44.3953 46.1413 44.3953C46.1413 44.3953 46.1413 43.8438 45.7916 43.8438C45.5297 43.8438 45.4424 44.0275 45.4424 44.0275C45.4424 44.0275 45.5297 43.7519 45.5297 43.4759C45.5297 43.1999 45.3551 43.0162 45.3551 43.0162C45.3551 43.0515 45.18 43.2004 45.18 43.4759C45.18 43.7514 45.2673 44.0275 45.2673 44.0275C45.2673 44.0275 45.18 43.8438 44.9181 43.8438C44.5684 43.8438 44.5684 44.3953 44.5684 44.3953Z" fill="#FFF100" stroke="black" stroke-width="0.015177"/>
<path fill-rule="evenodd" clip-rule="evenodd" d="M49.8047 44.3953C49.8047 44.3953 49.8802 44.2117 50.1544 44.2117C50.3409 44.2117 50.5036 44.3953 50.5036 44.579V44.9469H50.6787V44.579C50.6787 44.3953 50.8533 44.2117 51.0279 44.2117C51.2904 44.2117 51.3777 44.3953 51.3777 44.3953C51.3777 44.3953 51.3777 43.8438 51.0279 43.8438C50.766 43.8438 50.6787 44.0275 50.6787 44.0275C50.6787 44.0275 50.766 43.7519 50.766 43.4759C50.766 43.1999 50.5914 43.0162 50.5914 43.0162C50.5914 43.0515 50.4163 43.2004 50.4163 43.4759C50.4163 43.7514 50.5036 44.0275 50.5036 44.0275C50.5036 44.0275 50.4163 43.8438 50.1544 43.8438C49.8047 43.8438 49.8047 44.3953 49.8047 44.3953Z" fill="#FFF100" stroke="black" stroke-width="0.015177"/>
<path fill-rule="evenodd" clip-rule="evenodd" d="M42.7402 46.8799V44.7073C42.7402 44.7073 43.2641 45.432 44.0513 45.432C44.695 45.432 45.3624 44.4662 45.3624 44.4662C45.3624 44.4662 45.9764 45.1909 46.6734 45.1909C47.2949 45.1909 47.983 44.2565 47.983 44.2565C47.983 44.2565 48.6222 45.1909 49.294 45.1909C49.9673 45.1909 50.6051 44.4662 50.6051 44.4662C50.6051 44.4662 51.2902 45.432 52.1781 45.432C52.9638 45.432 53.2272 44.7073 53.2272 44.7073V46.8799H42.7402Z" fill="#FFF100" stroke="black" stroke-width="0.0189296"/>
<path fill-rule="evenodd" clip-rule="evenodd" d="M42.7383 46.8799V45.1909C42.7383 45.1909 44.3113 45.6717 44.3113 46.8799H42.7383Z" fill="#FFF100" stroke="black" stroke-width="0.0189296"/>
<path fill-rule="evenodd" clip-rule="evenodd" d="M53.2129 46.8799V45.1909C53.2129 45.1909 51.6399 45.6717 51.6399 46.8799H53.2129Z" fill="#FFF100" stroke="black" stroke-width="0.0189296"/>
<path fill-rule="evenodd" clip-rule="evenodd" d="M43.7891 46.8799C43.7891 45.6717 45.362 44.9089 45.362 44.9089C45.362 44.9089 46.935 45.6717 46.935 46.8799H43.7891Z" fill="#FFF100" stroke="black" stroke-width="0.0189296"/>
<path fill-rule="evenodd" clip-rule="evenodd" d="M49.0391 46.8799C49.0391 45.6717 50.612 44.9089 50.612 44.9089C50.612 44.9089 52.185 45.6717 52.185 46.8799H49.0391Z" fill="#FFF100" stroke="black" stroke-width="0.0189296"/>
<path fill-rule="evenodd" clip-rule="evenodd" d="M46.1504 46.8815C46.1504 45.6747 47.9868 44.7103 47.9868 44.7103C47.9868 44.7103 49.8217 45.6747 49.8217 46.8815H46.1519H46.1504Z" fill="#FFF100" stroke="black" stroke-width="0.0189296"/>
<path fill-rule="evenodd" clip-rule="evenodd" d="M53.475 46.8787C52.9571 46.6376 51.0464 46.3965 47.9697 46.3965C44.893 46.3965 42.8492 46.6376 42.3298 46.8787C41.8119 47.1198 41.8119 47.6034 42.3298 47.8445C42.8477 48.0856 44.8945 48.3267 47.9697 48.3267C51.0449 48.3267 52.9571 48.0856 53.475 47.8445C53.9929 47.6034 53.9929 47.1198 53.475 46.8787Z" fill="white" stroke="black" stroke-width="0.0188222"/>
<path fill-rule="evenodd" clip-rule="evenodd" d="M53.2258 47.85C53.2258 48.3375 48.8508 48.3375 47.9758 48.3375C47.0258 48.3375 42.7383 48.4625 42.7383 47.8375C42.7383 47.3625 47.0633 47.3625 47.9883 47.3625C48.8883 47.3625 53.2258 47.4625 53.2258 47.85Z" fill="#808080"/>
<path fill-rule="evenodd" clip-rule="evenodd" d="M43.2508 46.1125C43.2508 46.275 43.1508 46.4 43.0008 46.4C42.8508 46.4 42.7383 46.275 42.7383 46.1125C42.7383 45.95 42.8508 45.825 42.9883 45.825C43.1383 45.825 43.2633 45.95 43.2633 46.1125H43.2508ZM53.2258 46.1125C53.2258 46.275 53.1008 46.4 52.9508 46.4C52.8133 46.4 52.7008 46.275 52.7008 46.1125C52.7008 45.95 52.8133 45.825 52.9508 45.825C53.1008 45.825 53.2133 45.95 53.2133 46.1125H53.2258Z" fill="#CC0000"/>
<path fill-rule="evenodd" clip-rule="evenodd" d="M48.5012 45.975C48.5012 46.125 48.2637 46.25 47.9762 46.25C47.7012 46.25 47.4512 46.125 47.4512 45.9625C47.4512 45.8 47.7012 45.675 47.9762 45.675C48.2512 45.675 48.5012 45.8 48.5012 45.9625V45.975Z" fill="black"/>
<path fill-rule="evenodd" clip-rule="evenodd" d="M51.0137 45.975C51.0137 46.125 50.8387 46.25 50.6262 46.25C50.4137 46.25 50.2387 46.125 50.2387 45.9625C50.2387 45.8 50.4137 45.675 50.6137 45.675C50.8137 45.675 51.0137 45.8 51.0137 45.9625V45.975ZM45.6262 45.975C45.6262 46.125 45.4512 46.25 45.2262 46.25C45.0012 46.25 44.8262 46.125 44.8262 45.9625C44.8262 45.8 45.0012 45.675 45.2262 45.675C45.4512 45.675 45.6262 45.8 45.6262 45.9625V45.975Z" fill="#006300"/>
<path fill-rule="evenodd" clip-rule="evenodd" d="M46.9227 44.3108C46.9227 44.3108 47.222 43.8982 47.5222 43.8982H47.8215V44.173C47.8215 44.5871 47.3725 44.7256 47.3725 44.7256H48.5706C48.5706 44.7256 48.1208 44.5871 48.1208 44.173V43.8982H48.4209C48.7203 43.8982 49.0196 44.3123 49.0196 44.3123V43.2078C49.0196 43.2078 48.7203 43.6219 48.4209 43.6219H48.1208V43.3456C48.1208 42.9323 48.5706 42.7945 48.5706 42.7945H47.3717C47.3717 42.7945 47.8206 42.9323 47.8206 43.3456V43.6219H47.5213C47.2212 43.6219 46.9219 43.2078 46.9219 43.2078V44.3115L46.9227 44.3108Z" fill="#FFF100" stroke="black" stroke-width="0.0178474"/>
<path fill-rule="evenodd" clip-rule="evenodd" d="M42.7324 45.1907H43.0322C43.0322 45.1907 42.8073 45.0702 42.8073 44.7078V44.4674H42.957C43.1071 44.4674 43.2572 44.8298 43.2572 44.8298V43.8632C43.2572 43.8632 43.1071 44.2256 42.957 44.2256H42.8073V43.9838C42.8073 43.6221 43.0322 43.5016 43.0322 43.5016H42.7324V45.1907Z" fill="#FFF100" stroke="black" stroke-width="0.0177106"/>
<path fill-rule="evenodd" clip-rule="evenodd" d="M53.2188 45.1907H52.9189C52.9189 45.1907 53.1439 45.0702 53.1439 44.7078V44.4674H52.9942C52.8441 44.4674 52.694 44.8298 52.694 44.8298V43.8632C52.694 43.8632 52.8441 44.2256 52.9942 44.2256H53.1439V43.9838C53.1439 43.6221 52.9189 43.5016 52.9189 43.5016H53.2188V45.1907Z" fill="#FFF100" stroke="black" stroke-width="0.0177106"/>
<path fill-rule="evenodd" clip-rule="evenodd" d="M48.2445 43.743C48.2445 43.8069 48.2169 43.8682 48.1678 43.9134C48.1187 43.9587 48.0521 43.9841 47.9826 43.9841C47.9132 43.9841 47.8465 43.9587 47.7974 43.9134C47.7483 43.8682 47.7207 43.8069 47.7207 43.743C47.7207 43.679 47.7483 43.6177 47.7974 43.5725C47.8465 43.5273 47.9132 43.5019 47.9826 43.5019C48.0521 43.5019 48.1187 43.5273 48.1678 43.5725C48.2169 43.6177 48.2445 43.679 48.2445 43.743Z" fill="white" stroke="black" stroke-width="0.0189296"/>
<path fill-rule="evenodd" clip-rule="evenodd" d="M46.9227 39.2358C46.9227 39.2358 47.222 38.8232 47.5222 38.8232H47.8215V39.098C47.8215 39.5121 47.3725 39.6506 47.3725 39.6506H48.5706C48.5706 39.6506 48.1208 39.5121 48.1208 39.098V38.8232H48.4209C48.7203 38.8232 49.0196 39.2373 49.0196 39.2373V38.1328C49.0196 38.1328 48.7203 38.5469 48.4209 38.5469H48.1208V38.2706C48.1208 37.8573 48.5706 37.7195 48.5706 37.7195H47.3717C47.3717 37.7195 47.8206 37.8573 47.8206 38.2706V38.5469H47.5213C47.2212 38.5469 46.9219 38.1328 46.9219 38.1328V39.2365L46.9227 39.2358Z" fill="#FFF100" stroke="black" stroke-width="0.0178474"/>
<path fill-rule="evenodd" clip-rule="evenodd" d="M48.2699 38.7055C48.2699 38.7694 48.2423 38.8307 48.1932 38.8759C48.1441 38.9211 48.0775 38.9465 48.008 38.9465C47.9385 38.9465 47.8719 38.9211 47.8228 38.8759C47.7737 38.8307 47.7461 38.7694 47.7461 38.7055C47.7461 38.6415 47.7737 38.5802 47.8228 38.535C47.8719 38.4898 47.9385 38.4644 48.008 38.4644C48.0775 38.4644 48.1441 38.4898 48.1932 38.535C48.2423 38.5802 48.2699 38.6415 48.2699 38.7055Z" fill="white" stroke="black" stroke-width="0.0189296"/>
<path fill-rule="evenodd" clip-rule="evenodd" d="M47.4585 39.6412H48.5077V40.3659H47.457L47.4585 39.6412Z" fill="#FFF100" stroke="black" stroke-width="0.0189296"/>
<path fill-rule="evenodd" clip-rule="evenodd" d="M47.4585 40.0199H48.5077V42.7782H47.457L47.4585 40.0199Z" fill="#FFF100" stroke="black" stroke-width="0.0189296"/>
<path fill-rule="evenodd" clip-rule="evenodd" d="M48.2292 42.2933C48.2319 42.3266 48.2271 42.36 48.2151 42.3915C48.2032 42.423 48.1843 42.4519 48.1596 42.4764C48.135 42.5008 48.1051 42.5203 48.0719 42.5337C48.0386 42.547 48.0028 42.5539 47.9665 42.5539C47.9303 42.5539 47.8944 42.547 47.8612 42.5337C47.828 42.5203 47.7981 42.5008 47.7734 42.4764C47.7488 42.4519 47.7299 42.423 47.7179 42.3915C47.7059 42.36 47.7011 42.3266 47.7039 42.2933C47.7088 42.2323 47.7387 42.1753 47.7874 42.1337C47.8361 42.0921 47.9001 42.069 47.9665 42.069C48.033 42.069 48.0969 42.0921 48.1457 42.1337C48.1944 42.1753 48.2242 42.2323 48.2292 42.2933Z" fill="white" stroke="black" stroke-width="0.0189296"/>
<path fill-rule="evenodd" clip-rule="evenodd" d="M48.2292 41.6808C48.2319 41.7141 48.2271 41.7475 48.2151 41.779C48.2032 41.8105 48.1843 41.8394 48.1596 41.8639C48.135 41.8883 48.1051 41.9078 48.0719 41.9212C48.0386 41.9345 48.0028 41.9414 47.9665 41.9414C47.9303 41.9414 47.8944 41.9345 47.8612 41.9212C47.828 41.9078 47.7981 41.8883 47.7734 41.8639C47.7488 41.8394 47.7299 41.8105 47.7179 41.779C47.7059 41.7475 47.7011 41.7141 47.7039 41.6808C47.7088 41.6198 47.7387 41.5628 47.7874 41.5212C47.8361 41.4796 47.9001 41.4565 47.9665 41.4565C48.033 41.4565 48.0969 41.4796 48.1457 41.5212C48.1944 41.5628 48.2242 41.6198 48.2292 41.6808Z" fill="white" stroke="black" stroke-width="0.0189296"/>
<path fill-rule="evenodd" clip-rule="evenodd" d="M48.2292 41.1058C48.2319 41.1391 48.2271 41.1725 48.2151 41.204C48.2032 41.2355 48.1843 41.2644 48.1596 41.2889C48.135 41.3133 48.1051 41.3328 48.0719 41.3462C48.0386 41.3595 48.0028 41.3664 47.9665 41.3664C47.9303 41.3664 47.8944 41.3595 47.8612 41.3462C47.828 41.3328 47.7981 41.3133 47.7734 41.2889C47.7488 41.2644 47.7299 41.2355 47.7179 41.204C47.7059 41.1725 47.7011 41.1391 47.7039 41.1058C47.7088 41.0448 47.7387 40.9878 47.7874 40.9462C47.8361 40.9046 47.9001 40.8815 47.9665 40.8815C48.033 40.8815 48.0969 40.9046 48.1457 40.9462C48.1944 40.9878 48.2242 41.0448 48.2292 41.1058Z" fill="white" stroke="black" stroke-width="0.0189296"/>
<path fill-rule="evenodd" clip-rule="evenodd" d="M48.2292 40.4933C48.2319 40.5266 48.2271 40.56 48.2151 40.5915C48.2032 40.623 48.1843 40.6519 48.1596 40.6764C48.135 40.7008 48.1051 40.7203 48.0719 40.7337C48.0386 40.747 48.0028 40.7539 47.9665 40.7539C47.9303 40.7539 47.8944 40.747 47.8612 40.7337C47.828 40.7203 47.7981 40.7008 47.7734 40.6764C47.7488 40.6519 47.7299 40.623 47.7179 40.5915C47.7059 40.56 47.7011 40.5266 47.7039 40.4933C47.7088 40.4323 47.7387 40.3753 47.7874 40.3337C47.8361 40.2921 47.9001 40.269 47.9665 40.269C48.033 40.269 48.0969 40.2921 48.1457 40.3337C48.1944 40.3753 48.2242 40.4323 48.2292 40.4933Z" fill="white" stroke="black" stroke-width="0.0189296"/>
<path fill-rule="evenodd" clip-rule="evenodd" d="M48.5373 46.8875C48.5373 47 48.2873 47.0875 47.9873 47.0875C47.6873 47.0875 47.4748 47 47.4748 46.8875C47.4748 46.775 47.7123 46.7 47.9998 46.7C48.2873 46.7 48.5373 46.7875 48.5373 46.8875ZM53.3623 47.3625C53.3373 47.45 53.0748 47.45 52.7748 47.375C52.4873 47.3125 52.2748 47.2 52.2998 47.125C52.3373 47.05 52.5998 47.0375 52.8873 47.125C53.1748 47.1875 53.3873 47.2875 53.3623 47.375V47.3625ZM51.3373 47.0375C51.3373 47.1375 51.0873 47.2 50.7748 47.1875C50.4873 47.1625 50.2498 47.0625 50.2498 46.9625C50.2623 46.875 50.5248 46.8125 50.8248 46.8375C51.1248 46.8625 51.3623 46.95 51.3373 47.0375ZM42.4748 47.3625C42.4998 47.45 42.7623 47.45 43.0498 47.375C43.3498 47.3125 43.5498 47.2 43.5248 47.125C43.4998 47.05 43.2373 47.0375 42.9373 47.125C42.6623 47.1875 42.4373 47.2875 42.4748 47.375V47.3625ZM44.5998 47C44.5998 47.1 44.8498 47.15 45.1498 47.125C45.4623 47.1125 45.6998 47.025 45.6748 46.9125C45.6748 46.825 45.4248 46.7625 45.1123 46.7875C44.8123 46.8 44.5748 46.8875 44.5873 47H44.5998Z" fill="black"/>
<path d="M0 0H32V32H0V0Z" fill="#012169"/>
<path d="M32 0V4L20.125 16L32 27.6875V32H27.8125L15.875 20.25L4.25 32H0V27.75L11.625 16.0625L0 4.625V0H3.875L15.875 11.75L27.5 0H32Z" fill="white"/>
<path d="M11.5 20.25L12.1875 22.375L2.625 32H0V31.8125L11.5 20.25ZM19.25 19.5L22.625 20L32 29.1875V32L19.25 19.5ZM32 0L20 12.25L19.75 9.5L29.125 0H32ZM0 0.0625L12.0625 11.875L8.375 11.375L0 3.0625V0.0625Z" fill="#C8102E"/>
<path d="M11 0V32H21V0H11ZM0 11V21H32V11H0Z" fill="white"/>
<path d="M0 13V19H32V13H0ZM13 0V32H19V0H13Z" fill="#C8102E"/>
</g>
<defs>
<clipPath id="clip0_10660_9803">
<rect width="64" height="64" rx="32" fill="white"/>
</clipPath>
</defs>
</svg>
