<svg width="64" height="64" viewBox="0 0 64 64" fill="none" xmlns="http://www.w3.org/2000/svg">
<g clip-path="url(#clip0_10660_9930)">
<path d="M0 0H64V64H0V0Z" fill="#F7E017"/>
<path d="M0 4.45001V32.875L64 46.2125V31.0875L0 4.45001Z" fill="white"/>
<path d="M0 19.55V32.8875L64 59.55V46.225L0 19.55Z" fill="#000001"/>
<path d="M29.8404 50.6399C28.2802 50.4676 26.7791 49.945 25.4493 49.111C25.236 48.9688 25.0404 48.8444 25.0049 48.8444C24.9693 48.8444 24.9515 49.0133 24.9515 49.2088C24.9515 49.7777 24.7204 50.0622 24.1515 50.2133C23.6004 50.3555 22.7649 50.0711 22.0893 49.5022C21.4487 48.9541 20.701 48.5454 19.8938 48.3022C19.0529 48.102 18.1678 48.2158 17.4049 48.6222C17.3295 48.6752 17.2452 48.7143 17.156 48.7377C17.0582 48.7377 17.0671 48.1244 17.1738 47.9377C17.3071 47.6711 17.6271 47.4222 18.0093 47.2888C18.2049 47.2177 18.3649 47.1288 18.3649 47.0844C18.3649 47.0488 18.2938 46.9066 18.2138 46.7644C17.956 46.3111 18.0627 45.8755 18.516 45.5288C18.9782 45.1733 19.7604 45.1199 20.4449 45.3777C20.5605 45.427 20.6793 45.4686 20.8004 45.5022C20.8893 45.5022 20.836 45.3688 20.5871 45.0044C20.3027 44.5866 20.2404 44.3822 20.276 43.8755C20.3004 43.5654 20.4347 43.2741 20.6547 43.0542C20.8746 42.8342 21.1659 42.6999 21.476 42.6755C21.9915 42.6399 22.3115 42.8177 23.076 43.5377C25.1291 45.6043 27.8257 46.9087 30.7204 47.2355C31.4582 47.3244 32.9249 47.2799 33.7871 47.1466C36.5185 46.6909 39.051 45.4277 41.0582 43.5199C41.6271 42.9866 41.8937 42.8444 42.3648 42.8444C42.7648 42.8444 43.0493 42.9688 43.3426 43.2888C43.6093 43.5822 43.6982 43.8577 43.6626 44.3111C43.6448 44.5955 43.6004 44.7288 43.4315 45.0133C43.1826 45.4133 43.2271 45.4577 43.716 45.2622C44.3915 44.9955 45.2182 45.1199 45.6626 45.5466C46.0537 45.9199 46.0893 46.2933 45.7871 46.7911C45.6715 46.9777 45.5826 47.1466 45.5826 47.1822C45.5826 47.2355 45.6715 47.2533 46.0715 47.3244C46.6048 47.4133 46.9159 47.8044 46.9159 48.4088C46.9159 48.5866 46.8893 48.7377 46.8626 48.7377C46.8359 48.7377 46.6315 48.6577 46.4182 48.5688C45.796 48.3111 45.4404 48.2488 44.7115 48.2577C44.1604 48.2577 43.9737 48.2844 43.5915 48.4088C42.9517 48.6313 42.3625 48.9788 41.8582 49.431C41.2893 49.9377 40.9337 50.0977 40.3826 50.0888C39.8671 50.0888 39.5204 49.9377 39.3337 49.6444C39.236 49.4844 39.2182 49.3955 39.2448 49.0399C39.2626 48.8088 39.2537 48.6222 39.2448 48.6222C39.2182 48.6222 39.0226 48.7466 38.8004 48.8977C38.293 49.2615 37.7402 49.5574 37.156 49.7777C34.8165 50.6251 32.3128 50.9202 29.8404 50.6399Z" fill="#CF1126"/>
<path d="M30.7822 46.6844C29.0628 46.5263 27.397 46.0029 25.8962 45.149C24.3954 44.2952 23.0944 43.1306 22.08 41.7333C19.9112 38.7822 19.2356 34.8799 19.8934 31.3155C20.2489 29.6888 20.96 28.0622 22.16 26.9066C21.1708 28.9596 20.8985 31.2851 21.3867 33.5111C22.1867 37.9377 25.92 41.6799 30.3911 42.3288C32.1689 42.8355 33.9911 42.2933 35.68 41.751C39.4133 40.4355 42.2578 36.8977 42.5956 32.9422C42.8889 30.8088 42.5689 28.5777 41.6 26.6311C42.1511 26.9244 42.8444 28.0711 43.2533 28.8355C44.6756 31.5911 44.7378 34.8888 43.9022 37.8311C42.7644 41.5733 39.9022 44.8533 36.1245 46.0444C34.4009 46.5828 32.5931 46.7998 30.7911 46.6844H30.7822Z" fill="#CF1126"/>
<path d="M13.512 41.7688C13.2898 41.7333 13.0409 41.9555 13.1298 42.1866C13.2898 42.4177 13.5742 42.5422 13.8231 42.6488C14.4789 42.9049 15.1828 43.0141 15.8854 42.9688C16.4008 42.969 16.9122 42.8787 17.3965 42.7022C17.6631 42.6133 18.0009 42.5244 18.1076 42.2222C18.2231 42.0355 18.0187 41.84 17.832 41.8755C17.5654 41.9377 17.2987 42.0533 17.032 42.1333C16.4459 42.2992 15.8348 42.3594 15.2276 42.3111C14.7856 42.2468 14.3548 42.1211 13.9476 41.9377C13.8054 41.8755 13.672 41.7866 13.512 41.7688Z" fill="#CF1126"/>
<path d="M13.761 40.8444C13.5388 40.8088 13.3432 41.0755 13.4321 41.2888C13.6099 41.5377 13.9032 41.6711 14.1788 41.7866C14.6595 41.9752 15.1738 42.0629 15.6899 42.0444H15.8232C16.2621 42.0463 16.697 41.9617 17.1032 41.7955C17.3432 41.6977 17.6454 41.6 17.7521 41.3333C17.8321 41.1822 17.7699 40.9688 17.5743 40.9511C17.4143 40.9511 17.2632 41.0577 17.1032 41.1022C16.5242 41.3413 15.8964 41.4388 15.2721 41.3866C14.881 41.3422 14.5165 41.2 14.161 41.0311C14.0276 40.9688 13.9121 40.8711 13.761 40.8533V40.8444Z" fill="#CF1126"/>
<path d="M14.0725 39.9644C13.877 39.9377 13.7436 40.16 13.7792 40.3289C13.8058 40.4889 13.9392 40.5955 14.0547 40.6844C14.5387 41.0197 15.1201 41.1853 15.7081 41.1555H15.8503C16.2199 41.1528 16.5843 41.0678 16.917 40.9066C17.1392 40.8177 17.397 40.7022 17.477 40.4444C17.5125 40.3289 17.5303 40.16 17.397 40.0889C17.2547 40.0177 17.1214 40.1333 16.997 40.1777C16.5718 40.4011 16.0995 40.52 15.6192 40.5244C15.2069 40.508 14.8059 40.3855 14.4547 40.1689C14.3214 40.1066 14.2147 39.9911 14.0725 39.9644Z" fill="#CF1126"/>
<path d="M10.8008 26.9066C10.5163 27.2 10.7386 27.7333 10.7119 28.1066C10.8719 29.28 11.0586 30.4622 11.4941 31.5733C12.0274 32.64 13.1652 33.2177 13.8497 34.1689C14.0986 34.6222 14.0097 35.1733 14.063 35.68C14.0986 37.04 14.0897 38.4088 14.063 39.7688C14.6852 40.0888 15.3519 40.3911 16.063 40.2755C16.4808 40.1777 17.263 40.1155 17.3519 39.6977L17.263 32.6311C17.023 31.9111 16.2852 31.5378 15.743 31.0755C15.2898 30.6281 14.8681 30.15 14.4808 29.6444C14.2497 29.2444 13.3341 29.1111 13.663 29.7866C13.8586 30.3822 14.3474 30.8178 14.4719 31.44C14.4986 31.7866 14.9163 32.4177 14.5608 32.6133C14.3418 32.227 14.0099 31.9168 13.6097 31.7244C13.2186 31.4311 12.5697 31.3066 12.4274 30.7911C12.2994 30.0578 11.9595 29.378 11.4497 28.8355C11.583 28.1778 11.4497 27.3511 10.8808 26.9244L10.8008 26.9066Z" fill="#CF1126"/>
<path d="M11.6802 27.04C11.4135 27.0844 11.4313 27.4133 11.5468 27.5911C11.6786 27.9737 11.7122 28.3832 11.6446 28.7822C12.132 29.325 12.4584 29.993 12.5868 30.7111C12.5868 30.9777 12.8713 31.0666 13.0579 31.2C13.4935 31.4755 13.9735 31.68 14.3646 32.0266C14.4446 32.1155 14.5068 32.2044 14.4535 32.0266C14.3913 31.7955 14.3646 31.5466 14.1868 31.3777C13.9379 31.1111 13.6357 30.88 13.2802 30.8089C13.2535 30.4355 13.0757 30.0977 12.9157 29.7778C12.7379 29.4666 12.5513 29.1378 12.249 28.9422C12.249 28.4 12.249 27.8311 12.0179 27.3244C11.9468 27.2 11.8402 27.0489 11.6802 27.04Z" fill="#CF1126"/>
<path d="M12.4194 27.2533C12.2416 27.3067 12.2772 27.5378 12.3305 27.6711C12.4082 28.0571 12.438 28.4512 12.4194 28.8444C12.7661 29.1111 12.9705 29.5022 13.1661 29.8755C13.2905 30.1244 13.3972 30.3911 13.4416 30.6667C13.7172 30.7555 13.9572 30.9333 14.1705 31.1111C14.0816 30.8622 13.9039 30.6667 13.7705 30.4267C13.6372 30.1867 13.5039 29.9289 13.4416 29.6533C13.175 29.3778 13.0327 28.9778 13.0861 28.5867C13.1039 28.1689 12.9705 27.7333 12.6861 27.4133C12.615 27.3422 12.5261 27.2622 12.4194 27.2533Z" fill="#CF1126"/>
<path d="M13.2628 27.3778C13.1562 27.3955 13.1028 27.4844 13.0495 27.5644C13.0228 27.6444 13.1206 27.7244 13.1384 27.8133C13.2545 28.1067 13.2972 28.4241 13.2628 28.7378C13.2539 28.96 13.3339 29.1822 13.4406 29.36C13.4606 29.2915 13.5012 29.2309 13.5568 29.1864C13.6125 29.1418 13.6806 29.1156 13.7517 29.1111C13.7962 29.1111 13.8762 29.1289 13.8406 29.0489C13.8051 28.6222 13.7428 28.1955 13.5917 27.8044C13.5479 27.6504 13.4617 27.5118 13.3428 27.4044C13.3251 27.3866 13.2895 27.3689 13.2539 27.3778H13.2628Z" fill="#CF1126"/>
<path d="M50.4899 41.7688C50.7121 41.7333 50.961 41.9555 50.8721 42.1866C50.7121 42.4177 50.4277 42.5422 50.1788 42.6488C49.523 42.9049 48.8191 43.0141 48.1166 42.9688C47.6012 42.969 47.0897 42.8787 46.6055 42.7022C46.3388 42.6133 46.001 42.5244 45.8944 42.2222C45.7788 42.0355 45.9833 41.84 46.1699 41.8755C46.4366 41.9377 46.7033 42.0533 46.9699 42.1333C47.5561 42.2992 48.1671 42.3594 48.7744 42.3111C49.2163 42.2468 49.6471 42.1211 50.0544 41.9377C50.1966 41.8755 50.3299 41.7866 50.4899 41.7688Z" fill="#CF1126"/>
<path d="M50.241 40.8444C50.4632 40.8088 50.6587 41.0755 50.5699 41.2888C50.3921 41.5377 50.0987 41.6711 49.8232 41.7866C49.3425 41.9752 48.8281 42.0629 48.3121 42.0444H48.1788C47.7399 42.0463 47.3049 41.9617 46.8988 41.7955C46.6588 41.6977 46.3565 41.6 46.2499 41.3333C46.1699 41.1822 46.2321 40.9688 46.4276 40.9511C46.5876 40.9511 46.7388 41.0577 46.8988 41.1022C47.4778 41.3413 48.1056 41.4388 48.7299 41.3866C49.121 41.3422 49.4854 41.2 49.841 41.0311C49.9743 40.9688 50.0899 40.8711 50.241 40.8533V40.8444Z" fill="#CF1126"/>
<path d="M49.9294 39.9644C50.125 39.9377 50.2583 40.16 50.2228 40.3289C50.1961 40.4889 50.0628 40.5955 49.9472 40.6844C49.4632 41.0197 48.8819 41.1853 48.2939 41.1555H48.1517C47.782 41.1528 47.4177 41.0678 47.085 40.9066C46.8628 40.8177 46.605 40.7022 46.525 40.4444C46.4894 40.3289 46.4717 40.16 46.605 40.0889C46.7472 40.0177 46.8806 40.1333 47.005 40.1777C47.4302 40.4011 47.9025 40.52 48.3828 40.5244C48.795 40.508 49.1961 40.3855 49.5472 40.1689C49.6806 40.1066 49.7872 39.9911 49.9294 39.9644Z" fill="#CF1126"/>
<path d="M53.2012 26.9066C53.4856 27.2 53.2634 27.7333 53.2901 28.1066C53.1301 29.28 52.9434 30.4622 52.5078 31.5733C51.9745 32.64 50.8367 33.2177 50.1523 34.1689C49.9034 34.6222 49.9923 35.1733 49.9389 35.68C49.9034 37.04 49.9123 38.4088 49.9389 39.7688C49.3167 40.0888 48.6501 40.3911 47.939 40.2755C47.5212 40.1777 46.739 40.1155 46.6501 39.6977L46.739 32.6311C46.979 31.9111 47.7167 31.5378 48.259 31.0755C48.7122 30.6281 49.1339 30.15 49.5212 29.6444C49.7523 29.2444 50.6678 29.1111 50.3389 29.7866C50.1434 30.3822 49.6545 30.8178 49.5301 31.44C49.5034 31.7866 49.0856 32.4177 49.4412 32.6133C49.6602 32.227 49.992 31.9168 50.3923 31.7244C50.7834 31.4311 51.4323 31.3066 51.5745 30.7911C51.7026 30.0578 52.0425 29.378 52.5523 28.8355C52.4189 28.1778 52.5523 27.3511 53.1212 26.9244L53.2012 26.9066Z" fill="#CF1126"/>
<path d="M52.3218 27.04C52.5885 27.0844 52.5707 27.4133 52.4551 27.5911C52.3234 27.9737 52.2898 28.3832 52.3574 28.7822C51.8699 29.325 51.5436 29.993 51.4151 30.7111C51.4151 30.9777 51.1307 31.0666 50.944 31.2C50.5085 31.4755 50.0285 31.68 49.6374 32.0266C49.5574 32.1155 49.4951 32.2044 49.5485 32.0266C49.6107 31.7955 49.6374 31.5466 49.8151 31.3777C50.064 31.1111 50.3662 30.88 50.7218 30.8089C50.7485 30.4355 50.9262 30.0977 51.0862 29.7778C51.264 29.4666 51.4507 29.1378 51.7529 28.9422C51.7529 28.4 51.7529 27.8311 51.984 27.3244C52.0551 27.2 52.1618 27.0489 52.3218 27.04Z" fill="#CF1126"/>
<path d="M51.5825 27.2533C51.7603 27.3067 51.7248 27.5378 51.6714 27.6711C51.5938 28.0571 51.5639 28.4512 51.5825 28.8444C51.2359 29.1111 51.0314 29.5022 50.8359 29.8755C50.7114 30.1244 50.6048 30.3911 50.5603 30.6667C50.2848 30.7555 50.0448 30.9333 49.8314 31.1111C49.9203 30.8622 50.0981 30.6667 50.2314 30.4267C50.3648 30.1867 50.4981 29.9289 50.5603 29.6533C50.827 29.3778 50.9692 28.9778 50.9159 28.5867C50.8981 28.1689 51.0314 27.7333 51.3159 27.4133C51.387 27.3422 51.4759 27.2622 51.5825 27.2533Z" fill="#CF1126"/>
<path d="M50.7391 27.3778C50.8458 27.3955 50.8991 27.4844 50.9525 27.5644C50.9791 27.6444 50.8813 27.7244 50.8636 27.8133C50.7474 28.1067 50.7047 28.4241 50.7391 28.7378C50.748 28.96 50.668 29.1822 50.5613 29.36C50.5414 29.2915 50.5008 29.2309 50.4451 29.1864C50.3894 29.1418 50.3214 29.1156 50.2502 29.1111C50.2058 29.1111 50.1258 29.1289 50.1613 29.0489C50.1969 28.6222 50.2591 28.1955 50.4102 27.8044C50.454 27.6504 50.5403 27.5118 50.6591 27.4044C50.6769 27.3866 50.7125 27.3689 50.748 27.3778H50.7391Z" fill="#CF1126"/>
<path d="M31.6187 42.3111C31.0183 42.2461 30.449 42.0108 29.9781 41.6328C29.5072 41.2547 29.1542 40.7499 28.9609 40.1777C28.9876 39.9822 29.2276 40.2844 29.3432 40.3111C29.5599 40.4403 29.8029 40.5192 30.0543 40.5422C30.3654 40.6755 30.5609 40.9866 30.8632 41.1555C31.0054 41.2622 31.5032 41.4755 31.4054 41.1288C31.2898 40.9511 31.2098 40.72 31.3165 40.5066C31.4765 40.1422 31.7343 39.8222 32.0009 39.5111C32.1876 39.4488 32.3209 39.8311 32.4543 39.9555C32.6409 40.2488 32.872 40.6044 32.7565 40.96C32.6498 41.0933 32.5787 41.4933 32.872 41.3688C33.2276 41.2088 33.5209 40.9422 33.8143 40.6933C34.0809 40.5155 34.4098 40.5066 34.6765 40.3377C34.8098 40.3111 35.0676 40.0622 35.1209 40.1955C34.9617 40.5929 34.7396 40.962 34.4632 41.2888C34.0357 41.7963 33.4448 42.1389 32.792 42.2577C32.4009 42.3288 32.0098 42.3466 31.6187 42.3111Z" fill="#CF1126"/>
<path d="M33.0233 40.9066C33.0499 40.6666 32.9966 40.4266 32.8722 40.1955C32.6855 39.8222 32.4277 39.4844 32.1611 39.1377C31.9122 38.9955 31.7788 39.4666 31.6188 39.5999C31.3611 39.9822 31.0411 40.3733 31.0233 40.8444C30.8811 41.0666 30.6144 40.6666 30.4988 40.5333C30.262 40.2288 30.1365 39.8523 30.1433 39.4666C30.1218 38.8407 30.2308 38.2171 30.4633 37.6355C30.6411 37.1377 30.9166 36.6577 30.8899 36.1244C30.9077 35.7066 30.8277 35.2622 30.4988 34.9866C30.1788 34.7377 30.7033 34.6844 30.8633 34.8088C31.1477 34.8355 31.2988 35.2977 31.5566 35.1822C31.6544 34.9422 31.6811 34.6488 31.8944 34.4622C32.0988 34.1777 32.3122 34.5777 32.3833 34.7733C32.5344 34.9333 32.3833 35.3511 32.6144 35.36C32.8988 35.1555 33.1033 34.8266 33.4677 34.7466C33.6188 34.6577 33.8677 34.7466 33.6722 34.9066C33.4055 35.1644 33.1744 35.4755 33.1211 35.8577C33.0411 36.3288 33.1566 36.8088 33.3611 37.2266C33.7611 38.0622 34.0722 39.0044 33.8677 39.9377C33.7788 40.3466 33.4944 40.7022 33.1566 40.9422C33.1122 40.9688 33.0411 40.9688 33.0233 40.9066Z" fill="#CF1126"/>
<path d="M32.5966 34.6311C32.4769 34.3906 32.3072 34.1784 32.0988 34.0089C31.8855 34.0089 31.7522 34.2755 31.61 34.4177C31.5122 34.6044 31.3877 34.9155 31.1388 34.6755C30.7388 34.4444 30.6766 33.9377 30.6766 33.52C30.65 32.8444 30.9255 32.2133 31.1655 31.6C31.3166 31.2177 31.2811 30.7822 31.1833 30.3911C31.0677 29.9466 30.7033 29.6266 30.4277 29.2711C30.4455 29.1378 30.8011 29.2089 30.9344 29.2355C31.2366 29.3155 31.4144 29.5733 31.6366 29.7689C31.7966 29.7155 31.7255 29.3955 31.8055 29.2444C31.8055 29.0311 32.09 28.7555 32.2055 29.0578C32.3833 29.2533 32.2055 29.6355 32.4277 29.7511C32.6411 29.6711 32.7477 29.44 32.9433 29.3333C33.0454 29.2672 33.1628 29.2284 33.2842 29.2207C33.4055 29.2129 33.5269 29.2364 33.6366 29.2889C33.7166 29.4844 33.4055 29.6444 33.3166 29.8222C33.1389 30.0438 33.0158 30.304 32.9571 30.582C32.8985 30.8599 32.9059 31.1477 32.9788 31.4222C33.1033 31.8666 33.3166 32.2666 33.3966 32.7111C33.4926 33.2179 33.4774 33.7396 33.3522 34.24C33.2722 34.5422 33.0144 34.7377 32.7477 34.8622C32.6766 34.8 32.6411 34.7111 32.5966 34.6311Z" fill="#CF1126"/>
<path d="M31.2534 29.0578C30.9511 28.8355 30.8534 28.6311 30.8534 28.2133C30.8534 28.0089 30.8978 27.8933 31.0311 27.6978C31.2445 27.4133 31.2089 27.3244 30.9156 27.4044C30.4445 27.5378 30.2223 27.4222 30.2045 27.0222C30.2045 26.8266 30.24 26.7466 30.4978 26.4266C30.7111 26.1778 30.7912 26.0444 30.7467 26C30.7023 25.9644 30.4534 26.1778 29.9467 26.6933C29.629 27.0283 29.2906 27.343 28.9334 27.6355C28.0623 28.2222 27.2267 28.3111 26.8445 27.8578C26.6489 27.6266 26.6578 27.5022 26.88 27.36C27.0216 27.2644 27.1527 27.1541 27.2712 27.0311C27.7068 26.6333 28.187 26.2873 28.7023 26C29.0223 25.84 29.0934 25.7333 28.8889 25.7333C28.6223 25.7333 27.7778 26.2844 27.1289 26.8711C26.9423 27.0489 26.6667 27.2444 26.5245 27.3155C26.129 27.4598 25.701 27.4906 25.2889 27.4044C25.0934 27.3422 24.7289 27.0044 24.7289 26.88C24.7289 26.8533 24.8178 26.7822 24.9067 26.72C25.0516 26.6381 25.1885 26.5429 25.3156 26.4355C25.8312 25.9911 26.8089 25.52 27.5823 25.3511C27.8312 25.3067 27.7334 25.1733 27.4578 25.1911C26.6419 25.3469 25.878 25.7044 25.2356 26.2311C24.4978 26.8444 23.3867 26.7822 23.0312 26.1155C22.9689 26 22.9245 25.8933 22.9423 25.8755C23.5719 25.7166 24.1806 25.4839 24.7556 25.1822C25.2509 24.8903 25.7967 24.6943 26.3645 24.6044C26.6134 24.56 26.6312 24.4355 26.3912 24.4089C26.0712 24.3733 25.5912 24.5333 24.7467 24.9422C23.6534 25.4844 23.3423 25.5822 22.7734 25.5466C22.2401 25.5111 21.9467 25.3778 21.5289 24.9778C21.2445 24.7111 20.8534 24.0444 20.9245 23.9644C21.386 24.0615 21.8578 24.1003 22.3289 24.08C23.0667 24.08 23.2712 24.0622 23.6623 23.9467C24.4263 23.7045 25.1466 23.3414 25.7956 22.8711C26.7105 22.0971 27.8683 21.6692 29.0667 21.6622C30.1689 21.6622 30.8623 21.9111 31.4845 22.5422C31.6978 22.7555 31.8756 22.8889 31.9023 22.8622C31.9289 22.8355 31.9556 22.4622 31.9645 22.0355C31.9645 22.0355 32.2934 22 32.3645 22.0978C32.3645 22.7822 32.3645 22.8444 32.4711 22.8444C32.5334 22.8444 32.6045 22.7733 32.6489 22.6667C32.7378 22.4444 33.0934 22.1333 33.4667 21.9378C34.2667 21.5378 35.6623 21.52 36.7822 21.9111C37.3177 22.1143 37.8184 22.3991 38.2667 22.7555C38.9206 23.2155 39.6397 23.575 40.4 23.8222C41.0045 24 42.0889 24.0444 42.6311 23.9111C42.7897 23.8744 42.9499 23.8447 43.1111 23.8222C43.3156 23.8222 42.9689 24.4978 42.56 24.8978C41.8134 25.6267 40.8445 25.6178 39.4845 24.8889C38.6311 24.4267 37.6178 24.1778 37.6178 24.4267C37.6178 24.48 37.6711 24.5155 37.7511 24.5155C38.0445 24.5155 38.6134 24.7111 39.4134 25.0933C39.916 25.3832 40.4672 25.579 41.04 25.6711C41.2445 25.6711 41.2534 25.8044 41.0578 26.0889C40.8534 26.3911 40.5067 26.5333 40.0178 26.5333C39.5467 26.5333 39.28 26.4355 38.8622 26.0889C38.1511 25.5022 36.4089 24.8444 36.4711 25.2C36.4889 25.2622 36.5689 25.3067 36.7556 25.3333C37.5063 25.4964 38.2091 25.8311 38.8089 26.3111L39.3334 26.6933C39.4311 26.7466 39.4311 26.7644 39.3511 26.9155C39.2267 27.1644 38.8889 27.3511 38.5334 27.3866C38.0711 27.44 37.6622 27.2978 37.2445 26.9422C36.3556 26.2044 35.5289 25.6711 35.2623 25.6711C35.04 25.6711 35.1378 25.7955 35.5289 26C36.0349 26.268 36.5064 26.5963 36.9334 26.9778C37.1111 27.1466 37.3156 27.3066 37.3778 27.3422C37.5467 27.4311 37.5378 27.5555 37.36 27.7866C37.1822 28.0178 36.88 28.1244 36.4978 28.08C35.7334 28 35.1289 27.6355 34.1867 26.6578C33.9626 26.4076 33.7188 26.1758 33.4578 25.9644C33.3334 25.9644 33.4134 26.1333 33.6534 26.4089C33.9556 26.7378 34.0089 26.9244 33.8934 27.2089C33.7956 27.44 33.6267 27.5022 33.2889 27.4044C32.9334 27.3155 32.88 27.4044 33.1111 27.68C33.4489 28.1155 33.4045 28.6311 32.9778 28.9955C32.8896 29.0805 32.7873 29.1497 32.6756 29.2C32.64 29.2 32.5511 29.1111 32.4711 28.9866C32.2045 28.5778 31.9645 28.5778 31.6978 28.9866C31.6415 29.0775 31.5822 29.1664 31.52 29.2533C31.4301 29.1896 31.3412 29.1244 31.2534 29.0578Z" fill="#CF1126"/>
<path d="M32.5957 20.7111L32.1335 21.0666L31.7246 20.7644V23.2355H32.5957V20.7111Z" fill="#CF1126"/>
<path d="M29.7687 18.16C29.6879 19.1593 29.4163 20.1339 28.9688 21.0311L29.9554 20.1155L30.6399 20.9333L31.3865 20.0978L32.1421 20.8089L32.871 20.0711L33.6265 20.96L34.2843 20.2311L35.4043 21.0311C34.9954 20.1422 34.4532 19.3778 34.5154 18.1155C33.4399 18.9155 30.871 19.0578 29.7687 18.1511V18.16Z" fill="#CF1126"/>
<path d="M31.7341 17.5644C31.3341 17.5644 30.9163 17.5733 30.5429 17.6533C30.2957 17.6927 30.0595 17.7835 29.8496 17.92C29.8763 18.6844 33.4941 18.9955 34.4629 17.9378C34.2449 17.7868 33.9958 17.6866 33.734 17.6444C33.3785 17.5733 32.9696 17.5733 32.5874 17.5555V18.1867H31.7341V17.5644Z" fill="#CF1126"/>
<path d="M32.437 13.6889H31.877V18.08H32.4458L32.437 13.6889Z" fill="#CF1126"/>
<path d="M32.4358 13.7955L32.2225 15.9022L34.3825 16.96L33.2892 15.4933L34.7825 15.0044L32.4358 13.7955ZM32.1958 13.2533C31.867 13.2533 31.627 13.3778 31.627 13.52C31.627 13.6622 31.867 13.7867 32.1958 13.7867C32.5247 13.7867 32.7647 13.6622 32.7647 13.52C32.7647 13.3778 32.5247 13.2533 32.1958 13.2533Z" fill="#CF1126"/>
<path d="M31.1999 50.125C31.5624 50 31.7624 49.7875 31.8999 49.375C31.9597 49.2177 32.0016 49.0542 32.0249 48.8875C31.9874 48.7625 31.8249 48.7625 31.6624 48.9125C31.5374 49 31.5374 49.05 31.5624 49.25C31.6499 49.75 31.4749 49.875 30.5249 49.975C30.4374 49.975 30.1624 49.975 29.9249 49.9375C29.4749 49.8875 29.3249 49.9375 29.4874 50.0625C29.5712 50.1198 29.6642 50.1621 29.7624 50.1875C30.0124 50.25 30.9374 50.2125 31.1999 50.1125V50.125ZM33.1624 50.0375C33.2124 49.9875 33.3874 49.9125 33.5624 49.85C33.7874 49.775 33.9124 49.7 33.9999 49.55C34.2749 49.1375 34.2249 48.7875 33.8249 48.3C33.5999 48.05 33.4999 48.05 33.3249 48.35C33.1749 48.6 33.1749 48.6 33.3999 48.6625C33.5249 48.6875 33.6249 48.7875 33.6874 48.8875C33.9249 49.3 33.8499 49.55 33.4999 49.55C33.1749 49.55 33.0874 49.6 32.9999 49.8C32.9644 49.8841 32.9392 49.9723 32.9249 50.0625C32.9249 50.15 33.0499 50.1375 33.1624 50.0375ZM32.5124 49.5625C32.5749 49.4 32.5999 49.1125 32.5874 48.5125C32.5874 48.05 32.5749 47.6625 32.5499 47.6375C32.4999 47.6 32.2374 47.7625 32.1999 47.875C32.1874 47.9375 32.2124 48.0625 32.2624 48.1625C32.3499 48.325 32.3624 48.475 32.3374 49.1C32.2999 49.8875 32.3499 50.0125 32.5124 49.5625Z" fill="#F7E017"/>
<path d="M31.0121 49.2C31.0496 49.05 31.0871 48.75 31.0996 48.525C31.1246 48.3125 31.1621 48.025 31.1996 47.9C31.2996 47.6 31.1996 47.525 30.9496 47.7L30.7746 47.825L30.8121 48.2625C30.8496 48.6625 30.7871 49.4 30.6871 49.6875C30.6746 49.775 30.7121 49.75 30.8121 49.6375C30.9098 49.5033 30.978 49.35 31.0121 49.1875V49.2ZM29.6746 49.4125C29.9996 49.1375 29.9621 48.6625 30.0371 48.2875C30.0371 48.0375 30.1996 47.7375 30.0871 47.525C29.7871 47.575 29.5871 47.8625 29.7496 48.15C29.7621 48.4875 29.7496 48.85 29.5871 49.15C29.4496 49.3375 28.9996 49.275 29.0246 49.0125C29.1371 48.6 28.6496 48.8 28.4496 48.9125C28.2996 49.0125 27.9871 49.025 28.0996 48.7625C28.0246 48.4125 27.5871 48.6375 27.3496 48.6375C27.1246 48.6375 27.3246 48.175 26.9996 48.2625C26.3996 48.2 25.7246 48.2625 25.1996 47.8875C24.8996 47.75 24.9496 47.3875 25.0996 47.1375C25.2996 46.8125 25.3496 46.4 25.6496 46.15C25.9496 45.8625 25.3746 45.9875 25.2371 46.0875C24.9496 46.2375 25.2121 46.65 24.9871 46.875C24.8371 47.125 24.6496 47.4375 24.3371 47.4C23.8621 47.3125 23.5871 46.875 23.2621 46.5875C22.9746 46.525 23.1371 47.05 23.2871 47.1625C23.5833 47.3819 23.9184 47.5431 24.2746 47.6375C24.6246 47.575 24.6371 48.0375 24.9371 48.1125C25.4871 48.3625 26.0996 48.4375 26.6871 48.475C26.9371 48.4875 26.7996 48.9125 27.1121 48.825C27.2871 48.875 27.6746 48.7625 27.6871 48.9625C27.4371 49.275 27.9371 49.275 28.1371 49.2125C28.3871 49.175 28.6871 49.0875 28.7621 49.4125C28.9621 49.6375 29.3371 49.6 29.5746 49.475L29.6746 49.4125Z" fill="#F7E017"/>
<path d="M24.375 46.7125C24.4625 46.5875 24.6125 46.3375 24.7 46.15C24.7682 45.9856 24.8563 45.8303 24.9625 45.6875C25.125 45.5125 25.0375 45.4125 24.775 45.475C24.65 45.5 24.5875 45.55 24.575 45.6625C24.5 46.0375 24.3625 46.425 24.2375 46.6C24.0125 46.925 24.0125 46.9375 24.1125 46.9375C24.15 46.9375 24.2625 46.8375 24.3625 46.7125H24.375ZM21.025 44.625C20.775 44.625 20.775 44.7875 21.0125 44.875C21.125 44.9125 21.225 45 21.3 45.175C21.55 45.6375 21.675 45.725 22.3 45.775L22.7125 45.8125L22.725 46.0625C22.7375 46.1875 22.775 46.3125 22.8 46.3125C22.8375 46.3125 22.9875 46.2375 23.15 46.1625C23.4375 46.0125 23.725 45.6625 23.725 45.45C23.725 45.3125 23.475 45.15 23.275 45.15C23.1191 45.1731 22.9722 45.2379 22.85 45.3375C22.4 45.6625 21.925 45.5875 21.6625 45.175C21.45 44.825 21.225 44.625 21.025 44.625ZM23.2 45.5C23.325 45.5 23.35 45.5875 23.2875 45.75C23.2375 45.875 23.0875 45.875 23.0375 45.75C23 45.625 23.075 45.5 23.2 45.5ZM40.0625 44.95C39.9 44.95 39.85 44.9875 39.75 45.15C39.575 45.4 39.5625 45.9375 39.725 46.125C39.8125 46.25 39.825 46.25 40.0375 46.1625C40.325 46.0375 40.375 46.05 40.3625 46.2C40.3625 46.6 39.8 47.35 39.2125 47.7625C39.0924 47.829 38.9863 47.9181 38.9 48.025C38.85 48.15 39.075 48.1125 39.3375 47.975C39.7125 47.7875 40.1875 47.3 40.3875 46.9125C40.5375 46.6 40.5625 46.5 40.5875 45.9625C40.5875 45.4625 40.5875 45.325 40.5 45.15C40.4125 44.9625 40.375 44.95 40.1375 44.95H40.0625ZM40.0875 45.3C40.2125 45.3 40.225 45.325 40.2375 45.5C40.25 45.65 40.2375 45.7375 40.15 45.8125C40.025 45.9125 40.025 45.9125 39.925 45.7625C39.8 45.55 39.875 45.3 40.0875 45.3ZM37.3875 49.0875C37.8344 48.9013 38.1986 48.5593 38.4125 48.125C38.4785 47.9924 38.5328 47.8544 38.575 47.7125C38.575 47.6375 38.325 47.525 38.1625 47.525C38 47.525 37.9875 47.4125 38.0375 47.125C38.1125 46.8375 38.0375 46.4875 37.9125 46.4875C37.8625 46.4875 37.7875 46.55 37.7375 46.625C37.65 46.75 37.65 46.8125 37.7125 47C37.8 47.25 37.725 47.4625 37.4875 47.625C37.3625 47.7125 37.3 47.8125 37.3 47.9C37.3 47.975 37.3125 48.0375 37.325 48.0375L37.6125 47.9L37.8625 47.75L38.025 47.875C38.1 47.9375 38.175 48.05 38.175 48.1125C38.175 48.425 37.275 48.9625 36.65 49.0125C36.325 49.0375 36.275 49.0125 36.15 48.9125C36.0625 48.8125 36.025 48.7375 36.05 48.625L36.125 48.2875C36.1875 48.0125 36.0625 48.05 35.8625 48.375C35.6875 48.625 35.6375 48.925 35.7375 49.075C35.8125 49.2 36.325 49.3125 36.6875 49.2875C36.9125 49.275 37.15 49.2125 37.3875 49.0875ZM40.85 47.15C41.175 46.825 41.325 46.425 41.325 45.8125V45.35L41.5875 45.225C41.9375 45.0625 42.275 44.725 42.275 44.55C42.275 44.35 42.1875 44.3625 42.0375 44.575C41.925 44.725 41.7875 44.8125 41.2375 45.0625C41.1 45.125 41.0875 45.1625 41.0625 45.7375C41.025 46.4 40.9375 46.6375 40.5625 47.1C40.3375 47.3625 40.325 47.4 40.4875 47.4C40.55 47.4 40.7125 47.3 40.8625 47.15H40.85ZM37.2875 46.775C37.325 46.6875 37.1375 46.625 37.0625 46.7C37.025 46.7375 37.025 46.7875 37.05 46.825C37.1 46.9125 37.2625 46.8875 37.3 46.7875L37.2875 46.775ZM42.2 45.5125C42.2375 45.4125 42.05 45.35 41.975 45.425C41.9375 45.4625 41.9375 45.525 41.9625 45.55C42.0125 45.6375 42.175 45.6125 42.2125 45.5125H42.2ZM36.2875 42.0625C36.1625 42.125 36.1 42.2625 36.0125 42.375C35.95 42.4125 36 42.45 36.0375 42.5C36.2625 42.7375 36.35 43.0625 36.4625 43.375C36.5625 43.725 36.7 44.1125 36.5875 44.4875C36.5375 44.625 36.425 44.775 36.2625 44.7375C35.9875 44.7125 35.725 44.65 35.4625 44.65C35.2125 44.65 35.025 44.875 34.7875 44.85C34.625 44.8625 34.6375 44.5375 34.4875 44.625C34.4125 44.8 34.45 44.9875 34.4375 45.175C34.475 45.2 34.55 45.175 34.5875 45.175H35.0875C35.1125 45.35 35.1 45.55 35.225 45.675C35.4 45.7375 35.5875 45.675 35.7375 45.6125C35.9125 45.5375 35.9375 45.325 35.9875 45.175C36.0375 45 36.2625 45.05 36.4 44.975C36.5567 44.9209 36.6915 44.8172 36.784 44.6796C36.8765 44.542 36.9216 44.378 36.9125 44.2125C36.9 43.7 36.7 43.2125 36.55 42.7375C36.475 42.525 36.425 42.3125 36.3375 42.1C36.3375 42.0875 36.3125 42.0625 36.2875 42.075V42.0625ZM35.4875 44.975C35.6625 44.975 35.7375 45.1875 35.7125 45.3375C35.6375 45.5375 35.3875 45.4125 35.3375 45.2625C35.25 45.1375 35.3125 44.9625 35.4875 44.975Z" fill="#F7E017"/>
<path d="M28.7997 43.3125C28.7052 43.3134 28.6134 43.344 28.5372 43.4C28.0622 43.7375 27.9372 44.125 28.2622 44.275C28.4997 44.3875 28.4372 44.525 28.0622 44.7125C27.5372 44.9625 27.0622 44.9375 26.1872 44.575C25.9622 44.475 25.8997 44.5125 25.9497 44.7125C25.9997 44.9125 26.1872 45.0125 26.6247 45.125C27.1122 45.225 27.6872 45.2 28.0622 45.0375C28.2817 44.9269 28.4771 44.774 28.6372 44.5875L28.9247 44.275L29.2622 44.3125C29.6747 44.3625 29.6872 44.375 29.6872 44.5625C29.6872 44.725 29.6872 44.7375 30.0747 44.7625L30.6997 44.8C30.8747 44.8 30.9747 44.8375 31.0247 44.925C31.0997 45.0125 31.1497 45.025 31.7747 44.9625C32.3497 44.9125 32.4747 44.9125 32.7372 45.0125C32.9247 45.075 33.1247 45.1 33.2872 45.075C33.7372 45.025 34.3497 44.6625 34.4372 44.3875C34.4497 44.3625 34.6122 44.3 34.7997 44.2625C35.2497 44.175 35.2747 44.075 34.8497 44.025C34.6409 43.9964 34.4357 43.9461 34.2372 43.875C34.0894 43.815 33.9336 43.7771 33.7747 43.7625C33.5497 43.7625 33.3247 43.9 33.3247 44.05C33.3247 44.15 33.3622 44.1625 33.6372 44.1375C33.8872 44.1 33.9622 44.1125 34.0872 44.225C34.1873 44.3 34.2372 44.375 34.2122 44.4C34.1622 44.5 33.6372 44.7375 33.3997 44.775C33.2646 44.803 33.1239 44.7854 32.9997 44.725C32.7872 44.625 32.4872 44.6 32.4247 44.6875C32.4122 44.7375 32.3372 44.7125 32.2497 44.625L32.1247 44.5L31.7997 44.625C31.4747 44.75 31.3622 44.75 31.3622 44.6C31.3622 44.525 31.2747 44.525 30.7997 44.55C30.2747 44.5875 30.2247 44.575 30.1247 44.475C30.0372 44.375 30.0372 44.3375 30.0997 44.225C30.1622 44.1375 30.1622 44.1 30.0997 44.0375C30.0497 43.9875 29.9747 43.9875 29.7747 44.0375C29.2622 44.175 29.1122 44.1 29.1122 43.7C29.1122 43.45 28.9747 43.3125 28.7997 43.3125ZM28.6747 43.6875C28.6997 43.6875 28.7122 43.6875 28.7497 43.7375C28.7997 43.775 28.8247 43.8625 28.7997 43.9125C28.7622 44.0375 28.5372 44.025 28.4872 43.9C28.4747 43.8375 28.4872 43.775 28.5622 43.725L28.6747 43.6875Z" fill="#F7E017"/>
<path d="M27.7502 44.05C28.0502 43.85 28.0502 43.875 28.0877 43.3125C28.1252 42.9375 28.1252 42.9 28.0127 42.9C27.8627 42.9 27.7752 43.0625 27.7752 43.3875C27.7752 43.5875 27.7502 43.6875 27.6502 43.8C27.3752 44.05 26.7252 43.9375 26.6502 43.6125C26.6252 43.5 26.6502 43.4 26.7877 43.2125C27.0752 42.8125 27.0127 42.7125 26.6627 43.0125C26.4127 43.225 26.3752 43.225 26.4252 43.05C26.4627 42.8875 26.3752 42.8125 26.1752 42.8625C26.0877 42.8875 26.0377 42.95 26.0127 43.075C25.9877 43.2 25.9252 43.2625 25.8377 43.275C25.6752 43.325 25.4127 43.175 25.4127 43.0375C25.4127 42.95 25.8127 42.4625 26.3252 41.9125C26.4615 41.7895 26.5832 41.6511 26.6877 41.5C26.6877 41.475 26.5752 41.45 26.4502 41.45C26.2627 41.45 26.2252 41.475 26.2252 41.5625C26.2252 41.6125 25.9627 41.9625 25.6377 42.3125C24.9752 43.0625 24.9252 43.225 25.2627 43.4125C25.3938 43.4912 25.5447 43.5307 25.6976 43.5262C25.8504 43.5218 25.9988 43.4737 26.1252 43.3875L26.3377 43.2375V43.5125C26.3377 43.85 26.4002 43.9625 26.6752 44.1125C26.8421 44.1964 27.0283 44.2349 27.2148 44.2239C27.4014 44.2129 27.5817 44.1529 27.7377 44.05H27.7502ZM41.6627 39.4375C41.4127 39.5875 41.6002 39.9 41.6377 40.1C41.5377 40.375 41.1877 40.45 40.9252 40.5125C40.5502 40.5625 40.2877 40.8875 40.1502 41.2125C40.0752 41.425 39.8877 41.75 39.6877 41.425C39.5127 41.25 39.1877 41.1125 38.9877 41.3125C38.8252 41.4625 38.7877 41.6875 38.7252 41.8875C38.6377 41.7375 38.6002 41.5125 38.4002 41.4625C38.0877 41.5 38.2002 41.9 38.3377 42.0625C38.4752 42.25 38.6002 42.5 38.4627 42.725C38.3627 43 37.9627 43.175 37.7127 42.95C37.5002 42.825 37.6502 42.4125 37.4377 42.3875C37.3252 42.475 37.3127 42.9 37.1502 42.6625C37.0252 42.4625 37.0877 42.1875 36.9377 42.0125C36.7627 42.0375 36.6127 42.3375 36.6752 42.5125C36.8913 42.8459 37.036 43.2204 37.1002 43.6125C37.1627 43.775 37.1002 44.075 37.2377 44.1375C37.3377 43.8875 37.2377 43.6125 37.3252 43.3625C37.5502 43.3375 37.8252 43.4375 38.0627 43.3875C38.4127 43.3375 38.6877 43.05 38.8002 42.7375C38.8377 42.4875 38.8002 42.2625 38.7877 42.025C39.0627 42.0625 39.3502 42.0625 39.6127 42.15C39.7377 42.35 39.5752 42.6375 39.5377 42.85C39.4002 43.3 39.0377 43.625 38.7002 43.925C38.5627 44.0125 38.5377 44.2375 38.7502 44.125C39.2127 43.925 39.5502 43.5 39.7502 43.05C39.9002 42.7125 39.7752 42.325 39.8752 41.975C40.0127 41.7 40.3502 41.7625 40.6002 41.7625C40.8502 41.75 41.0752 41.45 40.9752 41.2C40.9002 40.9125 41.2127 40.775 41.4127 40.675C41.6877 40.5375 41.9127 40.25 41.8877 39.925C41.8752 39.7625 41.8877 39.45 41.6627 39.4375ZM40.6752 41.1C40.9752 41.1875 40.6252 41.75 40.4627 41.3875C40.4252 41.2625 40.5377 41.1 40.6752 41.1ZM39.3002 41.5125C39.6877 41.4875 39.5502 42.05 39.2252 41.8C39.0502 41.7125 39.1002 41.5 39.3002 41.5125ZM25.3377 43.6875C25.3502 43.625 25.3252 43.5875 25.2752 43.5875C25.1627 43.5875 25.1002 43.6875 25.1502 43.7625C25.2002 43.85 25.3252 43.8 25.3377 43.6875ZM29.8627 43.1875C29.8627 43.1 29.8252 43.0625 29.7627 43.0875C29.6127 43.1125 29.5877 43.3 29.7377 43.3C29.8252 43.3 29.8627 43.2625 29.8627 43.175V43.1875ZM24.2752 40.475C24.0877 40.4375 23.9752 40.5875 23.9127 40.725C23.7877 40.9625 23.6127 41.1875 23.3752 41.3125C23.2002 41.3625 23.0002 41.2875 22.8627 41.2C22.6752 41.1125 22.7252 40.9 22.6377 40.75C22.5127 40.65 22.2877 40.7875 22.2877 40.95C22.2752 41.1625 22.4752 41.2875 22.6377 41.3625C22.7752 41.45 22.9752 41.5 23.0377 41.675C23.0377 41.825 23.0877 41.9875 23.2752 41.925C23.4752 41.925 23.5252 42.175 23.4377 42.325C23.3461 42.4883 23.3109 42.6772 23.3377 42.8625C23.4377 42.95 23.5377 42.7375 23.6127 42.6625L23.7502 42.475C24.1002 42.5 24.4627 42.5375 24.8127 42.525C25.0627 42.525 25.2877 42.3625 25.4377 42.1875C25.6752 41.9375 25.8627 41.6625 26.1252 41.4625C26.3127 41.4125 26.2127 41.0625 26.0127 41.1625C25.8377 41.2375 25.7877 41.425 25.6627 41.55C25.4627 41.8 25.2502 42.05 24.9877 42.25C24.8002 42.325 24.5877 42.3 24.3877 42.25C24.3127 42.1875 24.5502 42.125 24.5877 42.05C24.7002 41.925 24.8377 41.825 24.8877 41.675C24.8252 41.55 24.6377 41.5375 24.5127 41.5375C24.1752 41.575 23.9252 41.85 23.6002 41.875C23.3502 41.875 23.4752 41.6125 23.6002 41.525C23.8127 41.2625 24.0502 41.0125 24.2877 40.75C24.3502 40.675 24.5877 40.6 24.4377 40.5C24.3877 40.475 24.3252 40.475 24.2752 40.475ZM24.4377 41.8C24.6002 41.8875 24.3252 42.05 24.2127 42.025C24.0627 42.0625 24.0627 41.9125 24.1877 41.8875C24.2627 41.85 24.3502 41.8 24.4377 41.8ZM23.9252 42.15C24.0127 42.15 24.2127 42.2375 24.0252 42.2875C23.9002 42.3875 23.7502 42.1875 23.9252 42.15Z" fill="#F7E017"/>
<path d="M27.9252 42.375C27.9252 42.25 27.7002 42.2625 27.6752 42.4C27.6627 42.475 27.6752 42.5 27.8002 42.4875C27.8627 42.475 27.9252 42.425 27.9252 42.375ZM37.8877 41.5C37.9127 41.375 37.7377 41.3 37.6502 41.375C37.5627 41.475 37.6502 41.6375 37.7752 41.625C37.8252 41.6 37.8752 41.55 37.8877 41.5ZM22.3877 40.275C22.5377 40.15 22.5377 40.1375 22.4752 39.8375C22.3752 39.425 22.3877 39.375 22.5377 39.3375C22.7377 39.2875 23.2502 39.5625 23.3627 39.775C23.4502 39.95 23.4502 39.95 23.3002 40.0875C23.1377 40.2375 23.1377 40.4125 23.3002 40.4125C23.4252 40.4125 23.8002 40.0625 23.8002 39.9375C23.8002 39.775 23.3877 39.3625 23.0752 39.2125C22.879 39.1242 22.6653 39.0815 22.4502 39.0875C22.0377 39.0875 21.9877 39.175 22.0877 39.65C22.2127 40.2 22.0502 40.275 21.5877 39.8625C21.429 39.7186 21.3058 39.5399 21.2277 39.3403C21.1496 39.1408 21.1188 38.9259 21.1377 38.7125C21.1377 38.1625 21.3502 37.8875 21.8127 37.8375C22.1377 37.7875 22.1252 37.7125 21.8127 37.6625C21.3252 37.5875 20.9377 37.9125 20.7752 38.4625C20.6127 39.0875 21.0002 39.85 21.6752 40.2375C22.0377 40.45 22.1752 40.45 22.3877 40.275ZM40.9502 39.5875C40.9877 39.55 41.0127 39.4625 41.0127 39.4C41.0127 39.3375 41.0877 39.1875 41.1627 39.0875C41.2259 39.0129 41.2766 38.9284 41.3127 38.8375C41.3127 38.725 41.1252 38.7375 40.9877 38.8375C40.8377 38.9625 40.7377 38.9625 40.7377 38.85C40.7377 38.825 40.8002 38.7625 40.8877 38.725C41.1002 38.625 41.1127 38.525 40.9377 38.4375C40.7002 38.3375 40.4752 38.525 40.4502 38.8375C40.4377 39.05 40.4502 39.0875 40.6127 39.175C40.7627 39.2625 40.7877 39.3125 40.7627 39.425C40.7252 39.65 40.8127 39.725 40.9502 39.5875ZM42.7002 39.3875C42.8252 39.275 42.9252 39.1375 42.9252 39.1C42.9252 39.0625 43.0377 38.95 43.1752 38.85C43.5502 38.575 43.6377 38.3 43.4627 37.8625C43.4002 37.7 43.1877 37.4625 42.7377 37.05C42.5198 36.8352 42.2811 36.6426 42.0252 36.475C41.9002 36.475 41.9127 36.9375 42.0377 36.975C42.2752 37.05 42.4127 37.15 42.7627 37.475C43.1877 37.85 43.3752 38.2 43.2627 38.3875C43.1752 38.575 43.0377 38.5125 42.6627 38.1375C42.4752 37.925 42.2877 37.7625 42.2502 37.7625C42.2002 37.7625 42.1752 37.825 42.1752 37.9375C42.1752 38.0625 42.2377 38.1875 42.4252 38.4C42.7377 38.75 42.7752 38.95 42.5502 39.1375C42.4502 39.2 42.3752 39.2625 42.3502 39.2625C42.0473 38.7456 41.6434 38.295 41.1627 37.9375C41.1002 37.9375 41.0752 37.9875 41.0752 38.125C41.0752 38.2875 41.1127 38.35 41.2377 38.4125C41.3877 38.4875 41.7877 38.8875 42.1752 39.3625C42.2877 39.4875 42.4002 39.6125 42.4252 39.6125C42.4377 39.6125 42.5627 39.5125 42.6877 39.3875H42.7002ZM43.4752 37.1625C43.4252 37 42.3502 35.9125 42.2502 35.9125C42.1877 35.9125 42.1752 35.975 42.1877 36.15C42.1877 36.3625 42.2252 36.4 42.3627 36.425C42.4627 36.4625 42.7377 36.675 42.9877 36.925C43.2377 37.175 43.4627 37.35 43.4877 37.3375L43.4752 37.1625ZM37.1002 49.5C37.1105 49.5228 37.1145 49.5476 37.1119 49.5722C37.1093 49.5967 37.1002 49.6204 37.0854 49.6409C37.0706 49.6615 37.0504 49.6783 37.0269 49.69C37.0033 49.7016 36.9769 49.7077 36.9502 49.7077C36.9234 49.7077 36.8971 49.7016 36.8735 49.69C36.8499 49.6783 36.8298 49.6615 36.815 49.6409C36.8001 49.6204 36.791 49.5967 36.7884 49.5722C36.7859 49.5476 36.7899 49.5228 36.8002 49.5C36.7933 49.4777 36.7921 49.4542 36.7967 49.4314C36.8013 49.4085 36.8116 49.387 36.8267 49.3685C36.8419 49.3499 36.8615 49.3349 36.884 49.3246C36.9065 49.3142 36.9313 49.3088 36.9564 49.3088C36.9816 49.3088 37.0064 49.3142 37.0289 49.3246C37.0514 49.3349 37.071 49.3499 37.0862 49.3685C37.1013 49.387 37.1116 49.4085 37.1162 49.4314C37.1208 49.4542 37.1196 49.4777 37.1127 49.5H37.1002ZM37.6752 49.3125C37.6752 49.3523 37.6581 49.3904 37.6276 49.4186C37.5971 49.4467 37.5558 49.4625 37.5127 49.4625C37.4696 49.4625 37.4283 49.4467 37.3978 49.4186C37.3673 49.3904 37.3502 49.3523 37.3502 49.3125C37.3502 49.2727 37.3673 49.2346 37.3978 49.2064C37.4283 49.1783 37.4696 49.1625 37.5127 49.1625C37.5558 49.1625 37.5971 49.1783 37.6276 49.2064C37.6581 49.2346 37.6752 49.2727 37.6752 49.3125Z" fill="#F7E017"/>
</g>
<defs>
<clipPath id="clip0_10660_9930">
<rect width="64" height="64" rx="32" fill="white"/>
</clipPath>
</defs>
</svg>
