<svg width="64" height="64" viewBox="0 0 64 64" fill="none" xmlns="http://www.w3.org/2000/svg">
<g clip-path="url(#clip0_10660_9979)">
<mask id="mask0_10660_9979" style="mask-type:luminance" maskUnits="userSpaceOnUse" x="-1" y="-1" width="65" height="65">
<path d="M-0.015625 -0.00488281H63.9841V63.9948H-0.015625V-0.00488281Z" fill="white"/>
</mask>
<g mask="url(#mask0_10660_9979)">
<path fill-rule="evenodd" clip-rule="evenodd" d="M-22.25 -0.00488281L31.3635 31.995L-22.25 63.9948V-0.00488281ZM84.9403 -0.00488281L31.3635 31.995L84.9038 63.9948L84.9403 -0.00488281Z" fill="#18B637"/>
<path fill-rule="evenodd" clip-rule="evenodd" d="M-22.25 -0.00488281L31.3635 31.995L84.9038 -0.00488281H-22.25ZM-22.25 63.9948L31.3635 31.995L84.9038 63.9948H-22.25Z" fill="#CF0921"/>
<path fill-rule="evenodd" clip-rule="evenodd" d="M84.9403 -0.00488281H74.9564L-22.25 58.0337V63.9948H-12.266L84.9403 5.95623V-0.00488281Z" fill="white"/>
<path fill-rule="evenodd" clip-rule="evenodd" d="M49.8695 31.995C49.8695 36.9028 47.9198 41.6096 44.4495 45.08C40.9791 48.5504 36.2723 50.5 31.3644 50.5C26.4566 50.5 21.7498 48.5504 18.2794 45.08C14.809 41.6096 12.8594 36.9028 12.8594 31.995C12.8594 27.0871 14.809 22.3803 18.2794 18.9099C21.7498 15.4395 26.4566 13.4899 31.3644 13.4899C36.2723 13.4899 40.9791 15.4395 44.4495 18.9099C47.9198 22.3803 49.8695 27.0871 49.8695 31.995Z" fill="white"/>
<path fill-rule="evenodd" clip-rule="evenodd" d="M-22.25 -0.00488281V5.95623L74.9564 63.9948H84.9403V58.0337L-12.266 -0.00488281H-22.25Z" fill="white"/>
<path fill-rule="evenodd" clip-rule="evenodd" d="M34.9849 25.0099L32.5712 25.0464L31.3278 27.0944L30.0844 25.0464L27.7072 25.0099L28.8775 22.8887L27.7072 20.8042L30.1209 20.731L31.3644 18.683L32.6078 20.7676H34.9849L33.8512 22.8887L34.9849 25.0099ZM26.9393 38.9801H24.5255L23.2821 41.0646L22.0387 39.0167L19.625 38.9435L20.7953 36.8589L19.6616 34.7378L22.0387 34.7012L23.2821 32.6533L24.5255 34.7012L26.9393 34.7744L25.769 36.8589L26.9393 38.9801ZM43.25 38.9801H40.8363L39.5929 41.0646L38.3495 39.0167L35.9723 38.9435L37.1061 36.8589L35.9723 34.7378L38.3861 34.7012L39.6295 32.6533L40.8729 34.7012L43.25 34.7744L42.0797 36.8589L43.25 38.9801Z" fill="#CF0921" stroke="#18B637" stroke-width="0.487617"/>
</g>
</g>
<defs>
<clipPath id="clip0_10660_9979">
<rect width="64" height="64" rx="32" fill="white"/>
</clipPath>
</defs>
</svg>
