<svg width="64" height="64" viewBox="0 0 64 64" fill="none" xmlns="http://www.w3.org/2000/svg">
<g clip-path="url(#clip0_10660_9990)">
<path d="M0 0H64V64H0V0Z" fill="#032EA1"/>
<path d="M0 16H64V48H0V16Z" fill="#E00025"/>
<path d="M22.9883 30.1725H41.1963V37.1805H22.9883V30.1725Z" fill="white" stroke="black" stroke-width="0.16" stroke-linejoin="bevel"/>
<path d="M40.2683 34.0285H40.8283V36.6685H40.2683V34.0285ZM22.9883 32.7325H41.1963V33.5325H22.9883V32.7325ZM22.9883 31.6125H41.1963V32.3485H22.9883V31.6125Z" fill="white" stroke="black" stroke-width="0.16" stroke-linejoin="bevel"/>
<path d="M22.9883 30.5245H41.1963V31.2125H22.9883V30.5245Z" fill="white" stroke="black" stroke-width="0.144" stroke-linejoin="bevel"/>
<path d="M27.7884 34.0285H28.3644V36.6685H27.7884V34.0285ZM35.6284 34.0285H36.2044V36.6685H35.6284V34.0285ZM23.1484 34.0285H23.7084V36.6685H23.1484V34.0285ZM24.2684 34.0285H24.8284V36.6685H24.2684V34.0285ZM25.4684 34.0285H26.0284V36.6685H25.4684V34.0285ZM26.6684 34.0285H27.2284V36.6685H26.6684V34.0285ZM36.7164 34.0285H37.2924V36.6685H36.7164V34.0285ZM37.9164 34.0285H38.4924V36.6685H37.9164V34.0285ZM39.1164 34.0285H39.6924V36.6685H39.1164V34.0285Z" fill="white" stroke="black" stroke-width="0.16" stroke-linejoin="bevel"/>
<path d="M15.8691 37.5325C16.2037 37.3503 16.4557 37.0468 16.5731 36.6845H47.4691C47.5866 37.0468 47.8386 37.3503 48.1731 37.5325H15.8691Z" fill="white" stroke="black" stroke-width="0.16"/>
<path d="M31.6288 19.5005C31.6288 19.5005 31.6128 18.8445 31.9968 18.8285C32.3648 18.8285 32.3488 19.5005 32.3488 19.5005H31.6288ZM29.6288 28.2205V27.3405C29.6288 26.8925 29.1808 26.8605 29.1808 26.5405C29.1808 26.5405 29.1168 26.0605 29.2448 25.8365C29.4208 26.4765 29.7248 26.3645 29.7248 26.0925C29.7248 25.8685 29.5648 25.6445 29.1968 25.0845C29.0688 24.9085 29.1488 24.3485 29.3088 24.1405C29.3728 24.6205 29.4528 24.8605 29.6608 24.8605C29.7888 24.8605 29.8848 24.7805 29.8848 24.5405C29.8848 24.2205 29.6768 24.0605 29.5648 23.7725C29.5097 23.6292 29.4969 23.473 29.5282 23.3226C29.5594 23.1723 29.6332 23.034 29.7408 22.9245C29.8208 23.4045 29.8048 23.5965 30.0128 23.5965C30.4448 23.4525 30.0128 22.8285 29.9168 22.6685C29.8208 22.4925 30.0768 22.1245 30.0768 22.1245C30.2048 22.5565 30.2368 22.5885 30.3968 22.5405C30.5888 22.4925 30.5568 22.2205 30.3328 21.9965C30.1888 21.8365 30.2048 21.6285 30.3648 21.4685C30.5248 21.7725 30.7168 21.7565 30.7328 21.5645L30.6048 20.8605H33.3888L33.2448 21.5485C33.2128 21.7405 33.4688 21.7885 33.6288 21.4685C33.7888 21.6285 33.8048 21.8525 33.6608 21.9965C33.4368 22.2205 33.4048 22.4925 33.5968 22.5405C33.7568 22.5885 33.7888 22.5405 33.9168 22.1245C33.9168 22.1245 34.1568 22.3645 34.0768 22.6685C33.9808 22.8285 33.5488 23.4685 33.9808 23.5965C34.1888 23.5965 34.1728 23.4045 34.2528 22.9245C34.3578 23.0358 34.4286 23.1748 34.457 23.3251C34.4853 23.4754 34.47 23.6306 34.4128 23.7725C34.3168 24.0605 34.0928 24.2205 34.0928 24.5405C34.0928 24.7805 34.2048 24.8605 34.3328 24.8605C34.5408 24.8605 34.6208 24.6365 34.6848 24.1405C34.8448 24.3485 34.9248 24.9085 34.7968 25.1005C34.4288 25.6445 34.2528 25.8685 34.2528 26.0925C34.2528 26.3645 34.5728 26.4765 34.7328 25.8365C34.8768 26.0605 34.8128 26.5405 34.8128 26.5405C34.8128 26.8605 34.3808 26.8925 34.3648 27.3405V28.2205H29.6288ZM30.7808 20.8605L30.7168 20.3645H33.2608L33.1968 20.8605H30.7808ZM30.9408 20.3485L30.9088 19.9485H33.0688L33.0208 20.3485H30.9408ZM31.3088 19.9325L31.2608 19.5165H32.7008L32.6848 19.9325H31.3088ZM36.5888 37.5325C36.2688 37.4205 35.7888 37.0685 35.7888 36.7325V32.8445L36.2048 32.3005H27.7888L28.1888 32.8445V36.7325C28.1888 37.0685 27.8688 37.4205 27.5488 37.5325H36.5888Z" fill="white" stroke="black" stroke-width="0.16"/>
<path d="M29.2617 34.0285H29.8377V36.6685H29.2617V34.0285ZM34.1257 34.0285H34.7017V36.6685H34.1257V34.0285Z" fill="white" stroke="black" stroke-width="0.16" stroke-linejoin="bevel"/>
<path d="M27.6293 27.8845V32.3005H36.2693V27.8845C36.1695 27.921 36.0797 27.9806 36.0074 28.0584C35.9351 28.1363 35.8823 28.2302 35.8533 28.3325V30.2205H28.0613V28.3325C28.0613 28.3325 27.9653 28.0125 27.6133 27.8845H27.6293Z" fill="white" stroke="black" stroke-width="0.16"/>
<path d="M35.0862 37.5325C34.7982 37.4205 34.1902 37.0685 34.1902 36.7325V32.3805C34.2542 32.1405 34.5742 31.9965 34.7822 31.8365H29.0702C29.3422 31.9965 29.6462 32.1085 29.7582 32.3805V36.7325C29.7582 37.0685 29.2782 37.4205 28.9902 37.5325H35.0862Z" fill="white" stroke="black" stroke-width="0.16"/>
<path d="M35.8545 31.8845V28.7485H35.0705V28.4445H28.8625V28.7645H28.0625V31.8845H35.8545ZM33.8705 37.5325C33.5825 37.4205 33.1825 37.0685 33.1825 36.7325V33.0205L33.4065 32.6845H30.5745L30.8145 33.0045V36.7325C30.8145 37.0685 30.3985 37.4205 30.1265 37.5325H33.8705Z" fill="white" stroke="black" stroke-width="0.16"/>
<path d="M31.2617 32.6845H32.7017V37.5325H31.2617V32.6845Z" fill="white" stroke="black" stroke-width="0.16"/>
<path d="M33.4536 31.6125C33.4536 31.2925 34.3816 31.2765 34.8616 31.0045H29.1016C29.5816 31.2765 30.4936 31.2925 30.4936 31.6125L30.6856 32.2365L33.0856 32.3325L33.4536 31.6125Z" fill="white" stroke="black" stroke-width="0.16" stroke-linejoin="bevel"/>
<path d="M34.5732 28.2205C34.5732 27.4365 34.6052 27.1485 34.8452 27.1485V29.6125C34.2532 29.8365 33.8372 30.5725 33.8372 30.5725H30.1252C30.1252 30.5725 29.7092 29.8365 29.1172 29.6125V27.1325C29.4052 27.1325 29.4052 27.4525 29.4052 28.2045L34.5732 28.2205ZM34.8452 27.9005C34.8452 27.0045 35.6292 26.9085 35.6292 26.9085V27.7085C35.3252 27.6925 35.1812 27.9645 35.1812 28.3485C35.1812 28.7485 35.4212 28.7485 35.4212 28.7485V31.0205H34.8452V27.9005Z" fill="white" stroke="black" stroke-width="0.16"/>
<path d="M29.118 27.9005C29.118 27.0045 28.334 26.9085 28.334 26.9085V27.7085C28.638 27.6925 28.782 27.9645 28.782 28.3485C28.782 28.7485 28.542 28.7485 28.542 28.7485V31.0205H29.118V27.9005Z" fill="white" stroke="black" stroke-width="0.16"/>
<path d="M30.6388 21.7085H33.3908M30.3188 22.5725H33.6788M29.9988 23.6125H33.9828M29.6628 24.8765H34.3828M29.5508 26.3165H34.4148" stroke="black" stroke-width="0.128"/>
<path d="M28.0781 31.0525H35.8541M30.5421 31.0525H33.4221V32.1085H30.5421V31.0525Z" stroke="black" stroke-width="0.16"/>
<path d="M30.1895 28.6845C30.6695 29.2605 30.6055 30.2365 30.6055 30.8125H33.3895C33.3895 30.2365 33.3255 29.2605 33.8055 28.6845H30.1895ZM31.7415 22.1245L31.3575 21.9165V21.3565C31.5175 21.4045 31.6775 21.4205 31.7095 21.6765C31.7575 21.3085 31.8695 21.3405 32.0135 21.1965C32.1735 21.3405 32.2535 21.3085 32.3175 21.6765C32.3175 21.4205 32.5095 21.4045 32.6535 21.3565V21.9165L32.2855 22.1085L31.7415 22.1245Z" fill="white" stroke="black" stroke-width="0.16"/>
<path d="M31.7103 23.0365L31.0703 22.5885V22.0925C31.3103 22.1405 31.5503 22.1725 31.5823 22.4445C31.6463 22.0445 31.7903 21.8525 32.0143 21.6925C32.2223 21.8525 32.3663 22.0445 32.4463 22.4445C32.4623 22.1725 32.7183 22.1405 32.9263 22.0925V22.6045L32.3023 23.0365H31.7103Z" fill="white" stroke="black" stroke-width="0.16"/>
<path d="M31.6622 24.4605L30.9422 23.8205V23.0685C31.1982 23.1325 31.4862 23.1645 31.5182 23.5645C31.5982 23.0045 31.7582 22.7005 31.9982 22.4765C32.2542 22.7005 32.4142 23.0045 32.5102 23.5645C32.5422 23.1645 32.8302 23.1325 33.0862 23.0685V23.8205L32.3502 24.4605H31.6622ZM33.0062 25.3085L32.3662 26.2205H31.6142L30.9582 25.3085H33.0062ZM30.5742 26.8285C30.8942 27.0045 31.0222 27.3725 31.0542 28.0445H32.9102C32.9422 27.3725 33.0702 27.0045 33.3902 26.8285H30.5742Z" fill="white" stroke="black" stroke-width="0.16"/>
<path d="M33.421 25.2925V24.3965C33.2833 24.4258 33.1552 24.4897 33.0489 24.582C32.9425 24.6744 32.8614 24.7922 32.813 24.9245C32.813 24.6045 32.413 23.9165 31.981 23.5645C31.549 23.9485 31.133 24.5885 31.149 24.9085C31.069 24.6685 30.861 24.4765 30.541 24.3965V25.3085L33.421 25.2925Z" fill="white" stroke="black" stroke-width="0.16" stroke-linejoin="bevel"/>
<path d="M33.5501 26.8285V25.9325C33.2141 26.0285 32.9901 26.2045 32.8941 26.4605C32.8941 26.1405 32.4621 25.4525 31.9821 25.1005C31.5021 25.5005 31.0541 26.1245 31.0701 26.4605C30.9901 26.2205 30.7501 26.0285 30.4141 25.9325V26.8445L33.5501 26.8285Z" fill="white" stroke="black" stroke-width="0.16" stroke-linejoin="bevel"/>
<path d="M33.9337 28.7005V27.6445C33.6005 27.7486 33.3127 27.963 33.1177 28.2525C33.1177 27.6925 32.4777 26.8125 31.9817 26.5405C31.4697 26.8285 30.8457 27.7245 30.8457 28.2525C30.6457 27.961 30.3522 27.7465 30.0137 27.6445V28.7005H33.9337Z" fill="white" stroke="black" stroke-width="0.16" stroke-linejoin="bevel"/>
<path d="M33.7099 31.0525V29.9645C33.3259 30.1085 33.2299 30.4605 33.1019 30.7165C33.1499 29.6125 32.4939 28.4445 31.9819 28.1405C31.4699 28.4445 30.7979 29.6445 30.8619 30.7005C30.7339 30.4765 30.6219 30.1085 30.2539 29.9645V31.0365L33.7099 31.0525Z" fill="white" stroke="black" stroke-width="0.16" stroke-linejoin="bevel"/>
<path d="M33.4538 32.6845V31.5965C33.0538 31.6925 33.0378 31.8365 32.9098 32.0765C32.9578 31.4205 32.4938 30.6685 31.9818 30.3805C31.4698 30.6685 31.0218 31.4205 31.0538 32.0765C30.9258 31.8365 30.9098 31.6925 30.5098 31.5965V32.6845H33.4538Z" fill="white" stroke="black" stroke-width="0.16"/>
<path d="M16.5895 36.6845V33.4205C16.4775 33.0045 16.1095 32.6205 15.8535 32.5565V29.6765L16.4455 29.9965L17.1335 33.0205V36.7005L16.5895 36.6845Z" fill="white" stroke="black" stroke-width="0.16"/>
<path d="M16.5895 36.7005V33.4205C16.4775 33.0045 16.1095 32.6205 15.8535 32.5565V29.4845C16.2535 29.4845 16.4455 29.9965 16.4455 29.9965L17.1335 33.0205V36.6845L16.5895 36.7005Z" fill="white" stroke="black" stroke-width="0.16"/>
<path d="M16.1582 37.5325C16.4302 37.4205 16.8302 37.0685 16.8302 36.7325V32.6365L16.6382 32.3165H23.6302L23.3582 32.6365V36.7325C23.3699 36.9021 23.4265 37.0655 23.5221 37.2061C23.6176 37.3466 23.7488 37.4593 23.9022 37.5325H16.1582Z" fill="white" stroke="black" stroke-width="0.16"/>
<path d="M22.4768 37.5325C22.2048 37.4205 21.8048 37.0685 21.8048 36.7325V32.8445L22.3808 32.3005H17.6448L18.2208 32.8445V36.7325C18.2208 37.0685 17.8208 37.4205 17.5488 37.5325H22.4768Z" fill="white" stroke="black" stroke-width="0.16"/>
<path d="M21.8211 37.5325C21.5491 37.4205 21.1331 37.0685 21.1331 36.7325V33.2125L21.5171 32.6845H18.5091L18.8931 33.2125V36.7325C18.8931 37.0685 18.4931 37.4205 18.2051 37.5325H21.8211Z" fill="white" stroke="black" stroke-width="0.16"/>
<path d="M19.309 32.6845H20.733V37.5485H19.293L19.309 32.6845Z" fill="white" stroke="black" stroke-width="0.16"/>
<path d="M17.3417 34.0285H17.9177V36.6685H17.3417V34.0285ZM22.2697 34.0285H22.8297V36.6685H22.2537L22.2697 34.0285ZM16.8457 29.5805H17.5497V32.3005H16.8457V29.5805ZM16.8457 29.0685H17.5337V29.5805H16.8457V29.0685ZM22.5417 30.1725H23.5177V32.2525H22.5417V30.1725Z" fill="white"/>
<path d="M16.8457 29.5805H17.5497V32.3005H16.8457V29.5805ZM16.8457 29.5805H17.5337V29.0685H16.8457V29.5805ZM17.3417 34.0285H17.9177V36.6685H17.3417V34.0285ZM22.2697 34.0285H22.8297V36.6685H22.2537L22.2697 34.0285ZM22.5417 30.1725H23.5177V32.2525H22.5417V30.1725Z" stroke="black" stroke-width="0.16" stroke-linejoin="bevel"/>
<path d="M17.5337 32.2685V27.6285C17.7257 27.6285 17.7577 28.3165 18.2057 28.3165C18.4457 28.3165 18.4297 28.0285 18.2857 27.8045C18.1737 27.5965 18.0297 27.3245 18.2217 26.7965C18.3657 27.1965 18.7177 27.3245 18.6537 27.0845C18.5417 26.6525 18.2057 26.5725 18.4617 25.9165C18.5417 26.4605 18.8937 26.4445 18.8137 26.1245C18.7177 25.7565 18.5097 25.5965 18.7657 25.0845C18.9097 25.6765 19.0857 25.6445 19.0857 25.2765C19.0857 24.7325 19.0857 24.1565 19.7577 23.9485C19.7577 23.9485 19.8057 23.4685 20.0617 23.4685C20.3017 23.4685 20.3497 23.9485 20.3497 23.9485C21.0377 24.1565 21.0217 24.7485 21.0217 25.2765C21.0217 25.6445 21.1977 25.6765 21.3417 25.0845C21.5977 25.5965 21.3897 25.7565 21.2937 26.1245C21.2137 26.4445 21.5657 26.4605 21.6457 25.9165C21.9017 26.5725 21.5657 26.6525 21.4537 27.0845C21.3897 27.3245 21.7417 27.1965 21.8857 26.7965C22.0777 27.3245 21.9337 27.5965 21.8217 27.8045C21.6937 28.0285 21.6617 28.3165 21.9017 28.3165C22.3497 28.3165 22.3817 27.6445 22.5737 27.6445V32.2685H17.5337ZM16.4297 28.7645V32.3005H16.8297V28.7645C16.6857 28.6845 16.5577 28.6845 16.4297 28.7645Z" fill="white" stroke="black" stroke-width="0.16"/>
<path d="M16.4609 31.0525C16.9569 31.3085 17.4529 31.6125 17.5809 32.3005H16.4609V31.0525ZM23.3729 29.9965V32.3005H23.6929V29.9965C23.5969 29.9485 23.4529 29.9325 23.3729 29.9965Z" fill="white" stroke="black" stroke-width="0.16"/>
<path d="M23.6927 31.0525C23.1967 31.2925 22.7007 31.5805 22.5727 32.2845H23.6927V31.0525ZM20.3967 25.6605L20.6847 25.4205V25.1005C20.5887 25.1005 20.5247 25.1485 20.4447 25.2605C20.4136 25.1578 20.3622 25.0623 20.2935 24.9799C20.2248 24.8974 20.1401 24.8296 20.0447 24.7805C19.9478 24.8261 19.8611 24.8907 19.7896 24.9704C19.7182 25.0501 19.6634 25.1433 19.6287 25.2445C19.5487 25.1325 19.5007 25.1165 19.3887 25.0845V25.4045L19.6767 25.6605H20.3967Z" fill="white" stroke="black" stroke-width="0.16"/>
<path d="M20.5567 26.4445L20.6847 26.1405V25.7405C20.5887 25.7405 20.5247 25.7885 20.4447 25.9005C20.4136 25.7977 20.3622 25.7023 20.2935 25.6198C20.2248 25.5374 20.1401 25.4696 20.0447 25.4205C19.9478 25.4661 19.8611 25.5306 19.7896 25.6103C19.7182 25.69 19.6634 25.7833 19.6287 25.8845C19.5487 25.7725 19.5007 25.7565 19.3887 25.7405V26.1405L19.5167 26.4445H20.5567Z" fill="white" stroke="black" stroke-width="0.16"/>
<path d="M20.5903 27.5005L21.0063 26.9725V26.4605C20.8463 26.4605 20.7663 26.5405 20.6543 26.7165C20.5423 26.3485 20.3343 26.2845 20.0463 26.1085C19.7423 26.2685 19.5343 26.3485 19.4383 26.7005C19.3103 26.5245 19.2303 26.4765 19.0703 26.4605V26.9725L19.5023 27.5005H20.5903Z" fill="white" stroke="black" stroke-width="0.16"/>
<path d="M20.7017 28.5405C20.7017 28.5405 21.2137 28.1085 21.2297 27.8685V27.3085C21.0377 27.3245 20.8617 27.3725 20.7177 27.6125C20.5897 27.1485 20.3977 27.0205 20.0457 26.8125C19.6777 27.0205 19.4857 27.1485 19.3737 27.6125C19.2137 27.3725 19.0537 27.3245 18.8457 27.2925V27.8685C18.9801 28.1223 19.1589 28.3499 19.3737 28.5405H20.7017Z" fill="white" stroke="black" stroke-width="0.16"/>
<path d="M20.9089 30.4605C20.9089 30.4605 21.6129 29.7085 21.6289 29.4045V28.5405C21.3729 28.5725 21.1169 28.7485 20.9249 29.1165C20.7649 28.3965 20.5089 27.9005 20.0449 27.5485C19.5649 27.9005 19.3089 28.3965 19.1489 29.1165C18.9569 28.7485 18.7169 28.5725 18.4609 28.5405V29.4045C18.5089 29.7085 19.1649 30.4605 19.1649 30.4605H20.9089Z" fill="white" stroke="black" stroke-width="0.16"/>
<path d="M20.9089 31.5965C20.9089 31.5965 21.5009 31.0045 21.6289 30.7485V29.8845C21.3729 29.9165 21.1169 30.0925 20.9249 30.4445C20.8821 30.1534 20.7824 29.8735 20.6314 29.621C20.4804 29.3684 20.2811 29.148 20.0449 28.9725C19.5649 29.3245 19.3089 29.7245 19.1489 30.4445C18.9569 30.0925 18.7169 29.9165 18.4609 29.8845V30.7485C18.6209 31.0045 19.1649 31.5965 19.1649 31.5965H20.9089Z" fill="white" stroke="black" stroke-width="0.16"/>
<path d="M21.1493 32.2685C20.9893 31.5165 20.8293 30.9565 20.0133 30.3965C19.1813 30.9565 19.0373 31.5165 18.8613 32.2685H21.1493Z" fill="white" stroke="black" stroke-width="0.16"/>
<path d="M21.5809 32.6845V31.5965C21.1969 31.7565 20.8609 31.9645 20.7329 32.2045C20.6049 31.5965 20.3329 31.3405 19.9969 30.9725C19.6609 31.3405 19.4369 31.6125 19.2929 32.2045C19.1649 31.9645 18.8289 31.7405 18.4609 31.5965V32.6845H21.5809Z" fill="white" stroke="black" stroke-width="0.16"/>
<path d="M47.4222 36.6845V33.4205C47.5342 33.0045 47.9022 32.6205 48.1582 32.5565V29.6765L47.5662 29.9965L46.8782 33.0205V36.7005L47.4222 36.6845Z" fill="white" stroke="black" stroke-width="0.16"/>
<path d="M47.4222 36.7005V33.4205C47.5342 33.0045 47.9022 32.6205 48.1582 32.5565V29.4845C47.7582 29.4845 47.5662 29.9965 47.5662 29.9965L46.8782 33.0205V36.6845L47.4222 36.7005Z" fill="white" stroke="black" stroke-width="0.16"/>
<path d="M47.8535 37.5325C47.5815 37.4205 47.1815 37.0685 47.1815 36.7325V32.6365L47.3735 32.3165H40.3815L40.6535 32.6365V36.7325C40.6418 36.9021 40.5852 37.0655 40.4897 37.2061C40.3941 37.3466 40.2629 37.4593 40.1095 37.5325H47.8535Z" fill="white" stroke="black" stroke-width="0.16"/>
<path d="M41.5349 37.5325C41.8069 37.4205 42.2069 37.0685 42.2069 36.7325V32.8445L41.6309 32.3005H46.3669L45.7909 32.8445V36.7325C45.7909 37.0685 46.1909 37.4205 46.4629 37.5325H41.5349Z" fill="white" stroke="black" stroke-width="0.16"/>
<path d="M42.1906 37.5325C42.4626 37.4205 42.8786 37.0685 42.8786 36.7325V33.2125L42.4946 32.6845H45.5026L45.1186 33.2125V36.7325C45.1186 37.0685 45.5186 37.4205 45.8066 37.5325H42.1906Z" fill="white" stroke="black" stroke-width="0.16"/>
<path d="M44.7028 32.6845H43.2787V37.5485H44.7188L44.7028 32.6845Z" fill="white" stroke="black" stroke-width="0.16"/>
<path d="M46.67 34.0285H46.094V36.6685H46.67V34.0285ZM41.742 34.0285H41.182V36.6685H41.758L41.742 34.0285ZM47.166 29.5805H46.462V32.3005H47.166V29.5805ZM47.166 29.0685H46.478V29.5805H47.166V29.0685ZM41.47 30.1725H40.494V32.2525H41.47V30.1725Z" fill="white"/>
<path d="M47.166 29.5805H46.462V32.3005H47.166V29.5805ZM47.166 29.5805H46.478V29.0685H47.166V29.5805ZM46.67 34.0285H46.094V36.6685H46.67V34.0285ZM41.742 34.0285H41.182V36.6685H41.758L41.742 34.0285ZM41.47 30.1725H40.494V32.2525H41.47V30.1725Z" stroke="black" stroke-width="0.16" stroke-linejoin="bevel"/>
<path d="M46.478 32.2685V27.6285C46.286 27.6285 46.254 28.3165 45.806 28.3165C45.566 28.3165 45.582 28.0285 45.726 27.8045C45.838 27.5965 45.982 27.3245 45.79 26.7965C45.646 27.1965 45.294 27.3245 45.358 27.0845C45.47 26.6525 45.806 26.5725 45.55 25.9165C45.47 26.4605 45.118 26.4445 45.198 26.1245C45.294 25.7565 45.502 25.5965 45.246 25.0845C45.102 25.6765 44.926 25.6445 44.926 25.2765C44.926 24.7325 44.926 24.1565 44.254 23.9485C44.254 23.9485 44.206 23.4685 43.95 23.4685C43.71 23.4685 43.662 23.9485 43.662 23.9485C42.974 24.1565 42.99 24.7485 42.99 25.2765C42.99 25.6445 42.814 25.6765 42.67 25.0845C42.414 25.5965 42.622 25.7565 42.718 26.1245C42.798 26.4445 42.446 26.4605 42.366 25.9165C42.11 26.5725 42.446 26.6525 42.558 27.0845C42.622 27.3245 42.27 27.1965 42.126 26.7965C41.934 27.3245 42.078 27.5965 42.19 27.8045C42.318 28.0285 42.35 28.3165 42.11 28.3165C41.662 28.3165 41.63 27.6445 41.438 27.6445V32.2685H46.478ZM47.582 28.7645V32.3005H47.182V28.7645C47.326 28.6845 47.454 28.6845 47.582 28.7645Z" fill="white" stroke="black" stroke-width="0.16"/>
<path d="M47.5508 31.0525C47.0548 31.3085 46.5588 31.6125 46.4308 32.3005H47.5508V31.0525ZM40.6388 29.9965V32.3005H40.3188V29.9965C40.4148 29.9485 40.5588 29.9325 40.6388 29.9965Z" fill="white" stroke="black" stroke-width="0.16"/>
<path d="M40.319 31.0525C40.815 31.2925 41.311 31.5805 41.439 32.2845H40.319V31.0525ZM43.615 25.6605L43.327 25.4205V25.1005C43.423 25.1005 43.487 25.1485 43.567 25.2605C43.5981 25.1578 43.6495 25.0623 43.7182 24.9799C43.787 24.8974 43.8716 24.8296 43.967 24.7805C44.0639 24.8261 44.1506 24.8907 44.2221 24.9704C44.2935 25.0501 44.3483 25.1433 44.383 25.2445C44.463 25.1325 44.511 25.1165 44.623 25.0845V25.4045L44.335 25.6605H43.615Z" fill="white" stroke="black" stroke-width="0.16"/>
<path d="M43.455 26.4445L43.327 26.1405V25.7405C43.423 25.7405 43.487 25.7885 43.567 25.9005C43.5981 25.7977 43.6495 25.7023 43.7182 25.6198C43.787 25.5374 43.8716 25.4696 43.967 25.4205C44.0639 25.4661 44.1506 25.5306 44.2221 25.6103C44.2935 25.69 44.3483 25.7833 44.383 25.8845C44.463 25.7725 44.511 25.7565 44.623 25.7405V26.1405L44.495 26.4445H43.455Z" fill="white" stroke="black" stroke-width="0.16"/>
<path d="M43.4214 27.5005L43.0054 26.9725V26.4605C43.1654 26.4605 43.2454 26.5405 43.3574 26.7165C43.4694 26.3485 43.6774 26.2845 43.9654 26.1085C44.2694 26.2685 44.4774 26.3485 44.5734 26.7005C44.7014 26.5245 44.7814 26.4765 44.9414 26.4605V26.9725L44.5094 27.5005H43.4214Z" fill="white" stroke="black" stroke-width="0.16"/>
<path d="M43.31 28.5405C43.31 28.5405 42.798 28.1085 42.782 27.8685V27.3085C42.974 27.3245 43.15 27.3725 43.294 27.6125C43.422 27.1485 43.614 27.0205 43.966 26.8125C44.334 27.0205 44.526 27.1485 44.638 27.6125C44.798 27.3725 44.958 27.3245 45.166 27.2925V27.8685C45.0316 28.1223 44.8528 28.3499 44.638 28.5405H43.31Z" fill="white" stroke="black" stroke-width="0.16"/>
<path d="M43.1028 30.4605C43.1028 30.4605 42.3988 29.7085 42.3828 29.4045V28.5405C42.6388 28.5725 42.8948 28.7485 43.0868 29.1165C43.2468 28.3965 43.5028 27.9005 43.9668 27.5485C44.4468 27.9005 44.7028 28.3965 44.8628 29.1165C45.0548 28.7485 45.2948 28.5725 45.5508 28.5405V29.4045C45.5028 29.7085 44.8468 30.4605 44.8468 30.4605H43.1028Z" fill="white" stroke="black" stroke-width="0.16"/>
<path d="M43.1028 31.5965C43.1028 31.5965 42.5108 31.0045 42.3828 30.7485V29.8845C42.6388 29.9165 42.8948 30.0925 43.0868 30.4445C43.1296 30.1534 43.2293 29.8735 43.3803 29.621C43.5313 29.3684 43.7306 29.148 43.9668 28.9725C44.4468 29.3245 44.7028 29.7245 44.8628 30.4445C45.0548 30.0925 45.2948 29.9165 45.5508 29.8845V30.7485C45.3908 31.0045 44.8468 31.5965 44.8468 31.5965H43.1028Z" fill="white" stroke="black" stroke-width="0.16"/>
<path d="M42.8624 32.2685C43.0224 31.5165 43.1824 30.9565 43.9984 30.3965C44.8304 30.9565 44.9744 31.5165 45.1504 32.2685H42.8624Z" fill="white" stroke="black" stroke-width="0.16"/>
<path d="M42.4308 32.6845V31.5965C42.8148 31.7565 43.1508 31.9645 43.2788 32.2045C43.4068 31.5965 43.6788 31.3405 44.0148 30.9725C44.3508 31.3405 44.5748 31.6125 44.7188 32.2045C44.8468 31.9645 45.1828 31.7405 45.5508 31.5965V32.6845H42.4308Z" fill="white" stroke="black" stroke-width="0.16"/>
<path d="M12.3818 41.5005H51.6298V43.5005H12.3818V41.5005ZM11.3418 43.5005H52.6698V45.5005H11.3418V43.5005ZM14.4458 38.4925H49.5498V39.7885H14.4458V38.4925Z" fill="white" stroke="black" stroke-width="0.16"/>
<path d="M13.4219 39.7885H50.6059V41.4845H13.4219V39.7885ZM15.0539 37.5005H48.9739V38.4925H15.0539V37.5005Z" fill="white" stroke="black" stroke-width="0.16"/>
<path d="M18.7344 37.5005H21.2944V45.5005H18.7344V37.5005Z" fill="white" stroke="black" stroke-width="0.16"/>
<path d="M19.309 37.5005H20.733V45.5005H19.293L19.309 37.5005ZM30.669 37.5005H33.229V45.5005H30.669V37.5005Z" fill="white" stroke="black" stroke-width="0.16"/>
<path d="M31.2617 37.5005H32.7017V45.5005H31.2617V37.5005ZM42.7017 37.5005H45.2617V45.5005H42.7017V37.5005Z" fill="white" stroke="black" stroke-width="0.16"/>
<path d="M43.2617 37.5005H44.7017V45.5005H43.2617V37.5005Z" fill="white" stroke="black" stroke-width="0.16"/>
<path d="M16.5898 36.6845H47.4698M19.2778 44.4925H20.7498M19.2778 43.4845H20.7498M19.2778 42.4925H20.7498M19.2778 41.4845H20.7498M19.2778 40.4925H20.7498M19.2778 39.4845H20.7498M19.2778 38.4925H20.7498M31.2778 44.4925H32.6538M31.2778 43.4845H32.6538M31.2778 42.4925H32.6538M31.2778 41.4845H32.6538M31.2778 40.4925H32.6538M31.2778 39.4845H32.6538M31.2778 38.4925H32.6538M43.2458 44.4925H44.7178M43.2458 43.4845H44.7178M43.2458 42.4925H44.7178M43.2458 41.4845H44.7178M43.2458 40.4925H44.7178M43.2458 39.4845H44.7178M43.2458 38.4925H44.7178" stroke="black" stroke-width="0.16"/>
</g>
<defs>
<clipPath id="clip0_10660_9990">
<rect width="64" height="64" rx="32" fill="white"/>
</clipPath>
</defs>
</svg>
