<svg width="64" height="64" viewBox="0 0 64 64" fill="none" xmlns="http://www.w3.org/2000/svg">
<g clip-path="url(#clip0_10660_10063)">
<path d="M0 0H21.3375V64H0V0Z" fill="#007A5E"/>
<path d="M21.3379 0H42.6629V64H21.3379V0Z" fill="#CE1126"/>
<path d="M42.6621 0H63.9996V64H42.6621V0Z" fill="#FCD116"/>
<path d="M32.0004 26.3111L30.2227 31.7156L32.9249 32.64L32.0004 26.3111Z" fill="#FCD116"/>
<path d="M31.9996 26.3111L33.7773 31.7156L31.0751 32.64L31.9996 26.3111Z" fill="#FCD116"/>
<path d="M37.4107 30.242L31.7214 30.2213L31.6772 33.077L37.4107 30.242Z" fill="#FCD116"/>
<path d="M37.4116 30.242L32.821 33.6029L31.1068 31.3186L37.4116 30.242Z" fill="#FCD116"/>
<path d="M35.3449 36.6024L33.6065 31.1852L30.877 32.0256L35.3449 36.6024Z" fill="#FCD116"/>
<path d="M35.3445 36.6024L30.7296 33.2751L32.3724 30.9389L35.3445 36.6024Z" fill="#FCD116"/>
<path d="M28.6574 36.6024L33.2724 33.2751L31.6296 30.9389L28.6574 36.6024Z" fill="#FCD116"/>
<path d="M28.657 36.6024L30.3954 31.1852L33.1249 32.0256L28.657 36.6024Z" fill="#FCD116"/>
<path d="M26.5904 30.242L31.181 33.6029L32.8952 31.3186L26.5904 30.242Z" fill="#FCD116"/>
<path d="M26.5913 30.242L32.2806 30.2213L32.3247 33.077L26.5913 30.242Z" fill="#FCD116"/>
</g>
<defs>
<clipPath id="clip0_10660_10063">
<rect width="64" height="64" rx="32" fill="white"/>
</clipPath>
</defs>
</svg>
