<svg width="64" height="64" viewBox="0 0 64 64" fill="none" xmlns="http://www.w3.org/2000/svg">
<g clip-path="url(#clip0_11297_21272)">
<path d="M0 0H64V64H0V0Z" fill="#003893"/>
<path d="M0 32H108.8V48H0V32Z" fill="white"/>
<path d="M0 37.3333H108.8V42.6666H0V37.3333Z" fill="#CF2027"/>
<path d="M31.9883 20.8L30.9994 23.8434L32.5211 24.3379" fill="#F7D116"/>
<path d="M31.9883 20.8L32.9771 23.8434L31.4554 24.3379" fill="#F7D116"/>
<path d="M35.0312 23.0112H31.8313V24.6112" fill="#F7D116"/>
<path d="M35.0312 23.0112L32.4424 24.8921L31.5019 23.5977" fill="#F7D116"/>
<path d="M33.8691 26.5896L32.8803 23.5462L31.3586 24.0406" fill="#F7D116"/>
<path d="M33.8691 26.5896L31.2803 24.7087L32.2207 23.4143" fill="#F7D116"/>
<path d="M30.1074 26.5884L32.6963 24.7075L31.7558 23.413" fill="#F7D116"/>
<path d="M30.1074 26.5884L31.0963 23.545L32.618 24.0394" fill="#F7D116"/>
<path d="M28.9453 23.0107L31.5342 24.8917L32.4746 23.5972" fill="#F7D116"/>
<path d="M28.9453 23.0107H32.1453V24.6107" fill="#F7D116"/>
<path d="M31.9883 52.8L30.9994 55.8434L32.5211 56.3379" fill="#F7D116"/>
<path d="M31.9883 52.8L32.9771 55.8434L31.4554 56.3379" fill="#F7D116"/>
<path d="M35.0312 55.0112H31.8313V56.6112" fill="#F7D116"/>
<path d="M35.0312 55.0112L32.4424 56.8921L31.5019 55.5977" fill="#F7D116"/>
<path d="M33.8691 58.5896L32.8803 55.5462L31.3586 56.0406" fill="#F7D116"/>
<path d="M33.8691 58.5896L31.2803 56.7087L32.2207 55.4143" fill="#F7D116"/>
<path d="M30.1074 58.5884L32.6963 56.7075L31.7558 55.413" fill="#F7D116"/>
<path d="M30.1074 58.5884L31.0963 55.545L32.618 56.0394" fill="#F7D116"/>
<path d="M28.9453 55.0107L31.5342 56.8917L32.4746 55.5972" fill="#F7D116"/>
<path d="M28.9453 55.0107H32.1453V56.6107" fill="#F7D116"/>
<path d="M50.248 34.0671H47.048V35.6671" fill="#F7D116"/>
<path d="M50.248 34.0671L47.6592 35.9481L46.7187 34.6536" fill="#F7D116"/>
<path d="M49.0859 37.6448L48.0971 34.6014L46.5754 35.0958" fill="#F7D116"/>
<path d="M49.0859 37.6448L46.4971 35.7639L47.4375 34.4694" fill="#F7D116"/>
<path d="M45.3242 37.6443L47.9131 35.7634L46.9726 34.4689" fill="#F7D116"/>
<path d="M45.3242 37.6443L46.3131 34.6009L47.8348 35.0953" fill="#F7D116"/>
<path d="M44.1621 34.0669L46.751 35.9478L47.6914 34.6534" fill="#F7D116"/>
<path d="M44.1621 34.0669H47.3621V35.6669" fill="#F7D116"/>
<path d="M47.2051 31.856L46.2162 34.8993L47.7379 35.3938" fill="#F7D116"/>
<path d="M47.2051 31.856L48.1939 34.8993L46.6722 35.3938" fill="#F7D116"/>
<path d="M19.8145 43.9556H16.6145V45.5556" fill="#F7D116"/>
<path d="M19.8145 43.9556L17.2256 45.8365L16.2851 44.5421" fill="#F7D116"/>
<path d="M18.6523 47.5332L17.6635 44.4898L16.1418 44.9842" fill="#F7D116"/>
<path d="M18.6523 47.5332L16.0635 45.6523L17.0039 44.3579" fill="#F7D116"/>
<path d="M14.8906 47.5327L17.4795 45.6518L16.539 44.3574" fill="#F7D116"/>
<path d="M14.8906 47.5327L15.8795 44.4893L17.4012 44.9838" fill="#F7D116"/>
<path d="M13.7285 43.9553L16.3174 45.8362L17.2578 44.5418" fill="#F7D116"/>
<path d="M13.7285 43.9553H16.9285V45.5553" fill="#F7D116"/>
<path d="M16.7715 41.7444L15.7826 44.7878L17.3043 45.2822" fill="#F7D116"/>
<path d="M16.7715 41.7444L17.7603 44.7878L16.2386 45.2822" fill="#F7D116"/>
<path d="M43.2754 55.5337L42.2865 52.4903L40.7648 52.9847" fill="#F7D116"/>
<path d="M43.2754 55.5337L40.6865 53.6528L41.627 52.3584" fill="#F7D116"/>
<path d="M39.5137 55.533L42.1025 53.652L41.1621 52.3576" fill="#F7D116"/>
<path d="M39.5137 55.533L40.5025 52.4896L42.0242 52.984" fill="#F7D116"/>
<path d="M38.3516 51.9553L40.9404 53.8362L41.8809 52.5418" fill="#F7D116"/>
<path d="M38.3516 51.9553H41.5516V53.5553" fill="#F7D116"/>
<path d="M41.3926 49.7444L40.4037 52.7878L41.9254 53.2822" fill="#F7D116"/>
<path d="M41.3926 49.7444L42.3814 52.7878L40.8597 53.2822" fill="#F7D116"/>
<path d="M44.4375 51.9561H41.2375V53.5561" fill="#F7D116"/>
<path d="M44.4375 51.9561L41.8486 53.837L40.9082 52.5425" fill="#F7D116"/>
<path d="M24.4668 29.6453L23.4779 26.6019L21.9563 27.0963" fill="#F7D116"/>
<path d="M24.4668 29.6453L21.8779 27.7644L22.8184 26.4699" fill="#F7D116"/>
<path d="M20.7051 29.6445L23.2939 27.7636L22.3535 26.4692" fill="#F7D116"/>
<path d="M20.7051 29.6445L21.6939 26.6012L23.2156 27.0956" fill="#F7D116"/>
<path d="M19.543 26.0669L22.1318 27.9478L23.0723 26.6534" fill="#F7D116"/>
<path d="M19.543 26.0669H22.743V27.6669" fill="#F7D116"/>
<path d="M22.584 23.856L21.5951 26.8993L23.1168 27.3938" fill="#F7D116"/>
<path d="M22.584 23.856L23.5728 26.8993L22.0511 27.3938" fill="#F7D116"/>
<path d="M25.6289 26.0676H22.4289V27.6676" fill="#F7D116"/>
<path d="M25.6289 26.0676L23.0401 27.9485L22.0996 26.6541" fill="#F7D116"/>
<path d="M20.707 55.5327L23.2959 53.6518L22.3554 52.3574" fill="#F7D116"/>
<path d="M20.707 55.5327L21.6959 52.4893L23.2176 52.9838" fill="#F7D116"/>
<path d="M19.5449 51.9553L22.1338 53.8362L23.0742 52.5418" fill="#F7D116"/>
<path d="M19.5449 51.9553H22.7449V53.5553" fill="#F7D116"/>
<path d="M22.5859 49.7446L21.5971 52.788L23.1188 53.2824" fill="#F7D116"/>
<path d="M22.5859 49.7446L23.5748 52.788L22.0531 53.2824" fill="#F7D116"/>
<path d="M25.6309 51.9558H22.4309V53.5558" fill="#F7D116"/>
<path d="M25.6309 51.9558L23.042 53.8367L22.1015 52.5423" fill="#F7D116"/>
<path d="M24.4688 55.5337L23.4799 52.4903L21.9582 52.9847" fill="#F7D116"/>
<path d="M24.4688 55.5337L21.8799 53.6528L22.8204 52.3584" fill="#F7D116"/>
<path d="M39.5156 29.644L42.1045 27.7631L41.164 26.4687" fill="#F7D116"/>
<path d="M39.5156 29.644L40.5045 26.6007L42.0262 27.0951" fill="#F7D116"/>
<path d="M38.3535 26.0667L40.9424 27.9476L41.8828 26.6531" fill="#F7D116"/>
<path d="M38.3535 26.0667H41.5535V27.6667" fill="#F7D116"/>
<path d="M41.3926 23.8557L40.4037 26.8991L41.9254 27.3935" fill="#F7D116"/>
<path d="M41.3926 23.8557L42.3814 26.8991L40.8597 27.3935" fill="#F7D116"/>
<path d="M44.4395 26.0671H41.2395V27.6671" fill="#F7D116"/>
<path d="M44.4395 26.0671L41.8506 27.9481L40.9101 26.6536" fill="#F7D116"/>
<path d="M43.2773 29.645L42.2885 26.6016L40.7668 27.0961" fill="#F7D116"/>
<path d="M43.2773 29.645L40.6885 27.7641L41.6289 26.4697" fill="#F7D116"/>
<path d="M13.7285 34.0669L16.3174 35.9478L17.2578 34.6534" fill="#F7D116"/>
<path d="M13.7285 34.0669H16.9285V35.6669" fill="#F7D116"/>
<path d="M16.7715 31.8557L15.7826 34.8991L17.3043 35.3935" fill="#F7D116"/>
<path d="M16.7715 31.8557L17.7603 34.8991L16.2386 35.3935" fill="#F7D116"/>
<path d="M19.8164 34.0671H16.6164V35.6671" fill="#F7D116"/>
<path d="M19.8164 34.0671L17.2276 35.9481L16.2871 34.6536" fill="#F7D116"/>
<path d="M18.6523 37.6448L17.6635 34.6014L16.1418 35.0958" fill="#F7D116"/>
<path d="M18.6523 37.6448L16.0635 35.7639L17.0039 34.4694" fill="#F7D116"/>
<path d="M14.8906 37.6445L17.4795 35.7636L16.539 34.4692" fill="#F7D116"/>
<path d="M14.8906 37.6445L15.8795 34.6012L17.4012 35.0956" fill="#F7D116"/>
<path d="M44.1621 43.9553L46.751 45.8362L47.6914 44.5418" fill="#F7D116"/>
<path d="M44.1621 43.9553H47.3621V45.5553" fill="#F7D116"/>
<path d="M47.2051 41.7444L46.2162 44.7878L47.7379 45.2822" fill="#F7D116"/>
<path d="M47.2051 41.7444L48.1939 44.7878L46.6722 45.2822" fill="#F7D116"/>
<path d="M50.25 43.9556H47.05V45.5556" fill="#F7D116"/>
<path d="M50.25 43.9556L47.6611 45.8365L46.7207 44.5421" fill="#F7D116"/>
<path d="M49.0859 47.5332L48.0971 44.4898L46.5754 44.9842" fill="#F7D116"/>
<path d="M49.0859 47.5332L46.4971 45.6523L47.4375 44.3579" fill="#F7D116"/>
<path d="M45.3242 47.5332L47.9131 45.6523L46.9726 44.3579" fill="#F7D116"/>
<path d="M45.3242 47.5332L46.3131 44.4898L47.8348 44.9842" fill="#F7D116"/>
</g>
<defs>
<clipPath id="clip0_11297_21272">
<rect width="64" height="64" rx="32" fill="white"/>
</clipPath>
</defs>
</svg>
