<svg width="64" height="64" viewBox="0 0 64 64" fill="none" xmlns="http://www.w3.org/2000/svg">
<g clip-path="url(#clip0_11297_21442)">
<path d="M0 31.9999C0 45.9732 8.96 57.8132 21.3333 62.1866V1.81323C8.96 6.18657 0 18.0266 0 31.9999Z" fill="#2A5F9E"/>
<path d="M63.9993 31.9999C63.9993 18.0266 55.146 6.18657 42.666 1.81323V62.1866C55.146 57.8132 63.9993 45.9732 63.9993 31.9999Z" fill="#ED4C5C"/>
<path d="M21.334 62.1867C24.6407 63.36 28.2673 64 32.0007 64C35.734 64 39.3607 63.36 42.6673 62.1867V1.81333C39.3607 0.64 35.734 0 32.0007 0C28.2673 0 24.6407 0.64 21.334 1.81333V62.1867Z" fill="#FFCE31"/>
</g>
<defs>
<clipPath id="clip0_11297_21442">
<rect width="64" height="64" fill="white"/>
</clipPath>
</defs>
</svg>
