<svg width="64" height="64" viewBox="0 0 64 64" fill="none" xmlns="http://www.w3.org/2000/svg">
<g clip-path="url(#clip0_10660_10123)">
<path d="M0 0H64V64H0V0Z" fill="#EE1C25"/>
<path d="M25.6004 13.12L9.28039 23.68L16.0004 6.39999L21.7604 23.68L6.40039 13.12H25.6004Z" fill="#FFFF00"/>
<path d="M29.572 4.13117L35.3871 6.9793L29.3003 8.02515L33.246 3.41589L32.866 9.61333L29.572 4.13117Z" fill="#FFFF00"/>
<path d="M36.9839 9.77603L41.2352 14.6658L35.2171 13.2597L40.6491 10.5473L37.8856 16.1122L36.9839 9.77603Z" fill="#FFFF00"/>
<path d="M38.3217 19.0664L40.2069 25.2692L35.2849 21.5263L41.3542 21.2682L36.5567 25.2217L38.3217 19.0664Z" fill="#FFFF00"/>
<path d="M33.2511 25.704L32.5967 32.1472L29.5039 26.8L35.1967 28.9024L29.2511 30.696L33.2511 25.704Z" fill="#FFFF00"/>
</g>
<defs>
<clipPath id="clip0_10660_10123">
<rect width="64" height="64" rx="32" fill="white"/>
</clipPath>
</defs>
</svg>
