<svg width="64" height="64" viewBox="0 0 64 64" fill="none" xmlns="http://www.w3.org/2000/svg">
<g clip-path="url(#clip0_11523_7934)">
<g clip-path="url(#clip1_11523_7934)">
<path d="M80 0H-16V64H80V0Z" fill="#62BB46"/>
<path d="M44.0934 44.0874C50.774 37.4069 50.774 26.5755 44.0934 19.895C37.4128 13.2144 26.5815 13.2144 19.9009 19.895C13.2204 26.5755 13.2204 37.4069 19.9009 44.0875C26.5815 50.768 37.4128 50.768 44.0934 44.0874Z" fill="#FFE01B"/>
<path d="M26.4443 32.1733C23.8221 30.9333 23.4577 28.2 24.0399 26.9955C23.8577 27.36 24.4043 28.7111 25.2043 29.0355C24.4043 28.5644 24.1821 24.5422 26.9821 23.7511C29.0621 23.1689 30.0443 22.1866 30.2266 21.2755C30.7377 21.6 30.7732 22.6578 30.3732 23.28C31.5377 22.9866 32.0221 22.5911 32.3021 21.7822C32.8888 20.1066 35.4132 20.8933 35.2221 19.3066C35.7688 20.1066 35.2577 21.9733 34.0888 22.5111C35.511 22.4044 36.4977 20.2889 38.4266 20.4C40.3554 20.5111 40.871 20.3644 41.3777 20.0355C40.6488 22.04 38.2666 21.7111 38.0621 22.7333C38.2443 21.7822 40.9421 23.1778 42.111 21.6755C41.8888 22.4755 41.0177 23.7911 39.7777 24.0444C41.4177 23.4222 43.0932 24.7733 44.2977 23.4222C43.9328 24.15 43.3241 24.7266 42.5777 25.0515C41.8313 25.3764 40.9945 25.4289 40.2132 25.2C38.791 24.8355 37.991 26.3689 37.0043 26.4755C38.4621 27.2044 40.1154 25.7866 41.4177 26.8044C42.4977 27.6444 44.1154 26.88 44.5866 26.2222C43.9688 29.8311 40.5066 27.9333 39.9599 28.92C41.0177 28.2266 42.511 30.0133 43.711 29.2844C42.9821 31.0622 40.4666 29.5378 39.9599 30.8533C40.7599 29.9022 42.4754 31.36 43.9599 30.6711C44.5338 30.3935 45.1917 30.3442 45.8006 30.5332C46.4095 30.7221 46.9239 31.1352 47.2399 31.6889C46.1466 30.4133 42.6132 33.9111 39.8754 32.4533C38.4932 31.7244 37.3599 32.5644 36.1954 31.9066C35.031 31.2489 33.791 31.3244 33.1332 32.0533C34.8488 31.4711 36.3421 33.8755 38.2354 32.8933C37.2532 35.2266 34.3021 33.44 32.9021 34.3155C31.5021 35.1911 28.3421 35.16 26.4443 32.1733Z" fill="#ED1C2E"/>
<path d="M22.9551 46.5069L24.3862 41.8491C24.2475 41.7278 24.1499 41.5665 24.1069 41.3873C24.0639 41.2082 24.0776 41.0201 24.1462 40.8491C24.3106 40.7024 24.3684 40.6091 24.2751 40.4624C24.2203 40.3421 24.2033 40.2081 24.2263 40.078C24.2494 39.9478 24.3113 39.8277 24.404 39.7335C24.5684 39.6269 24.6217 39.5735 24.5862 39.3913C24.5017 38.978 24.4395 38.5869 24.7151 38.4402C24.9906 38.2935 24.9506 38.2402 24.9151 37.858C24.8795 37.4757 25.2529 37.0802 25.7329 36.9691C25.6262 36.2313 25.6084 35.7335 25.5151 35.0624C25.4306 34.458 25.3195 34.2846 25.8351 34.2046C25.804 34.0046 25.7862 33.8002 25.7462 33.5335C25.6617 32.9246 25.5773 32.7424 26.0929 32.6446C25.9551 31.6713 25.8262 31.4935 26.3417 31.418C28.0559 31.4426 29.728 31.9527 31.164 32.8891C31.5462 33.2402 31.3462 33.3557 30.6795 34.0846C31.0573 34.4402 30.884 34.5291 30.4706 34.9735C30.2884 35.1735 30.1595 35.3291 30.0262 35.4802C30.404 35.8357 30.2129 35.9246 29.804 36.3691C29.3951 36.8135 29.2351 37.058 28.8395 37.498C29.484 38.1024 30.1729 38.5957 30.3862 39.1202C30.5995 39.6446 30.9329 40.4535 31.4617 40.7246C32.2262 41.1424 32.4617 41.818 33.2395 42.0935C34.0173 42.3691 37.0084 43.5291 38.6129 44.2624C39.6996 44.7412 40.7175 45.363 41.6395 46.1113C39.4622 47.604 36.9662 48.5674 34.3506 48.9246C33.4797 48.1412 32.674 47.288 31.9417 46.3735C31.256 45.5456 30.4942 44.7837 29.6662 44.098C29.2755 43.8388 28.9414 43.5031 28.684 43.1113C28.484 42.7646 28.1195 42.7824 27.5906 42.7646C27.3543 42.751 27.1195 42.7183 26.8884 42.6669L25.3329 47.7424C24.5099 47.3919 23.7149 46.9789 22.9551 46.5069Z" fill="#7D4802"/>
<path d="M24.9731 40.6889C24.502 40.3289 24.5286 39.7734 25.0531 39.5778C25.4041 39.4783 25.7743 39.4669 26.1309 39.5444C26.4874 39.6219 26.8194 39.786 27.0975 40.0222C27.3109 40.2267 27.5686 40.8356 26.9775 41.0756L26.9242 41C26.9996 40.9544 27.0625 40.8908 27.1072 40.8149C27.152 40.739 27.1773 40.6532 27.1808 40.5651C27.1844 40.4771 27.166 40.3895 27.1274 40.3103C27.0888 40.2311 27.0312 40.1627 26.9597 40.1111C26.701 39.9245 26.4052 39.7957 26.0923 39.7336C25.7794 39.6715 25.4568 39.6775 25.1464 39.7511C24.6664 39.9378 24.8486 40.3689 25.0931 40.6134" fill="#FFE01B"/>
<path d="M28.9415 37.4575C28.6437 37.1598 28.1371 36.6753 27.7948 36.7109C27.3853 36.7036 26.9815 36.6128 26.6082 36.4442C26.2082 36.2975 25.8171 36.8175 26.3059 37.2753C26.6794 37.578 27.125 37.7787 27.5993 37.8575C27.7479 38.1249 27.9367 38.3677 28.1593 38.5775C28.247 38.7511 28.2985 38.9406 28.3107 39.1347C28.3229 39.3287 28.2956 39.5233 28.2304 39.7064C28.1478 39.988 28.1543 40.2881 28.249 40.5658C28.3437 40.8435 28.5219 41.0851 28.7593 41.2575C28.9916 41.3607 29.2429 41.414 29.4971 41.414C29.7512 41.414 30.0025 41.3607 30.2348 41.2575C29.9965 41.3295 29.7451 41.3472 29.4991 41.3096C29.253 41.2719 29.0185 41.1797 28.8126 41.0398C28.6336 40.8655 28.5026 40.6478 28.4325 40.4079C28.3624 40.1681 28.3556 39.9142 28.4126 39.6709C28.6837 38.2131 27.8037 38.3687 27.7459 37.7687C27.27 37.6591 26.8181 37.4633 26.4126 37.1909C26.1282 36.9375 26.1859 36.382 26.5948 36.5464C26.9643 36.7001 27.3592 36.783 27.7593 36.7909C28.1237 36.7464 29.2082 37.8575 29.3726 37.9953C29.2446 37.804 29.1004 37.6241 28.9415 37.4575Z" fill="#FFE01B"/>
<path d="M27.1111 40.0934C27.4133 39.9868 27.4533 39.4712 27.1911 39.1645C26.9358 38.942 26.6274 38.7891 26.2957 38.7206C25.964 38.6521 25.6203 38.6703 25.2977 38.7734C25.2367 38.8162 25.1855 38.8717 25.1478 38.936C25.1101 39.0004 25.0866 39.0721 25.079 39.1463C25.0714 39.2204 25.0799 39.2954 25.1038 39.366C25.1278 39.4367 25.1666 39.5013 25.2177 39.5556L25.0666 39.6268C24.84 39.4001 24.7911 38.8134 25.1688 38.6356C25.54 38.4984 25.942 38.4672 26.3298 38.5457C26.7176 38.6242 27.0759 38.8093 27.3644 39.0801C27.6711 39.4445 27.5511 40.1601 27.2044 40.2045L27.1111 40.0934Z" fill="#FFE01B"/>
<path d="M24.494 47.3335L26.2984 41.7023L26.1073 41.6846L24.334 47.2623" fill="#FFE01B"/>
<path d="M28.1964 38.4399L27.0098 42.4399C27.7149 42.6245 28.4557 42.6245 29.1609 42.4399C30.712 43.4266 31.7653 44.8844 32.8987 45.6844C34.032 46.4844 35.8275 48.4044 36.2631 48.5866C36.432 48.5511 36.632 48.4933 36.8675 48.4266C34.9342 46.9333 33.7564 45.8133 33.0409 45.3555C31.7075 44.5022 30.2187 42.6222 29.3075 42.1511C28.5609 42.5688 27.7209 42.3333 27.2275 42.2755L28.2675 38.6666C28.255 38.588 28.231 38.5116 28.1964 38.4399Z" fill="#FFE01B"/>
<path d="M23.6406 46.8621L25.1873 41.9732C24.1251 41.5598 24.2984 40.9021 24.8584 40.6398C25.1726 40.4874 25.5233 40.4262 25.8705 40.4631C26.2178 40.5 26.5477 40.6336 26.8228 40.8487C27.4273 41.2932 27.0717 42.3065 26.3162 41.9198C25.9251 41.7198 25.694 41.4754 25.3606 41.5909C25.5873 41.3243 26.0273 41.4665 26.4228 41.7865C26.6673 41.9909 27.254 41.4221 26.7695 41.0665C26.5357 40.8709 26.2555 40.7388 25.9558 40.6827C25.6562 40.6267 25.3471 40.6487 25.0584 40.7465C24.614 40.9598 24.614 41.3643 24.7784 41.5198C24.9678 41.6829 25.1933 41.7987 25.4362 41.8576L23.7473 47.0043" fill="#FFE01B"/>
<path d="M27.3426 39.1687C27.6493 39.062 27.6893 38.5464 27.4226 38.2442C27.027 37.7998 26.0893 37.4664 25.6004 37.6798C25.3204 37.7998 25.3248 38.3642 25.5204 38.5687L25.3693 38.6353C25.1382 38.4087 25.0893 37.6976 25.467 37.5153C26.0448 37.2442 27.0982 37.5731 27.5915 38.1509C27.8982 38.5153 27.7782 39.2353 27.4315 39.2798L27.3426 39.1687Z" fill="#FFE01B"/>
<path d="M28.7773 38.2979C29.1062 38.769 29.6662 38.969 29.7062 39.4623C29.7213 39.6889 29.7866 39.9093 29.8973 40.1076C30.0079 40.3059 30.1613 40.4772 30.3462 40.609C30.1214 40.4919 29.9269 40.3241 29.778 40.1189C29.6292 39.9138 29.53 39.6768 29.4885 39.4267C29.3773 39.0267 28.8485 38.6979 28.7773 38.2979Z" fill="#FFE01B"/>
<path d="M38.2538 47.9202C36.4844 46.6507 34.8035 45.2624 33.2227 43.7646C34.9382 45.1469 37.9915 47.458 38.6849 47.7646L38.2538 47.9202Z" fill="#FFE01B"/>
<path d="M35.2676 44C36.2498 44.5822 38.4365 45.7111 39.2009 46.5511C39.0409 46.3156 39.0009 46.0756 39.3298 46.2044C38.0347 45.3658 36.6766 44.6288 35.2676 44Z" fill="#FFE01B"/>
<path d="M25.627 34.249C26.9025 33.9602 29.1825 34.6935 30.1647 35.649C29.4625 34.7246 27.2492 33.7779 25.627 34.249Z" fill="#FFE01B"/>
<path d="M25.9336 32.7023C27.2091 32.409 29.6714 33.1467 30.8225 34.2312C29.9247 33.1112 27.5558 32.2267 25.9336 32.7023Z" fill="#FFE01B"/>
<path d="M26.627 36.5109L26.9558 34.1953L27.0847 34.2131L26.7203 36.5286L26.627 36.5109Z" fill="#FFE01B"/>
<path d="M27.084 34.2134L27.1995 32.6445H27.3195L27.1907 34.2312L27.084 34.2134Z" fill="#FFE01B"/>
<path d="M27.3203 32.6442L27.4092 31.4975C27.4549 31.4917 27.5012 31.4917 27.547 31.4975L27.4492 32.6353L27.3203 32.6442Z" fill="#FFE01B"/>
<path d="M27.791 36.7202L28.8799 34.769L28.9866 34.8224L27.9021 36.7557L27.791 36.7202Z" fill="#FFE01B"/>
<path d="M28.9863 34.8176L29.8263 33.4531L29.9241 33.5198L29.093 34.862L28.9863 34.8176Z" fill="#FFE01B"/>
<path d="M29.9062 33.5201L30.5329 32.5112L30.6263 32.5601L29.9951 33.5735L29.9062 33.5201Z" fill="#FFE01B"/>
</g>
</g>
<defs>
<clipPath id="clip0_11523_7934">
<rect width="64" height="64" rx="32" fill="white"/>
</clipPath>
<clipPath id="clip1_11523_7934">
<rect width="96" height="64" fill="white" transform="translate(-16)"/>
</clipPath>
</defs>
</svg>
