<svg width="64" height="64" viewBox="0 0 64 64" fill="none" xmlns="http://www.w3.org/2000/svg">
<g clip-path="url(#clip0_10660_10147)">
<path d="M0 0H64V64H0V0Z" fill="#000066"/>
<path fill-rule="evenodd" clip-rule="evenodd" d="M43.0996 31.2625L43.8121 28.975L41.8871 27.5125L44.3121 27.4875L45.1246 25.225L45.9121 27.4875L48.3371 27.5625L46.3871 28.9875L47.0871 31.2875L45.0996 29.9125M48.8121 31.7125L50.2371 29.8L48.9121 27.7625L51.2121 28.5625L52.7121 26.7125V29.125L54.9621 30.0125L52.6621 30.7L52.5496 33.1L51.1371 31.125M37.6371 33.1875L37.5371 30.7875L35.2371 30.075L37.5121 29.2V26.8125L39.0121 28.675L41.3121 27.9L39.9621 29.9125L41.3871 31.8375L39.0621 31.2125M33.6121 36.8375L32.6121 34.6625L30.2121 34.9125L31.9621 33.225L31.0621 31.0125L33.1496 32.1375L34.9746 30.5125L34.5121 32.9L36.5496 34.1125L34.1746 34.4625M31.7746 42.0875L29.9496 40.575L27.8871 41.825L28.7621 39.5375L27.0121 37.9375L29.3746 38.05L30.3371 35.8L30.9246 38.15L33.2871 38.3625L31.2871 39.7125M31.7246 48L29.4496 47.3375L28.0746 49.3375L27.9746 46.875L25.7246 46.125L27.9371 45.2625V42.8L29.3996 44.7375L31.6496 43.975L30.3371 46.0125M34.3871 53L32.0496 53.325L31.5746 55.7125L30.4996 53.5L28.1496 53.725L29.8371 52.0375L28.8496 49.7875L30.9621 50.95L32.7121 49.325L32.3371 51.7375M38.5121 56.95L36.4246 58.075L36.7996 60.4875L35.0371 58.7875L32.9121 59.825L33.9121 57.65L32.2246 55.8875L34.5996 56.2375L35.6871 54.1125L36.1496 56.4875M43.5371 57.7375L42.4121 59.8375L44.0121 61.65L41.6246 61.2L40.3996 63.25L40.0621 60.875L37.6996 60.325L39.8746 59.3L39.6371 56.925L41.3246 58.6625M49.1996 56.8625L49.1121 59.2625L51.3621 60.1375L49.0371 60.8375L48.8746 63.225L47.4996 61.2625L45.1496 61.875L46.6371 59.95L45.3496 57.9375L47.6371 58.7125M55.1121 30.8125L56.7496 32.55L58.9371 31.5375L57.8121 33.7125L59.3746 35.5L57.0371 35.125L55.8121 37.25L55.4996 34.8375L53.1746 34.3375L55.3246 33.25M60.0246 36.1375L60.7746 38.425L63.1621 38.4625L61.2246 39.925L61.8746 42.25L59.9246 40.875L57.9246 42.2625L58.6746 39.95L56.7746 38.5L59.1871 38.4375M61.8621 43L61.5871 45.375L63.7496 46.45L61.3746 46.95L60.9996 49.325L59.8121 47.2375L57.4246 47.6375L59.0496 45.85L57.9496 43.725L60.1621 44.7125M60.5621 50.175L59.4996 52.3125L61.1621 54.0625L58.7746 53.7125L57.6121 55.8L57.1996 53.4375L54.8246 52.975L56.9496 51.875L56.6371 49.5L58.3871 51.1875M57.0246 56.5625L55.0121 57.8125L55.5246 60.1875L53.6746 58.6125L51.6121 59.7875L52.4871 57.5375L50.6871 55.8875L53.0746 56.0875L54.0371 53.8875L54.6496 56.2625" fill="white"/>
<path d="M0 -0.0625H32V31.9375H0V-0.0625Z" fill="#000066"/>
<path d="M32 -0.0625V3.9375L20.125 15.9375L32 27.625V31.9375H27.8125L15.875 20.1875L4.25 31.9375H0V27.6875L11.625 16L0 4.5625V-0.0625H3.875L15.875 11.6875L27.5 -0.0625H32Z" fill="white"/>
<path d="M11.5 20.1875L12.1875 22.3125L2.625 31.9375H0V31.75L11.5 20.1875ZM19.25 19.4375L22.625 19.9375L32 29.125V31.9375L19.25 19.4375ZM32 -0.0625L20 12.1875L19.75 9.4375L29.125 -0.0625H32ZM0 0L12.0625 11.8125L8.375 11.3125L0 3V0Z" fill="#C8102E"/>
<path d="M11 -0.0625V31.9375H21V-0.0625H11ZM0 10.9375V20.9375H32V10.9375H0Z" fill="white"/>
<path d="M0 12.9375V18.9375H32V12.9375H0ZM13 -0.0625V31.9375H19V-0.0625H13Z" fill="#C8102E"/>
</g>
<defs>
<clipPath id="clip0_10660_10147">
<rect width="64" height="64" rx="32" fill="white"/>
</clipPath>
</defs>
</svg>
