<svg width="64" height="64" viewBox="0 0 64 64" fill="none" xmlns="http://www.w3.org/2000/svg">
<g clip-path="url(#clip0_10660_10235)">
<path d="M0 0H64V64H0V0Z" fill="white"/>
<path d="M30.3742 53.15C30.3602 53.1443 30.3474 53.1358 30.3367 53.125V53.1125L30.1617 52.9375C29.9866 52.7404 29.8198 52.536 29.6617 52.325L28.9992 51.5L28.9117 51.3875L28.0867 51.1375L27.4867 50.85L27.7992 50.4875L28.9242 50.9625L29.7492 51.1375L31.2742 52.2625C30.9808 52.5182 30.6972 52.7851 30.4242 53.0625C30.4142 53.0783 30.4058 53.095 30.3992 53.1125L30.4992 53.05L30.5992 53.1375L30.3867 53.15H30.3742ZM24.6867 51.4375C23.9617 51.4375 23.2492 51.2375 22.5617 50.8375C21.8742 50.4375 22.6617 50.675 22.8742 50.5125C23.0742 50.3625 23.4492 50.175 24.0617 50.175C24.7867 50.175 25.6617 50.425 26.6742 50.9C26.6367 50.925 25.8367 51.4375 24.6867 51.4375ZM21.5617 50.75C21.4242 50.75 21.3117 50.6875 21.2117 50.6C21.1358 50.5104 21.0842 50.4028 21.0617 50.2875C21.0287 50.1442 21.0161 49.9969 21.0242 49.85C21.0787 49.8219 21.1381 49.8049 21.1992 49.8C21.4742 49.8 21.6867 50.05 21.7742 50.275C21.8242 50.4 21.8367 50.5125 21.8117 50.6C21.7867 50.6875 21.6742 50.7375 21.5617 50.7375V50.75ZM27.0617 50.1C25.2117 49.85 24.4367 49.175 24.0992 48.65C23.8864 48.3383 23.7851 47.9639 23.8117 47.5875C23.8117 47.5875 23.9367 47.5625 24.0992 47.5625C24.5992 47.5625 25.8492 47.8125 27.0617 50.1ZM23.2742 49.7375C22.4867 49.7375 21.8742 49.6125 21.4867 49.3375C21.3141 49.2276 21.1756 49.0718 21.0867 48.8875C21.0551 48.8203 21.034 48.7486 21.0242 48.675C21.3259 48.5535 21.649 48.494 21.9742 48.5C22.5992 48.5 23.5242 48.7 24.4992 49.65C24.0927 49.701 23.6838 49.7302 23.2742 49.7375ZM19.4492 49.5875C18.6117 49.5875 17.4617 49.3375 16.7492 48.625C17.3434 48.4841 17.9511 48.4087 18.5617 48.4C19.3492 48.4 19.9367 48.55 20.3367 48.85C20.4867 48.95 20.5617 49.05 20.5742 49.15C20.5867 49.225 20.5492 49.3125 20.4617 49.375C20.2867 49.5 19.9617 49.5875 19.5117 49.5875H19.4492ZM16.7367 48.2125C16.6885 48.2107 16.6413 48.1987 16.5982 48.1771C16.555 48.1555 16.517 48.125 16.4867 48.0875C16.4232 48.0074 16.3803 47.913 16.3617 47.8125C16.3117 47.6125 16.3242 47.425 16.3242 47.425C16.3618 47.4017 16.405 47.3887 16.4492 47.3875C16.5742 47.3875 16.6742 47.45 16.7367 47.5125C16.8145 47.5902 16.8742 47.6841 16.9117 47.7875C16.9492 47.9125 16.9617 48 16.9367 48.075C16.9117 48.1375 16.8367 48.2 16.7367 48.2V48.2125ZM22.9867 48.0625C22.8492 48.0625 22.7367 48.0125 22.6492 47.925C22.5733 47.8354 22.5217 47.7278 22.4992 47.6125C22.465 47.4651 22.4524 47.3135 22.4617 47.1625C22.5132 47.1403 22.5682 47.1276 22.6242 47.125C22.8992 47.125 23.1242 47.3625 23.1992 47.5875C23.2492 47.7125 23.2617 47.8375 23.2367 47.9125C23.1992 48 23.0992 48.0625 22.9867 48.0625ZM19.9367 47.9375C18.2617 47.875 17.3867 47.4 16.9617 47.0125C16.7713 46.8481 16.6143 46.6487 16.4992 46.425C16.4613 46.345 16.4319 46.2612 16.4117 46.175C16.4117 46.175 16.5617 46.1125 16.8242 46.1125H16.8617C17.4242 46.1125 18.5867 46.35 19.9367 47.9375ZM21.7617 47.7625C20.8043 47.6598 19.9142 47.2214 19.2492 46.525C18.9983 46.26 18.8065 45.9447 18.6867 45.6C18.6867 45.6 18.8617 45.5625 19.1117 45.55C19.1492 45.5489 19.1867 45.5489 19.2242 45.55C19.8992 45.5625 21.1367 45.875 21.7617 47.7625ZM14.8367 47.1125C14.3867 47.1125 13.9617 47.075 13.5617 46.9625C12.8492 46.7875 12.5492 46.525 12.4117 46.325C12.3587 46.2417 12.3245 46.1479 12.3117 46.05C12.307 46.0126 12.307 45.9749 12.3117 45.9375C12.3117 45.9375 12.7742 45.8125 13.4242 45.8C13.7555 45.7941 14.0866 45.8234 14.4117 45.8875C15.093 46.0288 15.7008 46.4103 16.1242 46.9625C16.1242 46.9625 15.5867 47.1125 14.8367 47.1125ZM17.9617 45.9875C17.8367 45.9875 17.7117 45.925 17.6242 45.8375C17.5483 45.7479 17.4967 45.6403 17.4742 45.525C17.4408 45.3817 17.4282 45.2344 17.4367 45.0875C17.4882 45.0653 17.5432 45.0525 17.5992 45.05H17.6117C17.8867 45.05 18.0992 45.275 18.1867 45.5125C18.2367 45.6375 18.2492 45.7375 18.2117 45.8375C18.1742 45.925 18.0867 45.975 17.9617 45.975V45.9875ZM15.6117 45.65C15.5992 45.65 14.9742 45.5 14.3367 45.1C13.7367 44.725 13.0242 44.1 12.9242 43.1C12.8242 42.1 12.9867 43.075 13.0742 43.075H13.0992C13.2742 43.075 13.6367 43.125 14.0742 43.45C14.6367 43.875 15.1492 44.625 15.6117 45.6625V45.65ZM17.1492 45.6C17.1492 45.6 16.6992 45.425 16.1492 44.95C15.357 44.2785 14.7394 43.425 14.3492 42.4625C14.3492 42.4625 14.4742 42.4 14.6617 42.3875C14.6742 42.387 14.6867 42.387 14.6992 42.3875H14.7492C14.9992 42.3875 15.3867 42.5 15.8242 42.975C16.45 43.7442 16.902 44.6397 17.1492 45.6ZM13.1492 45.475C12.6492 45.475 12.4742 45.2 12.4117 45.0875C12.3627 44.9602 12.3456 44.8229 12.3617 44.6875C12.4434 44.6656 12.5272 44.6531 12.6117 44.65H12.6367C13.0367 44.65 13.3617 44.8625 13.4992 45.0625C13.5242 45.1 13.6117 45.25 13.5367 45.35C13.4867 45.4375 13.3617 45.475 13.1617 45.475H13.1492ZM12.0242 44.05C11.7367 44.05 11.2992 44.025 10.8367 43.95C10.3742 43.8625 10.1117 43.475 9.97421 43.1625C9.88205 42.9512 9.81897 42.7283 9.78671 42.5C11.1992 42.5375 11.8742 42.95 12.1867 43.2875C12.3806 43.4923 12.4995 43.7566 12.5242 44.0375L12.0242 44.05ZM13.4992 42.575C13.3837 42.4303 13.2752 42.2801 13.1742 42.125C12.9992 41.8625 12.8492 41.5875 12.8492 41.375C12.8377 41.0657 12.8127 40.7571 12.7742 40.45L12.6867 39.825C12.7242 39.85 13.5742 40.1625 13.5742 40.9625C13.5742 41.7625 13.4992 42.5625 13.4992 42.575ZM12.3992 42.5H12.3617C12.1117 42.45 11.6742 42.25 11.1867 41.975C10.724 41.7291 10.3024 41.4128 9.93671 41.0375C9.71171 40.775 9.56171 40.35 9.53671 39.7875C9.51641 39.5379 9.51641 39.2871 9.53671 39.0375C9.58409 39.0162 9.63488 39.0035 9.68671 39C9.87421 39 10.0617 39.0875 10.3367 39.275C10.5865 39.4503 10.8207 39.6469 11.0367 39.8625C11.3059 40.132 11.5605 40.4157 11.7992 40.7125C12.0649 41.2079 12.2946 41.7217 12.4867 42.25V42.4375C12.4767 42.4597 12.4589 42.4775 12.4367 42.4875C12.4202 42.4909 12.4032 42.4909 12.3867 42.4875L12.3992 42.5Z" fill="#435125"/>
<path d="M27.4617 53.15C27.4758 53.1443 27.4885 53.1358 27.4992 53.125V53.1125L27.6742 52.9375C27.8493 52.7404 28.0161 52.536 28.1742 52.325L28.8367 51.5L28.9242 51.3875L29.7492 51.1375L30.3492 50.85L30.0367 50.4875L28.9117 50.9625L28.0867 51.1375L26.5617 52.2625C26.8552 52.5182 27.1387 52.7851 27.4117 53.0625C27.4217 53.0783 27.4301 53.095 27.4367 53.1125L27.3367 53.05L27.2367 53.1375L27.4492 53.15H27.4617ZM33.1492 51.4375C33.8742 51.4375 34.5867 51.2375 35.2742 50.8375C35.9617 50.4375 35.1742 50.675 34.9617 50.5125C34.7617 50.3625 34.3867 50.175 33.7742 50.175C33.0492 50.175 32.1742 50.425 31.1617 50.9C31.1992 50.925 31.9992 51.4375 33.1492 51.4375ZM36.2742 50.75C36.4117 50.75 36.5242 50.6875 36.6242 50.6C36.7001 50.5104 36.7517 50.4028 36.7742 50.2875C36.8073 50.1442 36.8199 49.9969 36.8117 49.85C36.7573 49.8219 36.6978 49.8049 36.6367 49.8C36.3617 49.8 36.1492 50.05 36.0617 50.275C36.0117 50.4 35.9992 50.5125 36.0242 50.6C36.0492 50.6875 36.1617 50.7375 36.2742 50.7375V50.75ZM30.7742 50.1C32.6242 49.85 33.3992 49.175 33.7367 48.65C33.9495 48.3383 34.0508 47.9639 34.0242 47.5875C34.0242 47.5875 33.8992 47.5625 33.7367 47.5625C33.2367 47.5625 31.9867 47.8125 30.7742 50.1ZM34.5617 49.7375C35.3492 49.7375 35.9617 49.6125 36.3492 49.3375C36.5218 49.2276 36.6603 49.0718 36.7492 48.8875C36.7808 48.8203 36.8019 48.7486 36.8117 48.675C36.51 48.5535 36.1869 48.494 35.8617 48.5C35.2367 48.5 34.3117 48.7 33.3367 49.65C33.7432 49.701 34.1521 49.7302 34.5617 49.7375ZM38.3867 49.5875C39.2242 49.5875 40.3742 49.3375 41.0867 48.625C40.4926 48.4841 39.8848 48.4087 39.2742 48.4C38.4867 48.4 37.8992 48.55 37.4992 48.85C37.3492 48.95 37.2742 49.05 37.2617 49.15C37.2492 49.225 37.2867 49.3125 37.3742 49.375C37.5492 49.5 37.8742 49.5875 38.3242 49.5875H38.3867ZM41.0992 48.2125C41.1474 48.2107 41.1947 48.1987 41.2378 48.1771C41.2809 48.1555 41.3189 48.125 41.3492 48.0875C41.4128 48.0074 41.4557 47.913 41.4742 47.8125C41.5242 47.6125 41.5117 47.425 41.5117 47.425C41.4741 47.4017 41.431 47.3887 41.3867 47.3875C41.2617 47.3875 41.1617 47.45 41.0992 47.5125C41.0214 47.5902 40.9617 47.6841 40.9242 47.7875C40.8867 47.9125 40.8742 48 40.8992 48.075C40.9242 48.1375 40.9992 48.2 41.0992 48.2V48.2125ZM34.8492 48.0625C34.9867 48.0625 35.0992 48.0125 35.1867 47.925C35.2626 47.8354 35.3142 47.7278 35.3367 47.6125C35.3709 47.4651 35.3836 47.3135 35.3742 47.1625C35.3228 47.1403 35.2677 47.1276 35.2117 47.125C34.9367 47.125 34.7117 47.3625 34.6367 47.5875C34.5867 47.7125 34.5742 47.8375 34.5992 47.9125C34.6367 48 34.7367 48.0625 34.8492 48.0625ZM37.8992 47.9375C39.5742 47.875 40.4492 47.4 40.8742 47.0125C41.0646 46.8481 41.2216 46.6487 41.3367 46.425C41.3747 46.345 41.404 46.2612 41.4242 46.175C41.4242 46.175 41.2742 46.1125 41.0117 46.1125H40.9742C40.4117 46.1125 39.2492 46.35 37.8992 47.9375ZM36.0742 47.7625C37.0316 47.6598 37.9217 47.2214 38.5867 46.525C38.8377 46.26 39.0294 45.9447 39.1492 45.6C39.1492 45.6 38.9742 45.5625 38.7242 45.55C38.6867 45.5489 38.6492 45.5489 38.6117 45.55C37.9367 45.5625 36.6992 45.875 36.0742 47.7625ZM42.9992 47.1125C43.4492 47.1125 43.8742 47.075 44.2742 46.9625C44.9867 46.7875 45.2867 46.525 45.4242 46.325C45.4773 46.2417 45.5114 46.1479 45.5242 46.05C45.5289 46.0126 45.5289 45.9749 45.5242 45.9375C45.5242 45.9375 45.0617 45.8125 44.4117 45.8C44.0804 45.7941 43.7494 45.8234 43.4242 45.8875C42.7429 46.0288 42.1351 46.4103 41.7117 46.9625C41.7117 46.9625 42.2492 47.1125 42.9992 47.1125ZM39.8742 45.9875C39.9992 45.9875 40.1242 45.925 40.2117 45.8375C40.2876 45.7479 40.3392 45.6403 40.3617 45.525C40.3951 45.3817 40.4077 45.2344 40.3992 45.0875C40.3478 45.0653 40.2927 45.0525 40.2367 45.05H40.2242C39.9492 45.05 39.7367 45.275 39.6492 45.5125C39.5992 45.6375 39.5867 45.7375 39.6242 45.8375C39.6617 45.925 39.7492 45.975 39.8742 45.975V45.9875ZM42.2242 45.65C42.2367 45.65 42.8617 45.5 43.4992 45.1C44.0992 44.725 44.8117 44.1 44.9117 43.1C45.0117 42.1 44.8492 43.075 44.7617 43.075H44.7367C44.5617 43.075 44.1992 43.125 43.7617 43.45C43.1992 43.875 42.6867 44.625 42.2242 45.6625V45.65ZM40.6867 45.6C40.6867 45.6 41.1367 45.425 41.6867 44.95C42.4789 44.2785 43.0966 43.425 43.4867 42.4625C43.4867 42.4625 43.3617 42.4 43.1742 42.3875C43.1617 42.387 43.1492 42.387 43.1367 42.3875H43.0867C42.8367 42.3875 42.4492 42.5 42.0117 42.975C41.3859 43.7442 40.9339 44.6397 40.6867 45.6ZM44.6867 45.475C45.1867 45.475 45.3617 45.2 45.4242 45.0875C45.4732 44.9602 45.4904 44.8229 45.4742 44.6875C45.3926 44.6656 45.3087 44.6531 45.2242 44.65H45.1992C44.7992 44.65 44.4742 44.8625 44.3367 45.0625C44.3117 45.1 44.2242 45.25 44.2992 45.35C44.3492 45.4375 44.4742 45.475 44.6742 45.475H44.6867ZM45.8117 44.05C46.0992 44.05 46.5367 44.025 46.9992 43.95C47.4617 43.8625 47.7242 43.475 47.8617 43.1625C47.9539 42.9512 48.017 42.7283 48.0492 42.5C46.6367 42.5375 45.9617 42.95 45.6492 43.2875C45.4553 43.4923 45.3364 43.7566 45.3117 44.0375L45.8117 44.05ZM44.3367 42.575C44.4522 42.4303 44.5607 42.2801 44.6617 42.125C44.8367 41.8625 44.9867 41.5875 44.9867 41.375C44.9982 41.0657 45.0233 40.7571 45.0617 40.45L45.1492 39.825C45.1117 39.85 44.2617 40.1625 44.2617 40.9625C44.2617 41.7625 44.3367 42.5625 44.3367 42.575ZM45.4367 42.5H45.4742C45.7242 42.45 46.1617 42.25 46.6492 41.975C47.1119 41.7291 47.5336 41.4128 47.8992 41.0375C48.1242 40.775 48.2742 40.35 48.2992 39.7875C48.3195 39.5379 48.3195 39.2871 48.2992 39.0375C48.2518 39.0162 48.2011 39.0035 48.1492 39C47.9617 39 47.7742 39.0875 47.4992 39.275C47.2494 39.4503 47.0152 39.6469 46.7992 39.8625C46.53 40.132 46.2755 40.4157 46.0367 40.7125C45.7711 41.2079 45.5413 41.7217 45.3492 42.25V42.4375C45.3592 42.4597 45.377 42.4775 45.3992 42.4875C45.4157 42.4909 45.4327 42.4909 45.4492 42.4875L45.4367 42.5Z" fill="#435125"/>
<path d="M58.5383 10.1875L58.2883 10.2875L58.1883 10.325L57.8883 10.3L57.6008 10.4375L57.1008 10.7875L57.0758 10.8L56.8883 10.85L56.7133 10.775L56.6133 10.825L56.5758 11.025L56.4883 11.175L56.3633 11.2625L55.9633 11.3L55.6258 11.475L55.1758 11.35L54.9758 11.4375L54.5383 11.825L54.3133 11.9375H54.2383L53.9383 11.9125L53.8133 11.9625L53.6258 12.125L53.2758 12.15L53.1633 12.225L52.9883 12.575L52.8008 12.775L52.7008 12.7875L52.5758 12.75L52.4883 12.7625L52.4508 12.9875L52.3758 13.0875L52.1258 13.1625L51.9508 13.325L51.7758 13.4H51.5008L51.2883 13.525L50.8633 13.5625L50.7008 13.725L50.6508 13.7625L50.5758 13.8125L50.4508 13.8875L50.4133 13.9125L50.2508 13.875L50.0633 13.95L49.9883 13.825L49.8633 13.9125H49.6883L49.4758 13.825L49.3133 13.75L49.1883 13.775L49.1508 13.975V14L49.0258 14.1625L48.7883 14.3L48.7633 14.35L48.5008 14.6875L48.0008 15.225L47.5633 15.4375L47.1258 15.5625L46.8133 15.8125L46.0008 16.225L44.7258 16.8625L44.4633 16.95L44.0883 17L43.4258 17.25L42.8258 17.425L42.7883 17.4375L42.6758 17.475L41.8508 17.725L41.4633 17.6875L41.2258 17.775L40.6258 17.7L40.2133 17.7125L39.9633 17.7625L39.4633 18.0125L38.6258 18.4L38.3508 18.65L37.9133 18.8875L37.4133 19.0375V18.825L37.2383 18.875L37.1133 18.9125L36.7008 18.975H36.4758L36.3383 18.9375H36.3133L35.4758 19.225L34.5508 19.3125L34.0883 19.4625H33.7383L33.5133 19.5125L33.0883 19.575L32.9383 19.525H32.9008L31.6508 19.575L31.0758 19.5125L30.8008 19.575L30.3508 19.4125L29.6758 19.3375L29.5258 19.2875L29.1758 19.1875L29.0133 19.275L28.8883 19.2875L28.6133 19.1875H28.5008L28.2758 19.275L28.1383 19.2375L28.0133 19.1375L27.7133 19.1L27.5383 18.9375L26.5383 19.075L26.2633 19L25.3508 18.725L25.2008 18.7375L25.0258 18.8625L24.7508 18.975L24.5133 19.0375H24.1883L23.8133 18.95L23.4383 18.7625L23.2883 18.725L22.9758 18.7625H22.8758L22.3008 18.45L21.5508 17.9875L21.0383 17.7375L20.8383 17.7125L20.8133 17.8L20.9133 18.1L20.9508 18.4L20.9383 18.6625V18.8375L20.9758 18.9875L21.1633 19.1875L21.2383 19.4L21.3008 19.9625V20.5375L21.2008 21.45L21.1758 21.575L21.0633 22.0625L20.9758 22.4875L20.6008 23.65L20.4883 23.7875L20.2383 23.9625L19.6508 24.3625L19.2258 24.6125L19.1008 24.6625L18.7508 24.6875L18.5383 24.675L18.2633 24.525L18.0133 24.4625L17.6633 24.2125L17.2758 24.1375L16.8508 23.8875L16.7508 23.7625L16.5133 23.7375L16.2008 23.6375L16.0758 23.6125L16.0008 23.5875L15.6008 23.575L15.2258 23.4L15.0258 23.35L14.7508 23.3375L14.4633 23.4625L14.3258 23.5375L14.1383 23.4625H14.0133L13.8508 23.7L13.8383 23.7375L13.7383 23.7875H13.5008L13.4008 23.825L13.2508 23.8875L13.1258 23.95L13.0633 23.975H13.0133L12.9508 24H12.8633L12.7133 23.925L12.6383 23.875L12.5008 23.85L12.4258 23.9V24.15L12.3508 24.2875L12.1258 24.5L11.9133 24.6875L11.7633 24.9125L11.3758 25.8L11.1258 26.175L11.0508 26.25L10.8008 26.5375L10.5633 26.7125L10.0383 27.1125L9.53828 27.3L9.11328 27.3875H8.91328L8.51328 27.3375L8.16328 27.225L7.77578 26.975L7.33828 26.6375L6.72578 26.025L6.63828 25.975H6.62578L6.43828 25.85H6.28828L6.23828 25.9375L6.20078 26.0625L6.17578 26.1875L6.11328 26.875V26.9125L6.15078 27.1875L6.62578 27.85L6.76328 28.2L6.78828 28.2375L6.88828 28.4L6.96328 28.525L7.12578 29L7.01328 29.275L7.07578 29.45L6.92578 29.5625L6.90078 29.7125L7.32578 30.25L7.41328 30.475L7.31328 30.8L7.15078 30.975L7.10078 31.025L7.12578 31.1625L7.32578 31.3375L7.65078 31.6375L7.82578 32.075L7.95078 32.1875L8.11328 32.15L8.20078 32.225H8.32578L8.45078 32.35L8.53828 32.3875L8.67578 32.45L8.77578 32.5875L8.80078 33L9.00078 33.525V33.85L9.12578 34.05L9.16328 34.2125L9.10078 34.65L9.25078 34.7875L9.41328 34.75L9.52578 34.775L9.70078 34.9125L9.91328 35.2375L10.1133 35.2125L10.2383 35.275L10.8633 35.8375L11.0133 35.9125L11.1383 35.9625L11.2633 36.0875L11.4508 35.9625H11.4758L11.6883 35.9375L11.7883 36L11.9633 36.125H12.2133L12.7133 36.2875L12.9508 36.3375L13.4008 36.625L13.6008 36.75L13.7133 36.8375L13.8633 36.9625L14.1633 37.0875L14.4133 37.15L14.5633 37.1875L14.6758 37.225L15.2383 37.45L15.5383 37.5125L15.8258 37.625L16.0258 37.7H16.1758L16.3883 37.5125H16.6008L16.7758 37.55L16.9383 37.525L17.2008 37.3625L17.2633 37.275L17.4508 37.1875L18.0758 37.1125L18.2633 37.175L18.7383 36.9625L19.0633 37.05L19.3383 36.95L19.9633 37.0875L20.1258 37.2125L20.3008 37.4125H20.5258L20.4508 37.5625L20.7133 37.85L20.9633 38.225V38.2625L21.1508 38.775L21.2758 38.9625L21.3758 39.2125V39.3875L21.2383 39.5L21.2133 39.5625V39.5875L21.2383 39.65L21.2883 39.625L21.3883 39.5625L21.5133 39.55L21.7383 39.575H21.8758L22.1133 39.475L22.2633 39.4L22.5133 39.5H22.7758L22.8883 39.55L23.2133 39.6875L23.3758 39.7125L23.4383 39.6625L23.4758 39.575L23.4508 39.475L23.3258 39.325L23.0633 39.0125L22.9383 38.85L22.8633 38.625L22.8383 38.325L22.8133 38.125L22.8508 37.8625L22.9258 37.7625L22.9758 37.55L22.9883 37.5L23.1383 37.3L23.5383 37.05L23.9633 36.675L24.3008 36.4375L24.6508 36.2875V36.25L24.7008 36.2625L25.5758 35.9625H25.6008L25.9883 35.8875L28.6508 36.075L28.7508 36.05L28.8383 35.8L28.8883 35.75L28.9133 35.725L29.2133 35.6L29.3383 35.575L29.7133 35.675L29.8758 35.7125L30.1258 35.575H30.3008L30.6758 35.375H30.9008L30.9758 35.35L31.4133 35.025L31.8383 34.9L31.9633 34.85L31.9883 34.825L32.4258 34.6L32.7008 34.3875L32.9383 34.2625L33.1883 34.2L33.8758 34.15L34.0133 33.925L34.3008 33.875L34.4883 33.675L34.6883 33.6L34.8258 33.3875L34.9508 33.2125L35.1258 33.1125L35.6633 33.0875L36.3133 33.1625L36.4008 33.1125L36.5383 32.5875L36.6883 32.4875L37.1008 31.9V31.5L37.1758 31.2375L37.1258 30.7625L37.1883 30.2875L37.4383 29.6875L37.6633 29.4375L38.0258 29.2L38.2133 29.125L38.4633 29.075H38.5133L38.5758 29.0625L39.4758 29.05H39.8008L40.1008 29.0375L40.8508 29.1625L40.9133 29.1875L41.1633 29.2625L41.4633 29.5L41.7758 29.8L41.8383 29.8625L42.0383 29.9375L42.1008 29.975L42.2758 29.9375L42.5133 29.8125L42.6883 29.6625L42.9383 29.5375V29.525L43.0758 29.3125L43.1383 29.225L43.6133 29.0375L44.1758 29.0125L44.2383 28.975L44.2758 28.9625L44.4133 28.7875H44.5508L44.8883 28.9125L45.1258 28.8625L45.3133 28.9375L45.4508 28.9125L45.7258 28.8875L46.0258 29.0875L46.2008 29.1125L46.8008 29.4625H46.8508L46.8758 29.475L46.9508 29.4625L47.0633 29.425L47.0883 29.4375L47.1508 29.5375L47.2508 29.55L47.3633 29.4L47.3133 29.3375L47.3008 29.3125L47.0883 29.2625L46.8883 28.9375L47.0758 28.7375L46.7883 28.3875L46.7383 28.325L46.7258 28.3L46.6258 28.15L46.1258 27.375L45.4508 26.85L45.2258 26.6625L45.1383 26.6L44.7883 26.2375L44.5383 25.9125L44.5008 25.8375L44.4508 25.7125L44.3008 25.4L44.0508 25.1875L43.8258 24.9625V24.95L43.3758 24.35L43.3008 24.25L43.2008 24.1875H42.9758L42.9508 24.1625V24.15L43.0508 24.025L43.1758 24L43.2258 23.8875L43.0008 23.2375V23.2125L42.9758 23.0125L43.1633 22.0625L43.1883 21.9375L43.5008 21.3125L43.7008 21.15L43.9008 20.7375L44.0883 20.475L44.2633 20.3L44.2883 20.2875L44.6008 20.1L44.8633 20.0625L45.1133 20.025L45.5508 20.15H46.0508L46.2383 20.125L46.5508 20.025L46.7008 19.9375L46.7758 19.8125L46.9258 19.2875L46.9883 19.1125L47.0758 18.9375L47.6508 18.275L48.0758 17.8875L49.0383 17.175L49.5133 16.9L49.7508 16.75L51.9008 15.8L52.4508 15.2375L52.7383 14.9375L53.2633 14.6L53.8633 14.35L54.3758 13.9375L54.4883 13.8L54.6383 13.3375L54.7508 13.3125L54.8633 13.075L54.8883 13.0125L55.3133 12.7125L55.3633 12.6875L57.0008 11.875L57.2508 11.9L57.3758 11.7125L57.8508 11.6375L57.9258 11.6125L58.0508 11.5625L58.1508 11.3875V11.35L58.1633 10.9L58.2633 10.775L58.3258 10.475L58.3758 10.4L58.4258 10.3375L58.5633 10.2375L58.5383 10.1875Z" fill="#D47600"/>
<g clip-path="url(#clip1_10660_10235)">
<path d="M-8 2H72V62H-8V2Z" fill="#007FFF"/>
<path d="M-4.4 14H4L6.6 5.6L9.2 14H17.6L10.8 19.2L13.4 27.6L6.6 22.4L-0.2 27.6L2.4 19.2L-4.4 14ZM67 2L-8 47V62H-3L72 17V2H67Z" fill="#F7D618"/>
<path d="M72 2L-8 50V62L72 14V2Z" fill="#CE1021"/>
</g>
</g>
<defs>
<clipPath id="clip0_10660_10235">
<rect width="64" height="64" rx="32" fill="white"/>
</clipPath>
<clipPath id="clip1_10660_10235">
<rect width="80" height="60" fill="white" transform="translate(-8 2)"/>
</clipPath>
</defs>
</svg>
