<svg width="64" height="64" viewBox="0 0 64 64" fill="none" xmlns="http://www.w3.org/2000/svg">
<g clip-path="url(#clip0_10660_10287)">
<mask id="mask0_10660_10287" style="mask-type:luminance" maskUnits="userSpaceOnUse" x="0" y="0" width="64" height="64">
<path d="M0 0H64V64H0V0Z" fill="white"/>
</mask>
<g mask="url(#mask0_10660_10287)">
<path fill-rule="evenodd" clip-rule="evenodd" d="M-32.2871 0H96.1504V64H-32.2871V0Z" fill="#108C00"/>
<path fill-rule="evenodd" clip-rule="evenodd" d="M-32.5 22.275H96.575V28.5375H-32.5V22.275Z" fill="#FFD600"/>
<path fill-rule="evenodd" clip-rule="evenodd" d="M22.625 0H28.6875V64H22.6375L22.625 0Z" fill="#FFD600"/>
<path fill-rule="evenodd" clip-rule="evenodd" d="M28.4746 0H34.5246V64H28.4746V0Z" fill="#000001"/>
<path fill-rule="evenodd" clip-rule="evenodd" d="M-32.5 28.325H96.575V34.6H-32.5V28.325Z" fill="#000001"/>
<path fill-rule="evenodd" clip-rule="evenodd" d="M-32.5 34.6H96.575V40.8625H-32.5V34.6Z" fill="white"/>
<path fill-rule="evenodd" clip-rule="evenodd" d="M34.5254 0H40.5879V64H34.5254V0Z" fill="white"/>
<path d="M15.0992 32.05C15.0992 41.5424 22.7607 49.2375 32.2117 49.2375C41.6627 49.2375 49.3242 41.5424 49.3242 32.05C49.3242 22.5576 41.6627 14.8625 32.2117 14.8625C22.7607 14.8625 15.0992 22.5576 15.0992 32.05Z" fill="#E72910"/>
<path fill-rule="evenodd" clip-rule="evenodd" d="M31.3133 17.125L32.0133 15.125L32.6508 17.0875C32.6508 17.0875 34.7883 17.15 34.7883 17.1125C34.7883 17.075 33.1008 18.4 33.1008 18.4L33.8633 20.6C33.8383 20.5375 32.0133 19.2375 32.0133 19.2375C32.0133 19.2375 30.1633 20.5375 30.2008 20.5375C30.2383 20.5375 30.9008 18.4125 30.9008 18.4125L29.2383 17.15L31.3133 17.1125V17.125Z" fill="black"/>
<path fill-rule="evenodd" clip-rule="evenodd" d="M31.4141 17.2125L32.0016 15.5L32.5516 17.2C32.5516 17.2 34.4141 17.25 34.4141 17.225C34.4141 17.2 32.9516 18.35 32.9516 18.35L33.6016 20.25C33.5766 20.1875 32.0016 19.075 32.0016 19.075C32.0016 19.075 30.4016 20.2 30.4266 20.2C30.4516 20.2 31.0516 18.35 31.0516 18.35L29.6016 17.25L31.4016 17.225L31.4141 17.2125Z" fill="#FFE700"/>
<path fill-rule="evenodd" clip-rule="evenodd" d="M31.6637 17.5L32.0137 16.5L32.3387 17.4875C32.3387 17.4875 33.4012 17.5125 33.4012 17.4875C33.4012 17.4625 32.5637 18.1375 32.5637 18.1375L32.9387 19.2375C32.9262 19.2 32.0137 18.5625 32.0137 18.5625L31.1137 19.2125C31.1387 19.2125 31.4637 18.15 31.4637 18.15L30.6387 17.525L31.6637 17.5Z" fill="#108C00"/>
<path fill-rule="evenodd" clip-rule="evenodd" d="M44.6121 26.475L45.3121 24.475L45.9371 26.4375C45.9371 26.4375 48.0871 26.5125 48.0871 26.475C48.0871 26.4375 46.3996 27.7625 46.3996 27.7625L47.1496 29.9625C47.1246 29.9 45.3121 28.6 45.3121 28.6C45.3121 28.6 43.4621 29.9 43.4996 29.9C43.5371 29.9 44.1996 27.775 44.1996 27.775L42.5371 26.5L44.6121 26.4625V26.475Z" fill="black"/>
<path fill-rule="evenodd" clip-rule="evenodd" d="M44.6996 26.575L45.3121 24.8375L45.8621 26.55C45.8621 26.55 47.7121 26.6 47.7121 26.575C47.7121 26.55 46.2496 27.7 46.2496 27.7L46.9121 29.5875C46.8871 29.5375 45.3121 28.4125 45.3121 28.4125C45.3121 28.4125 43.7121 29.5375 43.7371 29.5375C43.7621 29.5375 44.3496 27.6875 44.3496 27.6875L42.9121 26.6L44.6996 26.575Z" fill="#FFE700"/>
<path fill-rule="evenodd" clip-rule="evenodd" d="M44.9613 26.8625L45.3113 25.8625L45.6238 26.8375L46.6988 26.8625L45.8488 27.5C45.8488 27.5 46.2488 28.625 46.2238 28.6C46.2238 28.5625 45.3113 27.925 45.3113 27.925L44.3988 28.5625L44.7488 27.5L43.9238 26.875L44.9613 26.8625Z" fill="#108C00"/>
<path fill-rule="evenodd" clip-rule="evenodd" d="M40.7371 41.325L41.4371 39.325L42.0621 41.3C42.0621 41.3 44.2121 41.3625 44.2121 41.3375C44.2121 41.3125 42.5246 42.625 42.5246 42.625L43.2746 44.8125C43.2496 44.75 41.4371 43.4625 41.4371 43.4625C41.4371 43.4625 39.5871 44.75 39.6121 44.75C39.6371 44.75 40.3246 42.625 40.3246 42.625L38.6621 41.375L40.7371 41.325Z" fill="black"/>
<path fill-rule="evenodd" clip-rule="evenodd" d="M40.8246 41.425L41.4371 39.7L41.9871 41.4C41.9871 41.4 43.8371 41.4625 43.8371 41.425C43.8371 41.3875 42.3746 42.55 42.3746 42.55L43.0371 44.45C43.0121 44.3875 41.4371 43.275 41.4371 43.275C41.4371 43.275 39.8371 44.4 39.8621 44.4C39.8871 44.4 40.4746 42.55 40.4746 42.55L39.0371 41.4625L40.8246 41.425Z" fill="#FFE700"/>
<path fill-rule="evenodd" clip-rule="evenodd" d="M41.0863 41.7125L41.4363 40.7125L41.7488 41.7C41.7488 41.7 42.8238 41.7375 42.8238 41.7125C42.8238 41.6875 41.9738 42.3625 41.9738 42.3625L42.3488 43.45C42.3488 43.425 41.4363 42.775 41.4363 42.775L40.5238 43.425L40.8738 42.3625L40.0488 41.7375L41.0863 41.7125Z" fill="#108C00"/>
<path fill-rule="evenodd" clip-rule="evenodd" d="M22.1492 41.325L22.8492 39.325L23.4742 41.3C23.4742 41.3 25.6117 41.3625 25.6117 41.3375C25.6117 41.3125 23.9242 42.625 23.9242 42.625L24.6992 44.8125C24.6617 44.75 22.8492 43.4625 22.8492 43.4625C22.8492 43.4625 20.9992 44.75 21.0242 44.75C21.0492 44.75 21.7367 42.625 21.7367 42.625L20.0742 41.375L22.1492 41.325Z" fill="black"/>
<path fill-rule="evenodd" clip-rule="evenodd" d="M22.2492 41.425L22.8492 39.7L23.3992 41.4C23.3992 41.4 25.2492 41.4625 25.2492 41.425C25.2492 41.3875 23.7867 42.55 23.7867 42.55L24.4492 44.45C24.4242 44.3875 22.8492 43.275 22.8492 43.275C22.8492 43.275 21.2492 44.4 21.2742 44.4C21.2992 44.4 21.8867 42.55 21.8867 42.55L20.4492 41.4625L22.2492 41.425Z" fill="#FFE700"/>
<path fill-rule="evenodd" clip-rule="evenodd" d="M22.4984 41.7125L22.8484 40.7125L23.1609 41.7C23.1609 41.7 24.2359 41.7375 24.2359 41.7125C24.2359 41.6875 23.3859 42.3625 23.3859 42.3625L23.7609 43.45C23.7609 43.425 22.8484 42.775 22.8484 42.775L21.9359 43.425L22.2859 42.3625L21.4609 41.7375L22.4984 41.7125Z" fill="#108C00"/>
<path fill-rule="evenodd" clip-rule="evenodd" d="M18.7508 26.0875L19.4508 24.0875L20.0883 26.0625C20.0883 26.0625 22.2258 26.125 22.2258 26.0875C22.2258 26.05 20.5383 27.3875 20.5383 27.3875L21.3008 29.575C21.2633 29.5125 19.4508 28.225 19.4508 28.225C19.4508 28.225 17.6008 29.5 17.6383 29.5C17.6758 29.5 18.3383 27.375 18.3383 27.375L16.6758 26.125L18.7508 26.0875Z" fill="black"/>
<path fill-rule="evenodd" clip-rule="evenodd" d="M18.8508 26.1875L19.4508 24.4625L20.0133 26.1625C20.0133 26.1625 21.8508 26.225 21.8508 26.1875C21.8508 26.15 20.3883 27.3125 20.3883 27.3125L21.0508 29.2125C21.0258 29.15 19.4508 28.0375 19.4508 28.0375C19.4508 28.0375 17.8508 29.1625 17.8883 29.1625C17.9258 29.1625 18.4883 27.3125 18.4883 27.3125L17.0508 26.225L18.8508 26.1875Z" fill="#FFE700"/>
<path fill-rule="evenodd" clip-rule="evenodd" d="M19.1012 26.475L19.4512 25.475L19.7762 26.4625L20.8387 26.475L20.0012 27.125L20.3762 28.2125C20.3637 28.1875 19.4512 27.5375 19.4512 27.5375L18.5512 28.1875C18.5762 28.1875 18.9012 27.125 18.9012 27.125L18.0762 26.5L19.1012 26.475Z" fill="#108C00"/>
<path fill-rule="evenodd" clip-rule="evenodd" d="M40.5746 21.7625L39.8746 23.7625L39.2496 21.8C39.2496 21.8 37.0996 21.7375 37.0996 21.7625C37.0996 21.7875 38.7871 20.475 38.7871 20.475L38.0371 18.2875C38.0621 18.35 39.8746 19.6375 39.8746 19.6375C39.8746 19.6375 41.7246 18.35 41.6871 18.35C41.6496 18.35 40.9871 20.475 40.9871 20.475L42.6496 21.725L40.5746 21.7625Z" fill="black"/>
<path fill-rule="evenodd" clip-rule="evenodd" d="M40.4871 21.6625C40.4871 21.7 39.8621 23.4 39.8621 23.4L39.3246 21.7C39.3246 21.7 37.4746 21.6375 37.4746 21.6625C37.4746 21.6875 38.9371 20.55 38.9371 20.55L38.2746 18.65C38.2996 18.7125 39.8746 19.825 39.8746 19.825C39.8746 19.825 41.4746 18.7 41.4496 18.7C41.4246 18.7 40.8371 20.55 40.8371 20.55L42.2746 21.6375L40.4871 21.6625Z" fill="#FFE700"/>
<path fill-rule="evenodd" clip-rule="evenodd" d="M40.2238 21.375L39.8738 22.375L39.5613 21.4C39.5613 21.4 38.4863 21.3625 38.4863 21.3875C38.4863 21.4125 39.3363 20.7375 39.3363 20.7375L38.9613 19.65C38.9613 19.675 39.8738 20.325 39.8738 20.325L40.7863 19.675C40.7613 19.675 40.4238 20.7375 40.4238 20.7375L41.2613 21.3625L40.2238 21.3875V21.375Z" fill="#108C00"/>
<path fill-rule="evenodd" clip-rule="evenodd" d="M45.9125 36.2875L45.2125 38.2875L44.5875 36.3125C44.5875 36.3125 42.4375 36.25 42.4375 36.2875C42.4375 36.325 44.125 35 44.125 35L43.375 32.8C43.4 32.8625 45.2125 34.15 45.2125 34.15C45.2125 34.15 47.0625 32.8625 47.025 32.8625C46.9875 32.8625 46.325 34.9875 46.325 34.9875L48 36.25L45.9125 36.2875Z" fill="black"/>
<path fill-rule="evenodd" clip-rule="evenodd" d="M45.825 36.1875L45.2125 37.9125L44.6625 36.2125C44.6625 36.2125 42.8125 36.1625 42.8125 36.1875C42.8125 36.2125 44.275 35.0625 44.275 35.0625L43.6125 33.1625C43.6375 33.225 45.2125 34.3375 45.2125 34.3375C45.2125 34.3375 46.8125 33.2125 46.7875 33.2125C46.7625 33.2125 46.175 35.0625 46.175 35.0625L47.6125 36.1625L45.825 36.1875Z" fill="#FFE700"/>
<path fill-rule="evenodd" clip-rule="evenodd" d="M45.5617 35.9L45.2117 36.9L44.8992 35.9125C44.8992 35.9125 43.8242 35.8875 43.8242 35.9125C43.8242 35.9375 44.6742 35.2625 44.6742 35.2625L44.2992 34.1625C44.2992 34.2 45.2117 34.8375 45.2117 34.8375L46.1242 34.1875C46.0992 34.1875 45.7617 35.2625 45.7617 35.2625L46.5992 35.8875L45.5617 35.9Z" fill="#108C00"/>
<path fill-rule="evenodd" clip-rule="evenodd" d="M32.6742 46.9125L31.9742 48.9125L31.3492 46.9375C31.3492 46.9375 29.1992 46.875 29.1992 46.9C29.1992 46.925 30.8867 45.6125 30.8867 45.6125L30.1367 43.425C30.1617 43.4875 31.9742 44.775 31.9742 44.775C31.9742 44.775 33.8242 43.4875 33.7867 43.4875C33.7492 43.4875 33.0867 45.6125 33.0867 45.6125L34.7492 46.875L32.6742 46.9125Z" fill="black"/>
<path fill-rule="evenodd" clip-rule="evenodd" d="M32.5867 46.8L31.9742 48.55L31.4242 46.8375C31.4242 46.8375 29.5742 46.775 29.5742 46.8125C29.5742 46.85 31.0367 45.6875 31.0367 45.6875L30.3742 43.7875C30.3992 43.85 31.9742 44.9625 31.9742 44.9625C31.9742 44.9625 33.5742 43.8375 33.5492 43.8375C33.5242 43.8375 32.9367 45.6875 32.9367 45.6875L34.3742 46.775L32.5867 46.8125V46.8Z" fill="#FFE700"/>
<path fill-rule="evenodd" clip-rule="evenodd" d="M32.3234 46.525L31.9734 47.525L31.6609 46.5375C31.6609 46.5375 30.5859 46.5 30.5859 46.525C30.5859 46.55 31.4359 45.875 31.4359 45.875L31.0609 44.7875C31.0609 44.8125 31.9734 45.4625 31.9734 45.4625L32.8859 44.8125L32.5359 45.875L33.3609 46.5L32.3234 46.525Z" fill="#108C00"/>
<path fill-rule="evenodd" clip-rule="evenodd" d="M20.2492 36.2875L19.5367 38.2875L18.9117 36.3125C18.9117 36.3125 16.7617 36.25 16.7617 36.2875C16.7617 36.325 18.4492 35 18.4492 35L17.6992 32.8C17.7242 32.8625 19.5367 34.15 19.5367 34.15L21.3742 32.875L20.6617 35L22.3242 36.2625L20.2492 36.3V36.2875Z" fill="black"/>
<path fill-rule="evenodd" clip-rule="evenodd" d="M20.1492 36.1875L19.5367 37.9125L18.9867 36.2125C18.9867 36.2125 17.1367 36.1625 17.1367 36.1875C17.1367 36.2125 18.5992 35.0625 18.5992 35.0625L17.9367 33.1625C17.9617 33.225 19.5367 34.3375 19.5367 34.3375C19.5367 34.3375 21.1367 33.2125 21.1117 33.2125C21.0867 33.2125 20.4992 35.0625 20.4992 35.0625L21.9367 36.1625L20.1492 36.1875Z" fill="#FFE700"/>
<path fill-rule="evenodd" clip-rule="evenodd" d="M19.8859 35.9L19.5359 36.9L19.2234 35.9125C19.2234 35.9125 18.1484 35.8875 18.1484 35.9125C18.1484 35.9375 18.9984 35.2625 18.9984 35.2625L18.6234 34.1625C18.6234 34.2 19.5359 34.8375 19.5359 34.8375L20.4484 34.1875L20.0984 35.2625L20.9234 35.8875L19.8859 35.9Z" fill="#108C00"/>
<path fill-rule="evenodd" clip-rule="evenodd" d="M24.8383 21.975L24.1383 23.975L23.4883 22.0125C23.4883 22.0125 21.3633 21.95 21.3633 21.975C21.3633 22 23.0508 20.6875 23.0508 20.6875L22.2883 18.5C22.3133 18.5625 24.1258 19.85 24.1258 19.85C24.1258 19.85 25.9758 18.5625 25.9508 18.5625C25.9258 18.5625 25.2508 20.6875 25.2508 20.6875L26.9008 21.9375L24.8383 21.975Z" fill="black"/>
<path fill-rule="evenodd" clip-rule="evenodd" d="M24.7391 21.875L24.1266 23.625L23.5766 21.9125C23.5766 21.9125 21.7266 21.85 21.7266 21.8875C21.7266 21.925 23.1891 20.7625 23.1891 20.7625L22.5266 18.8625C22.5516 18.925 24.1266 20.0375 24.1266 20.0375C24.1266 20.0375 25.7266 18.9125 25.7016 18.9125C25.6766 18.9125 25.1016 20.7625 25.1016 20.7625L26.5266 21.85L24.7391 21.8875V21.875Z" fill="#FFE700"/>
<path fill-rule="evenodd" clip-rule="evenodd" d="M24.475 21.6L24.125 22.6L23.8125 21.6125C23.8125 21.6125 22.75 21.575 22.75 21.6C22.75 21.625 23.5875 20.95 23.5875 20.95L23.2125 19.8625C23.2125 19.8875 24.125 20.5375 24.125 20.5375L25.0375 19.8875L24.6875 20.95L25.5125 21.575L24.475 21.6Z" fill="#108C00"/>
<path d="M35.0263 40.7932C35.5337 40.7412 35.7986 38.6757 35.6179 36.1797C35.4371 33.6837 34.8793 31.7024 34.3719 31.7544C33.8645 31.8063 33.5996 33.8719 33.7803 36.3679C33.961 38.8639 34.5189 40.8452 35.0263 40.7932Z" fill="#009200" stroke="black" stroke-width="0.0668923"/>
<path d="M35.9606 40.7812C36.4973 40.7264 36.7823 38.6589 36.5971 36.1633C36.412 33.6678 35.8268 31.6892 35.2901 31.744C34.7534 31.7988 34.4685 33.8663 34.6536 36.3618C34.8388 38.8574 35.4239 40.836 35.9606 40.7812Z" fill="#009200" stroke="black" stroke-width="0.068794"/>
<path d="M35.5489 41.5064C35.9786 41.462 36.1685 39.1899 35.9729 36.4314C35.7773 33.6729 35.2704 31.4727 34.8406 31.5171C34.4109 31.5614 34.2211 33.8336 34.4166 36.5921C34.6122 39.3506 35.1192 41.5508 35.5489 41.5064Z" fill="#009200" stroke="black" stroke-width="0.064713"/>
<path fill-rule="evenodd" clip-rule="evenodd" d="M27.9927 38.6546C28.7783 38.6192 28.4382 38.1983 28.8349 37.9741C29.2316 37.7499 29.794 37.8969 29.9641 38.1766C30.1316 38.4563 29.9956 38.7315 30.2153 38.7348C30.4324 38.738 36.3562 38.4739 36.569 38.7072C36.7845 38.9404 36.8177 39.4039 36.5971 39.5836C36.3766 39.7632 28.8858 39.8682 28.6277 39.6786C28.3695 39.4919 27.9919 38.699 27.9927 38.6546Z" fill="#A95600" stroke="black" stroke-width="0.0673216"/>
<path fill-rule="evenodd" clip-rule="evenodd" d="M32.1911 39.2518C32.1756 39.8475 33.0543 39.6777 33.0643 40.1754C33.0371 40.7024 31.5929 40.2076 31.5816 39.2436C31.6432 38.2791 33.0572 37.8036 33.0754 38.355C33.0865 38.811 32.2047 38.6561 32.1892 39.2518L32.1911 39.2518Z" fill="#FFFF00" stroke="black" stroke-width="0.0659034"/>
<path fill-rule="evenodd" clip-rule="evenodd" d="M32.7087 39.2648C32.6932 39.8605 33.5719 39.6906 33.5819 40.1883C33.5547 40.7153 32.1105 40.2206 32.0992 39.2565C32.1608 38.292 33.5747 37.8165 33.5929 38.368C33.6041 38.824 32.7223 38.669 32.7068 39.2647L32.7087 39.2648Z" fill="#FFFF00" stroke="black" stroke-width="0.0659034"/>
<path fill-rule="evenodd" clip-rule="evenodd" d="M33.2653 39.2389C33.2498 39.8346 34.1285 39.6647 34.1385 40.1624C34.1114 40.6894 32.6671 40.1947 32.6559 39.2307C32.7174 38.2661 34.1314 37.7906 34.1496 38.3421C34.1607 38.7981 33.279 38.6432 33.2634 39.2389L33.2653 39.2389Z" fill="#FFFF00" stroke="black" stroke-width="0.0659034"/>
<path fill-rule="evenodd" clip-rule="evenodd" d="M33.7829 39.2389C33.7674 39.8346 34.6461 39.6647 34.6561 40.1624C34.6289 40.6894 33.1847 40.1947 33.1734 39.2307C33.235 38.2661 34.649 37.7906 34.6672 38.3421C34.6783 38.7981 33.7965 38.6432 33.781 39.2389L33.7829 39.2389Z" fill="#FFFF00" stroke="black" stroke-width="0.0659034"/>
<path d="M36.2818 39.6218C36.5559 39.6258 36.7829 39.4016 36.7887 39.1209C36.7945 38.8403 36.5771 38.6096 36.3029 38.6056C36.0288 38.6016 35.8019 38.8258 35.7961 39.1064C35.7902 39.3871 36.0077 39.6178 36.2818 39.6218Z" fill="#A95600" stroke="black" stroke-width="0.0582385"/>
<path d="M33.3862 38.4064C33.6307 38.3696 33.7816 37.9022 33.7233 37.3624C33.665 36.8226 33.4196 36.4148 33.1751 36.4516C32.9306 36.4884 32.7797 36.9558 32.838 37.4956C32.8963 38.0354 33.1417 38.4432 33.3862 38.4064Z" fill="#009200" stroke="black" stroke-width="0.0740756"/>
<path d="M32.6245 38.3406C32.869 38.3038 33.0199 37.8364 32.9616 37.2966C32.9033 36.7568 32.6579 36.349 32.4134 36.3858C32.1689 36.4226 32.018 36.89 32.0763 37.4298C32.1346 37.9697 32.38 38.3774 32.6245 38.3406Z" fill="#009200" stroke="black" stroke-width="0.0740756"/>
<path d="M32.0815 37.3673C32.326 37.3305 32.4769 36.8631 32.4186 36.3233C32.3603 35.7834 32.1149 35.3756 31.8704 35.4124C31.6259 35.4492 31.475 35.9167 31.5333 36.4565C31.5916 36.9963 31.837 37.4041 32.0815 37.3673Z" fill="#009200" stroke="black" stroke-width="0.0740756"/>
<path d="M32.8865 37.4166C33.1218 37.3777 33.2606 36.8628 33.1966 36.2663C33.1325 35.6699 32.8899 35.2179 32.6546 35.2568C32.4193 35.2957 32.2804 35.8106 32.3445 36.407C32.4085 37.0035 32.6512 37.4554 32.8865 37.4166Z" fill="#009200" stroke="black" stroke-width="0.0764691"/>
<path d="M33.9396 37.4155C34.1752 37.3796 34.3173 36.8976 34.2571 36.3389C34.1969 35.7802 33.9571 35.3564 33.7215 35.3923C33.4859 35.4282 33.3437 35.9102 33.4039 36.4689C33.4642 37.0276 33.704 37.4514 33.9396 37.4155Z" fill="#009200" stroke="black" stroke-width="0.0739867"/>
<path d="M33.3575 37.0582C33.5931 37.0223 33.7353 36.5403 33.6751 35.9816C33.6149 35.4229 33.3751 34.9991 33.1395 35.035C32.9039 35.0709 32.7617 35.5529 32.8219 36.1116C32.8821 36.6703 33.1219 37.0941 33.3575 37.0582Z" fill="#009200" stroke="black" stroke-width="0.0739867"/>
<path d="M32.629 36.5464C32.8646 36.5106 33.0068 36.0285 32.9466 35.4699C32.8864 34.9112 32.6466 34.4874 32.411 34.5233C32.1754 34.5592 32.0332 35.0412 32.0934 35.5998C32.1536 36.1585 32.3934 36.5823 32.629 36.5464Z" fill="#009200" stroke="black" stroke-width="0.0739867"/>
<path d="M31.9474 36.2511C32.183 36.2152 32.3252 35.7332 32.2649 35.1745C32.2047 34.6158 31.9649 34.192 31.7293 34.2279C31.4937 34.2638 31.3515 34.7458 31.4118 35.3045C31.472 35.8632 31.7118 36.287 31.9474 36.2511Z" fill="#009200" stroke="black" stroke-width="0.0739867"/>
<path fill-rule="evenodd" clip-rule="evenodd" d="M31.1023 26.7934C31.1023 26.7934 29.6078 28.0984 29.8028 31.6263C30.0227 35.1757 33.1707 36.8419 33.1707 36.8419C33.1707 36.8419 33.9627 35.8322 33.8468 32.9836C33.5904 28.8111 32.0971 26.9732 32.0971 26.9732L31.1046 26.7938L31.1023 26.7934Z" fill="#804BFF" stroke="black" stroke-width="0.0589705"/>
<path d="M34.4404 38.5495C34.6875 38.557 34.9196 38.1241 34.9588 37.5825C34.9979 37.041 34.8293 36.5959 34.5822 36.5884C34.3351 36.5809 34.103 37.0138 34.0639 37.5553C34.0247 38.0969 34.1933 38.542 34.4404 38.5495Z" fill="#009200" stroke="black" stroke-width="0.0740756"/>
<path d="M33.7021 38.3485C33.9492 38.356 34.1813 37.9231 34.2205 37.3815C34.2596 36.84 34.0911 36.3949 33.8439 36.3874C33.5968 36.3799 33.3647 36.8128 33.3256 37.3543C33.2864 37.8959 33.455 38.341 33.7021 38.3485Z" fill="#009200" stroke="black" stroke-width="0.0740756"/>
<path d="M33.3447 37.2941C33.5918 37.3016 33.8239 36.8686 33.8631 36.3271C33.9022 35.7855 33.7336 35.3404 33.4865 35.3329C33.2394 35.3254 33.0073 35.7583 32.9682 36.2999C32.929 36.8414 33.0976 37.2865 33.3447 37.2941Z" fill="#009200" stroke="black" stroke-width="0.0740756"/>
<path d="M34.1273 37.4863C34.3657 37.4901 34.5944 37.0083 34.638 36.41C34.6817 35.8118 34.5237 35.3237 34.2853 35.3198C34.0468 35.316 33.8182 35.7978 33.7745 36.3961C33.7309 36.9944 33.8888 37.4824 34.1273 37.4863Z" fill="#009200" stroke="black" stroke-width="0.0764691"/>
<path d="M35.163 37.6737C35.4013 37.6805 35.6273 37.2317 35.668 36.6713C35.7086 36.1108 35.5485 35.651 35.3102 35.6442C35.072 35.6374 34.846 36.0862 34.8053 36.6466C34.7647 37.2071 34.9248 37.6669 35.163 37.6737Z" fill="#009200" stroke="black" stroke-width="0.0739867"/>
<path d="M34.6552 37.2179C34.8934 37.2247 35.1195 36.7759 35.1602 36.2155C35.2008 35.655 35.0407 35.1952 34.8024 35.1884C34.5642 35.1815 34.3381 35.6304 34.2975 36.1908C34.2568 36.7513 34.417 37.2111 34.6552 37.2179Z" fill="#009200" stroke="black" stroke-width="0.0739867"/>
<path d="M34.0283 36.5841C34.2665 36.5909 34.4926 36.1421 34.5332 35.5817C34.5739 35.0212 34.4137 34.5614 34.1755 34.5546C33.9373 34.5478 33.7112 34.9966 33.6705 35.557C33.6299 36.1175 33.79 36.5773 34.0283 36.5841Z" fill="#009200" stroke="black" stroke-width="0.0739867"/>
<path d="M33.4111 36.1718C33.6493 36.1786 33.8754 35.7298 33.916 35.1694C33.9567 34.6089 33.7965 34.1491 33.5583 34.1423C33.3201 34.1355 33.094 34.5843 33.0533 35.1447C33.0127 35.7052 33.1729 36.165 33.4111 36.1718Z" fill="#009200" stroke="black" stroke-width="0.0739867"/>
<path d="M35.8021 36.4869C36.4568 36.2367 36.2954 34.4336 35.4418 32.4594C34.5881 30.4853 33.3654 29.0878 32.7107 29.338C32.0561 29.5881 32.2174 31.3913 33.0711 33.3654C33.9248 35.3395 35.1475 36.7371 35.8021 36.4869Z" fill="#C90000" stroke="black" stroke-width="0.0284251"/>
<path d="M33.3048 29.7193C33.6099 29.7247 33.861 29.5099 33.8657 29.2396C33.8704 28.9693 33.627 28.7459 33.3219 28.7405C33.0168 28.7352 32.7657 28.95 32.761 29.2203C32.7563 29.4906 32.9997 29.714 33.3048 29.7193Z" fill="#009200" stroke="black" stroke-width="0.0660836"/>
<path d="M33.7397 29.0146C34.0131 29.0194 34.2385 28.8041 34.2432 28.5338C34.248 28.2636 34.0301 28.0406 33.7567 28.0358C33.4834 28.031 33.2579 28.2463 33.2532 28.5166C33.2485 28.7868 33.4663 29.0098 33.7397 29.0146Z" fill="#009200" stroke="black" stroke-width="0.0667306"/>
<path d="M33.0658 29.0028C33.3392 29.0076 33.5647 28.7923 33.5694 28.5221C33.5741 28.2518 33.3563 28.0288 33.0829 28.024C32.8095 28.0192 32.5841 28.2345 32.5793 28.5048C32.5746 28.7751 32.7924 28.998 33.0658 29.0028Z" fill="#009200" stroke="black" stroke-width="0.0667306"/>
<path d="M33.2045 28.4671C33.4902 28.4721 33.7255 28.2705 33.7299 28.0168C33.7343 27.7631 33.5063 27.5534 33.2205 27.5485C32.9348 27.5435 32.6995 27.7451 32.6951 27.9988C32.6907 28.2524 32.9187 28.4621 33.2045 28.4671Z" fill="#009200" stroke="black" stroke-width="0.0660932"/>
<path d="M33.1498 27.8833C33.4356 27.8883 33.6708 27.6867 33.6752 27.433C33.6797 27.1793 33.4516 26.9696 33.1658 26.9647C32.8801 26.9597 32.6448 27.1613 32.6404 27.415C32.636 27.6686 32.8641 27.8783 33.1498 27.8833Z" fill="#009200" stroke="black" stroke-width="0.0660932"/>
<path d="M32.4252 28.629C32.6986 28.6337 32.9241 28.4185 32.9288 28.1482C32.9335 27.8779 32.7157 27.655 32.4423 27.6502C32.1689 27.6454 31.9434 27.8607 31.9387 28.1309C31.934 28.4012 32.1518 28.6242 32.4252 28.629Z" fill="#009200" stroke="black" stroke-width="0.0667306"/>
<path d="M32.5662 27.9815C32.8396 27.9863 33.065 27.7755 33.0696 27.5108C33.0742 27.246 32.8563 27.0275 32.5829 27.0227C32.3095 27.018 32.0841 27.2287 32.0795 27.4935C32.0749 27.7582 32.2928 27.9767 32.5662 27.9815Z" fill="#009200" stroke="black" stroke-width="0.0660438"/>
<path d="M31.756 28.0085C32.061 28.0138 32.3122 27.799 32.3169 27.5288C32.3216 27.2585 32.0781 27.035 31.7731 27.0297C31.468 27.0244 31.2169 27.2392 31.2122 27.5095C31.2074 27.7798 31.4509 28.0032 31.756 28.0085Z" fill="#009200" stroke="black" stroke-width="0.0660836"/>
<path d="M32.7729 27.1644C33.0586 27.1694 33.2938 26.9678 33.2983 26.7141C33.3027 26.4604 33.0746 26.2507 32.7889 26.2457C32.5031 26.2407 32.2679 26.4423 32.2635 26.696C32.259 26.9497 32.4871 27.1594 32.7729 27.1644Z" fill="#009200" stroke="black" stroke-width="0.0660932"/>
<path d="M32.0857 27.2737C32.3591 27.2785 32.5845 27.0677 32.5891 26.803C32.5937 26.5382 32.3758 26.3197 32.1025 26.315C31.8291 26.3102 31.6037 26.521 31.5991 26.7857C31.5944 27.0505 31.8123 27.269 32.0857 27.2737Z" fill="#009200" stroke="black" stroke-width="0.0660438"/>
<path d="M31.0229 28.0346C31.2963 28.0394 31.5217 27.8241 31.5264 27.5539C31.5312 27.2836 31.3133 27.0606 31.04 27.0558C30.7666 27.051 30.5411 27.2663 30.5364 27.5366C30.5317 27.8069 30.7495 28.0298 31.0229 28.0346Z" fill="#009200" stroke="black" stroke-width="0.0667306"/>
<path d="M31.199 27.6597C31.4724 27.6645 31.6978 27.4537 31.7024 27.189C31.707 26.9242 31.4891 26.7057 31.2157 26.701C30.9423 26.6962 30.717 26.9069 30.7123 27.1717C30.7077 27.4364 30.9256 27.6549 31.199 27.6597Z" fill="#009200" stroke="black" stroke-width="0.0660438"/>
<path d="M31.4138 27.2619C31.6872 27.2667 31.9126 27.056 31.9172 26.7912C31.9219 26.5265 31.704 26.308 31.4306 26.3032C31.1572 26.2984 30.9318 26.5092 30.9272 26.7739C30.9226 27.0387 31.1404 27.2572 31.4138 27.2619Z" fill="#009200" stroke="black" stroke-width="0.0660438"/>
<path d="M36.4421 36.489C37.283 36.1908 37.1442 34.0433 36.1319 31.6924C35.1197 29.3415 33.6175 27.6774 32.7765 27.9756C31.9356 28.2738 32.0745 30.4214 33.0867 32.7723C34.0989 35.1232 35.6012 36.7872 36.4421 36.489Z" fill="#009200" stroke="black" stroke-width="0.0581208"/>
<path d="M36.3299 33.8688C36.4855 33.7945 36.4339 33.3374 36.2146 32.8477C35.9953 32.3581 35.6913 32.0213 35.5357 32.0956C35.3801 32.1698 35.4317 32.627 35.651 33.1166C35.8703 33.6063 36.1743 33.943 36.3299 33.8688Z" fill="#009200" stroke="black" stroke-width="0.059103"/>
<path fill-rule="evenodd" clip-rule="evenodd" d="M35.7861 32.9783C37.1032 34.5766 36.933 35.5944 36.7934 36.4539C36.3789 35.4625 36.1602 34.8389 34.8431 33.2406C33.526 31.6423 34.1839 30.5195 34.2742 29.9257C34.472 30.4393 34.469 31.38 35.7861 32.9783Z" fill="#009200" stroke="black" stroke-width="0.0605421"/>
<path fill-rule="evenodd" clip-rule="evenodd" d="M35.9052 34.2694C37.2223 35.8678 37.0522 36.8855 36.9125 37.745C36.4981 36.7536 36.2794 36.1301 34.9623 34.5317C33.6452 32.9334 34.303 31.8106 34.3933 31.2169C34.5911 31.7305 34.5881 32.6711 35.9052 34.2694Z" fill="#009200" stroke="black" stroke-width="0.0605421"/>
<path fill-rule="evenodd" clip-rule="evenodd" d="M35.9529 35.31C37.303 36.8798 37.1539 37.9009 37.0321 38.7631C36.5971 37.7809 36.3655 37.1621 35.0154 35.5924C33.6653 34.0226 34.2999 32.8861 34.3778 32.2906C34.5863 32.7999 34.6028 33.7403 35.9529 35.31Z" fill="#009200" stroke="black" stroke-width="0.0605408"/>
<path d="M35.7246 33.0564C36.033 32.9774 35.9694 32.2061 35.5827 31.3337C35.1959 30.4613 34.6324 29.8181 34.324 29.8971C34.0156 29.9761 34.0792 30.7473 34.4659 31.6198C34.8527 32.4922 35.4162 33.1354 35.7246 33.0564Z" fill="#009200" stroke="black" stroke-width="0.0600054"/>
<path d="M35.0457 33.6835C35.3232 33.6353 35.3046 33.0105 35.0042 32.288C34.7037 31.5655 34.2351 31.0189 33.9576 31.0671C33.6801 31.1153 33.6987 31.7401 33.9991 32.4626C34.2996 33.1851 34.7682 33.7317 35.0457 33.6835Z" fill="#009200" stroke="black" stroke-width="0.0584232"/>
<path d="M34.3831 34.2848C34.6614 34.2424 34.6557 33.6176 34.3704 32.8892C34.085 32.1609 33.628 31.6049 33.3497 31.6473C33.0713 31.6897 33.077 32.3145 33.3624 33.0429C33.6478 33.7712 34.1047 34.3272 34.3831 34.2848Z" fill="#009200" stroke="black" stroke-width="0.0584006"/>
<path d="M34.8661 31.7624C35.0903 31.721 35.0624 31.2509 34.8038 30.7126C34.5451 30.1742 34.1537 29.7713 33.9294 29.8128C33.7052 29.8542 33.7331 30.3243 33.9918 30.8626C34.2504 31.401 34.6419 31.8039 34.8661 31.7624Z" fill="#009200" stroke="black" stroke-width="0.060281"/>
<path d="M34.2556 32.1967C34.4821 32.1675 34.4844 31.6966 34.2606 31.1448C34.0369 30.593 33.6719 30.1694 33.4454 30.1986C33.2188 30.2277 33.2165 30.6987 33.4403 31.2505C33.664 31.8023 34.029 32.2259 34.2556 32.1967Z" fill="#009200" stroke="black" stroke-width="0.0602397"/>
<path fill-rule="evenodd" clip-rule="evenodd" d="M33.4357 30.5638C33.8242 31.5123 33.9811 32.3659 33.7849 32.4694C33.5887 32.573 33.115 31.8866 32.7266 30.938" fill="#009200"/>
<path d="M33.4357 30.5638C33.8242 31.5123 33.9811 32.3659 33.7849 32.4694C33.5887 32.573 33.115 31.8866 32.7266 30.938" stroke="black" stroke-width="0.0595982"/>
<path d="M34.1931 31.0813C34.4196 31.0521 34.4219 30.5812 34.1981 30.0294C33.9744 29.4776 33.6094 29.054 33.3829 29.0831C33.1563 29.1123 33.154 29.5833 33.3778 30.1351C33.6015 30.6868 33.9665 31.1105 34.1931 31.0813Z" fill="#009200" stroke="black" stroke-width="0.0602397"/>
<path d="M33.5436 31.3948C33.7709 31.37 33.7836 30.8993 33.5718 30.3434C33.3601 29.7875 33.0042 29.357 32.7768 29.3818C32.5495 29.4066 32.5369 29.8773 32.7486 30.4332C32.9603 30.9891 33.3163 31.4196 33.5436 31.3948Z" fill="#009200" stroke="black" stroke-width="0.0602457"/>
<path fill-rule="evenodd" clip-rule="evenodd" d="M32.779 29.2914C33.1577 29.9329 33.3617 30.5323 33.2337 30.6298C33.1058 30.7273 32.6951 30.2852 32.3164 29.6437" fill="#009200"/>
<path d="M32.779 29.2914C33.1577 29.9329 33.3617 30.5323 33.2337 30.6298C33.1058 30.7273 32.6951 30.2852 32.3164 29.6437" stroke="black" stroke-width="0.0597527"/>
<path fill-rule="evenodd" clip-rule="evenodd" d="M33.0407 28.8646C33.4194 29.5061 33.6234 30.1056 33.4955 30.2031C33.3675 30.3005 32.9568 29.8584 32.5781 29.2169" fill="#009200"/>
<path d="M33.0407 28.8646C33.4194 29.5061 33.6234 30.1056 33.4955 30.2031C33.3675 30.3005 32.9568 29.8584 32.5781 29.2169" stroke="black" stroke-width="0.0597527"/>
<path fill-rule="evenodd" clip-rule="evenodd" d="M34.2038 28.9423C34.7303 29.8177 35.0135 30.6359 34.835 30.7692C34.6565 30.9025 34.0851 30.2995 33.5586 29.4241" fill="#009200"/>
<path d="M34.2038 28.9423C34.7303 29.8177 35.0135 30.6359 34.835 30.7692C34.6565 30.9025 34.0851 30.2995 33.5586 29.4241" stroke="black" stroke-width="0.0596285"/>
<path fill-rule="evenodd" clip-rule="evenodd" d="M33.4404 28.4692C33.8204 29.1758 34.0258 29.8359 33.898 29.9429C33.7703 30.0499 33.3586 29.5626 32.9785 28.856" fill="#009200"/>
<path d="M33.4404 28.4692C33.8204 29.1758 34.0258 29.8359 33.898 29.9429C33.7703 30.0499 33.3586 29.5626 32.9785 28.856" stroke="black" stroke-width="0.0587628"/>
<path fill-rule="evenodd" clip-rule="evenodd" d="M33.3886 27.4877C33.1353 27.7446 33.3836 28.2224 33.6151 28.3931C33.8737 28.6293 35.3344 30.1674 36.3624 28.8663C35.5378 28.8527 33.9972 26.9172 33.3886 27.4877Z" fill="#804BFF" stroke="black" stroke-width="0.0606898"/>
<path fill-rule="evenodd" clip-rule="evenodd" d="M33.2069 26.7237C32.9537 26.9806 33.202 27.4583 33.4335 27.6291C33.6921 27.8652 35.1528 29.4034 36.1808 28.1023C35.3561 28.0886 33.8155 26.1532 33.2069 26.7237Z" fill="#804BFF" stroke="black" stroke-width="0.0606898"/>
<path fill-rule="evenodd" clip-rule="evenodd" d="M32.9745 25.9985C32.7213 26.2554 32.9695 26.7331 33.201 26.9039C33.4597 27.14 34.9204 28.6782 35.9484 27.3771C35.1237 27.3634 33.5831 25.428 32.9745 25.9985Z" fill="#804BFF" stroke="black" stroke-width="0.0606898"/>
<path fill-rule="evenodd" clip-rule="evenodd" d="M32.4706 25.1697C32.2174 25.4266 32.4656 25.9043 32.6971 26.0751C32.9558 26.3112 34.4165 27.8494 35.4445 26.5483C34.6198 26.5346 33.0792 24.5992 32.4706 25.1697Z" fill="#804BFF" stroke="black" stroke-width="0.0606898"/>
<path fill-rule="evenodd" clip-rule="evenodd" d="M30.6542 24.332C31.178 23.949 32.1426 23.8363 32.8921 24.2193C33.5179 24.526 34.555 25.7668 35.3369 26.0612C35.1294 26.1071 34.913 26.1168 34.7004 26.0897C34.4879 26.0627 34.2835 25.9995 34.0994 25.9039C33.4017 26.4023 33.1548 26.4741 32.4425 26.5726C31.4579 26.7082 30.6396 26.4517 30.3568 25.9419C30.0612 25.4612 30.1896 24.6902 30.6542 24.332Z" fill="#804BFF" stroke="black" stroke-width="0.0645634"/>
<path d="M31.7226 25.3384C31.9714 25.3428 32.1751 25.2298 32.1776 25.086C32.1801 24.9423 31.9805 24.8223 31.7317 24.8179C31.4829 24.8136 31.2792 24.9266 31.2767 25.0703C31.2742 25.214 31.4738 25.3341 31.7226 25.3384Z" fill="#FF0000" stroke="black" stroke-width="0.0586604"/>
<path d="M30.5365 26.5306C30.862 26.4096 31.0659 26.151 30.992 25.9529C30.9181 25.7549 30.5944 25.6924 30.269 25.8134C29.9435 25.9344 29.7396 26.193 29.8135 26.3911C29.8873 26.5891 30.2111 26.6516 30.5365 26.5306Z" fill="#FFFF00" stroke="black" stroke-width="0.0637138"/>
<path d="M31.7105 25.2155C31.7993 25.217 31.8723 25.1561 31.8737 25.0794C31.875 25.0026 31.8042 24.9392 31.7154 24.9376C31.6266 24.9361 31.5536 24.997 31.5523 25.0737C31.5509 25.1505 31.6218 25.2139 31.7105 25.2155Z" fill="black"/>
<path fill-rule="evenodd" clip-rule="evenodd" d="M30.7521 25.3905C30.794 25.5894 30.6473 25.8621 30.3273 25.9622C30.0003 26.1018 29.7538 26.4124 29.6127 26.9185C29.1103 25.7736 29.4248 25.2826 29.9511 25.1597C30.405 25.0091 30.6784 25.0249 30.7521 25.3905Z" fill="#FFFF00" stroke="black" stroke-width="0.0756053"/>
<path d="M30.2793 25.5813C30.3422 25.5781 30.3903 25.5236 30.3867 25.4596C30.3831 25.3957 30.3292 25.3465 30.2663 25.3498C30.2034 25.3531 30.1553 25.4075 30.1588 25.4715C30.1624 25.5354 30.2164 25.5846 30.2793 25.5813Z" fill="black"/>
</g>
</g>
<defs>
<clipPath id="clip0_10660_10287">
<rect width="64" height="64" rx="32" fill="white"/>
</clipPath>
</defs>
</svg>
