<svg width="64" height="64" viewBox="0 0 64 64" fill="none" xmlns="http://www.w3.org/2000/svg">
<g clip-path="url(#clip0_10660_10718)">
<path d="M0 43.525H64V46.4H0V43.525Z" fill="white"/>
<path d="M0 17.6H64V20.475H0V17.6Z" fill="white"/>
<path d="M0 46.4H64V64H0V46.4Z" fill="#0087FF"/>
<path d="M0 0H64V17.6H0V0Z" fill="#0087FF"/>
<path d="M0 38.725H64V43.525H0V38.725Z" fill="#FF0000"/>
<path d="M0 20.475H64V25.275H0V20.475Z" fill="#000001"/>
<path d="M0 27.525H64V36.4875H0V27.525Z" fill="#FFFF00"/>
<path d="M0 36.475H64V38.7125H0V36.475Z" fill="#008300"/>
<path d="M0 25.275H64V27.5125H0V25.275Z" fill="#008300"/>
<path d="M32.0025 21.3543C30.1664 21.3574 28.3723 21.9034 26.8458 22.9236C25.3192 23.9438 24.1285 25.3926 23.4233 27.0878C22.7181 28.7831 22.5299 30.649 22.8825 32.4508C23.2351 34.2527 24.1126 35.9101 25.4047 37.2145L21.4251 38.4945L21.7858 39.4021L20.5059 39.6814L21.4368 42.6603H42.5682L43.4875 39.6814L42.2075 39.4021L42.5682 38.4829L38.5886 37.2145C39.88 35.9108 40.7573 34.2545 41.1103 32.4537C41.4632 30.6529 41.276 28.7879 40.5723 27.0932C39.8685 25.3984 38.6796 23.9495 37.1548 22.9284C35.6301 21.9074 33.8375 21.3597 32.0025 21.3543Z" fill="white" stroke="black" stroke-width="0.232725"/>
<path d="M21.6348 39.728L22.4493 42.3578H41.556L42.3589 39.728H21.6348Z" fill="#008300"/>
<path d="M22.1465 40.0654L22.7399 42.0203H41.2532L41.8467 40.0654H26.8592H22.1465Z" fill="white"/>
<path d="M23.4522 41.2169C23.4522 41.2595 23.4478 41.3006 23.439 41.34C23.4302 41.3777 23.4148 41.4106 23.3928 41.4385C23.3708 41.468 23.3415 41.491 23.3048 41.5074C23.2681 41.5239 23.2212 41.5321 23.164 41.5321C23.1127 41.5321 23.0687 41.5255 23.0321 41.5124C22.994 41.4976 22.9624 41.4812 22.9375 41.4631L22.9969 41.308C23.0189 41.3228 23.0431 41.3351 23.0695 41.3449C23.0944 41.3564 23.1215 41.3622 23.1508 41.3622C23.1948 41.3622 23.2264 41.3498 23.2454 41.3252C23.2645 41.3022 23.274 41.262 23.274 41.2045V40.6258H23.4522V41.2169ZM23.936 41.5321C23.8788 41.5321 23.8304 41.5239 23.7909 41.5074C23.7498 41.4894 23.7161 41.4648 23.6897 41.4336C23.6633 41.4024 23.6435 41.3654 23.6303 41.3228C23.6186 41.2784 23.6127 41.2308 23.6127 41.1799V40.6258H23.7909V41.1602C23.7909 41.1963 23.7945 41.2267 23.8019 41.2513C23.8092 41.276 23.8194 41.2965 23.8326 41.3129C23.8444 41.3293 23.859 41.3408 23.8766 41.3474C23.8957 41.3539 23.9162 41.3572 23.9382 41.3572C23.9822 41.3572 24.0174 41.3425 24.0438 41.3129C24.0702 41.2833 24.0834 41.2325 24.0834 41.1602V40.6234H24.2637V41.1775C24.2637 41.2284 24.2564 41.276 24.2417 41.3203C24.23 41.363 24.2109 41.4007 24.1845 41.4336C24.1567 41.4648 24.1222 41.4886 24.0812 41.505C24.0401 41.5214 23.9917 41.5296 23.936 41.5296V41.5321ZM24.6442 40.6258C24.6589 40.6537 24.675 40.689 24.6926 40.7317L24.7498 40.8647L24.807 41.0125L24.8619 41.1553L24.9147 41.0125L24.9719 40.8647L25.0291 40.7317C25.0467 40.689 25.0628 40.6537 25.0775 40.6258H25.2402L25.2622 40.8228L25.2776 41.0519C25.2835 41.1307 25.2879 41.2103 25.2908 41.2907L25.3018 41.5148H25.1281L25.1193 41.2316L25.1017 40.9238L25.0577 41.0445L25.0049 41.175C24.9902 41.2193 24.9748 41.2612 24.9587 41.3006L24.9191 41.4016H24.7938L24.7564 41.3006L24.708 41.175L24.6574 41.0445L24.6134 40.9238C24.6046 41.0272 24.5988 41.1298 24.5958 41.2316L24.587 41.5148H24.4111L24.4221 41.2907L24.4353 41.0519L24.4529 40.8253L24.4749 40.6258H24.6442ZM25.7747 41.5321C25.719 41.5321 25.6706 41.5239 25.6295 41.5074C25.5885 41.4894 25.5547 41.4648 25.5284 41.4336C25.502 41.4024 25.4822 41.3654 25.469 41.3228C25.4572 41.2784 25.4514 41.2308 25.4514 41.1799V40.6258H25.6295V41.1602C25.6295 41.1963 25.6332 41.2267 25.6405 41.2513C25.6479 41.276 25.6581 41.2965 25.6713 41.3129C25.6845 41.3293 25.6992 41.3408 25.7153 41.3474C25.7344 41.3539 25.7549 41.3572 25.7769 41.3572C25.8209 41.3572 25.8561 41.3425 25.8825 41.3129C25.9088 41.2833 25.922 41.2325 25.922 41.1602V40.6234H26.1024V41.1775C26.1024 41.2284 26.0951 41.276 26.0804 41.3203C26.0687 41.363 26.0496 41.4007 26.0232 41.4336C25.9954 41.4648 25.9609 41.4886 25.9198 41.505C25.8788 41.5214 25.8304 41.5296 25.7747 41.5296V41.5321ZM26.2717 40.6258H26.4521V41.5148H26.2739L26.2717 40.6258ZM26.9272 40.9903L27.0195 40.8081C27.0489 40.7473 27.0752 40.6866 27.0987 40.6258H27.2966C27.2527 40.7211 27.2072 40.8138 27.1603 40.9041C27.1134 40.9944 27.0642 41.0847 27.0129 41.175V41.5148H26.8348V41.1775C26.782 41.0872 26.7321 40.9969 26.6852 40.9066C26.6383 40.8146 26.5928 40.7211 26.5489 40.6258H26.7578C26.7813 40.6866 26.8077 40.7473 26.837 40.8081L26.9272 40.9903ZM27.8113 41.5148L27.7827 41.4213L27.7519 41.3228H27.444L27.411 41.4213L27.3846 41.5148H27.1955L27.2813 41.2489L27.3582 41.0199L27.4352 40.8155C27.4601 40.7498 27.4858 40.6866 27.5122 40.6258H27.6837C27.7101 40.6866 27.7358 40.7498 27.7607 40.8155L27.8355 41.0199L27.9147 41.2489L28.0004 41.5148H27.8113ZM27.5958 40.8253C27.5928 40.8401 27.587 40.8581 27.5782 40.8795L27.5518 40.9558L27.5188 41.0543L27.4836 41.1627H27.7101L27.6749 41.0519L27.6419 40.9558L27.6156 40.8819L27.5958 40.8253ZM28.6713 40.9903L28.7636 40.8081C28.7929 40.7473 28.8193 40.6866 28.8428 40.6258H29.0407C28.9968 40.7211 28.952 40.8138 28.9066 40.9041C28.8597 40.9944 28.8098 41.0847 28.757 41.175V41.5148H28.5811V41.1775L28.4315 40.9066C28.3846 40.8146 28.3399 40.7211 28.2974 40.6258H28.5041L28.5833 40.8081L28.6713 40.9903ZM29.5554 41.5148L29.5268 41.4213L29.496 41.3228H29.1881L29.1573 41.4213L29.1287 41.5148H28.944L29.0275 41.2489L29.1067 41.0199L29.1815 40.8155C29.2064 40.7498 29.2328 40.6866 29.2607 40.6258H29.43C29.4564 40.6866 29.4821 40.7498 29.507 40.8155L29.584 41.0199L29.6632 41.2489L29.7467 41.5148H29.5554ZM29.3421 40.8253L29.3245 40.8795L29.2981 40.9558L29.2651 41.0543L29.2299 41.1627H29.4542L29.419 41.0519L29.386 40.9558L29.3597 40.8819L29.3421 40.8253ZM30.6573 41.5148L30.6287 41.4213L30.5979 41.3228H30.29L30.2592 41.4213L30.2306 41.5148H30.0459L30.1294 41.2489C30.1558 41.1668 30.1822 41.0904 30.2086 41.0199L30.2834 40.8155C30.3083 40.7498 30.334 40.6866 30.3604 40.6258H30.5319C30.5583 40.6866 30.584 40.7498 30.6089 40.8155L30.6837 41.0199L30.7629 41.2489L30.8486 41.5148H30.6573ZM30.4417 40.8253L30.4263 40.8795L30.4 40.9558L30.367 41.0543L30.3296 41.1627H30.5561L30.5209 41.0519L30.4879 40.9558L30.4615 40.8819L30.4417 40.8253ZM30.952 41.5148V40.6258H31.4842V40.7933H31.1323V40.9805H31.4447V41.1479H31.1301V41.5173L30.952 41.5148ZM31.8427 40.616C31.9615 40.616 32.0524 40.6398 32.1155 40.6874C32.18 40.735 32.2122 40.8089 32.2122 40.909C32.2122 40.9714 32.199 41.0223 32.1726 41.0617C32.1477 41.0995 32.1111 41.1298 32.0627 41.1528L32.1133 41.2267L32.1638 41.3178L32.2144 41.4163L32.2584 41.5148H32.0605L32.0143 41.4262L31.9703 41.34L31.9219 41.2587L31.8779 41.1898H31.79V41.5148H31.6096V40.6382C31.6492 40.6299 31.6895 40.6242 31.7306 40.6209L31.8405 40.616H31.8427ZM31.8537 40.7859H31.8141L31.7856 40.7908V41.0322H31.8361C31.9036 41.0322 31.952 41.0223 31.9813 41.0026C32.0106 40.9846 32.0253 40.9525 32.0253 40.9066C32.0253 40.8622 32.0106 40.8319 31.9813 40.8155C31.952 40.7958 31.908 40.7859 31.8493 40.7859H31.8537ZM32.375 40.6258H32.5531V41.5148H32.375V40.6258ZM33.2063 41.5148C33.1902 41.4853 33.1712 41.4541 33.1492 41.4213L33.0766 41.3203C33.0517 41.2858 33.0253 41.253 32.9974 41.2218C32.9695 41.1906 32.9424 41.1627 32.916 41.1381V41.5148H32.7357V40.6258H32.916V40.9608C32.963 40.9066 33.0091 40.8499 33.0546 40.7908L33.1866 40.6258H33.3999C33.3456 40.6981 33.2907 40.767 33.2349 40.8327C33.1807 40.9 33.1235 40.9673 33.0634 41.0346C33.1264 41.0937 33.1873 41.1643 33.2459 41.2464C33.3061 41.3285 33.3632 41.4188 33.4175 41.5173L33.2063 41.5148ZM34.0795 41.5148L34.0531 41.4213L34.0223 41.3228H33.7144L33.6814 41.4213L33.655 41.5148H33.4681L33.5538 41.2489L33.6308 41.0199L33.7078 40.8155C33.7327 40.7498 33.7584 40.6866 33.7848 40.6258H33.9563C33.9827 40.6866 34.0084 40.7498 34.0333 40.8155L34.1081 41.0199L34.1873 41.2489L34.273 41.5148H34.0795ZM33.8662 40.8253L33.8508 40.8795L33.8244 40.9558L33.7892 41.0543L33.754 41.1627H33.9805L33.9453 41.0519L33.9123 40.9558L33.886 40.8819L33.8662 40.8253ZM34.8625 40.6258C34.8771 40.6537 34.8925 40.689 34.9087 40.7317L34.9658 40.8647L35.023 41.0125L35.078 41.1553L35.1308 41.0125L35.188 40.8647L35.2452 40.7317C35.2628 40.689 35.2789 40.6537 35.2935 40.6258H35.4563L35.4783 40.8228L35.4937 41.0519C35.4996 41.1307 35.504 41.2103 35.5069 41.2907L35.5179 41.5148H35.3441L35.3353 41.2316L35.3177 40.9238L35.2738 41.0445L35.221 41.175C35.2063 41.2193 35.1909 41.2612 35.1748 41.3006L35.1352 41.4016H35.0098L34.9724 41.3006L34.9241 41.175L34.8735 41.0445L34.8295 40.9238C34.8207 41.0272 34.8148 41.1298 34.8119 41.2316L34.8031 41.5148H34.6271L34.6381 41.2907L34.6513 41.0519L34.6689 40.8253L34.6909 40.6258H34.8625ZM36.2129 41.5148L36.1821 41.4213L36.1535 41.3228H35.8434L35.8126 41.4213L35.784 41.5148H35.5993L35.6828 41.2489L35.762 41.0199L35.8368 40.8155C35.8617 40.7498 35.8881 40.6866 35.916 40.6258H36.0853C36.1117 40.6866 36.1374 40.7498 36.1623 40.8155C36.1887 40.8811 36.2143 40.9493 36.2393 41.0199L36.3185 41.2489L36.402 41.5148H36.2129ZM35.9973 40.8253L35.9797 40.8795L35.9534 40.9558L35.9204 41.0543L35.8852 41.1627H36.1095L36.0743 41.0519L36.0413 40.9558L36.0149 40.8819L35.9973 40.8253ZM36.7451 41.3622C36.7701 41.3622 36.7906 41.3597 36.8067 41.3548C36.8228 41.3498 36.836 41.3441 36.8463 41.3375C36.8566 41.3277 36.8639 41.3178 36.8683 41.308C36.8712 41.2965 36.8727 41.2842 36.8727 41.271C36.8727 41.2415 36.8602 41.2169 36.8353 41.1972C36.8118 41.1775 36.7701 41.1569 36.7099 41.1356L36.6308 41.1011C36.6058 41.0863 36.5831 41.0699 36.5626 41.0519C36.5421 41.0305 36.5252 41.0059 36.512 40.978C36.4973 40.9484 36.49 40.9131 36.49 40.8721C36.49 40.8311 36.4973 40.7941 36.512 40.7613C36.5267 40.7284 36.5465 40.7005 36.5714 40.6776C36.5963 40.6546 36.6271 40.6365 36.6638 40.6234C36.6989 40.6119 36.7393 40.6061 36.7847 40.6061C36.8375 40.6061 36.8837 40.6119 36.9233 40.6234C36.9614 40.6365 36.9937 40.6513 37.0201 40.6677L36.9673 40.8253C36.9453 40.8122 36.9203 40.8007 36.8925 40.7908C36.8661 40.781 36.8338 40.7761 36.7957 40.7761C36.7517 40.7761 36.7209 40.7826 36.7033 40.7958C36.6843 40.8089 36.6747 40.8294 36.6747 40.8573C36.6747 40.8737 36.6784 40.8869 36.6857 40.8967C36.6931 40.9082 36.7026 40.9189 36.7143 40.9287L36.7583 40.9534L36.8133 40.9755C36.8544 40.9919 36.8903 41.0084 36.9211 41.0248C36.9504 41.0412 36.9753 41.0609 36.9959 41.0839C37.0164 41.1069 37.0318 41.1331 37.042 41.1627C37.0523 41.1922 37.0574 41.2284 37.0574 41.271C37.0574 41.3531 37.031 41.418 36.9783 41.4656C36.9269 41.5099 36.8492 41.5321 36.7451 41.5321C36.7099 41.5321 36.6777 41.5296 36.6484 41.5247C36.6205 41.5214 36.5956 41.5157 36.5736 41.5074L36.5164 41.4877L36.479 41.4631L36.5296 41.3055C36.5531 41.3203 36.5824 41.3334 36.6176 41.3449C36.6513 41.3564 36.6938 41.3622 36.7451 41.3622ZM37.6733 40.6258H37.8536V41.5148H37.6733V41.1381H37.3741V41.5148H37.1938V40.6258H37.3741V40.9632H37.6733V40.6258ZM38.5662 41.5148L38.5398 41.4213L38.509 41.3228H38.2011L38.1681 41.4213L38.1417 41.5148H37.9548C37.9841 41.4196 38.0134 41.331 38.0428 41.2489C38.0677 41.1668 38.0933 41.0904 38.1197 41.0199L38.1945 40.8155C38.2194 40.7498 38.2451 40.6866 38.2715 40.6258H38.443C38.4694 40.6866 38.4951 40.7498 38.52 40.8155L38.5948 41.0199L38.674 41.2489L38.7597 41.5148H38.5662ZM38.3529 40.8253L38.3375 40.8795L38.3111 40.9558L38.2759 41.0543L38.2407 41.1627H38.4672L38.432 41.0519L38.3991 40.9558L38.3727 40.8819L38.3529 40.8253ZM39.0941 40.616C39.2143 40.616 39.3059 40.6398 39.369 40.6874C39.432 40.735 39.4635 40.8089 39.4635 40.909C39.4635 40.9714 39.4511 41.0223 39.4262 41.0617C39.3998 41.0995 39.3631 41.1298 39.3162 41.1528L39.3668 41.2267L39.4174 41.3178L39.4679 41.4163L39.5119 41.5148H39.314L39.2678 41.4262L39.2216 41.34L39.1776 41.2587L39.1292 41.1898H39.0413V41.5148H38.8631V40.6382C38.9012 40.6299 38.9408 40.6242 38.9819 40.6209L39.0941 40.616ZM39.1051 40.7859H39.0721L39.0435 40.7908V41.0322H39.0941C39.1615 41.0322 39.2099 41.0223 39.2392 41.0026C39.2685 40.9846 39.2832 40.9525 39.2832 40.9066C39.2832 40.8622 39.2685 40.8319 39.2392 40.8155C39.2099 40.7958 39.1659 40.7859 39.1073 40.7859H39.1051ZM39.6263 40.6258H39.8067V41.5148H39.6263V40.6258ZM40.4577 41.5148C40.443 41.4853 40.4239 41.4541 40.4005 41.4213C40.38 41.3884 40.3565 41.3548 40.3301 41.3203C40.3052 41.2858 40.2788 41.253 40.2509 41.2218C40.2231 41.1906 40.1952 41.1627 40.1673 41.1381V41.5148H39.9914V40.6258H40.1673V40.9608C40.2143 40.9066 40.2612 40.8499 40.3081 40.7908L40.4401 40.6258H40.6512C40.597 40.6981 40.5427 40.767 40.4885 40.8327C40.4342 40.9 40.377 40.9673 40.3169 41.0346C40.3799 41.0937 40.4408 41.1643 40.4995 41.2464C40.5581 41.3285 40.6153 41.4188 40.671 41.5173L40.4577 41.5148ZM40.7744 40.6258H40.9503V41.5148H40.7744V40.6258Z" fill="black"/>
<path fill-rule="evenodd" clip-rule="evenodd" d="M21.6348 39.7279L22.8449 39.4021L22.4726 38.7389L24.5555 37.9592V38.669H25.1955V39.7512H21.7046L21.6348 39.7279Z" fill="#008300"/>
<path fill-rule="evenodd" clip-rule="evenodd" d="M24.8922 39.7512H22.3555L24.8922 39.0647V39.7512ZM24.3336 38.6807H23.2049L24.3685 38.2385L24.3336 38.6807ZM22.8558 38.8669L23.1118 39.3323L24.7991 38.8669H22.8558Z" fill="white"/>
<path fill-rule="evenodd" clip-rule="evenodd" d="M42.3594 39.7279L41.1492 39.4021L41.5216 38.7389L39.4387 37.9592V38.669H38.7987V39.7512H42.2896L42.3594 39.7279Z" fill="#008300"/>
<path fill-rule="evenodd" clip-rule="evenodd" d="M39.102 39.7512H41.6387L39.102 39.0647V39.7512ZM39.6605 38.6807H40.7892L39.6256 38.2385L39.6605 38.6807ZM41.1383 38.8669L40.8823 39.3323L39.1951 38.8669H41.1383Z" fill="white"/>
<path d="M31.781 22.4597C29.888 22.5222 28.0743 23.2351 26.6454 24.4783C25.2164 25.7216 24.2595 27.4192 23.9357 29.2854C23.612 31.1516 23.9411 33.0723 24.8677 34.7242C25.7944 36.3761 27.2619 37.6583 29.0232 38.3548V37.4472C27.476 36.7649 26.2097 35.5726 25.4355 34.0694C24.6614 32.5661 24.4262 30.8427 24.7693 29.187C25.1125 27.5312 26.0131 26.0433 27.3209 24.9714C28.6288 23.8996 30.2647 23.3088 31.9555 23.2975H32.0137C33.7086 23.2982 35.3517 23.8815 36.6676 24.9496C37.9835 26.0178 38.8922 27.5058 39.2413 29.1643C39.5905 30.8228 39.3589 32.551 38.5853 34.059C37.8118 35.567 36.5433 36.7633 34.9926 37.4472V38.3548C36.7821 37.6595 38.2721 36.3602 39.2045 34.6819C40.1369 33.0037 40.453 31.0522 40.098 29.1654C39.743 27.2787 38.7393 25.5755 37.2608 24.3508C35.7823 23.1262 33.922 22.4572 32.0021 22.4597H31.781Z" fill="#FFFF00" stroke="black" stroke-width="0.139635"/>
<path fill-rule="evenodd" clip-rule="evenodd" d="M34.2592 36.621L34.2709 37.8545C33.5261 37.9708 32.7 38.7388 32.4789 38.8785C32.2578 39.0297 31.8971 39.3207 31.6993 39.2974C31.3618 39.2508 31.6062 38.9832 31.6062 38.9832C31.6062 38.9832 31.3734 39.2625 31.2105 39.1345C31.0476 39.0297 31.3036 38.8203 31.3036 38.8203C31.3036 38.8203 31.2222 38.9367 31.0476 38.8785C30.8847 38.8319 31.0011 38.6458 31.0011 38.6458C31.0011 38.6458 30.5589 38.8785 30.4775 38.797C30.3611 38.6457 30.524 38.5061 30.524 38.5061L31.5596 37.6334C32.1298 37.4007 32.2927 37.7265 32.5487 37.7032C32.9809 37.5889 33.3849 37.3869 33.7356 37.1098C33.9334 36.9119 33.8752 36.7025 34.0265 36.6443C34.1778 36.5861 34.2592 36.621 34.2592 36.621Z" fill="white" stroke="black" stroke-width="0.104726"/>
<path fill-rule="evenodd" clip-rule="evenodd" d="M29.7226 36.7141L29.7109 37.8545C30.4091 37.9476 31.1887 38.6923 31.3982 38.8319C31.596 38.9599 31.9451 39.181 32.1313 39.1578C32.4338 39.1228 32.364 39.0065 32.364 39.0065C32.364 39.0065 32.5036 39.0763 32.6898 39.0065C32.876 38.9367 32.7829 38.8087 32.7829 38.8087C32.7829 38.8087 33.0622 38.8901 33.1785 38.7389C33.2949 38.6109 33.0622 38.4712 33.0622 38.4712C33.0622 38.4712 33.1785 38.3898 32.9924 38.4945C32.8062 38.5876 32.4338 38.1687 32.0615 38.1454C31.6775 38.1454 31.6426 38.5178 31.4098 38.3432C31.1655 38.157 31.596 37.8545 31.7473 37.808C32.3407 37.6101 32.8993 37.8545 32.1778 37.5752C31.8055 37.4356 31.5146 37.7032 31.2702 37.6916C31.0142 37.68 30.3858 37.3425 30.2229 37.1563C30.0368 36.9701 30.0833 36.784 29.9437 36.7258C29.804 36.6792 29.7226 36.7025 29.7109 36.7141H29.7226Z" fill="white" stroke="black" stroke-width="0.09309"/>
<path d="M32.794 38.8087L32.2937 38.5992M32.4217 39.0298L31.8398 38.6807" stroke="black" stroke-width="0.09309"/>
<path fill-rule="evenodd" clip-rule="evenodd" d="M28.7679 36.1207C27.325 36.8189 27.2551 34.9804 26.6035 35.0036C27.8253 34.1891 27.6275 35.7018 28.7679 36.1207ZM28.2093 34.096C27.4879 35.4109 29.1751 35.5854 29.1169 36.2254C29.9431 35.1084 28.5351 35.2015 28.2093 34.096Z" fill="#008300" stroke="black" stroke-width="0.046545"/>
<path fill-rule="evenodd" clip-rule="evenodd" d="M27.511 34.608C25.7306 34.9105 26.2193 33.3745 25.4746 33.2465C27.0455 32.7811 26.3706 33.968 27.511 34.608Z" fill="#008300" stroke="black" stroke-width="0.046545"/>
<path fill-rule="evenodd" clip-rule="evenodd" d="M27.3242 32.7928C26.3467 33.9447 27.7547 34.0029 27.5918 34.608C28.6042 33.6771 27.5569 33.712 27.3242 32.7928ZM26.3002 33.0022C24.5315 32.7462 25.6485 30.9426 25.1133 30.5586C26.5678 30.6633 25.6253 32.2459 26.3002 33.0022Z" fill="#008300" stroke="black" stroke-width="0.046545"/>
<path fill-rule="evenodd" clip-rule="evenodd" d="M26.9744 30.7215C25.3453 31.5011 26.986 32.3389 26.3461 33.0487C27.9519 32.9673 26.5322 31.92 26.9744 30.7447V30.7215ZM26.0668 30.7797C24.1701 29.9186 26.1482 28.2895 25.8108 27.696C27.1024 29.0109 25.1359 29.4997 26.0668 30.7797Z" fill="#008300" stroke="black" stroke-width="0.046545"/>
<path fill-rule="evenodd" clip-rule="evenodd" d="M27.277 28.5921C25.6479 28.8015 26.4625 30.3026 26.125 30.8378C27.405 30.5469 26.381 29.7906 27.2886 28.5921H27.277ZM26.4857 28.1382C25.5665 26.7419 27.1024 26.4277 27.2072 25.7179C27.6493 27.5564 26.6021 26.963 26.4857 28.1382Z" fill="#008300" stroke="black" stroke-width="0.046545"/>
<path fill-rule="evenodd" clip-rule="evenodd" d="M28.3255 26.9746C26.8128 26.5441 27.0921 28.0684 26.5801 28.4292C27.8601 28.6386 27.5924 27.4168 28.3255 26.9746ZM27.6273 26.323C27.3248 25.1128 27.9299 25.3106 28.6164 24.7754C28.9888 25.7528 28.0695 25.6365 27.6273 26.323ZM29.559 26.1368C28.3953 25.2757 28.2673 26.4394 27.6622 26.6023C28.7793 27.2655 28.8259 26.2764 29.559 26.1485V26.1368ZM28.8608 25.555C28.8957 25.0314 29.5939 24.3448 30.3153 24.5776C30.2804 25.4503 29.4426 25.6714 28.8608 25.5666V25.555Z" fill="#008300" stroke="black" stroke-width="0.046545"/>
<path fill-rule="evenodd" clip-rule="evenodd" d="M35.2243 36.1207C36.6672 36.8189 36.737 34.9804 37.3887 35.0036C36.1669 34.1891 36.3647 35.7018 35.2243 36.1207ZM35.7829 34.096C36.5043 35.4109 34.8171 35.5854 34.8752 36.2254C34.0491 35.1084 35.4571 35.2015 35.7829 34.096Z" fill="#008300" stroke="black" stroke-width="0.046545"/>
<path fill-rule="evenodd" clip-rule="evenodd" d="M36.4812 34.608C38.2616 34.9105 37.7729 33.3745 38.5176 33.2465C36.9467 32.7811 37.6216 33.968 36.4812 34.608Z" fill="#008300" stroke="black" stroke-width="0.046545"/>
<path fill-rule="evenodd" clip-rule="evenodd" d="M36.668 32.7928C37.6455 33.9447 36.2375 34.0029 36.4004 34.608C35.388 33.6771 36.4353 33.712 36.668 32.7928ZM37.692 33.0022C39.4607 32.7462 38.3436 30.9426 38.8789 30.5586C37.4244 30.6633 38.3669 32.2459 37.692 33.0022Z" fill="#008300" stroke="black" stroke-width="0.046545"/>
<path fill-rule="evenodd" clip-rule="evenodd" d="M37.0178 30.7215C38.6469 31.5011 37.0061 32.3389 37.6461 33.0487C36.0403 32.9673 37.46 31.92 37.0178 30.7447V30.7215ZM37.9254 30.7797C39.8221 29.9186 37.844 28.2895 38.1814 27.696C36.8898 29.0109 38.8563 29.4997 37.9254 30.7797Z" fill="#008300" stroke="black" stroke-width="0.046545"/>
<path fill-rule="evenodd" clip-rule="evenodd" d="M36.7152 28.5921C38.3443 28.8015 37.5297 30.3026 37.8672 30.8378C36.5872 30.5469 37.6112 29.7906 36.7036 28.5921H36.7152ZM37.5065 28.1382C38.4257 26.7419 36.8897 26.4277 36.785 25.7179C36.3428 27.5564 37.3901 26.963 37.5065 28.1382Z" fill="#008300" stroke="black" stroke-width="0.046545"/>
<path fill-rule="evenodd" clip-rule="evenodd" d="M35.6667 26.9746C37.1794 26.5441 36.9001 28.0684 37.4121 28.4292C36.1321 28.6386 36.3998 27.4168 35.6667 26.9746ZM36.3648 26.323C36.6674 25.1128 36.0623 25.3106 35.3758 24.7754C35.0034 25.7528 35.9227 25.6365 36.3648 26.323ZM34.4332 26.1368C35.5969 25.2757 35.7249 26.4394 36.3299 26.6023C35.2129 27.2655 35.1663 26.2764 34.4332 26.1485V26.1368ZM35.1314 25.555C35.0965 25.0314 34.3983 24.3448 33.6769 24.5776C33.7118 25.4503 34.5496 25.6714 35.1314 25.5666V25.555Z" fill="#008300" stroke="black" stroke-width="0.046545"/>
<path d="M30.5723 24.0417L30.6417 24.4494L30.8586 24.406C30.9193 24.406 30.954 24.38 30.9714 24.3627C30.9974 24.3366 31.0061 24.2932 30.9974 24.2325H31.0234L31.0842 24.5795H31.0581L31.0234 24.4928L30.9714 24.4581H30.876L30.6504 24.5015L30.7024 24.8398L30.7285 24.9266L30.7545 24.9352H30.8065L30.9801 24.9092L31.1015 24.8745L31.1709 24.8138C31.1969 24.7791 31.223 24.727 31.2403 24.6576H31.275L31.2317 24.9179L30.4509 25.0567L30.4422 25.0307H30.4769L30.5376 24.996C30.555 24.9786 30.5636 24.9699 30.5636 24.9526V24.8485L30.4422 24.1891C30.4422 24.1284 30.4248 24.085 30.4075 24.0764C30.3815 24.059 30.3554 24.0503 30.312 24.059H30.2773V24.0417L31.0581 23.9028L31.1015 24.1284H31.0755C31.0641 24.091 31.0465 24.0558 31.0234 24.0243L30.954 23.9896C30.9195 23.9844 30.8844 23.9844 30.8499 23.9896L30.5723 24.0417ZM32.0645 24.5362H31.6654L31.596 24.701C31.5823 24.7282 31.5735 24.7575 31.57 24.7878C31.57 24.8051 31.5787 24.8225 31.596 24.8311C31.6134 24.8485 31.6394 24.8485 31.6915 24.8572V24.8832H31.3705V24.8572C31.4138 24.8572 31.4399 24.8398 31.4572 24.8311L31.544 24.675L31.891 23.8248H31.9257L32.2901 24.6836C32.3161 24.753 32.3421 24.7964 32.3681 24.8138C32.3942 24.8398 32.4202 24.8485 32.4636 24.8485V24.8832H32.0558V24.8572C32.0992 24.8572 32.1252 24.8485 32.1426 24.8311C32.1599 24.8225 32.1599 24.8051 32.1599 24.7878C32.1599 24.7704 32.1599 24.7357 32.1339 24.6836L32.0645 24.5362ZM32.0471 24.4754L31.8736 24.059L31.6915 24.4841L32.0471 24.4754ZM33.5914 23.9983L33.5567 24.3453H33.5307C33.5265 24.2575 33.4963 24.1729 33.4439 24.1024C33.3908 24.0465 33.3206 24.0098 33.2444 23.9983C33.1804 23.986 33.1142 23.992 33.0535 24.0156C32.9852 24.0432 32.9275 24.0918 32.8887 24.1544C32.8453 24.2238 32.8193 24.3193 32.8019 24.4321C32.7856 24.5122 32.7856 24.5948 32.8019 24.675C32.8193 24.753 32.854 24.8138 32.906 24.8485C32.9581 24.9005 33.0275 24.9352 33.1056 24.9439C33.1663 24.9526 33.227 24.9526 33.2791 24.9352C33.3398 24.9179 33.4005 24.8658 33.4786 24.7964L33.5046 24.8138C33.4352 24.9005 33.3658 24.9526 33.2878 24.9873C33.2097 25.0133 33.1316 25.022 33.0275 25.0046C32.8626 24.9699 32.7412 24.8919 32.6805 24.7444C32.6254 24.6376 32.6071 24.5156 32.6284 24.3974C32.6458 24.3019 32.6805 24.2065 32.7412 24.1371C32.8019 24.0503 32.88 23.9983 32.9668 23.9636C33.0466 23.931 33.1337 23.9202 33.2191 23.9324C33.3045 23.9446 33.3851 23.9793 33.4526 24.033L33.4873 24.059L33.5307 24.0503L33.5654 23.9983H33.5914Z" fill="black"/>
<path d="M31.7239 25.9157C31.6076 25.9157 31.4912 25.939 31.3865 25.9623C31.205 26.2779 30.9158 26.5176 30.5719 26.6372L30.5021 26.6604C30.1435 26.8127 29.7408 26.8252 29.3734 26.6954C29.0492 26.9109 28.7523 27.1649 28.4891 27.4517C28.5559 27.8364 28.4726 28.2321 28.2563 28.5572C28.079 28.9007 27.7805 29.1661 27.4185 29.3019C27.3022 29.6742 27.2323 30.0699 27.2207 30.4655C27.4534 30.64 27.6512 30.9775 27.7327 31.3848L27.756 31.4662C27.8374 31.9084 27.756 32.3273 27.5931 32.5717C27.7443 32.9324 27.9422 33.2698 28.1749 33.584C28.4541 33.5607 28.8265 33.7004 29.1523 33.9447L29.2105 34.0029C29.5596 34.2938 29.769 34.6546 29.7923 34.9571C30.153 35.1433 30.5254 35.2829 30.921 35.3644C31.1305 35.1666 31.5028 35.0153 31.9217 35.0153H32.0032C32.457 35.0153 32.8526 35.1549 33.0737 35.3644C33.4694 35.2829 33.8417 35.1316 34.1908 34.9571C34.2553 34.573 34.4633 34.2278 34.7726 33.9913C35.0601 33.732 35.4327 33.5871 35.8199 33.584C36.0526 33.2815 36.2504 32.944 36.4017 32.5949C36.2217 32.2817 36.1598 31.9143 36.2272 31.5593V31.4895C36.3202 31.0357 36.5297 30.675 36.7741 30.4888C36.7565 30.0942 36.6901 29.7033 36.5762 29.3252C36.2391 29.1979 35.9586 28.9544 35.785 28.6386L35.7384 28.5688C35.5057 28.1732 35.4359 27.7543 35.5057 27.4634C35.2353 27.1638 34.9262 26.9016 34.5864 26.6837C34.2485 26.8084 33.8771 26.8084 33.5392 26.6837L33.4577 26.6488C33.0868 26.5335 32.7717 26.2847 32.5734 25.9506C32.3872 25.9274 32.1894 25.9157 31.9916 25.9157H31.7821C31.7782 25.9155 31.7744 25.9155 31.7705 25.9157H31.7123H31.7239Z" fill="#FF0000"/>
<path d="M36.0865 30.6749C36.0865 31.7597 35.6556 32.8 34.8886 33.5671C34.1215 34.3341 33.0812 34.7651 31.9964 34.7651C30.9116 34.7651 29.8713 34.3341 29.1042 33.5671C28.3372 32.8 27.9062 31.7597 27.9062 30.6749C27.9062 29.5901 28.3372 28.5498 29.1042 27.7827C29.8713 27.0157 30.9116 26.5848 31.9964 26.5848C33.0812 26.5848 34.1215 27.0157 34.8886 27.7827C35.6556 28.5498 36.0865 29.5901 36.0865 30.6749Z" fill="#FBF014" stroke="black" stroke-width="0.046545"/>
<path d="M35.7379 30.675C35.7379 31.6687 35.3431 32.6217 34.6405 33.3244C33.9378 34.0271 32.9847 34.4218 31.991 34.4218C30.9973 34.4218 30.0443 34.0271 29.3416 33.3244C28.6389 32.6217 28.2441 31.6687 28.2441 30.675C28.2441 29.6812 28.6389 28.7282 29.3416 28.0255C30.0443 27.3229 30.9973 26.9281 31.991 26.9281C32.9847 26.9281 33.9378 27.3229 34.6405 28.0255C35.3431 28.7282 35.7379 29.6812 35.7379 30.675Z" fill="#FBF014" stroke="black" stroke-width="0.046545"/>
<path fill-rule="evenodd" clip-rule="evenodd" d="M30.8867 28.8364L32.1201 29.0575L31.9572 30.291L30.9099 31.0124L30.3281 30.3724L30.363 29.3601L30.8867 28.8364Z" fill="#0087FF" stroke="black" stroke-width="0.046545"/>
<path fill-rule="evenodd" clip-rule="evenodd" d="M30.5371 29.744L30.0484 29.7673H30.0018V29.7906H29.9902L29.9786 29.8255L29.932 29.8488V29.872L29.8971 29.8953L29.8506 29.9186H29.8389L29.8273 29.872H29.7575L29.7226 29.8837V29.8255L29.7109 29.8139V29.6975H29.7342V29.5928L29.7458 29.5695V29.5462L29.7808 29.5113L29.8157 29.4997V29.4648L29.8273 29.4299L29.8389 29.4182L29.8273 29.3949L29.7924 29.4182L29.7575 29.3949V29.3251L29.7924 29.3019L29.804 29.3135L29.8273 29.2204L29.8622 29.1855L29.8389 29.1273L29.8622 29.0924L29.8506 29.0459L29.9553 29.0109V28.976L29.9669 28.9295L30.0135 28.9179L30.0484 28.8946L30.0717 28.9528V28.9877H30.0949L30.1182 28.9411L30.1415 28.9295V28.8946L30.2113 28.8131L30.2346 28.7899L30.2811 28.7666H30.3277L30.3626 28.72V28.6735H30.3858L30.4091 28.6502L30.3975 28.6153V28.5339H30.3742V28.5106L30.3509 28.5455L30.3277 28.5339V28.499H30.2578L30.2346 28.4524L30.2113 28.464V28.499L30.188 28.4873V28.4408H30.1415L30.1531 28.3942L30.1997 28.3128V28.2662L30.1531 28.2197L30.188 28.1266L30.2346 28.08V28.0219L30.1997 28.0335L30.2462 27.9753L30.3277 27.9404H30.3742L30.444 27.987L30.4673 27.9753H30.5022L30.5604 27.9288L30.6186 27.9753V28.0102H30.6651L30.6767 28.0335H30.7117V27.9986L30.7931 27.9637L30.9095 27.9521L31.0142 27.8939L31.0724 27.9404H31.2004L31.3982 27.7659L32.0033 27.9055L31.9684 28.9528L31.34 29.3019L31.3051 29.2786L31.2935 29.2902H31.2818V29.232H31.2469V29.3019H31.2004L31.1538 29.2786V29.2553H31.2004V29.2437L31.1655 29.232H31.1306V29.2088L31.1655 29.1855V29.1739L31.1306 29.1971L31.1073 29.1855L31.084 29.1971L31.1073 29.232L31.0724 29.2553V29.2786L31.0258 29.2669V29.2902H31.0491L30.9793 29.3368L30.956 29.3135V29.3019L30.9211 29.3251H30.8746V29.3135L30.9211 29.3019L30.9095 29.2902H30.8746V29.2553L30.8629 29.2902H30.8397V29.3484H30.7931L30.7815 29.3251C30.7815 29.3251 30.7466 29.3251 30.7582 29.3484V29.3833L30.7233 29.36H30.7V29.3949H30.6767L30.6302 29.3717L30.6535 29.4066H30.6069L30.5837 29.4182L30.6069 29.4415L30.6186 29.4648L30.6418 29.488L30.6302 29.4997H30.6186L30.5837 29.5346H30.5604L30.5487 29.5695L30.5255 29.5811L30.5371 29.6044H30.5487V29.6277H30.5371L30.4906 29.6742V29.6859H30.5255L30.5371 29.744Z" fill="white" stroke="black" stroke-width="0.046545"/>
<path fill-rule="evenodd" clip-rule="evenodd" d="M31.3748 29.7557L32.7129 30.4888L32.7246 30.5935L32.678 30.6168L32.6896 30.6633L32.7362 30.6749L32.7478 30.7215L33.2715 31.0939L33.3064 31.0706L33.3529 31.0939L33.3646 31.0473L33.3995 31.0124L33.4576 30.8844L33.4227 30.8728L33.446 30.8262H33.4693L33.5158 30.768V30.7215L33.4925 30.6866L33.5275 30.6982L33.574 30.5935L33.6205 30.5819L33.6322 30.5004L33.6555 30.4771C33.6555 30.4771 33.6322 30.384 33.6555 30.3491C33.6904 30.3142 33.8067 30.3142 33.8067 30.3142L33.8765 30.2328V30.2095L33.9231 30.1746L33.8765 30.0931L33.9696 30.1164L34.0395 30.0931H34.086L34.1558 30V29.9651L33.9347 29.6859V28.3244L34.0627 28.2081L34.2722 27.9172L34.214 27.8939L34.0045 27.9172L33.9464 27.8473H33.9231L33.9115 27.8008L33.8649 27.7775L33.5158 27.9404L33.5042 27.9986L33.4227 28.0684V28.115H33.3995L33.3762 28.1033L33.0155 28.0219L32.9922 28.0452H32.8758L32.4453 27.731H32.1311L32.0613 27.7077V27.6728H31.4795L31.3631 27.7892L31.3864 27.9404H31.4446L31.4678 28.0102H31.526L31.5144 28.0801H31.5028V28.1615L31.526 28.1964L31.5609 28.2197V28.2779L31.6308 28.3128L31.6424 28.3942L31.6889 28.4175V28.4524L31.6657 28.499L31.7122 28.5688L31.7006 28.6153L31.7238 28.6735V28.6968L31.7122 28.7666L31.6773 28.7899L31.6657 28.8364H31.6424V28.9295H31.5842L31.5609 28.9644L31.526 28.9528V29.0342L31.4911 29.0808H31.4562V29.1157L31.4097 29.139L31.398 29.1971V29.2553L31.3398 29.2786V29.3833L31.3748 29.395H31.398L31.3864 29.4299L31.4213 29.4415L31.4446 29.4997L31.4911 29.4648V29.4299H31.5493L31.6191 29.395L31.6424 29.4415L31.6657 29.4764H31.6191L31.6075 29.4997H31.5726L31.5144 29.488V29.5113L31.5377 29.5346L31.5028 29.5579L31.4911 29.5346L31.4562 29.5462H31.4329L31.398 29.523V29.5695H31.3748L31.3515 29.6277L31.3864 29.6626L31.4213 29.6859L31.3864 29.7324L31.3748 29.7557ZM33.4227 32.2924L33.4693 32.2575V32.2342H33.5158L33.5391 32.176V32.2342L33.5158 32.2575V32.2924H33.4925V32.3273L33.4809 32.304L33.4227 32.2924ZM33.2831 31.6408V31.5593L33.2715 31.5477L33.318 31.5128V31.4662L33.3762 31.4429V31.4895H33.3413V31.5593L33.3646 31.5942V31.6291L33.3995 31.6524L33.4344 31.6989V31.7338L33.3995 31.7455L33.3529 31.6873L33.3064 31.6989L33.2831 31.6408ZM33.4576 31.3382V31.2917L33.4809 31.2451L33.446 31.152H33.4925L33.5042 31.1986H33.5275V31.1637C33.5275 31.1637 33.5507 31.152 33.5507 31.1637L33.5391 31.2684L33.5507 31.3149L33.5275 31.3498L33.4925 31.3848L33.4576 31.3382Z" fill="white" stroke="black" stroke-width="0.046545"/>
<path fill-rule="evenodd" clip-rule="evenodd" d="M33.7256 33.2233L33.5743 33.3397L33.3649 33.4327L33.3067 33.4677H33.202L33.1205 33.4909L33.074 33.5142L33.0158 33.5724L32.9227 33.5142H32.8063L32.7714 33.5491V33.6073L32.69 33.6422H32.6551L32.6202 33.6655L32.5038 33.6538L32.4573 33.6073L32.3991 33.6189L32.306 33.6887L32.2594 33.6771V33.6538H32.2245L32.2013 33.6771L32.1431 33.6655V33.6189H32.1082L32.0616 33.5491H32.0034L31.9918 33.584L31.9453 33.6189L31.8987 33.6073H31.7242L31.6776 33.5258H31.6311L31.5845 33.4095V33.3513L31.6078 33.328V33.2582L31.5613 33.2233L31.5729 33.1069L31.5613 33.0837L31.5496 33.0371L31.4682 32.9557V32.9208L31.3751 32.8509H31.3402V32.9208L31.2936 32.9091L31.2704 32.8742L31.154 32.8975L31.1075 32.8393L31.0493 32.8509L31.0027 32.816H30.9445L30.898 32.7695H30.7933L30.77 32.6997H30.7002L30.6769 32.688H30.5955V32.6531L30.5024 32.6415L30.4558 32.6066V32.5484L30.386 32.5135L30.3278 32.5251L30.3046 32.4553L30.2464 32.4088L30.2347 32.3389L30.1533 32.2226V32.176L30.1067 32.1295V32.0364L30.0718 31.9899V31.9433H30.0951V31.9084L30.0369 31.8619L30.0136 31.8153L29.9206 31.7455H29.8507L29.7693 31.6524V31.6059L29.8042 31.5593H29.8507L29.8624 31.5244V31.4895L29.7809 31.3731V31.315L29.8158 31.2917L29.8042 31.2219L29.7344 31.152V31.0822L29.746 31.024V31.0008L29.8158 30.9775L29.8507 30.9542L29.8856 30.9193V30.8844L29.9555 30.8611V30.8262L30.0136 30.7564V30.7215L30.0486 30.6633L30.13 30.6284V30.6051L30.1882 30.5702V30.4539L30.1649 30.4422H30.13L30.0951 30.4306H30.0369V30.3957L30.0718 30.3491L30.0486 30.3259L30.0835 30.2561L30.1998 30.2444V30.163L30.2115 30.1281L30.1649 30.0699V29.9535L30.1416 29.9186V29.8837L30.0835 29.8488L30.0369 29.7673H30.1067L30.1416 29.7324H30.5489L30.5605 29.7673V29.8139L30.5373 29.8721L30.5256 29.907V29.9302L30.514 29.9768V30.0233L30.4907 30.0466V30.0815L30.4675 30.1048H30.5024V30.163L30.4791 30.2095H30.5722L30.5373 30.2793L30.5256 30.3259L30.5373 30.3957L30.5838 30.3491L30.6187 30.3841V30.3259L30.6304 30.2793L30.6769 30.3026L30.6885 30.2793L30.6653 30.2328L30.7118 30.1862L30.7584 30.2444L30.7933 30.2561L30.8165 30.3142L30.8515 30.2444L30.8631 30.291H30.9096V30.3375L30.9445 30.3841L30.898 30.4073V30.4655H30.9329V30.4073H30.9795L30.9562 30.3491L30.9445 30.3026L30.9911 30.2328H31.0376L31.0609 30.291H31.1424L31.2122 30.2211L31.3053 30.1862L31.282 30.1281H31.2587L31.2238 30.163L31.1191 30.1513L31.0842 30.1281L31.0609 30.1513H31.026L30.9329 30.1164V30.0815L30.9096 30.0699L30.9562 30.0466L30.9795 30.0815H31.0027L31.0376 30.0699L31.0842 30.1048L31.154 30.0931V30.0582L31.1075 30.0466V30.0117H31.1889L31.2005 29.9884L31.2587 29.9651L31.2238 29.9186V29.8953L31.3402 29.9186L31.282 29.8721L31.2936 29.8255L31.3634 29.8721V29.8488L31.3169 29.8139L31.3867 29.7441L32.7365 30.4771L32.7482 30.5819L32.7016 30.6168V30.6633H32.7598V30.7099L33.2834 31.059L33.3183 31.1171L33.2834 31.152L33.2602 31.1986L33.2485 31.28L33.2253 31.3266V31.3964L33.1787 31.443L33.1438 31.5244V31.5826L33.1787 31.6291L33.1554 31.6989L33.2136 31.7455H33.2485L33.3532 31.8619L33.3998 31.9084L33.4231 31.9666L33.3998 32.0248L33.3649 32.0364L33.33 32.1528V32.2226L33.3765 32.2691L33.3649 32.3157L33.3416 32.3855L33.3183 32.4553L33.3416 32.5251L33.3649 32.5833L33.3882 32.6066V32.6531H33.3649L33.3998 32.7113L33.4463 32.7346V32.8277H33.4347V32.8509L33.4812 32.8858L33.5045 33.0022L33.4812 33.0371V33.0604H33.5511L33.5743 33.1186L33.6209 33.1069L33.7023 33.1418L33.7372 33.2L33.7256 33.2233Z" fill="white" stroke="black" stroke-width="0.046545"/>
<path fill-rule="evenodd" clip-rule="evenodd" d="M29.5013 30.2677C29.4664 30.2328 29.6177 30.1513 29.5944 30.0932C29.5944 29.9768 29.6526 29.9419 29.7806 29.8953L29.8504 29.8488C29.8853 29.8721 29.8853 29.9303 29.9203 29.8953C29.9552 29.8721 30.0366 29.7441 30.0948 29.7673C30.0599 29.8139 30.1297 29.907 30.1763 29.9419L30.2461 30.163C30.2228 30.2444 30.1763 30.2444 30.0832 30.2328C29.9901 30.1979 29.9668 30.2677 29.897 30.2095C29.8853 30.291 29.897 30.3608 29.7923 30.3957C29.7341 30.3957 29.6759 30.3957 29.6759 30.3608C29.6293 30.3026 29.5595 30.3026 29.5363 30.3608C29.5246 30.3375 29.5013 30.3259 29.5013 30.2677Z" fill="white" stroke="black" stroke-width="0.0581812"/>
<path fill-rule="evenodd" clip-rule="evenodd" d="M29.5352 30.3608C29.5933 30.2328 29.6632 30.3724 29.6864 30.3724C29.861 30.3957 29.861 30.3608 29.8959 30.1979C29.989 30.2677 29.9541 30.1979 30.1519 30.2444C30.117 30.2444 30.0355 30.3375 30.0937 30.3375C30.0472 30.4655 30.1519 30.4655 30.2217 30.4539C30.1868 30.5004 30.2799 30.5237 30.1868 30.5702C30.1286 30.6051 30.1286 30.5702 30.1286 30.6517L30.0588 30.6633C30.0472 30.6866 30.0937 30.7331 30.0821 30.7331C30.0821 30.7331 30.0588 30.7913 30.0122 30.8262C29.9541 30.8611 29.9308 30.9193 29.861 30.9426L29.7795 30.9659L29.6632 30.7564C29.6515 30.6982 29.6632 30.6284 29.6282 30.5702V30.4655C29.5933 30.4306 29.5584 30.4073 29.5352 30.3491" fill="white"/>
<path d="M29.5352 30.3608C29.5933 30.2328 29.6632 30.3724 29.6864 30.3724C29.861 30.3957 29.861 30.3608 29.8959 30.1979C29.989 30.2677 29.9541 30.1979 30.1519 30.2444C30.117 30.2444 30.0355 30.3375 30.0937 30.3375C30.0472 30.4655 30.1519 30.4655 30.2217 30.4539C30.1868 30.5004 30.2799 30.5237 30.1868 30.5702C30.1286 30.6051 30.1286 30.5702 30.1286 30.6517L30.0588 30.6633C30.0472 30.6866 30.0937 30.7331 30.0821 30.7331C30.0821 30.7331 30.0588 30.7913 30.0122 30.8262C29.9541 30.8611 29.9308 30.9193 29.861 30.9426L29.7795 30.9659L29.6632 30.7564C29.6515 30.6982 29.6632 30.6284 29.6282 30.5702V30.4655C29.5933 30.4306 29.5584 30.4073 29.5352 30.3491" stroke="black" stroke-width="0.0581812"/>
</g>
<defs>
<clipPath id="clip0_10660_10718">
<rect width="64" height="64" rx="32" fill="white"/>
</clipPath>
</defs>
</svg>
