<svg width="64" height="64" viewBox="0 0 64 64" fill="none" xmlns="http://www.w3.org/2000/svg">
<g clip-path="url(#clip0_11297_21446)">
<path d="M31.9536 -0.0390762C32.0808 -0.0388069 32.2081 -0.0385375 32.3392 -0.0382599C34.1653 -0.0320511 35.9568 -0.00068897 37.7505 0.374986C37.8723 0.399821 37.9942 0.424655 38.1197 0.450243C44.1675 1.71532 49.666 4.45489 54.1255 8.74999C54.2491 8.86851 54.2491 8.86851 54.3752 8.98943C55.5613 10.1325 56.6537 11.2947 57.6255 12.625C57.7327 12.7689 57.84 12.9127 57.9473 13.0566C58.702 14.0805 59.3718 15.1447 60.0005 16.25C60.046 16.329 60.0916 16.4079 60.1385 16.4893C62.8393 21.2078 64.0601 26.5537 64.0395 31.9531C64.0393 32.0803 64.039 32.2076 64.0387 32.3387C64.0325 34.1648 64.0012 35.9563 63.6255 37.75C63.5882 37.9328 63.5882 37.9328 63.5502 38.1192C62.2851 44.167 59.5456 49.6655 55.2505 54.125C55.1715 54.2074 55.0924 54.2898 55.011 54.3747C53.868 55.5608 52.7058 56.6533 51.3755 57.625C51.2316 57.7322 51.0877 57.8395 50.9438 57.9468C49.9201 58.7015 48.8573 59.3743 47.7505 60C47.6621 60.0503 47.5737 60.1005 47.4826 60.1523C44.5907 61.7805 41.4443 62.8741 38.1958 63.539C38.1059 63.5575 38.0161 63.5759 37.9235 63.5949C36.089 63.9435 34.2734 64.0436 32.4096 64.0394C32.0421 64.039 31.6748 64.042 31.3074 64.0452C29.6357 64.0507 28.0237 63.9 26.3755 63.625C26.1623 63.5897 26.1623 63.5897 25.9448 63.5537C20.5363 62.5822 15.4051 60.0839 11.2505 56.5C11.1573 56.4207 11.0642 56.3414 10.9682 56.2598C9.28012 54.7834 7.6962 53.1895 6.37547 51.375C6.26841 51.2312 6.16132 51.0875 6.05419 50.9438C5.29918 49.9201 4.62627 48.857 4.00047 47.75C3.9502 47.6616 3.89993 47.5732 3.84813 47.4821C2.21995 44.5902 1.12635 41.4438 0.461412 38.1953C0.442993 38.1054 0.424573 38.0156 0.405595 37.923C0.0338632 35.9672 -0.0461509 34.033 -0.038588 32.0469C-0.0383186 31.9196 -0.0380492 31.7924 -0.0377716 31.6613C-0.0315628 29.8352 -0.000200689 28.0436 0.375475 26.25C0.400309 26.1281 0.425144 26.0063 0.450731 25.8807C1.69273 19.9433 4.36257 14.3334 8.64488 9.98442C8.88798 9.73728 9.12828 9.48759 9.36864 9.23778C10.3897 8.18625 11.4438 7.24115 12.6255 6.37499C12.6966 6.32189 12.7678 6.2688 12.8411 6.2141C13.9337 5.39965 15.0643 4.6705 16.2505 3.99999C16.3389 3.94971 16.4273 3.89944 16.5184 3.84764C19.4103 2.21946 22.5567 1.12586 25.8052 0.460924C25.895 0.442504 25.9849 0.424085 26.0775 0.405107C28.0333 0.0333749 29.9674 -0.0466392 31.9536 -0.0390762Z" fill="#D80027"/>
<path d="M9.25047 9.375C9.49266 9.47656 9.49266 9.47656 9.75047 9.625C9.81235 9.81063 9.81235 9.81063 9.87547 10C9.99922 10.0619 9.99922 10.0619 10.1255 10.125C10.2492 10.1869 10.2492 10.1869 10.3755 10.25C10.4374 10.4356 10.4374 10.4356 10.5005 10.625C10.6242 10.6869 10.6242 10.6869 10.7505 10.75C10.8742 10.8119 10.8742 10.8119 11.0005 10.875C11.0624 11.0606 11.0624 11.0606 11.1255 11.25C11.2492 11.3119 11.2492 11.3119 11.3755 11.375C11.458 11.4162 11.5405 11.4575 11.6255 11.5C11.6874 11.6856 11.6874 11.6856 11.7505 11.875C11.833 11.9162 11.9155 11.9575 12.0005 12C12.083 12.0412 12.1655 12.0825 12.2505 12.125C12.3124 12.3106 12.3124 12.3106 12.3755 12.5C12.458 12.5412 12.5405 12.5825 12.6255 12.625C12.708 12.6662 12.7905 12.7075 12.8755 12.75C12.9374 12.9356 12.9374 12.9356 13.0005 13.125C13.083 13.1662 13.1655 13.2075 13.2505 13.25C13.333 13.2912 13.4155 13.3325 13.5005 13.375C13.5417 13.4988 13.583 13.6225 13.6255 13.75C13.7054 13.7887 13.7853 13.8273 13.8677 13.8672C14.188 14.0322 14.2181 14.1852 14.3755 14.5C14.5411 14.5853 14.7077 14.6688 14.8755 14.75C14.9167 14.8738 14.958 14.9975 15.0005 15.125C15.083 15.1663 15.1655 15.2075 15.2505 15.25C15.333 15.2913 15.4155 15.3325 15.5005 15.375C15.5417 15.4988 15.583 15.6225 15.6255 15.75C15.7054 15.7887 15.7853 15.8273 15.8677 15.8672C16.188 16.0322 16.2181 16.1852 16.3755 16.5C16.5411 16.5853 16.7077 16.6688 16.8755 16.75C16.9167 16.8738 16.958 16.9975 17.0005 17.125C17.0804 17.1637 17.1603 17.2023 17.2427 17.2422C17.563 17.4072 17.5931 17.5602 17.7505 17.875C17.833 17.9163 17.9155 17.9575 18.0005 18C18.3165 18.158 18.346 18.3161 18.5005 18.625C18.6661 18.7103 18.8327 18.7938 19.0005 18.875C19.0417 18.9987 19.083 19.1225 19.1255 19.25C19.2454 19.308 19.2454 19.308 19.3677 19.3672C19.688 19.5322 19.7181 19.6852 19.8755 20C19.958 20.0413 20.0405 20.0825 20.1255 20.125C20.4415 20.283 20.471 20.4411 20.6255 20.75C20.708 20.7913 20.7905 20.8325 20.8755 20.875C21.1915 21.033 21.221 21.1911 21.3755 21.5C21.458 21.5413 21.5405 21.5825 21.6255 21.625C21.9415 21.783 21.971 21.9411 22.1255 22.25C22.208 22.2913 22.2905 22.3325 22.3755 22.375C22.6915 22.533 22.721 22.6911 22.8755 23C22.958 23.0413 23.0405 23.0825 23.1255 23.125C23.4415 23.283 23.471 23.4411 23.6255 23.75C23.708 23.7913 23.7905 23.8325 23.8755 23.875C24.1915 24.033 24.221 24.1911 24.3755 24.5C24.4496 24.5361 24.5237 24.5722 24.6001 24.6094C24.9305 24.7781 25.1457 24.9871 25.4067 25.25C25.495 25.3377 25.5833 25.4253 25.6743 25.5156C25.8755 25.75 25.8755 25.75 25.8755 26C25.947 26.0309 26.0186 26.0619 26.0923 26.0938C26.4192 26.2741 26.6439 26.4853 26.9067 26.75C27.0392 26.8815 27.0392 26.8815 27.1743 27.0156C27.3755 27.25 27.3755 27.25 27.3755 27.5C27.447 27.5309 27.5186 27.5619 27.5923 27.5938C27.9192 27.7741 28.1439 27.9853 28.4067 28.25C28.5392 28.3815 28.5392 28.3815 28.6743 28.5156C28.8755 28.75 28.8755 28.75 28.8755 29C28.947 29.0309 29.0186 29.0619 29.0923 29.0938C29.4192 29.2741 29.6439 29.4853 29.9067 29.75C30.0392 29.8815 30.0392 29.8815 30.1743 30.0156C30.3755 30.25 30.3755 30.25 30.3755 30.5C30.4457 30.5296 30.516 30.5593 30.5884 30.5898C30.9403 30.7862 31.1854 31.0268 31.4692 31.3125C31.6191 31.4614 31.6191 31.4614 31.772 31.6133C32.0005 31.875 32.0005 31.875 32.0005 32.125C31.8144 32.3087 31.8145 32.3087 31.5587 32.5209C31.038 32.964 30.5519 33.431 30.0696 33.915C29.9815 34.0029 29.8935 34.0907 29.8028 34.1813C29.5105 34.473 29.2186 34.7653 28.9268 35.0575C28.7163 35.2679 28.5057 35.4782 28.2952 35.6885C27.7255 36.2576 27.1562 36.8271 26.587 37.3967C26.2314 37.7525 25.8758 38.1081 25.5201 38.4637C25.4313 38.5524 25.4313 38.5524 25.3408 38.6429C25.2206 38.763 25.1005 38.8831 24.9803 39.0033C23.8558 40.1274 22.7316 41.252 21.6076 42.3767C20.6428 43.342 19.6777 44.307 18.7124 45.2718C17.5904 46.3931 16.4686 47.5146 15.3471 48.6365C15.2277 48.756 15.1082 48.8755 14.9888 48.995C14.93 49.0537 14.8712 49.1125 14.8107 49.1731C14.3961 49.5878 13.9814 50.0023 13.5667 50.4167C13.0094 50.9737 12.4524 51.5309 11.8957 52.0884C11.6908 52.2934 11.4859 52.4983 11.2808 52.7031C11.002 52.9815 10.7236 53.2604 10.4453 53.5393C10.3631 53.6212 10.281 53.703 10.1964 53.7874C10.1223 53.8618 10.0482 53.9362 9.97188 54.0129C9.90754 54.0772 9.8432 54.1416 9.77691 54.2079C9.611 54.3759 9.611 54.3759 9.50047 54.625C8.18318 54.0609 7.21198 52.4945 6.37547 51.375C6.32129 51.3028 6.26711 51.2305 6.21129 51.1561C5.39816 50.0646 4.67014 48.9346 4.00047 47.75C3.9502 47.6616 3.89993 47.5732 3.84813 47.4821C2.21995 44.5902 1.12635 41.4438 0.461412 38.1953C0.442993 38.1055 0.424573 38.0156 0.405595 37.923C0.0338632 35.9672 -0.0461509 34.033 -0.038588 32.0469C-0.0383186 31.9196 -0.0380492 31.7924 -0.0377716 31.6613C-0.0315628 29.8352 -0.000200689 28.0437 0.375475 26.25C0.400309 26.1281 0.425144 26.0063 0.450731 25.8807C1.77103 19.569 4.68035 13.9358 9.25047 9.375Z" fill="#010100"/>
<path d="M11.25 7.5C11.853 7.64834 12.3402 8.05586 12.8359 8.41406C12.9289 8.48038 13.0218 8.54669 13.1175 8.61502C13.5986 8.95902 14.0775 9.30596 14.5562 9.65332C14.7406 9.78711 14.925 9.9209 15.1094 10.0547C15.202 10.122 15.2947 10.1893 15.3902 10.2587C16.0695 10.7501 16.7589 11.2252 17.4531 11.6953C18.2851 12.259 19.0949 12.8445 19.8947 13.4529C20.536 13.9389 21.1931 14.3969 21.8586 14.849C22.4866 15.2768 23.1042 15.7173 23.7188 16.1641C24.5151 16.7428 25.3173 17.3122 26.125 17.875C27.0154 18.4955 27.8982 19.1255 28.7764 19.7632C29.4708 20.2663 30.1715 20.7597 30.875 21.25C31.7654 21.8705 32.6482 22.5005 33.5264 23.1382C34.2208 23.6413 34.9215 24.1347 35.625 24.625C36.5154 25.2455 37.3982 25.8755 38.2764 26.5132C39.0748 27.0917 39.8823 27.6567 40.6913 28.2204C41.4863 28.7753 42.273 29.3407 43.0566 29.9115C43.5197 30.2478 43.9859 30.5778 44.46 30.8984C44.5534 30.9617 44.6468 31.0249 44.743 31.09C44.921 31.2097 45.0994 31.3287 45.2784 31.4469C45.4816 31.5834 45.679 31.7284 45.875 31.875C45.875 31.9575 45.875 32.04 45.875 32.125C45.6887 32.2787 45.6887 32.2787 45.4258 32.4521C45.2805 32.5493 45.2805 32.5493 45.1322 32.6485C45.0267 32.7181 44.9212 32.7877 44.8125 32.8594C44.0179 33.3923 43.2371 33.9351 42.4766 34.5156C41.7538 35.0657 41.0176 35.5886 40.2664 36.099C39.6384 36.5268 39.0208 36.9673 38.4062 37.4141C37.6099 37.9928 36.8077 38.5622 36 39.125C35.203 39.6804 34.411 40.2417 33.625 40.8125C32.7346 41.4591 31.8354 42.092 30.9326 42.7212C30.2419 43.2034 29.5567 43.6925 28.875 44.1875C27.9846 44.8341 27.0854 45.467 26.1826 46.0962C25.4919 46.5784 24.8066 47.0675 24.125 47.5625C23.2346 48.2091 22.3354 48.842 21.4326 49.4712C20.7419 49.9534 20.0566 50.4425 19.375 50.9375C18.485 51.5838 17.5862 52.2166 16.6837 52.8454C15.9819 53.3353 15.2864 53.8331 14.5938 54.3359C14.3201 54.5332 14.0463 54.7304 13.7725 54.9275C13.5871 55.0619 13.4024 55.1972 13.2182 55.3333C12.9464 55.5341 12.6726 55.7321 12.3984 55.9297C12.3169 55.9911 12.2355 56.0525 12.1515 56.1158C11.5938 56.5122 11.5938 56.5122 11.1807 56.4585C10.7666 56.1761 10.4312 55.846 10.0859 55.4844C10.0172 55.414 9.94849 55.3435 9.87769 55.271C9.70926 55.0982 9.54201 54.9242 9.375 54.75C9.69381 54.1354 10.1429 53.6972 10.6286 53.2146C10.7636 53.0791 10.7636 53.0791 10.9013 52.9408C11.203 52.6381 11.5056 52.3363 11.8081 52.0345C12.0246 51.8177 12.241 51.6009 12.4573 51.384C12.984 50.8563 13.5113 50.3292 14.0388 49.8023C14.4674 49.3743 14.8957 48.9461 15.3238 48.5177C15.3848 48.4567 15.4457 48.3958 15.5085 48.3329C15.6323 48.2091 15.7561 48.0852 15.8798 47.9613C17.0401 46.8003 18.2012 45.6401 19.3625 44.4801C20.3597 43.484 21.3563 42.4873 22.3523 41.4901C23.5087 40.3323 24.6655 39.175 25.823 38.0183C25.9463 37.8951 26.0696 37.7719 26.1929 37.6487C26.2839 37.5577 26.2839 37.5577 26.3767 37.465C26.8049 37.0369 27.2329 36.6086 27.6607 36.1802C28.2358 35.6043 28.8116 35.0291 29.3878 34.4544C29.5997 34.2428 29.8115 34.0309 30.023 33.8188C30.3105 33.5307 30.5988 33.2432 30.8873 32.956C30.9719 32.8708 31.0565 32.7857 31.1437 32.6979C31.259 32.5835 31.259 32.5835 31.3767 32.4668C31.4432 32.4003 31.5098 32.3339 31.5783 32.2653C31.75 32.125 31.75 32.125 32 32.125C31.6057 31.6548 31.2225 31.2062 30.75 30.8125C30.3528 30.4815 30.0405 30.1225 29.7065 29.73C29.4957 29.4826 29.4957 29.4826 29.1875 29.25C28.8106 28.9484 28.5234 28.6007 28.2109 28.2344C27.9964 27.9833 27.9964 27.9833 27.6875 27.75C27.3106 27.4484 27.0234 27.1007 26.7109 26.7344C26.4964 26.4833 26.4964 26.4833 26.1875 26.25C25.8111 25.9489 25.5243 25.6018 25.2124 25.2358C24.9586 24.9541 24.673 24.7335 24.375 24.5C24.2058 24.2937 24.0392 24.0853 23.875 23.875C23.6693 23.664 23.4609 23.4557 23.25 23.25C22.9361 22.9361 22.6225 22.6224 22.3125 22.3047C22.0089 21.9975 22.0089 21.9975 21.6797 21.75C21.3569 21.4852 21.1314 21.2035 20.875 20.875C20.6693 20.664 20.4609 20.4557 20.25 20.25C19 19 19 19 18.6875 18.6797C18.3839 18.3725 18.3839 18.3725 18.0547 18.125C17.75 17.875 17.75 17.875 17.5156 17.5781C17.2905 17.3 17.085 17.1011 16.8125 16.875C16.4469 16.5713 16.1723 16.2466 15.875 15.875C15.739 15.7555 15.6008 15.6385 15.4609 15.5234C15.0364 15.1707 14.6854 14.7798 14.3281 14.3604C14.0669 14.0577 13.7864 13.7788 13.5 13.5C12.4583 12.4583 11.4167 11.4167 10.375 10.375C10.2667 10.2693 10.1584 10.1636 10.0469 10.0547C9.79542 9.79661 9.58695 9.53975 9.375 9.25C9.61681 9.00482 9.85905 8.7601 10.1016 8.51562C10.17 8.44618 10.2384 8.37673 10.3088 8.30518C10.3753 8.23831 10.4418 8.17144 10.5103 8.10254C10.6016 8.01024 10.6016 8.01024 10.6947 7.91608C10.875 7.75 10.875 7.75 11.25 7.5Z" fill="#FDD843"/>
<path d="M8.875 24.75C9.61326 25.2695 10.2477 25.8447 10.875 26.4922C11.447 27.0793 12.0247 27.6449 12.6487 28.1771C12.9914 28.4768 13.3072 28.7992 13.625 29.125C14.1728 28.9573 14.657 28.7425 15.1611 28.4712C15.2342 28.432 15.3073 28.3928 15.3825 28.3524C15.5367 28.2696 15.6907 28.1865 15.8445 28.1031C16.0746 27.9785 16.3051 27.8548 16.5356 27.7312C17.4004 27.266 18.2489 26.7844 19.0856 26.2699C19.1811 26.2221 19.2766 26.1743 19.375 26.125C19.4987 26.1869 19.4987 26.1869 19.625 26.25C19.5267 26.4503 19.5267 26.4503 19.4264 26.6547C19.1809 27.1554 18.9359 27.6563 18.6912 28.1573C18.5856 28.3732 18.4799 28.589 18.374 28.8047C17.5643 30.4383 17.5643 30.4383 16.875 32.125C17.187 32.4406 17.4997 32.7555 17.8125 33.0703C17.8995 33.1584 17.9865 33.2464 18.0762 33.3372C18.5822 33.8456 19.1005 34.329 19.644 34.7971C19.9783 35.0907 20.2889 35.4021 20.6016 35.7188C20.7158 35.8341 20.83 35.9495 20.9478 36.0684C21.0475 36.1696 21.1472 36.2707 21.25 36.375C21.3749 36.5001 21.4998 36.6252 21.625 36.75C19.3635 36.5477 17.1206 36.2045 14.875 35.875C14.8639 35.9578 14.8529 36.0405 14.8415 36.1258C14.7214 36.6168 14.5106 37.0362 14.2861 37.4873C14.24 37.5815 14.1939 37.6756 14.1464 37.7726C13.9993 38.0727 13.8513 38.3723 13.7031 38.6719C13.556 38.9706 13.4092 39.2695 13.2625 39.5685C13.1714 39.7541 13.08 39.9395 12.9883 40.1249C12.7246 40.6601 12.4804 41.1996 12.25 41.75C12.1675 41.75 12.085 41.75 12 41.75C11.8595 40.9851 11.7194 40.2201 11.5796 39.4551C11.5321 39.1951 11.4844 38.9352 11.4367 38.6753C11.3678 38.3005 11.2994 37.9256 11.231 37.5508C11.2097 37.4356 11.1885 37.3205 11.1666 37.2019C11.0485 36.5526 10.9503 35.9057 10.875 35.25C10.7092 35.2408 10.7092 35.2408 10.5401 35.2314C9.3977 35.1624 8.26605 35.0506 7.13049 34.9088C6.85529 34.8745 6.58 34.841 6.30469 34.8076C4.85072 34.6293 4.85072 34.6293 4.25 34.5C4.62714 34.2015 5.01499 33.9707 5.43945 33.7451C5.64191 33.637 5.64191 33.637 5.84845 33.5267C5.99127 33.4508 6.1341 33.375 6.28125 33.2969C7.52981 32.6297 8.77069 31.9519 10 31.25C9.82231 29.8727 9.56846 28.5175 9.29688 27.1562C9.23596 26.8496 9.17518 26.543 9.11467 26.2363C9.07737 26.0473 9.03982 25.8584 9.002 25.6695C8.875 25.0279 8.875 25.0279 8.875 24.75Z" fill="#EDEDED"/>
</g>
<defs>
<clipPath id="clip0_11297_21446">
<rect width="64" height="64" fill="white"/>
</clipPath>
</defs>
</svg>
