<svg width="64" height="64" viewBox="0 0 64 64" fill="none" xmlns="http://www.w3.org/2000/svg">
<g clip-path="url(#clip0_10660_10539)">
<path fill-rule="evenodd" clip-rule="evenodd" d="M0 0H64V64H0V0Z" fill="#FFE800"/>
<path fill-rule="evenodd" clip-rule="evenodd" d="M0 32H64V64H0V32Z" fill="#00148E"/>
<path fill-rule="evenodd" clip-rule="evenodd" d="M0 48H64V64H0V48Z" fill="#DA0010"/>
<path fill-rule="evenodd" clip-rule="evenodd" d="M26.6891 30.525L19.8516 37.7375L19.7266 37.5875L26.5641 30.3625L26.6891 30.525ZM31.4391 31.7L22.5016 41.125L22.3516 40.975L31.2891 31.55L31.4516 31.7H31.4391Z" fill="black"/>
<path fill-rule="evenodd" clip-rule="evenodd" d="M22.6367 41.1342L21.8947 41.8873L21.0376 42.5298L21.6646 41.6661L22.4066 40.913L22.6367 41.1342Z" fill="#808080" stroke="black" stroke-width="0.0425298"/>
<path fill-rule="evenodd" clip-rule="evenodd" d="M20.3379 37.4467L19.5959 38.1998L18.7388 38.8423L19.3658 37.9786L20.1078 37.2255L20.3379 37.4467Z" fill="#808080" stroke="black" stroke-width="0.0425298"/>
<path fill-rule="evenodd" clip-rule="evenodd" d="M20.8883 14.0101C20.8883 14.0101 20.136 34.4585 23.145 34.4585C26.154 34.4585 27.6628 32.308 27.6628 32.308L27.6288 21.0692L20.8883 14.0101Z" fill="#FFDF00" stroke="black" stroke-width="0.0677495"/>
<path fill-rule="evenodd" clip-rule="evenodd" d="M22.7292 15.9177C22.7292 16.9929 22.3935 32.308 23.898 32.308C25.4025 32.308 27.6635 31.2327 27.6635 31.2327L27.6295 21.0693L22.7292 15.9177Z" fill="#0000C4" stroke="black" stroke-width="0.0677495"/>
<path fill-rule="evenodd" clip-rule="evenodd" d="M23.707 16.9504C23.707 18.0257 23.8983 30.1574 25.407 30.1574H27.6638L27.6298 21.0692L23.707 16.9504Z" fill="#E10000" stroke="black" stroke-width="0.0677495"/>
<path fill-rule="evenodd" clip-rule="evenodd" d="M20.7117 14.025L27.5367 21.2375L27.6617 21.0875L20.8242 13.875L20.6992 14.025H20.7117Z" fill="black"/>
<path fill-rule="evenodd" clip-rule="evenodd" d="M18.7275 17.9815C18.7275 17.9815 16.7805 37.5464 22.6215 37.5464C27.489 37.5464 27.489 34.4599 28.4625 34.4599L27.489 27.2524L18.7275 17.9815Z" fill="#FFDF00" stroke="black" stroke-width="0.0753879"/>
<path d="M23.0352 21.4546C23.0751 21.4518 24.5076 18.2701 28.0481 16.2811" stroke="black" stroke-width="0.0802019"/>
<path fill-rule="evenodd" clip-rule="evenodd" d="M22.8218 18.3521C23.3196 18.5896 23.6332 18.8636 23.918 19.1832C23.3467 19.0618 23.0518 19.0129 22.5541 18.7754C22.0563 18.5378 21.6781 18.1736 21.3776 17.8789C21.7488 17.9939 22.3213 18.1132 22.8218 18.3521Z" fill="#005B00" stroke="black" stroke-width="0.0364699"/>
<path fill-rule="evenodd" clip-rule="evenodd" d="M24.3601 20.1917C24.3936 20.2577 24.357 20.3499 24.2765 20.3945C24.196 20.4392 24.1033 20.4208 24.069 20.3532C24.0346 20.2855 24.0729 20.1966 24.1534 20.152C24.2339 20.1073 24.3266 20.1257 24.3601 20.1917Z" fill="#FF0000" stroke="black" stroke-width="0.0253814"/>
<path fill-rule="evenodd" clip-rule="evenodd" d="M25.5751 16.2814C25.3579 16.847 25.1182 17.2203 24.8419 17.5688C24.966 16.9402 25.0187 16.6175 25.2359 16.0519C25.4531 15.4863 25.7702 15.0315 26.0265 14.6695C25.9159 15.0829 25.7935 15.7127 25.5751 16.2814Z" fill="#005B00" stroke="black" stroke-width="0.034563"/>
<path fill-rule="evenodd" clip-rule="evenodd" d="M25.1868 16.2793C25.1348 16.8337 25.0198 17.2634 24.8685 17.6994C24.8281 17.1612 24.7982 16.8923 24.8502 16.338C24.9023 15.7837 25.0633 15.2435 25.1948 14.8109C25.1971 15.184 25.2391 15.722 25.1868 16.2793Z" fill="#005B00" stroke="black" stroke-width="0.0302635"/>
<path fill-rule="evenodd" clip-rule="evenodd" d="M25.6201 17.0128C25.326 17.3431 25.0774 17.4821 24.8156 17.5688C25.0761 17.1055 25.2036 16.8586 25.4977 16.5283C25.7918 16.198 26.1089 16.0492 26.3635 15.934C26.1758 16.215 25.9158 16.6807 25.6201 17.0128Z" fill="#005B00" stroke="black" stroke-width="0.0326215"/>
<path fill-rule="evenodd" clip-rule="evenodd" d="M23.2872 17.9989C23.6039 18.4016 23.7522 18.7847 23.8576 19.2063C23.4317 18.9016 23.2061 18.7586 22.8894 18.3559C22.5726 17.9531 22.4077 17.4559 22.2789 17.0553C22.5408 17.2909 22.9687 17.5939 23.2872 17.9989Z" fill="#005B00" stroke="black" stroke-width="0.0363119"/>
<path fill-rule="evenodd" clip-rule="evenodd" d="M22.194 20.357C22.6238 20.7032 22.8525 21.061 23.0361 21.4656C22.4915 21.2385 22.2056 21.1367 21.7758 20.7905C21.3459 20.4444 21.0815 19.9747 20.8733 19.5956C21.215 19.7839 21.7617 20.0089 22.194 20.357Z" fill="#005B00" stroke="black" stroke-width="0.0400078"/>
<path fill-rule="evenodd" clip-rule="evenodd" d="M24.1745 20.1961C23.8464 20.7391 23.4884 21.1057 23.077 21.4525C23.2693 20.8591 23.3517 20.5555 23.6798 20.0125C24.0079 19.4695 24.4809 19.0207 24.8632 18.6631C24.6942 19.0558 24.5044 19.6501 24.1745 20.1961Z" fill="#005B00" stroke="black" stroke-width="0.0401468"/>
<path fill-rule="evenodd" clip-rule="evenodd" d="M24.7199 20.7364C24.1723 21.1142 23.6954 21.3073 23.1871 21.4569C23.6548 20.9685 23.8816 20.7113 24.4292 20.3335C24.9767 19.9557 25.5878 19.7351 26.079 19.5618C25.7367 19.8661 25.2704 20.3565 24.7199 20.7364Z" fill="#005B00" stroke="black" stroke-width="0.039891"/>
<path fill-rule="evenodd" clip-rule="evenodd" d="M28.3192 15.927C28.0884 16.2052 27.8805 16.3764 27.6561 16.5294C27.8449 16.2049 27.9354 16.0369 28.1662 15.7587C28.397 15.4804 28.6647 15.2751 28.8801 15.1122C28.7393 15.3218 28.5512 15.6471 28.3192 15.927Z" fill="#005B00" stroke="black" stroke-width="0.0198975"/>
<path fill-rule="evenodd" clip-rule="evenodd" d="M28.079 15.8309C27.9432 16.125 27.7952 16.3437 27.6252 16.5613C27.705 16.2644 27.7392 16.1148 27.875 15.8207C28.0107 15.5265 28.2062 15.2537 28.3642 15.0355C28.2942 15.2381 28.2155 15.5351 28.079 15.8309Z" fill="#005B00" stroke="black" stroke-width="0.0178486"/>
<path fill-rule="evenodd" clip-rule="evenodd" d="M28.2672 16.3745C28.0342 16.5148 27.8631 16.5569 27.694 16.5688C27.9319 16.3515 28.0521 16.2343 28.2851 16.094C28.5181 15.9537 28.7311 15.9155 28.9013 15.8871C28.7396 16.0148 28.5016 16.2334 28.2672 16.3745Z" fill="#005B00" stroke="black" stroke-width="0.0191855"/>
<path fill-rule="evenodd" clip-rule="evenodd" d="M25.1916 18.2784C24.7617 18.5386 24.41 18.6841 24.0445 18.8056C24.4393 18.4845 24.6342 18.3168 25.0641 18.0566C25.494 17.7964 25.9402 17.626 26.2982 17.4914C26.0181 17.6946 25.6238 18.0168 25.1916 18.2784Z" fill="#005B00" stroke="black" stroke-width="0.0248807"/>
<path fill-rule="evenodd" clip-rule="evenodd" d="M26.5889 18.1688C26.0187 18.5082 25.534 18.6666 25.0223 18.7788C25.5238 18.3218 25.7688 18.0798 26.339 17.7404C26.9091 17.401 27.5279 17.2251 28.0249 17.0877C27.6625 17.3685 27.1622 17.8275 26.5889 18.1688Z" fill="#005B00" stroke="black" stroke-width="0.0398045"/>
<path d="M22.8399 23.6614C22.8765 23.6411 22.5236 20.6704 24.8278 17.5959" stroke="black" stroke-width="0.0803551"/>
<path fill-rule="evenodd" clip-rule="evenodd" d="M26.5105 17.1667C26.544 17.2327 26.5074 17.3249 26.4269 17.3695C26.3464 17.4142 26.2537 17.3958 26.2193 17.3282C26.185 17.2605 26.2233 17.1716 26.3038 17.127C26.3843 17.0823 26.477 17.1007 26.5105 17.1667Z" fill="#FF0000" stroke="black" stroke-width="0.0253814"/>
<path fill-rule="evenodd" clip-rule="evenodd" d="M27.5359 16.5667C27.5694 16.6327 27.5328 16.7249 27.4523 16.7695C27.3718 16.8142 27.2791 16.7958 27.2447 16.7282C27.2104 16.6605 27.2487 16.5716 27.3292 16.527C27.4096 16.4823 27.5024 16.5007 27.5359 16.5667Z" fill="#FF0000" stroke="black" stroke-width="0.0253814"/>
<path fill-rule="evenodd" clip-rule="evenodd" d="M23.89 18.3793C23.915 18.4293 23.8698 18.5098 23.7875 18.5568C23.7053 18.6038 23.6181 18.6005 23.5925 18.5493C23.5669 18.498 23.6134 18.42 23.6956 18.373C23.7779 18.326 23.865 18.3293 23.89 18.3793Z" fill="#FF0000" stroke="black" stroke-width="0.0223779"/>
<path fill-rule="evenodd" clip-rule="evenodd" d="M24.1771 18.2543C24.2021 18.3043 24.1569 18.3848 24.0746 18.4318C23.9924 18.4788 23.9052 18.4755 23.8796 18.4243C23.854 18.373 23.9005 18.295 23.9827 18.248C24.065 18.201 24.1521 18.2043 24.1771 18.2543Z" fill="#FF0000" stroke="black" stroke-width="0.0223779"/>
<path fill-rule="evenodd" clip-rule="evenodd" d="M24.015 18.5168C24.04 18.5668 23.9948 18.6473 23.9125 18.6943C23.8303 18.7413 23.7431 18.738 23.7175 18.6868C23.6919 18.6355 23.7384 18.5575 23.8206 18.5105C23.9029 18.4635 23.99 18.4668 24.015 18.5168Z" fill="#FF0000" stroke="black" stroke-width="0.0223779"/>
<path fill-rule="evenodd" clip-rule="evenodd" d="M25.1894 18.4575C25.2264 18.531 25.1856 18.6334 25.0963 18.6828C25.007 18.7321 24.9043 18.7114 24.8664 18.636C24.8284 18.5607 24.871 18.462 24.9603 18.4126C25.0496 18.3633 25.1524 18.384 25.1894 18.4575Z" fill="#FF0000" stroke="black" stroke-width="0.0281766"/>
<path fill-rule="evenodd" clip-rule="evenodd" d="M25.4003 18.2451C25.4373 18.3186 25.3965 18.4209 25.3072 18.4703C25.2179 18.5196 25.1152 18.4989 25.0773 18.4236C25.0394 18.3482 25.082 18.2495 25.1713 18.2002C25.2606 18.1508 25.3633 18.1716 25.4003 18.2451Z" fill="#FF0000" stroke="black" stroke-width="0.0281766"/>
<path fill-rule="evenodd" clip-rule="evenodd" d="M25.4511 18.345C25.4881 18.4185 25.4473 18.5209 25.358 18.5703C25.2687 18.6196 25.166 18.5989 25.1281 18.5235C25.0901 18.4482 25.1327 18.3495 25.222 18.3002C25.3113 18.2508 25.4141 18.2715 25.4511 18.345Z" fill="#FF0000" stroke="black" stroke-width="0.0281766"/>
<path fill-rule="evenodd" clip-rule="evenodd" d="M20.6751 20.0449C20.6751 21.0737 18.7281 32.4023 23.6011 35.4887C25.5481 36.5175 28.4686 34.4599 28.4686 35.4887L27.4951 27.2524L20.6751 20.0449Z" fill="#0000C4" stroke="black" stroke-width="0.0753879"/>
<path fill-rule="evenodd" clip-rule="evenodd" d="M22.6222 22.1025C22.6222 23.1314 21.6487 31.3677 24.5747 33.4311C26.5217 35.4887 31.3947 34.9307 31.3947 34.9307L27.4952 27.2524L22.6222 22.1025Z" fill="#E10000" stroke="black" stroke-width="0.0753879"/>
<path fill-rule="evenodd" clip-rule="evenodd" d="M18.5996 18L27.5371 27.425L27.6996 27.275L18.7496 17.85L18.5996 18Z" fill="black"/>
<path fill-rule="evenodd" clip-rule="evenodd" d="M17.1149 16.941L17.6946 17.0671L17.8716 17.2486C17.8484 17.2459 18.0486 17.43 17.8229 17.6667C17.5972 17.9035 17.2445 17.5393 17.2445 17.5393C17.2445 17.5393 17.3728 18.1389 17.7278 18.5027C18.0828 18.8666 18.4845 18.8103 18.4845 18.8103C18.4845 18.8103 18.0843 18.4689 18.3562 18.2107C18.6283 17.9501 18.7588 18.1554 18.7588 18.1554L19.1128 18.5182L19.3398 18.2801L17.9228 16.8277L17.7945 16.2281L16.9157 16.0466L17.1152 16.9387L17.1149 16.941Z" fill="#CECECC" stroke="black" stroke-width="0.0216892"/>
<path fill-rule="evenodd" clip-rule="evenodd" d="M18.8339 12.8954L19.5001 13.9094L20.3754 14.1094L19.7891 14.4855L20.84 14.4191L21.306 14.7298L21.484 14.4628L21.0167 14.1513L20.6748 13.1541L20.5521 13.8415L20.0318 13.109L18.8336 12.893L18.8339 12.8954Z" fill="#CECECC" stroke="black" stroke-width="0.0224846"/>
<path fill-rule="evenodd" clip-rule="evenodd" d="M21.377 13.6697C21.377 13.7282 21.3012 13.778 21.2141 13.778C21.127 13.778 21.0475 13.7282 21.0475 13.6697C21.0475 13.6112 21.1232 13.5586 21.2141 13.5586C21.305 13.5586 21.377 13.6083 21.377 13.6697ZM21.1422 13.9008C21.1422 14.948 21.9337 19.394 21.9981 19.5022C22.0019 19.6338 21.8163 19.6894 21.7292 19.5285C21.4792 19.0196 20.9414 14.8485 20.9225 13.8745C20.9111 13.4738 21.0626 13.4416 21.2368 13.4504C21.377 13.4562 21.5512 13.5586 21.5512 13.6814C21.5512 13.8277 21.3315 13.9359 21.1422 13.9008Z" fill="#E10000" stroke="black" stroke-width="0.0443791"/>
<path fill-rule="evenodd" clip-rule="evenodd" d="M21.5238 14.1519C21.4953 14.2069 21.3998 14.2361 21.3178 14.216C21.2359 14.1959 21.1853 14.1308 21.2138 14.0758C21.2423 14.0208 21.3392 13.9888 21.4247 14.0098C21.5102 14.0308 21.5537 14.0941 21.5238 14.1519ZM21.1903 14.3149C21.4375 16.279 20.5498 19.3253 20.5562 19.4446C20.497 19.5665 20.294 19.5786 20.2918 19.4045C20.2498 19.2919 21.2673 16.5379 20.9965 14.2394C21.181 13.86 21.3392 13.8648 21.4988 13.9133C21.6278 13.9511 21.7418 14.0876 21.6819 14.2031C21.6107 14.3406 21.3513 14.3916 21.1903 14.3149Z" fill="#0000C4" stroke="black" stroke-width="0.0449434"/>
<path fill-rule="evenodd" clip-rule="evenodd" d="M19.3625 17.42C19.3625 17.515 19.2658 17.5958 19.1545 17.5958C19.0432 17.5958 18.9417 17.515 18.9417 17.42C18.9417 17.325 19.0384 17.2395 19.1545 17.2395C19.2706 17.2395 19.3625 17.3203 19.3625 17.42ZM19.0626 17.7953C19.0626 19.4958 20.0736 26.7158 20.1559 26.8915C20.1607 27.1053 19.9237 27.1955 19.8124 26.9343C19.4931 26.1078 18.8062 19.3343 18.782 17.7525C18.7675 17.1018 18.961 17.0495 19.1835 17.0638C19.3625 17.0733 19.585 17.2395 19.585 17.439C19.585 17.6765 19.3045 17.8523 19.0626 17.7953Z" fill="#E10000" stroke="black" stroke-width="0.063914"/>
<path fill-rule="evenodd" clip-rule="evenodd" d="M19.6186 18.1425C19.5824 18.2325 19.4603 18.281 19.3554 18.2488C19.2504 18.2166 19.1854 18.1107 19.2217 18.0207C19.2579 17.9307 19.3818 17.8777 19.4913 17.9113C19.6008 17.9449 19.6567 18.048 19.6186 18.1425ZM19.1925 18.4112C19.5169 21.6152 18.393 26.5945 18.4017 26.7893C18.3265 26.9887 18.0667 27.0101 18.0633 26.7259C18.009 26.5424 19.3 22.0391 18.9442 18.2895C19.1789 17.6688 19.3813 17.6753 19.5857 17.7532C19.7509 17.814 19.8974 18.0359 19.8212 18.2249C19.7306 18.4499 19.3989 18.5352 19.1925 18.4112Z" fill="#0000C4" stroke="black" stroke-width="0.0641563"/>
<path fill-rule="evenodd" clip-rule="evenodd" d="M36.2008 30.525L43.0383 37.7375L43.1633 37.5875L36.3258 30.3625L36.2008 30.525ZM31.4508 31.7L40.3758 41.125L40.5258 40.975L31.5883 31.55L31.4258 31.7H31.4508Z" fill="black"/>
<path fill-rule="evenodd" clip-rule="evenodd" d="M40.2402 41.1342L40.9823 41.8873L41.8393 42.5298L41.2124 41.6661L40.4703 40.913L40.2402 41.1342Z" fill="#808080" stroke="black" stroke-width="0.0425298"/>
<path fill-rule="evenodd" clip-rule="evenodd" d="M42.5527 37.4467L43.2948 38.1998L44.1518 38.8423L43.5249 37.9786L42.7828 37.2255L42.5527 37.4467Z" fill="#808080" stroke="black" stroke-width="0.0425298"/>
<path fill-rule="evenodd" clip-rule="evenodd" d="M42.0121 14.0101C42.0121 14.0101 42.7644 34.4585 39.7554 34.4585C36.7464 34.4585 35.2376 32.308 35.2376 32.308L35.2716 21.0692L42.0121 14.0101Z" fill="#FFDF00" stroke="black" stroke-width="0.0677495"/>
<path fill-rule="evenodd" clip-rule="evenodd" d="M40.1712 15.9177C40.1712 16.9929 40.5069 32.308 39.0024 32.308C37.4979 32.308 35.2369 31.2327 35.2369 31.2327L35.2709 21.0693L40.1712 15.9177Z" fill="#0000C4" stroke="black" stroke-width="0.0677495"/>
<path fill-rule="evenodd" clip-rule="evenodd" d="M39.1934 16.9504C39.1934 18.0257 39.0021 30.1574 37.4934 30.1574H35.2366L35.2706 21.0692L39.1934 16.9504Z" fill="#E10000" stroke="black" stroke-width="0.0677495"/>
<path fill-rule="evenodd" clip-rule="evenodd" d="M42.1746 14.025L35.3496 21.25L35.2246 21.1L42.0621 13.8875L42.1871 14.0375L42.1746 14.025Z" fill="black"/>
<path fill-rule="evenodd" clip-rule="evenodd" d="M36.9597 19.4249C36.9597 19.4249 38.9032 21.8702 39.836 23.7717C40.7679 25.6773 41.8514 28.5879 41.8514 28.5879C41.8514 28.5879 41.2405 25.713 40.0663 23.4222C38.5267 20.5417 36.9578 19.5906 36.9597 19.4249Z" fill="#005B00" stroke="black" stroke-width="0.0321027"/>
<path fill-rule="evenodd" clip-rule="evenodd" d="M36.5615 17.5343C36.5615 17.5343 38.6588 20.46 39.6166 22.6425C40.5733 24.8291 41.639 28.1145 41.639 28.1145C41.639 28.1145 41.1207 24.943 39.9079 22.3058C38.3097 18.9795 36.5482 17.7112 36.5615 17.5343Z" fill="#005B00" stroke="black" stroke-width="0.0356576"/>
<path fill-rule="evenodd" clip-rule="evenodd" d="M38.6397 14.7147C38.6397 14.7147 40.1731 19.206 40.6441 21.9781C41.1126 24.7526 41.4043 28.5669 41.4043 28.5669C41.4043 28.5669 41.6889 25.3714 41.0585 21.9689C40.1872 17.6121 38.5771 14.8527 38.6397 14.7147Z" fill="#005B00" stroke="black" stroke-width="0.0413995"/>
<path fill-rule="evenodd" clip-rule="evenodd" d="M37.0675 14.4484C37.0675 14.4484 39.0985 18.4581 39.8794 21.182C40.6582 23.9097 41.3787 27.8444 41.3787 27.8444C41.3787 27.8444 41.3008 24.2709 40.2902 20.9551C38.9325 16.7427 37.0208 14.6291 37.0675 14.4484Z" fill="#005B00" stroke="black" stroke-width="0.0416501"/>
<path fill-rule="evenodd" clip-rule="evenodd" d="M39.7137 15.5747C39.7137 15.5747 40.7818 19.8968 41.0614 22.4853C41.3389 25.0756 41.4391 28.5781 41.4391 28.5781C41.4391 28.5781 41.7775 25.7318 41.3925 22.5459C40.8484 18.4557 39.6589 15.6892 39.7137 15.5747Z" fill="#005B00" stroke="black" stroke-width="0.0372517"/>
<path fill-rule="evenodd" clip-rule="evenodd" d="M36.7686 15.8165C36.7686 15.8165 38.7953 19.2631 39.6282 21.6723C40.4593 24.0853 41.2922 27.6117 41.2922 27.6117C41.2922 27.6117 41.0594 24.3437 39.991 21.4177C38.5667 17.7089 36.7344 15.9875 36.7686 15.8165Z" fill="#005B00" stroke="black" stroke-width="0.0379578"/>
<path fill-rule="evenodd" clip-rule="evenodd" d="M36.5478 18.1434C36.5478 18.1434 38.6428 20.8812 39.5922 22.9803C40.5403 25.0837 41.589 28.279 41.589 28.279C41.589 28.279 41.0928 25.1466 39.8897 22.6152C38.3028 19.4289 36.5328 18.3221 36.5478 18.1434Z" fill="#005B00" stroke="black" stroke-width="0.0360998"/>
<path fill-rule="evenodd" clip-rule="evenodd" d="M36.8232 16.8412C36.8232 16.8412 38.7821 19.965 39.6364 22.2345C40.4893 24.508 41.3988 27.8867 41.3988 27.8867C41.3988 27.8867 41.0316 24.6763 39.944 21.9284C38.5035 18.4556 36.8014 17.016 36.8232 16.8412Z" fill="#005B00" stroke="black" stroke-width="0.0356228"/>
<path fill-rule="evenodd" clip-rule="evenodd" d="M39.1104 14.8123C39.1104 14.8123 40.3911 19.215 40.7094 21.8977C41.0252 24.5825 41.1094 28.2479 41.1094 28.2479C41.1094 28.2479 41.5641 25.2158 41.1214 21.9192C40.4909 17.6933 39.0407 14.9395 39.1104 14.8123Z" fill="#005B00" stroke="black" stroke-width="0.0403239"/>
<path fill-rule="evenodd" clip-rule="evenodd" d="M37.4191 13.7334C37.4191 13.7334 39.2482 17.9163 39.895 20.7028C40.5395 23.493 41.0681 27.4808 41.0681 27.4808C41.0681 27.4808 41.1617 23.912 40.3147 20.5144C39.1652 16.1913 37.3639 13.9092 37.4191 13.7334Z" fill="#005B00" stroke="black" stroke-width="0.0417358"/>
<path fill-rule="evenodd" clip-rule="evenodd" d="M40.1805 16.0075C40.1805 16.0075 40.997 20.1459 41.1282 22.5991C41.2573 25.0539 41.1585 28.3539 41.1585 28.3539C41.1585 28.3539 41.6559 25.7016 41.4538 22.6793C41.1448 18.7957 40.1195 16.1113 40.1805 16.0075Z" fill="#005B00" stroke="black" stroke-width="0.0357147"/>
<path fill-rule="evenodd" clip-rule="evenodd" d="M36.9601 15.039C36.9601 15.039 38.8619 18.6555 39.5732 21.1491C40.2823 23.6465 40.9144 27.2738 40.9144 27.2738C40.9144 27.2738 40.8994 23.944 39.9754 20.9121C38.7299 17.065 36.9117 15.2105 36.9601 15.039Z" fill="#005B00" stroke="black" stroke-width="0.0394041"/>
<path fill-rule="evenodd" clip-rule="evenodd" d="M44.1592 17.9815C44.1592 17.9815 46.1062 37.5464 40.2652 37.5464C35.3977 37.5464 35.3977 34.4599 34.4242 34.4599L35.3977 27.2524L44.1592 17.9815Z" fill="#FFDF00" stroke="black" stroke-width="0.0753879"/>
<path fill-rule="evenodd" clip-rule="evenodd" d="M42.2116 20.0449C42.2116 21.0737 44.1586 32.4023 39.2856 35.4887C37.3386 36.5175 34.4181 34.4599 34.4181 35.4887L35.3916 27.2524L42.2116 20.0449Z" fill="#0000C4" stroke="black" stroke-width="0.0753879"/>
<path fill-rule="evenodd" clip-rule="evenodd" d="M40.2645 22.1025C40.2645 23.1314 41.238 31.3677 38.312 33.4311C36.365 35.4887 31.492 34.9307 31.492 34.9307L35.3915 27.2524L40.2645 22.1025Z" fill="#E10000" stroke="black" stroke-width="0.0753879"/>
<path fill-rule="evenodd" clip-rule="evenodd" d="M44.2875 18L35.35 27.425L35.1875 27.275L44.1375 17.85L44.2875 18Z" fill="black"/>
<path fill-rule="evenodd" clip-rule="evenodd" d="M45.7835 16.941L45.2039 17.0671L45.0269 17.2486C45.0501 17.2459 44.8499 17.43 45.0755 17.6667C45.3012 17.9035 45.6539 17.5393 45.6539 17.5393C45.6539 17.5393 45.5256 18.1389 45.1706 18.5027C44.8156 18.8666 44.4139 18.8103 44.4139 18.8103C44.4139 18.8103 44.8141 18.4689 44.5423 18.2107C44.2702 17.9501 44.1396 18.1554 44.1396 18.1554L43.7856 18.5182L43.5586 18.2801L44.9756 16.8277L45.104 16.2281L45.9828 16.0466L45.7833 16.9387L45.7835 16.941Z" fill="#CECECC" stroke="black" stroke-width="0.0216892"/>
<path fill-rule="evenodd" clip-rule="evenodd" d="M44.0411 12.8954L43.3749 13.9094L42.4996 14.1094L43.0859 14.4855L42.035 14.4191L41.569 14.7298L41.391 14.4628L41.8583 14.1513L42.2002 13.1541L42.3229 13.8415L42.8432 13.109L44.0414 12.893L44.0411 12.8954Z" fill="#CECECC" stroke="black" stroke-width="0.0224846"/>
<path fill-rule="evenodd" clip-rule="evenodd" d="M41.498 13.6697C41.498 13.7282 41.5738 13.778 41.6609 13.778C41.748 13.778 41.8275 13.7282 41.8275 13.6697C41.8275 13.6112 41.7518 13.5586 41.6609 13.5586C41.57 13.5586 41.498 13.6083 41.498 13.6697ZM41.7328 13.9008C41.7328 14.948 40.9413 19.394 40.8769 19.5022C40.8731 19.6338 41.0587 19.6894 41.1458 19.5285C41.3958 19.0196 41.9336 14.8485 41.9525 13.8745C41.9639 13.4738 41.8124 13.4416 41.6382 13.4504C41.498 13.4562 41.3238 13.5586 41.3238 13.6814C41.3238 13.8277 41.5435 13.9359 41.7328 13.9008Z" fill="#E10000" stroke="black" stroke-width="0.0443791"/>
<path fill-rule="evenodd" clip-rule="evenodd" d="M41.363 14.1519C41.3915 14.2069 41.4869 14.2361 41.5689 14.216C41.6508 14.1959 41.7014 14.1308 41.6729 14.0758C41.6444 14.0208 41.5475 13.9888 41.462 14.0098C41.3765 14.0308 41.333 14.0941 41.363 14.1519ZM41.6964 14.3149C41.4492 16.279 42.337 19.3253 42.3305 19.4446C42.3897 19.5665 42.5927 19.5786 42.5949 19.4045C42.6369 19.2919 41.6195 16.5379 41.8902 14.2394C41.7057 13.86 41.5475 13.8648 41.3879 13.9133C41.2589 13.9511 41.1449 14.0876 41.2048 14.2031C41.276 14.3406 41.5354 14.3916 41.6964 14.3149Z" fill="#0000C4" stroke="black" stroke-width="0.0449434"/>
<path fill-rule="evenodd" clip-rule="evenodd" d="M43.5105 17.42C43.5105 17.515 43.6073 17.5958 43.7185 17.5958C43.8298 17.5958 43.9314 17.515 43.9314 17.42C43.9314 17.325 43.8346 17.2395 43.7185 17.2395C43.6024 17.2395 43.5105 17.3203 43.5105 17.42ZM43.8105 17.7953C43.8105 19.4958 42.7994 26.7158 42.7172 26.8915C42.7123 27.1053 42.9494 27.1955 43.0606 26.9343C43.3799 26.1078 44.0668 19.3343 44.091 17.7525C44.1055 17.1018 43.912 17.0495 43.6895 17.0638C43.5105 17.0733 43.288 17.2395 43.288 17.439C43.288 17.6765 43.5686 17.8523 43.8105 17.7953Z" fill="#E10000" stroke="black" stroke-width="0.063914"/>
<path fill-rule="evenodd" clip-rule="evenodd" d="M43.2681 18.1425C43.3044 18.2325 43.4264 18.281 43.5314 18.2488C43.6363 18.2166 43.7013 18.1107 43.6651 18.0207C43.6288 17.9307 43.5049 17.8777 43.3954 17.9113C43.2859 17.9449 43.2301 18.048 43.2681 18.1425ZM43.6942 18.4112C43.3699 21.6152 44.4937 26.5945 44.485 26.7893C44.5602 26.9887 44.82 27.0101 44.8234 26.7259C44.8777 26.5424 43.5867 22.0391 43.9425 18.2895C43.7079 17.6688 43.5054 17.6753 43.301 17.7532C43.1358 17.814 42.9894 18.0359 43.0655 18.2249C43.1561 18.4499 43.4878 18.5352 43.6942 18.4112Z" fill="#0000C4" stroke="black" stroke-width="0.0641563"/>
<path fill-rule="evenodd" clip-rule="evenodd" d="M28.4762 42.6963C28.9205 42.966 29.424 43.108 29.9365 43.108C30.4489 43.108 30.9524 42.966 31.3967 42.6963V34.46H29.4497C30.4232 37.5464 30.4232 40.6386 28.4707 42.6963H28.4762Z" fill="#E10000" stroke="black" stroke-width="0.0753879"/>
<path fill-rule="evenodd" clip-rule="evenodd" d="M29.9215 34.5223C29.9215 40.3191 28.5137 41.6094 28.5137 42.7753C29.1 42.7753 29.4909 42.2316 29.9215 41.4849C30.5078 40.319 30.5641 34.4306 30.5078 34.5223H29.9215Z" fill="#0000C4" stroke="black" stroke-width="0.0621065"/>
<path fill-rule="evenodd" clip-rule="evenodd" d="M28.7475 34.5223C28.7177 37.9086 27.2635 41.0461 27.5385 41.7404C27.8499 42.3626 28.7475 40.319 29.9202 41.4784C30.5065 40.319 30.5628 34.4306 30.5065 34.5157L28.7475 34.5223Z" fill="#0000C4" stroke="black" stroke-width="0.0621065"/>
<path fill-rule="evenodd" clip-rule="evenodd" d="M28.8951 34.5531C28.8951 38.425 27.5469 38.6831 27.5469 39.7156C28.1332 39.7156 28.8917 39.1513 28.8951 39.2038C29.4814 38.425 29.5377 34.4919 29.4814 34.5531H28.8951Z" fill="#FFDF00" stroke="black" stroke-width="0.0507581"/>
<path fill-rule="evenodd" clip-rule="evenodd" d="M27.7229 34.5531C27.6931 36.815 26.2721 38.74 26.547 39.2038C26.8617 39.615 27.7229 38.425 28.8956 39.2038C29.4819 38.425 29.5382 34.4919 29.4819 34.5531H27.7229Z" fill="#FFDF00" stroke="black" stroke-width="0.0507581"/>
<path fill-rule="evenodd" clip-rule="evenodd" d="M34.4144 42.6963C33.9701 42.966 33.4666 43.108 32.9542 43.108C32.4417 43.108 31.9383 42.966 31.4939 42.6963V34.46H33.4409C32.4674 37.5464 32.4674 40.6386 34.4199 42.6963H34.4144Z" fill="#E10000" stroke="black" stroke-width="0.0753879"/>
<path fill-rule="evenodd" clip-rule="evenodd" d="M32.9691 34.5223C32.9691 40.3191 34.377 41.6094 34.377 42.7753C33.7906 42.7753 33.3998 42.2316 32.9691 41.4849C32.3828 40.319 32.3265 34.4306 32.3828 34.5223H32.9691Z" fill="#0000C4" stroke="black" stroke-width="0.0621065"/>
<path fill-rule="evenodd" clip-rule="evenodd" d="M34.1411 34.5223C34.1709 37.9086 35.6251 41.0461 35.3502 41.7404C35.0388 42.3626 34.1411 40.319 32.9685 41.4784C32.3822 40.319 32.3259 34.4306 32.3822 34.5157L34.1411 34.5223Z" fill="#0000C4" stroke="black" stroke-width="0.0621065"/>
<path fill-rule="evenodd" clip-rule="evenodd" d="M34.0073 34.5531C34.0073 38.425 35.3555 38.6831 35.3555 39.7156C34.7692 39.7156 34.0106 39.1513 34.0073 39.2038C33.421 38.425 33.3647 34.4919 33.421 34.5531H34.0073Z" fill="#FFDF00" stroke="black" stroke-width="0.0507581"/>
<path fill-rule="evenodd" clip-rule="evenodd" d="M35.1794 34.5531C35.2092 36.815 36.6303 38.74 36.3553 39.2038C36.0407 39.615 35.1794 38.425 34.0068 39.2038C33.4205 38.425 33.3642 34.4919 33.4205 34.5531H35.1794Z" fill="#FFDF00" stroke="black" stroke-width="0.0507581"/>
<path fill-rule="evenodd" clip-rule="evenodd" d="M24.0345 35.345L23.0254 36.0973L24.0345 36.8495L24.5385 36.4734L24.7905 36.8495L25.0425 37.6018L25.2956 36.8495L25.5476 36.4734H39.069V35.7212H25.5465L25.2945 35.3429C25.2945 34.9668 25.3474 34.5907 25.5476 34.5907H26.5556C26.5556 34.2145 26.0516 33.4623 25.0425 33.4623C24.0345 33.4623 23.5294 34.2145 23.5294 34.5907H24.5385C24.7376 34.5907 24.7905 34.9668 24.7905 35.345L24.5385 35.7212L24.0345 35.345Z" fill="#908F8A" stroke="black" stroke-width="0.0695774"/>
<path fill-rule="evenodd" clip-rule="evenodd" d="M27 37.1262H35.8384V37.5842H27.0026L27 37.1262ZM27 36.6657H35.8384V37.1262H27.0026L27 36.6657ZM27 36.2077H35.8384V36.6683H27.0026L27 36.2077ZM27 35.7497H35.8384V36.2077H27.0026L27 35.7497ZM27 35.2917H35.8384V35.7497H27.0026L27 35.2917ZM27 34.8311H35.8384V35.2917H27.0026L27 34.8311ZM27 34.3757H35.8384V34.8311H27.0026L27 34.3757Z" fill="#B74D00"/>
<path d="M35.8384 37.1262H27L27.0026 37.5842H35.8384V37.1262ZM35.8384 37.1262V36.6657H27L27.0026 37.1262H35.8384ZM35.8384 36.2077H27L27.0026 36.6683H35.8384V36.2077ZM35.8384 36.2077V35.7497M35.8384 36.2077H27.0026L27 35.7497H35.8384M35.8384 35.7497V35.2917M35.8384 35.7497H27.0026L27 35.2917H35.8384M35.8384 35.2917V34.8311M35.8384 35.2917H27.0026L27 34.8311H35.8384M35.8384 34.8311V34.3757H27L27.0026 34.8311H35.8384Z" stroke="black" stroke-width="0.0469113"/>
<path fill-rule="evenodd" clip-rule="evenodd" d="M27.5254 34.3702L30.7981 37.5787H31.266L27.9956 34.3728H27.5278L27.5254 34.3702Z" fill="#908F8A" stroke="black" stroke-width="0.0818061"/>
<path fill-rule="evenodd" clip-rule="evenodd" d="M27.5254 37.5798L30.7981 34.3713H31.266L27.9956 37.5772H27.5278L27.5254 37.5798Z" fill="#908F8A" stroke="black" stroke-width="0.0818061"/>
<path fill-rule="evenodd" clip-rule="evenodd" d="M27.4746 34.3702V37.5787H27.9392V34.3702H27.4746Z" fill="#908F8A" stroke="black" stroke-width="0.0807917"/>
<path fill-rule="evenodd" clip-rule="evenodd" d="M31.7012 34.3702L34.9739 37.5787H35.4418L32.1714 34.3728H31.7035L31.7012 34.3702Z" fill="#908F8A" stroke="black" stroke-width="0.0818061"/>
<path fill-rule="evenodd" clip-rule="evenodd" d="M31.7012 37.5798L34.9739 34.3713H35.4418L32.1714 37.5772H31.7035L31.7012 37.5798Z" fill="#908F8A" stroke="black" stroke-width="0.0818061"/>
<path fill-rule="evenodd" clip-rule="evenodd" d="M34.9121 34.3702V37.5787H35.3767V34.3702H34.9121Z" fill="#908F8A" stroke="black" stroke-width="0.0807917"/>
<path fill-rule="evenodd" clip-rule="evenodd" d="M31.6621 34.3702V37.5787H32.1267V34.3702H31.6621Z" fill="#908F8A" stroke="black" stroke-width="0.0807917"/>
<path fill-rule="evenodd" clip-rule="evenodd" d="M30.7246 34.3702V37.5787H31.1892V34.3702H30.7246Z" fill="#908F8A" stroke="black" stroke-width="0.0807917"/>
<path fill-rule="evenodd" clip-rule="evenodd" d="M38.2142 25.1948C38.2142 30.3098 35.1562 34.46 31.3942 34.46C27.6322 34.46 24.5742 30.3098 24.5742 25.1948C24.5742 20.0798 27.6267 15.9239 31.3942 15.9239C35.1617 15.9239 38.2142 20.074 38.2142 25.189V25.1948ZM37.2407 25.1948C37.2407 29.7402 34.6227 33.4311 31.3942 33.4311C28.1657 33.4311 25.5477 29.7402 25.5477 25.1948C25.5477 20.6436 28.1657 16.9527 31.3942 16.9527C34.6227 16.9527 37.2407 20.6436 37.2407 25.1948Z" fill="#FFDF00" stroke="black" stroke-width="0.0753879"/>
<path fill-rule="evenodd" clip-rule="evenodd" d="M34.0513 16.6563C33.2318 16.1855 32.3353 15.9239 31.3948 15.9239C30.4543 15.9239 29.5578 16.1855 28.7383 16.6505L29.1233 17.6037C29.8149 17.1824 30.5992 16.9606 31.3975 16.9606C32.1958 16.9606 32.9801 17.1824 33.6718 17.6037L34.0513 16.6563Z" fill="#FFDF00" stroke="black" stroke-width="0.0753879"/>
<path fill-rule="evenodd" clip-rule="evenodd" d="M34.063 33.7688C33.2435 34.2396 32.347 34.5012 31.4065 34.5012C30.466 34.5012 29.5695 34.2396 28.75 33.7746L29.135 32.8213C29.8266 33.2427 30.6109 33.4645 31.4092 33.4645C32.2076 33.4645 32.9919 33.2427 33.6835 32.8213L34.063 33.7688Z" fill="#FFDF00" stroke="black" stroke-width="0.0753879"/>
<path fill-rule="evenodd" clip-rule="evenodd" d="M37.2508 25.1875C37.2508 29.7375 34.6258 33.425 31.4008 33.425C28.1633 33.425 25.5508 29.7375 25.5508 25.1875C25.5508 20.6375 28.1758 16.95 31.4008 16.95C34.6258 16.95 37.2383 20.6375 37.2383 25.1875H37.2508Z" fill="#A7CFFF"/>
<path fill-rule="evenodd" clip-rule="evenodd" d="M37.2412 25.1948C37.3017 26.7409 36.9882 27.4966 36.5867 29.1066C36.4822 29.281 35.9817 28.7288 35.6847 28.4556C35.3877 28.1824 35.2557 28.6998 34.8817 28.2813C34.5132 27.8511 34.2767 28.3975 34.0017 28.0371C33.7267 27.6768 31.1802 27.6303 31.1802 27.5954C31.4332 27.4675 32.7312 27.607 32.5222 26.9502C32.2857 26.2643 30.8172 26.927 30.6192 26.0551C30.4817 25.1832 27.6712 25.1483 27.4677 24.9391C27.5502 25.2646 29.6567 25.4041 29.6072 26.2469C29.5577 26.5956 27.5337 26.6945 27.3357 26.9851C27.1707 27.3513 28.9307 26.8863 28.9912 27.3338C28.9912 27.5198 28.7327 27.3338 27.8197 27.6245C27.3577 27.7698 28.6667 28.2231 28.1717 28.4731C27.6767 28.723 26.6152 28.8334 26.6592 28.9381C26.8242 29.4612 29.1177 30.0773 28.8922 30.1645C28.0782 30.5481 27.6492 30.7981 27.2587 31.0189C26.1145 29.3205 25.515 27.2795 25.5482 25.1948C27.2917 24.5322 26.9232 24.3927 30.1462 24.3927C33.3692 24.3927 34.4362 24.5264 37.2412 25.1948Z" fill="#AFFF7B" stroke="black" stroke-width="0.0753879"/>
<path fill-rule="evenodd" clip-rule="evenodd" d="M37.2418 25.1948C36.8018 25.1948 36.3398 25.3925 35.8668 25.3925C35.3883 25.3925 34.9043 25.189 34.4093 25.189C33.9143 25.189 33.3478 25.4564 32.8418 25.4564C32.3303 25.4564 31.8848 25.1948 31.3733 25.1948C30.8618 25.1948 30.3503 25.3925 29.8443 25.3925C29.3383 25.3925 28.8378 25.189 28.3483 25.189C27.8588 25.189 27.3748 25.3925 26.9073 25.3925C26.4398 25.3925 25.9833 25.189 25.5488 25.189C25.5488 24.0556 25.7138 22.9745 26.0108 21.9863C27.4958 22.1026 26.6158 21.0738 27.4958 21.0738C27.7527 21.0591 28.0096 21.1023 28.2495 21.2005C28.4894 21.2987 28.7068 21.4496 28.8873 21.6434C29.0193 21.6434 29.6793 20.9808 30.4218 21.0738C31.1588 21.1668 30.8893 22.6606 31.8738 22.7361C32.3688 23.1314 32.6603 23.3813 33.3423 23.5441C34.3158 23.6371 37.1043 23.3988 37.1208 23.5325C37.2012 24.0825 37.2416 24.6383 37.2418 25.1948Z" fill="white" stroke="black" stroke-width="0.0753879"/>
<path fill-rule="evenodd" clip-rule="evenodd" d="M32.4043 30.2078C32.4043 29.9491 32.6658 29.7767 32.6658 29.3638C32.6658 28.9509 32.4333 28.9418 32.4256 28.5561C32.4217 28.3973 32.6252 28.2385 32.7143 28.2203C32.8034 28.2022 32.879 28.5561 32.879 28.6333C32.879 28.7104 32.7879 28.4427 32.7123 28.4381C32.6368 28.4336 32.474 28.4654 32.474 28.5425C32.474 28.6968 32.7608 28.8874 32.7395 29.4046C32.7182 29.9128 32.4934 30.0671 32.4934 30.2214C32.4934 30.3757 32.5903 30.8022 32.5903 30.8022C32.5903 30.8022 32.4023 30.4619 32.4023 30.2032L32.4043 30.2078Z" fill="black" stroke="black" stroke-width="0.0395337"/>
<path fill-rule="evenodd" clip-rule="evenodd" d="M32.6582 30.1702C32.6582 29.9116 32.3967 29.7392 32.3967 29.3263C32.3967 28.9133 32.6292 28.9043 32.6369 28.5186C32.6563 28.3371 32.4083 28.2191 32.3192 28.2055C32.23 28.1919 32.1254 28.5685 32.1254 28.6411C32.1254 28.7137 32.23 28.4051 32.3056 28.4006C32.3812 28.3961 32.5885 28.4278 32.5885 28.505C32.5885 28.6592 32.3017 28.8498 32.323 29.3671C32.3443 29.8753 32.5691 30.0296 32.5691 30.1838C32.5691 30.3381 32.4722 30.7646 32.4722 30.7646C32.4722 30.7646 32.6602 30.4243 32.6602 30.1657L32.6582 30.1702Z" fill="black" stroke="black" stroke-width="0.0395337"/>
<path fill-rule="evenodd" clip-rule="evenodd" d="M32.6617 28.0625C32.6617 28.1875 32.5992 28.3 32.5367 28.3C32.4492 28.3 32.3867 28.2 32.3867 28.0625C32.3867 27.925 32.4492 27.8375 32.5242 27.8375C32.5992 27.8375 32.6617 27.9375 32.6617 28.0625ZM34.4242 28.75H34.4742V30.5875H34.4242V28.75ZM34.8242 28.6H34.8742V30.45H34.8242V28.6Z" fill="black"/>
<path fill-rule="evenodd" clip-rule="evenodd" d="M34.5117 29.625V29.5625L34.8867 29.6375V29.675L34.5117 29.625Z" fill="black"/>
<path fill-rule="evenodd" clip-rule="evenodd" d="M29.2633 29.9713C29.2633 29.9713 30.6933 30.6339 31.0068 31.0292C31.3148 31.4244 31.1938 31.4244 31.1938 31.4244L34.3673 31.5581C34.3673 31.3605 34.9283 31.3605 35.0548 30.8955C35.1813 30.4363 35.1813 30.3026 35.1813 30.3026L34.1858 30.6339L34.2408 30.041H33.3718L33.2453 30.6339L31.3753 30.57L31.5018 28.9832L31.1278 29.0471L31.0728 30.5583C31.0068 30.5583 29.3238 30.0992 29.2578 29.9713H29.2633Z" fill="#B74D00" stroke="black" stroke-width="0.0753879"/>
<path fill-rule="evenodd" clip-rule="evenodd" d="M26.3906 20.51C26.3906 20.51 28.4641 19.859 31.4561 19.9055C34.4481 19.952 36.5216 20.6495 36.4776 20.6495C36.4336 20.6495 35.9056 19.58 35.9056 19.58C35.9056 19.58 33.7936 18.9697 31.4121 18.9232C29.0361 18.8767 26.9626 19.3882 27.0121 19.4347L26.3906 20.51Z" fill="#FEDE00" stroke="#FEDE00" stroke-width="0.0753879"/>
<path fill-rule="evenodd" clip-rule="evenodd" d="M30.1246 19.1L31.4121 19.075V19.825L30.1371 19.85L30.1246 19.1ZM27.1746 19.5125L26.7246 20.25L28.2496 20.0625L28.1246 19.3125L27.1746 19.5125ZM28.4746 19.225L29.7496 19.1125L29.8121 19.8625L28.5371 19.975L28.4746 19.225ZM33.0871 19.15L31.8121 19.0625L31.7621 19.8125L33.0371 19.9L33.0871 19.15ZM35.8371 19.625L36.2996 20.5375L34.9246 20.1875L35.0746 19.4625L35.8371 19.625ZM34.7246 19.35L33.4621 19.1875L33.3746 19.925L34.6371 20.0875L34.7246 19.35Z" fill="#38A9F9"/>
<path fill-rule="evenodd" clip-rule="evenodd" d="M31.4559 20.9284L31.3184 20.1438L30.9004 20.8122L31.0544 20.0275L30.4329 20.4751L30.8509 19.8183L30.1139 19.981L30.7464 19.5393L30.0039 19.394L30.7464 19.2428L30.1139 18.8011L30.8509 18.9638L30.4274 18.307L31.0544 18.7546L30.9004 17.9699L31.3184 18.6383L31.4559 17.8536L31.5989 18.6383L32.0114 17.9699L31.8629 18.7546L32.4844 18.307L32.0609 18.9638L32.8034 18.8011L32.1709 19.2428L32.9134 19.394L32.1709 19.5393L32.8034 19.981L32.0609 19.8183L32.4844 20.4751L31.8629 20.0275L32.0169 20.8122L31.5989 20.1438L31.4559 20.9284Z" fill="#FFDF00" stroke="black" stroke-width="0.0753879"/>
<path fill-rule="evenodd" clip-rule="evenodd" d="M32.3762 19.3792C32.3762 19.8302 32.0214 20.194 31.5807 20.194C31.1399 20.194 30.7852 19.8302 30.7852 19.3792C30.7852 18.9281 31.1399 18.5595 31.5807 18.5595C32.0214 18.5595 32.3762 18.9281 32.3762 19.384V19.3792Z" fill="#FFDF00" stroke="black" stroke-width="0.0680768"/>
<path fill-rule="evenodd" clip-rule="evenodd" d="M31.4996 19.175C31.4996 19.225 31.3871 19.2625 31.2496 19.2625C31.1121 19.2625 30.9746 19.225 30.9746 19.175C30.9746 19.125 31.0996 19.075 31.2371 19.075C31.3746 19.075 31.5121 19.125 31.5121 19.175H31.4996ZM32.0871 19.175C32.0871 19.225 31.9871 19.2625 31.8871 19.2625C31.7871 19.2625 31.6871 19.225 31.6871 19.175C31.6871 19.125 31.7746 19.075 31.8871 19.075C31.9996 19.075 32.0746 19.125 32.0746 19.175H32.0871Z" fill="black"/>
<path d="M31.3842 19.4979L31.439 19.5293C31.3073 19.4491 31.3674 19.4789 31.5736 19.6813C31.6927 19.6138 31.7157 19.5521 31.7899 19.4683" stroke="black" stroke-width="0.0755067"/>
<path d="M31.1039 19.8124L31.1479 19.8589C31.0434 19.7427 31.0929 19.8008 31.3239 19.9519C31.5439 19.981 31.7694 19.8822 31.9014 19.7194" stroke="black" stroke-width="0.0753879"/>
<path fill-rule="evenodd" clip-rule="evenodd" d="M27.9375 21.3375C27.9375 21.3375 28.025 22.0875 27.4375 23.025C26.875 23.95 26.9625 23.625 26.9625 23.625C26.9625 23.625 27.225 24.125 27.1875 24.125C27.15 24.125 26.7375 23.675 26.7375 23.675L26.2625 24.175C26.2625 24.175 26.7 23.3875 26.65 23.3875C26.6 23.3875 26.525 23.1125 26.525 23.1125L26.875 22.975C26.875 22.975 27.4 22 27.4 22.0375C27.4 22.075 25.8125 23.1125 25.8125 23.1125L27.9375 21.3375ZM28.2875 21.625C28.2375 21.625 28.5 22.375 28.725 22.75C28.8625 23.004 28.9395 23.2864 28.95 23.575L29.7 23.95L28.725 22.5125L29.35 22.7375L28.2875 21.625ZM28.2875 23.575C28.2875 23.575 28.8125 24.1375 28.8625 24.325C28.9125 24.5125 28.9 24.925 28.9 24.925L28.6875 24.4625L28.375 24.8875C28.375 24.8875 28.6 24.225 28.55 24.1875C28.5 24.15 28.2 24.4125 28.2 24.4125L28.325 24C28.325 23.9625 28.325 23.7125 28.2875 23.575ZM25.625 24.8875C25.8 24.7375 26.1625 24.6375 26.1625 24.6375C26.1625 24.6375 25.9375 25.0125 25.8875 25.0125C25.8375 25.0125 25.7125 25.0125 25.6375 24.8875H25.625ZM31.7125 22.8375C31.7125 22.8375 32.85 23.5375 32.85 23.5875C32.85 23.6375 32.1 23.25 32.1 23.25L31.7125 22.8375ZM29.65 21.375C29.7375 21.425 31.325 22.725 31.275 22.725C31.225 22.725 30.575 22.35 30.575 22.4V22.725L30.225 21.975L30.1375 22.2625L29.65 21.3875V21.375ZM30.05 23.475L30.4875 24.35L30.925 24.2625C30.925 24.2625 30.0875 23.475 30.05 23.475ZM31.425 22.9125L31.4625 23.75C31.4625 23.75 31.7125 23.9875 31.7125 23.9375C31.7125 23.8875 31.4625 22.9625 31.4125 22.9125H31.425Z" fill="#B7E1FF"/>
<path fill-rule="evenodd" clip-rule="evenodd" d="M18.4746 11.525C18.4746 11.525 20.4621 10.4375 22.7246 9.61251C24.3794 9.00648 26.0867 8.55456 27.8246 8.26251C28.4996 8.26251 29.6371 9.93751 29.8246 9.93751C30.0246 9.93751 30.7871 9.47501 31.7371 9.47501C32.6871 9.47501 33.2621 10.225 33.4621 10.225H35.1746C35.3621 10.225 34.5996 8.35001 35.1746 8.45001C35.4621 8.50001 37.8996 8.87501 40.1621 9.60001C42.4246 10.35 45.6371 11.6375 45.6371 11.6375C45.6371 11.6375 40.3871 12.3375 38.9871 12.1375C38.7996 12.225 38.9871 13.3625 38.7121 12.8625C38.2746 12.7625 36.6621 12.5125 36.3746 12.5125C36.0871 12.5125 35.5621 12.8375 34.7996 13.0125C34.2216 13.1598 33.6465 13.3182 33.0746 13.4875L34.3246 15.4375L32.7871 16.1875C32.7871 16.1875 31.8371 13.95 31.4496 13.95C31.0621 13.95 30.8871 15.5375 30.3996 15.45C29.9246 15.35 29.7371 13.95 29.3621 13.575C28.9746 13.2 26.9621 13.075 26.1996 12.8875C25.4371 12.7 24.1996 12.55 23.5371 12.3625C22.8746 12.175 22.1996 12.8375 21.9121 12.8375C21.6246 12.8375 22.2871 12.275 22.0121 12.175C21.7371 12.075 21.5371 12.4625 21.3371 12.4625C21.1496 12.4625 19.1496 12.0875 18.9621 11.9875C18.7621 11.9 19.4371 11.525 19.2496 11.525H18.4746Z" fill="#984000"/>
<path fill-rule="evenodd" clip-rule="evenodd" d="M32.6491 10.5625C32.6491 11.0925 32.2243 11.5225 31.7024 11.5225C31.1806 11.5225 30.7578 11.0925 30.7578 10.5625C30.7578 10.0325 31.1806 9.60498 31.7024 9.60498C32.2243 9.60498 32.6491 10.035 32.6491 10.5625Z" fill="#808080" stroke="#772600" stroke-width="0.0840173"/>
<path fill-rule="evenodd" clip-rule="evenodd" d="M27.9551 10.775C28.1276 10.577 28.3413 10.277 28.9001 10.277C29.0289 10.226 29.0289 9.92603 29.3276 9.92603C29.6288 9.92603 29.5413 10.226 29.7576 10.328C29.9713 10.427 31.73 10.226 31.73 10.226C31.73 10.226 31.9 10.376 31.9 10.577C31.9 10.778 31.7712 10.925 31.73 10.925C31.6888 10.925 29.9713 10.775 29.8426 10.826C29.7138 10.877 29.6288 10.925 29.3276 10.925C29.0289 10.925 28.9413 10.577 28.7276 10.577C28.5139 10.577 28.3001 10.526 27.9551 10.778V10.775Z" fill="#984000" stroke="#772600" stroke-width="0.147308"/>
<path d="M33.1887 10.677H33.8736C34.1208 10.68 34.2058 10.767 34.4324 10.776H35.0324C35.2512 10.767 35.3671 10.707 35.5886 10.677C35.9619 10.671 35.8358 10.638 35.7611 10.377C35.6941 10.182 35.6838 10.089 35.5886 9.97802C35.5525 9.73802 35.4701 9.65402 35.4598 9.37802C35.4212 9.16802 35.3491 9.02702 35.4186 8.77802C35.5165 8.94902 35.5551 9.01802 35.8049 9.03002C36.0624 9.03002 36.1628 9.02102 36.3199 9.12902C36.4383 9.27602 36.598 9.22802 36.8349 9.22802C37.0306 9.27002 37.064 9.38702 37.2185 9.47702C37.4014 9.59702 37.5198 9.62702 37.7747 9.62702C37.9807 9.67202 38.161 9.70502 38.2897 9.77702C38.4005 9.93002 38.573 9.96902 38.8047 9.97802C38.9335 9.97802 39.0365 9.96302 39.1472 9.92702C39.3455 9.93902 39.5463 9.92702 39.791 9.92702C39.9506 10.143 39.9867 10.224 40.2622 10.227C40.4527 10.383 40.6124 10.407 40.7772 10.476H41.4209C41.6527 10.497 41.7248 10.608 41.9359 10.677C42.1171 10.7724 42.3028 10.8555 42.4921 10.926C42.6764 10.9649 42.8637 10.982 43.0509 10.977C43.208 11.073 43.4011 11.079 43.5221 11.175C43.6998 11.22 43.9419 11.274 44.0783 11.325C44.3049 11.361 44.3925 11.445 44.5933 11.475C44.7659 11.535 44.5367 11.583 44.4208 11.625C44.1685 11.616 44.1504 11.505 43.9058 11.475C43.7771 11.388 43.5814 11.4 43.3908 11.325H43.3496C43.5196 11.445 43.6844 11.52 43.6071 11.727C43.3882 11.727 43.2106 11.694 43.0071 11.676C42.7908 11.628 42.693 11.577 42.4509 11.577C42.693 11.508 42.7548 11.583 42.9222 11.676C42.984 11.916 42.8501 11.826 42.6209 11.826C42.4252 11.745 42.3067 11.646 42.0647 11.625H41.5497C41.8046 11.637 41.8587 11.748 42.0209 11.877C42.0338 11.955 42.0183 11.949 41.8922 11.976C41.7583 11.841 41.5857 11.796 41.3772 11.727C41.1737 11.718 40.96 11.697 40.7772 11.625C40.651 11.616 40.6716 11.442 40.9497 11.727C41.1171 11.841 41.1763 11.937 41.1634 12.027C40.942 11.961 40.8338 11.859 40.6922 11.775C40.4996 11.6972 40.2958 11.6636 40.0922 11.676C39.8708 11.607 40.1154 11.568 40.2622 11.826C40.5815 12.09 40.221 11.976 40.0922 11.925C39.8991 11.862 39.6983 11.769 39.5335 11.727C39.4047 11.682 39.2914 11.64 39.1472 11.625C39.3712 11.649 39.4459 11.742 39.5335 11.925C39.7601 12.105 39.5232 12.018 39.3197 11.976C39.191 11.844 39.0236 11.775 38.9335 11.625C38.7198 11.502 38.712 11.355 38.8485 11.676C38.882 11.778 38.8743 12 38.8897 12.027C38.7326 11.826 38.7661 11.775 38.591 11.775C38.47 11.679 38.2949 11.604 38.2048 11.475C38.04 11.457 38.0297 11.388 37.8623 11.325C37.9988 11.514 38.1816 11.7 38.2897 11.877C38.4854 12.003 38.5395 12.117 38.676 12.225C38.7301 12.336 38.882 12.426 38.7198 12.276C38.5344 12.066 38.3979 12.015 38.1198 11.877C37.9601 11.727 37.9035 11.667 37.7335 11.526C37.5018 11.439 37.5919 11.391 37.7335 11.676C37.8958 11.85 38.0194 12.042 38.161 12.177C38.2721 12.3316 38.4022 12.466 38.5472 12.576C38.5859 12.642 38.7017 12.654 38.5472 12.675C38.4185 12.537 38.2279 12.45 38.076 12.324C37.8623 12.255 37.7619 12.126 37.6048 11.976C37.5018 11.799 37.337 11.664 37.2185 11.526C36.9713 11.412 37.2675 11.634 37.3473 11.775C37.4014 11.958 37.4709 12.105 37.5172 12.276C37.5893 12.441 37.3009 12.237 37.2185 12.177C37.0491 12.0491 36.8589 11.9634 36.6598 11.925C36.4891 11.8852 36.3173 11.8522 36.1448 11.826C35.9516 11.766 36.2503 11.97 36.3611 12.177C36.5774 12.414 36.1473 12.219 36.0186 12.177C35.806 12.1349 35.5903 12.1179 35.3748 12.126C35.0993 12.144 35.2976 12.186 35.3748 12.324C35.4598 12.402 35.519 12.564 35.5036 12.624C35.3233 12.594 35.1688 12.534 34.9448 12.525C34.7646 12.594 34.5508 12.576 34.3448 12.576C34.3371 12.702 34.3835 12.594 34.4736 12.726C34.6229 12.795 34.7208 12.879 34.6899 12.975H33.4462C33.3097 13.017 33.4745 12.996 33.5749 13.176C33.5183 13.338 33.4462 13.275 33.2736 13.275C33.1578 13.221 32.9234 13.197 32.8024 13.125C32.6814 13.125 32.6917 13.089 32.5887 13.074C32.9492 13.374 32.7689 13.299 32.9749 13.524C33.0084 13.539 33.0908 13.575 33.0161 13.575M30.1862 15.174C30.1605 15.174 30.1038 15.012 30.0163 14.874C29.9545 14.694 29.8772 14.796 29.8 14.523C29.8103 14.241 29.818 14.193 29.8 13.923C29.6249 13.779 29.5502 13.737 29.4137 13.473C29.1974 13.263 29.4472 12.903 29.4884 12.639C29.2978 12.591 29.2051 12.984 28.9142 13.125C28.703 13.29 28.8884 12.783 28.7854 12.489C28.7159 12.072 28.5073 12.699 28.4301 12.876C28.2884 12.987 28.2447 13.131 28.0438 12.924C28.0438 12.771 28.17 12.339 28.1159 12.255C27.9151 12.372 27.6524 12.72 27.4438 12.774C27.2327 12.723 27.4876 12.33 27.4876 12.039C27.4104 12.009 27.1091 12.813 26.9855 12.819C26.8619 12.825 26.916 12.039 26.8567 12.057C26.7666 12.207 26.5838 12.519 26.4576 12.627C26.213 12.588 26.4937 12.102 26.5297 11.922C26.5709 11.706 26.3005 12.336 26.1563 12.375C26.0508 12.483 25.8422 12.555 25.7701 12.576C25.8525 12.39 26.2593 12.015 26.2336 11.907C25.9941 11.916 25.631 12.282 25.4276 12.327C25.2937 12.327 25.1083 12.378 25.0851 12.375C25.0954 12.135 25.5847 11.937 25.6619 11.79C25.4225 11.835 24.9615 12.081 24.8276 12.276C24.668 12.315 24.4671 12.366 24.3126 12.276C24.3358 12.051 24.6963 11.616 24.7761 11.472C24.5573 11.583 24.4491 11.67 24.2174 11.721C24.1736 11.772 24.05 11.88 24.0886 11.772C24.1581 11.562 24.2611 11.472 24.3461 11.322C24.153 11.364 24.0809 11.493 23.8749 11.622C23.7436 11.628 23.3676 12.069 23.2414 12.075C23.0279 12.2711 22.7786 12.4076 22.5127 12.474C22.317 12.516 22.2217 12.564 22.1265 12.675C22.2243 12.474 22.3737 12.285 22.5127 12.177C22.5976 11.9949 22.7341 11.8528 22.899 11.775C22.9479 11.706 23.0818 11.688 22.9402 11.676C22.8191 11.802 22.6131 11.946 22.5127 12.027C22.3814 12.123 22.2295 12.219 22.1677 12.177C22.2372 11.961 22.3608 11.907 22.4689 11.727C22.6955 11.559 22.4689 11.667 22.2964 11.727C22.1857 11.841 21.9874 11.928 21.8252 12.027C21.6449 12.081 21.5239 12.207 21.3102 12.276C21.3102 12.348 21.372 12.147 21.3977 12.075C21.5728 11.853 21.6192 11.79 21.8252 11.727C21.8767 11.64 21.9385 11.676 21.784 11.676C21.6655 11.796 21.5059 11.862 21.354 11.976C21.202 12.015 21.0038 12.027 20.7978 12.027C20.53 12.063 20.5531 12.087 20.7978 11.925C20.9342 11.775 21.0475 11.814 21.0553 11.625C20.893 11.763 20.6948 11.865 20.4965 11.976C20.3317 11.982 20.2879 12.027 20.1102 12.027C20.1952 11.925 20.2467 11.796 20.3677 11.727C20.548 11.496 20.2544 11.682 20.1952 11.727H19.5515C19.4382 11.895 19.5463 11.727 19.639 11.625C19.7497 11.559 19.8656 11.472 19.8527 11.427C19.724 11.556 19.5772 11.616 19.4665 11.727C19.348 11.769 19.209 11.787 19.209 11.826C19.3043 11.667 19.4562 11.568 19.554 11.427C19.6982 11.391 19.8218 11.337 19.8527 11.277H19.2528H19.6802C19.8991 11.277 20.0845 11.253 20.2828 11.226C20.6227 11.16 20.2519 11.127 20.0665 11.127C20.033 11.049 20.1746 11.007 20.324 10.977C20.4527 10.905 20.6149 10.842 20.754 10.776C20.8767 10.7325 20.9924 10.6656 21.0965 10.578C20.9677 10.584 20.9677 10.62 20.839 10.626C21.0321 10.611 21.1686 10.578 21.3977 10.578C21.5865 10.5055 21.7721 10.4224 21.9539 10.329C22.0312 10.221 22.0621 10.227 21.869 10.227C22.0415 10.164 22.2861 10.131 22.4252 10.077C22.6027 10.0337 22.7754 9.96728 22.9402 9.87902C23.0663 9.78002 23.1384 9.66302 23.2826 9.57902C23.45 9.71102 23.4526 9.72902 23.7539 9.72902C23.9959 9.72602 24.1453 9.65702 24.2689 9.52802C24.4543 9.46802 24.4877 9.36602 24.6989 9.33002C24.8973 9.36633 25.098 9.38239 25.2989 9.37802C25.5049 9.31502 25.7031 9.19802 25.8551 9.07802C25.9864 9.00302 26.1435 8.89502 26.2851 8.82902C26.4396 8.92202 26.5632 8.99702 26.7563 9.03002C26.9546 8.99402 27.0602 8.88002 27.2275 8.82902C27.3308 8.70101 27.4659 8.61393 27.6138 8.58002C27.8636 8.43602 27.8455 8.62502 27.9563 8.77802C28.085 8.93402 28.2498 8.85902 28.4275 8.92802C28.5279 9.10802 28.6 9.22802 28.7288 9.32702C28.8292 9.47102 28.9476 9.50702 29.1588 9.52802C29.236 9.64802 29.1742 9.73202 29.3287 9.77702C29.3905 9.85502 29.4961 9.88502 29.5862 9.92702" stroke="#772600" stroke-width="0.0972786"/>
<path d="M32.6935 13.899V13.923C32.6935 13.854 32.6935 13.893 32.7373 14.025C32.7527 14.133 32.7167 14.121 32.6729 14.199C32.6652 14.31 32.6523 14.391 32.6523 14.523C32.6369 14.631 32.5854 14.733 32.5442 14.823C32.503 14.916 32.3253 14.97 32.3304 15.099C32.2274 15.132 32.2249 15.054 32.2223 14.922C32.1605 14.841 32.1399 14.73 32.0935 14.622C32.0678 14.52 32.006 14.442 31.9648 14.322C31.903 14.211 31.8489 14.178 31.7948 14.049C31.7717 13.989 31.7768 13.911 31.7305 13.875C31.6609 13.77 31.6146 13.755 31.4936 13.749C31.4009 13.773 31.3648 13.821 31.2798 13.848C31.2129 13.875 31.0841 13.866 31.0017 13.899C30.9811 13.938 31.0429 13.959 31.0661 14.049C31.0095 14.103 30.9889 14.196 30.958 14.274C30.9065 14.349 30.873 14.385 30.8498 14.499C30.8859 14.568 30.855 14.661 30.8086 14.724C30.7932 14.838 30.7442 14.901 30.7211 14.997C30.6541 15.054 30.6284 15.105 30.5717 15.198C30.5228 15.279 30.479 15.273 30.358 15.273C30.2627 15.243 30.2498 15.183 30.1649 15.147C30.1571 15.117 30.1494 15.108 30.1211 15.099" stroke="#782600" stroke-width="0.086161"/>
<path fill-rule="evenodd" clip-rule="evenodd" d="M30.2742 14.925C30.2742 14.925 30.2367 15.3875 29.9367 15.7C29.6367 16.0125 29.0117 16.375 29.0117 16.375C29.0117 16.375 29.8492 15.9875 29.9367 16.0625C30.0242 16.15 29.3992 16.85 29.3992 16.85C29.3992 16.85 30.2117 16.1125 30.3242 16.1125C30.4367 16.1125 30.6617 16.825 30.7492 16.8125C30.8367 16.8 30.5617 15.9125 30.5992 15.775C30.6367 15.6375 30.5992 14.9 30.5992 14.9L30.2742 14.925ZM32.2117 14.8625C32.2117 14.8625 32.1742 15.3625 31.8617 15.6875C31.5492 16.0125 30.9367 16.4125 30.9367 16.4125C30.9367 16.4125 31.7867 15.9875 31.8617 16.0875C31.9492 16.175 31.3242 16.9125 31.3242 16.9125C31.3242 16.9125 32.1492 16.1375 32.2492 16.1375C32.3492 16.1375 32.5992 16.8875 32.6867 16.8875C32.7742 16.8625 32.4867 15.9125 32.5367 15.7625C32.5742 15.625 32.5367 14.825 32.5367 14.825L32.2117 14.8625ZM29.4992 10.325C29.4992 10.425 29.4117 10.5 29.2992 10.5C29.1867 10.5 29.0992 10.425 29.0992 10.325C29.0992 10.225 29.1867 10.1625 29.2992 10.1625C29.4117 10.1625 29.4992 10.2375 29.4992 10.325Z" fill="#812E00"/>
<g clip-path="url(#clip1_10660_10539)">
<path d="M0 43.525H64V46.4H0V43.525Z" fill="white"/>
<path d="M0 17.6H64V20.475H0V17.6Z" fill="white"/>
<path d="M0 46.4H64V64H0V46.4Z" fill="#0087FF"/>
<path d="M0 0H64V17.6H0V0Z" fill="#0087FF"/>
<path d="M0 38.725H64V43.525H0V38.725Z" fill="#FF0000"/>
<path d="M0 20.475H64V25.275H0V20.475Z" fill="#000001"/>
<path d="M0 27.525H64V36.4875H0V27.525Z" fill="#FFFF00"/>
<path d="M0 36.475H64V38.7125H0V36.475Z" fill="#008300"/>
<path d="M0 25.275H64V27.5125H0V25.275Z" fill="#008300"/>
<path d="M32.0025 21.3543C30.1664 21.3574 28.3723 21.9034 26.8458 22.9236C25.3192 23.9438 24.1285 25.3926 23.4233 27.0878C22.7181 28.7831 22.5299 30.649 22.8825 32.4508C23.2351 34.2527 24.1126 35.9101 25.4047 37.2145L21.4251 38.4945L21.7858 39.4021L20.5059 39.6814L21.4368 42.6603H42.5682L43.4875 39.6814L42.2075 39.4021L42.5682 38.4829L38.5886 37.2145C39.88 35.9108 40.7573 34.2545 41.1103 32.4537C41.4632 30.6529 41.276 28.7879 40.5723 27.0932C39.8685 25.3984 38.6796 23.9495 37.1548 22.9284C35.6301 21.9074 33.8375 21.3597 32.0025 21.3543Z" fill="white" stroke="black" stroke-width="0.232725"/>
<path d="M21.6348 39.728L22.4493 42.3578H41.556L42.3589 39.728H21.6348Z" fill="#008300"/>
<path d="M22.1465 40.0654L22.7399 42.0203H41.2532L41.8467 40.0654H26.8592H22.1465Z" fill="white"/>
<path d="M23.4522 41.2169C23.4522 41.2595 23.4478 41.3006 23.439 41.34C23.4302 41.3777 23.4148 41.4106 23.3928 41.4385C23.3708 41.468 23.3415 41.491 23.3048 41.5074C23.2681 41.5239 23.2212 41.5321 23.164 41.5321C23.1127 41.5321 23.0687 41.5255 23.0321 41.5124C22.994 41.4976 22.9624 41.4812 22.9375 41.4631L22.9969 41.308C23.0189 41.3228 23.0431 41.3351 23.0695 41.3449C23.0944 41.3564 23.1215 41.3622 23.1508 41.3622C23.1948 41.3622 23.2264 41.3498 23.2454 41.3252C23.2645 41.3022 23.274 41.262 23.274 41.2045V40.6258H23.4522V41.2169ZM23.936 41.5321C23.8788 41.5321 23.8304 41.5239 23.7909 41.5074C23.7498 41.4894 23.7161 41.4648 23.6897 41.4336C23.6633 41.4024 23.6435 41.3654 23.6303 41.3228C23.6186 41.2784 23.6127 41.2308 23.6127 41.1799V40.6258H23.7909V41.1602C23.7909 41.1963 23.7945 41.2267 23.8019 41.2513C23.8092 41.276 23.8194 41.2965 23.8326 41.3129C23.8444 41.3293 23.859 41.3408 23.8766 41.3474C23.8957 41.3539 23.9162 41.3572 23.9382 41.3572C23.9822 41.3572 24.0174 41.3425 24.0438 41.3129C24.0702 41.2833 24.0834 41.2325 24.0834 41.1602V40.6234H24.2637V41.1775C24.2637 41.2284 24.2564 41.276 24.2417 41.3203C24.23 41.363 24.2109 41.4007 24.1845 41.4336C24.1567 41.4648 24.1222 41.4886 24.0812 41.505C24.0401 41.5214 23.9917 41.5296 23.936 41.5296V41.5321ZM24.6442 40.6258C24.6589 40.6537 24.675 40.689 24.6926 40.7317L24.7498 40.8647L24.807 41.0125L24.8619 41.1553L24.9147 41.0125L24.9719 40.8647L25.0291 40.7317C25.0467 40.689 25.0628 40.6537 25.0775 40.6258H25.2402L25.2622 40.8228L25.2776 41.0519C25.2835 41.1307 25.2879 41.2103 25.2908 41.2907L25.3018 41.5148H25.1281L25.1193 41.2316L25.1017 40.9238L25.0577 41.0445L25.0049 41.175C24.9902 41.2193 24.9748 41.2612 24.9587 41.3006L24.9191 41.4016H24.7938L24.7564 41.3006L24.708 41.175L24.6574 41.0445L24.6134 40.9238C24.6046 41.0272 24.5988 41.1298 24.5958 41.2316L24.587 41.5148H24.4111L24.4221 41.2907L24.4353 41.0519L24.4529 40.8253L24.4749 40.6258H24.6442ZM25.7747 41.5321C25.719 41.5321 25.6706 41.5239 25.6295 41.5074C25.5885 41.4894 25.5547 41.4648 25.5284 41.4336C25.502 41.4024 25.4822 41.3654 25.469 41.3228C25.4572 41.2784 25.4514 41.2308 25.4514 41.1799V40.6258H25.6295V41.1602C25.6295 41.1963 25.6332 41.2267 25.6405 41.2513C25.6479 41.276 25.6581 41.2965 25.6713 41.3129C25.6845 41.3293 25.6992 41.3408 25.7153 41.3474C25.7344 41.3539 25.7549 41.3572 25.7769 41.3572C25.8209 41.3572 25.8561 41.3425 25.8825 41.3129C25.9088 41.2833 25.922 41.2325 25.922 41.1602V40.6234H26.1024V41.1775C26.1024 41.2284 26.0951 41.276 26.0804 41.3203C26.0687 41.363 26.0496 41.4007 26.0232 41.4336C25.9954 41.4648 25.9609 41.4886 25.9198 41.505C25.8788 41.5214 25.8304 41.5296 25.7747 41.5296V41.5321ZM26.2717 40.6258H26.4521V41.5148H26.2739L26.2717 40.6258ZM26.9272 40.9903L27.0195 40.8081C27.0489 40.7473 27.0752 40.6866 27.0987 40.6258H27.2966C27.2527 40.7211 27.2072 40.8138 27.1603 40.9041C27.1134 40.9944 27.0642 41.0847 27.0129 41.175V41.5148H26.8348V41.1775C26.782 41.0872 26.7321 40.9969 26.6852 40.9066C26.6383 40.8146 26.5928 40.7211 26.5489 40.6258H26.7578C26.7813 40.6866 26.8077 40.7473 26.837 40.8081L26.9272 40.9903ZM27.8113 41.5148L27.7827 41.4213L27.7519 41.3228H27.444L27.411 41.4213L27.3846 41.5148H27.1955L27.2813 41.2489L27.3582 41.0199L27.4352 40.8155C27.4601 40.7498 27.4858 40.6866 27.5122 40.6258H27.6837C27.7101 40.6866 27.7358 40.7498 27.7607 40.8155L27.8355 41.0199L27.9147 41.2489L28.0004 41.5148H27.8113ZM27.5958 40.8253C27.5928 40.8401 27.587 40.8581 27.5782 40.8795L27.5518 40.9558L27.5188 41.0543L27.4836 41.1627H27.7101L27.6749 41.0519L27.6419 40.9558L27.6156 40.8819L27.5958 40.8253ZM28.6713 40.9903L28.7636 40.8081C28.7929 40.7473 28.8193 40.6866 28.8428 40.6258H29.0407C28.9968 40.7211 28.952 40.8138 28.9066 40.9041C28.8597 40.9944 28.8098 41.0847 28.757 41.175V41.5148H28.5811V41.1775L28.4315 40.9066C28.3846 40.8146 28.3399 40.7211 28.2974 40.6258H28.5041L28.5833 40.8081L28.6713 40.9903ZM29.5554 41.5148L29.5268 41.4213L29.496 41.3228H29.1881L29.1573 41.4213L29.1287 41.5148H28.944L29.0275 41.2489L29.1067 41.0199L29.1815 40.8155C29.2064 40.7498 29.2328 40.6866 29.2607 40.6258H29.43C29.4564 40.6866 29.4821 40.7498 29.507 40.8155L29.584 41.0199L29.6632 41.2489L29.7467 41.5148H29.5554ZM29.3421 40.8253L29.3245 40.8795L29.2981 40.9558L29.2651 41.0543L29.2299 41.1627H29.4542L29.419 41.0519L29.386 40.9558L29.3597 40.8819L29.3421 40.8253ZM30.6573 41.5148L30.6287 41.4213L30.5979 41.3228H30.29L30.2592 41.4213L30.2306 41.5148H30.0459L30.1294 41.2489C30.1558 41.1668 30.1822 41.0904 30.2086 41.0199L30.2834 40.8155C30.3083 40.7498 30.334 40.6866 30.3604 40.6258H30.5319C30.5583 40.6866 30.584 40.7498 30.6089 40.8155L30.6837 41.0199L30.7629 41.2489L30.8486 41.5148H30.6573ZM30.4417 40.8253L30.4263 40.8795L30.4 40.9558L30.367 41.0543L30.3296 41.1627H30.5561L30.5209 41.0519L30.4879 40.9558L30.4615 40.8819L30.4417 40.8253ZM30.952 41.5148V40.6258H31.4842V40.7933H31.1323V40.9805H31.4447V41.1479H31.1301V41.5173L30.952 41.5148ZM31.8427 40.616C31.9615 40.616 32.0524 40.6398 32.1155 40.6874C32.18 40.735 32.2122 40.8089 32.2122 40.909C32.2122 40.9714 32.199 41.0223 32.1726 41.0617C32.1477 41.0995 32.1111 41.1298 32.0627 41.1528L32.1133 41.2267L32.1638 41.3178L32.2144 41.4163L32.2584 41.5148H32.0605L32.0143 41.4262L31.9703 41.34L31.9219 41.2587L31.8779 41.1898H31.79V41.5148H31.6096V40.6382C31.6492 40.6299 31.6895 40.6242 31.7306 40.6209L31.8405 40.616H31.8427ZM31.8537 40.7859H31.8141L31.7856 40.7908V41.0322H31.8361C31.9036 41.0322 31.952 41.0223 31.9813 41.0026C32.0106 40.9846 32.0253 40.9525 32.0253 40.9066C32.0253 40.8622 32.0106 40.8319 31.9813 40.8155C31.952 40.7958 31.908 40.7859 31.8493 40.7859H31.8537ZM32.375 40.6258H32.5531V41.5148H32.375V40.6258ZM33.2063 41.5148C33.1902 41.4853 33.1712 41.4541 33.1492 41.4213L33.0766 41.3203C33.0517 41.2858 33.0253 41.253 32.9974 41.2218C32.9695 41.1906 32.9424 41.1627 32.916 41.1381V41.5148H32.7357V40.6258H32.916V40.9608C32.963 40.9066 33.0091 40.8499 33.0546 40.7908L33.1866 40.6258H33.3999C33.3456 40.6981 33.2907 40.767 33.2349 40.8327C33.1807 40.9 33.1235 40.9673 33.0634 41.0346C33.1264 41.0937 33.1873 41.1643 33.2459 41.2464C33.3061 41.3285 33.3632 41.4188 33.4175 41.5173L33.2063 41.5148ZM34.0795 41.5148L34.0531 41.4213L34.0223 41.3228H33.7144L33.6814 41.4213L33.655 41.5148H33.4681L33.5538 41.2489L33.6308 41.0199L33.7078 40.8155C33.7327 40.7498 33.7584 40.6866 33.7848 40.6258H33.9563C33.9827 40.6866 34.0084 40.7498 34.0333 40.8155L34.1081 41.0199L34.1873 41.2489L34.273 41.5148H34.0795ZM33.8662 40.8253L33.8508 40.8795L33.8244 40.9558L33.7892 41.0543L33.754 41.1627H33.9805L33.9453 41.0519L33.9123 40.9558L33.886 40.8819L33.8662 40.8253ZM34.8625 40.6258C34.8771 40.6537 34.8925 40.689 34.9087 40.7317L34.9658 40.8647L35.023 41.0125L35.078 41.1553L35.1308 41.0125L35.188 40.8647L35.2452 40.7317C35.2628 40.689 35.2789 40.6537 35.2935 40.6258H35.4563L35.4783 40.8228L35.4937 41.0519C35.4996 41.1307 35.504 41.2103 35.5069 41.2907L35.5179 41.5148H35.3441L35.3353 41.2316L35.3177 40.9238L35.2738 41.0445L35.221 41.175C35.2063 41.2193 35.1909 41.2612 35.1748 41.3006L35.1352 41.4016H35.0098L34.9724 41.3006L34.9241 41.175L34.8735 41.0445L34.8295 40.9238C34.8207 41.0272 34.8148 41.1298 34.8119 41.2316L34.8031 41.5148H34.6271L34.6381 41.2907L34.6513 41.0519L34.6689 40.8253L34.6909 40.6258H34.8625ZM36.2129 41.5148L36.1821 41.4213L36.1535 41.3228H35.8434L35.8126 41.4213L35.784 41.5148H35.5993L35.6828 41.2489L35.762 41.0199L35.8368 40.8155C35.8617 40.7498 35.8881 40.6866 35.916 40.6258H36.0853C36.1117 40.6866 36.1374 40.7498 36.1623 40.8155C36.1887 40.8811 36.2143 40.9493 36.2393 41.0199L36.3185 41.2489L36.402 41.5148H36.2129ZM35.9973 40.8253L35.9797 40.8795L35.9534 40.9558L35.9204 41.0543L35.8852 41.1627H36.1095L36.0743 41.0519L36.0413 40.9558L36.0149 40.8819L35.9973 40.8253ZM36.7451 41.3622C36.7701 41.3622 36.7906 41.3597 36.8067 41.3548C36.8228 41.3498 36.836 41.3441 36.8463 41.3375C36.8566 41.3277 36.8639 41.3178 36.8683 41.308C36.8712 41.2965 36.8727 41.2842 36.8727 41.271C36.8727 41.2415 36.8602 41.2169 36.8353 41.1972C36.8118 41.1775 36.7701 41.1569 36.7099 41.1356L36.6308 41.1011C36.6058 41.0863 36.5831 41.0699 36.5626 41.0519C36.5421 41.0305 36.5252 41.0059 36.512 40.978C36.4973 40.9484 36.49 40.9131 36.49 40.8721C36.49 40.8311 36.4973 40.7941 36.512 40.7613C36.5267 40.7284 36.5465 40.7005 36.5714 40.6776C36.5963 40.6546 36.6271 40.6365 36.6638 40.6234C36.6989 40.6119 36.7393 40.6061 36.7847 40.6061C36.8375 40.6061 36.8837 40.6119 36.9233 40.6234C36.9614 40.6365 36.9937 40.6513 37.0201 40.6677L36.9673 40.8253C36.9453 40.8122 36.9203 40.8007 36.8925 40.7908C36.8661 40.781 36.8338 40.7761 36.7957 40.7761C36.7517 40.7761 36.7209 40.7826 36.7033 40.7958C36.6843 40.8089 36.6747 40.8294 36.6747 40.8573C36.6747 40.8737 36.6784 40.8869 36.6857 40.8967C36.6931 40.9082 36.7026 40.9189 36.7143 40.9287L36.7583 40.9534L36.8133 40.9755C36.8544 40.9919 36.8903 41.0084 36.9211 41.0248C36.9504 41.0412 36.9753 41.0609 36.9959 41.0839C37.0164 41.1069 37.0318 41.1331 37.042 41.1627C37.0523 41.1922 37.0574 41.2284 37.0574 41.271C37.0574 41.3531 37.031 41.418 36.9783 41.4656C36.9269 41.5099 36.8492 41.5321 36.7451 41.5321C36.7099 41.5321 36.6777 41.5296 36.6484 41.5247C36.6205 41.5214 36.5956 41.5157 36.5736 41.5074L36.5164 41.4877L36.479 41.4631L36.5296 41.3055C36.5531 41.3203 36.5824 41.3334 36.6176 41.3449C36.6513 41.3564 36.6938 41.3622 36.7451 41.3622ZM37.6733 40.6258H37.8536V41.5148H37.6733V41.1381H37.3741V41.5148H37.1938V40.6258H37.3741V40.9632H37.6733V40.6258ZM38.5662 41.5148L38.5398 41.4213L38.509 41.3228H38.2011L38.1681 41.4213L38.1417 41.5148H37.9548C37.9841 41.4196 38.0134 41.331 38.0428 41.2489C38.0677 41.1668 38.0933 41.0904 38.1197 41.0199L38.1945 40.8155C38.2194 40.7498 38.2451 40.6866 38.2715 40.6258H38.443C38.4694 40.6866 38.4951 40.7498 38.52 40.8155L38.5948 41.0199L38.674 41.2489L38.7597 41.5148H38.5662ZM38.3529 40.8253L38.3375 40.8795L38.3111 40.9558L38.2759 41.0543L38.2407 41.1627H38.4672L38.432 41.0519L38.3991 40.9558L38.3727 40.8819L38.3529 40.8253ZM39.0941 40.616C39.2143 40.616 39.3059 40.6398 39.369 40.6874C39.432 40.735 39.4635 40.8089 39.4635 40.909C39.4635 40.9714 39.4511 41.0223 39.4262 41.0617C39.3998 41.0995 39.3631 41.1298 39.3162 41.1528L39.3668 41.2267L39.4174 41.3178L39.4679 41.4163L39.5119 41.5148H39.314L39.2678 41.4262L39.2216 41.34L39.1776 41.2587L39.1292 41.1898H39.0413V41.5148H38.8631V40.6382C38.9012 40.6299 38.9408 40.6242 38.9819 40.6209L39.0941 40.616ZM39.1051 40.7859H39.0721L39.0435 40.7908V41.0322H39.0941C39.1615 41.0322 39.2099 41.0223 39.2392 41.0026C39.2685 40.9846 39.2832 40.9525 39.2832 40.9066C39.2832 40.8622 39.2685 40.8319 39.2392 40.8155C39.2099 40.7958 39.1659 40.7859 39.1073 40.7859H39.1051ZM39.6263 40.6258H39.8067V41.5148H39.6263V40.6258ZM40.4577 41.5148C40.443 41.4853 40.4239 41.4541 40.4005 41.4213C40.38 41.3884 40.3565 41.3548 40.3301 41.3203C40.3052 41.2858 40.2788 41.253 40.2509 41.2218C40.2231 41.1906 40.1952 41.1627 40.1673 41.1381V41.5148H39.9914V40.6258H40.1673V40.9608C40.2143 40.9066 40.2612 40.8499 40.3081 40.7908L40.4401 40.6258H40.6512C40.597 40.6981 40.5427 40.767 40.4885 40.8327C40.4342 40.9 40.377 40.9673 40.3169 41.0346C40.3799 41.0937 40.4408 41.1643 40.4995 41.2464C40.5581 41.3285 40.6153 41.4188 40.671 41.5173L40.4577 41.5148ZM40.7744 40.6258H40.9503V41.5148H40.7744V40.6258Z" fill="black"/>
<path fill-rule="evenodd" clip-rule="evenodd" d="M21.6348 39.7279L22.8449 39.4021L22.4726 38.7389L24.5555 37.9592V38.669H25.1955V39.7512H21.7046L21.6348 39.7279Z" fill="#008300"/>
<path fill-rule="evenodd" clip-rule="evenodd" d="M24.8922 39.7512H22.3555L24.8922 39.0647V39.7512ZM24.3336 38.6807H23.2049L24.3685 38.2385L24.3336 38.6807ZM22.8558 38.8669L23.1118 39.3323L24.7991 38.8669H22.8558Z" fill="white"/>
<path fill-rule="evenodd" clip-rule="evenodd" d="M42.3594 39.7279L41.1492 39.4021L41.5216 38.7389L39.4387 37.9592V38.669H38.7987V39.7512H42.2896L42.3594 39.7279Z" fill="#008300"/>
<path fill-rule="evenodd" clip-rule="evenodd" d="M39.102 39.7512H41.6387L39.102 39.0647V39.7512ZM39.6605 38.6807H40.7892L39.6256 38.2385L39.6605 38.6807ZM41.1383 38.8669L40.8823 39.3323L39.1951 38.8669H41.1383Z" fill="white"/>
<path d="M31.781 22.4597C29.888 22.5222 28.0743 23.2351 26.6454 24.4783C25.2164 25.7216 24.2595 27.4192 23.9357 29.2854C23.612 31.1516 23.9411 33.0723 24.8677 34.7242C25.7944 36.3761 27.2619 37.6583 29.0232 38.3548V37.4472C27.476 36.7649 26.2097 35.5726 25.4355 34.0694C24.6614 32.5661 24.4262 30.8427 24.7693 29.187C25.1125 27.5312 26.0131 26.0433 27.3209 24.9714C28.6288 23.8996 30.2647 23.3088 31.9555 23.2975H32.0137C33.7086 23.2982 35.3517 23.8815 36.6676 24.9496C37.9835 26.0178 38.8922 27.5058 39.2413 29.1643C39.5905 30.8228 39.3589 32.551 38.5853 34.059C37.8118 35.567 36.5433 36.7633 34.9926 37.4472V38.3548C36.7821 37.6595 38.2721 36.3602 39.2045 34.6819C40.1369 33.0037 40.453 31.0522 40.098 29.1654C39.743 27.2787 38.7393 25.5755 37.2608 24.3508C35.7823 23.1262 33.922 22.4572 32.0021 22.4597H31.781Z" fill="#FFFF00" stroke="black" stroke-width="0.139635"/>
<path fill-rule="evenodd" clip-rule="evenodd" d="M34.2592 36.621L34.2709 37.8545C33.5261 37.9708 32.7 38.7388 32.4789 38.8785C32.2578 39.0297 31.8971 39.3207 31.6993 39.2974C31.3618 39.2508 31.6062 38.9832 31.6062 38.9832C31.6062 38.9832 31.3734 39.2625 31.2105 39.1345C31.0476 39.0297 31.3036 38.8203 31.3036 38.8203C31.3036 38.8203 31.2222 38.9367 31.0476 38.8785C30.8847 38.8319 31.0011 38.6458 31.0011 38.6458C31.0011 38.6458 30.5589 38.8785 30.4775 38.797C30.3611 38.6457 30.524 38.5061 30.524 38.5061L31.5596 37.6334C32.1298 37.4007 32.2927 37.7265 32.5487 37.7032C32.9809 37.5889 33.3849 37.3869 33.7356 37.1098C33.9334 36.9119 33.8752 36.7025 34.0265 36.6443C34.1778 36.5861 34.2592 36.621 34.2592 36.621Z" fill="white" stroke="black" stroke-width="0.104726"/>
<path fill-rule="evenodd" clip-rule="evenodd" d="M29.7226 36.7141L29.7109 37.8545C30.4091 37.9476 31.1887 38.6923 31.3982 38.8319C31.596 38.9599 31.9451 39.181 32.1313 39.1578C32.4338 39.1228 32.364 39.0065 32.364 39.0065C32.364 39.0065 32.5036 39.0763 32.6898 39.0065C32.876 38.9367 32.7829 38.8087 32.7829 38.8087C32.7829 38.8087 33.0622 38.8901 33.1785 38.7389C33.2949 38.6109 33.0622 38.4712 33.0622 38.4712C33.0622 38.4712 33.1785 38.3898 32.9924 38.4945C32.8062 38.5876 32.4338 38.1687 32.0615 38.1454C31.6775 38.1454 31.6426 38.5178 31.4098 38.3432C31.1655 38.157 31.596 37.8545 31.7473 37.808C32.3407 37.6101 32.8993 37.8545 32.1778 37.5752C31.8055 37.4356 31.5146 37.7032 31.2702 37.6916C31.0142 37.68 30.3858 37.3425 30.2229 37.1563C30.0368 36.9701 30.0833 36.784 29.9437 36.7258C29.804 36.6792 29.7226 36.7025 29.7109 36.7141H29.7226Z" fill="white" stroke="black" stroke-width="0.09309"/>
<path d="M32.794 38.8087L32.2937 38.5992M32.4217 39.0298L31.8398 38.6807" stroke="black" stroke-width="0.09309"/>
<path fill-rule="evenodd" clip-rule="evenodd" d="M28.7679 36.1207C27.325 36.8189 27.2551 34.9804 26.6035 35.0036C27.8253 34.1891 27.6275 35.7018 28.7679 36.1207ZM28.2093 34.096C27.4879 35.4109 29.1751 35.5854 29.1169 36.2254C29.9431 35.1084 28.5351 35.2015 28.2093 34.096Z" fill="#008300" stroke="black" stroke-width="0.046545"/>
<path fill-rule="evenodd" clip-rule="evenodd" d="M27.511 34.608C25.7306 34.9105 26.2193 33.3745 25.4746 33.2465C27.0455 32.7811 26.3706 33.968 27.511 34.608Z" fill="#008300" stroke="black" stroke-width="0.046545"/>
<path fill-rule="evenodd" clip-rule="evenodd" d="M27.3242 32.7928C26.3467 33.9447 27.7547 34.0029 27.5918 34.608C28.6042 33.6771 27.5569 33.712 27.3242 32.7928ZM26.3002 33.0022C24.5315 32.7462 25.6485 30.9426 25.1133 30.5586C26.5678 30.6633 25.6253 32.2459 26.3002 33.0022Z" fill="#008300" stroke="black" stroke-width="0.046545"/>
<path fill-rule="evenodd" clip-rule="evenodd" d="M26.9744 30.7215C25.3453 31.5011 26.986 32.3389 26.3461 33.0487C27.9519 32.9673 26.5322 31.92 26.9744 30.7447V30.7215ZM26.0668 30.7797C24.1701 29.9186 26.1482 28.2895 25.8108 27.696C27.1024 29.0109 25.1359 29.4997 26.0668 30.7797Z" fill="#008300" stroke="black" stroke-width="0.046545"/>
<path fill-rule="evenodd" clip-rule="evenodd" d="M27.277 28.5921C25.6479 28.8015 26.4625 30.3026 26.125 30.8378C27.405 30.5469 26.381 29.7906 27.2886 28.5921H27.277ZM26.4857 28.1382C25.5665 26.7419 27.1024 26.4277 27.2072 25.7179C27.6493 27.5564 26.6021 26.963 26.4857 28.1382Z" fill="#008300" stroke="black" stroke-width="0.046545"/>
<path fill-rule="evenodd" clip-rule="evenodd" d="M28.3255 26.9746C26.8128 26.5441 27.0921 28.0684 26.5801 28.4292C27.8601 28.6386 27.5924 27.4168 28.3255 26.9746ZM27.6273 26.323C27.3248 25.1128 27.9299 25.3106 28.6164 24.7754C28.9888 25.7528 28.0695 25.6365 27.6273 26.323ZM29.559 26.1368C28.3953 25.2757 28.2673 26.4394 27.6622 26.6023C28.7793 27.2655 28.8259 26.2764 29.559 26.1485V26.1368ZM28.8608 25.555C28.8957 25.0314 29.5939 24.3448 30.3153 24.5776C30.2804 25.4503 29.4426 25.6714 28.8608 25.5666V25.555Z" fill="#008300" stroke="black" stroke-width="0.046545"/>
<path fill-rule="evenodd" clip-rule="evenodd" d="M35.2243 36.1207C36.6672 36.8189 36.737 34.9804 37.3887 35.0036C36.1669 34.1891 36.3647 35.7018 35.2243 36.1207ZM35.7829 34.096C36.5043 35.4109 34.8171 35.5854 34.8752 36.2254C34.0491 35.1084 35.4571 35.2015 35.7829 34.096Z" fill="#008300" stroke="black" stroke-width="0.046545"/>
<path fill-rule="evenodd" clip-rule="evenodd" d="M36.4812 34.608C38.2616 34.9105 37.7729 33.3745 38.5176 33.2465C36.9467 32.7811 37.6216 33.968 36.4812 34.608Z" fill="#008300" stroke="black" stroke-width="0.046545"/>
<path fill-rule="evenodd" clip-rule="evenodd" d="M36.668 32.7928C37.6455 33.9447 36.2375 34.0029 36.4004 34.608C35.388 33.6771 36.4353 33.712 36.668 32.7928ZM37.692 33.0022C39.4607 32.7462 38.3436 30.9426 38.8789 30.5586C37.4244 30.6633 38.3669 32.2459 37.692 33.0022Z" fill="#008300" stroke="black" stroke-width="0.046545"/>
<path fill-rule="evenodd" clip-rule="evenodd" d="M37.0178 30.7215C38.6469 31.5011 37.0061 32.3389 37.6461 33.0487C36.0403 32.9673 37.46 31.92 37.0178 30.7447V30.7215ZM37.9254 30.7797C39.8221 29.9186 37.844 28.2895 38.1814 27.696C36.8898 29.0109 38.8563 29.4997 37.9254 30.7797Z" fill="#008300" stroke="black" stroke-width="0.046545"/>
<path fill-rule="evenodd" clip-rule="evenodd" d="M36.7152 28.5921C38.3443 28.8015 37.5297 30.3026 37.8672 30.8378C36.5872 30.5469 37.6112 29.7906 36.7036 28.5921H36.7152ZM37.5065 28.1382C38.4257 26.7419 36.8897 26.4277 36.785 25.7179C36.3428 27.5564 37.3901 26.963 37.5065 28.1382Z" fill="#008300" stroke="black" stroke-width="0.046545"/>
<path fill-rule="evenodd" clip-rule="evenodd" d="M35.6667 26.9746C37.1794 26.5441 36.9001 28.0684 37.4121 28.4292C36.1321 28.6386 36.3998 27.4168 35.6667 26.9746ZM36.3648 26.323C36.6674 25.1128 36.0623 25.3106 35.3758 24.7754C35.0034 25.7528 35.9227 25.6365 36.3648 26.323ZM34.4332 26.1368C35.5969 25.2757 35.7249 26.4394 36.3299 26.6023C35.2129 27.2655 35.1663 26.2764 34.4332 26.1485V26.1368ZM35.1314 25.555C35.0965 25.0314 34.3983 24.3448 33.6769 24.5776C33.7118 25.4503 34.5496 25.6714 35.1314 25.5666V25.555Z" fill="#008300" stroke="black" stroke-width="0.046545"/>
<path d="M30.5723 24.0417L30.6417 24.4494L30.8586 24.406C30.9193 24.406 30.954 24.38 30.9714 24.3627C30.9974 24.3366 31.0061 24.2932 30.9974 24.2325H31.0234L31.0842 24.5795H31.0581L31.0234 24.4928L30.9714 24.4581H30.876L30.6504 24.5015L30.7024 24.8398L30.7285 24.9266L30.7545 24.9352H30.8065L30.9801 24.9092L31.1015 24.8745L31.1709 24.8138C31.1969 24.7791 31.223 24.727 31.2403 24.6576H31.275L31.2317 24.9179L30.4509 25.0567L30.4422 25.0307H30.4769L30.5376 24.996C30.555 24.9786 30.5636 24.9699 30.5636 24.9526V24.8485L30.4422 24.1891C30.4422 24.1284 30.4248 24.085 30.4075 24.0764C30.3815 24.059 30.3554 24.0503 30.312 24.059H30.2773V24.0417L31.0581 23.9028L31.1015 24.1284H31.0755C31.0641 24.091 31.0465 24.0558 31.0234 24.0243L30.954 23.9896C30.9195 23.9844 30.8844 23.9844 30.8499 23.9896L30.5723 24.0417ZM32.0645 24.5362H31.6654L31.596 24.701C31.5823 24.7282 31.5735 24.7575 31.57 24.7878C31.57 24.8051 31.5787 24.8225 31.596 24.8311C31.6134 24.8485 31.6394 24.8485 31.6915 24.8572V24.8832H31.3705V24.8572C31.4138 24.8572 31.4399 24.8398 31.4572 24.8311L31.544 24.675L31.891 23.8248H31.9257L32.2901 24.6836C32.3161 24.753 32.3421 24.7964 32.3681 24.8138C32.3942 24.8398 32.4202 24.8485 32.4636 24.8485V24.8832H32.0558V24.8572C32.0992 24.8572 32.1252 24.8485 32.1426 24.8311C32.1599 24.8225 32.1599 24.8051 32.1599 24.7878C32.1599 24.7704 32.1599 24.7357 32.1339 24.6836L32.0645 24.5362ZM32.0471 24.4754L31.8736 24.059L31.6915 24.4841L32.0471 24.4754ZM33.5914 23.9983L33.5567 24.3453H33.5307C33.5265 24.2575 33.4963 24.1729 33.4439 24.1024C33.3908 24.0465 33.3206 24.0098 33.2444 23.9983C33.1804 23.986 33.1142 23.992 33.0535 24.0156C32.9852 24.0432 32.9275 24.0918 32.8887 24.1544C32.8453 24.2238 32.8193 24.3193 32.8019 24.4321C32.7856 24.5122 32.7856 24.5948 32.8019 24.675C32.8193 24.753 32.854 24.8138 32.906 24.8485C32.9581 24.9005 33.0275 24.9352 33.1056 24.9439C33.1663 24.9526 33.227 24.9526 33.2791 24.9352C33.3398 24.9179 33.4005 24.8658 33.4786 24.7964L33.5046 24.8138C33.4352 24.9005 33.3658 24.9526 33.2878 24.9873C33.2097 25.0133 33.1316 25.022 33.0275 25.0046C32.8626 24.9699 32.7412 24.8919 32.6805 24.7444C32.6254 24.6376 32.6071 24.5156 32.6284 24.3974C32.6458 24.3019 32.6805 24.2065 32.7412 24.1371C32.8019 24.0503 32.88 23.9983 32.9668 23.9636C33.0466 23.931 33.1337 23.9202 33.2191 23.9324C33.3045 23.9446 33.3851 23.9793 33.4526 24.033L33.4873 24.059L33.5307 24.0503L33.5654 23.9983H33.5914Z" fill="black"/>
<path d="M31.7239 25.9157C31.6076 25.9157 31.4912 25.939 31.3865 25.9623C31.205 26.2779 30.9158 26.5176 30.5719 26.6372L30.5021 26.6604C30.1435 26.8127 29.7408 26.8252 29.3734 26.6954C29.0492 26.9109 28.7523 27.1649 28.4891 27.4517C28.5559 27.8364 28.4726 28.2321 28.2563 28.5572C28.079 28.9007 27.7805 29.1661 27.4185 29.3019C27.3022 29.6742 27.2323 30.0699 27.2207 30.4655C27.4534 30.64 27.6512 30.9775 27.7327 31.3848L27.756 31.4662C27.8374 31.9084 27.756 32.3273 27.5931 32.5717C27.7443 32.9324 27.9422 33.2698 28.1749 33.584C28.4541 33.5607 28.8265 33.7004 29.1523 33.9447L29.2105 34.0029C29.5596 34.2938 29.769 34.6546 29.7923 34.9571C30.153 35.1433 30.5254 35.2829 30.921 35.3644C31.1305 35.1666 31.5028 35.0153 31.9217 35.0153H32.0032C32.457 35.0153 32.8526 35.1549 33.0737 35.3644C33.4694 35.2829 33.8417 35.1316 34.1908 34.9571C34.2553 34.573 34.4633 34.2278 34.7726 33.9913C35.0601 33.732 35.4327 33.5871 35.8199 33.584C36.0526 33.2815 36.2504 32.944 36.4017 32.5949C36.2217 32.2817 36.1598 31.9143 36.2272 31.5593V31.4895C36.3202 31.0357 36.5297 30.675 36.7741 30.4888C36.7565 30.0942 36.6901 29.7033 36.5762 29.3252C36.2391 29.1979 35.9586 28.9544 35.785 28.6386L35.7384 28.5688C35.5057 28.1732 35.4359 27.7543 35.5057 27.4634C35.2353 27.1638 34.9262 26.9016 34.5864 26.6837C34.2485 26.8084 33.8771 26.8084 33.5392 26.6837L33.4577 26.6488C33.0868 26.5335 32.7717 26.2847 32.5734 25.9506C32.3872 25.9274 32.1894 25.9157 31.9916 25.9157H31.7821C31.7782 25.9155 31.7744 25.9155 31.7705 25.9157H31.7123H31.7239Z" fill="#FF0000"/>
<path d="M36.0865 30.6749C36.0865 31.7597 35.6556 32.8 34.8886 33.5671C34.1215 34.3341 33.0812 34.7651 31.9964 34.7651C30.9116 34.7651 29.8713 34.3341 29.1042 33.5671C28.3372 32.8 27.9062 31.7597 27.9062 30.6749C27.9062 29.5901 28.3372 28.5498 29.1042 27.7827C29.8713 27.0157 30.9116 26.5848 31.9964 26.5848C33.0812 26.5848 34.1215 27.0157 34.8886 27.7827C35.6556 28.5498 36.0865 29.5901 36.0865 30.6749Z" fill="#FBF014" stroke="black" stroke-width="0.046545"/>
<path d="M35.7379 30.675C35.7379 31.6687 35.3431 32.6217 34.6405 33.3244C33.9378 34.0271 32.9847 34.4218 31.991 34.4218C30.9973 34.4218 30.0443 34.0271 29.3416 33.3244C28.6389 32.6217 28.2441 31.6687 28.2441 30.675C28.2441 29.6812 28.6389 28.7282 29.3416 28.0255C30.0443 27.3229 30.9973 26.9281 31.991 26.9281C32.9847 26.9281 33.9378 27.3229 34.6405 28.0255C35.3431 28.7282 35.7379 29.6812 35.7379 30.675Z" fill="#FBF014" stroke="black" stroke-width="0.046545"/>
<path fill-rule="evenodd" clip-rule="evenodd" d="M30.8867 28.8364L32.1201 29.0575L31.9572 30.291L30.9099 31.0124L30.3281 30.3724L30.363 29.3601L30.8867 28.8364Z" fill="#0087FF" stroke="black" stroke-width="0.046545"/>
<path fill-rule="evenodd" clip-rule="evenodd" d="M30.5371 29.744L30.0484 29.7673H30.0018V29.7906H29.9902L29.9786 29.8255L29.932 29.8488V29.872L29.8971 29.8953L29.8506 29.9186H29.8389L29.8273 29.872H29.7575L29.7226 29.8837V29.8255L29.7109 29.8139V29.6975H29.7342V29.5928L29.7458 29.5695V29.5462L29.7808 29.5113L29.8157 29.4997V29.4648L29.8273 29.4299L29.8389 29.4182L29.8273 29.3949L29.7924 29.4182L29.7575 29.3949V29.3251L29.7924 29.3019L29.804 29.3135L29.8273 29.2204L29.8622 29.1855L29.8389 29.1273L29.8622 29.0924L29.8506 29.0459L29.9553 29.0109V28.976L29.9669 28.9295L30.0135 28.9179L30.0484 28.8946L30.0717 28.9528V28.9877H30.0949L30.1182 28.9411L30.1415 28.9295V28.8946L30.2113 28.8131L30.2346 28.7899L30.2811 28.7666H30.3277L30.3626 28.72V28.6735H30.3858L30.4091 28.6502L30.3975 28.6153V28.5339H30.3742V28.5106L30.3509 28.5455L30.3277 28.5339V28.499H30.2578L30.2346 28.4524L30.2113 28.464V28.499L30.188 28.4873V28.4408H30.1415L30.1531 28.3942L30.1997 28.3128V28.2662L30.1531 28.2197L30.188 28.1266L30.2346 28.08V28.0219L30.1997 28.0335L30.2462 27.9753L30.3277 27.9404H30.3742L30.444 27.987L30.4673 27.9753H30.5022L30.5604 27.9288L30.6186 27.9753V28.0102H30.6651L30.6767 28.0335H30.7117V27.9986L30.7931 27.9637L30.9095 27.9521L31.0142 27.8939L31.0724 27.9404H31.2004L31.3982 27.7659L32.0033 27.9055L31.9684 28.9528L31.34 29.3019L31.3051 29.2786L31.2935 29.2902H31.2818V29.232H31.2469V29.3019H31.2004L31.1538 29.2786V29.2553H31.2004V29.2437L31.1655 29.232H31.1306V29.2088L31.1655 29.1855V29.1739L31.1306 29.1971L31.1073 29.1855L31.084 29.1971L31.1073 29.232L31.0724 29.2553V29.2786L31.0258 29.2669V29.2902H31.0491L30.9793 29.3368L30.956 29.3135V29.3019L30.9211 29.3251H30.8746V29.3135L30.9211 29.3019L30.9095 29.2902H30.8746V29.2553L30.8629 29.2902H30.8397V29.3484H30.7931L30.7815 29.3251C30.7815 29.3251 30.7466 29.3251 30.7582 29.3484V29.3833L30.7233 29.36H30.7V29.3949H30.6767L30.6302 29.3717L30.6535 29.4066H30.6069L30.5837 29.4182L30.6069 29.4415L30.6186 29.4648L30.6418 29.488L30.6302 29.4997H30.6186L30.5837 29.5346H30.5604L30.5487 29.5695L30.5255 29.5811L30.5371 29.6044H30.5487V29.6277H30.5371L30.4906 29.6742V29.6859H30.5255L30.5371 29.744Z" fill="white" stroke="black" stroke-width="0.046545"/>
<path fill-rule="evenodd" clip-rule="evenodd" d="M31.3748 29.7557L32.7129 30.4888L32.7246 30.5935L32.678 30.6168L32.6896 30.6633L32.7362 30.6749L32.7478 30.7215L33.2715 31.0939L33.3064 31.0706L33.3529 31.0939L33.3646 31.0473L33.3995 31.0124L33.4576 30.8844L33.4227 30.8728L33.446 30.8262H33.4693L33.5158 30.768V30.7215L33.4925 30.6866L33.5275 30.6982L33.574 30.5935L33.6205 30.5819L33.6322 30.5004L33.6555 30.4771C33.6555 30.4771 33.6322 30.384 33.6555 30.3491C33.6904 30.3142 33.8067 30.3142 33.8067 30.3142L33.8765 30.2328V30.2095L33.9231 30.1746L33.8765 30.0931L33.9696 30.1164L34.0395 30.0931H34.086L34.1558 30V29.9651L33.9347 29.6859V28.3244L34.0627 28.2081L34.2722 27.9172L34.214 27.8939L34.0045 27.9172L33.9464 27.8473H33.9231L33.9115 27.8008L33.8649 27.7775L33.5158 27.9404L33.5042 27.9986L33.4227 28.0684V28.115H33.3995L33.3762 28.1033L33.0155 28.0219L32.9922 28.0452H32.8758L32.4453 27.731H32.1311L32.0613 27.7077V27.6728H31.4795L31.3631 27.7892L31.3864 27.9404H31.4446L31.4678 28.0102H31.526L31.5144 28.0801H31.5028V28.1615L31.526 28.1964L31.5609 28.2197V28.2779L31.6308 28.3128L31.6424 28.3942L31.6889 28.4175V28.4524L31.6657 28.499L31.7122 28.5688L31.7006 28.6153L31.7238 28.6735V28.6968L31.7122 28.7666L31.6773 28.7899L31.6657 28.8364H31.6424V28.9295H31.5842L31.5609 28.9644L31.526 28.9528V29.0342L31.4911 29.0808H31.4562V29.1157L31.4097 29.139L31.398 29.1971V29.2553L31.3398 29.2786V29.3833L31.3748 29.395H31.398L31.3864 29.4299L31.4213 29.4415L31.4446 29.4997L31.4911 29.4648V29.4299H31.5493L31.6191 29.395L31.6424 29.4415L31.6657 29.4764H31.6191L31.6075 29.4997H31.5726L31.5144 29.488V29.5113L31.5377 29.5346L31.5028 29.5579L31.4911 29.5346L31.4562 29.5462H31.4329L31.398 29.523V29.5695H31.3748L31.3515 29.6277L31.3864 29.6626L31.4213 29.6859L31.3864 29.7324L31.3748 29.7557ZM33.4227 32.2924L33.4693 32.2575V32.2342H33.5158L33.5391 32.176V32.2342L33.5158 32.2575V32.2924H33.4925V32.3273L33.4809 32.304L33.4227 32.2924ZM33.2831 31.6408V31.5593L33.2715 31.5477L33.318 31.5128V31.4662L33.3762 31.4429V31.4895H33.3413V31.5593L33.3646 31.5942V31.6291L33.3995 31.6524L33.4344 31.6989V31.7338L33.3995 31.7455L33.3529 31.6873L33.3064 31.6989L33.2831 31.6408ZM33.4576 31.3382V31.2917L33.4809 31.2451L33.446 31.152H33.4925L33.5042 31.1986H33.5275V31.1637C33.5275 31.1637 33.5507 31.152 33.5507 31.1637L33.5391 31.2684L33.5507 31.3149L33.5275 31.3498L33.4925 31.3848L33.4576 31.3382Z" fill="white" stroke="black" stroke-width="0.046545"/>
<path fill-rule="evenodd" clip-rule="evenodd" d="M33.7256 33.2233L33.5743 33.3397L33.3649 33.4327L33.3067 33.4677H33.202L33.1205 33.4909L33.074 33.5142L33.0158 33.5724L32.9227 33.5142H32.8063L32.7714 33.5491V33.6073L32.69 33.6422H32.6551L32.6202 33.6655L32.5038 33.6538L32.4573 33.6073L32.3991 33.6189L32.306 33.6887L32.2594 33.6771V33.6538H32.2245L32.2013 33.6771L32.1431 33.6655V33.6189H32.1082L32.0616 33.5491H32.0034L31.9918 33.584L31.9453 33.6189L31.8987 33.6073H31.7242L31.6776 33.5258H31.6311L31.5845 33.4095V33.3513L31.6078 33.328V33.2582L31.5613 33.2233L31.5729 33.1069L31.5613 33.0837L31.5496 33.0371L31.4682 32.9557V32.9208L31.3751 32.8509H31.3402V32.9208L31.2936 32.9091L31.2704 32.8742L31.154 32.8975L31.1075 32.8393L31.0493 32.8509L31.0027 32.816H30.9445L30.898 32.7695H30.7933L30.77 32.6997H30.7002L30.6769 32.688H30.5955V32.6531L30.5024 32.6415L30.4558 32.6066V32.5484L30.386 32.5135L30.3278 32.5251L30.3046 32.4553L30.2464 32.4088L30.2347 32.3389L30.1533 32.2226V32.176L30.1067 32.1295V32.0364L30.0718 31.9899V31.9433H30.0951V31.9084L30.0369 31.8619L30.0136 31.8153L29.9206 31.7455H29.8507L29.7693 31.6524V31.6059L29.8042 31.5593H29.8507L29.8624 31.5244V31.4895L29.7809 31.3731V31.315L29.8158 31.2917L29.8042 31.2219L29.7344 31.152V31.0822L29.746 31.024V31.0008L29.8158 30.9775L29.8507 30.9542L29.8856 30.9193V30.8844L29.9555 30.8611V30.8262L30.0136 30.7564V30.7215L30.0486 30.6633L30.13 30.6284V30.6051L30.1882 30.5702V30.4539L30.1649 30.4422H30.13L30.0951 30.4306H30.0369V30.3957L30.0718 30.3491L30.0486 30.3259L30.0835 30.2561L30.1998 30.2444V30.163L30.2115 30.1281L30.1649 30.0699V29.9535L30.1416 29.9186V29.8837L30.0835 29.8488L30.0369 29.7673H30.1067L30.1416 29.7324H30.5489L30.5605 29.7673V29.8139L30.5373 29.8721L30.5256 29.907V29.9302L30.514 29.9768V30.0233L30.4907 30.0466V30.0815L30.4675 30.1048H30.5024V30.163L30.4791 30.2095H30.5722L30.5373 30.2793L30.5256 30.3259L30.5373 30.3957L30.5838 30.3491L30.6187 30.3841V30.3259L30.6304 30.2793L30.6769 30.3026L30.6885 30.2793L30.6653 30.2328L30.7118 30.1862L30.7584 30.2444L30.7933 30.2561L30.8165 30.3142L30.8515 30.2444L30.8631 30.291H30.9096V30.3375L30.9445 30.3841L30.898 30.4073V30.4655H30.9329V30.4073H30.9795L30.9562 30.3491L30.9445 30.3026L30.9911 30.2328H31.0376L31.0609 30.291H31.1424L31.2122 30.2211L31.3053 30.1862L31.282 30.1281H31.2587L31.2238 30.163L31.1191 30.1513L31.0842 30.1281L31.0609 30.1513H31.026L30.9329 30.1164V30.0815L30.9096 30.0699L30.9562 30.0466L30.9795 30.0815H31.0027L31.0376 30.0699L31.0842 30.1048L31.154 30.0931V30.0582L31.1075 30.0466V30.0117H31.1889L31.2005 29.9884L31.2587 29.9651L31.2238 29.9186V29.8953L31.3402 29.9186L31.282 29.8721L31.2936 29.8255L31.3634 29.8721V29.8488L31.3169 29.8139L31.3867 29.7441L32.7365 30.4771L32.7482 30.5819L32.7016 30.6168V30.6633H32.7598V30.7099L33.2834 31.059L33.3183 31.1171L33.2834 31.152L33.2602 31.1986L33.2485 31.28L33.2253 31.3266V31.3964L33.1787 31.443L33.1438 31.5244V31.5826L33.1787 31.6291L33.1554 31.6989L33.2136 31.7455H33.2485L33.3532 31.8619L33.3998 31.9084L33.4231 31.9666L33.3998 32.0248L33.3649 32.0364L33.33 32.1528V32.2226L33.3765 32.2691L33.3649 32.3157L33.3416 32.3855L33.3183 32.4553L33.3416 32.5251L33.3649 32.5833L33.3882 32.6066V32.6531H33.3649L33.3998 32.7113L33.4463 32.7346V32.8277H33.4347V32.8509L33.4812 32.8858L33.5045 33.0022L33.4812 33.0371V33.0604H33.5511L33.5743 33.1186L33.6209 33.1069L33.7023 33.1418L33.7372 33.2L33.7256 33.2233Z" fill="white" stroke="black" stroke-width="0.046545"/>
<path fill-rule="evenodd" clip-rule="evenodd" d="M29.5013 30.2677C29.4664 30.2328 29.6177 30.1513 29.5944 30.0932C29.5944 29.9768 29.6526 29.9419 29.7806 29.8953L29.8504 29.8488C29.8853 29.8721 29.8853 29.9303 29.9203 29.8953C29.9552 29.8721 30.0366 29.7441 30.0948 29.7673C30.0599 29.8139 30.1297 29.907 30.1763 29.9419L30.2461 30.163C30.2228 30.2444 30.1763 30.2444 30.0832 30.2328C29.9901 30.1979 29.9668 30.2677 29.897 30.2095C29.8853 30.291 29.897 30.3608 29.7923 30.3957C29.7341 30.3957 29.6759 30.3957 29.6759 30.3608C29.6293 30.3026 29.5595 30.3026 29.5363 30.3608C29.5246 30.3375 29.5013 30.3259 29.5013 30.2677Z" fill="white" stroke="black" stroke-width="0.0581812"/>
<path fill-rule="evenodd" clip-rule="evenodd" d="M29.5352 30.3608C29.5933 30.2328 29.6632 30.3724 29.6864 30.3724C29.861 30.3957 29.861 30.3608 29.8959 30.1979C29.989 30.2677 29.9541 30.1979 30.1519 30.2444C30.117 30.2444 30.0355 30.3375 30.0937 30.3375C30.0472 30.4655 30.1519 30.4655 30.2217 30.4539C30.1868 30.5004 30.2799 30.5237 30.1868 30.5702C30.1286 30.6051 30.1286 30.5702 30.1286 30.6517L30.0588 30.6633C30.0472 30.6866 30.0937 30.7331 30.0821 30.7331C30.0821 30.7331 30.0588 30.7913 30.0122 30.8262C29.9541 30.8611 29.9308 30.9193 29.861 30.9426L29.7795 30.9659L29.6632 30.7564C29.6515 30.6982 29.6632 30.6284 29.6282 30.5702V30.4655C29.5933 30.4306 29.5584 30.4073 29.5352 30.3491" fill="white"/>
<path d="M29.5352 30.3608C29.5933 30.2328 29.6632 30.3724 29.6864 30.3724C29.861 30.3957 29.861 30.3608 29.8959 30.1979C29.989 30.2677 29.9541 30.1979 30.1519 30.2444C30.117 30.2444 30.0355 30.3375 30.0937 30.3375C30.0472 30.4655 30.1519 30.4655 30.2217 30.4539C30.1868 30.5004 30.2799 30.5237 30.1868 30.5702C30.1286 30.6051 30.1286 30.5702 30.1286 30.6517L30.0588 30.6633C30.0472 30.6866 30.0937 30.7331 30.0821 30.7331C30.0821 30.7331 30.0588 30.7913 30.0122 30.8262C29.9541 30.8611 29.9308 30.9193 29.861 30.9426L29.7795 30.9659L29.6632 30.7564C29.6515 30.6982 29.6632 30.6284 29.6282 30.5702V30.4655C29.5933 30.4306 29.5584 30.4073 29.5352 30.3491" stroke="black" stroke-width="0.0581812"/>
</g>
</g>
<defs>
<clipPath id="clip0_10660_10539">
<rect width="64" height="64" rx="32" fill="white"/>
</clipPath>
<clipPath id="clip1_10660_10539">
<rect width="64" height="64" fill="white"/>
</clipPath>
</defs>
</svg>
