<svg width="64" height="64" viewBox="0 0 64 64" fill="none" xmlns="http://www.w3.org/2000/svg">
<g clip-path="url(#clip0_10660_10805)">
<path d="M0 42.6625H64V64H0V42.6625Z" fill="#000001"/>
<path d="M0 21.3375H64V42.6625H0V21.3375Z" fill="white"/>
<path d="M0 0H64V21.3375H0V0Z" fill="#CE1126"/>
<path d="M32.0847 32.2559L39.3914 39.0398L38.8687 26.7199C38.794 24.8532 37.1727 25.2799 35.9887 25.9519C34.8047 26.7199 33.4287 26.7199 31.9994 26.2186C30.5594 26.7199 29.1941 26.7199 28.0101 25.9519C26.8367 25.2799 25.2048 24.8532 25.1301 26.7199L24.6074 39.0398L32.0847 32.2559Z" fill="white" stroke="#C09300" stroke-width="0.138666" stroke-linejoin="round"/>
<path d="M25.9727 26.2932L25.4608 38.2718L24.6074 39.0398L25.1301 26.7199C25.3821 26.5266 25.6678 26.3819 25.9727 26.2932ZM26.9967 27.1465L26.5701 37.1732L25.7168 38.0478L26.2287 26.4745C26.3994 26.6452 26.9007 27.0612 26.9967 27.1465ZM27.9247 27.9145L27.5941 36.2772L26.9007 36.9492L27.3274 27.4132C27.4981 27.5732 27.8394 27.8185 27.9247 27.9145ZM28.9381 28.3412L28.6074 35.4665L27.9354 36.0105L28.2661 28.0852C28.4367 28.1599 28.7674 28.3412 28.9381 28.3412ZM29.8767 28.3412L29.6314 34.2825L28.9381 34.9545L29.2047 28.4159C29.3647 28.4159 29.8021 28.4159 29.8767 28.3412Z" fill="#C09300"/>
<path d="M38.0253 26.2932L38.5373 38.2718L39.3906 39.0398L38.868 26.7199C38.616 26.5266 38.3302 26.3819 38.0253 26.2932ZM37.0013 27.1465L37.428 37.1732L38.2813 38.0478L37.7693 26.4745C37.5986 26.6452 37.0973 27.0612 37.0013 27.1465ZM36.0733 27.9145L36.404 36.2772L37.0973 36.9492L36.6706 27.4132C36.5 27.5732 36.1586 27.8185 36.0733 27.9145ZM35.06 28.3412L35.3906 35.4665L36.0626 36.0105L35.732 28.0852C35.5613 28.1599 35.2306 28.3412 35.06 28.3412ZM34.1213 28.3412L34.3666 34.2825L35.06 34.9545L34.7933 28.4159C34.6333 28.4159 34.196 28.4159 34.1213 28.3412Z" fill="#C09300"/>
<path d="M32.3414 33.5999L33.3654 38.2718L33.0241 38.6132L32.6721 38.3465L32.0961 34.1865L32.3414 38.3465L32.0001 38.7732L31.6694 38.3465L31.9148 34.1865L31.3281 38.3465L30.9761 38.6132L30.6348 38.2718L31.6588 33.6105H32.3414V33.5999Z" fill="#C09300" stroke="#C09300" stroke-width="0.117333"/>
<path d="M29.7053 31.5519L27.668 38.7732L30.4733 39.1999L31.6573 33.7705L29.7053 31.5519Z" fill="white" stroke="#C09300" stroke-width="0.127999" stroke-linejoin="round"/>
<path d="M29.0332 34.0265L29.2785 34.6132L30.6012 33.3546" stroke="#C09300" stroke-width="0.138666" stroke-linejoin="round"/>
<path d="M29.951 32.5332L30.2283 35.1252L31.071 34.0159M30.7296 34.4425L31.1883 36.0425M31.3696 35.4559L30.4416 36.8639M30.7296 38.2718L30.431 36.8639M30.431 36.8639L30.175 35.4345L29.5456 36.2772L29.279 35.3065L28.4043 36.2025L28.8416 37.8238L29.4603 36.8212L29.791 37.8452L30.431 36.8639Z" stroke="#C09300" stroke-width="0.138666" stroke-linejoin="round"/>
<path d="M28.2656 38.6132L28.831 37.8132L29.1936 39.0398L29.7056 38.1865L30.0363 39.2105" stroke="#C09300" stroke-width="0.138666" stroke-linejoin="round"/>
<path d="M34.2928 31.5519L36.3301 38.7732L33.5248 39.1999L32.3408 33.7705L34.2928 31.5519Z" fill="white" stroke="#C09300" stroke-width="0.127999" stroke-linejoin="round"/>
<path d="M34.9648 34.0265L34.7195 34.6132L33.3969 33.3546" stroke="#C09300" stroke-width="0.138666" stroke-linejoin="round"/>
<path d="M34.0471 32.5332L33.7698 35.1252L32.9271 34.0159M33.2684 34.4425L32.8098 36.0425M32.6284 35.4559L33.5564 36.8639M33.2684 38.2718L33.5671 36.8639M33.5671 36.8639L33.8231 35.4345L34.4524 36.2772L34.7191 35.3065L35.5938 36.2025L35.1564 37.8238L34.5378 36.8212L34.2071 37.8452L33.5671 36.8639Z" stroke="#C09300" stroke-width="0.138666" stroke-linejoin="round"/>
<path d="M35.7324 38.6132L35.1671 37.8132L34.8044 39.0398L34.2924 38.1865L33.9618 39.2105" stroke="#C09300" stroke-width="0.138666" stroke-linejoin="round"/>
<path d="M32.0002 42.0052C34.1335 42.0052 36.1602 41.8345 37.3548 41.5039C37.8562 41.4079 37.8562 41.1519 37.8562 40.8105C38.3682 40.6399 38.1122 40.0425 38.4642 40.0425C38.1015 40.1492 38.0375 39.4559 37.6108 39.5412C37.6108 38.9439 37.0028 38.8692 36.5015 39.0399C35.4882 39.3705 33.6962 39.4559 32.0002 39.4559C30.2935 39.3705 28.5229 39.3705 27.4989 39.0292C26.9975 38.8692 26.4002 38.9439 26.4002 39.5412C25.9735 39.4559 25.8989 40.1385 25.5469 40.0425C25.8989 40.0425 25.6322 40.6505 26.1442 40.8105C26.1442 41.1519 26.1442 41.4079 26.6562 41.5039C27.8295 41.8345 29.8775 42.0052 32.0002 42.0052Z" fill="white" stroke="#C09300" stroke-width="0.255999" stroke-linecap="round" stroke-linejoin="round"/>
<path d="M29.1095 38.7732C29.7922 38.8692 30.5602 38.9439 31.1575 38.8692C31.4989 38.8692 31.7442 39.4559 31.0615 39.5412C30.4749 39.6159 29.5362 39.5412 29.0349 39.4558C28.3751 39.3404 27.7203 39.198 27.0722 39.0292C26.4749 38.7732 26.9015 38.2825 27.2429 38.3465C27.8518 38.5416 28.4763 38.6844 29.1095 38.7732ZM34.8908 38.7732C34.2082 38.8692 33.4402 38.9439 32.8642 38.8692C32.5015 38.8692 32.2562 39.4559 32.9388 39.5412C33.5362 39.6159 34.4642 39.5412 34.9655 39.4558C35.3922 39.3705 36.3308 39.2105 36.9282 39.0292C37.5255 38.7732 37.0988 38.2825 36.7575 38.3465C36.1486 38.5418 35.5241 38.6845 34.8908 38.7732Z" fill="white" stroke="#C09300" stroke-width="0.138666" stroke-linecap="round" stroke-linejoin="round"/>
<path d="M26.9859 38.4425C26.4739 38.3465 26.2393 38.9438 26.3993 39.2852C26.4739 39.1145 26.8259 39.1145 26.9006 38.9438C26.9966 38.6878 26.8259 38.6878 26.9966 38.4425H26.9859ZM29.0339 40.0105C29.0339 39.6692 29.3646 39.7118 29.3646 39.3705C29.3646 39.2105 29.2793 38.9438 29.1086 38.9438C29.0197 38.9489 28.9358 38.9865 28.8729 39.0495C28.81 39.1124 28.7724 39.1963 28.7673 39.2852C28.6926 39.6158 29.0339 39.6692 29.0339 40.0105ZM31.4553 39.0398C31.9566 39.0398 31.9033 39.7118 31.6686 40.0532C31.6686 39.8078 31.2419 39.7118 31.2419 39.5412C31.2419 39.2852 31.6259 39.2852 31.4553 39.0398ZM37.0019 38.4425C37.5246 38.3465 37.7699 38.9438 37.5992 39.2852C37.5246 39.1145 37.1726 39.1145 37.0979 38.9438C37.0019 38.6878 37.1726 38.6878 37.0019 38.4425ZM34.9859 39.9998C34.9859 39.6585 34.6446 39.7012 34.6446 39.3598C34.6446 39.1998 34.7299 38.9332 34.9006 38.9332C34.9895 38.9383 35.0733 38.9758 35.1363 39.0388C35.1992 39.1017 35.2368 39.1856 35.2419 39.2745C35.3166 39.6052 34.9752 39.6585 34.9752 39.9998H34.9859ZM32.5326 39.0398C32.0313 39.0398 32.0846 39.7118 32.3193 40.0532C32.3193 39.8078 32.7459 39.7118 32.7459 39.5412C32.7459 39.2852 32.3619 39.2852 32.5326 39.0398Z" fill="white" stroke="#C09300" stroke-width="0.138666" stroke-linecap="round" stroke-linejoin="round"/>
<path d="M27.168 38.6132C27.3386 38.6132 27.5946 38.6878 27.6693 38.7838L27.168 38.6132ZM28.0106 38.8692C28.096 38.8692 28.4373 38.9438 28.5973 39.0398L28.0106 38.8692ZM31.0613 39.2105C30.9013 39.2105 30.56 39.2105 30.4746 39.2852L31.0613 39.1998V39.2105ZM30.1333 39.2105C30.0373 39.1145 29.7066 39.1145 29.536 39.2105H30.1333ZM36.8319 38.6132C36.6509 38.6154 36.4754 38.6752 36.3306 38.7838L36.8319 38.6132ZM35.9999 38.8692C35.8933 38.8692 35.5733 38.9438 35.4026 39.0398L35.9999 38.8692ZM32.9386 39.2105C33.0986 39.2105 33.4399 39.2105 33.5359 39.2852L32.9386 39.1998V39.2105ZM33.8666 39.2105C33.9626 39.1145 34.2933 39.1145 34.4639 39.2105H33.8666Z" fill="white" stroke="#C09300" stroke-width="0.0959996" stroke-linecap="round" stroke-linejoin="round"/>
<path d="M27.0179 39.9572C26.9646 39.9465 26.9326 39.8932 26.9539 39.8505C26.9646 39.7758 27.0179 39.7438 27.0606 39.7652C27.1033 39.7652 27.1566 39.8292 27.1566 39.8505L27.1139 39.9252L27.0926 39.9358C27.0926 39.9572 27.0499 39.9572 27.0179 39.9572ZM32.8846 40.3732C32.8633 40.3732 32.8206 40.3198 32.8206 40.2985C32.8206 40.2558 32.8846 40.1918 32.9273 40.1918L33.0126 40.2345C33.0446 40.2665 33.0446 40.3305 33.0019 40.3625C32.9806 40.3838 32.9166 40.3838 32.8846 40.3625V40.3732ZM32.9166 40.6398C32.8739 40.6185 32.8633 40.5972 32.8526 40.5545C32.8526 40.5012 32.8526 40.4905 32.9059 40.4585L32.9486 40.4372L32.9913 40.4585C33.0339 40.4798 33.0659 40.5012 33.0659 40.5438C33.0659 40.5758 33.0339 40.6078 32.9913 40.6292C32.9593 40.6505 32.9486 40.6505 32.9166 40.6292V40.6398Z" fill="#C09300"/>
<path d="M27.4989 39.4665C27.4563 39.4665 27.4029 39.5092 27.3709 39.5305C27.3069 39.5412 27.2216 39.5838 27.1576 39.5305C27.0936 39.5198 27.0083 39.5305 26.9976 39.6158C27.0083 39.6905 27.1043 39.7225 27.1683 39.6798C27.2109 39.6265 27.3283 39.5838 27.3496 39.6798C27.2963 39.7652 27.3069 39.8612 27.2643 39.9358C27.2643 39.9892 27.2323 40.0318 27.2109 40.0745C27.1576 40.0745 27.1043 40.0745 27.0616 40.1065C27.0285 40.1065 26.9958 40.1142 26.9662 40.129C26.9366 40.1438 26.9108 40.1653 26.8909 40.1918C26.8483 40.2558 26.8056 40.3198 26.7949 40.4052C26.8056 40.4692 26.9016 40.4905 26.9656 40.5012L27.1789 40.5652L27.5203 40.6612C27.6909 40.7145 27.8616 40.7358 28.0322 40.7785L28.0856 40.7892C28.1602 40.8105 28.1922 40.7358 28.1922 40.6825L28.2989 40.2985C28.3202 40.2452 28.3522 40.1385 28.2562 40.1598C28.2029 40.1918 28.1496 40.2452 28.0856 40.2452C27.9896 40.2452 28.0429 40.3518 28.0856 40.3838C28.0856 40.4478 28.0642 40.5225 28.0322 40.5758C27.9682 40.6078 27.9042 40.5758 27.8402 40.5545C27.7869 40.5545 27.6589 40.5225 27.7122 40.4478L27.7656 40.2558C27.7976 40.1918 27.7976 40.1172 27.8189 40.0425C27.7762 39.9678 27.7122 40.0745 27.6589 40.0852C27.6162 40.1065 27.4882 40.1172 27.5522 40.1918C27.6162 40.2345 27.5736 40.3092 27.5522 40.3732C27.5522 40.4478 27.4669 40.4798 27.4029 40.4478C27.3389 40.4478 27.2429 40.3945 27.2963 40.3305L27.3496 40.1385L27.4243 39.9252C27.4243 39.8505 27.4563 39.7972 27.4883 39.7332C27.4883 39.6585 27.5416 39.5945 27.5416 39.5198C27.5416 39.4878 27.5202 39.4772 27.4989 39.4772V39.4665ZM27.1043 40.2452C27.1091 40.2423 27.1146 40.2409 27.1203 40.2409C27.1259 40.2409 27.1314 40.2423 27.1363 40.2452C27.1576 40.2665 27.1576 40.2878 27.1363 40.3092L27.1043 40.3305C27.0509 40.3305 27.0403 40.3198 27.0403 40.2985C27.0403 40.2878 27.0403 40.2772 27.0723 40.2665C27.0852 40.2571 27.0996 40.2499 27.1149 40.2452H27.1043ZM26.9976 40.7785C26.9443 40.7358 26.9549 40.7038 27.0296 40.6398C27.0723 40.6185 27.0829 40.6185 27.1256 40.6505C27.1896 40.7038 27.1896 40.7358 27.1256 40.7892C27.1043 40.8105 27.0936 40.8105 27.0723 40.8105C27.0403 40.8105 27.0296 40.8105 26.9976 40.7892V40.7785ZM27.3176 40.8852C27.2938 40.8777 27.2738 40.8614 27.2618 40.8395C27.2499 40.8176 27.2469 40.7919 27.2536 40.7678C27.2749 40.7252 27.2856 40.7145 27.3496 40.7145C27.4243 40.7145 27.4349 40.7252 27.4456 40.7892C27.4456 40.8318 27.4456 40.8425 27.4136 40.8638C27.4017 40.8732 27.3879 40.88 27.3732 40.8837C27.3585 40.8874 27.3432 40.8879 27.3283 40.8852H27.3176ZM36.8322 40.8852C36.8109 40.8745 36.8002 40.8638 36.8002 40.8318C36.8002 40.7892 36.8215 40.7572 36.8855 40.7358C36.9495 40.7038 36.9922 40.7038 37.0135 40.7572C37.0455 40.8212 37.0455 40.8425 37.0029 40.8852C36.9815 40.9172 36.9709 40.9172 36.9175 40.9172C36.8642 40.9172 36.8535 40.9172 36.8322 40.8958V40.8852ZM27.7656 41.0132C27.7229 41.0132 27.7016 40.9705 27.7016 40.9278C27.7016 40.8958 27.7016 40.8852 27.7229 40.8638L27.7869 40.8425L27.8509 40.8532C27.9043 40.8958 27.9149 40.9385 27.8829 40.9812C27.8509 41.0238 27.8189 41.0238 27.7549 41.0132H27.7656ZM30.0909 41.1198L30.0696 41.0878C30.0696 41.0238 30.0696 40.9705 30.0909 40.9065C30.1016 40.8532 30.0909 40.7998 30.1122 40.7465L30.1549 40.4478C30.1549 40.3945 30.1549 40.3412 30.1762 40.2985C30.1869 40.2132 30.1762 40.1385 30.1976 40.0638C30.1976 40.0318 30.2296 39.9572 30.2616 39.9998C30.3042 40.0638 30.3576 40.1065 30.4109 40.1598C30.4536 40.1918 30.4109 40.2345 30.3789 40.2452C30.3362 40.2558 30.3256 40.3092 30.3256 40.3518L30.3042 40.4798C30.3042 40.5545 30.3042 40.6185 30.2829 40.6932L30.2722 40.8852L30.2509 41.0132C30.2509 41.0558 30.2509 41.1092 30.2082 41.1305C30.1762 41.1518 30.1229 41.1518 30.1016 41.1198H30.0909ZM33.2589 40.0745L33.1202 40.2025C33.0562 40.2558 33.1736 40.2772 33.1842 40.3198C33.2056 40.3838 33.2056 40.4478 33.2056 40.5118C33.2269 40.5758 33.2376 40.6292 33.2269 40.6932C33.2269 40.7678 33.1416 40.7465 33.0989 40.7892C33.0456 40.8105 33.0242 40.8638 32.9922 40.8958C32.9669 40.9493 32.9524 41.0073 32.9496 41.0665C32.9496 41.1198 32.9176 41.1732 32.9496 41.2158L32.9602 41.2372H33.0136L33.1736 41.2265C33.3016 41.2052 33.4402 41.2052 33.5682 41.1945L33.8029 41.1732C33.8669 41.1838 33.8989 41.1198 33.8989 41.0665C33.8562 40.9918 33.8882 40.9172 33.8562 40.8532C33.8349 40.7678 33.8456 40.6932 33.8349 40.6185C33.8349 40.5545 33.7602 40.5332 33.7282 40.5758C33.6856 40.6185 33.6216 40.6292 33.6002 40.6718C33.5682 40.7358 33.6642 40.7358 33.6856 40.7785L33.6962 40.9385C33.7069 41.0025 33.6429 41.0025 33.5896 41.0132C33.5362 41.0345 33.4616 41.0452 33.4296 40.9812C33.4082 40.9278 33.4082 40.8745 33.4082 40.8212C33.4082 40.7145 33.3762 40.6292 33.3762 40.5332C33.3762 40.4265 33.3442 40.3092 33.3442 40.1918C33.3442 40.1385 33.3336 40.0638 33.2589 40.0745ZM33.1949 40.9492H33.2269V41.0345L33.1949 41.0452C33.1809 41.0497 33.1667 41.0532 33.1522 41.0558C33.1451 41.0561 33.138 41.0561 33.1309 41.0558C33.1096 41.0345 33.1096 41.0025 33.1416 40.9705L33.1949 40.9492ZM29.9949 39.9678C29.9629 39.9678 29.9096 40.0425 29.8669 40.0318C29.7709 40.0425 29.7816 40.1385 29.8562 40.1705V40.2558C29.8669 40.3412 29.8136 40.4158 29.8242 40.5012C29.8242 40.5865 29.7922 40.6825 29.7922 40.7785C29.7602 40.8745 29.7602 40.9705 29.7496 41.0665C29.7389 41.1518 29.6749 41.1198 29.6216 41.0985V40.9918C29.6322 40.8958 29.5682 40.8745 29.4936 40.8638C29.4189 40.8638 29.3869 40.8105 29.4082 40.7465C29.4402 40.7038 29.5149 40.7145 29.5682 40.7145C29.6749 40.7358 29.6642 40.5972 29.6109 40.5438C29.5682 40.4798 29.4829 40.4372 29.4616 40.3732C29.4616 40.2878 29.4082 40.1918 29.3336 40.1492C29.2162 40.1385 29.1202 40.2345 29.0882 40.3412C29.0349 40.3412 28.9816 40.3625 28.9389 40.3838C28.8642 40.4052 28.7576 40.5332 28.8642 40.5865C28.9176 40.5972 29.0989 40.6398 29.0136 40.7145C28.9709 40.7998 28.8856 40.7998 28.8109 40.7785C28.7362 40.7785 28.6509 40.7358 28.6509 40.6505C28.6402 40.5652 28.6402 40.4798 28.6082 40.4052C28.5869 40.3198 28.4909 40.3412 28.4802 40.4265C28.4056 40.4798 28.4162 40.5758 28.4696 40.6398C28.5016 40.7145 28.4696 40.8105 28.4376 40.8745C28.4162 40.9812 28.3096 40.9812 28.2349 41.0025C28.2029 41.0238 28.0642 41.0025 28.1176 41.0772C28.1976 41.114 28.287 41.1252 28.3736 41.1092C28.4589 41.1092 28.5336 41.0345 28.5869 40.9598C28.6402 40.9065 28.7362 40.9385 28.8216 40.9385C28.8962 40.9385 28.9816 40.9918 29.0669 40.9492C29.0882 40.8958 29.1949 40.7892 29.2269 40.8958C29.2269 40.9918 29.3016 41.0345 29.3869 41.0238C29.4829 41.0238 29.4402 41.0878 29.4402 41.1518C29.4402 41.2478 29.5149 41.3012 29.6002 41.3438H29.6856C29.7602 41.3118 29.8456 41.2798 29.8776 41.1945C29.9096 41.1198 29.9096 41.0345 29.9309 40.9598C29.9522 40.8425 29.9736 40.7145 29.9736 40.5972C30.0056 40.4905 29.9949 40.3732 30.0162 40.2558L30.0482 40.0105C30.0482 39.9572 30.0269 39.9572 29.9949 39.9678ZM29.2802 40.4052C29.2909 40.4052 29.3016 40.4265 29.3016 40.4585C29.3016 40.5012 29.3229 40.5332 29.3549 40.5438V40.5758L29.2696 40.5972C29.2162 40.5972 29.1736 40.5758 29.1416 40.5438L29.1202 40.5225L29.1522 40.5012L29.2056 40.4478C29.2376 40.4158 29.2589 40.4052 29.2802 40.4052ZM36.3202 39.5625C36.2588 39.5669 36.1981 39.5776 36.1389 39.5945C36.0322 39.5945 35.9789 39.7012 36.0855 39.7652C36.1495 39.9252 36.2455 39.7225 36.3522 39.7438C36.5015 39.7652 36.5122 39.9358 36.5442 40.0638C36.5442 40.1812 36.5869 40.2985 36.6189 40.4158C36.7255 40.5332 36.5442 40.6078 36.4695 40.5225C36.4055 40.4478 36.2562 40.3625 36.1816 40.4585C36.0856 40.5012 36.0749 40.6292 36.0002 40.6718C35.8722 40.7038 35.8616 40.5438 35.7869 40.4798C35.7229 40.3838 35.6056 40.3732 35.5096 40.3518C35.4669 40.2558 35.4882 40.0958 35.4029 40.0318C35.3176 40.0638 35.1682 40.2132 35.2962 40.2878C35.4029 40.3945 35.2429 40.4372 35.1896 40.5012C35.1042 40.5972 35.0829 40.7145 35.0829 40.8212C34.9442 40.8958 34.9229 40.7358 34.9016 40.6398C34.9016 40.5225 34.7949 40.5545 34.7202 40.5972C34.6136 40.6398 34.5709 40.7358 34.5069 40.8105V41.0238C34.5282 41.1198 34.6349 41.0772 34.6989 41.0665C34.8056 41.0238 34.8482 41.1412 34.7629 41.2052C34.6989 41.2692 34.5282 41.2372 34.5496 41.3545H34.7202C34.8269 41.3225 34.9549 41.2372 34.9656 41.1092C34.9869 41.0025 35.1469 41.0132 35.2322 40.9918C35.3389 40.9598 35.4776 40.9492 35.5096 41.0985C35.5842 41.1732 35.7442 41.2585 35.8296 41.1518C35.8702 41.1261 35.9027 41.0894 35.9235 41.046C35.9442 41.0026 35.9523 40.9543 35.9469 40.9065C35.9362 40.8212 36.0856 40.8212 36.1282 40.8745C36.1816 40.9598 36.3522 40.9385 36.4376 40.8745C36.5229 40.8212 36.5442 40.7038 36.6722 40.7038L37.2482 40.5438C37.3975 40.5118 37.2269 40.4158 37.1842 40.3518C37.0775 40.2985 36.9709 40.5332 36.8429 40.4158C36.7362 40.3412 36.7469 40.2025 36.7149 40.0852C36.6829 39.9358 36.6935 39.7652 36.5869 39.6585C36.5229 39.5838 36.4162 39.5625 36.3202 39.5625ZM35.5949 40.5758C35.6056 40.5758 35.6269 40.5758 35.6482 40.5972C35.6909 40.6185 35.7229 40.6612 35.7229 40.7038C35.7229 40.7252 35.7229 40.7252 35.6909 40.7358L35.6376 40.7572C35.6162 40.7572 35.5629 40.7252 35.5629 40.7038V40.6612C35.5416 40.6185 35.5416 40.6185 35.5629 40.5972L35.5949 40.5758ZM36.2882 40.6185C36.3309 40.6185 36.3522 40.6185 36.3736 40.6505C36.3842 40.6932 36.3736 40.7145 36.3309 40.7358L36.2776 40.7572L36.2349 40.7252C36.2136 40.7145 36.2029 40.7038 36.2029 40.6825C36.2029 40.6505 36.2456 40.6185 36.2882 40.6078V40.6185ZM35.3282 40.6185C35.3496 40.6185 35.3602 40.6185 35.3709 40.6398C35.3922 40.6612 35.4029 40.6718 35.4029 40.7038V40.7678C35.4029 40.7998 35.4029 40.7892 35.3389 40.7892C35.2749 40.7892 35.2642 40.7892 35.2642 40.7252C35.2642 40.6825 35.2642 40.6718 35.2962 40.6505C35.3069 40.6292 35.3282 40.6292 35.3389 40.6292L35.3282 40.6185ZM34.7522 40.7785C34.7623 40.7815 34.7715 40.787 34.7789 40.7945C34.7863 40.8019 34.7918 40.8111 34.7949 40.8212C34.7949 40.8532 34.7949 40.8745 34.7736 40.8852C34.7416 40.8958 34.6882 40.9065 34.6669 40.8852C34.6667 40.8816 34.6667 40.878 34.6669 40.8745C34.6456 40.8638 34.6456 40.8532 34.6669 40.8425V40.8318L34.6882 40.7998C34.6948 40.7894 34.7048 40.7816 34.7164 40.7777C34.7281 40.7739 34.7407 40.7741 34.7522 40.7785ZM35.7336 40.9065L35.7869 40.9172V40.9812H35.6589L35.6482 40.9598C35.6482 40.9385 35.6482 40.9278 35.6696 40.9172L35.7336 40.9065ZM33.9096 41.4185C33.8989 41.4185 33.8776 41.4078 33.8989 41.3972C33.9096 41.3652 33.9522 41.3545 33.9842 41.3332C34.0423 41.311 34.0937 41.2743 34.1336 41.2265C34.1336 41.1838 34.1762 41.1625 34.1762 41.1198L34.1656 40.9705C34.1512 40.9257 34.1208 40.8877 34.0802 40.8638C34.0482 40.8532 34.0056 40.8425 33.9949 40.7998C33.9949 40.7678 34.0269 40.7358 34.0376 40.7038L34.1016 40.5758C34.1336 40.5438 34.1762 40.5758 34.1869 40.5972L34.2402 40.7038C34.2722 40.7358 34.2936 40.7678 34.3042 40.8105C34.3256 40.8532 34.3469 40.8852 34.3469 40.9172L34.3682 41.0558C34.3682 41.1092 34.3682 41.1732 34.3469 41.2265L34.2829 41.3118C34.2509 41.3438 34.2189 41.3758 34.1762 41.3865C34.1442 41.3972 34.1229 41.4292 34.0802 41.4292H33.9202L33.9096 41.4185ZM33.1736 41.4612C33.1522 41.4398 33.1416 41.4292 33.1416 41.3972C33.1416 41.3652 33.1416 41.3652 33.1736 41.3332C33.2162 41.2905 33.2376 41.2905 33.3229 41.3332C33.3976 41.3758 33.4296 41.3758 33.4296 41.3438C33.4402 41.3225 33.4829 41.2905 33.5362 41.2905C33.5559 41.2912 33.5748 41.2988 33.5896 41.3118C33.6109 41.3331 33.6216 41.3438 33.6216 41.3865C33.6216 41.4398 33.6216 41.4398 33.5896 41.4718C33.5576 41.4931 33.5576 41.4932 33.5149 41.4932C33.4959 41.4921 33.4777 41.4855 33.4625 41.4741C33.4473 41.4627 33.4359 41.4471 33.4296 41.4292C33.4296 41.4078 33.4296 41.3971 33.4082 41.4185L33.3869 41.4292C33.3656 41.4292 33.3229 41.4611 33.3016 41.4825L33.2482 41.4932C33.2056 41.4932 33.2056 41.4932 33.1736 41.4612ZM31.0616 40.5118C30.9869 40.5118 30.9122 40.5758 30.9016 40.6505C30.9229 40.7252 30.9869 40.8105 30.9442 40.8852C30.9762 40.9918 30.8589 41.0345 30.7842 40.9812C30.7416 40.8745 30.7202 40.7678 30.6456 40.6612C30.5602 40.6398 30.5282 40.7785 30.4642 40.8318C30.4962 40.9065 30.5816 40.9812 30.5922 41.0772C30.6136 41.1838 30.5496 41.2905 30.4749 41.3332C30.4002 41.4078 30.2936 41.3865 30.2082 41.3972C30.1016 41.4612 30.2829 41.4825 30.3362 41.4825C30.4429 41.4931 30.5602 41.4825 30.6562 41.3972C30.7309 41.3652 30.7202 41.2158 30.8162 41.2052L31.3282 41.2372C31.4136 41.2585 31.5522 41.2265 31.6162 41.2905C31.6162 41.3972 31.7229 41.4825 31.8189 41.5251C31.8722 41.5465 31.9256 41.4718 31.9789 41.4612C32.0856 41.4292 32.0536 41.3012 32.1176 41.2478H32.6509C32.6722 41.2478 32.6829 41.1945 32.7149 41.1732L32.6936 40.9705C32.6616 40.8852 32.6936 40.7785 32.6402 40.7038C32.5442 40.6825 32.4696 40.7572 32.3842 40.7678C32.2776 40.8105 32.2029 40.9065 32.1922 41.0132C32.1389 41.1092 32.0429 40.9918 32.0856 40.9065L32.0749 40.7998C32.0216 40.7465 31.9256 40.7678 31.8509 40.7572L31.5309 40.7358C31.4242 40.7358 31.3282 40.7465 31.2429 40.7252C31.1362 40.7252 31.1362 40.6185 31.1362 40.5332C31.1149 40.5169 31.0883 40.5093 31.0616 40.5118ZM31.2749 40.9065L31.3816 40.9172H31.5202C31.6269 40.9385 31.7336 40.9385 31.8402 40.9385C31.8616 40.9385 31.8829 40.9598 31.9042 40.9812V41.1945C31.9042 41.2265 31.9042 41.2692 31.8829 41.2798C31.8773 41.2883 31.8701 41.2956 31.8616 41.3012C31.8459 41.2984 31.8311 41.2922 31.8182 41.2829C31.8053 41.2737 31.7946 41.2617 31.7869 41.2478V41.0985C31.7658 41.0806 31.7398 41.0695 31.7122 41.0665L31.4349 41.0558L31.2216 41.0452C31.1896 41.0345 31.1469 41.0452 31.1256 41.0025C31.1042 40.9812 31.1362 40.9385 31.1682 40.9278C31.2017 40.9128 31.2382 40.9055 31.2749 40.9065ZM32.4802 40.9385C32.4909 40.9385 32.5016 40.9385 32.5016 40.9705L32.5229 41.0238C32.5229 41.0345 32.5229 41.0452 32.5016 41.0452C32.4482 41.0665 32.3949 41.0665 32.3736 41.0452C32.3736 41.0345 32.3736 40.9918 32.3949 40.9812L32.4802 40.9385Z" fill="#C09300"/>
<path d="M32.0001 34.9012C35.4774 32.2345 35.1788 28.3092 35.1788 28.3092L34.9121 28.3306C34.1761 28.3306 32.4375 27.9039 32.0321 27.3812C31.6055 27.8612 29.8135 28.3412 29.0881 28.3412L28.8215 28.3092C28.8215 28.3092 28.5121 32.2239 32.0001 34.9012Z" fill="white" stroke="#C09300" stroke-width="0.117333"/>
<path d="M34.9003 28.5866H34.815C34.1536 28.5866 32.6176 28.2559 32.0203 27.7439C31.4016 28.2132 29.8337 28.5972 29.183 28.5972C29.1543 28.5961 29.1257 28.5926 29.0977 28.5866C29.1034 29.2606 29.1966 29.9311 29.375 30.5812C29.8028 32.1475 30.7227 33.5348 31.999 34.5385C33.276 33.531 34.1958 32.1401 34.623 30.5706C34.8005 29.9239 34.8937 29.2571 34.9003 28.5866Z" fill="white" stroke="#C09300" stroke-width="0.0959996"/>
<path d="M30.8683 28.2666C30.2954 28.4532 29.6997 28.5608 29.0977 28.5866L29.1083 29.0239C29.1447 29.5472 29.2341 30.0654 29.375 30.5706C29.6617 31.6196 30.1711 32.5946 30.8683 33.4292V28.2666ZM33.0656 28.2666V33.5146C33.7965 32.6608 34.3284 31.6552 34.623 30.5706C34.7637 30.0653 34.8531 29.5471 34.8896 29.0239L34.9003 28.5973H34.815C34.4096 28.5973 33.7056 28.4693 33.0656 28.2559V28.2666Z" fill="#C09300"/>
<path d="M33.3116 26.9866C33.3863 26.9972 33.2156 26.6132 33.2156 26.6132C33.4076 26.8052 34.1116 26.8586 34.1116 26.8586C33.6849 26.6666 33.2583 25.2479 33.3116 24.1066C33.3543 22.9759 33.1516 22.5279 32.9916 22.3572C32.7783 22.1439 32.0849 21.9519 31.6369 21.9306C31.3703 21.9199 31.4236 22.1226 31.4236 22.1226C30.9436 22.0052 30.4636 21.9519 30.2503 22.1012C30.0583 22.2292 30.0156 22.9012 30.165 22.7839C30.5169 22.4959 30.8263 22.7626 31.0396 23.0719C31.2316 23.3386 31.2209 24.1066 30.9436 25.0132C30.698 25.6987 30.3373 26.3372 29.877 26.9012C30.3036 26.9012 30.9009 26.5279 30.9009 26.5279L30.7623 27.1146C31.2103 26.9012 31.5623 26.5706 31.5623 26.5706L31.9889 27.0186C32.1276 26.8266 32.4156 26.5706 32.4156 26.5706C32.4156 26.5706 32.7676 26.9439 33.3116 26.9972V26.9866Z" fill="white" stroke="#C09300" stroke-width="0.127999"/>
<path d="M31.5831 24.2772C31.5831 24.2772 31.3484 26.0265 30.9004 26.5172M31.9671 24.2239C31.9671 24.2239 31.8604 26.0052 31.5617 26.5705M32.2977 24.2985C32.2977 24.2985 32.2977 26.2399 32.4044 26.5705M32.7244 24.3945C32.7244 24.3945 32.8097 26.0265 33.215 26.6132" stroke="#C09300" stroke-width="0.138666"/>
<path d="M31.1454 23.4239C31.1358 23.3002 31.0994 23.1801 31.0387 23.0719C30.8254 22.7519 30.5161 22.4959 30.1641 22.7839C30.1641 22.7839 30.2814 22.4106 30.5481 22.3999C30.7401 22.3892 31.1987 22.5492 31.6041 23.2319C31.6041 23.2319 31.3054 23.1679 31.2307 23.2319C31.1027 23.3386 31.1561 23.4239 31.1561 23.4239H31.1454Z" fill="#C09300" stroke="#C09300" stroke-width="0.0319999"/>
<path d="M30.123 22.3252C30.155 22.2186 30.1977 22.1332 30.2617 22.1012C30.475 21.9519 30.9444 21.9946 31.4244 22.1226C31.4244 22.1226 31.3817 21.9199 31.6377 21.9306C32.0857 21.9519 32.7684 22.1439 32.9817 22.3572C33.05 22.4323 33.1042 22.519 33.1417 22.6132C33.035 22.4639 32.7364 22.4746 32.6617 22.4852C32.555 22.4959 32.4804 22.4852 32.331 22.5279C32.2564 22.5492 32.1497 22.5706 32.0857 22.6132C32.043 22.6559 32.0004 22.7839 31.9364 22.7839C31.8297 22.7839 31.8297 22.7626 31.7977 22.7306C31.7657 22.6772 31.7444 22.6132 31.7017 22.6239C31.595 22.6346 31.403 22.5492 31.1684 22.3572C30.923 22.1652 30.827 22.1226 30.5284 22.1439C30.2084 22.1652 30.123 22.3466 30.123 22.3466V22.3252Z" fill="#C09300" stroke="#C09300" stroke-width="0.0319999"/>
<path d="M31.8721 22.6026C31.9428 22.6026 32.0001 22.5452 32.0001 22.4746C32.0001 22.4039 31.9428 22.3466 31.8721 22.3466C31.8014 22.3466 31.7441 22.4039 31.7441 22.4746C31.7441 22.5452 31.8014 22.6026 31.8721 22.6026Z" fill="white"/>
</g>
<defs>
<clipPath id="clip0_10660_10805">
<rect width="64" height="64" rx="32" fill="white"/>
</clipPath>
</defs>
</svg>
