<svg width="64" height="64" viewBox="0 0 64 64" fill="none" xmlns="http://www.w3.org/2000/svg">
<g clip-path="url(#clip0_10660_11792)">
<path d="M0 0H64V64H0V0Z" fill="#E32118"/>
<path d="M0 0H64V42.6625H0V0Z" fill="white"/>
<path d="M0 0H64V21.3375H0V0Z" fill="#3E9A00"/>
<path d="M0 0V64L20 32L0 0Z" fill="#0073CE"/>
<path d="M26.875 25.5625H37.0875V36.2625C37.0875 39.8625 32.4 37.0875 32 39.0125C31.3 37.0375 26.9 39.8875 26.9 36.05L26.875 25.5625Z" fill="white" stroke="black" stroke-width="0.125"/>
<path d="M32.7117 37.3C32.7117 37.3 32.5867 37.4375 32.3367 37.3375C32.0992 37.225 32.0742 30.475 32.0742 30.475C32.6117 29.8875 33.0367 29.7125 33.0367 29.7125L33.3492 29.9625C32.1492 30.5875 32.2617 31.4625 32.3617 32.9875C32.3992 33.55 32.3992 34.2625 32.5242 34.9625C32.7117 35.8375 33.0867 36.5875 33.1117 37.15C33.1367 37.5 32.7117 37.3125 32.7117 37.3125V37.3Z" fill="#73452B" stroke="black" stroke-width="0.025"/>
<path d="M31.8879 29.55H32.3754C31.9629 33.425 32.3129 35.7125 32.3129 36.825C32.3129 37.2 32.5254 37.325 32.5004 37.325C32.0254 37.8625 31.7754 37.3 31.7754 37.3L31.8879 29.55Z" fill="#73452B" stroke="black" stroke-width="0.025"/>
<path d="M31.1365 37.3C30.6865 37.525 30.6365 37.1 30.6615 37.05C31.649 35.05 32.074 30.6375 31.1615 30.1625L31.224 29.7375C31.5615 29.8375 31.8865 30.2875 31.8865 30.2875C32.0115 35.225 31.8865 37.25 31.8115 37.3375C31.324 37.8375 31.1365 37.25 31.1115 37.2" fill="#A36629"/>
<path d="M31.1365 37.3C30.6865 37.525 30.6365 37.1 30.6615 37.05C31.649 35.05 32.074 30.6375 31.1615 30.1625L31.224 29.7375C31.5615 29.8375 31.8865 30.2875 31.8865 30.2875C32.0115 35.225 31.8865 37.25 31.8115 37.3375C31.324 37.8375 31.1365 37.25 31.1115 37.2" stroke="black" stroke-width="0.025"/>
<path d="M31.1241 37.225C31.0366 36.8 31.8116 35.7 31.7491 34.5625M32.4241 35.5C32.6616 36.1625 32.7741 36.75 32.7116 37.3125" stroke="black" stroke-width="0.025"/>
<path d="M33.461 27.7375C33.6235 27.55 33.6235 27.55 33.911 27.55C33.961 27.15 34.636 27.15 34.686 27.65C35.2235 27.55 35.3235 27.8625 35.111 28.1875C35.611 28.0625 36.0735 28.1875 35.936 28.775C36.8485 29.025 36.4985 29.65 36.0985 29.775C36.0485 30.1875 35.6735 30.325 35.161 30.15C34.536 30.6125 34.161 30.45 33.861 30C33.136 30.1 33.086 29.95 32.7735 29.55C32.211 29.7875 32.0985 29.7875 31.6235 29.4875C31.5985 29.8625 31.461 29.7625 31.2235 29.7375C31.2485 30.2125 31.061 30.425 30.636 30.2625C30.9485 30.9375 30.136 31.225 29.7235 30.6625C29.3485 30.6875 29.3235 30.5875 29.136 30.45C28.986 30.9875 28.386 30.9125 28.286 30.6125C27.536 30.5 27.6235 30.1125 28.236 30.075C28.286 29.65 28.661 29.7375 28.8985 29.7875C28.9235 29.525 29.086 29.575 29.2235 29.625C29.136 29.4375 29.1985 29.3375 29.436 29.275C29.086 28.825 29.311 28.6625 29.6485 28.5C29.461 28.075 29.7735 28.1 30.0235 28.075C29.9985 27.625 30.1235 27.55 30.611 27.4875C30.5485 27.3375 30.636 27.2 30.8985 27.2C30.736 26.75 30.9485 26.6375 31.436 26.725C31.511 26.0625 32.936 26.375 32.811 27.275C33.2235 27.3375 33.3485 27.4125 33.461 27.7375Z" fill="#009A3B" stroke="black" stroke-width="0.025"/>
<path d="M30.6121 27.5C30.7121 27.55 30.8496 27.5 30.8746 27.7875C31.0871 27.4125 31.3496 27.625 31.3496 28.05M32.8246 27.275C32.7121 27.4375 32.3246 27.4375 32.3621 27.8625C32.2371 27.675 31.9746 27.625 31.8621 27.8125M33.4621 27.7375C33.4621 27.8375 33.4371 28.1625 33.3371 28.325M35.1121 28.1875C35.1371 28.2125 34.7371 28.1875 34.5496 28.3125M36.0996 29.7875C35.9996 29.7375 35.7746 29.6 35.6246 29.8125C35.6246 29.7 35.6246 29.4125 35.3246 29.4125M35.1746 30.1625C35.1746 29.8875 35.1121 29.8125 35.0496 29.7375M34.2996 29.7875C34.0746 29.625 33.8621 29.8625 33.8621 30M32.7371 29.55C32.7371 29.4375 32.6621 29.225 32.8496 29.15M29.6996 30.6625C29.7496 30.4 29.9496 30.4 29.9121 30.2625M29.9121 30.2625C29.8871 30.05 29.6496 29.8625 29.3496 30.1625M29.9121 30.2625C30.0746 30.2125 30.2371 30.2375 30.2871 30.325M29.4621 29.275C29.5746 29.175 29.8371 29.2 29.9996 29.275M29.9996 28.65C30.1246 28.65 30.3746 28.5875 30.4496 28.825C30.7371 28.375 30.9496 28.425 31.0121 28.5375M31.5371 28.475C31.7496 28.4 32.1246 28.6125 32.3371 28.975C32.4496 28.7 32.6121 28.75 32.7746 28.725M33.7746 28.975C34.1246 28.825 34.3371 29.15 34.4496 29.275C34.6121 29.0625 34.7371 29.0625 34.8996 29.0625M30.5496 29.625C30.6371 29.5 30.8246 29.4625 30.9496 29.55C30.9246 29.3 31.0871 29.2 31.1996 29.25" stroke="black" stroke-width="0.025"/>
<path d="M31.6496 24.075L31.0621 24.1L30.7746 24.625L30.4496 24.125L29.8621 24.15L30.1246 23.6125L29.8121 23.1125L30.4246 23.0875L30.6871 22.5625L31.0121 23.0625L31.5996 23.0375L31.3246 23.5625L31.6496 24.075ZM29.1496 24.2625L28.5496 24.4125L28.3996 24.975L27.9746 24.55L27.4121 24.6875L27.5621 24.125L27.1746 23.6875L27.7246 23.55L27.8871 22.975L28.3121 23.4L28.8996 23.275L28.7121 23.8375L29.1496 24.2625ZM26.7121 24.7625L26.1871 25.025L26.1496 25.625L25.6496 25.3L25.1121 25.55L25.1621 24.9625L24.6621 24.6375L25.1996 24.3625L25.2496 23.775L25.7246 24.1L26.2621 23.85L26.2371 24.4375L26.7121 24.7625ZM32.4246 24.075L33.0121 24.1L33.2746 24.625L33.5996 24.125L34.1871 24.15L33.9121 23.6125L34.2371 23.1125L33.6496 23.0875L33.3496 22.5625L33.0371 23.0625L32.4496 23.0375L32.7121 23.5625L32.4246 24.075ZM34.9246 24.2625L35.4871 24.4125L35.6496 24.975L36.0746 24.55L36.6371 24.6875L36.4746 24.125L36.8996 23.6875L36.3121 23.55L36.1496 22.975L35.7246 23.4L35.1746 23.275L35.3246 23.8375L34.9246 24.2625ZM37.3246 24.7625L37.8621 25.025L37.8871 25.625L38.3871 25.3L38.9246 25.55L38.8996 24.9625L39.3746 24.6375L38.8496 24.3625L38.8246 23.775L38.3246 24.1L37.7746 23.85L37.8371 24.4375L37.3246 24.7625Z" fill="#FFD700" stroke="black" stroke-width="0.1"/>
<path d="M38.05 36.05L38.7125 37.0125L39.3375 36.1L38.9 35.3375L38.05 36.05ZM33.8 38.85L33.8625 39.8125C33.8625 39.8125 34.125 39.8125 34.3625 39.7375C34.5875 39.65 34.775 39.4875 34.775 39.4875L34.7375 38.9875L33.8 38.85ZM30.2375 38.85L30.175 39.7875C30.175 39.7875 29.9375 39.7875 29.7 39.7375C29.5574 39.697 29.4224 39.6337 29.3 39.55L29.0375 38.9L30.2375 38.85ZM25.9375 36.05L25.25 37.0125L24.5 35.7875L25.0625 35.2L25.9375 36.05Z" fill="white" stroke="black" stroke-width="0.1"/>
<path d="M29.2754 40.775C29.2754 41.675 34.7754 41.675 34.7754 40.775V39.5C34.7754 40.1625 29.2754 40.025 29.2754 39.5V40.775Z" fill="white" stroke="black" stroke-width="0.1"/>
<path d="M24.3738 37.8125C24.8488 40.2625 29.2738 40.3125 29.2738 40.3125V39.5C29.1738 39.175 29.3488 39.0625 30.0738 38.9625C30.3738 38.9375 30.2363 38.5125 30.2363 38.5125C30.2363 38.5125 28.3113 38.85 26.9488 38.325C25.1113 37.575 24.8488 36.1375 24.8488 36.1375C24.8488 36.1375 24.7238 37.2625 24.3613 37.8125H24.3738ZM39.6488 37.8125C39.1988 40.2625 34.7738 40.3125 34.7738 40.3125V39.5C34.8488 39.175 34.6488 39.0625 33.9363 38.9625C33.6488 38.9375 33.8113 38.5125 33.8113 38.5125C33.8113 38.5125 35.7238 38.85 37.0863 38.325C38.8988 37.575 39.1113 36.1375 39.1113 36.1375C39.1113 36.1375 39.2988 37.2625 39.6488 37.8125Z" fill="white" stroke="black" stroke-width="0.1"/>
<path d="M24.7119 36.875C23.4869 36.2125 24.4494 35.525 24.5494 33.55C24.7369 34.75 26.0994 35.25 25.9369 36.025C25.3744 36.05 25.1119 35.2 24.8494 36.1375L24.7119 36.875ZM39.2994 36.875C40.5244 36.1875 39.5119 35.525 39.4119 33.55C39.2244 34.75 37.8869 35.25 38.0369 36.025C38.5869 36.05 38.8494 35.2 39.1119 36.1375L39.2994 36.85V36.875Z" fill="white" stroke="black" stroke-width="0.1"/>
<path d="M25.4621 37.7875L25.5871 37.8875L25.2996 38.2125C25.1746 38.3375 25.1496 38.425 25.2371 38.5C25.3371 38.6 25.4121 38.5625 25.5121 38.45L25.8371 38.1125L25.9371 38.2125L25.6246 38.5875C25.4496 38.7875 25.2871 38.7375 25.1496 38.6125C25.0246 38.5125 24.9621 38.35 25.1496 38.15L25.4621 37.7875ZM25.9996 38.2375L26.1246 38.325L26.0996 38.95L26.3996 38.5L26.5246 38.5875L26.0996 39.275L25.9371 39.2L25.9621 38.5625L25.6746 39.0125L25.5496 38.9375L25.9996 38.2375ZM26.2371 39.3625L26.6121 38.6125L26.7371 38.6875L26.3996 39.4125L26.2371 39.3625ZM26.8246 38.725L26.5246 39.4875L26.8246 39.6C27.0996 39.7 27.2246 39.575 27.3121 39.35C27.3996 39.1 27.3621 38.9375 27.0871 38.825L26.8246 38.725ZM26.9246 38.9125C27.1996 39 27.2246 39.1125 27.1496 39.2875C27.0746 39.475 26.9996 39.5375 26.7371 39.4125L26.9246 38.9125ZM27.6996 39.0125L27.2246 39.7375L27.4121 39.7875L27.5121 39.6L27.8371 39.675L27.8621 39.8625L28.0496 39.8875L27.8621 39.0375L27.6996 39.0125ZM27.7496 39.2L27.8121 39.525L27.5996 39.5L27.7496 39.2ZM28.1621 39.075L28.1246 39.9125H28.4371C28.7371 39.9125 28.8121 39.7625 28.8246 39.5125C28.8246 39.2625 28.7371 39.1125 28.4496 39.1L28.1621 39.075ZM28.3121 39.225C28.6121 39.225 28.6621 39.325 28.6496 39.525C28.6496 39.725 28.5996 39.8125 28.2996 39.775L28.3121 39.225ZM30.9496 40.2375V41.0875H31.1371V40.775C31.1371 40.775 31.2996 40.775 31.4371 40.75C31.5371 40.725 31.6121 40.65 31.6121 40.4875C31.6121 40.325 31.5246 40.2375 31.3621 40.2375H30.9496ZM31.1371 40.3625L31.3246 40.375C31.4871 40.375 31.4496 40.6125 31.3246 40.6125H31.1371V40.3625ZM31.9121 40.2375L31.5621 41.0875H31.7496L31.8371 40.875H32.1871L32.2621 41.0875H32.4496L32.0996 40.2375H31.9121ZM31.9996 40.425L32.1246 40.75H31.8871L31.9996 40.425ZM32.4496 40.925L32.8996 40.375H32.4996V40.25H33.1371V40.375L32.6621 40.9375H33.1371V41.1H32.4496V40.925ZM35.1371 39.275L35.2996 39.25L35.3746 39.7375C35.4121 39.9 35.3246 40.025 35.2121 40.0625C35.0746 40.1125 34.8996 40.0625 34.8746 39.8375L34.9996 39.8125C35.0371 39.95 35.0996 39.9625 35.1621 39.9375C35.2121 39.925 35.2371 39.8375 35.2246 39.7625L35.1371 39.275ZM35.4121 39.2375L35.5621 39.2L35.6371 39.6C35.6746 39.775 35.7246 39.85 35.8371 39.825C35.9621 39.8 35.9871 39.725 35.9621 39.575L35.8621 39.15L36.0246 39.125L36.1246 39.5625C36.1871 39.8125 36.0621 39.9375 35.8746 39.9625C35.7121 39.9875 35.5496 39.95 35.4996 39.7L35.4121 39.2375ZM36.2371 39.6L36.3621 39.55C36.4371 39.675 36.5371 39.6625 36.6121 39.625C36.7246 39.575 36.7371 39.475 36.6871 39.45C36.5996 39.4 36.4246 39.4625 36.3121 39.425C36.1996 39.3875 36.1496 39.3125 36.1496 39.2125C36.1621 39.0875 36.2746 39.025 36.3996 38.9875C36.5246 38.95 36.6496 38.9625 36.7371 39.1125L36.5871 39.175C36.5246 39.0875 36.4621 39.0875 36.3996 39.1125C36.3496 39.1375 36.2746 39.1875 36.3121 39.2625C36.3496 39.3125 36.5496 39.275 36.6496 39.275C36.7621 39.275 36.8496 39.3625 36.8621 39.4625C36.8746 39.6 36.8246 39.675 36.6621 39.75C36.4496 39.825 36.2746 39.7375 36.2371 39.6ZM36.9496 38.9375L36.7371 39.0375L36.6871 38.9125L37.2746 38.6625L37.3246 38.775L37.1121 38.875L37.3621 39.4625L37.2246 39.55L36.9496 38.9375ZM37.2996 38.6375L37.4246 38.5625L37.7996 39.25L37.6746 39.3375L37.2996 38.6375ZM38.2121 38.6875L38.3621 38.6375C38.3805 38.6872 38.3864 38.7407 38.3793 38.7933C38.3723 38.8458 38.3525 38.8958 38.3217 38.939C38.2909 38.9821 38.25 39.0171 38.2025 39.0408C38.1551 39.0645 38.1026 39.0762 38.0496 39.075C37.6496 39.075 37.5996 38.625 37.6746 38.475C37.7746 38.225 38.0746 38.2375 38.2121 38.375L38.0746 38.475C37.9871 38.375 37.7996 38.4375 37.7871 38.5375C37.7759 38.6149 37.7891 38.6938 37.825 38.7633C37.8608 38.8328 37.9175 38.8893 37.9871 38.925C38.1121 38.9875 38.2996 38.8375 38.2121 38.6875ZM38.1246 38.1375L38.2496 38.025L38.7496 38.6625L38.6121 38.775L38.1246 38.1375ZM38.6246 37.7375L38.4996 37.8375L38.7996 38.6375L38.9246 38.5125L38.8496 38.35L39.0871 38.1375L39.2496 38.2125L39.3746 38.1125L38.6246 37.7375ZM38.6871 37.925L38.9496 38.05L38.7996 38.2125L38.6871 37.925Z" fill="black"/>
</g>
<defs>
<clipPath id="clip0_10660_11792">
<rect width="64" height="64" rx="32" fill="white"/>
</clipPath>
</defs>
</svg>
