<svg width="64" height="64" viewBox="0 0 64 64" fill="none" xmlns="http://www.w3.org/2000/svg">
<g clip-path="url(#clip0_10660_11758)">
<mask id="mask0_10660_11758" style="mask-type:luminance" maskUnits="userSpaceOnUse" x="0" y="0" width="64" height="64">
<path d="M0 0H64V64H0V0Z" fill="white"/>
</mask>
<g mask="url(#mask0_10660_11758)">
<path fill-rule="evenodd" clip-rule="evenodd" d="M-6 0H67.9375V64H-6V0Z" fill="#BE0027"/>
<path fill-rule="evenodd" clip-rule="evenodd" d="M-6 64L67.9375 63.9625V32L-6 64Z" fill="#B4D7F4"/>
<path fill-rule="evenodd" clip-rule="evenodd" d="M-6 0L67.9375 0.0375V32L-6 0Z" fill="#239E46"/>
<path fill-rule="evenodd" clip-rule="evenodd" d="M18.6004 43.925C17.5129 44.225 16.8879 45.075 16.9004 45.875L22.2504 45.85C22.3004 44.9875 21.6004 44.2 20.5254 43.8875C25.7754 43.7875 30.3254 41.8125 31.1504 40.5625C30.3379 40.2 29.3879 40.775 28.7129 40.6375C30.3129 39.9 35.1129 36.7875 34.3379 33.4625C33.7059 35.0437 32.5731 36.3741 31.1129 37.25C32.9004 34.525 35.3629 31.6875 33.2379 29.5C33.3379 30.775 32.4129 32.175 32.0129 32.275C33.0504 29.4 34.0504 25.775 31.7879 23.4C32.0879 24.2625 31.9754 26.6875 31.5629 26.8C31.4379 24.8375 31.1004 20.725 29.0379 20.7875C29.7004 21.3625 29.9754 22.9625 30.0004 24.5625C29.5254 23.4625 29.0004 22.6375 27.8504 21.8125C26.8322 20.0495 25.3827 18.5741 23.6379 17.525C23.6688 18.2618 23.8799 18.9797 24.2525 19.616C24.6251 20.2523 25.148 20.7876 25.7754 21.175C24.8379 21.1125 23.9004 19.3375 22.9004 19.2875C22.1004 19.25 21.4754 20.0125 20.1629 19.575C20.3129 20 20.9129 20.2 21.0379 20.5125C20.7754 20.7 20.1004 20.4875 19.5504 20.2C20.3129 21.225 21.4879 21.825 22.4879 21.625C23.6754 21.4 24.9504 21.525 26.1629 22.2125C25.4062 22.371 24.6271 22.3922 23.8629 22.275C24.5754 22.9875 25.0379 23.4625 26.2629 23.45C27.3629 23.45 27.9379 22.875 28.2129 23.225C28.9004 24.0375 29.3629 24.85 29.9379 25.8C28.6629 25.95 29.0504 24.375 27.6379 23.5625C26.8504 25.2125 28.5504 27.15 29.7129 27.9625C29.7129 29.2 29.9004 30.2125 30.4254 31.1625C30.7754 31.825 31.2379 32.5 31.0629 34C30.3754 33.5 29.6879 31.7875 29.9379 30.4375C29.0629 30.675 28.7379 32.1875 29.1379 32.9625C29.4504 33.55 29.6504 34.675 29.3004 35.175C28.9504 35.6375 28.9254 35.5875 28.9254 36.5875C28.9254 37.1875 28.6004 37.9 28.0504 38.3875C28.1754 37.975 28.3004 37.2375 28.1754 36.7875C27.7379 37.525 26.6629 38.275 26.3254 39.0625C25.9879 39.85 25.9004 41.2125 24.2879 41.525C22.2004 41.9375 21.4754 42.3 20.1379 42.85C19.9879 41.8375 20.4379 39.7125 21.2879 39.8375C22.1254 39.9875 24.6379 38.9625 23.7379 36.8375C23.5629 37.5125 22.9629 38.1625 22.3254 38.2C23.0129 37.3 24.2504 36.3625 23.6504 34.8625C23.2879 35.6245 22.7099 36.2634 21.9879 36.7C22.8504 35.0625 22.0879 34.575 21.0754 35.9125C20.7004 36.4375 20.4504 37.4875 20.2129 38.8125C19.8129 37.7375 19.8379 36.3125 19.3629 35.1625C18.8629 33.9125 20.0254 33.575 20.5629 33.675C21.8879 34.0375 24.1129 34.0375 23.9379 31.8375C23.3754 32.5875 22.3629 32.8125 21.2754 32.55C22.5004 31.65 23.4629 29.9875 22.1004 29.1125C22.0382 29.6286 21.8493 30.1212 21.5505 30.5465C21.2517 30.9718 20.8523 31.3166 20.3879 31.55C20.1671 30.7286 20.1542 29.8652 20.3504 29.0375C19.8129 29.6 19.4254 30.7625 19.1129 32.1C19.1032 31.0935 19.2422 30.091 19.5254 29.125C19.8004 28.0875 20.5004 28.7625 21.5629 28.8375C22.5879 28.9 24.0004 28.3375 23.7379 26.9375C23.3879 27.4875 22.6629 27.7 21.9254 27.65C22.8129 27.1125 24.3504 26.15 23.5129 24.7C23.1504 25.25 23.0379 25.725 22.0129 25.9C22.2754 25.275 22.3254 24.4 23.1254 24.0625C21.7004 23.775 20.8879 24.7125 20.4754 26.1625C20.3004 25.1625 20.1004 24.7875 20.0629 24.0375C20.8379 23.1875 20.9129 21.5125 19.2504 21.15C19.1504 22 19.1879 22.2125 19.3754 22.9C18.5879 22.45 17.5004 22.1875 16.7504 22.85C17.2504 23.3875 18.0254 23.85 19.2129 23.275C18.9254 24.1875 18.2004 24.025 17.2004 23.675C17.8129 24.825 18.5754 25.0375 19.4379 24.9C19.8754 26.075 19.9004 26.9625 18.6004 28.675C18.6504 27.6125 18.5754 26.825 17.7254 25.9625C17.0129 25.25 16.4254 26 17.5504 27.575C16.7271 26.9215 16.1391 26.0175 15.8754 25C15.6504 26.2625 15.8504 27.75 16.5504 28.6C16.2129 28.95 15.8379 28.5625 15.2879 27.7C15.4879 30.475 16.6754 31 18.2754 30.3875C18.3129 31.9125 18.3129 33.325 18.4004 35.1625C17.7123 34.0887 16.7671 33.2036 15.6504 32.5875C15.4379 33.3375 16.2129 34.3 16.6504 34.8375C15.9879 34.7125 14.5629 33.625 14.5629 33.625C14.4129 34.8625 16.0129 36 17.0504 36.5125C15.8379 36.4625 15.3004 36.0125 14.5129 35.2625C14.5254 38.6875 18.2254 38.0875 18.9254 37.5625L19.2379 42.8875C18.1879 42.7125 18.2754 42.3875 17.3754 42.3125C14.8879 42.2125 12.9129 39.325 12.2629 37.2C12.0754 37.55 12.2254 37.9125 12.0504 38.35C11.6504 37.3 11.1379 35.9625 10.4379 35.3375C10.6129 35.9375 10.6379 36.5625 10.5754 37.6875C10.3379 36.95 10.1129 36.725 10.1004 35.8625C10.1129 35.2 10.7379 34.7125 10.7129 33.775C10.6879 33.1 10.0629 31.625 9.96289 30.475C9.66289 31.6625 9.47539 32.9 9.01289 33.625C9.25039 32.375 9.17539 31.5 9.56289 30.6625C10.0129 29.7625 10.3879 28.975 10.0879 28.075C9.80039 28.425 9.90039 28.7375 9.18789 29.575C9.02539 28.6625 10.1129 27.2 11.1629 26.6C11.9129 26.225 12.8379 24.8125 12.2379 23.85C11.5379 24.35 11.2254 25.0375 10.2379 26.1875C10.9379 23.4375 12.7629 22.725 14.9504 22.7125C15.4504 22.7125 16.4129 22.5375 16.7004 21.9C16.0754 22.1375 15.3379 22.1625 14.7004 22.025C15.1629 21.35 16.1629 21.4375 17.0879 21.425C17.8129 21.425 18.9504 21.325 19.4129 20.3C18.407 20.6841 17.3073 20.7495 16.2629 20.4875C17.6504 19.7625 19.8254 19.6875 20.9379 18.7375C19.6629 17.8 16.4879 18.975 14.4879 20.35C15.0504 19.8375 15.9379 18.925 16.4254 18.1875C15.3254 17.6625 12.5504 20.7375 11.6004 22.5625C10.7004 23.0625 10.3379 23.875 9.97539 24.4375C10.4754 22.8 10.5129 21.6125 10.9129 20.275C7.81289 21.3375 9.10039 27.0875 8.42539 28.4625C8.50039 26.9375 8.43789 24.9875 7.81289 23.9875C6.86289 24.7125 6.77539 29.0125 7.68789 32.6C7.35039 31.6375 6.73789 30.7375 6.55039 29.575C5.12539 32.1625 7.37539 35.2 9.25039 37.6125C7.7554 36.6846 6.48351 35.4383 5.52539 33.9625C5.77539 38.5875 10.6129 39.55 11.3629 40.6875C10.3379 40.2125 8.40039 39.275 7.56289 40.2625C8.72302 40.4783 9.83593 40.8973 10.8504 41.5C12.1004 43.0625 14.4754 43.75 18.6004 43.925Z" fill="#F3E295"/>
</g>
</g>
<defs>
<clipPath id="clip0_10660_11758">
<rect width="64" height="64" rx="32" fill="white"/>
</clipPath>
</defs>
</svg>
