<svg width="64" height="64" viewBox="0 0 64 64" fill="none" xmlns="http://www.w3.org/2000/svg">
<g clip-path="url(#clip0_11297_21451)">
<path d="M2.1582 21.4266H61.7716C57.433 9.1567 45.7413 0.3621 31.9885 0.351562H31.9407C18.1878 0.3621 6.49544 9.1567 2.1582 21.4266Z" fill="#1291FF"/>
<path d="M61.7709 42.5015H2.1582C6.49895 54.7784 18.2012 63.5765 31.9646 63.5765C45.728 63.5765 57.4302 54.7784 61.7709 42.5015Z" fill="#F3F4F5"/>
<path d="M61.7704 42.5015C62.9359 39.2047 63.5766 35.6599 63.5766 31.964C63.5766 28.2682 62.9366 24.7233 61.7704 21.4265H2.15769C0.99154 24.7233 0.351562 28.2682 0.351562 31.964C0.351562 35.6599 0.992243 39.2054 2.15769 42.5015H61.7704Z" fill="black"/>
</g>
<defs>
<clipPath id="clip0_11297_21451">
<rect width="64" height="64" fill="white"/>
</clipPath>
</defs>
</svg>
