<svg width="64" height="64" viewBox="0 0 64 64" fill="none" xmlns="http://www.w3.org/2000/svg">
<g clip-path="url(#clip0_10660_11812)">
<mask id="mask0_10660_11812" style="mask-type:luminance" maskUnits="userSpaceOnUse" x="-1" y="-1" width="65" height="65">
<path d="M-0.0195312 -0.00128174H63.9564V63.9747H-0.0195312V-0.00128174Z" fill="white"/>
</mask>
<g mask="url(#mask0_10660_11812)">
<path fill-rule="evenodd" clip-rule="evenodd" d="M-29.7389 0.443298H99.939V62.6672H-29.752L-29.7389 0.443298Z" fill="#FFC621"/>
<path fill-rule="evenodd" clip-rule="evenodd" d="M-30 42.7932H99.8609V63.9747H-30V42.7932Z" fill="#EF2118"/>
<path fill-rule="evenodd" clip-rule="evenodd" d="M-29.7383 -0.00128174H99.9396V22.4877H-29.7383V-0.00128174Z" fill="#298C08"/>
<path d="M32.7361 46.4595C40.1627 46.4595 46.1832 40.439 46.1832 33.0124C46.1832 25.5858 40.1627 19.5654 32.7361 19.5654C25.3095 19.5654 19.2891 25.5858 19.2891 33.0124C19.2891 40.439 25.3095 46.4595 32.7361 46.4595Z" fill="#006BC6"/>
<path fill-rule="evenodd" clip-rule="evenodd" d="M26.7461 23.5206L25.9616 24.0828L28.8904 28.2146L29.6749 27.7046L26.7461 23.5206ZM30.4333 33.2615L29.2304 32.4116L29.7272 30.8426L23.7127 30.9211L21.9737 29.5874L30.1718 29.4959L31.7015 24.8804L32.4991 26.7632L30.4071 33.2746L30.4333 33.2615ZM39.9911 24.4228L39.2066 23.8344L36.1601 27.8877L36.8792 28.4761L39.9911 24.4228ZM31.8192 30.8688L32.2507 29.4697H33.9112L32.0153 23.756L32.7606 21.6901L35.3233 29.4959L40.1872 29.5482L38.6574 30.8949L31.8192 30.8688ZM43.1422 37.2755L43.469 36.3341L38.6836 34.6867L38.3436 35.5366L43.1422 37.2624V37.2755ZM34.5127 31.4702L35.9771 31.4441L36.5001 33.0261L41.3378 29.4697L43.5213 29.5482L36.8923 34.3859L38.3306 39.0276L36.5785 37.9816L34.4996 31.4702H34.5127ZM32.0284 44.2183L33.0221 44.2314L33.0613 39.1714L32.1461 39.1191L32.0415 44.2183H32.0284ZM34.7742 34.1768L35.2579 35.5627L33.9374 36.5695L38.8536 40.0343L39.4812 42.1264L32.7868 37.3932L28.8512 40.2305L29.2827 38.2431L34.7872 34.1898L34.7742 34.1768ZM21.8691 35.7981L22.1699 36.7394L26.9945 35.2097L26.7592 34.3206L21.8691 35.7981ZM32.2768 35.3012L31.1001 36.1903L29.7403 35.2228L27.9752 40.9758L26.1708 42.2179L28.6158 34.3729L24.6933 31.5225L26.72 31.3133L32.2768 35.3012Z" fill="#FFC621"/>
</g>
</g>
<defs>
<clipPath id="clip0_10660_11812">
<rect width="64" height="64" rx="32" fill="white"/>
</clipPath>
</defs>
</svg>
