<svg width="64" height="64" viewBox="0 0 64 64" fill="none" xmlns="http://www.w3.org/2000/svg">
<g clip-path="url(#clip0_10660_11822)">
<path d="M0 0H64V64H0V0Z" fill="#012169"/>
<path fill-rule="evenodd" clip-rule="evenodd" d="M39.3993 40.3954C39.3197 40.3933 39.2402 40.3972 39.1613 40.4073C38.7567 40.4787 38.1141 41.7996 37.769 42.5731C37.2097 43.2395 36.9241 43.7631 36.698 44.1439C36.6028 44.2986 36.46 44.4652 36.5076 44.6675C35.6746 44.8698 35.627 45.5838 35.627 45.8575C35.627 46.1669 35.7222 46.3097 35.7222 46.3097L36.222 47.2379V47.2498C36.7575 48.3565 37.531 49.8321 37.9832 49.9511C38.602 50.1296 40.2204 49.5346 41.4342 48.4993C43.7729 49.4732 46.2788 49.9825 48.8122 49.9987C51.6444 49.9987 54.191 49.3204 56.1783 48.4993C57.3921 49.5346 58.9986 50.1296 59.6293 49.9511C60.0696 49.8321 60.855 48.3446 61.3905 47.2498L61.8784 46.3097C61.8784 46.3097 61.9736 46.1669 61.9736 45.8694C61.9736 45.5957 61.926 44.8698 61.093 44.6794C61.1406 44.4771 61.0097 44.2986 60.9145 44.1439C60.6765 43.7512 60.3909 43.2276 59.8435 42.5493C59.4865 41.7758 58.8439 40.4787 58.4512 40.4073C57.88 40.3121 56.6662 40.5977 56.6662 40.7048V40.7643L54.2029 43.061C54.2029 43.1205 54.3219 44.7865 54.7979 46.274C52.8693 46.9602 50.8353 47.3025 48.7884 47.2855C46.4322 47.2855 44.4211 46.869 42.7908 46.2621C43.097 45.2139 43.2963 44.1374 43.3858 43.0491L40.9463 40.7643V40.7048C40.9463 40.6215 40.0062 40.3954 39.3993 40.3954ZM40.0181 43.2514C40.3275 43.2514 40.6488 43.5132 40.9225 43.7869L40.8987 43.9535C40.8014 44.3824 40.6741 44.8039 40.5179 45.2149C39.9101 44.8658 39.3398 44.4551 38.8162 43.9892C39.078 43.7036 39.5064 43.3228 39.9586 43.2633L40.0181 43.2514ZM57.5825 43.2514H57.642C58.0942 43.3228 58.5226 43.7036 58.7963 43.9892C58.269 44.4559 57.6947 44.8667 57.0827 45.2149C56.926 44.804 56.7987 44.3825 56.7019 43.9535C56.6916 43.8983 56.6837 43.8428 56.6781 43.7869C56.9399 43.5013 57.2731 43.2514 57.5825 43.2514ZM37.8285 46.512C38.1498 46.7619 38.5782 47.0475 39.0899 47.345C38.9517 47.4376 38.7988 47.5061 38.6377 47.5473C38.4235 47.5949 38.2093 47.583 37.9832 47.5354C37.898 47.3189 37.8497 47.0896 37.8404 46.8571C37.834 46.7422 37.83 46.6271 37.8285 46.512ZM59.784 46.512L59.7602 46.8571C59.7506 47.0896 59.7023 47.3188 59.6174 47.5354C59.4296 47.5801 59.2347 47.5863 59.0445 47.5536C58.8543 47.5208 58.6727 47.4499 58.5107 47.345C59.0343 47.0475 59.4627 46.7619 59.784 46.512Z" fill="url(#paint0_linear_10660_11822)" stroke="white" stroke-width="1.19"/>
<path fill-rule="evenodd" clip-rule="evenodd" d="M41.5117 44.6412C41.5117 44.6412 40.6539 43.2552 39.9616 43.3655C39.2542 43.46 38.592 44.342 38.5469 44.3892C38.1551 44.0422 37.8063 43.6454 37.5084 43.208C37.5536 43.1607 38.592 40.6092 39.1639 40.499C39.7691 40.4401 40.3789 40.5375 40.9398 40.7825L41.5117 44.6412Z" fill="url(#paint1_linear_10660_11822)" stroke="black" stroke-width="0.184752"/>
<path fill-rule="evenodd" clip-rule="evenodd" d="M43.3932 43.1608C43.3932 43.2553 43.0922 46.9093 41.8882 48.185C40.6842 49.4608 38.6825 50.2483 37.9752 50.0593C37.2829 49.8545 35.6725 46.169 35.6725 46.169C35.6725 46.169 37.3732 47.933 38.6374 47.6338C39.9016 47.3503 40.6541 45.1295 40.8949 44.0428C41.1357 42.9718 40.94 40.8455 40.94 40.8455L43.4082 43.1608H43.3932Z" fill="url(#paint2_linear_10660_11822)" stroke="black" stroke-width="0.184752"/>
<path fill-rule="evenodd" clip-rule="evenodd" d="M56.0996 44.6412C56.0996 44.6412 56.9575 43.2552 57.6498 43.3655C58.3571 43.46 59.0193 44.342 59.0645 44.3892C59.4562 44.0422 59.8051 43.6454 60.1029 43.208C60.0578 43.1607 59.0193 40.6092 58.4474 40.499C57.8422 40.4401 57.2324 40.5375 56.6715 40.7825L56.0996 44.6412Z" fill="url(#paint3_linear_10660_11822)" stroke="black" stroke-width="0.184752"/>
<path fill-rule="evenodd" clip-rule="evenodd" d="M54.2182 43.1608C54.2182 43.2553 54.5192 46.9093 55.7232 48.185C56.9272 49.4608 58.9288 50.2483 59.6362 50.0593C60.3285 49.8545 61.9388 46.169 61.9388 46.169C61.9388 46.169 60.2382 47.933 58.974 47.6338C57.7098 47.3503 56.9573 45.1295 56.7165 44.0428C56.4757 42.9718 56.6713 40.8455 56.6713 40.8455L54.2031 43.1608H54.2182Z" fill="url(#paint4_linear_10660_11822)" stroke="black" stroke-width="0.184752"/>
<path fill-rule="evenodd" clip-rule="evenodd" d="M37.7861 42.5434C37.2268 43.2217 36.9293 43.7572 36.6913 44.1499C36.4533 44.5426 36.5961 45.1019 37.1316 45.8754C37.7266 46.7084 42.5342 50.0047 48.8055 50.0047C55.0768 50.0047 59.8844 46.7203 60.4675 45.8754C61.0149 45.09 61.1577 44.5426 60.9197 44.1499C60.6817 43.7572 60.3842 43.2217 59.8249 42.5434C59.8249 43.5668 55.8384 47.3034 48.8055 47.3034C41.7726 47.3034 37.7861 43.5668 37.7861 42.5434Z" fill="url(#paint5_linear_10660_11822)" stroke="black" stroke-width="0.1785"/>
<path fill-rule="evenodd" clip-rule="evenodd" d="M59.5287 49.5162L60.6123 47.642L60.0705 47.2482C59.92 47.7207 59.3029 47.8782 59.1976 48.4767C59.0922 49.0752 59.619 49.658 59.5287 49.5162Z" fill="url(#paint6_linear_10660_11822)" stroke="black" stroke-width="0.184752"/>
<path fill-rule="evenodd" clip-rule="evenodd" d="M60.525 48.9725C60.525 48.9725 60.7206 48.1378 60.1036 48.0275C59.5016 47.933 59.1705 48.5 59.2608 48.2795C59.3511 48.0275 59.7123 47.7913 59.7725 46.9565C59.8176 46.1218 59.7273 45.665 59.7273 45.665C59.7273 45.665 59.9681 44.594 60.9464 44.7358C61.9397 44.8933 61.9848 45.6808 61.9848 45.9643C61.9848 46.2478 61.8945 46.4053 61.8945 46.4053L60.525 48.9725Z" fill="url(#paint7_linear_10660_11822)" stroke="black" stroke-width="0.184752"/>
<path d="M57.0992 45.7625L57.2992 46.125L57.4242 46.0375L57.3367 45.8125L57.3617 45.7625L57.5992 45.6125L58.1992 46.7V46.75L58.0742 46.8375L58.1367 46.9375L58.7117 46.5625L58.6617 46.4625L58.5367 46.5375H58.4742L57.8742 45.45L58.0992 45.3H58.1492L58.2992 45.5L58.4242 45.4125L58.2242 45.0625L57.0992 45.775V45.7625ZM55.6367 46.6L55.6867 46.7L55.8117 46.65L55.8617 46.6625L56.3867 47.7625V47.8125L56.2617 47.8875L56.3117 47.9875L56.8867 47.6875L56.8367 47.575L56.7117 47.625H56.6617L56.4117 47.1L56.9992 46.8L57.2492 47.3V47.35L57.1242 47.4375L57.1742 47.5375L57.7617 47.2375L57.7117 47.1375L57.5867 47.1875L57.5367 47.1625L56.9992 46.075L57.0117 46.025L57.1367 45.95L57.0867 45.85L56.4992 46.15L56.5492 46.25L56.6742 46.2L56.7242 46.2125L56.9492 46.6625L56.3617 46.975L56.1367 46.525L56.1617 46.475L56.2742 46.4L56.2242 46.3L55.6367 46.6ZM55.2992 47.5375L55.3367 47.6375L55.4992 47.6L55.5492 47.625L55.6742 48.075L55.5492 48.125C55.2242 48.225 54.9492 48.0625 54.8367 47.6625C54.7117 47.275 54.8492 46.975 55.1742 46.875C55.2394 46.8574 55.3074 46.8531 55.3742 46.8625L55.4117 46.8875L55.5367 47.1L55.6867 47.05L55.5867 46.675C55.3992 46.675 55.2367 46.7 55.0867 46.75C54.6117 46.9125 54.3867 47.3 54.5117 47.7625C54.6367 48.225 55.0492 48.4375 55.5117 48.2875C55.6788 48.2307 55.8351 48.1462 55.9742 48.0375L55.8242 47.5375L55.8492 47.5L55.9742 47.45L55.9492 47.325L55.2992 47.5375ZM53.9492 48.8125L54.5992 48.6125L54.5742 48.4875L54.4117 48.525L54.3742 48.5125L54.0242 47.325L54.0367 47.2875L54.1867 47.225L54.1492 47.125L53.4992 47.325L53.5242 47.425L53.6867 47.4L53.7242 47.4125L54.0742 48.6L54.0492 48.6375L53.9242 48.7L53.9492 48.8125ZM50.3992 49.3875L51.5492 49.2875L51.5117 48.875H51.3742L51.3492 49.125L51.3242 49.175L50.8242 49.225L50.7742 48.6H51.0617L51.0992 48.625L51.1242 48.7875H51.2492L51.2117 48.2375H51.0867V48.4125L51.0492 48.4625L50.7742 48.475L50.7242 47.925L51.1492 47.9L51.1867 47.9125L51.2242 48.125L51.3742 48.1125L51.3492 47.7375L50.2742 47.85V47.95H50.4117L50.4367 47.9875L50.5492 49.2125L50.5242 49.25L50.3992 49.275V49.3875ZM48.6742 47.875V48H48.8117L48.8367 48.0375L48.8617 49.2625L48.8367 49.3L48.7117 49.325V49.425H49.3242V49.3125H49.1992L49.1492 49.2625V48.6875L49.7617 48.675L49.7742 49.25L49.7492 49.3H49.6242V49.425H50.2242V49.3H50.0992L50.0617 49.25L50.0492 48.025L50.0742 47.975H50.1992V47.85H49.5867V47.975L49.7117 47.9875L49.7617 48.025V48.525L49.1367 48.5375V48.0375L49.1742 48H49.2992V47.875H48.6742ZM47.3742 47.8375V48.25H47.5242L47.5617 48L47.5867 47.975H47.8367V49.225L47.7992 49.275H47.6617V49.4H48.2992V49.3L48.1617 49.275L48.1242 49.2375L48.1367 47.9875H48.3867L48.4367 48.0125L48.4617 48.2625H48.6117V47.8625L47.3742 47.8375ZM45.3867 49.15L46.5117 49.2L46.5242 48.8L46.3992 48.7875L46.3492 49.0375L46.3117 49.0625L45.8242 49.0375L45.8617 48.425L46.1367 48.45L46.1492 48.475L46.1742 48.65H46.2992L46.3117 48.125H46.1867L46.1617 48.275L46.1367 48.3H45.8617L45.8867 47.75L46.2992 47.7625L46.3242 47.8L46.3617 48H46.4992V47.625L45.4617 47.575V47.7L45.5867 47.7125L45.6117 47.75L45.5617 48.975L45.5242 49.0125H45.3992V49.1375L45.3867 49.15ZM42.8117 48.475L43.3992 48.6875L43.4367 48.575L43.3117 48.525L43.2867 48.475L43.6492 47.3L43.6867 47.275L43.8367 47.3125L43.8617 47.2L43.2617 47L43.2242 47.1L43.3492 47.1625L43.3867 47.2L43.0117 48.375L42.9742 48.4125L42.8492 48.3625L42.8117 48.475ZM41.7367 48.075C41.8484 48.1641 41.9755 48.2319 42.1117 48.275C42.4367 48.375 42.6992 48.25 42.7867 48C42.807 47.9314 42.8096 47.8587 42.7943 47.7888C42.779 47.7188 42.7463 47.6539 42.6992 47.6C42.5992 47.475 42.5117 47.4125 42.4617 47.35C42.3742 47.25 42.3367 47.15 42.3617 47.05C42.3992 46.9375 42.5242 46.875 42.6742 46.925L42.8117 47.0125V47.05L42.7867 47.2875L42.9367 47.3375L43.0367 46.9875C42.934 46.8959 42.8154 46.8238 42.6867 46.775C42.3992 46.675 42.1617 46.8125 42.0742 47.05C42.0577 47.1086 42.0537 47.17 42.0623 47.2303C42.0709 47.2905 42.092 47.3484 42.1242 47.4C42.1992 47.5125 42.2867 47.5875 42.3492 47.65C42.4742 47.775 42.5117 47.8875 42.4742 48C42.4367 48.125 42.3117 48.1875 42.1492 48.125C42.0898 48.1012 42.0348 48.0673 41.9867 48.025L41.9617 47.9875L42.0117 47.7125L41.8617 47.6625L41.7367 48.075ZM40.3867 47.5L41.4117 48L41.5742 47.625L41.4492 47.575L41.3242 47.775L41.2867 47.8L40.8367 47.575L41.0867 47.0375L41.3367 47.1625V47.2L41.2992 47.3625L41.4117 47.425L41.6242 46.925L41.5242 46.875L41.4242 47.0125L41.3867 47.0375L41.1367 46.9125L41.3617 46.4125L41.7367 46.6L41.7617 46.65L41.6992 46.8375L41.8242 46.9L41.9867 46.575L41.0242 46.1L40.9867 46.2L41.0867 46.2625L41.1117 46.325L40.6117 47.425L40.5617 47.4375L40.4367 47.4L40.3867 47.5ZM40.2242 45.65L39.7242 45.2875L39.6492 45.3875L39.7617 45.475V45.525L39.1117 46.5375L39.0617 46.55L38.9617 46.4875L38.8867 46.6L39.3992 46.9375C39.5867 47.0625 39.7367 47.125 39.8992 47.1C40.1117 47.0875 40.3117 46.9625 40.4492 46.725C40.6992 46.325 40.6367 45.925 40.2242 45.65ZM40.0117 45.65L40.1117 45.725C40.3867 45.9125 40.4117 46.1875 40.1867 46.5375C39.9617 46.8875 39.6992 46.9875 39.4367 46.7875L39.3242 46.7375L40.0117 45.6625V45.65ZM44.0867 47.2625L44.0617 47.3625L44.1867 47.4L44.2117 47.4375L43.9617 48.6375L43.9242 48.675L43.7992 48.6625L43.7742 48.7625L44.3617 48.8875L44.3867 48.8L44.2617 48.75L44.2242 48.7L44.3242 48.2H44.3742C44.5742 48.25 44.6242 48.3625 44.6242 48.5875C44.6242 48.7125 44.6242 48.8 44.7242 48.925C44.7617 48.975 44.8242 49.025 44.9367 49.05C45.0027 49.0632 45.0695 49.0716 45.1367 49.075L45.1492 48.9625H45.1367C44.9867 48.925 44.9367 48.875 44.9242 48.75C44.9117 48.625 44.9242 48.5 44.8742 48.375C44.8376 48.2911 44.7707 48.2241 44.6867 48.1875C44.9367 48.1875 45.0617 48.0875 45.1117 47.8875C45.1617 47.6375 45.0367 47.4625 44.7117 47.3875L44.0867 47.2625ZM44.4867 47.475L44.5742 47.4875C44.7742 47.5375 44.8617 47.6625 44.8242 47.85C44.7742 48.0625 44.6617 48.1375 44.4367 48.0875C44.4117 48.0875 44.3867 48.0875 44.3617 48.0625L44.4867 47.475ZM52.0367 47.6L52.0492 47.725H52.2242L52.4242 48.9625L52.3867 48.9875L52.2617 49.025L52.2742 49.125L52.8992 49.025V48.9125L52.7492 48.925L52.7117 48.9L52.6367 48.3875H52.6742C52.8992 48.3375 52.9742 48.425 53.0867 48.6375C53.1367 48.7375 53.1617 48.8375 53.2992 48.9125C53.3617 48.9375 53.4492 48.9625 53.5492 48.9375C53.6256 48.9219 53.7008 48.901 53.7742 48.875L53.7492 48.775H53.7242C53.5742 48.8 53.4992 48.775 53.4242 48.6625C53.3617 48.5625 53.3242 48.4375 53.2492 48.35C53.1867 48.2875 53.0992 48.25 52.9992 48.25C53.2367 48.15 53.3492 48 53.3117 47.7875C53.2742 47.5375 53.0617 47.425 52.7242 47.475L52.0367 47.6ZM52.5242 47.65H52.6242C52.8367 47.6 52.9742 47.6875 52.9992 47.875C53.0242 48.0875 52.9367 48.2 52.6992 48.25H52.6117L52.5117 47.65H52.5242Z" fill="black"/>
<path fill-rule="evenodd" clip-rule="evenodd" d="M38.0826 49.5162L36.999 47.642L37.5408 47.2482C37.6913 47.7207 38.3084 47.8782 38.4137 48.4767C38.5191 49.0752 37.9923 49.658 38.0826 49.5162Z" fill="url(#paint8_linear_10660_11822)" stroke="black" stroke-width="0.184752"/>
<path fill-rule="evenodd" clip-rule="evenodd" d="M37.0883 48.9725C37.0883 48.9725 36.8926 48.1378 37.5097 48.0275C38.1117 47.933 38.4428 48.5 38.3525 48.2795C38.2622 48.0275 37.901 47.7913 37.8408 46.9565C37.7956 46.1218 37.8859 45.665 37.8859 45.665C37.8859 45.665 37.6451 44.594 36.6669 44.7358C35.6736 44.8933 35.6284 45.6808 35.6284 45.9643C35.6284 46.2478 35.7187 46.4053 35.7187 46.4053L37.0883 48.9725Z" fill="url(#paint9_linear_10660_11822)" stroke="black" stroke-width="0.184752"/>
<path fill-rule="evenodd" clip-rule="evenodd" d="M48.8211 46.695C48.8211 46.695 37.4583 43.3245 37.5336 30.5985L37.6088 13.746H60.0183L60.0935 30.504C60.1688 43.23 48.806 46.6792 48.806 46.6792L48.8211 46.695Z" fill="#0072C4" stroke="white" stroke-width="0.600445"/>
<path fill-rule="evenodd" clip-rule="evenodd" d="M39.1621 17.5125C39.1871 17.5125 39.3121 17.3875 39.4496 17.2625C39.6246 17.175 39.7871 17.0625 39.9496 16.9625C40.0996 16.9 40.3621 16.8375 40.4746 16.775C40.6434 16.6958 40.7927 16.5806 40.9121 16.4375C40.9246 16.2125 40.9621 16.05 40.9621 15.8L41.4621 15.55C41.7121 15.475 41.7496 15.3875 41.9871 15.35C42.1371 15.3 42.3871 15.3 42.5996 15.3C42.8371 15.3 42.9746 15.475 43.1871 15.5C43.4371 15.6 43.5621 15.675 43.7621 15.85C43.8621 15.9875 43.9371 16.1 44.1371 16.2125C44.2746 16.3 44.4246 16.4125 44.5996 16.4625C44.7996 16.575 44.9621 16.6375 45.1121 16.8C45.2621 16.9 45.3246 17.05 45.4371 17.15C45.5898 17.2797 45.7528 17.3968 45.9246 17.5C46.1246 17.625 46.3246 17.725 46.6371 17.7C46.8121 17.7 46.9996 17.675 47.1996 17.7C47.4371 17.7 47.6621 17.7 47.8621 17.7625C48.1121 17.7625 48.2996 17.7875 48.5246 17.8125C48.7371 17.85 48.9496 17.85 49.1746 17.85C49.3871 17.9125 49.6121 17.9 49.8371 17.9H51.1621C51.4121 17.9 51.6496 17.9125 51.8121 17.95C52.0338 17.9473 52.2551 17.9306 52.4746 17.9C52.7246 17.9 52.9246 17.8625 53.1871 17.85H53.9746C54.1871 17.9125 54.4496 17.95 54.5996 18.0625C54.7871 18.1125 54.8746 18.2 55.0621 18.2625C55.2435 18.3383 55.4058 18.4536 55.5371 18.6C55.6852 18.7619 55.8112 18.9426 55.9121 19.1375C56.0371 19.325 56.0871 19.55 56.1871 19.775C56.2371 20 56.2871 20.2125 56.2871 20.4625C56.3371 20.675 56.3371 20.9125 56.3371 21.15C56.2746 21.375 56.2746 21.625 56.1871 21.8375C56.1871 22.0875 56.1371 22.3 56.0996 22.475C56.0621 22.6875 55.9996 22.8125 55.9996 23.075V23.7625C55.9996 23.9875 55.9371 24.1375 55.9121 24.3875C55.7855 24.6309 55.6728 24.8813 55.5746 25.1375C55.4283 25.2392 55.3013 25.3662 55.1996 25.5125C55.0996 25.6 55.0496 25.6875 55.0621 25.725C55.2496 25.7875 55.1996 25.925 55.1996 26.1625C55.2246 26.3625 55.2371 26.6 55.2996 26.8125C55.3121 27.0375 55.3621 27.1875 55.4246 27.35C55.5121 27.45 55.5371 27.4 55.3371 27.4C55.2121 27.5 55.0621 27.45 55.0121 27.25C54.9064 27.0843 54.8421 26.8957 54.8246 26.7C54.7996 26.4875 54.7621 26.2625 54.6996 26.1125C54.6621 25.8375 54.5871 25.8375 54.3246 25.825C54.1871 25.7 54.0121 25.675 53.7496 25.675C53.4996 25.675 53.4746 25.65 53.4621 25.925V26.6125C53.4121 26.8125 53.3371 26.975 53.2746 27.15C53.1371 27.25 53.0746 27.425 52.8996 27.5375C52.8121 27.7625 52.6996 27.8 52.4746 27.85L52.1996 27.5C52.3246 27.275 52.4496 27.25 52.5246 27C52.6246 26.8125 52.6871 26.6875 52.7496 26.5125C52.6496 26.3625 52.5746 26.2875 52.4746 26.075C52.3716 25.9056 52.2878 25.7254 52.2246 25.5375C52.0871 25.475 51.8496 25.4625 51.7246 25.3875C51.4871 25.325 51.4371 25.5875 51.1621 25.5875H50.4996C50.2121 25.5875 50.1371 25.7375 49.8871 25.725C49.8121 25.75 49.6371 25.725 49.3746 25.725C49.1746 25.8 48.9371 25.775 48.7121 25.775C48.4746 25.775 48.2871 25.7125 48.0996 25.675C47.8871 25.6125 47.6746 25.55 47.4496 25.5375C47.1621 25.5375 47.0621 25.55 46.8746 25.675C46.7371 25.7625 46.5246 25.9625 46.3746 26.075C46.2996 26.2375 46.2621 26.5125 46.1621 26.7C46.1246 26.9125 46.0371 27.025 45.9746 27.2C45.9003 27.3918 45.8581 27.5945 45.8496 27.8C45.8246 28.125 45.7621 28.0875 45.5621 27.9875C45.4871 27.85 45.3621 27.7 45.2746 27.5375C45.3246 27.2875 45.3746 27.175 45.3746 26.9125C45.3246 26.7 45.2246 26.725 45.0996 26.8625C45.0996 27.1125 45.0996 27.3125 44.9871 27.45C44.9483 27.6063 44.8495 27.741 44.7121 27.825C44.6496 28.025 44.4871 28.1125 44.3371 28.1875V27.975C44.2246 27.7625 44.3371 27.575 44.3371 27.3C44.3371 27.05 44.3246 26.8875 44.3871 26.675C44.3871 26.425 44.2871 26.2 44.2496 26.025C44.1621 25.8375 44.1121 25.75 43.8746 25.675C43.6996 25.6 43.4621 25.525 43.3496 25.375C43.2427 25.2245 43.0954 25.1075 42.9246 25.0375C42.7246 24.9625 42.6121 24.8875 42.4496 24.7875C42.3246 24.625 42.1996 24.5625 42.1246 24.35C42.0246 24.2 42.0121 23.9125 41.9496 23.7125C41.9268 23.5107 41.8763 23.313 41.7996 23.125C41.7789 22.92 41.7327 22.7185 41.6621 22.525L41.5246 21.8875C41.5246 21.65 41.5246 21.4125 41.4621 21.2V20.5125C41.4371 20.3125 41.4246 20.0125 41.3746 19.875C41.3746 19.6 41.3496 19.4625 41.2746 19.275C41.1746 19.1 41.1746 19.025 40.9996 18.9875C40.8746 19.1375 40.6871 19.2125 40.4371 19.2375C40.2621 19.2 40.0246 19.1625 39.8246 19.0875C39.6371 19.05 39.5121 18.9625 39.3621 18.8875C39.2735 18.7531 39.1775 18.6238 39.0746 18.5C39.0371 18.25 38.9871 18.1125 38.9746 17.85C38.9746 17.675 38.9746 17.775 39.1746 17.5125H39.1621Z" fill="#BCBCBC"/>
<path fill-rule="evenodd" clip-rule="evenodd" d="M41.9496 19.2875L41.9871 19.25C41.8996 19.325 41.9371 19.2875 42.1121 19.2125C42.2246 19.1625 42.4121 19.05 42.4871 18.9625C42.5621 18.9375 42.7121 18.875 42.7871 18.8C42.8746 18.7 42.9621 18.6125 43.0871 18.525C43.2121 18.4125 43.3371 18.375 43.4871 18.275C43.6621 18.2625 43.7371 18.175 43.9121 18.2375C44.0746 18.275 44.1496 18.275 44.2871 18.1375C44.4121 18.0625 44.5621 17.9625 44.6121 17.8375V17.6125C44.6121 17.8375 44.5621 17.925 44.4121 17.9875C44.3121 18.125 44.1621 18.2625 44.1121 18.3875C43.9996 18.5375 43.9871 18.6125 43.8871 18.6875C43.7871 18.8 43.6371 18.8625 43.6121 19.05C43.6621 19.125 43.6121 19.175 43.7246 19.175C43.8121 19.2625 43.9121 19.225 44.0496 19.175C44.1542 19.0562 44.2387 18.9211 44.2996 18.775L44.5496 18.4125C44.6746 18.3375 44.7371 18.275 44.7746 18.1375C44.8996 18.0625 45.0246 17.975 45.1121 17.8875C45.2121 17.8375 45.2621 17.7875 45.4121 17.7625C45.4203 17.895 45.3852 18.0266 45.3121 18.1375C45.2746 18.3375 45.2871 18.425 45.3496 18.55C45.4371 18.6125 45.4246 18.675 45.4746 18.8C45.5371 18.675 45.5621 18.45 45.5871 18.3V18.275C45.5871 18.425 45.5871 18.625 45.5371 18.725C45.5371 18.9375 45.5996 19.025 45.6496 19.175C45.6996 19.2625 45.7496 19.3 45.8121 19.35C45.8121 19.15 45.8746 19.025 45.8746 18.85C45.9246 18.975 45.9121 19.1625 45.9371 19.325C45.9496 19.4875 46.0121 19.6 46.0621 19.7375C46.1496 19.775 46.1746 19.925 46.1996 19.8125C46.2871 19.5625 46.2871 19.3 46.3371 19.05C46.3345 18.9048 46.3599 18.7605 46.4121 18.625L46.3371 19.0375C46.3371 18.9125 46.3621 18.725 46.4121 18.625V18.5875C46.4462 18.7733 46.4671 18.9612 46.4746 19.15C46.4746 19.3 46.4746 19.45 46.5121 19.6C46.6121 19.55 46.6871 19.425 46.7496 19.2875C46.8173 19.1528 46.9013 19.0268 46.9996 18.9125L46.7496 19.2875C46.8173 19.1528 46.9013 19.0268 46.9996 18.9125V18.875C46.9821 19.0327 46.9738 19.1913 46.9746 19.35C46.9746 19.5125 46.9746 19.7 47.0121 19.8125C47.0496 19.9875 47.0996 20.025 47.1121 20.2125C47.1121 20.3125 47.0871 20.425 47.1371 20.4625C47.2871 20.5 47.2871 20.425 47.2996 20.225C47.2996 20 47.3621 19.85 47.3746 19.6375C47.3746 19.375 47.4121 19.6625 47.4371 19.7625C47.4979 19.9094 47.5318 20.0661 47.5371 20.225C47.5371 20.325 47.5371 20.425 47.5746 20.475C47.6996 20.4125 47.7496 20.2625 47.8246 20.1875L48.0371 19.8375C48.2121 19.8125 48.1996 19.7375 48.1996 19.5375C48.1996 19.3625 48.1996 19.1875 48.2371 19.0375C48.2915 18.8902 48.3374 18.74 48.3746 18.5875C48.4371 18.55 48.4996 18.65 48.5371 18.725C48.6121 18.85 48.5996 19 48.5996 19.175C48.6424 19.3226 48.7011 19.4651 48.7746 19.6C48.8381 19.7227 48.918 19.8363 49.0121 19.9375C49.0371 20.0625 49.0371 20.25 49.0371 20.4C49.1621 20.25 49.1871 20.025 49.1996 19.8125C49.1746 19.6625 49.1746 19.4625 49.1371 19.3125C49.13 19.1723 49.1048 19.0337 49.0621 18.9C48.9621 18.85 48.9371 18.8 49.0371 18.65C49.1371 18.5625 49.2621 18.6125 49.4371 18.625C49.5246 18.725 49.5621 18.775 49.5621 18.975C49.5621 19.1625 49.5621 19.3 49.6371 19.425C49.6996 19.525 49.7621 19.6 49.7996 19.7625C49.8496 19.825 49.8871 19.8875 49.9621 19.8125C49.9996 19.7125 50.0371 19.5 50.0621 19.3875C50.0996 19.2625 50.1621 19.1875 50.2246 19.1375C50.2246 19.3375 50.2246 19.45 50.2996 19.6L50.4621 19.975C50.5371 20.0375 50.5496 20.1375 50.6371 20.1875C50.6621 20.025 50.6621 19.8375 50.6621 19.6375V19.1375C50.6746 18.9875 50.7121 18.8875 50.7746 18.7625C50.8746 18.9 50.8746 18.95 50.8746 19.1375C50.9746 19.1 50.9996 19.025 51.0371 18.9C51.0996 18.825 51.1371 18.8 51.1621 18.975L51.2621 19.4875C51.3246 19.575 51.4121 19.7625 51.4871 19.8375C51.5475 19.9406 51.6187 20.037 51.6996 20.125C51.7496 20.225 51.7621 20.3 51.8996 20.325C51.8996 20.1 51.8996 19.8625 51.8621 19.6375C51.8621 19.4375 51.8121 19.3625 51.7996 19.175C51.7371 19.0625 51.7121 18.8875 51.7246 18.825C51.861 18.9399 51.9681 19.0856 52.0371 19.25L52.2371 19.7125C52.3318 19.8161 52.4156 19.9292 52.4871 20.05C52.6121 20.15 52.6746 20.2625 52.7996 20.3625C52.8621 20.425 52.9996 20.4625 53.0246 20.425C53.0246 20.225 52.9871 20.05 52.9246 19.875C52.9242 19.7315 52.8899 19.5902 52.8246 19.4625C52.6996 19.35 52.5871 19.275 52.5246 19.1125C52.4746 19.0625 52.4746 19.0375 52.4621 18.9375C52.6362 19.0799 52.7915 19.2437 52.9246 19.425C52.9925 19.5312 53.0874 19.6174 53.1996 19.675C53.2496 19.75 53.4496 19.8375 53.5871 19.875C53.6707 19.9838 53.7904 20.0592 53.9246 20.0875L53.5871 19.875C53.6707 19.9838 53.7904 20.0592 53.9246 20.0875V20.125C53.9016 19.9247 53.8332 19.7323 53.7246 19.5625C53.657 19.4111 53.5488 19.2813 53.4121 19.1875C53.3304 19.0588 53.219 18.9516 53.0871 18.875C52.9996 18.775 52.8621 18.5875 52.7871 18.525C52.9371 18.425 53.0996 18.5875 53.2496 18.65C53.3871 18.8 53.4996 18.9875 53.5871 19.075C53.6671 19.2442 53.7725 19.4001 53.8996 19.5375C54.0371 19.6125 54.1246 19.7 54.2496 19.8125C54.4621 19.8625 54.3746 19.7875 54.3246 19.6375C54.2496 19.4375 54.3246 19.4375 54.4496 19.5625C54.5496 19.6375 54.6621 19.7375 54.7871 19.8125C54.8496 19.875 54.9371 19.9375 55.0121 19.875C55.0621 19.825 55.0621 19.825 55.0621 19.775C54.9871 19.55 54.9121 19.4 54.7496 19.325C54.6746 19.2125 54.5496 19.1125 54.4496 19.0125L54.2496 18.725L54.4621 19C54.3871 18.9 54.3121 18.85 54.2496 18.725H54.2246C54.4246 18.725 54.4996 18.7875 54.6496 18.875C54.7717 18.9276 54.8759 19.0144 54.9496 19.125C55.0121 19.2 55.1246 19.2875 55.1996 19.3875L55.5121 19.6375C55.6371 19.775 55.6371 19.875 55.6371 20.0875C55.7246 20.1875 55.7246 20.3875 55.7621 20.5C55.7246 20.7 55.6621 20.5375 55.6371 20.425C55.6371 20.275 55.5621 20.2875 55.4496 20.325C55.4496 20.5375 55.4746 20.5875 55.5496 20.75C55.5337 20.8704 55.491 20.9857 55.4246 21.0875C55.3371 21.1375 55.3246 20.9875 55.2496 20.925C55.2496 20.7125 55.1871 20.675 55.0496 20.575V20.7125C55.1246 20.8625 55.2121 20.9875 55.2246 21.2C55.2733 21.3448 55.2945 21.4974 55.2871 21.65C55.2871 21.825 55.2871 21.9875 55.2496 22.15L55.2246 22.5875V23.5625C55.1978 23.711 55.1853 23.8616 55.1871 24.0125L55.2246 23.5625C55.1996 23.6875 55.1871 23.8375 55.1871 24.0125V24.05C55.1246 23.875 55.0621 23.725 55.0121 23.5375C54.9131 23.4333 54.8365 23.3099 54.7871 23.175L54.7246 22.7375C54.6746 22.6125 54.6246 22.4875 54.5121 22.5625C54.4746 22.8125 54.5371 22.9625 54.6246 23.2125C54.6746 23.375 54.6746 23.5125 54.7246 23.675C54.7996 23.85 54.8621 23.875 54.7246 24.075C54.6496 24.2 54.6246 24.225 54.5996 24.3625C54.4746 24.425 54.4371 24.4625 54.4246 24.6125C54.3871 24.475 54.2871 24.3125 54.2246 24.1625L54.0621 23.6625C53.9746 23.5375 53.8871 23.3625 53.7996 23.2875C53.6996 23.175 53.5871 22.975 53.5246 22.875C53.3996 22.725 53.3621 22.625 53.2496 22.5625C53.2371 22.4875 53.1996 22.4 53.1246 22.4625C53.1246 22.625 53.1246 22.8 53.1621 22.9375C53.1996 23.1375 53.2496 23.25 53.2621 23.45V23.8375C53.1871 23.6375 53.0871 23.475 53.0246 23.2875C52.9496 23.175 52.8996 22.975 52.7996 22.9125C52.7371 22.7625 52.6996 22.6625 52.6246 22.5625C52.6121 22.4625 52.5621 22.4625 52.5246 22.3875C52.5246 22.575 52.5871 22.65 52.6246 22.8C52.6875 22.9323 52.7134 23.0792 52.6996 23.225C52.6121 22.975 52.5371 22.7125 52.4246 22.4875C52.3246 22.35 52.2246 22.1625 52.1746 22.025C52.0621 21.9125 51.9621 21.9 51.8621 21.825C51.7741 21.7856 51.697 21.7255 51.6371 21.65C51.6496 21.8375 51.7246 21.9625 51.7621 22.1C51.7871 22.275 51.8746 22.4125 51.8996 22.5625C51.8621 22.8 51.7996 22.4875 51.7746 22.3875C51.7459 22.2392 51.6863 22.0987 51.5996 21.975C51.4996 21.9 51.4371 21.7875 51.3246 21.725C51.2246 21.6875 51.2621 21.725 51.2621 21.85C51.2621 22.075 51.2621 22.225 51.3246 22.35C51.3996 22.45 51.3996 22.575 51.3996 22.7625C51.3996 22.9375 51.3621 23.075 51.3621 23.2625V23.525C51.2871 23.3875 51.2121 23.2875 51.1621 23.1125C51.0496 22.95 51.0121 22.8375 50.9371 22.6625C50.8621 22.625 50.7246 22.6 50.6621 22.6625C50.6746 22.8375 50.7621 22.9125 50.7746 23.1125C50.6371 23.2375 50.6496 23.2875 50.5621 23.075C50.4996 22.9125 50.3996 22.925 50.2996 22.825C50.1371 22.825 50.1871 22.7 50.1371 22.55C50.1371 22.425 50.1371 22.2875 50.0996 22.175C49.9121 22.175 49.8121 22.175 49.6996 22.275C49.6496 22.375 49.6746 22.575 49.6996 22.7375V23.2125C49.6621 23.3375 49.5996 23.3375 49.5746 23.5C49.4996 23.6375 49.4871 23.8 49.4371 23.9C49.3121 24.025 49.3621 24.025 49.3121 23.8375V22.7125L49.3371 22.275C49.2746 22.1375 49.2496 22.1 49.0246 22.1C48.9871 22.1875 49.0121 22.35 49.0246 22.45C49.0246 22.625 49.0496 22.7875 49.0621 22.9C49.0621 23.0875 49.0871 23.2 49.0996 23.35C49.0996 23.5375 49.0621 23.675 48.9746 23.7625C48.8496 23.8 48.9496 23.8875 48.8371 23.9125C48.7004 23.8482 48.574 23.7639 48.4621 23.6625C48.3371 23.625 48.2121 23.6 48.0371 23.6C47.8121 23.6 47.8121 23.5625 47.7371 23.4C47.6786 23.2166 47.6368 23.0284 47.6121 22.8375C47.5246 22.675 47.5121 22.5625 47.4871 22.375C47.4398 22.2742 47.3664 22.1879 47.2746 22.125C47.2246 22.3125 47.1746 22.4625 47.1746 22.6625C47.1371 22.7375 47.1246 22.95 47.1121 23.0375C47.0371 22.9375 47.0121 22.7375 46.9746 22.5875C46.9121 22.3875 46.8496 22.25 46.6371 22.3125C46.4246 22.3125 46.4121 22.3125 46.4121 22.5625L46.6621 22.9625V23.4625C46.6621 23.6625 46.6871 23.7125 46.5371 23.7625C46.4726 23.5505 46.371 23.3516 46.2371 23.175C46.2246 23.05 46.1871 23.075 46.0371 23.075C45.9496 23.075 45.8621 23.0625 45.8121 23.1125V23.4125C45.7246 23.4375 45.6996 23.4125 45.6496 23.35C45.5871 23.45 45.6371 23.6 45.6496 23.725C45.6194 23.863 45.5644 23.9943 45.4871 24.1125C45.4621 24.0625 45.4246 24.0875 45.4871 24.0875L44.8621 23.8875C44.7621 23.8875 44.6746 24 44.6121 24.0875C44.4371 24.1375 44.3621 24.1875 44.1746 24.1875C43.9996 24.1875 43.9121 24.225 43.7496 24.225C43.6246 24.25 43.4746 24.2625 43.3121 24.2625C43.2246 24.225 43.0621 24.225 43.0121 24.1875C43.0871 24.0875 43.1621 24.0375 43.2246 23.8875C43.315 23.8116 43.3987 23.7279 43.4746 23.6375L43.7496 23.35C43.7996 23.175 43.8746 23.15 43.9871 23.075C44.1871 23.075 44.2121 23.15 44.4121 23.175C44.5996 23.25 44.7121 23.2875 44.8246 23.1375C44.9746 23.075 45.0996 22.9625 45.2746 22.9375L45.6121 22.7375C45.7621 22.6375 45.8121 22.55 45.9371 22.45C45.9746 22.3 46.0871 22.2 46.0371 22.0375C45.8621 21.9875 45.7496 22 45.6371 22.1C45.5121 22.225 45.4746 22.275 45.3121 22.375C45.1871 22.4125 45.0996 22.475 44.9371 22.525C44.8121 22.575 44.6371 22.55 44.4871 22.55C44.3371 22.55 44.1371 22.55 44.0496 22.5875C44.1913 22.4828 44.347 22.3987 44.5121 22.3375C44.6371 22.25 44.6996 22.2125 44.8871 22.2125C44.9621 22.1 45.0496 22.1 45.0871 21.925C45.1371 21.725 44.9621 21.7875 44.8121 21.8625C44.6871 21.8875 44.5246 21.9875 44.4121 22.025C44.2749 22.0709 44.1317 22.0961 43.9871 22.1C43.9371 22.0375 44.0121 21.9875 44.0496 21.9C44.1996 21.8375 44.2246 21.8125 44.2496 21.65C44.0746 21.675 43.9996 21.7375 43.8371 21.75C43.6746 21.8 43.4996 21.8125 43.3121 21.825H42.8496C42.6871 21.825 42.5996 21.7875 42.4121 21.7875C42.2871 21.7125 42.2871 21.6875 42.2871 21.475C42.3871 21.35 42.4871 21.375 42.6871 21.375L43.0496 21.2C43.1746 21.175 43.2496 21.125 43.2246 21.0625H42.7496C42.5621 20.975 42.7496 20.95 42.8496 20.8875C43.0121 20.8875 43.1746 20.8875 43.2871 20.95C43.4871 20.95 43.5621 20.875 43.7246 20.75C43.8496 20.65 43.8996 20.575 44.0496 20.5C44.1496 20.3875 44.2496 20.325 44.2996 20.225C44.4496 20.1 44.5496 20.025 44.6121 19.9125C44.6996 19.8625 44.7621 19.8125 44.7121 19.7375C44.4996 19.7625 44.4121 19.8375 44.2746 19.9375C44.2034 20.0214 44.1189 20.0932 44.0246 20.15C43.8957 20.2401 43.7441 20.292 43.5871 20.3C43.4121 20.3 43.2871 20.2625 43.1121 20.2625C42.9371 20.2375 43.0996 20.2 43.1496 20.1125C43.2246 20.075 43.2746 19.9625 43.2246 19.875C43.0746 19.825 42.9121 19.8375 42.7496 19.8375H42.2871C42.1121 19.8375 42.0371 19.8 41.9121 19.7375C41.8871 19.6375 41.9121 19.6625 42.0371 19.6625C42.1891 19.6603 42.3403 19.6394 42.4871 19.6C42.6371 19.55 42.6621 19.4875 42.6871 19.325C42.5246 19.325 42.3496 19.325 42.2496 19.2875H41.9496ZM39.0746 18.5C39.0371 18.25 38.9871 18.1125 38.9746 17.85C38.9746 17.675 38.9746 17.775 39.1621 17.5125C39.1871 17.5125 39.3121 17.3875 39.4496 17.2625C39.6246 17.175 39.7871 17.0625 39.9496 16.9625C40.0871 16.9 40.3621 16.8375 40.4746 16.775C40.6434 16.6958 40.7927 16.5806 40.9121 16.4375C40.9121 16.2125 40.9496 16.05 40.9496 15.8L41.4621 15.55C41.7121 15.475 41.7496 15.3875 41.9871 15.35C42.1371 15.3 42.3871 15.3 42.5996 15.3C42.8371 15.3 42.9746 15.475 43.1871 15.5C43.4371 15.6 43.5621 15.675 43.7496 15.85C43.8621 15.9875 43.9371 16.1 44.1246 16.2125C44.2746 16.3 44.4246 16.4125 44.5996 16.4625C44.5996 16.6375 44.6371 16.6125 44.5121 16.6125C44.4871 16.7875 44.4496 16.7875 44.2746 16.7875C44.1529 16.7228 44.0497 16.6281 43.9746 16.5125C44.0496 16.325 43.9996 16.65 43.9746 16.7125C43.8871 16.7875 43.8496 16.85 43.7496 16.7875C43.6871 16.6125 43.6496 16.5 43.6496 16.2875C43.6121 16.075 43.5621 16.2375 43.5246 16.325C43.4621 16.5125 43.4871 16.575 43.5496 16.7125L43.1121 16.6875C42.9871 16.65 42.8621 16.6875 42.7121 16.7375C42.5371 16.8625 42.5871 16.8625 42.6746 16.9875C42.8371 17.0375 42.9496 17.1125 43.0871 17.1875C43.2246 17.175 43.3871 17.125 43.5496 17.0875C43.7121 17.0375 43.8496 17.0875 44.0121 17.0875C44.0996 17.1375 44.1996 17.15 44.2496 17.1875C44.2496 17.3125 44.2496 17.4125 44.2121 17.475C44.1496 17.525 44.0871 17.65 43.9621 17.675C43.8223 17.7596 43.6706 17.8228 43.5121 17.8625C43.3121 17.8625 43.2246 17.9125 43.0746 17.9875C43.0621 18.175 42.9996 18.225 42.8371 18.275C42.6974 18.3456 42.5436 18.384 42.3871 18.3875C42.2871 18.3875 42.1871 18.3875 42.1496 18.3375C42.2611 18.2215 42.3501 18.0859 42.4121 17.9375C42.4496 17.8625 42.5121 17.8125 42.4496 17.75C42.2496 17.75 42.1996 17.75 42.1746 17.95C42.1621 18.15 42.0871 18.175 41.9496 18.2375C41.9871 18.075 41.9996 17.9375 42.0496 17.7875C41.9092 17.8118 41.7671 17.8244 41.6246 17.825C41.5246 17.9 41.4746 17.9125 41.5246 18.025C41.3871 18.075 41.2121 18.05 41.0496 18.025C40.9121 18.025 40.9871 17.9625 40.8871 17.9C40.8121 17.7625 40.7496 17.725 40.5871 17.725C40.5121 17.825 40.3746 17.85 40.2871 17.925C40.1371 17.975 40.0496 17.925 39.9121 17.8625C39.7621 17.8625 39.7871 17.9125 39.8121 18.0375C39.8871 18.075 39.8121 18.125 39.9246 18.1375C40.0246 18.225 40.0996 18.2375 40.2871 18.2375C40.4246 18.2125 40.5871 18.2125 40.7496 18.2125C40.9121 18.2125 40.8871 18.25 40.8871 18.4125C40.7871 18.5 40.6246 18.4875 40.4496 18.4875C40.3127 18.4706 40.1784 18.437 40.0496 18.3875C39.8996 18.375 39.7746 18.3375 39.6496 18.3875C39.5996 18.45 39.4496 18.4625 39.6246 18.4875C39.6996 18.55 40.0871 18.5125 40.0996 18.6375C40.1996 18.7375 40.1746 18.875 40.0246 18.875C39.989 18.8528 39.9478 18.8411 39.9059 18.8411C39.8639 18.8411 39.8228 18.8528 39.7871 18.875L39.3496 18.8875C39.5996 18.9125 39.1621 18.6125 39.0746 18.5Z" fill="#FEFEFE"/>
<path fill-rule="evenodd" clip-rule="evenodd" d="M40.1238 17.3375L39.9238 17.475C39.7847 17.5579 39.6511 17.6498 39.5238 17.75C39.4488 17.8125 39.4488 17.85 39.3613 17.85C39.5113 17.8375 39.5863 17.7875 39.7363 17.725C39.8988 17.7 40.0613 17.6625 40.1488 17.575C40.2488 17.55 40.1488 17.4125 40.1238 17.325V17.3375ZM41.6488 15.7125C41.6738 15.7125 41.7113 15.8 41.7738 15.875C41.8363 16 41.8863 16.1 41.8863 16.2625C41.9238 16.0875 41.9863 15.9625 42.0113 15.775C41.9613 15.675 41.9613 15.65 41.8113 15.6375C41.8113 15.7375 41.8363 15.6625 41.6488 15.7V15.7125Z" fill="#BCBCBC"/>
<path fill-rule="evenodd" clip-rule="evenodd" d="M40.6341 17.1878C40.5589 17.1878 40.7545 17.109 40.8298 17.0933C40.89 16.9673 40.9201 16.8885 41.0254 16.8098C41.191 16.8098 41.2813 16.8728 41.3565 16.983C41.507 17.0303 41.5522 17.0933 41.7177 17.1248C41.793 17.1878 41.8682 17.1878 41.7177 17.235C41.6274 17.2823 41.492 17.298 41.3264 17.298C41.1905 17.3087 41.0578 17.3461 40.9351 17.4083C40.7094 17.4083 40.7395 17.4083 40.6341 17.1878Z" fill="#C4C4C2" stroke="black" stroke-width="0.138564"/>
<path fill-rule="evenodd" clip-rule="evenodd" d="M42.25 15.7375V15.775C42.25 15.675 42.25 15.725 42.2875 15.9C42.3375 16.025 42.35 16.15 42.35 16.3375C42.4486 16.2552 42.5222 16.1469 42.5625 16.025C42.5625 15.75 42.5125 15.75 42.25 15.7375ZM43.475 19.7375H43.5125C43.4125 19.7375 43.475 19.7375 43.6375 19.6375C43.7625 19.55 43.85 19.4375 44.0125 19.3875C44.1373 19.2783 44.2814 19.1935 44.4375 19.1375C44.525 19.1 44.6 19.05 44.6875 19.1C44.6625 19.275 44.625 19.35 44.475 19.425C44.4 19.525 44.2875 19.5875 44.175 19.625C44.075 19.675 43.95 19.6875 43.9125 19.8125C43.725 19.8875 43.7125 19.875 43.4875 19.7375H43.475ZM44.1125 20.7375L44.4875 20.4C44.5768 20.267 44.6865 20.1488 44.8125 20.05C44.9125 19.9 45.0375 19.8 45.1125 19.675L45.375 19.325C45.375 19.475 45.3625 19.675 45.4125 19.7625C45.4245 19.9111 45.3895 20.0598 45.3125 20.1875C45.2375 20.3125 45.1875 20.3875 45 20.475C44.8625 20.55 44.7625 20.575 44.65 20.675C44.5499 20.7403 44.4455 20.7988 44.3375 20.85C44.25 20.8875 44.2875 20.875 44.1125 20.75V20.7375ZM43.075 21.5375H43.1125C43.0125 21.5375 43.0625 21.55 43.25 21.4375C43.3875 21.3 43.5 21.2375 43.675 21.1625C43.8179 21.1576 43.9582 21.1235 44.0875 21.0625C44.1625 21.0375 44.2125 20.9875 44.275 21.0625C44.3875 21.2 44.4125 21.25 44.25 21.3375C44.1503 21.4177 44.0355 21.4772 43.9125 21.5125C43.8375 21.5875 43.6625 21.5875 43.5 21.6125C43.375 21.6125 43.3 21.6375 43.25 21.5375L43.5125 21.6125C43.3875 21.6125 43.3125 21.6375 43.075 21.5375ZM44.5 21.5375V21.5125C44.5 21.6125 44.5 21.5625 44.575 21.3625C44.7 21.175 44.75 21.0625 44.9125 21.025C44.9875 20.925 45.1125 20.9 45.2875 20.85C45.3375 20.95 45.2875 21.075 45.2875 21.2C45.2375 21.325 45.1125 21.4125 45.0375 21.5125C44.9375 21.5875 44.9125 21.65 44.7375 21.6875C44.6125 21.6875 44.6875 21.6875 44.5125 21.5375H44.5Z" fill="#BCBCBC"/>
<path fill-rule="evenodd" clip-rule="evenodd" d="M41.2496 17.025C41.2496 17.125 41.1871 17.2 41.0871 17.2C40.9871 17.2 40.9121 17.125 40.9121 17.025C40.9121 16.925 40.9996 16.85 41.0871 16.85C41.1871 16.85 41.2496 16.925 41.2496 17.025Z" fill="black"/>
<path fill-rule="evenodd" clip-rule="evenodd" d="M41.659 26.787H41.7944C41.373 26.787 41.6289 26.7555 42.3212 27.3382C42.6222 27.0862 42.6222 27.0547 42.8479 27.4957C42.9984 27.732 43.0285 27.4642 43.2543 27.2122C43.3596 27.7162 43.4198 28.236 43.781 27.7635C44.2024 27.7635 44.6238 27.732 44.8496 27.9052C45.1205 28.425 45.0302 27.8107 45.2409 28.047C45.8429 28.11 45.8278 27.5115 46.4599 27.354C46.8512 27.8737 47.0318 27.48 47.5134 27.228C47.8897 27.3225 48.2358 27.9052 48.3111 27.3382C48.6121 26.8342 48.6271 26.8657 48.8378 27.3382C49.1388 27.6217 49.2592 27.2122 49.5 27.0705C49.9515 27.3382 50.4482 27.3855 51.0953 27.2122C51.2157 27.669 51.4866 27.4642 51.7726 27.3382C52.3595 27.606 52.5552 27.6847 53.2324 27.3382C53.5635 26.9287 53.3829 27.354 53.6237 27.6217C54.1204 27.4642 53.9849 27.4327 54.5568 27.48C55.1438 27.48 55.1889 27.48 55.3545 27.0705C55.6555 27.3697 55.7458 27.5902 56.1521 27.2122C56.7842 27.2122 56.5886 27.291 56.9498 27.0547C57.2357 27.6847 57.2959 27.2437 57.627 27.48C57.4409 27.9452 57.1128 28.3329 56.6939 28.5825C56.4381 29.055 56.2725 29.5275 55.7608 29.7165C55.3846 30.1102 54.9782 30.3465 54.5568 30.693C53.9849 30.8505 53.3528 30.819 52.7057 30.819H47.1071C46.7158 31.0395 46.0536 31.134 45.5118 31.2442C44.9098 31.2442 44.2024 31.2442 43.781 31.1025C43.4951 30.8032 42.9984 30.4725 42.7275 30.126C42.4265 29.8897 42.4265 29.433 42.1857 29.1495C41.975 28.7557 41.8847 28.1257 41.659 27.7635V26.787Z" fill="#005120" stroke="#002B0D" stroke-width="0.20528"/>
<path fill-rule="evenodd" clip-rule="evenodd" d="M54.5572 28.047V28.173C54.5572 27.795 54.5723 27.9997 54.2863 28.74C54.2412 28.9132 54.1057 28.9605 53.895 29.0235M53.3683 28.5982H53.5037C53.0071 29.0707 52.676 29.307 52.5706 29.8582L53.5037 28.5982C53.0071 29.0707 52.676 29.307 52.5706 29.8582M51.5021 27.9052C51.5021 27.9052 51.487 28.3935 51.3666 28.5982L51.5021 27.9052ZM49.9068 28.047H50.0422H49.8917C49.9519 28.047 49.9971 28.047 49.8917 28.047H49.9068ZM42.457 28.047C42.5172 28.047 42.7881 28.488 43.1192 28.74C43.044 29.1495 42.9085 29.622 43.1192 30M43.5256 28.8817C43.5858 28.8817 43.8416 29.3227 44.1878 29.5747L43.5256 28.8817C43.5858 28.8817 43.8416 29.3227 44.1878 29.5747V29.7165C44.1878 29.2755 44.1577 28.8345 44.3232 28.5982C44.4737 28.866 44.6543 29.2755 44.7145 28.8817C45.467 28.8502 45.8282 28.6297 46.3098 28.4565C46.3098 28.6612 46.2797 28.5667 46.4603 28.74M55.4903 28.173H55.6258C55.3699 28.3935 55.1743 28.8502 54.9636 29.1495M50.0422 27.7635H51.0957H50.0422Z" fill="#005120"/>
<path d="M54.5572 28.047V28.173C54.5572 27.795 54.5723 27.9997 54.2863 28.74C54.2412 28.9132 54.1057 28.9605 53.895 29.0235M53.3683 28.5982H53.5037M53.5037 28.5982C53.0071 29.0707 52.676 29.307 52.5706 29.8582L53.5037 28.5982ZM51.5021 27.9052C51.5021 27.9052 51.487 28.3935 51.3666 28.5982M50.9753 28.8817V29.0077M49.8917 28.047H50.0422H49.9068H49.8917ZM49.8917 28.047C49.9519 28.047 49.9971 28.047 49.8917 28.047ZM42.457 28.047C42.5172 28.047 42.7881 28.488 43.1192 28.74C43.044 29.1495 42.9085 29.622 43.1192 30M44.1878 29.5747C43.8416 29.3227 43.5858 28.8817 43.5256 28.8817L44.1878 29.5747ZM44.1878 29.5747V29.7165C44.1878 29.2755 44.1577 28.8345 44.3232 28.5982C44.4737 28.866 44.6543 29.2755 44.7145 28.8817C45.467 28.8502 45.8282 28.6297 46.3098 28.4565C46.3098 28.6612 46.2797 28.5667 46.4603 28.74M55.4903 28.173H55.6258C55.3699 28.3935 55.1743 28.8502 54.9636 29.1495M50.0422 27.7635H51.0957" stroke="#002B0D" stroke-width="0.20528"/>
<path fill-rule="evenodd" clip-rule="evenodd" d="M41.3367 28.75C39.7367 28.75 39.2117 30.425 37.6117 30.425H37.5117V30.525C37.5117 31.6875 37.5992 32.775 37.7617 33.775C39.2492 33.675 39.7867 32.1 41.3367 32.1C42.9367 32.1 43.4742 33.775 45.0742 33.775C46.6742 33.775 47.1992 32.1 48.7992 32.1C50.3992 32.1 50.9367 33.775 52.5492 33.775C54.1367 33.775 54.6742 32.1 56.2742 32.1C57.8117 32.1 58.3617 33.65 59.8367 33.7625C60.0156 32.6634 60.0993 31.551 60.0867 30.4375H59.9992C58.3992 30.4375 57.8742 28.7625 56.2742 28.7625C54.6742 28.7625 54.1242 30.4375 52.5367 30.4375C50.9492 30.4375 50.4117 28.7625 48.7992 28.7625C47.1992 28.7625 46.6742 30.4375 45.0742 30.4375C43.4867 30.4375 42.9367 28.7625 41.3242 28.7625L41.3367 28.75ZM41.3367 35.2875C40.0867 35.2875 39.4992 36.3 38.5367 36.7375C38.8555 37.6133 39.2529 38.4584 39.7242 39.2625C40.1757 38.878 40.7441 38.6577 41.3367 38.6375C42.9367 38.6375 43.4742 40.3125 45.0617 40.3125C46.6742 40.3125 47.1992 38.6375 48.8117 38.6375C50.3992 38.6375 50.9367 40.3125 52.5367 40.3125C54.1242 40.3125 54.6617 38.6375 56.2742 38.6375C56.8536 38.6567 57.4091 38.8728 57.8492 39.25C58.3199 38.4456 58.7173 37.6005 59.0367 36.725C58.0992 36.275 57.4992 35.2875 56.2742 35.2875C54.6742 35.2875 54.1242 36.95 52.5242 36.95C50.9367 36.95 50.3992 35.2875 48.7992 35.2875C47.1992 35.2875 46.6742 36.95 45.0617 36.95C43.4617 36.95 42.9367 35.2875 41.3367 35.2875ZM48.7992 41.8C47.1992 41.8 46.6742 43.4875 45.0742 43.4875C43.5617 43.4875 42.9992 41.9875 41.5867 41.825C43.1351 43.5201 44.9935 44.9033 47.0617 45.9C47.5617 45.5125 48.0617 46.3625 48.7867 46.3625C49.5367 46.3625 50.0367 45.5 50.5242 45.875C52.572 44.885 54.413 43.5149 55.9492 41.8375C54.5867 42.0375 54.0242 43.4875 52.5367 43.4875C50.9367 43.4875 50.4117 41.8125 48.7992 41.8125V41.8Z" fill="white"/>
<path d="M38.9414 36.163C39.4607 35.9783 39.9885 35.8206 40.5227 35.6907L42.9775 38.1625L40.9594 38.5876L38.9414 36.163Z" stroke="#512007" stroke-width="0.076991"/>
<path d="M43.7129 39.3806C43.7512 38.8121 44.8354 35.549 44.8354 35.549M44.0828 39.4177L44.9375 35.5737M44.3762 39.4301L45.0905 35.5737M43.7512 38.9109C43.9425 38.8121 44.491 38.6637 44.491 38.6637M44.019 38.3424C44.1976 38.3424 44.5675 38.1941 44.5675 38.1941M44.1211 37.9098C44.3029 37.8432 44.4908 37.7935 44.6823 37.7615M44.1976 37.3659L44.7972 37.2671M44.4655 36.8963C44.4655 36.9333 44.8737 36.9333 44.8737 36.9333M44.5675 36.476L44.9757 36.5378" stroke="#512007" stroke-width="0.0753386"/>
<path d="M50.2988 41.8732C50.2536 40.9006 48.9735 35.3186 48.9735 35.3186M49.8621 41.6829L48.8531 35.3397M49.4103 41.1966C49.3802 40.8372 48.6723 35.3609 48.6723 35.3609M50.2536 41.0698C50.0277 40.9006 49.3802 40.6469 49.3802 40.6469M49.9374 40.0971C49.7265 40.0971 49.2898 39.8434 49.2898 39.8434M49.8169 39.3571C49.6023 39.2432 49.3804 39.1582 49.1543 39.1034M49.7265 38.4268L49.0187 38.2576M49.4103 37.6233C49.4103 37.6867 48.9284 37.6867 48.9284 37.6867M49.2898 36.9044L48.8079 37.0101" stroke="#512007" stroke-width="0.0713783"/>
<path d="M54.0059 40.4392C53.9607 39.715 52.6806 35.5586 52.6806 35.5586M53.5691 40.2975L52.5601 35.5743M53.1173 39.9354C53.0872 39.6678 52.3794 35.5901 52.3794 35.5901M53.9607 39.841C53.7348 39.715 53.0872 39.5261 53.0872 39.5261M53.6444 39.1167C53.4336 39.1167 52.9968 38.9278 52.9968 38.9278M53.5239 38.5657C53.3093 38.4809 53.0874 38.4176 52.8613 38.3768M53.4336 37.873L52.7258 37.747M53.1173 37.2747C53.1173 37.3219 52.6354 37.3219 52.6354 37.3219M52.9968 36.7394L52.5149 36.8181" stroke="#512007" stroke-width="0.076991"/>
<path fill-rule="evenodd" clip-rule="evenodd" d="M48.3978 41.0122L48.5333 29.519C48.5333 29.519 48.9249 29.4718 48.9249 29.519C48.9249 29.5663 48.8797 40.9649 48.8345 41.0122C48.7894 41.0594 48.3526 41.0909 48.3978 41.0122ZM52.6899 30.0228L52.5995 39.6739L52.2983 40.0518L52.3887 30.0228H52.6899Z" fill="#DD8B59" stroke="#512007" stroke-width="0.076991"/>
<path fill-rule="evenodd" clip-rule="evenodd" d="M43.5347 39.1229C43.5347 39.1229 43.9865 43.8461 49.0165 43.7044C54.0465 43.5627 55.4471 38.9497 55.4471 38.9497L53.2634 38.8552C53.2182 38.8552 51.5165 41.0594 49.3177 41.0121C47.1189 40.9649 46.4262 40.4139 45.9443 39.9573C45.4623 39.485 45.0407 38.808 45.0407 38.808L42.4805 37.7531L42.6311 38.7608L43.5347 39.1229ZM57.1338 38.6505L56.9832 38.0208V37.4855L57.2242 36.9187C57.2242 36.9187 53.414 37.5012 53.414 37.5485L53.399 38.6191L57.1338 38.6348V38.6505Z" fill="#DD8B59" stroke="#512007" stroke-width="0.076991"/>
<path d="M43.3691 39.0756C43.5047 39.0756 44.5137 39.3118 44.5137 39.3118L45.5679 40.776M56.4111 37.4855L56.3207 38.4301H56.9382L56.893 37.4855H56.4111ZM55.7635 37.5327L55.7183 38.5403L56.1099 38.4931L56.1551 37.5327H55.7635ZM55.1009 38.5403V37.7531L55.4924 37.6114L55.5376 38.3986L55.1009 38.5403ZM54.3479 38.4931L54.4382 37.8004L54.89 37.8476L54.9202 38.5876L54.3479 38.4931ZM53.5196 38.4931L53.5648 37.8948L54.0166 37.8476V38.5403L53.5196 38.4931Z" stroke="#512007" stroke-width="0.076991"/>
<path d="M44.1055 39.2646C44.1506 39.3118 45.0241 42.3819 49.2259 42.3819C53.4276 42.3819 54.4366 38.9025 54.4366 38.9025" stroke="#512007" stroke-width="0.076991"/>
<path d="M55.1006 38.9969C55.1006 38.9969 53.0826 43.5627 49.2272 43.2478C45.3869 42.9329 44.7694 41.4215 44.4682 40.6343C44.167 39.8471 43.9863 39.2174 43.9863 39.2174" stroke="#512007" stroke-width="0.076991"/>
<path fill-rule="evenodd" clip-rule="evenodd" d="M45.0702 38.808C45.1154 38.5404 45.1154 30.2433 45.1154 30.2433L44.8594 30.2118L44.8142 38.6663L45.0702 38.8238V38.808ZM38.8203 36.1158L42.1335 37.8004L42.0582 38.0366C42.0582 38.0366 38.8655 36.4622 38.8655 36.4149C38.8655 36.3677 38.8956 36.1788 38.8203 36.1V36.1158Z" fill="#DD8B59" stroke="#512007" stroke-width="0.076991"/>
<path fill-rule="evenodd" clip-rule="evenodd" d="M40.3418 35.612C40.3418 35.7379 40.8237 38.5404 40.8237 38.5404C40.8237 38.5404 41.1249 38.5876 41.1249 38.5404L40.6129 35.6592L40.3418 35.612ZM43.414 35.6907C43.5797 35.6907 46.5766 35.1869 46.5766 35.1869L46.5164 35.6907L43.5797 36.0056L43.414 35.6907Z" fill="#DD8B59" stroke="#512007" stroke-width="0.076991"/>
<path fill-rule="evenodd" clip-rule="evenodd" d="M43.8359 31.8964C43.9414 31.8964 44.8901 32.4002 45.2968 32.2743C45.7034 32.1483 45.4323 31.8019 45.5076 31.8019C45.598 31.8019 45.8992 32.0381 46.0799 31.8492C46.2606 31.676 46.3811 31.1249 46.3058 31.1722C46.2154 31.2194 43.8962 32.0853 43.851 31.8964H43.8359Z" fill="#FECF3E" stroke="#512007" stroke-width="0.076991"/>
<path fill-rule="evenodd" clip-rule="evenodd" d="M43.459 33.0457C43.6246 33.0929 47.0433 32.0853 47.0433 32.0853C47.0433 32.0853 47.0433 32.4002 46.9981 32.4002L43.459 33.3606V33.0457Z" fill="#DD8B59" stroke="#512007" stroke-width="0.076991"/>
<path fill-rule="evenodd" clip-rule="evenodd" d="M51.3645 31.6287C51.3645 31.6287 51.5904 32.1798 51.8163 32.0853C52.0422 31.9909 52.2531 31.8019 52.2531 31.8019C52.2531 31.8019 52.4338 32.2743 52.735 32.1798C53.0362 32.0853 53.2169 31.5815 53.2169 31.5815C53.2169 31.5815 53.5181 31.676 53.6536 31.6287C53.7892 31.5815 53.9548 30.8416 53.9548 30.8416L51.3645 31.6287ZM51.1085 36.0686C51.0633 36.163 51.3344 36.3834 51.5603 36.3834C51.7862 36.3834 51.8615 36.0686 51.9067 36.163C51.9519 36.2417 51.9519 36.6668 52.5091 36.5251C53.0663 36.3834 53.0814 35.9741 53.0814 35.9741C53.0814 35.9741 52.9157 36.1158 53.3073 36.163C53.6988 36.2103 54.0904 35.5647 54.0603 35.5647C54 35.5647 51.1989 36.1158 51.1085 36.0686Z" fill="#FECF3E" stroke="#512007" stroke-width="0.076991"/>
<path fill-rule="evenodd" clip-rule="evenodd" d="M43.5934 31.7074C43.5659 31.8493 43.5763 31.9964 43.6235 32.1325L46.4849 31.1249C46.4849 31.1249 46.6054 30.8888 46.4849 30.8888C46.3645 30.8888 43.5482 31.8019 43.5784 31.7232L43.5934 31.7074ZM47.3584 31.0777C47.4337 31.0777 50.2801 30.1173 50.2801 30.1173C50.2801 30.1173 50.3252 30.5267 50.2801 30.5267L47.6144 31.3453L47.3434 31.0777H47.3584Z" fill="#DD8B59" stroke="#512007" stroke-width="0.076991"/>
<path fill-rule="evenodd" clip-rule="evenodd" d="M51.1085 33.093C51.1085 33.093 50.6718 33.5968 50.8073 34.2738C50.9429 34.9665 51.1085 35.5648 51.1537 35.5648C51.1989 35.5648 51.6808 34.6516 52.2079 34.6044C52.735 34.5571 53.6989 35.1082 53.6989 35.1082C53.6989 35.1082 53.5633 34.0061 53.6085 33.5023C53.6537 32.9985 54.3916 32.1326 54.3916 32.1326L51.1085 33.0772V33.093Z" fill="#FECF3E" stroke="#512007" stroke-width="0.076991"/>
<path fill-rule="evenodd" clip-rule="evenodd" d="M47.134 32.2585C47.134 32.2585 47.0436 32.6836 47.0888 32.6836L50.8086 31.676V31.3768L47.134 32.2428V32.2585Z" fill="#DD8B59" stroke="#512007" stroke-width="0.076991"/>
<path fill-rule="evenodd" clip-rule="evenodd" d="M42.4042 37.8003C42.4042 37.8003 41.5307 37.6744 41.5759 37.8948C41.6211 38.131 42.0127 38.3514 42.0578 38.4931C42.103 38.6348 41.9223 39.1228 42.1934 39.0914C42.4494 39.0441 42.7054 38.8552 42.7054 38.7135L42.6602 37.9263L42.4042 37.8003Z" fill="#B6B6B4" stroke="#512007" stroke-width="0.076991"/>
<path fill-rule="evenodd" clip-rule="evenodd" d="M47.2695 35.5175V35.8324L50.4171 35.3758L50.3267 35.1396L47.2695 35.5175Z" fill="#DD8B59" stroke="#512007" stroke-width="0.076991"/>
<path fill-rule="evenodd" clip-rule="evenodd" d="M43.5345 36.0685C43.5948 36.0685 43.5345 36.4779 43.896 36.3834C44.2424 36.2889 44.3327 36.0685 44.3327 36.0685C44.3327 36.0685 44.4231 36.5723 44.905 36.5251C45.3869 36.4779 45.658 35.9268 45.658 35.9268C45.658 35.9268 45.6881 36.3362 45.9893 36.1945C46.2905 36.0528 46.3809 35.7379 46.3809 35.7379L43.6249 36.1472L43.5345 36.0685ZM43.5345 33.3605C43.5345 33.3605 43.143 33.5023 43.2785 34.3209C43.4141 35.1396 43.7303 35.6119 43.7604 35.6119C43.8056 35.6119 44.152 34.8247 44.6791 34.6988C45.2062 34.5413 46.1249 35.1081 46.1249 35.1081C46.1249 35.1081 46.0345 34.3682 46.17 33.6912C46.2667 33.2503 46.463 32.84 46.7423 32.4946C46.7423 32.4946 43.6701 33.3605 43.5496 33.3605H43.5345Z" fill="#FECF3E" stroke="#512007" stroke-width="0.076991"/>
<path fill-rule="evenodd" clip-rule="evenodd" d="M50.8987 35.7379L50.9439 36.0213C50.9439 36.0213 54.1065 35.612 54.1065 35.549C54.1065 35.5175 54.1065 35.2341 54.0462 35.2341C54.0011 35.2341 50.9439 35.7852 50.8836 35.7379H50.8987ZM50.8535 32.8096L50.8987 33.1244L54.6185 32.0853C54.6185 32.0853 54.7089 31.8019 54.6637 31.8019C54.6185 31.8019 50.9439 32.9512 50.8535 32.8096Z" fill="#DD8B59" stroke="#512007" stroke-width="0.076991"/>
<path d="M57.0729 36.6511L54.3621 32.1798M54.0007 35.2813C54.0458 35.1554 54.1814 32.4002 54.1814 32.4002M51.2447 31.3453C51.2447 31.3453 51.1995 31.6287 51.2447 31.6287C51.2899 31.6287 54.0007 30.936 54.0007 30.8887C54.0007 30.8415 54.2717 30.5739 54.0458 30.6211C53.835 30.6683 51.335 31.487 51.2447 31.3453Z" stroke="#512007" stroke-width="0.076991"/>
<path fill-rule="evenodd" clip-rule="evenodd" d="M47.4496 31.2194C47.6002 31.2509 47.9165 31.7232 48.0972 31.6287C48.2779 31.5343 48.534 31.2509 48.534 31.2509C48.534 31.2509 48.4888 31.8019 48.8352 31.7232C49.1966 31.6287 49.2418 31.2509 49.2418 31.2509C49.2418 31.2509 49.4978 31.4083 49.7237 31.2509C49.9345 31.1249 50.1454 30.4322 50.0701 30.4322C49.9948 30.4322 47.5249 31.2509 47.4346 31.2194H47.4496ZM47.3593 32.5419C47.3593 32.6364 46.9075 33.3606 47.0581 34.0533C47.2087 34.746 47.4346 35.3758 47.4798 35.3758C47.5249 35.3758 48.1876 34.6516 48.7599 34.5099C49.3171 34.3682 50.1604 34.9665 50.1153 34.9665C50.0701 34.9665 49.8894 34.2737 49.8894 33.7699C49.8894 33.2661 50.552 31.7232 50.552 31.7232L47.3593 32.5419ZM47.3593 35.8481C47.3593 35.8796 47.4798 36.1945 47.796 36.1945C48.0972 36.1945 48.1424 35.8796 48.1424 35.8796C48.1424 35.8796 48.0972 36.4307 48.5791 36.3834C49.0611 36.3362 49.2267 35.8324 49.2267 35.8324C49.2267 35.8324 49.2719 36.1158 49.6785 35.9741C50.0701 35.8324 50.5821 35.3758 50.552 35.3758C50.5068 35.3758 47.3894 35.9741 47.3442 35.8481H47.3593Z" fill="#FECF3E" stroke="#512007" stroke-width="0.076991"/>
<path fill-rule="evenodd" clip-rule="evenodd" d="M47.7146 33.4085C47.7765 33.4111 47.8349 33.4394 47.877 33.4871C47.9191 33.5347 47.9414 33.5979 47.939 33.6628C47.9365 33.7276 47.9096 33.7887 47.8641 33.8327C47.8186 33.8767 47.7583 33.9 47.6964 33.8974C47.6344 33.8948 47.576 33.8665 47.5339 33.8189C47.4919 33.7712 47.4696 33.708 47.472 33.6432C47.4744 33.5783 47.5013 33.5172 47.5468 33.4732C47.5923 33.4292 47.6527 33.4059 47.7146 33.4085Z" fill="#BE0F17" stroke="#512007" stroke-width="0.0754957"/>
<path fill-rule="evenodd" clip-rule="evenodd" d="M49.2986 32.9886C49.3605 32.9912 49.4189 33.0194 49.461 33.0671C49.5031 33.1148 49.5254 33.178 49.5229 33.2428C49.5205 33.3076 49.4936 33.3687 49.4481 33.4127C49.4026 33.4567 49.3423 33.48 49.2803 33.4774C49.2184 33.4748 49.16 33.4466 49.1179 33.3989C49.0759 33.3512 49.0536 33.288 49.056 33.2232C49.0584 33.1584 49.0853 33.0972 49.1308 33.0532C49.1763 33.0092 49.2367 32.986 49.2986 32.9886Z" fill="#BE0F17" stroke="#512007" stroke-width="0.0754957"/>
<path fill-rule="evenodd" clip-rule="evenodd" d="M48.5076 33.8525C48.5695 33.8551 48.6279 33.8834 48.67 33.931C48.7121 33.9787 48.7343 34.0419 48.7319 34.1067C48.7295 34.1716 48.7026 34.2327 48.6571 34.2767C48.6116 34.3207 48.5513 34.3439 48.4893 34.3413C48.4274 34.3387 48.369 34.3105 48.3269 34.2628C48.2848 34.2152 48.2626 34.152 48.265 34.0871C48.2674 34.0223 48.2943 33.9612 48.3398 33.9172C48.3853 33.8732 48.4456 33.8499 48.5076 33.8525Z" fill="#BE0F17" stroke="#512007" stroke-width="0.0754957"/>
<path fill-rule="evenodd" clip-rule="evenodd" d="M48.5076 32.5326C48.5695 32.5352 48.6279 32.5634 48.67 32.6111C48.7121 32.6588 48.7343 32.722 48.7319 32.7868C48.7295 32.8516 48.7026 32.9127 48.6571 32.9567C48.6116 33.0007 48.5513 33.024 48.4893 33.0214C48.4274 33.0188 48.369 32.9906 48.3269 32.9429C48.2848 32.8952 48.2626 32.832 48.265 32.7672C48.2674 32.7024 48.2943 32.6412 48.3398 32.5972C48.3853 32.5532 48.4456 32.53 48.5076 32.5326Z" fill="#BE0F17" stroke="#512007" stroke-width="0.0754957"/>
<path d="M48.8348 29.645C48.8348 29.6135 50.1902 30.2433 50.1902 30.2905C50.1902 30.3377 55.0094 37.0289 55.0546 37.0289M52.645 30.2905L53.8799 30.8415L54.2715 31.8492M45.0246 30.2118C44.9794 30.2118 46.38 31.3139 46.38 31.3139L46.5607 32.2113M40.2657 36.8872C40.8681 36.6196 45.115 32.7308 45.115 32.7308M39.1211 36.1473L43.8951 31.9436M47.0878 32.5734L51.6058 40.4139M51.0637 35.8167C51.0637 35.8167 51.5908 37.6587 52.1179 37.9421C52.5111 38.1627 52.8931 38.4045 53.2624 38.6663" stroke="#512007" stroke-width="0.076991"/>
<path d="M51.0039 35.8639C51.0039 35.8639 51.3804 38.0366 51.9075 38.4459C52.4346 38.8553 52.9617 39.3118 52.9617 39.3118" stroke="#512007" stroke-width="0.076991"/>
<path d="M47.3789 35.7012C47.3789 35.7012 47.8909 38.724 48.9451 39.4168C49.5909 39.8365 50.2335 40.2616 50.8728 40.692" stroke="#512007" stroke-width="0.076991"/>
<path d="M47.3328 35.6539C47.3328 35.6539 48.4623 38.047 49.4412 38.7712C50.39 39.5112 51.7002 40.1882 51.7002 40.1882M43.6582 35.8586C43.9594 36.4096 43.9142 37.4645 44.2606 37.8266C44.579 38.2028 44.871 38.6027 45.1341 39.0231M43.7335 35.8901C43.9142 36.1577 44.3961 37.5275 44.6973 37.9368C44.9232 38.3147 47.1521 40.6448 47.1521 40.6448" stroke="#512007" stroke-width="0.076991"/>
<path fill-rule="evenodd" clip-rule="evenodd" d="M46.4146 40.7549C46.4146 40.8004 46.406 40.8455 46.3894 40.8875C46.3727 40.9295 46.3483 40.9677 46.3175 40.9999C46.2868 41.032 46.2503 41.0575 46.2101 41.0749C46.1699 41.0924 46.1268 41.1013 46.0833 41.1013C46.0398 41.1013 45.9967 41.0924 45.9565 41.0749C45.9163 41.0575 45.8798 41.032 45.849 40.9999C45.8182 40.9677 45.7938 40.9295 45.7772 40.8875C45.7605 40.8455 45.752 40.8004 45.752 40.7549C45.752 40.6631 45.7869 40.575 45.849 40.51C45.9111 40.4451 45.9954 40.4086 46.0833 40.4086C46.1711 40.4086 46.2554 40.4451 46.3175 40.51C46.3797 40.575 46.4146 40.6631 46.4146 40.7549ZM48.026 41.4949C48.026 41.5742 47.9959 41.6503 47.9422 41.7064C47.8885 41.7625 47.8158 41.794 47.7399 41.794C47.664 41.794 47.5912 41.7625 47.5375 41.7064C47.4839 41.6503 47.4537 41.5742 47.4537 41.4949C47.4537 41.4156 47.4839 41.3395 47.5375 41.2834C47.5912 41.2273 47.664 41.1958 47.7399 41.1958C47.8158 41.1958 47.8885 41.2273 47.9422 41.2834C47.9959 41.3395 48.026 41.4156 48.026 41.4949ZM50.0892 41.6838C50.0892 41.7632 50.0591 41.8393 50.0054 41.8954C49.9518 41.9515 49.879 41.983 49.8031 41.983C49.7272 41.983 49.6544 41.9515 49.6008 41.8954C49.5471 41.8393 49.517 41.7632 49.517 41.6838C49.517 41.6045 49.5471 41.5284 49.6008 41.4723C49.6544 41.4162 49.7272 41.3847 49.8031 41.3847C49.879 41.3847 49.9518 41.4162 50.0054 41.4723C50.0591 41.5284 50.0892 41.6045 50.0892 41.6838ZM51.8814 40.9754C51.8814 41.1328 51.7759 41.243 51.6404 41.243C51.5049 41.243 51.3995 41.1171 51.3995 40.9754C51.3995 40.8337 51.5049 40.692 51.6404 40.692C51.7759 40.692 51.8814 40.8179 51.8814 40.9754ZM53.3271 40.0779C53.3271 40.2196 53.1916 40.3299 53.041 40.3299C52.8904 40.3299 52.7549 40.2196 52.7549 40.0779C52.7549 39.9363 52.8904 39.826 53.041 39.826C53.1916 39.826 53.3271 39.9363 53.3271 40.0779Z" fill="black" stroke="#512007" stroke-width="0.076991"/>
<path fill-rule="evenodd" clip-rule="evenodd" d="M44.8336 30.2537C44.6981 30.3482 42.5144 30.8992 42.8156 30.852C43.1168 30.8048 44.8788 31.3243 44.8336 31.1669C44.7885 31.0094 44.8336 30.3482 44.8336 30.2537ZM48.5535 29.5767C48.4631 29.5767 47.1981 30.0805 47.2432 30.0805C47.2884 30.0805 48.689 30.4899 48.6438 30.3954C48.5986 30.3009 48.5986 29.7027 48.5535 29.5767ZM52.3636 30.0333C52.2733 30.0805 50.7823 30.4426 51.0534 30.4899C51.3245 30.5371 52.3184 30.8992 52.3184 30.8048C52.3184 30.726 52.3185 30.0805 52.3636 30.0176V30.0333Z" fill="#FF0000" stroke="#512007" stroke-width="0.076991"/>
<path d="M50.7832 40.7392C50.8284 40.015 52.1085 35.8586 52.1085 35.8586M51.2199 40.5975L52.229 35.8743M51.6717 40.2354C51.7019 39.9678 52.4097 35.8901 52.4097 35.8901M50.8284 40.141C51.0543 40.015 51.7019 39.8261 51.7019 39.8261M51.1446 39.4167C51.3555 39.4167 51.7922 39.2278 51.7922 39.2278M51.2651 38.8657C51.4798 38.7809 51.7016 38.7176 51.9278 38.6768M51.3555 38.173L52.0633 38.047M51.6717 37.5747C51.6717 37.6219 52.1537 37.6219 52.1537 37.6219M51.7922 37.0394L52.2741 37.1181" stroke="#512007" stroke-width="0.076991"/>
<path d="M47.0625 40.7538C47.1077 40.0014 48.3878 35.6834 48.3878 35.6834M47.4992 40.8028L48.5083 35.7161M47.8456 40.8192L48.689 35.7161M47.1077 40.1322C47.3336 40.0014 47.9812 39.8051 47.9812 39.8051M47.4239 39.3799C47.6348 39.3799 48.0715 39.1836 48.0715 39.1836M47.5444 38.8074C47.7591 38.7193 47.9809 38.6536 48.2071 38.6111M47.6348 38.0877L48.3426 37.9569M47.951 37.4662C47.951 37.5153 48.433 37.5153 48.433 37.5153M48.0715 36.9101L48.5534 36.9919" stroke="#512007" stroke-width="0.0784731"/>
<path d="M46.5547 40.2554C46.5095 39.5267 45.2294 35.345 45.2294 35.345M46.1179 40.1128L45.1089 35.3608M45.6661 39.7485C45.636 39.4792 44.9282 35.3767 44.9282 35.3767M46.5095 39.6535C46.2836 39.5267 45.636 39.3367 45.636 39.3367M46.1932 38.9248C45.9824 38.9248 45.5457 38.7347 45.5457 38.7347M46.0728 38.3704C45.8581 38.2851 45.6362 38.2214 45.4101 38.1803M45.9824 37.6735L45.2746 37.5467M45.6661 37.0715C45.6661 37.119 45.1842 37.1191 45.1842 37.1191M45.5457 36.533L45.0637 36.6122" stroke="#512007" stroke-width="0.0772254"/>
<path fill-rule="evenodd" clip-rule="evenodd" d="M53.0825 38.8552L57.2391 38.9497L57.2843 38.6348L52.9922 38.5875L53.0825 38.8552ZM53.2633 37.7059C53.7452 37.7059 57.3746 36.9817 57.3746 36.9817C57.3746 36.9817 57.5102 36.5093 57.3746 36.5093C57.2391 36.5093 53.2633 37.391 53.2633 37.391V37.7059Z" fill="#DD8B59" stroke="#512007" stroke-width="0.076991"/>
<path fill-rule="evenodd" clip-rule="evenodd" d="M48.5076 33.1925C48.5695 33.1951 48.6279 33.2234 48.67 33.2711C48.7121 33.3187 48.7343 33.3819 48.7319 33.4468C48.7295 33.5116 48.7026 33.5727 48.6571 33.6167C48.6116 33.6607 48.5513 33.684 48.4893 33.6814C48.4274 33.6788 48.369 33.6505 48.3269 33.6029C48.2848 33.5552 48.2626 33.492 48.265 33.4272C48.2674 33.3623 48.2943 33.3012 48.3398 33.2572C48.3853 33.2132 48.4456 33.1899 48.5076 33.1925Z" fill="#BE0F17" stroke="#512007" stroke-width="0.0754957"/>
<path d="M0 0H32V32H0V0Z" fill="#012169"/>
<path d="M32 0V4L20.125 16L32 27.6875V32H27.8125L15.875 20.25L4.25 32H0V27.75L11.625 16.0625L0 4.625V0H3.875L15.875 11.75L27.5 0H32Z" fill="white"/>
<path d="M11.5 20.25L12.1875 22.375L2.625 32H0V31.8125L11.5 20.25ZM19.25 19.5L22.625 20L32 29.1875V32L19.25 19.5ZM32 0L20 12.25L19.75 9.5L29.125 0H32ZM0 0.0625L12.0625 11.875L8.375 11.375L0 3.0625V0.0625Z" fill="#C8102E"/>
<path d="M11 0V32H21V0H11ZM0 11V21H32V11H0Z" fill="white"/>
<path d="M0 13V19H32V13H0ZM13 0V32H19V0H13Z" fill="#C8102E"/>
</g>
<defs>
<linearGradient id="paint0_linear_10660_11822" x1="12.5925" y1="72.3854" x2="15.7461" y2="70.5776" gradientUnits="userSpaceOnUse">
<stop stop-color="#A43907"/>
<stop offset="1" stop-color="white"/>
</linearGradient>
<linearGradient id="paint1_linear_10660_11822" x1="41.4917" y1="43.8417" x2="37.4156" y2="41.609" gradientUnits="userSpaceOnUse">
<stop stop-color="#A43907"/>
<stop offset="1" stop-color="white"/>
</linearGradient>
<linearGradient id="paint2_linear_10660_11822" x1="44.029" y1="45.4681" x2="35.1904" y2="44.3157" gradientUnits="userSpaceOnUse">
<stop stop-color="#A43907"/>
<stop offset="1" stop-color="white"/>
</linearGradient>
<linearGradient id="paint3_linear_10660_11822" x1="60.3463" y1="41.7218" x2="56.2546" y2="41.9395" gradientUnits="userSpaceOnUse">
<stop stop-color="#A43907"/>
<stop offset="1" stop-color="white"/>
</linearGradient>
<linearGradient id="paint4_linear_10660_11822" x1="62.0062" y1="43.9879" x2="53.3156" y2="44.5078" gradientUnits="userSpaceOnUse">
<stop stop-color="#A43907"/>
<stop offset="1" stop-color="white"/>
</linearGradient>
<linearGradient id="paint5_linear_10660_11822" x1="61.0387" y1="46.2681" x2="36.5723" y2="46.2681" gradientUnits="userSpaceOnUse">
<stop stop-color="#A43907"/>
<stop offset="1" stop-color="white"/>
</linearGradient>
<linearGradient id="paint6_linear_10660_11822" x1="37.245" y1="48.059" x2="73.0292" y2="48.1873" gradientUnits="userSpaceOnUse">
<stop stop-color="#A43907"/>
<stop offset="1" stop-color="white"/>
</linearGradient>
<linearGradient id="paint7_linear_10660_11822" x1="61.8995" y1="46.1171" x2="59.0061" y2="46.2009" gradientUnits="userSpaceOnUse">
<stop stop-color="#A43907"/>
<stop offset="1" stop-color="white"/>
</linearGradient>
<linearGradient id="paint8_linear_10660_11822" x1="36.4735" y1="48.9776" x2="39.2772" y2="49.1631" gradientUnits="userSpaceOnUse">
<stop stop-color="#A43907"/>
<stop offset="1" stop-color="white"/>
</linearGradient>
<linearGradient id="paint9_linear_10660_11822" x1="39.2073" y1="48.57" x2="34.1153" y2="47.3139" gradientUnits="userSpaceOnUse">
<stop stop-color="#A43907"/>
<stop offset="1" stop-color="white"/>
</linearGradient>
<clipPath id="clip0_10660_11822">
<rect width="64" height="64" rx="32" fill="white"/>
</clipPath>
</defs>
</svg>
