<svg width="64" height="64" viewBox="0 0 64 64" fill="none" xmlns="http://www.w3.org/2000/svg">
<g clip-path="url(#clip0_10660_11891)">
<mask id="mask0_10660_11891" style="mask-type:luminance" maskUnits="userSpaceOnUse" x="0" y="0" width="64" height="64">
<path d="M0.00195312 0H63.986V63.984H0.00195312V0Z" fill="white"/>
</mask>
<g mask="url(#mask0_10660_11891)">
<path fill-rule="evenodd" clip-rule="evenodd" d="M-31.5 0H96.4809V63.984H-31.5V0Z" fill="#6797D6"/>
<path fill-rule="evenodd" clip-rule="evenodd" d="M34.0189 10.9005H39.0241L34.9606 13.6611L36.5086 18.1503L32.4709 15.3768L28.4074 18.1503L29.9554 13.6611L25.9048 10.8876H30.9358L32.4838 6.41132M34.0318 53.2383H39.037L34.9735 50.4648L36.5215 45.9756L32.4838 48.7491L28.4203 45.9756L29.9683 50.4648L25.9177 53.2383H30.9358L32.4838 57.7146M13.1338 29.6829L17.9326 28.2123L14.8495 32.0565L17.6488 35.8878L12.9661 34.4172L9.89586 38.2614L10.0765 33.5142L5.38086 32.0436L10.1797 30.5859L10.3474 25.8387M51.7564 29.6829L46.9705 28.2123L50.0407 32.0436L47.2414 35.8878L51.937 34.4172L54.9943 38.2614L54.8266 33.5142L59.5222 32.0436L54.7234 30.5859L54.5557 25.8387" fill="white"/>
</g>
</g>
<defs>
<clipPath id="clip0_10660_11891">
<rect width="64" height="64" rx="32" fill="white"/>
</clipPath>
</defs>
</svg>
