<svg width="64" height="64" viewBox="0 0 64 64" fill="none" xmlns="http://www.w3.org/2000/svg">
<g clip-path="url(#clip0_10660_11898)">
<path d="M0 0V64H64V0.025H40.25V0H0Z" fill="#68BFE5"/>
<path d="M38.7754 31.75V48.8C38.7754 54.375 48.8504 57.6875 48.8504 57.6875C48.8504 57.6875 58.9254 54.375 58.9254 48.8125V31.75H38.7754Z" fill="white"/>
<path d="M47.4504 37.75V45.425H38.7754V48.2125H47.4629V57.15L48.8504 57.6875L50.2504 57.15V48.2125H58.9254V45.425H50.2504V37.75H47.4504Z" fill="#D21034"/>
<path d="M38.7754 31.75H58.9254V38.3375H38.7754V31.75Z" fill="#D21034"/>
<path d="M40.3861 36.6874C41.0104 36.6874 41.5164 36.2781 41.5164 35.7732C41.5164 35.2683 41.0104 34.859 40.3861 34.859C39.7619 34.859 39.2559 35.2683 39.2559 35.7732C39.2559 36.2781 39.7619 36.6874 40.3861 36.6874Z" fill="white" stroke="black" stroke-width="0.066486" stroke-miterlimit="3"/>
<path d="M40.3865 35.8065C40.9418 35.8065 41.3921 35.5795 41.3921 35.2995C41.3921 35.0195 40.9418 34.7925 40.3865 34.7925C39.8311 34.7925 39.3809 35.0195 39.3809 35.2995C39.3809 35.5795 39.8311 35.8065 40.3865 35.8065Z" fill="white" stroke="black" stroke-width="0.066486" stroke-miterlimit="3"/>
<path d="M40.3865 36.8287C40.9418 36.8287 41.3921 36.6017 41.3921 36.3217C41.3921 36.0417 40.9418 35.8148 40.3865 35.8148C39.8311 35.8148 39.3809 36.0417 39.3809 36.3217C39.3809 36.6017 39.8311 36.8287 40.3865 36.8287Z" fill="white" stroke="black" stroke-width="0.066486" stroke-miterlimit="3"/>
<path d="M40.3865 36.2801C40.9418 36.2801 41.3921 36.0532 41.3921 35.7732C41.3921 35.4932 40.9418 35.2662 40.3865 35.2662C39.8311 35.2662 39.3809 35.4932 39.3809 35.7732C39.3809 36.0532 39.8311 36.2801 40.3865 36.2801Z" fill="white" stroke="black" stroke-width="0.066486" stroke-miterlimit="3"/>
<path d="M58.4241 37.0375L58.2616 36.575C58.2616 36.575 57.8116 36.4 57.7741 36.15C57.6991 35.525 57.4616 35.275 57.1241 35.1875C57.0297 35.1574 56.9303 35.1464 56.8316 35.1549C56.7329 35.1635 56.6369 35.1916 56.5491 35.2375C56.4491 35.3875 55.9366 35.3875 55.6491 35.4C55.3616 35.4125 55.3616 35.275 55.3616 35.275C55.3 35.2767 55.239 35.2627 55.1843 35.2342C55.1296 35.2058 55.0831 35.1639 55.0491 35.1125C54.8991 34.825 54.7991 34.7125 54.7241 34.6875C55.0991 34.6875 55.3741 34.5125 55.7866 34.075C56.2491 33.6 56.5741 33.7875 56.5741 33.7875C56.3491 34.225 56.6491 34.1875 56.6491 34.1875C57.2491 33.8875 56.7241 33.1 56.5366 33.1375C56.3616 33.175 56.3116 33.05 56.3116 33.05C56.3116 33.1875 56.0991 33.25 56.0991 33.25C56.2616 32.3625 55.7241 32.125 55.7241 32.125C55.6491 32.2 55.5991 32.375 55.5991 32.375C55.4616 32.9 54.9741 32.825 54.4241 32.5625C53.8741 32.3 52.4116 32.8375 51.9491 33.0125C51.4991 33.2 50.6616 33.4875 49.9116 33.0625C49.1616 32.6375 48.9741 32.7125 48.6741 32.8C48.3741 32.875 47.8491 33 47.6616 32.9C47.5293 32.8333 47.3846 32.7949 47.2366 32.7875C47.2991 32.7625 47.2116 32.6375 47.2116 32.6375C46.9866 32.325 47.2366 32.1375 47.2366 32.1375C47.2366 32.1375 46.8241 32.2625 46.9866 32.9875L47.0616 33.1C47.0616 33.1 47.1241 33.325 47.2491 33.3875V33.4375C47.2491 33.4375 47.3491 33.3875 47.3741 33.5375C47.4241 33.6875 47.5741 33.55 47.6491 33.425C47.6491 33.425 47.5241 34.0875 48.3491 34.25C48.3491 34.25 48.2616 34.15 48.2991 34.075C48.3366 34.0125 48.1991 33.95 48.2116 33.85C48.2116 33.75 47.9991 33.7 48.1741 33.625C48.3491 33.5375 48.4241 33.375 48.7991 33.6C49.1491 33.8125 49.4366 33.7625 49.4366 33.7625C49.4366 33.7625 49.2116 33.3125 49.3366 33.3125C49.4616 33.3125 50.0116 34 50.2866 33.9625C50.5616 33.925 51.0866 33.625 51.3491 33.7375C51.3491 33.7375 51.3741 33.6 52.3741 33.425C53.3741 33.25 54.6241 32.75 55.0866 33.1875C55.0866 33.1875 55.1366 33.5375 55.3366 33.625C55.3366 33.625 55.2991 34.35 54.0491 33.95L53.5991 33.825C53.5991 33.825 53.5366 33.6125 51.1616 34.225C51.1616 34.225 51.0366 34.275 50.9366 34.35C50.8491 34.4125 50.7241 34.3 50.2491 34.475C49.7741 34.65 48.0366 35.225 46.9616 35.0125C46.7241 34.95 46.4991 34.975 46.4991 34.95C46.4866 34.9 46.6241 34.95 46.6241 34.95C46.5366 34.8625 46.4991 34.85 46.4991 34.85C45.5991 34.7625 45.7616 34.35 45.7616 34.35L45.8116 34.475C45.9616 34.2875 45.7491 33.825 45.7491 33.825C45.7454 33.8123 45.7413 33.7998 45.7366 33.7875L45.8116 33.7375C46.2491 33.3625 46.7491 33.3 46.7491 33.3C46.4491 32.925 45.8241 33.125 45.8241 33.125C45.8241 32.6875 45.6491 32.175 45.6491 32.175C45.0241 32.2375 44.6741 32.75 44.6741 32.75C44.6616 32.3 44.0741 32.0375 44.0741 32.0375C44.2866 32.2875 44.1491 32.9125 44.1491 32.9125L44.1741 32.9375H44.1241L44.1116 33.0625H44.0866C44.0866 33.0625 43.8741 33.1375 43.6116 33.7125C43.6116 33.7125 43.5866 33.8375 43.4866 33.9625V33.925C43.4866 33.925 43.2116 34.3 42.5616 33.925C42.5616 33.925 41.6866 33.4 41.3741 33.425C41.0616 33.4375 40.8616 33.5875 40.8741 33.675C40.8741 33.675 40.1741 33.6125 39.9366 34.0125C39.9366 34.0125 39.3991 34.2125 39.8616 34.6375C39.8616 34.6375 39.9116 34.8375 40.0491 34.9375C40.0491 34.9375 40.0241 34.5375 40.1241 34.6625C40.1241 34.6625 40.1491 34.7 40.1991 34.725C40.1991 34.775 40.2491 34.9375 40.3491 35.0125L40.4116 34.9875C40.4208 34.8936 40.4418 34.8012 40.4741 34.7125H40.4991L40.4866 34.725L40.6116 34.9125L40.7491 34.8375C40.8241 34.8375 40.9116 34.9 40.9116 34.9L41.0741 34.775V34.7625C41.2366 34.7875 41.2741 34.475 41.2741 34.475C41.3423 34.4912 41.4132 34.4929 41.4821 34.48C41.551 34.4671 41.6164 34.4398 41.6741 34.4C41.7491 34.65 42.3241 34.9375 42.3241 34.9375H42.3491L42.2741 34.9875C42.5241 35.175 43.0241 35.125 43.0241 35.125C42.8241 35.2125 42.8491 35.5875 42.8491 35.5875C42.7241 35.6375 42.7241 35.75 42.7241 35.75C43.1116 35.9125 43.3866 35.7875 43.3866 35.7875C43.4116 35.9125 43.3866 35.925 43.3866 35.925C43.2241 36.2625 43.1491 36.6 43.1491 36.6V36.625C43.1491 36.625 42.4491 36.875 42.1491 37.2125C42.1491 37.2125 42.1116 37.1125 42.0241 37.1125C41.9366 37.1125 41.6616 36.8875 41.5366 36.8625C41.4116 36.8125 41.2241 36.8875 41.1741 36.8375C41.1366 36.775 41.1616 36.3875 41.0741 36.325L40.9866 36.075C40.9241 36.2 40.6866 36.175 40.6866 36.175C40.6527 36.1992 40.6194 36.2242 40.5866 36.25L40.4866 36.2375C40.4616 36.2375 40.4366 36.3125 40.4116 36.375L40.3866 36.4V36.325C40.3366 36.3625 40.2366 36.3125 40.1991 36.3125L40.1366 36.425L39.9116 36.45C39.8741 36.4625 39.9116 36.7625 39.9116 36.7625C39.6241 36.925 39.7616 37.15 39.7616 37.15C39.9116 37.9 41.1991 37.575 41.2991 37.6625C41.3866 37.7625 41.6116 37.7875 41.7366 37.7875C41.8491 37.7875 41.9866 38.0625 42.1616 38.0875C42.3241 38.125 42.1616 37.875 42.9116 37.6875C43.6866 37.5 43.9366 37.1875 43.9366 37.1875C44.1866 37.15 44.2491 36.85 44.2616 36.7375L44.2741 36.925C44.3116 37.175 44.1366 37.275 44.1366 37.275L44.7866 37.075C45.0491 37.0125 45.0241 36.7875 45.0241 36.7875C45.2741 37.5 45.7241 37.5375 45.7241 37.5375C45.8241 37.275 45.8116 37.1875 45.8116 37.1875H46.0116C46.0116 37.025 45.8866 36.9125 45.8116 36.8625L46.1241 37.0625L46.2491 37.0375C46.2491 37.15 46.4241 37.25 46.4241 37.25L46.4491 37.1C46.5991 37.3 46.8741 37.225 46.8741 37.225C46.8677 37.1912 46.8594 37.1578 46.8491 37.125C47.4366 37.4875 48.3616 37.025 48.3616 37.025C48.6116 37.075 48.6491 36.925 48.6491 36.925C48.9366 36.9625 48.9991 36.775 48.9991 36.775C49.6741 36.7125 50.1491 36.2375 50.1491 36.2375C50.4741 36.2125 50.4866 35.9875 50.4866 35.9875C50.4866 35.9875 50.8241 36.0375 51.1366 35.6375C51.8866 34.575 52.9866 35.1375 52.9866 35.1375L52.3616 35.175C50.6741 35.1625 51.3616 36.3 51.3616 36.3H51.4741C51.6366 36.325 52.1741 36.7625 51.9741 37.0875V37.1C51.6241 37.5625 50.9866 37.125 50.8116 36.725C50.6241 36.325 50.2616 36.4125 50.2616 36.4125C50.2616 36.4125 49.3116 36.575 49.6991 37.325H49.7116C49.7241 37.5125 49.8366 37.725 50.1741 37.9375C50.3616 38.2 50.9866 38.225 51.4491 38.125C51.6616 38.0875 52.7866 37.6 52.7866 37.6C52.8741 37.35 53.1616 37.4125 53.4116 37.0625C53.6616 36.7 53.0366 36.575 52.9116 36.3875C52.7741 36.1875 52.9491 36.225 52.9491 36.225C53.4866 36.525 53.5366 35.575 53.5366 35.575C53.5507 35.7306 53.6087 35.879 53.7039 36.0029C53.799 36.1268 53.9274 36.2212 54.0741 36.275C54.3741 35.975 54.1491 35.3625 54.1491 35.3625C54.8616 36.6375 55.2991 36.4375 55.2991 36.4375C54.9116 36.1875 55.0991 35.875 55.0991 35.875C55.4491 37.225 56.8491 36.05 56.8491 36.05C56.7866 36.25 56.8491 36.3625 56.9741 36.4875C57.0991 36.6125 57.2491 36.6625 57.1866 36.9C57.1116 37.125 56.4616 37.075 56.4616 37.075C56.4616 37.075 55.8241 37.05 55.8866 37.575C55.9116 37.7 56.3366 37.75 56.4991 37.725C56.4991 37.725 56.4366 37.725 56.6616 37.7625L56.9366 37.775C57.2116 37.775 57.4991 37.725 57.4991 37.725C57.8741 37.6375 57.8116 37.5125 57.8116 37.5125C58.3741 37.4125 58.4366 37.0375 58.4366 37.0375H58.4241Z" fill="#FFD100" stroke="black" stroke-width="0.1" stroke-miterlimit="3"/>
<path d="M39.8746 34.7C39.8746 34.7 39.8996 34.6249 39.9621 34.6124C39.9996 34.6124 40.0621 34.6375 40.1121 34.7125L40.1371 34.6875C40.1371 34.6875 39.9871 34.4625 40.0496 34.3125C40.0746 34.25 40.1496 34.1875 40.2496 34.1875V34.1375C40.1246 34.1625 40.0496 34.2124 40.0121 34.2999C40.0012 34.3321 39.9969 34.3661 39.9996 34.4C39.9996 34.475 40.0246 34.5499 40.0496 34.5999C40.0208 34.579 39.9849 34.57 39.9496 34.575C39.8996 34.5875 39.8621 34.625 39.8496 34.65L39.8746 34.7ZM57.4996 37.6875C57.1246 37.75 56.5496 37.7749 56.4996 37.6624C56.4996 37.6499 56.4996 37.5624 56.8121 37.3624L56.7746 37.2999C56.5246 37.4749 56.3996 37.6 56.4496 37.6875C56.5246 37.9 57.3496 37.775 57.5121 37.75L57.4996 37.6875ZM50.1996 37.9124C50.1121 37.7749 50.1496 37.5874 50.3246 37.3624L50.2621 37.325C50.0746 37.575 50.0371 37.7875 50.1371 37.95L50.1996 37.9124Z" fill="black"/>
<path d="M49.6876 37.3375C49.6876 37.5625 49.8501 37.775 50.1626 37.9625L50.2001 37.9125C49.9126 37.7375 49.7626 37.5375 49.7501 37.325C49.7501 37.0125 50.0751 36.775 50.0751 36.7625L50.0376 36.7125C50.0251 36.7125 49.6626 36.975 49.6876 37.3375ZM56.1876 37.4125C56.0876 37.575 56.1251 37.7625 56.1251 37.7625H56.1876C56.1876 37.7625 56.1626 37.5875 56.2501 37.45C56.2796 37.4095 56.317 37.3754 56.3599 37.3497C56.4028 37.3239 56.4505 37.307 56.5001 37.3V37.2375C56.3626 37.2625 56.2501 37.325 56.1876 37.4125ZM41.2876 34.5H41.2626V34.5125C41.2626 34.5125 41.2251 34.7125 41.1376 34.7625C41.1249 34.7711 41.1105 34.7767 41.0953 34.7789C41.0801 34.7811 41.0646 34.7797 41.0501 34.775L40.9001 34.6875C40.8626 34.65 40.8376 34.6375 40.8001 34.65C40.7628 34.6044 40.7449 34.5461 40.7501 34.4875C40.7626 34.3875 40.8251 34.3 40.9376 34.225L40.9251 34.1875C40.8001 34.275 40.7251 34.375 40.7126 34.475C40.7001 34.6 40.7626 34.675 40.7751 34.6875H40.7876C40.8251 34.675 40.8376 34.6875 40.8751 34.7125L41.0376 34.8125H41.1626C41.2501 34.75 41.2876 34.575 41.2876 34.5375C41.7001 34.625 42.0376 34.125 42.0376 34.1125L42.0126 34.0875C42.0126 34.0875 41.6751 34.5875 41.2876 34.5Z" fill="black"/>
<path d="M40.3129 34.425C40.2879 34.5 40.3129 34.5875 40.3504 34.6625C40.4004 34.7375 40.4379 34.775 40.4879 34.7875C40.5504 34.7875 40.5879 34.75 40.6254 34.7125C40.6504 34.675 40.6879 34.65 40.7004 34.6625L40.7379 34.6875L40.7754 34.6625L40.7129 34.625C40.6754 34.625 40.6379 34.65 40.6004 34.675C40.5629 34.7125 40.5254 34.75 40.4879 34.7375C40.4629 34.7375 40.4254 34.7 40.3879 34.6375C40.3676 34.6064 40.3539 34.5716 40.3474 34.535C40.341 34.4985 40.342 34.4611 40.3504 34.425C40.3879 34.25 40.6004 34.1125 40.6004 34.1125V34.0875C40.5879 34.0875 40.3504 34.2125 40.3129 34.425ZM39.7504 37C39.7754 36.925 39.8254 36.875 39.9129 36.825C39.9004 36.825 40.0004 36.9125 40.0879 36.9L40.1379 36.875C40.1629 36.8875 40.3129 37.025 40.3129 37.2C40.3129 37.2375 40.3129 37.275 40.2879 37.3125L40.3254 37.325C40.4504 37.075 40.1629 36.825 40.1629 36.825H40.1379L40.0754 36.8625C40.0129 36.8625 39.9254 36.7875 39.9129 36.7875C39.8004 36.8375 39.7379 36.9125 39.7129 36.9875L39.7504 37ZM41.0504 36.3375C40.9629 36.3375 40.7254 36.3875 40.6504 36.5C40.6254 36.55 40.6254 36.6 40.6504 36.65L40.6754 36.7375C40.7504 36.925 40.8254 37.125 40.9004 37.175L40.9254 37.1375C40.8504 37.1 40.7754 36.8875 40.7129 36.7125L40.6754 36.6375C40.6666 36.62 40.662 36.6007 40.662 36.5812C40.662 36.5617 40.6666 36.5424 40.6754 36.525C40.7504 36.425 40.9504 36.375 41.0504 36.375C41.1004 36.375 41.1129 36.5625 41.1254 36.6875H41.1629C41.1629 36.5 41.1379 36.325 41.0379 36.3375H41.0504Z" fill="black"/>
<path d="M40.4124 36.525C40.3973 36.5392 40.386 36.5569 40.3795 36.5765C40.3729 36.5962 40.3713 36.6171 40.3749 36.6375C40.3749 36.65 40.3874 37.1375 40.6249 37.2375L40.6374 37.2C40.4249 37.1125 40.4124 36.6375 40.4124 36.6375C40.4124 36.6375 40.3999 36.5875 40.4374 36.55C40.4624 36.525 40.5374 36.525 40.6374 36.55V36.5125C40.5374 36.475 40.4499 36.4875 40.4124 36.525Z" fill="black"/>
<path d="M40.225 36.5625C40.125 36.6375 40.125 36.8374 40.125 36.8499H40.1625C40.1625 36.8499 40.1625 36.6499 40.25 36.5999C40.275 36.5749 40.325 36.5749 40.375 36.5999V36.5625C40.325 36.5375 40.2625 36.5375 40.225 36.5625Z" fill="black"/>
<path d="M45.7142 33.8867C45.7142 33.8867 45.8222 34.136 45.8222 34.3272C45.8222 34.3604 45.8056 34.3853 45.7973 34.4103L45.7557 34.3022L45.7308 34.3853C45.7308 34.3853 45.6809 34.5017 45.7557 34.6263C45.8555 34.7926 46.1048 34.8923 46.5037 34.9338V34.9422C46.4921 34.942 46.4806 34.9448 46.4704 34.9505L46.4538 34.9671V35.0003C46.4704 35.0419 46.512 35.0419 46.6034 35.0419L46.6616 35.0502L46.7115 35.0668L46.7031 35.0585C46.7863 35.0585 46.8943 35.0834 47.0023 35.125L46.9192 35.1416L47.0106 35.1832C47.019 35.1832 47.7337 35.474 48.0246 35.7067C47.9414 35.7815 47.5841 36.0392 46.9691 35.8896L46.8694 35.8646L46.9358 35.9478C46.9358 35.9478 47.3431 36.4132 47.4262 36.6957C47.2849 36.6957 46.7447 36.6957 46.5536 36.5295L46.512 36.5711C46.512 36.5711 46.7613 36.9534 46.8278 37.2442C46.7447 37.2609 46.5785 37.2692 46.4704 37.1279L46.4206 37.0697L46.3957 37.2359C46.3458 37.1944 46.2793 37.1445 46.2793 37.078V37.0448L46.1297 37.0697L45.8139 36.8786C45.7978 36.8667 45.7811 36.8556 45.764 36.8453L45.7308 36.9035L45.7807 36.9284C45.8471 36.9783 45.9635 37.0697 45.9718 37.2027H45.7723V37.2442C45.7723 37.2692 45.7723 37.3606 45.6975 37.5517C45.6061 37.5351 45.2571 37.4104 45.0493 36.8204L44.9828 36.837V36.8536C44.9828 36.9118 44.9662 37.0448 44.7834 37.0946L44.2432 37.2609C44.2905 37.1928 44.3139 37.1109 44.3097 37.0282V36.9617C44.2994 36.8901 44.2939 36.8179 44.293 36.7456C44.293 36.6209 44.318 36.5461 44.4094 36.4963L44.3761 36.4298C44.3678 36.4298 43.5783 36.7539 43.1877 36.6209C43.2043 36.5378 43.2708 36.2719 43.4038 35.9893L43.3872 36.0059C43.4121 35.9893 43.437 35.9561 43.4121 35.8231V35.7815L43.3705 35.7982C43.3705 35.7982 43.1212 35.9145 42.7555 35.7815C42.7555 35.7483 42.7805 35.6984 42.8553 35.6652L42.8802 35.6569V35.5904C42.8802 35.4907 42.8885 35.258 43.0298 35.2081L43.0132 35.1416C43.0132 35.1416 42.5893 35.1749 42.3317 35.0336C42.4429 34.9536 42.5708 34.8996 42.7057 34.8757H42.7306V34.8424C42.7295 34.7766 42.7154 34.7116 42.6891 34.6513C42.7888 34.6845 42.9051 34.7095 42.9467 34.6762L42.9633 34.6679L42.9467 34.4103H42.8802L42.8885 34.6263L42.6392 34.5682L42.5395 34.5349L42.606 34.618C42.6462 34.6766 42.6665 34.7465 42.6641 34.8175C42.5133 34.8501 42.3715 34.9153 42.2486 35.0086L42.207 35.0419L42.2486 35.0668C42.448 35.1998 42.7555 35.2164 42.9134 35.2081C42.8427 35.32 42.8052 35.4497 42.8054 35.5821V35.6153C42.7723 35.6346 42.744 35.661 42.7224 35.6927C42.7009 35.7243 42.6866 35.7603 42.6807 35.7982V35.8231L42.6974 35.8314C42.9035 35.9262 43.1375 35.9411 43.3539 35.873V35.9478C43.1877 36.2968 43.1046 36.6375 43.1046 36.6375V36.6708H43.1295C43.4536 36.8038 44.0188 36.6292 44.2764 36.5378C44.2432 36.596 44.2182 36.6625 44.2182 36.7456C44.2192 36.8403 44.2275 36.9348 44.2432 37.0282C44.2432 37.2193 44.1185 37.2941 44.1102 37.2941L44.1351 37.3606L44.8 37.1611C44.9496 37.1196 45.0078 37.0282 45.0327 36.9534C45.2903 37.5683 45.6976 37.6182 45.7225 37.6265H45.7474L45.7557 37.6016C45.7997 37.4955 45.8277 37.3835 45.8388 37.2692C45.9053 37.2666 45.9718 37.2638 46.0383 37.2609V37.2193C46.0383 37.1611 46.03 37.1113 46.005 37.0697L46.1214 37.1362L46.2294 37.1196C46.2544 37.2276 46.3873 37.319 46.404 37.3273L46.4455 37.3523L46.4704 37.211C46.6367 37.3523 46.8611 37.3107 46.8777 37.3107L46.9026 37.3024V37.2692C46.8694 37.0448 46.7198 36.7788 46.6284 36.6375C46.9192 36.7705 47.4511 36.7622 47.476 36.7622H47.5093V36.7207C47.3998 36.4457 47.2422 36.1924 47.0439 35.9727C47.7254 36.0973 48.091 35.74 48.1077 35.7234L48.1326 35.6984L48.0994 35.6818C47.8007 35.4684 47.4769 35.2925 47.1353 35.1582L47.2101 35.1416L47.127 35.1001C46.9777 35.0238 46.8126 34.984 46.645 34.9837C46.5619 34.884 46.5203 34.8757 46.512 34.8674C46.0466 34.8175 45.8804 34.6928 45.8139 34.5931V34.5682L45.8305 34.5432C45.8721 34.4851 45.8887 34.4103 45.8887 34.3272C45.8887 34.1111 45.7807 33.8701 45.7807 33.8618L45.7142 33.8867Z" fill="black"/>
<path d="M43.5949 33.7537C43.5949 33.7537 43.545 34.003 43.3289 34.1277C43.1627 34.2108 42.9549 34.2108 42.6973 34.1028L42.6641 34.0945V34.1277C42.6826 34.2347 42.7423 34.3301 42.8303 34.3937C42.9383 34.4768 43.1045 34.51 43.3206 34.4934C43.2458 34.5765 43.0214 34.8591 43.0214 35.1416V35.1832C43.0547 35.1998 43.4037 35.2995 43.5699 35.0918C43.5699 35.1749 43.6032 35.4657 43.7112 35.5738C43.7777 35.6403 43.7943 35.7234 43.7943 35.7982C43.7943 35.8647 43.7777 35.9145 43.7777 35.9145L43.7611 35.9644L43.8026 35.9311C43.8193 35.9228 44.1434 35.6818 44.2431 35.3743C44.2431 35.3743 44.3013 35.2912 44.401 35.2663V35.3078C44.401 35.4325 44.4509 35.6486 44.7999 35.7816L44.8249 35.7899V35.7649C44.8239 35.7456 44.8239 35.7261 44.8249 35.7068C44.8249 35.6153 44.8249 35.4574 44.9163 35.3743C44.9531 35.3401 44.9778 35.2949 44.9868 35.2455C44.9958 35.1961 44.9886 35.145 44.9661 35.1001C45.0409 35.1167 45.2072 35.1749 45.2736 35.2995C45.3734 35.4824 45.7141 35.3328 45.7307 35.3328L45.7224 35.2912C45.7224 35.2912 45.5728 35.3245 45.4814 35.2663C45.4622 35.2513 45.4464 35.2325 45.435 35.211C45.4235 35.1895 45.4167 35.1659 45.4149 35.1416L45.3983 34.9422C45.3983 34.8591 45.3817 34.8009 45.3401 34.7593C45.3817 34.7593 45.4731 34.7593 45.5063 34.8424C45.5728 34.9754 45.7806 34.9837 45.7889 34.9837L45.8637 34.992L45.8055 34.9505C45.8055 34.9505 45.6227 34.8341 45.6559 34.6762L45.6809 34.5599C45.7307 34.3521 45.8138 34.0114 45.739 33.7953L45.7058 33.8119C45.7224 33.8618 45.7307 33.9283 45.7307 33.9947C45.7307 34.1776 45.6726 34.4103 45.6476 34.5516L45.6144 34.6679C45.613 34.6817 45.613 34.6956 45.6144 34.7095C45.6144 34.8175 45.6726 34.8923 45.7224 34.9339C45.6642 34.9255 45.5811 34.8923 45.5562 34.8258C45.498 34.7095 45.3651 34.7095 45.3069 34.7178L45.257 34.7261L45.2903 34.7593C45.3484 34.7926 45.3567 34.8424 45.3567 34.9505L45.3734 35.1416C45.3817 35.2081 45.4149 35.258 45.4565 35.2912C45.5063 35.3245 45.5562 35.3245 45.5978 35.3328C45.498 35.3577 45.3567 35.3743 45.3069 35.2829C45.2155 35.1001 44.9495 35.0585 44.9412 35.0502H44.8997L44.9163 35.0834C44.9163 35.0834 44.9495 35.1333 44.9495 35.1998C44.9495 35.2414 44.9329 35.2995 44.8913 35.3411C44.7999 35.4325 44.7833 35.607 44.7833 35.6984V35.7317C44.4841 35.607 44.4343 35.4242 44.4343 35.3161V35.233L44.4509 35.2081H44.4176C44.3739 35.2155 44.3324 35.2329 44.2964 35.2588C44.2604 35.2847 44.2308 35.3186 44.2099 35.3577C44.1272 35.5608 43.9925 35.7386 43.8193 35.873C43.824 35.8455 43.8268 35.8177 43.8276 35.7899C43.8276 35.7151 43.8109 35.6236 43.7445 35.5488C43.6198 35.4325 43.6032 35.0502 43.6032 35.0502V34.9837L43.5699 35.0419C43.437 35.2746 43.0547 35.1582 43.0464 35.1582C43.0297 34.8674 43.3788 34.4851 43.3788 34.4768L43.412 34.4435H43.3622C43.1378 34.4768 42.9633 34.4435 42.8469 34.3604C42.7808 34.3078 42.7341 34.2347 42.7139 34.1526C42.9633 34.2441 43.1793 34.2524 43.3455 34.161C43.4174 34.1173 43.4796 34.0594 43.5282 33.9908C43.5768 33.9222 43.6108 33.8443 43.6281 33.762C43.8774 33.2135 44.0852 33.1221 44.0852 33.1221L44.0769 33.0889C44.0603 33.0889 43.8442 33.172 43.5949 33.7537Z" fill="black"/>
<path d="M44.1516 32.9309H44.135L43.9355 33.2052H43.9937C44.6139 33.254 45.1954 33.5256 45.6309 33.9698L45.6559 33.9947L45.847 33.7869L45.8304 33.762C45.2902 32.9143 44.1599 32.9309 44.1433 32.9309H44.1516ZM44.1682 33.0057C44.3012 33.0057 45.2653 33.0307 45.7639 33.7786L45.6559 33.895C45.2174 33.4783 44.6535 33.2182 44.0519 33.1553C44.0906 33.1054 44.1294 33.0555 44.1682 33.0057Z" fill="black"/>
<path d="M43.9938 33.4961C43.9044 33.613 43.8445 33.7499 43.8193 33.895L43.8276 33.9282C43.7699 33.9888 43.7253 34.0607 43.6967 34.1394C43.6681 34.218 43.6561 34.3018 43.6614 34.3853C43.6614 34.4933 43.678 34.6014 43.7113 34.7011L43.7362 34.7593C43.8359 35.0419 43.9273 35.2912 44.3844 35.1416C44.8166 35.0086 44.8332 34.9754 44.9412 34.7925L44.9745 34.751C45.0327 34.6513 45.0991 34.6346 45.1656 34.6097C45.2487 34.5848 45.3318 34.5598 45.415 34.4102L45.4814 34.3022C45.5645 34.1942 45.6643 34.0529 45.6726 33.8867H45.6393C45.6146 34.0309 45.5514 34.1659 45.4565 34.2773L45.3734 34.3936C45.3553 34.4396 45.3261 34.4803 45.2884 34.5122C45.2506 34.5441 45.2056 34.5662 45.1573 34.5765C45.1129 34.5849 45.0707 34.6026 45.0334 34.6284C44.9962 34.6541 44.9648 34.6874 44.9412 34.726L44.908 34.7759C44.8083 34.9504 44.7916 34.9754 44.3678 35.1083C43.9523 35.2413 43.8692 35.0335 43.7694 34.7427L43.7445 34.6845C43.6281 34.3687 43.7196 34.0529 43.8775 33.9365L43.9273 33.895L43.8525 33.9033V33.895C43.8525 33.8368 43.9107 33.6789 44.0188 33.521C44.1185 33.388 44.3512 33.2634 44.3512 33.255L44.3346 33.2218C44.3179 33.2301 44.0935 33.3631 43.9938 33.4961Z" fill="black"/>
<path d="M43.7937 34.6512C43.8685 34.7011 43.9682 34.6928 44.1012 34.6512C44.1012 34.6928 44.1012 34.7925 44.1843 34.859C44.284 34.9421 44.4336 34.9587 44.6414 34.9089V34.8673C44.4419 34.9172 44.2923 34.9006 44.2092 34.8258C44.1828 34.8001 44.1624 34.7689 44.1494 34.7344C44.1365 34.6999 44.1314 34.663 44.1344 34.6263V34.5931L44.1095 34.6097C43.9848 34.6595 43.8851 34.6679 43.8103 34.6097C43.6856 34.5266 43.694 34.3022 43.694 34.3022H43.6607C43.6607 34.3022 43.6441 34.5515 43.7937 34.6512Z" fill="black"/>
<path d="M44.0266 34.3437C43.9767 34.3604 43.9601 34.4019 43.9601 34.4352V34.4601C43.9767 34.5598 44.0848 34.6263 44.1762 34.6512C44.2759 34.6762 44.3923 34.6845 44.4338 34.6263C44.4504 34.6014 44.4671 34.5598 44.4338 34.485C44.3981 34.4149 44.3367 34.3611 44.2625 34.3348C44.1883 34.3086 44.1068 34.3117 44.0349 34.3437H44.0266ZM44.1928 34.618C44.1097 34.5931 44.01 34.5349 44.0017 34.4518C44.0017 34.4518 43.9933 34.3936 44.0432 34.377C44.1074 34.351 44.1791 34.3502 44.2439 34.3749C44.3086 34.3995 44.3616 34.4478 44.3923 34.51C44.4172 34.5432 44.4172 34.5764 44.4006 34.5931C44.3756 34.6346 44.2842 34.6429 44.1928 34.618ZM44.1596 34.8424C44.1346 35.0502 44.1596 35.0585 44.1679 35.0585H44.1845L44.2011 35.0502L44.3175 34.8839L44.1679 34.8175V34.8424H44.1596ZM44.2011 34.8756L44.2593 34.9006L44.1928 34.992L44.2011 34.8756ZM43.8521 34.6762L43.8438 34.8673L44.01 34.6679L43.8438 34.6512L43.8521 34.6762ZM43.8853 34.6928H43.9352L43.8853 34.7593V34.6928Z" fill="black"/>
<path d="M43.7364 34.6097C43.7364 34.6097 43.861 34.8507 43.886 34.9421C43.8943 34.992 43.9691 35.0585 44.0522 35.0834C44.1353 35.1167 44.2184 35.1167 44.2766 35.0751L44.3846 34.9837C44.4179 34.9421 44.4345 34.9338 44.4677 34.9421V34.9006C44.4179 34.9006 44.3929 34.9172 44.3597 34.9505L44.2516 35.0336C44.1852 35.0834 44.1104 35.0668 44.0688 35.0502C43.9857 35.0252 43.9275 34.9671 43.9192 34.9255C43.8943 34.8424 43.7779 34.6014 43.7696 34.5931L43.7364 34.6097ZM43.9026 33.895C43.8089 33.9443 43.7375 34.0275 43.7031 34.1277L43.7364 34.136C43.7364 34.136 43.7945 33.9864 43.9109 33.9282C43.9422 33.914 43.9762 33.9066 44.0106 33.9066C44.045 33.9066 44.079 33.914 44.1104 33.9282L44.1187 33.895C44.0356 33.8617 43.9691 33.8617 43.8943 33.895H43.9026ZM44.8001 34.3271C44.8168 34.3271 45.0661 34.5266 44.9248 34.7593L44.9497 34.7842C45.116 34.51 44.8251 34.2939 44.8251 34.2856L44.8001 34.3271ZM44.0356 34.3604C44.0356 34.3604 43.994 34.5017 44.2018 34.5515C44.2018 34.5515 44.0106 34.5515 43.994 34.5017C43.9857 34.4518 43.994 34.3438 44.0356 34.3604ZM44.6589 34.5266C44.6589 34.5432 44.6422 34.5515 44.6339 34.5515C44.6285 34.5518 44.6232 34.5504 44.6187 34.5474C44.6142 34.5444 44.6108 34.54 44.609 34.5349C44.609 34.5183 44.6173 34.51 44.6339 34.51C44.6422 34.51 44.6589 34.5183 44.6589 34.5349V34.5266ZM44.6755 34.6263C44.6755 34.6346 44.6755 34.643 44.6589 34.643C44.6535 34.6433 44.6481 34.6418 44.6436 34.6388C44.6391 34.6358 44.6357 34.6314 44.6339 34.6263C44.6339 34.6197 44.6366 34.6134 44.6412 34.6087C44.6459 34.604 44.6522 34.6014 44.6589 34.6014C44.6672 34.6014 44.6755 34.6097 44.6755 34.6263Z" fill="black"/>
<path d="M44.5249 34.6014C44.5387 34.6014 44.5499 34.5902 44.5499 34.5764C44.5499 34.5627 44.5387 34.5515 44.5249 34.5515C44.5112 34.5515 44.5 34.5627 44.5 34.5764C44.5 34.5902 44.5112 34.6014 44.5249 34.6014Z" fill="black"/>
<path d="M44.5931 34.7094C44.5931 34.7161 44.5904 34.7224 44.5858 34.7271C44.5811 34.7318 44.5747 34.7344 44.5681 34.7344C44.5615 34.7344 44.5552 34.7318 44.5505 34.7271C44.5458 34.7224 44.5432 34.7161 44.5432 34.7094C44.5432 34.7011 44.5515 34.6928 44.5681 34.6928L44.5931 34.7094ZM44.003 34.1028C44.003 34.1094 44.0004 34.1157 43.9957 34.1204C43.991 34.1251 43.9847 34.1277 43.9781 34.1277C43.9714 34.1277 43.9651 34.1251 43.9604 34.1204C43.9558 34.1157 43.9531 34.1094 43.9531 34.1028C43.9554 34.0993 43.9585 34.0965 43.9621 34.0946C43.9657 34.0926 43.9698 34.0916 43.9739 34.0916C43.978 34.0916 43.9821 34.0926 43.9857 34.0946C43.9893 34.0965 43.9924 34.0993 43.9947 34.1028H44.003Z" fill="black"/>
<path d="M43.9937 34.2191C44.0075 34.2191 44.0186 34.208 44.0186 34.1942C44.0186 34.1804 44.0075 34.1693 43.9937 34.1693C43.9799 34.1693 43.9688 34.1804 43.9688 34.1942C43.9688 34.208 43.9799 34.2191 43.9937 34.2191Z" fill="black"/>
<path d="M43.8687 34.1776C43.8825 34.1776 43.8936 34.1664 43.8936 34.1526C43.8936 34.1388 43.8825 34.1277 43.8687 34.1277C43.8549 34.1277 43.8438 34.1388 43.8438 34.1526C43.8438 34.1664 43.8549 34.1776 43.8687 34.1776Z" fill="black"/>
<path d="M43.9283 34.2856C43.9286 34.291 43.9271 34.2964 43.9241 34.3008C43.9211 34.3053 43.9167 34.3087 43.9116 34.3105C43.905 34.3105 43.8987 34.3079 43.894 34.3032C43.8893 34.2986 43.8867 34.2922 43.8867 34.2856C43.8867 34.279 43.8893 34.2727 43.894 34.268C43.8987 34.2633 43.905 34.2607 43.9116 34.2607C43.9167 34.2625 43.9211 34.2659 43.9241 34.2704C43.9271 34.2749 43.9286 34.2802 43.9283 34.2856ZM44.3272 33.4878C44.3272 33.4878 44.6181 33.6706 44.3355 34.0114C44.3355 34.0114 44.4768 33.9033 44.4851 33.7288C44.5017 33.5543 44.3854 33.413 44.3189 33.4878H44.3272ZM45.4491 33.9781C45.3494 34.028 45.2164 33.9366 45.15 33.8534C45.0835 33.7703 44.9422 33.7454 44.8508 33.9033C44.7677 34.0529 44.643 34.1111 44.643 34.1111C44.643 34.1111 44.7677 34.0446 44.8923 33.9033C45.017 33.7703 45.0918 33.8784 45.2164 33.9449C45.3328 34.0114 45.3577 34.028 45.4408 33.9864V33.9781H45.4491Z" fill="black"/>
<path d="M45.4242 34.003C45.3977 34.0235 45.3647 34.034 45.3312 34.0325C45.2977 34.0309 45.2659 34.0176 45.2413 33.9947C45.1582 33.9282 45.1 33.8451 45.0086 33.895C44.9089 33.9448 44.7344 34.0778 44.7344 34.0778C44.7344 34.0778 45.0253 33.8783 45.0834 33.9282C45.1333 33.9698 45.2663 34.0778 45.3411 34.0446L45.4242 34.003Z" fill="black"/>
<path d="M45.1997 34.1194C45.1083 34.0529 45.0169 34.2025 44.9421 34.1858C44.859 34.1692 44.8008 34.0363 44.8008 34.0363C44.8008 34.0363 44.8673 34.1692 44.967 34.1443C45.075 34.1111 45.1415 34.0446 45.208 34.0944C45.2662 34.1443 45.1997 34.1194 45.1997 34.1194Z" fill="black"/>
<path d="M45.0569 34.1443C45.0331 34.1492 45.0086 34.1488 44.985 34.1431C44.9615 34.1375 44.9394 34.1268 44.9204 34.1118C44.9014 34.0967 44.8859 34.0777 44.875 34.0561C44.8642 34.0344 44.8581 34.0106 44.8574 33.9864C44.8574 33.9864 44.9156 34.136 45.0735 34.1111L45.0569 34.1443Z" fill="black"/>
<path d="M45.0487 34.028C45.0571 34.0695 45.0571 34.0944 45.0072 34.0944C44.9573 34.0944 44.9241 34.0778 44.9241 34.028C44.9241 33.9864 45.0404 33.9947 45.0487 34.028ZM44.4005 33.7786C44.3985 33.7926 44.3915 33.8053 44.3808 33.8145C44.3701 33.8237 44.3564 33.8286 44.3423 33.8285C44.3091 33.8285 44.3008 33.8119 44.3008 33.7786C44.3008 33.7454 44.3008 33.7205 44.3423 33.7205C44.3839 33.7205 44.4005 33.7454 44.4005 33.7786Z" fill="black"/>
<path d="M44.1941 33.5709C44.1941 33.5709 44.5099 33.5709 44.3603 33.9615C44.3603 33.9615 44.4767 33.7703 44.4019 33.6291C44.3188 33.4961 44.2107 33.5293 44.2107 33.5293C44.2107 33.5293 44.1775 33.5543 44.1941 33.5709Z" fill="black"/>
<path d="M44.1939 33.7288C44.1939 33.8119 44.2437 33.8867 44.3434 33.9698L44.3684 33.9366C44.277 33.8618 44.2271 33.7953 44.2271 33.7288C44.2271 33.6623 44.277 33.6208 44.277 33.6208L44.252 33.5958C44.252 33.5958 44.1939 33.6457 44.1855 33.7288H44.1939Z" fill="black"/>
<path d="M44.2601 33.7953C44.2684 33.8368 44.31 33.8784 44.3598 33.895L44.3765 33.8617C44.3349 33.8451 44.3017 33.8119 44.2934 33.7786C44.2767 33.7122 44.3266 33.6374 44.3266 33.6374L44.2934 33.6124C44.2934 33.6124 44.2352 33.7122 44.2601 33.7953ZM44.684 34.0113C44.684 34.0113 44.7421 34.136 44.659 34.269L44.5759 34.4019C44.5759 34.4019 44.6757 34.2108 44.6341 34.136C44.6009 34.0529 44.684 34.0113 44.684 34.0113ZM45.8973 35.3244C46.2131 35.3826 46.9362 35.9477 46.9362 35.9477L46.9777 35.8979C46.9528 35.873 46.2381 35.3161 45.9056 35.258L45.8973 35.3244ZM46.1799 36.114C46.1965 36.4048 46.5123 36.5794 46.5123 36.5877L46.5539 36.5295C46.5539 36.5295 46.263 36.3633 46.2464 36.114H46.1799ZM45.407 36.1804C45.407 36.4963 45.7062 36.8786 45.7228 36.8952L45.7727 36.8536C45.7727 36.8536 45.4735 36.4713 45.4735 36.1804H45.407ZM44.4014 36.2137C44.4513 36.3217 44.4513 36.3716 44.4346 36.3965C44.418 36.4298 44.3848 36.4298 44.3848 36.4298L44.3931 36.4963C44.418 36.4963 44.4679 36.4796 44.4928 36.4298C44.5261 36.3716 44.5178 36.2885 44.4596 36.1804L44.4014 36.2137Z" fill="black"/>
<path d="M39.8738 34.6375C39.8738 34.6375 39.8738 34.85 40.0488 34.975C40.0488 34.975 40.0238 34.75 40.0738 34.65C40.0738 34.65 39.9863 34.55 39.8613 34.65L39.8738 34.6375ZM40.1988 34.775C40.1988 34.775 40.2363 34.9625 40.3488 35.05L40.4113 35.0375C40.4113 35.0375 40.4488 34.7875 40.4863 34.7625C40.5238 34.7375 40.3238 34.85 40.1988 34.775Z" fill="white" stroke="black" stroke-width="0.025" stroke-miterlimit="3"/>
<path d="M40.4871 34.7625L40.6121 34.9625L40.7621 34.8875L40.7246 34.65C40.7246 34.65 40.6371 34.625 40.4746 34.775L40.4871 34.7625Z" fill="white" stroke="black" stroke-width="0.025" stroke-miterlimit="3"/>
<path d="M41.0738 34.8L40.9113 34.9375C40.9113 34.9375 40.8238 34.875 40.7488 34.8875L40.7863 34.675C40.7863 34.675 40.9113 34.5875 41.0738 34.8ZM39.8988 36.8C39.8988 36.8 39.8738 36.5125 39.9113 36.4875C39.9113 36.4875 40.0363 36.525 40.0738 36.4875C40.0738 36.4875 40.1488 36.725 40.1238 36.8125C40.1113 36.9125 39.9988 36.875 39.8988 36.8125V36.8ZM40.6488 36.5C40.6488 36.5 40.6488 36.25 40.6863 36.2125C40.6863 36.2125 40.9363 36.25 40.9863 36.125L41.0738 36.3625C41.0738 36.3625 40.7988 36.3375 40.6488 36.4875V36.5Z" fill="white" stroke="black" stroke-width="0.025" stroke-miterlimit="3"/>
<path d="M40.3863 36.55C40.3863 36.55 40.4363 36.2875 40.4863 36.275C40.4863 36.275 40.6113 36.3125 40.6488 36.275V36.5875C40.6488 36.5875 40.6488 36.45 40.3988 36.55H40.3863ZM40.1113 36.5875C40.1113 36.5875 40.1613 36.35 40.1988 36.35C40.2363 36.35 40.3363 36.4125 40.3863 36.375V36.55C40.3863 36.55 40.1738 36.5 40.1363 36.8L40.1113 36.5875Z" fill="white"/>
<path d="M40.3863 36.55C40.3863 36.55 40.4363 36.2875 40.4863 36.275C40.4863 36.275 40.6113 36.3125 40.6488 36.275V36.5875C40.6488 36.5875 40.6488 36.45 40.3988 36.55H40.3863ZM40.3863 36.55V36.375C40.3363 36.4125 40.2363 36.35 40.1988 36.35C40.1613 36.35 40.1113 36.5875 40.1113 36.5875L40.1363 36.8C40.1738 36.5 40.3863 36.55 40.3863 36.55Z" stroke="black" stroke-width="0.025" stroke-miterlimit="3"/>
<path d="M43.8757 41.4C43.8757 41.4 44.5382 42.025 44.3757 42.55C44.3757 42.55 44.7882 41.6375 44.3382 41.375C43.8757 41.1 43.8632 41.3125 43.8757 41.4Z" fill="#00A651" stroke="black" stroke-width="0.0625" stroke-miterlimit="4.8"/>
<path d="M43.0501 42C43.0501 42 42.8751 42.2375 43.0626 42.4C43.0626 42.4 42.8626 42.7 43.0126 42.95C43.0126 42.95 42.8876 43.2125 42.9251 43.5C42.9251 43.5 42.8126 43.9375 43.0501 44.1375C43.0501 44.1375 43.3001 44.2625 43.4126 44.1625C43.4126 44.1625 43.6251 43.825 43.4876 43.4875C43.4876 43.4875 43.6501 43.2 43.4751 42.85C43.4751 42.85 43.5251 42.6375 43.3751 42.4C43.3751 42.4 43.4751 42.25 43.3876 42.125C43.3876 42.125 43.0751 41.8 43.0501 42Z" fill="#964B36" stroke="black" stroke-width="0.0625" stroke-miterlimit="4.8"/>
<path d="M43.2387 41.225C43.2387 41.225 42.4512 39.725 41.9012 39.6625C41.3637 39.6 41.3262 39.0625 41.3262 39.0625C41.3262 39.0625 41.3887 39.3125 41.8262 39.3125C42.2637 39.3125 43.1137 39.9375 43.2012 40.4C43.3012 40.875 43.3887 40.8125 43.3887 40.8125L43.2387 41.225Z" fill="#00A651" stroke="black" stroke-width="0.0625" stroke-miterlimit="4.8"/>
<path d="M43.2391 41.125C43.2391 41.125 43.5266 39.225 44.7641 39.1875C46.0016 39.15 45.5891 39.2875 45.8891 39.0875C45.8891 39.0875 45.0516 39.525 44.5391 39.5875C44.0266 39.65 43.6016 40.65 43.6141 40.8375C43.6266 41.025 43.3391 41.3875 43.1891 41.2625C43.0516 41.1375 43.2391 41.125 43.2391 41.125Z" fill="#00A651" stroke="black" stroke-width="0.0625" stroke-miterlimit="4.8"/>
<path d="M43.5136 41.825C43.5136 41.825 43.8011 41.075 44.2886 41.325C44.2886 41.325 43.9136 40.6 43.2386 41.225C43.2386 41.225 43.5386 41.6375 43.5261 41.825H43.5136ZM42.5761 41.075C42.5761 41.075 43.0011 42.75 42.3761 43.25C42.3761 43.25 42.3886 42.3875 42.0136 41.875C41.6386 41.3625 42.3886 40.8 42.5886 41.0625L42.5761 41.075Z" fill="#00A651" stroke="black" stroke-width="0.0625" stroke-miterlimit="4.8"/>
<path d="M42.625 41.375C42.625 41.375 43.375 42.075 43.4125 42.3125C43.4625 42.55 43.625 41.6125 43.2875 41.3375C43.0732 41.1787 42.8251 41.0717 42.5625 41.025L42.625 41.375Z" fill="#00A651" stroke="black" stroke-width="0.0625" stroke-miterlimit="4.8"/>
<path d="M41.2637 43.225C41.2637 43.225 41.3387 43.5125 41.5137 43.575C41.5137 43.575 41.5262 43.7875 41.6887 43.8625C41.6887 43.8625 41.6012 44.0375 41.7512 44.15C41.7512 44.15 41.7137 44.525 41.8512 44.6C41.8512 44.6 42.1762 44.575 42.2887 44.475C42.2887 44.475 42.3637 44.2375 42.1762 44C42.1762 44 42.2012 43.775 42.0262 43.65C42.0262 43.65 42.0762 43.3375 41.8512 43.225C41.8512 43.225 41.8137 42.975 41.6762 42.85C41.6762 42.85 41.3887 43.25 41.2637 43.225Z" fill="#964B36" stroke="black" stroke-width="0.0625" stroke-miterlimit="4.8"/>
<path d="M41.625 42.8625C41.625 42.8625 40.6625 42.5 40.125 43.0125C40.125 43.0125 40.95 43.125 41.0625 43.2875C41.1625 43.45 41.675 43.025 41.6375 42.8625H41.625Z" fill="#00A651" stroke="black" stroke-width="0.0625" stroke-miterlimit="4.8"/>
<path d="M41.3381 43.4625L41.1631 43.325C41.0631 43.2625 40.2506 43.0375 40.1381 43.825C40.1381 43.825 39.8506 43.05 40.2756 42.95C40.7006 42.825 41.0506 43.075 41.3381 43.45M40.7006 41.8625C40.7006 41.8625 41.0006 42.4875 41.1131 42.5375C41.2131 42.5625 41.3006 42.45 41.3006 42.45C41.3006 42.45 40.9006 41.875 40.7006 41.8625ZM40.4756 40.8625C40.4756 40.8625 40.2256 40.0375 39.9381 40.2625C39.6381 40.475 39.7131 41.075 39.7131 41.075C39.7131 41.075 39.1131 40.4625 39.4631 39.975C39.8131 39.4875 40.4881 40.025 40.4881 40.875L40.4756 40.8625Z" fill="#00A651"/>
<path d="M41.3381 43.4625L41.1631 43.325C41.0631 43.2625 40.2506 43.0375 40.1381 43.825C40.1381 43.825 39.8506 43.05 40.2756 42.95C40.7006 42.825 41.0506 43.075 41.3381 43.45M40.7006 41.8625C40.7006 41.8625 41.0006 42.4875 41.1131 42.5375C41.2131 42.5625 41.3006 42.45 41.3006 42.45C41.3006 42.45 40.9006 41.875 40.7006 41.8625ZM40.4756 40.8625C40.4756 40.8625 40.2256 40.0375 39.9381 40.2625C39.6381 40.475 39.7131 41.075 39.7131 41.075C39.7131 41.075 39.1131 40.4625 39.4631 39.975C39.8131 39.4875 40.4881 40.025 40.4881 40.875L40.4756 40.8625Z" stroke="black" stroke-width="0.0625" stroke-miterlimit="4.8"/>
<path d="M41.1504 42.575C41.1504 42.575 41.1504 42.7375 41.2754 42.775C41.3754 42.825 41.5754 42.9 41.5754 42.8125C41.5754 42.725 41.4254 42.3625 41.3629 42.4C41.3004 42.45 41.1879 42.45 41.1504 42.575Z" fill="#964B36" stroke="black" stroke-width="0.0625" stroke-miterlimit="4.8"/>
<path d="M40.9631 41.6125C40.9631 41.6125 40.9381 40.8875 41.4006 40.6125C41.4006 40.6125 41.5006 40.6375 41.5506 40.4875C41.5506 40.4875 41.1756 41.4 41.2756 41.8625V41.925" fill="#00A651"/>
<path d="M40.9631 41.6125C40.9631 41.6125 40.9381 40.8875 41.4006 40.6125C41.4006 40.6125 41.5006 40.6375 41.5506 40.4875C41.5506 40.4875 41.1756 41.4 41.2756 41.8625V41.925" stroke="black" stroke-width="0.0625" stroke-miterlimit="4.8"/>
<path d="M41.0625 40.725C41.0625 40.725 41.9125 38.975 42.9375 39.5875C42.9375 39.5875 41.8625 39.8 41.475 40.575L41.075 41.15L41.0625 40.725Z" fill="#00A651" stroke="black" stroke-width="0.0625" stroke-miterlimit="4.8"/>
<path d="M40.6129 41.375C40.6129 41.375 40.3629 40.2 40.2004 40.0375C40.0379 39.8875 39.7754 39.7125 39.4629 39.975C39.4629 39.975 40.0129 39.4875 40.5879 39.9C41.1754 40.3125 41.0504 40.95 41.0504 40.95L40.9879 41.7625L40.5879 41.4" fill="#00A651"/>
<path d="M40.6129 41.375C40.6129 41.375 40.3629 40.2 40.2004 40.0375C40.0379 39.8875 39.7754 39.7125 39.4629 39.975C39.4629 39.975 40.0129 39.4875 40.5879 39.9C41.1754 40.3125 41.0504 40.95 41.0504 40.95L40.9879 41.7625L40.5879 41.4" stroke="black" stroke-width="0.0625" stroke-miterlimit="4.8"/>
<path d="M41.5129 42.7625C41.5129 42.7625 40.4754 40.8125 39.8129 42.2C39.8129 42.2 39.6879 42.5625 39.8129 42.7C39.8129 42.7 39.4379 42.425 39.6129 41.725C39.7879 41.05 40.9379 41.35 41.2629 41.925C41.5879 42.4875 41.6879 42.7625 41.6379 42.8C41.5879 42.825 41.5129 42.7625 41.5129 42.7625ZM44.4254 43.325C44.4254 43.325 45.1754 41.775 45.6254 42.4875C45.6254 42.4875 45.7504 42.825 45.5504 42.975C45.5504 42.975 45.2629 42.6 44.9879 43.05C44.7379 43.4875 44.8379 43.45 44.8379 43.45C44.8379 43.45 44.5504 43.5375 44.4254 43.325Z" fill="#00A651" stroke="black" stroke-width="0.0625" stroke-miterlimit="4.8"/>
<path d="M45.5508 42.975C45.5508 42.975 45.9633 43.1875 45.8258 43.625C45.8258 43.625 46.3758 42.575 45.6133 42.4875C45.6133 42.4875 45.7633 42.8125 45.5633 42.975H45.5508ZM45.6008 41.9C45.6008 41.9 46.6008 42.1875 46.6258 42.6125C46.6258 42.6125 46.7883 41.8 46.2258 41.55C46.2258 41.55 45.5508 41.65 45.6008 41.9Z" fill="#00A651" stroke="black" stroke-width="0.0625" stroke-miterlimit="4.8"/>
<path d="M46.0379 40.6C46.4629 39.775 47.0004 40.875 47.0004 40.875C47.0004 40.875 47.1879 40 46.6504 39.85C46.1129 39.7 45.7754 41.6875 45.7754 41.6875L45.1504 41.825C45.1504 41.825 45.3254 40.0875 46.2629 39.925L46.3754 39.95" fill="#00A651"/>
<path d="M46.0379 40.6C46.4629 39.775 47.0004 40.875 47.0004 40.875C47.0004 40.875 47.1879 40 46.6504 39.85C46.1129 39.7 45.7754 41.6875 45.7754 41.6875L45.1504 41.825C45.1504 41.825 45.3254 40.0875 46.2629 39.925L46.3754 39.95" stroke="black" stroke-width="0.0625" stroke-miterlimit="4.8"/>
<path d="M45.2879 41.1C45.2879 41.1 44.6879 39.8875 44.2879 39.7625C43.8754 39.6375 44.5129 39.45 44.7629 39.675C45.0129 39.925 45.4754 40.2125 45.4254 40.8375L45.3004 41.1H45.2879ZM44.6754 42.775C44.6754 42.775 44.8504 41.95 45.3254 41.7C45.7879 41.45 46.2254 41.5375 46.2254 41.5375C46.2254 41.5375 45.6629 41.6625 45.5754 41.95C45.4754 42.2375 45.3254 42.25 45.3254 42.25L44.6754 42.775Z" fill="#00A651" stroke="black" stroke-width="0.0625" stroke-miterlimit="4.8"/>
<path d="M44.4265 43.325C44.4265 43.325 44.164 43.825 44.2265 43.9125C44.2265 43.9125 43.939 44.3125 44.0515 44.525C44.0515 44.525 44.339 44.7375 44.464 44.65C44.464 44.65 44.789 44.1875 44.7015 43.9375C44.7015 43.9375 44.914 43.6375 44.8265 43.45C44.8265 43.45 44.514 43.475 44.4265 43.325Z" fill="#964B36" stroke="black" stroke-width="0.0625" stroke-miterlimit="4.8"/>
<path d="M43.0512 42.4375C43.0637 42.4375 43.2262 42.525 43.3387 42.4875L43.4137 42.425L43.3512 42.3875C43.3137 42.4625 43.1387 42.4 43.0762 42.375L43.0512 42.4375ZM43.0262 42.925L43.0137 42.9875C43.0262 42.9875 43.3387 43.05 43.5012 42.9125L43.4512 42.8625C43.3262 42.9875 43.0262 42.925 43.0262 42.925ZM42.9387 43.475L42.9012 43.525C42.9012 43.525 43.2762 43.8 43.5262 43.5125L43.4637 43.4625C43.2637 43.7125 42.9637 43.4875 42.9512 43.4625L42.9387 43.475ZM41.5137 43.55V43.5875C41.5387 43.5875 41.8512 43.4625 41.8762 43.225H41.8387C41.8137 43.4375 41.5137 43.55 41.5137 43.55ZM41.6887 43.8375V43.875C41.7012 43.875 41.9887 43.85 42.0387 43.65H42.0012C41.9637 43.825 41.6887 43.8375 41.6887 43.8375ZM41.7512 44.1375V44.175C41.7512 44.175 42.0887 44.1875 42.1887 44.0125L42.1637 43.9875C42.0637 44.15 41.7512 44.1375 41.7512 44.1375ZM44.2012 43.9375C44.2012 43.9375 44.3512 44.075 44.5137 44.0625C44.5541 44.0617 44.594 44.0524 44.6306 44.0352C44.6672 44.018 44.6998 43.9932 44.7262 43.9625L44.6762 43.925C44.6331 43.9692 44.5752 43.9959 44.5137 44C44.4638 43.9977 44.4149 43.9854 44.3698 43.964C44.3247 43.9425 44.2844 43.9123 44.2512 43.875L44.2012 43.9375Z" fill="#000001"/>
<path d="M53.925 45.075C53.9057 45.0835 53.8886 45.0963 53.875 45.1125L53.925 45.075ZM55.075 44.7875C55.075 44.7625 55.0625 44.775 55.05 44.7625L55 44.6625H54.9625L54.875 44.4875C54.8771 44.4793 54.8771 44.4707 54.875 44.4625C54.8754 44.4458 54.8754 44.4291 54.875 44.4125C54.8625 44.4 54.85 44.4125 54.8375 44.3875V44.3L54.825 44.25V44.175C54.8267 44.1584 54.8267 44.1416 54.825 44.125C54.8 44.075 54.775 44.0375 54.775 43.975L54.7875 43.85L54.7625 43.725L54.7875 43.6125V42.95C54.7625 42.9 54.775 42.8625 54.7625 42.825V42.575L54.75 42.8875C54.75 42.6125 54.725 42.35 54.725 42.35L54.3125 42.1625C54.3125 42.1625 54.275 42.925 54.2875 43.0375C54.2875 43.1375 54.325 43.875 54.3125 43.9625C54.2875 44.05 54.25 44.4875 54.25 44.4875C54.25 44.4875 54.05 44.6375 53.9625 44.8C53.8875 44.95 53.9 45.0125 53.875 45.0125L54.075 44.975L53.925 45.075C53.9394 45.0691 53.9551 45.0672 53.9704 45.0694C53.9858 45.0716 54.0003 45.0778 54.0125 45.0875L54.05 45.1125L54.075 45.0875L54.1625 45.1375L54.2125 45.1L54.2375 45.05H54.375C54.4125 45.05 54.4375 45 54.475 44.9625C54.5125 44.9375 54.5375 44.925 54.575 44.925C54.6125 44.925 54.65 44.9625 54.6875 44.975C54.7125 44.975 54.7375 44.975 54.7625 44.9375L54.8 44.8625H55.0375L55.075 44.8875L55.0875 44.8375V44.7875H55.075Z" fill="#964B36"/>
<path d="M53.925 45.075C53.9057 45.0835 53.8886 45.0963 53.875 45.1125L53.925 45.075ZM53.925 45.075L54.075 44.975L53.875 45.0125C53.9 45.0125 53.8875 44.95 53.9625 44.8C54.05 44.6375 54.25 44.4875 54.25 44.4875C54.25 44.4875 54.2875 44.05 54.3125 43.9625C54.325 43.875 54.2875 43.1375 54.2875 43.0375C54.275 42.925 54.3125 42.1625 54.3125 42.1625L54.725 42.35C54.725 42.35 54.75 42.6125 54.75 42.8875L54.7625 42.575V42.825C54.775 42.8625 54.7625 42.9 54.7875 42.95V43.6125L54.7625 43.725L54.7875 43.85L54.775 43.975C54.775 44.0375 54.8 44.075 54.825 44.125C54.8267 44.1416 54.8267 44.1584 54.825 44.175V44.25L54.8375 44.3V44.3875C54.85 44.4125 54.8625 44.4 54.875 44.4125C54.8754 44.4291 54.8754 44.4458 54.875 44.4625C54.8771 44.4707 54.8771 44.4793 54.875 44.4875L54.9625 44.6625H55L55.05 44.7625C55.0625 44.775 55.075 44.7625 55.075 44.7875H55.0875V44.8375L55.075 44.8875L55.0375 44.8625H54.8L54.7625 44.9375C54.7375 44.975 54.7125 44.975 54.6875 44.975C54.65 44.9625 54.6125 44.925 54.575 44.925C54.5375 44.925 54.5125 44.9375 54.475 44.9625C54.4375 45 54.4125 45.05 54.375 45.05H54.2375L54.2125 45.1L54.1625 45.1375L54.075 45.0875L54.05 45.1125L54.0125 45.0875C54.0003 45.0778 53.9858 45.0716 53.9704 45.0694C53.9551 45.0672 53.9394 45.0691 53.925 45.075Z" stroke="black" stroke-width="0.0375" stroke-miterlimit="4.8"/>
<path d="M54.2375 45.0625L54.3 45.075L54.3125 45.1C54.3163 45.1022 54.3206 45.1033 54.325 45.1033C54.3294 45.1033 54.3337 45.1022 54.3375 45.1L54.375 45.1125H54.4125L54.4625 45.125C54.4875 45.1375 54.5125 45.125 54.5375 45.1125C54.5625 45.0875 54.575 45.1125 54.6 45.1375C54.625 45.1625 54.625 45.15 54.6375 45.1375V45.125L54.675 45.1125L54.725 45.1L54.7625 45.075L54.8125 45.1C54.8214 45.103 54.8298 45.1072 54.8375 45.1125C54.8625 45.075 54.9125 45.0625 54.9375 45.0375H55.1C55.1125 45.025 55.1125 45.0125 55.1375 45.0125L55.225 45.0625C55.2375 45.0625 55.3125 45.0875 55.3 45.025C55.3 44.975 55.25 45.0125 55.2375 44.975V44.9C55.2331 44.8886 55.2264 44.8783 55.2178 44.8697C55.2092 44.8611 55.1989 44.8544 55.1875 44.85H55.15L55.125 44.7875C55.1125 44.7875 55.1 44.8 55.075 44.7875L55.05 44.7625C55.0125 44.725 54.9875 44.7875 54.9625 44.775C54.9375 44.775 54.9125 44.7125 54.8875 44.6875C54.8875 44.675 54.85 44.625 54.8375 44.6375C54.8125 44.65 54.8375 44.7 54.825 44.725C54.8125 44.7375 54.775 44.725 54.775 44.725C54.75 44.725 54.75 44.725 54.7375 44.7625C54.7 44.8 54.6875 44.8375 54.65 44.8375L54.5875 44.8125C54.575 44.825 54.5625 44.85 54.5375 44.85C54.521 44.8534 54.504 44.8534 54.4875 44.85C54.4625 44.85 54.45 44.8125 54.4375 44.8C54.4375 44.7967 54.4362 44.7935 54.4338 44.7911C54.4315 44.7888 54.4283 44.7875 54.425 44.7875C54.4217 44.7875 54.4185 44.7888 54.4162 44.7911C54.4138 44.7935 54.4125 44.7967 54.4125 44.8L54.3875 44.7875C54.3625 44.775 54.3625 44.7875 54.35 44.8125V44.875L54.3 44.925L54.25 44.9375C54.2375 44.9375 54.2125 44.975 54.2 44.9375C54.1875 44.8875 54.2375 44.8 54.175 44.8125C54.175 44.8125 54.15 44.8125 54.1375 44.85V44.925C54.1375 44.9625 54.0625 45.025 54.075 45.05C54.075 45.0875 54.1125 45.05 54.125 45.05C54.1375 45.0625 54.125 45.0875 54.15 45.1C54.1625 45.1375 54.2375 45.05 54.2375 45.1M53.975 44.7625V44.75L53.9125 44.725L53.8625 44.775C53.825 44.8375 53.8375 44.9 53.775 44.9H53.725C53.7 44.9125 53.725 44.9625 53.725 44.9875V45.025C53.7125 45.025 53.7 45.025 53.6875 45.05C53.6875 45.1 53.725 45.0875 53.7375 45.0875H53.8625L53.9375 45.0625L54 45.05C54.0109 45.0303 54.0193 45.0093 54.025 44.9875V44.9375C54.025 44.9125 54.05 44.925 54.0625 44.8875C54.0625 44.8 53.975 44.8625 53.9875 44.775" fill="#964B36"/>
<path d="M54.2375 45.0625L54.3 45.075L54.3125 45.1C54.3163 45.1022 54.3206 45.1033 54.325 45.1033C54.3294 45.1033 54.3337 45.1022 54.3375 45.1L54.375 45.1125H54.4125L54.4625 45.125C54.4875 45.1375 54.5125 45.125 54.5375 45.1125C54.5625 45.0875 54.575 45.1125 54.6 45.1375C54.625 45.1625 54.625 45.15 54.6375 45.1375V45.125L54.675 45.1125L54.725 45.1L54.7625 45.075L54.8125 45.1C54.8214 45.103 54.8298 45.1072 54.8375 45.1125C54.8625 45.075 54.9125 45.0625 54.9375 45.0375H55.1C55.1125 45.025 55.1125 45.0125 55.1375 45.0125L55.225 45.0625C55.2375 45.0625 55.3125 45.0875 55.3 45.025C55.3 44.975 55.25 45.0125 55.2375 44.975V44.9C55.2331 44.8886 55.2264 44.8783 55.2178 44.8697C55.2092 44.8611 55.1989 44.8544 55.1875 44.85H55.15L55.125 44.7875C55.1125 44.7875 55.1 44.8 55.075 44.7875L55.05 44.7625C55.0125 44.725 54.9875 44.7875 54.9625 44.775C54.9375 44.775 54.9125 44.7125 54.8875 44.6875C54.8875 44.675 54.85 44.625 54.8375 44.6375C54.8125 44.65 54.8375 44.7 54.825 44.725C54.8125 44.7375 54.775 44.725 54.775 44.725C54.75 44.725 54.75 44.725 54.7375 44.7625C54.7 44.8 54.6875 44.8375 54.65 44.8375L54.5875 44.8125C54.575 44.825 54.5625 44.85 54.5375 44.85C54.521 44.8534 54.504 44.8534 54.4875 44.85C54.4625 44.85 54.45 44.8125 54.4375 44.8C54.4375 44.7967 54.4362 44.7935 54.4338 44.7911C54.4315 44.7888 54.4283 44.7875 54.425 44.7875C54.4217 44.7875 54.4185 44.7888 54.4162 44.7911C54.4138 44.7935 54.4125 44.7967 54.4125 44.8L54.3875 44.7875C54.3625 44.775 54.3625 44.7875 54.35 44.8125V44.875L54.3 44.925L54.25 44.9375C54.2375 44.9375 54.2125 44.975 54.2 44.9375C54.1875 44.8875 54.2375 44.8 54.175 44.8125C54.175 44.8125 54.15 44.8125 54.1375 44.85V44.925C54.1375 44.9625 54.0625 45.025 54.075 45.05C54.075 45.0875 54.1125 45.05 54.125 45.05C54.1375 45.0625 54.125 45.0875 54.15 45.1C54.1625 45.1375 54.2375 45.05 54.2375 45.1M53.975 44.7625V44.75L53.9125 44.725L53.8625 44.775C53.825 44.8375 53.8375 44.9 53.775 44.9H53.725C53.7 44.9125 53.725 44.9625 53.725 44.9875V45.025C53.7125 45.025 53.7 45.025 53.6875 45.05C53.6875 45.1 53.725 45.0875 53.7375 45.0875H53.8625L53.9375 45.0625L54 45.05C54.0109 45.0303 54.0193 45.0093 54.025 44.9875V44.9375C54.025 44.9125 54.05 44.925 54.0625 44.8875C54.0625 44.8 53.975 44.8625 53.9875 44.775" stroke="black" stroke-width="0.0375" stroke-miterlimit="4.8"/>
<path d="M55.0258 42.3375C55.0258 42.4625 54.9508 42.55 54.8508 42.55C54.7508 42.55 54.6758 42.45 54.6758 42.3375C54.6758 42.225 54.7508 42.1375 54.8508 42.1375C54.9508 42.1375 55.0258 42.225 55.0258 42.3375ZM54.4633 42.0875C54.4633 42.2125 54.3758 42.2875 54.2883 42.2875C54.1883 42.2875 54.1133 42.2 54.1133 42.0875C54.1133 41.975 54.1883 41.8875 54.2883 41.8875C54.3758 41.8875 54.4633 41.975 54.4633 42.0875Z" fill="black" stroke="black" stroke-width="0.0625" stroke-miterlimit="4.8"/>
<path d="M54.7516 42.1625C54.7516 42.2875 54.6766 42.375 54.5891 42.375C54.4891 42.375 54.4141 42.275 54.4141 42.1625C54.4141 42.05 54.4891 41.9625 54.5891 41.9625C54.6766 41.9625 54.7516 42.05 54.7516 42.1625Z" fill="black" stroke="black" stroke-width="0.0625" stroke-miterlimit="4.8"/>
<path d="M54.4625 42.35C54.4625 42.475 54.3875 42.5625 54.3 42.5625C54.2 42.5625 54.125 42.4625 54.125 42.35C54.125 42.2375 54.2 42.15 54.3 42.15C54.3875 42.15 54.4625 42.2375 54.4625 42.35Z" fill="black" stroke="black" stroke-width="0.0625" stroke-miterlimit="4.8"/>
<path d="M54.7387 42.5C54.7387 42.625 54.6637 42.7125 54.5637 42.7125C54.4637 42.7125 54.3887 42.625 54.3887 42.5125C54.3887 42.3875 54.4637 42.3 54.5637 42.3C54.6637 42.3 54.7387 42.4 54.7387 42.5125V42.5Z" fill="black" stroke="black" stroke-width="0.0625" stroke-miterlimit="4.8"/>
<path d="M54.8133 40.2875C54.8133 40.2875 56.5633 37.8625 58.4258 40.3875C58.4258 40.3875 58.4258 40.6375 58.2633 40.8875L58.2133 40.7L58.1133 40.725L58.0758 40.6L57.8758 40.5875L57.9383 40.325L57.7133 40.4875L57.7508 40.3L57.5008 40.55L57.5258 40.025L57.2633 40.475L57.2883 40.1625L57.2008 40.3L57.1383 40.125L57.0633 40.3L56.9383 40.2125V40.3375L56.7133 40.15L56.6383 40.4L56.5133 40.1375L56.4883 40.3125L56.3883 40.1L56.3633 40.3375L56.0133 40.175L56.0883 40.4L55.9133 40.275L55.9508 40.4L55.7008 40.35L55.7258 40.4875L55.4758 40.45L55.5258 40.575L55.1758 40.525L55.3008 40.6625L55.2633 40.725C55.2633 40.725 57.1508 40.1 57.2758 42.45L56.9383 42.625L57.0258 42.4375L56.9383 42.375L56.6508 42.15L56.7258 41.85L56.6383 41.8875L56.6133 41.7125L56.5758 41.75L56.4508 41.575L56.4258 41.6375L56.3508 41.425L56.2758 41.575L56.2258 41.225L56.1008 41.45L56.0883 41.325L56.0383 41.4L55.8883 41.2125L55.8383 41.3375L55.7758 41.2375L55.7258 41.3625L55.5508 41.2V41.325L55.4508 41.225L55.4008 41.2875L55.1258 41.15V41.275L54.9758 41.15L54.9258 41.275C54.9258 41.275 56.6383 42.25 56.1008 43.825L56.0133 44.0375L55.9758 43.5L55.8258 43.7875L55.9258 43.1625L55.8258 43.2875L55.8008 43.0375L55.6633 43.2875L55.6133 43.0125L55.5508 43.0875L55.4633 42.6875L55.3758 42.8625L55.2508 42.4L55.1633 42.5875L55.1008 42.2L55.0383 42.4375L54.8508 42.0875L54.8133 42.225L54.7133 41.95L54.6508 42.0375C54.6508 42.0375 54.3383 42.0375 54.2383 41.95C54.1383 41.875 53.8758 42.425 53.8758 42.425L53.9133 42.0875L53.7883 42.3125V42.0875L53.6008 42.75L53.5508 42.275L53.4383 42.6875L53.3883 42.5625L53.3633 42.7375L53.3008 42.675L53.2383 42.85L53.1383 42.775V43.025L53.0508 42.9L52.9633 43.275L52.9258 43.125V43.3L52.8383 43.2L52.7633 43.575L52.6508 43.425V43.6875L52.6883 43.8875L52.5633 43.825L52.6133 44.1625C52.6133 44.1625 52.1133 43.25 52.7008 42.375C53.2883 41.5 54.0758 41.25 54.0758 41.25L53.9883 41.1875L53.9758 41.1L53.5008 41.35L53.5133 41.2L53.3883 41.3L53.3633 41.15L53.2883 41.2875L53.2633 41.225L53.1633 41.4L53.1008 41.15L53.0133 41.45L52.9383 41.2375L52.7758 41.6875V41.35L52.6508 41.7L52.6133 41.325L52.5133 41.7625V41.3625L52.3758 41.7625L52.2758 41.3875L52.2133 41.75L52.1258 41.4625L52.0258 41.8875L51.8883 41.5125L51.8133 42.075L51.7133 41.85L51.7008 42.2625L51.5883 42.0125L51.7008 42.5375L51.5633 42.3375L51.6008 42.6625L51.4008 42.3125L51.4133 42.7375L51.3133 42.5875L51.2633 42.75C51.2633 42.75 51.2133 41.125 52.3258 40.8C53.4383 40.4875 54.1633 40.9 54.1633 40.9L53.7383 40.55L53.7883 40.45H53.6258L53.6883 40.325H53.3758L53.4633 40.2L53.2133 40.2375V40.1625L53.0633 40.2875L53.1258 40.15L52.9008 40.2875V40.075L52.7758 40.2625L52.7133 40.075L52.2133 40.575L52.3508 40.05L52.2633 40.175L52.2508 40.05L52.1008 40.275L52.0758 40.1125L52.0133 40.3L51.9633 40.0875L51.8508 40.3L51.7508 40.1L51.7008 40.3625L51.6133 40.2375L51.5258 40.425L51.4008 40.3L51.3883 40.425L51.1383 40.325L51.2008 40.5125L51.0133 40.35L50.9633 40.6L50.8508 40.475L50.7758 40.7875L50.7008 40.4875L50.6133 40.7375C50.6133 40.7375 51.6008 38.2125 54.0758 39.8625C54.0758 39.8625 54.3508 40.1125 54.4133 40.3C54.4758 40.4875 54.4133 40.3375 54.4133 40.3375L54.3758 38.5875L54.4758 39.3375L54.5383 39.0875L54.5133 39.4625L54.7633 38.925C54.7633 38.925 54.4758 39.8375 54.5758 40.175C54.5758 40.175 54.7008 39.1125 55.0758 38.9875L54.7258 39.7375L54.8258 39.725L54.7508 39.875H54.8508L54.7258 40.125L54.6758 40.25L54.7383 40.375L54.8258 40.2875H54.8133Z" fill="#00A651" stroke="black" stroke-width="0.0625" stroke-miterlimit="4.8"/>
<path d="M54.5629 41.3125L54.6129 41.35C54.6129 41.35 54.7754 41.1875 55.0254 41.4L55.0754 41.35C54.7629 41.0875 54.5629 41.3125 54.5629 41.3125ZM54.4879 40.4625L54.4754 40.5125L54.6004 40.4625L54.5129 40.6125L54.6879 40.55L54.4629 40.8375L54.5254 40.8875L54.8754 40.4125L54.6504 40.4875L54.7504 40.325L54.5629 40.4125L54.6004 40.1625H54.5379L54.4879 40.4625Z" fill="black"/>
<path d="M54.1508 40.475L54.2258 40.65L54.1008 40.6L54.4758 41.225L54.5133 41.175L54.4383 41.3625L54.5008 41.3875L54.6633 40.9875L54.6008 40.95L54.4758 41.1125L54.2633 40.7375L54.3633 40.775L54.2633 40.55L54.3883 40.6375V40.3875H54.3258V40.5125L54.1258 40.375L54.1633 40.475H54.1508ZM53.9258 41.275L53.9508 41.3375C54.0508 41.3 54.1258 41.2875 54.2008 41.325C54.2633 41.35 54.2883 41.425 54.2883 41.425L54.3508 41.4125C54.3508 41.4125 54.3258 41.3125 54.2258 41.2625C54.1383 41.225 54.0383 41.225 53.9258 41.275ZM54.2008 41.95L54.1508 41.6H54.2133L54.2758 41.95H54.2008ZM54.6883 41.9L54.6008 41.625L54.6633 41.6125L54.7508 41.875L54.6883 41.9ZM54.8633 42.1L54.8008 41.825L54.8633 41.8125L54.9258 42.075L54.8633 42.1Z" fill="black"/>
<path d="M41.4996 50.125C41.4996 50.125 41.1996 50 41.0621 50.1C40.9371 50.2 40.9371 50.3375 40.8246 50.325C40.8246 50.325 41.2746 50.425 41.3746 50.3125L41.4996 50.1625M41.5496 50.2625C41.5496 50.2625 41.3496 50.5125 41.4246 50.6625C41.4871 50.8125 41.6246 50.825 41.5996 50.9375C41.5996 50.9375 41.7871 50.525 41.6996 50.4125L41.5746 50.2625M41.2246 49.5375C41.2246 49.5375 40.9121 49.6375 40.8746 49.7875C40.8371 49.9625 40.9496 50.05 40.8621 50.125C40.8621 50.125 41.2496 49.9 41.2496 49.75C41.2507 49.6872 41.2465 49.6245 41.2371 49.5625M41.3996 49.65C41.3996 49.65 41.5496 49.3625 41.4496 49.225C41.3621 49.0875 41.2121 49.1 41.2371 48.975C41.2371 48.975 41.1121 49.425 41.2371 49.525L41.3621 49.65M41.0996 49.5375C41.0996 49.5375 41.0996 49.225 40.9621 49.1375C40.8246 49.05 40.6996 49.125 40.6621 49.0125C40.6621 49.0125 40.7371 49.4625 40.8871 49.5125L41.0746 49.55M41.6246 50.075C41.6246 50.075 41.9621 49.9625 41.9996 50.325C42.0121 50.7 41.9746 50.575 41.9746 50.575C41.9746 50.575 41.7996 50.175 41.5996 50.1125L41.6246 50.075Z" fill="#00A651"/>
<path d="M41.4996 50.125C41.4996 50.125 41.1996 50 41.0621 50.1C40.9371 50.2 40.9371 50.3375 40.8246 50.325C40.8246 50.325 41.2746 50.425 41.3746 50.3125L41.4996 50.1625M41.5496 50.2625C41.5496 50.2625 41.3496 50.5125 41.4246 50.6625C41.4871 50.8125 41.6246 50.825 41.5996 50.9375C41.5996 50.9375 41.7871 50.525 41.6996 50.4125L41.5746 50.2625M41.2246 49.5375C41.2246 49.5375 40.9121 49.6375 40.8746 49.7875C40.8371 49.9625 40.9496 50.05 40.8621 50.125C40.8621 50.125 41.2496 49.9 41.2496 49.75C41.2507 49.6872 41.2465 49.6245 41.2371 49.5625M41.3996 49.65C41.3996 49.65 41.5496 49.3625 41.4496 49.225C41.3621 49.0875 41.2121 49.1 41.2371 48.975C41.2371 48.975 41.1121 49.425 41.2371 49.525L41.3621 49.65M41.0996 49.5375C41.0996 49.5375 41.0996 49.225 40.9621 49.1375C40.8246 49.05 40.6996 49.125 40.6621 49.0125C40.6621 49.0125 40.7371 49.4625 40.8871 49.5125L41.0746 49.55M41.6246 50.075C41.6246 50.075 41.9621 49.9625 41.9996 50.325C42.0121 50.7 41.9746 50.575 41.9746 50.575C41.9746 50.575 41.7996 50.175 41.5996 50.1125L41.6246 50.075Z" stroke="black" stroke-width="0.0625" stroke-miterlimit="4.8"/>
<path d="M41.5371 50.2625L41.5746 50.55H41.6246L41.5871 50.2625L41.7121 49.65H41.6496L41.5371 50.2625Z" fill="black"/>
<path d="M41.2379 50.175L41.2129 50.2125C41.3754 50.275 41.6004 50.0875 41.6129 50.0875L41.5879 50.05C41.5879 50.05 41.3629 50.225 41.2379 50.175ZM41.6504 49.8125L40.9004 49.4375L40.9254 49.375L41.6754 49.75L41.6504 49.8125Z" fill="black"/>
<path d="M41.1125 49.725L41.0625 49.6875L41.2125 49.525L41.2625 49.575L41.1125 49.725ZM41.3625 49.65L41.2125 49.3125L41.275 49.275L41.4375 49.625L41.3625 49.65ZM41.6 50.075V50.15C41.8 50.1375 41.85 50.275 41.85 50.275L41.925 50.25C41.925 50.2125 41.8375 50.0625 41.6 50.075Z" fill="black"/>
<path d="M45.0625 50.2375C45.3125 50.1 45.3625 49.6 45.3625 49.6C45.3125 49.775 44.85 49.9625 44.85 49.9625C45.1875 49.75 45.6 48.7875 45.6 48.7875C45.4875 49.1375 44.6 49.4125 44.0125 49.7375C43.4375 50.0625 43.7375 50.9875 43.7375 50.9875C43.4636 50.7013 43.2809 50.3402 43.2125 49.95C43.15 49.5125 42.975 49.35 42.5875 49.3C42.1875 49.25 41.9625 49.6875 41.9625 49.6875L41.375 50L41.9625 50.025C41.9625 50.025 42.3875 50.1625 42.3875 50.5C42.3875 50.8375 42.0125 52.1625 42.6375 52.9125C43.0625 53.425 44.6375 53.725 44.6375 53.725" fill="white"/>
<path d="M45.0625 50.2375C45.3125 50.1 45.3625 49.6 45.3625 49.6C45.3125 49.775 44.85 49.9625 44.85 49.9625C45.1875 49.75 45.6 48.7875 45.6 48.7875C45.4875 49.1375 44.6 49.4125 44.0125 49.7375C43.4375 50.0625 43.7375 50.9875 43.7375 50.9875C43.4636 50.7013 43.2809 50.3402 43.2125 49.95C43.15 49.5125 42.975 49.35 42.5875 49.3C42.1875 49.25 41.9625 49.6875 41.9625 49.6875L41.375 50L41.9625 50.025C41.9625 50.025 42.3875 50.1625 42.3875 50.5C42.3875 50.8375 42.0125 52.1625 42.6375 52.9125C43.0625 53.425 44.6375 53.725 44.6375 53.725" stroke="black" stroke-width="0.0875" stroke-miterlimit="4.8"/>
<path d="M43.9121 51.2625C43.9121 51.2625 44.0371 50.6625 44.4121 50.6875C44.8121 50.7125 44.9246 50.25 45.1621 50.175C45.3871 50.1 46.5871 49.7875 46.7246 49.2C46.7246 49.2 46.5996 50.15 45.5121 50.625C45.5121 50.625 46.3871 50.3375 46.4996 50.1375C46.4996 50.1375 46.0996 50.9875 45.1496 51.125C45.1496 51.125 46.0496 51.05 46.1746 50.8125C46.1746 50.8125 45.7746 51.35 45.1121 51.4125C45.1121 51.4125 45.7246 51.6625 45.8871 51.45C45.8871 51.45 45.5496 51.85 45.1371 51.875L45.2496 51.9125C45.2496 51.9125 44.8496 52.375 44.4246 52.0625C43.9871 51.75 43.9746 52.1375 43.9746 52.1375" fill="white"/>
<path d="M43.9121 51.2625C43.9121 51.2625 44.0371 50.6625 44.4121 50.6875C44.8121 50.7125 44.9246 50.25 45.1621 50.175C45.3871 50.1 46.5871 49.7875 46.7246 49.2C46.7246 49.2 46.5996 50.15 45.5121 50.625C45.5121 50.625 46.3871 50.3375 46.4996 50.1375C46.4996 50.1375 46.0996 50.9875 45.1496 51.125C45.1496 51.125 46.0496 51.05 46.1746 50.8125C46.1746 50.8125 45.7746 51.35 45.1121 51.4125C45.1121 51.4125 45.7246 51.6625 45.8871 51.45C45.8871 51.45 45.5496 51.85 45.1371 51.875L45.2496 51.9125C45.2496 51.9125 44.8496 52.375 44.4246 52.0625C43.9871 51.75 43.9746 52.1375 43.9746 52.1375" stroke="black" stroke-width="0.0875" stroke-miterlimit="4.8"/>
<path d="M44.8012 52.1625C44.8012 52.1625 45.3012 53.0125 45.3637 53.4625C45.3637 53.4625 46.3262 54.5375 46.6887 54.5875C46.6887 54.5875 46.5262 54.6625 46.2137 54.4C46.2137 54.4 46.4637 54.675 46.5262 54.6875C46.5762 54.6875 46.3137 54.6625 46.2762 54.5875C46.2762 54.5875 46.3762 54.75 46.4512 54.775L46.3762 54.75C46.3762 54.75 46.2512 54.7375 46.1887 54.6875C46.1262 54.6375 46.1637 54.8125 46.1637 54.8125C46.1637 54.8125 46.0137 54.775 45.9637 54.725C45.9137 54.675 45.9887 54.8375 45.9887 54.8375L45.8637 54.8L45.7637 54.8625C45.7637 54.8625 45.7637 54.925 45.6887 54.875C45.6387 54.825 45.5262 54.875 45.5262 54.875C45.5262 54.875 45.4387 54.95 45.4012 54.9C45.3637 54.85 45.2137 55.0875 45.2137 55.0875L44.5762 53.55" fill="white"/>
<path d="M44.8012 52.1625C44.8012 52.1625 45.3012 53.0125 45.3637 53.4625C45.3637 53.4625 46.3262 54.5375 46.6887 54.5875C46.6887 54.5875 46.5262 54.6625 46.2137 54.4C46.2137 54.4 46.4637 54.675 46.5262 54.6875C46.5762 54.6875 46.3137 54.6625 46.2762 54.5875C46.2762 54.5875 46.3762 54.75 46.4512 54.775L46.3762 54.75C46.3762 54.75 46.2512 54.7375 46.1887 54.6875C46.1262 54.6375 46.1637 54.8125 46.1637 54.8125C46.1637 54.8125 46.0137 54.775 45.9637 54.725C45.9137 54.675 45.9887 54.8375 45.9887 54.8375L45.8637 54.8L45.7637 54.8625C45.7637 54.8625 45.7637 54.925 45.6887 54.875C45.6387 54.825 45.5262 54.875 45.5262 54.875C45.5262 54.875 45.4387 54.95 45.4012 54.9C45.3637 54.85 45.2137 55.0875 45.2137 55.0875L44.5762 53.55" stroke="black" stroke-width="0.0875" stroke-miterlimit="4.8"/>
<path d="M45.3996 54.95L44.5996 53.4125L44.6871 53.375L45.4871 54.9L45.3996 54.95ZM46.0996 54.8375L44.7246 53.3L44.7996 53.2375L46.1746 54.775L46.0996 54.8375ZM46.4246 54.7125L44.8496 53.25L44.9121 53.175L46.4996 54.625L46.4246 54.7125Z" fill="black"/>
<path d="M42.4806 49.7852C42.4806 49.7852 42.3809 49.6024 42.2895 49.6772C42.2064 49.7436 42.1565 49.7603 42.1399 49.7519C42.1399 49.7519 42.223 49.7519 42.2812 49.7104C42.3311 49.6605 42.4142 49.6855 42.4806 49.7935V49.7852ZM41.9321 49.7021L41.9903 49.8184L41.9238 50.0096L41.9737 50.0262L42.0319 49.8184L41.9737 49.6855L41.9321 49.7021Z" fill="black"/>
<path d="M42.4647 49.7603C42.4647 49.7603 42.3816 49.8434 42.2819 49.8267L42.1738 49.8018H42.3234C42.3816 49.8018 42.4564 49.7769 42.4647 49.7603Z" fill="black"/>
<path d="M42.4397 49.7769C42.4397 49.7769 42.3399 49.6771 42.2734 49.7104C42.2734 49.7104 42.3898 49.6688 42.4563 49.7685L42.4397 49.7769Z" fill="black"/>
<path d="M42.4222 49.7603C42.4222 49.7603 42.3141 49.8351 42.1978 49.7603L42.1895 49.7437H42.2061C42.2061 49.7437 42.3474 49.8018 42.4222 49.7603Z" fill="black"/>
<path d="M42.3301 49.7769C42.3485 49.7769 42.3634 49.762 42.3634 49.7436C42.3634 49.7253 42.3485 49.7104 42.3301 49.7104C42.3118 49.7104 42.2969 49.7253 42.2969 49.7436C42.2969 49.762 42.3118 49.7769 42.3301 49.7769Z" fill="black"/>
<path d="M42.426 52.55C42.426 52.55 42.3385 52.7125 42.3885 52.8C42.426 52.8875 42.626 52.9375 42.6385 53.0625C42.676 53.1875 42.7385 53.1875 42.826 53.1625L42.951 53.15C42.951 53.15 42.5635 52.9375 42.451 52.6125L42.426 52.55Z" fill="black"/>
<path d="M54.851 49.45C54.851 49.45 55.5385 48.525 56.1635 48.775C56.7885 49.025 57.1885 49.1375 57.1885 49.1375C57.1885 49.1375 57.201 49.7625 56.876 49.7625C56.5385 49.7625 56.226 49.1375 55.926 49.3125C55.626 49.5 55.376 49.75 55.3635 49.8375C55.3385 49.925 54.5635 49.95 54.851 49.4625V49.45Z" fill="#964B36" stroke="black" stroke-width="0.0375" stroke-miterlimit="4.8"/>
<path d="M52.1897 53.9C52.1897 53.9 52.0022 54.1 52.0897 54.15C52.1772 54.2 52.3397 54.15 52.3397 54.075C52.3397 54 52.2272 53.875 52.1897 53.9Z" fill="#964B36" stroke="black" stroke-width="0.0625" stroke-miterlimit="4.8"/>
<path d="M52.0387 54.1C52.0387 54.1 51.6762 53.8875 51.4012 54.375C51.1137 54.8625 50.8762 55.65 50.7137 55.75C50.5512 55.85 52.3137 54.975 52.3387 54.6125C52.3387 54.6125 52.4637 54.1375 52.2637 54.1375C52.0887 54.15 52.0762 54.175 52.0387 54.0875V54.1Z" fill="#964B36" stroke="black" stroke-width="0.0625" stroke-miterlimit="4.8"/>
<path d="M52.0887 54.15C52.0887 54.15 51.7137 54.2375 51.6387 54.7625C51.5637 55.2875 51.0512 55.55 51.0137 55.575M57.1887 49.125C57.1887 49.125 56.6262 49.325 56.7262 49.7125L57.1887 49.125Z" fill="#964B36"/>
<path d="M52.0887 54.15C52.0887 54.15 51.7137 54.2375 51.6387 54.7625C51.5637 55.2875 51.0512 55.55 51.0137 55.575M57.1887 49.125C57.1887 49.125 56.6262 49.325 56.7262 49.7125" stroke="black" stroke-width="0.0375" stroke-miterlimit="4.8"/>
<path d="M52.8887 50.2625C52.8887 50.2625 52.9012 48.9375 53.9887 49C54.2012 49.0125 54.1012 49.25 54.1012 49.25C54.1012 49.25 54.3387 49.0875 54.4387 49.35C54.4387 49.35 54.7887 49.2 54.8137 49.5375C54.8137 49.5375 55.1887 49.4875 55.1512 49.7875C55.1512 49.7875 55.4012 49.7375 55.4012 49.95C55.4012 49.95 55.6887 49.825 55.6512 50.125C55.6512 50.125 55.9762 49.9125 55.9262 50.3C55.9262 50.3 56.2637 50.075 56.3762 50.4625C56.5012 50.8375 56.0387 51.675 55.6012 51.8875" fill="#FFF200"/>
<path d="M52.8887 50.2625C52.8887 50.2625 52.9012 48.9375 53.9887 49C54.2012 49.0125 54.1012 49.25 54.1012 49.25C54.1012 49.25 54.3387 49.0875 54.4387 49.35C54.4387 49.35 54.7887 49.2 54.8137 49.5375C54.8137 49.5375 55.1887 49.4875 55.1512 49.7875C55.1512 49.7875 55.4012 49.7375 55.4012 49.95C55.4012 49.95 55.6887 49.825 55.6512 50.125C55.6512 50.125 55.9762 49.9125 55.9262 50.3C55.9262 50.3 56.2637 50.075 56.3762 50.4625C56.5012 50.8375 56.0387 51.675 55.6012 51.8875" stroke="black" stroke-width="0.0375" stroke-miterlimit="4.8"/>
<path d="M55.8996 50.35C55.8996 50.35 56.0496 51.3875 55.4621 51.7625L55.4871 51.7875C56.0871 51.4125 55.9371 50.35 55.9371 50.3375H55.8996V50.35ZM55.1996 51.475L55.2246 51.5C55.5996 51.1375 55.6746 50.175 55.6746 50.125H55.6371C55.6371 50.1375 55.5621 51.125 55.1996 51.475ZM54.8496 51.2375H54.8871C54.9371 50.65 55.4121 49.9625 55.4121 49.9625L55.3746 49.9375C55.3746 49.9375 54.8996 50.6375 54.8496 51.2375ZM54.5871 51.0625H54.6246C54.6871 50.35 55.1621 49.8125 55.1621 49.8125L55.1371 49.775C55.1371 49.775 54.6496 50.3375 54.5871 51.0625ZM54.2121 50.825H54.2371C54.2746 49.975 54.8371 49.5625 54.8496 49.55L54.8246 49.525C54.8246 49.525 54.2371 49.95 54.1996 50.825H54.2121ZM53.8496 50.6125H53.8996C53.8621 49.8375 54.4621 49.3625 54.4621 49.3625L54.4496 49.3375C54.4496 49.3375 53.8246 49.825 53.8496 50.6125ZM53.2246 50.3375H53.2621C53.29 50.0967 53.386 49.8689 53.5387 49.6807C53.6915 49.4925 53.8947 49.3518 54.1246 49.275L54.1121 49.2375C53.877 49.319 53.6699 49.4657 53.515 49.6605C53.36 49.8553 53.2637 50.09 53.2371 50.3375H53.2246Z" fill="black"/>
<path d="M52.2498 51.875C52.2498 51.875 52.0623 50.65 52.7998 50.25C52.7998 50.25 52.9248 50.225 53.0123 50.4C53.0123 50.4 53.3998 50.2375 53.4123 50.5625C53.4123 50.5625 53.5998 50.4125 53.6623 50.625C53.6623 50.625 54.0748 50.5375 53.9873 50.85C53.9873 50.85 54.3373 50.75 54.3123 51.05C54.3123 51.05 54.6623 50.925 54.5998 51.175C54.5998 51.175 54.9748 51.1 54.8873 51.4C54.8873 51.4 55.3373 51.35 55.1998 51.675C55.1998 51.675 55.5373 51.5875 55.4623 51.85C55.4623 51.85 55.9123 51.925 55.7123 52.2C55.388 52.6002 54.9661 52.9102 54.4873 53.1" fill="#00A651"/>
<path d="M52.2498 51.875C52.2498 51.875 52.0623 50.65 52.7998 50.25C52.7998 50.25 52.9248 50.225 53.0123 50.4C53.0123 50.4 53.3998 50.2375 53.4123 50.5625C53.4123 50.5625 53.5998 50.4125 53.6623 50.625C53.6623 50.625 54.0748 50.5375 53.9873 50.85C53.9873 50.85 54.3373 50.75 54.3123 51.05C54.3123 51.05 54.6623 50.925 54.5998 51.175C54.5998 51.175 54.9748 51.1 54.8873 51.4C54.8873 51.4 55.3373 51.35 55.1998 51.675C55.1998 51.675 55.5373 51.5875 55.4623 51.85C55.4623 51.85 55.9123 51.925 55.7123 52.2C55.388 52.6002 54.9661 52.9102 54.4873 53.1" stroke="black" stroke-width="0.0375" stroke-miterlimit="4.8"/>
<path d="M51.8497 53.125C51.8497 53.125 51.5497 52.0875 52.1247 51.825C52.1247 51.825 52.2247 51.8 52.2497 51.9C52.2497 51.9 52.3747 51.7375 52.4747 51.8875C52.4747 51.8875 52.7622 51.75 52.8247 51.9625C52.8247 51.9625 53.0247 51.8 53.1247 52.0375C53.1247 52.0375 53.2997 51.9625 53.2997 52.1625C53.2997 52.1625 53.5497 52.0375 53.5497 52.2875C53.5497 52.2875 53.7997 52.1875 53.7497 52.45C53.7497 52.45 54.1247 52.5 53.9997 52.675C53.9997 52.675 54.3372 52.7625 54.2122 52.9C54.2122 52.9 54.5747 52.8625 54.3747 53.1C54.3747 53.1 54.6497 53.0125 54.4997 53.3125C54.3372 53.6125 53.8622 53.9375 53.5122 53.9875" fill="#00A651"/>
<path d="M51.8497 53.125C51.8497 53.125 51.5497 52.0875 52.1247 51.825C52.1247 51.825 52.2247 51.8 52.2497 51.9C52.2497 51.9 52.3747 51.7375 52.4747 51.8875C52.4747 51.8875 52.7622 51.75 52.8247 51.9625C52.8247 51.9625 53.0247 51.8 53.1247 52.0375C53.1247 52.0375 53.2997 51.9625 53.2997 52.1625C53.2997 52.1625 53.5497 52.0375 53.5497 52.2875C53.5497 52.2875 53.7997 52.1875 53.7497 52.45C53.7497 52.45 54.1247 52.5 53.9997 52.675C53.9997 52.675 54.3372 52.7625 54.2122 52.9C54.2122 52.9 54.5747 52.8625 54.3747 53.1C54.3747 53.1 54.6497 53.0125 54.4997 53.3125C54.3372 53.6125 53.8622 53.9375 53.5122 53.9875" stroke="black" stroke-width="0.0375" stroke-miterlimit="4.8"/>
<path d="M52.2127 53.925C52.2127 53.925 51.5752 53.3 51.8752 53.125C51.8752 53.125 52.0002 53.1625 52.0502 53.3C52.0502 53.3 52.2127 53.075 52.3002 53.3C52.3002 53.3 52.5252 53.225 52.5252 53.3875L52.7127 53.5125C52.7127 53.5125 52.9252 53.5125 52.8877 53.6375C52.8877 53.6375 53.1252 53.6125 53.1127 53.7375C53.1127 53.7375 53.3127 53.7375 53.3002 53.875C53.3002 53.875 53.6377 53.9375 53.4877 54.1125C53.4877 54.1125 52.8752 54.2375 52.4502 54.0625C52.4502 54.0625 52.2252 53.9875 52.2002 53.9375L52.2127 53.925Z" fill="#00A651" stroke="black" stroke-width="0.0375" stroke-miterlimit="4.8"/>
<path d="M54.4007 52.9L54.4132 52.9375C54.7882 52.7875 55.4507 51.9 55.4757 51.85L55.4507 51.8375C55.4507 51.8375 54.7757 52.7625 54.4007 52.9ZM54.1882 52.7375L54.2007 52.775C54.5829 52.4568 54.9231 52.0914 55.2132 51.6875L55.1882 51.6625C55.1882 51.6625 54.5132 52.5625 54.1882 52.7375ZM54.0007 52.6625L54.0257 52.6875C54.3757 52.4 54.8757 51.4375 54.9007 51.4125L54.8632 51.3875C54.8632 51.4 54.3382 52.3875 53.9882 52.6625H54.0007ZM53.8257 52.4375H53.8632C53.9382 51.9625 54.6132 51.2125 54.6132 51.1875L54.5882 51.175C54.5632 51.2 53.9007 51.95 53.8382 52.4375H53.8257ZM52.4757 51.8625H52.5132C52.4507 51.175 53.0132 50.425 53.0257 50.4125L53.0007 50.3875C53.0007 50.3875 52.4132 51.1625 52.4757 51.8625ZM52.8257 51.9125H52.8632C52.7757 51.3625 53.4132 50.5875 53.4257 50.575L53.4007 50.55C53.3632 50.5875 52.7382 51.35 52.8257 51.925V51.9125ZM53.3757 52.1125H53.4132C53.4132 51.4875 54.0007 50.8625 54.0007 50.8625L53.9757 50.8375C53.9757 50.8375 53.3632 51.475 53.3757 52.1125ZM52.0632 53.2375H52.1007C51.8882 52.6625 52.2632 51.925 52.2632 51.9125L52.2257 51.9C52.2257 51.9 51.8507 52.65 52.0632 53.25V53.2375ZM52.3132 53.2875L52.3507 53.275C52.1632 52.6875 52.4757 51.9 52.4882 51.9L52.4507 51.875C52.4507 51.875 52.1257 52.6875 52.3257 53.2875H52.3132ZM53.3507 53.875L53.3632 53.9125C53.9882 53.6875 54.3882 53.125 54.4007 53.1125L54.3632 53.1C54.3632 53.1 53.9632 53.65 53.3632 53.875H53.3507ZM53.2257 53.7375L53.2382 53.775C53.7382 53.55 54.2007 52.925 54.2007 52.925L54.1757 52.9C54.1757 52.9 53.7132 53.525 53.2257 53.7375ZM53.1007 53.6875L53.1257 53.725C53.5132 53.4375 54.0007 52.725 54.0132 52.725L53.9882 52.7C53.9882 52.7 53.4882 53.4125 53.1132 53.7L53.1007 53.6875ZM52.4882 53.325H52.5257C52.5109 52.854 52.6232 52.3877 52.8507 51.975L52.8132 51.95C52.8132 51.95 52.4007 52.7 52.4882 53.325ZM52.7632 53.5L52.7882 53.525C53.1882 53.1625 53.3132 52.2 53.3257 52.15H53.2882C53.2882 52.1625 53.1507 53.15 52.7632 53.5Z" fill="black"/>
<path d="M53.0383 53.6125L53.0508 53.65C53.6133 53.2375 53.7633 52.45 53.7758 52.45H53.7383C53.7383 52.45 53.5883 53.2125 53.0383 53.6125ZM53.1008 51.9375V52.0375L52.6758 53.4125L52.7133 53.425L53.1383 52.05C53.0758 51.375 53.6633 50.6375 53.6633 50.6375L53.6383 50.6125C53.6383 50.6125 53.1008 51.2875 53.1008 51.9375Z" fill="black"/>
<path d="M53.5371 52.2625C53.5371 52.2875 53.4121 53.2375 52.8996 53.5875L52.9121 53.6125C53.4371 53.25 53.5746 52.325 53.5746 52.2875C53.7996 52.0125 54.3246 51.0625 54.3246 51.0625L54.2996 51.0375C54.2996 51.05 53.7746 51.9875 53.5496 52.2625H53.5371ZM52.0371 53.3C52.0371 53.325 52.1246 53.8 52.2246 53.9625L52.2496 53.9375C52.1621 53.775 52.0746 53.3125 52.0746 53.3H52.0371ZM52.2871 53.3C52.2871 53.55 52.2871 53.925 52.2621 53.9625H52.2996C52.3246 53.925 52.3121 53.4125 52.3121 53.3125H52.2746L52.2871 53.3Z" fill="black"/>
<path d="M52.3008 53.975L52.3383 54C52.5008 53.6375 52.5508 53.3875 52.5508 53.3875H52.5133C52.5133 53.3875 52.4633 53.6375 52.3008 53.975Z" fill="black"/>
<path d="M52.3379 54L52.3504 54.025C52.5361 53.914 52.6708 53.7344 52.7254 53.525H52.6879C52.6879 53.525 52.6254 53.825 52.3379 53.9875V54ZM52.3879 54.0125V54.05C52.6879 54.025 52.8879 53.6625 52.9004 53.65L52.8754 53.625C52.8754 53.625 52.6629 54 52.3879 54.0125Z" fill="black"/>
<path d="M52.4258 54.0375V54.075C52.5587 54.0728 52.6897 54.0427 52.8103 53.9868C52.9309 53.9308 53.0383 53.8501 53.1258 53.75L53.1008 53.725C53.1008 53.725 52.8758 54.0125 52.4258 54.0375Z" fill="black"/>
<path d="M52.4512 54.05V54.0875C52.4762 54.0875 53.0762 54.2125 53.2887 53.9L53.2637 53.875C53.0637 54.175 52.4637 54.05 52.4512 54.05Z" fill="black"/>
<path d="M38.7754 31.75V48.8C38.7754 54.375 48.8504 57.6875 48.8504 57.6875C48.8504 57.6875 58.9254 54.375 58.9254 48.8125V31.75H38.7754Z" stroke="black" stroke-width="0.35" stroke-miterlimit="4.8"/>
<path d="M0 0H32V32H0V0Z" fill="#012169"/>
<path d="M32 0V4L20.125 16L32 27.6875V32H27.8125L15.875 20.25L4.25 32H0V27.75L11.625 16.0625L0 4.625V0H3.875L15.875 11.75L27.5 0H32Z" fill="white"/>
<path d="M11.5 20.25L12.1875 22.375L2.625 32H0V31.8125L11.5 20.25ZM19.25 19.5L22.625 20L32 29.1875V32L19.25 19.5ZM32 0L20 12.25L19.75 9.5L29.125 0H32ZM0 0.0625L12.0625 11.875L8.375 11.375L0 3.0625V0.0625Z" fill="#C8102E"/>
<path d="M11 0V32H21V0H11ZM0 11V21H32V11H0Z" fill="white"/>
<path d="M0 13V19H32V13H0ZM13 0V32H19V0H13Z" fill="#C8102E"/>
</g>
<defs>
<clipPath id="clip0_10660_11898">
<rect width="64" height="64" rx="32" fill="white"/>
</clipPath>
</defs>
</svg>
