<svg width="64" height="64" viewBox="0 0 64 64" fill="none" xmlns="http://www.w3.org/2000/svg">
<g clip-path="url(#clip0_10660_12022)">
<mask id="mask0_10660_12022" style="mask-type:luminance" maskUnits="userSpaceOnUse" x="0" y="0" width="64" height="64">
<path d="M0 0H64V64H0V0Z" fill="white"/>
</mask>
<g mask="url(#mask0_10660_12022)">
<path d="M0 0H64V64H0V0Z" fill="white"/>
<path fill-rule="evenodd" clip-rule="evenodd" d="M26.3004 45.4375C26.3004 45.4375 27.7504 44.2625 29.1504 44.2625C30.5504 44.2625 30.9504 45.2375 31.9254 45.3125C32.9004 45.4 33.7254 44.3375 34.9254 44.3125C36.1504 44.2625 37.6754 45.1625 37.6754 45.1625L32.3629 46.75L26.3004 45.425V45.4375ZM23.2629 43.7125L41.3004 43.8C41.3004 43.8 39.7379 42.1125 37.9004 42.075C36.0754 42.0375 36.5754 42.8625 35.1754 42.975C33.7629 43.1 33.4129 42.1125 32.1254 42.15C30.8379 42.1875 30.0879 42.975 29.1254 43.0125C28.1379 43.05 26.8879 42.0375 26.1504 42.075C25.4004 42.1125 22.7504 43.25 22.7504 43.25L23.2629 43.7125ZM20.9504 41.5625L43.2129 41.65C43.5754 41.1375 42.1254 39.925 40.8004 39.8125C39.7004 39.85 38.9254 40.9375 38.0254 40.975C37.1254 41.025 36.1129 39.85 35.0879 39.8875C34.0879 39.925 33.0254 40.9875 32.0129 40.9875C30.9879 40.9875 30.2504 39.85 28.9629 39.85C27.6754 39.85 27.0879 41.1 26.1129 41.025C25.1254 40.9375 24.2754 39.775 23.3379 39.775C22.4004 39.775 20.8379 41.175 20.5254 41.1C20.2129 41.025 20.9129 41.6875 20.9504 41.5625Z" fill="#083D9C" stroke="#083D9C" stroke-width="0.333333"/>
<path fill-rule="evenodd" clip-rule="evenodd" d="M29.5004 29.1875L34.6254 30.5625V23.25C32.2754 23.375 30.3254 18.8 34.4629 18.4875C30.4129 17.8875 29.9379 18.95 29.4629 20.075L29.5004 29.1875Z" fill="#FF0000" stroke="black" stroke-width="0.3125" stroke-linejoin="round"/>
<path fill-rule="evenodd" clip-rule="evenodd" d="M26.2617 34.5L37.8242 34.5375L26.2617 34.5Z" fill="#083D9C"/>
<path d="M26.2617 34.5L37.8242 34.5375" stroke="#083D9C" stroke-width="0.625" stroke-linecap="round"/>
<path d="M26.8125 31.725L28.1875 33.5625M26.8125 33.5625L28.3 31.7625M27.6 31.6L27.55 32.7375M29 31.725L30.375 33.5625M29 33.5625L30.4875 31.7625M29.7875 31.6L29.7375 32.7375M31.2375 31.725L32.5875 33.5625M31.225 33.5625L32.7125 31.7625M32.0125 31.6L31.975 32.7375M33.525 31.725L34.9 33.5625M33.525 33.5625L35.025 31.7625M34.3125 31.6L34.275 32.7375M35.7625 31.725L37.125 33.5625M35.75 33.5625L37.25 31.7625M36.5375 31.6L36.5 32.7375" stroke="black" stroke-width="0.5" stroke-linecap="round"/>
<path fill-rule="evenodd" clip-rule="evenodd" d="M18.4996 34.625L23.4121 34.65V31.5625L17.7871 31.3L18.4871 34.6125L18.4996 34.625ZM18.2496 30.3625L23.4996 30.8625L23.4496 28.675L18.3246 26.65L18.2496 30.3625ZM19.3121 25.9875L23.3371 27.9375L23.9121 27.3375C23.9121 27.3375 23.5371 27.0875 23.5621 26.8375C23.5621 26.6125 23.9371 26.575 23.9371 26.3125C23.9371 26.075 23.5246 26.05 23.5246 25.8125C23.4871 25.5625 23.8496 25.275 23.8496 25.275L20.2121 22.125L19.3121 25.9875ZM45.7121 34.65H40.5246L40.4871 31.65L46.1871 31.2125L45.7121 34.65ZM40.5621 30.9375L46.7371 30.1875L45.3996 26.65L40.5246 28.7125L40.5621 30.9375ZM45.0621 25.675L40.5871 28C40.5246 27.75 40.4621 27.5 40.1621 27.3C40.1621 27.3 40.4371 27.1375 40.4371 26.8625C40.4371 26.5875 40.0746 26.55 40.0746 26.4C40.0746 26.25 40.3996 26.1 40.4246 25.75C40.3871 25.5 40.0746 25.175 40.1371 25.1L43.5996 22.45L45.0371 25.6625L45.0621 25.675ZM35.3871 30.875L37.6246 30.775L37.6621 29.875L35.3871 30.875ZM28.5996 30.8L26.2496 30.75V29.8125L28.5996 30.8ZM28.5871 30.525L26.2496 29.325V27.7625C26.2496 27.7625 25.9746 27.8 26.0121 27.4875C26.0246 26.8375 27.7371 28.675 28.5996 29.275L28.5871 30.525ZM35.3871 30.3875V29.375C35.3871 29.375 37.4871 27.475 37.9371 27.125C37.9371 27.5125 37.6871 27.8125 37.6871 27.8125V29.3125L35.3871 30.3875ZM21.7496 21.8375L24.1121 24.4625C24.1746 24.2125 24.7121 24.1875 25.2621 24.2125C25.8121 24.2625 26.2496 24.1875 26.2496 24.5875C26.2496 24.9625 25.9621 24.9125 25.9621 25.1875C25.9621 25.4625 26.3871 25.4375 26.3871 25.7875C26.3871 26.1375 26.0871 26.0625 26.0746 26.3375C26.0746 26.5625 26.3996 26.5875 26.3996 26.5875L28.6121 28.725V26.425L24.0496 19.2625L21.7496 21.8375ZM25.3746 19.125L28.4746 25.4625C28.4746 25.4625 28.5121 19.6125 29.0246 19.3L28.1496 17.7L25.3746 19.125ZM38.8371 19.375L35.3871 25.5375V22.9375C35.3871 22.9375 35.6746 22.5 35.2246 22.5375C34.7746 22.575 34.2121 22.5 34.2121 22.5L35.5996 17.625L38.8371 19.375ZM42.3871 22.0125C42.3496 22.0875 40.0496 24.4125 40.0496 24.4125C39.9496 24.1375 39.2496 24.275 38.5996 24.275C37.9371 24.275 37.8496 24.4875 37.8746 24.65C37.9496 25.1125 38.1746 24.775 38.1746 25.2C38.1746 25.6125 37.8496 25.45 37.8246 25.7625C37.8496 26.1125 38.3246 26.025 38.0496 26.3L35.3871 28.85V26.425L40.3371 18.7375L42.3871 22.0125Z" fill="#EF7D08"/>
<path fill-rule="evenodd" clip-rule="evenodd" d="M30.6367 35.7875C29.5242 37.625 26.5492 37.0875 25.8617 35.7875C25.6492 35.7375 25.7742 27.85 25.7742 27.85C25.7742 27.85 25.4367 27.7 25.4242 27.4625C25.4117 27.2125 25.8742 27.2 25.8742 26.8875C25.8742 26.575 25.3992 26.6875 25.3867 26.3875C25.3867 26.075 25.8992 26.1125 25.8867 25.8375C25.8492 25.525 25.3117 25.575 25.2867 25.275C25.2617 25.05 25.6617 24.85 25.7867 24.75H24.5492C23.9492 24.75 24.5617 24.8875 24.5492 25.25C24.5492 25.475 24.2492 25.625 24.2242 25.825C24.2242 26.025 24.6492 26.1625 24.6617 26.4125C24.6617 26.625 24.2242 26.65 24.2367 26.85C24.2742 27.1875 24.6242 27.2625 24.6242 27.475C24.6242 27.675 24.1367 27.7625 24.1367 27.925L24.2117 36.025C24.9617 40 29.3867 41 30.6367 35.775V35.7875ZM33.5492 35.7875C34.6742 37.625 37.6367 37.0875 38.3367 35.7875C38.5492 35.7375 38.4242 27.85 38.4242 27.85C38.4242 27.85 38.7617 27.7 38.7742 27.4625C38.7867 27.2125 38.3492 27.2 38.3492 26.8875C38.3492 26.575 38.7992 26.6875 38.8117 26.3875C38.8117 26.075 38.3367 26.1 38.3617 25.8125C38.3867 25.5 38.7492 25.5375 38.7742 25.25C38.7867 25 38.5367 24.85 38.4242 24.75H39.6367C40.2492 24.75 39.6367 24.8875 39.6367 25.25C39.6367 25.475 39.9492 25.625 39.9742 25.825C39.9742 26.025 39.5367 26.1625 39.5367 26.4125C39.5367 26.625 39.9742 26.65 39.9492 26.85C39.9242 27.1875 39.5742 27.2625 39.5742 27.475C39.5742 27.675 40.0617 27.7625 40.0617 27.925C40.0367 28.25 39.9867 36.025 39.9867 36.025C39.2242 40 34.8117 41 33.5492 35.775V35.7875Z" fill="#FF0000" stroke="black" stroke-width="0.3125" stroke-linejoin="round"/>
<path fill-rule="evenodd" clip-rule="evenodd" d="M29.5633 39.4125H34.5383C34.5758 39.375 33.4133 37.6875 32.0383 37.8125C30.5133 37.85 29.4758 39.4125 29.5633 39.4125ZM45.4133 39.2875H38.6133C38.6133 39.2875 39.4883 38.775 39.7383 38.2875C40.1758 38.5375 40.0508 38.775 40.9258 38.8125C41.8008 38.85 42.6508 37.8125 43.4883 37.85C44.3258 37.8875 45.4133 39.325 45.4133 39.2875ZM18.6133 39.2875H25.4133C25.4133 39.2875 24.5383 38.775 24.2883 38.2875C23.8508 38.5375 23.9758 38.775 23.0883 38.8125C22.2133 38.85 21.3758 37.8125 20.5258 37.85C19.6883 37.8875 18.6133 39.325 18.6133 39.2875ZM19.1133 37.1625L23.9633 37.1875C23.9633 37.1875 23.6508 36.525 23.6133 35.7125C22.3633 35.275 21.3383 36.65 20.4508 36.6875C19.5508 36.725 18.6133 35.7125 18.6133 35.7125L19.1133 37.15V37.1625ZM44.9883 37.1625L40.1383 37.1875C40.1383 37.1875 40.4508 36.525 40.4883 35.7125C41.7383 35.275 42.7508 36.65 43.6508 36.6875C44.5508 36.725 45.4883 35.7125 45.4883 35.7125L44.9883 37.15V37.1625ZM30.8008 37.1875L33.2633 37.1125C33.2633 37.1125 33.3008 36.3625 32.0133 36.3625C30.7258 36.3625 30.8383 37.2375 30.8008 37.1875ZM29.3008 36.1375C29.7383 35.9 30.1383 35.6625 30.4008 35.125L28.7258 35.1625C28.7258 35.1625 27.9508 35.625 27.5508 36.1375H29.3008ZM34.7383 36.1375C34.2727 35.9312 33.8897 35.5747 33.6508 35.125L35.3258 35.1625C35.3258 35.1625 36.1133 35.625 36.5008 36.1375H34.7383Z" fill="#083D9C" stroke="#083D9C" stroke-width="0.333333"/>
<path fill-rule="evenodd" clip-rule="evenodd" d="M-16 48H80V64H-16V48ZM-16 0H80V16H-16V0Z" fill="#DE2010"/>
</g>
</g>
<defs>
<clipPath id="clip0_10660_12022">
<rect width="64" height="64" rx="32" fill="white"/>
</clipPath>
</defs>
</svg>
