<svg width="64" height="64" viewBox="0 0 64 64" fill="none" xmlns="http://www.w3.org/2000/svg">
<g clip-path="url(#clip0_10660_12041)">
<path d="M0 0H64V64H0V0Z" fill="white"/>
<path d="M25.625 0H38.375V64H25.625V0Z" fill="#FF0000"/>
<path d="M0 25.625H64V38.375H0V25.625Z" fill="#FF0000"/>
<path fill-rule="evenodd" clip-rule="evenodd" d="M14.2625 49.7375C14.4 47.4875 14.8 45.5625 14.8 45.5625C14.8 45.5625 13.475 45.6875 12.8125 45.6875C12.15 45.6875 10.825 45.5625 10.825 45.5625C10.825 45.5625 11.225 47.475 11.3625 49.7375C9.1125 49.6 7.1875 49.2 7.1875 49.2C7.1875 49.2 7.3125 50.2 7.3125 51.1875C7.3125 52.175 7.1875 53.175 7.1875 53.175C7.1875 53.175 9.1 52.775 11.3625 52.6375C11.225 54.8875 10.825 56.8125 10.825 56.8125C10.825 56.8125 11.825 56.6875 12.8125 56.6875C13.8125 56.6875 14.8 56.8125 14.8 56.8125C14.8 56.8125 14.4 54.9 14.2625 52.6375C16.5125 52.775 18.4375 53.175 18.4375 53.175C18.4375 53.175 18.3125 51.85 18.3125 51.1875C18.3125 50.525 18.4375 49.2 18.4375 49.2C18.4375 49.2 16.525 49.6 14.2625 49.7375ZM52.6375 11.3625C52.775 9.1125 53.175 7.1875 53.175 7.1875C53.175 7.1875 51.85 7.3125 51.1875 7.3125C50.525 7.3125 49.2 7.1875 49.2 7.1875C49.2 7.1875 49.6 9.1125 49.7375 11.3625C47.4875 11.225 45.5625 10.825 45.5625 10.825C45.5625 10.825 45.6875 11.825 45.6875 12.8125C45.6875 13.8125 45.5625 14.8 45.5625 14.8C45.5625 14.8 47.475 14.4 49.7375 14.2625C49.6 16.5125 49.2 18.4375 49.2 18.4375C49.2 18.4375 50.2 18.3125 51.1875 18.3125C52.175 18.3125 53.175 18.4375 53.175 18.4375C53.175 18.4375 52.775 16.525 52.6375 14.2625C54.8875 14.4 56.8125 14.8 56.8125 14.8C56.8125 14.8 56.6875 13.475 56.6875 12.8125C56.6875 12.1625 56.8125 10.825 56.8125 10.825C56.8125 10.825 54.8875 11.225 52.6375 11.3625ZM14.2625 11.3625C14.4 9.1125 14.8 7.1875 14.8 7.1875C14.8 7.1875 13.475 7.3125 12.8125 7.3125C12.15 7.3125 10.825 7.1875 10.825 7.1875C10.825 7.1875 11.225 9.1125 11.3625 11.3625C9.1125 11.225 7.1875 10.825 7.1875 10.825C7.1875 10.825 7.3125 11.825 7.3125 12.8125C7.3125 13.8125 7.1875 14.8 7.1875 14.8C7.1875 14.8 9.1 14.4 11.3625 14.2625C11.225 16.5125 10.825 18.4375 10.825 18.4375C10.825 18.4375 11.825 18.3125 12.8125 18.3125C13.8125 18.3125 14.8 18.4375 14.8 18.4375C14.8 18.4375 14.4 16.525 14.2625 14.2625C16.5125 14.4 18.4375 14.8 18.4375 14.8C18.4375 14.8 18.3125 13.475 18.3125 12.8125C18.3125 12.1625 18.4375 10.825 18.4375 10.825C18.4375 10.825 16.525 11.225 14.2625 11.3625ZM52.6375 49.7375C52.775 47.4875 53.175 45.5625 53.175 45.5625C53.175 45.5625 51.85 45.6875 51.1875 45.6875C50.525 45.6875 49.2 45.5625 49.2 45.5625C49.2 45.5625 49.6 47.475 49.7375 49.7375C47.4875 49.6 45.5625 49.2 45.5625 49.2C45.5625 49.2 45.6875 50.2 45.6875 51.1875C45.6875 52.175 45.5625 53.175 45.5625 53.175C45.5625 53.175 47.475 52.775 49.7375 52.6375C49.6 54.8875 49.2 56.8125 49.2 56.8125C49.2 56.8125 50.2 56.6875 51.1875 56.6875C52.175 56.6875 53.175 56.8125 53.175 56.8125C53.175 56.8125 52.775 54.9 52.6375 52.6375C54.8875 52.775 56.8125 53.175 56.8125 53.175C56.8125 53.175 56.6875 51.85 56.6875 51.1875C56.6875 50.525 56.8125 49.2 56.8125 49.2C56.8125 49.2 54.8875 49.6 52.6375 49.7375Z" fill="#FF0000"/>
</g>
<defs>
<clipPath id="clip0_10660_12041">
<rect width="64" height="64" rx="32" fill="white"/>
</clipPath>
</defs>
</svg>
