<svg width="64" height="64" viewBox="0 0 64 64" fill="none" xmlns="http://www.w3.org/2000/svg">
<g clip-path="url(#clip0_10660_12055)">
<path d="M0 0H64V64H0V0Z" fill="#DA000C"/>
<path d="M0 0H64V42.875H0V0Z" fill="white"/>
<path d="M17.1504 29.0751H33.1504V40.0751H17.1504V29.0751Z" fill="#000001"/>
<path d="M25.4504 38.4751H15.7004L13.5254 39.9001V41.4001H25.4504M21.3754 32.1501C22.7754 32.1501 23.9254 33.3251 23.9254 34.7751V38.4501H25.7504V24.4501H15.6754V38.4501H18.8254V34.7751C18.8254 33.3751 19.9504 32.1501 21.3754 32.1501Z" fill="#DA000C"/>
<path d="M25.4504 38.4751H15.7004L13.5254 39.9001V41.4001H25.4504M21.3754 32.1501C22.7754 32.1501 23.9254 33.3251 23.9254 34.7751V38.4501H25.7504V24.4501H15.6754V38.4501H18.8254V34.7751C18.8254 33.3751 19.9504 32.1501 21.3754 32.1501Z" stroke="black" stroke-width="0.25" stroke-linecap="square"/>
<path d="M19.125 15.0001H23.775V23.5001H19.125V15.0001Z" fill="#000001"/>
<path d="M23.75 22.175H19.7V20.725H16.725V22.175H14.725V20.725H13.5V23.325H23.75M14.7 23.325H23.45V24.4501H14.7V23.325ZM18.2 11.9V20.75H19.7V18.325C19.7 17.425 20.325 16.675 21.225 16.625H21.325C21.5482 16.625 21.7693 16.669 21.9756 16.7545C22.1818 16.8399 22.3692 16.9651 22.5271 17.123C22.6849 17.2808 22.8102 17.4682 22.8956 17.6745C22.981 17.8807 23.025 18.1018 23.025 18.325V20.75H24.45V11.9H18.2ZM17.625 10.7V11.9H24.95V10.7H17.625ZM16.7 8.42505V10.7H25.45V8.42505H24.125V9.60005H22.475V8.42505H19.975V9.60005H18.35V8.42505H16.7ZM13.5 39.9001H25.5H13.5ZM33.25 39.2001H25.15L22.7 40.375V42.125H33.25" fill="#DA000C"/>
<path d="M23.75 22.175H19.7V20.725H16.725V22.175H14.725V20.725H13.5V23.325H23.75M13.5 39.9001H25.5M33.25 39.2001H25.15L22.7 40.375V42.125H33.25M14.7 23.325H23.45V24.4501H14.7V23.325ZM18.2 11.9V20.75H19.7V18.325C19.7 17.425 20.325 16.675 21.225 16.625H21.325C21.5482 16.625 21.7693 16.669 21.9756 16.7545C22.1818 16.8399 22.3692 16.9651 22.5271 17.123C22.6849 17.2808 22.8102 17.4682 22.8956 17.6745C22.981 17.8807 23.025 18.1018 23.025 18.325V20.75H24.45V11.9H18.2ZM17.625 10.7V11.9H24.95V10.7H17.625ZM16.7 8.42505V10.7H25.45V8.42505H24.125V9.60005H22.475V8.42505H19.975V9.60005H18.35V8.42505H16.7Z" stroke="black" stroke-width="0.25" stroke-linecap="square"/>
<path d="M22.6992 40.3751H33.4992H22.6992Z" fill="#DA000C"/>
<path d="M22.6992 40.3751H33.4992" stroke="black" stroke-width="0.25"/>
<path d="M46.8496 29.0751H30.8496V40.0751H46.8496V29.0751Z" fill="#000001"/>
<path d="M38.5496 38.4751H48.2996L50.4746 39.9001V41.4001H38.5496M42.6246 32.1501C41.2246 32.1501 40.0746 33.3251 40.0746 34.7751V38.4501H38.2496V24.4501H48.3246V38.4501H45.1746V34.7751C45.1746 33.3751 44.0496 32.1501 42.6246 32.1501Z" fill="#DA000C"/>
<path d="M38.5496 38.4751H48.2996L50.4746 39.9001V41.4001H38.5496M42.6246 32.1501C41.2246 32.1501 40.0746 33.3251 40.0746 34.7751V38.4501H38.2496V24.4501H48.3246V38.4501H45.1746V34.7751C45.1746 33.3751 44.0496 32.1501 42.6246 32.1501Z" stroke="black" stroke-width="0.25" stroke-linecap="square"/>
<path d="M44.875 15.0001H40.225V23.5001H44.875V15.0001Z" fill="#000001"/>
<path d="M40.25 22.175H44.3V20.725H47.275V22.175H49.275V20.725H50.5V23.325H40.25M49.3 23.325H40.55V24.4501H49.3V23.325ZM45.8 11.9V20.75H44.3V18.325C44.3 17.425 43.675 16.675 42.775 16.625H42.675C42.4518 16.625 42.2307 16.669 42.0244 16.7545C41.8182 16.8399 41.6308 16.9651 41.4729 17.123C41.3151 17.2808 41.1898 17.4682 41.1044 17.6745C41.019 17.8807 40.975 18.1018 40.975 18.325V20.75H39.55V11.9H45.8ZM46.375 10.7V11.9H39.05V10.7H46.375ZM47.3 8.42505V10.7H38.55V8.42505H39.875V9.60005H41.525V8.42505H44.025V9.60005H45.65V8.42505H47.3ZM50.5 39.9001H38.5H50.5ZM30.75 39.2001H38.85L41.3 40.375V42.125H30.75" fill="#DA000C"/>
<path d="M40.25 22.175H44.3V20.725H47.275V22.175H49.275V20.725H50.5V23.325H40.25M50.5 39.9001H38.5M30.75 39.2001H38.85L41.3 40.375V42.125H30.75M49.3 23.325H40.55V24.4501H49.3V23.325ZM45.8 11.9V20.75H44.3V18.325C44.3 17.425 43.675 16.675 42.775 16.625H42.675C42.4518 16.625 42.2307 16.669 42.0244 16.7545C41.8182 16.8399 41.6308 16.9651 41.4729 17.123C41.3151 17.2808 41.1898 17.4682 41.1044 17.6745C41.019 17.8807 40.975 18.1018 40.975 18.325V20.75H39.55V11.9H45.8ZM46.375 10.7V11.9H39.05V10.7H46.375ZM47.3 8.42505V10.7H38.55V8.42505H39.875V9.60005H41.525V8.42505H44.025V9.60005H45.65V8.42505H47.3Z" stroke="black" stroke-width="0.25" stroke-linecap="square"/>
<path d="M41.3008 40.3751H30.5008H41.3008Z" fill="#DA000C"/>
<path d="M41.3008 40.3751H30.5008" stroke="black" stroke-width="0.25"/>
<path d="M36.3232 37.5C35.6482 37.75 35.0732 38.1 34.4482 38.45C33.6705 38.8943 32.9268 39.3956 32.2232 39.95C31.9732 40.125 31.7232 40.3 31.5482 40.55C31.2982 40.75 31.0482 41.05 31.0982 41.425C31.0982 41.575 31.2982 41.225 31.4482 41.2C31.6856 41.0729 31.9614 41.0374 32.2232 41.1C32.5482 40.75 32.9732 40.525 33.3232 40.25C34.3422 39.5125 35.4307 38.8762 36.5732 38.35L36.3232 37.5Z" fill="#F8D80E" stroke="black" stroke-width="0.2" stroke-linecap="round"/>
<path d="M33.0996 39.35V40.325V39.35ZM33.6996 38.925V39.9V38.925ZM34.2996 38.55V39.5V38.55ZM34.9246 38.175V39.175V38.175Z" fill="#F8D80E"/>
<path d="M33.0996 39.35V40.325M33.6996 38.925V39.9M34.2996 38.55V39.5M34.9246 38.175V39.175" stroke="black" stroke-width="0.25" stroke-linecap="round"/>
<path d="M27.7238 37.55L27.4238 38.375C28.8054 38.9049 30.129 39.5751 31.3738 40.375C31.7988 40.675 32.2488 40.95 32.5738 41.35C32.6488 41.55 32.4488 41.725 32.2488 41.65C32.0738 41.6 31.8738 41.525 31.6988 41.65C31.4238 41.775 31.1738 42.2 31.5738 42.325C32.1738 42.725 33.0988 42.55 33.3738 41.875C33.5238 41.525 33.5488 41.075 33.2488 40.775C32.7488 40.2 32.0488 39.775 31.3988 39.35C30.2317 38.6384 29.0015 38.0358 27.7238 37.55Z" fill="#F8D80E" stroke="black" stroke-width="0.2" stroke-linecap="round"/>
<path d="M31.4988 39.5L31.4238 40.35L31.4988 39.5ZM32.1988 39.925L31.9988 40.75L32.1988 39.925ZM32.9488 40.5L32.4988 41.15L32.9488 40.5ZM33.1738 42.05L32.5238 41.7L33.1738 42.05ZM33.3738 41.35L32.6238 41.425L33.3738 41.35ZM32.4238 42.425L32.3738 41.775L32.4238 42.425ZM32.1238 41.7L31.5238 42.15L32.1238 41.7ZM29.1738 38.225V39V38.225ZM30.7488 39.075V39.95V39.075ZM29.9488 38.65V39.475V38.65Z" fill="#F8D80E"/>
<path d="M31.4988 39.5L31.4238 40.35M32.1988 39.925L31.9988 40.75M32.9488 40.5L32.4988 41.15M33.1738 42.05L32.5238 41.7M33.3738 41.35L32.6238 41.425M32.4238 42.425L32.3738 41.775M32.1238 41.7L31.5238 42.15M29.1738 38.225V39M30.7488 39.075V39.95M29.9488 38.65V39.475" stroke="black" stroke-width="0.25" stroke-linecap="round"/>
<path d="M26.9492 56.9V58.9H28.1992V57.9H29.9242V58.9H31.2742V56.9H26.9492ZM26.9492 59.65V61.65H31.2492V59.65H29.8992V60.65H28.1742V59.65H26.9492Z" fill="#F8D80E" stroke="black" stroke-width="0.25"/>
<path d="M31.25 48.425H32.5V62.925H31.25V48.425Z" fill="#F8D80E" stroke="black" stroke-width="0.25"/>
<path d="M31.2484 49.675H32.4984V62.175H31.2484V49.675ZM31.8984 44.85L34.5484 46.4L31.8984 47.95L29.2234 46.4L31.8984 44.85ZM28.3234 45.85H27.6484V46.95H28.3234L31.8984 49.025L35.4484 46.95H36.1484V45.85H35.4484L31.8984 43.775L28.3234 45.85Z" fill="#F8D80E" stroke="black" stroke-width="0.25"/>
<path d="M31.8233 41.075C31.5323 41.1342 31.2719 41.2949 31.0887 41.5285C30.9055 41.7621 30.8114 42.0534 30.8233 42.35V45.15C30.8462 45.4474 30.9748 45.7267 31.1857 45.9376C31.3966 46.1485 31.6759 46.277 31.9733 46.3C32.2206 46.3186 32.4678 46.2616 32.6821 46.1366C32.8964 46.0116 33.0677 45.8245 33.1733 45.6L32.7483 45.35C32.6893 45.4964 32.5841 45.6196 32.4488 45.7008C32.3134 45.7821 32.1552 45.8169 31.9983 45.8C31.5983 45.8 31.2733 45.4 31.3233 45.025V42.225C31.3422 42.0416 31.4303 41.8723 31.5696 41.7516C31.7089 41.6308 31.889 41.5677 32.0733 41.575C32.2233 41.525 32.4483 41.75 32.5483 41.575C32.6983 41.35 32.4483 41.2 32.2983 41.075H31.8233ZM33.2733 42.05C33.1511 42.2212 32.9877 42.3588 32.7983 42.45V44.325L33.2983 44.6V42.05H33.2733Z" fill="#F8D80E" stroke="black" stroke-width="0.25"/>
<path d="M28.1992 9.60004H35.5242V22.9H28.1992V9.60004Z" fill="#000001"/>
<path d="M27.6992 9.60002V20.725H30.0242V17.425C30.0242 16.675 30.5242 15.6 31.9992 15.6C33.4742 15.6 33.9992 16.675 33.9992 17.425V20.75H36.2992V9.60002H27.6992ZM31.6492 10.85H32.3492V14.65H31.6492V10.85ZM29.5742 11.6H30.3242V14.375H29.5742V11.6ZM33.6992 11.6H34.4242V14.375H33.6742L33.6992 11.6ZM26.8992 8.00002V9.57502H37.0992V8.00002H26.8992ZM25.9492 6.15002V8.00002H38.0742V6.15002H36.5492V7.15002H34.7992V6.15002H32.8492V7.15002H31.1492V6.15002H29.1742V7.15002H27.4992V6.15002H25.9492ZM23.6992 24.45V25.6H40.3242V24.45H23.6992Z" fill="#DA000C" stroke="black" stroke-width="0.25"/>
<path d="M23 20.725V24.475H41V20.725H39.3V22.175H37V20.725H33.95V22.175H30V20.725H26.95V22.175H24.7V20.725H23Z" fill="#DA000C" stroke="black" stroke-width="0.25"/>
<path d="M25.1758 25.6V39.2H28.3758V34.1C28.3758 31.725 29.9758 30.6 32.0008 30.6C33.9508 30.6 35.6258 31.725 35.6258 34.1V39.2H38.8258V25.6H25.1758Z" fill="#DA000C" stroke="black" stroke-width="0.25" stroke-linejoin="round"/>
</g>
<defs>
<clipPath id="clip0_10660_12055">
<rect width="64" height="64" rx="32" fill="white"/>
</clipPath>
</defs>
</svg>
