<svg width="64" height="64" viewBox="0 0 64 64" fill="none" xmlns="http://www.w3.org/2000/svg">
<g clip-path="url(#clip0_10660_12100)">
<path d="M0 0H64V64H0V0Z" fill="white"/>
<path d="M0 32H64V64H0V32ZM6.6625 32C6.6625 34.8021 7.21441 37.5767 8.28672 40.1655C9.35903 42.7543 10.9307 45.1065 12.9121 47.0879C14.8935 49.0692 17.2457 50.6409 19.8345 51.7133C22.4233 52.7856 25.1979 53.3375 28 53.3375C30.8021 53.3375 33.5767 52.7856 36.1655 51.7133C38.7543 50.6409 41.1065 49.0692 43.0879 47.0879C45.0693 45.1065 46.641 42.7543 47.7133 40.1655C48.7856 37.5767 49.3375 34.8021 49.3375 32C49.3375 26.3409 47.0894 20.9136 43.0879 16.9121C39.0863 12.9105 33.6591 10.6625 28 10.6625C22.3409 10.6625 16.9137 12.9105 12.9121 16.9121C8.91055 20.9136 6.6625 26.3409 6.6625 32Z" fill="#D00C33"/>
</g>
<defs>
<clipPath id="clip0_10660_12100">
<rect width="64" height="64" rx="32" fill="white"/>
</clipPath>
</defs>
</svg>
