<svg width="64" height="64" viewBox="0 0 64 64" fill="none" xmlns="http://www.w3.org/2000/svg">
<g clip-path="url(#clip0_10660_12105)">
<path d="M0 0H64V64H0V0Z" fill="#CE1126"/>
<path d="M8.96289 8.96252H55.0379V55.0375H8.96289V8.96252Z" fill="#007A5E"/>
<path d="M8.96289 8.96252H55.0379L8.96289 55.05H55.0379L8.96289 8.96252Z" fill="#FCD116"/>
<path d="M31.9875 39.6875C36.2263 39.6875 39.6625 36.2513 39.6625 32.0125C39.6625 27.7737 36.2263 24.3375 31.9875 24.3375C27.7487 24.3375 24.3125 27.7737 24.3125 32.0125C24.3125 36.2513 27.7487 39.6875 31.9875 39.6875Z" fill="#CE1126"/>
<path d="M32 24.96L29.8245 31.6554L33.1722 32.7431" fill="#FCD116"/>
<path d="M32 24.96L34.1755 31.6554L30.8278 32.7431" fill="#FCD116"/>
<path d="M38.6953 29.8245H31.6553V33.3445" fill="#FCD116"/>
<path d="M38.6953 29.8245L32.9998 33.9625L30.9308 31.1147" fill="#FCD116"/>
<path d="M36.1367 37.6954L33.9612 31L30.6135 32.0877" fill="#FCD116"/>
<path d="M36.1367 37.6954L30.4412 33.5574L32.5102 30.7097" fill="#FCD116"/>
<path d="M27.8613 37.6954L33.5568 33.5574L31.4878 30.7097" fill="#FCD116"/>
<path d="M27.8613 37.6954L30.0368 31L33.3845 32.0877" fill="#FCD116"/>
<path d="M25.3047 29.8245L31.0002 33.9625L33.0692 31.1147" fill="#FCD116"/>
<path d="M25.3047 29.8245H32.3447V33.3445" fill="#FCD116"/>
<path d="M17.4512 0.314941L16.1657 4.27134L18.1439 4.91409" fill="#FCD116"/>
<path d="M17.4512 0.314941L18.7367 4.27134L16.7585 4.91409" fill="#FCD116"/>
<path d="M21.4062 3.18945H17.2463V5.26945" fill="#FCD116"/>
<path d="M21.4062 3.18945L18.0407 5.63464L16.8181 3.95188" fill="#FCD116"/>
<path d="M19.8965 7.84045L18.611 3.88406L16.6328 4.52681" fill="#FCD116"/>
<path d="M19.8965 7.84045L16.531 5.39527L17.7536 3.71251" fill="#FCD116"/>
<path d="M15.0059 7.84045L18.3714 5.39527L17.1488 3.71251" fill="#FCD116"/>
<path d="M15.0059 7.84045L16.2914 3.88406L18.2696 4.52681" fill="#FCD116"/>
<path d="M13.4941 3.18945L16.8597 5.63464L18.0822 3.95188" fill="#FCD116"/>
<path d="M13.4941 3.18945H17.6541V5.26945" fill="#FCD116"/>
<path d="M32 0.327515L30.7145 4.28391L32.6927 4.92667" fill="#FCD116"/>
<path d="M32 0.327515L33.2855 4.28391L31.3073 4.92667" fill="#FCD116"/>
<path d="M35.9551 3.20203H31.7951V5.28203" fill="#FCD116"/>
<path d="M35.9551 3.20203L32.5896 5.64721L31.367 3.96446" fill="#FCD116"/>
<path d="M34.4453 7.85303L33.1598 3.89663L31.1816 4.53939" fill="#FCD116"/>
<path d="M34.4453 7.85303L31.0798 5.40784L32.3024 3.72509" fill="#FCD116"/>
<path d="M29.5547 7.85303L32.9202 5.40784L31.6976 3.72509" fill="#FCD116"/>
<path d="M29.5547 7.85303L30.8402 3.89663L32.8184 4.53939" fill="#FCD116"/>
<path d="M28.043 3.20203L31.4085 5.64721L32.6311 3.96446" fill="#FCD116"/>
<path d="M28.043 3.20203H32.203V5.28203" fill="#FCD116"/>
<path d="M46.5508 0.327515L45.2653 4.28391L47.2435 4.92667" fill="#FCD116"/>
<path d="M46.5508 0.327515L47.8363 4.28391L45.8581 4.92667" fill="#FCD116"/>
<path d="M50.5059 3.20203H46.3459V5.28203" fill="#FCD116"/>
<path d="M50.5059 3.20203L47.1403 5.64721L45.9178 3.96446" fill="#FCD116"/>
<path d="M48.9961 7.85303L47.7106 3.89663L45.7324 4.53939" fill="#FCD116"/>
<path d="M48.9961 7.85303L45.6306 5.40784L46.8532 3.72509" fill="#FCD116"/>
<path d="M44.1055 7.85303L47.471 5.40784L46.2484 3.72509" fill="#FCD116"/>
<path d="M44.1055 7.85303L45.391 3.89663L47.3692 4.53939" fill="#FCD116"/>
<path d="M42.5938 3.20203L45.9593 5.64721L47.1819 3.96446" fill="#FCD116"/>
<path d="M42.5938 3.20203H46.7537V5.28203" fill="#FCD116"/>
<path d="M12.4746 32.0999C13.4371 33.8874 15.2996 35.825 16.9371 36.5125C16.9621 34.7 16.3121 32.3625 15.4371 30.5125L12.4746 32.0999Z" fill="#CE1126"/>
<path d="M10.8491 25.95C12.2366 28.8625 7.22414 35.7874 15.5741 37.4124C14.4533 35.7767 13.9444 33.7985 14.1366 31.825C15.9833 32.6886 17.5006 34.127 18.4616 35.9249C20.6491 27.9999 12.8616 28.4875 10.8366 25.95H10.8491Z" fill="#FCD116"/>
<path d="M17.4512 55.5775L16.1657 59.5339L18.1439 60.1767" fill="#FCD116"/>
<path d="M17.4512 55.5775L18.7367 59.5339L16.7585 60.1767" fill="#FCD116"/>
<path d="M21.4062 58.452H17.2463V60.532" fill="#FCD116"/>
<path d="M21.4062 58.452L18.0407 60.8972L16.8181 59.2145" fill="#FCD116"/>
<path d="M19.8965 63.103L18.611 59.1466L16.6328 59.7894" fill="#FCD116"/>
<path d="M19.8965 63.103L16.531 60.6578L17.7536 58.9751" fill="#FCD116"/>
<path d="M15.0059 63.103L18.3714 60.6578L17.1488 58.9751" fill="#FCD116"/>
<path d="M15.0059 63.103L16.2914 59.1466L18.2696 59.7894" fill="#FCD116"/>
<path d="M13.4941 58.452L16.8597 60.8972L18.0822 59.2145" fill="#FCD116"/>
<path d="M13.4941 58.452H17.6541V60.532" fill="#FCD116"/>
<path d="M32 55.59L30.7145 59.5464L32.6927 60.1891" fill="#FCD116"/>
<path d="M32 55.59L33.2855 59.5464L31.3073 60.1891" fill="#FCD116"/>
<path d="M35.9551 58.4645H31.7951V60.5445" fill="#FCD116"/>
<path d="M35.9551 58.4645L32.5896 60.9097L31.367 59.2269" fill="#FCD116"/>
<path d="M34.4453 63.1155L33.1598 59.1591L31.1816 59.8018" fill="#FCD116"/>
<path d="M34.4453 63.1155L31.0798 60.6703L32.3024 58.9875" fill="#FCD116"/>
<path d="M29.5547 63.1155L32.9202 60.6703L31.6976 58.9875" fill="#FCD116"/>
<path d="M29.5547 63.1155L30.8402 59.1591L32.8184 59.8018" fill="#FCD116"/>
<path d="M28.043 58.4645L31.4085 60.9097L32.6311 59.2269" fill="#FCD116"/>
<path d="M28.043 58.4645H32.203V60.5445" fill="#FCD116"/>
<path d="M46.5508 55.6025L45.2653 59.5589L47.2435 60.2017" fill="#FCD116"/>
<path d="M46.5508 55.6025L47.8363 59.5589L45.8581 60.2017" fill="#FCD116"/>
<path d="M50.5059 58.4771H46.3459V60.5571" fill="#FCD116"/>
<path d="M50.5059 58.4771L47.1403 60.9222L45.9178 59.2395" fill="#FCD116"/>
<path d="M48.9961 63.1281L47.7106 59.1717L45.7324 59.8144" fill="#FCD116"/>
<path d="M48.9961 63.1281L45.6306 60.6829L46.8532 59.0001" fill="#FCD116"/>
<path d="M44.1055 63.1281L47.471 60.6829L46.2484 59.0001" fill="#FCD116"/>
<path d="M44.1055 63.1281L45.391 59.1717L47.3692 59.8144" fill="#FCD116"/>
<path d="M42.5938 58.4771L45.9593 60.9222L47.1819 59.2395" fill="#FCD116"/>
<path d="M42.5938 58.4771H46.7537V60.5571" fill="#FCD116"/>
</g>
<defs>
<clipPath id="clip0_10660_12105">
<rect width="64" height="64" rx="32" fill="white"/>
</clipPath>
</defs>
</svg>
