<svg width="64" height="64" viewBox="0 0 64 64" fill="none" xmlns="http://www.w3.org/2000/svg">
<g clip-path="url(#clip0_10660_12250)">
<path fill-rule="evenodd" clip-rule="evenodd" d="M0 0H64V64H0V0Z" fill="#BE0027"/>
<path fill-rule="evenodd" clip-rule="evenodd" d="M2.5625 2.5625H61.3125V61.4375H2.5625V2.5625Z" fill="#3B5AA3"/>
<path fill-rule="evenodd" clip-rule="evenodd" d="M31.4883 49.5125C31.7133 49.6375 32.0758 49.6375 32.2758 49.525C45.1883 42.65 45.2008 23.8 32.2883 17.025C32.1589 16.9641 32.0173 16.9335 31.8743 16.9357C31.7313 16.9378 31.5907 16.9727 31.4633 17.0375C18.8758 23.925 18.8383 42.5625 31.4883 49.5125Z" fill="#CBE0E5"/>
<path fill-rule="evenodd" clip-rule="evenodd" d="M31.4879 49.8625C31.6879 50.025 32.0879 50 32.2754 49.8625C41.7879 42.7375 41.8504 38.3 41.4254 38.3H22.5879C22.3004 38.3 22.7504 42.8125 31.4879 49.85V49.8625Z" fill="#ADD2D9"/>
<path fill-rule="evenodd" clip-rule="evenodd" d="M24.075 41.825C24.9361 41.5555 25.8664 41.6133 26.6875 41.9875C27.4 42.3625 27.8125 42.3625 28.575 42.3625C29.3875 42.375 30.0125 42.975 30.8875 42.9875C32.4875 43.0375 33.175 43.825 31.925 43.8375C31.3375 43.8375 30.075 43.4375 29.4625 43.525C28.1875 43.65 27.375 43.9375 26.175 45.275L27.5625 46.225C28.7625 45.725 28.9625 45.1875 29.625 45.1625C30.375 45.1375 30.625 44.6625 31.5 44.6625C32.4875 44.85 33.8125 44.5375 34.6 44.375C35.9875 44.05 35.325 43.0875 34.4875 42.725C33.8125 42.4375 32.5375 42.725 31.7375 42.4375C31.15 42.2 31.6375 41.825 31.9625 41.75C32.2875 41.6875 32.6375 41.8 33.0375 41.8625C33.7625 41.925 34.6625 41.8625 35.2875 41.75C36.6 41.55 36.5375 41.1625 37.175 41.1625C37.5806 41.1504 37.973 41.0153 38.3 40.775C38.675 40.525 39.05 40.025 39.5 40.0375L40.7 40.0875L39 43.875L34.25 48.725L31.775 49.6625L26.375 46.125L23.625 41.9375L24.075 41.825Z" fill="#FDF9A1"/>
<path fill-rule="evenodd" clip-rule="evenodd" d="M30.3008 38.1375L41.1758 38.0875L41.3758 37.125L40.6758 37.05C40.2758 37.025 39.6133 37.4625 39.1633 37.4625C38.8383 37.4625 38.4758 36.8875 38.1633 36.9C37.6133 36.9 37.5633 37.4 37.0383 37.4C36.6133 37.4 36.4383 37.075 35.8883 37.1C35.3133 37.1375 35.3633 37.45 34.6383 37.4375C33.6758 37.4125 33.3008 36.575 32.5383 36.5625C31.2508 36.5625 31.2133 37.7875 30.3008 38.1375Z" fill="#179A3B"/>
<path fill-rule="evenodd" clip-rule="evenodd" d="M30.3008 38.375L41.5008 38.3125V38.0125L30.0508 38.075L30.3008 38.375Z" fill="#FDF9A1"/>
<path fill-rule="evenodd" clip-rule="evenodd" d="M34.9004 41.7499C35.0754 42.3999 35.2629 42.6249 35.9504 42.7999C36.6379 42.9624 37.6879 42.2999 37.0379 41.6499C36.4129 41.0499 35.7629 40.8999 35.2129 40.3499C34.0379 39.1999 32.2754 36.3624 32.2754 34.3749C32.2754 32.6499 32.1129 29.1374 32.1129 25.8124C32.1129 25.5874 31.4629 26.4124 31.4629 26.6249C31.4879 29.5749 31.4879 31.7874 31.6004 34.7499C31.7879 36.9249 32.8254 38.3749 33.7254 39.6999C34.1379 40.3249 34.7254 41.0124 34.9004 41.7374V41.7499Z" fill="#A79270"/>
<path d="M27.9723 32.5125C27.9473 32.436 27.9144 32.3675 27.8735 32.3069C27.8333 32.2455 27.7852 32.1932 27.7292 32.15C27.6739 32.1069 27.611 32.0739 27.5405 32.0512C27.4701 32.0285 27.3928 32.0171 27.3087 32.0171C27.1708 32.0171 27.0454 32.0527 26.9326 32.1239C26.8197 32.1951 26.7299 32.3 26.6632 32.4387C26.5966 32.5773 26.5632 32.7474 26.5632 32.9489C26.5632 33.1504 26.597 33.3205 26.6644 33.4591C26.7318 33.5978 26.8231 33.7027 26.9382 33.7739C27.0534 33.8451 27.1829 33.8807 27.3269 33.8807C27.4602 33.8807 27.5776 33.8523 27.6792 33.7955C27.7814 33.7379 27.861 33.6569 27.9178 33.5523C27.9754 33.447 28.0042 33.3232 28.0042 33.1807L28.0905 33.1989H27.3905V32.9489H28.2769V33.1989C28.2769 33.3906 28.236 33.5572 28.1542 33.6989C28.0731 33.8406 27.961 33.9504 27.8178 34.0285C27.6754 34.1057 27.5117 34.1444 27.3269 34.1444C27.1208 34.1444 26.9398 34.0959 26.7837 33.9989C26.6284 33.9019 26.5072 33.7641 26.4201 33.5853C26.3337 33.4065 26.2905 33.1944 26.2905 32.9489C26.2905 32.7648 26.3151 32.5993 26.3644 32.4523C26.4144 32.3046 26.4848 32.1788 26.5757 32.075C26.6667 31.9713 26.7742 31.8917 26.8985 31.8364C27.0227 31.7811 27.1595 31.7535 27.3087 31.7535C27.4314 31.7535 27.5458 31.772 27.6519 31.8091C27.7587 31.8455 27.8538 31.8974 27.9371 31.9648C28.0212 32.0315 28.0913 32.1114 28.1473 32.2046C28.2034 32.297 28.242 32.3997 28.2632 32.5125H27.9723Z" fill="#BD0728"/>
<path d="M27.9723 32.5125L27.8773 32.5436L27.8998 32.6125H27.9723V32.5125ZM27.8735 32.3069L27.7898 32.3616L27.7906 32.3628L27.8735 32.3069ZM27.7292 32.15L27.6676 32.2289L27.6681 32.2293L27.7292 32.15ZM27.5405 32.0512L27.5712 31.956L27.5712 31.956L27.5405 32.0512ZM26.6632 32.4387L26.7534 32.482V32.482L26.6632 32.4387ZM26.6644 33.4591L26.5745 33.5029L26.6644 33.4591ZM26.9382 33.7739L26.8856 33.859L26.9382 33.7739ZM27.6792 33.7955L27.728 33.8828L27.7282 33.8826L27.6792 33.7955ZM27.9178 33.5523L27.83 33.5043L27.8299 33.5046L27.9178 33.5523ZM28.0042 33.1807L28.0248 33.0829L27.9042 33.0575V33.1807H28.0042ZM28.0905 33.1989V33.2989L28.1111 33.1011L28.0905 33.1989ZM27.3905 33.1989H27.2905V33.2989H27.3905V33.1989ZM27.3905 32.9489V32.8489H27.2905V32.9489H27.3905ZM28.2769 32.9489H28.3769V32.8489H28.2769V32.9489ZM28.1542 33.6989L28.0676 33.6489L28.0674 33.6492L28.1542 33.6989ZM27.8178 34.0285L27.8655 34.1164L27.8656 34.1163L27.8178 34.0285ZM26.7837 33.9989L26.7307 34.0837L26.7309 34.0839L26.7837 33.9989ZM26.4201 33.5853L26.33 33.6288L26.3302 33.6291L26.4201 33.5853ZM26.3644 32.4523L26.2697 32.4203L26.2696 32.4206L26.3644 32.4523ZM26.5757 32.075L26.651 32.1409L26.5757 32.075ZM26.8985 31.8364L26.8578 31.7451L26.8985 31.8364ZM27.6519 31.8091L27.6188 31.9035L27.6197 31.9038L27.6519 31.8091ZM27.9371 31.9648L27.8742 32.0426L27.875 32.0432L27.9371 31.9648ZM28.1473 32.2046L28.0616 32.2561L28.0618 32.2565L28.1473 32.2046ZM28.2632 32.5125V32.6125H28.3838L28.3615 32.4941L28.2632 32.5125ZM28.0674 32.4815C28.0398 32.397 28.003 32.3199 27.9564 32.2509L27.7906 32.3628C27.8258 32.415 27.8549 32.475 27.8773 32.5436L28.0674 32.4815ZM27.9572 32.2521C27.9111 32.1817 27.8554 32.1211 27.7902 32.0708L27.6681 32.2293C27.715 32.2654 27.7555 32.3093 27.7898 32.3616L27.9572 32.2521ZM27.7907 32.0712C27.7257 32.0204 27.6522 31.9821 27.5712 31.956L27.5098 32.1464C27.5697 32.1657 27.6221 32.1933 27.6676 32.2289L27.7907 32.0712ZM27.5712 31.956C27.4896 31.9297 27.4018 31.9171 27.3087 31.9171V32.1171C27.3838 32.1171 27.4505 32.1272 27.5098 32.1464L27.5712 31.956ZM27.3087 31.9171C27.1526 31.9171 27.0086 31.9577 26.8792 32.0393L26.9859 32.2085C27.0823 32.1477 27.189 32.1171 27.3087 32.1171V31.9171ZM26.8792 32.0393C26.7481 32.122 26.6467 32.2424 26.5731 32.3953L26.7534 32.482C26.8132 32.3577 26.8912 32.2682 26.9859 32.2085L26.8792 32.0393ZM26.5731 32.3953C26.4983 32.551 26.4632 32.7369 26.4632 32.9489H26.6632C26.6632 32.7579 26.6949 32.6036 26.7534 32.482L26.5731 32.3953ZM26.4632 32.9489C26.4632 33.1611 26.4987 33.3471 26.5745 33.5029L26.7543 33.4154C26.6952 33.2939 26.6632 33.1397 26.6632 32.9489H26.4632ZM26.5745 33.5029C26.649 33.6561 26.7522 33.7765 26.8856 33.859L26.9908 33.6889C26.8939 33.6289 26.8146 33.5394 26.7543 33.4154L26.5745 33.5029ZM26.8856 33.859C27.0176 33.9406 27.1656 33.9807 27.3269 33.9807V33.7807C27.2003 33.7807 27.0892 33.7497 26.9908 33.6889L26.8856 33.859ZM27.3269 33.9807C27.4748 33.9807 27.6095 33.9491 27.728 33.8828L27.6303 33.7082C27.5458 33.7556 27.4456 33.7807 27.3269 33.7807V33.9807ZM27.7282 33.8826C27.8471 33.8157 27.94 33.7209 28.0057 33.6001L27.8299 33.5046C27.782 33.5928 27.7158 33.6601 27.6301 33.7084L27.7282 33.8826ZM28.0055 33.6003C28.0725 33.4778 28.1042 33.3368 28.1042 33.1807H27.9042C27.9042 33.3095 27.8782 33.4163 27.83 33.5043L28.0055 33.6003ZM27.9836 33.2786L28.0699 33.2968L28.1111 33.1011L28.0248 33.0829L27.9836 33.2786ZM28.0905 33.0989H27.3905V33.2989H28.0905V33.0989ZM27.4905 33.1989V32.9489H27.2905V33.1989H27.4905ZM27.3905 33.0489H28.2769V32.8489H27.3905V33.0489ZM28.1769 32.9489V33.1989H28.3769V32.9489H28.1769ZM28.1769 33.1989C28.1769 33.3761 28.1392 33.5249 28.0676 33.6489L28.2408 33.7489C28.3328 33.5896 28.3769 33.4051 28.3769 33.1989H28.1769ZM28.0674 33.6492C27.9955 33.7749 27.8968 33.8715 27.7699 33.9407L27.8656 34.1163C28.0251 34.0294 28.1507 33.9063 28.241 33.7486L28.0674 33.6492ZM27.7701 33.9406C27.6443 34.0088 27.4974 34.0444 27.3269 34.0444V34.2444C27.526 34.2444 27.7065 34.2026 27.8655 34.1164L27.7701 33.9406ZM27.3269 34.0444C27.1371 34.0444 26.9748 33.9999 26.8365 33.914L26.7309 34.0839C26.9047 34.1918 27.1045 34.2444 27.3269 34.2444V34.0444ZM26.8367 33.9141C26.6986 33.8279 26.5896 33.7049 26.51 33.5415L26.3302 33.6291C26.4248 33.8232 26.5582 33.976 26.7307 34.0837L26.8367 33.9141ZM26.5101 33.5418C26.4317 33.3794 26.3905 33.1828 26.3905 32.9489H26.1905C26.1905 33.206 26.2357 33.4336 26.33 33.6288L26.5101 33.5418ZM26.3905 32.9489C26.3905 32.7737 26.414 32.6191 26.4592 32.4841L26.2696 32.4206C26.2163 32.5795 26.1905 32.756 26.1905 32.9489H26.3905ZM26.4591 32.4844C26.5054 32.3475 26.5698 32.2336 26.651 32.1409L26.5005 32.0092C26.3999 32.124 26.3233 32.2617 26.2697 32.4203L26.4591 32.4844ZM26.651 32.1409C26.7325 32.0479 26.8283 31.9771 26.9391 31.9278L26.8578 31.7451C26.7201 31.8063 26.6008 31.8946 26.5005 32.0092L26.651 32.1409ZM26.9391 31.9278C27.0494 31.8787 27.1721 31.8535 27.3087 31.8535V31.6535C27.1468 31.6535 26.9961 31.6835 26.8578 31.7451L26.9391 31.9278ZM27.3087 31.8535C27.4212 31.8535 27.5243 31.8704 27.6188 31.9035L27.6849 31.7148C27.5673 31.6736 27.4416 31.6535 27.3087 31.6535V31.8535ZM27.6197 31.9038C27.7159 31.9366 27.8005 31.9829 27.8742 32.0426L28 31.8871C27.9071 31.8119 27.8015 31.7544 27.6841 31.7145L27.6197 31.9038ZM27.875 32.0432C27.9495 32.1023 28.0117 32.1731 28.0616 32.2561L28.233 32.153C28.1709 32.0497 28.0929 31.9607 27.9992 31.8865L27.875 32.0432ZM28.0618 32.2565C28.1113 32.338 28.1458 32.4292 28.165 32.531L28.3615 32.4941C28.3382 32.3701 28.2955 32.2561 28.2328 32.1527L28.0618 32.2565ZM28.2632 32.4125H27.9723V32.6125H28.2632V32.4125Z" fill="white"/>
<path d="M30.7837 31.7977H31.0655V33.3386C31.0655 33.4977 31.028 33.6398 30.953 33.7648C30.8788 33.889 30.7739 33.9871 30.6382 34.0591C30.5026 34.1303 30.3435 34.1659 30.161 34.1659C29.9784 34.1659 29.8193 34.1303 29.6837 34.0591C29.5481 33.9871 29.4428 33.889 29.3678 33.7648C29.2935 33.6398 29.2564 33.4977 29.2564 33.3386V31.7977H29.5382V33.3159C29.5382 33.4295 29.5632 33.5307 29.6132 33.6193C29.6632 33.7072 29.7345 33.7765 29.8269 33.8273C29.9201 33.8773 30.0314 33.9023 30.161 33.9023C30.2905 33.9023 30.4019 33.8773 30.4951 33.8273C30.5882 33.7765 30.6595 33.7072 30.7087 33.6193C30.7587 33.5307 30.7837 33.4295 30.7837 33.3159V31.7977Z" fill="#BD0728"/>
<path d="M30.7837 31.7977V31.6977H30.6837V31.7977H30.7837ZM31.0655 31.7977H31.1655V31.6977H31.0655V31.7977ZM30.953 33.7648L30.8673 33.7133L30.8672 33.7135L30.953 33.7648ZM30.6382 34.0591L30.6847 34.1476L30.6851 34.1474L30.6382 34.0591ZM29.6837 34.0591L29.6368 34.1474L29.6372 34.1476L29.6837 34.0591ZM29.3678 33.7648L29.2818 33.8158L29.2822 33.8165L29.3678 33.7648ZM29.2564 31.7977V31.6977H29.1564V31.7977H29.2564ZM29.5382 31.7977H29.6382V31.6977H29.5382V31.7977ZM29.6132 33.6193L29.5261 33.6685L29.5263 33.6688L29.6132 33.6193ZM29.8269 33.8273L29.7787 33.9149L29.7796 33.9154L29.8269 33.8273ZM30.4951 33.8273L30.5423 33.9154L30.5429 33.9151L30.4951 33.8273ZM30.7087 33.6193L30.6216 33.5702L30.6215 33.5704L30.7087 33.6193ZM30.7837 31.8977H31.0655V31.6977H30.7837V31.8977ZM30.9655 31.7977V33.3386H31.1655V31.7977H30.9655ZM30.9655 33.3386C30.9655 33.4813 30.9321 33.6053 30.8673 33.7133L31.0388 33.8162C31.1239 33.6743 31.1655 33.5141 31.1655 33.3386H30.9655ZM30.8672 33.7135C30.8029 33.8211 30.7119 33.9068 30.5914 33.9708L30.6851 34.1474C30.8358 34.0674 30.9547 33.9569 31.0389 33.8161L30.8672 33.7135ZM30.5918 33.9706C30.473 34.0329 30.3304 34.0659 30.161 34.0659V34.2659C30.3567 34.2659 30.5323 34.2277 30.6847 34.1476L30.5918 33.9706ZM30.161 34.0659C29.9915 34.0659 29.8489 34.0329 29.7302 33.9706L29.6372 34.1476C29.7897 34.2277 29.9653 34.2659 30.161 34.2659V34.0659ZM29.7306 33.9708C29.61 33.9068 29.5185 33.8209 29.4534 33.7131L29.2822 33.8165C29.3671 33.9571 29.4862 34.0675 29.6368 34.1474L29.7306 33.9708ZM29.4538 33.7137C29.3896 33.6056 29.3564 33.4815 29.3564 33.3386H29.1564C29.1564 33.514 29.1975 33.6739 29.2818 33.8158L29.4538 33.7137ZM29.3564 33.3386V31.7977H29.1564V33.3386H29.3564ZM29.2564 31.8977H29.5382V31.6977H29.2564V31.8977ZM29.4382 31.7977V33.3159H29.6382V31.7977H29.4382ZM29.4382 33.3159C29.4382 33.4447 29.4667 33.5631 29.5261 33.6685L29.7003 33.5702C29.6598 33.4982 29.6382 33.4144 29.6382 33.3159H29.4382ZM29.5263 33.6688C29.5859 33.7734 29.6708 33.8557 29.7787 33.9149L29.875 33.7396C29.7981 33.6974 29.7406 33.641 29.7002 33.5699L29.5263 33.6688ZM29.7796 33.9154C29.8902 33.9748 30.0186 34.0023 30.161 34.0023V33.8023C30.0443 33.8023 29.9499 33.7798 29.8742 33.7392L29.7796 33.9154ZM30.161 34.0023C30.3033 34.0023 30.4317 33.9748 30.5423 33.9154L30.4478 33.7392C30.3721 33.7798 30.2777 33.8023 30.161 33.8023V34.0023ZM30.5429 33.9151C30.6517 33.8558 30.737 33.7734 30.7959 33.6682L30.6215 33.5704C30.5819 33.641 30.5248 33.6972 30.4472 33.7395L30.5429 33.9151ZM30.7958 33.6685C30.8552 33.5631 30.8837 33.4447 30.8837 33.3159H30.6837C30.6837 33.4144 30.6622 33.4982 30.6216 33.5702L30.7958 33.6685ZM30.8837 33.3159V31.7977H30.6837V33.3159H30.8837Z" fill="white"/>
<path d="M32.8402 34.125H32.5447L33.3993 31.7977H33.6902L34.5447 34.125H34.2493L33.5538 32.1659H33.5356L32.8402 34.125ZM32.9493 33.2159H34.1402V33.4659H32.9493V33.2159Z" fill="#BD0728"/>
<path d="M32.8402 34.125V34.225H32.9108L32.9344 34.1585L32.8402 34.125ZM32.5447 34.125L32.4508 34.0905L32.4015 34.225H32.5447V34.125ZM33.3993 31.7977V31.6977H33.3294L33.3054 31.7633L33.3993 31.7977ZM33.6902 31.7977L33.784 31.7633L33.76 31.6977H33.6902V31.7977ZM34.5447 34.125V34.225H34.688L34.6386 34.0905L34.5447 34.125ZM34.2493 34.125L34.155 34.1585L34.1786 34.225H34.2493V34.125ZM33.5538 32.1659L33.648 32.1325L33.6244 32.0659H33.5538V32.1659ZM33.5356 32.1659V32.0659H33.465L33.4414 32.1325L33.5356 32.1659ZM32.9493 33.2159V33.1159H32.8493V33.2159H32.9493ZM34.1402 33.2159H34.2402V33.1159H34.1402V33.2159ZM34.1402 33.4659V33.5659H34.2402V33.4659H34.1402ZM32.9493 33.4659H32.8493V33.5659H32.9493V33.4659ZM32.8402 34.025H32.5447V34.225H32.8402V34.025ZM32.6386 34.1595L33.4931 31.8322L33.3054 31.7633L32.4508 34.0905L32.6386 34.1595ZM33.3993 31.8977H33.6902V31.6977H33.3993V31.8977ZM33.5963 31.8322L34.4508 34.1595L34.6386 34.0905L33.784 31.7633L33.5963 31.8322ZM34.5447 34.025H34.2493V34.225H34.5447V34.025ZM34.3435 34.0915L33.648 32.1325L33.4596 32.1994L34.155 34.1585L34.3435 34.0915ZM33.5538 32.0659H33.5356V32.2659H33.5538V32.0659ZM33.4414 32.1325L32.7459 34.0915L32.9344 34.1585L33.6299 32.1994L33.4414 32.1325ZM32.9493 33.3159H34.1402V33.1159H32.9493V33.3159ZM34.0402 33.2159V33.4659H34.2402V33.2159H34.0402ZM34.1402 33.3659H32.9493V33.5659H34.1402V33.3659ZM33.0493 33.4659V33.2159H32.8493V33.4659H33.0493Z" fill="white"/>
<path d="M35.6822 31.7853H36.0186L36.8095 33.7171H36.8368L37.6277 31.7853H37.964V34.1125H37.7004V32.3444H37.6777L36.9504 34.1125H36.6958L35.9686 32.3444H35.9458V34.1125H35.6822V31.7853Z" fill="#BD0728"/>
<path d="M35.6822 31.7853V31.6853H35.5822V31.7853H35.6822ZM36.0186 31.7853L36.1111 31.7474L36.0857 31.6853H36.0186V31.7853ZM36.8095 33.7171L36.7169 33.755L36.7424 33.8171H36.8095V33.7171ZM36.8368 33.7171V33.8171H36.9039L36.9293 33.755L36.8368 33.7171ZM37.6277 31.7853V31.6853H37.5605L37.5351 31.7474L37.6277 31.7853ZM37.964 31.7853H38.064V31.6853H37.964V31.7853ZM37.964 34.1125V34.2125H38.064V34.1125H37.964ZM37.7004 34.1125H37.6004V34.2125H37.7004V34.1125ZM37.7004 32.3444H37.8004V32.2444H37.7004V32.3444ZM37.6777 32.3444V32.2444H37.6107L37.5852 32.3063L37.6777 32.3444ZM36.9504 34.1125V34.2125H37.0174L37.0429 34.1506L36.9504 34.1125ZM36.6958 34.1125L36.6034 34.1506L36.6288 34.2125H36.6958V34.1125ZM35.9686 32.3444L36.0611 32.3063L36.0356 32.2444H35.9686V32.3444ZM35.9458 32.3444V32.2444H35.8458V32.3444H35.9458ZM35.9458 34.1125V34.2125H36.0458V34.1125H35.9458ZM35.6822 34.1125H35.5822V34.2125H35.6822V34.1125ZM35.6822 31.8853H36.0186V31.6853H35.6822V31.8853ZM35.926 31.8232L36.7169 33.755L36.902 33.6792L36.1111 31.7474L35.926 31.8232ZM36.8095 33.8171H36.8368V33.6171H36.8095V33.8171ZM36.9293 33.755L37.7202 31.8232L37.5351 31.7474L36.7442 33.6792L36.9293 33.755ZM37.6277 31.8853H37.964V31.6853H37.6277V31.8853ZM37.864 31.7853V34.1125H38.064V31.7853H37.864ZM37.964 34.0125H37.7004V34.2125H37.964V34.0125ZM37.8004 34.1125V32.3444H37.6004V34.1125H37.8004ZM37.7004 32.2444H37.6777V32.4444H37.7004V32.2444ZM37.5852 32.3063L36.8579 34.0745L37.0429 34.1506L37.7701 32.3824L37.5852 32.3063ZM36.9504 34.0125H36.6958V34.2125H36.9504V34.0125ZM36.7883 34.0745L36.0611 32.3063L35.8761 32.3824L36.6034 34.1506L36.7883 34.0745ZM35.9686 32.2444H35.9458V32.4444H35.9686V32.2444ZM35.8458 32.3444V34.1125H36.0458V32.3444H35.8458ZM35.9458 34.0125H35.6822V34.2125H35.9458V34.0125ZM35.7822 34.1125V31.7853H35.5822V34.1125H35.7822Z" fill="white"/>
<path fill-rule="evenodd" clip-rule="evenodd" d="M26.4874 25.9125C26.3374 26.1875 26.8249 25.8375 26.9374 25.7875C27.5624 25.575 27.8124 24.7875 28.8874 25.25C29.7374 25.625 30.8874 25.4125 30.2874 25.775C29.5374 26.225 28.0749 26.7125 28.0374 28.9C28.1624 29.1125 28.1874 29.075 28.2874 28.85C28.4999 28.35 29.5749 26.95 30.0999 27.075C30.3124 27.125 30.9249 26.45 30.9499 26.6375C30.9999 27.1875 30.0999 28.2875 30.1124 29.7625C30.1124 30.1125 30.5374 30.225 30.7374 29.9875C30.9374 29.775 31.0499 29.55 31.4124 29.275C32.0374 28.7625 31.8624 26.5875 31.9374 26.6875C32.3749 27.2625 32.4374 28.875 33.1124 29.5375C33.6499 30.0875 34.0999 29.825 33.9874 29.0625C33.7374 27.525 33.0124 27.9625 32.6749 26.375C32.5999 26.0625 32.5874 25.7875 32.9874 25.9125C33.4874 26.0625 33.7874 26.2875 34.1624 26.8625C34.5374 27.4 35.2249 27.9125 35.6374 28.2375C36.3374 28.775 36.5874 28.3 36.2499 27.6125C35.8206 26.8185 35.1194 26.2061 34.2749 25.8875C33.6999 25.6875 33.4874 25.675 32.9749 25.575C32.8499 25.55 32.6874 25.25 32.9374 25.1C33.4833 24.7066 34.1196 24.4572 34.7874 24.375C35.4124 24.3625 35.9124 24.8625 36.3499 25C37.2374 25.225 37.2249 24.6625 36.8499 24.25C36.5249 23.9 35.8499 23.3125 35.2249 23.375C33.9499 23.5375 34.0249 23.5 33.2499 24.025C32.9624 24.1875 32.6499 24.375 32.7624 24.175C33.0499 23.6625 32.7749 23.75 33.2249 23.225C33.5624 22.85 33.8124 22.5625 34.1624 22.475C34.4874 22.3875 34.9124 22.05 35.0374 21.875C35.3624 21.4375 35.0874 21.1875 34.5999 21.3375C34.1749 21.4625 33.9374 21.7375 33.6499 21.8125C32.9624 22.025 32.3999 23.6 32.3249 23.8125C32.2124 24.0875 32.0999 23.95 32.1124 23.725C32.2124 22.625 32.3124 20.7625 31.9249 20C31.3374 18.875 31.3874 19.4 31.1624 19.9375C30.8843 20.739 30.8843 21.6109 31.1624 22.4125C31.2499 22.825 31.5874 23.2875 31.6624 23.625C31.6999 23.875 31.4999 23.5375 31.3999 23.3875C31.0249 22.825 30.7499 22.4375 30.1499 22.1375C29.5482 21.892 28.888 21.8269 28.2499 21.95C28.0874 22 28.4374 22.25 28.5874 22.3625C28.9874 22.6875 29.7499 22.7875 30.2624 23.1125C30.7124 23.3625 31.0499 23.55 31.1874 23.925C31.2499 24.2 31.3374 24.6125 31.1624 24.6C30.6749 24.575 29.9249 24.1625 28.3874 24.325C27.5999 24.4375 26.9249 25.1125 26.4874 25.9125Z" fill="#239E46"/>
<path fill-rule="evenodd" clip-rule="evenodd" d="M29.8379 39.975H30.2879V40.725H29.8379V39.975Z" fill="black"/>
<path fill-rule="evenodd" clip-rule="evenodd" d="M27.625 35.025C29.3875 37.475 32.225 38.9 32.2875 40.025L26.75 40C28.0125 38.475 28.7875 37.4375 27.6125 35.0125L27.625 35.025Z" fill="#FDF9FF"/>
<path fill-rule="evenodd" clip-rule="evenodd" d="M26.0123 40.075C28.4248 40.6125 31.2873 40.9 33.1248 40C33.1248 40.5375 32.5248 41.3 32.0248 41.3H27.4123C27.9498 41.225 28.2498 41.0625 29.1248 41.0125L26.6748 41.05C26.4123 41.05 25.9248 40.3375 26.0123 40.075Z" fill="#A68861"/>
<path fill-rule="evenodd" clip-rule="evenodd" d="M31.4633 50.75C31.5963 50.8125 31.7414 50.8448 31.8883 50.8448C32.0352 50.8448 32.1803 50.8125 32.3133 50.75C46.2008 43.3625 46.2133 23.0875 32.3383 15.8C32.2003 15.7317 32.0485 15.6962 31.8945 15.6962C31.7406 15.6962 31.5887 15.7317 31.4508 15.8C17.9133 23.2125 17.8758 43.2625 31.4633 50.7375V50.75ZM31.5383 49.075C31.6538 49.1287 31.7796 49.1565 31.907 49.1565C32.0344 49.1565 32.1603 49.1287 32.2758 49.075C43.9008 42.2375 44.0383 24.1625 32.2883 17.6875C32.0633 17.525 31.7383 17.575 31.5133 17.6875C20.3883 24.275 19.7633 41.6125 31.5383 49.0625V49.075Z" fill="#BE0027"/>
<path d="M27.3375 31.9625C27.5542 31.9625 27.7417 32.0042 27.9 32.0875C28.125 32.2042 28.2625 32.4125 28.3125 32.7125H28.0125C27.9708 32.5459 27.8875 32.4209 27.7625 32.3375C27.6542 32.2625 27.5083 32.225 27.325 32.225C27.1167 32.225 26.9375 32.3084 26.7875 32.475C26.6458 32.6334 26.575 32.8709 26.575 33.1875C26.575 33.4542 26.6333 33.675 26.75 33.85C26.875 34.0167 27.0708 34.1 27.3375 34.1C27.5458 34.1 27.7167 34.0417 27.85 33.925C27.9917 33.8084 28.0625 33.6125 28.0625 33.3375H27.35V33.0875H28.35V34.3125H28.15L28.075 34.0125C27.975 34.1292 27.8833 34.2125 27.8 34.2625C27.6583 34.3375 27.4833 34.375 27.275 34.375C27.0083 34.375 26.775 34.2875 26.575 34.1125C26.3583 33.8875 26.25 33.5834 26.25 33.2C26.25 32.8167 26.3542 32.5125 26.5625 32.2875C26.7625 32.0709 27.0208 31.9625 27.3375 31.9625Z" fill="#BD0728"/>
<path d="M29.5633 32.025V33.45C29.5633 33.6167 29.5924 33.7542 29.6508 33.8625C29.7424 34.0292 29.9008 34.1125 30.1258 34.1125C30.3841 34.1125 30.5633 34.025 30.6633 33.85C30.7133 33.75 30.7383 33.6167 30.7383 33.45V32.025H31.0508V33.325C31.0508 33.6 31.0091 33.8167 30.9258 33.975C30.7924 34.25 30.5341 34.3875 30.1508 34.3875C29.7591 34.3875 29.4924 34.25 29.3508 33.975C29.2758 33.8167 29.2383 33.6 29.2383 33.325V32.025H29.5633Z" fill="#BD0728"/>
<path d="M33.8867 33.375L33.5367 32.375L33.1617 33.375H33.8867ZM33.3742 32.025H33.7242L34.5617 34.325H34.2117L33.9867 33.6375H33.0742L32.8242 34.325H32.5117L33.3742 32.025Z" fill="#BD0728"/>
<path d="M35.6367 32.0125H36.0867L36.7367 33.9625L37.3992 32.0125H37.8367V34.3125H37.5367V32.375L36.8867 34.3125H36.5867L35.9242 32.375V34.3125H35.6367V32.0125Z" fill="#BD0728"/>
</g>
<defs>
<clipPath id="clip0_10660_12250">
<rect width="64" height="64" rx="32" fill="white"/>
</clipPath>
</defs>
</svg>
