<svg width="64" height="64" viewBox="0 0 64 64" fill="none" xmlns="http://www.w3.org/2000/svg">
<g clip-path="url(#clip0_10660_12272)">
<path d="M0 0H64V64H0V0Z" fill="#4997D0"/>
<path d="M21.3379 0H42.6629V64H21.3379V0Z" fill="white"/>
<path d="M29.5406 38.9727C29.779 38.9367 29.9114 38.8648 30.0703 38.8108M30.2734 38.4421C30.3907 38.5618 30.481 38.706 30.5383 38.8648M29.8231 38.4062C29.9353 38.5128 30.0254 38.6412 30.088 38.7839M25.7178 26.4998C25.6295 26.6436 25.4529 26.7426 25.294 26.8055M25.2675 26.7875C25.2675 26.6616 25.2498 26.5177 25.2675 26.3918M25.0997 26.8415C25.0997 26.8775 25.1351 26.9674 25.1527 27.0213M25.3381 27.1113L25.1616 27.1382M24.8084 27.0573C24.8084 27.2911 24.8349 27.5609 24.8525 27.7677M24.6936 27.6778C24.7378 27.7497 24.7819 27.8127 24.8349 27.8487M24.4288 28.4332C24.4729 28.5141 24.5171 28.6131 24.5435 28.7929M24.8702 28.3703L24.6936 28.5051M24.8437 28.9008C24.7554 28.9818 24.6495 29.0357 24.5347 29.0897M24.1992 32.7227C24.2889 32.8856 24.4088 33.0292 24.5524 33.1454M24.6053 33.2983C24.5121 33.2865 24.422 33.256 24.3405 33.2083M24.7289 33.9727L24.879 34.0627M24.8437 34.3684C24.9497 34.4404 25.0644 34.5752 25.1704 34.7191M25.0468 34.9709C25.1704 34.9979 25.2675 35.0339 25.3293 35.0609M25.241 35.2857H25.4176M25.5324 34.8091L25.4882 35.1868M25.5765 35.3306L25.6118 35.1868M26.0268 35.7263L26.0179 36.0141M29.4788 38.5231L29.3729 38.6669M29.161 38.3162L29.0992 38.1544" stroke="#24420E" stroke-width="0.0356415"/>
<path d="M32.5425 39.6471C32.4694 39.5402 32.3685 39.4561 32.2512 39.4043C31.5714 39.0446 30.8915 38.8737 30.1323 38.7478C29.9469 38.7208 29.7703 38.55 29.5849 38.46C29.1434 38.2532 28.6579 38.1723 28.2341 37.9475C28.2076 37.9385 28.1017 37.8755 28.0575 37.8126C27.8809 37.6147 27.5719 37.5518 27.3865 37.3629C26.6449 36.6615 25.868 36.014 25.4619 35.0698C24.9674 33.9277 24.3583 32.7497 24.4377 31.4547C24.4907 30.6274 24.3759 29.8 24.5702 29.0267C24.8703 27.8576 25.2411 26.7155 25.9298 25.7533L25.815 25.8252C25.1612 26.8149 24.6997 27.923 24.4554 29.0896C24.2523 29.872 24.3671 30.7083 24.3229 31.5176C24.2347 32.8216 24.8527 33.9996 25.3383 35.1417C25.7444 36.077 26.5301 36.7334 27.2629 37.4439C27.4572 37.6237 27.7573 37.6867 27.9339 37.8935C27.987 37.9458 28.0463 37.9911 28.1105 38.0284C28.5431 38.2442 29.0287 38.3252 29.4701 38.541C29.6467 38.6309 29.8233 38.7928 29.9998 38.8288C30.7423 38.9226 31.4643 39.1414 32.1364 39.4762C32.2533 39.5288 32.354 39.6127 32.4277 39.719L32.5425 39.6381" fill="#406325"/>
<path d="M32.5425 39.6471C32.4694 39.5402 32.3685 39.4561 32.2512 39.4043C31.5713 39.0446 30.8915 38.8737 30.1323 38.7478C29.9469 38.7208 29.7703 38.55 29.5849 38.46C29.1434 38.2532 28.6579 38.1723 28.2341 37.9475C28.2076 37.9385 28.1017 37.8755 28.0575 37.8126C27.8809 37.6147 27.5719 37.5518 27.3865 37.3629C26.6449 36.6615 25.868 36.014 25.4619 35.0698C24.9674 33.9277 24.3583 32.7497 24.4377 31.4547C24.4907 30.6274 24.3759 29.8 24.5702 29.0267C24.8703 27.8576 25.2411 26.7155 25.9298 25.7533L25.815 25.8252C25.1612 26.8149 24.6997 27.923 24.4554 29.0896C24.2523 29.872 24.3671 30.7083 24.3229 31.5176C24.2347 32.8216 24.8527 33.9996 25.3383 35.1417C25.7444 36.077 26.5301 36.7334 27.2629 37.4439C27.4572 37.6237 27.7573 37.6867 27.9339 37.8935C27.987 37.9458 28.0463 37.9911 28.1105 38.0284C28.5431 38.2442 29.0287 38.3252 29.4701 38.541C29.6467 38.6309 29.8233 38.7928 29.9998 38.8288C30.7423 38.9226 31.4643 39.1414 32.1364 39.4762C32.2533 39.5288 32.354 39.6127 32.4277 39.719L32.5425 39.6381" stroke="#24420E" stroke-width="0.0178207"/>
<path d="M25.4965 34.845C25.3146 34.1535 25.3086 33.4262 25.4789 32.7317C26.0704 33.9007 25.8761 34.863 25.4965 34.845ZM29.5489 38.9277C28.8291 39.0957 28.1634 39.4486 27.6154 39.9529C28.9485 39.9619 29.7343 39.2964 29.5489 38.9277ZM30.2111 38.541C29.6081 37.8657 29.1829 37.0459 28.975 36.1579C30.2993 37.1381 30.6437 38.3432 30.2111 38.541Z" fill="#67923D" stroke="#24420E" stroke-width="0.0178207"/>
<path d="M29.7607 38.55C29.1253 38.001 28.6388 37.295 28.3481 36.4996C29.6989 37.237 30.1404 38.3162 29.7607 38.55ZM28.3835 37.9385C28.4717 37.237 27.889 35.7622 27.7213 35.6004C27.4564 37.0842 27.9862 38.0824 28.3835 37.9385ZM25.9732 35.7532C25.8306 35.1301 25.8458 34.4803 26.0174 33.8648C26.5029 34.9169 26.3087 35.7712 25.9732 35.7532ZM24.7637 28.8468C25.247 28.2097 25.8864 27.7135 26.6177 27.408C26.0174 28.7209 25.0285 29.1975 24.7637 28.8468Z" fill="#67923D" stroke="#24420E" stroke-width="0.0178207"/>
<path d="M24.8259 28.3432C25.1761 27.6181 25.7055 26.9983 26.3621 26.5447C26.0354 27.9565 25.1525 28.631 24.8259 28.3432ZM27.2891 37.264C26.8811 36.5407 26.6594 35.724 26.6446 34.8899C27.6334 36.014 27.704 37.1651 27.2802 37.264H27.2891ZM24.7552 33.9817C24.1372 34.0806 22.8659 33.568 22.7246 33.4151C24.0136 33.1274 24.8788 33.595 24.7552 33.9817ZM24.561 33.1094C24.6316 32.6148 25.3203 31.6885 25.4704 31.6166C25.3821 32.6957 24.817 33.2892 24.561 33.1094ZM29.0901 38.3791C28.2302 38.5743 27.4356 38.996 26.7858 39.6022C28.375 39.6111 29.3197 38.8198 29.0901 38.3791Z" fill="#67923D" stroke="#24420E" stroke-width="0.0178207"/>
<path d="M25.5055 34.836C25.8763 34.8539 26.0705 33.9007 25.479 32.7317C25.5905 33.4278 25.5994 34.1371 25.5055 34.836ZM26.4943 36.6345C25.9498 36.1388 25.2906 35.7922 24.5785 35.6273C25.3642 36.7154 26.3354 36.9852 26.4943 36.6345ZM24.3401 31.8683C24.0896 31.0485 23.6402 30.3062 23.0335 29.7101C23.1659 31.2568 23.9693 32.1112 24.3401 31.8683ZM25.0817 34.9529C24.6403 34.6201 23.4043 34.4673 23.2277 34.5212C24.1282 35.2766 25.0111 35.2856 25.0817 34.9529ZM24.2518 32.7227C23.8705 32.1823 23.3558 31.7542 22.7598 31.4817C23.2453 32.5968 24.0488 33.0104 24.2518 32.7137V32.7227ZM24.499 28.4421C24.5697 27.7587 24.0046 26.3378 23.8457 26.1759C23.5897 27.6148 24.1017 28.577 24.4902 28.4421H24.499ZM24.8875 27.1022C25.1259 26.5177 24.9581 25.0878 24.8434 24.908C24.2783 26.122 24.5079 27.1202 24.8875 27.1022Z" fill="#406325" stroke="#24420E" stroke-width="0.0178207"/>
<path d="M25.3293 26.4098C25.5725 25.8633 25.6786 25.2638 25.6383 24.6652C25.0026 25.5375 25.0203 26.3648 25.3293 26.4098ZM25.859 25.8612C26.2509 25.4175 26.5245 24.8787 26.6536 24.2965C25.7972 24.926 25.5765 25.7174 25.859 25.8612ZM24.4376 29.7461C24.4464 29.827 24.3493 29.0087 23.5547 28.1004C23.59 29.4314 24.1021 29.935 24.4376 29.7461ZM27.3157 37.4619C26.6135 37.0886 25.8298 36.9029 25.0379 36.9223C26.1503 37.8576 27.2363 37.8756 27.3157 37.4619ZM28.384 37.9385C27.9779 38.0734 27.457 37.0842 27.713 35.6004C27.8276 36.407 28.0504 37.1937 28.3752 37.9385H28.384ZM29.5582 38.9277C29.7348 39.2964 28.9579 39.9619 27.6336 39.9529C28.693 39.5032 29.5053 39.0626 29.5582 38.9367V38.9277ZM30.2027 38.532C30.6353 38.3252 30.2999 37.1382 28.9667 36.1579C29.726 37.345 30.2469 38.3702 30.2027 38.532Z" fill="#406325" stroke="#24420E" stroke-width="0.0178207"/>
<path d="M29.7607 38.541C30.1316 38.2982 29.6989 37.2371 28.3481 36.4997C29.1869 37.5069 29.7784 38.3881 29.7607 38.541ZM25.982 35.7533C26.3087 35.7713 26.5118 34.9169 26.0262 33.8648C26.088 34.854 26.0615 35.6633 25.982 35.7533ZM24.7637 28.8558C25.0285 29.1976 25.9997 28.7299 26.6089 27.417C26.0659 27.9855 25.4442 28.4703 24.7637 28.8558Z" fill="#406325" stroke="#24420E" stroke-width="0.0178207"/>
<path d="M24.8435 28.3432C25.1613 28.631 26.0354 27.9565 26.3621 26.5447C25.6558 27.5609 24.9848 28.3252 24.8435 28.3432ZM27.2891 37.255C27.704 37.1561 27.6422 36.014 26.6446 34.8899C27.086 36.104 27.3509 37.1202 27.2891 37.255ZM24.7376 33.9817C24.8612 33.595 24.0048 33.1364 22.7246 33.4151C23.8105 33.613 24.6669 33.8648 24.7376 33.9817ZM24.5698 33.1184C24.8259 33.2802 25.3732 32.6957 25.4792 31.6166C25.2483 32.159 24.942 32.6647 24.5698 33.1184ZM29.0901 38.3881C29.3109 38.8378 28.3838 39.6201 26.7947 39.6111C28.0483 39.0806 29.0283 38.55 29.0901 38.3881Z" fill="#406325" stroke="#24420E" stroke-width="0.0178207"/>
<path d="M24.8876 34.3684C24.5179 33.7692 24.0004 33.2793 23.3867 32.9475C23.8282 34.1705 24.6404 34.6651 24.8876 34.3684Z" fill="#406325" stroke="#24420E" stroke-width="0.0178207"/>
<path d="M24.2695 29.6652C24.6226 29.2426 25.8145 28.8379 25.9999 28.8559C25.2936 29.8001 24.4107 29.989 24.2695 29.6652ZM26.4855 36.6346C26.3266 36.9943 25.3642 36.7245 24.5697 35.6364C25.1575 36.0618 25.8028 36.398 26.4855 36.6346ZM24.3313 31.8684C23.9605 32.1112 23.1747 31.2569 23.0335 29.7102C23.6162 30.9062 24.1812 31.8235 24.3313 31.8684ZM25.0729 34.953C25.0111 35.2857 24.1282 35.2767 23.2365 34.5303C23.8254 34.7608 24.4439 34.9031 25.0729 34.953ZM24.2342 32.7138C24.0311 33.0015 23.2453 32.5969 22.7598 31.4818C23.4837 32.2012 24.1282 32.7138 24.243 32.7138H24.2342ZM24.4814 28.4332C24.0929 28.5771 23.5897 27.6239 23.8369 26.185C24.0753 27.399 24.3666 28.3613 24.4814 28.4332ZM24.8787 27.0933C24.499 27.1203 24.2695 26.1221 24.8345 24.9081C24.7639 26.0591 24.7904 27.0034 24.8787 27.0933ZM25.3201 26.4098C25.0199 26.3559 24.9934 25.5375 25.6379 24.6653C25.447 25.2273 25.3399 25.8154 25.3201 26.4098ZM25.8498 25.8613C25.5761 25.7084 25.788 24.926 26.6444 24.3055C26.3056 24.7813 26.0378 25.3056 25.8498 25.8613Z" fill="#67923D" stroke="#24420E" stroke-width="0.0178207"/>
<path d="M24.4364 29.7461C24.0921 29.935 23.5888 29.4314 23.5535 28.1005C23.995 29.1526 24.3128 29.7012 24.4364 29.7461ZM27.3057 37.4619C27.2263 37.8756 26.1492 37.8576 25.0368 36.9313C26.2022 37.318 27.1821 37.5339 27.3057 37.4619ZM26.5818 36.6076C26.2485 36.0909 26.0481 35.4972 25.9991 34.881C26.7937 35.6634 26.8996 36.5087 26.5994 36.6076H26.5818ZM25.0986 34.3594C24.7807 33.8378 24.7454 32.4799 24.8337 32.2911C25.5665 33.3612 25.4782 34.3324 25.0986 34.3594ZM24.8602 34.3684C24.6218 34.6652 23.8096 34.1796 23.377 32.9476C23.7988 33.4941 24.2988 33.973 24.8602 34.3684Z" fill="#67923D" stroke="#24420E" stroke-width="0.0178207"/>
<path d="M24.2695 29.6652C24.4108 29.989 25.276 29.8001 25.9911 28.8649C24.9317 29.4764 24.5167 29.7462 24.2695 29.6652ZM25.0906 34.3415C25.4702 34.3145 25.5585 33.3523 24.8257 32.2911C25.0212 32.9588 25.1106 33.654 25.0906 34.3504V34.3415ZM26.5915 36.6076C26.8917 36.5177 26.7857 35.6634 26 34.881C26.3884 35.7533 26.6356 36.4997 26.5915 36.6076Z" fill="#406325" stroke="#24420E" stroke-width="0.0178207"/>
<path d="M24.4288 31.2659C24.6053 30.5105 24.2787 29.2335 24.0491 28.9637C23.6342 30.3486 24.0315 31.3558 24.4288 31.2659Z" fill="#406325" stroke="#24420E" stroke-width="0.0178207"/>
<path d="M24.4105 31.4457C23.8807 31.5626 23.6423 30.3666 24.0485 29.0087C24.1368 30.2227 24.2957 31.3558 24.4016 31.4367L24.4105 31.4457Z" fill="#67923D" stroke="#24420E" stroke-width="0.0178207"/>
<path d="M24.2969 31.4368C24.3744 30.6402 24.6477 29.8763 25.0915 29.2156C25.268 30.6364 24.6942 31.5807 24.2969 31.4368Z" fill="#67923D" stroke="#24420E" stroke-width="0.0178207"/>
<path d="M24.3047 31.4278C24.702 31.5717 25.267 30.6364 25.0904 29.2156C24.7814 30.4116 24.4283 31.3559 24.3047 31.4278Z" fill="#406325" stroke="#24420E" stroke-width="0.0178207"/>
<path d="M24.4199 32.3001C24.5422 31.5181 24.865 30.7829 25.3558 30.1688C25.4264 31.6256 24.7996 32.4979 24.4199 32.3001Z" fill="#67923D" stroke="#24420E" stroke-width="0.0178207"/>
<path d="M24.4277 32.3091C24.7985 32.5069 25.4254 31.6436 25.3548 30.1958C24.9663 31.3469 24.5602 32.2551 24.4277 32.3091Z" fill="#406325" stroke="#24420E" stroke-width="0.0178207"/>
<path d="M24.6577 27.7227C24.7113 27.7227 24.7548 27.6785 24.7548 27.6238C24.7548 27.5692 24.7113 27.5249 24.6577 27.5249C24.604 27.5249 24.5605 27.5692 24.5605 27.6238C24.5605 27.6785 24.604 27.7227 24.6577 27.7227Z" fill="#BA1F3E" stroke="#511124" stroke-width="0.0178207"/>
<path d="M25.3999 27.1652C25.4535 27.1652 25.497 27.121 25.497 27.0663C25.497 27.0117 25.4535 26.9674 25.3999 26.9674C25.3462 26.9674 25.3027 27.0117 25.3027 27.0663C25.3027 27.121 25.3462 27.1652 25.3999 27.1652Z" fill="#BA1F3E" stroke="#511124" stroke-width="0.0178207"/>
<path d="M25.0815 26.8595C25.1351 26.8595 25.1786 26.8152 25.1786 26.7605C25.1786 26.7059 25.1351 26.6616 25.0815 26.6616C25.0279 26.6616 24.9844 26.7059 24.9844 26.7605C24.9844 26.8152 25.0279 26.8595 25.0815 26.8595Z" fill="#BA1F3E" stroke="#511124" stroke-width="0.0178207"/>
<path d="M24.2788 33.2983C24.3422 33.2983 24.3936 33.2459 24.3936 33.1814C24.3936 33.1168 24.3422 33.0645 24.2788 33.0645C24.2154 33.0645 24.1641 33.1168 24.1641 33.1814C24.1641 33.2459 24.2154 33.2983 24.2788 33.2983Z" fill="#BA1F3E" stroke="#511124" stroke-width="0.0178207"/>
<path d="M24.4995 31.8594C24.5629 31.8594 24.6143 31.8071 24.6143 31.7425C24.6143 31.678 24.5629 31.6256 24.4995 31.6256C24.4362 31.6256 24.3848 31.678 24.3848 31.7425C24.3848 31.8071 24.4362 31.8594 24.4995 31.8594Z" fill="#BA1F3E" stroke="#511124" stroke-width="0.0178207"/>
<path d="M25.6656 35.2227C25.7289 35.2227 25.7803 35.1704 25.7803 35.1058C25.7803 35.0412 25.7289 34.9889 25.6656 34.9889C25.6022 34.9889 25.5508 35.0412 25.5508 35.1058C25.5508 35.1704 25.6022 35.2227 25.6656 35.2227Z" fill="#BA1F3E" stroke="#511124" stroke-width="0.0178207"/>
<path d="M25.1538 35.3936C25.2172 35.3936 25.2686 35.3413 25.2686 35.2767C25.2686 35.2121 25.2172 35.1598 25.1538 35.1598C25.0904 35.1598 25.0391 35.2121 25.0391 35.2767C25.0391 35.3413 25.0904 35.3936 25.1538 35.3936Z" fill="#BA1F3E" stroke="#511124" stroke-width="0.0178207"/>
<path d="M29.064 38.1993C29.1274 38.1993 29.1788 38.1469 29.1788 38.0824C29.1788 38.0178 29.1274 37.9655 29.064 37.9655C29.0006 37.9655 28.9492 38.0178 28.9492 38.0824C28.9492 38.1469 29.0006 38.1993 29.064 38.1993Z" fill="#BA1F3E" stroke="#511124" stroke-width="0.0178207"/>
<path d="M29.3199 38.8378C29.3832 38.8378 29.4346 38.7855 29.4346 38.7209C29.4346 38.6563 29.3832 38.604 29.3199 38.604C29.2565 38.604 29.2051 38.6563 29.2051 38.7209C29.2051 38.7855 29.2565 38.8378 29.3199 38.8378Z" fill="#BA1F3E" stroke="#511124" stroke-width="0.0178207"/>
<path d="M39.1649 28.3162C39.2267 28.3701 39.2708 28.3881 39.3679 28.487M38.7852 26.7874C38.7852 26.6615 38.7323 26.4547 38.7058 26.3378M39.0148 26.6076C39.0148 26.7784 38.9883 26.9403 38.9177 27.0932M38.5469 27.0482C38.7058 27.1921 38.8559 27.318 39.0148 27.3989M39.3503 27.5068C39.3591 27.6867 39.3414 27.8665 39.2885 28.0464M39.3238 28.1813L39.4386 27.9744M39.2708 29.0716C39.3944 29.0985 39.518 29.2514 39.5798 29.3863M39.624 29.2694L39.7652 29.0716M39.9153 31.8413C39.8535 31.9493 39.7826 32.0516 39.7034 32.1471M39.3503 32.1471C39.4209 32.273 39.4915 32.4169 39.5798 32.5068M39.8005 33.0374C39.6971 33.1868 39.5611 33.3099 39.4032 33.3971M39.4209 33.8018C39.3238 33.8737 39.2002 34.0715 39.0942 34.2244M39.8359 32.4079L39.6504 32.4888M39.5268 31.8233L39.6328 31.9133M38.8117 35.2766H38.6351M38.4497 35.1147L38.5027 35.2586M37.8317 35.7172C37.8052 35.8881 37.8229 36.0499 37.8406 36.2208M38.2202 35.4115L38.3085 35.6093M38.6528 35.6003L38.4321 35.6273M35.7128 37.9024L35.6245 38.0643M36.6752 37.7046C36.5427 37.7226 36.428 37.7046 36.3132 37.6866M35.8276 38.2262C35.7393 38.1812 35.651 38.1632 35.5627 38.1363M34.2649 38.3791C34.1855 38.442 34.0883 38.5949 34 38.7388M33.9471 38.3341C33.7352 38.451 33.6646 38.6668 33.5586 38.8557M33.8058 39.1075C33.6646 39.0715 33.5056 38.9996 33.3379 38.9276M34.8123 38.8647C34.6092 38.7568 34.3973 38.7747 34.1855 38.7388M35.139 38.7028C34.8123 38.6399 34.5209 38.6488 34.2296 38.6938M34.9182 38.46L34.7946 38.406M34.3002 38.9006L34.0972 38.7837M39.209 34.3593C39.1031 34.4312 38.9883 34.5661 38.8823 34.71M39.0413 27.5518L38.847 27.4798" stroke="#24420E" stroke-width="0.0356415"/>
<path d="M31.5098 39.6381C31.5804 39.5212 31.6952 39.4582 31.8011 39.3953C32.4809 39.0355 33.1607 38.8737 33.92 38.7478C34.1054 38.7118 34.282 38.5409 34.4674 38.46C34.9088 38.2442 35.3944 38.1633 35.8182 37.9474C35.8447 37.9294 35.9506 37.8665 35.9948 37.8035C36.1713 37.6057 36.4804 37.5428 36.6658 37.3539C37.4074 36.6525 38.1843 36.005 38.5904 35.0608C39.0848 33.9187 39.694 32.7406 39.6146 31.4457C39.5616 30.6183 39.6764 29.791 39.4821 29.0176C39.2373 27.8484 38.7758 26.7375 38.1225 25.7443L38.2373 25.8162C38.8921 26.8086 39.3537 27.9198 39.5969 29.0896C39.8 29.8629 39.6852 30.6993 39.7293 31.5176C39.8176 32.8126 39.1996 33.9906 38.714 35.1417C38.3079 36.0769 37.5221 36.7244 36.7894 37.4348C36.5951 37.6147 36.2949 37.6776 36.1184 37.8845C36.0653 37.9368 36.006 37.9821 35.9418 38.0194C35.5092 38.2352 35.0236 38.3251 34.5822 38.532C34.4056 38.6219 34.229 38.7837 34.0524 38.8197C33.31 38.9135 32.588 39.1323 31.9159 39.4672C31.799 39.5198 31.6983 39.6037 31.6245 39.71L31.5098 39.6381Z" fill="#406325" stroke="#24420E" stroke-width="0.0178207"/>
<path d="M38.5007 35.1147C38.7479 34.4492 38.5007 32.8845 38.3771 32.6866C37.7856 34.0715 38.0769 35.1686 38.5007 35.1147Z" fill="#406325" stroke="#24420E" stroke-width="0.0178207"/>
<path d="M37.875 35.7443C38.0781 35.2407 37.9368 34.0087 37.8397 33.8558C37.3541 34.9079 37.5484 35.7712 37.875 35.7443ZM39.3671 29.0806C38.9216 28.4987 38.3341 28.046 37.6631 27.7677C38.2105 28.9637 39.1199 29.4044 39.3671 29.0806Z" fill="#406325" stroke="#24420E" stroke-width="0.0178207"/>
<path d="M39.2255 28.3612C38.9336 27.7561 38.4925 27.2387 37.9453 26.8594C38.219 28.0284 38.9518 28.595 39.2255 28.3612ZM39.6404 29.7011C39.3314 29.3414 38.2985 28.9907 38.1395 29.0086C38.7576 29.818 39.5168 29.9889 39.6404 29.7011ZM39.3932 33.8737C40.0249 33.8692 40.6438 33.6922 41.1855 33.3611C40.0466 33.1093 39.2873 33.532 39.3932 33.8737ZM39.3756 33.3611C39.3756 32.8575 38.8194 31.8504 38.6693 31.7424C38.6251 32.8216 39.1019 33.496 39.3756 33.3611Z" fill="#406325" stroke="#24420E" stroke-width="0.0178207"/>
<path d="M39.4195 32.1291C39.2957 31.3503 38.973 30.6184 38.4836 30.0068C38.413 31.4637 39.0398 32.327 39.4195 32.1291ZM34.7402 38.9007C35.2966 39.4005 35.9728 39.7417 36.7002 39.8899C35.9233 38.7838 34.9256 38.532 34.7491 38.9007H34.7402Z" fill="#406325" stroke="#24420E" stroke-width="0.0178207"/>
<path d="M38.5019 35.0967C38.0693 35.1506 37.7868 34.0715 38.3783 32.6866C38.3342 33.9636 38.396 34.9978 38.5019 35.0967ZM33.7874 39.0175C34.5067 39.1919 35.1716 39.5475 35.7209 40.0517C34.3877 40.0607 33.602 39.3952 33.7785 39.0265L33.7874 39.0175ZM33.7874 38.3071C33.9639 37.5877 35.1117 36.4006 35.3324 36.3197C35.0146 37.8575 34.1229 38.6129 33.7874 38.3071ZM35.6679 37.9384C35.6902 37.1144 35.9181 36.3098 36.33 35.6003C36.5949 37.0751 36.0652 38.0733 35.6679 37.9384ZM37.5661 36.6255C38.1081 36.1311 38.7641 35.7846 39.4731 35.6183C38.6873 36.7064 37.725 36.9762 37.5572 36.6255H37.5661ZM39.8351 31.8323C39.9233 31.2658 40.6914 30.2226 40.8592 30.1327C40.7532 31.3557 40.1264 32.0212 39.8351 31.8413V31.8323Z" fill="#67923D" stroke="#24420E" stroke-width="0.0178207"/>
<path d="M38.8027 35.2586C39.4687 34.9124 40.2095 34.7423 40.957 34.764C39.9152 35.6363 38.8822 35.6453 38.8027 35.2586ZM39.7121 33.0554C40.1121 32.4913 40.6512 32.0446 41.2748 31.7604C40.7627 32.9295 39.924 33.3611 39.7121 33.0554ZM39.5797 28.9547C39.5797 28.2713 40.286 26.9133 40.4625 26.7785C40.5597 28.2263 39.9593 29.1346 39.5797 28.9547ZM38.9705 26.6256C38.8196 26.0363 38.8166 25.4178 38.9617 24.827C39.4472 25.8072 39.2883 26.6256 38.9617 26.6256H38.9705Z" fill="#67923D" stroke="#24420E" stroke-width="0.0178207"/>
<path d="M38.5909 26.4277C38.1273 25.8533 37.8117 25.1703 37.6727 24.4403C38.7145 25.2766 38.9441 26.2748 38.5909 26.4277ZM39.6239 29.5302C39.5974 29.6111 39.8887 28.8378 40.8776 28.1543C40.5244 29.4403 39.9064 29.8 39.6239 29.5302ZM36.6133 37.6147C37.4101 37.1987 38.2961 36.9916 39.1913 37.0122C37.9376 38.0733 36.7016 38.0913 36.6133 37.6147ZM37.8758 35.7442C37.5491 35.7622 37.3461 34.9079 37.8316 33.8557C37.7698 34.8449 37.7963 35.6543 37.8758 35.7442ZM39.3679 29.0806C39.1295 29.4043 38.2201 28.9727 37.6727 27.7676C38.1683 28.2913 38.74 28.7341 39.3679 29.0806ZM39.2178 28.3611C38.9441 28.595 38.2201 28.0374 37.9464 26.8594C38.5379 27.7047 39.0942 28.3432 39.2178 28.3611ZM39.6415 29.7101C39.5179 29.9888 38.7675 29.827 38.1495 29.0176C39.0677 29.5482 39.4296 29.773 39.6504 29.7101H39.6415ZM39.412 33.8647C39.2972 33.523 40.0565 33.1183 41.1954 33.3701C40.5797 33.4416 39.9783 33.6084 39.412 33.8647ZM39.3767 33.3611C39.0942 33.496 38.6262 32.8305 38.6704 31.7514C38.8283 32.3227 39.0661 32.8679 39.3767 33.3701V33.3611Z" fill="#67923D" stroke="#24420E" stroke-width="0.0178207"/>
<path d="M39.4106 32.1471C39.0309 32.345 38.4129 31.4816 38.4835 30.0338C38.872 31.1849 39.2781 32.0932 39.4106 32.1471ZM34.7578 38.9007C34.9344 38.523 35.9144 38.7748 36.7001 39.8719C35.729 39.2694 34.8902 38.8557 34.7578 38.9007Z" fill="#67923D" stroke="#24420E" stroke-width="0.0178207"/>
<path d="M35.668 37.9204C36.0741 38.0643 36.595 37.0751 36.339 35.5913C36.0917 36.8503 35.7916 37.8485 35.668 37.9294V37.9204Z" fill="#406325" stroke="#24420E" stroke-width="0.0178207"/>
<path d="M36.5777 37.4528C36.9119 36.6913 37.0516 35.8561 36.9838 35.0248C36.1009 36.2478 36.1539 37.3899 36.5777 37.4528ZM33.779 39.0265C33.6024 39.3953 34.3705 40.0607 35.7036 40.0427C34.6442 39.6111 33.832 39.1614 33.779 39.0265ZM33.7966 38.2981C34.1321 38.6039 35.015 37.8575 35.3328 36.3197C34.6177 37.4348 33.9467 38.2802 33.7966 38.2981ZM37.5665 36.6255C37.7254 36.9852 38.6878 36.7154 39.4824 35.6273C38.8945 36.0527 38.2492 36.3889 37.5665 36.6255ZM39.8443 31.8323C40.1357 32.0212 40.7537 31.3557 40.8596 30.1417C40.605 30.7532 40.2629 31.323 39.8443 31.8323ZM38.8025 35.2586C38.8908 35.6543 39.9061 35.6363 40.9568 34.764C39.8532 35.1237 38.9261 35.3215 38.8114 35.2586H38.8025ZM39.7207 33.0464C39.9414 33.3521 40.7713 32.9205 41.2834 31.7514C40.8304 32.2617 40.3034 32.6984 39.7207 33.0464ZM39.5971 28.9457C39.9679 29.1255 40.5683 28.2263 40.4623 26.7874C40.1092 27.9565 39.7207 28.8827 39.5883 28.9457H39.5971ZM38.9791 26.6166C39.2881 26.6255 39.4559 25.8072 38.9615 24.818C39.0497 25.7622 39.0497 26.5356 38.9791 26.6166ZM38.5995 26.4187C38.9526 26.2658 38.7231 25.2766 37.6813 24.4403C38.0826 25.0494 38.3921 25.7163 38.5995 26.4187ZM39.6236 29.5392C39.9061 29.809 40.5241 29.4493 40.8773 28.1543C40.1887 29.0626 39.756 29.5212 39.6236 29.5392ZM36.6218 37.6237C36.7101 38.0913 37.9373 38.0733 39.1822 37.0212C37.8667 37.4528 36.7631 37.7046 36.6218 37.6237Z" fill="#406325" stroke="#24420E" stroke-width="0.0178207"/>
<path d="M37.2227 36.9312C37.4766 36.3657 37.586 35.7439 37.5406 35.1237C36.8784 36.023 36.9049 36.8773 37.2227 36.9222V36.9312ZM38.9532 34.3503C39.271 33.8377 39.3063 32.4708 39.218 32.282C38.4852 33.3521 38.5735 34.3233 38.9532 34.3503Z" fill="#406325" stroke="#24420E" stroke-width="0.0178207"/>
<path d="M36.5773 37.4439C36.1535 37.3899 36.1094 36.2478 36.9746 35.0338C36.6567 36.2748 36.4978 37.318 36.5773 37.4439ZM39.685 31.3018C39.5967 30.6004 40.0381 29.4943 40.2677 29.2785C40.4972 30.5734 40.0293 31.4367 39.685 31.3018ZM37.2218 36.9223C36.9039 36.8773 36.8775 36.023 37.5396 35.1237C37.345 35.7035 37.2379 36.3099 37.2218 36.9223ZM39.2877 27.5519C39.0935 27.0123 39.2877 25.7533 39.3937 25.5914C39.8616 26.6885 39.6232 27.5788 39.2877 27.5519ZM34.1582 38.3521C34.3789 37.6327 35.5885 36.4637 35.818 36.3737C35.4384 37.9475 34.4937 38.6759 34.1582 38.3521ZM38.9787 34.6112C39.346 34.0132 39.8603 33.5234 40.4708 33.1903C40.0293 34.4133 39.2171 34.9079 38.9699 34.6112H38.9787ZM38.961 34.3414C38.5814 34.3054 38.4931 33.3522 39.2259 32.282C39.0304 32.9497 38.941 33.6449 38.961 34.3414Z" fill="#67923D" stroke="#24420E" stroke-width="0.0178207"/>
<path d="M39.6855 31.4636C40.1446 31.6345 40.4801 30.5823 40.2682 29.3143C40.1649 30.0561 39.9691 30.7813 39.6855 31.4726V31.4636Z" fill="#406325" stroke="#24420E" stroke-width="0.0178207"/>
<path d="M39.7566 31.4277C39.8007 30.7533 39.1386 29.3594 38.962 29.2065C38.7854 30.6274 39.3593 31.5716 39.7566 31.4277ZM39.2886 27.5429C39.633 27.5788 39.8625 26.6975 39.3946 25.5914C39.4299 26.6256 39.3769 27.4619 39.2886 27.5429ZM34.168 38.3432C34.5035 38.6759 35.4393 37.9475 35.8189 36.3827C35.042 37.4888 34.3181 38.3252 34.168 38.3432ZM38.9885 34.6112C39.2357 34.9079 40.0479 34.4223 40.4894 33.1903C40.0621 33.7382 39.5561 34.2172 38.9885 34.6112Z" fill="#406325" stroke="#24420E" stroke-width="0.0178207"/>
<path d="M39.7468 31.4187C39.3495 31.5716 38.7844 30.6363 38.961 29.2155C39.27 30.4025 39.6232 31.3467 39.7468 31.4187Z" fill="#67923D" stroke="#24420E" stroke-width="0.0178207"/>
<path d="M39.4741 28.0464C39.5277 28.0464 39.5712 28.0021 39.5712 27.9474C39.5712 27.8928 39.5277 27.8485 39.4741 27.8485C39.4204 27.8485 39.377 27.8928 39.377 27.9474C39.377 28.0021 39.4204 28.0464 39.4741 28.0464Z" fill="#BA1F3E" stroke="#511124" stroke-width="0.0178207"/>
<path d="M39.81 29.1165C39.8636 29.1165 39.9071 29.0723 39.9071 29.0176C39.9071 28.963 39.8636 28.9187 39.81 28.9187C39.7564 28.9187 39.7129 28.963 39.7129 29.0176C39.7129 29.0723 39.7564 29.1165 39.81 29.1165Z" fill="#BA1F3E" stroke="#511124" stroke-width="0.0178207"/>
<path d="M39.9331 32.5068C39.9965 32.5068 40.0479 32.4544 40.0479 32.3899C40.0479 32.3253 39.9965 32.2729 39.9331 32.2729C39.8697 32.2729 39.8184 32.3253 39.8184 32.3899C39.8184 32.4544 39.8697 32.5068 39.9331 32.5068Z" fill="#BA1F3E" stroke="#511124" stroke-width="0.0178207"/>
<path d="M39.4741 31.8774C39.5375 31.8774 39.5889 31.825 39.5889 31.7605C39.5889 31.6959 39.5375 31.6436 39.4741 31.6436C39.4108 31.6436 39.3594 31.6959 39.3594 31.7605C39.3594 31.825 39.4108 31.8774 39.4741 31.8774Z" fill="#BA1F3E" stroke="#511124" stroke-width="0.0178207"/>
<path d="M38.1753 35.4654C38.2387 35.4654 38.2901 35.413 38.2901 35.3485C38.2901 35.2839 38.2387 35.2316 38.1753 35.2316C38.1119 35.2316 38.0605 35.2839 38.0605 35.3485C38.0605 35.413 38.1119 35.4654 38.1753 35.4654Z" fill="#BA1F3E" stroke="#511124" stroke-width="0.0178207"/>
<path d="M38.732 35.7082C38.7953 35.7082 38.8467 35.6558 38.8467 35.5913C38.8467 35.5267 38.7953 35.4744 38.732 35.4744C38.6686 35.4744 38.6172 35.5267 38.6172 35.5913C38.6172 35.6558 38.6686 35.7082 38.732 35.7082Z" fill="#BA1F3E" stroke="#511124" stroke-width="0.0178207"/>
<path d="M34.9878 38.6219C35.0512 38.6219 35.1026 38.5695 35.1026 38.505C35.1026 38.4404 35.0512 38.3881 34.9878 38.3881C34.9244 38.3881 34.873 38.4404 34.873 38.505C34.873 38.5695 34.9244 38.6219 34.9878 38.6219Z" fill="#BA1F3E" stroke="#511124" stroke-width="0.0178207"/>
<path d="M34.3706 39.0715C34.434 39.0715 34.4854 39.0191 34.4854 38.9546C34.4854 38.89 34.434 38.8376 34.3706 38.8376C34.3072 38.8376 34.2559 38.89 34.2559 38.9546C34.2559 39.0191 34.3072 39.0715 34.3706 39.0715Z" fill="#BA1F3E" stroke="#511124" stroke-width="0.0178207"/>
<path d="M38.812 27.5428C38.8656 27.5428 38.9091 27.4985 38.9091 27.4439C38.9091 27.3893 38.8656 27.345 38.812 27.345C38.7583 27.345 38.7148 27.3893 38.7148 27.4439C38.7148 27.4985 38.7583 27.5428 38.812 27.5428Z" fill="#BA1F3E" stroke="#511124" stroke-width="0.0178207"/>
<path d="M27.9691 35.2677C27.9514 35.3577 28.0397 35.4746 28.1456 35.4476C28.1898 35.4476 28.2074 35.4026 28.1633 35.4026C28.128 35.4206 28.0838 35.4026 28.0573 35.3757C28.0362 35.3517 28.0217 35.3223 28.0155 35.2907C28.0093 35.259 28.0115 35.2262 28.022 35.1958L27.9691 35.2677Z" fill="#8C959D" stroke="#485654" stroke-width="0.00891037"/>
<path d="M28.2256 35.4476C28.1373 35.5555 28.0049 35.6005 27.9254 35.5285C27.8724 35.4746 27.8548 35.4206 27.8813 35.3487L27.793 35.4656C27.793 35.4656 27.8459 35.5825 27.9342 35.6275C28.049 35.6724 28.1991 35.6005 28.2874 35.4836C28.358 35.3936 28.4286 35.2677 28.3757 35.1598C28.3354 35.0901 28.2732 35.0362 28.1991 35.007L28.1108 35.0969C28.1549 35.0789 28.2168 35.0969 28.2609 35.1329C28.3757 35.2228 28.3139 35.3577 28.2256 35.4476Z" fill="#8C959D"/>
<path d="M28.2266 35.4476C28.2 35.4835 28.1671 35.514 28.1295 35.5375C28.0853 35.5555 28.0412 35.5735 27.997 35.5645C27.9738 35.5641 27.9515 35.5544 27.9352 35.5375C27.9247 35.532 27.9154 35.5244 27.9078 35.5151C27.9002 35.5058 27.8945 35.4951 27.8911 35.4835C27.8734 35.4656 27.8734 35.4476 27.8646 35.4206C27.8646 35.3936 27.8646 35.3756 27.8823 35.3486L27.8911 35.3576L27.794 35.4745V35.4655L27.8823 35.5825L27.9441 35.6184L28.0147 35.6274C28.065 35.6264 28.114 35.6108 28.156 35.5825C28.2001 35.5645 28.2443 35.5285 28.2707 35.4925L28.359 35.3666C28.3767 35.3217 28.3943 35.2767 28.3855 35.2227C28.3855 35.1958 28.3855 35.1778 28.3679 35.1508C28.3275 35.0867 28.269 35.0366 28.2001 35.0069H28.2089L28.1206 35.1058H28.1118C28.1295 35.0879 28.156 35.0879 28.1736 35.0879L28.2442 35.1058C28.2796 35.1328 28.3149 35.1688 28.3237 35.2138C28.3325 35.2587 28.3237 35.3037 28.3061 35.3397C28.2884 35.3846 28.2619 35.4206 28.2266 35.4476ZM28.2266 35.4476C28.2619 35.4206 28.2796 35.3846 28.2972 35.3397C28.3149 35.3037 28.3237 35.2497 28.3149 35.2138C28.3061 35.1688 28.2707 35.1418 28.2354 35.1238C28.2001 35.0968 28.1471 35.0879 28.1206 35.1058H28.1118L28.2001 34.9979C28.2735 35.0284 28.3354 35.0819 28.3767 35.1508C28.3943 35.1688 28.4032 35.1958 28.4032 35.2227C28.4032 35.2767 28.3943 35.3307 28.3679 35.3756C28.3502 35.4206 28.3237 35.4655 28.2796 35.5015C28.2531 35.5465 28.2089 35.5735 28.1648 35.6004C28.1206 35.6274 28.0765 35.6454 28.0147 35.6454C27.9888 35.6465 27.963 35.6422 27.9387 35.633C27.9145 35.6237 27.8923 35.6096 27.8734 35.5914C27.8371 35.555 27.8072 35.5124 27.7852 35.4655L27.8734 35.3486H27.8911L27.8823 35.4206C27.8823 35.4386 27.8823 35.4656 27.8999 35.4835L27.9441 35.5285C27.9529 35.5465 27.9794 35.5555 27.997 35.5555C28.0412 35.5645 28.0853 35.5555 28.1295 35.5375L28.2266 35.4476Z" fill="#485654"/>
<path d="M35.1121 27.444L31.5717 30.9961L27.9431 34.5213L27.537 35.0069C27.3604 35.2137 27.1485 35.4835 26.9013 35.7263C26.8572 35.7892 26.8042 35.7623 26.7512 35.7982C26.5923 35.8882 26.4246 36.05 26.3098 36.1849L25.2239 37.3989C25.1621 37.4799 25.1356 37.5248 25.1886 37.5788L25.7713 38.3702C25.8772 38.4781 26.0008 38.532 26.0538 38.4421C26.3275 37.9475 27.0249 37.2011 27.2898 36.6166C27.4399 36.2569 27.6341 35.6184 27.7754 35.4655C27.952 35.2677 28.4022 34.7641 28.8172 34.3234L28.9055 34.2335C28.9231 34.1975 28.9496 34.1705 28.9849 34.1436C31.0597 31.9853 33.4611 29.3684 35.2092 27.5249L35.1121 27.444Z" fill="#6C301E" stroke="#351710" stroke-width="0.0178207" stroke-linejoin="round"/>
<path d="M27.758 34.5303C27.652 34.5303 27.5814 34.4674 27.502 34.4044C27.6079 34.4404 27.7138 34.4764 27.811 34.4314L27.758 34.5303Z" fill="#8C959D" stroke="#485654" stroke-width="0.00891037"/>
<path d="M38.803 24.8181L35.9955 27.1742C35.969 27.2102 35.9425 27.2012 35.916 27.1742L35.66 26.9584V26.9044L35.7836 26.7785C35.8012 26.7605 35.7836 26.7516 35.7747 26.7246L35.7218 26.6706C35.6953 26.6616 35.6776 26.6706 35.66 26.6886L35.5364 26.8235C35.4746 26.8235 35.4216 26.8775 35.4127 26.9494C33.7176 28.631 32.2521 30.1328 30.5658 31.7875L28.5705 33.7299C28.4998 33.8199 28.1908 33.9907 27.9878 34.1256C27.9171 34.1706 27.8553 34.2155 27.8289 34.2605L27.6699 34.7551C27.617 34.863 27.4492 35.1148 27.4492 35.1328L27.7847 35.4655L28.7647 34.3954L28.8442 34.3055C28.7793 34.2139 28.702 34.1322 28.6146 34.0627L28.5528 34.0177C28.544 33.9997 28.5793 33.9727 28.597 33.9547C30.9277 31.6526 33.4528 29.1256 35.501 27.0663C35.5295 27.0774 35.5609 27.0774 35.5893 27.0663L35.8454 27.3451C35.8983 27.408 35.9513 27.408 35.9955 27.381L38.8118 24.8181H38.803Z" fill="#B2B6BA" stroke="#485654" stroke-width="0.0178207"/>
<path d="M27.6777 34.7371H27.7307L27.7749 34.7281L27.8367 34.5123L27.9073 34.2965L27.8455 34.5123L27.7837 34.7281L27.7307 34.7461L27.6777 34.7371Z" fill="#485654"/>
<path d="M28.3147 34.5842C28.3439 34.5842 28.3677 34.5601 28.3677 34.5303C28.3677 34.5005 28.3439 34.4763 28.3147 34.4763C28.2854 34.4763 28.2617 34.5005 28.2617 34.5303C28.2617 34.5601 28.2854 34.5842 28.3147 34.5842Z" stroke="#485654" stroke-width="0.0178207"/>
<path d="M27.9788 34.9259C28.008 34.9259 28.0317 34.9017 28.0317 34.872C28.0317 34.8422 28.008 34.818 27.9788 34.818C27.9495 34.818 27.9258 34.8422 27.9258 34.872C27.9258 34.9017 27.9495 34.9259 27.9788 34.9259Z" stroke="#485654" stroke-width="0.0178207"/>
<path d="M28.5613 34.0177C28.5036 33.9754 28.4503 33.9272 28.4023 33.8738C28.4601 33.916 28.5133 33.9642 28.5613 34.0177Z" fill="#485654"/>
<path d="M33.9648 28.3163L34.2739 28.6311L34.3268 28.5771L34.0178 28.2714L33.9648 28.3253V28.3163Z" fill="#8C959D" stroke="#485654" stroke-width="0.00891037"/>
<path d="M34.5841 35.3914C34.5975 35.4821 34.5037 35.5945 34.3991 35.5623C34.3551 35.5601 34.3396 35.5143 34.3837 35.5165C34.4181 35.5362 34.463 35.5205 34.4908 35.4948C34.5131 35.4719 34.5289 35.4433 34.5367 35.412C34.5444 35.3807 34.5437 35.3479 34.5347 35.317L34.5841 35.3914Z" fill="#8C959D" stroke="#485654" stroke-width="0.00891038"/>
<path d="M34.3183 35.5584C34.4013 35.6705 34.5314 35.722 34.6142 35.6541C34.6697 35.6029 34.6899 35.5499 34.6669 35.4767L34.7495 35.5979C34.7495 35.5979 34.691 35.712 34.6006 35.7525C34.4838 35.7917 34.3374 35.7124 34.2548 35.5912C34.1886 35.4979 34.1241 35.3686 34.1822 35.2635C34.2257 35.1958 34.2905 35.1451 34.3658 35.1196L34.4497 35.2138C34.4065 35.1936 34.3439 35.2085 34.2981 35.2422C34.1791 35.3263 34.2344 35.4642 34.3183 35.5584Z" fill="#8C959D"/>
<path d="M34.3188 35.5584C34.3436 35.5955 34.375 35.6276 34.4115 35.653C34.4547 35.6732 34.4979 35.6933 34.5424 35.6866C34.5657 35.6874 34.5884 35.6788 34.6055 35.6627C34.6163 35.6577 34.6259 35.6505 34.634 35.6417C34.642 35.6328 34.6482 35.6224 34.6521 35.611C34.6706 35.5939 34.6715 35.5759 34.6816 35.5494C34.6829 35.5225 34.6838 35.5045 34.6674 35.4767L34.6582 35.4852L34.7496 35.6068L34.75 35.5979L34.6562 35.7102L34.5928 35.7431L34.5218 35.7485C34.4716 35.745 34.4234 35.727 34.3829 35.6966C34.3396 35.6764 34.2973 35.6383 34.2725 35.6011L34.1904 35.4709C34.1749 35.4251 34.1594 35.3794 34.1708 35.3259C34.1721 35.299 34.173 35.281 34.1919 35.2549C34.2353 35.1929 34.2961 35.1457 34.3664 35.1196L34.3575 35.1191L34.441 35.2223L34.4498 35.2228C34.433 35.2039 34.4066 35.2026 34.3889 35.2017L34.3175 35.2162C34.281 35.2414 34.244 35.2755 34.233 35.32C34.222 35.3645 34.2287 35.4098 34.2446 35.4466C34.2601 35.4924 34.2848 35.5297 34.3188 35.5584ZM34.3188 35.5584C34.2848 35.5297 34.2689 35.4929 34.2534 35.4471C34.2375 35.4103 34.2313 35.3559 34.2418 35.3204C34.2528 35.276 34.2894 35.2508 34.3255 35.2346C34.3621 35.2094 34.4154 35.203 34.441 35.2223L34.4498 35.2228L34.3668 35.1106C34.292 35.1373 34.2277 35.1878 34.1831 35.2545C34.1646 35.2716 34.1545 35.2981 34.1532 35.325C34.1506 35.3789 34.1568 35.4333 34.1811 35.4795C34.1966 35.5253 34.2209 35.5715 34.2633 35.6096C34.2876 35.6558 34.3304 35.685 34.3732 35.7141C34.416 35.7433 34.4592 35.7634 34.5209 35.7665C34.5467 35.7689 34.5727 35.7659 34.5974 35.7579C34.6221 35.7498 34.6449 35.7368 34.6646 35.7196C34.7027 35.685 34.7345 35.644 34.7588 35.5983L34.6762 35.4771L34.6586 35.4763L34.664 35.5485C34.6631 35.5665 34.6618 35.5935 34.6433 35.6105L34.5971 35.6533C34.5874 35.6708 34.5605 35.6784 34.5429 35.6776C34.4984 35.6844 34.4547 35.6732 34.4115 35.653L34.3188 35.5584Z" fill="#485654"/>
<path d="M27.8256 27.2217L31.1913 30.9458L34.6466 34.6473L35.0289 35.1525C35.1953 35.3679 35.394 35.6479 35.6293 35.9027C35.6704 35.9678 35.7246 35.9435 35.7758 35.982C35.9302 36.0798 36.09 36.2498 36.1981 36.3902L37.2246 37.6568C37.2824 37.7408 37.3067 37.787 37.2512 37.8382L36.6312 38.5997C36.5203 38.7022 36.3942 38.7499 36.3456 38.6575C36.096 38.1498 35.4351 37.3696 35.1986 36.7726C35.066 36.4059 34.9026 35.7585 34.7688 35.5987C34.6019 35.3924 34.1764 34.867 33.783 34.4062L33.6992 34.312C33.6833 34.2752 33.6581 34.2469 33.6241 34.2182C31.6554 31.9593 29.3823 29.226 27.7247 27.2977L27.8256 27.2217Z" fill="#6C301E" stroke="#351710" stroke-width="0.0178208" stroke-linejoin="round"/>
<path d="M34.83 34.6655C34.9358 34.6708 35.0094 34.6114 35.0918 34.5525C34.9843 34.5831 34.8767 34.6138 34.7819 34.5641L34.83 34.6655Z" fill="#8C959D" stroke="#485654" stroke-width="0.00891038"/>
<path d="M24.2653 24.4153L26.9564 26.9083C26.9812 26.9455 27.0081 26.9379 27.0358 26.9122L27.3019 26.7094L27.3045 26.6555L27.1871 26.5236C27.1703 26.5048 27.1884 26.4967 27.1985 26.4702L27.254 26.4189C27.2808 26.4112 27.2981 26.4211 27.3148 26.4399L27.4318 26.5808C27.4935 26.5839 27.5439 26.6404 27.5492 26.7127C29.1617 28.4767 30.5535 30.0496 32.1584 31.7862L34.0582 33.8256C34.1244 33.9189 34.4248 34.105 34.6212 34.2498C34.6896 34.2982 34.7491 34.3462 34.7734 34.3924L34.9084 34.8944C34.9562 35.0048 35.1117 35.2646 35.1108 35.2826L34.7597 35.5982L33.8322 34.4806L33.7572 34.3868C33.8264 34.2986 33.9075 34.2208 33.9981 34.1557L34.062 34.1139C34.0717 34.0964 34.0377 34.0677 34.0209 34.0488C31.8033 31.6335 29.4025 28.9839 27.4554 26.8251C27.4265 26.8347 27.3951 26.8332 27.3673 26.8207L27.0982 27.0864C27.0422 27.1466 26.9893 27.144 26.9465 27.1149L24.2564 24.4149L24.2653 24.4153Z" fill="#B2B6BA" stroke="#485654" stroke-width="0.0178208"/>
<path d="M34.899 34.8759L34.8461 34.8733L34.8024 34.8621L34.7511 34.6435L34.6909 34.4244L34.7423 34.6431L34.7936 34.8617L34.8457 34.8823L34.899 34.8759Z" fill="#485654"/>
<path d="M34.272 34.6917C34.2428 34.6902 34.2202 34.6649 34.2217 34.6352C34.2231 34.6054 34.2479 34.5825 34.2772 34.5839C34.3064 34.5854 34.3289 34.6107 34.3275 34.6404C34.3261 34.6702 34.3012 34.6932 34.272 34.6917Z" stroke="#485654" stroke-width="0.0178208"/>
<path d="M34.5904 35.0496C34.5611 35.0482 34.5386 35.0228 34.54 34.9931C34.5415 34.9633 34.5663 34.9404 34.5955 34.9418C34.6247 34.9433 34.6473 34.9686 34.6458 34.9984C34.6444 35.0281 34.6196 35.0511 34.5904 35.0496Z" stroke="#485654" stroke-width="0.0178208"/>
<path d="M34.0531 34.1135C34.1128 34.0741 34.1683 34.0286 34.2188 33.9777C34.1591 34.017 34.1036 34.0625 34.0531 34.1135Z" fill="#485654"/>
<path d="M28.9295 28.15L28.6058 28.449L28.5554 28.3925L28.8787 28.1025L28.9291 28.159L28.9295 28.15Z" fill="#8C959D" stroke="#485654" stroke-width="0.00891038"/>
<path d="M27.9423 37.8845C27.0883 37.6761 26.1953 37.7041 25.3555 37.9654C26.7946 38.6848 27.9599 38.3791 27.9335 37.8755L27.9423 37.8845ZM35.7999 38.1812C36.4885 37.8845 38.166 38.1183 38.369 38.2712C36.9388 38.9816 35.7646 38.6758 35.7911 38.1812H35.7999Z" fill="#67923D" stroke="#24420E" stroke-width="0.0178207"/>
<path d="M27.9246 37.8935C27.9511 38.3881 26.7946 38.6939 25.3555 37.9744C26.7063 38.0644 27.8099 38.0104 27.9158 37.8845L27.9246 37.8935ZM35.7999 38.1903C35.7822 38.6849 36.9388 38.9906 38.3779 38.2712C37.0271 38.3611 35.9235 38.3072 35.8087 38.1813L35.7999 38.1903Z" fill="#406325" stroke="#24420E" stroke-width="0.0178207"/>
<path d="M34.5214 37.3989C32.7434 34.8887 30.4509 32.8022 27.8027 31.2838C28.1117 31.2659 28.8092 31.6346 29.1006 31.8234C31.2106 33.2083 33.0117 35.0428 34.8922 37.2011C34.7863 37.309 34.7156 37.3809 34.592 37.4708L34.5214 37.3989Z" fill="#B2B6BA" stroke="#485654" stroke-width="0.0178207"/>
<path d="M34.7059 37.3809L34.5646 37.4888C32.534 34.827 29.7088 32.282 27.793 31.2838C30.4504 32.5248 32.6841 35.0338 34.6794 37.3629H34.6882L34.7059 37.3809Z" fill="#8C959D"/>
<path d="M34.7059 37.3809L34.5646 37.4889C33.6264 36.2615 32.5867 35.1182 31.4569 34.0716C30.6122 33.2818 29.7154 32.5516 28.773 31.8864C28.4551 31.6705 28.1285 31.4637 27.793 31.2839V31.2659C28.4993 31.5986 29.1526 32.0033 29.7794 32.4619C30.3974 32.9115 30.9801 33.4241 31.5452 33.9547C32.1032 34.4892 32.6422 35.0442 33.1609 35.6184C33.6906 36.1939 34.185 36.7874 34.6971 37.3719L34.7059 37.3809ZM34.7059 37.3809C34.1938 36.7874 33.6906 36.2119 33.1609 35.6363C32.6424 35.0619 32.1035 34.5069 31.5452 33.9727C30.9801 33.4421 30.3974 32.9385 29.7794 32.4799C29.1614 32.0303 28.4993 31.6166 27.8018 31.2928V31.2749C28.4676 31.6599 29.1077 32.0895 29.7176 32.5608C30.9337 33.5064 32.0626 34.5629 33.0902 35.7173C33.6085 36.2897 34.1034 36.8837 34.5735 37.4978L34.7059 37.3809Z" fill="#485654"/>
<path d="M35.3156 36.9493C35.1391 37.0033 34.989 37.0662 34.8477 37.1562C34.8301 37.2821 34.6711 37.426 34.5387 37.4529L34.4857 37.381H34.4681L34.4151 37.408C34.3621 37.408 34.3003 37.426 34.2738 37.4979C34.2385 37.5878 34.3003 37.7047 34.3798 37.7767C34.4681 37.8396 34.5034 37.8666 34.5917 37.8666C34.6888 37.8396 34.7418 37.7497 34.7683 37.7227C35.0949 38.1274 35.3421 38.3522 35.7571 38.6759C35.9425 38.6759 36.0396 38.559 35.9778 38.4242C35.9601 38.3792 35.9072 38.3522 35.863 38.3702V38.3252C36.0749 38.1274 36.172 37.8756 35.9425 37.4439C35.7482 37.0842 35.5275 36.9583 35.3245 36.9583H35.3156V36.9493ZM35.863 37.363C35.9072 37.426 35.9248 37.4889 35.9513 37.5429C36.0926 37.8126 35.9778 38.1454 35.7482 38.2443H35.7306C35.7659 38.1813 35.66 38.0465 35.607 38.0914C35.6335 38.0285 35.5452 37.9116 35.4746 37.9385C35.5099 37.8756 35.4304 37.7677 35.351 37.8037C35.3863 37.7407 35.3245 37.6418 35.2362 37.6598C35.2627 37.5878 35.2009 37.4979 35.1214 37.5159C35.1214 37.4439 35.1037 37.408 35.0773 37.381C35.1655 37.309 35.2803 37.1921 35.3774 37.1382C35.6158 37.0303 35.7659 37.2281 35.863 37.363Z" fill="#FAB81C" stroke="#6C301E" stroke-width="0.0178207"/>
<path d="M35.9687 37.6508C35.9245 37.6238 35.898 37.5788 35.9157 37.5519C35.9333 37.5159 35.9775 37.5069 36.0216 37.5339C36.0658 37.5519 36.0923 37.5968 36.0834 37.6238C36.0658 37.6598 36.0128 37.6688 35.9687 37.6508Z" fill="#FAB81C" stroke="#6C301E" stroke-width="0.00891037"/>
<path d="M35.9433 37.5608C35.8991 37.5338 35.8726 37.4889 35.8903 37.4529C35.908 37.4259 35.9521 37.4169 35.9962 37.4439C36.0404 37.4619 36.0669 37.5069 36.058 37.5338C36.0404 37.5698 35.9874 37.5788 35.9433 37.5608Z" fill="#FAB81C" stroke="#6C301E" stroke-width="0.00891037"/>
<path d="M35.8886 37.4529C35.8444 37.4349 35.818 37.39 35.8356 37.363C35.8533 37.327 35.8974 37.318 35.9415 37.336C35.9857 37.363 36.0122 37.408 35.9945 37.4349C35.9857 37.4709 35.9327 37.4799 35.8886 37.4529Z" fill="#FAB81C" stroke="#6C301E" stroke-width="0.00891037"/>
<path d="M35.8183 37.363C35.7741 37.336 35.7476 37.291 35.7653 37.264C35.783 37.2371 35.8271 37.2281 35.8712 37.2461C35.9154 37.273 35.9419 37.318 35.933 37.345C35.9154 37.372 35.8624 37.3899 35.8183 37.363Z" fill="#FAB81C" stroke="#6C301E" stroke-width="0.00891037"/>
<path d="M35.7315 37.2731C35.6785 37.2551 35.6608 37.2011 35.6785 37.1831V37.1651C35.6962 37.1741 35.7403 37.1831 35.7315 37.1562C35.7315 37.1382 35.7226 37.1292 35.7315 37.1382L35.7844 37.1562C35.8286 37.1831 35.8551 37.2281 35.8374 37.2551C35.8286 37.291 35.7756 37.3 35.7315 37.2731Z" fill="#FAB81C" stroke="#6C301E" stroke-width="0.00891037"/>
<path d="M34.7676 37.7227C34.8294 37.5608 34.9442 37.417 35.0766 37.381L34.7676 37.7227ZM34.7852 37.7497C34.9 37.7677 35.0766 37.6328 35.1207 37.5159L34.7852 37.7497ZM34.8912 37.8756C35.0324 37.9116 35.1825 37.7677 35.2443 37.6598L34.8912 37.8756ZM35.0236 38.0195C35.2002 38.0195 35.2973 37.9026 35.3503 37.8036L35.0236 38.0195ZM35.156 38.1544C35.3061 38.1544 35.4386 38.0375 35.4739 37.9385L35.156 38.1544ZM35.2796 38.2803C35.4474 38.2803 35.5533 38.1993 35.6063 38.1004L35.2796 38.2803ZM35.4297 38.4062C35.5798 38.4151 35.6946 38.3252 35.7299 38.2443L35.4297 38.4062ZM35.5887 38.541C35.7299 38.541 35.827 38.4511 35.8623 38.3612L35.5887 38.541Z" fill="#FAB81C"/>
<path d="M34.7676 37.7227C34.8068 37.609 34.8773 37.5091 34.9706 37.4349C34.9971 37.408 35.0324 37.39 35.0766 37.381C35.0385 37.3928 35.0027 37.411 34.9706 37.4349C34.9378 37.4613 34.9082 37.4914 34.8824 37.5249C34.8339 37.5841 34.7952 37.6509 34.7676 37.7227ZM34.7852 37.7497C34.8206 37.7497 34.8559 37.7497 34.8912 37.7317L34.9795 37.6777L35.0678 37.6058L35.1207 37.5159C35.1122 37.5505 35.0938 37.5818 35.0678 37.6058C35.0193 37.6612 34.9589 37.7043 34.8912 37.7317C34.8559 37.7497 34.8206 37.7587 34.7852 37.7497ZM34.8912 37.8756H34.9971L35.0854 37.8216C35.1467 37.7798 35.198 37.7244 35.2355 37.6598L35.1737 37.7497L35.0942 37.8306L35.006 37.8756H34.8912ZM35.0236 38.0195C35.0589 38.0195 35.0942 38.0195 35.1207 38.0015L35.209 37.9565L35.2973 37.8846L35.3503 37.7946C35.3245 37.8642 35.2783 37.9239 35.2178 37.9655L35.1296 38.0105L35.0236 38.0195ZM35.156 38.1544C35.2267 38.1544 35.2885 38.1274 35.3414 38.0824C35.3951 38.0446 35.4403 37.9955 35.4739 37.9385C35.465 37.9655 35.4474 38.0015 35.4209 38.0285L35.3503 38.0914L35.262 38.1454C35.2276 38.1556 35.1916 38.1587 35.156 38.1544ZM35.2796 38.2803C35.315 38.2803 35.3503 38.2803 35.3768 38.2623C35.442 38.2475 35.5026 38.2167 35.5533 38.1723L35.6063 38.0914L35.5533 38.1813C35.5269 38.1993 35.5004 38.2263 35.4651 38.2353C35.4121 38.2713 35.3503 38.2803 35.2885 38.2803H35.2796ZM35.4297 38.4062C35.4912 38.4053 35.5517 38.3899 35.6063 38.3612L35.6769 38.3162C35.6946 38.2893 35.7211 38.2713 35.7299 38.2443C35.7299 38.2713 35.7034 38.2982 35.6858 38.3162C35.6513 38.3508 35.6095 38.3768 35.5636 38.3924C35.5177 38.408 35.4689 38.4127 35.4209 38.4062H35.4297ZM35.5887 38.541L35.6769 38.5321L35.7476 38.4961L35.8094 38.4421L35.8623 38.3702C35.8414 38.4253 35.8032 38.4718 35.7538 38.5027C35.7044 38.5335 35.6463 38.547 35.5887 38.541Z" fill="#6C301E"/>
<path d="M29.1695 37.1636C31.0906 34.7652 33.5005 32.8208 36.2324 31.4651C35.925 31.4285 35.2073 31.7544 34.9054 31.9253C32.7184 33.1803 30.8137 34.9028 28.8108 36.9437C28.9103 37.0578 28.9766 37.1339 29.0948 37.2311L29.1695 37.1636Z" fill="#B2B6BA" stroke="#485654" stroke-width="0.0178208"/>
<path d="M28.9845 37.1343L29.1192 37.2506C31.3012 34.7161 34.2696 32.3463 36.2402 31.4656C33.5152 32.5439 31.1394 34.9135 29.012 37.118L29.0032 37.1174L28.9845 37.1343Z" fill="#8C959D"/>
<path d="M28.9854 37.1343L29.1201 37.2506C30.1282 36.0821 31.2326 35.0037 32.4213 34.0271C33.3106 33.2897 34.2482 32.615 35.2278 32.0078C35.5576 31.8116 35.8958 31.6249 36.2411 31.4656L36.2422 31.4476C35.5178 31.7371 34.842 32.1016 34.1896 32.5216C33.5465 32.9331 32.935 33.4096 32.34 33.9051C31.7518 34.405 31.1815 34.9263 30.6303 35.4682C30.068 36.0107 29.5399 36.5733 28.9947 37.1259L28.9854 37.1343ZM28.9854 37.1343C29.5311 36.5728 30.067 36.0287 30.6293 35.4862C31.1802 34.944 31.7505 34.4226 32.339 33.923C32.9339 33.4275 33.5449 32.96 34.1885 32.5395C34.8316 32.128 35.5167 31.7551 36.2318 31.474L36.2329 31.4561C35.5458 31.8002 34.8819 32.1904 34.2455 32.624C32.9765 33.4945 31.7881 34.4809 30.6951 35.5712C30.1444 36.1113 29.6158 36.6744 29.1108 37.259L28.9854 37.1343Z" fill="#485654"/>
<path d="M28.403 36.6667C28.5761 36.7312 28.7223 36.8031 28.8581 36.9014C28.8684 37.0282 29.0186 37.1814 29.1493 37.2163L29.2063 37.1477L29.2239 37.1488L29.2753 37.1789C29.3281 37.1821 29.3888 37.2038 29.411 37.2772C29.441 37.3691 29.3726 37.4821 29.289 37.5491C29.1972 37.6066 29.1604 37.6314 29.0723 37.6261C28.9769 37.5933 28.9293 37.5003 28.9044 37.4718C28.5548 37.856 28.2949 38.0655 27.8618 38.3636C27.6767 38.3524 27.5866 38.2298 27.6562 38.0989C27.6764 38.0551 27.7308 38.0313 27.7739 38.052L27.7765 38.0071C27.5765 37.7968 27.4942 37.5396 27.7485 37.1225C27.9633 36.7752 28.191 36.6629 28.3937 36.6751L28.4025 36.6757L28.403 36.6667ZM27.8325 37.0466C27.7848 37.1067 27.7635 37.1685 27.7339 37.2208C27.5772 37.4815 27.6724 37.8206 27.8958 37.9332L27.9134 37.9343C27.8818 37.8693 27.9954 37.7411 28.0457 37.7891C28.0229 37.7247 28.1178 37.6133 28.1868 37.6445C28.1552 37.5796 28.2408 37.4766 28.318 37.5174C28.2864 37.4524 28.3539 37.3574 28.441 37.3807C28.4187 37.3072 28.4856 37.2212 28.5639 37.244C28.5681 37.1721 28.5878 37.1373 28.6158 37.112C28.5319 37.0348 28.4241 36.9112 28.3303 36.8515C28.0987 36.7293 27.9373 36.9178 27.8325 37.0466Z" fill="#FAB81C" stroke="#6C301E" stroke-width="0.0178208"/>
<path d="M27.7093 37.3274C27.7549 37.3032 27.784 37.2599 27.7679 37.2319C27.7524 37.1949 27.7088 37.1833 27.6632 37.2075C27.6181 37.2228 27.589 37.2661 27.5963 37.2936C27.6118 37.3305 27.6642 37.3427 27.7093 37.3274Z" fill="#FAB81C" stroke="#6C301E" stroke-width="0.00891038"/>
<path d="M27.7424 37.2393C27.7881 37.215 27.8171 37.1717 27.8016 37.1348C27.7855 37.1068 27.742 37.0951 27.6964 37.1194C27.6513 37.1347 27.6222 37.178 27.6294 37.2054C27.645 37.2424 27.6973 37.2546 27.7424 37.2393Z" fill="#FAB81C" stroke="#6C301E" stroke-width="0.00891038"/>
<path d="M27.8015 37.1347C27.8466 37.1194 27.8756 37.0761 27.8596 37.0481C27.844 37.0112 27.8005 36.9995 27.7554 37.0148C27.7098 37.0391 27.6807 37.0824 27.6967 37.1104C27.7035 37.1468 27.7558 37.159 27.8015 37.1347Z" fill="#FAB81C" stroke="#6C301E" stroke-width="0.00891038"/>
<path d="M27.8757 37.0493C27.9213 37.025 27.9503 36.9817 27.9343 36.9537C27.9182 36.9257 27.8747 36.9141 27.8296 36.9294C27.7839 36.9536 27.7549 36.9969 27.7621 37.0244C27.7782 37.0524 27.83 37.0735 27.8757 37.0493Z" fill="#FAB81C" stroke="#6C301E" stroke-width="0.00891038"/>
<path d="M27.9696 36.9648C28.0235 36.95 28.0443 36.8972 28.0277 36.8782L28.0287 36.8603C28.0106 36.8682 27.966 36.8745 27.9764 36.8481C27.9774 36.8301 27.9867 36.8217 27.9774 36.8301L27.9235 36.8449C27.8779 36.8691 27.8488 36.9124 27.8648 36.9404C27.8716 36.9769 27.9239 36.989 27.9696 36.9648Z" fill="#FAB81C" stroke="#6C301E" stroke-width="0.00891038"/>
<path d="M28.9039 37.4717C28.8517 37.3064 28.7455 37.1559 28.6154 37.1119L28.9039 37.4717ZM28.8847 37.4976C28.7691 37.5086 28.6007 37.3633 28.5634 37.2439L28.8847 37.4976ZM28.7716 37.6169C28.6285 37.6443 28.4871 37.4916 28.4317 37.3801L28.7716 37.6169ZM28.6311 37.7525C28.4548 37.7418 28.3647 37.6193 28.3175 37.5173L28.6311 37.7525ZM28.491 37.8792C28.3412 37.8701 28.2158 37.7454 28.1863 37.6445L28.491 37.8792ZM28.3603 37.9974C28.1929 37.9872 28.0918 37.9 28.0447 37.7981L28.3603 37.9974ZM28.2031 38.114C28.0528 38.1139 27.9435 38.0172 27.9129 37.9343L28.2031 38.114ZM28.0367 38.239C27.8956 38.2305 27.8039 38.1349 27.7739 38.043L28.0367 38.239Z" fill="#FAB81C"/>
<path d="M28.9039 37.4717C28.8714 37.3558 28.8068 37.2519 28.718 37.1722C28.6931 37.1437 28.6589 37.1236 28.6154 37.1119C28.6527 37.126 28.6874 37.1464 28.718 37.1722C28.7492 37.2005 28.777 37.2324 28.8009 37.2673C28.8458 37.3294 28.8806 37.3984 28.9039 37.4717ZM28.8847 37.4976C28.8495 37.4955 28.8142 37.4933 28.78 37.4733L28.695 37.4141L28.6111 37.3369L28.5634 37.2439C28.5699 37.2791 28.5865 37.3114 28.6111 37.3369C28.6562 37.3951 28.7141 37.4418 28.78 37.4733C28.8142 37.4933 28.849 37.5044 28.8847 37.4976ZM28.7716 37.6169L28.6659 37.6105L28.5809 37.5513C28.5222 37.5058 28.4742 37.4475 28.4405 37.3806L28.4969 37.4741L28.5716 37.5597L28.6571 37.6099L28.7716 37.6169ZM28.6311 37.7525C28.5958 37.7504 28.5606 37.7482 28.5352 37.7287L28.4497 37.6785L28.3657 37.6013L28.3181 37.5084C28.3397 37.5793 28.3824 37.6417 28.4403 37.6869L28.5258 37.7371L28.6311 37.7525ZM28.491 37.8792C28.4205 37.8749 28.3604 37.8442 28.3101 37.7962C28.2587 37.7551 28.2165 37.7035 28.1863 37.6445C28.1936 37.672 28.2091 37.709 28.2339 37.7375L28.3008 37.8046L28.3858 37.8638C28.4195 37.8761 28.4553 37.8813 28.491 37.8792ZM28.3603 37.9974C28.3251 37.9952 28.2898 37.9931 28.2644 37.9736C28.2001 37.9549 28.1414 37.9204 28.0934 37.8731L28.0452 37.7891L28.0928 37.8821C28.1182 37.9017 28.1431 37.9302 28.1778 37.9413C28.2286 37.9804 28.2898 37.9931 28.3515 37.9968L28.3603 37.9974ZM28.2031 38.114C28.1418 38.1094 28.0824 38.0904 28.0295 38.0584L27.9616 38.0093C27.9456 37.9813 27.9202 37.9617 27.9129 37.9343C27.9113 37.9612 27.9362 37.9897 27.9528 38.0088C27.9852 38.0453 28.0255 38.0738 28.0704 38.0922C28.1153 38.1105 28.1637 38.1181 28.212 38.1145L28.2031 38.114ZM28.0367 38.239L27.949 38.2247L27.8806 38.1846L27.8221 38.127L27.7734 38.0519C27.7911 38.1082 27.8265 38.1569 27.874 38.1907C27.9216 38.2245 27.9787 38.2415 28.0367 38.239Z" fill="#6C301E"/>
<path d="M25.7539 26.6076C26.4536 26.23 27.0464 25.6757 27.4755 24.9979C26.0983 25.3756 25.4714 26.2839 25.7539 26.6166V26.6076ZM38.6263 27.0303C38.3253 26.3234 37.851 25.7072 37.249 25.2407C37.4962 26.6076 38.3084 27.2911 38.6263 27.0393V27.0303Z" fill="#406325" stroke="#24420E" stroke-width="0.0178207"/>
<path d="M25.7536 26.6077C25.4623 26.2839 26.0891 25.3847 27.4664 25.007C26.4952 25.7623 25.7713 26.4638 25.7536 26.6077ZM38.6259 27.0303C38.2993 27.3001 37.5047 26.6167 37.2575 25.2588C37.8931 26.248 38.4935 27.0123 38.6259 27.0303Z" fill="#67923D" stroke="#24420E" stroke-width="0.0178207"/>
<path d="M29.5495 33.6309C29.5495 33.6309 29.0109 33.6939 28.852 32.9295C28.6931 32.1112 29.3199 32.0302 29.3199 32.0302C29.3199 32.0302 30.035 31.9493 30.4853 31.9403L30.6795 33.559L29.5495 33.6309Z" fill="url(#paint0_radial_10660_12272)" stroke="#999270" stroke-width="0.0178207"/>
<path d="M29.6207 33.3881C29.6207 33.3881 29.2675 33.4511 29.1969 32.8845C29.1439 32.4799 29.3911 32.4259 29.3911 32.4259L30.2034 32.5698V33.3072L29.6207 33.3881Z" fill="url(#paint1_radial_10660_12272)" stroke="#999270" stroke-width="0.0178207"/>
<path d="M29.3906 32.4259C29.3906 32.4259 29.9203 32.39 30.1852 32.354L30.3 32.8666L29.6731 32.9026C29.6731 32.9026 29.629 32.4439 29.3906 32.4259Z" fill="url(#paint2_radial_10660_12272)" stroke="#999270" stroke-width="0.0178207"/>
<path d="M29.2852 32.0393C29.2852 32.0393 29.9473 31.8684 30.0356 32.6148C30.0533 32.8127 29.9473 33.2623 29.6206 33.3882L30.8478 33.2533L30.7331 31.9044L30.3269 31.9404C30.3269 31.9404 29.4441 31.9674 29.2852 32.0303V32.0393Z" fill="url(#paint3_radial_10660_12272)" stroke="#999270" stroke-width="0.0178207"/>
<path d="M29.5492 33.631C29.5492 33.631 34.1314 33.3162 34.5993 33.3342C35.9942 32.5608 34.5993 29.5123 33.4251 27.8037C33.5575 27.417 30.7853 26.5537 29.5404 26.6346C29.3727 26.6346 29.2226 26.6526 29.0813 26.6616C28.4015 26.7335 28.3927 27.6238 28.6664 28.1903C28.9312 28.7299 31.3503 33.1364 29.6552 33.613L29.5492 33.631Z" fill="#F9F0AA" stroke="#999270" stroke-width="0.0178207"/>
<path d="M34.458 29.6022C34.149 28.9457 33.7782 28.3162 33.4251 27.8037C33.5575 27.417 30.7853 26.5537 29.5404 26.6346C29.3727 26.6346 29.2226 26.6526 29.0813 26.6616C28.4015 26.7335 28.3927 27.6238 28.6664 28.1903C28.7547 28.3522 29.046 28.9098 29.3638 29.6022" fill="url(#paint4_linear_10660_12272)"/>
<path d="M34.458 29.6022C34.149 28.9457 33.7782 28.3162 33.4251 27.8037C33.5575 27.417 30.7853 26.5537 29.5404 26.6346C29.3727 26.6346 29.2226 26.6526 29.0813 26.6616C28.4015 26.7335 28.3927 27.6238 28.6664 28.1903C28.7547 28.3522 29.046 28.9098 29.3638 29.6022" stroke="#999270" stroke-width="0.0178207"/>
<path d="M29.796 30.6543C30.2904 31.9673 30.5641 33.3522 29.6548 33.613L29.5488 33.6309C29.5488 33.6309 34.1398 33.3162 34.5989 33.3342C35.3581 32.9115 35.2875 31.8234 34.8814 30.6364" fill="url(#paint5_linear_10660_12272)"/>
<path d="M29.796 30.6543C30.2904 31.9673 30.5641 33.3522 29.6548 33.613L29.5488 33.6309C29.5488 33.6309 34.1398 33.3162 34.5989 33.3342C35.3581 32.9115 35.2875 31.8234 34.8814 30.6364" stroke="#999270" stroke-width="0.0178207"/>
<path d="M29.1255 26.9224C28.7988 26.9224 28.7105 27.2461 28.7193 27.444C28.7282 27.9835 29.1255 28.0015 29.1255 28.0015L29.6552 27.9746L29.9024 26.8774L29.1255 26.9224Z" fill="url(#paint6_radial_10660_12272)" stroke="#999270" stroke-width="0.0178207"/>
<path d="M29.125 26.9224L29.9019 26.8774L29.9902 27.6958L29.3016 27.7318C29.3016 27.7318 29.5223 27.0753 29.125 26.9224Z" fill="url(#paint7_linear_10660_12272)" stroke="#999270" stroke-width="0.0178207"/>
<path d="M33.4246 27.8037C34.0161 27.7137 34.0073 26.9044 33.6012 26.5717C32.2327 26.5177 30.4405 26.5627 29.1338 26.6616C29.2839 26.6616 29.6989 26.6976 29.743 27.2461C29.7521 27.365 29.7328 27.4844 29.6867 27.5941C29.6405 27.7037 29.569 27.8003 29.4781 27.8756C29.376 27.9537 29.2527 27.9977 29.125 28.0015H29.4428L29.7077 27.9655C31.5617 27.7227 33.4158 27.8037 33.4158 27.8037H33.4246Z" fill="url(#paint8_linear_10660_12272)" stroke="#999270" stroke-width="0.0178207"/>
<path d="M30.1064 29.0716C30.0887 29.0446 30.0711 29.0087 30.0358 28.9997C30.0181 28.9997 29.9828 28.9997 29.9916 28.9637H30.0623L30.2035 28.9457C30.2388 28.9547 30.23 28.9907 30.2035 28.9907C30.1594 28.9907 30.1859 29.0356 30.1947 29.0626L30.3095 29.3324C30.3183 29.3684 30.3448 29.3953 30.3713 29.3953L30.4684 29.3863C30.4949 29.3684 30.486 29.3324 30.486 29.2964C30.4772 29.2694 30.5302 29.2784 30.5302 29.2964L30.5655 29.4223C30.5655 29.4403 30.5478 29.4313 30.5302 29.4313L30.2653 29.4493C30.2388 29.4493 30.1947 29.4763 30.177 29.4493C30.177 29.4133 30.23 29.4313 30.23 29.4043L30.2035 29.3144L30.1064 29.0716ZM30.5302 29.0356C30.5214 29.0176 30.5037 28.9817 30.4684 28.9727C30.4507 28.9727 30.4154 28.9727 30.4154 28.9367C30.4331 28.9187 30.4596 28.9367 30.4772 28.9367L30.6273 28.9187C30.6538 28.9187 30.6626 28.9637 30.6273 28.9547C30.6008 28.9547 30.6008 28.9907 30.6096 29.0176L30.7421 29.3234C30.7421 29.3414 30.7597 29.3684 30.7862 29.3774C30.8039 29.3774 30.8392 29.3774 30.848 29.4043C30.848 29.4313 30.8127 29.4133 30.795 29.4133C30.7509 29.4133 30.7068 29.4133 30.6538 29.4313C30.6361 29.4313 30.6096 29.4313 30.6096 29.4043C30.6096 29.3774 30.6538 29.4043 30.6626 29.3684C30.6626 29.3414 30.645 29.3144 30.6273 29.2784L30.5302 29.0446V29.0356ZM30.9275 29.1076C30.9275 29.1256 30.9628 29.1076 30.9716 29.1076C30.9981 29.1076 31.0246 29.0986 31.0246 29.0716C31.0246 29.0266 30.9981 28.9817 30.9628 28.9637C30.9363 28.9367 30.901 28.9457 30.8657 28.9457L30.8745 28.9907L30.9275 29.1076ZM30.9804 29.2515C30.9981 29.2784 31.0069 29.3144 31.0334 29.3414C31.0511 29.3594 31.0864 29.3504 31.104 29.3414C31.1305 29.3414 31.1482 29.3144 31.1394 29.2964C31.1305 29.2335 31.0952 29.1795 31.0334 29.1615H30.9451L30.9628 29.2065L30.9804 29.2515ZM30.8039 29.0356C30.7862 29.0087 30.7774 28.9637 30.7421 28.9457C30.7244 28.9457 30.6891 28.9547 30.6803 28.9277C30.6803 28.9007 30.7332 28.9187 30.7509 28.9097C30.8304 28.9097 30.9098 28.8828 30.9804 28.9097C31.0422 28.9277 31.104 28.9817 31.1129 29.0536C31.1129 29.0896 31.0864 29.1166 31.0599 29.1256L31.104 29.1346C31.157 29.1525 31.2012 29.1885 31.2277 29.2425C31.2453 29.2784 31.2541 29.3234 31.2277 29.3594C31.1923 29.3953 31.1394 29.3953 31.104 29.3953C31.0334 29.3953 30.9716 29.3953 30.901 29.4133C30.8745 29.4133 30.8657 29.3684 30.901 29.3684C30.9275 29.3684 30.9275 29.3324 30.9186 29.3144L30.8039 29.0446V29.0356ZM31.4572 28.8648C31.4837 28.8648 31.4925 28.8917 31.5013 28.9097L31.5278 28.9907C31.5013 29.0087 31.4837 28.9727 31.4749 28.9547C31.4572 28.9367 31.4395 28.9097 31.4131 28.9187H31.3071C31.2895 28.9367 31.3071 28.9547 31.3159 28.9727L31.3689 29.0986C31.3866 29.0986 31.4219 29.0986 31.4395 29.0716C31.4395 29.0536 31.4131 29.0087 31.4572 29.0176C31.4837 29.0356 31.4749 29.0716 31.4925 29.0986L31.5367 29.1975C31.5102 29.2245 31.4925 29.1885 31.4837 29.1615C31.466 29.1346 31.4219 29.1346 31.3954 29.1346C31.3777 29.1346 31.3954 29.1525 31.3954 29.1615L31.4484 29.2964C31.466 29.3234 31.5102 29.3234 31.5367 29.3234C31.5631 29.3234 31.6073 29.3234 31.6249 29.2874C31.6426 29.2694 31.5985 29.2245 31.6249 29.2155C31.6603 29.2155 31.6603 29.2515 31.6691 29.2694C31.6691 29.2964 31.6867 29.3234 31.6956 29.3414C31.6956 29.3594 31.6691 29.3594 31.6603 29.3594L31.3954 29.3774C31.3601 29.3774 31.3159 29.3953 31.3071 29.3594C31.3071 29.3324 31.3689 29.3504 31.3601 29.3144L31.3248 29.2245L31.2277 28.9817C31.21 28.9547 31.1923 28.9187 31.157 28.9187C31.1394 28.9187 31.104 28.9187 31.1217 28.8828H31.21L31.4572 28.8648ZM31.6603 28.9817C31.6514 28.9547 31.6338 28.9187 31.5985 28.9007C31.5808 28.9007 31.5367 28.9007 31.5367 28.8648C31.5631 28.8468 31.5985 28.8648 31.6249 28.8648C31.6956 28.8648 31.7662 28.8378 31.8368 28.8648C31.9075 28.8738 31.9693 28.9457 31.9781 29.0266C31.9781 29.0626 31.9516 29.0896 31.9163 29.0986C31.8898 29.0986 31.934 29.1076 31.9428 29.1166C32.0046 29.1435 32.0311 29.1975 32.0664 29.2515C32.0752 29.2694 32.1105 29.3144 32.1194 29.2694C32.1194 29.2245 32.1723 29.2694 32.1635 29.2964C32.1635 29.3324 32.1282 29.3504 32.1017 29.3504C32.0664 29.3504 32.0222 29.3324 32.0046 29.2964C31.9693 29.2425 31.9428 29.1795 31.8898 29.1435C31.8807 29.1343 31.8694 29.1277 31.8569 29.1246C31.8445 29.1214 31.8314 29.1217 31.8192 29.1256V29.1705L31.8722 29.2784C31.8898 29.3054 31.9251 29.3054 31.9604 29.3054C31.9869 29.3144 31.9781 29.3594 31.9428 29.3504H31.7927C31.7662 29.3684 31.7132 29.3504 31.7309 29.3234C31.7574 29.3234 31.7927 29.3054 31.775 29.2784L31.6867 29.0446L31.6603 28.9817ZM31.7839 29.0716C31.8015 29.0896 31.8368 29.0716 31.8633 29.0716C31.8898 29.0716 31.8898 29.0266 31.881 29.0087C31.8722 28.9637 31.8457 28.9187 31.8015 28.9007C31.7839 28.9007 31.7309 28.8828 31.7221 28.9097L31.7839 29.0536V29.0716ZM32.4195 29.2155C32.4284 29.2425 32.446 29.2694 32.4725 29.2784C32.4902 29.2784 32.5255 29.2784 32.5343 29.3054C32.5343 29.3324 32.499 29.3144 32.4813 29.3234H32.3401C32.3136 29.3324 32.2871 29.3234 32.2871 29.2964C32.3048 29.2784 32.3489 29.2964 32.3489 29.2604L32.3048 29.1615L32.2076 28.9007C32.1988 28.8738 32.1635 28.8738 32.1458 28.8738C32.1194 28.8738 32.084 28.8738 32.084 28.9097C32.084 28.9367 32.1017 28.9637 32.084 28.9817C32.0576 28.9817 32.0487 28.9547 32.0399 28.9367C32.0399 28.9097 32.0222 28.8828 32.0046 28.8468C32.0046 28.8288 32.0399 28.8378 32.0487 28.8378L32.4195 28.8198C32.446 28.8198 32.4637 28.8378 32.4637 28.8648L32.499 28.9547C32.4902 28.9817 32.4548 28.9547 32.446 28.9277C32.4372 28.9007 32.4019 28.8648 32.3666 28.8648C32.3489 28.8648 32.3136 28.8648 32.2959 28.8828L32.3136 28.9457L32.4195 29.2155ZM32.755 29.1346C32.7374 29.1346 32.7462 29.1615 32.7462 29.1705V29.2425C32.755 29.2784 32.7903 29.2694 32.8168 29.2784C32.8345 29.2784 32.8257 29.3234 32.7992 29.3144H32.6932C32.6667 29.3234 32.6226 29.3054 32.6491 29.2784C32.6667 29.2784 32.6844 29.2694 32.6932 29.2515V28.8018C32.7109 28.7748 32.7374 28.8018 32.7462 28.8198L33.064 29.2245C33.0817 29.2425 33.1082 29.2604 33.1347 29.2604C33.1611 29.2604 33.17 29.3054 33.1347 29.2964H33.0022C32.9846 29.2964 32.9581 29.3144 32.9404 29.2964C32.9228 29.2874 32.9404 29.2604 32.9581 29.2604C32.9846 29.2604 32.9581 29.2245 32.9493 29.2065L32.8963 29.1346H32.755ZM32.8521 29.0896C32.8698 29.0896 32.8521 29.0806 32.8521 29.0716L32.7374 28.9187V29.0986H32.8521V29.0896ZM33.1258 28.9277C33.117 28.8917 33.0993 28.8378 33.0552 28.8378C33.0287 28.8378 32.9934 28.8198 33.0111 28.8018H33.1611C33.2229 28.7928 33.2848 28.7928 33.3377 28.8108C33.4702 28.8558 33.5761 28.9727 33.6026 29.1166C33.6026 29.1705 33.5938 29.2335 33.5496 29.2604C33.479 29.3054 33.3995 29.2964 33.3289 29.2874L33.2053 29.2964C33.1788 29.2964 33.17 29.2515 33.2053 29.2604C33.2406 29.2604 33.2406 29.2155 33.2229 29.1975L33.1258 28.9277ZM33.3024 29.1525C33.3112 29.1795 33.3201 29.2155 33.3466 29.2425H33.4348C33.479 29.2425 33.4966 29.1975 33.4966 29.1615C33.4929 29.0954 33.4748 29.0309 33.4437 28.9727C33.4084 28.9097 33.3554 28.8648 33.2848 28.8468C33.2555 28.8418 33.2257 28.8418 33.1965 28.8468C33.1876 28.8468 33.1965 28.8648 33.1965 28.8828L33.3024 29.1525ZM31.4395 30.2676C31.4395 30.2946 31.4749 30.3216 31.5102 30.3216C31.5278 30.3216 31.572 30.3216 31.572 30.3576C31.5543 30.3756 31.519 30.3576 31.5013 30.3576L31.3689 30.3755H31.2895C31.2718 30.3755 31.2718 30.3396 31.2983 30.3396C31.3248 30.3396 31.3513 30.3306 31.3513 30.3036L31.3336 30.2317L31.2277 29.9799C31.2277 29.9529 31.1923 29.9529 31.1659 29.9529C31.1482 29.9529 31.1129 29.9619 31.104 29.9349C31.104 29.9079 31.1482 29.9169 31.1659 29.8989L31.2541 29.872C31.2718 29.872 31.2806 29.8809 31.2806 29.8989L31.4395 30.2676ZM31.5013 29.863H31.6779C31.7132 29.863 31.6956 29.818 31.7132 29.818C31.7485 29.818 31.7485 29.863 31.7485 29.8809C31.7485 29.9169 31.7221 29.9439 31.6956 29.9349H31.5631L31.6073 30.0428L31.6603 30.0248C31.7485 30.0248 31.8545 30.0788 31.8898 30.1687C31.9075 30.2137 31.9163 30.2586 31.8898 30.3036C31.8545 30.3486 31.8015 30.3576 31.7485 30.3576C31.7044 30.3576 31.6603 30.3486 31.6249 30.3036C31.6161 30.2856 31.6161 30.2407 31.6426 30.2497C31.6779 30.2497 31.7044 30.2676 31.7044 30.3036C31.7132 30.3216 31.7485 30.3126 31.7662 30.3126C31.7927 30.3126 31.8192 30.2946 31.8192 30.2676C31.8192 30.2227 31.8015 30.1777 31.775 30.1417C31.7574 30.1058 31.7132 30.0788 31.6603 30.0788L31.5896 30.0878C31.5631 30.0878 31.5631 30.0608 31.5543 30.0428L31.4925 29.872L31.5102 29.863H31.5013ZM32.1105 29.9529C32.0929 29.9169 32.0752 29.872 32.0311 29.863C32.0134 29.863 31.9693 29.854 31.9958 29.827H32.137C32.1988 29.809 32.2694 29.818 32.3224 29.836C32.4548 29.8809 32.5608 29.9979 32.5873 30.1417C32.5873 30.1957 32.5785 30.2497 32.5255 30.2856C32.4637 30.3216 32.3842 30.3126 32.3136 30.3126L32.1988 30.3306C32.1723 30.3306 32.1635 30.2856 32.1988 30.2856C32.2253 30.2856 32.2253 30.2497 32.2165 30.2227L32.1105 29.9529ZM32.2871 30.1777C32.2959 30.2047 32.3136 30.2407 32.3401 30.2676H32.4284C32.4637 30.2586 32.4813 30.2137 32.4813 30.1777C32.4813 30.1148 32.4548 30.0518 32.4195 29.9889C32.3842 29.9259 32.3312 29.8809 32.2606 29.872C32.2314 29.8669 32.2015 29.8669 32.1723 29.872V29.9079L32.2871 30.1777ZM32.8521 29.791C32.8786 29.791 32.8875 29.818 32.8963 29.836C32.8963 29.863 32.9139 29.881 32.9228 29.9079C32.9051 29.9349 32.8786 29.9079 32.8698 29.8809C32.861 29.863 32.8433 29.836 32.8168 29.836H32.7021C32.6844 29.854 32.7021 29.8809 32.7021 29.8899L32.755 30.0158C32.7815 30.0158 32.808 30.0158 32.8257 29.9979C32.8433 29.9799 32.7992 29.9349 32.8433 29.9439C32.8698 29.9439 32.8698 29.9889 32.8786 30.0158L32.9228 30.1148C32.9139 30.1507 32.8786 30.1148 32.8698 30.0878C32.861 30.0608 32.8257 30.0608 32.7992 30.0608C32.7815 30.0608 32.7639 30.0608 32.7815 30.0788L32.8345 30.2137C32.8521 30.2497 32.8963 30.2407 32.9228 30.2407C32.9581 30.2407 32.9934 30.2407 33.0111 30.2137C33.0287 30.1957 32.9934 30.1597 33.0111 30.1417C33.0464 30.1417 33.0552 30.1687 33.0552 30.1867L33.0817 30.2766C33.0817 30.2856 33.0552 30.2766 33.0464 30.2766L32.7727 30.2946C32.7462 30.2946 32.7109 30.3126 32.6932 30.2856C32.6756 30.2497 32.7374 30.2676 32.7462 30.2407L32.7197 30.1597L32.6226 29.8989C32.6049 29.872 32.5873 29.845 32.552 29.836C32.5343 29.836 32.499 29.836 32.5166 29.8H32.6049L32.8521 29.791ZM30.4507 31.077C30.4596 31.1219 30.5037 31.1399 30.539 31.1489C30.6096 31.1669 30.6891 31.1939 30.7332 31.2478C30.7597 31.2838 30.7774 31.3288 30.7774 31.3737C30.7774 31.4187 30.7332 31.4547 30.6891 31.4637C30.645 31.4817 30.592 31.4727 30.539 31.4547C30.5214 31.4457 30.5302 31.4907 30.4949 31.4817C30.4772 31.4637 30.486 31.4277 30.4772 31.4007C30.4672 31.3701 30.4554 31.34 30.4419 31.3108C30.4419 31.2838 30.4772 31.3108 30.486 31.3288C30.5125 31.3827 30.5655 31.4187 30.6273 31.4277C30.6626 31.4277 30.6979 31.4097 30.6979 31.3737C30.6979 31.3288 30.6626 31.2838 30.6273 31.2658C30.5655 31.2389 30.5037 31.2299 30.4507 31.1939C30.4255 31.1792 30.4043 31.1583 30.3889 31.1332C30.3735 31.1081 30.3644 31.0795 30.3624 31.05C30.3624 31.014 30.3978 30.9781 30.4331 30.9691C30.4772 30.9511 30.5214 30.9511 30.5743 30.9691C30.592 30.9691 30.6008 30.9421 30.6273 30.9601C30.6273 30.9781 30.6273 30.9961 30.645 31.014L30.6714 31.095C30.6538 31.113 30.6273 31.095 30.6273 31.077C30.6008 31.041 30.5832 31.005 30.539 31.005C30.5037 31.005 30.4684 31.005 30.4507 31.032V31.077ZM31.0334 30.9241C31.0687 30.9241 31.0687 30.9511 31.0776 30.9691L31.0952 31.041C31.0952 31.068 31.0599 31.041 31.0511 31.023C31.0422 31.005 31.0246 30.9781 30.9893 30.9781H30.8833C30.8657 30.9961 30.8833 31.023 30.8833 31.032L30.9275 31.1579C30.954 31.1579 30.9804 31.1579 30.9981 31.1399C31.0158 31.1219 30.9804 31.086 31.0069 31.077C31.0422 31.077 31.0422 31.1219 31.0511 31.1399C31.0511 31.1759 31.0776 31.2119 31.0864 31.2568C31.0776 31.2838 31.0422 31.2568 31.0422 31.2299C31.0334 31.2029 30.9981 31.1939 30.9716 31.2029C30.954 31.2029 30.9363 31.2029 30.9451 31.2209L30.9981 31.3558C31.0069 31.3827 31.0334 31.3827 31.0599 31.3827C31.0952 31.3827 31.1394 31.3827 31.1659 31.3558C31.1835 31.3378 31.1659 31.3018 31.1659 31.2838C31.1923 31.2658 31.2188 31.2838 31.2188 31.3108L31.2365 31.4007C31.2365 31.4187 31.21 31.4187 31.2012 31.4187L30.9363 31.4367C30.901 31.4367 30.8657 31.4637 30.848 31.4367C30.848 31.4007 30.8922 31.4097 30.901 31.3827C30.901 31.3648 30.901 31.3378 30.8833 31.3108L30.795 31.041C30.795 31.014 30.7686 30.9871 30.7332 30.9871C30.7156 30.9871 30.6803 30.9781 30.6979 30.9511H30.7862L31.0334 30.9241ZM31.4042 31.3018C31.4131 31.3288 31.4307 31.3558 31.4572 31.3648C31.4837 31.3648 31.519 31.3558 31.5278 31.3827C31.5278 31.4187 31.4837 31.4007 31.466 31.4007C31.4131 31.4007 31.3777 31.4007 31.3248 31.4187C31.3071 31.4187 31.2806 31.4187 31.2718 31.4007C31.2718 31.3648 31.3159 31.3827 31.3248 31.3648L31.3159 31.2928L31.2277 31.023C31.21 30.9961 31.2012 30.9601 31.1659 30.9601C31.1482 30.9601 31.1129 30.9601 31.1217 30.9241C31.1305 30.9061 31.157 30.9241 31.1835 30.9241C31.2453 30.9241 31.3071 30.8971 31.3777 30.9061C31.4101 30.9083 31.4412 30.9196 31.4676 30.9386C31.4941 30.9577 31.5149 30.9838 31.5278 31.014C31.5455 31.05 31.5455 31.104 31.5278 31.1309C31.4837 31.1669 31.4307 31.1759 31.3777 31.1849C31.3601 31.1849 31.3777 31.2029 31.3777 31.2119L31.4042 31.3018ZM31.3513 31.1399H31.4131C31.4395 31.1309 31.4572 31.104 31.4484 31.077C31.4484 31.032 31.4307 30.9961 31.4042 30.9691C31.3777 30.9421 31.3336 30.9421 31.3071 30.9511C31.2895 30.9601 31.3071 30.9781 31.3071 30.996L31.3513 31.1399ZM31.8986 31.2748C31.8986 31.2928 31.9163 31.3288 31.9428 31.3288C31.9604 31.3288 32.0046 31.3288 32.0046 31.3558C32.0046 31.3827 31.9604 31.3737 31.9428 31.3737L31.8015 31.3827C31.7839 31.3827 31.7574 31.3827 31.7574 31.3558C31.775 31.3378 31.8192 31.3558 31.8192 31.3198L31.7927 31.2119L31.7044 30.9511C31.7044 30.9241 31.6691 30.9331 31.6426 30.9331C31.6249 30.9331 31.5896 30.9331 31.5808 30.9601V31.032C31.5631 31.05 31.5367 31.032 31.5455 31.005L31.5102 30.9151C31.5102 30.8881 31.5367 30.8971 31.5543 30.8881L31.9163 30.8702C31.9428 30.8702 31.9604 30.8881 31.9604 30.9151L31.9958 31.005C31.9869 31.023 31.9516 31.005 31.9516 30.9871C31.934 30.9601 31.9075 30.9241 31.8633 30.9241C31.8457 30.9241 31.8192 30.9151 31.7927 30.9241L31.8103 30.9871L31.8986 31.2748ZM32.084 30.9781C32.0752 30.9511 32.0664 30.9151 32.0311 30.9061C32.0134 30.9061 31.9781 30.9061 31.9781 30.8702C31.9869 30.8522 32.0134 30.8702 32.0311 30.8702L32.19 30.8522C32.2165 30.8432 32.2341 30.8881 32.2076 30.8881C32.1812 30.8881 32.1547 30.9061 32.1635 30.9331L32.2076 31.077L32.2694 31.2748C32.2694 31.2928 32.2959 31.3108 32.3136 31.3108C32.3401 31.3108 32.3754 31.3108 32.3666 31.3468H32.3048L32.1635 31.3648C32.1458 31.3648 32.1105 31.3468 32.1282 31.3288C32.1458 31.3198 32.1812 31.3288 32.1812 31.2928L32.1547 31.1849L32.084 30.9781ZM32.5961 30.8342C32.6226 30.8342 32.6226 30.8612 32.6314 30.8791L32.6491 30.9511C32.6403 30.9781 32.6049 30.9511 32.6049 30.9331C32.5961 30.9061 32.5785 30.8791 32.5431 30.8791H32.446C32.4284 30.8971 32.446 30.9241 32.446 30.9421L32.4902 31.059C32.5078 31.059 32.5343 31.059 32.5608 31.041C32.5784 31.032 32.5431 30.9871 32.5696 30.9871C32.6049 30.9871 32.6049 31.023 32.6138 31.041C32.6138 31.086 32.6403 31.1219 32.6491 31.1579C32.6403 31.1849 32.6049 31.1579 32.6049 31.1399C32.5961 31.113 32.5608 31.104 32.5343 31.104C32.5255 31.104 32.4902 31.104 32.5078 31.1219L32.552 31.2568C32.5608 31.2838 32.5961 31.2928 32.6138 31.2928C32.6491 31.2928 32.6932 31.2928 32.7197 31.2658C32.7374 31.2478 32.7197 31.2119 32.7285 31.1849C32.755 31.1759 32.7727 31.1939 32.7727 31.2209L32.7903 31.3108C32.7903 31.3288 32.7727 31.3288 32.755 31.3288L32.4902 31.3378C32.4548 31.3378 32.4284 31.3558 32.4019 31.3378C32.393 31.3018 32.446 31.3108 32.4548 31.2928C32.4584 31.2809 32.4594 31.2683 32.4579 31.2559C32.4563 31.2435 32.4523 31.2316 32.446 31.2209L32.3577 30.9511C32.3577 30.9241 32.3312 30.8881 32.2959 30.8881C32.2783 30.8881 32.243 30.8702 32.2606 30.8522H32.3489L32.6049 30.8342H32.5961ZM32.7727 30.9241C32.7639 30.8881 32.7374 30.8612 32.7021 30.8612C32.6756 30.8702 32.6579 30.8072 32.7021 30.8252H32.8345L32.8963 30.9061L33.0905 31.1669C33.0729 31.1669 33.0905 31.1489 33.0817 31.1399L33.117 30.8162C33.1347 30.7982 33.1788 30.8162 33.2053 30.7982C33.2318 30.7982 33.2936 30.7982 33.2759 30.8342C33.2406 30.8342 33.2053 30.8522 33.2229 30.8881L33.3289 31.2119C33.3289 31.2478 33.3642 31.2658 33.3995 31.2568C33.426 31.2568 33.426 31.3108 33.3995 31.3018H33.2406C33.2141 31.3108 33.17 31.3108 33.1788 31.2748C33.2053 31.2748 33.2494 31.2568 33.2318 31.2209L33.1435 30.9331C33.1523 30.9421 33.1435 30.9601 33.1435 30.9691L33.1258 31.2389L33.117 31.3108C33.0905 31.3198 33.0817 31.3018 33.0729 31.2838L32.8168 30.9511L32.8345 30.9781C32.861 31.068 32.8786 31.1579 32.9139 31.2389C32.9139 31.2748 32.9581 31.2838 32.9846 31.2838C33.0199 31.3018 32.9934 31.3288 32.9669 31.3198H32.8345C32.808 31.3198 32.808 31.2838 32.8345 31.2838C32.8786 31.2838 32.8698 31.2389 32.8521 31.2119L32.7727 30.9241ZM33.5408 30.996C33.5408 31.014 33.5761 30.996 33.5849 30.996C33.6114 30.996 33.6379 30.996 33.6467 30.9601C33.6467 30.9241 33.6291 30.8702 33.6026 30.8522C33.5673 30.8252 33.532 30.8342 33.4966 30.8342V30.8791L33.5408 30.996ZM33.5849 31.1399L33.6202 31.2299C33.6467 31.2478 33.6732 31.2389 33.6997 31.2389C33.7174 31.2389 33.7438 31.2209 33.735 31.1939C33.735 31.1399 33.7085 31.077 33.6556 31.059H33.5673V31.086L33.5849 31.1399ZM33.4172 30.9241C33.4084 30.8881 33.3995 30.8522 33.3642 30.8342C33.3466 30.8342 33.3112 30.8342 33.3112 30.8072C33.3112 30.7802 33.3554 30.8072 33.373 30.7982C33.4613 30.7982 33.532 30.7802 33.6114 30.7982C33.6732 30.8162 33.7262 30.8791 33.7262 30.9421C33.7262 30.9781 33.6909 31.005 33.6644 31.023C33.6644 31.005 33.6997 31.023 33.7085 31.023C33.7527 31.041 33.7968 31.077 33.8145 31.1309C33.8321 31.1669 33.841 31.2119 33.8145 31.2478C33.7792 31.2838 33.7262 31.2838 33.682 31.2838L33.479 31.2928C33.4525 31.2928 33.4437 31.2478 33.479 31.2568C33.5055 31.2568 33.5143 31.2209 33.4966 31.1939L33.4172 30.9241ZM33.8674 30.9061C33.8674 30.8791 33.8498 30.8342 33.8145 30.8162C33.7968 30.8162 33.7615 30.8162 33.7615 30.7892C33.7792 30.7622 33.8145 30.7892 33.8498 30.7802H34.0264C34.097 30.7802 34.1588 30.8342 34.1765 30.9061C34.1853 30.9421 34.1765 30.9961 34.1411 31.014L34.1058 31.032C34.1588 31.05 34.2029 31.095 34.2294 31.1399L34.2736 31.2119C34.2912 31.2299 34.3001 31.2029 34.3001 31.1849C34.3354 31.1669 34.353 31.2119 34.3354 31.2389C34.3265 31.2748 34.2736 31.2838 34.2471 31.2748C34.2314 31.274 34.2163 31.2684 34.2037 31.2588C34.1912 31.2492 34.1817 31.236 34.1765 31.2209L34.0882 31.068C34.0617 31.059 34.0352 31.041 34.0087 31.059V31.095L34.0529 31.2029C34.0617 31.2299 34.097 31.2389 34.1235 31.2389C34.1588 31.2389 34.1588 31.2838 34.1235 31.2748H33.9646C33.9469 31.2748 33.9116 31.2928 33.9028 31.2748C33.8851 31.2299 33.9381 31.2478 33.9557 31.2299L33.9381 31.1489L33.8674 30.9061ZM33.9822 30.996C33.9911 31.023 34.0352 30.996 34.0529 30.996C34.0793 30.996 34.097 30.9691 34.0882 30.9511C34.0882 30.9061 34.0705 30.8612 34.044 30.8342C34.0175 30.8162 33.9822 30.8162 33.9557 30.8252C33.9381 30.8252 33.9469 30.8522 33.9557 30.8702L33.9822 30.9871V30.996ZM34.5914 30.7622C34.6179 30.7622 34.6179 30.7892 34.6267 30.8072C34.6267 30.8342 34.6444 30.8612 34.6532 30.8791C34.6355 30.9061 34.6091 30.8791 34.6002 30.8612C34.6002 30.8432 34.5826 30.8072 34.5473 30.8072H34.4325C34.4148 30.8162 34.4325 30.8432 34.4325 30.8612L34.4678 30.9871C34.4943 30.9871 34.5208 30.9871 34.5384 30.9691C34.5649 30.9601 34.5296 30.9241 34.5561 30.9061C34.5914 30.9061 34.5914 30.9421 34.5914 30.9691C34.5914 31.014 34.6179 31.05 34.6267 31.086C34.6179 31.113 34.5826 31.086 34.5826 31.068C34.5826 31.041 34.5473 31.023 34.5208 31.032C34.5119 31.032 34.4766 31.014 34.4855 31.032L34.5296 31.1849C34.5384 31.2119 34.5649 31.2119 34.5914 31.2119C34.6267 31.2119 34.6709 31.2119 34.6974 31.1939C34.715 31.1759 34.6974 31.1399 34.7062 31.1219C34.7327 31.104 34.7592 31.1219 34.7503 31.1489L34.768 31.2389C34.768 31.2568 34.7415 31.2568 34.7327 31.2568H34.459C34.4325 31.2568 34.406 31.2748 34.3883 31.2568C34.3619 31.2209 34.406 31.2299 34.4237 31.2119C34.4413 31.1939 34.4237 31.1669 34.4237 31.1489L34.3442 30.8702C34.3442 30.8432 34.3177 30.8072 34.2912 30.8072C34.2647 30.8072 34.2383 30.7982 34.2471 30.7712H34.3354L34.5914 30.7622ZM31.6956 31.9403C31.6956 31.9133 31.6779 31.8683 31.6426 31.8504C31.6161 31.8504 31.5808 31.8504 31.5985 31.8234L31.6867 31.8144C31.7574 31.8144 31.828 31.7964 31.8986 31.8144C32.0046 31.8324 32.1017 31.9223 32.1282 32.0212C32.1458 32.0932 32.1547 32.1651 32.1105 32.2281C32.0664 32.282 31.9869 32.3 31.9163 32.3C31.8545 32.3 31.8015 32.3 31.7485 32.318C31.7309 32.327 31.6956 32.309 31.7132 32.282C31.7397 32.282 31.775 32.273 31.7662 32.2371L31.7309 32.1022L31.6956 31.9403ZM31.8368 32.1651C31.8457 32.1921 31.8545 32.2281 31.8722 32.246C31.8986 32.264 31.934 32.255 31.9604 32.246C31.9958 32.246 32.0311 32.2101 32.0399 32.1651C32.0468 32.0971 32.0346 32.0285 32.0046 31.9673C31.9932 31.9394 31.9751 31.9149 31.9519 31.8961C31.9288 31.8772 31.9013 31.8646 31.8722 31.8594C31.8401 31.8533 31.8071 31.8533 31.775 31.8594C31.7662 31.8594 31.775 31.8773 31.775 31.8953L31.8368 32.1651ZM32.4637 31.7604C32.4902 31.7604 32.4902 31.7874 32.499 31.8054L32.5166 31.8863C32.499 31.9043 32.4725 31.8863 32.4725 31.8683C32.4637 31.8414 32.446 31.8144 32.4195 31.8144H32.3048C32.2871 31.8234 32.3048 31.8504 32.3048 31.8683C32.3048 31.9133 32.3224 31.9583 32.3312 31.9942C32.3577 31.9942 32.3842 31.9942 32.4019 31.9763C32.4195 31.9583 32.393 31.9223 32.4195 31.9133C32.4548 31.9133 32.446 31.9583 32.4548 31.9763L32.4813 32.0932C32.4813 32.1201 32.4372 32.0932 32.4372 32.0752C32.4372 32.0482 32.4019 32.0302 32.3754 32.0392C32.3666 32.0392 32.3312 32.0302 32.3489 32.0482C32.3489 32.0932 32.3666 32.1381 32.3842 32.1921C32.3842 32.2191 32.4195 32.2191 32.446 32.2191C32.4813 32.2191 32.5255 32.2191 32.552 32.1921C32.5696 32.1741 32.552 32.1381 32.5696 32.1201C32.5873 32.1022 32.6049 32.1291 32.6049 32.1561C32.6049 32.1831 32.6049 32.2101 32.6226 32.246C32.6138 32.264 32.5961 32.255 32.5785 32.255L32.3136 32.273C32.2871 32.273 32.2606 32.291 32.2341 32.273C32.2165 32.255 32.243 32.2371 32.2694 32.2371C32.2959 32.2281 32.2871 32.1921 32.2783 32.1741L32.2165 31.8863C32.2076 31.8594 32.19 31.8234 32.1635 31.8234C32.137 31.8234 32.1105 31.8144 32.1194 31.7874H32.2076L32.4637 31.7604ZM33.0375 32.1291C33.0375 32.1561 33.064 32.1831 33.0905 32.1921C33.1082 32.1921 33.1435 32.1921 33.1523 32.2101C33.1611 32.237 33.117 32.2281 33.0993 32.2281L32.9493 32.2371C32.9228 32.2371 32.8963 32.246 32.8786 32.2371C32.8521 32.2371 32.861 32.2011 32.8875 32.2011C32.9139 32.2011 32.9404 32.1921 32.9493 32.1651L32.9404 32.0932L32.8786 31.8414C32.8786 31.8144 32.8521 31.8144 32.8257 31.8144C32.808 31.8144 32.7727 31.8324 32.7639 31.8054C32.7639 31.7694 32.808 31.7784 32.8257 31.7694L32.9228 31.7335C32.9404 31.7335 32.9493 31.7424 32.9493 31.7604L33.0375 32.1291ZM33.3642 31.8324C33.3642 31.7964 33.3377 31.7604 33.3024 31.7604C33.2759 31.7604 33.2406 31.7604 33.2318 31.7874C33.2229 31.8234 33.2318 31.8594 33.2671 31.8773L33.3466 31.9223L33.3642 31.8683V31.8324ZM33.4348 32.0932C33.4348 32.0482 33.3819 32.0212 33.3466 32.0032C33.3289 32.0032 33.3112 31.9853 33.3024 31.9942C33.2887 32.0042 33.2781 32.018 33.2719 32.034C33.2656 32.0499 33.2639 32.0673 33.2671 32.0842C33.2847 32.1381 33.3112 32.1741 33.3554 32.1741C33.3907 32.1831 33.426 32.1741 33.4437 32.1381V32.0932H33.4348ZM33.5231 32.0752C33.5231 32.1201 33.5055 32.1651 33.4702 32.1921C33.426 32.2281 33.3554 32.2281 33.2936 32.2101C33.2406 32.2011 33.2053 32.1561 33.1876 32.1022C33.1876 32.0572 33.1965 32.0122 33.2318 31.9763C33.2406 31.9763 33.2759 31.9673 33.2494 31.9583C33.2053 31.9403 33.1611 31.9043 33.1611 31.8504C33.1435 31.8054 33.1611 31.7604 33.2053 31.7335C33.2444 31.713 33.2896 31.708 33.332 31.7197C33.3745 31.7313 33.4111 31.7587 33.4348 31.7964C33.4525 31.8324 33.4525 31.8773 33.4348 31.9043L33.3819 31.9493C33.426 31.9493 33.4702 31.9853 33.4878 32.0212C33.5055 32.0302 33.5143 32.0572 33.5143 32.0752H33.5231ZM33.8056 32.1291C33.8233 32.1291 33.8498 32.1112 33.8498 32.0932C33.8586 32.0752 33.8498 32.0302 33.8763 32.0392C33.9028 32.0392 33.8939 32.0662 33.9028 32.0932C33.9028 32.1291 33.9028 32.1651 33.8674 32.1921C33.8498 32.2101 33.8233 32.2011 33.7968 32.2011H33.6467C33.6291 32.2011 33.6026 32.2191 33.5849 32.2011C33.5673 32.1831 33.5849 32.1561 33.5849 32.1381C33.6026 32.0752 33.6379 32.0302 33.6732 31.9942C33.7085 31.9673 33.7438 31.9403 33.7438 31.8953C33.7438 31.8594 33.7438 31.8234 33.7262 31.7874C33.7199 31.7773 33.7117 31.7685 33.702 31.7616C33.6924 31.7547 33.6815 31.7499 33.67 31.7474C33.6585 31.7449 33.6466 31.7447 33.635 31.747C33.6234 31.7492 33.6124 31.7538 33.6026 31.7604C33.5761 31.7694 33.5584 31.8054 33.5761 31.8234C33.5938 31.8414 33.6291 31.8234 33.6379 31.8594C33.6556 31.8773 33.6379 31.9133 33.6114 31.9133C33.5761 31.9133 33.5408 31.8863 33.5231 31.8504C33.5143 31.8054 33.532 31.7514 33.5761 31.7245C33.6202 31.6975 33.6732 31.6975 33.7262 31.7065C33.7703 31.7245 33.8145 31.7604 33.8321 31.8144C33.841 31.8504 33.841 31.8953 33.8233 31.9313C33.788 31.9942 33.7174 32.0212 33.6732 32.0842C33.6644 32.0932 33.6556 32.1112 33.6644 32.1381C33.6644 32.1112 33.6997 32.1201 33.7085 32.1201L33.8056 32.1291ZM34.15 32.0932C34.15 32.1112 34.1765 32.1381 34.2029 32.1471C34.2206 32.1471 34.2559 32.1471 34.2647 32.1651C34.2824 32.1921 34.2383 32.1921 34.2206 32.1921H33.9822C33.9646 32.1831 33.9822 32.1471 33.9999 32.1561C34.0264 32.1561 34.0529 32.1471 34.0617 32.1201V32.0482L33.9999 31.7964C33.9999 31.7694 33.9734 31.7694 33.9557 31.7694C33.9293 31.7694 33.9028 31.7874 33.8939 31.7694C33.8763 31.7335 33.9204 31.7335 33.9381 31.7245L34.044 31.6885C34.0705 31.6885 34.0705 31.6975 34.0793 31.7155L34.15 32.0932Z" fill="#B07E09"/>
<path d="M31.632 24.7551L31.2965 25.1688C31.1905 25.6364 31.4554 25.9961 31.9763 26.3019C32.3913 26.5717 33.1682 26.6346 33.4154 26.4188L32.2058 25.2497L31.632 24.7551Z" fill="url(#paint9_radial_10660_12272)" stroke="#4C0505" stroke-width="0.0178207"/>
<path d="M34.087 36.8863L33.9104 36.6615C33.1431 37.7224 32.1579 38.6001 31.0234 39.2334C32.3566 38.8557 33.2306 37.8665 34.087 36.8863ZM32.7186 40.0967C33.2153 39.1067 33.7513 38.1377 34.3254 37.1921L34.14 36.9493C33.4867 38.0464 32.7274 39.3503 32.7274 40.0967H32.7186ZM36.409 29.8C36.3252 29.3973 36.1979 29.0052 36.0293 28.631C35.0827 27.0056 33.7538 25.6457 32.1623 24.6742V24.6472H32.1977L32.1888 24.6382H32.2241L32.2065 24.6112H32.2418L32.2153 24.5753H32.2506L32.2241 24.5483H32.2683L32.2418 24.5123H32.2771L32.2418 24.4853L32.2948 24.4763L32.2506 24.4494L32.2948 24.4404L32.2595 24.4134L32.3124 24.3954L32.2683 24.3684L32.3213 24.3414L32.2683 24.3055L32.3301 24.2875L32.2595 24.2605L32.3213 24.2245H32.2506L32.2948 24.1616H32.233L32.2595 24.1166H32.2065L32.233 24.0717L32.1712 24.0807L32.1977 24.0267L32.1447 24.0627L32.1623 23.9997L32.1005 24.0357L32.1094 23.9727L32.0564 24.0177L32.0652 23.9548L32.0211 23.9997V23.9368L31.9769 23.9907V23.9278L31.9416 23.9727L31.924 23.9188L31.8887 23.9727L31.8798 23.9098L31.8533 23.9727L31.8357 23.9098L31.8092 23.9727L31.7915 23.9188L31.7739 23.9727L31.7562 23.9188L31.7386 23.9907L31.7209 23.9278L31.6944 23.9997L31.6679 23.9368V24.0087L31.6326 23.9458V24.0177L31.5885 23.9637V24.0357L31.5532 23.9817V24.0447L31.5178 24.0177L31.5355 24.0807L31.4914 24.0537L31.509 24.1076L31.4737 24.0896L31.4825 24.1436H31.4472L31.4649 24.1796H31.4384L31.456 24.2155C31.424 24.3171 31.412 24.424 31.4207 24.5303C31.4207 24.5483 31.4737 24.5663 31.4825 24.5842C31.509 24.6202 31.5002 24.6382 31.5002 24.6382C31.3589 24.872 31.2353 25.0519 31.2265 25.3217C31.3324 25.1778 31.456 24.9979 31.615 24.9979C31.5355 25.1328 31.5002 25.5465 31.5885 25.6094L31.6591 25.4925C31.6591 25.5824 31.6679 25.6544 31.6944 25.6993C31.7209 25.6454 31.7474 25.5824 31.7827 25.5465C31.7827 25.6814 31.8004 25.7893 31.8357 25.8432C31.8798 25.7713 31.924 25.7353 31.9769 25.6993C31.9593 25.7803 31.9328 25.8522 31.9505 25.9422C32.0034 25.8522 32.0564 25.7893 32.1182 25.7173C32.0829 25.8612 32.1182 25.9691 32.1535 26.122C32.1888 25.9422 32.2065 25.9152 32.286 25.8432C32.2948 26.0141 32.2683 26.167 32.3036 26.2659C32.3742 26.113 32.4272 26.131 32.4802 26.0321C32.4625 26.176 32.436 26.3288 32.4802 26.4547C32.5059 26.3584 32.5656 26.2751 32.6479 26.2209C32.6479 26.4188 32.6921 26.3828 32.5773 26.5537C32.6303 26.5716 32.798 26.5177 32.8951 26.4727C32.851 26.5806 32.8598 26.6616 32.8157 26.7425C32.904 26.6885 32.9922 26.6076 33.0717 26.5267C33.0364 26.6526 32.9393 26.7785 32.9834 26.8954C33.0099 26.7785 33.0982 26.6885 33.1865 26.6706C33.1688 26.7335 33.16 26.8684 33.0717 26.9314C33.2836 26.9493 33.3719 26.8055 33.4778 26.6885C33.469 26.8055 33.4778 26.9044 33.6191 27.0752C33.5926 26.8594 33.6367 26.9044 33.7339 26.7785C33.7868 26.9673 33.8398 27.1742 34.034 27.318C33.9458 27.1112 33.9458 27.0033 33.9811 26.8774C34.0076 27.0123 34.1312 27.1742 34.1576 27.2911C34.1841 27.1562 34.2018 27.0213 34.2459 26.9314C34.3108 27.0922 34.3525 27.2619 34.3695 27.4349C34.4137 27.345 34.449 27.2551 34.4666 27.1652C36.2147 29.0087 36.6032 31.3648 34.6874 33.8558C35.376 33.3881 35.5526 32.6418 35.9322 32.0033C35.5614 32.8396 35.4025 33.7748 34.7403 34.4673C35.376 33.9097 35.5084 33.3971 35.8881 32.8576C35.4908 33.9817 34.9169 35.2137 34.14 36.3468L34.5638 36.8144L34.9169 36.1939C35.7468 34.809 37.0976 32.8216 36.4178 29.8H36.409Z" fill="#448127" stroke="#34541F" stroke-width="0.0178207"/>
<path d="M31.4032 24.3864C31.3149 24.4044 31.2796 24.4404 31.209 24.5123C31.2973 24.5303 31.3591 24.5393 31.4385 24.5393C31.4562 24.5393 31.465 24.5033 31.465 24.4853L31.4474 24.3954C31.4474 24.3774 31.3944 24.3864 31.3767 24.3954L31.4032 24.3864Z" fill="#EAC102" stroke="#A08307" stroke-width="0.0178207"/>
<path d="M31.209 24.5122C31.2719 24.4898 31.337 24.4748 31.4032 24.4673C31.3404 24.4898 31.2752 24.5049 31.209 24.5122Z" fill="#A08307"/>
<path d="M31.8011 24.4674C31.8401 24.4674 31.8717 24.4352 31.8717 24.3954C31.8717 24.3557 31.8401 24.3235 31.8011 24.3235C31.7621 24.3235 31.7305 24.3557 31.7305 24.3954C31.7305 24.4352 31.7621 24.4674 31.8011 24.4674Z" fill="black" stroke="black" stroke-width="0.00891037"/>
<path d="M31.8175 24.4224C31.8321 24.4224 31.844 24.4063 31.844 24.3864C31.844 24.3666 31.8321 24.3505 31.8175 24.3505C31.8029 24.3505 31.791 24.3666 31.791 24.3864C31.791 24.4063 31.8029 24.4224 31.8175 24.4224Z" fill="url(#paint10_radial_10660_12272)"/>
<path d="M32.7272 40.0698C32.8873 39.5308 33.1065 39.012 33.3806 38.523C33.5768 38.1499 33.7858 37.784 34.0074 37.4259L34.2369 37.0662L34.0162 37.4259C33.8039 37.7909 33.5979 38.1597 33.3982 38.532C33.14 39.0251 32.9158 39.536 32.7272 40.0608V40.0698ZM31.0586 39.2155C32.0902 38.7585 32.992 38.044 33.6807 37.1381C33.333 37.4739 33.0029 37.8281 32.6919 38.1993C32.2026 38.6223 31.6515 38.9652 31.0586 39.2155ZM34.3517 36.5806C34.4223 36.4907 34.4841 36.3828 34.5459 36.2838C34.7355 35.9861 34.9122 35.68 35.0757 35.3666C35.1993 35.1597 35.3052 34.9439 35.4112 34.7371L35.7378 34.1076L35.5877 34.4223L35.4288 34.7461C35.2148 35.1668 34.9881 35.5806 34.749 35.9871C34.6249 36.1906 34.4923 36.3886 34.3517 36.5806ZM34.8726 34.3234C35.1754 33.9584 35.4279 33.553 35.6231 33.1184C35.91 32.4633 36.089 31.7645 36.1528 31.05C36.1455 31.1698 36.1425 31.2898 36.144 31.4098C36.0696 32.0048 35.8965 32.5825 35.6319 33.1184C35.4325 33.5526 35.1771 33.9579 34.8726 34.3234Z" fill="#34541F"/>
<path d="M34.7305 33.8017C35.0393 33.4675 35.2981 33.0887 35.4986 32.6776C35.6463 32.371 35.776 32.0557 35.887 31.7334L35.9135 31.6525L35.94 31.5715L35.993 31.4097C36.0834 30.9532 36.0894 30.4835 36.0106 30.0248C36.0161 30.2567 36.0367 30.4881 36.0724 30.7172C36.0724 30.951 36.0548 31.1848 36.0106 31.4097C35.9842 31.4636 35.9753 31.5266 35.9577 31.5805L35.9312 31.6615L35.8959 31.7424C35.7742 32.0634 35.6447 32.3812 35.5074 32.6956C35.4101 32.9016 35.2979 33.1 35.1719 33.2891C35.0434 33.4785 34.8954 33.6533 34.7305 33.8107V33.8017Z" fill="#34541F"/>
<path d="M34.2109 36.4276C34.3257 36.2838 34.4228 36.1309 34.5288 35.978L34.6877 35.7532L34.8378 35.5284L35.1026 35.0428L35.3322 34.5482C35.4911 34.2154 35.6412 33.8827 35.7736 33.532C36.0377 32.8476 36.1955 32.1255 36.2415 31.3917C36.3159 30.6579 36.2377 29.9164 36.012 29.2155C36.2611 29.911 36.3458 30.6566 36.2592 31.3917C36.2124 32.1283 36.0546 32.8532 35.7913 33.541C35.6589 33.8827 35.5088 34.2154 35.3498 34.5482L35.1026 35.0428C35.0232 35.2136 34.9437 35.3755 34.8466 35.5284C34.8025 35.6183 34.7495 35.6812 34.6965 35.7622L34.5376 35.987L34.2198 36.4366L34.2109 36.4276Z" fill="#34541F"/>
<path d="M34.4583 36.7064C34.8737 36.0144 35.2682 35.3097 35.6414 34.5932C36.1806 33.5012 36.4446 32.2898 36.4095 31.068C36.4095 30.6633 36.3741 30.2586 36.3035 29.863H36.3123C36.3918 30.2586 36.4183 30.6723 36.4183 31.068C36.416 31.8791 36.3091 32.6863 36.1004 33.4691C35.9843 33.8585 35.8366 34.2375 35.659 34.6021C35.2828 35.3158 34.8853 36.0175 34.4671 36.7064H34.4583ZM32.0039 24.881H32.1275C32.2533 24.9011 32.3753 24.9406 32.4895 24.9979C32.7844 25.1577 33.0526 25.3641 33.2841 25.6094C33.0495 25.3726 32.7817 25.1726 32.4895 25.0159C32.3352 24.9463 32.1715 24.9008 32.0039 24.881Z" fill="#34541F"/>
<path d="M33.4515 25.8522C33.4515 25.8522 33.7164 26.0141 33.8665 26.2479C33.8665 26.2479 33.4515 26.167 33.1602 25.8342" fill="#448127"/>
<path d="M33.4525 25.8522C33.6216 25.9494 33.7666 26.0848 33.8763 26.2479L33.8851 26.2659H33.8675C33.7301 26.2341 33.5989 26.1794 33.479 26.104C33.3554 26.0321 33.2495 25.9421 33.1523 25.8342C33.2974 25.988 33.4758 26.105 33.6732 26.176L33.8675 26.2389V26.2569C33.8142 26.1724 33.7487 26.0966 33.6732 26.0321C33.6052 25.9655 33.5313 25.9053 33.4525 25.8522Z" fill="#34541F"/>
<path d="M32.8516 25.7712C32.8516 25.7712 33.4872 26.1849 33.5843 26.2209C33.5843 26.2209 33.4343 25.9061 33.1341 25.7712" fill="#448127"/>
<path d="M32.8516 25.7712L33.2135 25.996C33.3042 26.051 33.3954 26.105 33.4872 26.1579L33.5755 26.2118V26.2208C33.5285 26.1239 33.4659 26.0358 33.3901 25.96C33.3158 25.8829 33.2292 25.8191 33.1341 25.7712C33.2341 25.8109 33.3245 25.8723 33.3989 25.9511C33.4751 26.0298 33.5378 26.121 33.5843 26.2208L33.602 26.2388L33.5755 26.2298L33.3901 26.1219C33.2078 26.0064 33.0283 25.8864 32.8516 25.7622V25.7712Z" fill="#34541F"/>
<path d="M33.1068 25.5645C33.1068 25.5645 33.4335 25.7083 33.5129 25.9511C33.5129 25.9511 32.9126 25.6993 32.8066 25.5645" fill="#448127"/>
<path d="M33.1068 25.5645C33.1959 25.5994 33.2792 25.6479 33.354 25.7083L33.4511 25.8163L33.5218 25.9511V25.9691H33.5041C33.2926 25.8691 33.0864 25.758 32.8861 25.6364L32.8066 25.5645L32.8861 25.6274L32.9744 25.6814C33.1451 25.7884 33.3255 25.8787 33.5129 25.9511H33.5041C33.4865 25.9152 33.4688 25.8612 33.4335 25.8342C33.4113 25.7927 33.3813 25.756 33.3452 25.7263C33.2742 25.6604 33.1938 25.6059 33.1068 25.5645Z" fill="#34541F"/>
<path d="M32.6035 25.8252C32.6035 25.8252 33.1862 26.2479 33.3628 26.2479C33.3628 26.2479 33.1862 25.9511 32.886 25.8252" fill="#448127"/>
<path d="M32.6035 25.8252C32.8169 25.9617 33.0348 26.0907 33.2568 26.2119L33.3628 26.2389L33.354 26.2568C33.2987 26.1632 33.2303 26.0784 33.1509 26.0051C33.0712 25.9329 32.9821 25.8723 32.886 25.8252C33.0377 25.8854 33.1715 25.9846 33.2745 26.113L33.3628 26.2479L33.3804 26.2568H33.3628C33.3186 26.2568 33.2833 26.2479 33.248 26.2299L33.1597 26.1849C32.9617 26.0866 32.7751 25.9659 32.6035 25.8252Z" fill="#34541F"/>
<path d="M32.6035 25.9511C32.6035 25.9511 32.9037 26.2208 33.0803 26.2208C33.0803 26.2208 32.9037 25.9241 32.6035 25.7892" fill="#448127"/>
<path d="M32.6035 25.9511C32.7156 26.0348 32.8337 26.1099 32.9567 26.1759L33.0096 26.1939L33.0803 26.2119L33.0714 26.2209C33.0155 26.1304 32.9471 26.0487 32.8684 25.9781C32.7887 25.9059 32.6996 25.8453 32.6035 25.7982C32.7542 25.8559 32.8879 25.9519 32.992 26.077L33.0803 26.2119L33.0979 26.2299H33.0803C33.0312 26.228 32.9831 26.2158 32.939 26.1939C32.8561 26.1537 32.7788 26.1023 32.7095 26.041C32.6687 26.0184 32.6327 25.9879 32.6035 25.9511Z" fill="#34541F"/>
<path d="M32.4453 25.3666C32.4453 25.3666 33.081 25.8252 33.1516 26.077C33.1516 26.077 32.5866 25.8072 32.4806 25.6723" fill="#448127"/>
<path d="M32.4453 25.3666C32.6844 25.5421 32.9061 25.7409 33.1075 25.9601L33.1693 26.068V26.095L33.1516 26.086C32.946 25.9792 32.7456 25.8621 32.5513 25.7353L32.6395 25.7892C32.8078 25.8952 32.9851 25.9855 33.1693 26.059L33.1516 26.077L33.0898 25.9691C32.961 25.8016 32.8128 25.6506 32.6484 25.5195L32.4453 25.3666Z" fill="#34541F"/>
<path d="M28.9143 38.3252C28.3592 38.621 27.7397 38.7695 27.1133 38.7569C27.9962 38.0194 28.8525 38.0015 28.9143 38.3252ZM35.0768 38.7299C35.5359 39.1525 36.9309 39.4493 37.1516 39.3953C36.2157 38.4331 35.2004 38.3342 35.0768 38.7299Z" fill="#406325" stroke="#24420E" stroke-width="0.0178207"/>
<path d="M28.9143 38.3252C28.8525 37.9925 27.9873 38.0195 27.1133 38.7569C27.6888 38.5212 28.296 38.3757 28.9143 38.3252ZM35.0856 38.7209C35.2092 38.3252 36.2157 38.4241 37.1516 39.3953C36.4991 39.0686 35.803 38.8413 35.0856 38.7209Z" fill="#67923D" stroke="#24420E" stroke-width="0.0178207"/>
</g>
<defs>
<radialGradient id="paint0_radial_10660_12272" cx="0" cy="0" r="1" gradientUnits="userSpaceOnUse" gradientTransform="translate(29.1257 32.7497) scale(1.45674 1.48381)">
<stop offset="0.2" stop-color="#F9F0AA"/>
<stop offset="1" stop-color="#B07E09"/>
</radialGradient>
<radialGradient id="paint1_radial_10660_12272" cx="0" cy="0" r="1" gradientUnits="userSpaceOnUse" gradientTransform="translate(29.4971 33.1723) scale(0.962333 0.980208)">
<stop offset="0.2" stop-color="#F9F0AA"/>
<stop offset="1" stop-color="#B07E09"/>
</radialGradient>
<radialGradient id="paint2_radial_10660_12272" cx="0" cy="0" r="1" gradientUnits="userSpaceOnUse" gradientTransform="translate(29.7173 32.7767) scale(0.865219 0.88129)">
<stop offset="0.2" stop-color="#F9F0AA"/>
<stop offset="1" stop-color="#B07E09"/>
</radialGradient>
<radialGradient id="paint3_radial_10660_12272" cx="0" cy="0" r="1" gradientUnits="userSpaceOnUse" gradientTransform="translate(30.0974 32.6418) scale(1.5362 1.56474)">
<stop offset="0.2" stop-color="#F9F0AA"/>
<stop offset="1" stop-color="#B07E09"/>
</radialGradient>
<linearGradient id="paint4_linear_10660_12272" x1="31.4651" y1="28.3342" x2="31.3277" y2="25.8885" gradientUnits="userSpaceOnUse">
<stop offset="0.2" stop-color="#B07E09" stop-opacity="0"/>
<stop offset="1" stop-color="#B07E09"/>
</linearGradient>
<linearGradient id="paint5_linear_10660_12272" x1="32.2769" y1="31.7065" x2="32.4967" y2="34.3947" gradientUnits="userSpaceOnUse">
<stop offset="0.2" stop-color="#B07E09" stop-opacity="0"/>
<stop offset="1" stop-color="#B07E09"/>
</linearGradient>
<radialGradient id="paint6_radial_10660_12272" cx="0" cy="0" r="1" gradientUnits="userSpaceOnUse" gradientTransform="translate(29.0019 27.7228) scale(1.14774 1.16906)">
<stop offset="0.2" stop-color="#F9F0AA"/>
<stop offset="1" stop-color="#B07E09"/>
</radialGradient>
<linearGradient id="paint7_linear_10660_12272" x1="29.487" y1="27.462" x2="29.8421" y2="26.6664" gradientUnits="userSpaceOnUse">
<stop offset="0.2" stop-color="#F9F0AA"/>
<stop offset="1" stop-color="#B07E09"/>
</linearGradient>
<linearGradient id="paint8_linear_10660_12272" x1="31.4116" y1="26.3558" x2="31.6497" y2="29.3407" gradientUnits="userSpaceOnUse">
<stop offset="0.2" stop-color="#F9F0AA"/>
<stop offset="1" stop-color="#B07E09"/>
</linearGradient>
<radialGradient id="paint9_radial_10660_12272" cx="0" cy="0" r="1" gradientUnits="userSpaceOnUse" gradientTransform="translate(31.8174 24.3864) scale(0.0264862 0.0269783)">
<stop offset="0.3" stop-color="#A50A0A"/>
<stop offset="1" stop-color="#4C0505"/>
</radialGradient>
<radialGradient id="paint10_radial_10660_12272" cx="0" cy="0" r="1" gradientUnits="userSpaceOnUse" gradientTransform="translate(31.8162 24.3805) scale(0.0258792 0.0276113)">
<stop stop-color="white"/>
<stop offset="1" stop-color="white" stop-opacity="0"/>
</radialGradient>
<clipPath id="clip0_10660_12272">
<rect width="64" height="64" rx="32" fill="white"/>
</clipPath>
</defs>
</svg>
