<svg width="64" height="64" viewBox="0 0 64 64" fill="none" xmlns="http://www.w3.org/2000/svg">
<g clip-path="url(#clip0_10660_12444)">
<path d="M0 0H20V64H0V0Z" fill="#CE1126"/>
<path d="M20 0H64V32H20V0Z" fill="#FCD116"/>
<path d="M20 32H64V64H20V32Z" fill="#009E49"/>
<path d="M9.99609 24.8719L7.55919 32.372L11.3092 33.5904" fill="#000001"/>
<path d="M9.99609 24.8719L12.433 32.372L8.68299 33.5904" fill="#000001"/>
<path d="M17.4961 30.321H9.61009V34.264" fill="#000001"/>
<path d="M17.4961 30.321L11.1162 34.9563L8.79855 31.7664" fill="#000001"/>
<path d="M14.6328 39.1378L12.1959 31.6378L8.44589 32.8562" fill="#000001"/>
<path d="M14.6328 39.1378L8.2529 34.5025L10.5705 31.3126" fill="#000001"/>
<path d="M5.36133 39.1378L11.7412 34.5025L9.4236 31.3126" fill="#000001"/>
<path d="M5.36133 39.1378L7.79824 31.6378L11.5483 32.8562" fill="#000001"/>
<path d="M2.49609 30.321L8.876 34.9563L11.1936 31.7664" fill="#000001"/>
<path d="M2.49609 30.321H10.3821V34.264" fill="#000001"/>
</g>
<defs>
<clipPath id="clip0_10660_12444">
<rect width="64" height="64" rx="32" fill="white"/>
</clipPath>
</defs>
</svg>
