<svg width="64" height="64" viewBox="0 0 64 64" fill="none" xmlns="http://www.w3.org/2000/svg">
<g clip-path="url(#clip0_10660_12471)">
<path d="M0 0H64V64H0V0Z" fill="#D21034"/>
<path d="M0 0H64V32H0V0Z" fill="#00209F"/>
<path d="M21.9004 23.95H42.1004V40.025H21.9004V23.95Z" fill="white"/>
<path d="M36.0629 35.575L31.9379 35.7L27.8379 35.7374C27.8379 35.7374 25.7379 36.525 24.8754 36.7C24.0129 36.875 24.1254 37.1499 23.4629 37.2999C22.9254 37.4249 22.8629 37.4624 22.5504 37.4749C22.3629 37.4874 22.1379 37.6374 21.9004 37.7999V40.025H42.1004V37.9C41.8918 37.7936 41.6743 37.7058 41.4504 37.6375C41.1629 37.5375 40.9504 37.4249 40.4254 37.2999C39.7629 37.1499 39.8754 36.875 39.0129 36.7C38.1504 36.525 36.0629 35.575 36.0629 35.575Z" fill="#016A16" stroke="#016A16" stroke-width="0.0375"/>
<path d="M30.8242 30.6133H31.1229L31.6776 32.896L31.5496 33.6213L30.8242 30.6133Z" fill="#F1B517" stroke="black" stroke-width="0.0426668"/>
<path d="M30.5039 29.0773L30.7172 30.8479H30.9306L30.5039 29.0986V29.0773Z" fill="white" stroke="black" stroke-width="0.0426668"/>
<path d="M31.0794 32.9814L30.1621 30.528L30.5034 30.5067L31.5701 33.4934L31.0794 32.9814Z" fill="#F1B517" stroke="black" stroke-width="0.0426668"/>
<path d="M29.7363 29.12L30.1203 30.8267H30.419L29.7363 29.12Z" fill="white" stroke="black" stroke-width="0.0426668"/>
<path d="M30.2697 32.128L29.7363 30.9547L29.9497 30.912L30.9523 32.832L30.2697 32.128Z" fill="#F1B517" stroke="black" stroke-width="0.0426668"/>
<path d="M29.0098 29.6106L29.6284 31.2319H29.9271L29.0311 29.6106H29.0098Z" fill="white" stroke="black" stroke-width="0.0426668"/>
<path d="M30.3532 32.2986L27.8999 29.632C27.1319 30.2293 27.2812 31.3386 27.2812 31.3386L30.0546 33.5146L30.3532 32.2986Z" fill="#0A328C" stroke="black" stroke-width="0.0426668"/>
<path d="M31.7614 33.7493L29.9481 31.9147C29.1801 31.9573 29.7774 33.088 29.8201 33.2373L31.7401 34.88L31.7614 33.7493Z" fill="#D20014" stroke="black" stroke-width="0.0426668"/>
<path d="M31.591 33.4507L27.8577 29.44L27.7083 29.5467L31.6764 33.9413L31.591 33.4507ZM27.6444 29.184L27.559 29.0773V28.8853L26.791 28.3947L27.1323 29.184L27.4097 29.2267L27.4737 29.312L27.6444 29.184Z" fill="#F1B517" stroke="black" stroke-width="0.0426668"/>
<path d="M27.2402 29.4613C27.3973 29.2663 27.5936 29.1064 27.8162 28.9919L28.0296 29.3119L27.5602 29.6959L27.2402 29.4826V29.4613Z" fill="#F1B517" stroke="black" stroke-width="0.0426668"/>
<path d="M26.834 30.1439L26.962 30.3573C27.0473 30.3359 27.8153 29.6106 27.8153 29.6106H28.3913L28.5407 29.4186C28.114 28.9919 27.7513 29.4826 27.7513 29.4826L26.834 30.1439Z" fill="#0A328C" stroke="#0A328C" stroke-width="0.0426668"/>
<path d="M27.3042 30.5067C27.3042 30.2934 27.6882 29.824 27.7309 29.8027C28.0082 29.888 28.2642 30.0587 28.5629 29.4187C28.3069 29.7174 27.8162 29.4187 27.8162 29.4187L27.6029 29.5894V29.6747L26.9629 30.272L27.3042 30.5067Z" fill="#D20014" stroke="#D20014" stroke-width="0.0426668"/>
<path d="M29.2865 33.0027L26.2145 30.5707C25.6812 31.104 26.1292 32.7467 26.1292 32.7467L29.1158 34.368L29.2652 33.0027H29.2865Z" fill="#0A328C" stroke="black" stroke-width="0.0426668"/>
<path d="M31.8268 34.9866L29.2881 32.9386C28.4348 33.0666 29.1175 34.3253 29.1601 34.4746L31.8268 35.9253V34.9866Z" fill="#D20014" stroke="black" stroke-width="0.0426668"/>
<path d="M31.7202 34.56L26.2588 30.464L26.1522 30.592L31.8695 35.072L31.7202 34.56ZM26.0028 30.2506L25.9175 30.1653L25.8748 29.9946L25.0215 29.632L25.5122 30.336H25.7895L25.8748 30.4213L26.0028 30.2506Z" fill="#F1B517" stroke="black" stroke-width="0.0426668"/>
<path d="M25.6602 30.592C25.7823 30.3742 25.9496 30.1851 26.1508 30.0374L26.4068 30.3147L26.0228 30.7627L25.6602 30.592Z" fill="#F1B517" stroke="black" stroke-width="0.0426668"/>
<path d="M25.3828 31.2746V31.5093C25.4681 31.4666 26.1721 30.7199 26.1721 30.7199L26.7055 30.6133L26.8335 30.4426C26.4495 29.9946 26.0441 30.5919 26.0441 30.5919L25.3828 31.2746Z" fill="#0A328C" stroke="#0A328C" stroke-width="0.0426668"/>
<path d="M25.8096 31.68C25.767 31.4667 26.0656 30.8694 26.1083 30.8267C26.4496 30.9334 26.7483 31.0827 26.855 30.4C26.6416 30.7414 26.1083 30.4854 26.1083 30.4854L25.9376 30.6987V30.8054L25.4043 31.5094L25.8096 31.68Z" fill="#D20014" stroke="#D20014" stroke-width="0.0426668"/>
<path d="M29.0532 34.496C27.7348 33.7543 26.4192 33.0077 25.1065 32.256C24.8292 32.7466 25.0852 33.4293 25.2132 33.536C25.2132 33.856 25.0852 34.0267 25.3625 34.7093C25.4479 35.136 25.6399 35.5413 25.9385 35.776C26.2799 37.1413 27.6879 37.248 28.2212 36.1173L29.0532 34.496Z" fill="#0A328C" stroke="black" stroke-width="0.0426668"/>
<path d="M31.6334 35.9466L28.9668 34.3893C28.1134 34.4959 28.9668 36.096 29.0308 36.2453L31.6334 37.1626V35.9466Z" fill="#D20014" stroke="black" stroke-width="0.0426668"/>
<path d="M31.186 35.3707L25.1487 32.1707L25.042 32.2987L31.442 35.8613L31.186 35.3707ZM24.85 32L24.7434 31.936L24.6794 31.7653L23.8047 31.552L24.3807 32.1707L24.6367 32.128L24.7647 32.192L24.85 32Z" fill="#F1B517" stroke="black" stroke-width="0.0426668"/>
<path d="M24.5723 32.384C24.6576 32.1707 24.7429 31.9787 24.9563 31.744L25.2549 31.9787L24.9563 32.4907L24.5723 32.384Z" fill="#F1B517" stroke="black" stroke-width="0.0426668"/>
<path d="M24.3379 33.1093L24.4659 33.3653L25.1059 32.384L25.6392 32.192L25.7459 31.9786C25.3192 31.5946 24.9992 32.2773 24.9992 32.2773L24.3379 33.1093Z" fill="#0A328C" stroke="#0A328C" stroke-width="0.0426668"/>
<path d="M24.9149 33.4506C24.8723 33.2373 25.0216 32.5546 25.0643 32.5333C25.3843 32.64 25.6616 32.6613 25.7469 31.9786C25.5336 32.2986 25.0429 32.192 25.0429 32.192L24.8936 32.4053L24.9149 32.4906L24.4883 33.344L24.9149 33.4506Z" fill="#D20014" stroke="#D20014" stroke-width="0.0426668"/>
<path d="M33.1484 30.6133H32.8498L32.2951 32.896L32.4231 33.6213L33.1484 30.6133Z" fill="#F1B517" stroke="black" stroke-width="0.0426668"/>
<path d="M33.4688 29.0773L33.2554 30.8479H33.0421L33.4688 29.0986V29.0773Z" fill="white" stroke="black" stroke-width="0.0426668"/>
<path d="M32.8932 32.9814L33.8105 30.528L33.4692 30.5067L32.4025 33.4934L32.8932 32.9814Z" fill="#F1B517" stroke="black" stroke-width="0.0426668"/>
<path d="M34.2363 29.12L33.8523 30.8267H33.5537L34.2363 29.12Z" fill="white" stroke="black" stroke-width="0.0426668"/>
<path d="M33.703 32.128L34.2363 30.9547L34.023 30.912L33.0203 32.832L33.703 32.128Z" fill="#F1B517" stroke="black" stroke-width="0.0426668"/>
<path d="M34.9629 29.6106L34.3442 31.2319H34.0456L34.9416 29.6106H34.9629Z" fill="white" stroke="black" stroke-width="0.0426668"/>
<path d="M33.6194 32.2986L36.0727 29.632C36.8407 30.2293 36.6914 31.3386 36.6914 31.3386L33.9181 33.5146L33.6194 32.2986Z" fill="#0A328C" stroke="black" stroke-width="0.0426668"/>
<path d="M32.2112 33.7493L34.0246 31.9147C34.7926 31.9573 34.1952 33.088 34.1526 33.2373L32.2326 34.88L32.2112 33.7493Z" fill="#D20014" stroke="black" stroke-width="0.0426668"/>
<path d="M32.3816 33.4507L36.115 29.44L36.2643 29.5467L32.2963 33.9413L32.3816 33.4507ZM36.3283 29.184L36.4136 29.0773V28.8853L37.1816 28.3947L36.8403 29.184L36.563 29.2267L36.499 29.312L36.3283 29.184Z" fill="#F1B517" stroke="black" stroke-width="0.0426668"/>
<path d="M36.7324 29.4613C36.5753 29.2663 36.3791 29.1064 36.1564 28.9919L35.9431 29.3119L36.4124 29.6959L36.7324 29.4826V29.4613Z" fill="#F1B517" stroke="black" stroke-width="0.0426668"/>
<path d="M37.1387 30.1439L37.0107 30.3573C36.9253 30.3359 36.1573 29.6106 36.1573 29.6106H35.5813L35.432 29.4186C35.8587 28.9919 36.2213 29.4826 36.2213 29.4826L37.1387 30.1439Z" fill="#0A328C" stroke="#0A328C" stroke-width="0.0426668"/>
<path d="M36.6684 30.5067C36.6684 30.2934 36.2844 29.824 36.2418 29.8027C35.9644 29.888 35.7084 30.0587 35.4098 29.4187C35.6658 29.7174 36.1564 29.4187 36.1564 29.4187L36.3698 29.5894V29.6747L37.0098 30.272L36.6684 30.5067Z" fill="#D20014" stroke="#D20014" stroke-width="0.0426668"/>
<path d="M34.6861 33.0027L37.7582 30.5707C38.2915 31.104 37.8435 32.7467 37.8435 32.7467L34.8568 34.368L34.7075 33.0027H34.6861Z" fill="#0A328C" stroke="black" stroke-width="0.0426668"/>
<path d="M32.1459 34.9866L34.6845 32.9386C35.5379 33.0666 34.8552 34.3253 34.8125 34.4746L32.1459 35.9253V34.9866Z" fill="#D20014" stroke="black" stroke-width="0.0426668"/>
<path d="M32.2525 34.56L37.7138 30.464L37.8205 30.592L32.1032 35.072L32.2525 34.56ZM37.9698 30.2506L38.0552 30.1653L38.0978 29.9946L38.9512 29.632L38.4605 30.336H38.1832L38.0978 30.4213L37.9698 30.2506Z" fill="#F1B517" stroke="black" stroke-width="0.0426668"/>
<path d="M38.3125 30.592C38.1904 30.3742 38.0231 30.1851 37.8218 30.0374L37.5658 30.3147L37.9498 30.7627L38.3125 30.592Z" fill="#F1B517" stroke="black" stroke-width="0.0426668"/>
<path d="M38.5898 31.2746V31.5093C38.5045 31.4666 37.8005 30.7199 37.8005 30.7199L37.2672 30.6133L37.1392 30.4426C37.5232 29.9946 37.9285 30.5919 37.9285 30.5919L38.5898 31.2746Z" fill="#0A328C" stroke="#0A328C" stroke-width="0.0426668"/>
<path d="M38.163 31.68C38.2057 31.4667 37.907 30.8694 37.8644 30.8267C37.523 30.9334 37.2244 31.0827 37.1177 30.4C37.331 30.7414 37.8644 30.4854 37.8644 30.4854L38.035 30.6987V30.8054L38.5684 31.5094L38.163 31.68Z" fill="#D20014" stroke="#D20014" stroke-width="0.0426668"/>
<path d="M34.9195 34.496C36.2379 33.7543 37.5534 33.0077 38.8661 32.256C39.1435 32.7466 38.8875 33.4293 38.7595 33.536C38.7595 33.856 38.8875 34.0267 38.6101 34.7093C38.5248 35.136 38.3328 35.5413 38.0341 35.776C37.6928 37.1413 36.2848 37.248 35.7515 36.1173L34.9195 34.496Z" fill="#0A328C" stroke="black" stroke-width="0.0426668"/>
<path d="M32.3392 35.9466L35.0059 34.3893C35.8592 34.4959 35.0059 36.096 34.9419 36.2453L32.3392 37.1626V35.9466Z" fill="#D20014" stroke="black" stroke-width="0.0426668"/>
<path d="M32.7866 35.3707L38.824 32.1707L38.9306 32.2987L32.5306 35.8613L32.7866 35.3707ZM39.1226 32L39.2293 31.936L39.2933 31.7653L40.168 31.552L39.592 32.1707L39.336 32.128L39.208 32.192L39.1226 32Z" fill="#F1B517" stroke="black" stroke-width="0.0426668"/>
<path d="M39.4004 32.384C39.3151 32.1707 39.2297 31.9787 39.0164 31.744L38.7177 31.9787L39.0164 32.4907L39.4004 32.384Z" fill="#F1B517" stroke="black" stroke-width="0.0426668"/>
<path d="M39.6348 33.1093L39.5068 33.3653L38.8668 32.384L38.3334 32.192L38.2268 31.9786C38.6534 31.5946 38.9734 32.2773 38.9734 32.2773L39.6348 33.1093Z" fill="#0A328C" stroke="#0A328C" stroke-width="0.0426668"/>
<path d="M39.0577 33.4506C39.1004 33.2373 38.951 32.5546 38.9084 32.5333C38.5884 32.64 38.311 32.6613 38.2257 31.9786C38.439 32.2986 38.9297 32.192 38.9297 32.192L39.079 32.4053L39.0577 32.4906L39.4844 33.344L39.0577 33.4506Z" fill="#D20014" stroke="#D20014" stroke-width="0.0426668"/>
<path d="M31.7399 26.7946L31.6332 28.7147H32.2519L32.1666 26.7946L32.8066 26.7306L32.7426 25.9626L31.1426 26.0266V26.7093L31.7399 26.7946Z" fill="#016A16" stroke="#016A16" stroke-width="0.0426668"/>
<path d="M31.9535 26.0053C30.2895 24.3413 28.9881 25.152 28.6895 25.3866C28.9028 25.4293 29.0735 25.3013 29.1801 25.28L28.9668 25.536C28.9668 25.536 29.5001 25.3226 29.5641 25.3226C29.4788 25.3866 29.3935 25.536 29.3935 25.536C29.4361 25.536 29.7348 25.3013 29.7775 25.3013C29.6921 25.3866 29.6708 25.6213 29.6708 25.6213L29.9268 25.5146C29.9908 25.5573 29.9055 25.6426 29.9481 25.6426C30.3748 25.6 30.9508 26.0053 31.0148 26.1333" fill="#016A16"/>
<path d="M31.9535 26.0053C30.2895 24.3413 28.9881 25.152 28.6895 25.3866C28.9028 25.4293 29.0735 25.3013 29.1801 25.28L28.9668 25.536C28.9668 25.536 29.5001 25.3226 29.5641 25.3226C29.4788 25.3866 29.3935 25.536 29.3935 25.536C29.4361 25.536 29.7348 25.3013 29.7775 25.3013C29.6921 25.3866 29.6708 25.6213 29.6708 25.6213L29.9268 25.5146C29.9908 25.5573 29.9055 25.6426 29.9481 25.6426C30.3748 25.6 30.9508 26.0053 31.0148 26.1333" stroke="black" stroke-width="0.0426668"/>
<path d="M31.5481 26.3039C31.3774 25.9199 28.2201 25.2372 27.5801 26.3679C27.8361 26.4319 28.0707 26.1546 28.0707 26.1546V26.4106L28.4761 26.0692L28.3267 26.4106L28.6467 26.1332V26.4106L29.0734 25.9839L29.0094 26.2186L29.3721 26.0692L29.3294 26.2826" fill="#016A16"/>
<path d="M31.5481 26.3039C31.3774 25.9199 28.2201 25.2372 27.5801 26.3679C27.8361 26.4319 28.0707 26.1546 28.0707 26.1546V26.4106L28.4761 26.0692L28.3267 26.4106L28.6467 26.1332V26.4106L29.0734 25.9839L29.0094 26.2186L29.3721 26.0692L29.3294 26.2826" stroke="black" stroke-width="0.0426668"/>
<path d="M31.398 26.368C30.5873 25.8347 29.35 26.1973 29.35 26.1973C28.5393 26.624 28.1127 26.56 28.0273 27.392C28.0913 27.3707 28.3047 27.0933 28.3047 27.0933L28.4753 27.4133L28.518 26.9653L28.646 27.328L28.8593 26.7307L28.902 27.136L29.2007 26.7307L29.3287 26.8587L29.4567 26.5387L29.5847 26.752C29.5847 26.752 29.798 26.624 29.9047 26.688L30.118 26.432L30.182 26.624L30.3953 26.4107L30.4594 26.56L30.6513 26.3893V26.5173H31.2914" fill="#016A16"/>
<path d="M31.398 26.368C30.5873 25.8347 29.35 26.1973 29.35 26.1973C28.5393 26.624 28.1127 26.56 28.0273 27.392C28.0913 27.3707 28.3047 27.0933 28.3047 27.0933L28.4753 27.4133L28.518 26.9653L28.646 27.328L28.8593 26.7307L28.902 27.136L29.2007 26.7307L29.3287 26.8587L29.4567 26.5387L29.5847 26.752C29.5847 26.752 29.798 26.624 29.9047 26.688L30.118 26.432L30.182 26.624L30.3953 26.4107L30.4594 26.56L30.6513 26.3893V26.5173H31.2914" stroke="black" stroke-width="0.0426668"/>
<path d="M31.2277 26.4532C30.6517 26.4532 29.0303 27.0719 28.625 27.6906C28.715 27.6429 28.8076 27.6001 28.9023 27.5626L28.9663 27.8186L29.073 27.5626L29.0943 27.7759C29.1583 27.6052 29.2223 27.6053 29.3503 27.7546L29.393 27.5199L29.457 27.7332L29.5637 27.4986C29.5637 27.4986 29.6277 27.7546 29.6703 27.7546C29.6703 27.7546 29.841 27.2852 29.9263 27.2639L29.9477 27.5626L30.0543 27.2639L30.161 27.4772V27.1786L30.289 27.3919C30.289 27.3919 30.3317 27.1786 30.417 27.1359L30.5877 27.2852L31.313 26.7519" fill="#016A16"/>
<path d="M31.2277 26.4532C30.6517 26.4532 29.0303 27.0719 28.625 27.6906C28.715 27.6429 28.8076 27.6001 28.9023 27.5626L28.9663 27.8186L29.073 27.5626L29.0943 27.7759C29.1583 27.6052 29.2223 27.6053 29.3503 27.7546L29.393 27.5199L29.457 27.7332L29.5637 27.4986C29.5637 27.4986 29.6277 27.7546 29.6703 27.7546C29.6703 27.7546 29.841 27.2852 29.9263 27.2639L29.9477 27.5626L30.0543 27.2639L30.161 27.4772V27.1786L30.289 27.3919C30.289 27.3919 30.3317 27.1786 30.417 27.1359L30.5877 27.2852L31.313 26.7519" stroke="black" stroke-width="0.0426668"/>
<path d="M31.3343 26.6027C30.5877 26.88 29.905 27.9253 29.969 28.352C30.289 27.9253 30.225 27.9893 30.3743 28.48C30.3743 28.48 30.417 28.0533 30.481 28.0107L30.5877 28.3093L30.609 27.904H30.7157L30.6943 27.6693L30.8437 27.776C30.801 27.6267 30.7797 27.584 30.929 27.456C30.929 27.456 30.7157 27.4773 30.8863 27.136L31.0357 27.264C31.0357 27.264 30.993 27.1147 31.0357 27.0507L31.5904 26.88" fill="#016A16"/>
<path d="M31.3343 26.6027C30.5877 26.88 29.905 27.9253 29.969 28.352C30.289 27.9253 30.225 27.9893 30.3743 28.48C30.3743 28.48 30.417 28.0533 30.481 28.0107L30.5877 28.3093L30.609 27.904H30.7157L30.6943 27.6693L30.8437 27.776C30.801 27.6267 30.7797 27.584 30.929 27.456C30.929 27.456 30.7157 27.4773 30.8863 27.136L31.0357 27.264C31.0357 27.264 30.993 27.1147 31.0357 27.0507L31.5904 26.88" stroke="black" stroke-width="0.0426668"/>
<path d="M31.3996 26.6666L31.1223 27.2213L31.2716 27.264L30.9303 27.4986L31.2076 27.4773C31.2076 27.4773 30.7809 27.6266 30.7383 28.0533L31.1649 27.84C31.1649 27.84 30.8023 28.224 30.7383 28.4586L31.0156 28.2453C31.0156 28.2453 30.7596 28.5013 30.8023 28.8853L30.9943 28.672C30.9516 29.1626 30.9516 29.2053 31.1649 29.568C31.1649 29.568 31.1223 29.0133 31.1649 28.928L31.6556 29.44L31.3996 28.736C31.3996 28.736 31.6983 29.1626 31.8689 29.1413L31.4849 28.5653L31.8689 28.864L31.4423 28.224L31.8263 28.352C31.8263 28.352 31.5489 27.9893 31.5703 27.7546L31.8476 28.0533C31.8476 28.0533 31.7409 27.7333 31.7623 27.6266L31.9116 27.648L31.6343 27.3493L31.8263 27.3066L31.8049 27.0933L31.9329 27.072V26.8373M31.6983 26.8373C31.2289 27.4773 31.4636 28.4373 31.1863 28.9493L31.6983 26.8373Z" fill="#016A16"/>
<path d="M31.3996 26.6666L31.1223 27.2213L31.2716 27.264L30.9303 27.4986L31.2076 27.4773C31.2076 27.4773 30.7809 27.6266 30.7383 28.0533L31.1649 27.84C31.1649 27.84 30.8023 28.224 30.7383 28.4586L31.0156 28.2453C31.0156 28.2453 30.7596 28.5013 30.8023 28.8853L30.9943 28.672C30.9516 29.1626 30.9516 29.2053 31.1649 29.568C31.1649 29.568 31.1223 29.0133 31.1649 28.928L31.6556 29.44L31.3996 28.736C31.3996 28.736 31.6983 29.1626 31.8689 29.1413L31.4849 28.5653L31.8689 28.864L31.4423 28.224L31.8263 28.352C31.8263 28.352 31.5489 27.9893 31.5703 27.7546L31.8476 28.0533C31.8476 28.0533 31.7409 27.7333 31.7623 27.6266L31.9116 27.648L31.6343 27.3493L31.8263 27.3066L31.805 27.0933L31.9329 27.072V26.8373M31.6983 26.8373C31.2289 27.4773 31.4636 28.4373 31.1863 28.9493" stroke="black" stroke-width="0.0426668"/>
<path d="M32.0172 26.0053C33.6812 24.3413 34.9826 25.152 35.2812 25.3866C35.0679 25.4293 34.8972 25.3013 34.7906 25.28L35.0039 25.536C35.0039 25.536 34.4706 25.3226 34.4066 25.3226C34.4919 25.3866 34.5772 25.536 34.5772 25.536C34.5346 25.536 34.2359 25.3013 34.1932 25.3013C34.2786 25.3866 34.2999 25.6213 34.2999 25.6213L34.0439 25.5146C33.9799 25.5573 34.0652 25.6426 34.0226 25.6426C33.5959 25.6 33.0199 26.0053 32.9559 26.1333" fill="#016A16"/>
<path d="M32.0172 26.0053C33.6812 24.3413 34.9826 25.152 35.2812 25.3866C35.0679 25.4293 34.8972 25.3013 34.7906 25.28L35.0039 25.536C35.0039 25.536 34.4706 25.3226 34.4066 25.3226C34.4919 25.3866 34.5772 25.536 34.5772 25.536C34.5346 25.536 34.2359 25.3013 34.1932 25.3013C34.2786 25.3866 34.2999 25.6213 34.2999 25.6213L34.0439 25.5146C33.9799 25.5573 34.0652 25.6426 34.0226 25.6426C33.5959 25.6 33.0199 26.0053 32.9559 26.1333" stroke="black" stroke-width="0.0426668"/>
<path d="M32.4226 26.3039C32.5933 25.9199 35.7506 25.2372 36.3906 26.3679C36.1346 26.4319 35.9 26.1546 35.9 26.1546V26.4106L35.4946 26.0692L35.644 26.4106L35.324 26.1332V26.4106L34.8973 25.9839L34.9613 26.2186L34.5986 26.0692L34.6413 26.2826" fill="#016A16"/>
<path d="M32.4226 26.3039C32.5933 25.9199 35.7506 25.2372 36.3906 26.3679C36.1346 26.4319 35.9 26.1546 35.9 26.1546V26.4106L35.4946 26.0692L35.644 26.4106L35.324 26.1332V26.4106L34.8973 25.9839L34.9613 26.2186L34.5986 26.0692L34.6413 26.2826" stroke="black" stroke-width="0.0426668"/>
<path d="M32.5727 26.368C33.3834 25.8347 34.6207 26.1973 34.6207 26.1973C35.4314 26.624 35.858 26.56 35.9434 27.392C35.8794 27.3707 35.666 27.0933 35.666 27.0933L35.4954 27.4133L35.4527 26.9653L35.3247 27.328L35.1114 26.7307L35.0687 27.136L34.77 26.7307L34.642 26.8587L34.514 26.5387L34.386 26.752C34.386 26.752 34.1727 26.624 34.066 26.688L33.8527 26.432L33.7887 26.624L33.5754 26.4107L33.5114 26.56L33.3194 26.3893V26.5173H32.6794" fill="#016A16"/>
<path d="M32.5727 26.368C33.3834 25.8347 34.6207 26.1973 34.6207 26.1973C35.4314 26.624 35.858 26.56 35.9434 27.392C35.8794 27.3707 35.666 27.0933 35.666 27.0933L35.4954 27.4133L35.4527 26.9653L35.3247 27.328L35.1114 26.7307L35.0687 27.136L34.77 26.7307L34.642 26.8587L34.514 26.5387L34.386 26.752C34.386 26.752 34.1727 26.624 34.066 26.688L33.8527 26.432L33.7887 26.624L33.5754 26.4107L33.5114 26.56L33.3194 26.3893V26.5173H32.6794" stroke="black" stroke-width="0.0426668"/>
<path d="M32.743 26.4532C33.319 26.4532 34.9404 27.0719 35.3457 27.6906C35.2557 27.6429 35.1631 27.6001 35.0684 27.5626L35.0044 27.8186L34.8977 27.5626L34.8764 27.7759C34.8124 27.6052 34.7484 27.6053 34.6204 27.7546L34.5777 27.5199L34.5137 27.7332L34.407 27.4986C34.407 27.4986 34.343 27.7546 34.3004 27.7546C34.3004 27.7546 34.1297 27.2852 34.0444 27.2639L34.023 27.5626L33.9164 27.2639L33.8097 27.4772V27.1786L33.6817 27.3919C33.6817 27.3919 33.639 27.1786 33.5537 27.1359L33.383 27.2852L32.6577 26.7519" fill="#016A16"/>
<path d="M32.743 26.4532C33.319 26.4532 34.9404 27.0719 35.3457 27.6906C35.2557 27.6429 35.1631 27.6001 35.0684 27.5626L35.0044 27.8186L34.8977 27.5626L34.8764 27.7759C34.8124 27.6052 34.7484 27.6053 34.6204 27.7546L34.5777 27.5199L34.5137 27.7332L34.407 27.4986C34.407 27.4986 34.343 27.7546 34.3004 27.7546C34.3004 27.7546 34.1297 27.2852 34.0444 27.2639L34.023 27.5626L33.9164 27.2639L33.8097 27.4772V27.1786L33.6817 27.3919C33.6817 27.3919 33.639 27.1786 33.5537 27.1359L33.383 27.2852L32.6577 26.7519" stroke="black" stroke-width="0.0426668"/>
<path d="M32.6364 26.6027C33.383 26.88 34.0657 27.9253 34.0017 28.352C33.6817 27.9253 33.7457 27.9893 33.5964 28.48C33.5964 28.48 33.5537 28.0533 33.4897 28.0107L33.383 28.3093L33.3617 27.904H33.255L33.2764 27.6693L33.127 27.776C33.1697 27.6267 33.191 27.584 33.0417 27.456C33.0417 27.456 33.255 27.4773 33.0844 27.136L32.935 27.264C32.935 27.264 32.9777 27.1147 32.935 27.0507L32.3804 26.88" fill="#016A16"/>
<path d="M32.6364 26.6027C33.383 26.88 34.0657 27.9253 34.0017 28.352C33.6817 27.9253 33.7457 27.9893 33.5964 28.48C33.5964 28.48 33.5537 28.0533 33.4897 28.0107L33.383 28.3093L33.3617 27.904H33.255L33.2764 27.6693L33.127 27.776C33.1697 27.6267 33.191 27.584 33.0417 27.456C33.0417 27.456 33.255 27.4773 33.0844 27.136L32.935 27.264C32.935 27.264 32.9777 27.1147 32.935 27.0507L32.3804 26.88" stroke="black" stroke-width="0.0426668"/>
<path d="M32.5711 26.6666L32.8484 27.2213L32.6991 27.264L33.0404 27.4986L32.7631 27.4773C32.7631 27.4773 33.1898 27.6266 33.2324 28.0533L32.8058 27.84C32.8058 27.84 33.1684 28.224 33.2324 28.4586L32.9551 28.2453C32.9551 28.2453 33.2111 28.5013 33.1684 28.8853L32.9764 28.672C33.0191 29.1626 33.0191 29.2053 32.8058 29.568C32.8058 29.568 32.8484 29.0133 32.8058 28.928L32.3151 29.44L32.5711 28.736C32.5711 28.736 32.2724 29.1626 32.1018 29.1413L32.4858 28.5653L32.1018 28.864L32.5284 28.224L32.1444 28.352C32.1444 28.352 32.4218 27.9893 32.4004 27.7546L32.1231 28.0533C32.1231 28.0533 32.2298 27.7333 32.2084 27.6266L32.0591 27.648L32.3364 27.3493L32.1444 27.3066L32.1658 27.0933L32.0378 27.072V26.8373M32.2724 26.8373C32.7418 27.4773 32.5071 28.4373 32.7844 28.9493L32.2724 26.8373Z" fill="#016A16"/>
<path d="M32.5711 26.6666L32.8484 27.2213L32.6991 27.264L33.0404 27.4986L32.7631 27.4773C32.7631 27.4773 33.1898 27.6266 33.2324 28.0533L32.8058 27.84C32.8058 27.84 33.1684 28.224 33.2324 28.4586L32.9551 28.2453C32.9551 28.2453 33.2111 28.5013 33.1684 28.8853L32.9764 28.672C33.0191 29.1626 33.0191 29.2053 32.8058 29.568C32.8058 29.568 32.8484 29.0133 32.8058 28.928L32.3151 29.44L32.5711 28.736C32.5711 28.736 32.2724 29.1626 32.1018 29.1413L32.4858 28.5653L32.1018 28.864L32.5284 28.224L32.1444 28.352C32.1444 28.352 32.4218 27.9893 32.4004 27.7546L32.1231 28.0533C32.1231 28.0533 32.2298 27.7333 32.2084 27.6266L32.0591 27.648L32.3364 27.3493L32.1444 27.3066L32.1658 27.0933L32.0378 27.072V26.8373M32.2724 26.8373C32.7418 27.4773 32.5071 28.4373 32.7844 28.9493" stroke="black" stroke-width="0.0426668"/>
<path d="M32.2086 35.52C32.2086 35.52 32.4433 33.3867 32.4433 32.4907C32.4433 31.7653 32.2726 30.1866 32.2726 30.1866H31.5686C31.5686 30.1866 31.462 31.7653 31.4833 32.4907C31.4833 33.3867 31.718 35.52 31.718 35.52H32.2086Z" fill="#F1B517" stroke="black" stroke-width="0.0426668"/>
<path d="M31.5059 30.2933H32.3592L32.2525 29.7173H31.6339L31.5059 30.2933Z" fill="#F1B517" stroke="black" stroke-width="0.0426668"/>
<path d="M31.5703 29.8239H32.317L32.1676 29.2479H31.6983L31.5703 29.8239Z" fill="#F1B517" stroke="black" stroke-width="0.0426668"/>
<path d="M31.6113 29.3759H32.2513L32.1233 28.7999H31.718L31.6113 29.3759Z" fill="#F1B517" stroke="black" stroke-width="0.0426668"/>
<path d="M32.1454 28.736H31.7187L31.6547 28.9493H32.1881L32.1454 28.736ZM32.2307 35.072H31.6761H32.2307ZM32.2734 34.6453H31.6334H32.2734ZM32.3587 34.2186H31.5481H32.3587ZM32.4014 33.7706H31.5481H32.4014ZM32.4014 33.3013H31.5267H32.4014ZM32.4227 32.8746H31.4841H32.4227ZM32.4227 32.512H31.4414H32.4227ZM32.4227 32.0426H31.4414H32.4227ZM32.4014 31.5946H31.4414H32.4014ZM32.3587 31.1253H31.4841H32.3587ZM32.3161 30.6986H31.5267H32.3161Z" fill="#F1B517"/>
<path d="M32.2307 35.072H31.6761M32.2734 34.6453H31.6334M32.3587 34.2186H31.5481M32.4014 33.7706H31.5481M32.4014 33.3013H31.5267M32.4227 32.8746H31.4841M32.4227 32.512H31.4414M32.4227 32.0426H31.4414M32.4014 31.5946H31.4414M32.3587 31.1253H31.4841M32.3161 30.6986H31.5267M32.1454 28.736H31.7187L31.6547 28.9493H32.1881L32.1454 28.736Z" stroke="black" stroke-width="0.0426668"/>
<path d="M31.9957 25.3866C31.825 25.3226 31.505 25.1093 31.5904 24.9813L31.7397 24.7253C31.953 24.256 31.7397 24.4266 31.7397 24.2986C31.697 24.128 32.5504 24.256 32.5504 24.576C32.5504 24.6826 32.4864 24.6186 32.5077 25.1306L32.337 25.4506C32.2145 25.4666 32.0899 25.452 31.9744 25.408L31.9957 25.3866Z" fill="#0A328C" stroke="#0A328C" stroke-width="0.0426668"/>
<path d="M32.0805 26.6666L31.8672 26.4746L31.9312 24.96L32.1445 25.024L32.0805 26.6453V26.6666Z" fill="#F1B517" stroke="black" stroke-width="0.0426668"/>
<path d="M32.3578 25.4506C32.4858 25.3653 32.5711 25.1306 32.4858 25.0026C32.2725 24.7253 32.1231 24.832 31.7605 24.704C31.6965 24.7893 31.5471 24.9173 31.5685 25.0453C32.0591 25.2586 31.8671 25.088 32.0378 25.1093C32.1231 25.1093 32.1658 25.216 32.3578 25.4293V25.4506Z" fill="#D20014" stroke="#D20014" stroke-width="0.0426668"/>
<path d="M29.5443 34.1973C29.5016 34.0906 29.331 34.0053 29.1176 34.0053C28.9043 34.0053 28.755 34.0906 28.691 34.1973C28.6837 34.1693 28.6837 34.1399 28.691 34.1119C28.691 33.9626 28.883 33.8559 29.1176 33.8559C29.3736 33.8559 29.5656 33.9626 29.5656 34.1119C29.5729 34.1399 29.5729 34.1693 29.5656 34.1973H29.5443Z" fill="#016A16" stroke="white" stroke-width="0.0426668" stroke-linecap="round"/>
<path d="M29.5218 34.5173C29.5218 34.7733 29.3298 35.008 29.1164 35.008C28.9031 35.008 28.7324 34.7947 28.7324 34.496V34.24H29.5218V34.5173Z" fill="#016A16" stroke="white" stroke-width="0.0426668" stroke-linecap="round"/>
<path d="M29.1164 34.3466C29.3285 34.3466 29.5004 34.2607 29.5004 34.1546C29.5004 34.0486 29.3285 33.9626 29.1164 33.9626C28.9043 33.9626 28.7324 34.0486 28.7324 34.1546C28.7324 34.2607 28.9043 34.3466 29.1164 34.3466Z" fill="white"/>
<path d="M29.0328 34.3466L28.9688 33.6639H29.2674L29.2247 34.3679H29.0328V34.3466Z" fill="#016A16" stroke="#F1B517" stroke-width="0.0426668"/>
<path d="M29.5443 34.1547C29.5016 34.2613 29.331 34.3467 29.1176 34.3467C28.9043 34.3467 28.755 34.2613 28.691 34.1547C28.6837 34.1826 28.6837 34.212 28.691 34.24C28.691 34.3893 28.883 34.496 29.1176 34.496C29.3736 34.496 29.5656 34.3893 29.5656 34.24C29.5729 34.212 29.5729 34.1826 29.5656 34.1547H29.5443Z" fill="#016A16" stroke="white" stroke-width="0.0426668" stroke-linecap="round"/>
<path d="M31.1441 36.864L29.6507 36.3947L28.9894 35.264L26.6641 35.1573L26.7494 36.0107L28.7334 36.3734L28.9041 36.7147L31.1867 37.3547L31.1441 36.864Z" fill="#F1B517" stroke="black" stroke-width="0.0426668"/>
<path d="M29.5858 37.1839L27.1965 33.6639L27.0898 33.7706L29.4365 37.2693L29.5858 37.1839Z" fill="#503200" stroke="black" stroke-width="0.0426668"/>
<path d="M27.4316 33.8133L27.1756 33.3866C27.1116 33.3013 27.0476 33.28 26.9409 33.344C26.8342 33.3866 26.8556 33.4933 26.8982 33.5786L27.1116 33.984L27.4316 33.8133Z" fill="white" stroke="black" stroke-width="0.0426668"/>
<path d="M29.8636 35.008L25.0635 34.5173L24.9355 35.2213L29.7142 35.712L29.8636 35.008Z" fill="#F1B517" stroke="black" stroke-width="0.0426668"/>
<path d="M24.9582 34.3467L24.8516 35.3067H25.0649L25.1929 34.432L24.9582 34.3467ZM25.7689 34.496L25.7262 35.3707H25.8542L25.9609 34.624L25.7689 34.496ZM29.0329 34.88L28.9049 35.6907H29.1396L29.2462 34.88H29.0329ZM29.7369 34.9013L29.5876 35.84L29.8436 35.8827L29.9289 35.392C29.9289 35.4987 30.0356 35.5627 30.1422 35.5627C30.2702 35.5627 30.3556 35.456 30.3556 35.3493C30.3556 35.2213 30.2702 35.136 30.1422 35.136C30.0978 35.1324 30.0533 35.1427 30.015 35.1657C29.9767 35.1887 29.9466 35.223 29.9289 35.264L29.9929 34.9227L29.7369 34.9013ZM28.0302 35.0507L27.3476 35.7973L27.4329 35.8827L28.2862 35.3067L28.0302 35.0507ZM26.4516 36.9067L27.1129 36.16L27.0489 36.0747L26.1956 36.6507L26.4516 36.9067ZM28.1796 36.7147L27.3902 36.096L27.3049 36.16L27.9449 36.9707L28.1796 36.7147ZM26.1956 35.2853L27.0276 35.8827L27.1129 35.8187L26.4729 35.008L26.1956 35.2853ZM27.0916 34.7947L27.1769 35.776H27.2836L27.5396 34.816L27.0916 34.7947ZM27.3476 37.1414L27.2836 36.1814H27.1556L27.0062 37.1627L27.3476 37.1414ZM28.4356 35.8614L27.4116 35.9467V36.0533L28.4356 36.1814V35.8614ZM26.0036 36.1814L27.0062 36.032V35.9467L25.9822 35.84V36.1814H26.0036Z" fill="#F1B517" stroke="black" stroke-width="0.0426668"/>
<path d="M27.2402 36.224C27.3934 36.224 27.5176 36.1094 27.5176 35.968C27.5176 35.8267 27.3934 35.712 27.2402 35.712C27.0871 35.712 26.9629 35.8267 26.9629 35.968C26.9629 36.1094 27.0871 36.224 27.2402 36.224Z" fill="#F1B517" stroke="black" stroke-width="0.0426668"/>
<path fill-rule="evenodd" clip-rule="evenodd" d="M28.6692 35.968C28.6692 36.7147 28.0292 37.3547 27.2399 37.3547C27.055 37.3575 26.8713 37.3239 26.6994 37.2557C26.5275 37.1875 26.3707 37.0862 26.238 36.9574C26.1052 36.8286 25.9992 36.675 25.9258 36.5052C25.8525 36.3355 25.8133 36.1529 25.8105 35.968C25.8105 35.2 26.4505 34.5813 27.2399 34.5813C27.4248 34.5785 27.6084 34.6121 27.7804 34.6803C27.9523 34.7485 28.1091 34.8498 28.2418 34.9786C28.3745 35.1074 28.4806 35.261 28.5539 35.4308C28.6273 35.6006 28.6664 35.7831 28.6692 35.968ZM28.3919 35.968C28.3891 36.1165 28.3571 36.263 28.2977 36.3991C28.2383 36.5352 28.1527 36.6583 28.0457 36.7613C27.9387 36.8643 27.8125 36.9453 27.6742 36.9995C27.536 37.0537 27.3884 37.0802 27.2399 37.0773C27.0896 37.0802 26.9403 37.053 26.8006 36.9975C26.661 36.9419 26.5338 36.8591 26.4266 36.7538C26.3193 36.6485 26.2341 36.5229 26.1759 36.3843C26.1178 36.2458 26.0879 36.097 26.0879 35.9467C26.099 35.6505 26.226 35.3706 26.4414 35.1671C26.6569 34.9636 26.9436 34.8529 27.2399 34.8587C27.3884 34.8558 27.536 34.8823 27.6742 34.9365C27.8125 34.9907 27.9387 35.0717 28.0457 35.1747C28.1527 35.2777 28.2383 35.4008 28.2977 35.5369C28.3571 35.673 28.3891 35.8195 28.3919 35.968Z" fill="#F1B517" stroke="black" stroke-width="0.0426668" stroke-linecap="round"/>
<path d="M26.3442 35.264L26.1309 35.0933L26.3442 35.264ZM27.9442 35.0933L28.1575 34.88L27.9442 35.0933ZM28.3709 36.8426L28.1362 36.6506L28.3709 36.8426ZM26.3442 37.056L26.5575 36.8426L26.3442 37.056ZM31.1869 34.5813L31.4215 35.8613L31.2295 35.9466L31.0162 34.6026L31.1869 34.5813Z" fill="#F1B517"/>
<path d="M26.3442 35.264L26.1309 35.0933M27.9442 35.0933L28.1575 34.88M28.3709 36.8426L28.1362 36.6506M26.3442 37.056L26.5575 36.8426M31.1869 34.5813L31.4215 35.8613L31.2295 35.9466L31.0162 34.6026L31.1869 34.5813Z" stroke="black" stroke-width="0.0426668"/>
<path d="M31.0578 34.432C30.9511 34.368 30.8018 34.4533 30.5458 34.1547C30.1405 34.5173 30.5458 34.5813 30.5885 34.944C30.6951 34.9867 30.7805 34.6453 31.0791 34.624L31.5698 34.5813L31.4631 34.432H31.0578Z" fill="white" stroke="black" stroke-width="0.0426668"/>
<path d="M31.2287 34.6666L31.186 34.3039C31.122 34.1546 30.9727 34.2826 30.9727 34.3466L31.0153 34.7093L31.2287 34.6666Z" fill="white" stroke="black" stroke-width="0.0426668"/>
<path fill-rule="evenodd" clip-rule="evenodd" d="M30.0341 35.712V36.0534C29.9061 36.096 29.9275 36.1814 29.9275 36.3094V37.312C29.9061 37.3974 29.7781 37.3974 29.7141 37.44C29.6501 37.504 29.6715 37.6107 29.9275 37.6534L30.1408 37.6747C30.4608 37.6107 30.5248 37.504 30.3541 37.4614C30.2901 37.4187 30.1621 37.376 30.1408 37.3334V37.0774H30.3541C30.3968 37.0774 30.5035 36.9494 30.5035 36.8427V36.3094C30.5035 36.0107 30.2901 35.968 30.2048 35.9894V35.712H30.0341ZM30.3755 36.288C30.3755 36.2027 30.2475 36.1174 30.2048 36.1174C30.1621 36.1174 30.0555 36.224 30.0555 36.3094V36.5227C30.0555 36.608 30.1195 36.864 30.2475 36.8854C30.2901 36.8854 30.3755 36.8 30.3755 36.7147V36.288Z" fill="#F1B517" stroke="black" stroke-width="0.0426668"/>
<path d="M28.6483 36.7573C28.4989 36.7147 28.4989 37.0133 28.4989 37.0133H28.7123C28.8189 37.056 28.8829 37.184 28.8403 37.2693C28.7763 37.312 28.3709 37.1627 28.3496 37.2693C28.4136 37.6747 28.9683 37.824 29.1603 37.6533C29.3523 37.4613 29.3949 37.0133 28.7763 36.864L28.6483 36.7573ZM28.7763 36.8853L28.7123 37.0133L28.7763 36.8853Z" fill="white"/>
<path d="M28.7123 37.0133H28.4989C28.4989 37.0133 28.4989 36.7147 28.6483 36.7573L28.7763 36.864C29.3949 37.0133 29.3523 37.4613 29.1603 37.6533C28.9683 37.824 28.4136 37.6747 28.3496 37.2693C28.3709 37.1627 28.7763 37.312 28.8403 37.2693C28.8829 37.184 28.8189 37.056 28.7123 37.0133ZM28.7123 37.0133L28.7763 36.8853" stroke="black" stroke-width="0.0426668"/>
<path d="M24.5315 36.9067L24.3182 36.0533L24.5315 36.9067ZM24.7662 36.864L24.4462 36.2027L24.7662 36.864ZM25.2995 36.6933L24.5955 36.3093L25.2995 36.6933ZM25.6195 36.608L24.2969 36.032L25.6195 36.608Z" fill="#F1B517"/>
<path d="M24.5315 36.9067L24.3182 36.0533M24.7662 36.864L24.4462 36.2027M25.2995 36.6933L24.5955 36.3093M25.6195 36.608L24.2969 36.032" stroke="black" stroke-width="0.0426668"/>
<path d="M23.5066 35.4133L22.9519 35.4347C22.9093 35.456 23.0586 35.6267 23.0373 35.6693C22.9093 35.904 22.0986 35.8827 22.0346 35.84C21.9279 35.7333 22.7813 35.6693 22.8026 35.6267C22.8026 35.5413 22.6746 35.3707 22.6959 35.264C22.6959 35.1147 23.0586 35.0507 23.0586 35.0507L23.5066 35.4133Z" fill="#D20014" stroke="#D20014" stroke-width="0.0426668"/>
<path d="M24.1474 35.84L23.0807 34.944C23.0807 34.944 23.0167 34.9013 22.974 34.944C22.9314 34.9867 22.974 35.0293 22.974 35.0293L24.126 35.968L24.1474 35.8613V35.84Z" fill="#503200" stroke="black" stroke-width="0.0426668"/>
<path d="M25.2137 36.736L24.3177 35.968L24.2537 35.7546L24.0831 35.8826C24.0191 35.9253 23.9551 36.0533 23.9551 36.0533H24.1897L24.9577 36.7786L25.1924 36.736H25.2137Z" fill="#F1B517" stroke="black" stroke-width="0.0426668"/>
<path d="M28.2646 37.9306C28.347 37.9306 28.4139 37.8638 28.4139 37.7813C28.4139 37.6988 28.347 37.632 28.2646 37.632C28.1821 37.632 28.1152 37.6988 28.1152 37.7813C28.1152 37.8638 28.1821 37.9306 28.2646 37.9306Z" fill="#F1B517" stroke="black" stroke-width="0.0426668"/>
<path d="M27.8583 37.632C27.9408 37.632 28.0077 37.5652 28.0077 37.4827C28.0077 37.4002 27.9408 37.3334 27.8583 37.3334C27.7758 37.3334 27.709 37.4002 27.709 37.4827C27.709 37.5652 27.7758 37.632 27.8583 37.632Z" fill="#F1B517" stroke="black" stroke-width="0.0426668"/>
<path d="M27.3251 37.8239C27.4076 37.8239 27.4745 37.7571 27.4745 37.6746C27.4745 37.5921 27.4076 37.5253 27.3251 37.5253C27.2426 37.5253 27.1758 37.5921 27.1758 37.6746C27.1758 37.7571 27.2426 37.8239 27.3251 37.8239Z" fill="#F1B517" stroke="black" stroke-width="0.0426668"/>
<path d="M26.4931 37.9947C26.5756 37.9947 26.6424 37.9279 26.6424 37.8454C26.6424 37.7629 26.5756 37.696 26.4931 37.696C26.4106 37.696 26.3438 37.7629 26.3438 37.8454C26.3438 37.9279 26.4106 37.9947 26.4931 37.9947Z" fill="#F1B517" stroke="black" stroke-width="0.0426668"/>
<path d="M26.1298 38.0373C26.2123 38.0373 26.2791 37.9705 26.2791 37.888C26.2791 37.8055 26.2123 37.7386 26.1298 37.7386C26.0473 37.7386 25.9805 37.8055 25.9805 37.888C25.9805 37.9705 26.0473 38.0373 26.1298 38.0373Z" fill="#F1B517" stroke="black" stroke-width="0.0426668"/>
<path d="M25.7685 38.0373C25.8509 38.0373 25.9178 37.9705 25.9178 37.888C25.9178 37.8055 25.8509 37.7386 25.7685 37.7386C25.686 37.7386 25.6191 37.8055 25.6191 37.888C25.6191 37.9705 25.686 38.0373 25.7685 38.0373Z" fill="#F1B517" stroke="black" stroke-width="0.0426668"/>
<path d="M25.4267 38.0373C25.5092 38.0373 25.576 37.9705 25.576 37.888C25.576 37.8055 25.5092 37.7386 25.4267 37.7386C25.3442 37.7386 25.2773 37.8055 25.2773 37.888C25.2773 37.9705 25.3442 38.0373 25.4267 38.0373Z" fill="#F1B517" stroke="black" stroke-width="0.0426668"/>
<path d="M25.5966 37.76C25.6791 37.76 25.7459 37.6931 25.7459 37.6106C25.7459 37.5282 25.6791 37.4613 25.5966 37.4613C25.5141 37.4613 25.4473 37.5282 25.4473 37.6106C25.4473 37.6931 25.5141 37.76 25.5966 37.76Z" fill="#F1B517" stroke="black" stroke-width="0.0426668"/>
<path d="M25.9384 37.7813C26.0209 37.7813 26.0877 37.7145 26.0877 37.632C26.0877 37.5495 26.0209 37.4827 25.9384 37.4827C25.8559 37.4827 25.7891 37.5495 25.7891 37.632C25.7891 37.7145 25.8559 37.7813 25.9384 37.7813Z" fill="#F1B517" stroke="black" stroke-width="0.0426668"/>
<path d="M26.2587 37.7386C26.3412 37.7386 26.408 37.6717 26.408 37.5893C26.408 37.5068 26.3412 37.4399 26.2587 37.4399C26.1762 37.4399 26.1094 37.5068 26.1094 37.5893C26.1094 37.6717 26.1762 37.7386 26.2587 37.7386Z" fill="#F1B517" stroke="black" stroke-width="0.0426668"/>
<path d="M26.1083 37.4826C26.1908 37.4826 26.2577 37.4158 26.2577 37.3333C26.2577 37.2508 26.1908 37.184 26.1083 37.184C26.0258 37.184 25.959 37.2508 25.959 37.3333C25.959 37.4158 26.0258 37.4826 26.1083 37.4826Z" fill="#F1B517" stroke="black" stroke-width="0.0426668"/>
<path d="M25.7685 37.4613C25.8509 37.4613 25.9178 37.3944 25.9178 37.3119C25.9178 37.2295 25.8509 37.1626 25.7685 37.1626C25.686 37.1626 25.6191 37.2295 25.6191 37.3119C25.6191 37.3944 25.686 37.4613 25.7685 37.4613Z" fill="#F1B517" stroke="black" stroke-width="0.0426668"/>
<path fill-rule="evenodd" clip-rule="evenodd" d="M29.1179 37.9733C29.1179 37.9093 28.9473 37.9306 28.9473 37.8453C28.9473 37.76 29.2033 37.8453 29.2246 37.9093C29.3739 37.7813 29.4379 37.8666 29.5233 37.9093C29.6513 37.7386 29.8006 37.7386 29.9499 37.8666C30.0353 37.7813 30.2486 37.8026 30.3126 37.9093C30.4619 37.7813 30.5899 37.8026 30.6753 37.9093C30.7179 37.8453 30.7819 37.8453 30.8246 37.9093C30.8886 37.76 31.0806 37.8026 31.1659 37.9093C31.2299 37.824 31.3153 37.888 31.4006 37.9306C31.4646 37.888 31.5713 37.888 31.5713 37.9306C31.5713 38.016 31.4433 37.9946 31.4433 38.0586C31.4433 38.1013 31.5286 38.0586 31.5286 38.144C31.5286 38.208 31.4006 38.2293 31.3793 38.144C31.3153 38.2293 31.1446 38.1866 31.1233 38.1013C31.1073 38.1195 31.0876 38.134 31.0655 38.144C31.0434 38.1539 31.0195 38.1591 30.9953 38.1591C30.9711 38.1591 30.9471 38.1539 30.9251 38.144C30.903 38.134 30.8833 38.1195 30.8673 38.1013C30.8033 38.144 30.7179 38.144 30.6966 38.1013C30.5899 38.208 30.3979 38.1866 30.3339 38.0586H30.2699C30.2499 38.0813 30.2253 38.0995 30.1977 38.112C30.1701 38.1244 30.1402 38.1309 30.1099 38.1309C30.0797 38.1309 30.0497 38.1244 30.0222 38.112C29.9946 38.0995 29.97 38.0813 29.9499 38.0586C29.7579 38.1866 29.6513 38.144 29.5446 38.0586C29.4379 38.208 29.2459 38.208 29.2246 38.0586C29.1393 38.1226 28.9686 38.144 28.9686 38.0586C28.9686 38.016 29.1179 38.0373 29.1179 37.9733ZM29.4593 37.9946C29.4593 38.0373 29.4166 38.0586 29.3739 38.0586C29.3313 38.0586 29.2886 38.0373 29.2886 37.9946C29.2886 37.952 29.3099 37.952 29.3739 37.952C29.4379 37.952 29.4593 37.9733 29.4593 37.9946ZM29.8646 37.952C29.8646 37.9946 29.8006 38.016 29.7366 38.016C29.6726 38.016 29.6299 37.9946 29.6299 37.952C29.6299 37.9306 29.6726 37.888 29.7366 37.888C29.8006 37.888 29.8433 37.9306 29.8433 37.952H29.8646ZM30.6113 37.9946C30.6113 38.0373 30.5686 38.0586 30.5046 38.0586C30.4406 38.0586 30.4193 38.0373 30.4193 37.9946C30.4193 37.9733 30.4619 37.9306 30.5046 37.9306C30.5473 37.9306 30.6113 37.952 30.6113 37.9946ZM30.2059 37.9946C30.2059 38.0373 30.1633 38.0586 30.0993 38.0586C30.0353 38.0586 30.0139 38.0373 30.0139 37.9733C30.0139 37.9306 30.0566 37.888 30.0993 37.888C30.1419 37.888 30.2059 37.9306 30.2059 37.9733V37.9946ZM31.0593 37.9946C31.0593 38.016 31.0379 38.0586 30.9953 38.0586C30.9313 38.0586 30.8886 38.016 30.8886 37.9733C30.8886 37.9306 30.9313 37.9093 30.9953 37.9093C31.0379 37.9093 31.0806 37.9306 31.0806 37.9733L31.0593 37.9946ZM30.8033 37.9946C30.8033 38.0373 30.8033 38.0586 30.7606 38.0586C30.7179 38.0586 30.6966 38.0373 30.6966 37.9946C30.6966 37.952 30.7179 37.952 30.7606 37.952L30.8033 37.9946ZM31.3153 38.016C31.3153 38.0586 31.3153 38.1013 31.2513 38.1013C31.2299 38.1013 31.1873 38.0586 31.1873 38.016C31.1873 37.9733 31.2299 37.952 31.2513 37.952C31.2939 37.952 31.3153 37.9733 31.3153 38.016Z" fill="#F1B517" stroke="black" stroke-width="0.0426668"/>
<path d="M32.8286 36.864L34.3219 36.3947L34.9833 35.264L37.3086 35.1573L37.2233 36.0107L35.2393 36.3734L35.0686 36.7147L32.7859 37.3547L32.8286 36.864Z" fill="#F1B517" stroke="black" stroke-width="0.0426668"/>
<path d="M34.3868 37.1839L36.7761 33.6639L36.8828 33.7706L34.5361 37.2693L34.3868 37.1839Z" fill="#503200" stroke="black" stroke-width="0.0426668"/>
<path d="M36.5411 33.8133L36.7971 33.3866C36.8611 33.3013 36.9251 33.28 37.0318 33.344C37.1384 33.3866 37.1171 33.4933 37.0744 33.5786L36.8611 33.984L36.5411 33.8133Z" fill="white" stroke="black" stroke-width="0.0426668"/>
<path d="M34.1091 35.008L38.9091 34.5173L39.0371 35.2213L34.2584 35.712L34.1091 35.008Z" fill="#F1B517" stroke="black" stroke-width="0.0426668"/>
<path d="M39.0144 34.3467L39.1211 35.3067H38.9078L38.7798 34.432L39.0144 34.3467ZM38.2038 34.496L38.2464 35.3707H38.1184L38.0118 34.624L38.2038 34.496ZM34.9398 34.88L35.0678 35.6907H34.8331L34.7264 34.88H34.9398ZM34.2358 34.9013L34.3851 35.84L34.1291 35.8827L34.0437 35.392C34.0437 35.4987 33.9371 35.5627 33.8304 35.5627C33.7024 35.5627 33.6171 35.456 33.6171 35.3493C33.6171 35.2213 33.7024 35.136 33.8304 35.136C33.8749 35.1324 33.9194 35.1427 33.9577 35.1657C33.9959 35.1887 34.026 35.223 34.0437 35.264L33.9797 34.9227L34.2358 34.9013ZM35.9424 35.0507L36.6251 35.7973L36.5398 35.8827L35.6864 35.3067L35.9424 35.0507ZM37.5211 36.9067L36.8598 36.16L36.9238 36.0747L37.7771 36.6507L37.5211 36.9067ZM35.7931 36.7147L36.5824 36.096L36.6678 36.16L36.0278 36.9707L35.7931 36.7147ZM37.7771 35.2853L36.9451 35.8827L36.8598 35.8187L37.4998 35.008L37.7771 35.2853ZM36.8811 34.7947L36.7958 35.776H36.6891L36.4331 34.816L36.8811 34.7947ZM36.6251 37.1414L36.6891 36.1814H36.8171L36.9664 37.1627L36.6251 37.1414ZM35.5371 35.8614L36.5611 35.9467V36.0533L35.5371 36.1814V35.8614ZM37.9691 36.1814L36.9664 36.032V35.9467L37.9904 35.84V36.1814H37.9691Z" fill="#F1B517" stroke="black" stroke-width="0.0426668"/>
<path d="M36.7324 36.224C36.5793 36.224 36.4551 36.1094 36.4551 35.968C36.4551 35.8267 36.5793 35.712 36.7324 35.712C36.8856 35.712 37.0098 35.8267 37.0098 35.968C37.0098 36.1094 36.8856 36.224 36.7324 36.224Z" fill="#F1B517" stroke="black" stroke-width="0.0426668"/>
<path fill-rule="evenodd" clip-rule="evenodd" d="M35.3034 35.968C35.3034 36.7147 35.9434 37.3547 36.7328 37.3547C36.9177 37.3575 37.1013 37.3239 37.2732 37.2557C37.4451 37.1875 37.6019 37.0862 37.7347 36.9574C37.8674 36.8286 37.9735 36.675 38.0468 36.5052C38.1201 36.3355 38.1593 36.1529 38.1621 35.968C38.1621 35.2 37.5221 34.5813 36.7328 34.5813C36.5479 34.5785 36.3642 34.6121 36.1923 34.6803C36.0204 34.7485 35.8636 34.8498 35.7309 34.9786C35.5981 35.1074 35.4921 35.261 35.4187 35.4308C35.3454 35.6006 35.3062 35.7831 35.3034 35.968ZM35.5808 35.968C35.5835 36.1165 35.6155 36.263 35.6749 36.3991C35.7343 36.5352 35.82 36.6583 35.927 36.7613C36.0339 36.8643 36.1602 36.9453 36.2984 36.9995C36.4367 37.0537 36.5843 37.0802 36.7328 37.0773C36.883 37.0802 37.0324 37.053 37.172 36.9975C37.3117 36.9419 37.4388 36.8591 37.5461 36.7538C37.6534 36.6485 37.7386 36.5229 37.7967 36.3843C37.8549 36.2458 37.8848 36.097 37.8848 35.9467C37.8736 35.6505 37.7467 35.3706 37.5312 35.1671C37.3158 34.9636 37.0291 34.8529 36.7328 34.8587C36.5843 34.8558 36.4367 34.8823 36.2984 34.9365C36.1602 34.9907 36.0339 35.0717 35.927 35.1747C35.82 35.2777 35.7343 35.4008 35.6749 35.5369C35.6155 35.673 35.5835 35.8195 35.5808 35.968Z" fill="#F1B517" stroke="black" stroke-width="0.0426668" stroke-linecap="round"/>
<path d="M37.6285 35.264L37.8418 35.0933L37.6285 35.264ZM36.0285 35.0933L35.8151 34.88L36.0285 35.0933ZM35.6018 36.8426L35.8365 36.6506L35.6018 36.8426ZM37.6285 37.056L37.4151 36.8426L37.6285 37.056ZM32.7858 34.5813L32.5511 35.8613L32.7431 35.9466L32.9565 34.6026L32.7858 34.5813Z" fill="#F1B517"/>
<path d="M37.6285 35.264L37.8418 35.0933M36.0285 35.0933L35.8151 34.88M35.6018 36.8426L35.8365 36.6506M37.6285 37.056L37.4151 36.8426M32.7858 34.5813L32.5511 35.8613L32.7431 35.9466L32.9565 34.6026L32.7858 34.5813Z" stroke="black" stroke-width="0.0426668"/>
<path d="M32.9149 34.432C33.0215 34.368 33.1709 34.4533 33.4269 34.1547C33.8322 34.5173 33.4269 34.5813 33.3842 34.944C33.2775 34.9867 33.1922 34.6453 32.8935 34.624L32.4029 34.5813L32.5095 34.432H32.9149Z" fill="white" stroke="black" stroke-width="0.0426668"/>
<path d="M32.744 34.6666L32.7867 34.3039C32.8507 34.1546 33 34.2826 33 34.3466L32.9573 34.7093L32.744 34.6666Z" fill="white" stroke="black" stroke-width="0.0426668"/>
<path fill-rule="evenodd" clip-rule="evenodd" d="M33.9385 35.712V36.0534C34.0665 36.096 34.0452 36.1814 34.0452 36.3094V37.312C34.0665 37.3974 34.1945 37.3974 34.2585 37.44C34.3225 37.504 34.3012 37.6107 34.0452 37.6534L33.8319 37.6747C33.5119 37.6107 33.4479 37.504 33.6185 37.4614C33.6825 37.4187 33.8105 37.376 33.8319 37.3334V37.0774H33.6185C33.5759 37.0774 33.4692 36.9494 33.4692 36.8427V36.3094C33.4692 36.0107 33.6825 35.968 33.7679 35.9894V35.712H33.9385ZM33.5972 36.288C33.5972 36.2027 33.7252 36.1174 33.7679 36.1174C33.8105 36.1174 33.9172 36.224 33.9172 36.3094V36.5227C33.9172 36.608 33.8532 36.864 33.7252 36.8854C33.6825 36.8854 33.5972 36.8 33.5972 36.7147V36.288Z" fill="#F1B517" stroke="black" stroke-width="0.0426668"/>
<path d="M35.3244 36.7573C35.4737 36.7147 35.4737 37.0133 35.4737 37.0133H35.2604C35.1537 37.056 35.0897 37.184 35.1324 37.2693C35.1964 37.312 35.6017 37.1627 35.623 37.2693C35.559 37.6747 35.0044 37.824 34.8124 37.6533C34.6204 37.4613 34.5777 37.0133 35.1964 36.864L35.3244 36.7573ZM35.1964 36.8853L35.2604 37.0133L35.1964 36.8853Z" fill="white"/>
<path d="M35.2604 37.0133H35.4737C35.4737 37.0133 35.4737 36.7147 35.3244 36.7573L35.1964 36.864C34.5777 37.0133 34.6204 37.4613 34.8124 37.6533C35.0044 37.824 35.559 37.6747 35.623 37.2693C35.6017 37.1627 35.1964 37.312 35.1324 37.2693C35.0897 37.184 35.1537 37.056 35.2604 37.0133ZM35.2604 37.0133L35.1964 36.8853" stroke="black" stroke-width="0.0426668"/>
<path d="M39.4411 36.9067L39.6544 36.0533L39.4411 36.9067ZM39.2064 36.864L39.5264 36.2027L39.2064 36.864ZM38.6731 36.6933L39.3771 36.3093L38.6731 36.6933ZM38.3531 36.608L39.6758 36.032L38.3531 36.608Z" fill="#F1B517"/>
<path d="M39.4411 36.9067L39.6544 36.0533M39.2064 36.864L39.5264 36.2027M38.6731 36.6933L39.3771 36.3093M38.3531 36.608L39.6758 36.032" stroke="black" stroke-width="0.0426668"/>
<path d="M40.466 35.4133L41.0207 35.4347C41.0634 35.456 40.914 35.6267 40.9354 35.6693C41.0634 35.904 41.874 35.8827 41.938 35.84C42.0447 35.7333 41.1914 35.6693 41.17 35.6267C41.17 35.5413 41.298 35.3707 41.2767 35.264C41.2767 35.1147 40.914 35.0507 40.914 35.0507L40.466 35.4133Z" fill="#D20014" stroke="#D20014" stroke-width="0.0426668"/>
<path d="M39.8253 35.84L40.8919 34.944C40.8919 34.944 40.9559 34.9013 40.9986 34.944C41.0413 34.9867 40.9986 35.0293 40.9986 35.0293L39.8466 35.968L39.8253 35.8613V35.84Z" fill="#503200" stroke="black" stroke-width="0.0426668"/>
<path d="M38.7589 36.736L39.6549 35.968L39.7189 35.7546L39.8896 35.8826C39.9536 35.9253 40.0176 36.0533 40.0176 36.0533H39.7829L39.0149 36.7786L38.7802 36.736H38.7589Z" fill="#F1B517" stroke="black" stroke-width="0.0426668"/>
<path d="M35.7081 37.9306C35.6256 37.9306 35.5588 37.8638 35.5588 37.7813C35.5588 37.6988 35.6256 37.632 35.7081 37.632C35.7906 37.632 35.8574 37.6988 35.8574 37.7813C35.8574 37.8638 35.7906 37.9306 35.7081 37.9306Z" fill="#F1B517" stroke="black" stroke-width="0.0426668"/>
<path d="M36.1143 37.632C36.0319 37.632 35.965 37.5652 35.965 37.4827C35.965 37.4002 36.0319 37.3334 36.1143 37.3334C36.1968 37.3334 36.2637 37.4002 36.2637 37.4827C36.2637 37.5652 36.1968 37.632 36.1143 37.632Z" fill="#F1B517" stroke="black" stroke-width="0.0426668"/>
<path d="M36.6475 37.8239C36.5651 37.8239 36.4982 37.7571 36.4982 37.6746C36.4982 37.5921 36.5651 37.5253 36.6475 37.5253C36.73 37.5253 36.7969 37.5921 36.7969 37.6746C36.7969 37.7571 36.73 37.8239 36.6475 37.8239Z" fill="#F1B517" stroke="black" stroke-width="0.0426668"/>
<path d="M37.4796 37.9947C37.3971 37.9947 37.3302 37.9279 37.3302 37.8454C37.3302 37.7629 37.3971 37.696 37.4796 37.696C37.562 37.696 37.6289 37.7629 37.6289 37.8454C37.6289 37.9279 37.562 37.9947 37.4796 37.9947Z" fill="#F1B517" stroke="black" stroke-width="0.0426668"/>
<path d="M37.8429 38.0373C37.7604 38.0373 37.6935 37.9705 37.6935 37.888C37.6935 37.8055 37.7604 37.7386 37.8429 37.7386C37.9253 37.7386 37.9922 37.8055 37.9922 37.888C37.9922 37.9705 37.9253 38.0373 37.8429 38.0373Z" fill="#F1B517" stroke="black" stroke-width="0.0426668"/>
<path d="M38.2042 38.0373C38.1217 38.0373 38.0548 37.9705 38.0548 37.888C38.0548 37.8055 38.1217 37.7386 38.2042 37.7386C38.2867 37.7386 38.3535 37.8055 38.3535 37.888C38.3535 37.9705 38.2867 38.0373 38.2042 38.0373Z" fill="#F1B517" stroke="black" stroke-width="0.0426668"/>
<path d="M38.546 38.0373C38.4635 38.0373 38.3966 37.9705 38.3966 37.888C38.3966 37.8055 38.4635 37.7386 38.546 37.7386C38.6285 37.7386 38.6953 37.8055 38.6953 37.888C38.6953 37.9705 38.6285 38.0373 38.546 38.0373Z" fill="#F1B517" stroke="black" stroke-width="0.0426668"/>
<path d="M38.3761 37.76C38.2936 37.76 38.2267 37.6931 38.2267 37.6106C38.2267 37.5282 38.2936 37.4613 38.3761 37.4613C38.4585 37.4613 38.5254 37.5282 38.5254 37.6106C38.5254 37.6931 38.4585 37.76 38.3761 37.76Z" fill="#F1B517" stroke="black" stroke-width="0.0426668"/>
<path d="M38.0343 37.7813C37.9518 37.7813 37.8849 37.7145 37.8849 37.632C37.8849 37.5495 37.9518 37.4827 38.0343 37.4827C38.1167 37.4827 38.1836 37.5495 38.1836 37.632C38.1836 37.7145 38.1167 37.7813 38.0343 37.7813Z" fill="#F1B517" stroke="black" stroke-width="0.0426668"/>
<path d="M37.7139 37.7386C37.6315 37.7386 37.5646 37.6717 37.5646 37.5893C37.5646 37.5068 37.6315 37.4399 37.7139 37.4399C37.7964 37.4399 37.8633 37.5068 37.8633 37.5893C37.8633 37.6717 37.7964 37.7386 37.7139 37.7386Z" fill="#F1B517" stroke="black" stroke-width="0.0426668"/>
<path d="M37.8643 37.4826C37.7819 37.4826 37.715 37.4158 37.715 37.3333C37.715 37.2508 37.7819 37.184 37.8643 37.184C37.9468 37.184 38.0137 37.2508 38.0137 37.3333C38.0137 37.4158 37.9468 37.4826 37.8643 37.4826Z" fill="#F1B517" stroke="black" stroke-width="0.0426668"/>
<path d="M38.2042 37.4613C38.1217 37.4613 38.0548 37.3944 38.0548 37.3119C38.0548 37.2295 38.1217 37.1626 38.2042 37.1626C38.2867 37.1626 38.3535 37.2295 38.3535 37.3119C38.3535 37.3944 38.2867 37.4613 38.2042 37.4613Z" fill="#F1B517" stroke="black" stroke-width="0.0426668"/>
<path fill-rule="evenodd" clip-rule="evenodd" d="M34.8547 37.9733C34.8547 37.9093 35.0254 37.9306 35.0254 37.8453C35.0254 37.76 34.7694 37.8453 34.7481 37.9093C34.5987 37.7813 34.5347 37.8666 34.4494 37.9093C34.3214 37.7386 34.1721 37.7386 34.0227 37.8666C33.9374 37.7813 33.7241 37.8026 33.6601 37.9093C33.5107 37.7813 33.3827 37.8026 33.2974 37.9093C33.2547 37.8453 33.1907 37.8453 33.1481 37.9093C33.0841 37.76 32.8921 37.8026 32.8067 37.9093C32.7427 37.824 32.6574 37.888 32.5721 37.9306C32.5081 37.888 32.4014 37.888 32.4014 37.9306C32.4014 38.016 32.5294 37.9946 32.5294 38.0586C32.5294 38.1013 32.4441 38.0586 32.4441 38.144C32.4441 38.208 32.5721 38.2293 32.5934 38.144C32.6574 38.2293 32.8281 38.1866 32.8494 38.1013C32.8654 38.1195 32.8851 38.134 32.9072 38.144C32.9292 38.1539 32.9532 38.1591 32.9774 38.1591C33.0016 38.1591 33.0255 38.1539 33.0476 38.144C33.0697 38.134 33.0894 38.1195 33.1054 38.1013C33.1694 38.144 33.2547 38.144 33.2761 38.1013C33.3827 38.208 33.5747 38.1866 33.6387 38.0586H33.7027C33.7227 38.0813 33.7474 38.0995 33.7749 38.112C33.8025 38.1244 33.8325 38.1309 33.8627 38.1309C33.893 38.1309 33.9229 38.1244 33.9505 38.112C33.9781 38.0995 34.0027 38.0813 34.0227 38.0586C34.2147 38.1866 34.3214 38.144 34.4281 38.0586C34.5347 38.208 34.7267 38.208 34.7481 38.0586C34.8334 38.1226 35.0041 38.144 35.0041 38.0586C35.0041 38.016 34.8547 38.0373 34.8547 37.9733ZM34.5134 37.9946C34.5134 38.0373 34.5561 38.0586 34.5987 38.0586C34.6414 38.0586 34.6841 38.0373 34.6841 37.9946C34.6841 37.952 34.6627 37.952 34.5987 37.952C34.5347 37.952 34.5134 37.9733 34.5134 37.9946ZM34.1081 37.952C34.1081 37.9946 34.1721 38.016 34.2361 38.016C34.3001 38.016 34.3427 37.9946 34.3427 37.952C34.3427 37.9306 34.3001 37.888 34.2361 37.888C34.1721 37.888 34.1294 37.9306 34.1294 37.952H34.1081ZM33.3614 37.9946C33.3614 38.0373 33.4041 38.0586 33.4681 38.0586C33.5321 38.0586 33.5534 38.0373 33.5534 37.9946C33.5534 37.9733 33.5107 37.9306 33.4681 37.9306C33.4254 37.9306 33.3614 37.952 33.3614 37.9946ZM33.7667 37.9946C33.7667 38.0373 33.8094 38.0586 33.8734 38.0586C33.9374 38.0586 33.9587 38.0373 33.9587 37.9733C33.9587 37.9306 33.9161 37.888 33.8734 37.888C33.8307 37.888 33.7667 37.9306 33.7667 37.9733V37.9946ZM32.9134 37.9946C32.9134 38.016 32.9347 38.0586 32.9774 38.0586C33.0414 38.0586 33.0841 38.016 33.0841 37.9733C33.0841 37.9306 33.0414 37.9093 32.9774 37.9093C32.9347 37.9093 32.8921 37.9306 32.8921 37.9733L32.9134 37.9946ZM33.1694 37.9946C33.1694 38.0373 33.1694 38.0586 33.2121 38.0586C33.2547 38.0586 33.2761 38.0373 33.2761 37.9946C33.2761 37.952 33.2547 37.952 33.2121 37.952L33.1694 37.9946ZM32.6574 38.016C32.6574 38.0586 32.6574 38.1013 32.7214 38.1013C32.7427 38.1013 32.7854 38.0586 32.7854 38.016C32.7854 37.9733 32.7427 37.952 32.7214 37.952C32.6787 37.952 32.6574 37.9733 32.6574 38.016Z" fill="#F1B517" stroke="black" stroke-width="0.0426668"/>
<path d="M31.9541 35.3494C31.4208 35.3494 30.9941 35.5627 30.9941 35.7974C30.9941 35.84 30.9941 35.8827 31.0368 35.9254C31.1435 36.0534 31.5275 36.1387 31.9755 36.1387C32.4021 36.1387 32.7435 36.0747 32.8715 35.9467C32.9141 35.904 32.9355 35.8614 32.9355 35.7974C32.9355 35.5627 32.5088 35.3707 31.9541 35.3707V35.3494Z" fill="#0A328C" stroke="#0A328C" stroke-width="0.0426668"/>
<path d="M32.9355 35.84V37.3333C32.9355 37.5253 32.5088 37.6533 31.9755 37.6533C31.4421 37.6533 30.9941 37.5253 30.9941 37.3333V35.84C30.9941 36.0106 31.4208 36.16 31.9541 36.16C32.5088 36.16 32.9355 36.0106 32.9355 35.84Z" fill="#F1B517" stroke="black" stroke-width="0.0426668"/>
<path d="M30.9941 35.84V36.0533L31.4635 37.5466L31.8475 36.3946L32.2741 37.568L32.5515 36.4586L32.9355 37.2053V36.8L32.5941 36.0746C32.5521 36.0905 32.5094 36.1048 32.4661 36.1173L32.2528 36.928L31.9328 36.16C31.883 36.1611 31.8332 36.1611 31.7835 36.16L31.4635 36.928L31.1221 35.9893C31.0368 35.9466 30.9941 35.8826 30.9941 35.84Z" fill="#D20014" stroke="#D20014" stroke-width="0.0426668"/>
<path d="M32.9355 37.056V37.3334C32.9355 37.5254 32.5088 37.6534 31.9755 37.6534C31.4421 37.6534 30.9941 37.5254 30.9941 37.3334V37.056C30.9941 37.248 31.4208 37.376 31.9541 37.376C32.5088 37.376 32.9355 37.248 32.9355 37.056Z" fill="#0A328C" stroke="#0A328C" stroke-width="0.0426668"/>
<path d="M32.3595 37.3334L32.1248 37.376V37.6534L32.3808 37.632L32.3595 37.3334ZM31.3355 37.312V37.5894L31.5701 37.632V37.3547C31.4911 37.3454 31.4127 37.3311 31.3355 37.312ZM30.9941 37.056V37.3334C30.9941 37.3974 31.0368 37.44 31.1008 37.4827V37.2054C31.0368 37.1627 30.9941 37.12 30.9941 37.056ZM32.9355 37.0987C32.9355 37.1414 32.8501 37.2054 32.7648 37.248V37.5254C32.8715 37.4827 32.9355 37.4187 32.9355 37.3334V37.0987Z" fill="#F1B517" stroke="black" stroke-width="0.0426668"/>
<path d="M32.9355 35.84V37.3333C32.9355 37.5253 32.5088 37.6533 31.9755 37.6533C31.4421 37.6533 30.9941 37.5253 30.9941 37.3333V35.84" stroke="black" stroke-width="0.0426668"/>
<path d="M32.7217 35.7333C32.7217 35.8399 32.3804 35.9466 31.975 35.9466C31.5484 35.9466 31.207 35.8399 31.207 35.7333C31.207 35.6266 31.5484 35.5413 31.9537 35.5413C32.3804 35.5413 32.7217 35.6266 32.7217 35.7546V35.7333Z" fill="white" stroke="white" stroke-width="0.0426668"/>
<path d="M31.7193 35.8826L31.762 36.1386H31.9753L31.9967 35.8826H31.7193ZM32.594 35.8186L32.3807 35.8613L32.402 36.1173L32.6153 36.0746L32.594 35.8186ZM31.442 35.392L31.2927 35.456L31.314 35.6693L31.442 35.6266V35.392ZM31.954 35.328H31.89L31.9327 35.584H32.0607L32.1033 35.328C32.0536 35.3262 32.0038 35.3262 31.954 35.328ZM32.53 35.4133L32.5087 35.6266L32.658 35.6906V35.4773C32.6168 35.4531 32.574 35.4317 32.53 35.4133ZM31.1433 36.0106L31.186 35.7333L30.9727 35.6266V35.9466L31.1433 36.0106ZM32.9353 35.9466V35.6693L32.7647 35.7333L32.9353 35.9466ZM34.9193 34.1333C35.09 34.1333 35.346 34.3466 35.3673 34.6666C35.3673 34.88 35.0047 34.88 35.0047 34.88C35.0047 34.9866 34.7913 35.072 34.6207 35.0933C34.45 35.0933 34.6633 34.7733 34.6633 34.7733C34.5567 34.496 34.706 34.1973 34.706 34.1973L34.9193 34.1333Z" fill="#F1B517" stroke="black" stroke-width="0.0426668"/>
<path d="M34.6641 34.7733H34.8347C34.8347 34.7733 34.8347 34.8373 34.8774 34.8373C34.9201 34.8373 34.9414 34.752 34.9414 34.752H35.1974" fill="#F1B517"/>
<path d="M34.6641 34.7733H34.8347C34.8347 34.7733 34.8347 34.8373 34.8774 34.8373C34.9201 34.8373 34.9414 34.752 34.9414 34.752H35.1974" stroke="black" stroke-width="0.0426668"/>
<path d="M35.0056 34.3254C35.1549 34.2187 35.0269 34.0054 34.9202 34.0054H34.7069C34.5789 34.0054 34.4082 34.1334 34.4296 34.2187C34.4296 34.3254 34.5149 34.368 34.6002 34.3467C34.6429 34.3467 34.7282 34.2187 34.7709 34.2187C34.8349 34.2187 34.9842 34.3467 35.0056 34.3254Z" fill="#D20014" stroke="#F1B517" stroke-width="0.0426668"/>
<path fill-rule="evenodd" clip-rule="evenodd" d="M24.3605 37.2906C24.2325 37.312 24.2112 37.4613 24.2538 37.6107C23.6992 37.76 23.1872 37.9733 22.6752 38.1226C22.6538 38.016 22.9312 37.7386 22.9312 37.7386C22.9952 37.76 23.0592 37.9307 23.0592 37.9307C23.0592 37.5893 23.4005 37.376 23.4005 37.376C23.1872 37.3333 22.6112 37.5893 22.5472 37.6747C22.5472 37.6747 22.7605 37.632 22.8032 37.6747C22.8032 37.6747 22.3338 38.1653 22.3125 38.3147C22.3978 38.464 23.1658 38.592 23.1658 38.592C23.1658 38.6346 22.9525 38.8053 22.9525 38.8053C23.2725 38.848 23.7418 38.6347 23.8698 38.5067C23.8698 38.5067 23.5072 38.464 23.2298 38.2293C23.2298 38.2293 23.2725 38.3787 23.2298 38.4427C23.2298 38.4427 22.8032 38.3147 22.7392 38.2293C22.7392 38.2293 23.8058 37.9733 24.3178 37.8026C24.3392 37.9093 24.4458 38.08 24.5738 38.0373C24.6378 38.016 24.6165 37.8666 24.5738 37.7386C24.5912 37.7541 24.6114 37.7658 24.6334 37.7732C24.6554 37.7805 24.6787 37.7833 24.7018 37.7813C24.7872 37.7813 24.8512 37.7173 24.8512 37.632C24.8512 37.5466 24.7872 37.4826 24.7018 37.4826C24.6694 37.4844 24.6381 37.4953 24.6116 37.5142C24.5852 37.5331 24.5647 37.5592 24.5525 37.5893C24.5312 37.4826 24.4672 37.2906 24.3818 37.312L24.3605 37.2906ZM24.7872 37.632C24.7872 37.6746 24.7445 37.696 24.7018 37.696C24.6919 37.6995 24.6812 37.7005 24.6708 37.699C24.6603 37.6974 24.6504 37.6932 24.642 37.6869C24.6335 37.6805 24.6268 37.6722 24.6223 37.6626C24.6179 37.6531 24.6159 37.6425 24.6165 37.632C24.6165 37.5893 24.6592 37.5466 24.7018 37.5466C24.7445 37.5466 24.7658 37.5893 24.7658 37.632H24.7872Z" fill="#F1B517" stroke="black" stroke-width="0.0426668"/>
<path d="M41.1708 37.952C41.2134 37.8667 41.1708 37.4827 41.1708 37.4827C41.0641 37.4827 40.9574 37.632 40.9574 37.632C41.0641 37.2907 40.7868 36.7787 40.7868 36.7787C40.9788 36.8 41.6188 37.4187 41.6401 37.5467C41.6401 37.5467 41.3628 37.44 41.3201 37.4614C41.3841 37.7814 41.5974 37.9307 41.6828 38.1014C41.6828 38.1014 41.3201 38.1654 41.3414 38.4854H41.1068C41.0214 38.3787 41.1281 38.208 41.1281 38.208L39.4854 37.5254C39.3788 37.4827 39.1441 37.3547 39.1868 37.2267C39.2081 37.12 39.6134 37.2907 39.6988 37.3334L41.1708 37.952Z" fill="#F1B517" stroke="black" stroke-width="0.0426668"/>
<path d="M39.5922 37.6534L39.8055 37.312C39.8695 37.2054 39.7202 37.0987 39.6135 37.2267L39.4002 37.5467C39.3148 37.7387 39.5068 37.7814 39.6135 37.6534H39.5922Z" fill="#F1B517" stroke="black" stroke-width="0.0426668"/>
<path d="M28.0262 38.4749L28.0137 38.0999L27.5387 38.1124L27.5137 38.5374L28.0262 38.4749Z" fill="white" stroke="black" stroke-width="0.0375"/>
<path d="M24.5887 39.0249L23.9637 38.6749C26.5512 38.9124 27.0887 37.9999 27.7137 37.9499C28.0887 37.9249 28.1512 38.3749 27.4137 38.1624L27.6012 38.6374C27.6012 38.6374 25.7512 39.6749 23.9512 39.2624L24.5762 39.0124L24.5887 39.0249ZM35.9012 38.4749V38.0999H36.4887L36.5137 38.5249L35.8887 38.4749H35.9012Z" fill="white" stroke="black" stroke-width="0.0375"/>
<path d="M39.452 38.9249L40.052 38.5999C37.077 38.6999 37.752 38.1124 36.2645 37.9499C35.8895 37.9124 35.5895 38.4124 36.5645 38.1624L36.377 38.6374H36.8395C37.825 39.2345 39.0064 39.4187 40.127 39.1499L39.452 38.9249Z" fill="white" stroke="black" stroke-width="0.0375"/>
<path d="M27.4004 38.1624V38.8374C27.4004 38.8374 29.0504 39.4624 31.9879 39.4624C34.9379 39.4624 36.5754 38.8374 36.5754 38.8374V38.1624C36.5754 38.1624 35.3254 38.7374 31.9879 38.7374C28.6629 38.7374 27.4004 38.1624 27.4004 38.1624Z" fill="white" stroke="black" stroke-width="0.0375"/>
<path d="M27.6387 38.85L27.7887 38.35L27.8512 38.375L27.7262 38.8L27.9762 38.875L27.9637 38.9375L27.6387 38.8375V38.85ZM28.1262 38.625V38.525L28.1512 38.45L28.2262 38.4625L28.2012 38.55L28.1637 38.6375L28.1262 38.625ZM28.8262 38.5875L28.9012 38.6125L28.8387 38.9C28.8387 38.95 28.8137 38.9875 28.7887 39.025L28.7137 39.075C28.6727 39.0856 28.6297 39.0856 28.5887 39.075C28.5432 39.0701 28.5 39.0528 28.4637 39.025C28.4437 39.0045 28.4306 38.9783 28.4262 38.95V38.825L28.4887 38.525L28.5637 38.5375L28.5012 38.825C28.4887 38.875 28.4887 38.9125 28.5012 38.925C28.5012 38.95 28.5012 38.975 28.5262 38.9875L28.5887 39.0125H28.7137C28.7387 38.9875 28.7512 38.95 28.7637 38.8875L28.8262 38.5875ZM28.9012 39.125L28.9887 38.625H29.0637L29.2762 39.075L29.3387 38.675L29.4012 38.6875L29.3137 39.1875H29.2512L29.0387 38.7375L28.9762 39.1375H28.9012V39.125ZM29.4512 39.2125L29.5262 38.7125H29.5887L29.5137 39.2125H29.4512ZM29.6512 38.9875C29.6548 38.916 29.6862 38.8487 29.7387 38.8C29.7665 38.7779 29.7988 38.762 29.8333 38.7534C29.8678 38.7448 29.9037 38.7436 29.9387 38.75C29.9887 38.75 30.0262 38.7625 30.0637 38.7875C30.1012 38.825 30.1262 38.85 30.1387 38.9C30.1512 38.9375 30.1637 38.9875 30.1512 39.0375C30.1442 39.0824 30.1271 39.1251 30.1012 39.1625C30.0762 39.2125 30.0387 39.2375 30.0012 39.25C29.962 39.268 29.9192 39.2766 29.8762 39.275C29.8307 39.2701 29.7875 39.2528 29.7512 39.225C29.7012 39.2 29.6762 39.1625 29.6637 39.1125C29.6499 39.0723 29.6456 39.0295 29.6512 38.9875ZM29.7262 38.9875C29.7137 39.0625 29.7262 39.1125 29.7512 39.15C29.7887 39.1875 29.8262 39.2125 29.8762 39.2125C29.9262 39.2125 29.9762 39.2125 30.0137 39.175C30.0512 39.1375 30.0762 39.1 30.0762 39.025C30.0847 38.988 30.0847 38.9495 30.0762 38.9125C30.0635 38.8817 30.0417 38.8555 30.0137 38.8375C29.9885 38.8171 29.9582 38.8042 29.9262 38.8C29.8762 38.8 29.8387 38.8 29.8012 38.8375C29.7512 38.8625 29.7262 38.925 29.7262 39V38.9875ZM30.2137 39.3L30.2512 38.7875H30.3262L30.5762 39.2125L30.6012 38.8125H30.6762L30.6262 39.3375H30.5637L30.3137 38.9L30.2762 39.3H30.2137ZM30.9637 39.35L30.9762 38.8375L31.3512 38.85L31.3387 38.9125H31.0512V39.0625H31.3012L31.2887 39.125H31.0387V39.35H30.9637ZM31.3387 39.3625L31.5637 38.8625H31.6387L31.8512 39.375H31.7637L31.7012 39.2125H31.5012L31.4387 39.375H31.3637L31.3387 39.3625ZM31.5012 39.1625H31.6887L31.6387 39.025C31.6246 38.988 31.612 38.9505 31.6012 38.9125C31.6012 38.95 31.5762 38.975 31.5637 39.0125L31.5012 39.1625ZM31.9137 39.375V38.8625H31.9887V39.375H31.9137ZM32.2387 39.375V38.925H32.0637V38.8625H32.4762V38.9125H32.3012L32.3137 39.375H32.2387ZM32.7637 39.3625L32.7387 38.85H32.8137L32.8262 39.3L33.0887 39.2875V39.35H32.7637V39.3625ZM33.1262 39.35L33.2887 38.825H33.3637L33.6137 39.3125H33.5387L33.4637 39.1625L33.2387 39.1875L33.2012 39.3375H33.1262V39.35ZM33.2512 39.125H33.4387L33.3762 38.975C33.3582 38.9423 33.3415 38.909 33.3262 38.875C33.3206 38.9089 33.3122 38.9424 33.3012 38.975L33.2512 39.125ZM33.8762 39.2875L33.8262 38.7875L34.1762 38.7375V38.8L33.9012 38.8375L33.9137 38.9875L34.1637 38.9625V39.025L33.9262 39.05L33.9512 39.275L33.8887 39.2875H33.8762ZM34.2762 39C34.2637 38.9125 34.2762 38.8375 34.3137 38.7875C34.3343 38.7596 34.3605 38.7363 34.3906 38.7191C34.4208 38.7018 34.4542 38.6911 34.4887 38.6875C34.5318 38.6849 34.5749 38.6935 34.6137 38.7125C34.6637 38.7125 34.7012 38.75 34.7262 38.7875C34.7532 38.8273 34.7706 38.8729 34.7771 38.9206C34.7836 38.9683 34.779 39.0168 34.7637 39.0625C34.7493 39.1026 34.7231 39.1374 34.6887 39.1625C34.6512 39.1875 34.6012 39.2125 34.5637 39.2125C34.5176 39.2213 34.4699 39.217 34.4262 39.2C34.3852 39.1809 34.3505 39.1506 34.3262 39.1125C34.2998 39.0754 34.2827 39.0325 34.2762 38.9875V39ZM34.3387 38.9875C34.3512 39.05 34.3762 39.1 34.4137 39.1125C34.4512 39.15 34.5012 39.1625 34.5512 39.1625C34.6012 39.1625 34.6512 39.125 34.6762 39.0875C34.7012 39.05 34.7137 39 34.7012 38.925C34.696 38.8893 34.6832 38.8552 34.6637 38.825C34.6457 38.7969 34.6195 38.7751 34.5887 38.7625C34.5573 38.7486 34.5225 38.7442 34.4887 38.75C34.4647 38.7512 34.4412 38.7575 34.4197 38.7682C34.3982 38.779 34.3791 38.794 34.3637 38.8125C34.3387 38.85 34.3387 38.9125 34.3512 38.9875H34.3387ZM34.9012 39.1625L34.8012 38.6625L35.0387 38.6125H35.1512C35.1762 38.6125 35.2012 38.625 35.2137 38.65C35.2387 38.6625 35.2512 38.6875 35.2512 38.725C35.2541 38.7562 35.2452 38.7875 35.2262 38.8125C35.2137 38.8375 35.1762 38.8625 35.1262 38.875L35.1762 38.9L35.2512 38.95L35.3637 39.075L35.2762 39.0875L35.1887 39C35.1688 38.9782 35.1479 38.9574 35.1262 38.9375C35.1149 38.9274 35.1023 38.919 35.0887 38.9125C35.0763 38.9104 35.0636 38.9104 35.0512 38.9125H34.9262L34.9762 39.15H34.9012V39.1625ZM34.9137 38.8625L35.0637 38.8375C35.1012 38.8375 35.1262 38.8375 35.1387 38.8125C35.1517 38.8051 35.1622 38.7941 35.1689 38.7807C35.1756 38.7673 35.1781 38.7523 35.1762 38.7375C35.1757 38.7247 35.1721 38.7123 35.1655 38.7014C35.159 38.6904 35.1497 38.6813 35.1387 38.675H35.0512L34.8887 38.7L34.9137 38.8625ZM35.7512 38.8125H35.8262C35.8262 38.8625 35.8137 38.9125 35.7762 38.95C35.7512 38.9875 35.7012 39.0125 35.6512 39.025C35.6062 39.0378 35.5586 39.0378 35.5137 39.025C35.4672 39.0096 35.4275 38.9787 35.4012 38.9375C35.3763 38.8996 35.3593 38.8571 35.3512 38.8125V38.675C35.3512 38.625 35.3762 38.5875 35.4137 38.5625C35.45 38.5347 35.4932 38.5174 35.5387 38.5125C35.5795 38.5007 35.6228 38.5007 35.6637 38.5125C35.7137 38.5375 35.7512 38.5625 35.7762 38.6125L35.7137 38.6375C35.6957 38.6094 35.6695 38.5876 35.6387 38.575C35.6102 38.5663 35.5797 38.5663 35.5512 38.575C35.5012 38.575 35.4762 38.5875 35.4512 38.6125C35.4276 38.6356 35.4141 38.667 35.4137 38.7C35.4072 38.7704 35.4249 38.8409 35.4637 38.9C35.4887 38.9375 35.5137 38.95 35.5387 38.9625C35.5762 38.9625 35.6012 38.975 35.6387 38.9625C35.6762 38.9625 35.7012 38.95 35.7262 38.9125C35.7512 38.8875 35.7637 38.85 35.7512 38.8125ZM35.9512 38.9375L35.8137 38.45L36.1887 38.35V38.4125L35.8887 38.5L35.9387 38.65L36.2137 38.575L36.2387 38.625L35.9512 38.7L36.0012 38.875L36.3137 38.7875L36.3387 38.85L35.9512 38.9375Z" fill="#000001"/>
</g>
<defs>
<clipPath id="clip0_10660_12471">
<rect width="64" height="64" rx="32" fill="white"/>
</clipPath>
</defs>
</svg>
