<svg width="64" height="64" viewBox="0 0 64 64" fill="none" xmlns="http://www.w3.org/2000/svg">
<g clip-path="url(#clip0_10660_12637)">
<path d="M0 0H64V64H0V0Z" fill="#18C3DF"/>
<path d="M0 21.3375H64V42.6625H0V21.3375Z" fill="white"/>
<path d="M32.0003 28.4445L30.9336 32L32.7114 32.3556L32.0003 28.4445Z" fill="#18C3DF"/>
<path d="M31.9997 28.4445L33.0664 32L31.2886 32.3556L31.9997 28.4445Z" fill="#18C3DF"/>
<path d="M35.3824 30.9013L31.6712 30.9856L31.8824 32.7862L35.3824 30.9013Z" fill="#18C3DF"/>
<path d="M35.3833 30.9013L32.3314 33.0145L31.4438 31.4336L35.3833 30.9013Z" fill="#18C3DF"/>
<path d="M28.6187 30.9013L31.6706 33.0145L32.5581 31.4336L28.6187 30.9013Z" fill="#18C3DF"/>
<path d="M28.6196 30.9013L32.3308 30.9856L32.1195 32.7862L28.6196 30.9013Z" fill="#18C3DF"/>
<path d="M34.0902 34.8765L32.8632 31.373L31.216 32.1303L34.0902 34.8765Z" fill="#18C3DF"/>
<path d="M34.0895 34.8764L31.1367 32.6269L32.3659 31.2943L34.0895 34.8764Z" fill="#18C3DF"/>
<path d="M29.9105 34.8766L32.8633 32.627L31.6341 31.2944L29.9105 34.8766Z" fill="#18C3DF"/>
<path d="M29.9098 34.8766L31.1368 31.3731L32.784 32.1304L29.9098 34.8766Z" fill="#18C3DF"/>
<path d="M49.7757 22.757L48.709 26.3125L50.4868 26.6681L49.7757 22.757Z" fill="#18C3DF"/>
<path d="M49.7751 22.757L50.8418 26.3125L49.064 26.6681L49.7751 22.757Z" fill="#18C3DF"/>
<path d="M53.1577 25.2138L49.4466 25.2981L49.6578 27.0987L53.1577 25.2138Z" fill="#18C3DF"/>
<path d="M53.1587 25.2138L50.1067 27.327L49.2192 25.7461L53.1587 25.2138Z" fill="#18C3DF"/>
<path d="M46.3941 25.2138L49.446 27.327L50.3335 25.7461L46.3941 25.2138Z" fill="#18C3DF"/>
<path d="M46.395 25.2138L50.1061 25.2981L49.8949 27.0987L46.395 25.2138Z" fill="#18C3DF"/>
<path d="M51.8656 29.189L50.6386 25.6855L48.9914 26.4428L51.8656 29.189Z" fill="#18C3DF"/>
<path d="M51.8649 29.1889L48.912 26.9394L50.1413 25.6068L51.8649 29.1889Z" fill="#18C3DF"/>
<path d="M47.6859 29.1891L50.6387 26.9395L49.4095 25.6069L47.6859 29.1891Z" fill="#18C3DF"/>
<path d="M47.6852 29.1891L48.9122 25.6856L50.5594 26.4429L47.6852 29.1891Z" fill="#18C3DF"/>
<path d="M49.7757 33.4194L48.709 36.975L50.4868 37.3305L49.7757 33.4194Z" fill="#18C3DF"/>
<path d="M49.7751 33.4194L50.8418 36.975L49.064 37.3305L49.7751 33.4194Z" fill="#18C3DF"/>
<path d="M53.1577 35.8763L49.4466 35.9605L49.6578 37.7612L53.1577 35.8763Z" fill="#18C3DF"/>
<path d="M53.1587 35.8763L50.1067 37.9895L49.2192 36.4086L53.1587 35.8763Z" fill="#18C3DF"/>
<path d="M46.3941 35.8763L49.446 37.9895L50.3335 36.4086L46.3941 35.8763Z" fill="#18C3DF"/>
<path d="M46.395 35.8763L50.1061 35.9605L49.8949 37.7612L46.395 35.8763Z" fill="#18C3DF"/>
<path d="M51.8656 39.8515L50.6386 36.348L48.9914 37.1053L51.8656 39.8515Z" fill="#18C3DF"/>
<path d="M51.8649 39.8514L48.912 37.6019L50.1413 36.2693L51.8649 39.8514Z" fill="#18C3DF"/>
<path d="M47.6859 39.8515L50.6387 37.602L49.4095 36.2694L47.6859 39.8515Z" fill="#18C3DF"/>
<path d="M47.6852 39.8516L48.9122 36.3481L50.5594 37.1054L47.6852 39.8516Z" fill="#18C3DF"/>
<path d="M14.2249 22.757L13.1582 26.3125L14.936 26.6681L14.2249 22.757Z" fill="#18C3DF"/>
<path d="M14.2243 22.757L15.291 26.3125L13.5132 26.6681L14.2243 22.757Z" fill="#18C3DF"/>
<path d="M17.607 25.2138L13.8958 25.2981L14.107 27.0987L17.607 25.2138Z" fill="#18C3DF"/>
<path d="M17.6079 25.2138L14.556 27.327L13.6684 25.7461L17.6079 25.2138Z" fill="#18C3DF"/>
<path d="M10.8433 25.2138L13.8952 27.327L14.7827 25.7461L10.8433 25.2138Z" fill="#18C3DF"/>
<path d="M10.8442 25.2138L14.5554 25.2981L14.3442 27.0987L10.8442 25.2138Z" fill="#18C3DF"/>
<path d="M16.3148 29.189L15.0878 25.6855L13.4406 26.4428L16.3148 29.189Z" fill="#18C3DF"/>
<path d="M16.3141 29.1889L13.3613 26.9394L14.5905 25.6068L16.3141 29.1889Z" fill="#18C3DF"/>
<path d="M12.1351 29.1891L15.088 26.9395L13.8587 25.6069L12.1351 29.1891Z" fill="#18C3DF"/>
<path d="M12.1344 29.1891L13.3614 25.6856L15.0086 26.4429L12.1344 29.1891Z" fill="#18C3DF"/>
<path d="M14.2249 33.4194L13.1582 36.975L14.936 37.3305L14.2249 33.4194Z" fill="#18C3DF"/>
<path d="M14.2243 33.4194L15.291 36.975L13.5132 37.3305L14.2243 33.4194Z" fill="#18C3DF"/>
<path d="M17.607 35.8763L13.8958 35.9605L14.107 37.7612L17.607 35.8763Z" fill="#18C3DF"/>
<path d="M17.6079 35.8763L14.556 37.9895L13.6684 36.4086L17.6079 35.8763Z" fill="#18C3DF"/>
<path d="M10.8433 35.8763L13.8952 37.9895L14.7827 36.4086L10.8433 35.8763Z" fill="#18C3DF"/>
<path d="M10.8442 35.8763L14.5554 35.9605L14.3442 37.7612L10.8442 35.8763Z" fill="#18C3DF"/>
<path d="M16.3148 39.8515L15.0878 36.348L13.4406 37.1053L16.3148 39.8515Z" fill="#18C3DF"/>
<path d="M16.3141 39.8514L13.3613 37.6019L14.5905 36.2693L16.3141 39.8514Z" fill="#18C3DF"/>
<path d="M12.1351 39.8515L15.088 37.602L13.8587 36.2694L12.1351 39.8515Z" fill="#18C3DF"/>
<path d="M12.1344 39.8516L13.3614 36.3481L15.0086 37.1054L12.1344 39.8516Z" fill="#18C3DF"/>
</g>
<defs>
<clipPath id="clip0_10660_12637">
<rect width="64" height="64" rx="32" fill="white"/>
</clipPath>
</defs>
</svg>
