<svg width="64" height="64" viewBox="0 0 64 64" fill="none" xmlns="http://www.w3.org/2000/svg">
<g clip-path="url(#clip0_10660_12720)">
<path d="M0 0H64V64H0" fill="#EC1B2E"/>
<path d="M35.2868 14.9C25.3743 14.25 20.8243 27.25 30.1993 32.05C26.9493 29.25 27.6243 25.125 28.9368 23L29.1743 23.125C27.4493 26.075 27.7743 29.725 30.5493 32C28.9743 30.475 29.3743 27.125 32.0743 25.9C34.7743 24.675 35.0243 20.9875 34.1243 19.7625C32.8993 17.6292 33.2868 16.0041 35.2868 14.8875V14.9ZM30.4868 22.5L29.8993 23.425L29.6743 22.35L28.5993 22.0625L29.5743 21.525L29.4993 20.4L30.3118 21.175L31.3493 20.7625L30.8868 21.7625L31.5868 22.625L30.4868 22.5Z" fill="white"/>
<path d="M49.0476 31.0363C46.6026 21.4081 32.8329 21.098 31.1648 31.4974C32.8235 27.5413 36.9552 26.9085 39.3817 27.5001L39.3363 27.7646C35.9976 27.0357 32.6267 28.4727 31.3205 31.8149C32.2842 29.8457 35.5938 29.1909 37.5932 31.3802C39.5926 33.5695 43.1769 32.6678 44.0638 31.4333C45.7142 29.609 47.3794 29.4754 49.0594 31.0324L49.0476 31.0363ZM40.3362 28.8198L39.275 28.5469L40.2278 28.0007L40.1691 26.8894L40.9815 27.6506L42.0283 27.2317L41.5423 28.2439L42.2552 29.1031L41.1613 28.9723L40.5573 29.9045L40.3362 28.8198Z" fill="white"/>
<path d="M37.9525 49.109C46.354 43.8085 42.3938 30.6168 31.9879 32.244C36.263 32.599 38.1415 36.3329 38.3287 38.8236L38.0631 38.862C37.7247 35.4615 35.3164 32.6996 31.7341 32.4902C33.9047 32.7982 35.5502 35.7435 34.0859 38.3216C32.6216 40.8996 34.5868 44.0298 36.0349 44.4919C38.2799 45.4977 38.9216 47.0402 37.9599 49.1191L37.9525 49.109ZM37.3686 40.1391L37.3002 39.0455L38.1141 39.7829L39.1528 39.3836L38.68 40.3916L39.4019 41.2576L38.289 41.1082L37.6921 42.0518L37.4785 40.9709L36.4053 40.6846L37.3686 40.1391Z" fill="white"/>
<path d="M17.3357 44.1422C24.973 50.4945 36.2952 42.6517 31.532 33.2579C32.5155 37.4335 29.5448 40.3739 27.234 41.3216L27.1153 41.0809C30.2448 39.7082 32.1273 36.5643 31.2195 33.0927C31.5973 35.2522 29.3046 37.7273 26.4003 37.1313C23.4959 36.5353 21.1262 39.3716 21.1342 40.8917C20.8713 43.3376 19.6027 44.4245 17.3283 44.1523L17.3357 44.1422ZM25.6861 40.8151L26.7051 40.4121L26.2553 41.414L26.956 42.2785L25.8512 42.1402L25.2507 43.0944L25.0489 41.9899L23.967 41.7138L24.929 41.1766L24.8697 40.0674L25.6861 40.8151Z" fill="white"/>
<path d="M15.688 22.9998C12.0067 32.2263 22.9644 40.5709 30.4265 33.138C26.7592 35.3637 23.0447 33.447 21.4293 31.5421L21.6216 31.3548C23.8941 33.907 27.4659 34.7258 30.4871 32.7897C28.55 33.8163 25.4876 32.4007 25.1569 29.4543C24.8262 26.5079 21.3964 25.1306 19.9533 25.608C17.5458 26.1138 16.1201 25.2432 15.6761 22.996L15.688 22.9998ZM21.4327 29.9134L22.1309 30.758L21.039 30.6398L20.4334 31.5734L20.2235 30.48L19.1304 30.2037L20.1185 29.6704L20.0468 28.5562L20.8549 29.3051L21.8915 28.9059L21.4327 29.9134Z" fill="white"/>
</g>
<defs>
<clipPath id="clip0_10660_12720">
<rect width="64" height="64" rx="32" fill="white"/>
</clipPath>
</defs>
</svg>
