<svg width="64" height="64" viewBox="0 0 64 64" fill="none" xmlns="http://www.w3.org/2000/svg">
<g clip-path="url(#clip0_10660_12740)">
<path d="M0 0H64V21.3375H0V0Z" fill="#FF9933"/>
<path d="M0 21.3375H64V42.6625H0V21.3375Z" fill="white"/>
<path d="M0 42.6625H64V64H0V42.6625Z" fill="#128807"/>
<path d="M32.0001 40.5333C36.7129 40.5333 40.5334 36.7128 40.5334 32C40.5334 27.2872 36.7129 23.4667 32.0001 23.4667C27.2873 23.4667 23.4668 27.2872 23.4668 32C23.4668 36.7128 27.2873 40.5333 32.0001 40.5333Z" fill="#000088"/>
<path d="M31.9999 39.4666C36.1236 39.4666 39.4665 36.1237 39.4665 32C39.4665 27.8763 36.1236 24.5333 31.9999 24.5333C27.8761 24.5333 24.5332 27.8763 24.5332 32C24.5332 36.1237 27.8761 39.4666 31.9999 39.4666Z" fill="white"/>
<path d="M31.9992 33.4934C32.8239 33.4934 33.4925 32.8248 33.4925 32C33.4925 31.1753 32.8239 30.5067 31.9992 30.5067C31.1744 30.5067 30.5059 31.1753 30.5059 32C30.5059 32.8248 31.1744 33.4934 31.9992 33.4934Z" fill="#000088"/>
<path d="M39.3527 33.3579C39.563 33.3856 39.7559 33.2376 39.7836 33.0273C39.8113 32.8171 39.6632 32.6242 39.453 32.5965C39.2427 32.5688 39.0498 32.7168 39.0221 32.9271C38.9945 33.1374 39.1425 33.3303 39.3527 33.3579Z" fill="#000088"/>
<path d="M32.0001 39.4665L32.2561 34.9865L32.0001 32.8531L31.7441 34.9865L32.0001 39.4665Z" fill="#000088"/>
<path d="M38.7503 35.2146C38.9463 35.2958 39.1709 35.2028 39.252 35.0068C39.3332 34.8109 39.2402 34.5863 39.0442 34.5051C38.8483 34.4239 38.6237 34.517 38.5425 34.7129C38.4613 34.9089 38.5544 35.1335 38.7503 35.2146Z" fill="#000088"/>
<path d="M30.0669 39.2122L31.4737 34.9511L31.7785 32.8242L30.9791 34.8186L30.0669 39.2122Z" fill="#000088"/>
<path d="M37.6867 36.8523C37.855 36.9814 38.096 36.9497 38.2251 36.7815C38.3542 36.6132 38.3225 36.3721 38.1543 36.243C37.986 36.1139 37.7449 36.1457 37.6158 36.3139C37.4867 36.4822 37.5185 36.7232 37.6867 36.8523Z" fill="#000088"/>
<path d="M28.2646 38.4661L30.7263 34.7144L31.5713 32.7388L30.2829 34.4584L28.2646 38.4661Z" fill="#000088"/>
<path d="M36.2378 38.1593C36.3669 38.3275 36.6079 38.3592 36.7762 38.2301C36.9444 38.101 36.9761 37.86 36.847 37.6917C36.7179 37.5235 36.4769 37.4917 36.3086 37.6208C36.1404 37.75 36.1086 37.991 36.2378 38.1593Z" fill="#000088"/>
<path d="M26.7195 37.2796L30.0684 34.2928L31.3959 32.6033L29.7064 33.9307L26.7195 37.2796Z" fill="#000088"/>
<path d="M34.4999 39.0465C34.5811 39.2424 34.8057 39.3355 35.0016 39.2543C35.1976 39.1732 35.2906 38.9485 35.2095 38.7526C35.1283 38.5567 34.9037 38.4636 34.7077 38.5448C34.5118 38.6259 34.4188 38.8506 34.4999 39.0465Z" fill="#000088"/>
<path d="M25.5335 35.7333L29.5413 33.715L31.2608 32.4267L29.2853 33.2716L25.5335 35.7333Z" fill="#000088"/>
<path d="M32.5914 39.4535C32.6191 39.6638 32.812 39.8118 33.0223 39.7841C33.2325 39.7564 33.3805 39.5635 33.3529 39.3532C33.3252 39.143 33.1323 38.995 32.922 39.0227C32.7118 39.0503 32.5637 39.2432 32.5914 39.4535Z" fill="#000088"/>
<path d="M24.7876 33.9324L29.1813 33.0202L31.1756 32.2208L29.0487 32.5257L24.7876 33.9324Z" fill="#000088"/>
<path d="M30.6435 39.3525C30.6158 39.5628 30.7639 39.7556 30.9741 39.7833C31.1844 39.811 31.3773 39.663 31.405 39.4527C31.4326 39.2425 31.2846 39.0496 31.0744 39.0219C30.8641 38.9942 30.6712 39.1422 30.6435 39.3525Z" fill="#000088"/>
<path d="M24.5351 32L29.0151 32.256L31.1484 32L29.0151 31.744L24.5351 32Z" fill="#000088"/>
<path d="M28.7861 38.7504C28.7049 38.9464 28.798 39.171 28.9939 39.2522C29.1898 39.3333 29.4145 39.2403 29.4956 39.0443C29.5768 38.8484 29.4837 38.6238 29.2878 38.5426C29.0919 38.4615 28.8672 38.5545 28.7861 38.7504Z" fill="#000088"/>
<path d="M24.7879 30.0675L29.049 31.4743L31.1759 31.7791L29.1815 30.9797L24.7879 30.0675Z" fill="#000088"/>
<path d="M27.1472 37.6886C27.0181 37.8568 27.0498 38.0979 27.2181 38.227C27.3863 38.3561 27.6274 38.3243 27.7565 38.1561C27.8856 37.9878 27.8538 37.7468 27.6856 37.6177C27.5173 37.4886 27.2763 37.5203 27.1472 37.6886Z" fill="#000088"/>
<path d="M25.5334 28.2667L29.2852 30.7284L31.2607 31.5734L29.5412 30.285L25.5334 28.2667Z" fill="#000088"/>
<path d="M25.8392 36.2388C25.6709 36.368 25.6392 36.609 25.7683 36.7773C25.8974 36.9455 26.1384 36.9772 26.3067 36.8481C26.4749 36.719 26.5067 36.478 26.3776 36.3097C26.2485 36.1415 26.0074 36.1097 25.8392 36.2388Z" fill="#000088"/>
<path d="M26.7188 26.7204L29.7056 30.0692L31.3952 31.3967L30.0677 29.7072L26.7188 26.7204Z" fill="#000088"/>
<path d="M24.9529 34.5003C24.757 34.5814 24.6639 34.8061 24.7451 35.002C24.8262 35.1979 25.0509 35.291 25.2468 35.2098C25.4427 35.1287 25.5358 34.904 25.4546 34.7081C25.3735 34.5122 25.1488 34.4191 24.9529 34.5003Z" fill="#000088"/>
<path d="M28.2646 25.5339L30.2829 29.5417L31.5713 31.2612L30.7263 29.2857L28.2646 25.5339Z" fill="#000088"/>
<path d="M24.5464 32.5912C24.3361 32.6189 24.1881 32.8118 24.2158 33.022C24.2435 33.2323 24.4364 33.3803 24.6466 33.3526C24.8569 33.3249 25.0049 33.132 24.9772 32.9218C24.9495 32.7115 24.7566 32.5635 24.5464 32.5912Z" fill="#000088"/>
<path d="M30.0665 24.7878L30.9787 29.1814L31.7781 31.1758L31.4732 29.0489L30.0665 24.7878Z" fill="#000088"/>
<path d="M24.6473 30.6419C24.437 30.6143 24.2441 30.7623 24.2164 30.9725C24.1887 31.1828 24.3368 31.3757 24.547 31.4034C24.7573 31.4311 24.9502 31.283 24.9779 31.0728C25.0055 30.8625 24.8575 30.6696 24.6473 30.6419Z" fill="#000088"/>
<path d="M31.9999 24.5334L31.7439 29.0134L31.9999 31.1467L32.2559 29.0134L31.9999 24.5334Z" fill="#000088"/>
<path d="M25.2497 28.7852C25.0537 28.7041 24.8291 28.7971 24.748 28.9931C24.6668 29.189 24.7598 29.4136 24.9558 29.4948C25.1517 29.5759 25.3763 29.4829 25.4575 29.287C25.5387 29.091 25.4456 28.8664 25.2497 28.7852Z" fill="#000088"/>
<path d="M33.9331 24.7877L32.5263 29.0488L32.2215 31.1757L33.0209 29.1813L33.9331 24.7877Z" fill="#000088"/>
<path d="M26.3133 27.1475C26.145 27.0184 25.904 27.0502 25.7749 27.2184C25.6458 27.3867 25.6775 27.6277 25.8457 27.7568C26.014 27.8859 26.2551 27.8542 26.3842 27.686C26.5133 27.5177 26.4815 27.2766 26.3133 27.1475Z" fill="#000088"/>
<path d="M35.7354 25.5337L33.2737 29.2855L32.4287 31.261L33.7171 29.5415L35.7354 25.5337Z" fill="#000088"/>
<path d="M27.7622 25.8406C27.6331 25.6724 27.3921 25.6406 27.2238 25.7697C27.0556 25.8988 27.0239 26.1399 27.153 26.3081C27.2821 26.4764 27.5231 26.5081 27.6914 26.379C27.8596 26.2499 27.8914 26.0089 27.7622 25.8406Z" fill="#000088"/>
<path d="M37.2805 26.7203L33.9316 29.7071L32.6041 31.3966L34.2936 30.0691L37.2805 26.7203Z" fill="#000088"/>
<path d="M29.5001 24.9535C29.4189 24.7576 29.1943 24.6645 28.9984 24.7457C28.8024 24.8268 28.7094 25.0515 28.7905 25.2474C28.8717 25.4433 29.0963 25.5364 29.2923 25.4552C29.4882 25.3741 29.5812 25.1494 29.5001 24.9535Z" fill="#000088"/>
<path d="M38.4665 28.2667L34.4587 30.285L32.7392 31.5733L34.7147 30.7284L38.4665 28.2667Z" fill="#000088"/>
<path d="M31.4086 24.5465C31.3809 24.3362 31.188 24.1882 30.9777 24.2159C30.7675 24.2436 30.6195 24.4365 30.6471 24.6468C30.6748 24.857 30.8677 25.005 31.078 24.9773C31.2882 24.9497 31.4363 24.7568 31.4086 24.5465Z" fill="#000088"/>
<path d="M39.2124 30.0676L34.8187 30.9798L32.8244 31.7792L34.9513 31.4743L39.2124 30.0676Z" fill="#000088"/>
<path d="M33.3565 24.6475C33.3842 24.4372 33.2361 24.2444 33.0259 24.2167C32.8156 24.189 32.6227 24.337 32.595 24.5473C32.5674 24.7575 32.7154 24.9504 32.9256 24.9781C33.1359 25.0058 33.3288 24.8578 33.3565 24.6475Z" fill="#000088"/>
<path d="M39.4649 32L34.9849 31.744L32.8516 32L34.9849 32.256L39.4649 32Z" fill="#000088"/>
<path d="M35.2139 25.2496C35.2951 25.0536 35.202 24.829 35.0061 24.7478C34.8102 24.6667 34.5855 24.7597 34.5044 24.9557C34.4232 25.1516 34.5163 25.3762 34.7122 25.4574C34.9081 25.5385 35.1328 25.4455 35.2139 25.2496Z" fill="#000088"/>
<path d="M39.2121 33.9325L34.951 32.5257L32.8241 32.2209L34.8185 33.0203L39.2121 33.9325Z" fill="#000088"/>
<path d="M36.8528 26.3116C36.9819 26.1433 36.9502 25.9023 36.7819 25.7732C36.6137 25.644 36.3726 25.6758 36.2435 25.844C36.1144 26.0123 36.1462 26.2533 36.3144 26.3824C36.4827 26.5116 36.7237 26.4798 36.8528 26.3116Z" fill="#000088"/>
<path d="M38.4666 35.7334L34.7148 33.2717L32.7393 32.4267L34.4588 33.7151L38.4666 35.7334Z" fill="#000088"/>
<path d="M38.1608 27.7613C38.3291 27.6322 38.3608 27.3911 38.2317 27.2229C38.1026 27.0546 37.8616 27.0229 37.6933 27.152C37.5251 27.2811 37.4933 27.5221 37.6224 27.6904C37.7515 27.8586 37.9926 27.8904 38.1608 27.7613Z" fill="#000088"/>
<path d="M37.2812 37.2797L34.2944 33.9309L32.6048 32.6034L33.9323 34.2929L37.2812 37.2797Z" fill="#000088"/>
<path d="M39.0471 29.4998C39.243 29.4187 39.3361 29.1941 39.2549 28.9981C39.1738 28.8022 38.9491 28.7091 38.7532 28.7903C38.5573 28.8715 38.4642 29.0961 38.5454 29.292C38.6265 29.488 38.8512 29.581 39.0471 29.4998Z" fill="#000088"/>
<path d="M35.7354 38.4663L33.7171 34.4585L32.4287 32.7389L33.2737 34.7145L35.7354 38.4663Z" fill="#000088"/>
<path d="M39.4536 31.4089C39.6639 31.3813 39.8119 31.1884 39.7842 30.9781C39.7565 30.7678 39.5636 30.6198 39.3534 30.6475C39.1431 30.6752 38.9951 30.8681 39.0228 31.0783C39.0505 31.2886 39.2434 31.4366 39.4536 31.4089Z" fill="#000088"/>
<path d="M33.9335 39.2124L33.0213 34.8187L32.2219 32.8244L32.5268 34.9513L33.9335 39.2124Z" fill="#000088"/>
</g>
<defs>
<clipPath id="clip0_10660_12740">
<rect width="64" height="64" rx="32" fill="white"/>
</clipPath>
</defs>
</svg>
