<svg width="64" height="64" viewBox="0 0 64 64" fill="none" xmlns="http://www.w3.org/2000/svg">
<g clip-path="url(#clip0_10660_12844)">
<mask id="mask0_10660_12844" style="mask-type:luminance" maskUnits="userSpaceOnUse" x="-1" y="0" width="65" height="64">
<path d="M-0.00390625 0H63.9863V63.9902H-0.00390625V0Z" fill="white"/>
</mask>
<g mask="url(#mask0_10660_12844)">
<path fill-rule="evenodd" clip-rule="evenodd" d="M-24 0H87.9957V63.9902H-24V0Z" fill="white"/>
<path fill-rule="evenodd" clip-rule="evenodd" d="M-24 42.9741H87.9957V64.0032H-24V42.9741Z" fill="#DA0000"/>
<path fill-rule="evenodd" clip-rule="evenodd" d="M-2.71289 43.8643H3.42811V44.29H-2.71289V43.8643ZM-1.7969 45.9801H-1.37116V46.3929H-1.8098L-1.7969 45.9801ZM3.44101 45.9672V46.3929H2.21539V45.9672H3.44101ZM4.09897 43.8643H4.52471V46.3929H4.09897V43.8643Z" fill="white"/>
<path fill-rule="evenodd" clip-rule="evenodd" d="M6.53676 45.9672V46.3929H4.21454V45.9672H6.53676ZM2.21484 44.9867H2.64059V46.3929H2.21484V44.9867Z" fill="white"/>
<path fill-rule="evenodd" clip-rule="evenodd" d="M6.18897 43.8643H6.61471V46.3929H6.20187L6.18897 43.8643ZM5.14397 43.8643H5.55681V46.3929H5.15687L5.14397 43.8643ZM-0.455172 44.8706V45.2963H-2.71289V44.8706H-0.455172ZM4.4473 44.8706V45.2963H2.21539V44.8706H4.4473Z" fill="white"/>
<path fill-rule="evenodd" clip-rule="evenodd" d="M2.21484 44.9738H2.64059V46.3929H2.21484V44.9738Z" fill="white"/>
<path fill-rule="evenodd" clip-rule="evenodd" d="M2.21484 44.9738H2.64059V46.3929H2.21484V44.9738Z" fill="white"/>
<path fill-rule="evenodd" clip-rule="evenodd" d="M2.21539 44.9738H2.64113V46.3929H2.21539V44.9738ZM-2.68709 44.9738H-2.27425V46.3929H-2.71289L-2.68709 44.9738ZM0.899459 44.9738H1.3252V46.3929H0.899459V44.9738ZM-0.880914 44.9738H-0.455172V46.3929H-0.880914V44.9738Z" fill="white"/>
<path fill-rule="evenodd" clip-rule="evenodd" d="M1.19531 45.9672V46.393H-0.701172V45.9672H1.19531ZM1.32432 44.8706V45.2963H0.124507V44.8706H1.32432Z" fill="white"/>
<path fill-rule="evenodd" clip-rule="evenodd" d="M7.28516 43.8643H13.4132V44.29H7.28516V43.8643ZM8.18824 45.9801H8.61399V46.3929H8.20115L8.18824 45.9801ZM13.4262 45.9672V46.3929H12.2005V45.9672H13.4262ZM14.0841 43.8643H14.5099V46.3929H14.0841V43.8643Z" fill="white"/>
<path fill-rule="evenodd" clip-rule="evenodd" d="M16.536 45.9672V46.3929H14.2138V45.9672H16.536ZM12.2012 44.9867H12.6269V46.3929H12.2012V44.9867Z" fill="white"/>
<path fill-rule="evenodd" clip-rule="evenodd" d="M16.1878 43.8643H16.6135V46.3929H16.1878V43.8643ZM15.1299 43.8643H15.5556V46.3929H15.1299V43.8643ZM9.53074 44.8706V45.2963H7.29883V44.8706H9.53074ZM14.4332 44.8706V45.2963H12.2013V44.8706H14.4332Z" fill="white"/>
<path fill-rule="evenodd" clip-rule="evenodd" d="M12.2012 44.9738H12.6269V46.3929H12.2012V44.9738Z" fill="white"/>
<path fill-rule="evenodd" clip-rule="evenodd" d="M12.2012 44.9738H12.6269V46.3929H12.2012V44.9738Z" fill="white"/>
<path fill-rule="evenodd" clip-rule="evenodd" d="M12.2013 44.9738H12.627V46.3929H12.2013V44.9738ZM7.29883 44.9738H7.71167V46.3929H7.29883V44.9738ZM10.8983 44.9738H11.3111V46.3929H10.8983V44.9738ZM9.105 44.9738H9.53074V46.3929H9.105V44.9738Z" fill="white"/>
<path fill-rule="evenodd" clip-rule="evenodd" d="M11.1945 45.9672V46.393H9.28516V45.9672H11.1945ZM11.3236 44.8706V45.2963H10.1108V44.8706H11.3236Z" fill="white"/>
<path fill-rule="evenodd" clip-rule="evenodd" d="M17.3359 43.8643H23.464V44.29H17.3359V43.8643ZM18.2519 45.9801H18.6777V46.3929H18.2519V45.9801ZM23.4898 45.9672V46.3929H22.2642V45.9672H23.4898ZM24.1349 43.8643H24.5606V46.3929H24.1478L24.1349 43.8643Z" fill="white"/>
<path fill-rule="evenodd" clip-rule="evenodd" d="M26.5856 45.9672V46.3929H24.2634V45.9672H26.5856ZM22.2637 44.9867H22.6765V46.3929H22.2637V44.9867Z" fill="white"/>
<path fill-rule="evenodd" clip-rule="evenodd" d="M26.2386 43.8643H26.6643V46.3929H26.2386V43.8643ZM25.1936 43.8643H25.6064V46.3929H25.1807L25.1936 43.8643ZM19.5815 44.8706V45.2963H17.3496V44.8706H19.5815ZM24.4969 44.8706V45.2963H22.265V44.8706H24.4969Z" fill="white"/>
<path fill-rule="evenodd" clip-rule="evenodd" d="M22.2637 44.9738H22.6765V46.3929H22.2637V44.9738Z" fill="white"/>
<path fill-rule="evenodd" clip-rule="evenodd" d="M22.2637 44.9738H22.6765V46.3929H22.2637V44.9738Z" fill="white"/>
<path fill-rule="evenodd" clip-rule="evenodd" d="M22.265 44.9738H22.6778V46.3929H22.265V44.9738ZM17.3496 44.9738H17.7753V46.3929H17.3496V44.9738ZM20.9491 44.9738H21.3748V46.3929H20.9491V44.9738ZM19.1687 44.9738H19.5944V46.3929H19.1687V44.9738Z" fill="white"/>
<path fill-rule="evenodd" clip-rule="evenodd" d="M21.2441 45.9672V46.393H19.3477V45.9672H21.2441ZM21.3732 44.8706V45.2963H20.1733V44.8706H21.3732Z" fill="white"/>
<path fill-rule="evenodd" clip-rule="evenodd" d="M27.4238 43.8643H33.5648V44.29H27.4238V43.8643ZM28.3398 45.9801H28.7656V46.3929H28.3398V45.9801ZM33.5777 45.9672V46.3929H32.3521V45.9672H33.5777ZM34.2357 43.8643H34.6614V46.3929H34.2357V43.8643Z" fill="white"/>
<path fill-rule="evenodd" clip-rule="evenodd" d="M36.6735 45.9672V46.3929H34.3513V45.9672H36.6735ZM32.3516 44.9867H32.7773V46.3929H32.3516V44.9867Z" fill="white"/>
<path fill-rule="evenodd" clip-rule="evenodd" d="M36.3265 43.8643H36.7522V46.3929H36.3265V43.8643ZM35.2815 43.8643H35.6943V46.3929H35.2815V43.8643ZM29.6823 44.8706V45.2963H27.4375V44.8706H29.6823ZM34.5848 44.8706V45.2963H32.3529V44.8706H34.5848Z" fill="white"/>
<path fill-rule="evenodd" clip-rule="evenodd" d="M32.3516 44.9738H32.7773V46.3929H32.3516V44.9738Z" fill="white"/>
<path fill-rule="evenodd" clip-rule="evenodd" d="M32.3516 44.9738H32.7773V46.3929H32.3516V44.9738Z" fill="white"/>
<path fill-rule="evenodd" clip-rule="evenodd" d="M32.3529 44.9738H32.7786V46.3929H32.3529V44.9738ZM27.4504 44.9738H27.8632V46.3929H27.4375L27.4504 44.9738ZM31.0369 44.9738H31.4627V46.3929H31.0369V44.9738ZM29.2566 44.9738H29.6823V46.3929H29.2566V44.9738Z" fill="white"/>
<path fill-rule="evenodd" clip-rule="evenodd" d="M31.3457 45.9672V46.393H29.4492V45.9672H31.3457ZM31.4618 44.8706V45.2963H30.262V44.8706H31.4618Z" fill="white"/>
<path fill-rule="evenodd" clip-rule="evenodd" d="M-24 0H87.9957V21.029H-24V0Z" fill="#239F40"/>
<path fill-rule="evenodd" clip-rule="evenodd" d="M37.5781 43.8643H43.7062V44.29H37.5781V43.8643ZM38.4941 45.9801H38.9199V46.3929H38.4941V45.9801ZM43.732 45.9672V46.3929H42.5064V45.9672H43.732ZM44.3771 43.8643H44.8157V46.3929H44.3771V43.8643Z" fill="white"/>
<path fill-rule="evenodd" clip-rule="evenodd" d="M46.8278 45.9672V46.3929H44.5056V45.9672H46.8278ZM42.5059 44.9867H42.9187V46.3929H42.5059V44.9867Z" fill="white"/>
<path fill-rule="evenodd" clip-rule="evenodd" d="M46.4808 43.8643H46.9065V46.3929H46.4808V43.8643ZM45.4358 43.8643H45.8486V46.3929H45.4358V43.8643ZM39.8366 44.8706V45.2963H37.5918V44.8706H39.8366ZM44.7391 44.8706V45.2963H42.5072V44.8706H44.7391Z" fill="white"/>
<path fill-rule="evenodd" clip-rule="evenodd" d="M42.5059 44.9738H42.9187V46.3929H42.5059V44.9738Z" fill="white"/>
<path fill-rule="evenodd" clip-rule="evenodd" d="M42.5059 44.9738H42.9187V46.3929H42.5059V44.9738Z" fill="white"/>
<path fill-rule="evenodd" clip-rule="evenodd" d="M42.5072 44.9738H42.92V46.3929H42.5072V44.9738ZM37.5918 44.9738H38.0175V46.3929H37.5918V44.9738ZM41.1912 44.9738H41.617V46.3929H41.1912V44.9738ZM39.4109 44.9738H39.8366V46.3929H39.4109V44.9738Z" fill="white"/>
<path fill-rule="evenodd" clip-rule="evenodd" d="M41.4863 45.9672V46.393H39.5898V45.9672H41.4863ZM41.6153 44.8706V45.2963H40.4155V44.8706H41.6153Z" fill="white"/>
<path fill-rule="evenodd" clip-rule="evenodd" d="M47.666 43.8643H53.807V44.29H47.666V43.8643ZM48.582 45.9801H49.0077V46.3929H48.582V45.9801ZM53.8199 45.9672V46.3929H52.5943V45.9672H53.8199ZM54.4779 43.8643H54.9036V46.3929H54.4779V43.8643Z" fill="white"/>
<path fill-rule="evenodd" clip-rule="evenodd" d="M56.9157 45.9672V46.3929H54.5934V45.9672H56.9157ZM52.5938 44.9867H53.0195V46.3929H52.5938V44.9867Z" fill="white"/>
<path fill-rule="evenodd" clip-rule="evenodd" d="M56.5815 43.8643H56.9944V46.3929H56.5815V43.8643ZM55.5237 43.8643H55.9494V46.3929H55.5237V43.8643ZM49.9245 44.8706V45.2963H47.6797V44.8706H49.9245ZM54.827 44.8706V45.2963H52.5951V44.8706H54.827Z" fill="white"/>
<path fill-rule="evenodd" clip-rule="evenodd" d="M52.5938 44.9738H53.0195V46.3929H52.5938V44.9738Z" fill="white"/>
<path fill-rule="evenodd" clip-rule="evenodd" d="M52.5938 44.9738H53.0195V46.3929H52.5938V44.9738Z" fill="white"/>
<path fill-rule="evenodd" clip-rule="evenodd" d="M52.5951 44.9738H53.0208V46.3929H52.5951V44.9738ZM47.6926 44.9738H48.1054V46.3929H47.6797L47.6926 44.9738ZM51.2791 44.9738H51.7049V46.3929H51.2791V44.9738ZM49.4988 44.9738H49.9245V46.3929H49.4988V44.9738Z" fill="white"/>
<path fill-rule="evenodd" clip-rule="evenodd" d="M51.575 45.9672V46.393H49.6914V45.9672H51.575ZM51.704 44.8706V45.2963H50.5042V44.8706H51.704Z" fill="white"/>
<path fill-rule="evenodd" clip-rule="evenodd" d="M57.7676 43.8643H63.8957V44.29H57.7676V43.8643ZM58.6707 45.9801H59.0964V46.3929H58.6707V45.9801ZM63.9086 45.9672V46.3929H62.6959V45.9672H63.9086ZM64.5665 43.8643H64.9923V46.3929H64.5665V43.8643Z" fill="white"/>
<path fill-rule="evenodd" clip-rule="evenodd" d="M67.0184 45.9672V46.3929H64.6962V45.9672H67.0184ZM62.6836 44.9867H63.1093V46.3929H62.6836V44.9867Z" fill="white"/>
<path fill-rule="evenodd" clip-rule="evenodd" d="M66.6694 43.8643H67.0952V46.3929H66.6694V43.8643ZM65.6115 43.8643H66.0373V46.3929H65.6115V43.8643ZM60.0124 44.8706V45.2963H57.7676V44.8706H60.0124ZM64.9149 44.8706V45.2963H62.6959V44.8706H64.9149Z" fill="white"/>
<path fill-rule="evenodd" clip-rule="evenodd" d="M62.6965 44.9738H63.1093V46.3929H62.6836L62.6965 44.9738Z" fill="white"/>
<path fill-rule="evenodd" clip-rule="evenodd" d="M62.6965 44.9738H63.1093V46.3929H62.6836L62.6965 44.9738Z" fill="white"/>
<path fill-rule="evenodd" clip-rule="evenodd" d="M62.6959 44.9738H63.1087V46.3929H62.683L62.6959 44.9738ZM57.7676 44.9738H58.1933V46.3929H57.7676V44.9738ZM61.3799 44.9738H61.7928V46.3929H61.367L61.3799 44.9738ZM59.5867 44.9738H60.0124V46.3929H59.5867V44.9738Z" fill="white"/>
<path fill-rule="evenodd" clip-rule="evenodd" d="M61.6629 45.9672V46.393H59.7793V45.9672H61.6629ZM61.7919 44.8706V45.2963H60.5921V44.8706H61.7919Z" fill="white"/>
<path fill-rule="evenodd" clip-rule="evenodd" d="M-2.71289 17.9327H3.42811V18.3456H-2.71289V17.9327ZM-1.7969 20.0356H-1.37116V20.4485H-1.8098L-1.7969 20.0356ZM3.44101 20.0356V20.4485H2.21539V20.0227L3.44101 20.0356ZM4.09897 17.9327H4.52471V20.4485H4.09897V17.9327Z" fill="white"/>
<path fill-rule="evenodd" clip-rule="evenodd" d="M6.53676 20.0227V20.4485H4.21454V20.0227H6.53676ZM2.21484 19.0422H2.64059V20.4614H2.21484V19.0422Z" fill="white"/>
<path fill-rule="evenodd" clip-rule="evenodd" d="M6.18897 17.9327H6.61471V20.4485H6.20187L6.18897 17.9327ZM5.14397 17.9327H5.55681V20.4485H5.15687L5.14397 17.9327ZM-0.455172 18.9261V19.3519H-2.71289V18.939L-0.455172 18.9261ZM4.4473 18.9261V19.3519H2.21539V18.939L4.4473 18.9261Z" fill="white"/>
<path fill-rule="evenodd" clip-rule="evenodd" d="M2.21484 19.0422H2.64059V20.4614H2.21484V19.0422Z" fill="white"/>
<path fill-rule="evenodd" clip-rule="evenodd" d="M2.21484 19.0422H2.64059V20.4614H2.21484V19.0422Z" fill="white"/>
<path fill-rule="evenodd" clip-rule="evenodd" d="M2.21539 19.0422H2.64113V20.4614H2.21539V19.0422ZM-2.68709 19.0422H-2.27425V20.4614H-2.71289L-2.68709 19.0422ZM0.899459 19.0422H1.3252V20.4614H0.899459V19.0422ZM-0.880914 19.0422H-0.455172V20.4614H-0.880914V19.0422Z" fill="white"/>
<path fill-rule="evenodd" clip-rule="evenodd" d="M1.19531 20.0228V20.4485H-0.701172V20.0228H1.19531ZM1.32432 18.9391V19.3519H0.124507V18.9391H1.32432Z" fill="white"/>
<path fill-rule="evenodd" clip-rule="evenodd" d="M7.28516 17.9327H13.4132V18.3456H7.28516V17.9327ZM8.18824 20.0356H8.61399V20.4485H8.20115L8.18824 20.0356ZM13.4262 20.0356V20.4485H12.2005V20.0227L13.4262 20.0356ZM14.0841 17.9327H14.5099V20.4485H14.0841V17.9327Z" fill="white"/>
<path fill-rule="evenodd" clip-rule="evenodd" d="M16.536 20.0227V20.4485H14.2138V20.0227H16.536ZM12.2012 19.0422H12.6269V20.4614H12.2012V19.0422Z" fill="white"/>
<path fill-rule="evenodd" clip-rule="evenodd" d="M16.1878 17.9327H16.6135V20.4485H16.1878V17.9327ZM15.1299 17.9327H15.5556V20.4485H15.1299V17.9327ZM9.53074 18.9261V19.3519H7.29883V18.939L9.53074 18.9261ZM14.4332 18.9261V19.3519H12.2013V18.939L14.4332 18.9261Z" fill="white"/>
<path fill-rule="evenodd" clip-rule="evenodd" d="M12.2012 19.0422H12.6269V20.4614H12.2012V19.0422Z" fill="white"/>
<path fill-rule="evenodd" clip-rule="evenodd" d="M12.2012 19.0422H12.6269V20.4614H12.2012V19.0422Z" fill="white"/>
<path fill-rule="evenodd" clip-rule="evenodd" d="M12.2013 19.0422H12.627V20.4614H12.2013V19.0422ZM7.29883 19.0422H7.71167V20.4614H7.29883V19.0422ZM10.8983 19.0422H11.3111V20.4614H10.8983V19.0422ZM9.105 19.0422H9.53074V20.4614H9.105V19.0422Z" fill="white"/>
<path fill-rule="evenodd" clip-rule="evenodd" d="M11.1945 20.0228V20.4485H9.28516V20.0228H11.1945ZM11.3236 18.9391V19.3519H10.1108V18.9391H11.3236Z" fill="white"/>
<path fill-rule="evenodd" clip-rule="evenodd" d="M17.3359 17.9327H23.464V18.3456H17.3359V17.9327ZM18.2519 20.0356H18.6777V20.4485H18.2519V20.0356ZM23.4898 20.0356V20.4485H22.2642V20.0227L23.4898 20.0356ZM24.1349 17.9327H24.5606V20.4485H24.1478L24.1349 17.9327Z" fill="white"/>
<path fill-rule="evenodd" clip-rule="evenodd" d="M26.5856 20.0227V20.4485H24.2634V20.0227H26.5856ZM22.2637 19.0422H22.6765V20.4614H22.2637V19.0422Z" fill="white"/>
<path fill-rule="evenodd" clip-rule="evenodd" d="M26.2386 17.9327H26.6643V20.4485H26.2386V17.9327ZM25.1936 17.9327H25.6064V20.4485H25.1807L25.1936 17.9327ZM19.5815 18.9261V19.3519H17.3496V18.939L19.5815 18.9261ZM24.4969 18.9261V19.3519H22.265V18.939L24.4969 18.9261Z" fill="white"/>
<path fill-rule="evenodd" clip-rule="evenodd" d="M22.2637 19.0422H22.6765V20.4614H22.2637V19.0422Z" fill="white"/>
<path fill-rule="evenodd" clip-rule="evenodd" d="M22.2637 19.0422H22.6765V20.4614H22.2637V19.0422Z" fill="white"/>
<path fill-rule="evenodd" clip-rule="evenodd" d="M22.265 19.0422H22.6778V20.4614H22.265V19.0422ZM17.3496 19.0422H17.7753V20.4614H17.3496V19.0422ZM20.9491 19.0422H21.3748V20.4614H20.9491V19.0422ZM19.1687 19.0422H19.5944V20.4614H19.1687V19.0422Z" fill="white"/>
<path fill-rule="evenodd" clip-rule="evenodd" d="M21.2441 20.0228V20.4485H19.3477V20.0228H21.2441ZM21.3732 18.9391V19.3519H20.1733V18.9391H21.3732Z" fill="white"/>
<path fill-rule="evenodd" clip-rule="evenodd" d="M27.4238 17.9327H33.5648V18.3456H27.4238V17.9327ZM28.3398 20.0356H28.7656V20.4485H28.3398V20.0356ZM33.5777 20.0356V20.4485H32.3521V20.0227L33.5777 20.0356ZM34.2357 17.9327H34.6614V20.4485H34.2357V17.9327Z" fill="white"/>
<path fill-rule="evenodd" clip-rule="evenodd" d="M36.6735 20.0227V20.4485H34.3513V20.0227H36.6735ZM32.3516 19.0422H32.7773V20.4614H32.3516V19.0422Z" fill="white"/>
<path fill-rule="evenodd" clip-rule="evenodd" d="M36.3265 17.9327H36.7522V20.4485H36.3265V17.9327ZM35.2815 17.9327H35.6943V20.4485H35.2815V17.9327ZM29.6823 18.9261V19.3519H27.4375V18.939L29.6823 18.9261ZM34.5848 18.9261V19.3519H32.3529V18.939L34.5848 18.9261Z" fill="white"/>
<path fill-rule="evenodd" clip-rule="evenodd" d="M32.3516 19.0422H32.7773V20.4614H32.3516V19.0422Z" fill="white"/>
<path fill-rule="evenodd" clip-rule="evenodd" d="M32.3516 19.0422H32.7773V20.4614H32.3516V19.0422Z" fill="white"/>
<path fill-rule="evenodd" clip-rule="evenodd" d="M32.3529 19.0422H32.7786V20.4614H32.3529V19.0422ZM27.4504 19.0422H27.8632V20.4614H27.4375L27.4504 19.0422ZM31.0369 19.0422H31.4627V20.4614H31.0369V19.0422ZM29.2566 19.0422H29.6823V20.4614H29.2566V19.0422Z" fill="white"/>
<path fill-rule="evenodd" clip-rule="evenodd" d="M31.3457 20.0228V20.4485H29.4492V20.0228H31.3457ZM31.4618 18.9391V19.3519H30.262V18.9391H31.4618Z" fill="white"/>
<path fill-rule="evenodd" clip-rule="evenodd" d="M37.5781 17.9327H43.7062V18.3456H37.5781V17.9327ZM38.4941 20.0356H38.9199V20.4485H38.4941V20.0356ZM43.732 20.0356V20.4485H42.5064V20.0227L43.732 20.0356ZM44.3771 17.9327H44.8157V20.4485H44.3771V17.9327Z" fill="white"/>
<path fill-rule="evenodd" clip-rule="evenodd" d="M46.8278 20.0227V20.4485H44.5056V20.0227H46.8278ZM42.5059 19.0422H42.9187V20.4614H42.5059V19.0422Z" fill="white"/>
<path fill-rule="evenodd" clip-rule="evenodd" d="M46.4808 17.9327H46.9065V20.4485H46.4808V17.9327ZM45.4358 17.9327H45.8486V20.4485H45.4358V17.9327ZM39.8366 18.9261V19.3519H37.5918V18.939L39.8366 18.9261ZM44.7391 18.9261V19.3519H42.5072V18.939L44.7391 18.9261Z" fill="white"/>
<path fill-rule="evenodd" clip-rule="evenodd" d="M42.5059 19.0422H42.9187V20.4614H42.5059V19.0422Z" fill="white"/>
<path fill-rule="evenodd" clip-rule="evenodd" d="M42.5059 19.0422H42.9187V20.4614H42.5059V19.0422Z" fill="white"/>
<path fill-rule="evenodd" clip-rule="evenodd" d="M42.5072 19.0422H42.92V20.4614H42.5072V19.0422ZM37.5918 19.0422H38.0175V20.4614H37.5918V19.0422ZM41.1912 19.0422H41.617V20.4614H41.1912V19.0422ZM39.4109 19.0422H39.8366V20.4614H39.4109V19.0422Z" fill="white"/>
<path fill-rule="evenodd" clip-rule="evenodd" d="M41.4863 20.0228V20.4485H39.5898V20.0228H41.4863ZM41.6153 18.9391V19.3519H40.4155V18.9391H41.6153Z" fill="white"/>
<path fill-rule="evenodd" clip-rule="evenodd" d="M47.666 17.9327H53.807V18.3456H47.666V17.9327ZM48.582 20.0356H49.0077V20.4485H48.582V20.0356ZM53.8199 20.0356V20.4485H52.5943V20.0227L53.8199 20.0356ZM54.4779 17.9327H54.9036V20.4485H54.4779V17.9327Z" fill="white"/>
<path fill-rule="evenodd" clip-rule="evenodd" d="M56.9157 20.0227V20.4485H54.5934V20.0227H56.9157ZM52.5938 19.0422H53.0195V20.4614H52.5938V19.0422Z" fill="white"/>
<path fill-rule="evenodd" clip-rule="evenodd" d="M56.5815 17.9327H56.9944V20.4485H56.5815V17.9327ZM55.5237 17.9327H55.9494V20.4485H55.5237V17.9327ZM49.9245 18.9261V19.3519H47.6797V18.939L49.9245 18.9261ZM54.827 18.9261V19.3519H52.5951V18.939L54.827 18.9261Z" fill="white"/>
<path fill-rule="evenodd" clip-rule="evenodd" d="M52.5938 19.0422H53.0195V20.4614H52.5938V19.0422Z" fill="white"/>
<path fill-rule="evenodd" clip-rule="evenodd" d="M52.5938 19.0422H53.0195V20.4614H52.5938V19.0422Z" fill="white"/>
<path fill-rule="evenodd" clip-rule="evenodd" d="M52.5951 19.0422H53.0208V20.4614H52.5951V19.0422ZM47.6926 19.0422H48.1054V20.4614H47.6797L47.6926 19.0422ZM51.2791 19.0422H51.7049V20.4614H51.2791V19.0422ZM49.4988 19.0422H49.9245V20.4614H49.4988V19.0422Z" fill="white"/>
<path fill-rule="evenodd" clip-rule="evenodd" d="M51.575 20.0228V20.4485H49.6914V20.0228H51.575ZM51.704 18.9391V19.3519H50.5042V18.9391H51.704Z" fill="white"/>
<path fill-rule="evenodd" clip-rule="evenodd" d="M57.7676 17.9327H63.8957V18.3456H57.7676V17.9327ZM58.6707 20.0356H59.0964V20.4485H58.6707V20.0356ZM63.9086 20.0356V20.4485H62.6959V20.0227L63.9086 20.0356ZM64.5665 17.9327H64.9923V20.4485H64.5665V17.9327Z" fill="white"/>
<path fill-rule="evenodd" clip-rule="evenodd" d="M67.0184 20.0227V20.4485H64.6962V20.0227H67.0184ZM62.6836 19.0422H63.1093V20.4614H62.6836V19.0422Z" fill="white"/>
<path fill-rule="evenodd" clip-rule="evenodd" d="M66.6694 17.9327H67.0952V20.4485H66.6694V17.9327ZM65.6115 17.9327H66.0373V20.4485H65.6115V17.9327ZM60.0124 18.9261V19.3519H57.7676V18.939L60.0124 18.9261ZM64.9149 18.9261V19.3519H62.6959V18.939L64.9149 18.9261Z" fill="white"/>
<path fill-rule="evenodd" clip-rule="evenodd" d="M62.6965 19.0422H63.1093V20.4614H62.6836L62.6965 19.0422Z" fill="white"/>
<path fill-rule="evenodd" clip-rule="evenodd" d="M62.6965 19.0422H63.1093V20.4614H62.6836L62.6965 19.0422Z" fill="white"/>
<path fill-rule="evenodd" clip-rule="evenodd" d="M62.6959 19.0422H63.1087V20.4614H62.683L62.6959 19.0422ZM57.7676 19.0422H58.1933V20.4614H57.7676V19.0422ZM61.3799 19.0422H61.7928V20.4614H61.367L61.3799 19.0422ZM59.5867 19.0422H60.0124V20.4614H59.5867V19.0422Z" fill="white"/>
<path fill-rule="evenodd" clip-rule="evenodd" d="M61.6629 20.0228V20.4485H59.7793V20.0228H61.6629ZM61.7919 18.9391V19.3519H60.5921V18.9391H61.7919Z" fill="white"/>
<path fill-rule="evenodd" clip-rule="evenodd" d="M-8.60881 42.4451H-7.84764V43.7352H-8.60881V42.4451ZM11.4526 42.4451H12.2138V43.7352H11.4526V42.4451ZM-24 42.4451H-23.2517V43.7352H-24V42.4451ZM-13.8209 42.4451H-13.0597V43.7352H-13.8209V42.4451ZM-3.70633 42.4451H-2.95806V43.7352H-3.70633V42.4451ZM1.29935 42.4451H2.04762V43.7352H1.29935V42.4451ZM6.39534 42.4451H7.16942V43.7352H6.39534V42.4451ZM16.4583 42.4451H17.2195V43.7352H16.4583V42.4451ZM41.848 42.4451H42.5963V43.7352H41.848V42.4451ZM21.5672 42.4451H22.3284V43.7352H21.5672V42.4451ZM26.5729 42.4451H27.3341V43.7352H26.5729V42.4451ZM31.6302 42.4451H32.3785V43.7352H31.6302V42.4451ZM36.6875 42.4451H37.4358V43.7352H36.6875V42.4451ZM77.0684 42.4451H77.8425V43.7352H77.0684V42.4451ZM46.7505 42.4451H47.4987V43.7352H46.7375L46.7505 42.4451ZM51.8465 42.4451H52.6076V43.7352H51.8465V42.4451ZM57.007 42.4451H57.7681V43.7352H57.007V42.4451ZM61.8578 42.4451H62.619V43.7352H61.8578V42.4451ZM67.0183 42.4451H67.7795V43.7352H67.0054L67.0183 42.4451ZM72.0756 42.4451H72.8239V43.7352H72.0756V42.4451ZM87.0411 42.4451H87.7893V43.7352H87.0282L87.0411 42.4451ZM82.1902 42.4451H82.9385V43.7352H82.1902V42.4451ZM-18.9298 42.4451H-18.1686V43.7352H-18.9298V42.4451Z" fill="#D90000"/>
<path fill-rule="evenodd" clip-rule="evenodd" d="M-8.60881 20.3324H-7.84764V21.6354H-8.60881V20.3324ZM11.4526 20.3324H12.2138V21.6354H11.4526V20.3324ZM-24 20.3324H-23.2517V21.6354H-24V20.3324ZM-13.8209 20.3324H-13.0597V21.6354H-13.8209V20.3324ZM-3.70633 20.3324H-2.95806V21.6354H-3.70633V20.3324ZM1.29935 20.3324H2.04762V21.6354H1.29935V20.3324ZM6.39534 20.3324H7.16942V21.6354H6.39534V20.3324ZM16.4583 20.3324H17.2195V21.6354H16.4583V20.3324ZM41.848 20.3324H42.5963V21.6354H41.848V20.3324ZM21.5672 20.3324H22.3284V21.6354H21.5672V20.3324ZM26.5729 20.3324H27.3341V21.6354H26.5729V20.3324ZM31.6302 20.3324H32.3785V21.6354H31.6302V20.3324ZM36.6875 20.3324H37.4358V21.6354H36.6875V20.3324ZM77.0684 20.3324H77.8425V21.6354H77.0684V20.3324ZM46.7505 20.3324H47.4987V21.6354H46.7375L46.7505 20.3324ZM51.8465 20.3324H52.6076V21.6354H51.8465V20.3324ZM57.007 20.3324H57.7681V21.6354H57.007V20.3324ZM61.8578 20.3324H62.619V21.6354H61.8578V20.3324ZM67.0183 20.3324H67.7795V21.6354H67.0054L67.0183 20.3324ZM72.0756 20.3324H72.8239V21.6354H72.0756V20.3324ZM87.0411 20.3324H87.7893V21.6354H87.0282L87.0411 20.3324ZM82.1902 20.3324H82.9385V21.6354H82.1902V20.3324ZM-18.9298 20.3324H-18.1686V21.6354H-18.9298V20.3324Z" fill="#239E3F"/>
<path fill-rule="evenodd" clip-rule="evenodd" d="M34.9592 24.693C36.03 25.9831 39.2811 33.1433 32.9982 37.8394C30.0438 40.0584 31.8758 40.1616 31.9661 40.5486C36.7138 38.02 38.2619 34.6141 38.2232 31.5436C38.1845 28.486 36.5719 25.7896 34.9721 24.693H34.9592Z" fill="#DA0000"/>
<path fill-rule="evenodd" clip-rule="evenodd" d="M35.6034 24.3575C36.7593 25.0655 37.7437 26.0212 38.4855 27.1556C39.2274 28.2901 39.7082 29.575 39.8933 30.9178C40.0784 32.2606 39.9632 33.6277 39.556 34.9205C39.1488 36.2134 38.4598 37.3998 37.5386 38.3941C40.9445 37.6458 45.2793 27.5958 35.5776 24.3575H35.6034ZM28.3916 24.3575C27.2357 25.0655 26.2513 26.0212 25.5094 27.1556C24.7676 28.2901 24.2868 29.575 24.1016 30.9178C23.9165 32.2606 24.0317 33.6277 24.4389 34.9205C24.8461 36.2134 25.5352 37.3998 26.4564 38.3941C23.0376 37.6458 18.7027 27.5958 28.3916 24.3575Z" fill="#DA0000"/>
<path fill-rule="evenodd" clip-rule="evenodd" d="M29.0245 24.693C27.9666 25.9831 24.7026 33.1433 30.9855 37.8394C33.9399 40.0584 32.1079 40.1616 32.0176 40.5486C27.2828 38.02 25.7218 34.6141 25.7605 31.5436C25.7992 28.486 27.4247 25.7896 29.0245 24.693Z" fill="#DA0000"/>
<path fill-rule="evenodd" clip-rule="evenodd" d="M38.0156 39.8907C35.9741 39.9696 33.9423 39.572 32.0811 38.7296C32.3649 39.2843 32.5971 39.6326 32.8938 40.2003C34.5452 40.3422 36.8287 40.5357 38.0156 39.8907ZM26.1465 39.8907C28.0043 39.9165 30.3523 39.6326 32.0811 38.7296C31.7972 39.2843 31.565 39.6326 31.2683 40.2003C29.6169 40.3422 27.3334 40.5357 26.1465 39.8907ZM29.5524 22.5514C29.9395 23.5448 30.9199 23.6996 31.9778 23.1061C32.7519 23.5706 33.9388 23.5964 34.3517 22.5901C34.6613 25.0671 32.0553 24.4866 31.9649 24.0092C30.9974 24.9381 29.1912 24.3963 29.5524 22.5514Z" fill="#DA0000"/>
<path fill-rule="evenodd" clip-rule="evenodd" d="M32.0428 41.4517L33.0233 40.3293L33.1523 25.3123L31.9912 24.2802L30.8301 25.2606L31.0623 40.3809L32.0428 41.4517Z" fill="#DA0000"/>
</g>
</g>
<defs>
<clipPath id="clip0_10660_12844">
<rect width="64" height="64" rx="32" fill="white"/>
</clipPath>
</defs>
</svg>
