<svg width="64" height="64" viewBox="0 0 64 64" fill="none" xmlns="http://www.w3.org/2000/svg">
<g clip-path="url(#clip0_10660_13036)">
<path d="M0 21.3375H64V42.6625H0V21.3375Z" fill="white"/>
<path d="M0 0H64V21.3375H0V0Z" fill="#CE1126"/>
<path d="M0 42.6625H64V64H0V42.6625Z" fill="#000001"/>
<path d="M41.4533 28.0802C41.3317 28.0218 41.221 27.9427 41.1263 27.8466C41.0563 27.7298 41.103 27.7298 41.4066 27.7999C41.9438 27.9634 42.2942 27.8933 42.6446 27.613L42.9482 27.3561L43.2986 27.5196C43.5088 27.6364 43.719 27.7064 43.7657 27.6831C43.9292 27.6364 44.2562 27.2159 44.2329 27.0758C44.2329 26.9123 44.373 26.959 44.4665 27.1459C44.6066 27.5196 44.3964 27.9634 43.9993 28.0568C43.8358 28.1035 43.6723 28.0802 43.392 27.9867C43.065 27.8699 42.9949 27.8699 42.8314 27.9867C42.6357 28.1346 42.4011 28.2223 42.1563 28.2388C41.9115 28.2554 41.6672 28.2003 41.4533 28.0802ZM42.8081 26.8422C42.6499 26.5565 42.5694 26.2344 42.5745 25.9079C42.5979 25.7678 42.6446 25.721 42.7614 25.7678C42.9949 25.8378 43.0417 26.0013 42.9949 26.4685C42.9949 26.8889 42.9249 27.0057 42.8081 26.8422ZM27.0184 26.3984C26.9951 26.7021 27.579 27.4729 27.8359 27.613C27.6491 27.6831 27.4388 27.6597 27.2753 27.7298C26.341 28.6641 22.9776 31.9341 22.3703 32.7283C24.1922 32.775 26.2009 32.7049 27.906 32.6349C27.906 31.3969 29.0739 31.3268 29.868 30.8831C30.2651 31.5137 31.2695 31.467 31.4096 32.4247V36.5356H15.8769C15.8181 36.8473 15.6946 37.1432 15.5142 37.4041C15.3339 37.665 15.1008 37.8852 14.8299 38.0503C14.5591 38.2155 14.2566 38.3219 13.9421 38.3627C13.6275 38.4036 13.3079 38.3779 13.0039 38.2874C13.4711 37.8202 14.2652 37.6334 14.5455 36.956C14.7791 35.4611 14.0784 34.5502 13.6112 33.686C14.1988 33.4976 14.7512 33.2134 15.2462 32.8451C14.709 34.4801 16.6944 34.3166 18.1426 34.2699C18.1893 33.7093 18.1659 33.0553 17.7455 32.9619C18.2827 32.7517 18.3761 32.6816 19.2871 31.9341V34.1765L30.0549 34.1531C30.0549 33.4524 30.2417 32.3079 29.6812 32.3079C29.1673 32.3079 29.6812 33.756 29.2607 33.756H20.9221V32.3546C21.2725 31.9809 21.2257 32.0042 23.6316 29.5984C23.8651 29.3648 25.5702 27.8232 27.0418 26.3984H27.0184ZM47.8299 26.3283C48.4139 26.6553 48.881 27.0758 49.5817 27.2626C49.5117 27.5663 49.2314 27.6831 49.1613 27.9867V34.2933C49.9555 34.4568 50.1423 33.9896 50.516 33.756C50.6095 34.7604 51.2635 35.7414 51.2168 36.5589H47.8299V26.3283ZM43.2986 29.7152C43.2986 29.7152 44.5365 28.6641 44.5365 28.6174V34.1064H45.4241L45.4008 27.9634C45.7511 27.5896 46.4752 27.0758 46.6387 26.7021V36.5122H38.8373C38.7205 34.4801 38.6972 32.3779 41.0796 32.8217V32.0042C41.0095 31.8641 40.8694 32.0276 40.846 31.8407C41.2198 31.467 41.3366 31.3736 42.3643 30.486L42.3876 34.1064H43.2986V29.7152ZM40.3555 34.0597C40.519 34.2933 41.103 34.2932 41.0563 33.8728C40.9862 33.5225 40.2387 33.6392 40.3555 34.0597Z" fill="#007A3D"/>
<path d="M17.7464 38.1706C18.0044 38.1706 18.2136 37.9615 18.2136 37.7035C18.2136 37.4455 18.0044 37.2363 17.7464 37.2363C17.4884 37.2363 17.2793 37.4455 17.2793 37.7035C17.2793 37.9615 17.4884 38.1706 17.7464 38.1706Z" fill="#007A3D"/>
<path d="M32.4609 26.3517C33.0449 26.6553 33.512 27.0991 34.2361 27.286C34.1427 27.5663 33.8857 27.6831 33.8157 27.9867V34.2932C34.6098 34.4567 34.7733 34.0129 35.147 33.756C35.2638 34.7604 35.8945 35.7648 35.8711 36.5589H32.4609V26.3517Z" fill="#007A3D"/>
</g>
<defs>
<clipPath id="clip0_10660_13036">
<rect width="64" height="64" rx="32" fill="white"/>
</clipPath>
</defs>
</svg>
