<svg width="64" height="64" viewBox="0 0 64 64" fill="none" xmlns="http://www.w3.org/2000/svg">
<g clip-path="url(#clip0_10790_9909)">
<path d="M0 0H64V64H0V0Z" fill="#00ABC2"/>
<path d="M34.5871 35.4894C39.3447 35.4894 43.2015 31.6326 43.2015 26.875C43.2015 22.1174 39.3447 18.2606 34.5871 18.2606C29.8295 18.2606 25.9727 22.1174 25.9727 26.875C25.9727 31.6326 29.8295 35.4894 34.5871 35.4894Z" fill="#FFEC2D"/>
<path d="M34.5868 17.0895C35.0988 17.0831 35.2908 16.7631 35.2908 16.3791C35.2908 15.8671 34.5868 13.4287 34.5868 13.4287C34.5868 13.4287 33.8828 15.8671 33.8828 16.3791C33.8828 16.7631 34.0748 17.0895 34.5868 17.0895Z" fill="#FFEC2D"/>
<path d="M44.3724 26.8751C44.3788 27.3871 44.6988 27.5791 45.0828 27.5791C45.5948 27.5791 48.0332 26.8751 48.0332 26.8751C48.0332 26.8751 45.5948 26.1711 45.0828 26.1711C44.6988 26.1711 44.3724 26.3631 44.3724 26.8751Z" fill="#FFEC2D"/>
<path d="M34.587 36.6607C34.075 36.6671 33.883 36.9871 33.883 37.3711C33.883 37.8831 34.587 40.3215 34.587 40.3215C34.587 40.3215 35.291 37.8831 35.291 37.3711C35.291 36.9871 35.099 36.6607 34.587 36.6607Z" fill="#FFEC2D"/>
<path d="M24.8014 26.8751C24.795 26.3631 24.475 26.1711 24.091 26.1711C23.579 26.1711 21.1406 26.8751 21.1406 26.8751C21.1406 26.8751 23.579 27.5791 24.091 27.5791C24.475 27.5791 24.8014 27.3871 24.8014 26.8751Z" fill="#FFEC2D"/>
<path d="M38.3296 17.8344C38.805 18.0244 39.1049 17.8023 39.2518 17.4475C39.4478 16.9745 39.7305 14.4523 39.7305 14.4523C39.7305 14.4523 38.1469 16.4356 37.951 16.9087C37.8041 17.2634 37.8565 17.6385 38.3296 17.8344Z" fill="#FFEC2D"/>
<path d="M43.6258 30.6198C43.4358 31.0953 43.6579 31.3952 44.0127 31.5421C44.4857 31.738 47.0079 32.0208 47.0079 32.0208C47.0079 32.0208 45.0246 30.4372 44.5515 30.2413C44.1968 30.0943 43.8217 30.1468 43.6258 30.6198Z" fill="#FFEC2D"/>
<path d="M30.8404 35.9158C30.3649 35.7258 30.065 35.948 29.9181 36.3028C29.7222 36.7758 29.4394 39.298 29.4394 39.298C29.4394 39.298 31.023 37.3146 31.2189 36.8416C31.3659 36.4868 31.3134 36.1118 30.8404 35.9158Z" fill="#FFEC2D"/>
<path d="M25.5441 23.1303C25.7341 22.6548 25.512 22.355 25.1572 22.208C24.6842 22.0121 22.162 21.7293 22.162 21.7293C22.162 21.7293 24.1454 23.3129 24.6184 23.5088C24.9732 23.6558 25.3482 23.6033 25.5441 23.1303Z" fill="#FFEC2D"/>
<path d="M41.5049 19.9556C41.8715 20.3132 42.2335 20.2226 42.5051 19.9511C42.8671 19.5891 44.0935 17.3671 44.0935 17.3671C44.0935 17.3671 41.8715 18.5935 41.5095 18.9555C41.2379 19.227 41.1429 19.5936 41.5049 19.9556Z" fill="#FFEC2D"/>
<path d="M41.5054 33.7946C41.1479 34.1612 41.2384 34.5232 41.5099 34.7947C41.872 35.1568 44.094 36.3832 44.094 36.3832C44.094 36.3832 42.8676 34.1612 42.5055 33.7991C42.234 33.5276 41.8675 33.4326 41.5054 33.7946Z" fill="#FFEC2D"/>
<path d="M27.6669 33.7946C27.3004 33.4371 26.9383 33.5276 26.6668 33.7991C26.3048 34.1612 25.0784 36.3832 25.0784 36.3832C25.0784 36.3832 27.3004 35.1568 27.6624 34.7947C27.9339 34.5232 28.029 34.1566 27.6669 33.7946Z" fill="#FFEC2D"/>
<path d="M27.6665 19.9556C28.024 19.5891 27.9335 19.227 27.6619 18.9555C27.2999 18.5935 25.0779 17.3671 25.0779 17.3671C25.0779 17.3671 26.3043 19.5891 26.6663 19.9511C26.9379 20.2226 27.3044 20.3177 27.6665 19.9556Z" fill="#FFEC2D"/>
<path d="M43.6275 23.1303C43.8294 23.6009 44.1985 23.6558 44.5532 23.5089C45.0263 23.3129 47.0096 21.7294 47.0096 21.7294C47.0096 21.7294 44.4874 22.0121 44.0144 22.208C43.6597 22.355 43.4316 22.6573 43.6275 23.1303Z" fill="#FFEC2D"/>
<path d="M38.3315 35.9158C37.8609 36.1177 37.806 36.4868 37.9529 36.8416C38.1489 37.3146 39.7324 39.298 39.7324 39.298C39.7324 39.298 39.4497 36.7758 39.2537 36.3028C39.1068 35.948 38.8045 35.7199 38.3315 35.9158Z" fill="#FFEC2D"/>
<path d="M25.5463 30.6199C25.3445 30.1493 24.9754 30.0944 24.6206 30.2414C24.1476 30.4373 22.1642 32.0209 22.1642 32.0209C22.1642 32.0209 24.6864 31.7381 25.1594 31.5422C25.5142 31.3952 25.7423 31.093 25.5463 30.6199Z" fill="#FFEC2D"/>
<path d="M30.8404 17.8344C31.311 17.6326 31.3659 17.2634 31.219 16.9087C31.023 16.4356 29.4395 14.4523 29.4395 14.4523C29.4395 14.4523 29.7222 16.9745 29.9181 17.4475C30.0651 17.8023 30.3674 18.0303 30.8404 17.8344Z" fill="#FFEC2D"/>
<path d="M36.5062 17.2792C37.0096 17.3732 37.2605 17.097 37.3358 16.7205C37.4361 16.2184 37.2236 13.6893 37.2236 13.6893C37.2236 13.6893 36.0554 15.9425 35.9551 16.4446C35.8798 16.8212 36.0042 17.1788 36.5062 17.2792Z" fill="#FFEC2D"/>
<path d="M44.1843 28.7925C44.0903 29.2958 44.3665 29.5468 44.743 29.622C45.2451 29.7224 47.7742 29.5098 47.7742 29.5098C47.7742 29.5098 45.521 28.3417 45.0189 28.2413C44.6423 28.1661 44.2847 28.2904 44.1843 28.7925Z" fill="#FFEC2D"/>
<path d="M32.6715 36.4709C32.1682 36.3769 31.9172 36.6531 31.8419 37.0296C31.7416 37.5317 31.9542 40.0608 31.9542 40.0608C31.9542 40.0608 33.1223 37.8076 33.2227 37.3055C33.2979 36.929 33.1736 36.5713 32.6715 36.4709Z" fill="#FFEC2D"/>
<path d="M24.9915 24.9576C25.0855 24.4543 24.8093 24.2033 24.4328 24.1281C23.9307 24.0278 21.4016 24.2403 21.4016 24.2403C21.4016 24.2403 23.6548 25.4085 24.1569 25.5088C24.5334 25.584 24.8911 25.4597 24.9915 24.9576Z" fill="#FFEC2D"/>
<path d="M40.0309 18.7433C40.46 19.0228 40.7975 18.8637 41.0112 18.5446C41.296 18.1191 42.0674 15.7012 42.0674 15.7012C42.0674 15.7012 40.126 17.3358 39.8411 17.7613C39.6275 18.0804 39.6055 18.4584 40.0309 18.7433Z" fill="#FFEC2D"/>
<path d="M42.7206 32.3187C42.4411 32.7477 42.6002 33.0853 42.9193 33.2989C43.3448 33.5837 45.7627 34.3552 45.7627 34.3552C45.7627 34.3552 44.128 32.4137 43.7026 32.1288C43.3835 31.9152 43.0054 31.8932 42.7206 32.3187Z" fill="#FFEC2D"/>
<path d="M29.1448 35.0067C28.7158 34.7272 28.3782 34.8863 28.1646 35.2054C27.8798 35.6309 27.1083 38.0488 27.1083 38.0488C27.1083 38.0488 29.0498 36.4142 29.3347 35.9887C29.5483 35.6696 29.5703 35.2916 29.1448 35.0067Z" fill="#FFEC2D"/>
<path d="M26.4571 21.4313C26.7366 21.0023 26.5775 20.6647 26.2584 20.4511C25.833 20.1663 23.4151 19.3948 23.4151 19.3948C23.4151 19.3948 25.0497 21.3363 25.4752 21.6212C25.7943 21.8348 26.1723 21.8568 26.4571 21.4313Z" fill="#FFEC2D"/>
<path d="M42.7278 21.4455C43.0172 21.8679 43.39 21.8501 43.7094 21.637C44.1354 21.3529 45.7734 19.4143 45.7734 19.4143C45.7734 19.4143 43.3542 20.1815 42.9282 20.4656C42.6087 20.6787 42.4437 21.0195 42.7278 21.4455Z" fill="#FFEC2D"/>
<path d="M40.0159 35.0161C39.5935 35.3055 39.6113 35.6783 39.8244 35.9978C40.1085 36.4237 42.0471 38.0618 42.0471 38.0618C42.0471 38.0618 41.2799 35.6425 40.9958 35.2165C40.7827 34.8971 40.4419 34.7321 40.0159 35.0161Z" fill="#FFEC2D"/>
<path d="M26.446 32.3045C26.1566 31.8821 25.7839 31.8999 25.4644 32.113C25.0384 32.3971 23.4004 34.3357 23.4004 34.3357C23.4004 34.3357 25.8197 33.5685 26.2456 33.2844C26.5651 33.0713 26.7301 32.7305 26.446 32.3045Z" fill="#FFEC2D"/>
<path d="M29.1559 18.7339C29.5783 18.4445 29.5605 18.0717 29.3475 17.7522C29.0634 17.3263 27.1248 15.6882 27.1248 15.6882C27.1248 15.6882 27.892 18.1075 28.1761 18.5335C28.3891 18.8529 28.73 19.0179 29.1559 18.7339Z" fill="#FFEC2D"/>
<path d="M44.1863 24.9744C44.292 25.4754 44.6432 25.6016 45.0199 25.527C45.5221 25.4276 47.7774 24.2633 47.7774 24.2633C47.7774 24.2633 45.2487 24.0464 44.7464 24.1458C44.3697 24.2204 44.0868 24.4722 44.1863 24.9744Z" fill="#FFEC2D"/>
<path d="M36.489 36.4742C35.988 36.58 35.8618 36.9312 35.9364 37.3079C36.0358 37.8101 37.2 40.0653 37.2 40.0653C37.2 40.0653 37.417 37.5366 37.3176 37.0344C37.243 36.6577 36.9912 36.3748 36.489 36.4742Z" fill="#FFEC2D"/>
<path d="M24.9875 28.7757C24.8818 28.2747 24.5306 28.1485 24.1539 28.2231C23.6517 28.3226 21.3965 29.4868 21.3965 29.4868C21.3965 29.4868 23.9252 29.7037 24.4274 29.6043C24.8041 29.5297 25.087 29.278 24.9875 28.7757Z" fill="#FFEC2D"/>
<path d="M32.6868 17.2759C33.1878 17.1701 33.314 16.8189 33.2394 16.4423C33.14 15.94 31.9757 13.6848 31.9757 13.6848C31.9757 13.6848 31.7588 16.2135 31.8582 16.7157C31.9328 17.0924 32.1846 17.3753 32.6868 17.2759Z" fill="#FFEC2D"/>
<path d="M34.2883 41.92C34.0643 42.3232 33.9299 42.7904 33.6483 43.1552C32.7779 42.368 31.5235 42.3872 30.4227 42.3424C29.5139 42.2912 28.5283 42.208 27.8243 41.5616C27.0883 40.9536 26.4803 40.1728 25.6611 39.68C24.8912 39.5143 24.1677 39.1799 23.5427 38.7008C22.2499 37.6448 21.5075 36.0768 20.2403 34.9888C20.0035 34.7584 19.7155 34.5728 19.4467 34.3744C19.1907 34.4384 19.3059 34.9888 18.9923 34.7072C18.8195 34.5792 18.3907 34.5728 18.3523 34.7456C18.7363 35.2576 19.1267 35.8336 19.1843 36.4864C18.9155 36.512 18.4483 36.4288 18.3203 36.5248C18.672 37.0524 19.114 37.5139 19.6259 37.888C19.3827 37.9264 18.9027 37.9072 18.8067 38.0032C19.2859 38.4621 19.8774 38.7866 20.5219 38.944C20.6499 39.1232 20.3235 39.4688 20.6051 39.6224C20.7651 39.6864 21.3027 39.8016 20.9315 39.9872C20.6755 40.1536 20.7715 40.5568 21.0979 40.544C21.3027 40.6528 21.7635 40.672 21.8019 40.864C21.6163 41.0432 21.0531 41.2608 21.5331 41.44C21.9856 41.6966 22.492 41.8434 23.0115 41.8688C22.7555 42.0864 22.4355 42.208 22.1731 42.4128C23.3571 43.1104 24.6691 43.5648 25.9747 44.0128C26.4867 44.1792 27.0179 44.3392 27.5555 44.4416C25.9939 44.352 24.4835 43.8912 23.0627 43.2576C22.3267 42.9376 21.5907 42.624 20.8355 42.3488C21.1619 42.176 21.5459 42.1312 21.8915 41.984C21.1747 41.8432 20.4003 41.792 19.7795 41.408C19.8691 41.2288 20.2275 41.2224 20.4323 41.1328C20.8163 41.0432 21.0467 40.9408 20.5155 40.9024C19.9779 40.7552 19.3635 40.8192 18.8835 40.4992C18.9155 40.3072 19.4147 40.3712 19.6131 40.288C19.8691 40.2432 20.1507 40.2048 20.3555 40.032C19.5235 39.6928 18.4355 39.936 17.7827 39.2C17.6355 38.9184 18.2499 39.1424 18.4227 39.0976C18.8707 39.0976 19.3507 39.2384 19.7795 39.0592C18.5635 38.528 17.2643 38.0352 16.3427 37.0496C16.2403 36.8896 15.9331 36.4544 16.1827 36.4032C16.8995 36.4992 17.4179 37.28 18.1923 37.1584C18.2947 37.024 17.7443 36.8 17.6035 36.6016C16.4458 35.6714 15.4359 34.5709 14.6083 33.3376C14.5571 32.9088 15.2163 32.8448 15.3891 33.1712C16.2467 34.0032 17.0211 34.9632 18.0899 35.5264C18.4739 35.712 17.8723 35.3088 17.7955 35.1616C16.779 34.0347 15.9002 32.7908 15.1779 31.456C15.0499 31.2128 14.8515 30.7712 15.2227 30.6432C15.5875 30.4576 15.9587 30.7072 16.1443 31.0272C16.8675 31.9424 17.4051 33.0304 18.3075 33.792C17.5395 32.3008 16.7139 30.72 16.6947 29.0048C16.7139 28.672 16.7331 28.1728 17.1875 28.1792C17.5715 28.1216 17.5075 28.608 17.6355 28.8384C18.0067 30.1056 18.1667 31.4752 18.9155 32.5888C18.7555 31.6544 18.5059 30.688 18.6723 29.7344C18.7107 29.4144 19.0563 29.3248 19.2931 29.5168C19.4787 29.9648 19.5171 30.5344 19.6835 31.0208C20.6809 34.3339 22.7811 37.2063 25.6355 39.1616C27.9727 40.761 30.6999 41.6966 33.5267 41.8688C33.7827 41.8944 34.0387 41.9008 34.2883 41.9136M43.0179 47.744C42.5571 48.0256 42.1987 47.5264 41.8147 47.3792C41.5331 47.5328 41.5075 48.032 41.2515 48.2752C40.9443 48.6272 40.5603 48.1728 40.5923 47.8272C40.2211 48.1408 40.0355 48.8512 39.4403 48.7488C39.1523 48.5184 38.9411 48.032 38.7235 48.5888C38.5507 48.8576 38.0835 49.2416 37.8339 48.832C37.7571 48.4736 37.5779 48.0512 37.3859 48.6208C37.2451 49.0304 36.8099 49.3248 36.4003 49.1456C36.1699 48.96 36.5795 48.2688 36.2915 48.3136C35.8563 48.608 35.6003 49.3184 34.9923 49.2608C34.7555 49.0048 35.1395 48.5504 34.8771 48.256C34.5763 48.6464 34.2371 49.2224 33.7059 49.2608C33.4499 49.056 33.7187 48.4608 33.5523 48.3776C33.0147 48.6976 32.4387 49.28 31.7603 49.1008C32.0227 48.0768 33.1363 47.7248 34.0643 47.648C35.6707 47.4496 37.3603 47.8144 38.9091 47.232C39.1587 47.0784 39.7603 46.8672 39.5491 46.5152C39.3571 46.2336 40.0419 46.3424 40.1059 46.016C40.0675 45.6064 40.4259 45.664 40.7715 45.632C42.3331 45.5616 43.8755 45.888 45.4307 45.9456C45.5459 46.7008 44.7075 47.232 44.0227 47.0016C43.7027 47.0528 43.2227 46.2592 43.3187 46.8352C43.2547 47.1424 43.2931 47.5392 43.0179 47.744ZM29.7443 46.1952C30.1027 46.5216 30.3587 46.1312 30.6979 45.984C31.8056 45.5504 32.8463 44.9622 33.7891 44.2368C34.3779 43.7504 34.8899 43.1168 35.6835 42.9568C37.2323 42.4896 38.8771 42.5472 40.4259 42.112C41.6099 40.4992 43.6131 39.9168 45.2963 38.9888C45.6739 38.8736 45.8211 38.56 45.9363 38.2208C46.5763 37.2032 47.4531 36.3072 48.4899 35.6928C48.9793 35.4038 49.5559 35.2994 50.1155 35.3984C50.0383 36.0513 49.7268 36.654 49.2387 37.0944C49.6163 37.088 49.9427 36.8512 50.3139 36.864C50.4419 37.5424 49.7123 37.8944 49.3219 38.3168C49.5395 38.368 50.3715 38.432 49.9171 38.6496C49.3411 39.0464 48.6819 39.3216 48.1507 39.7888C48.6435 39.8784 48.7011 39.9808 48.2019 40.16C47.9267 40.3392 47.4083 40.4032 47.3571 40.7616C47.7283 40.992 47.1907 41.2096 46.9795 41.2864C46.5827 41.3824 46.1603 41.5552 46.6915 41.8624C46.4931 42.1632 46.0579 42.2272 45.7059 42.1952C45.8147 42.5408 45.9683 42.9248 45.5267 43.0784C44.5361 43.8615 43.3495 44.3574 42.0963 44.512C43.6643 44.6272 45.2835 44.3392 46.6211 43.488C46.8003 43.2768 47.7283 43.0464 47.2099 42.8736C46.9667 42.7712 46.4419 42.656 46.4035 42.4704C47.1331 42.0224 48.0483 42.1824 48.8291 41.92C48.8483 41.664 48.2339 41.7344 48.0035 41.6768C47.4595 41.632 47.4915 41.4912 48.0163 41.44C48.6819 41.2608 49.4371 41.2288 50.0003 40.8C49.5459 40.5824 48.9699 40.768 48.4835 40.5952C49.3091 40.2368 50.2819 40.1984 51.0243 39.6544C51.3635 39.2768 50.5891 39.3984 50.3651 39.4048C49.9107 39.488 49.6995 39.264 50.2179 39.0784C51.1075 38.4192 52.2275 37.9968 52.8547 37.0496C53.0019 36.8384 53.2003 36.1984 52.7267 36.4224C52.1123 36.6336 51.5683 37.3248 50.8579 37.1136C52.2531 36.032 53.5715 34.8096 54.5251 33.3184C54.5763 32.8832 53.8979 32.8384 53.7251 33.1776C52.8291 34.0352 52.0227 35.0528 50.8771 35.5968C51.9569 34.5172 52.8946 33.3042 53.6675 31.9872C53.8403 31.6032 54.2947 31.136 54.0515 30.7072C53.6483 30.3744 53.1491 30.6816 52.9443 31.072C52.2467 31.9808 51.7219 33.0368 50.8323 33.7792C51.6067 32.288 52.4195 30.6944 52.4323 28.9792C52.4323 28.6208 52.3683 28.096 51.8819 28.1664C51.4979 28.2304 51.5939 28.8064 51.4339 29.0944C51.0883 30.272 50.9219 31.5456 50.2179 32.5696C50.3779 31.616 50.6531 30.6176 50.4419 29.6576C50.3395 29.2224 49.6419 29.408 49.7379 29.8368C48.9059 34.0544 46.0707 37.7408 42.3779 39.872C40.6819 40.832 38.7939 41.4464 36.8611 41.728C36.3491 41.8368 35.7859 41.7728 35.2931 41.952C34.0899 42.8672 33.3667 44.4096 31.8499 44.8896C31.1651 45.2288 30.2819 45.2992 29.7955 45.9264C29.7561 46.0103 29.7385 46.1028 29.7443 46.1952ZM33.0531 45.536C32.8227 45.5488 32.5987 45.5744 32.3747 45.6448C32.0739 45.6896 31.7859 45.792 31.4915 45.8368L31.3699 45.8624L31.1715 45.8816C31.1973 45.9889 31.1973 46.1008 31.1715 46.208C31.1507 46.2564 31.1202 46.3 31.0819 46.336C31.0435 46.3872 30.9987 46.4256 30.9411 46.4512C30.8891 46.4768 30.8325 46.492 30.7747 46.496C30.7171 46.496 30.6595 46.496 30.6019 46.4704C30.5443 46.4512 30.4931 46.4192 30.4419 46.3744L30.2627 46.4064H30.0963L29.9171 46.3424C29.8592 46.3198 29.8035 46.292 29.7507 46.2592C29.5331 46.3872 29.2899 46.5088 29.1555 46.7328C29.093 46.8353 29.0578 46.9521 29.0531 47.072C29.0403 47.2256 29.0787 47.3792 29.1427 47.52C29.1683 47.5584 29.1875 47.3728 29.2579 47.3472C29.3795 47.2448 29.5331 47.1744 29.6867 47.136C29.8147 47.072 29.7955 47.136 29.7443 47.2384C29.7315 47.296 29.6611 47.4944 29.7571 47.392C30.1997 47.2267 30.6671 47.138 31.1395 47.1296C31.8179 47.0592 32.4963 47.04 33.1747 47.0336L35.0947 47.072C35.4019 47.0848 35.7091 47.1488 36.0099 47.0976C36.0803 47.0784 36.1955 47.0784 36.2403 47.0336C36.0995 46.9568 35.9395 46.9504 35.7923 46.9312H34.5699C34.2307 46.8992 33.8787 46.8928 33.5587 46.7648C33.4691 46.7328 33.3923 46.6496 33.3091 46.7392C33.1872 46.7828 33.0604 46.8107 32.9315 46.8224C32.7075 46.8352 32.4835 46.7904 32.2787 46.7072C32.4259 46.5024 32.6051 46.3232 32.7715 46.1312L32.3747 46.048C32.6115 45.888 32.8227 45.7024 33.0531 45.536Z" fill="#FFEC2D"/>
<path d="M30.7181 46.2912C30.8029 46.2912 30.8717 46.2224 30.8717 46.1376C30.8717 46.0528 30.8029 45.984 30.7181 45.984C30.6332 45.984 30.5645 46.0528 30.5645 46.1376C30.5645 46.2224 30.6332 46.2912 30.7181 46.2912Z" fill="#FFEC2D"/>
<path d="M30.7046 46.1761C30.74 46.1761 30.7686 46.1474 30.7686 46.1121C30.7686 46.0767 30.74 46.0481 30.7046 46.0481C30.6693 46.0481 30.6406 46.0767 30.6406 46.1121C30.6406 46.1474 30.6693 46.1761 30.7046 46.1761Z" fill="#FFEC2D" stroke="#FFEC2D" stroke-width="0.0256"/>
<path d="M7.68016 4.67202C7.68016 4.67202 7.06576 4.14722 6.85456 4.40962C6.52176 4.82562 7.89136 6.90562 7.89136 7.63522C7.89136 8.83842 7.08496 9.16482 6.09936 9.33122C5.43376 9.44642 4.35216 9.28642 4.35216 9.28642C4.55696 9.01122 4.69136 8.92802 5.03056 8.90882C4.64656 8.71682 4.26256 8.28162 4.26256 7.60962C4.26256 6.57922 4.68496 6.15042 4.68496 4.98562C4.68496 4.35202 4.16016 3.52002 4.16016 3.52002C5.09456 3.61602 5.55536 4.48002 5.29296 5.17122C5.36498 5.18555 5.43943 5.18195 5.50974 5.16075C5.58004 5.13955 5.64406 5.10138 5.69616 5.04962C5.76016 5.24162 5.65776 5.46562 5.51056 5.65762C5.62576 5.72162 5.71536 5.68322 5.89456 5.64482C5.88176 5.83682 5.76656 6.05442 5.47216 6.25282C6.31696 6.03522 6.82896 6.61762 6.82896 7.23202C6.82896 7.69922 6.50896 8.03202 6.18896 8.03202C6.08656 8.03202 5.93296 7.98722 5.84976 7.92322C5.78576 8.05122 5.82416 8.22402 5.88176 8.35202C5.65136 8.28802 5.49776 8.14722 5.60656 7.85922C5.42736 7.84642 5.28656 7.78242 5.19056 7.66722C5.28656 7.53922 5.43376 7.47522 5.60656 7.47522C5.47856 7.20642 5.62576 7.05922 5.83696 6.93762C5.83696 6.93762 5.70256 7.47522 6.04176 7.47522C6.19536 7.47522 6.33616 7.43042 6.33616 7.20002C6.33616 7.00162 6.16336 6.72642 5.76016 6.74562C5.36336 6.76482 5.03696 7.02082 5.03696 7.66082C5.03696 8.24962 5.51696 8.54402 6.14416 8.55682C6.70736 8.58242 7.13616 8.27522 7.13616 7.69282C7.13616 6.91202 6.01616 5.14562 6.01616 4.45442C6.01616 3.93602 6.47696 3.64162 6.93776 3.64162C7.52656 3.64162 8.02576 4.23042 8.02576 4.23042L7.68016 4.66562V4.67202Z" fill="#FFEC2D"/>
<path d="M7.80784 18.6944C7.80784 19.9936 6.64304 20.6592 5.72784 20.6592C4.49904 20.6592 3.83984 19.9232 3.83984 18.9568C3.83984 18.4128 3.94224 18.0672 4.19184 17.5488L7.02064 11.68C7.12312 11.4331 7.16694 11.1658 7.14864 10.8992C7.14864 10.3744 6.63664 9.94557 6.10544 9.93917C5.61904 9.91997 5.08144 10.3872 5.08144 10.9184C5.08144 11.5648 5.42064 11.8528 5.76624 11.8528C6.18864 11.8528 6.35504 11.68 6.35504 11.3792C6.35504 11.1744 6.25904 11.0848 6.11184 11.0848C5.74704 11.0848 5.85584 11.5712 5.85584 11.5712C5.80767 11.5623 5.76206 11.5428 5.72227 11.5143C5.68248 11.4857 5.64948 11.4487 5.62564 11.4059C5.6018 11.3631 5.5877 11.3156 5.58435 11.2667C5.58099 11.2178 5.58847 11.1688 5.60624 11.1232C5.46925 11.0924 5.34581 11.0184 5.25424 10.912C5.35024 10.816 5.46544 10.7456 5.60624 10.72C5.52304 10.4384 5.63824 10.304 5.88144 10.24C5.83769 10.3362 5.82645 10.444 5.84944 10.5472C6.23344 10.432 6.82864 10.6112 6.82864 11.2768C6.82864 11.9424 6.36784 12.4992 5.50384 12.3648C5.70864 12.4608 5.81104 12.6592 5.83664 12.8832C5.67664 12.8192 5.50384 12.8192 5.50384 12.8192C5.60624 12.992 5.74704 13.1392 5.74064 13.4976C5.58064 13.4208 5.42704 13.2864 5.22864 13.3696C5.54864 14.0096 5.15184 14.88 4.14064 15.0848C4.51184 14.6496 4.69104 14.1888 4.69104 13.7216C4.69104 12.2176 4.27504 11.968 4.27504 10.9184C4.28163 10.6749 4.346 10.4366 4.46284 10.2229C4.57968 10.0093 4.74565 9.82645 4.94704 9.68956V9.70876C4.8232 9.68333 4.70613 9.63197 4.60355 9.55807C4.50097 9.48417 4.41518 9.38939 4.35184 9.27997C5.06479 9.08346 5.81847 9.09011 6.52784 9.29917C6.76512 9.33274 6.99182 9.41918 7.19122 9.55211C7.39061 9.68503 7.55759 9.86105 7.67984 10.0672C7.80762 10.3587 7.87359 10.6736 7.87359 10.992C7.87359 11.3103 7.80762 11.6252 7.67984 11.9168C7.27664 12.7488 5.39504 16.7552 4.80624 18.0096C4.67824 18.2784 4.60784 18.56 4.60784 18.8672C4.60784 19.6352 5.31184 19.904 5.70864 19.904C6.18864 19.904 6.68144 19.5392 6.68144 19.0848C6.68144 18.7968 6.52144 18.6176 6.29744 18.6176C5.75344 18.6176 5.78544 19.0784 5.89424 19.3728C5.55504 19.2192 5.36304 18.9504 5.41424 18.6688C5.20423 18.6335 5.01364 18.5246 4.87664 18.3616C5.00464 18.1952 5.17104 18.0672 5.41424 18.0608C5.30544 17.6192 5.60624 17.4336 5.89424 17.3312C5.80464 17.6512 5.74064 18.0288 6.29744 18.0288C6.70064 18.0288 7.01424 18.0928 7.19984 18.3616L7.24464 16.6336C7.27024 16.1152 6.55344 16.1216 6.09264 16.2816C6.26544 15.6864 6.61744 15.36 7.43664 15.4432C7.31114 15.3949 7.20402 15.3083 7.13049 15.1958C7.05697 15.0832 7.02077 14.9503 7.02704 14.816C7.02704 14.3296 7.42384 13.792 7.67984 13.632L7.80784 18.688V18.6944Z" fill="#FFEC2D"/>
<path d="M7.80784 22.5857C7.80784 21.2865 6.64304 20.6209 5.72784 20.6209C4.49904 20.6209 3.83984 21.3569 3.83984 22.3233C3.83984 22.8673 3.94224 23.2129 4.19184 23.7313L7.02064 29.6001C7.12312 29.8469 7.16694 30.1142 7.14864 30.3809C7.14864 30.9057 6.63664 31.3345 6.10544 31.3409C5.61904 31.3601 5.08144 30.8929 5.08144 30.3617C5.08144 29.7153 5.42064 29.4273 5.76624 29.4273C6.18864 29.4273 6.35504 29.6001 6.35504 29.9009C6.35504 30.1057 6.25904 30.1953 6.11184 30.1953C5.74704 30.1953 5.85584 29.7089 5.85584 29.7089C5.80767 29.7178 5.76206 29.7372 5.72227 29.7658C5.68248 29.7943 5.64948 29.8313 5.62564 29.8741C5.6018 29.9169 5.5877 29.9645 5.58435 30.0133C5.58099 30.0622 5.58847 30.1112 5.60624 30.1569C5.46925 30.1876 5.34581 30.2616 5.25424 30.3681C5.35024 30.4641 5.46544 30.5345 5.60624 30.5601C5.52304 30.8417 5.63824 30.9761 5.88144 31.0401C5.83769 30.9439 5.82645 30.836 5.84944 30.7329C6.23344 30.8481 6.82864 30.6689 6.82864 30.0033C6.82864 29.3377 6.36784 28.7809 5.50384 28.9153C5.70864 28.8193 5.81104 28.6209 5.83664 28.3969C5.67664 28.4609 5.50384 28.4609 5.50384 28.4609C5.60624 28.2881 5.74704 28.1409 5.74064 27.7825C5.58064 27.8593 5.42704 27.9937 5.22864 27.9105C5.54864 27.2705 5.15184 26.4001 4.14064 26.1953C4.51184 26.6305 4.69104 27.0913 4.69104 27.5585C4.69104 29.0625 4.27504 29.3121 4.27504 30.3617C4.28163 30.6051 4.346 30.8435 4.46284 31.0571C4.57968 31.2708 4.74565 31.4536 4.94704 31.5905V31.5713C4.8232 31.5967 4.70613 31.6481 4.60355 31.722C4.50097 31.7959 4.41518 31.8906 4.35184 32.0001C5.06479 32.1966 5.81847 32.1899 6.52784 31.9809C6.76512 31.9473 6.99182 31.8609 7.19122 31.7279C7.39061 31.595 7.55759 31.419 7.67984 31.2129C7.80762 30.9213 7.87359 30.6064 7.87359 30.2881C7.87359 29.9697 7.80762 29.6548 7.67984 29.3633C7.27664 28.5313 5.39504 24.5249 4.80624 23.2705C4.67824 23.0017 4.60784 22.7201 4.60784 22.4129C4.60784 21.6449 5.31184 21.3761 5.70864 21.3761C6.18864 21.3761 6.68144 21.7409 6.68144 22.1953C6.68144 22.4833 6.52144 22.6625 6.29744 22.6625C5.75344 22.6625 5.78544 22.2017 5.89424 21.9073C5.55504 22.0609 5.36304 22.3297 5.41424 22.6113C5.20423 22.6465 5.01364 22.7554 4.87664 22.9185C5.00464 23.0849 5.17104 23.2129 5.41424 23.2193C5.30544 23.6609 5.60624 23.8465 5.89424 23.9489C5.80464 23.6289 5.74064 23.2513 6.29744 23.2513C6.70064 23.2513 7.01424 23.1873 7.19984 22.9185L7.24464 24.6465C7.27024 25.1649 6.55344 25.1585 6.09264 24.9985C6.26544 25.5937 6.61744 25.9201 7.43664 25.8369C7.31114 25.8851 7.20402 25.9717 7.13049 26.0843C7.05697 26.1969 7.02077 26.3297 7.02704 26.4641C7.02704 26.9505 7.42384 27.4881 7.67984 27.6481L7.80784 22.5921V22.5857Z" fill="#FFEC2D"/>
<path d="M7.67922 4.67202C7.67922 4.67202 8.29362 4.14722 8.50482 4.40962C8.83762 4.82562 7.46802 6.90562 7.46802 7.63522C7.46802 8.83842 8.27442 9.16482 9.26002 9.33122C9.92562 9.44642 11.0072 9.28642 11.0072 9.28642C10.8024 9.01122 10.668 8.92802 10.3288 8.90882C10.7128 8.71682 11.0968 8.28162 11.0968 7.60962C11.0968 6.57922 10.6744 6.15042 10.6744 4.98562C10.6744 4.35202 11.1992 3.52002 11.1992 3.52002C10.2648 3.61602 9.80402 4.48002 10.0664 5.17122C9.99439 5.18555 9.91995 5.18195 9.84964 5.16075C9.77933 5.13955 9.71531 5.10138 9.66322 5.04962C9.59922 5.24162 9.70162 5.46562 9.84882 5.65762C9.73362 5.72162 9.64402 5.68322 9.46482 5.64482C9.47762 5.83682 9.59282 6.05442 9.88722 6.25282C9.04242 6.03522 8.53042 6.61762 8.53042 7.23202C8.53042 7.69922 8.85042 8.03202 9.17042 8.03202C9.27282 8.03202 9.42642 7.98722 9.50962 7.92322C9.57362 8.05122 9.53522 8.22402 9.47762 8.35202C9.70802 8.28802 9.86162 8.14722 9.75282 7.85922C9.93202 7.84642 10.0728 7.78242 10.1688 7.66722C10.0728 7.53922 9.92562 7.47522 9.75282 7.47522C9.88082 7.20642 9.73362 7.05922 9.52242 6.93762C9.52242 6.93762 9.65682 7.47522 9.31762 7.47522C9.16402 7.47522 9.02322 7.43042 9.02322 7.20002C9.02322 7.00162 9.19602 6.72642 9.59922 6.74562C9.99602 6.76482 10.3224 7.02082 10.3224 7.66082C10.3224 8.24962 9.84242 8.54402 9.21522 8.55682C8.65202 8.58242 8.22322 8.27522 8.22322 7.69282C8.22322 6.91202 9.34322 5.14562 9.34322 4.45442C9.34322 3.93602 8.88242 3.64162 8.42162 3.64162C7.83282 3.64162 7.33362 4.23042 7.33362 4.23042L7.67922 4.66562V4.67202Z" fill="#FFEC2D"/>
<path d="M7.55153 18.6944C7.55153 19.9936 8.71633 20.6592 9.63153 20.6592C10.8603 20.6592 11.5195 19.9232 11.5195 18.9568C11.5195 18.4128 11.4171 18.0672 11.1675 17.5488L8.33873 11.68C8.23625 11.4331 8.19244 11.1658 8.21073 10.8992C8.21073 10.3744 8.72273 9.94557 9.25393 9.93917C9.74033 9.91997 10.2779 10.3872 10.2779 10.9184C10.2779 11.5648 9.93873 11.8528 9.59313 11.8528C9.17073 11.8528 9.00433 11.68 9.00433 11.3792C9.00433 11.1744 9.10033 11.0848 9.24753 11.0848C9.61233 11.0848 9.50353 11.5712 9.50353 11.5712C9.5517 11.5623 9.59731 11.5428 9.6371 11.5143C9.6769 11.4857 9.70989 11.4487 9.73373 11.4059C9.75757 11.3631 9.77168 11.3156 9.77503 11.2667C9.77838 11.2178 9.77091 11.1688 9.75313 11.1232C9.89012 11.0924 10.0136 11.0184 10.1051 10.912C10.0091 10.816 9.89393 10.7456 9.75313 10.72C9.83633 10.4384 9.72113 10.304 9.47793 10.24C9.52169 10.3362 9.53292 10.444 9.50993 10.5472C9.12593 10.432 8.53073 10.6112 8.53073 11.2768C8.53073 11.9424 8.99153 12.4992 9.85553 12.3648C9.65073 12.4608 9.54833 12.6592 9.52273 12.8832C9.68273 12.8192 9.85553 12.8192 9.85553 12.8192C9.75313 12.992 9.61233 13.1392 9.61873 13.4976C9.77873 13.4208 9.93233 13.2864 10.1307 13.3696C9.81073 14.0096 10.2075 14.88 11.2187 15.0848C10.8475 14.6496 10.6683 14.1888 10.6683 13.7216C10.6683 12.2176 11.0843 11.968 11.0843 10.9184C11.0777 10.6749 11.0134 10.4366 10.8965 10.2229C10.7797 10.0093 10.6137 9.82645 10.4123 9.68956V9.70876C10.5362 9.68333 10.6532 9.63197 10.7558 9.55807C10.8584 9.48417 10.9442 9.38939 11.0075 9.27997C10.2946 9.08346 9.5409 9.09011 8.83153 9.29917C8.59425 9.33274 8.36755 9.41918 8.16816 9.55211C7.96877 9.68503 7.80178 9.86105 7.67953 10.0672C7.55175 10.3587 7.48578 10.6736 7.48578 10.992C7.48578 11.3103 7.55175 11.6252 7.67953 11.9168C8.08273 12.7488 9.96433 16.7552 10.5531 18.0096C10.6811 18.2784 10.7515 18.56 10.7515 18.8672C10.7515 19.6352 10.0475 19.904 9.65073 19.904C9.17073 19.904 8.67793 19.5392 8.67793 19.0848C8.67793 18.7968 8.83793 18.6176 9.06193 18.6176C9.60593 18.6176 9.57393 19.0784 9.46513 19.3728C9.80433 19.2192 9.99633 18.9504 9.94513 18.6688C10.1551 18.6335 10.3457 18.5246 10.4827 18.3616C10.3547 18.1952 10.1883 18.0672 9.94513 18.0608C10.0539 17.6192 9.75313 17.4336 9.46513 17.3312C9.55473 17.6512 9.61873 18.0288 9.06193 18.0288C8.65873 18.0288 8.34513 18.0928 8.15953 18.3616L8.11473 16.6336C8.08913 16.1152 8.80593 16.1216 9.26673 16.2816C9.09393 15.6864 8.74193 15.36 7.92273 15.4432C8.04824 15.3949 8.15536 15.3083 8.22888 15.1958C8.3024 15.0832 8.3386 14.9503 8.33233 14.816C8.33233 14.3296 7.93553 13.792 7.67953 13.632L7.55153 18.688V18.6944Z" fill="#FFEC2D"/>
<path d="M7.55153 22.5857C7.55153 21.2865 8.71633 20.6209 9.63153 20.6209C10.8603 20.6209 11.5195 21.3569 11.5195 22.3233C11.5195 22.8673 11.4171 23.2129 11.1675 23.7313L8.33873 29.6001C8.23625 29.8469 8.19244 30.1142 8.21073 30.3809C8.21073 30.9057 8.72273 31.3345 9.25393 31.3409C9.74033 31.3601 10.2779 30.8929 10.2779 30.3617C10.2779 29.7153 9.93873 29.4273 9.59313 29.4273C9.17073 29.4273 9.00433 29.6001 9.00433 29.9009C9.00433 30.1057 9.10033 30.1953 9.24753 30.1953C9.61233 30.1953 9.50353 29.7089 9.50353 29.7089C9.5517 29.7178 9.59731 29.7372 9.6371 29.7658C9.6769 29.7943 9.70989 29.8313 9.73373 29.8741C9.75757 29.9169 9.77168 29.9645 9.77503 30.0133C9.77838 30.0622 9.77091 30.1112 9.75313 30.1569C9.89012 30.1876 10.0136 30.2616 10.1051 30.3681C10.0091 30.4641 9.89393 30.5345 9.75313 30.5601C9.83633 30.8417 9.72113 30.9761 9.47793 31.0401C9.52169 30.9439 9.53292 30.836 9.50993 30.7329C9.12593 30.8481 8.53073 30.6689 8.53073 30.0033C8.53073 29.3377 8.99153 28.7809 9.85553 28.9153C9.65073 28.8193 9.54833 28.6209 9.52273 28.3969C9.68273 28.4609 9.85553 28.4609 9.85553 28.4609C9.75313 28.2881 9.61233 28.1409 9.61873 27.7825C9.77873 27.8593 9.93233 27.9937 10.1307 27.9105C9.81073 27.2705 10.2075 26.4001 11.2187 26.1953C10.8475 26.6305 10.6683 27.0913 10.6683 27.5585C10.6683 29.0625 11.0843 29.3121 11.0843 30.3617C11.0777 30.6051 11.0134 30.8435 10.8965 31.0571C10.7797 31.2708 10.6137 31.4536 10.4123 31.5905V31.5713C10.5362 31.5967 10.6532 31.6481 10.7558 31.722C10.8584 31.7959 10.9442 31.8906 11.0075 32.0001C10.2946 32.1966 9.5409 32.1899 8.83153 31.9809C8.59425 31.9473 8.36755 31.8609 8.16816 31.7279C7.96877 31.595 7.80178 31.419 7.67953 31.2129C7.55175 30.9213 7.48578 30.6064 7.48578 30.2881C7.48578 29.9697 7.55175 29.6548 7.67953 29.3633C8.08273 28.5313 9.96433 24.5249 10.5531 23.2705C10.6811 23.0017 10.7515 22.7201 10.7515 22.4129C10.7515 21.6449 10.0475 21.3761 9.65073 21.3761C9.17073 21.3761 8.67793 21.7409 8.67793 22.1953C8.67793 22.4833 8.83793 22.6625 9.06193 22.6625C9.60593 22.6625 9.57393 22.2017 9.46513 21.9073C9.80433 22.0609 9.99633 22.3297 9.94513 22.6113C10.1551 22.6465 10.3457 22.7554 10.4827 22.9185C10.3547 23.0849 10.1883 23.2129 9.94513 23.2193C10.0539 23.6609 9.75313 23.8465 9.46513 23.9489C9.55473 23.6289 9.61873 23.2513 9.06193 23.2513C8.65873 23.2513 8.34513 23.1873 8.15953 22.9185L8.11473 24.6465C8.08913 25.1649 8.80593 25.1585 9.26673 24.9985C9.09393 25.5937 8.74193 25.9201 7.92273 25.8369C8.04824 25.8851 8.15536 25.9717 8.22888 26.0843C8.3024 26.1969 8.3386 26.3297 8.33233 26.4641C8.33233 26.9505 7.93553 27.4881 7.67953 27.6481L7.55153 22.5921V22.5857Z" fill="#FFEC2D"/>
<path d="M7.68016 59.328C7.68016 59.328 7.06576 59.8528 6.85456 59.5904C6.52176 59.1744 7.89136 57.0944 7.89136 56.3648C7.89136 55.1616 7.08496 54.8352 6.09936 54.6688C5.43376 54.5536 4.35216 54.7136 4.35216 54.7136C4.55696 54.9888 4.69136 55.072 5.03056 55.0912C4.64656 55.2832 4.26256 55.7184 4.26256 56.3904C4.26256 57.4208 4.68496 57.8496 4.68496 59.0144C4.68496 59.648 4.16016 60.48 4.16016 60.48C5.09456 60.384 5.55536 59.52 5.29296 58.8288C5.36498 58.8144 5.43943 58.818 5.50974 58.8392C5.58004 58.8605 5.64406 58.8986 5.69616 58.9504C5.76016 58.7584 5.65776 58.5344 5.51056 58.3424C5.62576 58.2784 5.71536 58.3168 5.89456 58.3552C5.88176 58.1632 5.76656 57.9456 5.47216 57.7472C6.31696 57.9648 6.82896 57.3824 6.82896 56.768C6.82896 56.3008 6.50896 55.968 6.18896 55.968C6.08656 55.968 5.93296 56.0128 5.84976 56.0768C5.78576 55.9488 5.82416 55.776 5.88176 55.648C5.65136 55.712 5.49776 55.8528 5.60656 56.1408C5.42736 56.1536 5.28656 56.2176 5.19056 56.3328C5.28656 56.4608 5.43376 56.5248 5.60656 56.5248C5.47856 56.7936 5.62576 56.9408 5.83696 57.0624C5.83696 57.0624 5.70256 56.5248 6.04176 56.5248C6.19536 56.5248 6.33616 56.5696 6.33616 56.8C6.33616 56.9984 6.16336 57.2736 5.76016 57.2544C5.36336 57.2352 5.03696 56.9792 5.03696 56.3392C5.03696 55.7504 5.51696 55.456 6.14416 55.4432C6.70736 55.4176 7.13616 55.7248 7.13616 56.3072C7.13616 57.088 6.01616 58.8544 6.01616 59.5456C6.01616 60.064 6.47696 60.3584 6.93776 60.3584C7.52656 60.3584 8.02576 59.7696 8.02576 59.7696L7.68016 59.3344V59.328Z" fill="#FFEC2D"/>
<path d="M7.80784 45.3056C7.80784 44.0064 6.64304 43.3408 5.72784 43.3408C4.49904 43.3408 3.83984 44.0768 3.83984 45.0432C3.83984 45.5872 3.94224 45.9328 4.19184 46.4512L7.02064 52.32C7.12312 52.5669 7.16694 52.8342 7.14864 53.1008C7.14864 53.6256 6.63664 54.0544 6.10544 54.0608C5.61904 54.08 5.08144 53.6128 5.08144 53.0816C5.08144 52.4352 5.42064 52.1472 5.76624 52.1472C6.18864 52.1472 6.35504 52.32 6.35504 52.6208C6.35504 52.8256 6.25904 52.9152 6.11184 52.9152C5.74704 52.9152 5.85584 52.4288 5.85584 52.4288C5.80767 52.4377 5.76206 52.4572 5.72227 52.4857C5.68248 52.5143 5.64948 52.5513 5.62564 52.5941C5.6018 52.6369 5.5877 52.6844 5.58435 52.7333C5.58099 52.7822 5.58847 52.8312 5.60624 52.8768C5.46925 52.9076 5.34581 52.9816 5.25424 53.088C5.35024 53.184 5.46544 53.2544 5.60624 53.28C5.52304 53.5616 5.63824 53.696 5.88144 53.76C5.83769 53.6638 5.82645 53.556 5.84944 53.4528C6.23344 53.568 6.82864 53.3888 6.82864 52.7232C6.82864 52.0576 6.36784 51.5008 5.50384 51.6352C5.70864 51.5392 5.81104 51.3408 5.83664 51.1168C5.67664 51.1808 5.50384 51.1808 5.50384 51.1808C5.60624 51.008 5.74704 50.8608 5.74064 50.5024C5.58064 50.5792 5.42704 50.7136 5.22864 50.6304C5.54864 49.9904 5.15184 49.12 4.14064 48.9152C4.51184 49.3504 4.69104 49.8112 4.69104 50.2784C4.69104 51.7824 4.27504 52.032 4.27504 53.0816C4.28163 53.3251 4.346 53.5634 4.46284 53.7771C4.57968 53.9907 4.74565 54.1735 4.94704 54.3104V54.2912C4.8232 54.3167 4.70613 54.368 4.60355 54.4419C4.50097 54.5158 4.41518 54.6106 4.35184 54.72C5.06479 54.9165 5.81847 54.9099 6.52784 54.7008C6.76512 54.6673 6.99182 54.5808 7.19122 54.4479C7.39061 54.315 7.55759 54.1389 7.67984 53.9328C7.80762 53.6413 7.87359 53.3264 7.87359 53.008C7.87359 52.6897 7.80762 52.3748 7.67984 52.0832C7.27664 51.2512 5.39504 47.2448 4.80624 45.9904C4.67824 45.7216 4.60784 45.44 4.60784 45.1328C4.60784 44.3648 5.31184 44.096 5.70864 44.096C6.18864 44.096 6.68144 44.4608 6.68144 44.9152C6.68144 45.2032 6.52144 45.3824 6.29744 45.3824C5.75344 45.3824 5.78544 44.9216 5.89424 44.6272C5.55504 44.7808 5.36304 45.0496 5.41424 45.3312C5.20423 45.3665 5.01364 45.4754 4.87664 45.6384C5.00464 45.8048 5.17104 45.9328 5.41424 45.9392C5.30544 46.3808 5.60624 46.5664 5.89424 46.6688C5.80464 46.3488 5.74064 45.9712 6.29744 45.9712C6.70064 45.9712 7.01424 45.9072 7.19984 45.6384L7.24464 47.3664C7.27024 47.8848 6.55344 47.8784 6.09264 47.7184C6.26544 48.3136 6.61744 48.64 7.43664 48.5568C7.31114 48.6051 7.20402 48.6917 7.13049 48.8042C7.05697 48.9168 7.02077 49.0497 7.02704 49.184C7.02704 49.6704 7.42384 50.208 7.67984 50.368L7.80784 45.312V45.3056Z" fill="#FFEC2D"/>
<path d="M7.80784 41.4143C7.80784 42.7135 6.64304 43.3791 5.72784 43.3791C4.49904 43.3791 3.83984 42.6431 3.83984 41.6767C3.83984 41.1327 3.94224 40.7871 4.19184 40.2687L7.02064 34.3999C7.12312 34.1531 7.16694 33.8858 7.14864 33.6191C7.14864 33.0943 6.63664 32.6655 6.10544 32.6591C5.61904 32.6399 5.08144 33.1071 5.08144 33.6383C5.08144 34.2847 5.42064 34.5727 5.76624 34.5727C6.18864 34.5727 6.35504 34.3999 6.35504 34.0991C6.35504 33.8943 6.25904 33.8047 6.11184 33.8047C5.74704 33.8047 5.85584 34.2911 5.85584 34.2911C5.80767 34.2822 5.76206 34.2628 5.72227 34.2342C5.68248 34.2057 5.64948 34.1687 5.62564 34.1259C5.6018 34.0831 5.5877 34.0355 5.58435 33.9867C5.58099 33.9378 5.58847 33.8888 5.60624 33.8431C5.46925 33.8124 5.34581 33.7384 5.25424 33.6319C5.35024 33.5359 5.46544 33.4655 5.60624 33.4399C5.52304 33.1583 5.63824 33.0239 5.88144 32.9599C5.83769 33.0561 5.82645 33.164 5.84944 33.2671C6.23344 33.1519 6.82864 33.3311 6.82864 33.9967C6.82864 34.6623 6.36784 35.2191 5.50384 35.0847C5.70864 35.1807 5.81104 35.3791 5.83664 35.6031C5.67664 35.5391 5.50384 35.5391 5.50384 35.5391C5.60624 35.7119 5.74704 35.8591 5.74064 36.2175C5.58064 36.1407 5.42704 36.0063 5.22864 36.0895C5.54864 36.7295 5.15184 37.5999 4.14064 37.8047C4.51184 37.3695 4.69104 36.9087 4.69104 36.4415C4.69104 34.9375 4.27504 34.6879 4.27504 33.6383C4.28163 33.3949 4.346 33.1565 4.46284 32.9429C4.57968 32.7292 4.74565 32.5464 4.94704 32.4095V32.4287C4.8232 32.4033 4.70613 32.3519 4.60355 32.278C4.50097 32.2041 4.41518 32.1094 4.35184 31.9999C5.06479 31.8034 5.81847 31.8101 6.52784 32.0191C6.76512 32.0527 6.99182 32.1391 7.19122 32.2721C7.39061 32.405 7.55759 32.581 7.67984 32.7871C7.80762 33.0787 7.87359 33.3936 7.87359 33.7119C7.87359 34.0303 7.80762 34.3452 7.67984 34.6367C7.27664 35.4687 5.39504 39.4751 4.80624 40.7295C4.67824 40.9983 4.60784 41.2799 4.60784 41.5871C4.60784 42.3551 5.31184 42.6239 5.70864 42.6239C6.18864 42.6239 6.68144 42.2591 6.68144 41.8047C6.68144 41.5167 6.52144 41.3375 6.29744 41.3375C5.75344 41.3375 5.78544 41.7983 5.89424 42.0927C5.55504 41.9391 5.36304 41.6703 5.41424 41.3887C5.20423 41.3535 5.01364 41.2446 4.87664 41.0815C5.00464 40.9151 5.17104 40.7871 5.41424 40.7807C5.30544 40.3391 5.60624 40.1535 5.89424 40.0511C5.80464 40.3711 5.74064 40.7487 6.29744 40.7487C6.70064 40.7487 7.01424 40.8127 7.19984 41.0815L7.24464 39.3535C7.27024 38.8351 6.55344 38.8415 6.09264 39.0015C6.26544 38.4063 6.61744 38.0799 7.43664 38.1631C7.31114 38.1149 7.20402 38.0283 7.13049 37.9157C7.05697 37.8031 7.02077 37.6703 7.02704 37.5359C7.02704 37.0495 7.42384 36.5119 7.67984 36.3519L7.80784 41.4079V41.4143Z" fill="#FFEC2D"/>
<path d="M7.67922 59.328C7.67922 59.328 8.29362 59.8528 8.50482 59.5904C8.83762 59.1744 7.46802 57.0944 7.46802 56.3648C7.46802 55.1616 8.27442 54.8352 9.26002 54.6688C9.92562 54.5536 11.0072 54.7136 11.0072 54.7136C10.8024 54.9888 10.668 55.072 10.3288 55.0912C10.7128 55.2832 11.0968 55.7184 11.0968 56.3904C11.0968 57.4208 10.6744 57.8496 10.6744 59.0144C10.6744 59.648 11.1992 60.48 11.1992 60.48C10.2648 60.384 9.80402 59.52 10.0664 58.8288C9.99439 58.8144 9.91995 58.818 9.84964 58.8392C9.77933 58.8605 9.71531 58.8986 9.66322 58.9504C9.59922 58.7584 9.70162 58.5344 9.84882 58.3424C9.73362 58.2784 9.64402 58.3168 9.46482 58.3552C9.47762 58.1632 9.59282 57.9456 9.88722 57.7472C9.04242 57.9648 8.53042 57.3824 8.53042 56.768C8.53042 56.3008 8.85042 55.968 9.17042 55.968C9.27282 55.968 9.42642 56.0128 9.50962 56.0768C9.57362 55.9488 9.53522 55.776 9.47762 55.648C9.70802 55.712 9.86162 55.8528 9.75282 56.1408C9.93202 56.1536 10.0728 56.2176 10.1688 56.3328C10.0728 56.4608 9.92562 56.5248 9.75282 56.5248C9.88082 56.7936 9.73362 56.9408 9.52242 57.0624C9.52242 57.0624 9.65682 56.5248 9.31762 56.5248C9.16402 56.5248 9.02322 56.5696 9.02322 56.8C9.02322 56.9984 9.19602 57.2736 9.59922 57.2544C9.99602 57.2352 10.3224 56.9792 10.3224 56.3392C10.3224 55.7504 9.84242 55.456 9.21522 55.4432C8.65202 55.4176 8.22322 55.7248 8.22322 56.3072C8.22322 57.088 9.34322 58.8544 9.34322 59.5456C9.34322 60.064 8.88242 60.3584 8.42162 60.3584C7.83282 60.3584 7.33362 59.7696 7.33362 59.7696L7.67922 59.3344V59.328Z" fill="#FFEC2D"/>
<path d="M7.55153 45.3056C7.55153 44.0064 8.71633 43.3408 9.63153 43.3408C10.8603 43.3408 11.5195 44.0768 11.5195 45.0432C11.5195 45.5872 11.4171 45.9328 11.1675 46.4512L8.33873 52.32C8.23625 52.5669 8.19244 52.8342 8.21073 53.1008C8.21073 53.6256 8.72273 54.0544 9.25393 54.0608C9.74033 54.08 10.2779 53.6128 10.2779 53.0816C10.2779 52.4352 9.93873 52.1472 9.59313 52.1472C9.17073 52.1472 9.00433 52.32 9.00433 52.6208C9.00433 52.8256 9.10033 52.9152 9.24753 52.9152C9.61233 52.9152 9.50353 52.4288 9.50353 52.4288C9.5517 52.4377 9.59731 52.4572 9.6371 52.4857C9.6769 52.5143 9.70989 52.5513 9.73373 52.5941C9.75757 52.6369 9.77168 52.6844 9.77503 52.7333C9.77838 52.7822 9.77091 52.8312 9.75313 52.8768C9.89012 52.9076 10.0136 52.9816 10.1051 53.088C10.0091 53.184 9.89393 53.2544 9.75313 53.28C9.83633 53.5616 9.72113 53.696 9.47793 53.76C9.52169 53.6638 9.53292 53.556 9.50993 53.4528C9.12593 53.568 8.53073 53.3888 8.53073 52.7232C8.53073 52.0576 8.99153 51.5008 9.85553 51.6352C9.65073 51.5392 9.54833 51.3408 9.52273 51.1168C9.68273 51.1808 9.85553 51.1808 9.85553 51.1808C9.75313 51.008 9.61233 50.8608 9.61873 50.5024C9.77873 50.5792 9.93233 50.7136 10.1307 50.6304C9.81073 49.9904 10.2075 49.12 11.2187 48.9152C10.8475 49.3504 10.6683 49.8112 10.6683 50.2784C10.6683 51.7824 11.0843 52.032 11.0843 53.0816C11.0777 53.3251 11.0134 53.5634 10.8965 53.7771C10.7797 53.9907 10.6137 54.1735 10.4123 54.3104V54.2912C10.5362 54.3167 10.6532 54.368 10.7558 54.4419C10.8584 54.5158 10.9442 54.6106 11.0075 54.72C10.2946 54.9165 9.5409 54.9099 8.83153 54.7008C8.59425 54.6673 8.36755 54.5808 8.16816 54.4479C7.96877 54.315 7.80178 54.1389 7.67953 53.9328C7.55175 53.6413 7.48578 53.3264 7.48578 53.008C7.48578 52.6897 7.55175 52.3748 7.67953 52.0832C8.08273 51.2512 9.96433 47.2448 10.5531 45.9904C10.6811 45.7216 10.7515 45.44 10.7515 45.1328C10.7515 44.3648 10.0475 44.096 9.65073 44.096C9.17073 44.096 8.67793 44.4608 8.67793 44.9152C8.67793 45.2032 8.83793 45.3824 9.06193 45.3824C9.60593 45.3824 9.57393 44.9216 9.46513 44.6272C9.80433 44.7808 9.99633 45.0496 9.94513 45.3312C10.1551 45.3665 10.3457 45.4754 10.4827 45.6384C10.3547 45.8048 10.1883 45.9328 9.94513 45.9392C10.0539 46.3808 9.75313 46.5664 9.46513 46.6688C9.55473 46.3488 9.61873 45.9712 9.06193 45.9712C8.65873 45.9712 8.34513 45.9072 8.15953 45.6384L8.11473 47.3664C8.08913 47.8848 8.80593 47.8784 9.26673 47.7184C9.09393 48.3136 8.74193 48.64 7.92273 48.5568C8.04824 48.6051 8.15536 48.6917 8.22888 48.8042C8.3024 48.9168 8.3386 49.0497 8.33233 49.184C8.33233 49.6704 7.93553 50.208 7.67953 50.368L7.55153 45.312V45.3056Z" fill="#FFEC2D"/>
<path d="M7.55153 41.4143C7.55153 42.7135 8.71633 43.3791 9.63153 43.3791C10.8603 43.3791 11.5195 42.6431 11.5195 41.6767C11.5195 41.1327 11.4171 40.7871 11.1675 40.2687L8.33873 34.3999C8.23625 34.1531 8.19244 33.8858 8.21073 33.6191C8.21073 33.0943 8.72273 32.6655 9.25393 32.6591C9.74033 32.6399 10.2779 33.1071 10.2779 33.6383C10.2779 34.2847 9.93873 34.5727 9.59313 34.5727C9.17073 34.5727 9.00433 34.3999 9.00433 34.0991C9.00433 33.8943 9.10033 33.8047 9.24753 33.8047C9.61233 33.8047 9.50353 34.2911 9.50353 34.2911C9.5517 34.2822 9.59731 34.2628 9.6371 34.2342C9.6769 34.2057 9.70989 34.1687 9.73373 34.1259C9.75757 34.0831 9.77168 34.0355 9.77503 33.9867C9.77838 33.9378 9.77091 33.8888 9.75313 33.8431C9.89012 33.8124 10.0136 33.7384 10.1051 33.6319C10.0091 33.5359 9.89393 33.4655 9.75313 33.4399C9.83633 33.1583 9.72113 33.0239 9.47793 32.9599C9.52169 33.0561 9.53292 33.164 9.50993 33.2671C9.12593 33.1519 8.53073 33.3311 8.53073 33.9967C8.53073 34.6623 8.99153 35.2191 9.85553 35.0847C9.65073 35.1807 9.54833 35.3791 9.52273 35.6031C9.68273 35.5391 9.85553 35.5391 9.85553 35.5391C9.75313 35.7119 9.61233 35.8591 9.61873 36.2175C9.77873 36.1407 9.93233 36.0063 10.1307 36.0895C9.81073 36.7295 10.2075 37.5999 11.2187 37.8047C10.8475 37.3695 10.6683 36.9087 10.6683 36.4415C10.6683 34.9375 11.0843 34.6879 11.0843 33.6383C11.0777 33.3949 11.0134 33.1565 10.8965 32.9429C10.7797 32.7292 10.6137 32.5464 10.4123 32.4095V32.4287C10.5362 32.4033 10.6532 32.3519 10.7558 32.278C10.8584 32.2041 10.9442 32.1094 11.0075 31.9999C10.2946 31.8034 9.5409 31.8101 8.83153 32.0191C8.59425 32.0527 8.36755 32.1391 8.16816 32.2721C7.96877 32.405 7.80178 32.581 7.67953 32.7871C7.55175 33.0787 7.48578 33.3936 7.48578 33.7119C7.48578 34.0303 7.55175 34.3452 7.67953 34.6367C8.08273 35.4687 9.96433 39.4751 10.5531 40.7295C10.6811 40.9983 10.7515 41.2799 10.7515 41.5871C10.7515 42.3551 10.0475 42.6239 9.65073 42.6239C9.17073 42.6239 8.67793 42.2591 8.67793 41.8047C8.67793 41.5167 8.83793 41.3375 9.06193 41.3375C9.60593 41.3375 9.57393 41.7983 9.46513 42.0927C9.80433 41.9391 9.99633 41.6703 9.94513 41.3887C10.1551 41.3535 10.3457 41.2446 10.4827 41.0815C10.3547 40.9151 10.1883 40.7871 9.94513 40.7807C10.0539 40.3391 9.75313 40.1535 9.46513 40.0511C9.55473 40.3711 9.61873 40.7487 9.06193 40.7487C8.65873 40.7487 8.34513 40.8127 8.15953 41.0815L8.11473 39.3535C8.08913 38.8351 8.80593 38.8415 9.26673 39.0015C9.09393 38.4063 8.74193 38.0799 7.92273 38.1631C8.04824 38.1149 8.15536 38.0283 8.22888 37.9157C8.3024 37.8031 8.3386 37.6703 8.33233 37.5359C8.33233 37.0495 7.93553 36.5119 7.67953 36.3519L7.55153 41.4079V41.4143Z" fill="#FFEC2D"/>
</g>
<defs>
<clipPath id="clip0_10790_9909">
<rect width="64" height="64" rx="32" fill="white"/>
</clipPath>
</defs>
</svg>
