<svg width="64" height="64" viewBox="0 0 64 64" fill="none" xmlns="http://www.w3.org/2000/svg">
<g clip-path="url(#clip0_10790_9980)">
<path d="M0 0H64V64H0V0Z" fill="white"/>
<path d="M0 0H64V19.2H0V0Z" fill="#000001"/>
<path d="M0 44.8H64V64H0V44.8Z" fill="#006600"/>
<path d="M20.5352 51L21.2552 51.4L39.9352 19C41.0152 18.76 41.6152 17.72 42.2152 16.68C42.6152 15.96 44.2152 13.2 44.8952 9.59998C42.9975 11.2863 41.3894 13.2727 40.1352 15.48C39.5352 16.52 38.9352 17.56 39.2152 18.64L20.5352 51Z" fill="black" stroke="black" stroke-width="0.4"/>
<path d="M20.5352 51L21.2552 51.4L39.9352 19C41.0152 18.76 41.6152 17.72 42.2152 16.68C42.6152 15.96 44.2152 13.2 44.8952 9.59998C42.9975 11.2863 41.3894 13.2727 40.1352 15.48C39.5352 16.52 38.9352 17.56 39.2152 18.64L20.5352 51Z" fill="white"/>
<path d="M43.4277 51L42.7077 51.4L24.0277 19C22.9477 18.76 22.3477 17.72 21.7477 16.68C21.3477 15.96 19.7477 13.2 19.0677 9.59998C20.9654 11.2863 22.5735 13.2727 23.8277 15.48C24.4277 16.52 25.0277 17.56 24.7477 18.64L43.4277 51Z" fill="black" stroke="black" stroke-width="0.4"/>
<path d="M43.4277 51L42.7077 51.4L24.0277 19C22.9477 18.76 22.3477 17.72 21.7477 16.68C21.3477 15.96 19.7477 13.2 19.0677 9.59998C20.9654 11.2863 22.5735 13.2727 23.8277 15.48C24.4277 16.52 25.0277 17.56 24.7477 18.64L43.4277 51Z" fill="white"/>
<path d="M31.975 12.8C29.575 12.8 25.575 19.2 24.375 22.4H0V41.6H24.375C25.5875 44.8 29.5875 51.2001 31.9875 51.2001C34.3875 51.2001 38.3875 44.8 39.5875 41.6H64V22.4H39.575C38.375 19.2 34.375 12.8 31.975 12.8Z" fill="#BB0000"/>
<path d="M39.5742 41.6C40.8106 38.5457 41.4881 35.294 41.5742 32C41.4881 28.706 40.8106 25.4544 39.5742 22.4C38.3378 25.4544 37.6604 28.706 37.5742 32C37.6604 35.294 38.3378 38.5457 39.5742 41.6Z" fill="black"/>
<path d="M24.3867 41.6C23.1503 38.5457 22.4729 35.294 22.3867 32C22.4729 28.706 23.1503 25.4544 24.3867 22.4C25.6231 25.4544 26.3006 28.706 26.3867 32C26.3006 35.294 25.6231 38.5457 24.3867 41.6Z" fill="black"/>
<path d="M31.975 34.4C32.8587 34.4 33.575 33.3255 33.575 32C33.575 30.6745 32.8587 29.6 31.975 29.6C31.0913 29.6 30.375 30.6745 30.375 32C30.375 33.3255 31.0913 34.4 31.975 34.4Z" fill="white"/>
<path d="M32.375 34.3199C32.375 34.3199 33.975 37.5199 33.975 42.7199C33.975 47.9199 32.375 51.1199 32.375 51.1199V34.3199Z" fill="white"/>
<path d="M31.5742 29.6801C31.5742 29.6801 29.9742 26.4801 29.9742 21.2801C29.9742 16.0801 31.5742 12.8801 31.5742 12.8801V29.6801Z" fill="white"/>
<path d="M31.5742 34.3199C31.5742 34.3199 29.9742 37.5199 29.9742 42.7199C29.9742 47.9199 31.5742 51.1199 31.5742 51.1199V34.3199Z" fill="white"/>
<path d="M32.375 29.6801C32.375 29.6801 33.975 26.4801 33.975 21.2801C33.975 16.0801 32.375 12.8801 32.375 12.8801V29.6801Z" fill="white"/>
</g>
<defs>
<clipPath id="clip0_10790_9980">
<rect width="64" height="64" rx="32" fill="white"/>
</clipPath>
</defs>
</svg>
