<svg width="64" height="64" viewBox="0 0 64 64" fill="none" xmlns="http://www.w3.org/2000/svg">
<g clip-path="url(#clip0_10790_9999)">
<mask id="mask0_10790_9999" style="mask-type:luminance" maskUnits="userSpaceOnUse" x="-1" y="0" width="65" height="64">
<path d="M-0.00195312 0.00488281H63.9989V63.9928H-0.00195312V0.00488281Z" fill="white"/>
</mask>
<g mask="url(#mask0_10790_9999)">
<path fill-rule="evenodd" clip-rule="evenodd" d="M-20.541 0.00488281H83.9274V38.2987H-20.541V0.00488281Z" fill="#E73E2D"/>
<path fill-rule="evenodd" clip-rule="evenodd" d="M25.5357 35.2529C23.1017 33.3655 18.572 34.0033 17.8301 28.8489C21.2924 31.5302 20.6676 28.6927 25.8481 31.2569L25.5357 35.2529Z" fill="#FEC74A" stroke="#D8AA3F" stroke-width="0.20826"/>
<path fill-rule="evenodd" clip-rule="evenodd" d="M26.1858 32.91C24.4417 30.3588 19.938 29.5909 20.8101 24.4495C23.2832 28.068 23.5566 25.1784 27.7087 29.2004L26.1728 32.91H26.1858Z" fill="#FEC74A" stroke="#D8AA3F" stroke-width="0.20826"/>
<path fill-rule="evenodd" clip-rule="evenodd" d="M26.9679 31.2439C26.3431 28.2371 22.4772 25.7901 25.2497 21.3776C26.1608 25.6729 27.5015 23.0957 29.8054 28.4063L26.9679 31.2439Z" fill="#FEC74A" stroke="#D8AA3F" stroke-width="0.20826"/>
<path fill-rule="evenodd" clip-rule="evenodd" d="M28.7893 29.708C29.1147 26.6362 26.186 23.1348 30.169 19.7766C29.7134 24.1371 31.796 22.1195 32.3557 27.8467L28.7763 29.708H28.7893Z" fill="#FEC74A" stroke="#D8AA3F" stroke-width="0.20826"/>
<path fill-rule="evenodd" clip-rule="evenodd" d="M30.4043 28.4584C31.9662 25.8031 30.7167 21.4036 35.7279 19.9718C33.5282 23.7595 36.2486 22.7573 34.4133 28.2371L30.4043 28.4584Z" fill="#FEC74A" stroke="#D8AA3F" stroke-width="0.20826"/>
<path fill-rule="evenodd" clip-rule="evenodd" d="M32.7598 28.7839C35.0767 26.7533 35.2979 22.1976 40.5044 22.4319C37.2113 25.3215 40.1139 25.2434 36.6386 29.8512L32.7598 28.7839Z" fill="#FEC74A" stroke="#D8AA3F" stroke-width="0.20826"/>
<path fill-rule="evenodd" clip-rule="evenodd" d="M34.8301 29.9682C37.6416 28.7187 39.1905 24.4233 44.0976 26.1805C40.1017 27.9768 42.9002 28.7577 38.2143 32.1289L34.8301 29.9813V29.9682Z" fill="#FEC74A" stroke="#D8AA3F" stroke-width="0.20826"/>
<path fill-rule="evenodd" clip-rule="evenodd" d="M36.5469 31.8686C39.6057 31.4521 42.3001 27.7555 46.5173 30.8273C42.1699 31.4261 44.643 32.962 39.2022 34.8884L36.5469 31.8686Z" fill="#FEC74A" stroke="#D8AA3F" stroke-width="0.20826"/>
<path fill-rule="evenodd" clip-rule="evenodd" d="M47.4293 32.4414L33.4238 32.7538L34.0096 36.5285L47.4293 32.4414Z" fill="#FEC74A" stroke="#D8AA3F" stroke-width="0.20826"/>
<path fill-rule="evenodd" clip-rule="evenodd" d="M45.3717 27.2999L32.3945 32.2852L34.5682 36.4503L45.3717 27.2999Z" fill="#FEC74A" stroke="#D8AA3F" stroke-width="0.20826"/>
<path fill-rule="evenodd" clip-rule="evenodd" d="M35.0638 35.0837L41.7802 22.8875L31.4844 32.4674L35.0638 35.0837Z" fill="#FEC74A" stroke="#D8AA3F" stroke-width="0.20826"/>
<path fill-rule="evenodd" clip-rule="evenodd" d="M34.9421 34.0739L37.1024 20.3907L30.3735 32.5621L34.9421 34.0739Z" fill="#FEC74A" stroke="#D8AA3F" stroke-width="0.215798"/>
<path fill-rule="evenodd" clip-rule="evenodd" d="M34.1272 32.9621L31.8624 19.1779L29.3633 33.0271L34.1272 32.9621Z" fill="#FEC74A" stroke="#D8AA3F" stroke-width="0.20826"/>
<path fill-rule="evenodd" clip-rule="evenodd" d="M32.946 31.7935L26.4054 20.292L28.9167 34.2727L32.946 31.7935Z" fill="#FEC74A" stroke="#D8AA3F" stroke-width="0.21601"/>
<path fill-rule="evenodd" clip-rule="evenodd" d="M31.9404 31.6995L21.8008 23.1348L29.0118 35.3831L31.9404 31.6995Z" fill="#FEC74A" stroke="#D8AA3F" stroke-width="0.20826"/>
<path fill-rule="evenodd" clip-rule="evenodd" d="M18.2474 27.3651L29.116 36.3463L30.7951 31.6474L18.2344 27.3521L18.2474 27.3651Z" fill="#FEC74A" stroke="#D8AA3F" stroke-width="0.20826"/>
<path fill-rule="evenodd" clip-rule="evenodd" d="M29.0118 32.6106L16.2168 32.4283L28.9597 36.6716L28.9988 32.6106H29.0118Z" fill="#FEC74A" stroke="#D8AA3F" stroke-width="0.20826"/>
<path fill-rule="evenodd" clip-rule="evenodd" d="M39.3859 34.9145C39.4285 35.9487 39.2616 36.9809 38.8952 37.9489C38.5288 38.917 37.9704 39.8011 37.2537 40.5479C36.537 41.2947 35.6767 41.889 34.7245 42.2949C33.7723 42.7009 32.7479 42.9101 31.7128 42.9101C30.6777 42.9101 29.6533 42.7009 28.7011 42.2949C27.7489 41.889 26.8886 41.2947 26.1719 40.5479C25.4552 39.8011 24.8968 38.917 24.5304 37.9489C24.164 36.9809 23.9971 35.9487 24.0397 34.9145C24.0397 32.8777 24.8488 30.9244 26.289 29.4842C27.7292 28.044 29.6825 27.2349 31.7193 27.2349C33.7561 27.2349 35.7094 28.044 37.1496 29.4842C38.5898 30.9244 39.3989 32.8777 39.3989 34.9145H39.3859Z" fill="#FEC74A" stroke="#D8AA3F" stroke-width="0.20826"/>
<path fill-rule="evenodd" clip-rule="evenodd" d="M-20.6465 37.9213H84.3426V63.9928H-20.6465V37.9213Z" fill="#005989"/>
<path fill-rule="evenodd" clip-rule="evenodd" d="M-20.6979 56.7427C-18.7455 57.6538 -15.96 59.9056 -12.9663 59.9056C-7.95503 59.8796 -7.82486 56.4824 -2.74853 56.6516C2.32781 56.7817 1.41668 60.3482 8.27624 60.3222C13.9383 60.3222 15.7736 55.9877 20.6677 56.5084C24.2862 56.3262 25.7701 60.5955 31.341 60.6476C37.1072 60.7777 39.2159 55.9877 42.8344 56.3912C46.7002 56.3912 47.9628 60.2441 53.3775 60.2701C60.2762 60.3091 61.4737 56.2611 65.782 56.5214C68.8539 56.4563 71.2749 59.4891 75.7785 59.5542C79.358 59.6193 82.3647 56.9119 84.3953 55.9357L84.4994 51.3279C82.3647 52.1219 79.2018 54.7122 76.0258 54.7512C71.4701 54.9204 68.6456 51.7575 65.4696 51.7835C61.6689 51.8225 60.159 55.6884 53.716 55.6884C47.8196 55.6884 46.4659 51.7835 42.6652 51.7835C38.9555 51.8095 37.8231 56.0398 31.3931 55.9487C26.1476 55.8966 24.104 51.9137 20.3814 51.9527C16.4504 51.9527 12.3764 55.8185 8.01591 55.6233C2.00241 55.363 0.700781 51.9527 -3.24314 51.9527C-6.18482 51.9527 -9.36078 55.1547 -12.9012 55.2068C-16.4156 55.2719 -20.3855 52.0178 -20.75 51.9527L-20.6979 56.7427ZM-20.6979 47.6313C-18.7455 48.5425 -15.96 50.7943 -12.9663 50.7943C-7.95503 50.7552 -7.82486 47.358 -2.74853 47.5272C2.32781 47.6573 1.41668 51.2238 8.27624 51.2108C13.9383 51.1978 15.7736 46.8764 20.6677 47.397C24.2862 47.2018 25.7701 51.4841 31.341 51.5362C37.1072 51.6664 39.2159 46.8764 42.8344 47.2669C46.7002 47.2669 47.9628 51.1197 53.3775 51.1587C60.2762 51.1847 61.4737 47.1497 65.782 47.397C68.8539 47.3319 71.2749 50.3647 75.7785 50.4428C79.358 50.5079 82.3647 47.7875 84.3953 46.8243L84.4994 42.2166C82.3647 42.9975 79.2018 45.6008 76.0258 45.6268C71.4701 45.796 68.6456 42.6331 65.4696 42.6591C61.6689 42.6982 60.159 46.564 53.716 46.564C47.8196 46.564 46.4659 42.6591 42.6652 42.6591C38.9555 42.6982 37.8231 46.9154 31.3931 46.8373C26.1476 46.7722 24.104 42.8023 20.3814 42.8413C16.4504 42.8413 12.3764 46.6941 8.01591 46.5119C2.00241 46.2516 0.700781 42.8413 -3.24314 42.8413C-6.18482 42.8413 -9.36078 46.0433 -12.9012 46.0954C-16.4156 46.1475 -20.3855 42.9064 -20.75 42.8413L-20.6979 47.6313Z" fill="white"/>
<path fill-rule="evenodd" clip-rule="evenodd" d="M-20.6979 38.6111C-18.7455 39.5222 -15.96 41.774 -12.9663 41.774C-7.96804 41.735 -7.83788 38.3507 -2.77456 38.5069C2.30178 38.6371 1.39064 42.2035 8.2502 42.1905C13.9123 42.1905 15.7476 37.8561 20.6156 38.3768C24.2472 38.1945 25.718 42.4639 31.289 42.5159C37.0421 42.6461 39.1638 37.8561 42.7823 38.2596C46.6351 38.2596 47.8977 42.1124 53.2994 42.1385C60.1981 42.1645 61.3955 38.1295 65.7039 38.3898C68.7758 38.3247 71.1838 41.3445 75.6874 41.4226C79.2669 41.4876 82.2736 38.7672 84.2911 37.804L84.3953 33.1963C82.2736 33.9903 79.0976 36.5805 75.9347 36.6065C71.379 36.7758 68.5545 33.6128 65.3915 33.6519C61.5908 33.6779 60.0809 37.5567 53.6379 37.5567C47.7545 37.5567 46.4008 33.6519 42.6131 33.6519C38.9035 33.6779 37.758 37.8952 31.341 37.8171C26.0955 37.765 24.0519 33.782 20.3423 33.8211C16.4114 33.8211 12.3503 37.6739 7.98988 37.4917C1.97637 37.2313 0.674747 33.8211 -3.25616 33.8211C-6.19783 33.8211 -9.3738 37.0231 -12.9142 37.0751C-16.4286 37.1272 -20.3855 33.8862 -20.75 33.8211L-20.6979 38.6111Z" fill="white"/>
<path fill-rule="evenodd" clip-rule="evenodd" d="M17.1016 9.49372C24.7291 8.97307 23.3363 8.32225 26.4082 7.82764C30.274 8.34829 30.7166 10.6912 32.8773 12.136C32.8773 12.136 32.0702 14.8694 29.4149 14.492C29.0635 13.3986 30.7035 13.0602 25.9786 10.1706C23.2322 10.0144 18.3251 10.6522 17.1016 9.49372ZM40.7521 13.737L35.2592 13.9583V15.325C38.9689 15.4421 39.6327 14.9345 40.7521 13.737Z" fill="#FFC84B" stroke="#D8AA3F" stroke-width="0.221276"/>
<path fill-rule="evenodd" clip-rule="evenodd" d="M21.8529 13.5027C22.8161 13.0081 23.2846 13.2164 24.1177 13.1773C24.6904 14.2186 25.2241 14.3097 26.4736 14.4399C27.0267 15.2587 27.768 15.933 28.6354 16.4063C29.5028 16.8797 30.471 17.1382 31.4589 17.1603C35.1945 17.0562 36.379 14.4399 38.8911 14.1535H41.5464C41.1039 13.3986 40.7655 12.969 39.8023 12.93C37.5365 12.774 35.26 12.9229 33.0338 13.3726L29.9099 14.1535C28.9988 13.711 26.747 11.355 25.3152 11.4071C24.4691 11.6284 24.4691 11.9277 24.0526 12.2401C23.2456 12.5916 22.4386 12.4224 21.8398 13.5027H21.8529Z" fill="#FFC84B" stroke="#D8AA3F" stroke-width="0.20826" stroke-linejoin="round"/>
<path fill-rule="evenodd" clip-rule="evenodd" d="M25.6267 12.3573C25.6267 12.4608 25.5855 12.5602 25.5123 12.6334C25.4391 12.7066 25.3398 12.7478 25.2362 12.7478C25.1326 12.7478 25.0333 12.7066 24.9601 12.6334C24.8868 12.5602 24.8457 12.4608 24.8457 12.3573C24.8457 12.2537 24.8868 12.1544 24.9601 12.0812C25.0333 12.0079 25.1326 11.9668 25.2362 11.9668C25.3398 11.9668 25.4391 12.0079 25.5123 12.0812C25.5855 12.1544 25.6267 12.2537 25.6267 12.3573Z" fill="#FFC84B" stroke="#D8AA3F" stroke-width="0.20826"/>
<path fill-rule="evenodd" clip-rule="evenodd" d="M28.1913 13.4767C33.8013 6.7083 38.7084 7.52832 45.1124 7.07275C45.3206 7.85373 45.2425 9.02519 42.1967 10.0665C38.0315 10.6913 30.5472 15.0908 30.5212 15.0908C29.1284 15.0257 28.1522 13.5679 28.1782 13.4767H28.1913Z" fill="#FFC84B" stroke="#D8AA3F" stroke-width="0.221276"/>
<path d="M39.7238 9.06421L43.863 9.24644M39.2812 9.74105L42.301 9.98836" stroke="#D9A43E" stroke-width="0.221276" stroke-linecap="round"/>
</g>
</g>
<defs>
<clipPath id="clip0_10790_9999">
<rect width="64" height="64" rx="32" fill="white"/>
</clipPath>
</defs>
</svg>
