<svg width="64" height="64" viewBox="0 0 64 64" fill="none" xmlns="http://www.w3.org/2000/svg">
<g clip-path="url(#clip0_10790_10040)">
<mask id="mask0_10790_10040" style="mask-type:luminance" maskUnits="userSpaceOnUse" x="-1" y="0" width="65" height="65">
<path d="M-0.00976562 0H63.9964V64.0061H0.00560914L-0.00976562 0Z" fill="white"/>
</mask>
<g mask="url(#mask0_10790_10040)">
<path fill-rule="evenodd" clip-rule="evenodd" d="M-16 0H80.0938V64.0061H-16V0Z" fill="#FF0000"/>
<path fill-rule="evenodd" clip-rule="evenodd" d="M13.1814 32.6411C14.888 30.5655 18.4243 32.595 21.3148 31.1036C17.8861 31.2881 16.0258 29.4585 13.3198 29.7199C16.118 27.9979 18.5011 30.2734 21.6376 29.3509C17.4864 29.0126 17.6709 27.1522 13.904 26.8909C17.2558 25.461 18.9009 28.3669 22.1911 27.7057C18.3166 26.814 17.8093 24.5385 14.9341 24.0465C19.1315 23.4161 18.8548 25.8915 22.9753 26.199C18.7933 24.4155 19.9003 22.8472 16.3948 21.4942C20.3154 21.402 20.054 24.108 24.0054 24.8152C20.6229 22.6627 21.038 20.6947 18.2398 19.1572C21.5608 19.2187 21.8836 22.6166 25.2661 23.6621C22.2526 21.279 23.0368 19.2495 20.4384 17.1124C23.7286 17.8811 23.252 20.8177 26.6806 22.6781C24.1438 19.8645 25.1124 17.835 22.8984 15.5134C26.0656 16.5435 24.8664 19.3264 28.1566 21.9709C26.2655 18.8651 27.434 16.8817 25.5736 14.2526C28.5256 15.7901 27.0958 18.6191 29.8325 21.4481C28.541 18.2655 29.8325 16.2821 28.5103 13.4531C31.0318 15.3442 29.5404 18.3731 31.5699 21.279C30.8319 17.2815 32.5539 16.6204 32.0158 13.1302C33.9223 15.4826 31.7851 17.835 33.2458 21.279C33.092 17.3584 35.1676 16.4359 34.7986 13.284C36.7051 16.113 33.7378 18.573 34.9831 21.6019C35.2906 17.8657 37.7506 16.9125 37.7968 14.0066C39.2881 16.6665 36.0286 18.5884 36.5668 22.1246C37.6276 18.2194 40.2414 17.7427 40.5643 15.1136C41.456 18.1886 37.889 19.6339 38.1043 23.0471C39.1651 19.5877 42.4246 19.1726 43.1011 16.6204C43.5009 19.8799 40.2875 20.4641 39.3958 24.0619C41.087 21.1406 44.039 20.8792 45.3613 18.5576C45.2536 21.7864 41.6251 22.2015 40.5181 25.2304C42.6091 22.6627 45.2229 23.1086 47.3139 20.8331C47.0986 23.7544 43.4086 23.5852 41.4406 26.5987C43.7161 24.5077 47.1294 25.1381 48.8668 23.3392C48.7745 25.9069 44.2543 25.7224 42.1018 28.0132C44.7463 26.5834 48.0826 27.429 50.0199 26.076C49.6509 28.3361 44.8846 27.8287 42.5784 29.5815C45.7303 28.7051 48.1595 30.0427 50.7271 29.0741C49.4818 31.2728 45.146 29.889 42.8398 31.3189C45.5765 30.8576 48.4824 32.5027 50.9731 31.98C50.1583 33.8711 45.4074 31.857 42.8244 33.0562C45.8994 33.0101 47.8981 34.9781 50.7271 34.8398C49.1896 36.5618 45.0076 34.194 42.5784 34.5938C45.5458 35.2087 47.8059 37.6687 50.066 37.7917C48.221 39.2062 44.7616 35.9775 41.948 36.3926C44.8385 37.1614 47.2678 40.4516 48.9283 40.5285C47.1448 41.7585 43.6085 37.7149 41.1946 37.8532C44.1159 39.1909 45.4689 42.5426 47.4061 43.0192C45.023 43.788 42.6706 39.3754 40.103 39.2216C43.0704 41.0974 43.2395 43.9571 45.5304 45.2179C43.1319 45.8329 41.4099 40.836 38.873 40.4209C41.3176 42.2044 41.6713 46.0327 43.301 47.2474C40.841 47.3704 39.9646 42.1582 37.4585 41.4049C39.611 43.2037 39.0883 47.0936 40.7488 48.7695C38.2119 48.2468 38.5348 43.6958 35.8749 42.1583C37.7814 44.5875 36.7974 48.0161 38.0581 49.9534C35.5674 48.954 36.659 44.8796 34.2759 42.5734C35.5674 45.1564 34.1836 48.1545 35.1984 50.6452C32.9383 49.5382 34.4604 44.7259 32.723 42.804C33.5225 45.7868 32.0465 48.2467 32.6461 50.9066C30.3245 48.216 32.9998 45.5254 30.9856 42.7579C31.5084 45.9251 29.3098 48.1084 29.6634 50.7529C27.8184 48.6004 30.6474 45.141 29.2175 42.435C29.525 45.5254 26.6806 48.2314 26.8805 50.184C25.3891 47.6932 28.541 44.7413 27.6954 41.8969C27.5109 44.8489 24.6511 46.4479 24.113 49.1231C23.1444 46.1711 26.5576 44.034 26.2655 41.1281C25.2815 43.8956 22.514 45.0026 21.53 47.6779C20.7305 44.7259 24.7741 43.1576 24.8818 40.0519C23.6364 42.9731 20.3154 43.6035 19.2238 45.8329C18.8086 42.9116 23.4519 41.5894 23.621 38.8065C22.1296 41.4817 18.5011 41.574 17.2404 43.7111C17.0559 40.7899 21.9451 40.4209 22.7139 37.3612C21.2225 39.6368 17.2404 39.36 15.5953 41.205C15.8566 38.4836 21.1303 38.3145 21.9759 35.8853C20.0079 37.7764 16.364 36.9922 14.2884 38.499C15.4415 35.8237 20.4076 36.3926 21.5146 34.4554C19.3314 35.6085 15.4415 34.5015 13.5196 35.6392C15.2724 33.1177 19.1315 34.6245 21.3148 32.8717C17.7631 33.3945 15.626 31.98 13.166 32.6411H13.1814Z" fill="#FFFF00"/>
<path fill-rule="evenodd" clip-rule="evenodd" d="M44.4853 32.0107C44.5439 33.6758 44.2666 35.3357 43.6699 36.8913C43.0731 38.447 42.1692 39.8665 41.0119 41.0652C39.8547 42.2639 38.4679 43.2172 36.9342 43.8683C35.4006 44.5195 33.7515 44.855 32.0854 44.855C30.4192 44.855 28.7701 44.5195 27.2365 43.8683C25.7028 43.2172 24.316 42.2639 23.1588 41.0652C22.0016 39.8665 21.0976 38.447 20.5009 36.8913C19.9041 35.3357 19.6268 33.6758 19.6854 32.0107C19.7986 28.7976 21.1545 25.7539 23.4676 23.5208C25.7807 21.2878 28.8703 20.0398 32.0854 20.0398C35.3005 20.0398 38.39 21.2878 40.7031 23.5208C43.0162 25.7539 44.3721 28.7976 44.4853 32.0107Z" fill="#FFFF00"/>
<path fill-rule="evenodd" clip-rule="evenodd" d="M42.8858 32.0415C42.8858 33.4569 42.607 34.8584 42.0654 36.1661C41.5238 37.4737 40.7299 38.6618 39.7291 39.6627C38.7282 40.6635 37.5401 41.4574 36.2325 41.999C34.9248 42.5406 33.5233 42.8194 32.108 42.8194C30.6926 42.8194 29.2911 42.5406 27.9834 41.999C26.6758 41.4574 25.4877 40.6635 24.4868 39.6627C23.486 38.6618 22.6921 37.4737 22.1505 36.1661C21.6089 34.8584 21.3301 33.4569 21.3301 32.0415C21.3301 29.181 22.4664 26.4377 24.4891 24.415C26.5118 22.3923 29.2551 21.256 32.1156 21.256C34.9762 21.256 37.7195 22.3923 39.7422 24.415C41.7649 26.4377 42.9012 29.181 42.9012 32.0415H42.8858Z" fill="#FF0000"/>
<path fill-rule="evenodd" clip-rule="evenodd" d="M41.3941 32.0569C41.3941 34.5137 40.4181 36.8699 38.6809 38.6071C36.9436 40.3444 34.5874 41.3203 32.1306 41.3203C29.6738 41.3203 27.3176 40.3444 25.5804 38.6071C23.8432 36.8699 22.8672 34.5137 22.8672 32.0569C22.8672 29.6001 23.8432 27.2439 25.5804 25.5067C27.3176 23.7694 29.6738 22.7935 32.1306 22.7935C34.5874 22.7935 36.9436 23.7694 38.6809 25.5067C40.4181 27.2439 41.3941 29.6001 41.3941 32.0569Z" fill="#FFFF00"/>
<path fill-rule="evenodd" clip-rule="evenodd" d="M24.2508 25.9837C26.8184 25.9376 30.001 26.1682 32.1074 27.8595C34.3637 26.4472 37.0214 25.8152 39.6719 26.0606L41.0557 28.5821C39.0569 28.3822 37.1043 28.659 34.798 29.5969C36.1998 30.631 37.3266 31.9931 38.0799 33.5639C38.8331 35.1346 39.1896 36.8661 39.1184 38.6066C38.7802 39.0371 38.2574 39.4984 37.9192 39.9135C38.4112 36.3619 36.5354 32.3797 33.7987 30.2887C36.0127 33.5021 37.3349 36.3772 36.9659 40.3594L35.7052 41.1435C36.2894 37.638 35.4745 33.5329 32.8762 31.1497C33.8688 32.6173 34.5618 34.2665 34.9154 36.0026C35.269 37.7387 35.2761 39.5276 34.9364 41.2665C34.5367 41.3895 33.9217 41.7277 33.5065 41.8507C33.997 40.2091 34.13 38.4814 33.8966 36.7841C33.6632 35.0867 33.0689 33.4591 32.1535 32.0107C31.2554 33.4493 30.6743 35.0628 30.449 36.7437C30.2236 38.4246 30.3592 40.1341 30.8467 41.7585L29.5244 41.3741C28.8172 37.6072 29.8012 33.3791 31.5078 31.1651C29.7704 32.1799 28.1253 36.5002 28.5865 40.9129L27.418 40.3747C26.8492 37.0845 28.3405 32.7949 30.493 30.3195C28.0638 31.857 26.0804 35.6085 26.434 39.6521C26.065 39.3292 25.7114 39.1601 25.3424 38.8372C24.9119 35.301 26.9568 31.7494 29.3399 29.6122C27.3705 28.7781 25.2307 28.425 23.0977 28.5821C23.482 27.7672 23.8664 26.814 24.2508 25.9991V25.9837Z" fill="#FF0000"/>
</g>
</g>
<defs>
<clipPath id="clip0_10790_10040">
<rect width="64" height="64" rx="32" fill="white"/>
</clipPath>
</defs>
</svg>
