<svg width="64" height="64" viewBox="0 0 64 64" fill="none" xmlns="http://www.w3.org/2000/svg">
<g clip-path="url(#clip0_10790_10063)">
<mask id="mask0_10790_10063" style="mask-type:luminance" maskUnits="userSpaceOnUse" x="-1" y="0" width="65" height="64">
<path d="M-0.00195312 0H63.9882V63.9902H-0.00195312V0Z" fill="white"/>
</mask>
<g mask="url(#mask0_10790_10063)">
<path fill-rule="evenodd" clip-rule="evenodd" d="M-16 47.9926H79.9853V63.9902H-16V47.9926ZM-16 0H79.9853V15.9975H-16V0Z" fill="#EE161F"/>
<path fill-rule="evenodd" clip-rule="evenodd" d="M-16 15.9976H79.9853V47.9927H-16V15.9976Z" fill="white"/>
<path d="M31.5146 16.2427C30.5341 18.1908 29.8761 18.1908 28.2506 19.4938C27.6055 20.1389 26.625 20.4614 27.928 21.1193C26.6379 21.7644 25.9799 22.0869 25.322 23.39L25.6574 23.7125C25.6574 23.7125 26.883 23.1061 26.9475 23.39C27.1669 23.648 25.322 24.6414 25.0898 24.8091C24.8575 24.9768 23.6964 25.6606 23.6964 25.6606C22.0709 26.9636 21.0904 26.6411 20.1228 28.5892L23.3739 28.2666C24.019 30.5373 21.7483 30.8598 20.1228 31.8403L17.5167 33.4658C18.1618 35.7365 20.1228 34.4334 21.7483 33.7884L22.0709 34.1109V34.756L18.8327 36.3815C18.8327 36.3815 14.9881 38.5747 14.9236 38.6522C14.8978 38.7812 14.9236 39.2972 14.9236 39.2972C16.2266 39.6326 18.1747 39.9552 19.4777 39.2972C21.1033 38.6522 21.4387 38.0071 23.3868 38.0071C21.5066 39.4768 19.2468 40.3807 16.8717 40.6131V41.9033C18.8327 41.9033 20.1357 41.9033 21.7612 41.5807L25.9928 40.2906C26.9604 40.2906 27.9409 41.2582 27.6184 42.2258C26.6379 45.7994 22.7417 45.1544 21.4258 48.083L26.6379 46.1349C27.9409 45.4898 29.244 44.8318 30.8695 45.1544C32.8176 45.7994 32.8176 47.1025 35.4237 47.7475L34.7786 46.1349C35.4237 46.4574 36.0687 46.4574 36.7267 46.7799C38.3522 47.425 38.6748 48.0701 40.6358 47.7475C39.0102 45.8123 38.6748 46.1349 37.3847 44.8318C36.0816 42.8838 35.4237 39.9552 37.3847 39.6326L39.6553 40.2777C41.9388 40.6131 41.9388 39.9552 45.1899 41.2582C47.138 41.9033 47.796 42.8838 50.0666 42.2258C49.099 39.9552 45.5124 38.3296 43.2289 37.6846C45.835 36.059 45.1899 38.3296 48.7765 37.362V36.717C46.1704 34.756 45.1899 33.1304 41.6034 33.1304L47.1509 32.4854V31.8403C47.1509 31.8403 41.6679 30.4082 41.5389 30.3566C41.5727 30.2254 41.6388 30.1048 41.7312 30.0056C41.8236 29.9065 41.9393 29.832 42.0678 29.789C43.0999 30.4599 46.2349 30.3824 46.4155 30.3695C46.3252 29.5697 44.8416 28.9117 43.5385 28.2666C43.5385 28.2666 37.9652 24.822 37.9394 24.5253C38.0426 23.648 40.2229 24.6543 42.5581 25.3381C41.913 24.0479 40.61 23.39 39.3069 23.0674L41.255 22.7449C39.9649 19.8163 36.7009 20.1389 34.7528 18.8358C33.4498 17.8682 33.4498 17.2103 31.5017 16.2427H31.5146Z" fill="#00A850"/>
<path fill-rule="evenodd" clip-rule="evenodd" d="M27.9933 37.8781C28.2384 37.104 28.5481 36.4202 27.1031 35.7623C25.6582 35.1043 27.8256 38.407 28.0062 37.8781H27.9933ZM29.7092 36.3299C29.4124 36.3686 29.2705 37.4394 29.8382 37.7233C30.4961 37.8265 29.9672 36.3428 29.7092 36.3299ZM31.3992 36.2138C31.1025 36.3041 31.0896 37.8136 32.1475 37.5427C33.2183 37.2846 32.1475 36.0977 31.3992 36.2267V36.2138ZM33.3731 32.3693C33.6053 32.008 33.3602 30.4986 32.4442 31.1307C31.5282 31.7758 33.0893 32.4725 33.3731 32.3693ZM31.3734 31.1178C31.6573 31.0146 31.6831 30.0857 30.8832 30.3438C30.0833 30.576 31.167 31.3114 31.3734 31.1178ZM29.5673 31.492C29.5673 31.492 29.0125 30.7179 28.5739 30.8727C28.032 31.3888 29.606 31.5049 29.5673 31.492ZM23.3747 33.9561C23.6069 33.9819 25.3743 33.6723 25.9807 32.9885C26.6 32.3047 22.8457 33.2723 22.8457 33.2852C22.8457 33.2981 23.194 33.8916 23.3618 33.9561H23.3747ZM41.0107 29.5955C41.101 29.4278 40.0689 28.6924 39.4625 28.9891C39.3077 29.531 41.0107 29.6987 41.0107 29.5955ZM37.5402 27.8409C37.7337 27.57 37.0887 26.4218 35.8244 27.0668C34.56 27.7119 37.1532 28.2925 37.5402 27.8409ZM33.5279 27.1701C33.5279 27.1701 33.8376 26.138 34.6116 26.3444C35.4631 27.0023 33.5666 27.2088 33.5279 27.1701ZM32.7797 26.396C32.6507 26.1121 31.8637 26.2799 30.9477 26.8862C30.0317 27.4797 33.0506 27.0539 32.7797 26.396ZM35.1019 23.6351C35.1019 23.6351 35.9276 23.261 36.1727 23.6351C36.5081 24.177 35.1019 23.6351 35.1148 23.6351H35.1019ZM34.431 23.2739C34.2633 22.9513 33.3602 22.9126 33.386 23.4029C33.2312 23.7641 34.5471 23.6996 34.4181 23.2739H34.431ZM32.2765 23.2739C32.1862 23.0804 30.909 23.2739 30.5219 24.0479C31.1412 24.3447 32.5603 23.7641 32.2765 23.2739ZM29.5285 24.0608C29.5285 24.0608 27.8514 25.0929 27.7353 25.8541C27.7869 26.4992 29.8382 24.6672 29.8382 24.6672C29.8382 24.6672 30.0188 23.9447 29.5285 24.0608ZM27.6579 23.1191C27.7095 22.9126 28.4964 22.4224 28.561 22.474C28.6255 22.6804 27.9159 23.2481 27.6579 23.1191ZM28.1997 27.0668C28.2384 26.7701 26.1871 26.7959 26.9612 27.7248C27.6063 28.5118 28.3416 27.2088 28.1997 27.0797V27.0668ZM26.3161 28.4215C26.2129 28.2151 26.0581 27.6603 25.7743 27.6087C25.555 27.6087 24.3164 27.8667 24.2261 28.0602C24.1745 28.228 24.7422 29.2472 24.9228 29.273C25.1421 29.3504 26.2774 28.5247 26.3161 28.4215ZM37.3596 35.3107C37.4241 35.0914 39.5141 34.3689 40.2366 35.0527C41.0881 36.2138 37.308 35.672 37.3596 35.3107ZM43.1136 36.6783C43.5651 35.9042 41.6944 34.9753 40.9204 35.8655C41.1784 36.9234 42.7394 37.3104 43.1136 36.6783Z" fill="white" stroke="white" stroke-width="0.399939" stroke-linecap="round" stroke-linejoin="round"/>
</g>
</g>
<defs>
<clipPath id="clip0_10790_10063">
<rect width="64" height="64" rx="32" fill="white"/>
</clipPath>
</defs>
</svg>
