<svg width="64" height="64" viewBox="0 0 64 64" fill="none" xmlns="http://www.w3.org/2000/svg">
<g clip-path="url(#clip0_10790_10073)">
<path d="M0 0H64V64H0V0Z" fill="white"/>
<path d="M0 44.8H64V64H0V44.8Z" fill="#009543"/>
<path d="M0 0H64V19.2H0V0Z" fill="#00209F"/>
<path d="M32.2 20.3875C31.825 20.3875 31.475 20.7999 31.475 20.7999L31.5125 25.1124L30.1375 26.5499H31.2625L31.2375 29.0125L24.7125 37.8125L23.75 37.4749L22.0625 41.075C22.0625 41.075 26.2375 43.6875 32.2875 43.6124C38.9375 43.525 42.5375 40.95 42.5375 40.95L40.8 37.4L39.95 37.775L33.325 29.025V26.475H34.425L32.925 25.0625L32.9375 20.7625C32.9375 20.7625 32.5625 20.3875 32.2 20.3875Z" fill="black" stroke="black" stroke-width="0.2125"/>
<path d="M34.4746 30.725H29.9621C29.9621 30.725 28.3246 27.275 28.5871 24.85C28.8621 22.4 30.2621 21.2375 32.1371 21.225C34.3371 21.1875 35.4871 22.3 35.8371 24.7625C36.1871 27.2 34.4746 30.725 34.4746 30.725Z" stroke="black" stroke-width="1.0625"/>
<path d="M24.3125 38.95C24.2375 39.05 23.6875 40.125 23.6875 40.125L24.625 39.9249L24.3125 38.95ZM24.85 40.3499L23.8625 40.6749L25.05 41.1375L24.85 40.3499ZM25.3 38.9749L25.7875 40.4249L26.9875 40.075L26.675 39.3875L25.3 38.9749ZM26.05 40.9375L26.225 41.525L27.825 41.9249L27.2 40.575L26.0625 40.95L26.05 40.9375ZM27.825 39.7125L28.3875 41.0625L29.6 40.5999L29.2 40L27.825 39.7125ZM28.6125 41.5499L28.8125 42.075L30.6875 42.3375L29.8875 41.1124L28.6125 41.5499ZM30.4125 40.0999L31.1 41.3125L32.85 40.6749L32.65 40.2L30.4 40.0999H30.4125ZM31.4125 41.75L31.7875 42.3875L33.95 42.3125L33.1375 41.1124L31.4125 41.75ZM33.7 40.15L34.3 41.15L35.675 40.5L35.3 39.9625L33.7 40.15ZM35.9625 40.9124L34.5875 41.5999L34.9625 42.2L36.8 41.9L35.9625 40.9124ZM36.4125 39.8624L37.125 40.7374L38.275 39.8375L37.8875 39.4124L36.4125 39.8624ZM38.525 40.325L37.4125 41.1624L37.7125 41.6749L39.2375 41.2874L38.525 40.325ZM40.05 38.575L40.325 38.9749L39.5625 40.0999L38.775 39.0999L40.05 38.575ZM40.5625 39.5625L41.0375 40.5L40.1 40.8125L40.025 40.375L40.5625 39.5625Z" fill="white"/>
</g>
<defs>
<clipPath id="clip0_10790_10073">
<rect width="64" height="64" rx="32" fill="white"/>
</clipPath>
</defs>
</svg>
