<svg width="64" height="64" viewBox="0 0 64 64" fill="none" xmlns="http://www.w3.org/2000/svg">
<g clip-path="url(#clip0_10790_10090)">
<mask id="mask0_10790_10090" style="mask-type:luminance" maskUnits="userSpaceOnUse" x="0" y="-1" width="64" height="65">
<path d="M0 -0.00146484H64V63.9985H0V-0.00146484Z" fill="white"/>
</mask>
<g mask="url(#mask0_10790_10090)">
<path d="M-32 -0.00146484H96V63.9985H-32V-0.00146484Z" fill="#239E46"/>
<path d="M-32 -0.00146484H96V47.9985H-32V-0.00146484Z" fill="#000001"/>
<path d="M-32 -0.00146484H96V15.9985H-32V-0.00146484Z" fill="#E70013"/>
<path d="M37.6581 26.3409C36.6188 25.5993 35.3953 25.1583 34.1218 25.0662C32.8484 24.9742 31.5741 25.2347 30.439 25.8192C29.3039 26.4037 28.3517 27.2895 27.6869 28.3796C27.0221 29.4697 26.6704 30.7218 26.6704 31.9985C26.6704 33.2753 27.0221 34.5274 27.6869 35.6175C28.3517 36.7075 29.3039 37.5934 30.439 38.1779C31.5741 38.7624 32.8484 39.0229 34.1218 38.9309C35.3953 38.8388 36.6188 38.3978 37.6581 37.6561C36.5392 38.7748 35.1137 39.5365 33.5619 39.845C32.0101 40.1535 30.4017 39.9949 28.94 39.3894C27.4783 38.7838 26.229 37.7584 25.3501 36.4429C24.4711 35.1273 24.002 33.5807 24.002 31.9985C24.002 30.4164 24.4711 28.8697 25.3501 27.5542C26.229 26.2387 27.4783 25.2133 28.94 24.6077C30.4017 24.0021 32.0101 23.8436 33.5619 24.1521C35.1137 24.4606 36.5392 25.2223 37.6581 26.3409ZM35.8917 31.9985L46.6565 28.5041L40.0005 37.6561V26.3409L46.6565 35.4929L35.8917 31.9985Z" fill="white"/>
</g>
</g>
<defs>
<clipPath id="clip0_10790_10090">
<rect width="64" height="64" rx="32" fill="white"/>
</clipPath>
</defs>
</svg>
