<svg width="64" height="64" viewBox="0 0 64 64" fill="none" xmlns="http://www.w3.org/2000/svg">
<g clip-path="url(#clip0_10790_10099)">
<path d="M0 0H64.0125V32H0V0Z" fill="#002B7F"/>
<path d="M0 32H64.0125V64H0V32Z" fill="#CE1126"/>
<path d="M16.3315 13.0453L16.1289 19.7119H9.36622C8.53423 18.0906 7.85156 16.7253 7.85156 14.8586C7.85156 13.3013 9.07822 12.064 10.8382 12.064C12.7049 12.064 14.7635 12.6933 16.3315 13.0453Z" fill="#FFD83D"/>
<path d="M8.66211 13.3547V17.1947V13.3547ZM9.19544 12.96V18.08V12.96ZM9.7501 12.6933V18.7946V12.6933ZM10.2834 12.5653V17.3547V12.5653ZM10.8274 12.544V17.376V12.544ZM11.3714 12.3627V17.376V12.3627ZM11.9154 12.3627V17.376V12.3627ZM12.4594 12.416V17.4293V12.416ZM13.0034 12.4693V17.472V12.4693ZM13.5474 12.7787V17.792V12.7787ZM14.0808 12.832V18.4746V12.832ZM14.6354 12.832V17.8453V12.832ZM15.1688 12.832V17.8453V12.832Z" fill="#FFD83D"/>
<path d="M8.66211 13.3547V17.1947M9.19544 12.96V18.08M9.7501 12.6933V18.7946M10.2834 12.5653V17.3547M10.8274 12.544V17.376M11.3714 12.3627V17.376M11.9154 12.3627V17.376M12.4594 12.416V17.4293M13.0034 12.4693V17.472M13.5474 12.7787V17.792M14.0808 12.832V18.4746M14.6354 12.832V17.8453M15.1688 12.832V17.8453" stroke="black" stroke-width="0.159999" stroke-linecap="round" stroke-linejoin="round"/>
<path d="M12.0655 12.5867C13.2175 12.768 15.7348 13.952 15.4468 15.5413C15.0415 17.8026 13.7188 16.896 11.9695 16.576L10.6468 17.0133C10.1668 17.4933 9.4735 17.9413 9.00417 17.3547H8.21484V20.4266H16.8975V13.0133L12.0655 12.5867Z" fill="#000001" stroke="black" stroke-width="0.159999" stroke-linecap="round" stroke-linejoin="round"/>
<path d="M15.9484 12.576C16.2371 12.576 16.4711 12.342 16.4711 12.0533C16.4711 11.7646 16.2371 11.5306 15.9484 11.5306C15.6598 11.5306 15.4258 11.7646 15.4258 12.0533C15.4258 12.342 15.6598 12.576 15.9484 12.576Z" fill="#FFD83D" stroke="black" stroke-width="0.213332" stroke-linecap="round" stroke-linejoin="round"/>
<path d="M14.7629 12.288C15.0516 12.288 15.2856 12.054 15.2856 11.7653C15.2856 11.4767 15.0516 11.2427 14.7629 11.2427C14.4742 11.2427 14.2402 11.4767 14.2402 11.7653C14.2402 12.054 14.4742 12.288 14.7629 12.288Z" fill="#FFD83D" stroke="black" stroke-width="0.213332" stroke-linecap="round" stroke-linejoin="round"/>
<path d="M13.5578 11.9893C13.8465 11.9893 14.0805 11.7553 14.0805 11.4666C14.0805 11.178 13.8465 10.944 13.5578 10.944C13.2692 10.944 13.0352 11.178 13.0352 11.4666C13.0352 11.7553 13.2692 11.9893 13.5578 11.9893Z" fill="#FFD83D" stroke="black" stroke-width="0.213332" stroke-linecap="round" stroke-linejoin="round"/>
<path d="M12.3527 11.7867C12.6414 11.7867 12.8754 11.5527 12.8754 11.264C12.8754 10.9753 12.6414 10.7413 12.3527 10.7413C12.0641 10.7413 11.8301 10.9753 11.8301 11.264C11.8301 11.5527 12.0641 11.7867 12.3527 11.7867Z" fill="#FFD83D" stroke="black" stroke-width="0.213332" stroke-linecap="round" stroke-linejoin="round"/>
<path d="M11.1477 11.6694C11.4363 11.6694 11.6703 11.4353 11.6703 11.1467C11.6703 10.858 11.4363 10.624 11.1477 10.624C10.859 10.624 10.625 10.858 10.625 11.1467C10.625 11.4353 10.859 11.6694 11.1477 11.6694Z" fill="#FFD83D" stroke="black" stroke-width="0.213332" stroke-linecap="round" stroke-linejoin="round"/>
<path d="M9.97384 11.7333C10.2625 11.7333 10.4965 11.4993 10.4965 11.2107C10.4965 10.922 10.2625 10.688 9.97384 10.688C9.68518 10.688 9.45117 10.922 9.45117 11.2107C9.45117 11.4993 9.68518 11.7333 9.97384 11.7333Z" fill="#FFD83D" stroke="black" stroke-width="0.213332" stroke-linecap="round" stroke-linejoin="round"/>
<path d="M8.84298 12.1174C9.13164 12.1174 9.36564 11.8833 9.36564 11.5947C9.36564 11.306 9.13164 11.072 8.84298 11.072C8.55432 11.072 8.32031 11.306 8.32031 11.5947C8.32031 11.8833 8.55432 12.1174 8.84298 12.1174Z" fill="#FFD83D" stroke="black" stroke-width="0.213332" stroke-linecap="round" stroke-linejoin="round"/>
<path d="M7.89376 12.8213C8.18242 12.8213 8.41642 12.5873 8.41642 12.2987C8.41642 12.01 8.18242 11.776 7.89376 11.776C7.6051 11.776 7.37109 12.01 7.37109 12.2987C7.37109 12.5873 7.6051 12.8213 7.89376 12.8213Z" fill="#FFD83D" stroke="black" stroke-width="0.213332" stroke-linecap="round" stroke-linejoin="round"/>
<path d="M7.22188 13.792C7.51054 13.792 7.74455 13.558 7.74455 13.2694C7.74455 12.9807 7.51054 12.7467 7.22188 12.7467C6.93322 12.7467 6.69922 12.9807 6.69922 13.2694C6.69922 13.558 6.93322 13.792 7.22188 13.792Z" fill="#FFD83D" stroke="black" stroke-width="0.213332" stroke-linecap="round" stroke-linejoin="round"/>
<path d="M6.89181 14.944C7.18047 14.944 7.41447 14.71 7.41447 14.4213C7.41447 14.1327 7.18047 13.8987 6.89181 13.8987C6.60315 13.8987 6.36914 14.1327 6.36914 14.4213C6.36914 14.71 6.60315 14.944 6.89181 14.944Z" fill="#FFD83D" stroke="black" stroke-width="0.213332" stroke-linecap="round" stroke-linejoin="round"/>
<path d="M6.90157 16.128C7.19023 16.128 7.42423 15.894 7.42423 15.6053C7.42423 15.3166 7.19023 15.0826 6.90157 15.0826C6.61291 15.0826 6.37891 15.3166 6.37891 15.6053C6.37891 15.894 6.61291 16.128 6.90157 16.128Z" fill="#FFD83D" stroke="black" stroke-width="0.213332" stroke-linecap="round" stroke-linejoin="round"/>
<path d="M7.1379 17.2907C7.42656 17.2907 7.66056 17.0567 7.66056 16.768C7.66056 16.4794 7.42656 16.2454 7.1379 16.2454C6.84924 16.2454 6.61523 16.4794 6.61523 16.768C6.61523 17.0567 6.84924 17.2907 7.1379 17.2907Z" fill="#FFD83D" stroke="black" stroke-width="0.213332" stroke-linecap="round" stroke-linejoin="round"/>
<path d="M16.1826 12.7467L16.1293 13.44C14.8173 13.2267 12.9613 12.5014 11.2227 12.5014C9.62266 12.5014 8.38533 13.1414 8.38533 14.7627C8.38533 16.352 9.05733 17.8027 9.95332 19.2747L9.02533 19.7013C8.19333 18.1014 7.5 16.7147 7.5 14.8587C7.5 13.3014 8.72666 11.7654 10.8387 11.7654C12.7053 11.7654 14.6146 12.4054 16.1826 12.7467Z" fill="#FFD83D" stroke="black" stroke-width="0.213332" stroke-linecap="round" stroke-linejoin="round"/>
<path d="M17.5278 13.0453L17.7305 19.7119H24.4932C25.3251 18.0906 26.0078 16.7253 26.0078 14.8586C26.0078 13.3013 24.7812 12.064 23.0212 12.064C21.1545 12.064 19.0958 12.6933 17.5278 13.0453Z" fill="#FFD83D"/>
<path d="M25.1973 13.3547V17.1947V13.3547ZM24.6639 12.96V18.08V12.96ZM24.1093 12.6933V18.7946V12.6933ZM23.5759 12.5653V17.3547V12.5653ZM23.0319 12.544V17.376V12.544ZM22.4879 12.3627V17.376V12.3627ZM21.9439 12.3627V17.376V12.3627ZM21.3999 12.416V17.4293V12.416ZM20.8559 12.4693V17.472V12.4693ZM20.312 12.7787V17.792V12.7787ZM19.7786 12.832V18.4746V12.832ZM19.224 12.832V17.8453V12.832ZM18.6906 12.832V17.8453V12.832Z" fill="#FFD83D"/>
<path d="M25.1973 13.3547V17.1947M24.6639 12.96V18.08M24.1093 12.6933V18.7946M23.5759 12.5653V17.3547M23.0319 12.544V17.376M22.4879 12.3627V17.376M21.9439 12.3627V17.376M21.3999 12.416V17.4293M20.8559 12.4693V17.472M20.312 12.7787V17.792M19.7786 12.832V18.4746M19.224 12.832V17.8453M18.6906 12.832V17.8453" stroke="black" stroke-width="0.159999" stroke-linecap="round" stroke-linejoin="round"/>
<path d="M21.7939 12.5867C20.6419 12.768 18.1246 13.952 18.4126 15.5413C18.8179 17.8026 20.1406 16.896 21.8899 16.576L23.2125 17.0133C23.6925 17.4933 24.3859 17.9413 24.8552 17.3547H25.6445V20.4266H16.9619V13.0133L21.7939 12.5867Z" fill="#000001" stroke="black" stroke-width="0.159999" stroke-linecap="round" stroke-linejoin="round"/>
<path d="M17.9109 12.576C17.6223 12.576 17.3883 12.342 17.3883 12.0533C17.3883 11.7646 17.6223 11.5306 17.9109 11.5306C18.1996 11.5306 18.4336 11.7646 18.4336 12.0533C18.4336 12.342 18.1996 12.576 17.9109 12.576Z" fill="#FFD83D" stroke="black" stroke-width="0.213332" stroke-linecap="round" stroke-linejoin="round"/>
<path d="M19.0965 12.288C18.8078 12.288 18.5738 12.054 18.5738 11.7653C18.5738 11.4767 18.8078 11.2427 19.0965 11.2427C19.3851 11.2427 19.6191 11.4767 19.6191 11.7653C19.6191 12.054 19.3851 12.288 19.0965 12.288Z" fill="#FFD83D" stroke="black" stroke-width="0.213332" stroke-linecap="round" stroke-linejoin="round"/>
<path d="M20.3016 11.9893C20.0129 11.9893 19.7789 11.7553 19.7789 11.4666C19.7789 11.178 20.0129 10.944 20.3016 10.944C20.5902 10.944 20.8242 11.178 20.8242 11.4666C20.8242 11.7553 20.5902 11.9893 20.3016 11.9893Z" fill="#FFD83D" stroke="black" stroke-width="0.213332" stroke-linecap="round" stroke-linejoin="round"/>
<path d="M21.5066 11.7867C21.218 11.7867 20.984 11.5527 20.984 11.264C20.984 10.9753 21.218 10.7413 21.5066 10.7413C21.7953 10.7413 22.0293 10.9753 22.0293 11.264C22.0293 11.5527 21.7953 11.7867 21.5066 11.7867Z" fill="#FFD83D" stroke="black" stroke-width="0.213332" stroke-linecap="round" stroke-linejoin="round"/>
<path d="M22.7117 11.6694C22.423 11.6694 22.189 11.4353 22.189 11.1467C22.189 10.858 22.423 10.624 22.7117 10.624C23.0004 10.624 23.2344 10.858 23.2344 11.1467C23.2344 11.4353 23.0004 11.6694 22.7117 11.6694Z" fill="#FFD83D" stroke="black" stroke-width="0.213332" stroke-linecap="round" stroke-linejoin="round"/>
<path d="M23.8855 11.7333C23.5969 11.7333 23.3629 11.4993 23.3629 11.2107C23.3629 10.922 23.5969 10.688 23.8855 10.688C24.1742 10.688 24.4082 10.922 24.4082 11.2107C24.4082 11.4993 24.1742 11.7333 23.8855 11.7333Z" fill="#FFD83D" stroke="black" stroke-width="0.213332" stroke-linecap="round" stroke-linejoin="round"/>
<path d="M25.0164 12.1174C24.7277 12.1174 24.4937 11.8833 24.4937 11.5947C24.4937 11.306 24.7277 11.072 25.0164 11.072C25.3051 11.072 25.5391 11.306 25.5391 11.5947C25.5391 11.8833 25.3051 12.1174 25.0164 12.1174Z" fill="#FFD83D" stroke="black" stroke-width="0.213332" stroke-linecap="round" stroke-linejoin="round"/>
<path d="M25.9656 12.8213C25.677 12.8213 25.443 12.5873 25.443 12.2987C25.443 12.01 25.677 11.776 25.9656 11.776C26.2543 11.776 26.4883 12.01 26.4883 12.2987C26.4883 12.5873 26.2543 12.8213 25.9656 12.8213Z" fill="#FFD83D" stroke="black" stroke-width="0.213332" stroke-linecap="round" stroke-linejoin="round"/>
<path d="M26.6375 13.792C26.3488 13.792 26.1148 13.558 26.1148 13.2694C26.1148 12.9807 26.3488 12.7467 26.6375 12.7467C26.9262 12.7467 27.1602 12.9807 27.1602 13.2694C27.1602 13.558 26.9262 13.792 26.6375 13.792Z" fill="#FFD83D" stroke="black" stroke-width="0.213332" stroke-linecap="round" stroke-linejoin="round"/>
<path d="M26.9676 14.944C26.6789 14.944 26.4449 14.71 26.4449 14.4213C26.4449 14.1327 26.6789 13.8987 26.9676 13.8987C27.2562 13.8987 27.4902 14.1327 27.4902 14.4213C27.4902 14.71 27.2562 14.944 26.9676 14.944Z" fill="#FFD83D" stroke="black" stroke-width="0.213332" stroke-linecap="round" stroke-linejoin="round"/>
<path d="M26.9578 16.128C26.6691 16.128 26.4351 15.894 26.4351 15.6053C26.4351 15.3166 26.6691 15.0826 26.9578 15.0826C27.2465 15.0826 27.4805 15.3166 27.4805 15.6053C27.4805 15.894 27.2465 16.128 26.9578 16.128Z" fill="#FFD83D" stroke="black" stroke-width="0.213332" stroke-linecap="round" stroke-linejoin="round"/>
<path d="M26.7215 17.2907C26.4328 17.2907 26.1988 17.0567 26.1988 16.768C26.1988 16.4794 26.4328 16.2454 26.7215 16.2454C27.0101 16.2454 27.2441 16.4794 27.2441 16.768C27.2441 17.0567 27.0101 17.2907 26.7215 17.2907Z" fill="#FFD83D" stroke="black" stroke-width="0.213332" stroke-linecap="round" stroke-linejoin="round"/>
<path d="M17.6767 12.7467L17.7301 13.44C19.0421 13.2267 20.8981 12.5014 22.6367 12.5014C24.2367 12.5014 25.474 13.1414 25.474 14.7627C25.474 16.352 24.802 17.8027 23.9061 19.2747L24.834 19.7013C25.666 18.1014 26.3594 16.7147 26.3594 14.8587C26.3594 13.3014 25.1327 11.7654 23.0207 11.7654C21.1541 11.7654 19.2447 12.4054 17.6767 12.7467Z" fill="#FFD83D" stroke="black" stroke-width="0.213332" stroke-linecap="round" stroke-linejoin="round"/>
<path d="M16.9295 5.66399L16.3748 6.69865L16.9295 7.72265L17.4735 6.69865L16.9295 5.65332V5.66399ZM16.9295 8.26664L16.3748 9.29064L16.9295 10.3253L17.4628 9.27997L16.9295 8.26664ZM14.9668 7.99998L15.8308 8.54398L16.6948 7.99998L15.8415 7.44531L14.9668 7.99998ZM17.1535 7.99998L18.0175 8.54398L18.8921 7.99998L18.0175 7.44531L17.1535 7.99998Z" fill="#FFD83D" stroke="black" stroke-width="0.213332" stroke-linecap="round" stroke-linejoin="round"/>
<path d="M16.9297 8.4266C17.1594 8.4266 17.3457 8.24035 17.3457 8.0106C17.3457 7.78085 17.1594 7.5946 16.9297 7.5946C16.6999 7.5946 16.5137 7.78085 16.5137 8.0106C16.5137 8.24035 16.6999 8.4266 16.9297 8.4266Z" fill="#FFD83D" stroke="black" stroke-width="0.213332" stroke-linecap="round" stroke-linejoin="round"/>
<path d="M16.9305 11.7866C17.5491 11.7866 18.0505 11.2852 18.0505 10.6666C18.0505 10.0481 17.5491 9.54663 16.9305 9.54663C16.312 9.54663 15.8105 10.0481 15.8105 10.6666C15.8105 11.2852 16.312 11.7866 16.9305 11.7866Z" fill="#FFD83D" stroke="black" stroke-width="0.213332" stroke-linecap="round" stroke-linejoin="round"/>
<path d="M16.6418 9.58936V10.2934C16.3772 10.3062 16.1137 10.3347 15.8525 10.3787M18.0071 10.3787C17.7424 10.334 17.4753 10.3055 17.2071 10.2934V9.58936M15.8418 10.944C16.2012 10.8818 16.5651 10.8497 16.9298 10.848C17.2925 10.848 17.6551 10.88 17.9965 10.944" stroke="black" stroke-width="0.159999" stroke-linecap="round" stroke-linejoin="round"/>
<path d="M15.8413 12.5546C15.7346 14.3679 15.5213 16.2346 14.8066 17.5785L15.9586 17.1092C16.364 15.5839 16.4493 13.6106 16.5666 12.6719L15.8413 12.5546ZM18.0173 12.5546L17.2813 12.6719C17.4093 13.6106 17.4946 15.5839 17.8893 17.1092L19.0413 17.5785C18.3373 16.2346 18.124 14.3786 18.0173 12.5546Z" fill="#FFD83D" stroke="black" stroke-width="0.213332" stroke-linecap="round" stroke-linejoin="round"/>
<path d="M16.9297 16.5012C15.543 16.5012 14.5297 17.1412 14.4764 18.8052C14.135 18.2079 12.7164 16.3519 11.383 16.5972C10.5937 16.7466 9.88971 17.8452 10.0177 19.0932C9.35638 17.2159 7.44706 16.9066 6.03906 18.0265C7.28706 19.0399 7.84172 22.0585 8.88705 23.3599H24.9617C26.007 22.0585 26.5616 19.0399 27.8096 18.0265C26.4123 16.9066 24.4923 17.2159 23.8417 19.0932C23.9483 17.8452 23.255 16.7466 22.455 16.5972C21.1323 16.3519 19.7137 18.2079 19.3723 18.8052C19.319 17.1519 18.3057 16.5012 16.919 16.5012H16.9297Z" fill="#FFD83D" stroke="black" stroke-width="0.213332" stroke-linecap="round" stroke-linejoin="round"/>
<path d="M24.9401 23.3599C24.9401 23.9572 21.3562 24.6079 16.9295 24.6079C12.5029 24.6079 8.9082 23.9679 8.9082 23.3599C8.9082 22.7732 12.5029 22.4532 16.9295 22.4532C21.3455 22.4532 24.9401 22.7732 24.9401 23.3599Z" fill="#000001" stroke="black" stroke-width="0.159999" stroke-linecap="round" stroke-linejoin="round"/>
<path d="M16.93 12.576C17.1362 12.576 17.3033 12.4089 17.3033 12.2027C17.3033 11.9965 17.1362 11.8293 16.93 11.8293C16.7238 11.8293 16.5566 11.9965 16.5566 12.2027C16.5566 12.4089 16.7238 12.576 16.93 12.576Z" fill="#FFD83D" stroke="black" stroke-width="0.159999" stroke-linecap="round" stroke-linejoin="round"/>
<path d="M16.9298 13.408C17.1478 13.408 17.3245 13.2313 17.3245 13.0133C17.3245 12.7953 17.1478 12.6187 16.9298 12.6187C16.7119 12.6187 16.5352 12.7953 16.5352 13.0133C16.5352 13.2313 16.7119 13.408 16.9298 13.408Z" fill="#FFD83D" stroke="black" stroke-width="0.159999" stroke-linecap="round" stroke-linejoin="round"/>
<path d="M16.9295 14.3253C17.1711 14.3253 17.3669 14.1295 17.3669 13.888C17.3669 13.6465 17.1711 13.4507 16.9295 13.4507C16.688 13.4507 16.4922 13.6465 16.4922 13.888C16.4922 14.1295 16.688 14.3253 16.9295 14.3253Z" fill="#FFD83D" stroke="black" stroke-width="0.159999" stroke-linecap="round" stroke-linejoin="round"/>
<path d="M16.9291 15.36C17.2059 15.36 17.4304 15.1355 17.4304 14.8586C17.4304 14.5818 17.2059 14.3573 16.9291 14.3573C16.6522 14.3573 16.4277 14.5818 16.4277 14.8586C16.4277 15.1355 16.6522 15.36 16.9291 15.36Z" fill="#FFD83D" stroke="black" stroke-width="0.159999" stroke-linecap="round" stroke-linejoin="round"/>
<path d="M16.9307 16.48C17.2312 16.48 17.4747 16.2364 17.4747 15.936C17.4747 15.6355 17.2312 15.392 16.9307 15.392C16.6303 15.392 16.3867 15.6355 16.3867 15.936C16.3867 16.2364 16.6303 16.48 16.9307 16.48Z" fill="#FFD83D" stroke="black" stroke-width="0.159999" stroke-linecap="round" stroke-linejoin="round"/>
<path d="M16.7166 16.9813C16.6526 16.9813 16.5993 17.0347 16.6099 17.1307L16.6739 17.5893C16.6953 17.7493 16.7806 17.696 16.8126 17.5893C16.8339 17.4613 16.8233 17.376 16.8339 17.152C16.8339 17.0347 16.7699 16.9813 16.7059 16.9813H16.7166ZM17.1433 16.9813C17.0793 16.9813 17.0259 17.0347 17.0259 17.152C17.0259 17.376 17.0259 17.4613 17.0473 17.5787C17.0686 17.7067 17.1539 17.7493 17.1859 17.5787L17.2393 17.1307C17.2606 17.024 17.1966 16.9813 17.1433 16.9813ZM16.3219 17.0453C16.2936 17.0453 16.2665 17.0566 16.2465 17.0766C16.2265 17.0966 16.2153 17.1237 16.2153 17.152C16.2153 17.2587 16.2473 17.3973 16.2579 17.5573C16.2793 17.7173 16.3966 17.664 16.4073 17.5573C16.4073 17.472 16.4286 17.3227 16.4073 17.1413C16.4073 17.0773 16.3859 17.0453 16.3433 17.0347C16.3362 17.0338 16.329 17.0338 16.3219 17.0347V17.0453ZM17.5059 17.0453C17.4739 17.0453 17.4419 17.0773 17.4313 17.152C17.4255 17.2875 17.4326 17.4232 17.4526 17.5573C17.4526 17.664 17.5806 17.7173 17.5913 17.5573C17.5913 17.3973 17.6339 17.2693 17.6339 17.1627C17.6339 17.0987 17.5806 17.056 17.5273 17.0453C17.5202 17.0444 17.513 17.0444 17.5059 17.0453ZM15.8633 17.2267C15.8099 17.2373 15.7566 17.3013 15.7779 17.3653C15.8099 17.504 15.8419 17.6533 15.8419 17.792C15.8419 17.9093 15.9379 17.8667 15.9486 17.792C15.9569 17.6499 15.9604 17.5076 15.9593 17.3653C15.9593 17.2587 15.9059 17.216 15.8526 17.2267H15.8633ZM17.9539 17.2267C17.9219 17.2373 17.8899 17.28 17.8899 17.3653L17.9113 17.792C17.9113 17.8667 18.0179 17.9093 18.0179 17.792C18.0179 17.6533 18.0393 17.504 18.0713 17.3653C18.0926 17.3013 18.0393 17.2373 17.9966 17.2267C17.9861 17.2239 17.9751 17.2239 17.9646 17.2267H17.9539ZM11.6606 17.248C11.5966 17.248 11.5539 17.3227 11.5966 17.408C11.6606 17.5573 11.7353 17.6427 11.7993 17.792C11.8526 17.9307 11.9486 17.8453 11.9166 17.7493L11.7673 17.3547C11.7353 17.28 11.6926 17.248 11.6606 17.248ZM22.1992 17.248C22.1566 17.248 22.1246 17.28 22.0926 17.3547C21.9966 17.5573 21.9646 17.6533 21.9326 17.7493C21.9112 17.856 21.9966 17.9307 22.0606 17.792L22.2526 17.408C22.2952 17.3227 22.2526 17.248 22.1992 17.248ZM12.0873 17.248C12.0339 17.2693 12.0126 17.3227 12.0339 17.3867C12.0979 17.5147 12.1726 17.6533 12.2259 17.792C12.2686 17.9093 12.3753 17.8773 12.3326 17.7707L12.2259 17.376C12.1833 17.2693 12.1193 17.2373 12.0873 17.248ZM21.7406 17.248C21.6979 17.2587 21.6552 17.3013 21.6339 17.376C21.5592 17.5893 21.5486 17.6533 21.5166 17.7707C21.4739 17.8773 21.5806 17.9093 21.6232 17.792L21.8152 17.3867C21.8366 17.3227 21.8152 17.2693 21.7726 17.248C21.7621 17.2453 21.7511 17.2453 21.7406 17.248ZM12.6206 17.3547C12.5566 17.3653 12.5139 17.4507 12.5566 17.5573C12.5993 17.6853 12.6633 17.8027 12.7273 17.952C12.7913 18.1013 12.8873 18.0693 12.8659 17.9733C12.8339 17.8773 12.8126 17.728 12.7379 17.4933C12.7059 17.3867 12.6633 17.344 12.6206 17.3547ZM21.2392 17.3547C21.1966 17.3547 21.1432 17.3867 21.1112 17.4933C21.0472 17.728 21.0046 17.8773 20.9939 17.9733C20.9619 18.08 21.0686 18.1013 21.1219 17.952C21.1859 17.8027 21.2499 17.6853 21.2926 17.5573C21.3352 17.4507 21.2926 17.3653 21.2392 17.3547ZM11.2979 17.4293C11.2339 17.4293 11.1913 17.536 11.2233 17.6107C11.2766 17.7173 11.3193 17.76 11.3726 17.888C11.4366 18.016 11.5006 17.92 11.4793 17.8347C11.4473 17.7493 11.4153 17.6533 11.3939 17.536C11.3726 17.4507 11.3299 17.4293 11.2873 17.4293H11.2979ZM22.5619 17.4293C22.5192 17.4293 22.4872 17.4507 22.4552 17.536L22.3806 17.8347C22.3592 17.92 22.4232 18.016 22.4872 17.888C22.5406 17.76 22.5726 17.728 22.6366 17.6107C22.6686 17.536 22.6152 17.44 22.5619 17.4293ZM15.4153 17.728C15.3406 17.728 15.2766 17.8133 15.3086 17.888C15.3299 18.016 15.3939 18.1227 15.4259 18.2827C15.4686 18.4213 15.5646 18.3573 15.5539 18.2613C15.5461 18.118 15.5282 17.9755 15.5006 17.8347C15.4793 17.76 15.4473 17.728 15.4046 17.728H15.4153ZM18.4446 17.728C18.4126 17.728 18.3699 17.76 18.3593 17.8347C18.328 17.9752 18.3066 18.1178 18.2953 18.2613C18.2953 18.3573 18.3913 18.4213 18.4233 18.2827L18.5513 17.888C18.5726 17.8133 18.5086 17.728 18.4446 17.728ZM16.9299 17.856C16.8446 17.856 16.8339 17.9627 16.8339 18.0373C16.8274 18.2802 16.7536 18.5166 16.6206 18.72C16.5139 18.848 16.3753 18.816 16.2473 18.7413C16.1232 18.6737 16.0054 18.5952 15.8953 18.5067C15.7459 18.4 15.6393 18.464 15.8099 18.7093C16.3006 19.4133 16.8339 20.0106 16.8339 21.1626C16.8339 21.3013 16.8659 21.344 16.9299 21.344C16.9939 21.344 17.0153 21.3013 17.0153 21.152C17.0153 20.0106 17.5486 19.4133 18.0393 18.6987C18.2099 18.464 18.1033 18.4 17.9646 18.5067C17.8549 18.5958 17.7371 18.6744 17.6126 18.7413C17.4739 18.816 17.3353 18.848 17.2393 18.72C17.1063 18.5166 17.0324 18.2802 17.0259 18.0373C17.0153 17.9627 17.0046 17.856 16.9193 17.856H16.9299ZM13.1646 17.6853C13.1575 17.6841 13.1503 17.6841 13.1433 17.6853C13.1113 17.696 13.1006 17.728 13.1113 17.792L13.2286 18.208C13.2606 18.3147 13.3779 18.2827 13.3566 18.1547L13.2926 17.824C13.2713 17.7387 13.2073 17.6853 13.1646 17.6853ZM20.6952 17.6853C20.6419 17.6853 20.5886 17.7387 20.5672 17.824C20.5246 17.9733 20.5246 18.016 20.5032 18.144C20.4712 18.2827 20.5992 18.304 20.6206 18.208L20.7486 17.7813C20.7486 17.728 20.7379 17.696 20.7059 17.6853C20.6988 17.6841 20.6916 17.6841 20.6846 17.6853H20.6952ZM10.9246 17.728C10.8606 17.728 10.8179 17.8133 10.8819 17.92C10.9459 18.048 11.0633 18.1973 11.1166 18.2933C11.1699 18.3787 11.2659 18.3147 11.2019 18.208C11.1379 18.1013 11.1166 17.9627 11.0313 17.8027C11.0242 17.7802 11.01 17.7607 10.9907 17.7472C10.9714 17.7337 10.9481 17.7269 10.9246 17.728ZM22.9246 17.728C22.8926 17.728 22.8499 17.7493 22.8179 17.8027C22.7432 17.9627 22.7112 18.0907 22.6579 18.208C22.5939 18.3147 22.6792 18.3787 22.7326 18.2933C22.7859 18.1973 22.9032 18.048 22.9672 17.92C23.0312 17.8133 22.9886 17.728 22.9246 17.728ZM7.54329 18.08C7.47929 18.08 7.45796 18.208 7.52196 18.2933C7.60469 18.3982 7.69758 18.4947 7.79929 18.5813C7.88463 18.6667 7.90596 18.56 7.86329 18.4747L7.67129 18.1867C7.61796 18.112 7.57529 18.08 7.54329 18.08ZM26.3059 18.08C26.2739 18.08 26.2312 18.112 26.1886 18.1867L25.9859 18.4747C25.9432 18.56 25.9646 18.6667 26.0606 18.5813C26.1623 18.4947 26.2552 18.3982 26.3379 18.2933C26.4019 18.208 26.3806 18.08 26.3059 18.08ZM8.08729 18.1867C8.02329 18.1867 7.98063 18.2293 8.03396 18.3253L8.23662 18.7307C8.28996 18.8373 8.44996 18.8693 8.38596 18.7093L8.24729 18.304C8.21529 18.2293 8.14063 18.1973 8.08729 18.1973V18.1867ZM25.7726 18.1867C25.7086 18.1867 25.6339 18.2293 25.6019 18.304L25.4739 18.7093C25.4099 18.8693 25.5699 18.8373 25.6232 18.7307C25.6766 18.624 25.7619 18.464 25.8152 18.3253C25.8686 18.2293 25.8259 18.1867 25.7726 18.1867ZM7.04196 18.2293C6.95663 18.2293 6.95663 18.304 7.0313 18.3573C7.12729 18.432 7.24463 18.5067 7.35129 18.6026C7.48996 18.7093 7.53263 18.6027 7.45796 18.5173C7.39396 18.432 7.32996 18.3467 7.14863 18.2507C7.10596 18.2293 7.07396 18.2293 7.04196 18.2293ZM26.8072 18.2293C26.7859 18.2293 26.7432 18.2293 26.7006 18.2507C26.5299 18.3467 26.4552 18.432 26.3806 18.5173C26.3166 18.6133 26.3699 18.7093 26.4979 18.6026C26.6046 18.5067 26.7326 18.432 26.8179 18.3573C26.9032 18.304 26.8926 18.2293 26.8179 18.2293H26.8072ZM15.1166 18.304C15.0633 18.304 15.0313 18.3573 15.0419 18.432L15.1486 18.816C15.1699 18.9333 15.3086 18.9333 15.2873 18.816C15.2659 18.7093 15.2553 18.5707 15.2126 18.4C15.2019 18.336 15.1699 18.304 15.1273 18.2933C15.1237 18.2931 15.1202 18.2931 15.1166 18.2933V18.304ZM18.7219 18.304C18.6899 18.304 18.6579 18.336 18.6366 18.4107C18.5939 18.5707 18.5833 18.7093 18.5619 18.8266C18.5406 18.9333 18.6793 18.9333 18.7006 18.816L18.8073 18.432C18.8286 18.3573 18.7859 18.304 18.7432 18.304C18.7362 18.3028 18.729 18.3028 18.7219 18.304ZM11.8953 18.0907C11.8633 18.0907 11.8419 18.1653 11.8739 18.272C11.9871 18.5794 12.0449 18.9044 12.0446 19.232C12.0126 19.36 11.9379 19.3706 11.8419 19.3386C11.7374 19.2869 11.6374 19.2262 11.5433 19.1573C11.4579 19.104 11.3619 19.168 11.4899 19.2746C12.1299 19.808 12.5886 20.416 12.7699 21.152C12.7913 21.3013 12.8873 21.3226 12.8659 21.152C12.7166 20.224 12.6846 19.456 12.9086 18.9866C12.9939 18.8053 12.9086 18.6346 12.7806 18.9226C12.6846 19.1146 12.5459 19.1893 12.4286 19.0293C12.2619 18.769 12.1191 18.4941 12.0019 18.208C11.9806 18.1333 11.9486 18.1013 11.9166 18.0907C11.9131 18.0901 11.9095 18.0901 11.9059 18.0907H11.8953ZM21.9326 18.0907C21.9006 18.0907 21.8686 18.1333 21.8472 18.1973C21.7726 18.4107 21.5379 18.8586 21.4206 19.0293C21.3032 19.2 21.1646 19.1146 21.0792 18.9226C20.9406 18.6346 20.8659 18.8053 20.9406 18.9866C21.1646 19.456 21.1326 20.224 20.9939 21.152C20.9619 21.3226 21.0579 21.3013 21.1006 21.152C21.2979 20.4028 21.7411 19.7417 22.3592 19.2746C22.4872 19.168 22.3912 19.104 22.3059 19.168C22.2113 19.23 22.1113 19.2836 22.0072 19.328C21.9006 19.3706 21.8366 19.36 21.8046 19.2213C21.7832 19.0933 21.8259 18.8053 21.9859 18.2613C22.0072 18.176 21.9859 18.1013 21.9539 18.0907C21.947 18.0882 21.9395 18.0882 21.9326 18.0907ZM8.65262 18.3467C8.59929 18.3467 8.54596 18.3893 8.57796 18.4747C8.62062 18.624 8.70596 18.7733 8.73796 18.8586C8.76996 18.9546 8.86595 18.912 8.84462 18.784L8.79129 18.4533C8.79129 18.3893 8.71662 18.3467 8.65262 18.3467ZM25.1966 18.3467C25.1326 18.3467 25.0686 18.3893 25.0579 18.4533L25.0152 18.784C24.9939 18.912 25.0899 18.9546 25.1219 18.8586C25.1432 18.7733 25.2286 18.624 25.2712 18.4747C25.3032 18.3893 25.2606 18.3467 25.1966 18.3467ZM10.6579 18.1653C10.5939 18.1547 10.5833 18.3253 10.6366 18.4L10.9353 18.7307C11.0206 18.8373 11.0739 18.7413 11.0206 18.656L10.7433 18.2507C10.7113 18.1973 10.6793 18.1653 10.6579 18.1653ZM23.1912 18.1653C23.1699 18.1653 23.1379 18.1973 23.1059 18.2507L22.8286 18.656C22.7752 18.7413 22.8286 18.8373 22.9246 18.7307L23.2126 18.4C23.2659 18.3253 23.2659 18.1547 23.1912 18.1653ZM9.11129 18.592C9.06862 18.592 9.03662 18.6133 9.05795 18.6987C9.07929 18.8267 9.11129 18.912 9.14329 19.0293C9.17529 19.136 9.24995 19.1253 9.24995 19.0186L9.21795 18.6773C9.2133 18.6518 9.20031 18.6285 9.18101 18.6111C9.16171 18.5937 9.13718 18.5833 9.11129 18.5813V18.592ZM24.7379 18.592C24.7129 18.5915 24.6886 18.5997 24.6691 18.6153C24.6496 18.6309 24.6362 18.6529 24.6312 18.6773L24.5992 19.0186C24.5992 19.1253 24.6846 19.1466 24.7059 19.0293L24.8019 18.7093C24.8232 18.6133 24.7806 18.5813 24.7379 18.5813V18.592ZM10.5086 18.7413C10.4446 18.7413 10.3913 18.816 10.4659 18.912C10.5833 19.072 10.7219 19.1786 10.7753 19.232C10.8179 19.296 10.9353 19.2746 10.8606 19.1573L10.6153 18.784C10.5939 18.7413 10.5513 18.7306 10.5086 18.7413ZM23.3086 18.7413C23.2872 18.7413 23.2552 18.752 23.2446 18.784L22.9886 19.1573C22.9139 19.2746 23.0312 19.296 23.0846 19.2426C23.1272 19.1786 23.2659 19.072 23.3939 18.912C23.4686 18.8053 23.4046 18.7413 23.3406 18.7413C23.3335 18.7406 23.3263 18.7406 23.3192 18.7413H23.3086ZM8.30062 19.1786C8.25796 19.1786 8.23662 19.2213 8.30062 19.3173C8.46536 19.5171 8.58538 19.7499 8.65262 20C8.66329 20.1493 8.59929 20.1493 8.53529 20.1493C8.33262 20.1493 8.23662 20 8.06596 19.9573C7.88463 19.9253 7.85263 20.0106 7.98063 20.1066C8.59202 20.4933 9.12417 20.9929 9.54862 21.5786C9.65529 21.7813 9.79395 21.8453 9.71928 21.664C9.51204 21.248 9.42346 20.783 9.46329 20.32C9.51662 20.0213 9.59129 19.8293 9.58062 19.6586C9.58062 19.4986 9.47395 19.5093 9.44195 19.6586L9.33529 19.9573C9.29262 20.0106 9.14329 20.0426 9.01529 19.8613C8.83388 19.6387 8.63406 19.4318 8.41796 19.2426C8.38596 19.2106 8.34329 19.1893 8.31129 19.1786H8.30062ZM25.5486 19.1786C25.5166 19.1786 25.4739 19.2 25.4312 19.2426C25.2188 19.4322 25.0226 19.6391 24.8446 19.8613C24.7059 20.0426 24.5566 20.0106 24.5246 19.968C24.4759 19.8699 24.4401 19.7659 24.4179 19.6586C24.3752 19.5093 24.2792 19.4986 24.2686 19.6586C24.2686 19.8293 24.3326 20.0213 24.3859 20.32C24.4392 20.6186 24.3859 21.088 24.1406 21.664C24.0552 21.8453 24.2046 21.7706 24.3112 21.5786C24.7317 20.9932 25.2603 20.4935 25.8686 20.1066C25.9966 20.0106 25.9752 19.9253 25.7939 19.9573C25.6126 20 25.5166 20.1493 25.3246 20.1493C25.2606 20.1493 25.1859 20.1493 25.1966 20C25.2072 19.8613 25.3886 19.5306 25.5486 19.3173C25.6126 19.2106 25.6019 19.1786 25.5486 19.1786Z" fill="#000001"/>
<path d="M9.25977 22.6879L9.4731 23.3386L9.25977 22.6879ZM9.68643 22.5599L9.87843 23.2212L9.68643 22.5599ZM10.1558 22.4746L10.2838 23.1573L10.1558 22.4746ZM10.5824 22.3999L10.7211 23.0719L10.5824 22.3999ZM11.1264 22.3466L11.2331 23.0293L11.1264 22.3466ZM11.7131 22.3466L11.8304 23.0186L11.7131 22.3466ZM12.2891 22.1546L12.3744 22.8373L12.2891 22.1546ZM12.8224 22.1866L12.9078 22.8693L12.8224 22.1866ZM13.3451 22.1226L13.4304 22.8053L13.3451 22.1226ZM13.8571 22.0586L13.9104 22.7519L13.8571 22.0586ZM14.4224 22.0586L14.4651 22.7519L14.4224 22.0586ZM14.9344 22.0266L14.9664 22.7199L14.9344 22.0266ZM15.4891 21.9946L15.5211 22.6773L15.4891 21.9946ZM16.1291 21.9733L16.1611 22.6666L16.1291 21.9733ZM24.5877 22.6879L24.3744 23.3386L24.5877 22.6879ZM24.161 22.5599L23.9797 23.2212L24.161 22.5599ZM23.7024 22.4746L23.5744 23.1573L23.7024 22.4746ZM23.2757 22.3999L23.137 23.0719L23.2757 22.3999ZM22.7104 22.3466L22.6037 23.0293L22.7104 22.3466ZM22.1344 22.3466L22.017 23.0293L22.1344 22.3466ZM21.5691 22.1546L21.4837 22.8373L21.5691 22.1546ZM21.0251 22.1866L20.9397 22.8693L21.0251 22.1866ZM20.5131 22.1226L20.4171 22.8053L20.5131 22.1226ZM19.9904 22.0586L19.9371 22.7519L19.9904 22.0586ZM19.4251 22.0586L19.3824 22.7519L19.4251 22.0586ZM18.9237 22.0266L18.8917 22.7199L18.9237 22.0266ZM18.3584 21.9946L18.3371 22.6773L18.3584 21.9946ZM17.7184 21.9733L17.6971 22.6666L17.7184 21.9733ZM16.9291 21.9199V22.6879V21.9199Z" fill="#FFD83D"/>
<path d="M9.25977 22.6879L9.4731 23.3386M9.68643 22.5599L9.87843 23.2212M10.1558 22.4746L10.2838 23.1573M10.5824 22.3999L10.7211 23.0719M11.1264 22.3466L11.2331 23.0293M11.7131 22.3466L11.8304 23.0186M12.2891 22.1546L12.3744 22.8373M12.8224 22.1866L12.9078 22.8693M13.3451 22.1226L13.4304 22.8053M13.8571 22.0586L13.9104 22.7519M14.4224 22.0586L14.4651 22.7519M14.9344 22.0266L14.9664 22.7199M15.4891 21.9946L15.5211 22.6773M16.1291 21.9733L16.1611 22.6666M24.5877 22.6879L24.3744 23.3386M24.161 22.5599L23.9797 23.2212M23.7024 22.4746L23.5744 23.1573M23.2757 22.3999L23.137 23.0719M22.7104 22.3466L22.6037 23.0293M22.1344 22.3466L22.0171 23.0293M21.5691 22.1546L21.4837 22.8373M21.0251 22.1866L20.9397 22.8693M20.5131 22.1226L20.4171 22.8053M19.9904 22.0586L19.9371 22.7519M19.4251 22.0586L19.3824 22.7519M18.9237 22.0266L18.8917 22.7199M18.3584 21.9946L18.3371 22.6773M17.7184 21.9733L17.6971 22.6666M16.9291 21.9199V22.6879" stroke="black" stroke-width="0.159999" stroke-linecap="round" stroke-linejoin="round"/>
</g>
<defs>
<clipPath id="clip0_10790_10099">
<rect width="64" height="64" rx="32" fill="white"/>
</clipPath>
</defs>
</svg>
