<svg width="64" height="64" viewBox="0 0 64 64" fill="none" xmlns="http://www.w3.org/2000/svg">
<g clip-path="url(#clip0_10790_10167)">
<path d="M0 0H64V64H0V0Z" fill="#00785E"/>
<path d="M34.0629 18.425L32.0004 12.0625L29.9379 18.4375L35.3504 14.5H28.6504L34.0629 18.425Z" fill="#FBD116"/>
<path d="M31.9992 44.2125H18.3367C18.1668 44.0406 18.0001 43.8656 17.8367 43.6875H31.9992C32.0513 43.7066 32.0966 43.7404 32.1299 43.7848C32.1632 43.8291 32.1829 43.8822 32.1867 43.9375C32.1867 44.0625 32.1117 44.175 31.9992 44.2125ZM31.9992 40.0375C32.0742 39.875 32.2367 39.5 32.1617 39.0375C32.1359 38.8589 32.081 38.6858 31.9992 38.525C30.7689 39.6918 29.2839 40.5563 27.6617 41.05C26.6484 41.3565 25.5954 41.5123 24.5367 41.5125H16.1117C16.3617 41.8798 16.6244 42.2383 16.8992 42.5875H25.0242C27.5779 42.5909 30.0499 41.6872 31.9992 40.0375ZM17.3867 36.75C16.9742 36.9072 16.54 36.9999 16.0992 37.025C17.1116 38.1759 18.3577 39.0978 19.7544 39.7294C21.1511 40.3609 22.6664 40.6875 24.1992 40.6875C25.6565 40.6889 27.099 40.3949 28.4396 39.8235C29.7802 39.252 30.9911 38.4148 31.9992 37.3625C32.3751 34.758 32.5755 32.1313 32.5992 29.5C32.6314 26.4807 32.4308 23.4634 31.9992 20.475C31.1242 21.2625 29.4742 22.975 28.6992 25.5875C28.4019 26.5855 28.2504 27.6212 28.2492 28.6625C28.2459 30.8036 28.8814 32.897 30.0742 34.675C28.6099 32.7822 27.8182 30.4555 27.8242 28.0625C27.8181 26.4638 28.1683 24.8839 28.8492 23.4375C28.3865 22.9479 28.0441 22.3573 27.8492 21.7125C26.9282 23.3358 26.4457 25.171 26.4492 27.0375C26.4483 29.3519 27.1935 31.605 28.5742 33.4625C27.3213 32.1418 25.7985 31.1065 24.1096 30.427C22.4207 29.7476 20.6052 29.4399 18.7867 29.525C19.1528 29.8661 19.4572 30.2678 19.6867 30.7125C21.3999 30.7135 23.0952 31.0619 24.67 31.7365C26.2448 32.4111 27.6665 33.398 28.8492 34.6375C26.5642 32.726 23.6783 31.6815 20.6992 31.6875C18.9742 31.6875 17.3242 32.025 15.8242 32.6625C16.6566 34.8567 18.1795 36.7211 20.1635 37.9746C22.1475 39.2282 24.4851 39.803 26.8242 39.6125C26.189 39.7278 25.5448 39.7864 24.8992 39.7875C22.0952 39.791 19.4003 38.7014 17.3867 36.75ZM31.9992 48.5875H24.9242C27.1758 49.4815 29.5767 49.9396 31.9992 49.9375C32.1053 49.7327 32.161 49.5056 32.1617 49.275C32.1645 49.036 32.1088 48.7999 31.9992 48.5875ZM31.9992 45.3125H19.5117C19.8519 45.6038 20.2021 45.8831 20.5617 46.15H31.9992C32.1076 46.0395 32.1701 45.8921 32.1742 45.7375C32.1742 45.4875 32.0242 45.35 31.9992 45.3125ZM31.9992 46.9875H21.7742C22.395 47.3783 23.0377 47.733 23.6992 48.05H31.9992C32.1039 47.8815 32.1561 47.6857 32.1492 47.4875C32.1444 47.3105 32.0926 47.1379 31.9992 46.9875Z" fill="white"/>
<path d="M19.45 26.4625L18.575 21.9125L16.6125 26.1124L20.6625 23.8624L16.0625 23.2999L19.45 26.4625ZM25.6125 19.1124L21.9125 16.325L23.2625 20.75L24.775 16.375L20.9875 19.0375L25.6125 19.1124Z" fill="#FBD116"/>
<path d="M32.0008 44.2125H45.6633C45.8332 44.0406 45.9999 43.8656 46.1633 43.6875H32.0008C31.9487 43.7066 31.9034 43.7404 31.8701 43.7848C31.8368 43.8291 31.8171 43.8822 31.8133 43.9375C31.8133 44.0625 31.8883 44.175 32.0008 44.2125ZM32.0008 40.0375C31.9258 39.875 31.7633 39.5 31.8383 39.0375C31.8641 38.8589 31.919 38.6858 32.0008 38.525C33.2311 39.6918 34.7161 40.5563 36.3383 41.05C37.3516 41.3565 38.4046 41.5123 39.4633 41.5125H47.8883C47.6383 41.8798 47.3756 42.2383 47.1008 42.5875H38.9758C36.4221 42.5909 33.9501 41.6872 32.0008 40.0375ZM46.6133 36.75C47.0258 36.9072 47.46 36.9999 47.9008 37.025C46.8884 38.1759 45.6423 39.0978 44.2456 39.7294C42.8489 40.3609 41.3336 40.6875 39.8008 40.6875C38.3435 40.6889 36.901 40.3949 35.5604 39.8235C34.2198 39.252 33.0089 38.4148 32.0008 37.3625C31.6249 34.758 31.4245 32.1313 31.4008 29.5C31.3686 26.4807 31.5692 23.4634 32.0008 20.475C32.8758 21.2625 34.5258 22.975 35.3008 25.5875C35.5981 26.5855 35.7496 27.6212 35.7508 28.6625C35.7541 30.8036 35.1186 32.897 33.9258 34.675C35.3901 32.7822 36.1818 30.4555 36.1758 28.0625C36.1819 26.4638 35.8317 24.8839 35.1508 23.4375C35.6135 22.9479 35.9559 22.3573 36.1508 21.7125C37.0718 23.3358 37.5543 25.171 37.5508 27.0375C37.5517 29.3519 36.8065 31.605 35.4258 33.4625C36.6787 32.1418 38.2015 31.1065 39.8904 30.427C41.5793 29.7476 43.3948 29.4399 45.2133 29.525C44.8472 29.8661 44.5428 30.2678 44.3133 30.7125C42.6001 30.7135 40.9048 31.0619 39.33 31.7365C37.7552 32.4111 36.3335 33.398 35.1508 34.6375C37.4358 32.726 40.3217 31.6815 43.3008 31.6875C45.0258 31.6875 46.6758 32.025 48.1758 32.6625C47.3434 34.8567 45.8205 36.7211 43.8365 37.9746C41.8525 39.2282 39.5149 39.803 37.1758 39.6125C37.811 39.7278 38.4552 39.7864 39.1008 39.7875C41.9048 39.791 44.5997 38.7014 46.6133 36.75ZM32.0008 48.5875H39.0758C36.8242 49.4815 34.4233 49.9396 32.0008 49.9375C31.8947 49.7327 31.839 49.5056 31.8383 49.275C31.8355 49.036 31.8912 48.7999 32.0008 48.5875ZM32.0008 45.3125H44.4883C44.1481 45.6038 43.7979 45.8831 43.4383 46.15H32.0008C31.8924 46.0395 31.8299 45.8921 31.8258 45.7375C31.8258 45.4875 31.9758 45.35 32.0008 45.3125ZM32.0008 46.9875H42.2258C41.605 47.3783 40.9623 47.733 40.3008 48.05H32.0008C31.8961 47.8815 31.8439 47.6857 31.8508 47.4875C31.8556 47.3105 31.9074 47.1379 32.0008 46.9875Z" fill="white"/>
<path d="M44.55 26.4625L45.425 21.9125L47.3875 26.1124L43.3375 23.8624L47.9375 23.2999L44.55 26.4625ZM38.3875 19.1124L42.0875 16.325L40.7375 20.75L39.225 16.375L43.0125 19.0375L38.3875 19.1124Z" fill="#FBD116"/>
</g>
<defs>
<clipPath id="clip0_10790_10167">
<rect width="64" height="64" rx="32" fill="white"/>
</clipPath>
</defs>
</svg>
