<svg width="64" height="64" viewBox="0 0 64 64" fill="none" xmlns="http://www.w3.org/2000/svg">
<g clip-path="url(#clip0_10790_10193)">
<path d="M0 0H64V4.575H0V0Z" fill="#CC0000"/>
<path d="M0 4.57495H64V9.12495H0V4.57495Z" fill="white"/>
<path d="M0 9.13745H64V13.7125H0V9.13745Z" fill="#CC0000"/>
<path d="M0 13.7125H64V18.2875H0V13.7125Z" fill="white"/>
<path d="M0 18.2875H64V22.8625H0V18.2875Z" fill="#CC0000"/>
<path d="M0 22.8625H64V27.425H0V22.8625Z" fill="white"/>
<path d="M0 27.425H64V32H0V27.425Z" fill="#CC0000"/>
<path d="M0 32H64V36.575H0V32Z" fill="white"/>
<path d="M0 36.575H64V41.125H0V36.575Z" fill="#CC0000"/>
<path d="M0 41.1375H64V45.7125H0V41.1375Z" fill="white"/>
<path d="M0 45.7125H64V50.2875H0V45.7125Z" fill="#CC0000"/>
<path d="M0 50.2875H64V54.8625H0V50.2875Z" fill="white"/>
<path d="M0 54.8625H64V59.425H0V54.8625Z" fill="#CC0000"/>
<path d="M0 59.425H64V64H0V59.425Z" fill="white"/>
<path d="M0 0H32V36.575H0V0Z" fill="#000066"/>
<path d="M20.7492 11.625L21.3492 15.6875L23.6492 12.2875L22.3992 16.2L25.9617 14.125L23.1492 17.125L27.2492 16.8L23.4117 18.2875L27.2492 19.75L23.1492 19.4375L25.9617 22.4375L22.4117 20.35L23.6367 24.2875L21.3367 20.875L20.7367 24.9375L20.1492 20.875L17.8492 24.275L19.0867 20.35L15.5367 22.4375L18.3367 19.4375L14.2367 19.75L18.0742 18.275L14.2492 16.7875L18.3492 17.1125L15.5367 14.1125L19.0867 16.1875L17.8367 12.2625L20.1492 15.675L20.7492 11.6V11.625ZM17.4117 11.7875C15.7778 11.0656 13.932 10.985 12.2414 11.5617C10.5507 12.1384 9.13898 13.3301 8.28674 14.9C7.72333 15.9411 7.42867 17.1063 7.42948 18.2901C7.4303 19.4738 7.72656 20.6387 8.29141 21.679C8.85625 22.7193 9.67182 23.6022 10.6642 24.2476C11.6565 24.893 12.7943 25.2805 13.9742 25.375C15.1511 25.4674 16.3324 25.2655 17.4117 24.7875C16.2163 25.6452 14.8074 26.1566 13.3401 26.2655C11.8728 26.3744 10.4039 26.0766 9.09493 25.4047C7.78596 24.7328 6.68762 23.713 5.92072 22.4573C5.15381 21.2017 4.74805 19.7588 4.74805 18.2875C4.74805 16.8161 5.15381 15.3733 5.92072 14.1176C6.68762 12.862 7.78596 11.8421 9.09493 11.1703C10.4039 10.4984 11.8728 10.2005 13.3401 10.3094C14.8074 10.4183 16.2163 10.9297 17.4117 11.7875Z" fill="#FFCC00"/>
</g>
<defs>
<clipPath id="clip0_10790_10193">
<rect width="64" height="64" rx="32" fill="white"/>
</clipPath>
</defs>
</svg>
