<svg width="64" height="64" viewBox="0 0 64 64" fill="none" xmlns="http://www.w3.org/2000/svg">
<g clip-path="url(#clip0_10790_10182)">
<mask id="mask0_10790_10182" style="mask-type:luminance" maskUnits="userSpaceOnUse" x="0" y="0" width="65" height="65">
<path d="M0.00390625 0H64.0075V64.0036H0.00390625V0Z" fill="white"/>
</mask>
<g mask="url(#mask0_10790_10182)">
<path fill-rule="evenodd" clip-rule="evenodd" d="M-16.2246 0H79.7763V64.0036H-16.2246V0Z" fill="#F41408"/>
<path fill-rule="evenodd" clip-rule="evenodd" d="M-16.2246 42.6631H79.7763V64.0036H-16.2246V42.6631Z" fill="#21873B"/>
<path fill-rule="evenodd" clip-rule="evenodd" d="M-16.2246 0H79.7763V21.3315H-16.2246V0Z" fill="#000001"/>
<path fill-rule="evenodd" clip-rule="evenodd" d="M20.0254 19.3266C21.3657 16.0633 23.9473 13.466 27.2025 12.106C30.4576 10.746 34.1197 10.7348 37.3832 12.0746C39.0242 12.7204 40.5144 13.6978 41.7607 14.9456C43.0069 16.1934 43.9824 17.6848 44.6262 19.3266H20.0254ZM16.7742 20.2117C14.5642 20.0424 12.3733 19.6798 10.2266 19.1279C9.72086 18.9473 9.69377 18.6403 9.75699 18.4054C9.80881 18.2525 9.91721 18.1251 10.06 18.0495C10.2027 17.974 10.369 17.9559 10.5246 17.999C11.2381 18.1797 14.1281 18.9473 16.7832 20.2117H16.7742ZM32.3619 8.36283C31.8381 5.47288 31.7026 2.28489 31.7568 1.75205C31.802 1.21018 32.1 1.11987 32.3438 1.11987C32.5035 1.13131 32.653 1.20293 32.7619 1.32027C32.8709 1.43761 32.9313 1.59193 32.9309 1.75205C32.9309 2.4926 32.9128 5.48191 32.3619 8.36283ZM33.8069 8.43508C33.601 6.22486 33.5859 4.001 33.7617 1.78818C33.8611 1.25534 34.1591 1.18309 34.4029 1.21018C34.6468 1.22825 34.9719 1.50821 34.9358 1.89655C34.8725 2.61904 34.6016 5.59931 33.8069 8.43508ZM35.1074 8.61571C35.0712 5.67156 35.4686 2.51067 35.6221 1.98686C35.7576 1.46306 36.0647 1.4179 36.3085 1.46306C36.4636 1.50177 36.5983 1.59783 36.6855 1.73189C36.7726 1.86595 36.8057 2.02805 36.7781 2.18555C36.6517 2.90804 36.1369 5.85218 35.1074 8.60668V8.61571ZM36.4891 8.91373C36.7149 5.98765 37.3922 2.87191 37.5729 2.36617C37.7535 1.86043 38.0696 1.84236 38.3044 1.90558C38.4554 1.95736 38.5812 2.06434 38.6566 2.20506C38.732 2.34577 38.7513 2.5098 38.7108 2.6642C38.5211 3.37765 37.7535 6.26761 36.4891 8.91373ZM37.8438 9.34723C38.2064 7.15981 38.7594 5.00824 39.4965 2.91707C39.7313 2.42939 40.0383 2.43842 40.2732 2.5197C40.4212 2.58536 40.5384 2.70535 40.6006 2.85491C40.6628 3.00447 40.6652 3.17219 40.6073 3.32347C40.3544 4.00983 39.3249 6.81851 37.8348 9.34723H37.8438ZM39.1081 9.88006C39.8306 7.02623 41.0408 4.08208 41.3208 3.61246C41.5917 3.14285 41.8988 3.17897 42.1155 3.28734C42.2545 3.36407 42.3595 3.49026 42.4097 3.64085C42.4599 3.79143 42.4516 3.95539 42.3864 4.10014C42.0704 4.77748 40.815 7.48682 39.1081 9.88006ZM40.3544 10.5303C41.0959 8.43895 42.0144 6.41466 43.0999 4.47945C43.407 4.03693 43.714 4.10014 43.9308 4.22658C44.0611 4.31808 44.1522 4.45541 44.1857 4.61113C44.2192 4.76685 44.1926 4.92947 44.1114 5.06647C43.7501 5.69865 42.26 8.29059 40.3544 10.5303ZM41.5285 11.2799C42.4472 9.26138 43.5411 7.32733 44.7978 5.49997C45.1409 5.08454 45.439 5.17485 45.6376 5.31935C45.7603 5.42025 45.8404 5.56359 45.8622 5.72088C45.8839 5.87817 45.8457 6.03788 45.7551 6.16827C45.3306 6.77336 43.6237 9.22079 41.5285 11.2799ZM42.6303 12.1378C44.0753 9.57301 46.0079 7.04429 46.3963 6.65595C46.7756 6.27665 47.0646 6.38502 47.2542 6.54758C47.4348 6.71014 47.5432 7.11654 47.2903 7.41457C46.8207 7.9745 44.9061 10.2684 42.6303 12.1378ZM43.6689 13.0861C44.9235 11.2573 46.3347 9.54097 47.8864 7.95643C48.3018 7.61325 48.5818 7.74872 48.7534 7.92031C48.8591 8.04215 48.9143 8.1998 48.9076 8.36098C48.9008 8.52216 48.8328 8.67468 48.7173 8.7873C47.1635 10.3688 45.4709 11.8075 43.6598 13.0861H43.6689ZM44.6081 14.1247C46.4775 11.8579 48.8256 9.69944 49.2682 9.39238C49.7197 9.08533 49.9726 9.24789 50.1351 9.42851C50.2295 9.55853 50.2707 9.71956 50.2506 9.87891C50.2305 10.0383 50.1504 10.184 50.0268 10.2865C48.3358 11.7213 46.5227 13.0056 44.6081 14.1247ZM45.4209 15.1904C46.9712 13.6014 48.6574 12.1509 50.4603 10.8554C50.9299 10.5845 51.1828 10.7741 51.3182 10.9819C51.4627 11.1805 51.4627 11.596 51.1376 11.8218C49.338 13.1106 47.428 14.2378 45.4299 15.1904H45.4209ZM46.1615 16.3464C47.8421 14.8973 49.6461 13.5979 51.553 12.463C52.0407 12.2372 52.2755 12.4449 52.402 12.6526C52.5194 12.8603 52.4923 13.2848 52.1491 13.4835C51.5169 13.8447 48.934 15.362 46.1615 16.3464ZM46.8478 17.6649C48.657 16.3811 50.5726 15.2541 52.5736 14.2963C53.0793 14.1157 53.296 14.3414 53.3954 14.5672C53.4512 14.7163 53.4487 14.8809 53.3885 15.0283C53.3282 15.1756 53.2146 15.2948 53.0703 15.362C51.0677 16.3107 48.9855 17.0814 46.8478 17.6649ZM47.3716 18.9383C49.2785 17.808 51.2823 16.8499 53.3593 16.0754C53.8831 15.9399 54.0818 16.1838 54.163 16.4096C54.2533 16.6353 54.1359 17.0417 53.7657 17.1772C51.6908 17.9529 49.551 18.5423 47.3716 18.9383ZM47.7871 20.293C49.7921 19.3357 51.8773 18.556 54.0185 17.9629C54.5423 17.8726 54.7139 18.1255 54.7771 18.3693C54.8055 18.5244 54.7749 18.6844 54.6914 18.8181C54.6078 18.9517 54.4774 19.0493 54.3256 19.0918C53.6031 19.2905 50.7222 20.0581 47.7871 20.2839V20.293ZM30.953 8.40799C30.358 6.27712 29.95 4.09837 29.7338 1.89655C29.7338 1.35468 30.0138 1.23728 30.2576 1.21018C30.4193 1.20746 30.5759 1.2668 30.6952 1.37599C30.8144 1.48518 30.8873 1.63592 30.8989 1.79721C30.9711 2.5197 31.233 5.49997 30.953 8.42605V8.40799ZM29.5622 8.58861C28.7831 6.51349 28.1877 4.37392 27.7831 2.19458C27.738 1.65271 28.0089 1.50821 28.2437 1.46306C28.4047 1.44464 28.5665 1.48871 28.6959 1.58618C28.8253 1.68365 28.9124 1.82708 28.9391 1.98686C29.0655 2.70935 29.5893 5.6535 29.5622 8.58861ZM28.1805 8.89567C27.2208 6.8937 26.4382 4.81162 25.8414 2.67323C25.7511 2.14039 26.013 1.9688 26.2478 1.90558C26.4041 1.87762 26.5651 1.90947 26.699 1.99481C26.8329 2.08014 26.9297 2.21271 26.9703 2.36617C27.169 3.07963 27.9457 5.96056 28.1805 8.89567ZM26.88 9.30207C25.7554 7.39038 24.8005 5.38382 24.0262 3.30541C23.8907 2.7816 24.1345 2.58292 24.3603 2.50164C24.5148 2.45803 24.6801 2.47483 24.8227 2.54862C24.9652 2.62242 25.0744 2.74768 25.128 2.899C25.3808 3.5944 26.4014 6.39405 26.88 9.30207ZM25.6156 9.81685C24.3279 8.01334 23.2008 6.10046 22.247 4.10014C22.0664 3.58537 22.2832 3.37765 22.5089 3.27831C22.6591 3.21985 22.8259 3.22094 22.9753 3.28137C23.1247 3.3418 23.2454 3.457 23.3127 3.60343C23.6198 4.27174 24.8751 6.98107 25.6066 9.83491L25.6156 9.81685ZM24.3332 10.4851C22.8889 8.79855 21.5955 6.98838 20.4679 5.07551C20.2421 4.58783 20.4408 4.35302 20.6485 4.23561C20.7931 4.16366 20.9598 4.14977 21.1143 4.19679C21.2688 4.24381 21.3994 4.34818 21.4794 4.48848C21.8497 5.12066 23.3488 7.71259 24.3332 10.4851ZM23.1592 11.2257C21.5756 9.66888 20.1312 7.97663 18.8423 6.16827C18.5714 5.69865 18.752 5.44578 18.9597 5.31032C19.0986 5.23059 19.2621 5.20493 19.4187 5.23826C19.5754 5.27159 19.7142 5.36157 19.8086 5.49094C20.2331 6.09602 21.94 8.54346 23.1592 11.2257ZM22.0664 12.0385C20.3555 10.6267 18.772 9.0674 17.3341 7.37844C17.027 6.93592 17.1896 6.67401 17.3793 6.52049C17.5093 6.42618 17.6703 6.3849 17.8297 6.40503C17.989 6.42516 18.1347 6.50518 18.2372 6.62886C18.7068 7.18879 20.6214 9.48269 22.0664 12.0475V12.0385ZM21.0007 13.0048C19.1709 11.7482 17.4545 10.334 15.8711 8.77827C15.5279 8.36283 15.6633 8.08287 15.8349 7.91128C15.9568 7.80554 16.1144 7.75039 16.2756 7.7571C16.4368 7.76382 16.5893 7.8319 16.7019 7.9474C17.2257 8.47121 19.339 10.5755 21.0007 13.0048ZM20.0796 13.9892C18.1517 12.8927 16.3234 11.6295 14.6157 10.2142C14.2364 9.83491 14.3538 9.54591 14.5164 9.35626C14.6286 9.24332 14.7792 9.17687 14.9383 9.17017C15.0973 9.16348 15.2531 9.21703 15.3743 9.32013C15.9433 9.78975 18.2192 11.7134 20.0796 13.9892ZM19.2035 15.1181C17.185 14.196 15.251 13.099 13.4236 11.8398C13.0082 11.4876 13.0985 11.1896 13.243 10.9909C13.3442 10.8658 13.4893 10.784 13.6487 10.7622C13.8081 10.7404 13.9699 10.7802 14.101 10.8735C15.9217 12.1376 17.629 13.5579 19.2035 15.1181ZM18.4178 16.3283C16.3249 15.5946 14.3002 14.6789 12.367 13.5919C11.9154 13.2758 11.9786 12.9777 12.1051 12.761C12.1952 12.6291 12.3319 12.5363 12.4878 12.5011C12.6436 12.4659 12.8069 12.491 12.945 12.5713C13.5862 12.9326 16.1781 14.4227 18.4178 16.3283ZM17.7586 17.5656C14.9138 16.8431 11.9606 15.6329 11.491 15.362C11.0304 15.091 11.0575 14.784 11.1658 14.5672C11.2443 14.4276 11.3721 14.3224 11.5242 14.2722C11.6763 14.2221 11.8416 14.2307 11.9877 14.2963C12.656 14.6033 15.3653 15.8677 17.7676 17.5656H17.7586ZM17.2348 18.8118C15.0459 18.4434 12.894 17.8813 10.8046 17.1321C10.3169 16.9063 10.3259 16.5902 10.4072 16.3644C10.4975 16.1386 10.8407 15.8948 11.211 16.0303C11.8974 16.2831 14.706 17.3127 17.2348 18.8118Z" fill="#F31509"/>
<path fill-rule="evenodd" clip-rule="evenodd" d="M16.7832 20.2117C13.8481 19.9859 10.7324 19.3176 10.2266 19.1279C9.72086 18.9473 9.69377 18.6403 9.75699 18.4055C9.80881 18.2525 9.91721 18.1251 10.06 18.0495C10.2027 17.974 10.369 17.9559 10.5246 17.9991C11.2381 18.1797 14.1281 18.9473 16.7832 20.2117Z" fill="#F31509"/>
<path fill-rule="evenodd" clip-rule="evenodd" d="M8.63867 19.3898H56.2959V21.1328H8.63867V19.3898Z" fill="black"/>
</g>
</g>
<defs>
<clipPath id="clip0_10790_10182">
<rect width="64" height="64" rx="32" fill="white"/>
</clipPath>
</defs>
</svg>
