<svg width="64" height="64" viewBox="0 0 64 64" fill="none" xmlns="http://www.w3.org/2000/svg">
<g clip-path="url(#clip0_10790_10210)">
<path d="M0 0H64V64H0V0Z" fill="#D21034"/>
<path d="M16 16H48V48H16V16Z" fill="#007E3A"/>
<path d="M36.0004 42.6625C41.8891 42.6625 46.6629 37.8888 46.6629 32C46.6629 26.1113 41.8891 21.3375 36.0004 21.3375C30.1117 21.3375 25.3379 26.1113 25.3379 32C25.3379 37.8888 30.1117 42.6625 36.0004 42.6625Z" fill="white"/>
<path d="M38.5754 42.6625C43.6771 42.6625 47.8129 37.8888 47.8129 32C47.8129 26.1113 43.6771 21.3375 38.5754 21.3375C33.4737 21.3375 29.3379 26.1113 29.3379 32C29.3379 37.8888 33.4737 42.6625 38.5754 42.6625Z" fill="#007E3A"/>
</g>
<defs>
<clipPath id="clip0_10790_10210">
<rect width="64" height="64" rx="32" fill="white"/>
</clipPath>
</defs>
</svg>
