<svg width="64" height="64" viewBox="0 0 64 64" fill="none" xmlns="http://www.w3.org/2000/svg">
<g clip-path="url(#clip0_10790_10220)">
<path fill-rule="evenodd" clip-rule="evenodd" d="M32 0H64V64H32V0Z" fill="#CE0000"/>
<path fill-rule="evenodd" clip-rule="evenodd" d="M0 0H32V64H0V0Z" fill="white"/>
<path fill-rule="evenodd" clip-rule="evenodd" d="M13.0998 13.5132C13.0998 13.6139 12.9861 13.697 12.8461 13.697C12.7017 13.697 12.5879 13.6095 12.5879 13.5132C12.5879 13.4126 12.7017 13.3295 12.8417 13.3295C12.9817 13.3295 13.1042 13.4126 13.1042 13.5132H13.0998Z" fill="#F1EEEE"/>
<path fill-rule="evenodd" clip-rule="evenodd" d="M5.08789 12.6251V17.2761H9.74356C9.77013 17.6786 9.94173 18.0578 10.2266 18.3434C10.5114 18.629 10.8901 18.8017 11.2925 18.8294V23.4804H15.9438V18.8294C16.3462 18.8017 16.725 18.629 17.0098 18.3434C17.2946 18.0578 17.4662 17.6786 17.4928 17.2761H22.1441V12.6251H17.4928C17.4652 12.2234 17.2931 11.8452 17.0084 11.5605C16.7237 11.2758 16.3455 11.1038 15.9438 11.0762V6.42517H11.2925V11.0762C10.8908 11.1038 10.5127 11.2758 10.2279 11.5605C9.9432 11.8452 9.77114 12.2234 9.74356 12.6251H5.08789Z" fill="#CC0000"/>
<path fill-rule="evenodd" clip-rule="evenodd" d="M5.24609 12.7827V17.123H9.89738C9.92497 17.5247 10.097 17.9029 10.3818 18.1876C10.6665 18.4723 11.0446 18.6443 11.4464 18.6719V23.3273H15.787V18.6719C16.1895 18.6453 16.5687 18.4737 16.8543 18.1889C17.1399 17.9041 17.3126 17.5254 17.3403 17.123H21.9916V12.7827H17.3403C17.3136 12.3795 17.1414 11.9997 16.8557 11.714C16.5699 11.4283 16.1902 11.2561 15.787 11.2294V6.57837H11.4464V11.2294C11.0447 11.2581 10.667 11.4312 10.3831 11.7167C10.0992 12.0023 9.92821 12.3809 9.90176 12.7827H5.24609Z" fill="#FFE600"/>
<path fill-rule="evenodd" clip-rule="evenodd" d="M5.39453 12.9357V16.9655H10.0458C10.0725 17.3686 10.2447 17.7484 10.5305 18.0341C10.8162 18.3198 11.196 18.492 11.5992 18.5187V23.1698H15.6291V18.5143C16.0315 18.4866 16.4103 18.314 16.6951 18.0284C16.9799 17.7428 17.1515 17.3636 17.1781 16.9611H21.8294V12.9357H17.1781C17.1516 12.534 16.9807 12.1553 16.6967 11.8698C16.4128 11.5843 16.0351 11.4112 15.6335 11.3825V6.73584H11.6035V11.3825C11.201 11.4091 10.8218 11.5807 10.5362 11.8655C10.2506 12.1503 10.0779 12.529 10.0502 12.9314H5.39453V12.9357Z" fill="#707070"/>
<path fill-rule="evenodd" clip-rule="evenodd" d="M5.55078 13.0888V16.8079H10.2021C10.2286 17.2104 10.4002 17.5896 10.6851 17.8752C10.9699 18.1608 11.3486 18.3334 11.751 18.3611V23.0122H15.4703V18.3611C15.8728 18.3346 16.252 18.163 16.5377 17.8782C16.8233 17.5934 16.996 17.2147 17.0237 16.8123H21.6706V13.0932H17.0237C16.9971 12.6907 16.8255 12.3115 16.5407 12.0259C16.2558 11.7403 15.8771 11.5676 15.4747 11.5399V6.88892H11.7554V11.5399C11.3529 11.5665 10.9737 11.7381 10.6881 12.0229C10.4025 12.3077 10.2298 12.6864 10.2021 13.0888H5.55078Z" fill="#A0A0A0"/>
<path fill-rule="evenodd" clip-rule="evenodd" d="M11.7921 11.1549C12.0677 11.4305 11.8446 12.0912 11.302 12.6381C10.7594 13.1851 10.0943 13.4038 9.81867 13.1282C9.54738 12.8569 9.77054 12.1962 10.3131 11.6493C10.8557 11.1024 11.5208 10.8836 11.7921 11.1549Z" fill="#D0D0D0"/>
<path fill-rule="evenodd" clip-rule="evenodd" d="M11.4638 11.483C11.7395 11.7586 11.6651 12.2706 11.3019 12.6337C10.9387 12.9969 10.4224 13.0713 10.1511 12.8C9.87547 12.5287 9.94986 12.0124 10.313 11.6493C10.6762 11.2861 11.1925 11.2117 11.4638 11.483Z" fill="#808080"/>
<path fill-rule="evenodd" clip-rule="evenodd" d="M10.0938 12.3056L10.2031 12.1962L10.6407 12.415L10.4219 11.9775L10.5313 11.8681L10.9689 12.7431L10.0938 12.3056ZM10.7501 11.6493L10.8595 11.5399L11.5158 12.1962L11.4108 12.3056L10.7501 11.6493Z" fill="#D0D0D0"/>
<path fill-rule="evenodd" clip-rule="evenodd" d="M17.4093 13.1326C17.138 13.4039 16.4729 13.1808 15.9303 12.6382C15.3877 12.0957 15.1646 11.4306 15.4359 11.155C15.7115 10.8837 16.3722 11.1068 16.9148 11.6494C17.4574 12.1919 17.6806 12.857 17.4093 13.1283V13.1326Z" fill="#D0D0D0"/>
<path fill-rule="evenodd" clip-rule="evenodd" d="M17.0819 12.8001C16.8106 13.0714 16.2943 13.0014 15.9311 12.6382C15.568 12.2751 15.4936 11.7588 15.7649 11.4875C16.0361 11.2162 16.5525 11.2862 16.9156 11.6494C17.2788 12.0126 17.3532 12.5245 17.0819 12.8001Z" fill="#808080"/>
<path fill-rule="evenodd" clip-rule="evenodd" d="M16.2579 11.4263L16.3673 11.54L16.1485 11.9776L16.586 11.7588L16.6954 11.8682L15.8203 12.3057L16.2579 11.4306V11.4263ZM16.9142 12.087L17.0236 12.1963L16.3673 12.8526L16.2579 12.7476L16.9142 12.087Z" fill="#D0D0D0"/>
<path fill-rule="evenodd" clip-rule="evenodd" d="M15.4359 18.7462C15.1646 18.4749 15.3877 17.8098 15.9303 17.2673C16.4729 16.7248 17.138 16.5016 17.4093 16.7729C17.6806 17.0442 17.4618 17.7092 16.9148 18.2518C16.3679 18.7943 15.7115 19.0175 15.4359 18.7462Z" fill="#D0D0D0"/>
<path fill-rule="evenodd" clip-rule="evenodd" d="M15.7649 18.418C15.4936 18.1467 15.568 17.6305 15.9311 17.2673C16.2943 16.9041 16.8063 16.8298 17.0819 17.101C17.3532 17.3767 17.2788 17.8886 16.9156 18.2518C16.5525 18.6149 16.0405 18.6893 15.7649 18.418Z" fill="#808080"/>
<path fill-rule="evenodd" clip-rule="evenodd" d="M17.1374 17.5955L17.028 17.7049L16.5904 17.4861L16.8092 17.9236L16.6955 18.033L16.2579 17.158L17.133 17.5955H17.1374ZM16.481 18.2518L16.3673 18.3612L15.7109 17.7049L15.8203 17.5955L16.481 18.2518Z" fill="#D0D0D0"/>
<path fill-rule="evenodd" clip-rule="evenodd" d="M9.82227 16.7729C10.0936 16.5017 10.7543 16.7204 11.3012 17.2674C11.8482 17.8143 12.067 18.475 11.7957 18.7462C11.52 19.0175 10.8593 18.7987 10.3123 18.2518C9.76539 17.7049 9.54661 17.0442 9.82227 16.7729Z" fill="#D0D0D0"/>
<path fill-rule="evenodd" clip-rule="evenodd" d="M10.1511 17.101C10.4224 16.8298 10.9387 16.9041 11.3019 17.2673C11.6651 17.6305 11.7395 18.1424 11.4638 18.418C11.1925 18.6893 10.6762 18.6149 10.313 18.2518C9.94986 17.8886 9.87547 17.3767 10.1511 17.101Z" fill="#808080"/>
<path fill-rule="evenodd" clip-rule="evenodd" d="M10.9689 18.4706L10.8595 18.3612L11.0782 17.9237L10.6407 18.1424L10.5313 18.033L11.4064 17.5955L10.9689 18.4706ZM10.3125 17.8143L10.2031 17.7049L10.8595 17.0486L10.9689 17.158L10.3125 17.8143Z" fill="#D0D0D0"/>
<path d="M16.8724 14.9528C16.8724 16.7467 15.415 18.2081 13.6157 18.2081C11.8164 18.2081 10.3633 16.7511 10.3633 14.9528C10.3633 13.1545 11.8207 11.6975 13.62 11.6975C15.4192 11.6975 16.8766 13.1545 16.8766 14.9528H16.8724Z" stroke="#707070" stroke-width="0.0576575"/>
<path d="M16.098 14.9521C16.098 16.3189 14.9876 17.4323 13.6167 17.4323C12.2458 17.4323 11.1387 16.3222 11.1387 14.9521C11.1387 13.582 12.2491 12.4719 13.62 12.4719C14.9909 12.4719 16.1013 13.582 16.1013 14.9521H16.098Z" stroke="#707070" stroke-width="0.0439296"/>
<path fill-rule="evenodd" clip-rule="evenodd" d="M12.527 17.5867C12.527 17.6273 12.5109 17.6663 12.4821 17.695C12.4534 17.7237 12.4145 17.7399 12.3739 17.7399C12.3332 17.7399 12.2943 17.7237 12.2656 17.695C12.2368 17.6663 12.2207 17.6273 12.2207 17.5867C12.2207 17.5461 12.2368 17.5072 12.2656 17.4784C12.2943 17.4497 12.3332 17.4336 12.3739 17.4336C12.4145 17.4336 12.4534 17.4497 12.4821 17.4784C12.5109 17.5072 12.527 17.5461 12.527 17.5867ZM15.0124 17.5867C15.0124 17.6279 14.996 17.6674 14.9669 17.6966C14.9377 17.7257 14.8982 17.7421 14.857 17.7421C14.8158 17.7421 14.7763 17.7257 14.7472 17.6966C14.718 17.6674 14.7017 17.6279 14.7017 17.5867C14.7017 17.5461 14.7178 17.5072 14.7465 17.4784C14.7753 17.4497 14.8142 17.4336 14.8548 17.4336C14.8954 17.4336 14.9344 17.4497 14.9631 17.4784C14.9918 17.5072 15.008 17.5461 15.008 17.5867H15.0124ZM13.5115 17.5867V17.7486H13.3059C13.1002 17.7486 13.1002 17.9105 13.3059 17.9105H13.5115V18.0724C13.5115 18.2387 13.6953 18.2605 13.7084 18.0855L13.7215 17.9105H13.9272C14.1329 17.9105 14.1329 17.7486 13.9272 17.7486H13.7215V17.5867C13.7215 17.4248 13.5115 17.4248 13.5115 17.5867Z" fill="#D0D0D0"/>
<path fill-rule="evenodd" clip-rule="evenodd" d="M12.8458 15.2974V15.3879C12.8458 15.3879 12.7981 15.459 12.4874 15.481C12.1766 15.503 12.1289 15.481 12.1289 15.481C12.1376 15.5599 12.1969 15.7125 12.1795 15.8935C12.1925 16.103 12.1217 16.2944 12.1217 16.2944C12.1289 16.3048 12.0928 16.3112 12.0263 16.3048C12.0783 16.2595 12.0711 16.1263 12.0783 15.9388C12.0841 15.75 11.8818 15.4668 11.9237 15.3892C11.9656 15.3116 12.8458 15.2974 12.8458 15.2974Z" fill="#D0D0D0" stroke="#707070" stroke-width="0.0182287"/>
<path fill-rule="evenodd" clip-rule="evenodd" d="M14.0708 14.9646C14.3728 14.9504 14.8787 14.9529 14.8787 14.9529C14.8787 14.9529 14.9987 15.1922 14.9929 15.3241C14.9871 15.456 14.9467 15.5698 14.8917 15.5129C14.8368 15.456 14.9163 15.4676 14.9264 15.3241C14.9365 15.1818 14.831 15.0344 14.831 15.0344C14.831 15.0344 14.6142 15.1288 14.289 15.1094C13.9638 15.09 14.1083 14.9698 14.0722 14.9646H14.0708Z" fill="#D0D0D0" stroke="#707070" stroke-width="0.0182287"/>
<path fill-rule="evenodd" clip-rule="evenodd" d="M14.1763 15.2014C14.4784 15.1859 14.6764 15.2324 14.6764 15.2324C14.6764 15.2324 14.7949 15.4717 14.7906 15.6036C14.7862 15.7355 14.7443 15.8493 14.688 15.7924C14.6316 15.7355 14.714 15.7471 14.7241 15.6036C14.7342 15.4613 14.6273 15.3126 14.6273 15.3126C14.6273 15.3126 14.4105 15.407 14.0867 15.3889C13.7615 15.3695 13.854 15.3501 13.8179 15.345C13.7817 15.3398 13.7716 15.4355 13.2802 15.4484C12.7888 15.4613 12.5373 15.345 12.5373 15.345C12.5373 15.345 12.4881 15.4148 12.1788 15.4355C11.8695 15.4562 11.8204 15.4355 11.8204 15.4355C11.8276 15.5157 11.8883 15.6682 11.871 15.8493C11.8825 16.0588 11.8131 16.2502 11.8131 16.2502C11.8204 16.2605 11.7828 16.267 11.7178 16.2605C11.7683 16.2153 11.7626 16.0821 11.7683 15.8946C11.7741 15.7058 11.5732 15.4213 11.6151 15.3437C11.657 15.2661 11.8796 15.3385 11.923 15.2971C11.9649 15.257 11.7235 14.9699 11.7683 14.7022C11.8146 14.4333 12.069 14.5083 12.3841 14.5186C12.6977 14.5277 13.3929 14.6091 13.562 14.5186C13.7297 14.4281 13.656 14.0919 13.8164 13.8772C13.8613 13.8175 13.9227 13.7691 13.9946 13.737C14.0665 13.7048 14.1466 13.6898 14.2269 13.6936C14.3281 13.6936 14.4827 14.0608 14.4827 14.1513L14.4321 14.1979H14.3801V14.2432C14.2645 14.2561 14.2471 14.1436 14.1763 14.0608C14.1445 14.1901 14.2775 14.6104 14.2775 14.8846C14.2775 15.1148 14.1821 15.2156 14.1763 15.1988V15.2014Z" fill="#D0D0D0" stroke="#707070" stroke-width="0.0182287"/>
<path fill-rule="evenodd" clip-rule="evenodd" d="M13.1879 14.8017C13.1937 14.8923 12.7933 15.0979 12.7601 15.1794C12.7269 15.2608 12.8613 15.3048 12.8208 15.3513C12.7789 15.3979 12.7456 15.3798 12.737 15.3889C12.7283 15.3979 12.5867 15.0707 12.5867 15.0707C12.5867 15.0707 12.9624 14.9026 12.948 14.8289C12.9335 14.7552 12.6705 14.7125 12.6213 14.5276C12.5736 14.344 12.6011 13.9883 12.5621 13.9133C12.5231 13.8396 12.0605 13.7685 12.0605 13.656C12.0605 13.5435 12.5375 13.2357 12.5867 13.1904C12.6372 13.1439 12.6878 13.2357 12.6372 13.281C12.5867 13.3275 12.2152 13.6107 12.2152 13.656C12.2152 13.7025 12.5231 13.7478 12.6257 13.7478C12.7269 13.7478 12.7789 13.7025 12.7789 13.6573C12.7789 13.6172 12.6777 13.6107 12.6777 13.5189C12.6777 13.4271 12.7283 13.3818 12.8309 13.3818C12.8815 13.3818 12.9798 13.44 12.9841 13.5189C12.9885 13.5965 12.8931 13.6043 12.8815 13.656C12.8699 13.7077 12.9827 13.7478 13.0867 13.7478C13.1879 13.7478 13.5391 14.0142 13.5897 14.0607C13.6403 14.106 13.6909 14.106 13.6403 14.1513C13.5897 14.1978 13.6201 14.2521 13.5681 14.2056C13.5247 14.1616 13.5175 14.1151 13.5175 14.1151C13.5131 14.0724 13.1373 13.8849 13.0867 13.9314C13.0347 13.9767 13.0867 14.5263 13.0867 14.5729C13.0867 14.6634 13.1923 14.6634 13.1879 14.8017Z" fill="#D0D0D0" stroke="#707070" stroke-width="0.0182287"/>
<path fill-rule="evenodd" clip-rule="evenodd" d="M12.5352 13.7408H13.1477V14.384H12.5352V13.7408Z" fill="#A7A7A7"/>
<path d="M14.5247 16.051L12.4651 12.9594C12.4477 12.9333 12.4241 12.9172 12.4124 12.9234C12.4006 12.9297 12.4052 12.956 12.4227 12.9821L14.4822 16.0736C14.4996 16.0998 14.5232 16.1159 14.535 16.1097C14.5467 16.1034 14.5421 16.0771 14.5247 16.051Z" fill="#808080"/>
<path fill-rule="evenodd" clip-rule="evenodd" d="M12.6877 13.236C12.6877 13.2603 12.6769 13.2837 12.6576 13.3009C12.6384 13.3181 12.6123 13.3278 12.585 13.3278C12.5578 13.3278 12.5317 13.3181 12.5125 13.3009C12.4932 13.2837 12.4824 13.2603 12.4824 13.236C12.4824 13.2116 12.4932 13.1883 12.5125 13.1711C12.5317 13.1538 12.5578 13.1442 12.585 13.1442C12.6123 13.1442 12.6384 13.1538 12.6576 13.1711C12.6769 13.1883 12.6877 13.2116 12.6877 13.236Z" fill="#D0D0D0" stroke="#707070" stroke-width="0.0182287"/>
<path fill-rule="evenodd" clip-rule="evenodd" d="M14.4829 14.069C14.4829 14.1127 14.2466 14.1565 13.9709 14.1565C13.6953 14.1565 13.459 14.1127 13.459 14.069C13.459 14.034 13.6953 14.1259 13.9709 14.1259C14.2466 14.1259 14.4829 14.034 14.4829 14.069Z" fill="#808080"/>
<path fill-rule="evenodd" clip-rule="evenodd" d="M12.5879 14.384H13.0998V14.5634H12.5879V14.384Z" fill="#A7A7A7"/>
<path fill-rule="evenodd" clip-rule="evenodd" d="M14.2509 13.9289C14.2071 14.0252 14.1546 14.0908 14.1459 14.0777C14.1371 14.0689 14.1721 13.9814 14.2203 13.8895C14.2728 13.7977 14.3209 13.732 14.3253 13.7408C14.334 13.7539 14.3034 13.837 14.2509 13.9289ZM14.3822 14.1696C14.3253 14.2221 14.2815 14.2571 14.2771 14.2439C14.2771 14.2352 14.3209 14.1871 14.3778 14.1346C14.4347 14.0864 14.4828 14.0514 14.4828 14.0645C14.4828 14.0733 14.439 14.1214 14.3822 14.1696Z" fill="#808080"/>
<path fill-rule="evenodd" clip-rule="evenodd" d="M14.3206 14.0514C14.36 14.1302 14.3863 14.1958 14.3775 14.2002C14.3731 14.2002 14.3338 14.1433 14.29 14.0689C14.2463 13.9902 14.22 13.9289 14.2287 13.9246C14.2375 13.9246 14.2725 13.9814 14.3163 14.0558L14.3206 14.0514ZM14.2769 14.4496C14.2769 14.4627 14.1194 14.4715 13.9181 14.4715C13.7168 14.4715 13.5593 14.4627 13.5593 14.4496C13.5593 14.4365 13.7212 14.4277 13.9181 14.4277C14.1194 14.4277 14.2769 14.4365 14.2769 14.4496ZM13.0998 14.4059C13.0998 14.419 12.9861 14.4277 12.8461 14.4277C12.7017 14.4277 12.5879 14.419 12.5879 14.4059C12.5879 14.3927 12.7017 14.384 12.8417 14.384C12.9817 14.384 13.1042 14.3927 13.1042 14.4059H13.0998Z" fill="#808080"/>
<path fill-rule="evenodd" clip-rule="evenodd" d="M11.9746 16.0003C11.9746 16.0003 12.0597 16.2049 12.4188 16.2078C12.7779 16.2106 12.9036 16.1464 12.7571 16.0373C12.6106 15.9282 12.3413 15.9628 12.3763 16.0566C12.4112 16.1504 12.2742 16.1816 12.2421 16.1157C12.2099 16.0498 12.0814 15.8543 12.3129 15.8412C12.5445 15.8281 13.0359 15.7571 13.1588 15.8935C13.2816 16.0299 13.0189 16.1532 13.2173 16.1822C13.4158 16.2106 13.4442 16.1492 13.7844 16.1305C14.1246 16.1117 14.2541 16.193 14.3703 16.1816C14.4865 16.1703 14.4705 15.9702 14.3779 15.9196C14.2862 15.8685 14.1085 15.8594 14.0632 15.8037C14.0178 15.748 13.8949 15.7929 13.9063 15.7298C13.9176 15.6667 14.0811 15.7736 14.083 15.7412C14.083 15.74 14.1104 15.719 14.1161 15.7133C14.0953 15.7088 14.083 15.7167 14.0679 15.7247C14.0849 15.7111 14.084 15.7048 14.0896 15.694C14.0868 15.69 14.066 15.7099 14.0622 15.7054C14.0584 15.7008 14.0858 15.6735 14.0736 15.6838C14.0698 15.6866 14.0376 15.7025 14.0367 15.6917C14.0367 15.6872 14.0537 15.6758 14.048 15.669C14.0433 15.6639 14.0197 15.6753 14.0159 15.6764C14.0301 15.6576 14.0291 15.6582 14.0159 15.644C14.0036 15.6304 13.9951 15.6304 13.9753 15.6463C13.9838 15.6235 13.9857 15.619 13.9658 15.6105C13.9507 15.6014 13.9498 15.5934 13.9299 15.6338C13.9375 15.5906 13.9176 15.5883 13.9261 15.5684C13.9309 15.5497 13.9573 15.5417 14.0008 15.5457C14.0858 15.5462 14.1303 15.648 14.1577 15.6474C14.186 15.6474 14.2163 15.54 14.3353 15.5832C14.4535 15.6269 14.4676 15.6355 14.5281 15.6616C14.5877 15.6872 14.4856 15.7264 14.5196 15.7776C14.5536 15.8287 14.7871 15.9981 14.7209 16.1754C14.6548 16.3516 14.4847 16.38 14.4686 16.4567C14.4535 16.5328 15.0073 16.5022 15.149 16.5277C15.2908 16.5533 15.3796 16.6584 15.3853 16.6766C15.391 16.6948 15.1377 16.6931 15.1377 16.6931C15.1377 16.6931 15.0073 16.626 14.6973 16.6192C14.3864 16.6135 14.2682 16.4885 14.152 16.4726C14.0358 16.4567 13.7882 16.4993 13.6502 16.4931C13.5113 16.4868 13.3714 16.4646 13.2816 16.4527C13.1918 16.4402 12.7458 16.6539 12.7477 16.7039C12.6541 16.6999 12.4358 16.6886 12.4443 16.6942C12.4537 16.6999 12.484 16.5976 12.6541 16.5794C12.8242 16.5613 12.9915 16.4794 12.9849 16.426C12.9801 16.372 13.0189 16.1873 13.0321 16.1089C13.0453 16.0305 13.1106 15.9918 13.0954 15.9498C13.0803 15.9088 12.8856 15.8662 12.6985 15.8673C12.5114 15.8685 12.3035 15.8787 12.2732 15.9242C12.243 15.9696 12.2666 16.1004 12.3054 16.085C12.3432 16.0702 12.2959 15.9844 12.3366 15.9668C12.4121 15.9437 12.4956 15.9317 12.5804 15.9316C12.6787 15.9293 12.8497 16.0151 12.8478 16.0424C12.8459 16.0702 12.9026 16.1617 12.8242 16.1958C12.7458 16.2311 12.5851 16.247 12.4311 16.239C12.2961 16.2302 12.1686 16.1972 12.0653 16.1441C12.0086 16.11 11.9746 16.0072 11.9746 15.9998V16.0003Z" fill="#D0D0D0" stroke="#808080" stroke-width="0.0097715"/>
<path fill-rule="evenodd" clip-rule="evenodd" d="M14.2555 15.6966C14.2555 15.7082 14.2509 15.7193 14.2427 15.7275C14.2345 15.7357 14.2233 15.7403 14.2117 15.7403C14.2001 15.7403 14.189 15.7357 14.1808 15.7275C14.1726 15.7193 14.168 15.7082 14.168 15.6966C14.168 15.685 14.1726 15.6739 14.1808 15.6656C14.189 15.6574 14.2001 15.6528 14.2117 15.6528C14.2233 15.6528 14.2345 15.6574 14.2427 15.6656C14.2509 15.6739 14.2555 15.685 14.2555 15.6966Z" fill="black"/>
<path d="M16.1845 15.1015L16.3858 15.1453L16.7183 14.9134L16.6921 15.0359L16.517 15.1496L16.4208 15.2109L16.4864 15.3071L16.5958 15.4822L16.5695 15.5959L16.3639 15.2415L16.1626 15.1978L16.1845 15.1015ZM15.8476 13.6358L16.2326 13.4564L16.1276 13.2288L16.1801 13.207L16.4295 13.7539L16.377 13.7758L16.272 13.5482L15.8869 13.7233L15.8432 13.6358H15.8476ZM15.2481 12.9051L15.6025 12.5813L15.6725 12.66L15.6638 13.207L15.9438 12.9532L16.0095 13.0232L15.6507 13.347L15.5806 13.2726L15.5938 12.7213L15.3137 12.9794L15.2481 12.9051ZM13.6948 12.2794L13.756 11.7981L13.8523 11.8156L13.8041 12.2356L14.1761 12.2794L14.1673 12.3363L13.6948 12.2794ZM12.9334 12.3494L12.8459 11.8769L12.9465 11.8594L13.0209 12.275L13.3885 12.2094L13.4016 12.2663L12.9334 12.3494ZM11.5201 13.0451L11.4851 13.0013L11.7388 12.8001L11.8482 12.9401C11.8246 12.99 11.7952 13.037 11.7607 13.0801C11.7287 13.122 11.692 13.1602 11.6513 13.1938C11.5976 13.2383 11.537 13.2737 11.4719 13.2988C11.4107 13.3207 11.3582 13.3251 11.31 13.3164C11.2619 13.3076 11.2225 13.2813 11.1919 13.2463C11.1632 13.2086 11.1478 13.1625 11.1481 13.1151C11.1465 13.0594 11.1617 13.0044 11.1919 12.9576C11.2301 12.9006 11.2774 12.8504 11.3319 12.8088C11.3721 12.7771 11.4162 12.7506 11.4632 12.7301C11.5026 12.7125 11.5376 12.6994 11.5726 12.6994C11.6076 12.6994 11.6338 12.7082 11.6645 12.7257L11.6032 12.7957C11.5815 12.7847 11.5575 12.7787 11.5332 12.7782C11.5113 12.7782 11.4894 12.7826 11.4588 12.7957C11.4258 12.8104 11.3949 12.8296 11.3669 12.8526C11.3319 12.8788 11.3013 12.9094 11.2794 12.9401L11.24 13.0144C11.2314 13.0419 11.2298 13.071 11.2351 13.0992C11.2404 13.1275 11.2527 13.1539 11.2707 13.1763C11.2945 13.2075 11.3286 13.2292 11.3669 13.2376C11.4019 13.2463 11.4413 13.242 11.4851 13.2245C11.5288 13.207 11.5726 13.1807 11.612 13.1545C11.6448 13.1275 11.6742 13.0967 11.6995 13.0626C11.7257 13.0276 11.7432 12.9969 11.752 12.9751L11.6951 12.9051L11.5201 13.0451ZM11.5069 16.506L11.1131 16.786L10.8156 16.366L10.8593 16.3354L11.1 16.6723L11.2225 16.5848L11.0169 16.2916L11.0606 16.261L11.2707 16.5498L11.4457 16.4229L11.5069 16.5104V16.506ZM10.9294 15.8803C10.9555 15.873 10.9792 15.8591 10.9984 15.84C11.0176 15.8208 11.0315 15.797 11.0387 15.7709C11.0562 15.7141 11.0562 15.6528 11.0387 15.5784C11.0233 15.5139 10.9881 15.4558 10.9381 15.4122C10.9166 15.3942 10.8908 15.3819 10.8633 15.3766C10.8357 15.3712 10.8073 15.3729 10.7806 15.3815C10.7462 15.3909 10.7156 15.4108 10.6931 15.4384C10.6677 15.4695 10.6524 15.5077 10.6493 15.5478C10.6449 15.5915 10.6493 15.6353 10.6624 15.6834C10.6784 15.7467 10.7117 15.8043 10.7587 15.8497C10.8025 15.8934 10.8593 15.8978 10.9294 15.8803ZM10.9556 15.981C10.8768 16.0028 10.8068 15.9853 10.7456 15.9372C10.6843 15.8803 10.6406 15.8059 10.6099 15.7009C10.5924 15.6309 10.5837 15.5697 10.5881 15.5084C10.5924 15.4472 10.6099 15.399 10.6406 15.3597C10.6671 15.3219 10.7057 15.2941 10.75 15.2809C10.7962 15.2673 10.8458 15.2704 10.89 15.2896C10.9401 15.3121 10.9826 15.3486 11.0125 15.3947C11.0482 15.4467 11.0748 15.5044 11.0913 15.5653C11.1088 15.6353 11.1175 15.6966 11.1088 15.7578C11.1054 15.8113 11.0872 15.8628 11.0562 15.9066C11.0319 15.9419 10.9965 15.9681 10.9556 15.981ZM10.995 15.0009L10.5137 14.9921L10.5224 14.6552C10.5224 14.5852 10.5268 14.5371 10.5356 14.5021C10.5487 14.4671 10.5618 14.4364 10.5837 14.4146C10.6056 14.3971 10.6318 14.3883 10.6581 14.3883C10.6931 14.3883 10.7193 14.4058 10.7456 14.4408C10.7718 14.4758 10.7806 14.5283 10.785 14.6027L10.8112 14.5458C10.8293 14.514 10.8513 14.4846 10.8768 14.4583L11.0081 14.3314V14.4627L10.9031 14.559L10.8375 14.629C10.82 14.6465 10.8112 14.664 10.8025 14.6815C10.7964 14.6955 10.792 14.7102 10.7893 14.7252V14.7821L10.785 14.8959L10.995 14.9046V15.0052V15.0009ZM10.7281 14.8959L10.7325 14.6771L10.7281 14.5721C10.7239 14.5492 10.7133 14.5279 10.6974 14.5108C10.6852 14.4995 10.6701 14.4919 10.6537 14.489C10.6318 14.489 10.6099 14.5021 10.6012 14.5327C10.5834 14.5695 10.5744 14.61 10.5749 14.6508L10.5706 14.8915L10.7281 14.8959ZM12.067 12.7782V12.2138L12.1633 12.1569L12.6752 12.415L12.579 12.4719L12.4258 12.3931L12.1545 12.555V12.7213L12.067 12.7782ZM12.1545 12.4938L12.3733 12.3625L12.2377 12.2881L12.1414 12.2313L12.1502 12.3319L12.1545 12.4938ZM14.478 12.345L14.9987 12.1262L15.0862 12.1919L15.0556 12.7607L14.9593 12.695L14.9768 12.5244L14.7143 12.3406L14.5655 12.4063L14.478 12.345ZM14.7712 12.3144L14.9812 12.4675L14.9943 12.31C14.9987 12.2663 15.0031 12.2269 15.0118 12.2006L14.9243 12.2488L14.7712 12.3144ZM16.062 14.1083L16.5302 13.9945L16.6089 14.3227C16.622 14.3883 16.6308 14.4408 16.6308 14.4758C16.6307 14.5083 16.6216 14.5401 16.6045 14.5677C16.587 14.594 16.5695 14.6115 16.5433 14.6158C16.5083 14.6246 16.4776 14.6158 16.447 14.5852C16.4084 14.5443 16.3799 14.4948 16.3639 14.4408C16.3639 14.4671 16.3639 14.4846 16.3551 14.5021C16.3446 14.5358 16.3299 14.5682 16.3114 14.5983L16.2151 14.7602L16.1845 14.6377L16.2589 14.5152L16.307 14.4277C16.3201 14.4058 16.3245 14.3839 16.3289 14.3708C16.3305 14.3563 16.3305 14.3416 16.3289 14.3271L16.3201 14.2702L16.2895 14.1564L16.0838 14.2046L16.062 14.1083ZM16.3464 14.1433L16.3945 14.3533C16.4076 14.3971 16.4164 14.4321 16.4295 14.4539C16.4426 14.4802 16.4558 14.4977 16.4733 14.5065C16.4864 14.5152 16.5039 14.5196 16.517 14.5152C16.5389 14.5108 16.5564 14.4933 16.5608 14.4671C16.5705 14.4237 16.569 14.3785 16.5564 14.3358L16.4995 14.1039L16.3464 14.1433Z" fill="#D0D0D0"/>
</g>
<defs>
<clipPath id="clip0_10790_10220">
<rect width="64" height="64" rx="32" fill="white"/>
</clipPath>
</defs>
</svg>
