<svg width="64" height="64" viewBox="0 0 64 64" fill="none" xmlns="http://www.w3.org/2000/svg">
<g clip-path="url(#clip0_10790_10263)">
<path fill-rule="evenodd" clip-rule="evenodd" d="M0 0H63.9875V64H0V0Z" fill="#3B5AA3"/>
<path fill-rule="evenodd" clip-rule="evenodd" d="M17.375 0.150024L16.7125 11.15L13.8125 4.13752L14.9375 11.6L10.45 5.57502L13.3875 12.45L7.5125 7.88752L12.0875 13.625L5.4375 10.675L11.2625 15.0875L4.0125 14.125L10.875 16.8375L0.125 17.825L10.875 18.5375L4.0625 21.3375L11.25 20.375L5.45 24.65L12.175 21.7L7.5875 27.475L13.425 23.05L10.5 29.8L15.175 23.95L13.925 31.2375L16.85 24.425L17.525 35.1875L18.55 24.45L21.0875 31.3125L20.125 23.925L24.775 29.775L21.7125 22.9375L27.55 27.6375L22.925 21.7625L29.85 24.65L23.7125 20.175L31.1875 21.425L24.025 18.675L35.15 17.9875L24.025 16.95L31.375 14.5L23.7875 15.45L30.0625 11.075L22.9875 13.9125L27.8625 8.00002L21.925 12.6375L24.8 5.53752L20.175 11.575L21.175 4.03752L18.425 11.15L17.4 0.150024H17.375Z" fill="white"/>
<path fill-rule="evenodd" clip-rule="evenodd" d="M0 62.275L64 0V11.5875L0 64V62.275Z" fill="#E2AE57"/>
<path fill-rule="evenodd" clip-rule="evenodd" d="M2.25078 64L64.0008 23.9L63.9883 11.1625L-0.0117188 64H2.23828H2.25078Z" fill="white"/>
</g>
<defs>
<clipPath id="clip0_10790_10263">
<rect width="64" height="64" rx="32" fill="white"/>
</clipPath>
</defs>
</svg>
