<svg width="64" height="64" viewBox="0 0 64 64" fill="none" xmlns="http://www.w3.org/2000/svg">
<g clip-path="url(#clip0_10790_10273)">
<path d="M0 0H64V64H0V0Z" fill="#CD2A3E"/>
<path d="M0 9.59998H64V54.4H0V9.59998Z" fill="#006233"/>
<path d="M51.9992 20.6125C51.9992 25.9169 49.8921 31.004 46.1414 34.7547C42.3906 38.5054 37.3036 40.6125 31.9992 40.6125C26.6949 40.6125 21.6078 38.5054 17.8571 34.7547C14.1064 31.004 11.9992 25.9169 11.9992 20.6125C11.5521 22.3183 11.3252 24.0742 11.3242 25.8375C11.3204 28.7768 11.9433 31.6831 13.1514 34.3627C14.3595 37.0422 16.125 39.4333 18.3303 41.3766C20.5355 43.3198 23.1298 44.7706 25.94 45.632C28.7502 46.4934 31.7118 46.7457 34.6272 46.3721C37.5427 45.9985 40.3449 45.0075 42.8471 43.4653C45.3493 41.9231 47.4939 39.8651 49.1379 37.4286C50.7819 34.992 51.8874 32.233 52.3808 29.3354C52.8742 26.4378 52.7441 23.4684 51.9992 20.625V20.6125Z" fill="#FFC400"/>
<path d="M31.9992 12.5L30.1992 18.0375H24.3867L29.0867 21.45L27.2992 26.975L31.9992 23.5625L36.6992 26.975L34.8992 21.45L39.6117 18.0375H33.7992L31.9992 12.5Z" fill="#FFC400"/>
</g>
<defs>
<clipPath id="clip0_10790_10273">
<rect width="64" height="64" rx="32" fill="white"/>
</clipPath>
</defs>
</svg>
