<svg width="64" height="64" viewBox="0 0 64 64" fill="none" xmlns="http://www.w3.org/2000/svg">
<g clip-path="url(#clip0_10790_10655)">
<path fill-rule="evenodd" clip-rule="evenodd" d="M0 0H21.3375V64H0V0Z" fill="#00319C"/>
<path fill-rule="evenodd" clip-rule="evenodd" d="M21.3379 0H42.6629V64H21.3379V0Z" fill="#FFDE00"/>
<path fill-rule="evenodd" clip-rule="evenodd" d="M42.6621 0H63.9996V64H42.6621V0Z" fill="#DE2110"/>
<path fill-rule="evenodd" clip-rule="evenodd" d="M36.2085 40.1902L38.671 43.7431C38.8102 43.9438 38.9455 44.1391 38.7412 44.2683C38.531 44.4013 38.5974 44.921 38.7365 45.1218C39.011 45.5178 39.3544 45.5893 39.5587 45.46L41.4265 44.278C41.6308 44.1487 41.696 43.8186 41.4215 43.4226C41.2668 43.2236 40.8074 42.9607 40.6031 43.09C40.393 43.2229 40.2577 43.0277 40.1224 42.8325L37.6522 39.2685" fill="#FF1900"/>
<path d="M36.2085 40.1902L38.671 43.7431C38.8102 43.9438 38.9455 44.1391 38.7412 44.2683C38.531 44.4013 38.5974 44.921 38.7365 45.1218C39.011 45.5178 39.3544 45.5893 39.5587 45.46L41.4265 44.278C41.6308 44.1487 41.696 43.8186 41.4215 43.4226C41.2668 43.2236 40.8074 42.9607 40.6031 43.09C40.393 43.2229 40.2577 43.0277 40.1224 42.8325L37.6522 39.2685" stroke="black" stroke-width="0.0912883"/>
<path fill-rule="evenodd" clip-rule="evenodd" d="M37.1615 37.6767C38.2612 38.9258 38.6438 40.3579 38.017 40.8618C37.3902 41.3656 35.979 40.7603 34.8794 39.5112C33.7797 38.2621 33.4025 36.8257 34.0293 36.3218C34.6561 35.818 36.0627 36.4181 37.1669 37.6724L37.1615 37.6767Z" fill="#A77B3B" stroke="black" stroke-width="0.212256"/>
<path fill-rule="evenodd" clip-rule="evenodd" d="M26.2051 38.7351L24.0312 42.4558C23.9083 42.6661 23.7889 42.8705 23.5749 42.7564C23.3549 42.639 22.902 42.9337 22.7792 43.144C22.5369 43.5587 22.6279 43.8831 22.8419 43.9972L24.798 45.0408C25.0119 45.1549 25.3487 45.0588 25.591 44.6441C25.7051 44.4214 25.7388 43.9108 25.5249 43.7967C25.3048 43.6792 25.4243 43.4748 25.5437 43.2704L27.7245 39.538" fill="#FF1900"/>
<path d="M26.2051 38.7351L24.0312 42.4558C23.9083 42.6661 23.7889 42.8705 23.5749 42.7564C23.3549 42.639 22.902 42.9337 22.7792 43.144C22.5369 43.5587 22.6279 43.8831 22.8419 43.9972L24.798 45.0408C25.0119 45.1549 25.3487 45.0588 25.591 44.6441C25.7051 44.4214 25.7388 43.9108 25.5249 43.7967C25.3048 43.6793 25.4243 43.4748 25.5437 43.2704L27.7245 39.538" stroke="black" stroke-width="0.0912813"/>
<path fill-rule="evenodd" clip-rule="evenodd" d="M33.229 36.1478H31.2477C31.1777 36.2147 30.6177 39.7603 30.0086 41.125C29.2665 42.7841 27.0332 44.2491 27.0332 44.2491C27.0332 44.2491 28.3634 44.6505 28.7694 44.9181C28.8674 44.8913 30.9957 44.4431 31.2477 41.8408C31.4928 44.4431 29.7565 45.6272 29.7565 45.6272C29.7565 45.6272 32.2419 46.3363 32.2419 48.0021C32.2419 46.343 34.7202 45.6272 34.7202 45.6272C34.7202 45.6272 33.474 44.4431 33.229 41.8341C33.719 44.4431 35.6093 44.8913 35.7143 44.9114C36.1133 44.6505 37.4435 44.2424 37.4435 44.2424C37.4435 44.2424 35.2172 42.7908 34.4751 41.125C33.8661 39.767 33.299 36.208 33.236 36.1478H33.229Z" fill="#A77B3B" stroke="black" stroke-width="0.21215"/>
<path fill-rule="evenodd" clip-rule="evenodd" d="M24.7891 24.288L28.5135 25.4721C29.1568 25.4313 29.7626 25.1687 30.2185 24.7331C30.6743 24.2975 30.9491 23.7186 30.9918 23.1039C31.0338 20.4682 29.9977 19.545 29.7527 19.545L30.2427 19.0767L29.5077 18.3542C29.5077 18.3542 29.7597 17.1233 32.238 17.1701C34.7163 17.217 34.7163 18.3542 34.7163 19.5383C34.7163 20.7291 33.4771 20.7291 33.4771 23.0972C33.5215 23.7125 33.7978 24.2915 34.2548 24.727C34.7118 25.1624 35.3185 25.4248 35.9625 25.4654L39.6799 24.2813V36.1489H24.7891V24.288Z" fill="#A77B3B" stroke="black" stroke-width="0.21215"/>
<path d="M30.4941 24.7611L30.7414 25.4739L30.9904 24.7611L31.2377 25.4739L31.734 24.7611L31.9762 25.512L32.2302 24.7611L32.5961 25.512L32.9738 24.7611L33.2211 25.4739L33.4701 24.7611" stroke="black" stroke-width="0.0170226"/>
<path d="M31.4912 22.1539L30.9941 24.7629M31.7362 22.1539V24.7629M32.2333 22.1539V24.7629M32.7304 22.1539L32.9754 24.7629M33.2274 22.1539L33.4725 24.7629" stroke="black" stroke-width="0.0205306"/>
<path fill-rule="evenodd" clip-rule="evenodd" d="M22.3119 17.1768C19.8336 18.3608 19.8336 20.7357 19.8336 21.9198C19.9176 22.9968 19.8336 45.6216 19.8336 45.6216C19.8336 45.6216 19.9946 44.2836 21.0727 43.2534L22.3049 42.0693L23.544 40.8852C24.4542 40.0958 24.7832 38.5104 24.7832 37.3263V20.7357C24.7832 20.7357 24.7832 19.5449 22.3049 17.1768H22.3119Z" fill="#A77B3B" stroke="black" stroke-width="0.21215"/>
<path d="M24.791 21.9242C24.763 21.9242 23.5519 20.7401 23.5519 20.7401L22.3127 21.9242L21.0736 20.7401L19.8344 21.9242" stroke="black" stroke-width="0.21215"/>
<path d="M24.791 23.1008C24.763 23.1008 23.5519 24.2849 23.5519 24.2849L22.3127 23.1008L21.0736 24.2849L19.8344 23.1008" stroke="black" stroke-width="0.21215"/>
<path d="M24.791 26.6492C24.763 26.6492 23.5519 25.4651 23.5519 25.4651L22.3127 26.6492L21.0736 25.4651L19.8344 26.6492" stroke="black" stroke-width="0.21215"/>
<path d="M23.5368 20.7396L23.5508 40.8931" stroke="black" stroke-width="0.292205"/>
<path d="M22.3122 21.9297L22.3262 42.0341" stroke="black" stroke-width="0.276829"/>
<path d="M21.0758 20.7396L21.0898 43.261" stroke="black" stroke-width="0.292997"/>
<path fill-rule="evenodd" clip-rule="evenodd" d="M42.1647 17.1768C44.643 18.3608 44.643 20.7357 44.643 21.9198C44.559 22.9968 44.643 45.6216 44.643 45.6216C44.643 45.6216 44.482 44.2836 43.4038 43.2534L42.1717 42.0693L40.9325 40.8852C40.0224 40.0958 39.6934 38.5104 39.6934 37.3263V20.7357C39.6934 20.7357 39.6934 19.5449 42.1717 17.1768H42.1647Z" fill="#A77B3B" stroke="black" stroke-width="0.21215"/>
<path d="M39.6855 21.9242C39.7136 21.9242 40.9247 20.7401 40.9247 20.7401L42.1639 21.9242L43.403 20.7401L44.6422 21.9242" stroke="black" stroke-width="0.21215"/>
<path d="M39.6855 23.1008C39.7136 23.1008 40.9247 24.2849 40.9247 24.2849L42.1639 23.1008L43.403 24.2849L44.6422 23.1008" stroke="black" stroke-width="0.21215"/>
<path d="M39.6855 26.6492C39.7136 26.6492 40.9247 25.4651 40.9247 25.4651L42.1639 26.6492L43.403 25.4651L44.6422 26.6492" stroke="black" stroke-width="0.21215"/>
<path d="M40.9378 20.7396L40.9238 40.8931" stroke="black" stroke-width="0.292205"/>
<path d="M42.1644 21.9297L42.1504 42.0341" stroke="black" stroke-width="0.276829"/>
<path d="M43.4007 20.7396L43.3867 43.261" stroke="black" stroke-width="0.292997"/>
<path fill-rule="evenodd" clip-rule="evenodd" d="M28.9781 38.4068C28.3211 39.9135 27.1649 40.8953 26.4088 40.5943C25.6527 40.2932 25.5681 38.8174 26.2251 37.3107C26.8821 35.8039 28.0448 34.8247 28.8009 35.1257C29.557 35.4267 29.6443 36.8964 28.9846 38.4093L28.9781 38.4068Z" fill="#A77B3B" stroke="black" stroke-width="0.212205"/>
<path fill-rule="evenodd" clip-rule="evenodd" d="M24.8008 25.475H39.6758V32.5875H24.8008V25.475Z" fill="#FF0000"/>
<path fill-rule="evenodd" clip-rule="evenodd" d="M24.8008 32.5875H39.6758V36.125C39.6758 38.5 35.9633 38.5 32.2383 40.875C28.5133 38.5 24.8008 38.5 24.8008 36.125V32.5875Z" fill="#564DFF"/>
<path d="M24.7891 25.472H39.6729V36.1489C39.6729 38.5171 35.9555 38.5171 32.231 40.8919C28.5135 38.5171 24.7891 38.5171 24.7891 36.1422V25.4787V25.472Z" stroke="#FFFF00" stroke-width="0.171089"/>
<path fill-rule="evenodd" clip-rule="evenodd" d="M29.509 25.9554C29.509 25.9554 27.0293 27.6988 27.0293 29.3668C27.0293 31.0348 29.6315 31.594 29.6315 31.594C29.6315 31.594 28.7641 31.594 28.7641 33.818C28.7641 34.9331 31.3664 34.3771 31.3664 34.9331C31.3664 35.4891 31.332 36.8336 31.3664 37.7163C31.3664 38.2723 29.6315 37.7163 29.6315 38.2723C29.6315 38.5487 30.9351 39.9403 32.2387 39.9403C33.5422 39.9403 34.8409 38.5487 34.8409 38.2723C34.8409 37.7163 33.1061 38.2723 33.1061 37.7163V34.9331C33.1061 34.3771 35.7083 34.9331 35.7083 33.818C35.7083 31.594 34.8409 31.594 34.8409 31.594C34.8409 31.594 37.448 31.038 37.448 29.3668C37.448 27.6957 34.9634 25.9554 34.9634 25.9554C34.9634 25.9554 36.3601 28.2548 36.3601 29.3668C36.3601 29.9228 35.7083 31.038 33.9735 31.038C33.9735 31.038 33.5324 30.4788 33.1061 31.038C33.1061 31.038 32.6062 30.4788 32.2387 31.038C32.1112 31.2265 31.8858 30.4788 31.3664 31.038C31.1507 31.1856 30.9743 30.4788 30.4989 31.038C29.6315 31.038 27.8967 30.4788 27.8967 29.3668C27.8967 28.2548 29.509 25.9554 29.509 25.9554Z" fill="#FFFF00" stroke="black" stroke-width="0.117706"/>
<path fill-rule="evenodd" clip-rule="evenodd" d="M29.5539 35.9154C29.3775 36.0284 29.7793 37.8409 29.8969 37.9195C30.0733 38.0294 31.1172 38.0294 31.2887 37.9195C31.4112 37.8409 31.2887 36.1384 31.1172 36.0284C30.9408 35.9154 29.6764 35.84 29.549 35.9154H29.5539Z" fill="#FFFF00" stroke="black" stroke-width="0.117706"/>
<path fill-rule="evenodd" clip-rule="evenodd" d="M34.9207 35.9154C35.0972 36.0284 34.6953 37.8409 34.5777 37.9195C34.4013 38.0294 33.3574 38.0294 33.1859 37.9195C33.0634 37.8409 33.1859 36.1384 33.3574 36.0284C33.5339 35.9154 34.7982 35.84 34.9256 35.9154H34.9207Z" fill="#FFFF00" stroke="black" stroke-width="0.117706"/>
<path fill-rule="evenodd" clip-rule="evenodd" d="M31.3416 35.2478C31.3416 35.4139 31.2466 35.5733 31.0776 35.6908C30.9086 35.8083 30.6794 35.8743 30.4403 35.8743C30.2013 35.8743 29.9721 35.8083 29.803 35.6908C29.634 35.5733 29.5391 35.4139 29.5391 35.2478C29.5391 35.0816 29.634 34.9222 29.803 34.8047C29.9721 34.6872 30.2013 34.6212 30.4403 34.6212C30.6794 34.6212 30.9086 34.6872 31.0776 34.8047C31.2466 34.9222 31.3416 35.0816 31.3416 35.2478Z" fill="#FFFF00" stroke="black" stroke-width="0.140897"/>
<path fill-rule="evenodd" clip-rule="evenodd" d="M34.9295 35.248C34.9295 35.4142 34.8345 35.5736 34.6655 35.6911C34.4965 35.8086 34.2672 35.8746 34.0282 35.8746C33.7892 35.8746 33.5599 35.8086 33.3909 35.6911C33.2219 35.5736 33.127 35.4142 33.127 35.248C33.127 35.0818 33.2219 34.9225 33.3909 34.805C33.5599 34.6875 33.7892 34.6215 34.0282 34.6215C34.2672 34.6215 34.4965 34.6875 34.6655 34.805C34.8345 34.9225 34.9295 35.0818 34.9295 35.248Z" fill="#FFFF00" stroke="black" stroke-width="0.140899"/>
<path fill-rule="evenodd" clip-rule="evenodd" d="M33.8008 38.875C33.8008 39.025 33.6008 39.15 33.3633 39.15C33.1258 39.15 32.9383 39.025 32.9383 38.875C32.9383 38.725 33.1258 38.6 33.3633 38.6C33.6008 38.6 33.8008 38.725 33.8008 38.875ZM31.5508 38.875C31.5508 39.025 31.3508 39.15 31.1133 39.15C30.8758 39.15 30.6758 39.025 30.6758 38.875C30.6758 38.725 30.8758 38.6 31.1133 38.6C31.3508 38.6 31.5383 38.725 31.5383 38.875H31.5508Z" fill="black"/>
<path fill-rule="evenodd" clip-rule="evenodd" d="M32.2356 29.9839L31.7029 29.3117L30.8286 29.4226L30.9516 28.5872L30.248 28.0847L30.9516 27.5756L30.8286 26.7402L31.7029 26.8577L32.2356 26.1854L32.7684 26.8577L33.6358 26.7402L33.5197 27.5756L34.2163 28.0847L33.5197 28.5938L33.6358 29.4226L32.7615 29.3117L32.2356 29.9839Z" fill="#FFFF00" stroke="black" stroke-width="0.089022"/>
<path fill-rule="evenodd" clip-rule="evenodd" d="M35.9492 32.5833L37.4404 33.2991L38.9316 32.5833L37.4404 31.8741L35.9492 32.5833Z" fill="#FFFF00" stroke="black" stroke-width="0.0912473"/>
<path fill-rule="evenodd" clip-rule="evenodd" d="M25.2871 32.5833L26.7783 33.2991L28.2695 32.5833L26.7783 31.8741L25.2871 32.5833Z" fill="#FFFF00" stroke="black" stroke-width="0.0912473"/>
<path fill-rule="evenodd" clip-rule="evenodd" d="M38.2685 36.8317C37.812 36.5422 37.043 36.6865 36.6119 36.923C36.1809 37.1596 35.7498 37.3961 35.6918 38.2534C35.1968 37.4296 35.5867 36.6679 36.2423 36.3081C36.59 36.1447 36.9882 36.1084 37.362 36.2059C37.7358 36.3034 38.0594 36.528 38.272 36.8375L38.2685 36.8317Z" fill="#FFFF00" stroke="black" stroke-width="0.091283"/>
<path fill-rule="evenodd" clip-rule="evenodd" d="M28.0242 35.4296C28.0242 35.5547 27.9722 35.6747 27.8797 35.7631C27.7871 35.8516 27.6616 35.9013 27.5307 35.9013C27.3998 35.9013 27.2742 35.8516 27.1817 35.7631C27.0891 35.6747 27.0371 35.5547 27.0371 35.4296C27.0371 35.3046 27.0891 35.1846 27.1817 35.0961C27.2742 35.0077 27.3998 34.958 27.5307 34.958C27.6616 34.958 27.7871 35.0077 27.8797 35.0961C27.9722 35.1846 28.0242 35.3046 28.0242 35.4296Z" fill="#FFFF00" stroke="black" stroke-width="0.0912473"/>
<path fill-rule="evenodd" clip-rule="evenodd" d="M27.5242 37.0922C27.5242 37.2173 27.4722 37.3373 27.3797 37.4257C27.2871 37.5142 27.1616 37.5639 27.0307 37.5639C26.8998 37.5639 26.7742 37.5142 26.6817 37.4257C26.5891 37.3373 26.5371 37.2173 26.5371 37.0922C26.5371 36.9671 26.5891 36.8472 26.6817 36.7587C26.7742 36.6703 26.8998 36.6206 27.0307 36.6206C27.1616 36.6206 27.2871 36.6703 27.3797 36.7587C27.4722 36.8472 27.5242 36.9671 27.5242 37.0922Z" fill="#FFFF00" stroke="black" stroke-width="0.0912473"/>
<path fill-rule="evenodd" clip-rule="evenodd" d="M27.2742 36.1422C27.2742 36.2672 27.2222 36.3872 27.1297 36.4756C27.0371 36.5641 26.9116 36.6138 26.7807 36.6138C26.6498 36.6138 26.5242 36.5641 26.4317 36.4756C26.3391 36.3872 26.2871 36.2672 26.2871 36.1422C26.2871 36.0171 26.3391 35.8971 26.4317 35.8087C26.5242 35.7202 26.6498 35.6705 26.7807 35.6705C26.9116 35.6705 27.0371 35.7202 27.1297 35.8087C27.2222 35.8971 27.2742 36.0171 27.2742 36.1422Z" fill="#FFFF00" stroke="black" stroke-width="0.0912473"/>
<path fill-rule="evenodd" clip-rule="evenodd" d="M28.5125 37.0922C28.5125 37.2173 28.4605 37.3373 28.368 37.4257C28.2754 37.5142 28.1499 37.5639 28.019 37.5639C27.8881 37.5639 27.7625 37.5142 27.67 37.4257C27.5774 37.3373 27.5254 37.2173 27.5254 37.0922C27.5254 36.9671 27.5774 36.8472 27.67 36.7587C27.7625 36.6703 27.8881 36.6206 28.019 36.6206C28.1499 36.6206 28.2754 36.6703 28.368 36.7587C28.4605 36.8472 28.5125 36.9671 28.5125 37.0922Z" fill="#FFFF00" stroke="black" stroke-width="0.0912473"/>
<path fill-rule="evenodd" clip-rule="evenodd" d="M28.7625 36.1422C28.7625 36.2672 28.7105 36.3872 28.618 36.4756C28.5254 36.5641 28.3999 36.6138 28.269 36.6138C28.1381 36.6138 28.0125 36.5641 27.92 36.4756C27.8274 36.3872 27.7754 36.2672 27.7754 36.1422C27.7754 36.0171 27.8274 35.8971 27.92 35.8087C28.0125 35.7202 28.1381 35.6705 28.269 35.6705C28.3999 35.6705 28.5254 35.7202 28.618 35.8087C28.7105 35.8971 28.7625 36.0171 28.7625 36.1422Z" fill="#FFFF00" stroke="black" stroke-width="0.0912473"/>
<path fill-rule="evenodd" clip-rule="evenodd" d="M28.0242 36.3797C28.0242 36.5048 27.9722 36.6248 27.8797 36.7132C27.7871 36.8016 27.6616 36.8513 27.5307 36.8513C27.3998 36.8513 27.2742 36.8016 27.1817 36.7132C27.0891 36.6248 27.0371 36.5048 27.0371 36.3797C27.0371 36.2546 27.0891 36.1347 27.1817 36.0462C27.2742 35.9578 27.3998 35.9081 27.5307 35.9081C27.6616 35.9081 27.7871 35.9578 27.8797 36.0462C27.9722 36.1347 28.0242 36.2546 28.0242 36.3797Z" fill="#FFFF00" stroke="black" stroke-width="0.0912473"/>
<path fill-rule="evenodd" clip-rule="evenodd" d="M29.8363 19.875C28.5863 19.875 28.4238 20.0625 27.8613 20.25C27.8613 19.7125 29.2488 19.075 30.4988 19.075C30.4988 19.475 30.1738 19.8624 29.8363 19.8624V19.875Z" fill="#DA4500"/>
<path fill-rule="evenodd" clip-rule="evenodd" d="M31.75 18.6C31.75 18.8625 31.525 19.075 31.25 19.075C30.975 19.075 30.75 18.8625 30.75 18.6C30.75 18.3375 30.975 18.125 31.25 18.125C31.525 18.125 31.75 18.3375 31.75 18.6Z" fill="#CAC9C7"/>
<path fill-rule="evenodd" clip-rule="evenodd" d="M26.5254 16.9426V17.6517H27.7645V21.204H28.5136V17.6517H29.7528V16.9426H28.5136V15.9927H27.7575V16.9426H26.5254Z" fill="#FFFF00" stroke="black" stroke-width="0.0912473"/>
<path fill-rule="evenodd" clip-rule="evenodd" d="M30.4984 19.075C29.4904 19.0194 28.481 19.1551 27.5234 19.475C27.5234 18.7375 28.3734 17.8875 29.8359 17.8875C30.1734 17.8875 30.4984 18.675 30.4984 19.075Z" fill="#DA4500"/>
<path fill-rule="evenodd" clip-rule="evenodd" d="M17.6027 31.6583C17.2456 30.8887 17.2539 30.6431 17.8891 31.5237L25.54 46.0285L25.3058 46.0945L17.6066 31.6613L17.6027 31.6583Z" fill="#008500" stroke="black" stroke-width="0.0335496"/>
<path fill-rule="evenodd" clip-rule="evenodd" d="M22.788 41.2C22.8755 40.125 20.913 38.9625 20.8255 39.0375C20.7505 39.1125 20.9505 39.7375 21.3255 40.0625C20.6005 39.7 19.8505 39.475 19.8255 39.6375C19.7755 39.85 20.9505 40.3625 21.0505 40.5625C21.0505 40.7 20.1755 40.6875 20.2005 40.825C20.213 40.975 22.663 42.2 22.788 41.2ZM20.8255 38.075C20.9005 37 18.938 35.825 18.8505 35.9125C18.7755 35.9875 18.9755 36.6125 19.3505 36.9375C18.638 36.5625 17.888 36.3375 17.863 36.5C17.813 36.7125 18.988 37.225 19.0755 37.425C19.088 37.575 18.213 37.55 18.238 37.7C18.2505 37.8375 20.7005 39.075 20.8255 38.075ZM19.3255 35.225C19.4005 34.15 17.4255 32.9875 17.3505 33.0625C17.2755 33.1375 17.4755 33.7625 17.8505 34.0875C17.1255 33.7125 16.3755 33.5 16.363 33.6625C16.3005 33.875 17.488 34.3875 17.5755 34.5875C17.588 34.725 16.713 34.7125 16.7255 34.85C16.7505 34.9875 19.188 36.225 19.313 35.225H19.3255ZM17.8255 32.15C17.913 31.075 15.9505 29.9 15.863 29.9875C15.788 30.0625 15.988 30.6875 16.363 31.0125C15.638 30.6375 14.888 30.4125 14.8755 30.575C14.813 30.7875 15.988 31.3 16.088 31.5C16.1005 31.65 15.2255 31.625 15.238 31.775C15.2505 31.9 17.7005 33.15 17.8255 32.15Z" fill="#008F00"/>
<path fill-rule="evenodd" clip-rule="evenodd" d="M18.338 32C19.3005 31.425 19.113 29.225 19.0005 29.2125C18.888 29.1875 18.4755 29.7125 18.4255 30.2C18.3005 29.425 18.0505 28.7125 17.9255 28.8C17.7005 28.8875 17.963 30.0875 17.8505 30.2875C17.738 30.375 17.2255 29.7 17.1255 29.7875C17.013 29.8875 17.4255 32.5 18.338 32ZM19.713 34.7125C20.8255 34.4625 21.413 32.3375 21.3255 32.2875C21.2255 32.2375 20.6505 32.6 20.438 33.0375C20.6005 32.275 20.6005 31.525 20.438 31.55C20.213 31.5625 20.0255 32.775 19.863 32.925C19.7255 32.9875 19.488 32.175 19.3505 32.2375C19.213 32.2875 18.688 34.8875 19.7255 34.7125H19.713ZM21.3755 37.475C22.3755 36.975 22.4005 34.775 22.288 34.75C22.1755 34.725 21.7255 35.2125 21.6255 35.6875C21.5755 34.9125 21.4005 34.1875 21.2505 34.25C21.0255 34.3125 21.163 35.5375 21.038 35.725C20.913 35.8 20.488 35.075 20.363 35.1625C20.238 35.25 20.413 37.9 21.363 37.475H21.3755ZM23.1505 41.1C24.2005 40.7 24.463 38.5 24.3505 38.475C24.2505 38.425 23.738 38.8625 23.6005 39.325C23.638 38.55 23.5255 37.8125 23.3755 37.8625C23.138 37.9125 23.163 39.1375 23.013 39.3125C22.888 39.3875 22.5255 38.625 22.4005 38.6875C22.2755 38.775 22.1505 41.4125 23.1505 41.0875V41.1Z" fill="#008F00"/>
<path fill-rule="evenodd" clip-rule="evenodd" d="M25.4679 44.8544C25.2017 45.31 24.3598 45.3512 23.5773 44.9338C22.7949 44.5164 22.3898 43.8099 22.656 43.3543C22.9222 42.8987 23.7702 42.8608 24.5466 43.275C25.3229 43.6891 25.7341 44.3988 25.4679 44.8544Z" fill="#FF1900" stroke="black" stroke-width="0.0912813"/>
<path fill-rule="evenodd" clip-rule="evenodd" d="M45.6662 29.5933L45.798 29.2533L46.1528 29.3651L46.2845 29.0251L46.6393 29.1368L46.5094 29.472L46.8744 29.5869L46.7408 29.9317L46.3758 29.8168L46.0475 30.6643L45.6927 30.5526L46.021 29.705L45.6662 29.5933ZM44.9042 32.5877L45.259 32.6994L41.4465 42.5398L41.0916 42.4281L44.9042 32.5877Z" fill="#FFFF00" stroke="black" stroke-width="0.0313435"/>
<path fill-rule="evenodd" clip-rule="evenodd" d="M40.973 42.2031L41.6928 42.4297L40.6409 45.1448L39.9211 44.9181L40.973 42.2031ZM45.2051 30.7809L46.2847 31.1209C46.9994 31.346 45.3787 32.9309 45.3787 32.9309L44.664 32.7059C44.664 32.7059 44.4853 30.5542 45.2051 30.7809ZM46.1973 30.8032C46.1417 30.9469 45.94 31.0123 45.7423 30.9501C45.5447 30.8878 45.427 30.7218 45.4808 30.583C45.5346 30.4441 45.7381 30.3739 45.9358 30.4361C46.1335 30.4984 46.2511 30.6644 46.1955 30.808L46.1973 30.8032Z" fill="#FFFF00" stroke="black" stroke-width="0.0313435"/>
<path fill-rule="evenodd" clip-rule="evenodd" d="M41.5601 43.6234C41.8616 44.0585 41.5136 44.7922 40.7665 45.265C40.0194 45.7379 39.1766 45.7577 38.8751 45.3226C38.5736 44.8876 38.9274 44.1502 39.6687 43.681C40.4099 43.2119 41.2585 43.1884 41.5601 43.6234Z" fill="#FF1900" stroke="black" stroke-width="0.0912883"/>
</g>
<defs>
<clipPath id="clip0_10790_10655">
<rect width="64" height="64" rx="32" fill="white"/>
</clipPath>
</defs>
</svg>
