<svg width="64" height="64" viewBox="0 0 64 64" fill="none" xmlns="http://www.w3.org/2000/svg">
<g clip-path="url(#clip0_10790_10722)">
<path d="M0 0H64V64H0V0Z" fill="#DA2032"/>
<path d="M21.3379 0H42.6629V64H21.3379V0Z" fill="#0066B3"/>
<path d="M10.6621 28.95C13.0784 28.95 15.0371 26.9912 15.0371 24.575C15.0371 22.1587 13.0784 20.2 10.6621 20.2C8.24586 20.2 6.28711 22.1587 6.28711 24.575C6.28711 26.9912 8.24586 28.95 10.6621 28.95Z" fill="#FFD900"/>
<path d="M10.6617 27.3625C13.2989 27.3625 15.4367 25.2247 15.4367 22.5875C15.4367 19.9503 13.2989 17.8125 10.6617 17.8125C8.02456 17.8125 5.88672 19.9503 5.88672 22.5875C5.88672 25.2247 8.02456 27.3625 10.6617 27.3625Z" fill="#DA2032"/>
<path d="M10.6621 26.5625C12.4225 26.5625 13.8496 25.1354 13.8496 23.375C13.8496 21.6146 12.4225 20.1875 10.6621 20.1875C8.9017 20.1875 7.47461 21.6146 7.47461 23.375C7.47461 25.1354 8.9017 26.5625 10.6621 26.5625Z" fill="#FFD900"/>
<path d="M10.9996 13.0375C10.8362 13.1074 10.6956 13.2218 10.594 13.3677C10.4923 13.5135 10.4337 13.6849 10.4246 13.8625C10.3996 14.1375 10.5246 14.4375 10.5371 14.7C10.5371 15.1625 10.0621 15.3125 10.0621 15.9625C10.0621 16.1875 10.2746 16.4375 10.2746 17.0125C10.2371 17.325 10.0621 17.3875 9.87461 17.4125C9.76852 17.4125 9.66678 17.3703 9.59177 17.2953C9.51675 17.2203 9.47461 17.1186 9.47461 17.0125C9.47541 16.9098 9.51569 16.8113 9.58711 16.7375C9.59871 16.7241 9.61124 16.7116 9.62461 16.7C9.71211 16.6125 9.83711 16.575 9.83711 16.325C9.83711 16.2 9.76211 16.1 9.68711 15.875C9.6525 15.7428 9.64801 15.6046 9.67397 15.4704C9.69993 15.3363 9.75568 15.2097 9.83711 15.1C9.56211 15.2 9.38711 15.475 9.29961 15.7125C9.21211 16 9.28711 16.175 9.16211 16.425C9.08711 16.575 8.98711 16.6375 8.91211 16.775C8.79961 16.925 8.68711 17.25 8.68711 17.4125C8.74201 17.9012 8.97503 18.3525 9.34166 18.6803C9.7083 19.008 10.1828 19.1892 10.6746 19.1892C11.1664 19.1892 11.6409 19.008 12.0076 18.6803C12.3742 18.3525 12.6072 17.9012 12.6621 17.4125C12.6621 17.25 12.5371 16.9125 12.4371 16.775C12.3496 16.65 12.2496 16.575 12.1871 16.425C12.0621 16.175 12.1371 16 12.0371 15.7125C11.9496 15.4625 11.7871 15.2125 11.4996 15.0875C11.585 15.1976 11.6441 15.3259 11.6723 15.4624C11.7004 15.5989 11.697 15.74 11.6621 15.875C11.5746 16.1 11.4996 16.2125 11.4996 16.3375C11.4996 16.575 11.6246 16.6125 11.7121 16.7125C11.7251 16.72 11.7376 16.7284 11.7496 16.7375C11.8256 16.8093 11.8705 16.908 11.8746 17.0125C11.8746 17.0661 11.8639 17.1191 11.843 17.1685C11.8221 17.2179 11.7915 17.2625 11.7531 17.2998C11.7146 17.3371 11.669 17.3663 11.619 17.3857C11.569 17.405 11.5157 17.4142 11.4621 17.4125C11.2496 17.3875 11.0871 17.2875 11.0621 17.0125C11.0621 16.25 11.3996 16.2 11.3996 15.6375C11.3996 14.825 10.6746 14.4375 10.6746 13.85C10.6746 13.65 10.7121 13.3125 10.9996 13.0375ZM1.91211 29.7375H5.89961V48.8375H1.91211V29.7375ZM15.4371 29.7375H19.4121V48.8375H15.4371V29.7375ZM6.68711 29.7375H14.6496L10.6621 32.125L6.68711 29.7375ZM6.68711 32.925H14.6496V34.5H6.68711V32.925ZM6.68711 44.05H14.6496V45.65H6.68711V44.05ZM6.68711 46.45H14.6496L10.6621 48.825L6.68711 46.45Z" fill="#FFD900"/>
<path d="M10.6625 43.2625C12.8578 43.2625 14.6375 41.4828 14.6375 39.2875C14.6375 37.0922 12.8578 35.3125 10.6625 35.3125C8.46717 35.3125 6.6875 37.0922 6.6875 39.2875C6.6875 41.4828 8.46717 43.2625 10.6625 43.2625Z" fill="#FFD900"/>
<path d="M10.6587 37.9726C11.098 37.9726 11.4542 37.6165 11.4542 37.1772C11.4542 36.7378 11.098 36.3817 10.6587 36.3817C10.2194 36.3817 9.86328 36.7378 9.86328 37.1772C9.86328 37.6165 10.2194 37.9726 10.6587 37.9726Z" fill="#DA2032"/>
<path d="M10.6587 42.1884C11.098 42.1884 11.4542 41.8323 11.4542 41.393C11.4542 40.9537 11.098 40.5975 10.6587 40.5975C10.2194 40.5975 9.86328 40.9537 9.86328 41.393C9.86328 41.8323 10.2194 42.1884 10.6587 42.1884Z" fill="#DA2032"/>
<path d="M10.6591 34.8306C11.2814 34.8306 11.8783 35.0778 12.3184 35.5179C12.7584 35.9579 13.0057 36.5548 13.0057 37.1771C13.0057 37.7995 12.7584 38.3964 12.3184 38.8364C11.8783 39.2765 11.2814 39.5237 10.6591 39.5237C10.1633 39.5237 9.68784 39.7207 9.33728 40.0712C8.98671 40.4218 8.78977 40.8973 8.78977 41.393C8.78977 41.8888 8.98671 42.3643 9.33728 42.7148C9.68784 43.0654 10.1633 43.2623 10.6591 43.2623V43.7396C10.0367 43.7396 9.43987 43.4924 8.9998 43.0523C8.55973 42.6122 8.3125 42.0154 8.3125 41.393C8.3125 40.7707 8.55973 40.1738 8.9998 39.7337C9.43987 39.2937 10.0367 39.0465 10.6591 39.0465C11.1548 39.0465 11.6303 38.8495 11.9809 38.4989C12.3314 38.1484 12.5284 37.6729 12.5284 37.1771C12.5284 36.6814 12.3314 36.2059 11.9809 35.8553C11.6303 35.5048 11.1548 35.3078 10.6591 35.3078V34.8306Z" fill="#DA2032"/>
</g>
<defs>
<clipPath id="clip0_10790_10722">
<rect width="64" height="64" rx="32" fill="white"/>
</clipPath>
</defs>
</svg>
