<svg width="64" height="64" viewBox="0 0 64 64" fill="none" xmlns="http://www.w3.org/2000/svg">
<g clip-path="url(#clip0_10790_10995)">
<mask id="mask0_10790_10995" style="mask-type:luminance" maskUnits="userSpaceOnUse" x="0" y="0" width="64" height="64">
<path d="M0 0H63.9902V63.9902H0V0Z" fill="white"/>
</mask>
<g mask="url(#mask0_10790_10995)">
<path fill-rule="evenodd" clip-rule="evenodd" d="M0 0H95.9853V19.9969H0V0Z" fill="#009A00"/>
<path fill-rule="evenodd" clip-rule="evenodd" d="M0 19.9969H95.9853V21.9966H0V19.9969Z" fill="white"/>
<path fill-rule="evenodd" clip-rule="evenodd" d="M0 21.9966H95.9853V41.9935H0V21.9966Z" fill="#000001"/>
<path fill-rule="evenodd" clip-rule="evenodd" d="M0 41.9935H95.9853V43.9932H0V41.9935Z" fill="white"/>
<path fill-rule="evenodd" clip-rule="evenodd" d="M0 43.9933H95.9853V63.9902H0V43.9933Z" fill="#FFCA00"/>
<path fill-rule="evenodd" clip-rule="evenodd" d="M0 0V63.9902L42.0065 31.9951L0 0Z" fill="#FF0000"/>
<path fill-rule="evenodd" clip-rule="evenodd" d="M24.8095 41.6194L18.4105 36.9363L12.0244 41.6194L14.5014 34.0851L8.05078 29.4407L15.998 29.4794L18.4105 21.9321L20.8359 29.4794L28.7702 29.4407L22.3196 34.0851L24.8095 41.6194Z" fill="#FFCA00"/>
<path fill-rule="evenodd" clip-rule="evenodd" d="M12.8496 36.3686H17.4683C17.8424 36.7814 18.6681 36.9491 19.455 36.3686C20.9 35.5687 23.6996 36.3686 23.6996 36.3686L24.2543 35.7751L22.9126 31.3758L22.4223 30.8598C22.4223 30.8598 21.3902 30.2405 19.4292 30.4469C17.4683 30.6533 16.7845 30.3695 16.7845 30.3695C16.7845 30.3695 15.0557 30.5759 14.5784 30.834L14.0236 31.3887L12.8625 36.3815L12.8496 36.3686Z" fill="white" stroke="black" stroke-width="0.141914" stroke-linecap="round" stroke-linejoin="round"/>
<path d="M13.7793 35.2204C13.7793 35.2204 18.1915 34.6786 19.4558 36.3686C18.7463 36.8589 18.1141 36.8847 17.4304 36.3944C17.5465 36.2138 19.0172 34.6786 22.7715 35.1946" stroke="black" stroke-width="0.141914" stroke-linecap="round" stroke-linejoin="round"/>
<path d="M18.4996 30.821L18.4609 35.6719M22.4216 30.8985L23.2473 34.743" stroke="black" stroke-width="0.141914"/>
<path d="M14.6176 30.834L14.166 32.8208" stroke="black" stroke-width="0.141914" stroke-linecap="round" stroke-linejoin="round"/>
<path fill-rule="evenodd" clip-rule="evenodd" d="M9.85742 36.8976L10.9411 38.1619C11.0701 38.2393 11.1863 38.2393 11.3024 38.1619L12.9021 36.2267L13.5859 35.401C13.6319 35.3482 13.6671 35.2869 13.6892 35.2204C13.7114 35.154 13.7201 35.0838 13.7149 35.014L15.005 33.8529C15.1082 33.8787 15.1727 33.8916 15.263 33.8916C15.1469 33.8529 15.0566 33.8012 15.1598 33.6593L15.4437 33.44L15.6759 33.7238C15.6759 33.7238 15.3534 34.1496 15.3147 34.1496H14.9663L14.2826 34.7559L14.5793 35.014L15.0308 36.2396L15.5727 35.8525L15.2243 34.6011L15.9984 33.7625L15.7017 33.311L15.8952 33.053C15.8952 33.053 18.5658 34.7301 19.5979 34.2786C19.6237 34.2915 19.6624 33.0788 19.6624 33.0788C19.6624 33.0788 16.8886 32.795 16.8241 32.2531C16.7596 31.6983 17.4434 31.6338 17.4434 31.6338L17.1466 31.221L17.2111 30.9888L17.7014 31.608L18.7851 30.6662L25.2228 38.0071C25.5711 37.8651 25.6486 37.7748 25.6744 37.4265L19.3527 30.1889L19.843 29.6729C19.9333 29.5696 19.972 29.518 19.972 29.3503L20.7074 28.7053C20.9063 28.7755 21.0749 28.9122 21.1847 29.0923L23.2231 27.3764C23.2747 27.428 23.4424 27.4796 23.5456 27.4151L26.9 24.1898L23.2489 26.7701L23.1199 26.6798C23.1199 26.5766 23.2489 26.5507 23.1199 26.3572C22.978 26.1895 22.7587 26.5249 22.7329 26.5249C22.7071 26.5249 22.2039 26.3443 22.0878 26.125L22.062 26.7185L21.1202 27.5828L20.4106 27.557L19.3785 28.5504L19.2495 28.9375L19.4172 29.26C19.4172 29.26 18.8754 29.7374 18.8754 29.7116C18.8754 29.6729 18.7593 29.5696 18.7464 29.5438L19.2237 29.131L19.2882 28.8343L19.1334 28.5891C19.0818 28.6279 18.4884 29.26 18.4497 29.1955L16.7338 27.2216L16.8241 26.8604L15.7275 25.6735C15.3405 25.5445 14.6954 25.5186 14.5664 26.383C14.4761 26.5895 13.6375 26.4088 13.6375 26.4088L13.1988 26.512L10.6573 30.1115L12.0764 31.8145L14.9663 28.1505L15.0437 27.1184L15.6501 27.7893C15.8565 27.8151 16.05 27.8151 16.2306 27.7248L17.9465 29.6341L17.6627 29.918L17.9207 30.2018L18.2045 29.9954L18.3335 30.1631C18.1787 30.2405 18.0755 30.3437 17.9465 30.4211C17.7014 30.2792 17.4821 30.0857 17.5079 29.789L16.5403 30.5888L16.5016 30.7566L13.6375 33.1304L13.3795 33.1691L13.315 33.9045L15.1856 32.3563V32.137L15.3792 32.2918L16.8241 31.1307C16.8241 31.1307 16.9273 31.2597 16.8886 31.2597C16.8499 31.2597 15.5985 32.4208 15.5985 32.4208L15.5727 32.5498L15.3534 32.7433L15.2243 32.653L13.4827 34.2012H13.2246L12.2571 35.1559C12.0119 35.1817 11.7926 35.2075 11.5862 35.3494L9.85742 36.8976Z" fill="black" stroke="black" stroke-width="0.141914" stroke-linecap="round" stroke-linejoin="round"/>
</g>
</g>
<defs>
<clipPath id="clip0_10790_10995">
<rect width="64" height="64" rx="32" fill="white"/>
</clipPath>
</defs>
</svg>
