<svg width="64" height="64" viewBox="0 0 64 64" fill="none" xmlns="http://www.w3.org/2000/svg">
<g clip-path="url(#clip0_10790_11021)">
<mask id="mask0_10790_11021" style="mask-type:luminance" maskUnits="userSpaceOnUse" x="0" y="0" width="64" height="64">
<path d="M0 0H64V64H0V0Z" fill="white"/>
</mask>
<g mask="url(#mask0_10790_11021)">
<path fill-rule="evenodd" clip-rule="evenodd" d="M0 0H64V64H0V0Z" fill="white"/>
<path fill-rule="evenodd" clip-rule="evenodd" d="M-13.5254 0.025L-13.4254 46.1L58.3246 0L-13.5254 0.025Z" fill="#3662A2"/>
<path fill-rule="evenodd" clip-rule="evenodd" d="M78.8371 63.9375L78.6621 16.0375L6.28711 63.975L78.8371 63.9375Z" fill="#38A100"/>
<path fill-rule="evenodd" clip-rule="evenodd" d="M-13.4883 49.575L-13.4258 64L2.23672 63.975L78.6992 12.7125L78.6242 0.175024L63.1492 0.0250244L-13.4883 49.575Z" fill="#C70000"/>
<path fill-rule="evenodd" clip-rule="evenodd" d="M19.25 22.925L16.3625 21.175L14.6875 24.125L13.0625 21.15L10.125 22.875L10.2 19.4875L6.825 19.5125L8.575 16.6125L5.625 14.9375L8.6 13.3125L6.875 10.375L10.25 10.45L10.2375 7.06255L13.1375 8.81255L14.8125 5.86255L16.4375 8.82505L19.4 7.12505L19.325 10.5L22.7 10.4875L20.95 13.3875L23.9 15.05L20.925 16.6875L22.6375 19.6125L19.2625 19.55L19.25 22.925Z" fill="#FFE700"/>
<path fill-rule="evenodd" clip-rule="evenodd" d="M20.9746 15C20.9746 18.4 18.1871 21.1625 14.7496 21.1625C11.3121 21.1625 8.53711 18.4 8.53711 14.9875C8.53711 11.575 11.3246 8.82495 14.7621 8.82495C18.1996 8.82495 20.9746 11.575 20.9746 14.9875V15Z" fill="#3662A2"/>
<path fill-rule="evenodd" clip-rule="evenodd" d="M19.6246 15.0001C19.6581 15.6602 19.5569 16.3202 19.3274 16.94C19.0978 17.5599 18.7446 18.1265 18.2892 18.6056C17.8338 19.0847 17.2857 19.4661 16.6783 19.7268C16.0709 19.9874 15.4168 20.1218 14.7559 20.1218C14.0949 20.1218 13.4408 19.9874 12.8334 19.7268C12.226 19.4661 11.6779 19.0847 11.2225 18.6056C10.7671 18.1265 10.4139 17.5599 10.1844 16.94C9.95478 16.3202 9.85365 15.6602 9.88711 15.0001C9.9504 13.7514 10.491 12.5749 11.3971 11.7135C12.3032 10.8521 13.5057 10.3718 14.7559 10.3718C16.0061 10.3718 17.2085 10.8521 18.1146 11.7135C19.0208 12.5749 19.5613 13.7514 19.6246 15.0001Z" fill="#FFE700"/>
</g>
</g>
<defs>
<clipPath id="clip0_10790_11021">
<rect width="64" height="64" rx="32" fill="white"/>
</clipPath>
</defs>
</svg>
