<svg width="64" height="64" viewBox="0 0 64 64" fill="none" xmlns="http://www.w3.org/2000/svg">
<g clip-path="url(#clip0_10790_11041)">
<rect width="64" height="64" rx="32" fill="white"/>
<mask id="mask0_10790_11041" style="mask-type:luminance" maskUnits="userSpaceOnUse" x="0" y="0" width="64" height="64">
<path d="M0 0H64V64H0V0Z" fill="white"/>
</mask>
<g mask="url(#mask0_10790_11041)">
<mask id="mask1_10790_11041" style="mask-type:luminance" maskUnits="userSpaceOnUse" x="0" y="0" width="64" height="64">
<path d="M0 0H64V64H0V0Z" fill="white"/>
</mask>
<g mask="url(#mask1_10790_11041)">
<path fill-rule="evenodd" clip-rule="evenodd" d="M0.8125 63.1875H48.1625L17.175 31.7625L49.3375 31.8L0.825 0.8125V63.1875H0.8125Z" fill="#CE0000" stroke="#000063" stroke-width="1.625"/>
<path fill-rule="evenodd" clip-rule="evenodd" d="M22.5875 46.475L19.2125 47.6L21.8625 50.075L18.3 49.85L19.7625 53.125L16.575 51.5875L16.6375 55.1625L14.2875 52.55L12.95 55.875L11.8 52.5875L9.2625 55.1625L9.4875 51.7L6.125 53.125L7.7 50L4.0375 50.075L6.725 47.7875L3.3125 46.475L6.6875 45.35L4.025 42.875L7.575 43.1L6.125 39.825L9.325 41.3625L9.2625 37.7875L11.6125 40.4L12.95 37.075L14.0875 40.3625L16.6375 37.7875L16.4 41.25L19.775 39.825L18.1875 42.95L21.8625 42.875L19.175 45.1625L22.5875 46.475ZM18.5375 23.3875L17.125 24.4375L17.825 25.0125C19.4677 23.865 20.7889 22.3158 21.6625 20.5125C21.8875 23.175 19.45 29.1375 13.075 29.2C11.9098 29.2149 10.7532 28.9988 9.67193 28.5643C8.59067 28.1298 7.60617 27.4855 6.77524 26.6685C5.94431 25.8515 5.28341 24.8781 4.83068 23.8043C4.37795 22.7306 4.14236 21.5778 4.1375 20.4125C5.3875 22.6875 6.1625 23.7875 8.1375 24.975L8.725 24.425L7.4 23.3125L9.1125 22.8625L8.1875 21.3125L9.9875 21.4375L9.7625 19.6375L11.3375 20.5625L11.8375 18.875L12.9625 20.225L14.025 18.9375L14.6 20.6875L16.075 19.6625L15.8875 21.45L17.6625 21.2375L16.825 22.8875L18.5375 23.3875Z" fill="white"/>
</g>
</g>
</g>
<defs>
<clipPath id="clip0_10790_11041">
<rect width="64" height="64" rx="32" fill="white"/>
</clipPath>
</defs>
</svg>
