<svg width="64" height="64" viewBox="0 0 64 64" fill="none" xmlns="http://www.w3.org/2000/svg">
<g clip-path="url(#clip0_11297_21456)">
<path d="M31.1315 -0.00807676C31.1961 -0.00835767 31.2606 -0.00864114 31.3251 -0.00892698C31.5302 -0.00970295 31.7352 -0.00990435 31.9403 -0.00995176C31.9752 -0.00996944 32.0102 -0.00998711 32.0462 -0.0100053C33.1021 -0.0102854 34.1498 0.0023529 35.2003 0.120048C35.2664 0.127208 35.3326 0.134356 35.3987 0.141494C37.6771 0.390509 39.92 0.863161 42.0943 1.59118C42.1879 1.6225 42.2815 1.65364 42.3752 1.68454C44.3534 2.33768 46.2868 3.22083 48.0803 4.28005C48.1149 4.30034 48.1495 4.32063 48.1851 4.34153C49.7618 5.26816 51.2539 6.3312 52.6464 7.51629C52.7877 7.63635 52.9309 7.75372 53.0753 7.87005C53.2237 7.99078 53.3609 8.11579 53.4937 8.25333C53.5639 8.32367 53.6373 8.388 53.7128 8.45255C53.8412 8.5631 53.9612 8.6795 54.0803 8.80005C54.1978 8.91895 54.3159 9.0338 54.4428 9.14255C54.7047 9.36746 54.9408 9.61428 55.1651 9.87614C55.2533 9.97462 55.3462 10.0671 55.4403 10.16C55.5831 10.3014 55.7189 10.4454 55.8495 10.598C55.9298 10.6911 56.0125 10.7817 56.0953 10.8725C56.2481 11.0421 56.394 11.216 56.5375 11.3935C56.6144 11.4886 56.6923 11.5827 56.7706 11.6766C57.0864 12.0557 57.3892 12.4417 57.6803 12.84C57.7111 12.8822 57.7111 12.8822 57.7426 12.9251C57.8737 13.1047 58.0038 13.2851 58.1331 13.466C58.178 13.5289 58.223 13.5917 58.2681 13.6544C58.8723 14.4962 59.4084 15.3796 59.9203 16.28C59.9399 16.3145 59.9595 16.349 59.9797 16.3845C61.3657 18.8375 62.3907 21.4705 63.0803 24.2C63.087 24.2264 63.0937 24.2528 63.1006 24.28C63.6641 26.5059 64.0022 28.833 64.0084 31.1313C64.0087 31.1958 64.009 31.2603 64.0093 31.3249C64.01 31.5299 64.0102 31.735 64.0103 31.94C64.0103 31.975 64.0103 32.0099 64.0103 32.0459C64.0106 33.1019 63.998 34.1496 63.8803 35.2C63.8731 35.2662 63.866 35.3323 63.8588 35.3985C63.6098 37.6769 63.1372 39.9197 62.4092 42.0941C62.3778 42.1876 62.3467 42.2812 62.3158 42.375C61.6627 44.3532 60.7795 46.2865 59.7203 48.08C59.7 48.1146 59.6797 48.1492 59.6588 48.1849C58.7322 49.7615 57.6691 51.2536 56.4841 52.6461C56.364 52.7874 56.2466 52.9306 56.1303 53.075C56.0096 53.2235 55.8845 53.3607 55.747 53.4935C55.6767 53.5637 55.6123 53.637 55.5478 53.7125C55.4372 53.841 55.3208 53.961 55.2003 54.08C55.0814 54.1975 54.9665 54.3156 54.8578 54.4425C54.6329 54.7044 54.3861 54.9405 54.1242 55.1649C54.0257 55.2531 53.9332 55.346 53.8403 55.44C53.699 55.5829 53.5549 55.7187 53.4023 55.8493C53.3093 55.9296 53.2186 56.0122 53.1278 56.095C52.9583 56.2479 52.7843 56.3937 52.6069 56.5372C52.5118 56.6141 52.4176 56.692 52.3237 56.7704C51.9446 57.0861 51.5586 57.3889 51.1603 57.68C51.1322 57.7006 51.1041 57.7212 51.0752 57.7423C50.8956 57.8735 50.7153 58.0036 50.5343 58.1329C50.4715 58.1778 50.4087 58.2228 50.346 58.2679C49.5041 58.8721 48.6208 59.4081 47.7203 59.92C47.6858 59.9396 47.6514 59.9592 47.6159 59.9794C45.1629 61.3655 42.5299 62.3905 39.8003 63.08C39.7739 63.0867 39.7475 63.0934 39.7203 63.1003C37.4944 63.6638 35.1674 64.0019 32.869 64.0082C32.8045 64.0085 32.74 64.0087 32.6755 64.009C32.4704 64.0098 32.2654 64.01 32.0603 64.01C32.0253 64.0101 31.9904 64.0101 31.9544 64.0101C30.8985 64.0104 29.8508 63.9977 28.8003 63.88C28.7341 63.8729 28.668 63.8657 28.6019 63.8586C26.3234 63.6096 24.0806 63.1369 21.9063 62.4089C21.8127 62.3776 21.7191 62.3465 21.6254 62.3156C19.6472 61.6624 17.7138 60.7793 15.9203 59.72C15.8857 59.6998 15.8511 59.6795 15.8155 59.6586C14.2388 58.7319 12.7467 57.6689 11.3542 56.4838C11.2129 56.3637 11.0697 56.2464 10.9253 56.13C10.7769 56.0093 10.6397 55.8843 10.5069 55.7468C10.4367 55.6764 10.3633 55.6121 10.2878 55.5475C10.1594 55.437 10.0394 55.3206 9.92029 55.2C9.80283 55.0812 9.68471 54.9663 9.55779 54.8575C9.29593 54.6326 9.05983 54.3858 8.83545 54.124C8.74724 54.0255 8.65434 53.933 8.56029 53.84C8.41746 53.6987 8.28167 53.5547 8.15107 53.4021C8.07078 53.309 7.98811 53.2184 7.90529 53.1275C7.75245 52.958 7.60659 52.7841 7.4631 52.6066C7.38622 52.5115 7.30831 52.4174 7.22998 52.3235C6.91421 51.9444 6.61141 51.5584 6.32029 51.16C6.28946 51.1179 6.28946 51.1179 6.25801 51.075C6.12684 50.8954 5.99676 50.715 5.86748 50.5341C5.82257 50.4712 5.77757 50.4084 5.73248 50.3457C5.12826 49.5039 4.59219 48.6205 4.08029 47.72C4.06069 47.6856 4.04109 47.6511 4.0209 47.6156C2.63486 45.1626 1.60984 42.5296 0.920292 39.8C0.913597 39.7737 0.906902 39.7473 0.900004 39.7201C0.336523 37.4942 -0.00160408 35.1671 -0.00783247 32.8688C-0.00811338 32.8043 -0.00839624 32.7398 -0.00868208 32.6752C-0.00945805 32.4702 -0.00966006 32.2651 -0.00970747 32.06C-0.00972514 32.0251 -0.00974297 31.9902 -0.00976118 31.9542C-0.0100413 30.8982 0.00259719 29.8505 0.120293 28.8C0.127453 28.7339 0.134601 28.6678 0.141738 28.6016C0.390753 26.3232 0.863406 24.0804 1.59143 21.906C1.62274 21.8125 1.65388 21.7188 1.68478 21.6251C2.33792 19.6469 3.22107 17.7136 4.28029 15.92C4.30058 15.8855 4.32087 15.8509 4.34178 15.8152C5.2684 14.2386 6.33145 12.7465 7.51653 11.354C7.6366 11.2127 7.75396 11.0695 7.87029 10.925C7.99102 10.7766 8.11604 10.6394 8.25357 10.5066C8.32391 10.4364 8.38825 10.3631 8.45279 10.2875C8.56334 10.1591 8.67974 10.0391 8.80029 9.92005C8.91919 9.80258 9.03404 9.68446 9.14279 9.55755C9.3677 9.29568 9.61452 9.05959 9.87639 8.8352C9.97486 8.747 10.0674 8.65409 10.1603 8.56005C10.3016 8.41721 10.4456 8.28143 10.5983 8.15083C10.6913 8.07053 10.782 7.98786 10.8728 7.90505C11.0423 7.75221 11.2162 7.60635 11.3937 7.46286C11.4888 7.38598 11.583 7.30806 11.6769 7.22974C12.0559 6.91396 12.442 6.61116 12.8403 6.32005C12.8684 6.29949 12.8965 6.27894 12.9254 6.25776C13.105 6.12659 13.2853 5.99652 13.4663 5.86724C13.5291 5.82232 13.5919 5.77732 13.6546 5.73224C14.4965 5.12801 15.3798 4.59194 16.2803 4.08005C16.3147 4.06045 16.3492 4.04085 16.3847 4.02065C18.8377 2.63461 21.4707 1.60959 24.2003 0.920048C24.2267 0.913353 24.2531 0.906658 24.2802 0.89976C26.5062 0.336278 28.8332 -0.00184837 31.1315 -0.00807676Z" fill="#012A87"/>
<path d="M21.3208 42.5601C28.3696 42.5601 35.4184 42.5601 42.6808 42.5601C42.6808 42.5997 42.6808 42.6393 42.6808 42.6801C49.1224 42.6801 55.564 42.6801 62.2008 42.6801C61.873 43.6166 61.873 43.6166 61.7158 43.9976C61.6972 44.0427 61.6786 44.0879 61.6595 44.1344C61.098 45.4883 60.4665 46.8174 59.7208 48.0801C59.7005 48.1146 59.6802 48.1492 59.6593 48.1849C58.7327 49.7615 57.6696 51.2536 56.4845 52.6461C56.3645 52.7875 56.2471 52.9306 56.1308 53.0751C56.0101 53.2235 55.885 53.3607 55.7475 53.4935C55.6772 53.5637 55.6128 53.637 55.5483 53.7126C55.4377 53.841 55.3213 53.961 55.2008 54.0801C55.0819 54.1975 54.967 54.3156 54.8583 54.4426C54.6334 54.7044 54.3866 54.9405 54.1247 55.1649C54.0262 55.2531 53.9337 55.346 53.8408 55.4401C53.6995 55.5829 53.5554 55.7187 53.4028 55.8493C53.3098 55.9296 53.2191 56.0122 53.1283 56.0951C52.9587 56.2479 52.7848 56.3938 52.6073 56.5372C52.5123 56.6141 52.4181 56.692 52.3242 56.7704C51.9451 57.0861 51.5591 57.3889 51.1608 57.6801C51.1187 57.7109 51.1187 57.7109 51.0757 57.7423C50.8961 57.8735 50.7158 58.0036 50.5348 58.1329C50.472 58.1778 50.4092 58.2228 50.3464 58.2679C49.5046 58.8721 48.6213 59.4082 47.7208 59.9201C47.6863 59.9397 47.6519 59.9593 47.6164 59.9795C45.1634 61.3655 42.5304 62.3905 39.8008 63.0801C39.7744 63.0868 39.748 63.0934 39.7208 63.1003C37.4949 63.6638 35.1679 64.002 32.8695 64.0082C32.805 64.0085 32.7405 64.0087 32.676 64.009C32.4709 64.0098 32.2658 64.01 32.0608 64.0101C32.0258 64.0101 31.9909 64.0101 31.9549 64.0101C30.8989 64.0104 29.8512 63.9978 28.8008 63.8801C28.7346 63.8729 28.6685 63.8657 28.6023 63.8586C26.3239 63.6096 24.0811 63.1369 21.9068 62.4089C21.8132 62.3776 21.7196 62.3465 21.6259 62.3156C19.6476 61.6624 17.7143 60.7793 15.9208 59.7201C15.8862 59.6998 15.8516 59.6795 15.816 59.6586C14.2393 58.7319 12.7472 57.6689 11.3547 56.4838C11.2134 56.3638 11.0702 56.2464 10.9258 56.1301C10.7773 56.0093 10.6402 55.8843 10.5073 55.7468C10.4372 55.6764 10.3638 55.6121 10.2883 55.5476C10.1598 55.437 10.0399 55.3206 9.92078 55.2001C9.80332 55.0812 9.6852 54.9663 9.55828 54.8576C9.29642 54.6326 9.06032 54.3858 8.83594 54.124C8.74773 54.0255 8.65483 53.933 8.56078 53.8401C8.41795 53.6987 8.28216 53.5547 8.15156 53.4021C8.07127 53.309 7.9886 53.2184 7.90578 53.1276C7.75294 52.958 7.60708 52.7841 7.46359 52.6066C7.38671 52.5115 7.3088 52.4174 7.23047 52.3235C6.9147 51.9444 6.6119 51.5584 6.32078 51.1601C6.28995 51.1179 6.28995 51.1179 6.2585 51.075C6.12733 50.8954 5.99725 50.715 5.86797 50.5341C5.82306 50.4712 5.77806 50.4084 5.73297 50.3457C5.12875 49.5039 4.59268 48.6205 4.08078 47.7201C4.06118 47.6856 4.04158 47.6511 4.02139 47.6156C3.18497 46.1354 2.49825 44.5972 1.905 43.0055C1.88911 42.963 1.88911 42.963 1.87289 42.9196C1.80078 42.7249 1.80078 42.7249 1.80078 42.6801C8.24238 42.6801 14.684 42.6801 21.3208 42.6801C21.3208 42.6405 21.3208 42.6009 21.3208 42.5601Z" fill="#DC171D"/>
<path d="M31.132 -0.00807676C31.1966 -0.00835767 31.2611 -0.00864114 31.3256 -0.00892698C31.5307 -0.00970295 31.7357 -0.00990435 31.9408 -0.00995176C31.9757 -0.00996944 32.0107 -0.00998711 32.0467 -0.0100053C33.1026 -0.0102854 34.1503 0.0023529 35.2008 0.120048C35.2669 0.127208 35.3331 0.134356 35.3992 0.141494C37.6776 0.390509 39.9205 0.863161 42.0948 1.59118C42.1884 1.6225 42.282 1.65364 42.3757 1.68454C44.3539 2.33768 46.2873 3.22083 48.0808 4.28005C48.1154 4.30034 48.15 4.32063 48.1856 4.34153C49.7623 5.26816 51.2544 6.3312 52.6469 7.51629C52.7882 7.63635 52.9314 7.75372 53.0758 7.87005C53.2242 7.99078 53.3614 8.11579 53.4942 8.25333C53.5644 8.32367 53.6378 8.388 53.7133 8.45255C53.8417 8.5631 53.9617 8.6795 54.0808 8.80005C54.1982 8.91895 54.3164 9.0338 54.4433 9.14255C54.7052 9.36746 54.9412 9.61428 55.1656 9.87614C55.2538 9.97462 55.3467 10.0671 55.4408 10.16C55.5836 10.3014 55.7194 10.4454 55.85 10.598C55.9303 10.6911 56.013 10.7817 56.0958 10.8725C56.2486 11.0421 56.3945 11.216 56.538 11.3935C56.6149 11.4886 56.6928 11.5827 56.7711 11.6766C57.0869 12.0557 57.3897 12.4417 57.6808 12.84C57.7116 12.8822 57.7116 12.8822 57.7431 12.9251C57.8742 13.1047 58.0043 13.2851 58.1336 13.466C58.1785 13.5289 58.2235 13.5917 58.2686 13.6544C58.8728 14.4962 59.4089 15.3796 59.9208 16.28C59.9404 16.3145 59.96 16.349 59.9802 16.3845C60.8166 17.8647 61.5033 19.4029 62.0966 20.9946C62.1125 21.0371 62.1125 21.0371 62.1287 21.0805C62.2008 21.2752 62.2008 21.2752 62.2008 21.32C42.2688 21.32 22.3368 21.32 1.80078 21.32C2.12856 20.3835 2.12856 20.3835 2.28578 20.0025C2.30437 19.9574 2.32295 19.9122 2.3421 19.8657C2.90359 18.5118 3.53506 17.1827 4.28078 15.92C4.30107 15.8855 4.32136 15.8509 4.34227 15.8152C5.26889 14.2386 6.33194 12.7465 7.51702 11.354C7.63709 11.2127 7.75445 11.0695 7.87078 10.925C7.99151 10.7766 8.11653 10.6394 8.25406 10.5066C8.3244 10.4364 8.38874 10.3631 8.45328 10.2875C8.56383 10.1591 8.68023 10.0391 8.80078 9.92005C8.91968 9.80258 9.03453 9.68446 9.14328 9.55755C9.36819 9.29568 9.61501 9.05959 9.87688 8.8352C9.97535 8.747 10.0679 8.65409 10.1608 8.56005C10.3021 8.41721 10.4461 8.28143 10.5988 8.15083C10.6918 8.07053 10.7825 7.98786 10.8733 7.90505C11.0428 7.75221 11.2167 7.60635 11.3942 7.46286C11.4893 7.38598 11.5835 7.30806 11.6773 7.22974C12.0564 6.91396 12.4425 6.61116 12.8408 6.32005C12.8689 6.29949 12.8969 6.27894 12.9259 6.25776C13.1055 6.12659 13.2858 5.99652 13.4668 5.86724C13.5296 5.82232 13.5924 5.77732 13.6551 5.73224C14.497 5.12801 15.3803 4.59194 16.2808 4.08005C16.3152 4.06045 16.3497 4.04085 16.3852 4.02065C18.8382 2.63461 21.4712 1.60959 24.2008 0.920048C24.2272 0.913353 24.2536 0.906658 24.2807 0.89976C26.5067 0.336278 28.8337 -0.00184837 31.132 -0.00807676Z" fill="#DC171D"/>
<path d="M1.80078 42.6799C8.24238 42.6799 14.684 42.6799 21.3208 42.6799C21.3208 49.1215 21.3208 55.5631 21.3208 62.1999C20.3843 61.8722 20.3843 61.8722 20.0033 61.7149C19.9581 61.6963 19.9129 61.6778 19.8664 61.6586C18.5126 61.0971 17.1835 60.4657 15.9208 59.7199C15.8862 59.6996 15.8516 59.6794 15.816 59.6584C14.2393 58.7318 12.7472 57.6688 11.3547 56.4837C11.2134 56.3636 11.0702 56.2463 10.9258 56.1299C10.7773 56.0092 10.6402 55.8842 10.5073 55.7466C10.4372 55.6763 10.3638 55.612 10.2883 55.5474C10.1598 55.4369 10.0399 55.3205 9.92078 55.1999C9.80332 55.081 9.6852 54.9662 9.55828 54.8574C9.29641 54.6325 9.06032 54.3857 8.83594 54.1238C8.74773 54.0254 8.65483 53.9328 8.56078 53.8399C8.41795 53.6986 8.28216 53.5546 8.15156 53.402C8.07127 53.3089 7.98859 53.2183 7.90578 53.1274C7.75294 52.9579 7.60708 52.784 7.46359 52.6065C7.38671 52.5114 7.30879 52.4173 7.23047 52.3234C6.9147 51.9443 6.6119 51.5582 6.32078 51.1599C6.28995 51.1178 6.28995 51.1178 6.2585 51.0748C6.12733 50.8952 5.99725 50.7149 5.86797 50.534C5.82306 50.4711 5.77806 50.4083 5.73297 50.3456C5.12875 49.5038 4.59268 48.6204 4.08078 47.7199C4.06118 47.6855 4.04158 47.651 4.02139 47.6155C3.18497 46.1352 2.49825 44.5971 1.905 43.0054C1.8944 42.977 1.88381 42.9487 1.87289 42.9195C1.80078 42.7248 1.80078 42.7248 1.80078 42.6799Z" fill="white"/>
<path d="M42.6797 42.6799C49.1213 42.6799 55.5629 42.6799 62.1997 42.6799C61.8719 43.6164 61.8719 43.6164 61.7147 43.9974C61.6961 44.0426 61.6775 44.0878 61.6584 44.1343C61.0969 45.4881 60.4654 46.8172 59.7197 48.0799C59.6994 48.1145 59.6791 48.1491 59.6582 48.1847C58.7316 49.7614 57.6685 51.2535 56.4834 52.646C56.3634 52.7873 56.246 52.9305 56.1297 53.0749C56.009 53.2234 55.8839 53.3606 55.7464 53.4934C55.6761 53.5635 55.6117 53.6369 55.5472 53.7124C55.4366 53.8409 55.3202 53.9608 55.1997 54.0799C55.0808 54.1974 54.9659 54.3155 54.8572 54.4424C54.6323 54.7043 54.3855 54.9404 54.1236 55.1648C54.0251 55.253 53.9326 55.3459 53.8397 55.4399C53.6984 55.5828 53.5543 55.7186 53.4017 55.8491C53.3087 55.9294 53.218 56.0121 53.1272 56.0949C52.9577 56.2478 52.7837 56.3936 52.6062 56.5371C52.5112 56.614 52.417 56.6919 52.3231 56.7702C51.944 57.086 51.558 57.3888 51.1597 57.6799C51.1176 57.7108 51.1176 57.7108 51.0746 57.7422C50.895 57.8734 50.7147 58.0035 50.5337 58.1327C50.4709 58.1777 50.4081 58.2227 50.3454 58.2677C49.5035 58.872 48.6202 59.408 47.7197 59.9199C47.6852 59.9395 47.6508 59.9591 47.6153 59.9793C46.135 60.8157 44.5968 61.5025 43.0052 62.0957C42.9768 62.1063 42.9484 62.1169 42.9192 62.1278C42.7245 62.1999 42.7245 62.1999 42.6797 62.1999C42.6797 55.7583 42.6797 49.3167 42.6797 42.6799Z" fill="white"/>
<path d="M42.6797 1.80005C43.6162 2.12783 43.6162 2.12783 43.9972 2.28505C44.0424 2.30363 44.0875 2.32222 44.1341 2.34137C45.4879 2.90286 46.817 3.53433 48.0797 4.28005C48.1143 4.30034 48.1489 4.32063 48.1845 4.34153C49.7612 5.26816 51.2533 6.33121 52.6458 7.51629C52.7871 7.63635 52.9303 7.75372 53.0747 7.87005C53.2231 7.99078 53.3603 8.11579 53.4931 8.25333C53.5633 8.32367 53.6367 8.38801 53.7122 8.45255C53.8406 8.5631 53.9606 8.6795 54.0797 8.80005C54.1972 8.91895 54.3153 9.0338 54.4422 9.14255C54.7041 9.36746 54.9402 9.61428 55.1645 9.87614C55.2527 9.97462 55.3456 10.0671 55.4397 10.16C55.5825 10.3014 55.7183 10.4454 55.8489 10.598C55.9292 10.6911 56.0119 10.7817 56.0947 10.8725C56.2475 11.0421 56.3934 11.216 56.5369 11.3935C56.6138 11.4886 56.6917 11.5827 56.77 11.6766C57.0858 12.0557 57.3886 12.4417 57.6797 12.84C57.7002 12.8681 57.7208 12.8962 57.742 12.9251C57.8731 13.1047 58.0032 13.2851 58.1325 13.466C58.1774 13.5289 58.2224 13.5917 58.2675 13.6544C58.8717 14.4962 59.4078 15.3796 59.9197 16.28C59.9393 16.3145 59.9589 16.349 59.9791 16.3845C60.8155 17.8647 61.5022 19.4029 62.0955 20.9946C62.1061 21.0229 62.1167 21.0513 62.1276 21.0805C62.1997 21.2752 62.1997 21.2752 62.1997 21.32C55.7581 21.32 49.3165 21.32 42.6797 21.32C42.6797 14.8784 42.6797 8.43685 42.6797 1.80005Z" fill="white"/>
<path d="M21.3208 1.80005C21.3208 8.24165 21.3208 14.6832 21.3208 21.32C14.8792 21.32 8.43758 21.32 1.80078 21.32C2.12856 20.3835 2.12856 20.3835 2.28578 20.0025C2.30437 19.9574 2.32295 19.9122 2.3421 19.8657C2.90359 18.5118 3.53506 17.1827 4.28078 15.92C4.30107 15.8855 4.32136 15.8509 4.34227 15.8152C5.26889 14.2386 6.33194 12.7465 7.51702 11.354C7.63709 11.2127 7.75445 11.0695 7.87078 10.925C7.99151 10.7766 8.11653 10.6394 8.25406 10.5066C8.3244 10.4364 8.38874 10.3631 8.45328 10.2875C8.56383 10.1591 8.68023 10.0391 8.80078 9.92005C8.91968 9.80258 9.03453 9.68446 9.14328 9.55755C9.36819 9.29568 9.61501 9.05959 9.87687 8.83521C9.97535 8.747 10.0679 8.65409 10.1608 8.56005C10.3021 8.41722 10.4461 8.28143 10.5988 8.15083C10.6918 8.07053 10.7825 7.98786 10.8733 7.90505C11.0428 7.75221 11.2167 7.60635 11.3942 7.46286C11.4893 7.38598 11.5835 7.30806 11.6773 7.22974C12.0564 6.91396 12.4425 6.61116 12.8408 6.32005C12.8689 6.29949 12.8969 6.27894 12.9259 6.25776C13.1055 6.12659 13.2858 5.99652 13.4668 5.86724C13.5296 5.82232 13.5924 5.77732 13.6551 5.73224C14.497 5.12801 15.3803 4.59194 16.2808 4.08005C16.3152 4.06045 16.3497 4.04085 16.3852 4.02065C17.8655 3.18424 19.4036 2.49752 20.9953 1.90427C21.0237 1.89367 21.052 1.88307 21.0812 1.87216C21.276 1.80005 21.276 1.80005 21.3208 1.80005Z" fill="white"/>
<path d="M37.7605 36.4399C37.8397 36.4399 37.9189 36.4399 38.0005 36.4399C38.0005 36.5983 38.0005 36.7567 38.0005 36.9199C38.0401 36.9199 38.0797 36.9199 38.1205 36.9199C38.1205 37.0387 38.1205 37.1575 38.1205 37.2799C38.1601 37.2799 38.1997 37.2799 38.2405 37.2799C38.2405 37.3987 38.2405 37.5175 38.2405 37.6399C38.2801 37.6399 38.3197 37.6399 38.3605 37.6399C38.3605 37.7983 38.3605 37.9567 38.3605 38.1199C38.3869 38.1199 38.4133 38.1199 38.4405 38.1199C38.4405 38.1595 38.4405 38.1991 38.4405 38.2399C39.0477 38.2399 39.6549 38.2399 40.2805 38.2399C40.2805 38.2795 40.2805 38.3191 40.2805 38.3599C40.2409 38.3599 40.2013 38.3599 40.1605 38.3599C40.1605 38.3995 40.1605 38.4391 40.1605 38.4799C40.1209 38.4799 40.0813 38.4799 40.0405 38.4799C40.0405 38.5195 40.0405 38.5591 40.0405 38.5999C39.9613 38.5999 39.8821 38.5999 39.8005 38.5999C39.8005 38.6395 39.8005 38.6791 39.8005 38.7199C39.7609 38.7199 39.7213 38.7199 39.6805 38.7199C39.6805 38.7595 39.6805 38.7991 39.6805 38.8399C39.6409 38.8399 39.6013 38.8399 39.5605 38.8399C39.5605 38.8795 39.5605 38.9191 39.5605 38.9599C39.4813 38.9599 39.4021 38.9599 39.3205 38.9599C39.3205 38.9995 39.3205 39.0391 39.3205 39.0799C39.2809 39.0799 39.2413 39.0799 39.2005 39.0799C39.2005 39.1195 39.2005 39.1591 39.2005 39.1999C39.1609 39.1999 39.1213 39.1999 39.0805 39.1999C39.0805 39.2395 39.0805 39.2791 39.0805 39.3199C39.0409 39.3199 39.0013 39.3199 38.9605 39.3199C38.9605 39.4783 38.9605 39.6367 38.9605 39.7999C39.0001 39.7999 39.0397 39.7999 39.0805 39.7999C39.0805 39.9583 39.0805 40.1167 39.0805 40.2799C39.1069 40.2799 39.1333 40.2799 39.1605 40.2799C39.1737 40.3591 39.1869 40.4383 39.2005 40.5199C39.2401 40.5199 39.2797 40.5199 39.3205 40.5199C39.3205 40.6387 39.3205 40.7575 39.3205 40.8799C39.3601 40.8799 39.3997 40.8799 39.4405 40.8799C39.4405 40.9987 39.4405 41.1175 39.4405 41.2399C39.4009 41.2399 39.3613 41.2399 39.3205 41.2399C39.3205 41.2003 39.3205 41.1607 39.3205 41.1199C39.2809 41.1199 39.2413 41.1199 39.2005 41.1199C39.2005 41.0803 39.2005 41.0407 39.2005 40.9999C39.1609 40.9999 39.1213 40.9999 39.0805 40.9999C39.0805 40.9603 39.0805 40.9207 39.0805 40.8799C39.0013 40.8799 38.9221 40.8799 38.8405 40.8799C38.8405 40.8403 38.8405 40.8007 38.8405 40.7599C38.8009 40.7599 38.7613 40.7599 38.7205 40.7599C38.7205 40.7203 38.7205 40.6807 38.7205 40.6399C38.6809 40.6399 38.6413 40.6399 38.6005 40.6399C38.6005 40.6003 38.6005 40.5607 38.6005 40.5199C38.5213 40.5199 38.4421 40.5199 38.3605 40.5199C38.3605 40.4803 38.3605 40.4407 38.3605 40.3999C38.3209 40.3999 38.2813 40.3999 38.2405 40.3999C38.2405 40.3603 38.2405 40.3207 38.2405 40.2799C38.1613 40.2799 38.0821 40.2799 38.0005 40.2799C38.0005 40.2403 38.0005 40.2007 38.0005 40.1599C37.9213 40.1599 37.8421 40.1599 37.7605 40.1599C37.7605 40.1995 37.7605 40.2391 37.7605 40.2799C37.6813 40.2799 37.6021 40.2799 37.5205 40.2799C37.5205 40.3195 37.5205 40.3591 37.5205 40.3999C37.4809 40.3999 37.4413 40.3999 37.4005 40.3999C37.4005 40.4395 37.4005 40.4791 37.4005 40.5199C37.3213 40.5199 37.2421 40.5199 37.1605 40.5199C37.1605 40.5595 37.1605 40.5991 37.1605 40.6399C37.1209 40.6399 37.0813 40.6399 37.0405 40.6399C37.0405 40.6795 37.0405 40.7191 37.0405 40.7599C37.0009 40.7599 36.9613 40.7599 36.9205 40.7599C36.9205 40.7995 36.9205 40.8391 36.9205 40.8799C36.8413 40.8799 36.7621 40.8799 36.6805 40.8799C36.6805 40.9195 36.6805 40.9591 36.6805 40.9999C36.6409 40.9999 36.6013 40.9999 36.5605 40.9999C36.5605 41.0395 36.5605 41.0791 36.5605 41.1199C36.5209 41.1199 36.4813 41.1199 36.4405 41.1199C36.4405 41.1595 36.4405 41.1991 36.4405 41.2399C36.4009 41.2399 36.3613 41.2399 36.3205 41.2399C36.3205 41.1607 36.3205 41.0815 36.3205 40.9999C36.3601 40.9999 36.3997 40.9999 36.4405 40.9999C36.4405 40.8811 36.4405 40.7623 36.4405 40.6399C36.4801 40.6399 36.5197 40.6399 36.5605 40.6399C36.5605 40.5211 36.5605 40.4023 36.5605 40.2799C36.6001 40.2799 36.6397 40.2799 36.6805 40.2799C36.6805 40.2007 36.6805 40.1215 36.6805 40.0399C36.7201 40.0399 36.7597 40.0399 36.8005 40.0399C36.8005 39.8815 36.8005 39.7231 36.8005 39.5599C36.8401 39.5599 36.8797 39.5599 36.9205 39.5599C36.9205 39.4807 36.9205 39.4015 36.9205 39.3199C36.8809 39.3199 36.8413 39.3199 36.8005 39.3199C36.8005 39.2803 36.8005 39.2407 36.8005 39.1999C36.7213 39.1999 36.6421 39.1999 36.5605 39.1999C36.5605 39.1603 36.5605 39.1207 36.5605 39.0799C36.5209 39.0799 36.4813 39.0799 36.4405 39.0799C36.4405 39.0403 36.4405 39.0007 36.4405 38.9599C36.4009 38.9599 36.3613 38.9599 36.3205 38.9599C36.3205 38.9203 36.3205 38.8807 36.3205 38.8399C36.2413 38.8399 36.1621 38.8399 36.0805 38.8399C36.0805 38.8003 36.0805 38.7607 36.0805 38.7199C36.0409 38.7199 36.0013 38.7199 35.9605 38.7199C35.9605 38.6803 35.9605 38.6407 35.9605 38.5999C35.8813 38.5999 35.8021 38.5999 35.7205 38.5999C35.7205 38.5603 35.7205 38.5207 35.7205 38.4799C35.6809 38.4799 35.6413 38.4799 35.6005 38.4799C35.6005 38.4403 35.6005 38.4007 35.6005 38.3599C35.5609 38.3599 35.5213 38.3599 35.4805 38.3599C35.4805 38.3203 35.4805 38.2807 35.4805 38.2399C36.1141 38.2399 36.7477 38.2399 37.4005 38.2399C37.4005 38.0419 37.4005 37.8439 37.4005 37.6399C37.4401 37.6399 37.4797 37.6399 37.5205 37.6399C37.5205 37.5211 37.5205 37.4023 37.5205 37.2799C37.5601 37.2799 37.5997 37.2799 37.6405 37.2799C37.6405 37.1611 37.6405 37.0423 37.6405 36.9199C37.6801 36.9199 37.7197 36.9199 37.7605 36.9199C37.7605 36.7615 37.7605 36.6031 37.7605 36.4399Z" fill="#F9FAFC"/>
<path d="M26.0007 36.4399C26.0799 36.4399 26.1591 36.4399 26.2407 36.4399C26.2407 36.5983 26.2407 36.7567 26.2407 36.9199C26.2803 36.9199 26.3199 36.9199 26.3607 36.9199C26.3607 37.0387 26.3607 37.1575 26.3607 37.2799C26.4003 37.2799 26.4399 37.2799 26.4807 37.2799C26.4807 37.3987 26.4807 37.5175 26.4807 37.6399C26.5203 37.6399 26.5599 37.6399 26.6007 37.6399C26.6007 37.8379 26.6007 38.0359 26.6007 38.2399C27.2343 38.2399 27.8679 38.2399 28.5207 38.2399C28.5207 38.2795 28.5207 38.3191 28.5207 38.3599C28.4811 38.3599 28.4415 38.3599 28.4007 38.3599C28.4007 38.3995 28.4007 38.4391 28.4007 38.4799C28.3611 38.4799 28.3215 38.4799 28.2807 38.4799C28.2807 38.5195 28.2807 38.5591 28.2807 38.5999C28.2015 38.5999 28.1223 38.5999 28.0407 38.5999C28.0407 38.6395 28.0407 38.6791 28.0407 38.7199C28.0011 38.7199 27.9615 38.7199 27.9207 38.7199C27.9207 38.7595 27.9207 38.7991 27.9207 38.8399C27.8811 38.8399 27.8415 38.8399 27.8007 38.8399C27.8007 38.8795 27.8007 38.9191 27.8007 38.9599C27.7215 38.9599 27.6423 38.9599 27.5607 38.9599C27.5607 38.9995 27.5607 39.0391 27.5607 39.0799C27.5211 39.0799 27.4815 39.0799 27.4407 39.0799C27.4407 39.1195 27.4407 39.1591 27.4407 39.1999C27.3615 39.1999 27.2823 39.1999 27.2007 39.1999C27.2007 39.2395 27.2007 39.2791 27.2007 39.3199C27.1611 39.3199 27.1215 39.3199 27.0807 39.3199C27.0807 39.3991 27.0807 39.4783 27.0807 39.5599C27.1203 39.5599 27.1599 39.5599 27.2007 39.5599C27.2007 39.6787 27.2007 39.7975 27.2007 39.9199C27.2403 39.9199 27.2799 39.9199 27.3207 39.9199C27.3207 40.0387 27.3207 40.1575 27.3207 40.2799C27.3603 40.2799 27.3999 40.2799 27.4407 40.2799C27.4407 40.3987 27.4407 40.5175 27.4407 40.6399C27.4803 40.6399 27.5199 40.6399 27.5607 40.6399C27.5607 40.7587 27.5607 40.8775 27.5607 40.9999C27.6003 40.9999 27.6399 40.9999 27.6807 40.9999C27.6807 41.0791 27.6807 41.1583 27.6807 41.2399C27.6411 41.2399 27.6015 41.2399 27.5607 41.2399C27.5607 41.2003 27.5607 41.1607 27.5607 41.1199C27.5211 41.1199 27.4815 41.1199 27.4407 41.1199C27.4407 41.0803 27.4407 41.0407 27.4407 40.9999C27.4011 40.9999 27.3615 40.9999 27.3207 40.9999C27.3207 40.9603 27.3207 40.9207 27.3207 40.8799C27.2415 40.8799 27.1623 40.8799 27.0807 40.8799C27.0807 40.8403 27.0807 40.8007 27.0807 40.7599C27.0411 40.7599 27.0015 40.7599 26.9607 40.7599C26.9607 40.7203 26.9607 40.6807 26.9607 40.6399C26.9211 40.6399 26.8815 40.6399 26.8407 40.6399C26.8407 40.6003 26.8407 40.5607 26.8407 40.5199C26.7615 40.5199 26.6823 40.5199 26.6007 40.5199C26.6007 40.4803 26.6007 40.4407 26.6007 40.3999C26.5611 40.3999 26.5215 40.3999 26.4807 40.3999C26.4807 40.3603 26.4807 40.3207 26.4807 40.2799C26.4411 40.2799 26.4015 40.2799 26.3607 40.2799C26.3607 40.2403 26.3607 40.2007 26.3607 40.1599C26.2023 40.1599 26.0439 40.1599 25.8807 40.1599C25.8807 40.1995 25.8807 40.2391 25.8807 40.2799C25.8411 40.2799 25.8015 40.2799 25.7607 40.2799C25.7607 40.3195 25.7607 40.3591 25.7607 40.3999C25.7211 40.3999 25.6815 40.3999 25.6407 40.3999C25.6407 40.4395 25.6407 40.4791 25.6407 40.5199C25.5615 40.5199 25.4823 40.5199 25.4007 40.5199C25.4007 40.5595 25.4007 40.5991 25.4007 40.6399C25.3611 40.6399 25.3215 40.6399 25.2807 40.6399C25.2807 40.6795 25.2807 40.7191 25.2807 40.7599C25.2411 40.7599 25.2015 40.7599 25.1607 40.7599C25.1607 40.7995 25.1607 40.8391 25.1607 40.8799C25.0815 40.8799 25.0023 40.8799 24.9207 40.8799C24.9207 40.9195 24.9207 40.9591 24.9207 40.9999C24.8811 40.9999 24.8415 40.9999 24.8007 40.9999C24.8007 41.0395 24.8007 41.0791 24.8007 41.1199C24.7611 41.1199 24.7215 41.1199 24.6807 41.1199C24.6807 41.1595 24.6807 41.1991 24.6807 41.2399C24.6411 41.2399 24.6015 41.2399 24.5607 41.2399C24.5607 41.1211 24.5607 41.0023 24.5607 40.8799C24.6003 40.8799 24.6399 40.8799 24.6807 40.8799C24.6807 40.7611 24.6807 40.6423 24.6807 40.5199C24.7203 40.5199 24.7599 40.5199 24.8007 40.5199C24.8139 40.4407 24.8271 40.3615 24.8407 40.2799C24.8671 40.2799 24.8935 40.2799 24.9207 40.2799C24.9207 40.1215 24.9207 39.9631 24.9207 39.7999C24.9603 39.7999 24.9999 39.7999 25.0407 39.7999C25.0407 39.6019 25.0407 39.4039 25.0407 39.1999C24.9615 39.1999 24.8823 39.1999 24.8007 39.1999C24.8007 39.1603 24.8007 39.1207 24.8007 39.0799C24.7611 39.0799 24.7215 39.0799 24.6807 39.0799C24.6807 39.0403 24.6807 39.0007 24.6807 38.9599C24.6015 38.9599 24.5223 38.9599 24.4407 38.9599C24.4407 38.9203 24.4407 38.8807 24.4407 38.8399C24.4011 38.8399 24.3615 38.8399 24.3207 38.8399C24.3207 38.8003 24.3207 38.7607 24.3207 38.7199C24.2811 38.7199 24.2415 38.7199 24.2007 38.7199C24.2007 38.6803 24.2007 38.6407 24.2007 38.5999C24.1215 38.5999 24.0423 38.5999 23.9607 38.5999C23.9607 38.5603 23.9607 38.5207 23.9607 38.4799C23.9211 38.4799 23.8815 38.4799 23.8407 38.4799C23.8407 38.4403 23.8407 38.4007 23.8407 38.3599C23.8011 38.3599 23.7615 38.3599 23.7207 38.3599C23.7207 38.3203 23.7207 38.2807 23.7207 38.2399C24.3279 38.2399 24.9351 38.2399 25.5607 38.2399C25.5607 38.2003 25.5607 38.1607 25.5607 38.1199C25.5871 38.1199 25.6135 38.1199 25.6407 38.1199C25.6407 37.9615 25.6407 37.8031 25.6407 37.6399C25.6803 37.6399 25.7199 37.6399 25.7607 37.6399C25.7607 37.5211 25.7607 37.4023 25.7607 37.2799C25.8003 37.2799 25.8399 37.2799 25.8807 37.2799C25.8807 37.1611 25.8807 37.0423 25.8807 36.9199C25.9203 36.9199 25.9599 36.9199 26.0007 36.9199C26.0007 36.7615 26.0007 36.6031 26.0007 36.4399Z" fill="#F8F9FC"/>
<path d="M31.8796 22.28C31.9588 22.28 32.038 22.28 32.1196 22.28C32.1196 22.3988 32.1196 22.5176 32.1196 22.64C32.1592 22.64 32.1988 22.64 32.2396 22.64C32.2396 22.7588 32.2396 22.8776 32.2396 23C32.2792 23 32.3188 23 32.3596 23C32.3596 23.1188 32.3596 23.2376 32.3596 23.36C32.3992 23.36 32.4388 23.36 32.4796 23.36C32.4796 23.5184 32.4796 23.6768 32.4796 23.84C32.5192 23.84 32.5588 23.84 32.5996 23.84C32.5996 23.9192 32.5996 23.9984 32.5996 24.08C33.1936 24.08 33.7876 24.08 34.3996 24.08C34.3996 24.1196 34.3996 24.1592 34.3996 24.2C34.36 24.2 34.3204 24.2 34.2796 24.2C34.2796 24.2396 34.2796 24.2792 34.2796 24.32C34.2004 24.32 34.1212 24.32 34.0396 24.32C34.0396 24.3596 34.0396 24.3992 34.0396 24.44C34 24.44 33.9604 24.44 33.9196 24.44C33.9196 24.4796 33.9196 24.5192 33.9196 24.56C33.8404 24.56 33.7612 24.56 33.6796 24.56C33.6796 24.5996 33.6796 24.6392 33.6796 24.68C33.64 24.68 33.6004 24.68 33.5596 24.68C33.5596 24.7196 33.5596 24.7592 33.5596 24.8C33.52 24.8 33.4804 24.8 33.4396 24.8C33.4396 24.8396 33.4396 24.8792 33.4396 24.92C33.3604 24.92 33.2812 24.92 33.1996 24.92C33.1996 24.9596 33.1996 24.9992 33.1996 25.04C33.16 25.04 33.1204 25.04 33.0796 25.04C33.0796 25.0796 33.0796 25.1192 33.0796 25.16C33.04 25.16 33.0004 25.16 32.9596 25.16C32.9596 25.2392 32.9596 25.3184 32.9596 25.4C32.9992 25.4 33.0388 25.4 33.0796 25.4C33.0796 25.4792 33.0796 25.5584 33.0796 25.64C33.1192 25.64 33.1588 25.64 33.1996 25.64C33.1996 25.7588 33.1996 25.8776 33.1996 26C33.2392 26 33.2788 26 33.3196 26C33.3196 26.1188 33.3196 26.2376 33.3196 26.36C33.3592 26.36 33.3988 26.36 33.4396 26.36C33.4396 26.4788 33.4396 26.5976 33.4396 26.72C33.4792 26.72 33.5188 26.72 33.5596 26.72C33.5596 26.7992 33.5596 26.8784 33.5596 26.96C33.52 26.96 33.4804 26.96 33.4396 26.96C33.4396 26.9204 33.4396 26.8808 33.4396 26.84C33.3604 26.84 33.2812 26.84 33.1996 26.84C33.1996 26.8004 33.1996 26.7608 33.1996 26.72C33.16 26.72 33.1204 26.72 33.0796 26.72C33.0796 26.6804 33.0796 26.6408 33.0796 26.6C33.04 26.6 33.0004 26.6 32.9596 26.6C32.9596 26.5604 32.9596 26.5208 32.9596 26.48C32.8804 26.48 32.8012 26.48 32.7196 26.48C32.7196 26.4404 32.7196 26.4008 32.7196 26.36C32.68 26.36 32.6404 26.36 32.5996 26.36C32.5996 26.3204 32.5996 26.2808 32.5996 26.24C32.56 26.24 32.5204 26.24 32.4796 26.24C32.4796 26.2004 32.4796 26.1608 32.4796 26.12C32.4004 26.12 32.3212 26.12 32.2396 26.12C32.2396 26.0804 32.2396 26.0408 32.2396 26C32.2 26 32.1604 26 32.1196 26C32.1196 25.9604 32.1196 25.9208 32.1196 25.88C32.0404 25.88 31.9612 25.88 31.8796 25.88C31.8796 25.9196 31.8796 25.9592 31.8796 26C31.84 26 31.8004 26 31.7596 26C31.7596 26.0396 31.7596 26.0792 31.7596 26.12C31.72 26.12 31.6804 26.12 31.6396 26.12C31.6396 26.1596 31.6396 26.1992 31.6396 26.24C31.5604 26.24 31.4812 26.24 31.3996 26.24C31.3996 26.2796 31.3996 26.3192 31.3996 26.36C31.36 26.36 31.3204 26.36 31.2796 26.36C31.2796 26.3996 31.2796 26.4392 31.2796 26.48C31.2004 26.48 31.1212 26.48 31.0396 26.48C31.0396 26.5196 31.0396 26.5592 31.0396 26.6C31 26.6 30.9604 26.6 30.9196 26.6C30.9196 26.6396 30.9196 26.6792 30.9196 26.72C30.88 26.72 30.8404 26.72 30.7996 26.72C30.7996 26.7596 30.7996 26.7992 30.7996 26.84C30.76 26.84 30.7204 26.84 30.6796 26.84C30.6796 26.8796 30.6796 26.9192 30.6796 26.96C30.6004 26.96 30.5212 26.96 30.4396 26.96C30.4396 26.8808 30.4396 26.8016 30.4396 26.72C30.4792 26.72 30.5188 26.72 30.5596 26.72C30.5596 26.6012 30.5596 26.4824 30.5596 26.36C30.5992 26.36 30.6388 26.36 30.6796 26.36C30.6796 26.2412 30.6796 26.1224 30.6796 26C30.7192 26 30.7588 26 30.7996 26C30.7996 25.8812 30.7996 25.7624 30.7996 25.64C30.8392 25.64 30.8788 25.64 30.9196 25.64C30.9196 25.5608 30.9196 25.4816 30.9196 25.4C30.9592 25.4 30.9988 25.4 31.0396 25.4C31.0396 25.3208 31.0396 25.2416 31.0396 25.16C31 25.16 30.9604 25.16 30.9196 25.16C30.9196 25.1204 30.9196 25.0808 30.9196 25.04C30.88 25.04 30.8404 25.04 30.7996 25.04C30.7996 25.0004 30.7996 24.9608 30.7996 24.92C30.7204 24.92 30.6412 24.92 30.5596 24.92C30.5596 24.8804 30.5596 24.8408 30.5596 24.8C30.52 24.8 30.4804 24.8 30.4396 24.8C30.4396 24.7604 30.4396 24.7208 30.4396 24.68C30.4 24.68 30.3604 24.68 30.3196 24.68C30.3196 24.6404 30.3196 24.6008 30.3196 24.56C30.2404 24.56 30.1612 24.56 30.0796 24.56C30.0796 24.5204 30.0796 24.4808 30.0796 24.44C30.04 24.44 30.0004 24.44 29.9596 24.44C29.9596 24.4004 29.9596 24.3608 29.9596 24.32C29.92 24.32 29.8804 24.32 29.8396 24.32C29.8396 24.2804 29.8396 24.2408 29.8396 24.2C29.7604 24.2 29.6812 24.2 29.5996 24.2C29.5996 24.1604 29.5996 24.1208 29.5996 24.08C30.1936 24.08 30.7876 24.08 31.3996 24.08C31.3996 24.0008 31.3996 23.9216 31.3996 23.84C31.4392 23.84 31.4788 23.84 31.5196 23.84C31.5196 23.6816 31.5196 23.5232 31.5196 23.36C31.5592 23.36 31.5988 23.36 31.6396 23.36C31.6396 23.2412 31.6396 23.1224 31.6396 23C31.6792 23 31.7188 23 31.7596 23C31.7596 22.8812 31.7596 22.7624 31.7596 22.64C31.7992 22.64 31.8388 22.64 31.8796 22.64C31.8796 22.5212 31.8796 22.4024 31.8796 22.28Z" fill="#FAFBFC"/>
<path d="M17.7195 28.1599C17.7591 28.1599 17.7987 28.1599 17.8395 28.1599C17.8593 28.3381 17.8593 28.3381 17.8795 28.5199C17.9059 28.5199 17.9323 28.5199 17.9595 28.5199C17.9595 28.6387 17.9595 28.7575 17.9595 28.8799C17.9991 28.8799 18.0387 28.8799 18.0795 28.8799C18.0993 28.9987 18.0993 28.9987 18.1195 29.1199C18.1459 29.1199 18.1723 29.1199 18.1995 29.1199C18.1995 29.2783 18.1995 29.4367 18.1995 29.5999C18.2391 29.5999 18.2787 29.5999 18.3195 29.5999C18.3195 29.6791 18.3195 29.7583 18.3195 29.8399C18.3591 29.8399 18.3987 29.8399 18.4395 29.8399C18.4395 29.8795 18.4395 29.9191 18.4395 29.9599C18.9939 29.9599 19.5483 29.9599 20.1195 29.9599C20.1195 29.9995 20.1195 30.0391 20.1195 30.0799C20.0799 30.0799 20.0403 30.0799 19.9995 30.0799C19.9995 30.1195 19.9995 30.1591 19.9995 30.1999C19.9599 30.1999 19.9203 30.1999 19.8795 30.1999C19.8795 30.2395 19.8795 30.2791 19.8795 30.3199C19.8003 30.3199 19.7211 30.3199 19.6395 30.3199C19.6395 30.3595 19.6395 30.3991 19.6395 30.4399C19.5999 30.4399 19.5603 30.4399 19.5195 30.4399C19.5195 30.4795 19.5195 30.5191 19.5195 30.5599C19.4799 30.5599 19.4403 30.5599 19.3995 30.5599C19.3995 30.5995 19.3995 30.6391 19.3995 30.6799C19.3203 30.6799 19.2411 30.6799 19.1595 30.6799C19.1595 30.7195 19.1595 30.7591 19.1595 30.7999C19.1199 30.7999 19.0803 30.7999 19.0395 30.7999C19.0395 30.8395 19.0395 30.8791 19.0395 30.9199C18.9999 30.9199 18.9603 30.9199 18.9195 30.9199C18.9195 30.9595 18.9195 30.9991 18.9195 31.0399C18.8931 31.0399 18.8667 31.0399 18.8395 31.0399C18.8395 31.1587 18.8395 31.2775 18.8395 31.3999C18.8659 31.3999 18.8923 31.3999 18.9195 31.3999C18.9393 31.5781 18.9393 31.5781 18.9595 31.7599C18.9859 31.7599 19.0123 31.7599 19.0395 31.7599C19.0593 31.9381 19.0593 31.9381 19.0795 32.1199C19.1059 32.1199 19.1323 32.1199 19.1595 32.1199C19.1793 32.2981 19.1793 32.2981 19.1995 32.4799C19.2259 32.4799 19.2523 32.4799 19.2795 32.4799C19.2795 32.5987 19.2795 32.7175 19.2795 32.8399C19.2399 32.8399 19.2003 32.8399 19.1595 32.8399C19.1595 32.8003 19.1595 32.7607 19.1595 32.7199C19.1199 32.7199 19.0803 32.7199 19.0395 32.7199C19.0395 32.6803 19.0395 32.6407 19.0395 32.5999C18.9999 32.5999 18.9603 32.5999 18.9195 32.5999C18.9195 32.5603 18.9195 32.5207 18.9195 32.4799C18.8403 32.4799 18.7611 32.4799 18.6795 32.4799C18.6795 32.4403 18.6795 32.4007 18.6795 32.3599C18.6399 32.3599 18.6003 32.3599 18.5595 32.3599C18.5595 32.3203 18.5595 32.2807 18.5595 32.2399C18.4803 32.2399 18.4011 32.2399 18.3195 32.2399C18.3195 32.2003 18.3195 32.1607 18.3195 32.1199C18.2799 32.1199 18.2403 32.1199 18.1995 32.1199C18.1995 32.0803 18.1995 32.0407 18.1995 31.9999C18.1599 31.9999 18.1203 31.9999 18.0795 31.9999C18.0795 31.9603 18.0795 31.9207 18.0795 31.8799C18.0135 31.8799 17.9475 31.8799 17.8795 31.8799C17.8795 31.8403 17.8795 31.8007 17.8795 31.7599C17.8267 31.7599 17.7739 31.7599 17.7195 31.7599C17.7195 31.7995 17.7195 31.8391 17.7195 31.8799C17.6799 31.8799 17.6403 31.8799 17.5995 31.8799C17.5995 31.9195 17.5995 31.9591 17.5995 31.9999C17.5335 31.9999 17.4675 31.9999 17.3995 31.9999C17.3995 32.0395 17.3995 32.0791 17.3995 32.1199C17.3467 32.1199 17.2939 32.1199 17.2395 32.1199C17.2395 32.1595 17.2395 32.1991 17.2395 32.2399C17.1603 32.2399 17.0811 32.2399 16.9995 32.2399C16.9995 32.2795 16.9995 32.3191 16.9995 32.3599C16.9599 32.3599 16.9203 32.3599 16.8795 32.3599C16.8795 32.3995 16.8795 32.4391 16.8795 32.4799C16.8399 32.4799 16.8003 32.4799 16.7595 32.4799C16.7595 32.5195 16.7595 32.5591 16.7595 32.5999C16.6803 32.5999 16.6011 32.5999 16.5195 32.5999C16.5195 32.6395 16.5195 32.6791 16.5195 32.7199C16.4931 32.7199 16.4667 32.7199 16.4395 32.7199C16.4395 32.7595 16.4395 32.7991 16.4395 32.8399C16.3603 32.8399 16.2811 32.8399 16.1995 32.8399C16.1995 32.8003 16.1995 32.7607 16.1995 32.7199C16.2259 32.7199 16.2523 32.7199 16.2795 32.7199C16.2795 32.6407 16.2795 32.5615 16.2795 32.4799C16.3191 32.4799 16.3587 32.4799 16.3995 32.4799C16.399 32.4553 16.3985 32.4307 16.398 32.4054C16.3977 32.3731 16.3973 32.3407 16.397 32.3074C16.3965 32.2754 16.396 32.2434 16.3955 32.2104C16.3995 32.1199 16.3995 32.1199 16.4395 31.9999C16.4659 31.9999 16.4923 31.9999 16.5195 31.9999C16.5195 31.8811 16.5195 31.7623 16.5195 31.6399C16.5591 31.6399 16.5987 31.6399 16.6395 31.6399C16.6395 31.5211 16.6395 31.4023 16.6395 31.2799C16.6791 31.2799 16.7187 31.2799 16.7595 31.2799C16.7595 31.1611 16.7595 31.0423 16.7595 30.9199C16.6935 30.9199 16.6275 30.9199 16.5595 30.9199C16.5595 30.8803 16.5595 30.8407 16.5595 30.7999C16.5199 30.7999 16.4803 30.7999 16.4395 30.7999C16.4395 30.7603 16.4395 30.7207 16.4395 30.6799C16.3867 30.6799 16.3339 30.6799 16.2795 30.6799C16.2795 30.6403 16.2795 30.6007 16.2795 30.5599C16.2135 30.5599 16.1475 30.5599 16.0795 30.5599C16.0795 30.5203 16.0795 30.4807 16.0795 30.4399C16.0399 30.4399 16.0003 30.4399 15.9595 30.4399C15.9595 30.4003 15.9595 30.3607 15.9595 30.3199C15.8803 30.3199 15.8011 30.3199 15.7195 30.3199C15.7195 30.2803 15.7195 30.2407 15.7195 30.1999C15.6667 30.1999 15.6139 30.1999 15.5595 30.1999C15.5595 30.1603 15.5595 30.1207 15.5595 30.0799C15.5199 30.0799 15.4803 30.0799 15.4395 30.0799C15.4395 30.0403 15.4395 30.0007 15.4395 29.9599C16.0335 29.9599 16.6275 29.9599 17.2395 29.9599C17.2395 29.8015 17.2395 29.6431 17.2395 29.4799C17.2791 29.4799 17.3187 29.4799 17.3595 29.4799C17.3595 29.3611 17.3595 29.2423 17.3595 29.1199C17.3991 29.1199 17.4387 29.1199 17.4795 29.1199C17.4795 29.0011 17.4795 28.8823 17.4795 28.7599C17.5191 28.7599 17.5587 28.7599 17.5995 28.7599C17.5995 28.6411 17.5995 28.5223 17.5995 28.3999C17.6391 28.3999 17.6787 28.3999 17.7195 28.3999C17.7195 28.3207 17.7195 28.2415 17.7195 28.1599Z" fill="#F9FAFC"/>
<path d="M46.1609 28.1599C46.1873 28.1599 46.2137 28.1599 46.2409 28.1599C46.2607 28.3381 46.2607 28.3381 46.2809 28.5199C46.3073 28.5199 46.3337 28.5199 46.3609 28.5199C46.3609 28.6387 46.3609 28.7575 46.3609 28.8799C46.4005 28.8799 46.4401 28.8799 46.4809 28.8799C46.4809 28.9987 46.4809 29.1175 46.4809 29.2399C46.5205 29.2399 46.5601 29.2399 46.6009 29.2399C46.6009 29.3587 46.6009 29.4775 46.6009 29.5999C46.6405 29.5999 46.6801 29.5999 46.7209 29.5999C46.7407 29.7781 46.7407 29.7781 46.7609 29.9599C47.3549 29.9599 47.9489 29.9599 48.5609 29.9599C48.5609 29.9995 48.5609 30.0391 48.5609 30.0799C48.5081 30.0799 48.4553 30.0799 48.4009 30.0799C48.4009 30.1195 48.4009 30.1591 48.4009 30.1999C48.3613 30.1999 48.3217 30.1999 48.2809 30.1999C48.2809 30.2395 48.2809 30.2791 48.2809 30.3199C48.2017 30.3199 48.1225 30.3199 48.0409 30.3199C48.0409 30.3595 48.0409 30.3991 48.0409 30.4399C48.0013 30.4399 47.9617 30.4399 47.9209 30.4399C47.9209 30.4795 47.9209 30.5191 47.9209 30.5599C47.8813 30.5599 47.8417 30.5599 47.8009 30.5599C47.8009 30.5995 47.8009 30.6391 47.8009 30.6799C47.7217 30.6799 47.6425 30.6799 47.5609 30.6799C47.5609 30.7195 47.5609 30.7591 47.5609 30.7999C47.5213 30.7999 47.4817 30.7999 47.4409 30.7999C47.4409 30.8395 47.4409 30.8791 47.4409 30.9199C47.3617 30.9199 47.2825 30.9199 47.2009 30.9199C47.2009 31.1179 47.2009 31.3159 47.2009 31.5199C47.2405 31.5199 47.2801 31.5199 47.3209 31.5199C47.3209 31.5991 47.3209 31.6783 47.3209 31.7599C47.3605 31.7599 47.4001 31.7599 47.4409 31.7599C47.4607 31.9975 47.4607 31.9975 47.4809 32.2399C47.5073 32.2399 47.5337 32.2399 47.5609 32.2399C47.5741 32.3191 47.5873 32.3983 47.6009 32.4799C47.6273 32.4799 47.6537 32.4799 47.6809 32.4799C47.6809 32.5987 47.6809 32.7175 47.6809 32.8399C47.6545 32.8399 47.6281 32.8399 47.6009 32.8399C47.6009 32.8003 47.6009 32.7607 47.6009 32.7199C47.5613 32.7199 47.5217 32.7199 47.4809 32.7199C47.4809 32.6803 47.4809 32.6407 47.4809 32.5999C47.4281 32.5999 47.3753 32.5999 47.3209 32.5999C47.3209 32.5603 47.3209 32.5207 47.3209 32.4799C47.2417 32.4799 47.1625 32.4799 47.0809 32.4799C47.0809 32.4403 47.0809 32.4007 47.0809 32.3599C47.0545 32.3599 47.0281 32.3599 47.0009 32.3599C47.0009 32.3203 47.0009 32.2807 47.0009 32.2399C46.9481 32.2399 46.8953 32.2399 46.8409 32.2399C46.8409 32.2003 46.8409 32.1607 46.8409 32.1199C46.7749 32.1199 46.7089 32.1199 46.6409 32.1199C46.6409 32.0803 46.6409 32.0407 46.6409 31.9999C46.6013 31.9999 46.5617 31.9999 46.5209 31.9999C46.5209 31.9603 46.5209 31.9207 46.5209 31.8799C46.4417 31.8799 46.3625 31.8799 46.2809 31.8799C46.2809 31.8403 46.2809 31.8007 46.2809 31.7599C46.2281 31.7599 46.1753 31.7599 46.1209 31.7599C46.1209 31.7995 46.1209 31.8391 46.1209 31.8799C46.0549 31.8799 45.9889 31.8799 45.9209 31.8799C45.9209 31.9195 45.9209 31.9591 45.9209 31.9999C45.8813 31.9999 45.8417 31.9999 45.8009 31.9999C45.8009 32.0395 45.8009 32.0791 45.8009 32.1199C45.7613 32.1199 45.7217 32.1199 45.6809 32.1199C45.6809 32.1595 45.6809 32.1991 45.6809 32.2399C45.6017 32.2399 45.5225 32.2399 45.4409 32.2399C45.4409 32.2795 45.4409 32.3191 45.4409 32.3599C45.4013 32.3599 45.3617 32.3599 45.3209 32.3599C45.3209 32.3995 45.3209 32.4391 45.3209 32.4799C45.2813 32.4799 45.2417 32.4799 45.2009 32.4799C45.2009 32.5195 45.2009 32.5591 45.2009 32.5999C45.1217 32.5999 45.0425 32.5999 44.9609 32.5999C44.9609 32.6395 44.9609 32.6791 44.9609 32.7199C44.9213 32.7199 44.8817 32.7199 44.8409 32.7199C44.8409 32.7595 44.8409 32.7991 44.8409 32.8399C44.8013 32.8399 44.7617 32.8399 44.7209 32.8399C44.7209 32.7211 44.7209 32.6023 44.7209 32.4799C44.7473 32.4799 44.7737 32.4799 44.8009 32.4799C44.8141 32.3611 44.8273 32.2423 44.8409 32.1199C44.8673 32.1199 44.8937 32.1199 44.9209 32.1199C44.9341 32.0011 44.9473 31.8823 44.9609 31.7599C44.9873 31.7599 45.0137 31.7599 45.0409 31.7599C45.0541 31.6807 45.0673 31.6015 45.0809 31.5199C45.1205 31.5199 45.1601 31.5199 45.2009 31.5199C45.2009 31.3219 45.2009 31.1239 45.2009 30.9199C45.1217 30.9199 45.0425 30.9199 44.9609 30.9199C44.9609 30.8803 44.9609 30.8407 44.9609 30.7999C44.9213 30.7999 44.8817 30.7999 44.8409 30.7999C44.8409 30.7603 44.8409 30.7207 44.8409 30.6799C44.7617 30.6799 44.6825 30.6799 44.6009 30.6799C44.6009 30.6403 44.6009 30.6007 44.6009 30.5599C44.5613 30.5599 44.5217 30.5599 44.4809 30.5599C44.4809 30.5203 44.4809 30.4807 44.4809 30.4399C44.4413 30.4399 44.4017 30.4399 44.3609 30.4399C44.3609 30.4003 44.3609 30.3607 44.3609 30.3199C44.2817 30.3199 44.2025 30.3199 44.1209 30.3199C44.1209 30.2803 44.1209 30.2407 44.1209 30.1999C44.0813 30.1999 44.0417 30.1999 44.0009 30.1999C44.0009 30.1603 44.0009 30.1207 44.0009 30.0799C43.9613 30.0799 43.9217 30.0799 43.8809 30.0799C43.8809 30.0403 43.8809 30.0007 43.8809 29.9599C44.4353 29.9599 44.9897 29.9599 45.5609 29.9599C45.5609 29.9203 45.5609 29.8807 45.5609 29.8399C45.6005 29.8399 45.6401 29.8399 45.6809 29.8399C45.6809 29.7607 45.6809 29.6815 45.6809 29.5999C45.7073 29.5999 45.7337 29.5999 45.7609 29.5999C45.7741 29.4811 45.7873 29.3623 45.8009 29.2399C45.8405 29.2399 45.8801 29.2399 45.9209 29.2399C45.9209 29.1211 45.9209 29.0023 45.9209 28.8799C45.9473 28.8799 45.9737 28.8799 46.0009 28.8799C46.0141 28.7611 46.0273 28.6423 46.0409 28.5199C46.0673 28.5199 46.0937 28.5199 46.1209 28.5199C46.1341 28.4011 46.1473 28.2823 46.1609 28.1599Z" fill="#F9FAFC"/>
<path d="M1.75977 42.52C21.7182 42.52 41.6766 42.52 62.2398 42.52C62.2266 42.5728 62.2134 42.6256 62.1998 42.68C55.7582 42.68 49.3166 42.68 42.6798 42.68C42.6798 42.6404 42.6798 42.6008 42.6798 42.56C35.631 42.56 28.5822 42.56 21.3198 42.56C21.3198 42.5996 21.3198 42.6392 21.3198 42.68C14.8782 42.68 8.43657 42.68 1.79977 42.68C1.78657 42.6272 1.77337 42.5744 1.75977 42.52Z" fill="#283F8C"/>
<path d="M21.3203 42.5601C28.3691 42.5601 35.4179 42.5601 42.6803 42.5601C42.6803 42.5997 42.6803 42.6393 42.6803 42.6801C35.6315 42.6801 28.5827 42.6801 21.3203 42.6801C21.3203 42.6405 21.3203 42.6009 21.3203 42.5601Z" fill="#711F50"/>
<path d="M21.3594 21.2C28.3818 21.2 35.4042 21.2 42.6394 21.2C42.6394 21.2396 42.6394 21.2792 42.6394 21.32C35.617 21.32 28.5946 21.32 21.3594 21.32C21.3594 21.2804 21.3594 21.2408 21.3594 21.2Z" fill="#B11A32"/>
<path d="M42.5605 42.6799C42.6001 42.6799 42.6397 42.6799 42.6805 42.6799C42.6805 49.1215 42.6805 55.5631 42.6805 62.1999C42.6409 62.2131 42.6013 62.2263 42.5605 62.2399C42.5605 55.7851 42.5605 49.3303 42.5605 42.6799Z" fill="#E3494E"/>
<path d="M21.3203 42.6799C21.3599 42.6799 21.3995 42.6799 21.4403 42.6799C21.4403 49.1347 21.4403 55.5895 21.4403 62.2399C21.4007 62.2267 21.3611 62.2135 21.3203 62.1999C21.3203 55.7583 21.3203 49.3167 21.3203 42.6799Z" fill="#E3494E"/>
<path d="M42.6797 42.5601C49.1345 42.5601 55.5893 42.5601 62.2397 42.5601C62.2265 42.5997 62.2133 42.6393 62.1997 42.6801C55.7581 42.6801 49.3165 42.6801 42.6797 42.6801C42.6797 42.6405 42.6797 42.6009 42.6797 42.5601Z" fill="#8396C4"/>
<path d="M1.75977 42.5601C8.21457 42.5601 14.6694 42.5601 21.3198 42.5601C21.3198 42.5997 21.3198 42.6393 21.3198 42.6801C14.8782 42.6801 8.43657 42.6801 1.79977 42.6801C1.78657 42.6405 1.77337 42.6009 1.75977 42.5601Z" fill="#8396C4"/>
<path d="M42.6797 21.2C49.1081 21.2 55.5365 21.2 62.1597 21.2C62.1729 21.2396 62.1861 21.2792 62.1997 21.32C55.7581 21.32 49.3165 21.32 42.6797 21.32C42.6797 21.2804 42.6797 21.2408 42.6797 21.2Z" fill="#CCD4E6"/>
<path d="M1.84078 21.2C8.26918 21.2 14.6976 21.2 21.3208 21.2C21.3208 21.2396 21.3208 21.2792 21.3208 21.32C14.8792 21.32 8.43758 21.32 1.80078 21.32C1.81398 21.2804 1.82718 21.2408 1.84078 21.2Z" fill="#CCD4E6"/>
<path d="M42.5605 1.76001C42.6001 1.77321 42.6397 1.78641 42.6805 1.80001C42.6805 8.24161 42.6805 14.6832 42.6805 21.32C42.6607 21.2606 42.6607 21.2606 42.6405 21.2C42.6141 21.2 42.5877 21.2 42.5605 21.2C42.5605 14.7848 42.5605 8.36961 42.5605 1.76001Z" fill="#E34A4E"/>
<path d="M21.4403 1.76001C21.4403 8.17521 21.4403 14.5904 21.4403 21.2C21.4139 21.2 21.3875 21.2 21.3603 21.2C21.3471 21.2396 21.3339 21.2792 21.3203 21.32C21.3203 14.8784 21.3203 8.43681 21.3203 1.80001C21.4003 1.76001 21.4003 1.76001 21.4403 1.76001Z" fill="#E3494E"/>
<path d="M29.2402 63.8799C31.0618 63.8799 32.8834 63.8799 34.7602 63.8799C34.7602 63.8931 34.7602 63.9063 34.7602 63.9199C33.9068 63.9917 33.0588 64.0127 32.2026 64.0103C32.034 64.0099 31.8655 64.0101 31.6969 64.0106C30.8745 64.0125 30.0599 63.9888 29.2402 63.9199C29.2402 63.9067 29.2402 63.8935 29.2402 63.8799Z" fill="#F3B2B4"/>
<path d="M46.7598 29.8401C47.4198 29.8401 48.0798 29.8401 48.7598 29.8401C48.7598 29.8797 48.7598 29.9193 48.7598 29.9601C48.7334 29.9601 48.707 29.9601 48.6798 29.9601C48.6798 29.9997 48.6798 30.0393 48.6798 30.0801C48.6402 30.0801 48.6006 30.0801 48.5598 30.0801C48.5598 30.0405 48.5598 30.0009 48.5598 29.9601C47.9658 29.9601 47.3718 29.9601 46.7598 29.9601C46.7598 29.9205 46.7598 29.8809 46.7598 29.8401Z" fill="#677FB7"/>
<path d="M15.2402 29.8401C15.9002 29.8401 16.5602 29.8401 17.2402 29.8401C17.2402 29.8797 17.2402 29.9193 17.2402 29.9601C16.6462 29.9601 16.0522 29.9601 15.4402 29.9601C15.4402 29.9997 15.4402 30.0393 15.4402 30.0801C15.4006 30.0801 15.361 30.0801 15.3202 30.0801C15.3202 30.0405 15.3202 30.0009 15.3202 29.9601C15.2938 29.9601 15.2674 29.9601 15.2402 29.9601C15.2402 29.9205 15.2402 29.8809 15.2402 29.8401Z" fill="#667EB6"/>
<path d="M35.4805 38.24C36.0745 38.24 36.6685 38.24 37.2805 38.24C37.2805 38.2796 37.2805 38.3192 37.2805 38.36C36.7657 38.36 36.2509 38.36 35.7205 38.36C35.7205 38.3864 35.7205 38.4128 35.7205 38.44C35.7601 38.44 35.7997 38.44 35.8405 38.44C35.8405 38.4928 35.8405 38.5456 35.8405 38.6C35.8009 38.6 35.7613 38.6 35.7205 38.6C35.7205 38.5604 35.7205 38.5208 35.7205 38.48C35.6809 38.48 35.6413 38.48 35.6005 38.48C35.6005 38.4404 35.6005 38.4008 35.6005 38.36C35.5609 38.36 35.5213 38.36 35.4805 38.36C35.4805 38.3204 35.4805 38.2808 35.4805 38.24Z" fill="#E7EBF4"/>
<path d="M43.6406 29.8401C44.2742 29.8401 44.9078 29.8401 45.5606 29.8401C45.5606 29.8797 45.5606 29.9193 45.5606 29.9601C45.0062 29.9601 44.4518 29.9601 43.8806 29.9601C43.8806 29.9997 43.8806 30.0393 43.8806 30.0801C43.8278 30.0801 43.775 30.0801 43.7206 30.0801C43.7206 30.0405 43.7206 30.0009 43.7206 29.9601C43.6942 29.9601 43.6678 29.9601 43.6406 29.9601C43.6406 29.9205 43.6406 29.8809 43.6406 29.8401Z" fill="#647DB5"/>
<path d="M18.4395 29.8401C19.0731 29.8401 19.7067 29.8401 20.3595 29.8401C20.3595 29.8797 20.3595 29.9193 20.3595 29.9601C20.3331 29.9601 20.3067 29.9601 20.2795 29.9601C20.2795 29.9997 20.2795 30.0393 20.2795 30.0801C20.2267 30.0801 20.1739 30.0801 20.1195 30.0801C20.1195 30.0405 20.1195 30.0009 20.1195 29.9601C19.5651 29.9601 19.0107 29.9601 18.4395 29.9601C18.4395 29.9205 18.4395 29.8809 18.4395 29.8401Z" fill="#657EB6"/>
<path d="M32.5996 23.96C33.2332 23.96 33.8668 23.96 34.5196 23.96C34.5196 23.9996 34.5196 24.0392 34.5196 24.08C33.886 24.08 33.2524 24.08 32.5996 24.08C32.5996 24.0404 32.5996 24.0008 32.5996 23.96Z" fill="#7086BB"/>
<path d="M29.4805 23.96C30.1141 23.96 30.7477 23.96 31.4005 23.96C31.4005 23.9996 31.4005 24.0392 31.4005 24.08C30.7669 24.08 30.1333 24.08 29.4805 24.08C29.4805 24.0404 29.4805 24.0008 29.4805 23.96Z" fill="#6F86BB"/>
<path d="M16.7592 31.04C16.7724 31.04 16.7856 31.04 16.7992 31.04C16.7992 31.1984 16.7992 31.3568 16.7992 31.52C16.7596 31.52 16.72 31.52 16.6792 31.52C16.6792 31.5992 16.6792 31.6784 16.6792 31.76C16.6396 31.76 16.6 31.76 16.5592 31.76C16.5597 31.7846 16.5601 31.8092 16.5606 31.8346C16.561 31.8669 16.5613 31.8992 16.5617 31.9325C16.5622 31.9646 16.5626 31.9966 16.5631 32.0296C16.5592 32.12 16.5592 32.12 16.5192 32.24C16.4928 32.24 16.4664 32.24 16.4392 32.24C16.4392 32.3588 16.4392 32.4776 16.4392 32.6C16.3996 32.6 16.36 32.6 16.3192 32.6C16.3192 32.6396 16.3192 32.6792 16.3192 32.72C16.3588 32.72 16.3984 32.72 16.4392 32.72C16.4392 32.7596 16.4392 32.7992 16.4392 32.84C16.36 32.84 16.2808 32.84 16.1992 32.84C16.1992 32.8004 16.1992 32.7608 16.1992 32.72C16.2256 32.72 16.252 32.72 16.2792 32.72C16.2792 32.6408 16.2792 32.5616 16.2792 32.48C16.3188 32.48 16.3584 32.48 16.3992 32.48C16.3988 32.4554 16.3983 32.4308 16.3978 32.4055C16.3975 32.3732 16.3971 32.3408 16.3967 32.3075C16.3963 32.2755 16.3958 32.2435 16.3953 32.2105C16.3992 32.12 16.3992 32.12 16.4392 32C16.4656 32 16.492 32 16.5192 32C16.5192 31.8812 16.5192 31.7624 16.5192 31.64C16.5588 31.64 16.5984 31.64 16.6392 31.64C16.6392 31.5212 16.6392 31.4024 16.6392 31.28C16.6788 31.28 16.7184 31.28 16.7592 31.28C16.7592 31.2008 16.7592 31.1216 16.7592 31.04Z" fill="#6B83B8"/>
<path d="M47.1992 30.9199C47.2388 30.9199 47.2784 30.9199 47.3192 30.9199C47.3192 30.9595 47.3192 30.9991 47.3192 31.0399C47.2928 31.0399 47.2664 31.0399 47.2392 31.0399C47.2392 31.1191 47.2392 31.1983 47.2392 31.2799C47.2788 31.2799 47.3184 31.2799 47.3592 31.2799C47.3592 31.3987 47.3592 31.5175 47.3592 31.6399C47.3988 31.6399 47.4384 31.6399 47.4792 31.6399C47.4792 31.7587 47.4792 31.8775 47.4792 31.9999C47.5056 31.9999 47.532 31.9999 47.5592 31.9999C47.5724 32.1187 47.5856 32.2375 47.5992 32.3599C47.5794 32.3005 47.5794 32.3005 47.5592 32.2399C47.5328 32.2399 47.5064 32.2399 47.4792 32.2399C47.4408 32.1246 47.435 32.052 47.4367 31.9324C47.4371 31.9001 47.4374 31.8678 47.4378 31.8345C47.4385 31.7976 47.4385 31.7976 47.4392 31.7599C47.3996 31.7599 47.36 31.7599 47.3192 31.7599C47.3192 31.6807 47.3192 31.6015 47.3192 31.5199C47.2796 31.5199 47.24 31.5199 47.1992 31.5199C47.1992 31.3219 47.1992 31.1239 47.1992 30.9199Z" fill="#5D77B2"/>
<path d="M17.7202 28.1599C17.7334 28.1599 17.7466 28.1599 17.7602 28.1599C17.7602 28.3183 17.7602 28.4767 17.7602 28.6399C17.747 28.6003 17.7338 28.5607 17.7202 28.5199C17.6938 28.5199 17.6674 28.5199 17.6402 28.5199C17.6402 28.6387 17.6402 28.7575 17.6402 28.8799C17.6006 28.8799 17.561 28.8799 17.5202 28.8799C17.5202 28.9987 17.5202 29.1175 17.5202 29.2399C17.4806 29.2399 17.441 29.2399 17.4002 29.2399C17.4002 29.3587 17.4002 29.4775 17.4002 29.5999C17.3606 29.5999 17.321 29.5999 17.2802 29.5999C17.2802 29.6791 17.2802 29.7583 17.2802 29.8399C17.267 29.8399 17.2538 29.8399 17.2402 29.8399C17.2402 29.7211 17.2402 29.6023 17.2402 29.4799C17.2798 29.4799 17.3194 29.4799 17.3602 29.4799C17.3602 29.3611 17.3602 29.2423 17.3602 29.1199C17.3998 29.1199 17.4394 29.1199 17.4802 29.1199C17.4802 29.0011 17.4802 28.8823 17.4802 28.7599C17.5198 28.7599 17.5594 28.7599 17.6002 28.7599C17.6002 28.6411 17.6002 28.5223 17.6002 28.3999C17.6398 28.3999 17.6794 28.3999 17.7202 28.3999C17.7202 28.3207 17.7202 28.2415 17.7202 28.1599Z" fill="#8196C3"/>
<path d="M46.2402 28.1599C46.2534 28.1995 46.2666 28.2391 46.2802 28.2799C46.3066 28.2799 46.333 28.2799 46.3602 28.2799C46.3987 28.3952 46.4045 28.4679 46.4027 28.5874C46.4024 28.6197 46.402 28.6521 46.4016 28.6854C46.4012 28.71 46.4007 28.7346 46.4002 28.7599C46.4398 28.7599 46.4794 28.7599 46.5202 28.7599C46.5202 28.8787 46.5202 28.9975 46.5202 29.1199C46.5598 29.1199 46.5994 29.1199 46.6402 29.1199C46.6402 29.2387 46.6402 29.3575 46.6402 29.4799C46.6798 29.4799 46.7194 29.4799 46.7602 29.4799C46.7602 29.5987 46.7602 29.7175 46.7602 29.8399C46.747 29.8399 46.7338 29.8399 46.7202 29.8399C46.7202 29.7607 46.7202 29.6815 46.7202 29.5999C46.6806 29.5999 46.641 29.5999 46.6002 29.5999C46.6002 29.4811 46.6002 29.3623 46.6002 29.2399C46.5606 29.2399 46.521 29.2399 46.4802 29.2399C46.4802 29.1211 46.4802 29.0023 46.4802 28.8799C46.4406 28.8799 46.401 28.8799 46.3602 28.8799C46.3602 28.7611 46.3602 28.6423 46.3602 28.5199C46.3338 28.5199 46.3074 28.5199 46.2802 28.5199C46.267 28.4011 46.2538 28.2823 46.2402 28.1599Z" fill="#8195C3"/>
<path d="M37.2794 38C37.319 38 37.3586 38 37.3994 38C37.3994 38.0792 37.3994 38.1584 37.3994 38.24C36.7658 38.24 36.1322 38.24 35.4794 38.24C35.4794 38.2796 35.4794 38.3192 35.4794 38.36C35.4398 38.36 35.4002 38.36 35.3594 38.36C35.3594 38.3072 35.3594 38.2544 35.3594 38.2C35.993 38.2 36.6266 38.2 37.2794 38.2C37.2794 38.134 37.2794 38.068 37.2794 38Z" fill="#3C5BA3"/>
<path d="M26.5996 38C26.6392 38 26.6788 38 26.7196 38C26.7196 38.066 26.7196 38.132 26.7196 38.2C27.3532 38.2 27.9868 38.2 28.6396 38.2C28.6396 38.2528 28.6396 38.3056 28.6396 38.36C28.6 38.36 28.5604 38.36 28.5196 38.36C28.5196 38.3204 28.5196 38.2808 28.5196 38.24C27.886 38.24 27.2524 38.24 26.5996 38.24C26.5996 38.1608 26.5996 38.0816 26.5996 38Z" fill="#3C5BA3"/>
<path d="M38.3594 38C38.399 38 38.4386 38 38.4794 38C38.4794 38.066 38.4794 38.132 38.4794 38.2C39.113 38.2 39.7466 38.2 40.3994 38.2C40.3994 38.2528 40.3994 38.3056 40.3994 38.36C40.3598 38.36 40.3202 38.36 40.2794 38.36C40.2794 38.3204 40.2794 38.2808 40.2794 38.24C39.6722 38.24 39.065 38.24 38.4394 38.24C38.4394 38.2004 38.4394 38.1608 38.4394 38.12C38.413 38.12 38.3866 38.12 38.3594 38.12C38.3594 38.0804 38.3594 38.0408 38.3594 38Z" fill="#546FAE"/>
<path d="M25.5196 38C25.5592 38 25.5988 38 25.6396 38C25.6396 38.0396 25.6396 38.0792 25.6396 38.12C25.6132 38.12 25.5868 38.12 25.5596 38.12C25.5596 38.1596 25.5596 38.1992 25.5596 38.24C24.9524 38.24 24.3452 38.24 23.7196 38.24C23.7196 38.2796 23.7196 38.3192 23.7196 38.36C23.68 38.36 23.6404 38.36 23.5996 38.36C23.5996 38.3072 23.5996 38.2544 23.5996 38.2C24.2332 38.2 24.8668 38.2 25.5196 38.2C25.5196 38.134 25.5196 38.068 25.5196 38Z" fill="#5470AE"/>
<path d="M39.1992 40.52C39.2388 40.52 39.2784 40.52 39.3192 40.52C39.3192 40.6388 39.3192 40.7576 39.3192 40.88C39.3588 40.88 39.3984 40.88 39.4392 40.88C39.4392 40.9988 39.4392 41.1176 39.4392 41.24C39.3996 41.24 39.36 41.24 39.3192 41.24C39.3192 41.2004 39.3192 41.1608 39.3192 41.12C39.2796 41.12 39.24 41.12 39.1992 41.12C39.1992 41.0804 39.1992 41.0408 39.1992 41C39.2256 41 39.252 41 39.2792 41C39.2792 40.8812 39.2792 40.7624 39.2792 40.64C39.2528 40.64 39.2264 40.64 39.1992 40.64C39.1992 40.6004 39.1992 40.5608 39.1992 40.52Z" fill="#A3B1D3"/>
<path d="M24.6805 40.52C24.7201 40.52 24.7597 40.52 24.8005 40.52C24.8005 40.5596 24.8005 40.5992 24.8005 40.64C24.7741 40.64 24.7477 40.64 24.7205 40.64C24.7205 40.7588 24.7205 40.8776 24.7205 41C24.7469 41 24.7733 41 24.8005 41C24.8005 41.0396 24.8005 41.0792 24.8005 41.12C24.7609 41.12 24.7213 41.12 24.6805 41.12C24.6805 41.1596 24.6805 41.1992 24.6805 41.24C24.6409 41.24 24.6013 41.24 24.5605 41.24C24.5605 41.1212 24.5605 41.0024 24.5605 40.88C24.6001 40.88 24.6397 40.88 24.6805 40.88C24.6805 40.7612 24.6805 40.6424 24.6805 40.52Z" fill="#A5B3D4"/>
<path d="M38.8398 39.3201C38.8794 39.3201 38.919 39.3201 38.9598 39.3201C38.9598 39.4785 38.9598 39.6369 38.9598 39.8001C38.9994 39.8001 39.039 39.8001 39.0798 39.8001C39.0798 39.8793 39.0798 39.9585 39.0798 40.0401C39.027 40.0401 38.9742 40.0401 38.9198 40.0401C38.9198 39.9213 38.9198 39.8025 38.9198 39.6801C38.8934 39.6801 38.867 39.6801 38.8398 39.6801C38.8398 39.5613 38.8398 39.4425 38.8398 39.3201Z" fill="#B1BDDA"/>
<path d="M25.0399 39.3201C25.0795 39.3201 25.1191 39.3201 25.1599 39.3201C25.1599 39.4389 25.1599 39.5577 25.1599 39.6801C25.1335 39.6801 25.1071 39.6801 25.0799 39.6801C25.0799 39.7989 25.0799 39.9177 25.0799 40.0401C25.0271 40.0401 24.9743 40.0401 24.9199 40.0401C24.9199 39.9609 24.9199 39.8817 24.9199 39.8001C24.9595 39.8001 24.9991 39.8001 25.0399 39.8001C25.0399 39.6417 25.0399 39.4833 25.0399 39.3201Z" fill="#B1BEDA"/>
<path d="M45.5609 29.8401C45.6005 29.8401 45.6401 29.8401 45.6809 29.8401C45.6677 29.8929 45.6545 29.9457 45.6409 30.0001C45.0601 30.0001 44.4793 30.0001 43.8809 30.0001C43.8809 29.9869 43.8809 29.9737 43.8809 29.9601C44.4353 29.9601 44.9897 29.9601 45.5609 29.9601C45.5609 29.9205 45.5609 29.8809 45.5609 29.8401Z" fill="#E1E6F1"/>
<path d="M18.3203 29.8401C18.3599 29.8401 18.3995 29.8401 18.4403 29.8401C18.4403 29.8797 18.4403 29.9193 18.4403 29.9601C18.9947 29.9601 19.5491 29.9601 20.1203 29.9601C20.1203 29.9733 20.1203 29.9865 20.1203 30.0001C19.5395 30.0001 18.9587 30.0001 18.3603 30.0001C18.3471 29.9473 18.3339 29.8945 18.3203 29.8401Z" fill="#E1E6F1"/>
<path d="M32.5996 24.0801C33.1936 24.0801 33.7876 24.0801 34.3996 24.0801C34.3996 24.1197 34.3996 24.1593 34.3996 24.2001C34.36 24.2001 34.3204 24.2001 34.2796 24.2001C34.2796 24.1737 34.2796 24.1473 34.2796 24.1201C33.7252 24.1201 33.1708 24.1201 32.5996 24.1201C32.5996 24.1069 32.5996 24.0937 32.5996 24.0801Z" fill="#D9DFED"/>
<path d="M29.5996 24.0801C30.1936 24.0801 30.7876 24.0801 31.3996 24.0801C31.3996 24.0933 31.3996 24.1065 31.3996 24.1201C30.8452 24.1201 30.2908 24.1201 29.7196 24.1201C29.7196 24.1465 29.7196 24.1729 29.7196 24.2001C29.68 24.2001 29.6404 24.2001 29.5996 24.2001C29.5996 24.1605 29.5996 24.1209 29.5996 24.0801Z" fill="#D8DEEC"/>
<path d="M27.2001 39.2C27.2397 39.2 27.2793 39.2 27.3201 39.2C27.3201 39.2396 27.3201 39.2792 27.3201 39.32C27.2937 39.32 27.2673 39.32 27.2401 39.32C27.2401 39.4652 27.2401 39.6104 27.2401 39.76C27.2665 39.76 27.2929 39.76 27.3201 39.76C27.3201 39.8128 27.3201 39.8656 27.3201 39.92C27.2805 39.92 27.2409 39.92 27.2001 39.92C27.2001 39.8012 27.2001 39.6824 27.2001 39.56C27.1605 39.56 27.1209 39.56 27.0801 39.56C27.0801 39.4808 27.0801 39.4016 27.0801 39.32C27.1197 39.32 27.1593 39.32 27.2001 39.32C27.2001 39.2804 27.2001 39.2408 27.2001 39.2Z" fill="#4260A5"/>
<path d="M45.0791 30.9199C45.1187 30.9199 45.1583 30.9199 45.1991 30.9199C45.1991 31.1179 45.1991 31.3159 45.1991 31.5199C45.1595 31.5199 45.1199 31.5199 45.0791 31.5199C45.0659 31.5595 45.0527 31.5991 45.0391 31.6399C45.0391 31.5211 45.0391 31.4023 45.0391 31.2799C45.0787 31.2799 45.1183 31.2799 45.1591 31.2799C45.1591 31.2007 45.1591 31.1215 45.1591 31.0399C45.1327 31.0399 45.1063 31.0399 45.0791 31.0399C45.0791 31.0003 45.0791 30.9607 45.0791 30.9199Z" fill="#7087BB"/>
<path d="M44.8007 32.3601C44.8139 32.3601 44.8271 32.3601 44.8407 32.3601C44.8407 32.4393 44.8407 32.5185 44.8407 32.6001C44.8803 32.6001 44.9199 32.6001 44.9607 32.6001C44.9607 32.6397 44.9607 32.6793 44.9607 32.7201C44.9211 32.7201 44.8815 32.7201 44.8407 32.7201C44.8407 32.7597 44.8407 32.7993 44.8407 32.8401C44.8011 32.8401 44.7615 32.8401 44.7207 32.8401C44.7207 32.7213 44.7207 32.6025 44.7207 32.4801C44.7471 32.4801 44.7735 32.4801 44.8007 32.4801C44.8007 32.4405 44.8007 32.4009 44.8007 32.3601Z" fill="#C6CFE4"/>
<path d="M19.1591 32.3601C19.1723 32.3997 19.1855 32.4393 19.1991 32.4801C19.2255 32.4801 19.2519 32.4801 19.2791 32.4801C19.2791 32.5989 19.2791 32.7177 19.2791 32.8401C19.2395 32.8401 19.1999 32.8401 19.1591 32.8401C19.1591 32.8005 19.1591 32.7609 19.1591 32.7201C19.1195 32.7201 19.0799 32.7201 19.0391 32.7201C19.0391 32.6805 19.0391 32.6409 19.0391 32.6001C19.0787 32.6001 19.1183 32.6001 19.1591 32.6001C19.1591 32.5209 19.1591 32.4417 19.1591 32.3601Z" fill="#C4CDE3"/>
<path d="M37.7598 36.4399C37.839 36.4399 37.9182 36.4399 37.9998 36.4399C37.9998 36.5191 37.9998 36.5983 37.9998 36.6799C37.9206 36.6799 37.8414 36.6799 37.7598 36.6799C37.7598 36.6007 37.7598 36.5215 37.7598 36.4399Z" fill="#B0BCD9"/>
<path d="M26 36.4399C26.0792 36.4399 26.1584 36.4399 26.24 36.4399C26.24 36.5191 26.24 36.5983 26.24 36.6799C26.1608 36.6799 26.0816 36.6799 26 36.6799C26 36.6007 26 36.5215 26 36.4399Z" fill="#B0BCD9"/>
<path d="M16.3992 32.3601C16.4124 32.3601 16.4256 32.3601 16.4392 32.3601C16.4392 32.4393 16.4392 32.5185 16.4392 32.6001C16.3996 32.6001 16.36 32.6001 16.3192 32.6001C16.3192 32.6397 16.3192 32.6793 16.3192 32.7201C16.3588 32.7201 16.3984 32.7201 16.4392 32.7201C16.4392 32.7597 16.4392 32.7993 16.4392 32.8401C16.36 32.8401 16.2808 32.8401 16.1992 32.8401C16.1992 32.8005 16.1992 32.7609 16.1992 32.7201C16.2256 32.7201 16.252 32.7201 16.2792 32.7201C16.2792 32.6409 16.2792 32.5617 16.2792 32.4801C16.3188 32.4801 16.3584 32.4801 16.3992 32.4801C16.3992 32.4405 16.3992 32.4009 16.3992 32.3601Z" fill="#92A3CB"/>
<path d="M17.8398 28.1599C17.853 28.1995 17.8662 28.2391 17.8798 28.2799C17.9062 28.2799 17.9326 28.2799 17.9598 28.2799C17.9983 28.3952 18.0041 28.4679 18.0023 28.5874C18.002 28.6197 18.0016 28.6521 18.0012 28.6854C18.0008 28.71 18.0003 28.7346 17.9998 28.7599C18.0262 28.7599 18.0526 28.7599 18.0798 28.7599C18.0798 28.7995 18.0798 28.8391 18.0798 28.8799C18.0402 28.8799 18.0006 28.8799 17.9598 28.8799C17.9598 28.7611 17.9598 28.6423 17.9598 28.5199C17.9334 28.5199 17.907 28.5199 17.8798 28.5199C17.8666 28.4011 17.8534 28.2823 17.8398 28.1599Z" fill="#7289BC"/>
<path d="M31.8809 22.28C31.9601 22.28 32.0393 22.28 32.1209 22.28C32.1209 22.3592 32.1209 22.4384 32.1209 22.52C32.0417 22.52 31.9625 22.52 31.8809 22.52C31.8809 22.4408 31.8809 22.3616 31.8809 22.28Z" fill="#D0D7E9"/>
<path d="M47.5605 32.3601C47.5737 32.3997 47.5869 32.4393 47.6005 32.4801C47.6269 32.4801 47.6533 32.4801 47.6805 32.4801C47.6805 32.5989 47.6805 32.7177 47.6805 32.8401C47.6541 32.8401 47.6277 32.8401 47.6005 32.8401C47.6005 32.8005 47.6005 32.7609 47.6005 32.7201C47.5609 32.7201 47.5213 32.7201 47.4805 32.7201C47.4805 32.6805 47.4805 32.6409 47.4805 32.6001C47.5069 32.6001 47.5333 32.6001 47.5605 32.6001C47.5605 32.5209 47.5605 32.4417 47.5605 32.3601Z" fill="#D1D8E9"/>
<path d="M45.8798 28.76C45.9194 28.76 45.959 28.76 45.9998 28.76C45.9998 28.7996 45.9998 28.8392 45.9998 28.88C45.9734 28.88 45.947 28.88 45.9198 28.88C45.9198 28.9988 45.9198 29.1176 45.9198 29.24C45.8802 29.24 45.8406 29.24 45.7998 29.24C45.7998 29.3192 45.7998 29.3984 45.7998 29.48C45.7866 29.48 45.7734 29.48 45.7598 29.48C45.7598 29.3612 45.7598 29.2424 45.7598 29.12C45.7994 29.12 45.839 29.12 45.8798 29.12C45.8798 29.0012 45.8798 28.8824 45.8798 28.76Z" fill="#6780B7"/>
<path d="M44.6805 32.48C44.6937 32.48 44.7069 32.48 44.7205 32.48C44.7205 32.6384 44.7205 32.7968 44.7205 32.96C44.6677 32.96 44.6149 32.96 44.5605 32.96C44.5605 32.8808 44.5605 32.8016 44.5605 32.72C44.6001 32.72 44.6397 32.72 44.6805 32.72C44.6805 32.6408 44.6805 32.5616 44.6805 32.48Z" fill="#3959A1"/>
<path d="M19.2793 32.48C19.2925 32.48 19.3057 32.48 19.3193 32.48C19.3193 32.5592 19.3193 32.6384 19.3193 32.72C19.3589 32.72 19.3985 32.72 19.4393 32.72C19.4393 32.7992 19.4393 32.8784 19.4393 32.96C19.3865 32.96 19.3337 32.96 19.2793 32.96C19.2793 32.8016 19.2793 32.6432 19.2793 32.48Z" fill="#3959A1"/>
<path d="M46.12 28.1599C46.1332 28.1599 46.1464 28.1599 46.16 28.1599C46.1468 28.2787 46.1336 28.3975 46.12 28.5199C46.0936 28.5199 46.0672 28.5199 46.04 28.5199C46.04 28.5991 46.04 28.6783 46.04 28.7599C46.0268 28.7599 46.0136 28.7599 46 28.7599C46 28.6015 46 28.4431 46 28.2799C46.0396 28.2799 46.0792 28.2799 46.12 28.2799C46.12 28.2403 46.12 28.2007 46.12 28.1599Z" fill="#607AB4"/>
<path d="M47.1992 30.9199C47.2388 30.9199 47.2784 30.9199 47.3192 30.9199C47.3192 30.9595 47.3192 30.9991 47.3192 31.0399C47.2928 31.0399 47.2664 31.0399 47.2392 31.0399C47.2392 31.1587 47.2392 31.2775 47.2392 31.3999C47.2656 31.3999 47.292 31.3999 47.3192 31.3999C47.3192 31.4395 47.3192 31.4791 47.3192 31.5199C47.2796 31.5199 47.24 31.5199 47.1992 31.5199C47.1992 31.3219 47.1992 31.1239 47.1992 30.9199Z" fill="#9DADD1"/>
<path d="M18.8008 30.9199C18.8404 30.9199 18.88 30.9199 18.9208 30.9199C18.9208 30.9595 18.9208 30.9991 18.9208 31.0399C18.8944 31.0399 18.868 31.0399 18.8408 31.0399C18.8408 31.1587 18.8408 31.2775 18.8408 31.3999C18.8672 31.3999 18.8936 31.3999 18.9208 31.3999C18.9208 31.4395 18.9208 31.4791 18.9208 31.5199C18.8812 31.5199 18.8416 31.5199 18.8008 31.5199C18.8008 31.3219 18.8008 31.1239 18.8008 30.9199Z" fill="#8B9EC8"/>
<path d="M30.4395 26.72C30.4791 26.72 30.5187 26.72 30.5595 26.72C30.5595 26.7596 30.5595 26.7992 30.5595 26.84C30.5991 26.84 30.6387 26.84 30.6795 26.84C30.6795 26.8796 30.6795 26.9192 30.6795 26.96C30.6003 26.96 30.5211 26.96 30.4395 26.96C30.4395 26.8808 30.4395 26.8016 30.4395 26.72Z" fill="#899CC7"/>
<path d="M38 40.1599C38.0396 40.1599 38.0792 40.1599 38.12 40.1599C38.12 40.1863 38.12 40.2127 38.12 40.2399C38.1992 40.2399 38.2784 40.2399 38.36 40.2399C38.36 40.2927 38.36 40.3455 38.36 40.3999C38.3204 40.3999 38.2808 40.3999 38.24 40.3999C38.24 40.3603 38.24 40.3207 38.24 40.2799C38.1608 40.2799 38.0816 40.2799 38 40.2799C38 40.2403 38 40.2007 38 40.1599Z" fill="#A9B6D6"/>
<path d="M47.4395 31.8799C47.4527 31.9195 47.4659 31.9591 47.4795 31.9999C47.5059 31.9999 47.5323 31.9999 47.5595 31.9999C47.5727 32.1187 47.5859 32.2375 47.5995 32.3599C47.5863 32.3203 47.5731 32.2807 47.5595 32.2399C47.5331 32.2399 47.5067 32.2399 47.4795 32.2399C47.4663 32.1211 47.4531 32.0023 47.4395 31.8799Z" fill="#7B90C1"/>
<path d="M17.7196 28.1599C17.7328 28.1599 17.746 28.1599 17.7596 28.1599C17.7596 28.3183 17.7596 28.4767 17.7596 28.6399C17.7464 28.6003 17.7332 28.5607 17.7196 28.5199C17.6932 28.5199 17.6668 28.5199 17.6396 28.5199C17.6264 28.5595 17.6132 28.5991 17.5996 28.6399C17.5996 28.5607 17.5996 28.4815 17.5996 28.3999C17.6392 28.3999 17.6788 28.3999 17.7196 28.3999C17.7196 28.3207 17.7196 28.2415 17.7196 28.1599Z" fill="#92A4CB"/>
<path d="M46.2402 28.1599C46.2534 28.1995 46.2666 28.2391 46.2802 28.2799C46.3066 28.2799 46.333 28.2799 46.3602 28.2799C46.3734 28.3987 46.3866 28.5175 46.4002 28.6399C46.387 28.6003 46.3738 28.5607 46.3602 28.5199C46.3338 28.5199 46.3074 28.5199 46.2802 28.5199C46.267 28.4011 46.2538 28.2823 46.2402 28.1599Z" fill="#6A82B8"/>
<path d="M36.3203 41C36.3599 41 36.3995 41 36.4403 41C36.4403 41.0264 36.4403 41.0528 36.4403 41.08C36.4799 41.0932 36.5195 41.1064 36.5603 41.12C36.5207 41.12 36.4811 41.12 36.4403 41.12C36.4403 41.1596 36.4403 41.1992 36.4403 41.24C36.4007 41.24 36.3611 41.24 36.3203 41.24C36.3203 41.1608 36.3203 41.0816 36.3203 41Z" fill="#8D9FC9"/>
<path d="M27.5595 41C27.5991 41 27.6387 41 27.6795 41C27.6795 41.0792 27.6795 41.1584 27.6795 41.24C27.6399 41.24 27.6003 41.24 27.5595 41.24C27.5595 41.2004 27.5595 41.1608 27.5595 41.12C27.5199 41.1068 27.4803 41.0936 27.4395 41.08C27.4791 41.08 27.5187 41.08 27.5595 41.08C27.5595 41.0536 27.5595 41.0272 27.5595 41Z" fill="#8D9FC9"/>
<path d="M39.3203 40.8799C39.3599 40.8799 39.3995 40.8799 39.4403 40.8799C39.4403 40.9987 39.4403 41.1175 39.4403 41.2399C39.4007 41.2399 39.3611 41.2399 39.3203 41.2399C39.3203 41.2003 39.3203 41.1607 39.3203 41.1199C39.3467 41.1199 39.3731 41.1199 39.4003 41.1199C39.4003 41.0803 39.4003 41.0407 39.4003 40.9999C39.3739 40.9999 39.3475 40.9999 39.3203 40.9999C39.3203 40.9603 39.3203 40.9207 39.3203 40.8799Z" fill="#6D85BA"/>
<path d="M24.5605 40.8799C24.6001 40.8799 24.6397 40.8799 24.6805 40.8799C24.6805 40.9195 24.6805 40.9591 24.6805 40.9999C24.6541 40.9999 24.6277 40.9999 24.6005 40.9999C24.6005 41.0395 24.6005 41.0791 24.6005 41.1199C24.6269 41.1199 24.6533 41.1199 24.6805 41.1199C24.6805 41.1595 24.6805 41.1991 24.6805 41.2399C24.6409 41.2399 24.6013 41.2399 24.5605 41.2399C24.5605 41.1211 24.5605 41.0023 24.5605 40.8799Z" fill="#6E85BA"/>
<path d="M35.3594 38.2C35.5178 38.2 35.6762 38.2 35.8394 38.2C35.8394 38.2132 35.8394 38.2264 35.8394 38.24C35.7206 38.24 35.6018 38.24 35.4794 38.24C35.4794 38.2796 35.4794 38.3192 35.4794 38.36C35.4398 38.36 35.4002 38.36 35.3594 38.36C35.3594 38.3072 35.3594 38.2544 35.3594 38.2Z" fill="#516DAD"/>
<path d="M28.1602 38.2C28.3186 38.2 28.477 38.2 28.6402 38.2C28.6402 38.2528 28.6402 38.3056 28.6402 38.36C28.6006 38.36 28.561 38.36 28.5202 38.36C28.5202 38.3204 28.5202 38.2808 28.5202 38.24C28.4014 38.24 28.2826 38.24 28.1602 38.24C28.1602 38.2268 28.1602 38.2136 28.1602 38.2Z" fill="#516EAD"/>
<path d="M18.1992 29.3601C18.2124 29.3997 18.2256 29.4393 18.2392 29.4801C18.2788 29.4801 18.3184 29.4801 18.3592 29.4801C18.3592 29.5989 18.3592 29.7177 18.3592 29.8401C18.346 29.8401 18.3328 29.8401 18.3192 29.8401C18.3192 29.7609 18.3192 29.6817 18.3192 29.6001C18.2796 29.6001 18.24 29.6001 18.1992 29.6001C18.1992 29.5209 18.1992 29.4417 18.1992 29.3601Z" fill="#6880B8"/>
<path d="M34.0399 24.3201C34.0795 24.3201 34.1191 24.3201 34.1599 24.3201C34.1599 24.3729 34.1599 24.4257 34.1599 24.4801C34.1203 24.4801 34.0807 24.4801 34.0399 24.4801C34.0399 24.5065 34.0399 24.5329 34.0399 24.5601C34.0003 24.5601 33.9607 24.5601 33.9199 24.5601C33.9199 24.5205 33.9199 24.4809 33.9199 24.4401C33.9595 24.4401 33.9991 24.4401 34.0399 24.4401C34.0399 24.4005 34.0399 24.3609 34.0399 24.3201Z" fill="#2D4F9B"/>
<path d="M36.4395 40.6399C36.4791 40.6399 36.5187 40.6399 36.5595 40.6399C36.5595 40.7191 36.5595 40.7983 36.5595 40.8799C36.5199 40.8799 36.4803 40.8799 36.4395 40.8799C36.4395 40.8007 36.4395 40.7215 36.4395 40.6399Z" fill="#BEC9E0"/>
<path d="M27.4395 40.6399C27.4791 40.6399 27.5187 40.6399 27.5595 40.6399C27.5595 40.7191 27.5595 40.7983 27.5595 40.8799C27.5199 40.8799 27.4803 40.8799 27.4395 40.8799C27.4395 40.8007 27.4395 40.7215 27.4395 40.6399Z" fill="#BEC8E0"/>
<path d="M36.5605 40.28C36.6001 40.28 36.6397 40.28 36.6805 40.28C36.6805 40.3592 36.6805 40.4384 36.6805 40.52C36.6409 40.52 36.6013 40.52 36.5605 40.52C36.5605 40.4408 36.5605 40.3616 36.5605 40.28Z" fill="#C0CAE1"/>
<path d="M27.3203 40.28C27.3599 40.28 27.3995 40.28 27.4403 40.28C27.4403 40.3592 27.4403 40.4384 27.4403 40.52C27.4007 40.52 27.3611 40.52 27.3203 40.52C27.3203 40.4408 27.3203 40.3616 27.3203 40.28Z" fill="#C0CBE1"/>
<path d="M37.7598 40.04C37.839 40.04 37.9182 40.04 37.9998 40.04C37.9998 40.0796 37.9998 40.1192 37.9998 40.16C37.9206 40.16 37.8414 40.16 37.7598 40.16C37.7598 40.1204 37.7598 40.0808 37.7598 40.04Z" fill="#BCC7DF"/>
<path d="M27.1992 39.9199C27.2388 39.9199 27.2784 39.9199 27.3192 39.9199C27.3192 39.9991 27.3192 40.0783 27.3192 40.1599C27.2796 40.1599 27.24 40.1599 27.1992 40.1599C27.1992 40.0807 27.1992 40.0015 27.1992 39.9199Z" fill="#C5CEE4"/>
<path d="M26 40.04C26.0792 40.04 26.1584 40.04 26.24 40.04C26.24 40.0796 26.24 40.1192 26.24 40.16C26.1608 40.16 26.0816 40.16 26 40.16C26 40.1204 26 40.0808 26 40.04Z" fill="#BCC7DF"/>
<path d="M36.6797 39.8C36.7193 39.8 36.7589 39.8 36.7997 39.8C36.7997 39.8792 36.7997 39.9584 36.7997 40.04C36.7601 40.04 36.7205 40.04 36.6797 40.04C36.6797 39.9608 36.6797 39.8816 36.6797 39.8Z" fill="#7A90C0"/>
<path d="M36.8008 39.5601C36.8404 39.5601 36.88 39.5601 36.9208 39.5601C36.9208 39.6393 36.9208 39.7185 36.9208 39.8001C36.8812 39.8001 36.8416 39.8001 36.8008 39.8001C36.8008 39.7209 36.8008 39.6417 36.8008 39.5601Z" fill="#CAD2E6"/>
<path d="M27.0801 39.5601C27.1197 39.5601 27.1593 39.5601 27.2001 39.5601C27.2001 39.6393 27.2001 39.7185 27.2001 39.8001C27.1605 39.8001 27.1209 39.8001 27.0801 39.8001C27.0801 39.7209 27.0801 39.6417 27.0801 39.5601Z" fill="#CAD2E6"/>
<path d="M36.8008 39.3201C36.8404 39.3201 36.88 39.3201 36.9208 39.3201C36.9208 39.3993 36.9208 39.4785 36.9208 39.5601C36.8812 39.5601 36.8416 39.5601 36.8008 39.5601C36.8008 39.4809 36.8008 39.4017 36.8008 39.3201Z" fill="#4D69AB"/>
<path d="M25.0391 39.3201C25.0787 39.3201 25.1183 39.3201 25.1591 39.3201C25.1591 39.3993 25.1591 39.4785 25.1591 39.5601C25.1195 39.5601 25.0799 39.5601 25.0391 39.5601C25.0391 39.4809 25.0391 39.4017 25.0391 39.3201Z" fill="#6B83B9"/>
<path d="M38.8398 39.3201C38.8794 39.3201 38.919 39.3201 38.9598 39.3201C38.9598 39.3993 38.9598 39.4785 38.9598 39.5601C38.9202 39.5601 38.8806 39.5601 38.8398 39.5601C38.8398 39.4809 38.8398 39.4017 38.8398 39.3201Z" fill="#6E85BA"/>
<path d="M27.0801 39.3201C27.1197 39.3201 27.1593 39.3201 27.2001 39.3201C27.2001 39.3993 27.2001 39.4785 27.2001 39.5601C27.1605 39.5601 27.1209 39.5601 27.0801 39.5601C27.0801 39.4809 27.0801 39.4017 27.0801 39.3201Z" fill="#4F6BAB"/>
<path d="M37.2793 38C37.3189 38 37.3585 38 37.3993 38C37.3993 38.0792 37.3993 38.1584 37.3993 38.24C37.3597 38.24 37.3201 38.24 37.2793 38.24C37.2793 38.1608 37.2793 38.0816 37.2793 38Z" fill="#99A9CE"/>
<path d="M26.5996 38C26.6392 38 26.6788 38 26.7196 38C26.7196 38.0792 26.7196 38.1584 26.7196 38.24C26.68 38.24 26.6404 38.24 26.5996 38.24C26.5996 38.1608 26.5996 38.0816 26.5996 38Z" fill="#97A8CE"/>
<path d="M37.4004 37.6399C37.44 37.6399 37.4796 37.6399 37.5204 37.6399C37.5204 37.7191 37.5204 37.7983 37.5204 37.8799C37.4808 37.8799 37.4412 37.8799 37.4004 37.8799C37.4004 37.8007 37.4004 37.7215 37.4004 37.6399Z" fill="#9CACD0"/>
<path d="M26.4805 37.6399C26.5201 37.6399 26.5597 37.6399 26.6005 37.6399C26.6005 37.7191 26.6005 37.7983 26.6005 37.8799C26.5609 37.8799 26.5213 37.8799 26.4805 37.8799C26.4805 37.8007 26.4805 37.7215 26.4805 37.6399Z" fill="#9BABD0"/>
<path d="M37.5195 37.28C37.5591 37.28 37.5987 37.28 37.6395 37.28C37.6395 37.3592 37.6395 37.4384 37.6395 37.52C37.5999 37.52 37.5603 37.52 37.5195 37.52C37.5195 37.4408 37.5195 37.3616 37.5195 37.28Z" fill="#A2B1D3"/>
<path d="M26.3594 37.28C26.399 37.28 26.4386 37.28 26.4794 37.28C26.4794 37.3592 26.4794 37.4384 26.4794 37.52C26.4398 37.52 26.4002 37.52 26.3594 37.52C26.3594 37.4408 26.3594 37.3616 26.3594 37.28Z" fill="#A1B0D2"/>
<path d="M26.2402 36.9199C26.2798 36.9199 26.3194 36.9199 26.3602 36.9199C26.3602 36.9991 26.3602 37.0783 26.3602 37.1599C26.3206 37.1599 26.281 37.1599 26.2402 37.1599C26.2402 37.0807 26.2402 37.0015 26.2402 36.9199Z" fill="#A7B5D5"/>
<path d="M37.6406 36.9199C37.6802 36.9199 37.7198 36.9199 37.7606 36.9199C37.7606 36.9991 37.7606 37.0783 37.7606 37.1599C37.721 37.1599 37.6814 37.1599 37.6406 37.1599C37.6406 37.0807 37.6406 37.0015 37.6406 36.9199Z" fill="#A8B6D6"/>
<path d="M37.7598 36.4399C37.839 36.4399 37.9182 36.4399 37.9998 36.4399C37.9998 36.4795 37.9998 36.5191 37.9998 36.5599C37.9206 36.5599 37.8414 36.5599 37.7598 36.5599C37.7598 36.5203 37.7598 36.4807 37.7598 36.4399Z" fill="#5A74B1"/>
<path d="M26 36.4399C26.0792 36.4399 26.1584 36.4399 26.24 36.4399C26.24 36.4795 26.24 36.5191 26.24 36.5599C26.1608 36.5599 26.0816 36.5599 26 36.5599C26 36.5203 26 36.4807 26 36.4399Z" fill="#5A74B1"/>
<path d="M46.8809 32.24C46.9205 32.24 46.9601 32.24 47.0009 32.24C47.0009 32.2796 47.0009 32.3192 47.0009 32.36C47.0273 32.36 47.0537 32.36 47.0809 32.36C47.0809 32.3996 47.0809 32.4392 47.0809 32.48C47.0413 32.48 47.0017 32.48 46.9609 32.48C46.9609 32.4404 46.9609 32.4008 46.9609 32.36C46.9345 32.36 46.9081 32.36 46.8809 32.36C46.8809 32.3204 46.8809 32.2808 46.8809 32.24Z" fill="#4260A6"/>
<path d="M16.7597 31.04C16.7729 31.04 16.7861 31.04 16.7997 31.04C16.7997 31.1984 16.7997 31.3568 16.7997 31.52C16.7601 31.52 16.7205 31.52 16.6797 31.52C16.6797 31.4804 16.6797 31.4408 16.6797 31.4C16.7061 31.4 16.7325 31.4 16.7597 31.4C16.7597 31.2812 16.7597 31.1624 16.7597 31.04Z" fill="#A3B1D3"/>
<path d="M33.4395 26.72C33.4791 26.72 33.5187 26.72 33.5595 26.72C33.5595 26.7992 33.5595 26.8784 33.5595 26.96C33.5199 26.96 33.4803 26.96 33.4395 26.96C33.4395 26.8808 33.4395 26.8016 33.4395 26.72Z" fill="#9FAED2"/>
<path d="M33.3203 26.3601C33.3599 26.3601 33.3995 26.3601 33.4403 26.3601C33.4403 26.4393 33.4403 26.5185 33.4403 26.6001C33.4007 26.6001 33.3611 26.6001 33.3203 26.6001C33.3203 26.5209 33.3203 26.4417 33.3203 26.3601Z" fill="#A2B0D3"/>
<path d="M30.5605 26.3601C30.6001 26.3601 30.6397 26.3601 30.6805 26.3601C30.6805 26.4393 30.6805 26.5185 30.6805 26.6001C30.6409 26.6001 30.6013 26.6001 30.5605 26.6001C30.5605 26.5209 30.5605 26.4417 30.5605 26.3601Z" fill="#A2B1D2"/>
<path d="M33.1992 26C33.2388 26 33.2784 26 33.3192 26C33.3192 26.0792 33.3192 26.1584 33.3192 26.24C33.2796 26.24 33.24 26.24 33.1992 26.24C33.1992 26.1608 33.1992 26.0816 33.1992 26Z" fill="#A4B3D4"/>
<path d="M30.6797 26C30.7193 26 30.7589 26 30.7997 26C30.7997 26.0792 30.7997 26.1584 30.7997 26.24C30.7601 26.24 30.7205 26.24 30.6797 26.24C30.6797 26.1608 30.6797 26.0816 30.6797 26Z" fill="#A5B3D4"/>
<path d="M31.8809 25.8799C31.9601 25.8799 32.0393 25.8799 32.1209 25.8799C32.1209 25.9195 32.1209 25.9591 32.1209 25.9999C32.0417 25.9999 31.9625 25.9999 31.8809 25.9999C31.8809 25.9603 31.8809 25.9207 31.8809 25.8799Z" fill="#5570AE"/>
<path d="M33.0801 25.6399C33.1197 25.6399 33.1593 25.6399 33.2001 25.6399C33.2001 25.7191 33.2001 25.7983 33.2001 25.8799C33.1605 25.8799 33.1209 25.8799 33.0801 25.8799C33.0801 25.8007 33.0801 25.7215 33.0801 25.6399Z" fill="#A9B7D6"/>
<path d="M30.8008 25.6399C30.8404 25.6399 30.88 25.6399 30.9208 25.6399C30.9208 25.7191 30.9208 25.7983 30.9208 25.8799C30.8812 25.8799 30.8416 25.8799 30.8008 25.8799C30.8008 25.8007 30.8008 25.7215 30.8008 25.6399Z" fill="#A8B6D6"/>
<path d="M32.9609 25.1599C33.0005 25.1599 33.0401 25.1599 33.0809 25.1599C33.0809 25.2391 33.0809 25.3183 33.0809 25.3999C33.0413 25.3999 33.0017 25.3999 32.9609 25.3999C32.9609 25.3207 32.9609 25.2415 32.9609 25.1599Z" fill="#657EB7"/>
<path d="M30.9199 25.1599C30.9595 25.1599 30.9991 25.1599 31.0399 25.1599C31.0399 25.2391 31.0399 25.3183 31.0399 25.3999C31.0003 25.3999 30.9607 25.3999 30.9199 25.3999C30.9199 25.3207 30.9199 25.2415 30.9199 25.1599Z" fill="#667EB6"/>
<path d="M32.3594 23.3601C32.399 23.3601 32.4386 23.3601 32.4794 23.3601C32.4794 23.4393 32.4794 23.5185 32.4794 23.6001C32.4398 23.6001 32.4002 23.6001 32.3594 23.6001C32.3594 23.5209 32.3594 23.4417 32.3594 23.3601Z" fill="#7D92C1"/>
<path d="M31.5195 23.3601C31.5591 23.3601 31.5987 23.3601 31.6395 23.3601C31.6395 23.4393 31.6395 23.5185 31.6395 23.6001C31.5999 23.6001 31.5603 23.6001 31.5195 23.6001C31.5195 23.5209 31.5195 23.4417 31.5195 23.3601Z" fill="#7E92C2"/>
<path d="M32.2402 23C32.2798 23 32.3194 23 32.3602 23C32.3602 23.0792 32.3602 23.1584 32.3602 23.24C32.3206 23.24 32.281 23.24 32.2402 23.24C32.2402 23.1608 32.2402 23.0816 32.2402 23Z" fill="#8397C4"/>
<path d="M31.6406 23C31.6802 23 31.7198 23 31.7606 23C31.7606 23.0792 31.7606 23.1584 31.7606 23.24C31.721 23.24 31.6814 23.24 31.6406 23.24C31.6406 23.1608 31.6406 23.0816 31.6406 23Z" fill="#8497C5"/>
<path d="M32.1191 22.6399C32.1587 22.6399 32.1983 22.6399 32.2391 22.6399C32.2391 22.7191 32.2391 22.7983 32.2391 22.8799C32.1995 22.8799 32.1599 22.8799 32.1191 22.8799C32.1191 22.8007 32.1191 22.7215 32.1191 22.6399Z" fill="#8A9CC7"/>
<path d="M31.7598 22.6399C31.7994 22.6399 31.839 22.6399 31.8798 22.6399C31.8798 22.7191 31.8798 22.7983 31.8798 22.8799C31.8402 22.8799 31.8006 22.8799 31.7598 22.8799C31.7598 22.8007 31.7598 22.7215 31.7598 22.6399Z" fill="#8B9DC8"/>
<path d="M31.8809 22.28C31.9601 22.28 32.0393 22.28 32.1209 22.28C32.1209 22.3196 32.1209 22.3592 32.1209 22.4C32.0417 22.4 31.9625 22.4 31.8809 22.4C31.8809 22.3604 31.8809 22.3208 31.8809 22.28Z" fill="#8296C4"/>
<path d="M31.8809 22.1599C31.9601 22.1599 32.0393 22.1599 32.1209 22.1599C32.1209 22.1995 32.1209 22.2391 32.1209 22.2799C32.0417 22.2799 31.9625 22.2799 31.8809 22.2799C31.8809 22.2403 31.8809 22.2007 31.8809 22.1599Z" fill="#254897"/>
</g>
<defs>
<clipPath id="clip0_11297_21456">
<rect width="64" height="64" fill="white"/>
</clipPath>
</defs>
</svg>
