<svg width="64" height="64" viewBox="0 0 64 64" fill="none" xmlns="http://www.w3.org/2000/svg">
<g clip-path="url(#clip0_10790_11058)">
<path d="M0 0H64V64H0V0Z" fill="#009543"/>
<path d="M0 0H64V42.6625H0V0Z" fill="#ED4135"/>
<path d="M0 0H64V21.3375H0V0Z" fill="#0035AD"/>
<path d="M28.1996 52.975C39.7838 52.975 49.1746 43.5842 49.1746 32C49.1746 20.4159 39.7838 11.025 28.1996 11.025C16.6154 11.025 7.22461 20.4159 7.22461 32C7.22461 43.5842 16.6154 52.975 28.1996 52.975Z" fill="#FAE600" stroke="black" stroke-width="0.7125"/>
<path d="M24.6504 35.125H31.7629H24.6504ZM24.6504 29.875H31.7629H24.6504ZM28.2004 11.075V46.9249V11.075Z" fill="black"/>
<path d="M24.6504 35.125H31.7629M24.6504 29.875H31.7629M28.2004 11.075V46.9249" stroke="black" stroke-width="0.85"/>
<path d="M19.7504 51.25C28.3254 54.75 36.3504 51.475 36.3504 51.475C36.3504 51.475 33.3129 48.2 31.7629 46.9125C30.2504 45.6625 25.7879 45.7125 24.2629 46.9125C23.0129 47.9125 19.3629 51.6 19.7629 51.2625L19.7504 51.25Z" fill="#000001"/>
<path d="M28.1996 45.0875C29.4975 45.0875 30.5496 43.5596 30.5496 41.6749C30.5496 39.7903 29.4975 38.2625 28.1996 38.2625C26.9017 38.2625 25.8496 39.7903 25.8496 41.6749C25.8496 43.5596 26.9017 45.0875 28.1996 45.0875Z" fill="#000001"/>
<path d="M28.1996 34.2999C29.7736 34.2999 31.0496 33.4941 31.0496 32.5C31.0496 31.5058 29.7736 30.7 28.1996 30.7C26.6256 30.7 25.3496 31.5058 25.3496 32.5C25.3496 33.4941 26.6256 34.2999 28.1996 34.2999Z" fill="#000001"/>
<path d="M28.1996 27.025C29.7736 27.025 31.0496 25.749 31.0496 24.1749C31.0496 22.6009 29.7736 21.325 28.1996 21.325C26.6256 21.325 25.3496 22.6009 25.3496 24.1749C25.3496 25.749 26.6256 27.025 28.1996 27.025Z" fill="#000001"/>
<path d="M31.6246 13.5875C31.6246 13.5875 31.8746 13.9875 31.3496 14.925C28.8621 19.3875 26.3871 19.4875 25.9121 19.8625C25.3871 20.2875 25.1621 20.2625 25.1621 20.2625C25.2121 19.8875 25.2371 18.3125 25.2621 18.1625C25.6371 16.0875 28.7996 16.1125 31.2621 13.975C31.6371 13.6375 31.6121 13.575 31.6121 13.575L31.6246 13.5875ZM23.2996 23.1875C23.2996 23.1875 23.8621 24.775 23.9371 26.3875C24.0746 28.9375 26.5246 29.0125 28.1996 29.0125V27.5875C26.9496 27.5875 25.8371 27.4125 24.9371 25.525C24.4603 24.6996 23.9124 23.9175 23.2996 23.1875ZM23.2246 43.8125C23.2246 43.8125 24.1246 42.6875 25.1746 40.1124C25.4155 39.5 25.8302 38.9714 26.3677 38.5916C26.9051 38.2119 27.5419 37.9975 28.1996 37.9749V35.9749C25.4996 35.9749 24.1996 36.975 24.0746 38.4625C23.7746 41.4625 23.2246 43.7999 23.2246 43.7999V43.8125ZM33.1246 23.1875C33.1246 23.1875 32.5496 24.775 32.4746 26.3875C32.3371 28.95 29.8871 29.0125 28.2121 29.0125V27.6C29.4746 27.6 30.5746 27.4125 31.4871 25.5375C31.9621 24.7 32.5121 23.9125 33.1121 23.1875H33.1246ZM33.1871 43.8125C33.1871 43.8125 32.2996 42.6999 31.2371 40.1124C30.9943 39.5024 30.5787 38.9764 30.0414 38.5989C29.5041 38.2215 28.8684 38.009 28.2121 37.9874V35.9874C30.9121 35.9874 32.2121 36.9875 32.3496 38.4625C32.5184 40.2613 32.7981 42.0481 33.1871 43.8125Z" fill="#000001"/>
</g>
<defs>
<clipPath id="clip0_10790_11058">
<rect width="64" height="64" rx="32" fill="white"/>
</clipPath>
</defs>
</svg>
