<svg width="64" height="64" viewBox="0 0 64 64" fill="none" xmlns="http://www.w3.org/2000/svg">
<g clip-path="url(#clip0_10790_11071)">
<path fill-rule="evenodd" clip-rule="evenodd" d="M0 0H64V64H0V0Z" fill="#00247D"/>
<path d="M49.5488 19.3662V21.0848L52.9859 19.3662H49.5488Z" fill="white"/>
<path d="M50.2363 21.4285L49.5488 20.0536L52.9859 19.3662L50.2363 21.4285Z" fill="white"/>
<path d="M49.5488 19.3662V21.0848L46.1117 19.3662H49.5488Z" fill="white"/>
<path d="M48.8614 21.4285L49.5488 20.0536L46.1117 19.3662L48.8614 21.4285Z" fill="white"/>
<path d="M50.5293 20.0786L48.8948 20.6097L51.5914 23.3475L50.5293 20.0786Z" fill="white"/>
<path d="M48.7804 21.3697L49.8755 20.291L51.5914 23.3475L48.7804 21.3697Z" fill="white"/>
<path d="M48.5684 20.0786L50.2028 20.6097L49.6305 16.8097L48.5684 20.0786Z" fill="white"/>
<path d="M50.7421 20.0621L49.2221 20.291L49.6305 16.8097L50.7421 20.0621Z" fill="white"/>
<path d="M48.5684 20.0786L50.2028 20.6097L47.5062 23.3475L48.5684 20.0786Z" fill="white"/>
<path d="M50.3173 21.3697L49.2221 20.291L47.5062 23.3475L50.3173 21.3697Z" fill="white"/>
<path d="M49.5488 19.7158V20.8514L51.8201 19.7158H49.5488Z" fill="#CC142B"/>
<path d="M50.0031 21.0786L49.5488 20.1701L51.8201 19.7158L50.0031 21.0786Z" fill="#CC142B"/>
<path d="M49.5488 19.7158V20.8514L47.2776 19.7158H49.5488Z" fill="#CC142B"/>
<path d="M49.0946 21.0786L49.5488 20.1701L47.2776 19.7158L49.0946 21.0786Z" fill="#CC142B"/>
<path d="M50.1973 20.1868L49.1172 20.5377L50.8991 22.3468L50.1973 20.1868Z" fill="#CC142B"/>
<path d="M49.0416 21.0399L49.7653 20.3271L50.8991 22.3468L49.0416 21.0399Z" fill="#CC142B"/>
<path d="M48.9004 20.1868L49.9804 20.5377L49.6022 18.0267L48.9004 20.1868Z" fill="#CC142B"/>
<path d="M50.3368 20.1759L49.3324 20.3271L49.6022 18.0267L50.3368 20.1759Z" fill="#CC142B"/>
<path d="M48.9004 20.1868L49.9804 20.5377L48.1985 22.3468L48.9004 20.1868Z" fill="#CC142B"/>
<path d="M50.0561 21.0399L49.3324 20.3271L48.1985 22.3468L50.0561 21.0399Z" fill="#CC142B"/>
<path d="M58.5547 27.302L58.5547 28.8313L61.6133 27.302L58.5547 27.302Z" fill="white"/>
<path d="M59.1664 29.1372L58.5547 27.9137L61.6133 27.302L59.1664 29.1372Z" fill="white"/>
<path d="M58.5547 27.302L58.5547 28.8313L55.4961 27.302L58.5547 27.302Z" fill="white"/>
<path d="M57.943 29.1372L58.5547 27.9137L55.4961 27.302L57.943 29.1372Z" fill="white"/>
<path d="M59.4277 27.936L57.9733 28.4086L60.3729 30.8449L59.4277 27.936Z" fill="white"/>
<path d="M57.8714 29.0849L58.846 28.1251L60.3729 30.8449L57.8714 29.0849Z" fill="white"/>
<path d="M57.6816 27.936L59.1361 28.4086L58.6268 25.0271L57.6816 27.936Z" fill="white"/>
<path d="M59.616 27.9214L58.2634 28.1251L58.6268 25.0271L59.616 27.9214Z" fill="white"/>
<path d="M57.6816 27.936L59.1361 28.4086L56.7365 30.8449L57.6816 27.936Z" fill="white"/>
<path d="M59.2379 29.0849L58.2634 28.1251L56.7365 30.8449L59.2379 29.0849Z" fill="white"/>
<path d="M58.5547 27.6519L58.5547 28.5982L60.4474 27.6519L58.5547 27.6519Z" fill="#CC142B"/>
<path d="M58.9332 28.7875L58.5547 28.0304L60.4474 27.6519L58.9332 28.7875Z" fill="#CC142B"/>
<path d="M58.5547 27.6519L58.5547 28.5982L56.662 27.6519L58.5547 27.6519Z" fill="#CC142B"/>
<path d="M58.1762 28.7875L58.5547 28.0304L56.662 27.6519L58.1762 28.7875Z" fill="#CC142B"/>
<path d="M59.0957 28.0442L58.1957 28.3366L59.6806 29.8442L59.0957 28.0442Z" fill="#CC142B"/>
<path d="M58.1326 28.7551L58.7357 28.1612L59.6806 29.8442L58.1326 28.7551Z" fill="#CC142B"/>
<path d="M58.0156 28.0442L58.9157 28.3366L58.6005 26.2441L58.0156 28.0442Z" fill="#CC142B"/>
<path d="M59.2126 28.0351L58.3756 28.1612L58.6005 26.2441L59.2126 28.0351Z" fill="#CC142B"/>
<path d="M58.0156 28.0442L58.9157 28.3366L57.4308 29.8442L58.0156 28.0442Z" fill="#CC142B"/>
<path d="M58.9787 28.7551L58.3756 28.1612L57.4308 29.8442L58.9787 28.7551Z" fill="#CC142B"/>
<path d="M39.0586 29.9319L39.0586 31.6504L42.4957 29.9319L39.0586 29.9319Z" fill="white"/>
<path d="M39.746 31.9942L39.0586 30.6193L42.4957 29.9319L39.746 31.9942Z" fill="white"/>
<path d="M39.0586 29.9319L39.0586 31.6504L35.6215 29.9319L39.0586 29.9319Z" fill="white"/>
<path d="M38.3712 31.9942L39.0586 30.6193L35.6215 29.9319L38.3712 31.9942Z" fill="white"/>
<path d="M40.0391 30.6443L38.4046 31.1754L41.1012 33.9132L40.0391 30.6443Z" fill="white"/>
<path d="M38.2902 31.9353L39.3853 30.8567L41.1012 33.9132L38.2902 31.9353Z" fill="white"/>
<path d="M38.0781 30.6443L39.7126 31.1754L39.1403 27.3754L38.0781 30.6443Z" fill="white"/>
<path d="M40.2519 30.6278L38.7319 30.8567L39.1403 27.3754L40.2519 30.6278Z" fill="white"/>
<path d="M38.0781 30.6443L39.7126 31.1754L37.016 33.9132L38.0781 30.6443Z" fill="white"/>
<path d="M39.827 31.9353L38.7319 30.8567L37.016 33.9132L39.827 31.9353Z" fill="white"/>
<path d="M39.0566 30.2815L39.0566 31.4171L41.3279 30.2815L39.0566 30.2815Z" fill="#CC142B"/>
<path d="M39.5109 31.6442L39.0566 30.7357L41.3279 30.2815L39.5109 31.6442Z" fill="#CC142B"/>
<path d="M39.0566 30.2815L39.0566 31.4171L36.7854 30.2815L39.0566 30.2815Z" fill="#CC142B"/>
<path d="M38.6024 31.6442L39.0566 30.7357L36.7854 30.2815L38.6024 31.6442Z" fill="#CC142B"/>
<path d="M39.7051 30.7524L38.625 31.1034L40.4069 32.9125L39.7051 30.7524Z" fill="#CC142B"/>
<path d="M38.5494 31.6056L39.2731 30.8928L40.4069 32.9125L38.5494 31.6056Z" fill="#CC142B"/>
<path d="M38.4082 30.7524L39.4882 31.1034L39.1101 28.5924L38.4082 30.7524Z" fill="#CC142B"/>
<path d="M39.8446 30.7415L38.8402 30.8928L39.1101 28.5924L39.8446 30.7415Z" fill="#CC142B"/>
<path d="M38.4082 30.7524L39.4882 31.1034L37.7064 32.9125L38.4082 30.7524Z" fill="#CC142B"/>
<path d="M39.5639 31.6056L38.8402 30.8928L37.7064 32.9125L39.5639 31.6056Z" fill="#CC142B"/>
<path d="M49.5508 46.5073V48.4152L53.3664 46.5073H49.5508Z" fill="white"/>
<path d="M50.3139 48.7967L49.5508 47.2705L53.3664 46.5073L50.3139 48.7967Z" fill="white"/>
<path d="M49.5508 46.5073V48.4152L45.7351 46.5073H49.5508Z" fill="white"/>
<path d="M48.7876 48.7967L49.5508 47.2705L45.7351 46.5073L48.7876 48.7967Z" fill="white"/>
<path d="M50.6387 47.2983L48.8242 47.8879L51.8178 50.9272L50.6387 47.2983Z" fill="white"/>
<path d="M48.6971 48.7316L49.9129 47.5342L51.8178 50.9272L48.6971 48.7316Z" fill="white"/>
<path d="M48.4609 47.2983L50.2754 47.8879L49.64 43.6694L48.4609 47.2983Z" fill="white"/>
<path d="M50.8741 47.28L49.1867 47.5342L49.64 43.6694L50.8741 47.28Z" fill="white"/>
<path d="M48.4609 47.2983L50.2754 47.8879L47.2818 50.9272L48.4609 47.2983Z" fill="white"/>
<path d="M50.4025 48.7316L49.1867 47.5342L47.2818 50.9272L50.4025 48.7316Z" fill="white"/>
<path d="M49.5508 46.8569V48.1818L52.2005 46.8569H49.5508Z" fill="#CC142B"/>
<path d="M50.0807 48.4468L49.5508 47.3869L52.2005 46.8569L50.0807 48.4468Z" fill="#CC142B"/>
<path d="M49.5508 46.8569V48.1818L46.901 46.8569H49.5508Z" fill="#CC142B"/>
<path d="M49.0208 48.4468L49.5508 47.3869L46.901 46.8569L49.0208 48.4468Z" fill="#CC142B"/>
<path d="M50.3066 47.4062L49.0466 47.8157L51.1255 49.9263L50.3066 47.4062Z" fill="#CC142B"/>
<path d="M48.9584 48.4016L49.8026 47.57L51.1255 49.9263L48.9584 48.4016Z" fill="#CC142B"/>
<path d="M48.7949 47.4062L50.055 47.8157L49.6137 44.8862L48.7949 47.4062Z" fill="#CC142B"/>
<path d="M50.4707 47.3935L49.2989 47.57L49.6137 44.8862L50.4707 47.3935Z" fill="#CC142B"/>
<path d="M48.7949 47.4062L50.055 47.8157L47.9761 49.9263L48.7949 47.4062Z" fill="#CC142B"/>
<path d="M50.1432 48.4016L49.2989 47.57L47.9761 49.9263L50.1432 48.4016Z" fill="#CC142B"/>
<path d="M0 0H32V32H0V0Z" fill="#012169"/>
<path d="M32 0V4L20.125 16L32 27.6875V32H27.8125L15.875 20.25L4.25 32H0V27.75L11.625 16.0625L0 4.625V0H3.875L15.875 11.75L27.5 0H32Z" fill="white"/>
<path d="M11.5 20.25L12.1875 22.375L2.625 32H0V31.8125L11.5 20.25ZM19.25 19.5L22.625 20L32 29.1875V32L19.25 19.5ZM32 0L20 12.25L19.75 9.5L29.125 0H32ZM0 0.0625L12.0625 11.875L8.375 11.375L0 3.0625V0.0625Z" fill="#C8102E"/>
<path d="M11 0V32H21V0H11ZM0 11V21H32V11H0Z" fill="white"/>
<path d="M0 13V19H32V13H0ZM13 0V32H19V0H13Z" fill="#C8102E"/>
</g>
<defs>
<clipPath id="clip0_10790_11071">
<rect width="64" height="64" rx="32" fill="white"/>
</clipPath>
</defs>
</svg>
