<svg width="64" height="64" viewBox="0 0 64 64" fill="none" xmlns="http://www.w3.org/2000/svg">
<g clip-path="url(#clip0_10790_11210)">
<path d="M0 0H64V64H0V0Z" fill="#0067C6"/>
<path d="M0 21.3374H64V42.6624H0V21.3374Z" fill="white"/>
<path d="M22.4004 31.9249L23.4629 31.9999L23.4754 31.8374L23.0504 31.8124L23.0879 31.3124L23.5379 30.9874V30.7874L23.0754 31.1249C23.0629 31.0124 23.0004 30.8999 22.8879 30.8624C22.7879 30.8249 22.6754 30.8124 22.5879 30.8874C22.4879 30.9624 22.4629 31.1124 22.4504 31.2249L22.4004 31.9249ZM22.5629 31.7874L22.6004 31.2624C22.6129 31.1749 22.6254 31.0749 22.7004 31.0124C22.7173 30.9992 22.7373 30.9905 22.7585 30.9872C22.7797 30.9839 22.8014 30.9861 22.8215 30.9937C22.8416 31.0012 22.8594 31.0138 22.8732 31.0302C22.887 31.0466 22.8964 31.0663 22.9004 31.0874C22.9629 31.2124 22.9379 31.3624 22.9254 31.4999L22.9004 31.8124L22.5629 31.7874ZM22.5379 30.2874L23.5754 30.5374L23.8254 29.5249L23.6629 29.4874L23.4629 30.3624L23.1504 30.2749L23.3254 29.4999L23.1879 29.4624L23.0004 30.2374L22.7254 30.1749L22.9129 29.3499L22.7629 29.3124L22.5379 30.2874ZM22.9129 28.8999L23.9129 29.2499L23.9754 29.0999L23.5754 28.9749L23.7379 28.5124C23.7629 28.3874 23.7879 28.2374 23.7129 28.1249C23.6832 28.0828 23.6439 28.0484 23.5982 28.0245C23.5526 28.0006 23.5019 27.9879 23.4504 27.9874C23.3254 27.9874 23.2379 28.0749 23.1879 28.1749C23.1129 28.3124 23.0629 28.4749 23.0129 28.6249L22.9129 28.8999ZM23.1129 28.7999L23.2754 28.3499C23.3004 28.2624 23.3504 28.1749 23.4379 28.1499C23.5129 28.1249 23.6004 28.1874 23.6004 28.2749C23.6254 28.3999 23.5629 28.5499 23.5129 28.6749L23.4379 28.9249L23.1129 28.7999ZM23.4754 27.6124L24.0379 27.9374C24.1504 27.9999 24.2879 28.0374 24.4004 27.9624C24.5504 27.8874 24.6504 27.7124 24.7254 27.5749C24.7754 27.4499 24.8254 27.2874 24.7504 27.1499C24.6629 27.0249 24.5129 26.9624 24.3879 26.8749L24.0129 26.6624L23.9504 26.7874C24.1254 26.9124 24.3129 27.0124 24.4879 27.1124C24.5754 27.1624 24.6504 27.2624 24.6254 27.3624C24.6043 27.4856 24.5527 27.6017 24.4754 27.6999C24.4129 27.7874 24.3129 27.8499 24.2129 27.8249C24.0879 27.8124 24.0129 27.7374 23.9129 27.6874L23.5379 27.4749L23.4754 27.6124ZM24.2379 26.3624L25.0879 26.9999L25.4754 26.4874C25.5504 26.3749 25.6254 26.2374 25.5754 26.1124C25.5525 26.0569 25.5147 26.0089 25.4661 25.9736C25.4176 25.9383 25.3602 25.9171 25.3004 25.9124C25.2504 25.9124 25.1754 25.9374 25.1504 25.9624C25.1754 25.8374 25.0879 25.7374 24.9879 25.7124C24.8629 25.6624 24.7379 25.7499 24.6504 25.8374C24.5504 25.9374 24.4629 26.0624 24.3754 26.1749L24.2379 26.3624ZM24.4504 26.3249L24.7504 25.9499C24.8004 25.8874 24.8754 25.8249 24.9504 25.8624C25.0254 25.8999 25.0379 25.9874 25.0004 26.0374C24.9504 26.1624 24.8754 26.2374 24.8004 26.3374L24.6754 26.4999L24.4504 26.3249ZM24.8004 26.5749L25.1004 26.1999C25.1629 26.1374 25.2254 26.0624 25.3129 26.0749C25.3879 26.0999 25.4379 26.1749 25.4254 26.2499C25.3754 26.3874 25.2754 26.4999 25.1879 26.6249L25.0629 26.7874L24.8004 26.5874V26.5749ZM25.2004 25.2249L25.9254 25.9999L26.5504 25.3999L26.4504 25.2999L25.9504 25.7749H25.9254L25.3004 25.1124L25.2004 25.2249ZM26.1379 24.3999L26.7879 25.2499L26.9129 25.1499L26.2629 24.2999L26.1379 24.3999ZM27.0879 23.7499C26.99 23.8122 26.9051 23.8929 26.8379 23.9874C26.7743 24.0662 26.7376 24.1634 26.7331 24.2645C26.7286 24.3657 26.7565 24.4657 26.8129 24.5499C26.8644 24.6345 26.9378 24.7036 27.0254 24.7499C27.1129 24.7874 27.2004 24.8124 27.3004 24.7999C27.4268 24.7764 27.5473 24.7278 27.6547 24.6569C27.762 24.5861 27.8541 24.4944 27.9254 24.3874C27.974 24.2908 27.9873 24.1803 27.9629 24.0749L27.8129 24.1374C27.8504 24.3499 27.7129 24.4499 27.5629 24.5499C27.3129 24.6874 27.0879 24.6749 26.9379 24.4624C26.8004 24.2124 26.9629 24.0124 27.1629 23.8749C27.3129 23.7874 27.4504 23.7249 27.5879 23.8124L27.7129 23.7124C27.6326 23.6565 27.5355 23.63 27.4379 23.6374C27.3254 23.6374 27.2129 23.6749 27.0879 23.7624V23.7499ZM28.3504 23.1249L28.2379 24.3124L28.4129 24.2499L28.4379 23.8749L28.9879 23.6624L29.2629 23.9124L29.4254 23.8374L28.5254 23.0499L28.3504 23.1249ZM28.5004 23.2499L28.8504 23.5499L28.4504 23.7124L28.5004 23.2499ZM30.6879 22.4624L30.7629 23.5249L31.3379 23.4874C31.4879 23.4749 31.6504 23.4374 31.7504 23.3124C31.8086 23.2348 31.848 23.1447 31.8653 23.0492C31.8827 22.9537 31.8776 22.8556 31.8504 22.7624C31.822 22.6813 31.7721 22.6093 31.7061 22.5543C31.6401 22.4993 31.5603 22.4632 31.4754 22.4499C31.3254 22.4124 31.1629 22.4374 30.9879 22.4499L30.6879 22.4624ZM30.8504 22.5999L31.3129 22.5749C31.4024 22.5702 31.4907 22.5967 31.5629 22.6499C31.6158 22.6876 31.6577 22.7387 31.6841 22.7981C31.7105 22.8575 31.7204 22.9229 31.7129 22.9874C31.7089 23.0605 31.6829 23.1306 31.6383 23.1886C31.5936 23.2467 31.5325 23.2898 31.4629 23.3124L31.2129 23.3499L30.9004 23.3624L30.8504 22.5999ZM32.1754 22.3999L32.1129 23.4624L33.1504 23.5249V23.3749L32.2754 23.3249L32.3004 22.9999L33.0879 23.0499L33.1004 22.8999L32.3129 22.8499V22.5624L33.1754 22.6124V22.4624L32.1754 22.3999ZM34.9629 22.8499L34.5879 23.8499L34.7129 23.8874L35.0254 23.0999V23.0624L35.0504 23.1124L35.4254 24.1624L35.6004 24.2374L35.9754 23.2374L35.8504 23.1874L35.5379 23.9749V24.0124L35.5129 23.9749L35.1379 22.9124L34.9629 22.8499ZM36.4004 23.4624L35.9004 24.4124L35.7754 24.3374L36.2504 23.3874L36.4004 23.4624ZM37.2004 23.9374C37.106 23.8721 36.9999 23.8254 36.8879 23.7999C36.7892 23.7743 36.6848 23.7811 36.5903 23.8193C36.4957 23.8576 36.416 23.9253 36.3629 24.0124C36.3074 24.0898 36.2729 24.1802 36.2629 24.2749C36.2629 24.3749 36.2879 24.4749 36.3379 24.5624C36.4106 24.6645 36.5044 24.7497 36.6129 24.8124C36.7379 24.8999 36.8504 24.9374 36.9629 24.9499C37.0879 24.9499 37.1754 24.9249 37.2754 24.8624L37.1504 24.7374C36.9754 24.8624 36.8254 24.7874 36.6754 24.6874C36.4379 24.5374 36.3504 24.3124 36.4879 24.0999C36.6504 23.8499 36.9129 23.9124 37.1129 24.0499C37.2629 24.1374 37.3754 24.2499 37.3629 24.4124L37.4879 24.4749C37.5095 24.3776 37.4962 24.2759 37.4504 24.1874C37.389 24.0847 37.3031 23.9988 37.2004 23.9374ZM38.2129 24.6874L37.1004 25.1374L37.2254 25.2624L37.5754 25.1249L38.0254 25.4999L37.9379 25.8749L38.0629 25.9874L38.3504 24.8124L38.2254 24.6874H38.2129ZM38.1754 24.8874L38.0504 25.3374L37.7379 25.0624L38.1754 24.8874ZM39.0254 25.4374L38.2004 26.1124L38.3004 26.2374L38.6254 25.9749L38.9504 26.3624L38.8504 26.8999L38.9754 27.0624L39.0754 26.4874C39.1754 26.5624 39.3129 26.6124 39.4129 26.5374C39.5129 26.4999 39.6004 26.4124 39.6004 26.2999C39.6129 26.1499 39.5129 26.0374 39.4254 25.9249L39.0254 25.4374ZM39.0004 25.6499C39.1254 25.7999 39.2504 25.9374 39.3504 26.0874C39.4004 26.1624 39.4754 26.2624 39.4004 26.3499C39.3629 26.4249 39.2504 26.4249 39.1879 26.3749C39.0629 26.2874 38.9754 26.1499 38.8629 26.0374L38.7379 25.8749L39.0004 25.6499ZM40.2629 27.1374L39.0629 27.1874L39.1629 27.3499L39.5379 27.3249L39.8254 27.8249L39.6129 28.1499L39.7129 28.2999L40.3629 27.2999L40.2754 27.1374H40.2629ZM40.1629 27.2999L39.9129 27.6874L39.7004 27.3124L40.1629 27.2999ZM40.9504 28.5499C40.8879 28.3624 40.7754 28.1749 40.6004 28.0874C40.5007 28.0387 40.3876 28.0246 40.279 28.0472C40.1704 28.0698 40.0724 28.1279 40.0004 28.2124C39.8754 28.3624 39.8754 28.5624 39.9004 28.7374C39.937 28.9471 40.0323 29.1422 40.1754 29.2999L40.1004 29.3249L40.1504 29.4624L40.6504 29.2874L40.4504 28.7499L40.3379 28.7874L40.4879 29.1874L40.3129 29.2499C40.1715 29.1159 40.0754 28.9411 40.0379 28.7499C40.0004 28.5999 40.0004 28.4249 40.1129 28.3249C40.2379 28.1999 40.4504 28.1499 40.6129 28.2624C40.7451 28.3795 40.8333 28.5383 40.8629 28.7124C40.9004 28.8249 40.9004 28.9624 40.8129 29.0499C40.7879 29.0624 40.8129 29.0874 40.8254 29.1124L40.8754 29.1749C40.9197 29.1387 40.9551 29.0928 40.9789 29.0408C41.0027 28.9888 41.0144 28.9321 41.0129 28.8749C41.0129 28.7624 40.9879 28.6499 40.9504 28.5499ZM41.2629 29.3874L40.6629 29.4999C40.5504 29.5249 40.4754 29.5499 40.4129 29.5999C40.3629 29.6499 40.3254 29.7124 40.3004 29.7999C40.2836 29.908 40.2878 30.0184 40.3129 30.1249C40.3379 30.2499 40.3754 30.3499 40.4379 30.4249C40.4754 30.4999 40.5379 30.5499 40.6004 30.5749C40.6754 30.5874 40.7629 30.5999 40.8754 30.5749L41.4629 30.4499L41.4379 30.2999L40.8629 30.4249C40.6004 30.4624 40.5129 30.3249 40.4629 30.0999C40.4129 29.8499 40.4504 29.6999 40.7129 29.6499L41.2879 29.5249L41.2629 29.3874ZM41.5879 31.1999L40.4879 30.7249V30.8999L40.8379 31.0499L40.8754 31.6249L40.5629 31.8249L40.5754 31.9999L41.6004 31.3749L41.5879 31.1999ZM41.4254 31.2999L41.0254 31.5499L40.9879 31.1124L41.4254 31.2999ZM23.2254 33.9624L23.0754 33.9999L23.2379 34.6499L23.4004 34.6124L23.2254 33.9624ZM40.7754 33.9624L40.9254 33.9999L40.7629 34.6499L40.6004 34.6124L40.7754 33.9624ZM24.8754 36.6874L23.6879 36.8249L23.7879 36.9749L24.1629 36.9374L24.4754 37.4249L24.3004 37.7499L24.4004 37.8999L24.9754 36.8374L24.8754 36.6874ZM24.7879 36.8624L24.5629 37.2749L24.3129 36.9124L24.7879 36.8624ZM25.3379 37.3499L24.5754 38.0499L24.6754 38.1749L25.3129 37.5624L24.9754 38.4874L25.1004 38.6124L26.0129 38.3374L25.3879 38.9249L25.4879 39.0249L26.2379 38.3249L26.0879 38.1499L25.1629 38.4374L25.5129 37.5249L25.3379 37.3499ZM26.4379 38.4749L25.8004 39.3249L26.6254 39.9499L26.7129 39.8249L26.0129 39.2999L26.2129 39.0499L26.8379 39.5124L26.9379 39.3874L26.3004 38.9124L26.4754 38.6874L27.1504 39.1999L27.2379 39.0749L26.4379 38.4749ZM27.4879 39.2374L26.9879 40.1749L27.1129 40.2499L27.3129 39.8749L27.7754 40.1249L27.8754 40.6624L28.0504 40.7499L27.9379 40.1874C28.0629 40.2249 28.1879 40.1999 28.2754 40.1124C28.3379 40.0374 28.3879 39.9249 28.3504 39.8249C28.3129 39.6874 28.1754 39.6124 28.0629 39.5499L27.4879 39.2374ZM27.5504 39.4499L28.0379 39.6999C28.1004 39.7624 28.2004 39.8249 28.1879 39.9249C28.1879 40.0124 28.0879 40.0499 28.0129 40.0499C27.8504 40.0124 27.7254 39.9249 27.5879 39.8499L27.3879 39.7499L27.5504 39.4499ZM28.6879 39.8624L28.2879 40.8624L28.4379 40.9124L28.8379 39.9249L28.6879 39.8624ZM29.6504 40.1999C29.5421 40.1619 29.4275 40.1449 29.3129 40.1499C29.2117 40.1509 29.1135 40.1842 29.0326 40.2449C28.9516 40.3056 28.8922 40.3906 28.8629 40.4874C28.8291 40.5793 28.8205 40.6786 28.8379 40.7749C28.8629 40.8749 28.9129 40.9624 28.9879 41.0249C29.0814 41.1102 29.1923 41.1741 29.3129 41.2124C29.4504 41.2624 29.5754 41.2624 29.6879 41.2499C29.7978 41.2269 29.8955 41.1647 29.9629 41.0749L29.8254 40.9999C29.6754 41.1624 29.5129 41.1249 29.3379 41.0749C29.0754 40.9749 28.9379 40.7874 29.0129 40.5374C29.1004 40.2624 29.3629 40.2624 29.6004 40.3374C29.7629 40.3874 29.9004 40.4624 29.9254 40.6249L30.0754 40.6374C30.0631 40.5424 30.0191 40.4543 29.9504 40.3874C29.8674 40.3011 29.7643 40.2367 29.6504 40.1999ZM30.7254 40.4499L30.0254 41.4124L30.2004 41.4374L30.4129 41.1374L30.9879 41.2249L31.1129 41.5749L31.2879 41.5999L30.9004 40.4749L30.7254 40.4374V40.4499ZM30.7879 40.6249L30.9379 41.0624L30.5129 40.9999L30.7879 40.6249ZM33.2254 40.4499C33.11 40.47 32.9996 40.5125 32.9004 40.5749C32.8135 40.6255 32.7448 40.7024 32.7044 40.7945C32.6639 40.8866 32.6538 40.9892 32.6754 41.0874C32.6948 41.1801 32.7379 41.2662 32.8004 41.3374C32.8629 41.4249 32.9504 41.4624 33.0504 41.4999C33.1504 41.5249 33.2754 41.5249 33.4254 41.4999C33.5502 41.4762 33.6666 41.4202 33.7629 41.3374C33.848 41.2679 33.9056 41.1705 33.9254 41.0624H33.7504C33.7129 41.2749 33.5504 41.3124 33.3754 41.3624C33.0879 41.4124 32.8754 41.3124 32.8254 41.0624C32.7754 40.7749 33.0004 40.6374 33.2379 40.5874C33.4004 40.5499 33.5629 40.5499 33.6504 40.6749L33.8004 40.6249C33.7457 40.5471 33.6665 40.4899 33.5754 40.4624C33.4537 40.4254 33.3243 40.4211 33.2004 40.4499H33.2254ZM33.9379 40.3249L34.2379 41.3499L35.2379 41.0499L35.1879 40.8999L34.3504 41.1499L34.2504 40.8499L35.0129 40.6124L34.9754 40.4749L34.2129 40.6999L34.1254 40.4249L34.9379 40.1749L34.9004 40.0374L33.9379 40.3249ZM35.0879 39.9499L35.5379 40.9249L35.6629 40.8624L35.2879 40.0624L36.3254 40.5374H36.4004L36.5254 40.4624L36.0879 39.4999L35.9629 39.5624L36.3254 40.3624L35.2629 39.8749L35.0879 39.9499ZM36.2629 39.4124L36.3504 39.5374L36.7254 39.2874L36.7379 39.2749L37.2379 40.0374L37.3629 39.9499L36.8754 39.1999V39.1749L37.2629 38.9249L37.1879 38.7999L36.2629 39.4124ZM37.3379 38.6624L38.0629 39.4624L38.1754 39.3499L37.8879 39.0499L38.2629 38.6999L38.8129 38.7624L38.9504 38.6374L38.3754 38.5624C38.4504 38.4624 38.4754 38.3124 38.4129 38.2124C38.3629 38.1249 38.2754 38.0499 38.1629 38.0499C38.0129 38.0499 37.9129 38.1499 37.7879 38.2499L37.3379 38.6624ZM37.5504 38.6749L37.9629 38.2999C38.0254 38.2499 38.1379 38.1749 38.2254 38.2374C38.3004 38.2874 38.3004 38.3874 38.2504 38.4624C38.1754 38.5874 38.0504 38.6874 37.9379 38.7999L37.7879 38.9249L37.5504 38.6749ZM38.5754 37.4249L39.0504 38.5374L39.1754 38.3999L39.0129 38.0499L39.3879 37.5999L39.7504 37.6874L39.8629 37.5374L38.6879 37.2874L38.5754 37.4249ZM38.7629 37.4749L39.2254 37.5624L38.9504 37.8999L38.7629 37.4749ZM39.0379 36.8249L39.9379 37.4124L40.4004 36.6874L40.2754 36.5999L39.9004 37.1749V37.1999L39.8754 37.1874L39.1254 36.6874L39.0379 36.8249Z" fill="#C8A400"/>
<mask id="mask0_10790_11210" style="mask-type:luminance" maskUnits="userSpaceOnUse" x="25" y="24" width="14" height="12">
<path d="M31.9958 24.1492L25.2012 35.9145H38.7905L31.9958 24.1492Z" fill="white"/>
</mask>
<g mask="url(#mask0_10790_11210)">
<path d="M31.9948 24.1492L28.6348 29.9625L26.9922 32.8105H36.9975L35.4295 30.1011L31.9948 24.1492Z" fill="white"/>
<path opacity="0.6" d="M31.9943 24.1492L31.7383 24.5758L31.9943 30.4425L32.2503 24.5758L31.9943 24.1492Z" fill="#17C0EB" stroke="#17C0EB" stroke-width="0.0106666"/>
<path d="M31.995 29.5999H31.9844L31.995 29.9199L32.0057 29.5999H31.995Z" fill="white"/>
<path opacity="0.6" d="M37.9893 28.5052L37.5044 28.3936L32.004 30.4499L37.6626 28.8805L37.9893 28.5052Z" fill="#17C0EB" stroke="#17C0EB" stroke-width="0.0106666"/>
<path d="M32.806 30.1896L32.8027 30.1794L32.5017 30.2885L32.8093 30.1997L32.806 30.1896Z" fill="white"/>
<path opacity="0.6" d="M35.6991 35.5531L35.6555 35.0574L32 30.4617L35.2412 35.3584L35.6991 35.5531Z" fill="#17C0EB" stroke="#17C0EB" stroke-width="0.0106666"/>
<path d="M32.4953 31.1435L32.5039 31.1372L32.3072 30.8846L32.4866 31.1497L32.4953 31.1435Z" fill="white"/>
<path opacity="0.6" d="M28.289 35.5531L28.7469 35.3584L31.9881 30.4617L28.3327 35.0575L28.289 35.5531Z" fill="#17C0EB" stroke="#17C0EB" stroke-width="0.0106666"/>
<path d="M31.4933 31.1434L31.502 31.1497L31.6814 30.8845L31.4847 31.1371L31.4933 31.1434Z" fill="white"/>
<path opacity="0.6" d="M25.999 28.5051L26.3257 28.8804L31.9843 30.4498L26.4839 28.3934L25.999 28.5051Z" fill="#17C0EB" stroke="#17C0EB" stroke-width="0.0106666"/>
<path d="M31.183 30.1893L31.1797 30.1995L31.4873 30.2882L31.1863 30.1792L31.183 30.1893Z" fill="white"/>
<path opacity="0.6" d="M32.8726 24.2107L32.5598 24.5976L31.9968 30.4427L33.0668 24.6688L32.8726 24.2107Z" fill="#17C0EB" stroke="#17C0EB" stroke-width="0.0106666"/>
<path d="M32.1141 29.6082L32.1035 29.6067L32.0695 29.9251L32.1246 29.6097L32.1141 29.6082Z" fill="white"/>
<path opacity="0.6" d="M38.2046 29.3586L37.74 29.1805L32.0069 30.4514L37.8289 29.6848L38.2046 29.3586Z" fill="#17C0EB" stroke="#17C0EB" stroke-width="0.0106666"/>
<path d="M32.8358 30.3049L32.834 30.2944L32.5207 30.3605L32.8377 30.3154L32.8358 30.3049Z" fill="white"/>
<path opacity="0.6" d="M34.9556 36.0194L34.9813 35.5224L32.0011 30.4627L34.5293 35.7628L34.9556 36.0194Z" fill="#17C0EB" stroke="#17C0EB" stroke-width="0.0106666"/>
<path d="M32.3968 31.2067L32.4062 31.2017L32.2466 30.9241L32.3874 31.2117L32.3968 31.2067Z" fill="white"/>
<path opacity="0.6" d="M27.6166 34.9879L28.0972 34.8589L31.9883 30.4609L27.7289 34.5032L27.6166 34.9879Z" fill="#17C0EB" stroke="#17C0EB" stroke-width="0.0106666"/>
<path d="M31.4025 31.0671L31.4102 31.0745L31.6248 30.8369L31.3948 31.0596L31.4025 31.0671Z" fill="white"/>
<path opacity="0.6" d="M26.329 27.6898L26.6003 28.107L31.9854 30.4486L26.8247 27.6468L26.329 27.6898Z" fill="#17C0EB" stroke="#17C0EB" stroke-width="0.0106666"/>
<path d="M31.2273 30.0793L31.2227 30.0889L31.5149 30.2196L31.232 30.0697L31.2273 30.0793Z" fill="white"/>
<path opacity="0.6" d="M33.7324 24.3933L33.3687 24.7329L31.9977 30.4428L33.8609 24.874L33.7324 24.3933Z" fill="#17C0EB" stroke="#17C0EB" stroke-width="0.0106666"/>
<path d="M32.231 29.6328L32.2207 29.6299L32.1428 29.9404L32.2412 29.6358L32.231 29.6328Z" fill="white"/>
<path opacity="0.6" d="M38.2941 30.2331L37.8588 29.9922L32.0046 30.4528L37.8766 30.5039L38.2941 30.2331Z" fill="#17C0EB" stroke="#17C0EB" stroke-width="0.0106666"/>
<path d="M32.8461 30.4233L32.8457 30.4126L32.5263 30.4344L32.8464 30.4339L32.8461 30.4233Z" fill="white"/>
<path opacity="0.6" d="M34.1501 36.3769L34.2447 35.8884L31.9976 30.4631L33.7636 36.0635L34.1501 36.3769Z" fill="#17C0EB" stroke="#17C0EB" stroke-width="0.0106666"/>
<path d="M32.2849 31.2549L32.2949 31.2512L32.1755 30.9542L32.2749 31.2585L32.2849 31.2549Z" fill="white"/>
<path opacity="0.6" d="M27.026 34.3342L27.5198 34.2732L31.9852 30.4596L27.2046 33.8697L27.026 34.3342Z" fill="#17C0EB" stroke="#17C0EB" stroke-width="0.0106666"/>
<path d="M31.3216 30.9784L31.3281 30.9868L31.5737 30.7814L31.315 30.97L31.3216 30.9784Z" fill="white"/>
<path opacity="0.6" d="M26.7682 26.9279L26.9787 27.3787L31.9855 30.4471L27.265 26.9543L26.7682 26.9279Z" fill="#17C0EB" stroke="#17C0EB" stroke-width="0.0106666"/>
<path d="M31.2872 29.9758L31.2812 29.9846L31.5525 30.1547L31.2932 29.9669L31.2872 29.9758Z" fill="white"/>
<path opacity="0.6" d="M34.56 24.6945L34.1526 24.9801L32.0003 30.4437L34.6204 25.1884L34.56 24.6945Z" fill="#17C0EB" stroke="#17C0EB" stroke-width="0.0106666"/>
<path d="M32.3437 29.6738L32.334 29.6694L32.2136 29.9661L32.3535 29.6781L32.3437 29.6738Z" fill="white"/>
<path opacity="0.6" d="M38.2643 31.1123L37.8667 30.8131L32.0054 30.4544L37.8132 31.3223L38.2643 31.1123Z" fill="#17C0EB" stroke="#17C0EB" stroke-width="0.0106666"/>
<path d="M32.8426 30.5426L32.8438 30.532L32.5244 30.5091L32.8415 30.5532L32.8426 30.5426Z" fill="white"/>
<path opacity="0.6" d="M33.3062 36.6196L33.4679 36.1491L31.9978 30.4638L32.9671 36.2555L33.3062 36.6196Z" fill="#17C0EB" stroke="#17C0EB" stroke-width="0.0106666"/>
<path d="M32.1732 31.2881L32.1836 31.2859L32.1066 30.9751L32.1627 31.2903L32.1732 31.2881Z" fill="white"/>
<path opacity="0.6" d="M26.5361 33.6054L27.0336 33.6138L31.9862 30.4588L26.7776 33.1704L26.5361 33.6054Z" fill="#17C0EB" stroke="#17C0EB" stroke-width="0.0106666"/>
<path d="M31.2564 30.8802L31.2617 30.8894L31.5335 30.7202L31.2511 30.8709L31.2564 30.8802Z" fill="white"/>
<path opacity="0.6" d="M27.31 26.235L27.4557 26.7108L31.9868 30.4461L27.7983 26.3303L27.31 26.235Z" fill="#17C0EB" stroke="#17C0EB" stroke-width="0.0106666"/>
<path d="M31.3607 29.8822L31.3535 29.8901L31.5985 30.0963L31.3678 29.8743L31.3607 29.8822Z" fill="white"/>
<path opacity="0.6" d="M35.3343 25.1071L34.8911 25.3333L31.9993 30.4441L35.3253 25.6046L35.3343 25.1071Z" fill="#17C0EB" stroke="#17C0EB" stroke-width="0.0106666"/>
<path d="M32.4465 29.7295L32.4375 29.7239L32.277 30.0009L32.4556 29.7352L32.4465 29.7295Z" fill="white"/>
<path opacity="0.6" d="M38.1119 31.9784L37.7598 31.6268L32.0055 30.4559L37.636 32.1235L38.1119 31.9784Z" fill="#17C0EB" stroke="#17C0EB" stroke-width="0.0106666"/>
<path d="M32.8236 30.6598L32.8262 30.6494L32.5131 30.5823L32.821 30.6701L32.8236 30.6598Z" fill="white"/>
<path opacity="0.6" d="M32.4341 36.742L32.6597 36.2985L31.9951 30.464L32.1489 36.3342L32.4341 36.742Z" fill="#17C0EB" stroke="#17C0EB" stroke-width="0.0106666"/>
<path d="M32.0538 31.3047L32.0645 31.304L32.0315 30.9855L32.0432 31.3054L32.0538 31.3047Z" fill="white"/>
<path opacity="0.6" d="M26.1502 32.8149L26.6417 32.8924L31.9852 30.4574L26.4499 32.4177L26.1502 32.8149Z" fill="#17C0EB" stroke="#17C0EB" stroke-width="0.0106666"/>
<path d="M31.203 30.7731L31.207 30.783L31.4997 30.6532L31.199 30.7632L31.203 30.7731Z" fill="white"/>
<path opacity="0.6" d="M27.9422 25.6243L28.0203 26.1157L31.9875 30.4452L28.4126 25.7866L27.9422 25.6243Z" fill="#17C0EB" stroke="#17C0EB" stroke-width="0.0106666"/>
<path d="M31.4457 29.7998L31.4375 29.8066L31.6514 30.0449L31.4538 29.7929L31.4457 29.7998Z" fill="white"/>
<path opacity="0.6" d="M36.0477 25.624L35.5773 25.7863L32.0024 30.445L35.9695 26.1154L36.0477 25.624Z" fill="#17C0EB" stroke="#17C0EB" stroke-width="0.0106666"/>
<path d="M32.5433 29.7996L32.5352 29.7927L32.3376 30.0447L32.5515 29.8064L32.5433 29.7996Z" fill="white"/>
<path opacity="0.6" d="M37.8416 32.8148L37.5419 32.4176L32.0065 30.4572L37.3501 32.8923L37.8416 32.8148Z" fill="#17C0EB" stroke="#17C0EB" stroke-width="0.0106666"/>
<path d="M32.787 30.7728L32.791 30.7629L32.4903 30.653L32.783 30.7827L32.787 30.7728Z" fill="white"/>
<path opacity="0.6" d="M31.5552 36.7419L31.8403 36.3341L31.9942 30.4639L31.3296 36.2984L31.5552 36.7419Z" fill="#17C0EB" stroke="#17C0EB" stroke-width="0.0106666"/>
<path d="M31.9347 31.3044L31.9453 31.3052L31.957 30.9852L31.924 31.3037L31.9347 31.3044Z" fill="white"/>
<path opacity="0.6" d="M25.8795 31.9784L26.3554 32.1236L31.9858 30.4559L26.2315 31.6268L25.8795 31.9784Z" fill="#17C0EB" stroke="#17C0EB" stroke-width="0.0106666"/>
<path d="M31.1673 30.6598L31.1699 30.6702L31.4778 30.5824L31.1648 30.6495L31.1673 30.6598Z" fill="white"/>
<path opacity="0.6" d="M28.6546 25.1073L28.6636 25.6048L31.9895 30.4443L29.0978 25.3334L28.6546 25.1073Z" fill="#17C0EB" stroke="#17C0EB" stroke-width="0.0106666"/>
<path d="M31.5422 29.7297L31.5332 29.7354L31.7118 30.0011L31.5513 29.724L31.5422 29.7297Z" fill="white"/>
<path opacity="0.6" d="M36.6791 26.2349L36.1907 26.3302L32.0023 30.446L36.5333 26.7107L36.6791 26.2349Z" fill="#17C0EB" stroke="#17C0EB" stroke-width="0.0106666"/>
<path d="M32.6282 29.8822L32.6211 29.8743L32.3904 30.0963L32.6354 29.8901L32.6282 29.8822Z" fill="white"/>
<path opacity="0.6" d="M37.454 33.6052L37.2125 33.1702L32.0039 30.4586L36.9565 33.6136L37.454 33.6052Z" fill="#17C0EB" stroke="#17C0EB" stroke-width="0.0106666"/>
<path d="M32.7329 30.8798L32.7383 30.8706L32.4558 30.7198L32.7276 30.8891L32.7329 30.8798Z" fill="white"/>
<path opacity="0.6" d="M30.6851 36.6194L31.0243 36.2553L31.9936 30.4636L30.5234 36.1488L30.6851 36.6194Z" fill="#17C0EB" stroke="#17C0EB" stroke-width="0.0106666"/>
<path d="M31.8177 31.2878L31.8281 31.29L31.8842 30.9748L31.8073 31.2856L31.8177 31.2878Z" fill="white"/>
<path opacity="0.6" d="M25.7252 31.1121L26.1763 31.3221L31.984 30.4543L26.1228 30.8129L25.7252 31.1121Z" fill="#17C0EB" stroke="#17C0EB" stroke-width="0.0106666"/>
<path d="M31.1454 30.5424L31.1465 30.553L31.4636 30.5089L31.1443 30.5318L31.1454 30.5424Z" fill="white"/>
<path opacity="0.6" d="M29.4311 24.6942L29.3708 25.1881L31.9909 30.4434L29.8385 24.9799L29.4311 24.6942Z" fill="#17C0EB" stroke="#17C0EB" stroke-width="0.0106666"/>
<path d="M31.6484 29.6736L31.6387 29.678L31.7786 29.966L31.6582 29.6693L31.6484 29.6736Z" fill="white"/>
<path opacity="0.6" d="M37.2213 26.9281L36.7244 26.9544L32.0039 30.4472L37.0107 27.3789L37.2213 26.9281Z" fill="#17C0EB" stroke="#17C0EB" stroke-width="0.0106666"/>
<path d="M32.7032 29.9761L32.6973 29.9673L32.4379 30.1551L32.7092 29.985L32.7032 29.9761Z" fill="white"/>
<path opacity="0.6" d="M36.9615 34.3343L36.7829 33.8699L32.0023 30.4598L36.4677 34.2733L36.9615 34.3343Z" fill="#17C0EB" stroke="#17C0EB" stroke-width="0.0106666"/>
<path d="M32.6673 30.9786L32.6738 30.9702L32.4151 30.7816L32.6607 30.987L32.6673 30.9786Z" fill="white"/>
<path opacity="0.6" d="M29.8395 36.377L30.226 36.0637L31.992 30.4633L29.7449 35.8886L29.8395 36.377Z" fill="#17C0EB" stroke="#17C0EB" stroke-width="0.0106666"/>
<path d="M31.7029 31.2551L31.7129 31.2588L31.8123 30.9544L31.6928 31.2515L31.7029 31.2551Z" fill="white"/>
<path opacity="0.6" d="M25.6945 30.2332L26.112 30.5039L31.984 30.4528L26.1298 29.9922L25.6945 30.2332Z" fill="#17C0EB" stroke="#17C0EB" stroke-width="0.0106666"/>
<path d="M31.141 30.4234L31.1406 30.4341L31.4608 30.4346L31.1414 30.4128L31.141 30.4234Z" fill="white"/>
<path opacity="0.6" d="M30.2578 24.3935L30.1293 24.8742L31.9925 30.4431L30.6215 24.7331L30.2578 24.3935Z" fill="#17C0EB" stroke="#17C0EB" stroke-width="0.0106666"/>
<path d="M31.7603 29.633L31.75 29.636L31.8485 29.9406L31.7705 29.6301L31.7603 29.633Z" fill="white"/>
<path opacity="0.6" d="M37.6611 27.6898L37.1653 27.6468L32.0047 30.4486L37.3898 28.1069L37.6611 27.6898Z" fill="#17C0EB" stroke="#17C0EB" stroke-width="0.0106666"/>
<path d="M32.7625 30.0792L32.7578 30.0696L32.4749 30.2194L32.7672 30.0888L32.7625 30.0792Z" fill="white"/>
<path opacity="0.6" d="M36.3744 34.9879L36.2622 34.5031L32.0027 30.4609L35.8939 34.8588L36.3744 34.9879Z" fill="#17C0EB" stroke="#17C0EB" stroke-width="0.0106666"/>
<path d="M32.588 31.067L32.5957 31.0596L32.3657 30.8368L32.5804 31.0744L32.588 31.067Z" fill="white"/>
<path opacity="0.6" d="M29.0357 36.0192L29.462 35.7627L31.9902 30.4626L29.01 35.5223L29.0357 36.0192Z" fill="#17C0EB" stroke="#17C0EB" stroke-width="0.0106666"/>
<path d="M31.5941 31.2067L31.6035 31.2117L31.7443 30.9241L31.5847 31.2017L31.5941 31.2067Z" fill="white"/>
<path opacity="0.6" d="M25.7866 29.3585L26.1624 29.6847L31.9843 30.4513L26.2513 29.1805L25.7866 29.3585Z" fill="#17C0EB" stroke="#17C0EB" stroke-width="0.0106666"/>
<path d="M31.1542 30.3049L31.1523 30.3154L31.4693 30.3605L31.156 30.2944L31.1542 30.3049Z" fill="white"/>
<path opacity="0.6" d="M31.1168 24.2107L30.9227 24.6689L31.9926 30.4428L31.4297 24.5976L31.1168 24.2107Z" fill="#17C0EB" stroke="#17C0EB" stroke-width="0.0106666"/>
<path d="M31.8758 29.6084L31.8652 29.6099L31.9203 29.9253L31.8864 29.6069L31.8758 29.6084Z" fill="white"/>
<path d="M31.9957 28.3518C30.8595 28.3505 29.761 28.7596 28.9024 29.5038L27.3451 32.2131C27.2893 32.505 27.2607 32.8013 27.2598 33.0985H27.7931C27.8474 32.0219 28.3133 31.0073 29.0945 30.2645C29.8757 29.5217 30.9124 29.1075 31.9904 29.1075C33.0684 29.1075 34.1051 29.5217 34.8863 30.2645C35.6675 31.0073 36.1334 32.0219 36.1877 33.0985H36.7211C36.7236 32.8017 36.6986 32.5053 36.6464 32.2131L35.0891 29.5038C34.23 28.7604 33.1318 28.3515 31.9957 28.3518Z" fill="#FF0000"/>
<path d="M31.9944 28.448C30.7889 28.4455 29.6298 28.9122 28.7624 29.7493L27.4824 31.9787C27.3918 32.3415 27.3452 32.714 27.3438 33.088H27.8024C27.8781 32.0279 28.3526 31.0358 29.1304 30.3115C29.9082 29.5873 30.9316 29.1846 31.9944 29.1846C33.0572 29.1846 34.0806 29.5873 34.8584 30.3115C35.6362 31.0358 36.1107 32.0279 36.1864 33.088H36.645C36.644 32.7104 36.5975 32.3344 36.5064 31.968L35.2264 29.7493C34.359 28.9122 33.1999 28.4455 31.9944 28.448Z" fill="#FF6600"/>
<path d="M31.9945 28.5332C31.35 28.5315 30.7125 28.6666 30.1241 28.9295C29.5357 29.1925 29.0098 29.5773 28.5812 30.0585L27.6532 31.6585C27.5053 32.124 27.4333 32.6102 27.4399 33.0985H27.7919C27.8462 32.0219 28.3121 31.0074 29.0933 30.2646C29.8745 29.5218 30.9112 29.1075 31.9892 29.1075C33.0672 29.1075 34.1039 29.5218 34.8851 30.2646C35.6663 31.0074 36.1322 32.0219 36.1865 33.0985H36.5598C36.5598 32.5972 36.4745 32.1172 36.3358 31.6692L35.3972 30.0585C34.9702 29.5781 34.4461 29.1937 33.8595 28.9308C33.273 28.6678 32.6373 28.5323 31.9945 28.5332Z" fill="#FFFF00"/>
<path d="M31.9956 28.6186C31.2599 28.6182 30.5354 28.799 29.8862 29.145C29.2369 29.491 28.6829 29.9916 28.273 30.6026L27.9743 31.1252C27.672 31.7391 27.5151 32.4143 27.5156 33.0986H27.8036C27.8793 32.0384 28.3538 31.0464 29.1316 30.3221C29.9095 29.5978 30.9328 29.1951 31.9956 29.1951C33.0584 29.1951 34.0818 29.5978 34.8596 30.3221C35.6374 31.0464 36.1119 32.0384 36.1876 33.0986H36.4756C36.4761 32.4143 36.3192 31.7391 36.0169 31.1252L35.7183 30.5919C35.3084 29.981 34.7543 29.4804 34.1051 29.1343C33.4558 28.7883 32.7313 28.6075 31.9956 28.6079V28.6186Z" fill="#00FF00"/>
<path d="M31.9943 28.6934C31.4163 28.6934 30.8439 28.8074 30.31 29.0289C29.7762 29.2504 29.2912 29.5751 28.883 29.9843C28.4748 30.3935 28.1513 30.8792 27.9311 31.4136C27.7109 31.9481 27.5982 32.5207 27.5996 33.0987H27.8023C27.878 32.0386 28.3525 31.0465 29.1303 30.3222C29.9081 29.5979 30.9315 29.1953 31.9943 29.1953C33.0571 29.1953 34.0804 29.5979 34.8582 30.3222C35.6361 31.0465 36.1106 32.0386 36.1863 33.0987H36.3889C36.3903 32.5207 36.2777 31.9481 36.0575 31.4136C35.8372 30.8792 35.5138 30.3935 35.1055 29.9843C34.6973 29.5751 34.2124 29.2504 33.6785 29.0289C33.1446 28.8074 32.5723 28.6934 31.9943 28.6934Z" fill="#00CCFF"/>
<path d="M31.9949 28.7786C30.852 28.7786 29.7559 29.2326 28.9477 30.0407C28.1396 30.8489 27.6855 31.945 27.6855 33.0879H27.8349C27.8349 31.9846 28.2732 30.9265 29.0533 30.1463C29.8335 29.3662 30.8916 28.9279 31.9949 28.9279C33.0982 28.9279 34.1563 29.3662 34.9364 30.1463C35.7166 30.9265 36.1548 31.9846 36.1548 33.0879H36.3042C36.2985 31.9487 35.842 30.8581 35.0345 30.0545C34.2269 29.251 33.1341 28.7999 31.9949 28.7999V28.7786Z" fill="#0000FF"/>
<path d="M31.9942 28.8747C31.4331 28.8746 30.8777 28.9863 30.3603 29.2032C29.8429 29.4201 29.3739 29.738 28.9807 30.1381C28.5874 30.5383 28.2779 31.0128 28.07 31.5339C27.8622 32.0551 27.7603 32.6124 27.7702 33.1733H27.8555V33.088C27.8668 31.9904 28.3137 30.9422 29.0979 30.174C29.882 29.4059 30.9392 28.9807 32.0368 28.992C33.1345 29.0033 34.1827 29.4502 34.9508 30.2344C35.719 31.0185 36.1441 32.0757 36.1328 33.1733H36.2182V33.088C36.2182 32.5333 36.1089 31.984 35.8966 31.4715C35.6844 30.9591 35.3732 30.4934 34.981 30.1012C34.5887 29.709 34.1231 29.3978 33.6106 29.1855C33.0981 28.9733 32.5489 28.864 31.9942 28.864V28.8747Z" fill="#800080"/>
<path d="M32.0372 30.7305C31.9626 30.7305 31.9092 30.6772 31.8452 30.6665C31.8141 30.6939 31.7908 30.7291 31.7777 30.7684C31.7646 30.8078 31.7621 30.8499 31.7706 30.8905C31.8026 30.9012 31.8026 30.9332 31.8666 30.9865C31.9306 31.0398 31.9199 31.0612 31.9092 31.1998C31.9092 31.2425 31.9199 31.3598 31.9732 31.3705C32.0266 31.3812 32.0799 31.3385 32.0906 31.2425C32.1012 31.1678 32.1332 31.1145 32.1652 31.0718C32.1972 30.8692 32.1439 30.7945 32.0372 30.7305Z" fill="#510000"/>
<path d="M31.6964 30.2398C31.6324 30.2398 31.5258 30.3465 31.4831 30.2931C31.4618 30.2611 31.4511 30.1971 31.4831 30.1438C31.5311 30.0377 31.6139 29.9512 31.7178 29.8985C31.9631 29.7491 32.1337 29.7918 32.2511 30.0051C32.3684 30.1971 32.4857 30.4105 32.4964 30.5811C32.4964 30.6345 32.5284 30.7305 32.4751 30.7838C32.3364 30.9331 31.9844 30.6238 31.7818 30.6771C31.7178 30.6878 31.6324 30.7411 31.5684 30.6985C31.5258 30.6665 31.5684 30.5918 31.6004 30.5598C31.6644 30.5065 31.7604 30.3038 31.7498 30.2185C31.7498 30.1758 31.7498 30.2398 31.6964 30.2398Z" fill="#FF0000"/>
<path d="M31.6754 30.1439C31.5474 30.1865 31.5687 30.2505 31.5047 30.3038C31.5261 30.3145 31.5901 30.3358 31.6541 30.2718C31.6754 30.2505 31.7074 30.2398 31.7287 30.2398L31.6541 30.3145C31.5907 30.3667 31.5397 30.4323 31.5047 30.5065C31.4727 30.5918 31.4621 30.6878 31.4728 30.6985C31.4728 30.6985 31.5154 30.7838 31.6327 30.8265C31.8461 30.9118 31.8887 31.0932 32.1127 31.0932C32.2834 31.0932 32.2621 30.9758 32.4007 30.9972C32.5074 31.0185 32.5821 30.9225 32.4647 30.8692C32.2746 30.8318 32.0789 30.8318 31.8887 30.8692C31.8461 30.4425 31.8887 30.5918 31.8781 30.3998C31.8674 30.2185 31.8034 30.2079 31.8781 30.0479C31.8247 30.1545 31.7501 30.1332 31.6647 30.1332L31.6754 30.1439Z" fill="url(#paint0_linear_10790_11210)"/>
<path d="M32.1025 29.8452L32.0918 29.9092L32.1238 30.0159L32.1451 30.1225C32.1451 30.1545 32.1878 30.1652 32.2198 30.1865C32.2625 30.2185 32.2198 30.2932 32.2518 30.3039C32.2731 30.3039 32.3051 30.1972 32.3051 30.1759V30.1012C32.2885 30.0686 32.2707 30.0366 32.2518 30.0052C32.2452 29.9942 32.2381 29.9836 32.2305 29.9732C32.2068 29.9373 32.178 29.905 32.1451 29.8772C32.1348 29.8696 32.1241 29.8625 32.1131 29.8559L32.0918 29.8452H32.1025Z" fill="#FF2A2A"/>
<path d="M32.1335 30.656L31.9202 30.5813C31.7815 30.5387 31.6428 30.4533 31.5468 30.496C31.5148 30.5067 31.5148 30.5387 31.5042 30.592C31.5042 30.6453 31.4508 30.7307 31.5042 30.6987C31.5682 30.656 31.7602 30.784 31.8242 30.816C31.8562 30.8373 31.9308 30.88 31.9415 30.9227C31.9628 30.9867 31.9415 31.1147 31.9415 31.1787C31.9415 31.232 31.9628 31.3707 32.0162 31.392C32.0802 31.4027 32.1335 31.3493 32.1548 31.2533C32.1868 31.1573 32.1975 31.104 32.2402 31.0507C32.2828 30.9973 32.3255 30.9653 32.3788 30.9547C32.4428 30.9547 32.5282 31.008 32.5282 30.9333C32.5282 30.8907 32.4855 30.848 32.5068 30.784C32.5175 30.7307 32.4642 30.7413 32.4108 30.72L32.1335 30.656Z" fill="url(#paint1_linear_10790_11210)"/>
<path d="M31.8236 30.8159C31.7809 30.7946 31.5783 30.6559 31.5036 30.7093C31.4716 30.7093 31.4609 30.7093 31.4609 30.6773L31.4823 30.5813C31.4823 30.5493 31.5036 30.4959 31.5356 30.4746C31.6103 30.4106 31.7809 30.5279 31.8663 30.5599L31.8236 30.8159Z" fill="#910000"/>
<path d="M32.1873 31.0826C32.2833 30.912 32.3473 30.9333 32.4647 30.9333C32.5073 30.9333 32.518 30.9013 32.5073 30.8586C32.4753 30.9226 32.326 30.8586 32.2407 30.8906C32.0807 30.9653 32.1127 31.2853 32.0273 31.3173C32.1127 31.392 32.1447 31.136 32.1873 31.0826Z" fill="#FF3A3A"/>
<path d="M26.9924 32.8105L25.9258 34.6559H38.0751L37.0084 32.8212H27.0031L26.9924 32.8105Z" fill="white"/>
<path d="M26.6289 34.2823C26.4613 34.282 26.2938 34.2927 26.1276 34.3143L26.0742 34.4103C26.3302 34.3783 26.5756 34.3356 26.8422 34.3356C27.1835 34.3356 27.5035 34.421 27.8769 34.421H28.3675C28.7409 34.421 29.0502 34.3356 29.4022 34.3356C29.7542 34.3356 30.0742 34.421 30.4475 34.421H30.9382C31.3115 34.421 31.6209 34.3356 31.9729 34.3356C32.3249 34.3356 32.6449 34.421 33.0182 34.421H33.4982C33.8715 34.421 34.1915 34.3356 34.5435 34.3356C34.8955 34.3356 35.2155 34.421 35.5888 34.421H36.0688C36.4422 34.421 36.7622 34.3356 37.1142 34.3356C37.3915 34.3356 37.6475 34.389 37.9142 34.4103L37.8608 34.3036C37.7049 34.2875 37.5482 34.2803 37.3915 34.2823H36.9115C36.5382 34.2823 36.2182 34.357 35.8662 34.3676C35.5142 34.3676 35.1942 34.2823 34.8209 34.2823H34.3409C33.9675 34.2823 33.6475 34.357 33.2955 34.3676C32.9435 34.3676 32.6235 34.2823 32.2502 34.2823H31.7809C31.4075 34.2823 31.0875 34.357 30.7355 34.3676C30.3835 34.3676 30.0635 34.2823 29.6902 34.2823H29.2102C28.8369 34.2823 28.5169 34.357 28.1649 34.3676C27.8129 34.3676 27.5035 34.2823 27.1302 34.2823H26.6289Z" fill="url(#paint2_linear_10790_11210)"/>
<path d="M26.6289 34.1651C26.4613 34.1648 26.2938 34.1755 26.1276 34.1971L26.0742 34.2931C26.3302 34.2611 26.5756 34.2184 26.8422 34.2184C27.1835 34.2184 27.5035 34.3038 27.8769 34.3038H28.3675C28.7409 34.3038 29.0502 34.2184 29.4022 34.2184C29.7542 34.2184 30.0742 34.3038 30.4475 34.3038H30.9382C31.3115 34.3038 31.6209 34.2184 31.9729 34.2184C32.3249 34.2184 32.6449 34.3038 33.0182 34.3038H33.4982C33.8715 34.3038 34.1915 34.2184 34.5435 34.2184C34.8955 34.2184 35.2155 34.3038 35.5888 34.3038H36.0688C36.4422 34.3038 36.7622 34.2184 37.1142 34.2184C37.3915 34.2184 37.6475 34.2718 37.9142 34.2931L37.8608 34.1864C37.7049 34.1703 37.5482 34.1631 37.3915 34.1651H36.9115C36.5382 34.1651 36.2182 34.2398 35.8662 34.2504C35.5142 34.2504 35.1942 34.1651 34.8209 34.1651H34.3409C33.9675 34.1651 33.6475 34.2398 33.2955 34.2504C32.9435 34.2504 32.6235 34.1651 32.2502 34.1651H31.7809C31.4075 34.1651 31.0875 34.2398 30.7355 34.2504C30.3835 34.2504 30.0635 34.1651 29.6902 34.1651H29.2102C28.8369 34.1651 28.5169 34.2398 28.1649 34.2504C27.8129 34.2504 27.5035 34.1651 27.1302 34.1651H26.6289Z" fill="url(#paint3_linear_10790_11210)"/>
<path d="M26.6289 34.0477C26.4613 34.0474 26.2938 34.0581 26.1276 34.0797L26.0742 34.1757C26.3302 34.1437 26.5756 34.101 26.8422 34.101C27.1835 34.101 27.5035 34.1864 27.8769 34.1864H28.3675C28.7409 34.1864 29.0502 34.101 29.4022 34.101C29.7542 34.101 30.0742 34.1864 30.4475 34.1864H30.9382C31.3115 34.1864 31.6209 34.101 31.9729 34.101C32.3249 34.101 32.6449 34.1864 33.0182 34.1864H33.4982C33.8715 34.1864 34.1915 34.101 34.5435 34.101C34.8955 34.101 35.2155 34.1864 35.5888 34.1864H36.0688C36.4422 34.1864 36.7622 34.101 37.1142 34.101C37.3915 34.101 37.6475 34.1544 37.9142 34.1757L37.8608 34.069C37.7049 34.0528 37.5482 34.0457 37.3915 34.0477H36.9115C36.5382 34.0477 36.2182 34.1224 35.8662 34.133C35.5142 34.133 35.1942 34.0477 34.8209 34.0477H34.3409C33.9675 34.0477 33.6475 34.1224 33.2955 34.133C32.9435 34.133 32.6235 34.0477 32.2502 34.0477H31.7809C31.4075 34.0477 31.0875 34.1224 30.7355 34.133C30.3835 34.133 30.0635 34.0477 29.6902 34.0477H29.2102C28.8369 34.0477 28.5169 34.1224 28.1649 34.133C27.8129 34.133 27.5035 34.0477 27.1302 34.0477H26.6289Z" fill="url(#paint4_linear_10790_11210)"/>
<path d="M26.6289 33.9305C26.4613 33.9302 26.2938 33.9409 26.1276 33.9625L26.0742 34.0585C26.3302 34.0265 26.5756 33.9838 26.8422 33.9838C27.1835 33.9838 27.5035 34.0692 27.8769 34.0692H28.3675C28.7409 34.0692 29.0502 33.9838 29.4022 33.9838C29.7542 33.9838 30.0742 34.0692 30.4475 34.0692H30.9382C31.3115 34.0692 31.6209 33.9838 31.9729 33.9838C32.3249 33.9838 32.6449 34.0692 33.0182 34.0692H33.4982C33.8715 34.0692 34.1915 33.9838 34.5435 33.9838C34.8955 33.9838 35.2155 34.0692 35.5888 34.0692H36.0688C36.4422 34.0692 36.7622 33.9838 37.1142 33.9838C37.3915 33.9838 37.6475 34.0372 37.9142 34.0585L37.8608 33.9518C37.7049 33.9357 37.5482 33.9285 37.3915 33.9305H36.9115C36.5382 33.9305 36.2182 34.0052 35.8662 34.0158C35.5142 34.0158 35.1942 33.9305 34.8209 33.9305H34.3409C33.9675 33.9305 33.6475 34.0052 33.2955 34.0158C32.9435 34.0158 32.6235 33.9305 32.2502 33.9305H31.7809C31.4075 33.9305 31.0875 34.0052 30.7355 34.0158C30.3835 34.0158 30.0635 33.9305 29.6902 33.9305H29.2102C28.8369 33.9305 28.5169 34.0052 28.1649 34.0158C27.8129 34.0158 27.5035 33.9305 27.1302 33.9305H26.6289Z" fill="url(#paint5_linear_10790_11210)"/>
<path d="M26.6289 33.8133C26.4613 33.813 26.2938 33.8237 26.1276 33.8453L26.0742 33.9413C26.3302 33.9093 26.5756 33.8666 26.8422 33.8666C27.1835 33.8666 27.5035 33.952 27.8769 33.952H28.3675C28.7409 33.952 29.0502 33.8666 29.4022 33.8666C29.7542 33.8666 30.0742 33.952 30.4475 33.952H30.9382C31.3115 33.952 31.6209 33.8666 31.9729 33.8666C32.3249 33.8666 32.6449 33.952 33.0182 33.952H33.4982C33.8715 33.952 34.1915 33.8666 34.5435 33.8666C34.8955 33.8666 35.2155 33.952 35.5888 33.952H36.0688C36.4422 33.952 36.7622 33.8666 37.1142 33.8666C37.3915 33.8666 37.6475 33.92 37.9142 33.9413L37.8608 33.8346C37.7049 33.8185 37.5482 33.8113 37.3915 33.8133H36.9115C36.5382 33.8133 36.2182 33.888 35.8662 33.8986C35.5142 33.8986 35.1942 33.8133 34.8209 33.8133H34.3409C33.9675 33.8133 33.6475 33.888 33.2955 33.8986C32.9435 33.8986 32.6235 33.8133 32.2502 33.8133H31.7809C31.4075 33.8133 31.0875 33.888 30.7355 33.8986C30.3835 33.8986 30.0635 33.8133 29.6902 33.8133H29.2102C28.8369 33.8133 28.5169 33.888 28.1649 33.8986C27.8129 33.8986 27.5035 33.8133 27.1302 33.8133H26.6289Z" fill="url(#paint6_linear_10790_11210)"/>
<path d="M26.6289 33.6959C26.4613 33.6956 26.2938 33.7063 26.1276 33.7279L26.0742 33.8239C26.3302 33.7919 26.5756 33.7492 26.8422 33.7492C27.1835 33.7492 27.5035 33.8345 27.8769 33.8345H28.3675C28.7409 33.8345 29.0502 33.7492 29.4022 33.7492C29.7542 33.7492 30.0742 33.8345 30.4475 33.8345H30.9382C31.3115 33.8345 31.6209 33.7492 31.9729 33.7492C32.3249 33.7492 32.6449 33.8345 33.0182 33.8345H33.4982C33.8715 33.8345 34.1915 33.7492 34.5435 33.7492C34.8955 33.7492 35.2155 33.8345 35.5888 33.8345H36.0688C36.4422 33.8345 36.7622 33.7492 37.1142 33.7492C37.3915 33.7492 37.6475 33.8025 37.9142 33.8239L37.8608 33.7172C37.7049 33.701 37.5482 33.6939 37.3915 33.6959H36.9115C36.5382 33.6959 36.2182 33.7705 35.8662 33.7812C35.5142 33.7812 35.1942 33.6959 34.8209 33.6959H34.3409C33.9675 33.6959 33.6475 33.7705 33.2955 33.7812C32.9435 33.7812 32.6235 33.6959 32.2502 33.6959H31.7809C31.4075 33.6959 31.0875 33.7705 30.7355 33.7812C30.3835 33.7812 30.0635 33.6959 29.6902 33.6959H29.2102C28.8369 33.6959 28.5169 33.7705 28.1649 33.7812C27.8129 33.7812 27.5035 33.6959 27.1302 33.6959H26.6289Z" fill="url(#paint7_linear_10790_11210)"/>
<path d="M26.6289 33.5677C26.4613 33.5674 26.2938 33.5781 26.1276 33.5997L26.0742 33.6957C26.3302 33.6637 26.5756 33.621 26.8422 33.621C27.1835 33.621 27.5035 33.7064 27.8769 33.7064H28.3675C28.7409 33.7064 29.0502 33.621 29.4022 33.621C29.7542 33.621 30.0742 33.7064 30.4475 33.7064H30.9382C31.3115 33.7064 31.6209 33.621 31.9729 33.621C32.3249 33.621 32.6449 33.7064 33.0182 33.7064H33.4982C33.8715 33.7064 34.1915 33.621 34.5435 33.621C34.8955 33.621 35.2155 33.7064 35.5888 33.7064H36.0688C36.4422 33.7064 36.7622 33.621 37.1142 33.621C37.3915 33.621 37.6475 33.6744 37.9142 33.6957L37.8608 33.589C37.7049 33.5729 37.5482 33.5657 37.3915 33.5677H36.9115C36.5382 33.5677 36.2182 33.6424 35.8662 33.653C35.5142 33.653 35.1942 33.5677 34.8209 33.5677H34.3409C33.9675 33.5677 33.6475 33.6424 33.2955 33.653C32.9435 33.653 32.6235 33.5677 32.2502 33.5677H31.7809C31.4075 33.5677 31.0875 33.6424 30.7355 33.653C30.3835 33.653 30.0635 33.5677 29.6902 33.5677H29.2102C28.8369 33.5677 28.5169 33.6424 28.1649 33.653C27.8129 33.653 27.5035 33.5677 27.1302 33.5677H26.6289Z" fill="url(#paint8_linear_10790_11210)"/>
<path d="M26.6289 33.4505C26.4613 33.4502 26.2938 33.4609 26.1276 33.4825L26.0742 33.5785C26.3302 33.5465 26.5756 33.5038 26.8422 33.5038C27.1835 33.5038 27.5035 33.5892 27.8769 33.5892H28.3675C28.7409 33.5892 29.0502 33.5038 29.4022 33.5038C29.7542 33.5038 30.0742 33.5892 30.4475 33.5892H30.9382C31.3115 33.5892 31.6209 33.5038 31.9729 33.5038C32.3249 33.5038 32.6449 33.5892 33.0182 33.5892H33.4982C33.8715 33.5892 34.1915 33.5038 34.5435 33.5038C34.8955 33.5038 35.2155 33.5892 35.5888 33.5892H36.0688C36.4422 33.5892 36.7622 33.5038 37.1142 33.5038C37.3915 33.5038 37.6475 33.5572 37.9142 33.5785L37.8608 33.4718C37.7049 33.4557 37.5482 33.4485 37.3915 33.4505H36.9115C36.5382 33.4505 36.2182 33.5252 35.8662 33.5359C35.5142 33.5359 35.1942 33.4505 34.8209 33.4505H34.3409C33.9675 33.4505 33.6475 33.5252 33.2955 33.5359C32.9435 33.5359 32.6235 33.4505 32.2502 33.4505H31.7809C31.4075 33.4505 31.0875 33.5252 30.7355 33.5359C30.3835 33.5359 30.0635 33.4505 29.6902 33.4505H29.2102C28.8369 33.4505 28.5169 33.5252 28.1649 33.5359C27.8129 33.5359 27.5035 33.4505 27.1302 33.4505H26.6289Z" fill="url(#paint9_linear_10790_11210)"/>
<path d="M26.6289 33.3331C26.4613 33.3328 26.2938 33.3435 26.1276 33.3651L26.0742 33.4611C26.3302 33.4291 26.5756 33.3864 26.8422 33.3864C27.1835 33.3864 27.5035 33.4718 27.8769 33.4718H28.3675C28.7409 33.4718 29.0502 33.3864 29.4022 33.3864C29.7542 33.3864 30.0742 33.4718 30.4475 33.4718H30.9382C31.3115 33.4718 31.6209 33.3864 31.9729 33.3864C32.3249 33.3864 32.6449 33.4718 33.0182 33.4718H33.4982C33.8715 33.4718 34.1915 33.3864 34.5435 33.3864C34.8955 33.3864 35.2155 33.4718 35.5888 33.4718H36.0688C36.4422 33.4718 36.7622 33.3864 37.1142 33.3864C37.3915 33.3864 37.6475 33.4398 37.9142 33.4611L37.8608 33.3544C37.7049 33.3382 37.5482 33.3311 37.3915 33.3331H36.9115C36.5382 33.3331 36.2182 33.4078 35.8662 33.4184C35.5142 33.4184 35.1942 33.3331 34.8209 33.3331H34.3409C33.9675 33.3331 33.6475 33.4078 33.2955 33.4184C32.9435 33.4184 32.6235 33.3331 32.2502 33.3331H31.7809C31.4075 33.3331 31.0875 33.4078 30.7355 33.4184C30.3835 33.4184 30.0635 33.3331 29.6902 33.3331H29.2102C28.8369 33.3331 28.5169 33.4078 28.1649 33.4184C27.8129 33.4184 27.5035 33.3331 27.1302 33.3331H26.6289Z" fill="url(#paint10_linear_10790_11210)"/>
<path d="M27.0039 32.7998V32.8211H36.9985L36.9879 32.7998H27.0039ZM26.9826 32.8318L26.9719 32.8638H37.0092L36.9985 32.8318H26.9719H26.9826ZM26.9612 32.8745L26.9399 32.9065H37.0519L37.0305 32.8745H26.9612ZM26.9292 32.9278L26.8972 32.9811H37.0945L37.0625 32.9278H26.9292ZM26.8866 33.0025L26.8546 33.0558H37.1372L37.1052 33.0025H26.8866ZM26.8439 33.0771L26.8226 33.1198H37.1692L37.1479 33.0771H26.8439ZM26.8012 33.1518L26.7799 33.1945H37.2225L37.1905 33.1518H26.8012ZM26.7586 33.2265L26.7266 33.2905H37.2652L37.2332 33.2265H26.7692H26.7586Z" fill="url(#paint11_linear_10790_11210)"/>
<path d="M27.4512 33.3118C27.8138 33.3864 27.8458 33.3118 27.8458 33.3118H27.4512ZM36.1445 33.3118C36.1445 33.3118 36.1765 33.3864 36.5391 33.3118H36.1445Z" fill="url(#paint12_linear_10790_11210)"/>
<path d="M35.2584 31.6799C35.0771 31.6799 35.0238 31.7759 35.0238 31.7759C34.7358 32.9066 33.7651 34.0479 32.6131 34.0479H31.7598V35.1999H38.3091L37.6477 34.0266C36.6131 33.8773 35.7704 32.8213 35.5038 31.7759C35.5038 31.7759 35.4397 31.6799 35.2584 31.6799Z" fill="url(#paint13_linear_10790_11210)"/>
<path d="M35.2577 31.7332C35.1723 31.7332 35.1297 31.7439 35.0977 31.7652L35.0657 31.7972C34.9057 32.3878 34.5973 32.9276 34.1697 33.3652C33.743 33.8026 33.2097 34.1012 32.6123 34.1012H31.791V35.1572H38.287L37.679 34.0906C37.1777 34.0159 36.719 33.7492 36.3563 33.3652C35.9287 32.9276 35.6203 32.3878 35.4603 31.7972L35.4283 31.7652C35.3759 31.7379 35.3165 31.7268 35.2577 31.7332Z" fill="#97C924"/>
<path d="M35.2583 31.7332H35.301V32.8851C35.2908 33.1274 35.2172 33.3628 35.0877 33.5678C35.0343 33.7385 34.981 33.6745 34.8423 33.8771C34.6624 33.9392 34.4765 33.9821 34.2877 34.0051C34.021 34.0478 33.4343 34.0905 33.125 34.0158C33.522 33.8944 33.8816 33.6742 34.1703 33.3758C34.2496 33.2909 34.3244 33.2019 34.3943 33.1091C34.5131 32.9613 34.6201 32.8044 34.7143 32.6398L34.821 32.4265C34.872 32.3256 34.9183 32.2224 34.9597 32.1172C35.0008 32.0124 35.0364 31.9056 35.0663 31.7972L35.0983 31.7652L35.1623 31.7438L35.2583 31.7332Z" fill="#EDE71F"/>
<path d="M35.1948 31.8826C35.1415 32.5226 34.9495 33.2906 34.4801 33.7812C34.3095 33.9199 34.0855 34.0586 33.8828 34.0266C34.5975 33.4399 35.0348 32.5332 35.1841 31.8826H35.1948Z" fill="#C6CB24"/>
<path d="M34.6074 32.9919C34.5007 33.2799 34.0954 33.7066 33.6687 34.0586H33.3594C33.626 34.0373 34.2447 33.5253 34.6074 32.9919Z" fill="#9ECB34"/>
<path d="M33.6256 31.6799C33.4443 31.6799 33.3909 31.7759 33.3909 31.7759C33.1029 32.9066 32.1323 34.0479 30.9803 34.0479H30.127V35.1999H36.6763L36.0149 34.0266C34.9803 33.8773 34.1376 32.8213 33.8709 31.7759C33.8709 31.7759 33.8069 31.6799 33.6256 31.6799Z" fill="url(#paint14_linear_10790_11210)"/>
<path d="M33.6249 31.7332C33.5395 31.7332 33.4969 31.7439 33.4649 31.7652L33.4329 31.7972C33.2729 32.3878 32.9645 32.9276 32.5369 33.3652C32.1102 33.8026 31.5769 34.1012 30.9795 34.1012H30.1582V35.1572H36.6542L36.0462 34.0906C35.5448 34.0159 35.0862 33.7492 34.7235 33.3652C34.2959 32.9276 33.9874 32.3878 33.8275 31.7972L33.7955 31.7652C33.7431 31.7379 33.6837 31.7268 33.6249 31.7332Z" fill="#97C924"/>
<path d="M33.6255 31.7332H33.6682V32.8851C33.658 33.1274 33.5844 33.3628 33.4548 33.5678C33.4015 33.7385 33.3482 33.6745 33.2095 33.8771C33.0296 33.9392 32.8437 33.9821 32.6548 34.0051C32.3882 34.0478 31.8015 34.0905 31.4922 34.0158C31.8892 33.8944 32.2488 33.6742 32.5375 33.3758C32.6168 33.2909 32.6916 33.2019 32.7615 33.1091C32.8803 32.9613 32.9873 32.8044 33.0815 32.6398L33.1882 32.4265C33.2392 32.3256 33.2855 32.2224 33.3268 32.1172C33.368 32.0124 33.4036 31.9056 33.4335 31.7972L33.4655 31.7652L33.5295 31.7438L33.6255 31.7332Z" fill="#EDE71F"/>
<path d="M33.562 31.8826C33.5087 32.5226 33.3167 33.2906 32.8473 33.7812C32.6767 33.9199 32.4527 34.0586 32.25 34.0266C32.9647 33.4399 33.402 32.5332 33.5513 31.8826H33.562Z" fill="#C6CB24"/>
<path d="M32.9746 32.9919C32.8679 33.2799 32.4626 33.7066 32.0359 34.0586H31.7266C31.9932 34.0373 32.6119 33.5253 32.9746 32.9919Z" fill="#9ECB34"/>
<path d="M32.2284 31.7867C32.527 32.9067 33.487 34.048 34.639 34.048H35.503V35.2H28.4844V34.048H29.3377C30.4897 34.048 31.4604 32.9067 31.7484 31.776C31.7484 31.776 31.8124 31.6907 31.9937 31.6907C32.175 31.6907 32.2284 31.776 32.2284 31.776V31.7867Z" fill="url(#paint15_linear_10790_11210)"/>
<path d="M31.994 31.7335C32.0793 31.7335 32.122 31.7548 32.154 31.7655L32.186 31.7975C32.3459 32.388 32.6544 32.9278 33.082 33.3654C33.5087 33.8028 34.042 34.1014 34.6393 34.1014H35.4606V35.1574H28.5273V34.0908H29.3487C29.9353 34.0908 30.4793 33.8028 30.906 33.3654C31.3297 32.9266 31.6345 32.3869 31.7913 31.7975L31.8233 31.7655C31.8762 31.7393 31.9352 31.7282 31.994 31.7335Z" fill="#97C924"/>
<path d="M31.92 31.7333C31.9093 31.7328 31.8986 31.7328 31.888 31.7333L31.824 31.7653L31.792 31.7973C31.7623 31.9058 31.7267 32.0127 31.6853 32.1173C31.6478 32.2259 31.605 32.3327 31.5573 32.4373C31.5239 32.506 31.4883 32.5736 31.4507 32.64C31.3566 32.8046 31.2496 32.9616 31.1307 33.1093C31.0604 33.1984 30.9857 33.2839 30.9067 33.3653C30.6192 33.6675 30.2594 33.8915 29.8613 34.016C30.16 34.0906 30.288 34.016 30.5547 33.9733C30.768 33.9413 31.0027 33.9093 31.1947 33.8453C31.3547 33.632 31.3013 33.7066 31.3547 33.536C31.4827 33.3013 31.6747 33.088 31.7173 32.8213C31.888 32.5013 31.92 31.904 31.92 31.7333Z" fill="#EDE71F"/>
<path d="M31.9194 31.8826C31.8767 32.5226 31.6741 33.2906 31.2048 33.7812C31.0341 33.9199 30.8208 34.0586 30.6074 34.0266C31.3328 33.4399 31.7701 32.5332 31.9194 31.8826Z" fill="#C6CB24"/>
<path d="M31.333 32.9919C31.1011 33.4113 30.7809 33.7753 30.3944 34.0586H30.0957C30.3624 34.0373 30.9704 33.5253 31.333 32.9919Z" fill="#9ECB34"/>
<path d="M32.101 31.7439L32.1544 31.7652L32.197 31.7972C32.2273 31.9056 32.2629 32.0124 32.3037 32.1172C32.3413 32.2259 32.384 32.3326 32.4317 32.4372L32.5384 32.6399C32.6324 32.8046 32.7394 32.9615 32.8584 33.1092C32.9286 33.1983 33.0033 33.2838 33.0824 33.3652C33.3679 33.6794 33.7271 33.9177 34.1277 34.0586C33.349 34.0586 33.0183 33.9946 32.741 33.6319C32.5393 33.4184 32.3865 33.1636 32.293 32.8852C32.2397 32.6719 32.0797 32.1919 32.0904 31.7439H32.101Z" fill="#EDE71F"/>
<path d="M32.1543 31.8826C32.197 32.5226 32.389 33.1626 32.8583 33.6532C33.029 33.8026 33.2423 33.9306 33.4556 33.8986C32.7855 33.4125 32.3213 32.6934 32.1543 31.8826Z" fill="#C6CB24"/>
<path d="M30.3729 31.6799C30.1809 31.6799 30.1276 31.7759 30.1276 31.7759C29.8609 32.8213 28.8689 34.1546 27.8343 34.3146L27.3223 35.1999H32.5489V33.9946C31.6102 33.7386 30.8529 32.7466 30.6076 31.7759C30.6076 31.7759 30.5543 31.6906 30.3623 31.6906L30.3729 31.6799Z" fill="url(#paint16_linear_10790_11210)"/>
<path d="M30.3722 31.7332C30.2868 31.7332 30.2335 31.7545 30.2015 31.7652L30.1695 31.7972C29.9901 32.3824 29.6964 32.9262 29.3055 33.3972C28.9428 33.8558 28.2708 34.3145 27.8122 34.3572L27.3535 35.1572H32.4735V34.0158C32.0884 33.8887 31.7404 33.669 31.4602 33.3758C31.031 32.9352 30.7224 32.3916 30.5642 31.7972L30.5322 31.7652C30.4827 31.7404 30.4274 31.7293 30.3722 31.7332Z" fill="#97C924"/>
<path d="M30.2241 31.8826C30.1601 32.8426 29.6268 34.0692 29.0188 34.2719C28.8161 34.3466 28.4748 34.3679 28.3574 34.3786C28.8277 34.1173 29.2379 33.76 29.5613 33.33C29.8847 32.9001 30.1142 32.4069 30.2347 31.8826H30.2241Z" fill="#93BC30"/>
<path d="M30.3736 31.7332H30.3203V32.8852C30.3203 33.1305 30.4163 33.3332 30.5336 33.5679L30.555 33.6212C30.6083 33.7385 30.6403 33.7812 30.8003 33.9092C31.2584 34.2361 31.8186 34.3875 32.379 34.3359C32.2616 34.2399 32.1336 34.1545 32.0163 34.0799L32.4963 34.0265C32.1009 33.8974 31.7449 33.6698 31.4616 33.3652C31.4101 33.3135 31.3603 33.2602 31.3123 33.2052L31.2483 33.1199C31.1221 32.9691 31.0079 32.8086 30.907 32.6399C30.8691 32.57 30.8335 32.4988 30.8003 32.4266C30.7349 32.2916 30.6779 32.1526 30.6296 32.0106C30.606 31.9402 30.5847 31.869 30.5656 31.7972L30.5336 31.7652C30.5135 31.7551 30.4919 31.7479 30.4696 31.7439C30.4348 31.7354 30.3989 31.7318 30.363 31.7332H30.3736Z" fill="#EDE71F"/>
<path d="M30.4375 31.8826C30.4908 32.5226 30.6828 33.2906 31.1522 33.7812C31.3228 33.9199 31.5362 34.0586 31.7495 34.0266C31.0988 33.4666 30.64 32.7168 30.4375 31.8826Z" fill="#CCD11E"/>
<path d="M30.8848 32.7785C31.2303 33.4542 31.7735 34.0087 32.4421 34.3678H32.7088C32.2394 34.1118 31.4821 33.7492 30.8954 32.7678L30.8848 32.7785Z" fill="#9ECB34"/>
<path d="M28.7303 31.6799C28.5383 31.6799 28.485 31.7759 28.485 31.7759C28.2183 32.8213 27.2263 34.1546 26.1917 34.3146L25.6797 35.1999H30.9063V33.9946C29.9677 33.7386 29.2103 32.7466 28.965 31.7759C28.965 31.7759 28.9117 31.6906 28.7197 31.6906L28.7303 31.6799Z" fill="url(#paint17_linear_10790_11210)"/>
<path d="M28.7296 31.7332C28.6443 31.7332 28.5909 31.7545 28.5589 31.7652L28.5269 31.7972C28.3475 32.3824 28.0539 32.9262 27.6629 33.3972C27.3003 33.8558 26.6283 34.3145 26.1696 34.3572L25.7109 35.1572H30.8309V34.0158C30.4458 33.8887 30.0978 33.669 29.8176 33.3758C29.3884 32.9352 29.0798 32.3916 28.9216 31.7972L28.8896 31.7652C28.8401 31.7404 28.7848 31.7293 28.7296 31.7332Z" fill="#97C924"/>
<path d="M28.5815 31.8826C28.5175 32.8426 27.9842 34.0692 27.3762 34.2719C27.1735 34.3466 26.8322 34.3679 26.7148 34.3786C27.1852 34.1173 27.5953 33.76 27.9187 33.33C28.2421 32.9001 28.4716 32.4069 28.5922 31.8826H28.5815Z" fill="#93BC30"/>
<path d="M28.7311 31.7332H28.6777V32.8852C28.6777 33.1305 28.7737 33.3332 28.8911 33.5679L28.9124 33.6212C28.9657 33.7385 28.9977 33.7812 29.1577 33.9092C29.6158 34.2361 30.176 34.3875 30.7364 34.3359C30.6191 34.2399 30.4911 34.1545 30.3737 34.0799L30.8537 34.0265C30.4584 33.8974 30.1023 33.6698 29.8191 33.3652C29.7675 33.3135 29.7177 33.2602 29.6697 33.2052L29.6057 33.1199C29.4795 32.9691 29.3654 32.8086 29.2644 32.6399C29.2265 32.57 29.1909 32.4988 29.1577 32.4266C29.0923 32.2916 29.0353 32.1526 28.9871 32.0106C28.9634 31.9402 28.9421 31.869 28.9231 31.7972L28.8911 31.7652C28.8709 31.7551 28.8493 31.7479 28.8271 31.7439C28.7922 31.7354 28.7563 31.7318 28.7204 31.7332H28.7311Z" fill="#EDE71F"/>
<path d="M28.7949 31.8826C28.8483 32.5226 29.0403 33.2906 29.5096 33.7812C29.6803 33.9199 29.8936 34.0586 30.1069 34.0266C29.4562 33.4666 28.9974 32.7168 28.7949 31.8826Z" fill="#C6CB24"/>
<path d="M29.2422 32.7785C29.5877 33.4542 30.1309 34.0087 30.7995 34.3678H31.0662C30.5968 34.1118 29.8395 33.7492 29.2529 32.7678L29.2422 32.7785Z" fill="#9ECB34"/>
<path d="M38.0225 34.6346C37.9585 34.6559 37.5531 34.6132 37.3398 34.6346L37.2011 34.6666H36.8491C36.4651 34.6666 36.1345 34.7732 35.7718 34.7732C35.4091 34.7732 35.0785 34.6666 34.7051 34.6666H34.3425C33.9585 34.6666 33.6278 34.7732 33.2651 34.7732C32.9025 34.7732 32.5718 34.6666 32.1985 34.6666H31.8358C31.4518 34.6666 31.1212 34.7732 30.7692 34.7732C30.3958 34.7732 30.0758 34.6666 29.6918 34.6666H29.3292C28.9452 34.6666 28.6252 34.7732 28.2625 34.7732C27.8892 34.7732 27.5692 34.6666 27.1852 34.6666H26.8225C26.5238 34.6666 26.1612 34.7306 25.8732 34.7519L25.2012 35.9146H38.7905L38.0225 34.6346Z" fill="white"/>
<path d="M37.1143 34.4639H37.0503C36.709 34.4745 36.453 34.5812 35.8557 34.5812C35.2583 34.5812 35.1943 34.4745 34.5117 34.4959C33.8717 34.4959 33.6157 34.6239 33.2637 34.6239C32.9223 34.6239 32.3677 34.5492 31.9303 34.5919C31.5037 34.6345 30.9917 34.7305 30.6503 34.7305C30.2343 34.7305 29.8183 34.6559 29.3917 34.6985C28.9543 34.7412 28.7517 34.8585 28.2077 34.8585C27.7383 34.8585 27.2477 34.7839 26.8424 34.7839C26.4797 34.7839 26.0744 34.8905 25.7757 34.9332L25.6797 35.0932C25.925 35.0612 26.597 34.9545 26.8317 34.9545C27.0877 34.9545 27.973 35.0079 28.4637 34.9865C28.965 34.9759 29.0183 34.8585 29.605 34.8585C30.0103 34.8585 30.309 34.9012 30.725 34.9012C30.9917 34.9012 31.2263 34.7732 31.621 34.7732L31.9197 34.7625C32.2503 34.7092 32.8157 34.7625 33.1997 34.7839C33.5517 34.8052 33.7863 34.7199 34.1597 34.7092L34.629 34.6985C35.0023 34.6772 35.3117 34.7625 35.6637 34.7625C36.005 34.7412 36.3463 34.6559 36.709 34.6559L37.189 34.6345C37.4343 34.6345 37.8183 34.6345 38.0743 34.6879L37.989 34.5385C37.733 34.5279 37.4236 34.4639 37.1143 34.4639Z" fill="url(#paint18_linear_10790_11210)"/>
<path d="M26.6937 35.7118C26.3311 35.7118 26.0111 35.7972 25.6698 35.8078C25.5413 35.8044 25.413 35.7937 25.2858 35.7758L25.2324 35.8612H25.8724C26.2458 35.8612 26.5551 35.7758 26.8964 35.7652C27.2484 35.7758 27.5577 35.8718 27.9311 35.8718H28.4111C28.7737 35.8718 29.0937 35.7758 29.4351 35.7652C29.7871 35.7758 30.1071 35.8718 30.4697 35.8718H30.9497C31.3231 35.8718 31.6324 35.7758 31.9844 35.7652C32.3257 35.7758 32.6351 35.8718 33.0084 35.8718H33.4884C33.8511 35.8718 34.1711 35.7758 34.5231 35.7652C34.8644 35.7758 35.1844 35.8718 35.547 35.8718H36.027C36.4004 35.8718 36.7097 35.7758 37.051 35.7652C37.403 35.7758 37.7124 35.8718 38.0857 35.8718H38.5657L38.7577 35.8612L38.7044 35.7758C38.5977 35.7865 38.4804 35.8078 38.363 35.8078C38.011 35.8078 37.7017 35.7012 37.3284 35.7012H36.8484C36.4857 35.7012 36.1657 35.8078 35.8244 35.8078C35.4724 35.7972 35.1631 35.7012 34.7897 35.7012H34.3097C33.9471 35.7012 33.6271 35.8078 33.2857 35.8078C32.9337 35.7972 32.6244 35.7012 32.2511 35.7012H31.7711C31.3977 35.7012 31.0884 35.8078 30.7471 35.8078C30.3951 35.7972 30.0857 35.7012 29.7124 35.7012H29.2324C28.8697 35.7012 28.5497 35.8078 28.2084 35.8078C27.8564 35.7972 27.5471 35.7012 27.1737 35.7012H26.6937V35.7118Z" fill="url(#paint19_linear_10790_11210)"/>
<path d="M26.6937 35.5732C26.3311 35.5732 26.0111 35.6585 25.6698 35.6692C25.5413 35.6657 25.413 35.6551 25.2858 35.6372L25.2324 35.7225H25.8724C26.2458 35.7225 26.5551 35.6372 26.8964 35.6265C27.2484 35.6372 27.5577 35.7332 27.9311 35.7332H28.4111C28.7737 35.7332 29.0937 35.6372 29.4351 35.6265C29.7871 35.6372 30.1071 35.7332 30.4697 35.7332H30.9497C31.3231 35.7332 31.6324 35.6372 31.9844 35.6265C32.3257 35.6372 32.6351 35.7332 33.0084 35.7332H33.4884C33.8511 35.7332 34.1711 35.6372 34.5231 35.6265C34.8644 35.6372 35.1844 35.7332 35.547 35.7332H36.027C36.4004 35.7332 36.7097 35.6372 37.051 35.6265C37.403 35.6372 37.7124 35.7332 38.0857 35.7332H38.5657L38.7577 35.7225L38.7044 35.6372C38.5977 35.6478 38.4804 35.6692 38.363 35.6692C38.011 35.6692 37.7017 35.5625 37.3284 35.5625H36.8484C36.4857 35.5625 36.1657 35.6692 35.8244 35.6692C35.4724 35.6585 35.1631 35.5625 34.7897 35.5625H34.3097C33.9471 35.5625 33.6271 35.6692 33.2857 35.6692C32.9337 35.6585 32.6244 35.5625 32.2511 35.5625H31.7711C31.3977 35.5625 31.0884 35.6692 30.7471 35.6692C30.3951 35.6585 30.0857 35.5625 29.7124 35.5625H29.2324C28.8697 35.5625 28.5497 35.6692 28.2084 35.6692C27.8564 35.6585 27.5471 35.5625 27.1737 35.5625H26.6937V35.5732Z" fill="url(#paint20_linear_10790_11210)"/>
<path d="M26.6937 35.4345C26.3311 35.4345 26.0111 35.5198 25.6698 35.5305C25.5413 35.5271 25.413 35.5164 25.2858 35.4985L25.2324 35.5838H25.8724C26.2458 35.5838 26.5551 35.4985 26.8964 35.4878C27.2484 35.4985 27.5577 35.5945 27.9311 35.5945H28.4111C28.7737 35.5945 29.0937 35.4985 29.4351 35.4878C29.7871 35.4985 30.1071 35.5945 30.4697 35.5945H30.9497C31.3231 35.5945 31.6324 35.4985 31.9844 35.4878C32.3257 35.4985 32.6351 35.5945 33.0084 35.5945H33.4884C33.8511 35.5945 34.1711 35.4985 34.5231 35.4878C34.8644 35.4985 35.1844 35.5945 35.547 35.5945H36.027C36.4004 35.5945 36.7097 35.4985 37.051 35.4878C37.403 35.4985 37.7124 35.5945 38.0857 35.5945H38.5657L38.7577 35.5838L38.7044 35.4985C38.5977 35.5092 38.4804 35.5305 38.363 35.5305C38.011 35.5305 37.7017 35.4238 37.3284 35.4238H36.8484C36.4857 35.4238 36.1657 35.5305 35.8244 35.5305C35.4724 35.5198 35.1631 35.4238 34.7897 35.4238H34.3097C33.9471 35.4238 33.6271 35.5305 33.2857 35.5305C32.9337 35.5198 32.6244 35.4238 32.2511 35.4238H31.7711C31.3977 35.4238 31.0884 35.5305 30.7471 35.5305C30.3951 35.5198 30.0857 35.4238 29.7124 35.4238H29.2324C28.8697 35.4238 28.5497 35.5305 28.2084 35.5305C27.8564 35.5198 27.5471 35.4238 27.1737 35.4238H26.6937V35.4345Z" fill="url(#paint21_linear_10790_11210)"/>
<path d="M26.6937 35.2958C26.3311 35.2958 26.0111 35.3812 25.6698 35.3918C25.5413 35.3884 25.413 35.3777 25.2858 35.3598L25.2324 35.4452H25.8724C26.2458 35.4452 26.5551 35.3598 26.8964 35.3492C27.2484 35.3598 27.5577 35.4558 27.9311 35.4558H28.4111C28.7737 35.4558 29.0937 35.3598 29.4351 35.3492C29.7871 35.3598 30.1071 35.4558 30.4697 35.4558H30.9497C31.3231 35.4558 31.6324 35.3598 31.9844 35.3492C32.3257 35.3598 32.6351 35.4558 33.0084 35.4558H33.4884C33.8511 35.4558 34.1711 35.3598 34.5231 35.3492C34.8644 35.3598 35.1844 35.4558 35.547 35.4558H36.027C36.4004 35.4558 36.7097 35.3598 37.051 35.3492C37.403 35.3598 37.7124 35.4558 38.0857 35.4558H38.5657L38.7577 35.4452L38.7044 35.3598C38.5977 35.3705 38.4804 35.3918 38.363 35.3918C38.011 35.3918 37.7017 35.2852 37.3284 35.2852H36.8484C36.4857 35.2852 36.1657 35.3918 35.8244 35.3918C35.4724 35.3812 35.1631 35.2852 34.7897 35.2852H34.3097C33.9471 35.2852 33.6271 35.3918 33.2857 35.3918C32.9337 35.3812 32.6244 35.2852 32.2511 35.2852H31.7711C31.3977 35.2852 31.0884 35.3918 30.7471 35.3918C30.3951 35.3812 30.0857 35.2852 29.7124 35.2852H29.2324C28.8697 35.2852 28.5497 35.3918 28.2084 35.3918C27.8564 35.3812 27.5471 35.2852 27.1737 35.2852H26.6937V35.2958Z" fill="url(#paint22_linear_10790_11210)"/>
<path d="M26.6937 35.1571C26.3311 35.1571 26.0111 35.2425 25.6698 35.2532C25.5413 35.2497 25.413 35.239 25.2858 35.2211L25.2324 35.3065H25.8724C26.2458 35.3065 26.5551 35.2211 26.8964 35.2105C27.2484 35.2211 27.5577 35.3171 27.9311 35.3171H28.4111C28.7737 35.3171 29.0937 35.2211 29.4351 35.2105C29.7871 35.2211 30.1071 35.3171 30.4697 35.3171H30.9497C31.3231 35.3171 31.6324 35.2211 31.9844 35.2105C32.3257 35.2211 32.6351 35.3171 33.0084 35.3171H33.4884C33.8511 35.3171 34.1711 35.2211 34.5231 35.2105C34.8644 35.2211 35.1844 35.3171 35.547 35.3171H36.027C36.4004 35.3171 36.7097 35.2211 37.051 35.2105C37.403 35.2211 37.7124 35.3171 38.0857 35.3171H38.5657L38.7577 35.3065L38.7044 35.2211C38.5977 35.2318 38.4804 35.2532 38.363 35.2532C38.011 35.2532 37.7017 35.1465 37.3284 35.1465H36.8484C36.4857 35.1465 36.1657 35.2532 35.8244 35.2532C35.4724 35.2425 35.1631 35.1465 34.7897 35.1465H34.3097C33.9471 35.1465 33.6271 35.2532 33.2857 35.2532C32.9337 35.2425 32.6244 35.1465 32.2511 35.1465H31.7711C31.3977 35.1465 31.0884 35.2532 30.7471 35.2532C30.3951 35.2425 30.0857 35.1465 29.7124 35.1465H29.2324C28.8697 35.1465 28.5497 35.2532 28.2084 35.2532C27.8564 35.2425 27.5471 35.1465 27.1737 35.1465H26.6937V35.1571Z" fill="url(#paint23_linear_10790_11210)"/>
<path d="M26.6937 35.0185C26.3311 35.0185 26.0111 35.1038 25.6698 35.1145C25.5413 35.1111 25.413 35.1004 25.2858 35.0825L25.2324 35.1678H25.8724C26.2458 35.1678 26.5551 35.0825 26.8964 35.0718C27.2484 35.0825 27.5577 35.1785 27.9311 35.1785H28.4111C28.7737 35.1785 29.0937 35.0825 29.4351 35.0718C29.7871 35.0825 30.1071 35.1785 30.4697 35.1785H30.9497C31.3231 35.1785 31.6324 35.0825 31.9844 35.0718C32.3257 35.0825 32.6351 35.1785 33.0084 35.1785H33.4884C33.8511 35.1785 34.1711 35.0825 34.5231 35.0718C34.8644 35.0825 35.1844 35.1785 35.547 35.1785H36.027C36.4004 35.1785 36.7097 35.0825 37.051 35.0718C37.403 35.0825 37.7124 35.1785 38.0857 35.1785H38.5657L38.7577 35.1678L38.7044 35.0825C38.5977 35.0931 38.4804 35.1145 38.363 35.1145C38.011 35.1145 37.7017 35.0078 37.3284 35.0078H36.8484C36.4857 35.0078 36.1657 35.1145 35.8244 35.1145C35.4724 35.1038 35.1631 35.0078 34.7897 35.0078H34.3097C33.9471 35.0078 33.6271 35.1145 33.2857 35.1145C32.9337 35.1038 32.6244 35.0078 32.2511 35.0078H31.7711C31.3977 35.0078 31.0884 35.1145 30.7471 35.1145C30.3951 35.1038 30.0857 35.0078 29.7124 35.0078H29.2324C28.8697 35.0078 28.5497 35.1145 28.2084 35.1145C27.8564 35.1038 27.5471 35.0078 27.1737 35.0078H26.6937V35.0185Z" fill="url(#paint24_linear_10790_11210)"/>
<path d="M26.6937 34.8905C26.3311 34.8905 26.0111 34.9759 25.6698 34.9865C25.5413 34.9831 25.413 34.9724 25.2858 34.9545L25.2324 35.0399H25.8724C26.2458 35.0399 26.5551 34.9545 26.8964 34.9439C27.2484 34.9545 27.5577 35.0505 27.9311 35.0505H28.4111C28.7737 35.0505 29.0937 34.9545 29.4351 34.9439C29.7871 34.9545 30.1071 35.0505 30.4697 35.0505H30.9497C31.3231 35.0505 31.6324 34.9545 31.9844 34.9439C32.3257 34.9545 32.6351 35.0505 33.0084 35.0505H33.4884C33.8511 35.0505 34.1711 34.9545 34.5231 34.9439C34.8644 34.9545 35.1844 35.0505 35.547 35.0505H36.027C36.4004 35.0505 36.7097 34.9545 37.051 34.9439C37.403 34.9545 37.7124 35.0505 38.0857 35.0505H38.5657L38.7577 35.0399L38.7044 34.9545C38.5977 34.9652 38.4804 34.9865 38.363 34.9865C38.011 34.9865 37.7017 34.8799 37.3284 34.8799H36.8484C36.4857 34.8799 36.1657 34.9865 35.8244 34.9865C35.4724 34.9759 35.1631 34.8799 34.7897 34.8799H34.3097C33.9471 34.8799 33.6271 34.9865 33.2857 34.9865C32.9337 34.9759 32.6244 34.8799 32.2511 34.8799H31.7711C31.3977 34.8799 31.0884 34.9865 30.7471 34.9865C30.3951 34.9759 30.0857 34.8799 29.7124 34.8799H29.2324C28.8697 34.8799 28.5497 34.9865 28.2084 34.9865C27.8564 34.9759 27.5471 34.8799 27.1737 34.8799H26.6937V34.8905Z" fill="url(#paint25_linear_10790_11210)"/>
<path d="M26.6937 34.7519C26.3311 34.7519 26.0111 34.8372 25.6698 34.8479C25.5413 34.8444 25.413 34.8338 25.2858 34.8159L25.2324 34.9012H25.8724C26.2458 34.9012 26.5551 34.8159 26.8964 34.8052C27.2484 34.8159 27.5577 34.9119 27.9311 34.9119H28.4111C28.7737 34.9119 29.0937 34.8159 29.4351 34.8052C29.7871 34.8159 30.1071 34.9119 30.4697 34.9119H30.9497C31.3231 34.9119 31.6324 34.8159 31.9844 34.8052C32.3257 34.8159 32.6351 34.9119 33.0084 34.9119H33.4884C33.8511 34.9119 34.1711 34.8159 34.5231 34.8052C34.8644 34.8159 35.1844 34.9119 35.547 34.9119H36.027C36.4004 34.9119 36.7097 34.8159 37.051 34.8052C37.403 34.8159 37.7124 34.9119 38.0857 34.9119H38.5657L38.7577 34.9012L38.7044 34.8159C38.5977 34.8265 38.4804 34.8479 38.363 34.8479C38.011 34.8479 37.7017 34.7412 37.3284 34.7412H36.8484C36.4857 34.7412 36.1657 34.8479 35.8244 34.8479C35.4724 34.8372 35.1631 34.7412 34.7897 34.7412H34.3097C33.9471 34.7412 33.6271 34.8479 33.2857 34.8479C32.9337 34.8372 32.6244 34.7412 32.2511 34.7412H31.7711C31.3977 34.7412 31.0884 34.8479 30.7471 34.8479C30.3951 34.8372 30.0857 34.7412 29.7124 34.7412H29.2324C28.8697 34.7412 28.5497 34.8479 28.2084 34.8479C27.8564 34.8372 27.5471 34.7412 27.1737 34.7412H26.6937V34.7519Z" fill="url(#paint26_linear_10790_11210)"/>
<path d="M26.6937 34.6132C26.3311 34.6132 26.0111 34.6985 25.6698 34.7092C25.5413 34.7058 25.413 34.6951 25.2858 34.6772L25.2324 34.7625H25.8724C26.2458 34.7625 26.5551 34.6772 26.8964 34.6665C27.2484 34.6772 27.5577 34.7732 27.9311 34.7732H28.4111C28.7737 34.7732 29.0937 34.6772 29.4351 34.6665C29.7871 34.6772 30.1071 34.7732 30.4697 34.7732H30.9497C31.3231 34.7732 31.6324 34.6772 31.9844 34.6665C32.3257 34.6772 32.6351 34.7732 33.0084 34.7732H33.4884C33.8511 34.7732 34.1711 34.6772 34.5231 34.6665C34.8644 34.6772 35.1844 34.7732 35.547 34.7732H36.027C36.4004 34.7732 36.7097 34.6772 37.051 34.6665C37.403 34.6772 37.7124 34.7732 38.0857 34.7732H38.5657L38.7577 34.7625L38.7044 34.6772C38.5977 34.6879 38.4804 34.7092 38.363 34.7092C38.011 34.7092 37.7017 34.6025 37.3284 34.6025H36.8484C36.4857 34.6025 36.1657 34.7092 35.8244 34.7092C35.4724 34.6985 35.1631 34.6025 34.7897 34.6025H34.3097C33.9471 34.6025 33.6271 34.7092 33.2857 34.7092C32.9337 34.6985 32.6244 34.6025 32.2511 34.6025H31.7711C31.3977 34.6025 31.0884 34.7092 30.7471 34.7092C30.3951 34.6985 30.0857 34.6025 29.7124 34.6025H29.2324C28.8697 34.6025 28.5497 34.7092 28.2084 34.7092C27.8564 34.6985 27.5471 34.6025 27.1737 34.6025H26.6937V34.6132Z" fill="url(#paint27_linear_10790_11210)"/>
<path d="M26.0108 34.6346L25.7441 35.0826C26.0535 35.0293 26.5015 34.9013 26.8855 34.9013C27.2695 34.9013 27.7388 34.9973 28.2081 35.008C28.7415 35.008 28.9548 34.88 29.3815 34.8373C29.8188 34.7946 30.2348 34.8906 30.6615 34.9013C30.9921 34.9013 31.5041 34.784 31.9415 34.7413C32.3681 34.688 32.7628 34.7733 33.2748 34.7733C33.7974 34.784 33.8828 34.6453 34.5121 34.6346C35.1948 34.624 35.2588 34.7306 35.8561 34.7306C36.3041 34.752 36.6988 34.6346 37.1041 34.6133C37.5094 34.5813 37.6908 34.6133 37.9894 34.6133L37.7868 34.272L26.9815 34.5173L26.0108 34.6346Z" fill="#97C924"/>
<path d="M37.3281 34.624L37.7548 34.656C37.8577 34.6683 37.9608 34.679 38.0641 34.688L38.0215 34.6347C37.9575 34.656 37.5521 34.6134 37.3388 34.6347L37.3281 34.624Z" fill="white"/>
</g>
<path d="M31.9992 23.9875L28.5742 29.925L25.0742 36H38.9242L35.4992 30.0625L31.9992 23.9875ZM31.9992 24.3L35.3742 30.1376L38.6617 35.8376H25.3492L28.7117 30.0126L31.9992 24.3Z" fill="#C8A400"/>
</g>
<defs>
<linearGradient id="paint0_linear_10790_11210" x1="31.8567" y1="30.8372" x2="32.0594" y2="30.2292" gradientUnits="userSpaceOnUse">
<stop stop-color="#510000"/>
<stop offset="0.3" stop-color="#8A0000"/>
<stop offset="1" stop-color="#AA0000"/>
</linearGradient>
<linearGradient id="paint1_linear_10790_11210" x1="32.1442" y1="31.0827" x2="32.3042" y2="30.656" gradientUnits="userSpaceOnUse">
<stop stop-color="#FF2A2A"/>
<stop offset="1" stop-color="#FF0000"/>
</linearGradient>
<linearGradient id="paint2_linear_10790_11210" x1="26.0742" y1="33.8663" x2="46.3301" y2="33.8663" gradientUnits="userSpaceOnUse">
<stop stop-color="#002255"/>
<stop offset="0.5" stop-color="#0044AA"/>
<stop offset="1" stop-color="#002255"/>
</linearGradient>
<linearGradient id="paint3_linear_10790_11210" x1="26.0742" y1="33.7491" x2="46.3301" y2="33.7491" gradientUnits="userSpaceOnUse">
<stop stop-color="#002255"/>
<stop offset="0.5" stop-color="#0044AA"/>
<stop offset="1" stop-color="#002255"/>
</linearGradient>
<linearGradient id="paint4_linear_10790_11210" x1="26.0742" y1="33.6317" x2="46.3301" y2="33.6317" gradientUnits="userSpaceOnUse">
<stop stop-color="#002255"/>
<stop offset="0.5" stop-color="#0044AA"/>
<stop offset="1" stop-color="#002255"/>
</linearGradient>
<linearGradient id="paint5_linear_10790_11210" x1="26.0742" y1="33.5145" x2="46.3301" y2="33.5145" gradientUnits="userSpaceOnUse">
<stop stop-color="#002255"/>
<stop offset="0.5" stop-color="#0044AA"/>
<stop offset="1" stop-color="#002255"/>
</linearGradient>
<linearGradient id="paint6_linear_10790_11210" x1="26.0742" y1="33.3973" x2="46.3301" y2="33.3973" gradientUnits="userSpaceOnUse">
<stop stop-color="#002255"/>
<stop offset="0.5" stop-color="#0044AA"/>
<stop offset="1" stop-color="#002255"/>
</linearGradient>
<linearGradient id="paint7_linear_10790_11210" x1="26.0742" y1="33.2799" x2="46.3301" y2="33.2799" gradientUnits="userSpaceOnUse">
<stop stop-color="#002255"/>
<stop offset="0.5" stop-color="#0044AA"/>
<stop offset="1" stop-color="#002255"/>
</linearGradient>
<linearGradient id="paint8_linear_10790_11210" x1="26.0742" y1="33.1517" x2="46.3301" y2="33.1517" gradientUnits="userSpaceOnUse">
<stop stop-color="#002255"/>
<stop offset="0.5" stop-color="#0044AA"/>
<stop offset="1" stop-color="#002255"/>
</linearGradient>
<linearGradient id="paint9_linear_10790_11210" x1="26.0742" y1="33.0345" x2="46.3301" y2="33.0345" gradientUnits="userSpaceOnUse">
<stop stop-color="#002255"/>
<stop offset="0.5" stop-color="#0044AA"/>
<stop offset="1" stop-color="#002255"/>
</linearGradient>
<linearGradient id="paint10_linear_10790_11210" x1="26.0742" y1="32.9171" x2="46.3301" y2="32.9171" gradientUnits="userSpaceOnUse">
<stop stop-color="#002255"/>
<stop offset="0.5" stop-color="#0044AA"/>
<stop offset="1" stop-color="#002255"/>
</linearGradient>
<linearGradient id="paint11_linear_10790_11210" x1="26.0759" y1="33.8665" x2="46.3318" y2="33.8665" gradientUnits="userSpaceOnUse">
<stop stop-color="#002255"/>
<stop offset="0.5" stop-color="#0044AA"/>
<stop offset="1" stop-color="#002255"/>
</linearGradient>
<linearGradient id="paint12_linear_10790_11210" x1="26.0752" y1="33.8664" x2="46.3311" y2="33.8664" gradientUnits="userSpaceOnUse">
<stop stop-color="#002255"/>
<stop offset="0.5" stop-color="#0044AA"/>
<stop offset="1" stop-color="#002255"/>
</linearGradient>
<linearGradient id="paint13_linear_10790_11210" x1="30.3731" y1="33.2479" x2="30.3731" y2="33.8773" gradientUnits="userSpaceOnUse">
<stop stop-color="#F5F549"/>
<stop offset="1" stop-color="#97C924"/>
</linearGradient>
<linearGradient id="paint14_linear_10790_11210" x1="28.7403" y1="33.2479" x2="28.7403" y2="33.8773" gradientUnits="userSpaceOnUse">
<stop stop-color="#F5F549"/>
<stop offset="1" stop-color="#97C924"/>
</linearGradient>
<linearGradient id="paint15_linear_10790_11210" x1="30.3724" y1="33.248" x2="30.3724" y2="33.8773" gradientUnits="userSpaceOnUse">
<stop stop-color="#F5F549"/>
<stop offset="1" stop-color="#97C924"/>
</linearGradient>
<linearGradient id="paint16_linear_10790_11210" x1="30.3729" y1="33.2479" x2="30.3729" y2="33.8773" gradientUnits="userSpaceOnUse">
<stop stop-color="#F5F549"/>
<stop offset="1" stop-color="#97C924"/>
</linearGradient>
<linearGradient id="paint17_linear_10790_11210" x1="28.7303" y1="33.2479" x2="28.7303" y2="33.8773" gradientUnits="userSpaceOnUse">
<stop stop-color="#F5F549"/>
<stop offset="1" stop-color="#97C924"/>
</linearGradient>
<linearGradient id="paint18_linear_10790_11210" x1="25.681" y1="34.4663" x2="38.0896" y2="34.4663" gradientUnits="userSpaceOnUse">
<stop stop-color="#002255"/>
<stop offset="0.5" stop-color="#0044AA"/>
<stop offset="1" stop-color="#002255"/>
</linearGradient>
<linearGradient id="paint19_linear_10790_11210" x1="25.2796" y1="35.7055" x2="38.7101" y2="35.7055" gradientUnits="userSpaceOnUse">
<stop stop-color="#002255"/>
<stop offset="0.5" stop-color="#0044AA"/>
<stop offset="1" stop-color="#002255"/>
</linearGradient>
<linearGradient id="paint20_linear_10790_11210" x1="25.2796" y1="35.5668" x2="38.7101" y2="35.5668" gradientUnits="userSpaceOnUse">
<stop stop-color="#002255"/>
<stop offset="0.5" stop-color="#0044AA"/>
<stop offset="1" stop-color="#002255"/>
</linearGradient>
<linearGradient id="paint21_linear_10790_11210" x1="25.2796" y1="35.4281" x2="38.7101" y2="35.4281" gradientUnits="userSpaceOnUse">
<stop stop-color="#002255"/>
<stop offset="0.5" stop-color="#0044AA"/>
<stop offset="1" stop-color="#002255"/>
</linearGradient>
<linearGradient id="paint22_linear_10790_11210" x1="25.2796" y1="35.2895" x2="38.7101" y2="35.2895" gradientUnits="userSpaceOnUse">
<stop stop-color="#002255"/>
<stop offset="0.5" stop-color="#0044AA"/>
<stop offset="1" stop-color="#002255"/>
</linearGradient>
<linearGradient id="paint23_linear_10790_11210" x1="25.2796" y1="35.1508" x2="38.7101" y2="35.1508" gradientUnits="userSpaceOnUse">
<stop stop-color="#002255"/>
<stop offset="0.5" stop-color="#0044AA"/>
<stop offset="1" stop-color="#002255"/>
</linearGradient>
<linearGradient id="paint24_linear_10790_11210" x1="25.2796" y1="35.0121" x2="38.7101" y2="35.0121" gradientUnits="userSpaceOnUse">
<stop stop-color="#002255"/>
<stop offset="0.5" stop-color="#0044AA"/>
<stop offset="1" stop-color="#002255"/>
</linearGradient>
<linearGradient id="paint25_linear_10790_11210" x1="25.2796" y1="34.8842" x2="38.7101" y2="34.8842" gradientUnits="userSpaceOnUse">
<stop stop-color="#002255"/>
<stop offset="0.5" stop-color="#0044AA"/>
<stop offset="1" stop-color="#002255"/>
</linearGradient>
<linearGradient id="paint26_linear_10790_11210" x1="25.2796" y1="34.7455" x2="38.7101" y2="34.7455" gradientUnits="userSpaceOnUse">
<stop stop-color="#002255"/>
<stop offset="0.5" stop-color="#0044AA"/>
<stop offset="1" stop-color="#002255"/>
</linearGradient>
<linearGradient id="paint27_linear_10790_11210" x1="25.2796" y1="34.6068" x2="38.7101" y2="34.6068" gradientUnits="userSpaceOnUse">
<stop stop-color="#002255"/>
<stop offset="0.5" stop-color="#0044AA"/>
<stop offset="1" stop-color="#002255"/>
</linearGradient>
<clipPath id="clip0_10790_11210">
<rect width="64" height="64" rx="32" fill="white"/>
</clipPath>
</defs>
</svg>
