<svg width="64" height="64" viewBox="0 0 64 64" fill="none" xmlns="http://www.w3.org/2000/svg">
<g clip-path="url(#clip0_10790_11465)">
<mask id="mask0_10790_11465" style="mask-type:luminance" maskUnits="userSpaceOnUse" x="-1" y="0" width="65" height="64">
<path d="M-0.00585938 0H63.9843V63.9902H-0.00585938V0Z" fill="white"/>
</mask>
<g mask="url(#mask0_10790_11465)">
<path fill-rule="evenodd" clip-rule="evenodd" d="M-32 0H95.9933V63.9902H-32V0Z" fill="#0071BC"/>
<path fill-rule="evenodd" clip-rule="evenodd" d="M39.3958 50.6245C39.3958 50.6245 41.6535 48.2378 43.8209 48.6893C44.466 46.1865 46.9301 45.98 46.9301 45.98C46.9301 45.98 46.685 43.2063 49.8329 42.5999C49.9232 40.7163 51.8326 39.1424 51.8326 39.1424C51.8326 39.1424 51.4456 36.2267 53.4453 35.5429C52.2197 33.2207 53.8581 31.5436 53.8323 31.4919C53.8065 31.4403 51.7681 27.8151 53.5872 26.783C51.652 25.1574 52.2971 23.2997 52.2971 23.2997C52.2971 23.2997 50.1813 22.7707 50.9424 20.2421C49.2137 19.9453 48.8653 17.1458 48.8653 17.1458C48.8653 17.1458 46.1819 17.6747 45.8722 15.3525C44.1048 15.6363 43.9112 13.8946 43.8854 13.8946C43.8725 13.8946 40.4021 14.8364 39.7054 12.2175C38.3637 12.9012 37.7703 11.6627 37.7703 11.6627C37.7703 11.6627 35.8351 12.6174 34.6869 10.7725C32.3904 12.2046 31.1132 10.708 31.1132 10.708C31.1132 10.708 28.0943 12.7077 27.1009 11.1596C25.3205 12.9658 23.7337 12.1917 23.7337 12.1917C23.7337 12.1917 22.392 14.5655 20.2117 13.9591C19.7214 16.1782 17.2186 16.2169 17.2186 16.2169C17.2186 16.2169 17.4766 18.1779 14.4835 18.6939C14.0965 20.9903 12.5354 21.3903 12.5354 21.3903C12.5354 21.3903 12.6902 23.6222 11.2711 24.3318C11.7871 25.5961 10.4712 27.1313 10.4712 27.1313C10.4712 27.1313 11.8645 28.8988 9.96806 30.834C11.8 31.3113 10.4841 34.4592 10.4841 34.4592C10.4841 34.4592 12.9869 35.5945 11.4001 37.6845C13.2063 38.2522 12.6386 39.6971 12.6644 40.5357C13.8255 41.0518 14.8318 40.7937 14.3416 43.116C17.8765 43.503 16.1994 45.464 16.1994 45.464C16.1994 45.464 17.8507 45.5285 17.2057 46.8315C20.2116 46.767 20.6503 49.0892 20.6503 49.0892C20.6503 49.0892 23.4499 48.3539 23.824 49.4376C24.1852 50.5213 22.5984 57.8234 22.5984 57.8234C22.5984 57.8234 20.2375 57.8234 18.47 55.9398C14.3545 55.8366 15.2705 53.1273 15.206 53.1273C15.1415 53.1273 13.8384 53.6176 13.1676 51.3599C10.4067 51.9275 10.497 49.6053 10.4712 49.5795C10.4454 49.5666 9.23269 49.0247 9.69713 47.8765C6.85886 48.1346 7.06528 45.3608 7.06528 45.3608C6.44602 45.1028 6.21379 44.5222 6.3041 43.9417C5.94287 43.8126 3.41422 43.7739 4.71725 40.4583C2.31762 39.0005 3.81416 37.3233 3.81416 37.3233C3.81416 37.3233 0.485641 35.6074 3.04009 33.6336C1.15651 30.834 3.2207 29.4148 3.2207 29.4148C3.2207 29.4148 0.575947 26.7314 3.25941 24.822C2.82076 20.7323 5.2591 19.7647 5.2591 19.7647C5.2591 19.7647 3.96898 16.4491 7.45231 15.0558C7.67163 11.7014 10.0971 11.5982 10.0971 11.5982C10.0971 11.5982 10.1616 8.92766 13.9674 9.19859C14.7157 6.81186 17.3218 7.2892 17.3218 7.2892C17.3218 7.2892 18.1216 4.39932 21.6566 5.79266C23.4628 2.27062 26.1333 4.07679 26.1333 4.07679C26.1333 4.07679 27.8234 2.96728 28.6749 3.30272C29.7457 1.47074 32.0292 3.23821 33.5128 3.59944C34.0547 3.39302 35.9641 1.94808 37.4348 3.76716C39.3958 2.47704 41.0601 4.79926 41.0601 4.79926C41.0601 4.79926 43.7564 3.41883 45.0079 6.55383C50.7231 6.03778 49.8974 9.76624 49.8974 9.76624C49.8974 9.76624 54.3871 8.73414 53.4066 13.2109C57.4963 13.4947 57.0834 16.1782 57.0834 16.1782C57.0834 16.1782 59.6637 18.1392 58.5284 19.8937C60.8248 19.9969 59.9862 22.2159 59.9862 22.2159C59.9862 22.2159 61.7408 22.8868 60.2829 25.6219C63.6502 28.3182 60.928 30.9759 60.928 30.963C60.8893 30.9372 62.7213 33.1304 61.0699 35.6461C61.5731 39.6455 59.5476 40.6647 59.5476 40.6647C59.5476 40.6647 60.0636 43.245 57.8188 43.9804C57.7672 47.0121 54.9031 47.3863 54.9031 47.3863C54.9031 47.3863 55.6772 48.7022 52.826 50.0955C52.7099 52.1339 49.7426 52.2888 49.7426 52.2888C49.7426 52.2888 49.4588 56.0301 45.6787 55.0238C44.7756 58.0169 40.3505 57.1267 40.2602 57.088C40.1699 57.0493 39.4087 50.6632 39.4087 50.6374L39.3958 50.6245Z" fill="white" stroke="black" stroke-width="0.245124"/>
<path fill-rule="evenodd" clip-rule="evenodd" d="M11.9808 14.8107C11.9808 14.8107 12.9355 15.6364 12.7548 16.8749C12.5742 18.1134 11.8647 19.8293 12.0066 21.1065C12.0969 21.6226 12.0582 22.5386 12.0582 22.5386C12.0582 22.5386 11.2067 21.3258 11.1938 20.0228C11.1809 18.7198 12.1227 17.4813 12.1227 16.5137C12.1227 15.5461 11.955 14.7978 11.9808 14.8107ZM11.5034 15.1848C11.5034 15.1848 10.2649 16.3718 10.1101 17.52C9.98107 18.1134 9.94237 20.8743 9.92947 22.1128L9.71014 24.5125C9.67144 25.0543 10.6132 23.5836 10.6777 22.3966C10.6259 20.9899 10.6561 19.5812 10.768 18.1779C10.8842 17.6619 10.8584 17.1071 11.0261 16.604L11.5034 15.1848Z" fill="#217900" stroke="black" stroke-width="0.245124" stroke-linejoin="round"/>
<path fill-rule="evenodd" clip-rule="evenodd" d="M38.8153 11.3144C38.8153 11.3144 40.428 10.5662 40.8795 9.18574C41.3311 7.80531 39.4862 7.79241 39.2411 8.23105C38.996 8.66969 39.4475 9.7663 39.3314 10.0501C39.2153 10.3469 38.5573 11.0435 38.8153 11.3144Z" fill="#FFD200" stroke="#EF8A10" stroke-width="0.245124"/>
<path fill-rule="evenodd" clip-rule="evenodd" d="M24.5467 11.8176C24.5467 11.8176 25.5917 10.3855 25.3207 8.95348C25.0627 7.52144 23.4243 8.41162 23.4243 8.91477C23.4243 9.41792 24.3532 10.1533 24.3919 10.4629C24.4306 10.7726 24.1983 11.7014 24.5467 11.8176ZM21.7213 12.669C21.7213 12.669 22.7663 11.237 22.4954 9.80496C22.2373 8.37292 20.5989 9.26311 20.5989 9.76626C20.5989 10.2694 21.5278 11.0048 21.5665 11.3144C21.6052 11.624 21.373 12.5529 21.7213 12.669ZM18.5863 13.6366C18.5863 13.6366 19.6313 12.2046 19.3604 10.7726C19.1023 9.34051 17.4639 10.2307 17.4639 10.7338C17.4639 11.237 18.3928 11.9724 18.4315 12.282C18.4702 12.5916 18.238 13.5205 18.5863 13.6366ZM16.3931 15.8298C16.3931 15.8298 17.4252 14.4107 17.1672 12.9787C16.8833 11.5466 15.2578 12.4368 15.2578 12.94C15.2578 13.4431 16.1867 14.1785 16.2254 14.4881C16.2641 14.7977 16.0318 15.7266 16.3802 15.8427L16.3931 15.8298ZM14.0709 17.9715C14.0709 17.9715 15.103 16.5394 14.8449 15.1074C14.5611 13.6753 12.9355 14.5655 12.9355 15.0687C12.9355 15.5718 13.8644 16.3072 13.9031 16.6168C13.9418 16.9265 13.7096 17.8553 14.058 17.9715H14.0709Z" fill="#FFD200" stroke="#EF8A10" stroke-width="0.335432"/>
<path fill-rule="evenodd" clip-rule="evenodd" d="M19.3983 5.57336C19.3983 5.57336 18.0049 6.66996 17.8888 8.1149C17.7598 9.57275 19.566 9.147 19.695 8.66966C19.824 8.17941 19.1403 7.22472 19.179 6.91509C19.2306 6.60546 19.695 5.77978 19.3983 5.57336ZM24.0427 4.14132C24.0427 4.14132 22.6494 5.23793 22.5204 6.68287C22.3914 8.14071 24.1975 7.71497 24.3395 7.23762C24.4685 6.74737 23.7847 5.79268 23.8234 5.48305C23.875 5.17342 24.3395 4.34774 24.0427 4.14132ZM6.74215 16.6684C6.74215 16.6684 7.02598 18.423 8.23869 19.2229C9.45141 20.0228 9.95456 18.2553 9.59332 17.8941C9.23209 17.5328 8.05808 17.7005 7.81295 17.507C7.55493 17.3264 7.06468 16.5007 6.74215 16.6684ZM4.41992 22.603C4.41992 22.603 4.43283 24.3834 5.50363 25.3639C6.57443 26.3573 7.34851 24.6801 7.05178 24.2673C6.75505 23.8544 5.56813 23.8286 5.34881 23.6093C5.12949 23.3771 4.76826 22.4998 4.41992 22.603ZM9.77394 29.2343C9.77394 29.2343 9.12888 27.5829 7.78715 27.041C6.44542 26.4863 6.30351 28.3312 6.72925 28.5892C7.14209 28.873 8.2774 28.4989 8.54832 28.6279C8.83215 28.7569 9.47721 29.4665 9.77394 29.2343ZM8.65153 26.3702C8.65153 26.3702 9.73524 24.951 9.49012 23.5319C9.24499 22.087 7.60653 22.9513 7.59363 23.4545C7.59363 23.9576 8.49672 24.7059 8.53542 25.0155C8.56123 25.3252 8.3161 26.2541 8.66444 26.3702H8.65153ZM42.1174 12.7465C42.1174 12.7465 43.7171 11.9982 44.1816 10.6177C44.646 9.23731 42.7882 9.22441 42.5431 9.66305C42.298 10.1017 42.7495 11.1983 42.6334 11.4821C42.5173 11.7789 41.8593 12.4755 42.1174 12.7465ZM46.9811 15.1719C46.9811 15.1719 47.9229 13.6753 47.5617 12.2562C47.2005 10.85 45.6265 11.8434 45.6652 12.3465C45.7039 12.8626 46.6715 13.5205 46.736 13.8302C46.8005 14.1398 46.6199 15.0816 46.9811 15.1719ZM60.2694 28.9633C60.2694 28.9633 59.6244 27.312 58.2826 26.7572C56.928 26.2025 56.799 28.0473 57.2118 28.3312C57.6376 28.5892 58.76 28.2151 59.0438 28.357C59.3276 28.486 59.9727 29.1955 60.2694 28.9633ZM53.7672 29.9954C53.7672 29.9954 53.8059 28.2151 54.8896 27.2475C55.9733 26.267 56.7216 27.957 56.4249 28.357C56.1152 28.7569 54.9283 28.7827 54.709 29.002C54.4897 29.2343 54.1155 30.1115 53.7672 29.9954ZM52.7222 11.1983C52.7222 11.1983 51.0708 10.5661 49.7549 11.1983C48.439 11.8305 49.7291 13.1851 50.2194 13.0432C50.7096 12.9142 51.1612 11.8305 51.4579 11.7015C51.7417 11.5853 52.6964 11.5724 52.7222 11.1983ZM48.9292 8.0246C48.9292 8.0246 47.2779 7.39243 45.9619 8.0246C44.6589 8.66966 45.9361 10.0114 46.4264 9.86947C46.9166 9.74046 47.3811 8.65676 47.6649 8.52774C47.9487 8.41163 48.9163 8.39873 48.9292 8.0246ZM43.2785 4.9928C43.2785 4.9928 41.8722 6.07651 41.7303 7.53435C41.6013 8.97929 43.4075 8.57935 43.5365 8.102C43.6784 7.61176 42.9947 6.65706 43.0463 6.34743C43.0979 6.0378 43.5752 5.21212 43.2785 5.0057V4.9928ZM39.5887 4.12842C39.5887 4.12842 38.9437 5.77978 39.5758 7.09571C40.208 8.41163 41.5497 7.12151 41.4207 6.64416C41.2917 6.16682 40.1951 5.68947 40.079 5.39274C39.9629 5.10891 39.95 4.15422 39.5887 4.12842ZM29.1387 10.4887C29.1387 10.4887 30.2869 9.147 30.1192 7.68916C29.9515 6.24422 28.2614 7.0183 28.2227 7.52145C28.1969 8.0246 29.0613 8.81157 29.0871 9.1341C29.0871 9.44373 28.8033 10.3468 29.1387 10.4887Z" fill="#FFD200" stroke="#EF8A10" stroke-width="0.245124"/>
<path fill-rule="evenodd" clip-rule="evenodd" d="M35.3696 13.3785C35.3696 13.3785 38.1176 13.5591 38.2595 15.1331C38.4014 16.707 37.6015 17.6617 37.6015 17.6617C37.6015 17.6617 37.9499 21.0677 35.2535 22.0611C32.3765 22.4094 27.8611 22.1385 27.8611 22.1385C27.8611 22.1385 26.5452 22.4739 26.0033 19.7259C25.4615 16.978 25.3066 15.0299 25.3066 15.0299C25.3066 15.0299 25.5776 13.4946 27.5128 13.4043C29.4479 13.3011 35.3567 13.4172 35.3825 13.3785H35.3696Z" fill="#8C8A8C" stroke="black" stroke-width="0.245124"/>
<path d="M37.5902 17.6489C37.5902 17.6489 36.1065 19.4938 36.2613 20.2292" stroke="black" stroke-width="0.245124" stroke-linecap="round"/>
<path fill-rule="evenodd" clip-rule="evenodd" d="M35.6017 21.9709C35.9629 22.2805 36.3113 22.616 36.3887 23.7513L36.5435 26.0219L38.4658 43.3096L40.1558 55.8109L40.272 57.7461C40.272 57.7461 39.872 59.1652 38.7238 59.2942C37.911 61.0101 33.4343 61.5132 32.9957 61.4874C32.5957 61.4745 31.1637 60.8811 30.2993 60.9585C29.4349 61.0359 27.9384 61.6035 27.2675 61.5132C26.5966 61.4229 25.0743 60.894 24.8163 59.7974C22.9327 59.2039 22.623 57.7719 22.623 57.7719L24.6614 43.3096L26.6353 25.0156C26.6353 25.0156 26.8676 22.5773 27.8481 22.216C28.8673 22.1257 34.131 22.3192 35.6017 21.958V21.9709Z" fill="#8C8A8C" stroke="black" stroke-width="0.245124"/>
<path d="M25.23 46.9993L24.8301 59.7844M37.6668 48.6893L38.7892 59.2297" stroke="black" stroke-width="0.245124"/>
<path d="M4.80746 40.3422L4.75586 40.497M57.9348 39.8906L57.9735 40.0196" stroke="black" stroke-width="0.129012"/>
<path d="M3.37555 23.0803C3.37555 23.0803 4.22703 24.2414 4.36894 24.9123C4.52376 25.5831 4.80758 26.8991 5.16882 27.4409C5.54296 27.9699 7.62006 30.9758 7.74907 32.2273C7.74907 33.04 6.87178 34.4463 5.55586 34.4721C4.74308 34.4463 2.62727 33.9044 2.53697 32.0983C2.44666 30.2921 3.18203 30.2405 3.27233 29.131C3.36264 28.0344 3.37555 23.1061 3.37555 23.0674V23.0803Z" stroke="#6B18B5" stroke-width="0.245124" stroke-linejoin="round"/>
<path d="M17.8378 7.22477C17.8378 7.22477 16.9605 7.27637 16.2896 7.63761C15.7736 7.96014 14.8963 8.41168 14.277 9.27607C12.716 10.4888 10.3551 11.0564 9.6197 12.0756C9.16815 12.7594 9.19396 14.4237 10.3164 15.1203C11.0259 15.5332 13.1159 16.1653 14.1222 14.6688C15.1543 13.1593 14.5351 12.7336 15.0253 11.7531C15.8639 9.49539 17.8249 7.23767 17.8378 7.21187V7.22477ZM38.9571 5.00575C38.9571 5.00575 38.3121 4.41229 37.5767 4.19297C36.9832 4.03816 36.0028 4.10266 34.9836 3.99945C33.0097 3.72853 30.9842 2.30939 29.7456 2.47711C28.9458 2.64482 27.7718 3.81884 28.0427 5.09606C28.2362 5.89594 29.1264 7.5086 30.9197 7.18606C32.7 6.87643 32.6871 6.47649 33.745 6.15396C36.3124 4.70902 38.9313 4.99285 38.9571 4.99285V5.00575ZM59.9088 25.3639C60.0636 25.0285 59.7798 24.4092 59.5991 23.661C59.4056 23.0804 59.1347 22.1773 58.4509 21.3774C57.6381 19.5713 57.7801 17.0813 56.9802 16.1266C56.4125 15.5203 54.787 15.1461 53.8452 16.0621C53.2775 16.6556 52.168 18.5263 53.3807 19.8809C54.5935 21.2226 55.1224 20.7195 55.961 21.429C57.9607 22.7708 58.9283 25.1188 59.9088 25.3639ZM59.2121 41.2067C59.4701 40.8196 59.9733 40.1101 59.9088 39.5037C59.8701 39.0134 60.1281 37.5685 60.1668 36.9234C60.3474 34.9625 61.5859 33.3498 61.2376 31.6339C61.0441 30.847 59.8701 29.6987 58.6057 30.0342C57.8188 30.2793 56.0771 31.234 56.477 33.0015C56.877 34.7818 57.4446 34.7431 57.8317 35.7881C58.9154 37.9297 58.2187 40.4713 59.2121 41.2067Z" stroke="#6B18B5" stroke-width="0.129012" stroke-linejoin="round"/>
<path d="M44.6726 53.7725C44.6726 53.7725 44.3372 54.4176 45.6789 54.9723M47.3561 52.2502C47.3561 52.2502 48.8397 51.8889 49.846 52.2502M51.807 48.483C51.807 48.5088 51.6006 49.1539 52.7875 50.0828M52.6585 46.8058C52.6585 46.8058 53.5358 47.4509 55.0065 47.4251M43.8211 48.6894C43.8211 48.6894 43.8727 50.3924 42.9955 51.1923M46.7626 46.0576C46.7626 46.0576 48.1947 46.4188 49.3816 45.8253M55.9999 43.5676C55.9999 43.5676 56.3095 44.0063 57.9093 43.9289M49.7815 42.5613C49.8202 42.5871 51.6522 43.1806 52.8133 42.6387M53.4326 35.5431C53.4326 35.5431 53.51 35.4527 54.0776 37.4395M54.8517 29.9568C54.8517 29.9568 54.7743 31.0147 53.9228 31.4792M60.2831 25.6349C60.2831 25.6349 59.0446 26.6412 59.2768 27.054M54.1163 24.9124C54.1163 24.9124 54.7614 25.9961 53.7164 26.7444M51.0071 20.2809C51.0071 20.2809 52.1166 20.2293 52.6069 21.184M48.9171 17.133H49.7686M53.3294 13.2626C53.3294 13.3013 53.5616 13.5077 53.1229 13.9464M45.4209 13.3787C45.4209 13.3787 46.0144 14.3076 45.9111 15.4429M48.8397 10.2308C49.0977 10.205 49.975 9.81796 49.975 9.81796M45.0338 6.54104C45.008 6.54104 44.6984 7.70216 45.2661 8.115M43.6018 11.8306C43.6018 13.0691 44.5823 12.7594 43.9114 13.9464M41.2022 10.7985C40.6311 11.1978 40.1111 11.6657 39.654 12.1918M37.2415 10.1534C37.2415 10.1534 37.8866 10.7985 37.7317 11.6757M35.3579 9.63734C35.3579 9.63734 35.0225 10.6178 34.5838 10.8759M31.9262 9.37932C31.9004 9.43092 31.3843 10.5404 31.0231 10.7469M27.243 9.40512C27.2688 9.40512 27.7591 10.4372 27.114 11.1855M26.1593 4.0769C26.1851 4.10271 26.2625 4.87678 25.7723 5.54765M21.5149 5.83147C21.5149 5.85728 21.7342 6.70876 20.3538 6.99259M18.9217 13.6754C18.9475 13.727 20.2377 13.9335 20.2377 13.9335M15.7093 16.6556C16.2271 16.4842 16.7475 16.3208 17.2704 16.1654M13.2065 18.5908C13.2581 18.5908 14.2902 18.7714 14.5482 18.6424M12.484 19.5455C12.484 19.5455 12.8194 19.7261 12.5356 21.4549M7.45251 15.0043L8.08468 15.9332M5.34961 19.7777C5.34961 19.7519 5.96887 20.7066 6.79455 20.8872M10.2134 24.6286C10.2392 24.6286 11.2197 24.4093 11.3745 24.3061M9.77474 28.1248C9.80054 28.1248 9.74893 27.4798 10.5488 27.0411M8.71684 29.7246C8.71684 29.7504 9.46511 30.6793 9.98116 30.8083M8.27819 31.4921C8.3556 31.4663 9.15548 30.7696 10.0844 30.8212M8.02017 33.8917C8.02017 33.8917 8.04597 34.6916 10.4198 34.4851M8.25239 36.7171C8.25239 36.6913 8.94906 35.1173 10.3682 34.5239M10.1618 38.7297C10.1618 38.7297 10.3682 38.0588 11.5551 37.5943M11.4777 41.3744C11.4777 41.3744 12.3292 40.6777 12.6388 40.5745M12.5356 43.4386C12.5356 43.4386 13.0517 43.9805 14.3418 43.0516M6.3172 43.8644C6.47202 43.8386 8.3427 43.3999 8.98776 44.3804M7.05258 45.4125C7.05258 45.4125 9.03937 45.1545 9.29739 45.3609M14.1483 45.8253C14.1483 45.8253 13.8902 46.3672 16.3415 45.4641M17.1801 46.8058C16.7414 47.5412 17.2833 48.1347 16.7156 48.483M9.74894 47.8379C9.81344 47.7734 10.652 47.4896 10.523 46.3156M10.4843 49.6054C10.5875 49.5796 11.955 48.9862 12.2389 49.2958M13.1549 51.3471C13.1549 51.3471 13.3355 50.1344 13.7225 50.0054M15.2062 53.1791C15.2062 53.1791 16.3415 53.1533 16.8317 52.792M17.3994 49.0765C17.4252 49.1023 18.4573 49.6441 20.6505 49.1023M18.2251 54.0047C18.2251 54.0047 18.5347 55.5658 18.5089 55.9399" stroke="black" stroke-width="0.245124"/>
<path fill-rule="evenodd" clip-rule="evenodd" d="M57.7953 29.8244C57.7339 29.3329 57.4816 28.8653 57.1647 28.6553C56.797 28.4267 56.4154 28.4744 56.1629 28.7805C55.9105 29.0866 55.7542 29.5803 55.8156 30.0718C55.8801 30.5879 56.1293 31.0309 56.4493 31.2655C56.817 31.494 57.1986 31.4463 57.4511 31.1403C57.7035 30.8342 57.8836 30.3375 57.7984 29.849L57.7953 29.8244Z" fill="#DE2010" stroke="black" stroke-width="0.325311"/>
<path fill-rule="evenodd" clip-rule="evenodd" d="M57.5765 27.2055C57.5151 26.714 57.2629 26.2464 56.9459 26.0364C56.5782 25.8078 56.1966 25.8555 55.9442 26.1616C55.6918 26.4677 55.5355 26.9614 55.5969 27.4529C55.6614 27.969 55.9106 28.412 56.2306 28.6466C56.5983 28.8752 56.9799 28.8275 57.2323 28.5214C57.4847 28.2153 57.6649 27.7186 57.5796 27.2301L57.5765 27.2055Z" fill="#DE2010" stroke="black" stroke-width="0.325311"/>
<path fill-rule="evenodd" clip-rule="evenodd" d="M57.0375 24.4214C56.9331 23.9372 56.6407 23.4935 56.3066 23.3122C55.9202 23.1168 55.5443 23.1979 55.3197 23.525C55.0952 23.8521 54.9828 24.3576 55.0872 24.8418C55.1968 25.3502 55.484 25.7697 55.8234 25.9752C56.2097 26.1705 56.5857 26.0895 56.8102 25.7624C57.0348 25.4353 57.1706 24.9247 57.0427 24.4456L57.0375 24.4214Z" fill="#DE2010" stroke="black" stroke-width="0.325312"/>
<path fill-rule="evenodd" clip-rule="evenodd" d="M56.0727 21.5032C55.8484 21.0616 55.4526 20.7072 55.0832 20.617C54.6598 20.5266 54.3169 20.7008 54.1832 21.0743C54.0494 21.4479 54.0697 21.9654 54.2941 22.4069C54.5297 22.8706 54.9142 23.203 55.2948 23.3152C55.7182 23.4056 56.0611 23.2314 56.1948 22.8579C56.3286 22.4843 56.3297 21.956 56.0839 21.5253L56.0727 21.5032Z" fill="#DE2010" stroke="black" stroke-width="0.325311"/>
<path fill-rule="evenodd" clip-rule="evenodd" d="M55.0395 19.1553C54.8152 18.7137 54.4194 18.3593 54.05 18.2691C53.6266 18.1787 53.2837 18.3529 53.15 18.7264C53.0162 19.1 53.0365 19.6175 53.2609 20.059C53.4965 20.5227 53.881 20.8551 54.2616 20.9673C54.685 21.0577 55.0279 20.8835 55.1616 20.51C55.2954 20.1364 55.2965 19.6081 55.0507 19.1774L55.0395 19.1553Z" fill="#DE2010" stroke="black" stroke-width="0.325311"/>
<path fill-rule="evenodd" clip-rule="evenodd" d="M53.5749 16.803C53.3139 16.382 52.8895 16.0623 52.5139 16.0038C52.0844 15.9495 51.7575 16.1521 51.6558 16.5356C51.5542 16.9192 51.6182 17.4331 51.8792 17.8541C52.1532 18.2961 52.5645 18.5947 52.9532 18.6743C53.3827 18.7286 53.7096 18.5259 53.8113 18.1424C53.9129 17.7589 53.8693 17.2323 53.5879 16.824L53.5749 16.803Z" fill="#DE2010" stroke="black" stroke-width="0.325312"/>
<path fill-rule="evenodd" clip-rule="evenodd" d="M51.9358 14.5303C51.6353 14.1365 51.182 13.8594 50.8025 13.8374C50.3697 13.825 50.0639 14.0582 49.9999 14.4498C49.9358 14.8413 50.0492 15.3466 50.3496 15.7404C50.6651 16.1539 51.1034 16.4113 51.4979 16.453C51.9307 16.4654 52.2365 16.2322 52.3006 15.8406C52.3646 15.4491 52.2703 14.9292 51.9508 14.55L51.9358 14.5303Z" fill="#DE2010" stroke="black" stroke-width="0.325312"/>
<path fill-rule="evenodd" clip-rule="evenodd" d="M49.9846 12.4254C49.6303 12.0793 49.1416 11.8708 48.7629 11.9041C48.3328 11.9545 48.0641 12.2297 48.0575 12.6264C48.0508 13.0231 48.2363 13.5066 48.5906 13.8527C48.9627 14.2161 49.4337 14.4073 49.8301 14.3913C50.2601 14.3409 50.5288 14.0657 50.5355 13.669C50.5421 13.2723 50.3735 12.7716 50.0023 12.4427L49.9846 12.4254Z" fill="#DE2010" stroke="black" stroke-width="0.325313"/>
<path fill-rule="evenodd" clip-rule="evenodd" d="M47.7873 10.4687C47.4026 10.1567 46.8968 9.994 46.5228 10.062C46.0992 10.1517 45.8569 10.4504 45.8868 10.8461C45.9167 11.2417 46.1458 11.7061 46.5305 12.0181C46.9344 12.3457 47.421 12.4928 47.8143 12.4404C48.2378 12.3507 48.4801 12.052 48.4502 11.6564C48.4204 11.2607 48.2063 10.7776 47.8065 10.4843L47.7873 10.4687Z" fill="#DE2010" stroke="black" stroke-width="0.325311"/>
<path fill-rule="evenodd" clip-rule="evenodd" d="M45.4546 8.91596C45.0235 8.67213 44.4977 8.59568 44.1401 8.72484C43.7373 8.88365 43.548 9.21841 43.6431 9.60359C43.7383 9.98876 44.0413 10.4087 44.4725 10.6525C44.9252 10.9086 45.4294 10.9728 45.8085 10.8558C46.2113 10.697 46.4006 10.3623 46.3055 9.97709C46.2104 9.59192 45.9191 9.15105 45.4762 8.92815L45.4546 8.91596Z" fill="#DE2010" stroke="black" stroke-width="0.325312"/>
<path fill-rule="evenodd" clip-rule="evenodd" d="M42.8421 7.54441C42.3906 7.34084 41.86 7.31257 41.5157 7.47373C41.129 7.66855 40.971 8.01915 41.1008 8.39407C41.2305 8.76899 41.5706 9.1596 42.0221 9.36317C42.4962 9.57693 43.0042 9.59502 43.3711 9.44403C43.7578 9.24922 43.9159 8.89861 43.7861 8.5237C43.6563 8.14878 43.3261 7.73625 42.8647 7.55459L42.8421 7.54441Z" fill="#DE2010" stroke="black" stroke-width="0.325311"/>
<path fill-rule="evenodd" clip-rule="evenodd" d="M40.2903 6.50805C39.8261 6.3352 39.2949 6.34256 38.9621 6.52645C38.5894 6.74674 38.4552 7.10715 38.6098 7.47253C38.7644 7.8379 39.1299 8.20484 39.5941 8.37768C40.0815 8.55917 40.5895 8.54317 40.9455 8.36792C41.3182 8.14763 41.4524 7.78722 41.2978 7.42184C41.1431 7.05647 40.7861 6.66701 40.3135 6.51669L40.2903 6.50805Z" fill="#DE2010" stroke="black" stroke-width="0.325312"/>
<path fill-rule="evenodd" clip-rule="evenodd" d="M37.6976 5.69043C37.2216 5.55351 36.6925 5.6014 36.3747 5.81014C36.0199 6.05824 35.9136 6.42785 36.0957 6.78035C36.2777 7.13286 36.6701 7.47084 37.1461 7.60776C37.6459 7.75152 38.1513 7.69679 38.4928 7.49489C38.8477 7.24679 38.954 6.87719 38.7719 6.52468C38.5898 6.17217 38.2041 5.81109 37.7214 5.69728L37.6976 5.69043Z" fill="#DE2010" stroke="black" stroke-width="0.325313"/>
<path fill-rule="evenodd" clip-rule="evenodd" d="M34.8293 5.20601C34.3379 5.14403 33.8224 5.27284 33.5406 5.52803C33.2283 5.82781 33.1801 6.20938 33.4143 6.52964C33.6485 6.8499 34.0883 7.12341 34.5797 7.18539C35.0957 7.25047 35.5866 7.11856 35.8929 6.86648C36.2053 6.56669 36.2534 6.18513 36.0193 5.86486C35.7851 5.5446 35.3483 5.24724 34.8539 5.20911L34.8293 5.20601Z" fill="#DE2010" stroke="black" stroke-width="0.325311"/>
<path fill-rule="evenodd" clip-rule="evenodd" d="M32.0098 5.05392C31.5148 5.03405 31.0122 5.20631 30.7532 5.48459C30.4675 5.80991 30.4521 6.19419 30.7127 6.49333C30.9733 6.79247 31.4348 7.02751 31.9297 7.04738C32.4494 7.06825 32.9272 6.89499 33.211 6.61771C33.4967 6.29239 33.5121 5.90811 33.2515 5.60897C32.9909 5.30983 32.5304 5.05077 32.0345 5.05491L32.0098 5.05392Z" fill="#DE2010" stroke="black" stroke-width="0.325312"/>
<path fill-rule="evenodd" clip-rule="evenodd" d="M29.418 5.13131C28.923 5.11144 28.4204 5.28371 28.1614 5.56198C27.8757 5.8873 27.8603 6.27158 28.1209 6.57072C28.3815 6.86986 28.843 7.1049 29.3379 7.12477C29.8576 7.14564 30.3354 6.97238 30.6192 6.6951C30.9049 6.36978 30.9203 5.9855 30.6597 5.68636C30.3991 5.38722 29.9386 5.12816 29.4427 5.13231L29.418 5.13131Z" fill="#DE2010" stroke="black" stroke-width="0.325312"/>
<path fill-rule="evenodd" clip-rule="evenodd" d="M26.3953 5.5044C25.9125 5.61477 25.4725 5.91261 25.2953 6.24898C25.1047 6.63774 25.1904 7.01266 25.5203 7.23314C25.8501 7.45363 26.357 7.55966 26.8399 7.44929C27.3469 7.3334 27.7628 7.04109 27.964 6.69919C28.1546 6.31043 28.0689 5.93552 27.7391 5.71503C27.4092 5.49455 26.897 5.36508 26.4195 5.49888L26.3953 5.5044Z" fill="#DE2010" stroke="black" stroke-width="0.325312"/>
<path fill-rule="evenodd" clip-rule="evenodd" d="M23.6348 6.19036C23.1627 6.34018 22.7488 6.67329 22.6 7.02314C22.4421 7.42629 22.5584 7.79286 22.9053 7.98539C23.2522 8.17792 23.7662 8.24178 24.2383 8.09196C24.734 7.93464 25.1243 7.60902 25.2967 7.25169C25.4546 6.84853 25.3383 6.48196 24.9914 6.28943C24.6445 6.09691 24.1232 6.01013 23.6584 6.18287L23.6348 6.19036Z" fill="#DE2010" stroke="black" stroke-width="0.325313"/>
<path fill-rule="evenodd" clip-rule="evenodd" d="M21.1204 7.27796C20.6695 7.48295 20.2982 7.86299 20.1921 8.22807C20.0834 8.64715 20.2425 8.99726 20.6099 9.14709C20.9773 9.29692 21.4952 9.29912 21.946 9.09413C22.4195 8.87889 22.7683 8.50909 22.8969 8.13377C23.0056 7.71468 22.8464 7.36458 22.4791 7.21475C22.1117 7.06491 21.5839 7.04084 21.1429 7.26771L21.1204 7.27796Z" fill="#DE2010" stroke="black" stroke-width="0.325311"/>
<path fill-rule="evenodd" clip-rule="evenodd" d="M18.61 8.56254C18.1782 8.80525 17.8407 9.21558 17.7661 9.58838C17.6936 10.0152 17.882 10.3505 18.2608 10.4684C18.6396 10.5864 19.1558 10.5444 19.5876 10.3017C20.0409 10.0468 20.3569 9.64861 20.453 9.26369C20.5256 8.83685 20.3371 8.5016 19.9583 8.38365C19.5795 8.2657 19.0516 8.28674 18.6316 8.55041L18.61 8.56254Z" fill="#DE2010" stroke="black" stroke-width="0.32531"/>
<path fill-rule="evenodd" clip-rule="evenodd" d="M16.239 10.1697C15.8362 10.4578 15.5452 10.9024 15.5116 11.2811C15.4859 11.7133 15.7096 12.0261 16.099 12.1022C16.4884 12.1783 16.997 12.0804 17.3998 11.7922C17.8228 11.4896 18.0936 11.0595 18.1473 10.6664C18.1731 10.2342 17.9493 9.9214 17.5599 9.84531C17.1705 9.76922 16.648 9.84751 16.2591 10.1552L16.239 10.1697Z" fill="#DE2010" stroke="black" stroke-width="0.325311"/>
<path fill-rule="evenodd" clip-rule="evenodd" d="M14.0384 11.8315C13.6614 12.1527 13.4092 12.6203 13.4077 13.0005C13.4186 13.4333 13.6681 13.7261 14.0625 13.7689C14.4569 13.8118 14.9554 13.6713 15.3324 13.35C15.7282 13.0127 15.9617 12.5612 15.9819 12.165C15.971 11.7321 15.7216 11.4394 15.3272 11.3965C14.9327 11.3537 14.4187 11.4759 14.0573 11.8154L14.0384 11.8315Z" fill="#DE2010" stroke="black" stroke-width="0.32531"/>
<path fill-rule="evenodd" clip-rule="evenodd" d="M12.1013 13.8611C11.7483 14.2086 11.5302 14.6931 11.556 15.0724C11.5979 15.5033 11.8677 15.7774 12.2642 15.7919C12.6607 15.8063 13.1478 15.6304 13.5008 15.283C13.8714 14.9182 14.0719 14.451 14.0637 14.0544C14.0218 13.6235 13.752 13.3494 13.3555 13.3349C12.959 13.3204 12.4551 13.4792 12.1189 13.8438L12.1013 13.8611Z" fill="#DE2010" stroke="black" stroke-width="0.325311"/>
<path fill-rule="evenodd" clip-rule="evenodd" d="M10.4379 16.1171C10.1152 16.4928 9.93845 16.9939 9.99594 17.3697C10.0738 17.7956 10.3656 18.0461 10.7619 18.0274C11.1582 18.0086 11.6288 17.7926 11.9515 17.4168C12.2903 17.0222 12.451 16.54 12.4096 16.1454C12.3318 15.7195 12.04 15.4689 11.6437 15.4877C11.2474 15.5064 10.7585 15.7068 10.454 16.0983L10.4379 16.1171Z" fill="#DE2010" stroke="black" stroke-width="0.325312"/>
<path fill-rule="evenodd" clip-rule="evenodd" d="M8.91829 18.416C8.63753 18.8241 8.51518 19.3411 8.61242 19.7086C8.73523 20.1238 9.05206 20.3418 9.44411 20.2809C9.83616 20.22 10.2811 19.955 10.5619 19.5469C10.8567 19.1185 10.965 18.6218 10.8818 18.2339C10.759 17.8187 10.4421 17.6007 10.0501 17.6617C9.65804 17.7226 9.19329 17.974 8.93233 18.3956L8.91829 18.416Z" fill="#DE2010" stroke="black" stroke-width="0.325312"/>
<path fill-rule="evenodd" clip-rule="evenodd" d="M7.64545 21.0335C7.43895 21.4837 7.40724 22.0141 7.56617 22.3595C7.75847 22.7474 8.10804 22.9077 8.48379 22.7804C8.85954 22.653 9.25235 22.3155 9.45885 21.8653C9.67567 21.3926 9.69706 20.8847 9.54845 20.5168C9.35615 20.1289 9.00658 19.9686 8.63083 20.0959C8.25508 20.2233 7.84042 20.5508 7.65577 21.011L7.64545 21.0335Z" fill="#DE2010" stroke="black" stroke-width="0.325311"/>
<path fill-rule="evenodd" clip-rule="evenodd" d="M6.62804 23.7702C6.46321 24.2372 6.47971 24.7683 6.66929 25.0978C6.89597 25.4667 7.25863 25.5947 7.62129 25.4338C7.98395 25.2729 8.34454 24.9012 8.50937 24.4341C8.68244 23.9437 8.6577 23.436 8.47636 23.0831C8.24968 22.7142 7.88702 22.5862 7.52436 22.7471C7.1617 22.908 6.77845 23.2717 6.63628 23.7468L6.62804 23.7702Z" fill="#DE2010" stroke="black" stroke-width="0.325309"/>
<path fill-rule="evenodd" clip-rule="evenodd" d="M5.76389 28.9308C5.71815 29.3261 5.86387 29.7357 6.12821 29.9548C6.43812 30.1971 6.82107 30.2256 7.13344 30.0295C7.44581 29.8334 7.70468 29.4739 7.75043 29.0785C7.79846 28.6634 7.65045 28.2735 7.3884 28.0347C7.07849 27.7924 6.69554 27.7639 6.38317 27.96C6.0708 28.1561 5.78799 28.5139 5.76618 28.911L5.76389 28.9308Z" fill="#DE2010" stroke="black" stroke-width="0.291389"/>
<path fill-rule="evenodd" clip-rule="evenodd" d="M5.99067 26.5227C5.8806 27.0056 5.95801 27.5312 6.18419 27.8368C6.45175 28.1772 6.82672 28.2627 7.16849 28.0612C7.51026 27.8597 7.82575 27.449 7.93583 26.9661C8.05141 26.459 7.9685 25.9575 7.74781 25.6278C7.48025 25.2874 7.10529 25.2019 6.76352 25.4034C6.42175 25.6049 6.08282 26.0102 5.99618 26.4985L5.99067 26.5227Z" fill="#DE2010" stroke="black" stroke-width="0.325311"/>
<path fill-rule="evenodd" clip-rule="evenodd" d="M55.7285 25.2866C56.0381 24.9382 56.3348 24.835 56.7089 24.964C56.5799 24.0609 56.2961 23.7642 55.9349 23.8674C55.5994 23.9706 55.4446 24.4351 55.7156 25.2866H55.7285ZM56.2058 27.9958C56.5541 27.6733 56.8509 27.6088 57.2121 27.7378C57.1476 26.8347 56.8896 26.5122 56.5412 26.6025C56.18 26.6799 55.9994 27.1185 56.2058 27.9829V27.9958ZM55.0447 22.7966C55.2769 22.3838 55.5349 22.2161 55.9349 22.2419C55.5736 21.4162 55.2253 21.184 54.9157 21.3775C54.606 21.571 54.5673 22.0612 55.0447 22.7966ZM53.8449 20.3454C54.0642 19.9196 54.3351 19.7519 54.7222 19.7777C54.3738 18.9391 54.0126 18.7198 53.703 18.9133C53.4062 19.1069 53.3675 19.5971 53.8449 20.3325V20.3454ZM50.955 15.8041C51.1098 15.3655 51.342 15.1591 51.7291 15.1075C51.2517 14.3334 50.8647 14.1786 50.5938 14.4237C50.3228 14.6688 50.3615 15.1462 50.955 15.8041ZM49.0585 13.8302C49.1875 13.3787 49.4197 13.1723 49.8197 13.1207C49.3036 12.3724 48.9166 12.2176 48.6586 12.4756C48.3876 12.7207 48.4392 13.1981 49.0585 13.8302ZM45.0849 10.4759C45.0849 10.0115 45.2139 9.72764 45.5752 9.57283C44.8656 9.00517 44.4399 8.99227 44.2721 9.3148C44.0915 9.62443 44.3108 10.0631 45.0849 10.4759ZM47.1491 12.0241C47.2265 11.5596 47.4071 11.3145 47.7942 11.2113C47.1878 10.5404 46.775 10.4501 46.5557 10.7339C46.3234 11.0178 46.4525 11.4822 47.162 12.0241H47.1491ZM42.724 9.17289C42.6724 8.70845 42.7885 8.42462 43.111 8.2182C42.337 7.74085 41.937 7.75375 41.7951 8.08919C41.6532 8.42462 41.9112 8.85036 42.724 9.17289ZM40.3115 8.12789C40.1824 7.67635 40.2599 7.37962 40.5695 7.12159C39.7309 6.76036 39.331 6.85067 39.2407 7.199C39.1503 7.54733 39.46 7.92147 40.3115 8.12789ZM37.7183 7.32801C37.5506 6.88937 37.6022 6.57974 37.886 6.29591C37.0216 6.01209 36.6217 6.1282 36.5572 6.48943C36.5056 6.85067 36.841 7.199 37.7183 7.32801ZM35.1639 6.83777C34.9703 6.41202 34.9961 6.10239 35.2542 5.80567C34.3769 5.57344 33.9898 5.71536 33.9511 6.07659C33.9124 6.43783 34.2737 6.76036 35.1639 6.82486V6.83777ZM32.4546 6.63135C32.2224 6.21851 32.2095 5.90888 32.4546 5.59925C31.5515 5.45733 31.1645 5.63795 31.1645 5.99918C31.1774 6.36042 31.5773 6.64425 32.4546 6.63135ZM27.1651 7.01838C26.8426 6.68295 26.7522 6.38622 26.9071 6.02499C26.004 6.10239 25.6814 6.37332 25.7718 6.72165C25.8621 7.08289 26.3136 7.26351 27.1651 7.01838ZM29.7711 6.68295C29.4873 6.29591 29.4486 5.99918 29.6421 5.65085C28.739 5.61215 28.3778 5.83147 28.4294 6.1927C28.4681 6.55394 28.8939 6.79906 29.7711 6.68295ZM24.6106 7.58604C24.2236 7.28931 24.1075 7.00548 24.1978 6.61844C23.3205 6.83777 23.0367 7.1474 23.1786 7.48283C23.3205 7.81826 23.7979 7.93437 24.5977 7.57314L24.6106 7.58604ZM19.7082 9.83085C19.2953 9.61153 19.1147 9.35351 19.1276 8.96647C18.3019 9.35351 18.0955 9.70184 18.289 9.99857C18.4954 10.3082 18.9857 10.334 19.7082 9.83085ZM22.0691 8.61814C21.6821 8.36011 21.5401 8.08919 21.6046 7.70215C20.7403 7.97308 20.4822 8.30851 20.65 8.63104C20.8048 8.95357 21.295 9.03098 22.0691 8.63104V8.61814ZM15.3217 12.8756C14.8702 12.7723 14.638 12.553 14.5735 12.166C13.851 12.7078 13.7091 13.1078 13.9671 13.3529C14.2251 13.6109 14.7154 13.5206 15.3217 12.8885V12.8756ZM17.4117 11.1855C16.9731 11.0307 16.7667 10.7984 16.728 10.4114C15.9539 10.8888 15.7991 11.2758 16.0313 11.5467C16.2764 11.8176 16.7538 11.7789 17.4117 11.1855ZM13.4511 14.7075C12.9995 14.6301 12.7544 14.4366 12.6512 14.0625C11.9674 14.6559 11.8771 15.0688 12.1609 15.2881C12.4319 15.5203 12.9092 15.4042 13.4511 14.7075ZM11.7868 16.8749C11.3224 16.8362 11.0643 16.6685 10.9224 16.2944C10.3032 16.9652 10.2515 17.3781 10.5483 17.5845C10.845 17.778 11.3095 17.6103 11.7868 16.8749ZM10.3935 19.094C9.92902 19.1327 9.64519 19.0036 9.45167 18.6553C8.93562 19.4165 8.93562 19.8293 9.27105 19.9841C9.60649 20.139 10.0322 19.9067 10.3935 19.094ZM9.16784 21.4678C8.7034 21.5581 8.40667 21.4678 8.17445 21.1582C7.77451 21.958 7.82611 22.3709 8.17445 22.487C8.52278 22.5902 8.90982 22.3064 9.16784 21.4549V21.4678ZM8.18735 23.8932C7.74871 24.0609 7.43908 24.0222 7.15525 23.7384C6.89722 24.6028 7.01334 25.0027 7.36167 25.0543C7.7229 25.1059 8.07124 24.7576 8.18735 23.8932ZM7.52938 26.6025C7.10364 26.7831 6.79401 26.7702 6.49728 26.5122C6.27796 27.3895 6.43278 27.7765 6.79402 27.8023C7.15525 27.841 7.47778 27.4669 7.52938 26.5896V26.6025ZM7.27136 28.8473C6.85852 29.0537 6.54889 29.0795 6.23926 28.9247C6.11025 29.6343 6.30377 29.9181 6.665 29.8923C7.02624 29.8665 7.31006 29.544 7.25846 28.8473H7.27136ZM52.7741 18.1393C52.9289 17.7006 53.1611 17.4942 53.5481 17.4555C53.0837 16.6814 52.6967 16.5137 52.4257 16.7459C52.1548 16.991 52.1935 17.4684 52.7741 18.1393ZM56.5025 30.7309C56.8509 30.4212 57.1476 30.3438 57.5088 30.4987C57.4443 29.5956 57.1863 29.2601 56.838 29.3375C56.4767 29.4279 56.2961 29.8794 56.5025 30.7309Z" fill="#FFE300"/>
<path fill-rule="evenodd" clip-rule="evenodd" d="M52.955 15.9977C52.9421 15.9977 51.9229 17.004 52.1035 18.2425C52.2712 19.481 53.0582 21.0033 52.9163 22.2806C52.7743 23.5707 52.5292 24.4093 52.5292 24.4093C52.5292 24.4093 53.729 23.0546 53.7419 21.7516C53.7548 20.4615 52.9292 18.7327 52.9292 17.778C52.9292 16.8233 52.9679 15.9719 52.955 15.9848V15.9977ZM54.8256 20.1261C54.8256 20.1261 54.0258 20.7195 54.1032 22.0613C54.1806 23.403 55.5739 25.88 55.5739 25.88C55.5739 25.88 56.5931 27.97 56.5544 28.5119C56.5286 29.0537 56.7479 27.9958 56.6447 26.796C56.5415 25.6091 55.0063 22.9772 55.0063 22.9772C55.0063 22.9772 54.6837 22.4354 54.7095 21.5452C54.7482 20.6421 54.8385 20.139 54.8256 20.1261Z" fill="#217900" stroke="black" stroke-width="0.245124" stroke-linejoin="round"/>
<path fill-rule="evenodd" clip-rule="evenodd" d="M30.9587 3.45746C30.9587 3.17363 30.6362 2.94141 30.2491 2.94141C29.8621 2.94141 29.5524 3.17363 29.5524 3.45746C29.5524 3.72838 29.8621 3.96061 30.2491 3.96061C30.6362 3.96061 30.9458 3.72838 30.9458 3.44456L30.9587 3.45746ZM31.2554 4.61857C31.2554 4.36054 30.92 4.14122 30.5329 4.14122C30.133 4.14122 29.8105 4.36054 29.8105 4.63147C29.8105 4.9024 30.133 5.10882 30.5329 5.10882C30.92 5.10882 31.2554 4.88949 31.2554 4.61857ZM32.1456 3.23814C32.1456 3.23814 31.3199 3.85739 31.6553 4.10252C32.0037 4.34764 32.9455 3.56067 32.9455 3.56067L32.1456 3.23814ZM56.3612 17.3779C56.3618 17.2945 56.3422 17.2122 56.304 17.1381C56.2658 17.0639 56.2102 17.0001 56.1419 16.9522C56.0774 16.9078 56.0009 16.884 55.9226 16.884C55.8443 16.884 55.7678 16.9078 55.7033 16.9522C55.6374 17.0015 55.5843 17.0659 55.5484 17.14C55.5125 17.214 55.4948 17.2956 55.4969 17.3779C55.4963 17.4613 55.5159 17.5436 55.5541 17.6178C55.5923 17.6919 55.6479 17.7557 55.7162 17.8036C55.7794 17.8453 55.8534 17.8674 55.9291 17.8674C56.0047 17.8674 56.0787 17.8453 56.1419 17.8036C56.2102 17.7557 56.2658 17.6919 56.304 17.6178C56.3422 17.5436 56.3618 17.4613 56.3612 17.3779ZM56.0387 16.2039C56.0387 15.9072 55.8452 15.6749 55.5872 15.6749C55.3291 15.6749 55.1356 15.9072 55.1356 16.2039C55.1356 16.5006 55.342 16.7328 55.5872 16.7328C55.8323 16.7328 56.0387 16.5006 56.0387 16.2039ZM56.258 18.6035C56.258 18.4487 56.1806 18.3197 56.0774 18.3197C55.9871 18.3197 55.9097 18.4487 55.9097 18.6035C55.9097 18.7583 55.9871 18.8744 56.0774 18.8744C56.1806 18.8744 56.258 18.7454 56.258 18.6035ZM56.9805 16.4619C56.9805 16.2813 56.9031 16.1394 56.8128 16.1394C56.7096 16.1394 56.6322 16.2813 56.6322 16.4619C56.6322 16.6425 56.7096 16.7715 56.8128 16.7715C56.9031 16.7715 56.9805 16.6425 56.9805 16.4619ZM55.0066 16.6683C55.0066 16.5393 54.9292 16.4103 54.826 16.4103C54.7228 16.4103 54.6454 16.5393 54.6454 16.6683C54.6454 16.7973 54.7228 16.9264 54.826 16.9264C54.9292 16.9264 55.0066 16.8102 55.0066 16.6683ZM55.3162 18.3713C55.3162 18.1391 55.1485 17.9456 54.9421 17.9456C54.7357 17.9456 54.568 18.1391 54.568 18.3713C54.568 18.5906 54.7357 18.7712 54.955 18.7712C55.1743 18.7712 55.3162 18.5906 55.3162 18.3584V18.3713ZM54.3358 17.623C54.3358 17.4295 54.1938 17.2618 54.0132 17.2618C53.8455 17.2618 53.7036 17.4166 53.7036 17.623C53.7036 17.8294 53.8455 17.9714 54.0132 17.9714C54.1938 17.9714 54.3358 17.8165 54.3358 17.623ZM54.1809 16.6167C54.1809 16.5135 54.1293 16.4103 54.0519 16.3587C54.0098 16.331 53.9605 16.3162 53.91 16.3162C53.8596 16.3162 53.8102 16.331 53.7681 16.3587C53.7264 16.3872 53.6927 16.4258 53.6701 16.471C53.6475 16.5161 53.6369 16.5663 53.6391 16.6167C53.6391 16.7199 53.6778 16.8232 53.7681 16.8748C53.8088 16.8999 53.8557 16.9132 53.9036 16.9132C53.9514 16.9132 53.9983 16.8999 54.039 16.8748C54.0807 16.8463 54.1144 16.8076 54.137 16.7625C54.1596 16.7173 54.1703 16.6672 54.168 16.6167H54.1809ZM58.6577 21.7127C58.2448 21.1709 57.5998 20.9387 57.1998 21.1967C56.8128 21.4547 56.8128 22.0998 57.2256 22.6416C57.6256 23.1835 58.2835 23.4028 58.6706 23.1448C59.0705 22.8867 59.0576 22.2417 58.6577 21.7127ZM59.8188 31.5951C59.8833 30.9371 59.5608 30.3566 59.0963 30.305C58.619 30.2404 58.1674 30.7307 58.09 31.3887C58.0126 32.0337 58.3351 32.6272 58.8125 32.6788C59.2898 32.7304 59.7285 32.253 59.8059 31.5951H59.8188ZM60.051 37.3361C60.18 36.6911 59.922 36.0976 59.4575 35.9944C58.9802 35.8912 58.5029 36.3427 58.3609 36.9878C58.2319 37.6329 58.4899 38.2392 58.9673 38.3424C59.4317 38.4327 59.922 37.9941 60.051 37.349V37.3361ZM61.1605 31.9563C61.1605 31.6983 60.9799 31.4919 60.7735 31.4919C60.567 31.4919 60.3864 31.6983 60.3864 31.9563C60.3864 32.2143 60.5541 32.4337 60.7735 32.4337C60.9928 32.4337 61.1605 32.2143 61.1605 31.9563ZM60.1929 33.04L59.393 33.9431C59.393 33.9431 58.6319 33.9689 58.6706 34.214C58.7222 34.4721 59.7156 35.2074 59.7027 35.5042C59.7027 35.788 60.3735 35.4268 60.3735 35.4268L60.9154 33.7754C60.9154 33.7754 60.8896 32.6401 60.5929 32.653C60.2961 32.6788 60.2187 33.0142 60.2058 33.04H60.1929ZM7.22038 32.6788C7.22038 32.5761 7.1796 32.4777 7.10702 32.4051C7.03443 32.3325 6.93599 32.2917 6.83334 32.2917C6.73069 32.2917 6.63225 32.3325 6.55967 32.4051C6.48708 32.4777 6.44631 32.5761 6.44631 32.6788C6.44631 32.7814 6.48708 32.8799 6.55967 32.9525C6.63225 33.025 6.73069 33.0658 6.83334 33.0658C6.93599 33.0658 7.03443 33.025 7.10702 32.9525C7.1796 32.8799 7.22038 32.7814 7.22038 32.6788ZM7.58161 31.5177C7.58161 31.2855 7.401 31.1048 7.19458 31.1048C6.98816 31.1048 6.80754 31.2854 6.80754 31.5048C6.80754 31.7241 6.98816 31.9176 7.19458 31.9176C7.401 31.9176 7.58161 31.737 7.58161 31.5048V31.5177ZM4.43371 25.9314C4.2918 25.6089 3.98217 25.4283 3.76285 25.5444C3.53062 25.6347 3.46612 25.983 3.60803 26.3056C3.76285 26.6281 4.05958 26.8087 4.2789 26.6926C4.51112 26.6023 4.57562 26.254 4.43371 25.9314ZM5.3755 29.4148C5.18198 28.989 4.76914 28.7568 4.47242 28.8987C4.17569 29.0406 4.05957 29.4664 4.25309 29.8792C4.44661 30.2921 4.87235 30.5243 5.18198 30.3953C5.49161 30.2663 5.56902 29.8276 5.3755 29.4019V29.4148ZM6.4076 31.9563C6.45921 31.4403 6.25279 30.95 5.91735 30.8855C5.58192 30.8081 5.27229 31.1822 5.20778 31.6983C5.13038 32.2143 5.3497 32.7046 5.68513 32.7691C6.00766 32.8336 6.3302 32.4724 6.3947 31.9563H6.4076ZM4.76914 32.3176C4.96266 31.8402 4.89816 31.3242 4.58853 31.1564C4.2789 30.9887 3.89186 31.2726 3.68544 31.7499C3.47902 32.2272 3.55642 32.7562 3.85315 32.911C4.14988 33.0658 4.56272 32.8078 4.75624 32.3305L4.76914 32.3176Z" fill="#6B18B5"/>
<path fill-rule="evenodd" clip-rule="evenodd" d="M4.01966 31.2209C4.01966 30.9758 3.82614 30.7823 3.59392 30.7823C3.3617 30.7823 3.16818 30.9887 3.16818 31.2338C3.16818 31.4789 3.3617 31.6725 3.59392 31.6725C3.82614 31.6725 4.01966 31.4789 4.01966 31.2338V31.2209ZM3.68423 30.1243C3.68777 30.0714 3.68038 30.0182 3.66252 29.9683C3.64466 29.9183 3.61671 29.8725 3.58041 29.8338C3.54411 29.7951 3.50024 29.7642 3.45152 29.7432C3.4028 29.7221 3.35027 29.7113 3.29719 29.7115C3.07787 29.7115 2.91016 29.8921 2.91016 30.1243C2.91016 30.3565 3.07787 30.5242 3.29719 30.5242C3.51652 30.5242 3.68423 30.3436 3.68423 30.1243ZM4.04546 27.9956C4.04546 27.6086 3.87775 27.3118 3.65843 27.3118C3.46491 27.3118 3.29719 27.6215 3.29719 27.9956C3.29719 28.3697 3.46491 28.6794 3.67133 28.6794C3.87775 28.6794 4.04546 28.3697 4.04546 27.9956ZM5.19368 27.8279C5.23238 27.4537 5.11627 27.1312 4.90985 27.1054C4.70343 27.0796 4.49701 27.3634 4.4454 27.7247C4.3938 28.1117 4.52281 28.4213 4.72923 28.46C4.93565 28.4858 5.14207 28.202 5.19368 27.8279ZM13.3602 11.5207C13.515 11.0047 13.3602 10.4628 13.0118 10.3338C12.6635 10.2048 12.2636 10.5402 12.1087 11.0692C11.9539 11.5852 12.1087 12.1271 12.4571 12.2561C12.8054 12.3851 13.2054 12.0497 13.3602 11.5207ZM11.812 13.8816C12.2636 13.4946 12.4571 12.9527 12.2378 12.6818C12.0313 12.4109 11.4895 12.5012 11.025 12.8882C10.5606 13.2753 10.38 13.8042 10.5993 14.0881C10.8057 14.3461 11.3476 14.2687 11.812 13.8816ZM10.9089 12.5657C11.3476 12.2432 11.554 11.7787 11.3347 11.5336C11.1154 11.2885 10.5864 11.3917 10.1349 11.7142C9.68331 12.0497 9.4898 12.5141 9.69622 12.7463C9.90264 12.9785 10.4574 12.9011 10.9089 12.5657ZM14.3923 10.2693C14.7019 10.05 14.8309 9.72743 14.689 9.55971C14.5342 9.392 14.1729 9.4565 13.8762 9.68873C13.5795 9.92095 13.4376 10.2306 13.5795 10.3983C13.7343 10.566 14.0955 10.5144 14.3923 10.2693Z" fill="#6B18B5"/>
<path fill-rule="evenodd" clip-rule="evenodd" d="M12.5737 12.5012C12.7802 12.1787 12.7931 11.8304 12.5995 11.7272C12.4189 11.624 12.0835 11.7917 11.89 12.1142C11.6964 12.4367 11.6577 12.7851 11.8513 12.8883C12.0448 12.9915 12.3673 12.8238 12.5737 12.5012ZM15.2056 11.1208C15.5281 10.8499 15.6571 10.4757 15.4894 10.308C15.3088 10.1403 14.9089 10.2177 14.5863 10.4887C14.2638 10.7596 14.1348 11.1337 14.3025 11.3143C14.4702 11.482 14.8702 11.4046 15.2056 11.1208ZM10.445 14.3332C10.7418 14.3203 10.974 14.1655 10.9611 13.9978C10.9353 13.8172 10.6643 13.6882 10.3676 13.714C10.058 13.714 9.82577 13.8817 9.85157 14.0494C9.87737 14.2171 10.1354 14.3461 10.445 14.3332ZM16.1861 9.43075C16.3925 9.09532 16.4054 8.75988 16.2119 8.65667C16.0313 8.54056 15.6958 8.72118 15.5023 9.04371C15.3088 9.36624 15.283 9.70167 15.4636 9.81779C15.6571 9.92099 15.9797 9.74038 16.1861 9.43075Z" fill="#6B18B5"/>
<path fill-rule="evenodd" clip-rule="evenodd" d="M50.801 19.1584C50.801 19.1584 51.7428 17.6618 51.3816 16.2427C51.0203 14.8364 49.4464 15.8298 49.4851 16.333C49.5238 16.849 50.4914 17.507 50.5559 17.8166C50.6204 18.1263 50.4527 19.068 50.801 19.1584Z" fill="#FFD200" stroke="#EF8A10" stroke-width="0.129012"/>
<path fill-rule="evenodd" clip-rule="evenodd" d="M32.7246 6.69584C32.7246 6.69584 36.1305 6.82485 36.1563 9.03096C36.1434 9.3793 36.1563 9.77923 36.0273 10.7726C36.3623 10.5525 36.6338 10.2485 36.8149 9.8909C36.9959 9.53329 37.0803 9.13452 37.0594 8.73423C37.0852 6.48942 34.0276 4.96707 32.7246 6.69584Z" fill="#217900" stroke="black" stroke-width="0.30963" stroke-linejoin="round"/>
<path fill-rule="evenodd" clip-rule="evenodd" d="M30.5586 6.59247C30.5586 6.59247 33.3066 6.02482 33.3324 8.23093C33.3582 10.4241 32.4551 10.7854 32.4551 10.7854C32.4551 10.7854 34.5709 10.3338 34.5709 8.10192C34.5838 5.8571 31.8616 4.8637 30.5586 6.59247Z" fill="#217900" stroke="black" stroke-width="0.30963" stroke-linejoin="round"/>
<path fill-rule="evenodd" clip-rule="evenodd" d="M39.8996 54.224C39.8996 54.224 52.7622 50.5987 56.6325 34.8076C54.3748 51.0116 40.2996 56.1463 40.2996 56.1463L39.8867 54.224H39.8996Z" fill="#F7DF73" stroke="black" stroke-width="0.335432" stroke-linejoin="round"/>
<path fill-rule="evenodd" clip-rule="evenodd" d="M41.215 55.2173C41.6149 55.2173 42.5954 54.1207 43.1631 54.0046C43.7307 53.8756 43.7952 53.3079 43.1373 53.2821C42.4922 53.2692 41.9246 54.0175 41.9246 54.0175C41.9246 54.0175 41.3698 54.5078 40.7763 54.5594C40.1958 54.6239 40.5699 55.3592 41.215 55.2044V55.2173Z" fill="#8C1800"/>
<path fill-rule="evenodd" clip-rule="evenodd" d="M48.6329 49.6827C48.6329 49.6827 47.2912 50.4568 47.4718 50.6503C47.6653 50.8309 48.8522 49.9149 48.878 49.8891C48.9038 49.8762 49.3812 49.2828 48.62 49.6827H48.6329Z" fill="#8C1800" stroke="#8C1800" stroke-width="0.335432"/>
<path fill-rule="evenodd" clip-rule="evenodd" d="M43.9621 53.2048C43.9621 53.2048 43.5622 53.0629 44.5814 52.6629C45.6135 52.263 45.5489 51.7985 45.8715 51.6179C46.2198 51.4244 46.9294 50.9213 47.0713 51.218C47.2132 51.5147 46.323 52.0953 46.1166 52.1598C45.9102 52.2243 44.8781 53.1661 44.5814 53.2435C44.2975 53.3338 44.0782 53.2822 43.9621 53.2048Z" fill="#8C1800"/>
<path d="M50.6195 47.7217C49.7422 48.7022 49.7422 48.6764 49.7422 48.6764" stroke="#8C1800" stroke-width="0.399939" stroke-linecap="round"/>
<path d="M51.9362 46.1091L51.0977 47.1412" stroke="#8C1800" stroke-width="0.374136" stroke-linecap="round"/>
<path d="M53.2523 44.019L52.3105 45.5156" stroke="#8C1800" stroke-width="0.335432" stroke-linecap="round"/>
<path d="M54.36 41.8775L53.5859 43.4256M54.8632 40.7422L54.6051 41.2969" stroke="#8C1800" stroke-width="0.30963" stroke-linecap="round"/>
<path d="M55.431 39.2585L55.2246 39.9036" stroke="#8C1800" stroke-width="0.180617" stroke-linecap="round"/>
<path fill-rule="evenodd" clip-rule="evenodd" d="M23.0234 53.9025C23.0234 53.9025 10.2629 50.1963 6.43476 34.1113C8.66785 50.6249 22.6308 55.8438 22.6308 55.8438L23.0234 53.9025Z" fill="#F7DF73" stroke="black" stroke-width="0.331644" stroke-linejoin="round"/>
<path fill-rule="evenodd" clip-rule="evenodd" d="M21.7209 54.8947C21.3339 54.8947 20.3534 53.7852 19.7858 53.6562C19.231 53.5272 19.1794 52.9466 19.8116 52.9337C20.4566 52.9079 21.0243 53.682 21.0243 53.682C21.0243 53.682 21.579 54.1723 22.1596 54.2368C22.7401 54.3013 22.366 55.0366 21.7209 54.8818V54.8947Z" fill="#8C1800"/>
<path fill-rule="evenodd" clip-rule="evenodd" d="M14.3845 49.2635C14.3845 49.2635 15.7097 50.0703 15.5134 50.272C15.3416 50.4485 14.1637 49.5156 14.1391 49.4904C14.1146 49.4652 13.6484 48.8601 14.3845 49.2635Z" fill="#8C1800" stroke="#8C1800" stroke-width="0.331644"/>
<path fill-rule="evenodd" clip-rule="evenodd" d="M19.0125 52.8435C19.0125 52.8435 19.3995 52.7016 18.3803 52.2887C17.374 51.8888 17.4256 51.4243 17.0902 51.2308C16.7677 51.0373 16.0581 50.5213 15.9291 50.818C15.8001 51.1147 16.6644 51.7211 16.8709 51.7856C17.0773 51.8501 18.0965 52.8048 18.3803 52.8951C18.677 52.9725 18.8835 52.9338 19.0125 52.8435Z" fill="#8C1800"/>
<path d="M12.4224 47.2717L13.2812 48.255" stroke="#8C1800" stroke-width="0.397972" stroke-linecap="round"/>
<path d="M11.0973 45.6331L11.9316 46.6667" stroke="#8C1800" stroke-width="0.373099" stroke-linecap="round"/>
<path d="M9.79602 43.49L10.7285 45.0279" stroke="#8C1800" stroke-width="0.348226" stroke-linecap="round"/>
<path d="M8.6913 41.3218L9.47656 42.9102M8.20051 40.1621L8.44591 40.7168" stroke="#8C1800" stroke-width="0.323353" stroke-linecap="round"/>
<path d="M7.63657 38.6494L7.85742 39.3301" stroke="#8C1800" stroke-width="0.198986" stroke-linecap="round"/>
<path fill-rule="evenodd" clip-rule="evenodd" d="M57.2629 31.8918C57.3274 32.8852 58.295 33.827 57.908 35.5687C57.4306 37.5168 55.7147 42.187 56.0244 42.9998C55.5083 42.3032 55.5986 41.6581 55.5599 40.6776C55.5083 39.71 56.9662 36.1106 57.0952 34.8849C57.0952 33.7883 57.1984 32.3047 57.2629 31.8918Z" fill="#217900" stroke="black" stroke-width="0.30963" stroke-linejoin="round"/>
<path fill-rule="evenodd" clip-rule="evenodd" d="M57.2642 31.9177C57.2642 31.9177 58.8382 33.9174 58.7608 35.5043C58.6704 37.0782 57.7932 38.936 58.0899 39.7617C57.5738 39.065 57.4448 38.6135 57.4061 37.6459C57.3674 36.6783 58.1802 35.6075 58.0254 34.5496C57.8577 33.4917 57.2513 31.9177 57.2513 31.9177H57.2642ZM5.47859 32.3564C5.41409 33.3498 4.67872 34.2399 5.05285 35.9687C5.5431 37.9168 7.27187 40.4067 6.98804 43.2579C7.46964 42.5326 7.71729 41.6771 7.69761 40.8067C7.73631 39.8391 5.77532 36.5751 5.64631 35.3495C5.64631 34.2529 5.5431 32.7692 5.47859 32.3564Z" fill="#217900" stroke="black" stroke-width="0.30963" stroke-linejoin="round"/>
<path fill-rule="evenodd" clip-rule="evenodd" d="M5.47727 32.3821C5.47727 32.3821 3.92912 34.3173 4.01943 35.9041C4.04523 36.9491 5.98042 41.3614 5.69659 42.187C6.19974 41.4904 6.34165 41.5678 6.31585 40.5099C5.74819 37.8135 4.7419 36.0847 4.90961 35.0397C5.07733 33.9818 5.50307 32.3821 5.47727 32.3821Z" fill="#217900" stroke="black" stroke-width="0.30963" stroke-linejoin="round"/>
<path d="M31.7703 14.6504L35.5704 26.4327H48.0074L37.9887 33.7232L41.8062 45.5054L31.7875 38.2322L21.7689 45.5054L25.5691 33.7232L15.5332 26.4327H27.9356L31.7703 14.6504Z" fill="white" stroke="black" stroke-width="0.259122" stroke-linecap="square" stroke-linejoin="round"/>
</g>
</g>
<defs>
<clipPath id="clip0_10790_11465">
<rect width="64" height="64" rx="32" fill="white"/>
</clipPath>
</defs>
</svg>
