<svg width="64" height="64" viewBox="0 0 64 64" fill="none" xmlns="http://www.w3.org/2000/svg">
<g clip-path="url(#clip0_10790_11551)">
<mask id="mask0_10790_11551" style="mask-type:luminance" maskUnits="userSpaceOnUse" x="0" y="0" width="64" height="64">
<path d="M0 0H64V64H0V0Z" fill="white"/>
</mask>
<g mask="url(#mask0_10790_11551)">
<path fill-rule="evenodd" clip-rule="evenodd" d="M-2.91211 -2.69995H66.4254V66.425H-2.91211V-2.69995Z" fill="#EF2D29"/>
<path fill-rule="evenodd" clip-rule="evenodd" d="M20.5762 42.6626H67.6262V68.6251H20.5762V42.6626Z" fill="#009025"/>
<path fill-rule="evenodd" clip-rule="evenodd" d="M20.5762 -2.42505H67.6262V21.325H20.5762V-2.42505Z" fill="white"/>
<path d="M17.1729 9.5376H14.3626C14.2076 9.5376 14.082 9.65574 14.082 9.80148V11.1275C14.082 11.2732 14.2076 11.3913 14.3626 11.3913H17.1729C17.3278 11.3913 17.4534 11.2732 17.4534 11.1275V9.80148C17.4534 9.65574 17.3278 9.5376 17.1729 9.5376Z" fill="white" stroke="#EF2D28" stroke-width="0.0322919"/>
<path d="M17.1022 9.61621H14.4358C14.289 9.61621 14.1699 9.72459 14.1699 9.85829V11.0752C14.1699 11.2089 14.289 11.3173 14.4358 11.3173H17.1022C17.2491 11.3173 17.3681 11.2089 17.3681 11.0752V9.85829C17.3681 9.72459 17.2491 9.61621 17.1022 9.61621Z" fill="white" stroke="#EF2D28" stroke-width="0.0307542"/>
<path fill-rule="evenodd" clip-rule="evenodd" d="M15.6565 10.0771L15.8176 10.0835L15.8243 10.1576L15.9572 10.2252L16.0602 10.1397L16.1848 10.2073L16.0685 10.2813L16.0968 10.3834L16.243 10.3771V10.5111L16.1267 10.506L16.0669 10.5902L16.1998 10.6859L16.0968 10.765L15.9855 10.6808L15.8243 10.714L15.8326 10.8378L15.6565 10.8506L15.6332 10.7306L15.487 10.6693L15.4056 10.7536L15.281 10.691L15.3541 10.5953L15.266 10.534H15.1414L15.1348 10.3592L15.2594 10.3707L15.3474 10.2686L15.2444 10.1895L15.3773 10.1001L15.472 10.1729L15.6332 10.1499L15.6565 10.0771Z" fill="white" stroke="#EF2D28" stroke-width="0.0194158"/>
<path d="M15.7036 10.5967C15.8021 10.5967 15.8818 10.5288 15.8818 10.4451C15.8818 10.3613 15.8021 10.2935 15.7036 10.2935C15.6052 10.2935 15.5254 10.3613 15.5254 10.4451C15.5254 10.5288 15.6052 10.5967 15.7036 10.5967Z" fill="white" stroke="#EF2D28" stroke-width="0.0209085"/>
<path fill-rule="evenodd" clip-rule="evenodd" d="M14.6014 9.69238L14.3403 9.92356L14.6014 9.69238ZM14.7746 9.69238L14.5135 9.92356L14.7746 9.69238ZM14.9453 9.69238L14.6867 9.92356L14.9453 9.69238ZM15.1185 9.69238L14.8599 9.92356L15.1185 9.69238ZM15.2917 9.69238L15.0331 9.92356L15.2917 9.69238ZM15.4649 9.69238L15.2064 9.92356L15.4649 9.69238ZM15.6381 9.69238L15.3796 9.92356L15.6381 9.69238ZM15.8113 9.69238L15.5528 9.92356L15.8113 9.69238ZM15.9846 9.69238L15.7235 9.92356L15.9846 9.69238ZM16.1578 9.69238L15.8943 9.92356L16.1578 9.69238ZM16.3261 9.69238L16.0675 9.92356L16.3261 9.69238ZM16.4993 9.69238L16.2407 9.92356L16.4993 9.69238ZM15.8089 9.69238L15.5528 9.92356L15.8089 9.69238ZM16.6749 9.69238L16.4163 9.92356L16.6749 9.69238ZM16.8481 9.69238L16.5895 9.92356L16.8481 9.69238ZM17.0213 9.69238L16.7628 9.92356L17.0213 9.69238ZM17.1945 9.69238L16.936 9.92356L17.1945 9.69238ZM16.936 9.69238L17.1945 9.92356L16.936 9.69238ZM16.7628 9.69238L17.0213 9.92356L16.7628 9.69238ZM16.5895 9.69238L16.8481 9.92356L16.5895 9.69238ZM16.4163 9.69238L16.6749 9.92356L16.4163 9.69238ZM16.2431 9.69238L16.5017 9.92356L16.2431 9.69238ZM16.0699 9.69238L16.3285 9.92356L16.0699 9.69238ZM15.8967 9.69238L16.1578 9.92356L15.8967 9.69238ZM15.7235 9.69238L15.9821 9.92356L15.7235 9.69238ZM15.5479 9.69238L15.8089 9.92356L15.5479 9.69238ZM15.3771 9.69238L15.6357 9.92356L15.3771 9.69238ZM15.2039 9.69238L15.4625 9.92356L15.2039 9.69238ZM15.0307 9.69238L15.2893 9.92356L15.0307 9.69238ZM15.7235 9.69238L15.9821 9.92356L15.7235 9.69238ZM14.8599 9.69238L15.1161 9.92356L14.8599 9.69238ZM14.6843 9.69238L14.9453 9.92356L14.6843 9.69238ZM14.5111 9.69238L14.7721 9.92356L14.5111 9.69238ZM14.3379 9.69238L14.6014 9.92356L14.3379 9.69238ZM14.6014 11.0053L14.3428 11.2386L14.6014 11.0053ZM14.7721 11.0053L14.5111 11.2386L14.7721 11.0053ZM14.9478 11.0053L14.6867 11.2386L14.9478 11.0053ZM15.1185 11.0053L14.8599 11.2386L15.1185 11.0053ZM15.2917 11.0053L15.0331 11.2386L15.2917 11.0053ZM15.4649 11.0053L15.2064 11.2386L15.4649 11.0053ZM15.6381 11.0053L15.382 11.2386L15.6381 11.0053ZM15.8113 11.0053L15.5528 11.2386L15.8113 11.0053ZM15.9846 11.0053L15.7235 11.2386L15.9846 11.0053ZM16.1553 11.0053L15.8943 11.2386L16.1553 11.0053ZM16.3334 11.0053L16.0724 11.2386L16.3334 11.0053ZM16.5042 11.0053L16.2456 11.2386L16.5042 11.0053ZM15.8113 11.0053L15.5528 11.2386L15.8113 11.0053ZM16.6749 11.0053L16.4163 11.2386L16.6749 11.0053ZM16.8481 11.0053L16.5895 11.2386L16.8481 11.0053ZM17.0213 11.0053L16.7628 11.2386L17.0213 11.0053ZM17.1945 11.0053L16.936 11.2386L17.1945 11.0053ZM16.936 11.0053L17.1945 11.2386L16.936 11.0053ZM16.7628 11.0053L17.0213 11.2386L16.7628 11.0053ZM16.5895 11.0053L16.8481 11.2386L16.5895 11.0053ZM16.4163 11.0053L16.6749 11.2386L16.4163 11.0053ZM16.2431 11.0053L16.5017 11.2386L16.2431 11.0053ZM16.0699 11.0053L16.331 11.2386L16.0699 11.0053ZM15.8943 11.0053L16.1553 11.2386L15.8943 11.0053ZM15.7235 11.0053L15.9821 11.2386L15.7235 11.0053ZM15.5528 11.0053L15.8113 11.2386L15.5528 11.0053ZM15.3796 11.0053L15.6381 11.2386L15.3796 11.0053ZM15.2064 11.0053L15.4649 11.2386L15.2064 11.0053ZM15.0331 11.0053L15.2917 11.2386L15.0331 11.0053ZM15.726 11.0053L15.9846 11.2386L15.726 11.0053ZM14.8624 11.0053L15.1185 11.2386L14.8624 11.0053ZM14.6867 11.0053L14.9478 11.2386L14.6867 11.0053ZM14.5135 11.0053L14.7746 11.2386L14.5135 11.0053ZM14.3428 11.0053L14.6014 11.2386L14.3428 11.0053Z" fill="white"/>
<path d="M14.6014 9.69238L14.3403 9.92356M14.7746 9.69238L14.5135 9.92356M14.9453 9.69238L14.6867 9.92356M15.1185 9.69238L14.8599 9.92356M15.2917 9.69238L15.0331 9.92356M15.4649 9.69238L15.2064 9.92356M15.6381 9.69238L15.3796 9.92356M15.8113 9.69238L15.5528 9.92356L15.8089 9.69238M15.9846 9.69238L15.7235 9.92356M16.1578 9.69238L15.8943 9.92356M16.3261 9.69238L16.0675 9.92356M16.4993 9.69238L16.2407 9.92356M16.6749 9.69238L16.4163 9.92356M16.8481 9.69238L16.5895 9.92356M17.0213 9.69238L16.7628 9.92356M17.1945 9.69238L16.936 9.92356M16.936 9.69238L17.1945 9.92356M16.7628 9.69238L17.0213 9.92356M16.5895 9.69238L16.8481 9.92356M16.4163 9.69238L16.6749 9.92356M16.2431 9.69238L16.5017 9.92356M16.0699 9.69238L16.3285 9.92356M15.8967 9.69238L16.1578 9.92356M15.7235 9.69238L15.9821 9.92356M15.5479 9.69238L15.8089 9.92356M15.3771 9.69238L15.6357 9.92356M15.2039 9.69238L15.4625 9.92356M15.0307 9.69238L15.2893 9.92356M14.8599 9.69238L15.1161 9.92356M14.6843 9.69238L14.9453 9.92356M14.5111 9.69238L14.7721 9.92356M14.3379 9.69238L14.6014 9.92356M14.6014 11.0053L14.3428 11.2386M14.7721 11.0053L14.5111 11.2386M14.9478 11.0053L14.6867 11.2386M15.1185 11.0053L14.8599 11.2386M15.2917 11.0053L15.0331 11.2386M15.4649 11.0053L15.2064 11.2386M15.6381 11.0053L15.382 11.2386M15.8113 11.0053L15.5528 11.2386M15.9846 11.0053L15.7235 11.2386M16.1553 11.0053L15.8943 11.2386M16.3334 11.0053L16.0724 11.2386M16.5042 11.0053L16.2456 11.2386M16.6749 11.0053L16.4163 11.2386M16.8481 11.0053L16.5895 11.2386M17.0213 11.0053L16.7628 11.2386M17.1945 11.0053L16.936 11.2386M16.936 11.0053L17.1945 11.2386M16.7628 11.0053L17.0213 11.2386M16.5895 11.0053L16.8481 11.2386M16.4163 11.0053L16.6749 11.2386M16.2431 11.0053L16.5017 11.2386M16.0699 11.0053L16.331 11.2386M15.8943 11.0053L16.1553 11.2386M15.7235 11.0053L15.9821 11.2386M15.5528 11.0053L15.8113 11.2386M15.3796 11.0053L15.6381 11.2386M15.2064 11.0053L15.4649 11.2386M15.0331 11.0053L15.2917 11.2386M15.726 11.0053L15.9846 11.2386M14.8624 11.0053L15.1185 11.2386M14.6867 11.0053L14.9478 11.2386M14.5135 11.0053L14.7746 11.2386M14.3428 11.0053L14.6014 11.2386" stroke="#EF2D28" stroke-width="0.0307542"/>
<path d="M5.84671 9.4502H3.0364C2.88146 9.4502 2.75586 9.56834 2.75586 9.71408V11.0401C2.75586 11.1858 2.88146 11.3039 3.0364 11.3039H5.84671C6.00165 11.3039 6.12725 11.1858 6.12725 11.0401V9.71408C6.12725 9.56834 6.00165 9.4502 5.84671 9.4502Z" fill="white" stroke="#EF2D28" stroke-width="0.0322919"/>
<path d="M5.77603 9.52881H3.10966C2.9628 9.52881 2.84375 9.63719 2.84375 9.77089V10.9878C2.84375 11.1215 2.9628 11.2299 3.10966 11.2299H5.77603C5.92288 11.2299 6.04193 11.1215 6.04193 10.9878V9.77089C6.04193 9.63719 5.92288 9.52881 5.77603 9.52881Z" fill="white" stroke="#EF2D28" stroke-width="0.0307542"/>
<path fill-rule="evenodd" clip-rule="evenodd" d="M4.3303 9.98975L4.49147 9.99613L4.49811 10.0701L4.63103 10.1378L4.73405 10.0523L4.85866 10.1199L4.74235 10.1939L4.7706 10.296L4.91681 10.2897V10.4237L4.80051 10.4186L4.74069 10.5028L4.87361 10.5985L4.7706 10.6776L4.65928 10.5934L4.49811 10.6266L4.50642 10.7504L4.3303 10.7632L4.30704 10.6432L4.16083 10.5819L4.07942 10.6662L3.95481 10.6036L4.02791 10.5079L3.93985 10.4466H3.81524L3.80859 10.2718L3.93321 10.2833L4.02127 10.1812L3.91825 10.1021L4.05117 10.0127L4.14588 10.0855L4.30704 10.0625L4.3303 9.98975Z" fill="white" stroke="#EF2D28" stroke-width="0.0194158"/>
<path d="M4.37745 10.5093C4.47588 10.5093 4.55567 10.4414 4.55567 10.3577C4.55567 10.2739 4.47588 10.2061 4.37745 10.2061C4.27901 10.2061 4.19922 10.2739 4.19922 10.3577C4.19922 10.4414 4.27901 10.5093 4.37745 10.5093Z" fill="white" stroke="#EF2D28" stroke-width="0.0209085"/>
<path fill-rule="evenodd" clip-rule="evenodd" d="M3.27518 9.60498L3.01416 9.83615L3.27518 9.60498ZM3.44839 9.60498L3.18736 9.83615L3.44839 9.60498ZM3.61915 9.60498L3.36057 9.83615L3.61915 9.60498ZM3.79236 9.60498L3.53377 9.83615L3.79236 9.60498ZM3.96556 9.60498L3.70698 9.83615L3.96556 9.60498ZM4.13877 9.60498L3.88018 9.83615L4.13877 9.60498ZM4.31197 9.60498L4.05339 9.83615L4.31197 9.60498ZM4.48518 9.60498L4.22659 9.83615L4.48518 9.60498ZM4.65838 9.60498L4.39735 9.83615L4.65838 9.60498ZM4.83159 9.60498L4.56812 9.83615L4.83159 9.60498ZM4.99991 9.60498L4.74132 9.83615L4.99991 9.60498ZM5.17312 9.60498L4.91453 9.83615L5.17312 9.60498ZM4.48274 9.60498L4.22659 9.83615L4.48274 9.60498ZM5.34876 9.60498L5.09017 9.83615L5.34876 9.60498ZM5.52196 9.60498L5.26338 9.83615L5.52196 9.60498ZM5.69517 9.60498L5.43658 9.83615L5.69517 9.60498ZM5.86837 9.60498L5.60979 9.83615L5.86837 9.60498ZM5.60979 9.60498L5.86837 9.83615L5.60979 9.60498ZM5.43658 9.60498L5.69517 9.83615L5.43658 9.60498ZM5.26338 9.60498L5.52196 9.83615L5.26338 9.60498ZM5.09017 9.60498L5.34876 9.83615L5.09017 9.60498ZM4.91697 9.60498L5.17556 9.83615L4.91697 9.60498ZM4.74376 9.60498L5.00235 9.83615L4.74376 9.60498ZM4.57056 9.60498L4.83159 9.83615L4.57056 9.60498ZM4.39735 9.60498L4.65594 9.83615L4.39735 9.60498ZM4.22171 9.60498L4.48274 9.83615L4.22171 9.60498ZM4.05095 9.60498L4.30953 9.83615L4.05095 9.60498ZM3.87774 9.60498L4.13633 9.83615L3.87774 9.60498ZM3.70454 9.60498L3.96312 9.83615L3.70454 9.60498ZM4.39735 9.60498L4.65594 9.83615L4.39735 9.60498ZM3.53377 9.60498L3.78992 9.83615L3.53377 9.60498ZM3.35813 9.60498L3.61915 9.83615L3.35813 9.60498ZM3.18492 9.60498L3.44595 9.83615L3.18492 9.60498ZM3.01172 9.60498L3.27518 9.83615L3.01172 9.60498ZM3.27518 10.9179L3.0166 11.1512L3.27518 10.9179ZM3.44595 10.9179L3.18492 11.1512L3.44595 10.9179ZM3.62159 10.9179L3.36057 11.1512L3.62159 10.9179ZM3.79236 10.9179L3.53377 11.1512L3.79236 10.9179ZM3.96556 10.9179L3.70698 11.1512L3.96556 10.9179ZM4.13877 10.9179L3.88018 11.1512L4.13877 10.9179ZM4.31197 10.9179L4.05582 11.1512L4.31197 10.9179ZM4.48518 10.9179L4.22659 11.1512L4.48518 10.9179ZM4.65838 10.9179L4.39735 11.1512L4.65838 10.9179ZM4.82915 10.9179L4.56812 11.1512L4.82915 10.9179ZM5.00723 10.9179L4.7462 11.1512L5.00723 10.9179ZM5.17799 10.9179L4.91941 11.1512L5.17799 10.9179ZM4.48518 10.9179L4.22659 11.1512L4.48518 10.9179ZM5.34876 10.9179L5.09017 11.1512L5.34876 10.9179ZM5.52196 10.9179L5.26338 11.1512L5.52196 10.9179ZM5.69517 10.9179L5.43658 11.1512L5.69517 10.9179ZM5.86837 10.9179L5.60979 11.1512L5.86837 10.9179ZM5.60979 10.9179L5.86837 11.1512L5.60979 10.9179ZM5.43658 10.9179L5.69517 11.1512L5.43658 10.9179ZM5.26338 10.9179L5.52196 11.1512L5.26338 10.9179ZM5.09017 10.9179L5.34876 11.1512L5.09017 10.9179ZM4.91697 10.9179L5.17556 11.1512L4.91697 10.9179ZM4.74376 10.9179L5.00479 11.1512L4.74376 10.9179ZM4.56812 10.9179L4.82915 11.1512L4.56812 10.9179ZM4.39735 10.9179L4.65594 11.1512L4.39735 10.9179ZM4.22659 10.9179L4.48518 11.1512L4.22659 10.9179ZM4.05339 10.9179L4.31197 11.1512L4.05339 10.9179ZM3.88018 10.9179L4.13877 11.1512L3.88018 10.9179ZM3.70698 10.9179L3.96556 11.1512L3.70698 10.9179ZM4.39979 10.9179L4.65838 11.1512L4.39979 10.9179ZM3.53621 10.9179L3.79236 11.1512L3.53621 10.9179ZM3.36057 10.9179L3.62159 11.1512L3.36057 10.9179ZM3.18736 10.9179L3.44839 11.1512L3.18736 10.9179ZM3.0166 10.9179L3.27518 11.1512L3.0166 10.9179Z" fill="white"/>
<path d="M3.27518 9.60498L3.01416 9.83615M3.44839 9.60498L3.18736 9.83615M3.61915 9.60498L3.36057 9.83615M3.79236 9.60498L3.53377 9.83615M3.96556 9.60498L3.70698 9.83615M4.13877 9.60498L3.88018 9.83615M4.31197 9.60498L4.05339 9.83615M4.48518 9.60498L4.22659 9.83615L4.48274 9.60498M4.65838 9.60498L4.39735 9.83615M4.83159 9.60498L4.56812 9.83615M4.99991 9.60498L4.74132 9.83615M5.17312 9.60498L4.91453 9.83615M5.34876 9.60498L5.09017 9.83615M5.52196 9.60498L5.26338 9.83615M5.69517 9.60498L5.43658 9.83615M5.86837 9.60498L5.60979 9.83615M5.60979 9.60498L5.86837 9.83615M5.43658 9.60498L5.69517 9.83615M5.26338 9.60498L5.52196 9.83615M5.09017 9.60498L5.34876 9.83615M4.91697 9.60498L5.17556 9.83615M4.74376 9.60498L5.00235 9.83615M4.57056 9.60498L4.83159 9.83615M4.39735 9.60498L4.65594 9.83615M4.22171 9.60498L4.48274 9.83615M4.05095 9.60498L4.30953 9.83615M3.87774 9.60498L4.13633 9.83615M3.70454 9.60498L3.96312 9.83615M3.53377 9.60498L3.78992 9.83615M3.35813 9.60498L3.61915 9.83615M3.18492 9.60498L3.44595 9.83615M3.01172 9.60498L3.27518 9.83615M3.27518 10.9179L3.0166 11.1512M3.44595 10.9179L3.18492 11.1512M3.62159 10.9179L3.36057 11.1512M3.79236 10.9179L3.53377 11.1512M3.96556 10.9179L3.70698 11.1512M4.13877 10.9179L3.88018 11.1512M4.31197 10.9179L4.05582 11.1512M4.48518 10.9179L4.22659 11.1512M4.65838 10.9179L4.39735 11.1512M4.82915 10.9179L4.56812 11.1512M5.00723 10.9179L4.7462 11.1512M5.17799 10.9179L4.91941 11.1512M5.34876 10.9179L5.09017 11.1512M5.52196 10.9179L5.26338 11.1512M5.69517 10.9179L5.43658 11.1512M5.86837 10.9179L5.60979 11.1512M5.60979 10.9179L5.86837 11.1512M5.43658 10.9179L5.69517 11.1512M5.26338 10.9179L5.52196 11.1512M5.09017 10.9179L5.34876 11.1512M4.91697 10.9179L5.17556 11.1512M4.74376 10.9179L5.00479 11.1512M4.56812 10.9179L4.82915 11.1512M4.39735 10.9179L4.65594 11.1512M4.22659 10.9179L4.48518 11.1512M4.05339 10.9179L4.31197 11.1512M3.88018 10.9179L4.13877 11.1512M3.70698 10.9179L3.96556 11.1512M4.39979 10.9179L4.65838 11.1512M3.53621 10.9179L3.79236 11.1512M3.36057 10.9179L3.62159 11.1512M3.18736 10.9179L3.44839 11.1512M3.0166 10.9179L3.27518 11.1512" stroke="#EF2D28" stroke-width="0.0307542"/>
<path fill-rule="evenodd" clip-rule="evenodd" d="M8.05967 13.3381C3.86501 17.4522 2.07558 17.9719 2.91688 18.304C3.75818 18.6361 6.45863 16.5123 9.26811 13.6939C12.0776 10.8755 13.7985 8.36505 12.9572 8.03298C12.1159 7.70091 12.5224 8.96613 8.05967 13.3381Z" fill="white" stroke="#EF2D28" stroke-width="0.0514699"/>
<path fill-rule="evenodd" clip-rule="evenodd" d="M4.51336 16.3376L5.98438 16.7237C4.60118 18.0387 3.04478 18.5774 2.61299 18.3462C2.18119 18.1151 3.39119 17.5742 4.5158 16.3398L4.51336 16.3376Z" fill="white" stroke="#EF2D28" stroke-width="0.0299854"/>
<path fill-rule="evenodd" clip-rule="evenodd" d="M4.52053 16.489L5.73242 16.7973C4.38509 18.0618 3.05201 18.4203 2.70746 18.2652C2.36052 18.1121 3.42746 17.678 4.52053 16.489Z" fill="white" stroke="#EF2D28" stroke-width="0.0290194"/>
<path d="M9.0332 13.1641C9.02977 13.1839 9.01946 13.2724 9.01087 13.3075C9.01087 13.3563 9.00572 13.3929 9.00056 13.4311C8.98682 13.4646 8.98854 13.4952 8.9473 13.5074C8.92826 13.5379 8.89791 13.5616 8.8614 13.5745C8.82839 13.598 8.79199 13.6175 8.75317 13.6325C8.71256 13.6481 8.66722 13.6514 8.62432 13.6416C8.58652 13.6187 8.55904 13.5943 8.52811 13.5745C8.52124 13.544 8.51437 13.4997 8.50578 13.4692C8.5192 13.5099 8.5267 13.5519 8.52811 13.5943C8.52468 13.6401 8.50578 13.6615 8.48516 13.6981" stroke="#EF2D28" stroke-width="0.0291424"/>
<path d="M8.63568 13.8012L8.62537 13.792C8.65114 13.8149 8.64083 13.8043 8.58242 13.7722C8.54119 13.7539 8.49652 13.7448 8.44326 13.7356H8.29208C8.23367 13.7356 8.19415 13.7432 8.15292 13.7539C8.122 13.7814 8.07733 13.7966 8.04469 13.821C8.01568 13.8405 7.9936 13.867 7.98112 13.8973C7.95191 13.9233 7.93302 13.9629 7.90553 13.9828C7.8935 14.027 7.86945 14.0255 7.85227 14.0591C7.90381 14.0621 7.94332 14.0682 7.97081 14.0972C8.01548 14.117 7.93302 14.0774 7.91584 14.0591C7.88148 14.0499 7.87289 14.0407 7.81963 14.0407C7.77152 14.0255 7.7406 14.0514 7.69078 14.0591C7.66157 14.0743 7.65298 14.0789 7.61519 14.0789" stroke="#EF2D28" stroke-width="0.0291424"/>
<path d="M8.06055 14.2853C8.03821 14.2853 7.93857 14.3021 7.89905 14.2853C7.85439 14.2746 7.83033 14.2548 7.80285 14.2182C7.7891 14.1923 7.80285 14.264 7.80285 14.2945C7.79769 14.3509 7.7788 14.3509 7.74787 14.3891C7.71695 14.4074 7.68431 14.4318 7.65166 14.4471C7.62303 14.4678 7.59045 14.4838 7.55545 14.4944C7.52109 14.5096 7.48502 14.5218 7.45925 14.5417C7.42317 14.5645 7.42489 14.592 7.40427 14.6286C7.40943 14.6744 7.41802 14.7019 7.44722 14.7232C7.46097 14.7553 7.48845 14.7873 7.5125 14.8087C7.53827 14.8544 7.5692 14.8743 7.5022 14.8849C7.4644 14.9002 7.44379 14.888 7.40427 14.8849" stroke="#EF2D28" stroke-width="0.0291424"/>
<path d="M7.36914 14.9494C7.34165 14.9433 7.24888 14.9158 7.20765 14.9021H7.05646C6.99977 14.9067 6.98774 14.9219 6.93964 14.9402C6.907 14.9692 6.88638 14.9891 6.84171 15.0074C6.81938 15.0333 6.77299 15.0791 6.75581 15.1127C6.74167 15.1521 6.73471 15.1933 6.7352 15.2347C6.7352 15.2912 6.75238 15.3018 6.75581 15.3507C6.76784 15.3926 6.79013 15.4317 6.8211 15.4651C6.82625 15.4773 6.82969 15.4804 6.84171 15.4834" stroke="#EF2D28" stroke-width="0.0291424"/>
<path d="M6.86133 15.602C6.85645 15.602 6.84669 15.6261 6.83083 15.6466C6.79546 15.6827 6.7918 15.6851 6.73935 15.6851C6.69056 15.6827 6.69666 15.6658 6.66251 15.655C6.64665 15.6309 6.62714 15.6116 6.60884 15.5791C6.59664 15.5598 6.58566 15.5297 6.57225 15.5117C6.55761 15.4888 6.54053 15.4719 6.5259 15.4514C6.51126 15.4454 6.50638 15.4394 6.48686 15.4358C6.53078 15.443 6.53565 15.4587 6.56371 15.4816C6.57754 15.5033 6.59016 15.5259 6.60152 15.549C6.6064 15.5815 6.61616 15.6068 6.61738 15.6466C6.61738 15.6887 6.61738 15.7176 6.60152 15.7525C6.58322 15.7706 6.57103 15.7899 6.54785 15.8055C6.52857 15.824 6.51102 15.8442 6.4954 15.8658L6.42588 15.9103C6.40392 15.9236 6.37831 15.9368 6.34293 15.9404C6.2978 15.9368 6.28439 15.9248 6.25145 15.9103C6.22218 15.8898 6.20022 15.8766 6.17461 15.8573C6.15359 15.8402 6.13547 15.8199 6.12094 15.7971C6.08069 15.7875 6.05385 15.7911 6.02946 15.8128C6.00877 15.827 5.99097 15.845 5.97701 15.8658C5.96481 15.8718 5.94286 15.8898 5.93066 15.8959" stroke="#EF2D28" stroke-width="0.0290889"/>
<path d="M6.02213 15.9167C6.03426 15.9213 6.07976 15.9528 6.09796 15.9633C6.11009 16.0039 6.1298 16.025 6.13587 16.0686C6.14648 16.1076 6.14648 16.1527 6.14648 16.1993C6.13587 16.2474 6.11615 16.282 6.09796 16.3196C6.06763 16.3406 6.05246 16.3556 6.01303 16.3767C5.97512 16.3827 5.93721 16.3872 5.8902 16.3872C5.85987 16.3962 5.80527 16.4007 5.77646 16.3872C5.734 16.3812 5.70215 16.3646 5.67182 16.3496C5.63694 16.3301 5.61571 16.3105 5.5778 16.2925C5.55808 16.2654 5.52927 16.2399 5.50197 16.2083C5.47771 16.1768 5.46103 16.1587 5.44434 16.1242C5.45951 16.1632 5.47922 16.1993 5.49136 16.2369C5.5141 16.276 5.52624 16.291 5.52927 16.3391C5.54443 16.3782 5.53988 16.4263 5.53988 16.4714C5.53534 16.5014 5.53382 16.5585 5.52017 16.5841V16.6126" stroke="#EF2D28" stroke-width="0.028685"/>
<path d="M4.61967 16.7672V16.7825C4.61967 16.7454 4.61967 16.7629 4.63674 16.837C4.66358 16.8675 4.73432 16.8763 4.78799 16.8632C4.83678 16.8261 4.83678 16.7978 4.9246 16.7825C5.01242 16.7869 5.04658 16.8087 5.09537 16.837C5.14725 16.8543 5.19051 16.8875 5.21734 16.9308C5.23442 16.9766 5.24418 17.0093 5.18563 17.0268C5.13463 17.0573 5.07596 17.076 5.01486 17.0813C4.94656 17.0813 4.89533 17.0747 4.86362 17.1096C4.81483 17.1532 4.8197 17.1794 4.8197 17.2579C4.80263 17.2819 4.80019 17.3539 4.78799 17.3822C4.746 17.402 4.69874 17.4111 4.65138 17.4084C4.6343 17.3648 4.61723 17.2906 4.60503 17.2448C4.59283 17.1969 4.59039 17.1271 4.55868 17.0944C4.53071 17.0568 4.49513 17.0243 4.45378 16.9984C4.42911 16.9734 4.39694 16.9552 4.36108 16.9461C4.42207 16.9722 4.42938 17.0028 4.4367 17.0682C4.38547 17.09 4.37084 17.1074 4.28545 17.1096C4.20007 17.1031 4.18056 17.0835 4.14884 17.0398C4.14152 17.1096 4.11713 17.1314 4.10005 17.1925C4.07078 17.2318 4.05858 17.2732 4.02687 17.3277C4.03906 17.3931 4.06834 17.3953 4.07078 17.476C4.09029 17.5305 4.09029 17.5807 4.13177 17.6134C4.15128 17.6352 4.16592 17.6374 4.20983 17.6396C4.12201 17.6396 4.06834 17.6309 4.00979 17.6003C3.96588 17.5742 3.93173 17.5436 3.88782 17.5174C3.83279 17.4804 3.77084 17.4523 3.70485 17.4346C3.63411 17.4346 3.58288 17.428 3.5536 17.4629C3.50969 17.4913 3.48042 17.5393 3.4609 17.6003C3.44871 17.6701 3.44139 17.7181 3.47798 17.7639C3.50237 17.8162 3.50969 17.8359 3.47798 17.8991C3.44139 17.9427 3.39016 17.9493 3.30721 17.9667C3.25111 17.9645 3.195 17.9536 3.15597 17.9405" stroke="#EF2D28" stroke-width="0.0299854"/>
<path fill-rule="evenodd" clip-rule="evenodd" d="M12.8296 9.6346C14.6899 6.4146 15.9237 3.67073 15.5873 3.5154C15.2475 3.35848 13.4623 5.84775 11.602 9.06776L12.8296 9.6346Z" fill="white" stroke="#EF2D28" stroke-width="0.039098"/>
<path fill-rule="evenodd" clip-rule="evenodd" d="M12.7064 9.58003C14.5011 6.47365 15.737 3.84771 15.4679 3.72345C15.196 3.59791 13.5189 6.02017 11.7243 9.12655" fill="white"/>
<path d="M12.7064 9.58003C14.5011 6.47365 15.737 3.84771 15.4679 3.72345C15.196 3.59791 13.5189 6.02017 11.7243 9.12655" stroke="#EF2D28" stroke-width="0.034348"/>
<path fill-rule="evenodd" clip-rule="evenodd" d="M12.3987 7.95959C12.1802 8.32261 11.9487 8.73854 11.7248 9.12608L12.7097 9.58083C12.9336 9.1933 13.179 8.78377 13.3836 8.41435L12.3987 7.95959Z" fill="white" stroke="#EF2D28" stroke-width="0.0389827"/>
<path fill-rule="evenodd" clip-rule="evenodd" d="M12.4844 8.08513C12.2647 8.45009 12.1138 8.72651 11.8888 9.11598L12.624 9.45545C12.8479 9.06791 13.0149 8.79403 13.2196 8.4246L12.4844 8.08513Z" fill="white" stroke="#EF2D28" stroke-width="0.0389827"/>
<path fill-rule="evenodd" clip-rule="evenodd" d="M13.0192 8.50599L12.5268 8.27861L12.0902 9.03431L12.5826 9.26169L13.0192 8.50599ZM13.0192 8.50599L12.0902 9.03431L13.0192 8.50599ZM12.5826 9.26169L12.5268 8.27861L12.5826 9.26169ZM15.2402 4.66162L14.7478 4.43424L15.2402 4.66162Z" fill="white"/>
<path d="M13.0192 8.50599L12.5268 8.27861M13.0192 8.50599L12.5826 9.26169M13.0192 8.50599L12.0902 9.03431M12.5268 8.27861L12.0902 9.03431M12.5268 8.27861L12.5826 9.26169M12.0902 9.03431L12.5826 9.26169M15.2402 4.66162L14.7478 4.43424" stroke="#EF2D28" stroke-width="0.0389827"/>
<path d="M15.2373 4.30421C15.1617 4.32333 15.0865 4.28489 15.0694 4.21834C15.0523 4.15179 15.0998 4.08233 15.1755 4.0632C15.2512 4.04407 15.3263 4.08252 15.3434 4.14907C15.3605 4.21562 15.313 4.28508 15.2373 4.30421Z" fill="#EF0000" stroke="#EF2D28" stroke-width="0.0505112"/>
<path fill-rule="evenodd" clip-rule="evenodd" d="M12.1044 13.2632C16.2991 17.3773 18.0885 17.897 17.2472 18.229C16.4059 18.5611 13.7054 16.4373 10.8959 13.6189C8.08646 10.8005 6.36555 8.2901 7.20685 7.95803C8.04815 7.62596 7.64169 8.89117 12.1044 13.2632Z" fill="white" stroke="#EF2D28" stroke-width="0.0514699"/>
<path fill-rule="evenodd" clip-rule="evenodd" d="M15.637 16.25L14.166 16.636C15.5492 17.9511 17.1056 18.4898 17.5374 18.2586C17.9692 18.0274 16.7592 17.4866 15.6346 16.2522L15.637 16.25Z" fill="white" stroke="#EF2D28" stroke-width="0.0299854"/>
<path fill-rule="evenodd" clip-rule="evenodd" d="M15.6299 16.4141L14.418 16.7223C15.7653 17.9868 17.0984 18.3454 17.4429 18.1902C17.7899 18.0371 16.7229 17.6031 15.6299 16.4141Z" fill="white" stroke="#EF2D28" stroke-width="0.0290194"/>
<path d="M11.1289 13.0889C11.1323 13.1087 11.1427 13.1972 11.1512 13.2323C11.1512 13.2811 11.1564 13.3177 11.1615 13.3559C11.1753 13.3894 11.1736 13.42 11.2148 13.4322C11.2338 13.4627 11.2642 13.4864 11.3007 13.4993C11.3337 13.5228 11.3701 13.5423 11.4089 13.5573C11.4496 13.573 11.4949 13.5762 11.5378 13.5664C11.5756 13.5435 11.6031 13.5191 11.634 13.4993C11.6409 13.4688 11.6477 13.4245 11.6563 13.394C11.6429 13.4347 11.6354 13.4768 11.634 13.5191C11.6374 13.5649 11.6563 13.5863 11.6769 13.6229" stroke="#EF2D28" stroke-width="0.0291424"/>
<path d="M11.5264 13.7263L11.5367 13.7171C11.511 13.74 11.5213 13.7293 11.5797 13.6973C11.6209 13.679 11.6656 13.6698 11.7188 13.6606H11.87C11.9284 13.6606 11.968 13.6683 12.0092 13.679C12.0401 13.7064 12.0848 13.7217 12.1174 13.7461C12.1464 13.7656 12.1685 13.792 12.181 13.8224C12.2102 13.8483 12.2291 13.888 12.2566 13.9078C12.2686 13.9521 12.2927 13.9505 12.3098 13.9841C12.2583 13.9872 12.2188 13.9933 12.1913 14.0222C12.1466 14.0421 12.2291 14.0024 12.2463 13.9841C12.2806 13.9749 12.2892 13.9658 12.3425 13.9658C12.3906 13.9505 12.4215 13.9765 12.4713 13.9841C12.5005 13.9994 12.5091 14.0039 12.5469 14.0039" stroke="#EF2D28" stroke-width="0.0291424"/>
<path d="M12.1016 14.1979C12.1239 14.1979 12.2235 14.2147 12.2631 14.1979C12.3077 14.1872 12.3318 14.1674 12.3593 14.1308C12.373 14.1049 12.3593 14.1766 12.3593 14.2071C12.3644 14.2635 12.3833 14.2635 12.4142 14.3017C12.4452 14.32 12.4778 14.3444 12.5104 14.3597C12.5391 14.3804 12.5717 14.3964 12.6067 14.407C12.641 14.4222 12.6771 14.4344 12.7029 14.4543C12.7389 14.4771 12.7372 14.5046 12.7578 14.5412C12.7527 14.587 12.7441 14.6145 12.7149 14.6358C12.7011 14.6679 12.6737 14.6999 12.6496 14.7213C12.6238 14.767 12.5929 14.7869 12.6599 14.7975C12.6977 14.8128 12.7183 14.8006 12.7578 14.7975" stroke="#EF2D28" stroke-width="0.0291424"/>
<path d="M12.7812 14.8744C12.8087 14.8683 12.9015 14.8409 12.9427 14.8271H13.0939C13.1506 14.8317 13.1626 14.847 13.2107 14.8653C13.2434 14.8943 13.264 14.9141 13.3087 14.9324C13.331 14.9584 13.3774 15.0041 13.3946 15.0377C13.4087 15.0772 13.4157 15.1184 13.4152 15.1598C13.4152 15.2162 13.398 15.2269 13.3946 15.2757C13.3825 15.3177 13.3603 15.3567 13.3293 15.3902C13.3241 15.4024 13.3207 15.4054 13.3087 15.4085" stroke="#EF2D28" stroke-width="0.0291424"/>
<path d="M13.2891 15.527C13.2939 15.527 13.3037 15.5511 13.3196 15.5716C13.3549 15.6077 13.3586 15.6101 13.411 15.6101C13.4598 15.6077 13.4537 15.5909 13.4879 15.58C13.5037 15.5559 13.5233 15.5367 13.5416 15.5042C13.5537 15.4849 13.5647 15.4548 13.5781 15.4367C13.5928 15.4138 13.6099 15.397 13.6245 15.3765C13.6391 15.3705 13.644 15.3645 13.6635 15.3608C13.6196 15.3681 13.6147 15.3837 13.5867 15.4066C13.5729 15.4284 13.5602 15.4509 13.5489 15.4741C13.544 15.5066 13.5342 15.5319 13.533 15.5716C13.533 15.6138 13.533 15.6427 13.5489 15.6776C13.5672 15.6957 13.5794 15.7149 13.6025 15.7306C13.6218 15.7491 13.6394 15.7692 13.655 15.7908L13.7245 15.8354C13.7465 15.8486 13.7721 15.8619 13.8075 15.8655C13.8526 15.8619 13.866 15.8498 13.8989 15.8354C13.9282 15.8149 13.9502 15.8016 13.9758 15.7824C13.9968 15.7652 14.0149 15.7449 14.0295 15.7222C14.0697 15.7125 14.0965 15.7161 14.1209 15.7378C14.1416 15.7521 14.1594 15.77 14.1734 15.7908C14.1856 15.7968 14.2075 15.8149 14.2197 15.8209" stroke="#EF2D28" stroke-width="0.0290889"/>
<path d="M14.14 15.8418C14.1278 15.8463 14.0824 15.8779 14.0642 15.8884C14.052 15.929 14.0323 15.95 14.0262 15.9936C14.0156 16.0327 14.0156 16.0778 14.0156 16.1244C14.0262 16.1725 14.046 16.207 14.0642 16.2446C14.0945 16.2656 14.1096 16.2807 14.1491 16.3017C14.187 16.3077 14.2249 16.3122 14.2719 16.3122C14.3022 16.3213 14.3568 16.3258 14.3857 16.3122C14.4281 16.3062 14.46 16.2897 14.4903 16.2747C14.5252 16.2551 14.5464 16.2356 14.5843 16.2175C14.604 16.1905 14.6328 16.1649 14.6601 16.1334C14.6844 16.1018 14.7011 16.0838 14.7178 16.0492C14.7026 16.0883 14.6829 16.1244 14.6708 16.1619C14.648 16.201 14.6359 16.216 14.6328 16.2641C14.6177 16.3032 14.6222 16.3513 14.6222 16.3964C14.6268 16.4265 14.6283 16.4836 14.6419 16.5091V16.5377" stroke="#EF2D28" stroke-width="0.028685"/>
<path d="M15.5307 16.6798V16.6951C15.5307 16.658 15.5307 16.6755 15.5136 16.7496C15.4868 16.7801 15.4161 16.7889 15.3624 16.7758C15.3136 16.7387 15.3136 16.7104 15.2258 16.6951C15.138 16.6995 15.1038 16.7213 15.055 16.7496C15.0031 16.7669 14.9599 16.8001 14.933 16.8434C14.916 16.8892 14.9062 16.9219 14.9648 16.9393C15.0158 16.9699 15.0744 16.9886 15.1355 16.9939C15.2038 16.9939 15.2551 16.9873 15.2868 17.0222C15.3356 17.0658 15.3307 17.092 15.3307 17.1705C15.3478 17.1945 15.3502 17.2665 15.3624 17.2948C15.4044 17.3146 15.4517 17.3237 15.499 17.321C15.5161 17.2774 15.5332 17.2032 15.5454 17.1574C15.5576 17.1095 15.56 17.0397 15.5917 17.007C15.6197 16.9694 15.6553 16.9369 15.6966 16.911C15.7213 16.886 15.7535 16.8678 15.7893 16.8587C15.7283 16.8848 15.721 16.9154 15.7137 16.9808C15.7649 17.0026 15.7796 17.02 15.8649 17.0222C15.9503 17.0157 15.9698 16.9961 16.0015 16.9524C16.0089 17.0222 16.0333 17.044 16.0503 17.1051C16.0796 17.1444 16.0918 17.1858 16.1235 17.2403C16.1113 17.3057 16.0821 17.3079 16.0796 17.3886C16.0601 17.4431 16.0601 17.4933 16.0186 17.526C15.9991 17.5478 15.9845 17.55 15.9406 17.5522C16.0284 17.5522 16.0821 17.5435 16.1406 17.5129C16.1845 17.4868 16.2187 17.4562 16.2626 17.43C16.3176 17.393 16.3796 17.3649 16.4455 17.3472C16.5163 17.3472 16.5675 17.3406 16.5968 17.3755C16.6407 17.4039 16.67 17.4519 16.6895 17.5129C16.7017 17.5827 16.709 17.6307 16.6724 17.6765C16.648 17.7288 16.6407 17.7485 16.6724 17.8117C16.709 17.8553 16.7602 17.8619 16.8432 17.8793C16.8993 17.8771 16.9554 17.8662 16.9944 17.8531" stroke="#EF2D28" stroke-width="0.0299854"/>
<path fill-rule="evenodd" clip-rule="evenodd" d="M7.32076 9.5472C5.46044 6.32719 4.22666 3.58332 4.56305 3.428C4.90292 3.27108 6.68811 5.76035 8.54843 8.98035L7.32076 9.5472Z" fill="white" stroke="#EF2D28" stroke-width="0.039098"/>
<path fill-rule="evenodd" clip-rule="evenodd" d="M7.44396 9.49263C5.6493 6.38625 4.41336 3.76031 4.68248 3.63605C4.95438 3.51051 6.63145 5.93277 8.42612 9.03914" fill="white"/>
<path d="M7.44396 9.49263C5.6493 6.38625 4.41336 3.76031 4.68248 3.63605C4.95438 3.51051 6.63145 5.93277 8.42612 9.03914" stroke="#EF2D28" stroke-width="0.034348"/>
<path fill-rule="evenodd" clip-rule="evenodd" d="M7.75167 7.87219C7.97018 8.23521 8.20169 8.65114 8.42558 9.03867L7.44067 9.49343C7.21678 9.1059 6.9714 8.69637 6.76675 8.32695L7.75167 7.87219Z" fill="white" stroke="#EF2D28" stroke-width="0.0389827"/>
<path fill-rule="evenodd" clip-rule="evenodd" d="M7.66603 7.99773C7.88567 8.36269 8.03657 8.63911 8.26159 9.02858L7.52637 9.36805C7.30248 8.98051 7.13546 8.70662 6.93082 8.3372L7.66603 7.99773Z" fill="white" stroke="#EF2D28" stroke-width="0.0389827"/>
<path fill-rule="evenodd" clip-rule="evenodd" d="M7.13117 8.41859L7.62362 8.19121L8.06021 8.9469L7.56776 9.17428L7.13117 8.41859ZM7.13117 8.41859L8.06021 8.9469L7.13117 8.41859ZM7.56776 9.17428L7.62362 8.19121L7.56776 9.17428ZM4.91016 4.57422L5.40261 4.34684L4.91016 4.57422Z" fill="white"/>
<path d="M7.13117 8.41859L7.62362 8.19121M7.13117 8.41859L7.56776 9.17428M7.13117 8.41859L8.06021 8.9469M7.62362 8.19121L8.06021 8.9469M7.62362 8.19121L7.56776 9.17428M8.06021 8.9469L7.56776 9.17428M4.91016 4.57422L5.40261 4.34684" stroke="#EF2D28" stroke-width="0.0389827"/>
<path d="M4.91305 4.2168C4.98872 4.23593 5.0639 4.19749 5.08098 4.13094C5.09806 4.06438 5.05056 3.99493 4.9749 3.9758C4.89923 3.95667 4.82405 3.99511 4.80697 4.06167C4.78989 4.12822 4.83739 4.19768 4.91305 4.2168Z" fill="#EF0000" stroke="#EF2D28" stroke-width="0.0505112"/>
<path fill-rule="evenodd" clip-rule="evenodd" d="M8.80862 7.90601C8.80862 10.6103 8.82488 11.6288 8.62648 11.7683C8.43783 11.9188 3.19141 11.7683 3.19141 12.5404C3.19141 13.3124 7.51084 14.0888 8.80862 14.0888C10.539 14.0888 11.4009 13.3146 11.4009 11.7683V7.90819H8.80862V7.90601Z" fill="white" stroke="#EF2D28" stroke-width="0.0355115"/>
<path fill-rule="evenodd" clip-rule="evenodd" d="M8.81055 8.67798V9.06399C9.66814 9.19254 10.5437 9.19254 11.4013 9.06399V8.67798C10.5437 8.80653 9.66814 8.80653 8.81055 8.67798Z" fill="white" stroke="#EF2D28" stroke-width="0.0307542"/>
<path fill-rule="evenodd" clip-rule="evenodd" d="M8.81055 7.90576V8.29177C9.66814 8.42033 10.5437 8.42033 11.4013 8.29177V7.90576C10.5437 8.03432 9.66814 8.03432 8.81055 7.90576Z" fill="white" stroke="#EF2D28" stroke-width="0.0307542"/>
<path fill-rule="evenodd" clip-rule="evenodd" d="M8.81055 8.29199V8.678C9.66814 8.80656 10.5437 8.80656 11.4013 8.678V8.29199C10.5437 8.42055 9.66814 8.42055 8.81055 8.29199Z" fill="white" stroke="#EF2D28" stroke-width="0.0307542"/>
<path fill-rule="evenodd" clip-rule="evenodd" d="M8.81055 9.06396V9.44998C9.66814 9.57853 10.5437 9.57853 11.4013 9.44998V9.06396C10.5437 9.19252 9.66814 9.19252 8.81055 9.06396Z" fill="white" stroke="#EF2D28" stroke-width="0.0307542"/>
<path d="M8.92702 8.59388C8.99242 8.59388 9.04544 8.55652 9.04544 8.51044C9.04544 8.46436 8.99242 8.427 8.92702 8.427C8.86161 8.427 8.80859 8.46436 8.80859 8.51044C8.80859 8.55652 8.86161 8.59388 8.92702 8.59388Z" fill="white" stroke="#EF2D28" stroke-width="0.0290724"/>
<path d="M9.39772 8.63538C9.46313 8.63538 9.51615 8.59802 9.51615 8.55194C9.51615 8.50586 9.46313 8.46851 9.39772 8.46851C9.33232 8.46851 9.2793 8.50586 9.2793 8.55194C9.2793 8.59802 9.33232 8.63538 9.39772 8.63538Z" fill="white" stroke="#EF2D28" stroke-width="0.0290724"/>
<path d="M9.87038 8.67786C9.93578 8.67786 9.9888 8.64051 9.9888 8.59442C9.9888 8.54834 9.93578 8.51099 9.87038 8.51099C9.80497 8.51099 9.75195 8.54834 9.75195 8.59442C9.75195 8.64051 9.80497 8.67786 9.87038 8.67786Z" fill="white" stroke="#EF2D28" stroke-width="0.0290724"/>
<path d="M10.3411 8.67786C10.4065 8.67786 10.4595 8.64051 10.4595 8.59442C10.4595 8.54834 10.4065 8.51099 10.3411 8.51099C10.2757 8.51099 10.2227 8.54834 10.2227 8.59442C10.2227 8.64051 10.2757 8.67786 10.3411 8.67786Z" fill="white" stroke="#EF2D28" stroke-width="0.0290724"/>
<path d="M10.8137 8.63538C10.8791 8.63538 10.9322 8.59802 10.9322 8.55194C10.9322 8.50586 10.8791 8.46851 10.8137 8.46851C10.7483 8.46851 10.6953 8.50586 10.6953 8.55194C10.6953 8.59802 10.7483 8.63538 10.8137 8.63538Z" fill="white" stroke="#EF2D28" stroke-width="0.0290724"/>
<path d="M11.2844 8.59388C11.3498 8.59388 11.4029 8.55652 11.4029 8.51044C11.4029 8.46436 11.3498 8.427 11.2844 8.427C11.219 8.427 11.166 8.46436 11.166 8.51044C11.166 8.55652 11.219 8.59388 11.2844 8.59388Z" fill="white" stroke="#EF2D28" stroke-width="0.0290724"/>
<path fill-rule="evenodd" clip-rule="evenodd" d="M8.81034 9.83594L11.4011 11.923L8.81034 9.83594ZM9.06893 9.83594L11.4035 11.6897L9.06893 9.83594ZM9.4129 9.91445L11.4035 11.4607L9.4129 9.91445ZM9.67148 9.91227L11.4035 11.2273L9.67148 9.91227ZM9.93251 9.91445L11.4011 10.9962L9.93251 9.91445ZM10.1911 9.91445L11.4011 10.765L10.1911 9.91445ZM10.4497 9.91445L11.4011 10.5316L10.4497 9.91445ZM10.7132 9.91445L11.406 10.3768L10.7132 9.91445ZM10.9693 9.91445L11.4035 10.2241L10.9693 9.91445ZM11.2303 9.91445L11.4011 10.0671L11.2303 9.91445ZM8.81034 10.0671L11.4011 12.1564L8.81034 10.0671ZM11.4011 9.83812L8.54688 12.1542L11.4011 9.83812ZM11.1401 9.83594L8.6347 11.8467L11.1401 9.83594ZM10.7961 9.91445L8.8079 11.4585L10.7961 9.91445ZM10.5351 9.91445L8.8079 11.2273L10.5351 9.91445ZM10.2789 9.91445L8.81034 10.9962L10.2789 9.91445ZM10.0203 9.91445L8.81034 10.765L10.0203 9.91445ZM9.76175 9.91445L8.81034 10.5316L9.76175 9.91445ZM9.49828 9.91445L8.8079 10.3768L9.49828 9.91445ZM9.23969 9.91445L8.8079 10.2241L9.23969 9.91445ZM8.97867 9.91445L8.8079 10.0671L8.97867 9.91445ZM11.4011 10.0671L8.54688 12.3897L11.4011 10.0671ZM11.4011 10.3026L8.54688 12.6187L11.4011 10.3026ZM11.4011 10.5316L8.54688 12.8499L11.4011 10.5316ZM11.4011 10.7628L8.54688 13.0854L11.4011 10.7628ZM11.4011 10.9983L8.54688 13.3144L11.4011 10.9983ZM11.4011 11.2273L8.54688 13.5456L11.4011 11.2273ZM11.4011 11.4585L8.54688 13.7768L11.4011 11.4585ZM11.4011 11.6919L8.54688 14.0101L11.4011 11.6919ZM11.4011 11.923L8.72008 14.0865L11.4011 11.923ZM11.4011 12.1542L8.98111 14.0865L11.4011 12.1542ZM11.3133 12.4639L9.41046 14.0101L11.3133 12.4639ZM11.2303 12.7714L9.67392 14.008L11.2303 12.7714ZM11.0571 13.1574L10.2765 13.7746L11.0571 13.1574ZM8.81034 10.2983L11.3157 12.3069L8.81034 10.2983ZM8.81034 10.5295L11.3157 12.5402L8.81034 10.5295ZM8.81034 10.765L11.2303 12.6951L8.81034 10.765ZM8.81034 10.994L11.2303 12.9284L8.81034 10.994ZM8.81034 11.2273L11.1425 13.0811L8.81034 11.2273ZM8.72252 11.3822L11.0571 13.2359L8.72252 11.3822ZM8.72252 11.6155L10.8839 13.3166L8.72252 11.6155ZM8.63714 11.7682L10.7985 13.4693L8.63714 11.7682ZM8.54688 11.9209L10.6205 13.5434L8.54688 11.9209ZM8.54688 12.152L10.5351 13.6983L8.54688 12.152ZM8.54688 12.3854L10.2789 13.7746L8.54688 12.3854Z" fill="white"/>
<path d="M8.81034 9.83594L11.4011 11.923L8.72008 14.0865M9.06893 9.83594L11.4035 11.6897M9.4129 9.91445L11.4035 11.4607M9.67148 9.91227L11.4035 11.2273M9.93251 9.91445L11.4011 10.9962M10.1911 9.91445L11.4011 10.765M10.4497 9.91445L11.4011 10.5316L8.54688 12.8499M10.7132 9.91445L11.406 10.3768M10.9693 9.91445L11.4035 10.2241M11.2303 9.91445L11.4011 10.0671L8.54688 12.3897M8.81034 10.0671L11.4011 12.1564M11.4011 9.83812L8.54688 12.1542M11.1401 9.83594L8.6347 11.8467M10.7961 9.91445L8.8079 11.4585M10.5351 9.91445L8.8079 11.2273M10.2789 9.91445L8.81034 10.9962M10.0203 9.91445L8.81034 10.765L11.2303 12.6951M9.76175 9.91445L8.81034 10.5316M9.49828 9.91445L8.8079 10.3768M9.23969 9.91445L8.8079 10.2241M8.97867 9.91445L8.8079 10.0671M11.4011 10.3026L8.54688 12.6187M11.4011 10.7628L8.54688 13.0854M11.4011 10.9983L8.54688 13.3144M11.4011 11.2273L8.54688 13.5456M11.4011 11.4585L8.54688 13.7768M11.4011 11.6919L8.54688 14.0101M11.4011 12.1542L8.98111 14.0865M11.3133 12.4639L9.41046 14.0101M11.2303 12.7714L9.67392 14.008M11.0571 13.1574L10.2765 13.7746M8.81034 10.2983L11.3157 12.3069M8.81034 10.5295L11.3157 12.5402M8.81034 10.994L11.2303 12.9284M8.81034 11.2273L11.1425 13.0811M8.72252 11.3822L11.0571 13.2359M8.72252 11.6155L10.8839 13.3166M8.63714 11.7682L10.7985 13.4693M8.54688 11.9209L10.6205 13.5434M8.54688 12.152L10.5351 13.6983M8.54688 12.3854L10.2789 13.7746" stroke="#EF2D28" stroke-width="0.0307542"/>
<path fill-rule="evenodd" clip-rule="evenodd" d="M8.81055 9.45215V9.83816C9.66814 9.96671 10.5437 9.96671 11.4013 9.83816V9.45215C10.5437 9.5807 9.66814 9.5807 8.81055 9.45215Z" fill="white" stroke="#EF2D28" stroke-width="0.0307542"/>
<path fill-rule="evenodd" clip-rule="evenodd" d="M8.54931 12.6189L10.1057 13.8555L8.54931 12.6189ZM8.54931 12.8523L9.93251 13.9318L8.54931 12.8523ZM8.54931 13.0812L9.75931 14.0103L8.54931 13.0812ZM8.54931 13.3124L9.41534 14.0103L8.54931 13.3124ZM8.54688 13.5458L9.23969 14.0866L8.54688 13.5458ZM8.54688 13.7769L8.97867 14.0866L8.54688 13.7769Z" fill="white"/>
<path d="M8.54931 12.6189L10.1057 13.8555M8.54931 12.8523L9.93251 13.9318M8.54931 13.0812L9.75931 14.0103M8.54931 13.3124L9.41534 14.0103M8.54688 13.5458L9.23969 14.0866M8.54688 13.7769L8.97867 14.0866" stroke="#EF2D28" stroke-width="0.0307542"/>
<path d="M8.92702 9.75428C8.99242 9.75428 9.04544 9.71692 9.04544 9.67084C9.04544 9.62476 8.99242 9.5874 8.92702 9.5874C8.86161 9.5874 8.80859 9.62476 8.80859 9.67084C8.80859 9.71692 8.86161 9.75428 8.92702 9.75428Z" fill="white" stroke="#EF2D28" stroke-width="0.0290724"/>
<path d="M9.39772 9.79578C9.46313 9.79578 9.51615 9.75843 9.51615 9.71234C9.51615 9.66626 9.46313 9.62891 9.39772 9.62891C9.33232 9.62891 9.2793 9.66626 9.2793 9.71234C9.2793 9.75843 9.33232 9.79578 9.39772 9.79578Z" fill="white" stroke="#EF2D28" stroke-width="0.0290724"/>
<path d="M9.87038 9.83606C9.93578 9.83606 9.9888 9.79871 9.9888 9.75263C9.9888 9.70655 9.93578 9.66919 9.87038 9.66919C9.80497 9.66919 9.75195 9.70655 9.75195 9.75263C9.75195 9.79871 9.80497 9.83606 9.87038 9.83606Z" fill="white" stroke="#EF2D28" stroke-width="0.0290724"/>
<path d="M10.3411 9.83606C10.4065 9.83606 10.4595 9.79871 10.4595 9.75263C10.4595 9.70655 10.4065 9.66919 10.3411 9.66919C10.2757 9.66919 10.2227 9.70655 10.2227 9.75263C10.2227 9.79871 10.2757 9.83606 10.3411 9.83606Z" fill="white" stroke="#EF2D28" stroke-width="0.0290724"/>
<path d="M10.8137 9.79578C10.8791 9.79578 10.9322 9.75843 10.9322 9.71234C10.9322 9.66626 10.8791 9.62891 10.8137 9.62891C10.7483 9.62891 10.6953 9.66626 10.6953 9.71234C10.6953 9.75843 10.7483 9.79578 10.8137 9.79578Z" fill="white" stroke="#EF2D28" stroke-width="0.0290724"/>
<path d="M11.2844 9.75428C11.3498 9.75428 11.4029 9.71692 11.4029 9.67084C11.4029 9.62476 11.3498 9.5874 11.2844 9.5874C11.219 9.5874 11.166 9.62476 11.166 9.67084C11.166 9.71692 11.219 9.75428 11.2844 9.75428Z" fill="white" stroke="#EF2D28" stroke-width="0.0290724"/>
<path fill-rule="evenodd" clip-rule="evenodd" d="M5.09237 13.4695L8.20273 11.8469L5.09237 13.4695ZM4.91916 13.391L7.85876 11.8469L4.91916 13.391ZM4.83378 13.2361L7.51235 11.8469L4.83378 13.2361ZM4.74596 13.0835L7.08056 11.8469L4.74596 13.0835ZM4.57031 12.9286L6.73171 11.8469L4.57031 12.9286ZM4.65813 12.6975L6.12671 11.9233L4.65813 12.6975ZM4.57031 12.5404L5.69248 11.9233L4.57031 12.5404ZM4.57031 12.3093L5.35095 11.9233L4.57031 12.3093ZM5.35095 13.5458L8.28811 11.9996L5.35095 13.5458ZM5.61198 13.6222L8.37593 12.1544L5.61198 13.6222ZM5.87057 13.7007L8.46375 12.3093L5.87057 13.7007ZM6.12915 13.777L8.29055 12.619L6.12915 13.777ZM6.47312 13.777L8.37593 12.7738L6.47312 13.777ZM6.73171 13.8555L8.37349 13.005L6.73171 13.8555ZM6.9903 13.9318L8.28811 13.2361L6.9903 13.9318ZM7.33671 13.934L8.37349 13.391L7.33671 13.934ZM7.68311 14.0104L8.37593 13.6222L7.68311 14.0104ZM8.0344 14.0104L8.46619 13.7792L8.0344 14.0104Z" fill="white"/>
<path d="M5.09237 13.4695L8.20273 11.8469M4.91916 13.391L7.85876 11.8469M4.83378 13.2361L7.51235 11.8469M4.74596 13.0835L7.08056 11.8469M4.57031 12.9286L6.73171 11.8469M4.65813 12.6975L6.12671 11.9233M4.57031 12.5404L5.69248 11.9233M4.57031 12.3093L5.35095 11.9233M5.35095 13.5458L8.28811 11.9996M5.61198 13.6222L8.37593 12.1544M5.87057 13.7007L8.46375 12.3093M6.12915 13.777L8.29055 12.619M6.47312 13.777L8.37593 12.7738M6.73171 13.8555L8.37349 13.005M6.9903 13.9318L8.28811 13.2361M7.33671 13.934L8.37349 13.391M7.68311 14.0104L8.37593 13.6222M8.0344 14.0104L8.46619 13.7792" stroke="#EF2D28" stroke-width="0.0307542"/>
<path fill-rule="evenodd" clip-rule="evenodd" d="M8.63477 11.7705H8.20298C8.05918 12.5372 8.05918 13.3199 8.20298 14.0866H8.63477C8.49097 13.3199 8.49097 12.5372 8.63477 11.7705Z" fill="white" stroke="#EF2D28" stroke-width="0.0307542"/>
<path fill-rule="evenodd" clip-rule="evenodd" d="M3.53516 12.8499L4.57194 12.0779L3.53516 12.8499ZM3.53516 12.3091L4.57194 13.2359L3.53516 12.3091Z" fill="white"/>
<path d="M3.53516 12.8499L4.57194 12.0779M3.53516 12.3091L4.57194 13.2359" stroke="#EF2D28" stroke-width="0.0307542"/>
<path fill-rule="evenodd" clip-rule="evenodd" d="M5.0918 11.9216L4.57267 11.999C4.45753 12.4893 4.45753 12.9009 4.57267 13.3912L5.0918 13.5446C4.97665 13.0556 4.97665 12.412 5.0918 11.9216Z" fill="white" stroke="#EF2D28" stroke-width="0.0218909"/>
<path fill-rule="evenodd" clip-rule="evenodd" d="M11.4001 8.05853V7.66816C11.009 7.67252 10.7495 7.43916 10.7495 7.20581L9.45555 7.20799C9.45555 7.43916 9.19969 7.67252 8.80859 7.67252V8.05853H11.4001Z" fill="white" stroke="#EF2D28" stroke-width="0.0376447"/>
<path fill-rule="evenodd" clip-rule="evenodd" d="M9.54688 6.74579H10.6593V7.21032H9.54688V6.74579ZM9.64202 6.28126H10.5666V6.74579H9.63958L9.64202 6.28126ZM9.64202 5.81892H10.5666V6.28126H9.63958L9.64202 5.81892ZM9.73472 5.19955H10.4739V5.81892H9.73472V5.19955ZM9.703 4.65869H10.508V5.19955H9.703V4.65869Z" fill="white"/>
<path d="M10.5666 6.28126H9.64202L9.63958 6.74579H10.5666V6.28126ZM10.5666 6.28126V5.81892H9.64202L9.63958 6.28126H10.5666ZM9.54688 6.74579H10.6593V7.21032H9.54688V6.74579ZM9.73472 5.19955H10.4739V5.81892H9.73472V5.19955ZM9.703 4.65869H10.508V5.19955H9.703V4.65869Z" stroke="#EF2D28" stroke-width="0.0322919"/>
<path d="M10.1475 4.89203C10.7392 4.89203 11.2188 4.56298 11.2188 4.15707C11.2188 3.75117 10.7392 3.42212 10.1475 3.42212C9.55581 3.42212 9.07617 3.75117 9.07617 4.15707C9.07617 4.56298 9.55581 4.89203 10.1475 4.89203Z" fill="white" stroke="#EF2D28" stroke-width="0.0312621"/>
<path fill-rule="evenodd" clip-rule="evenodd" d="M10.6828 4.11783C10.6828 4.32066 10.95 4.65869 10.95 4.65869C10.7559 4.79391 10.4408 4.89205 10.1459 4.89205C9.85099 4.89205 9.48296 4.83534 9.3418 4.65869C9.3418 4.65869 9.60899 4.32284 9.60899 4.12002C9.60899 3.91719 9.3418 3.65549 9.3418 3.65549C9.57576 3.50675 9.8581 3.42584 10.1484 3.42432C10.4408 3.42432 10.7534 3.52246 10.95 3.65549C10.95 3.65549 10.6828 3.91719 10.6828 4.12002V4.11783Z" fill="white" stroke="#EF2D28" stroke-width="0.0312621"/>
<path fill-rule="evenodd" clip-rule="evenodd" d="M10.5046 4.11783C10.5046 4.32066 10.7718 4.7372 10.7718 4.7372C10.5777 4.86806 10.4441 4.88986 10.1466 4.88986C9.84918 4.88986 9.66265 4.91385 9.52148 4.7372C9.52148 4.7372 9.78868 4.32284 9.78868 4.11783C9.78868 3.91283 9.52148 3.57698 9.52148 3.57698C9.71558 3.44613 9.84918 3.42432 10.1466 3.42432C10.4416 3.42432 10.5777 3.44613 10.7718 3.57698C10.7718 3.57698 10.5046 3.91501 10.5046 4.11783Z" fill="white" stroke="#EF2D28" stroke-width="0.0312621"/>
<path d="M9.07579 4.42524C9.22336 4.42524 9.34299 4.32174 9.34299 4.19406C9.34299 4.06639 9.22336 3.96289 9.07579 3.96289C8.92822 3.96289 8.80859 4.06639 8.80859 4.19406C8.80859 4.32174 8.92822 4.42524 9.07579 4.42524Z" fill="white" stroke="#EF2D28" stroke-width="0.0312621"/>
<path d="M11.2203 4.42524C11.3679 4.42524 11.4875 4.32174 11.4875 4.19406C11.4875 4.06639 11.3679 3.96289 11.2203 3.96289C11.0728 3.96289 10.9531 4.06639 10.9531 4.19406C10.9531 4.32174 11.0728 4.42524 11.2203 4.42524Z" fill="white" stroke="#EF2D28" stroke-width="0.0312621"/>
<path d="M10.1481 4.42524C10.2956 4.42524 10.4153 4.32174 10.4153 4.19406C10.4153 4.06639 10.2956 3.96289 10.1481 3.96289C10.0005 3.96289 9.88086 4.06639 9.88086 4.19406C9.88086 4.32174 10.0005 4.42524 10.1481 4.42524Z" fill="white" stroke="#EF2D28" stroke-width="0.0312621"/>
<path d="M10.1481 3.65326C10.2956 3.65326 10.4153 3.54976 10.4153 3.42209C10.4153 3.29442 10.2956 3.19092 10.1481 3.19092C10.0005 3.19092 9.88086 3.29442 9.88086 3.42209C9.88086 3.54976 10.0005 3.65326 10.1481 3.65326Z" fill="white" stroke="#EF2D28" stroke-width="0.0312621"/>
<path d="M9.36463 8.05854C9.51747 8.05854 9.64137 7.95504 9.64137 7.82736C9.64137 7.69969 9.51747 7.59619 9.36463 7.59619C9.21179 7.59619 9.08789 7.69969 9.08789 7.82736C9.08789 7.95504 9.21179 8.05854 9.36463 8.05854Z" fill="white" stroke="#EF2D28" stroke-width="0.0318154"/>
<path d="M10.8431 8.05854C10.996 8.05854 11.1199 7.95504 11.1199 7.82736C11.1199 7.69969 10.996 7.59619 10.8431 7.59619C10.6903 7.59619 10.5664 7.69969 10.5664 7.82736C10.5664 7.95504 10.6903 8.05854 10.8431 8.05854Z" fill="white" stroke="#EF2D28" stroke-width="0.0318154"/>
<path fill-rule="evenodd" clip-rule="evenodd" d="M9.45703 7.20801H10.752L10.1045 7.90371L9.45703 7.20801Z" fill="white" stroke="#EF2D28" stroke-width="0.0318154"/>
<path d="M10.1034 8.05712C10.3072 8.05712 10.4724 7.91912 10.4724 7.7489C10.4724 7.57867 10.3072 7.44067 10.1034 7.44067C9.89958 7.44067 9.73438 7.57867 9.73438 7.7489C9.73438 7.91912 9.89958 8.05712 10.1034 8.05712Z" fill="white" stroke="#EF2D28" stroke-width="0.042421"/>
<path d="M10.5644 10.0742H8.79093C8.73165 10.0742 8.68359 10.1113 8.68359 10.1571V10.4559C8.68359 10.5016 8.73165 10.5387 8.79093 10.5387H10.5644C10.6237 10.5387 10.6718 10.5016 10.6718 10.4559V10.1571C10.6718 10.1113 10.6237 10.0742 10.5644 10.0742Z" fill="white" stroke="#EF2D28" stroke-width="0.0299854"/>
<path fill-rule="evenodd" clip-rule="evenodd" d="M11.2764 9.68813C11.0373 9.68813 10.8446 9.86914 10.8446 10.0916V10.4427C10.843 10.4946 10.8529 10.5463 10.8738 10.5948C10.8947 10.6432 10.9261 10.6875 10.9663 10.725C11.0064 10.7626 11.0545 10.7926 11.1078 10.8134C11.161 10.8342 11.2183 10.8453 11.2764 10.8462C11.3345 10.8453 11.3918 10.8342 11.445 10.8134C11.4983 10.7926 11.5464 10.7626 11.5865 10.725C11.6267 10.6875 11.6581 10.6432 11.679 10.5948C11.6999 10.5463 11.7098 10.4946 11.7082 10.4427V10.0938C11.7101 10.0417 11.7005 9.98976 11.6797 9.94104C11.659 9.89232 11.6276 9.84778 11.5874 9.81002C11.5472 9.77226 11.499 9.74204 11.4456 9.72111C11.3922 9.70018 11.3347 9.68897 11.2764 9.68813ZM11.2764 9.84079C11.1325 9.84079 11.0178 9.98691 11.0178 10.1657V10.3686C11.0178 10.5474 11.1325 10.6913 11.2764 10.6913C11.4203 10.6913 11.535 10.5474 11.535 10.3686V10.1657C11.535 9.98691 11.4203 9.84297 11.2764 9.84297V9.84079ZM9.02962 9.76446C8.88325 9.76446 8.77103 9.9084 8.77103 10.0894V10.4471C8.77103 10.6259 8.88569 10.7698 9.02962 10.7698C9.17355 10.7698 9.28821 10.6259 9.28821 10.4471V10.0872C9.28821 9.90622 9.17355 9.76228 9.02962 9.76228V9.76446ZM9.02962 9.6118C8.97153 9.61265 8.91421 9.62379 8.86097 9.64458C8.80774 9.66537 8.75965 9.6954 8.71948 9.73293C8.67932 9.77045 8.64789 9.81473 8.62701 9.86319C8.60612 9.91166 8.59621 9.96335 8.59783 10.0153V10.5212C8.59621 10.5731 8.60612 10.6248 8.62701 10.6733C8.64789 10.7218 8.67932 10.766 8.71948 10.8036C8.75965 10.8411 8.80774 10.8711 8.86097 10.8919C8.91421 10.9127 8.97153 10.9238 9.02962 10.9247C9.26869 10.9247 9.46141 10.7437 9.46141 10.5212V10.0153C9.46336 9.96317 9.45369 9.91124 9.43295 9.86253C9.41222 9.81381 9.38084 9.76927 9.34064 9.73151C9.30045 9.69375 9.25225 9.66352 9.19885 9.6426C9.14545 9.62167 9.08792 9.61046 9.02962 9.60962V9.6118Z" fill="white" stroke="#EF2D28" stroke-width="0.0299854"/>
<path fill-rule="evenodd" clip-rule="evenodd" d="M8.33821 9.91925C8.19428 9.91925 8.07963 10.0632 8.07963 10.242V10.3271C8.07963 10.5059 8.19428 10.6498 8.33821 10.6498C8.48458 10.6498 8.59924 10.5059 8.59924 10.3271V10.242C8.59924 10.0632 8.48214 9.91925 8.33821 9.91925ZM8.33821 9.76658C8.28013 9.76743 8.2228 9.77857 8.16957 9.79936C8.11633 9.82016 8.06824 9.85018 8.02808 9.88771C7.98792 9.92524 7.95648 9.96952 7.9356 10.018C7.91472 10.0664 7.9048 10.1181 7.90642 10.17V10.4012C7.9048 10.4531 7.91472 10.5048 7.9356 10.5533C7.95648 10.6018 7.98792 10.646 8.02808 10.6836C8.06824 10.7211 8.11633 10.7511 8.16957 10.7719C8.2228 10.7927 8.28013 10.8038 8.33821 10.8047C8.57728 10.8047 8.77244 10.6237 8.77244 10.4012V10.17C8.7744 10.1178 8.76464 10.0657 8.74376 10.0168C8.72287 9.96795 8.69128 9.92332 8.65082 9.88553C8.61037 9.84774 8.56188 9.81755 8.50819 9.79675C8.45451 9.77595 8.39672 9.76496 8.33821 9.7644V9.76658Z" fill="white" stroke="#EF2D28" stroke-width="0.0299854"/>
<path fill-rule="evenodd" clip-rule="evenodd" d="M7.30354 9.70601C7.04008 9.70601 6.8337 9.86688 6.8337 10.0667V10.4689C6.8337 10.6663 7.04447 10.8296 7.30354 10.8296C7.55823 10.8296 7.769 10.6688 7.769 10.4665V10.0667C7.769 9.86688 7.55823 9.70601 7.30354 9.70601ZM7.30354 9.5354C7.19899 9.53603 7.09571 9.54816 6.99967 9.57111C6.90363 9.59405 6.81674 9.62734 6.74405 9.66905C6.67135 9.71076 6.61429 9.76007 6.57616 9.81411C6.53803 9.86815 6.5196 9.92585 6.52193 9.98387V10.5493C6.51842 10.6076 6.53583 10.6656 6.57315 10.72C6.61047 10.7745 6.66696 10.8243 6.73931 10.8665C6.81166 10.9087 6.89842 10.9424 6.99454 10.9658C7.09066 10.9892 7.19421 11.0017 7.29915 11.0027C7.73387 11.0027 8.08077 10.8004 8.08077 10.5493V9.98387C8.08369 9.92585 8.06583 9.86808 8.02824 9.81392C7.99065 9.75975 7.93408 9.71027 7.86178 9.66833C7.78949 9.62639 7.70293 9.59283 7.6071 9.56959C7.51128 9.54636 7.4081 9.5339 7.30354 9.53296V9.5354Z" fill="white" stroke="#EF2D28" stroke-width="0.0294434"/>
<path fill-rule="evenodd" clip-rule="evenodd" d="M12.9207 9.78243C12.6573 9.78243 12.4509 9.94329 12.4509 10.1432V10.5453C12.4509 10.7427 12.6617 10.906 12.9207 10.906C13.1754 10.906 13.3862 10.7452 13.3862 10.5429V10.1432C13.3862 9.94329 13.1754 9.78243 12.9207 9.78243ZM12.9207 9.61181C12.8162 9.61244 12.7129 9.62458 12.6169 9.64752C12.5208 9.67047 12.4339 9.70376 12.3612 9.74547C12.2885 9.78718 12.2315 9.83648 12.1933 9.89052C12.1552 9.94456 12.1368 10.0023 12.1391 10.0603V10.6257C12.1356 10.684 12.153 10.742 12.1903 10.7964C12.2277 10.8509 12.2841 10.9007 12.3565 10.9429C12.4288 10.9851 12.5156 11.0188 12.6117 11.0422C12.7079 11.0656 12.8114 11.0782 12.9163 11.0791C13.3511 11.0791 13.698 10.8768 13.698 10.6257V10.0603C13.7009 10.0023 13.683 9.9445 13.6454 9.89033C13.6078 9.83617 13.5513 9.78669 13.479 9.74475C13.4067 9.70281 13.3201 9.66925 13.2243 9.64601C13.1285 9.62277 13.0253 9.61032 12.9207 9.60938V9.61181Z" fill="white" stroke="#EF2D28" stroke-width="0.0294434"/>
<path d="M12.4299 10.0742H11.5053C11.4743 10.0742 11.4492 10.1113 11.4492 10.1571V10.4559C11.4492 10.5016 11.4743 10.5387 11.5053 10.5387H12.4299C12.4609 10.5387 12.486 10.5016 12.486 10.4559V10.1571C12.486 10.1113 12.4609 10.0742 12.4299 10.0742Z" fill="white" stroke="#EF2D28" stroke-width="0.0299854"/>
<path d="M11.0689 9.9978H10.5322C10.5133 9.9978 10.498 10.0466 10.498 10.1068V10.5081C10.498 10.5683 10.5133 10.6172 10.5322 10.6172H11.0689C11.0878 10.6172 11.103 10.5683 11.103 10.5081V10.1068C11.103 10.0466 11.0878 9.9978 11.0689 9.9978Z" fill="white" stroke="#EF2D28" stroke-width="0.0299854"/>
<path d="M8.21733 9.9978H7.68064C7.66178 9.9978 7.64648 10.0466 7.64648 10.1068V10.5081C7.64648 10.5683 7.66178 10.6172 7.68064 10.6172H8.21733C8.23619 10.6172 8.25148 10.5683 8.25148 10.5081V10.1068C8.25148 10.0466 8.23619 9.9978 8.21733 9.9978Z" fill="white" stroke="#EF2D28" stroke-width="0.0299854"/>
<path d="M6.88827 9.91943H5.81001C5.77363 9.91943 5.74414 9.98095 5.74414 10.0568V10.5541C5.74414 10.63 5.77363 10.6915 5.81001 10.6915H6.88827C6.92464 10.6915 6.95413 10.63 6.95413 10.5541V10.0568C6.95413 9.98095 6.92464 9.91943 6.88827 9.91943Z" fill="white" stroke="#EF2D28" stroke-width="0.0299854"/>
<path d="M14.3292 9.9978H13.3266C13.2929 9.9978 13.2656 10.0593 13.2656 10.1352V10.6324C13.2656 10.7083 13.2929 10.7698 13.3266 10.7698H14.3292C14.3629 10.7698 14.3902 10.7083 14.3902 10.6324V10.1352C14.3902 10.0593 14.3629 9.9978 14.3292 9.9978Z" fill="white" stroke="#EF2D28" stroke-width="0.0299854"/>
</g>
</g>
<defs>
<clipPath id="clip0_10790_11551">
<rect width="64" height="64" rx="32" fill="white"/>
</clipPath>
</defs>
</svg>
