<svg width="64" height="64" viewBox="0 0 64 64" fill="none" xmlns="http://www.w3.org/2000/svg">
<g clip-path="url(#clip0_10790_11655)">
<mask id="mask0_10790_11655" style="mask-type:luminance" maskUnits="userSpaceOnUse" x="0" y="0" width="64" height="64">
<path d="M0 0H64V64H0V0Z" fill="white"/>
</mask>
<g mask="url(#mask0_10790_11655)">
<path fill-rule="evenodd" clip-rule="evenodd" d="M-11.875 0H84.125V64H-11.875V0Z" fill="#0C590B"/>
<path fill-rule="evenodd" clip-rule="evenodd" d="M-11.875 0H12.1875V64H-11.875V0Z" fill="white"/>
<path fill-rule="evenodd" clip-rule="evenodd" d="M50.4629 28.1749L46.5629 27.35L44.5129 30.7625L44.0879 26.8125L40.2129 25.9125L43.8379 24.2875L43.5004 20.325L46.1754 23.275L49.8379 21.725L47.8504 25.1749L50.4754 28.1749H50.4629Z" fill="white"/>
<path fill-rule="evenodd" clip-rule="evenodd" d="M51.9246 38.25C51.0927 40.0652 49.9102 41.6981 48.445 43.0548C46.9799 44.4114 45.261 45.4651 43.3873 46.1551C41.5135 46.8451 39.5218 47.1579 37.5267 47.0756C35.5317 46.9932 33.5725 46.5172 31.7621 45.675C28.0888 43.9743 25.2416 40.8841 23.8468 37.0841C22.452 33.2842 22.6239 29.0858 24.3246 25.4125C25.1692 23.5243 26.3996 21.8337 27.9366 20.4494C29.4737 19.0652 31.2835 18.0179 33.2496 17.375C32.7348 17.8035 32.2425 18.2583 31.7746 18.7375C29.3358 21.4383 28.0412 24.9807 28.1637 28.6176C28.2862 32.2545 29.8162 35.7017 32.4311 38.2324C35.0461 40.763 38.5416 42.1793 42.1805 42.1826C45.8195 42.1859 49.3175 40.7759 51.9371 38.25H51.9246Z" fill="white"/>
</g>
</g>
<defs>
<clipPath id="clip0_10790_11655">
<rect width="64" height="64" rx="32" fill="white"/>
</clipPath>
</defs>
</svg>
