<svg width="64" height="64" viewBox="0 0 64 64" fill="none" xmlns="http://www.w3.org/2000/svg">
<g clip-path="url(#clip0_10790_11681)">
<mask id="mask0_10790_11681" style="mask-type:luminance" maskUnits="userSpaceOnUse" x="0" y="0" width="64" height="64">
<path d="M0.00195312 0H63.9922V63.9902H0.00195312V0Z" fill="white"/>
</mask>
<g mask="url(#mask0_10790_11681)">
<path fill-rule="evenodd" clip-rule="evenodd" d="M-10.4355 0L-10.5 63.9902H74.5192L-10.4355 0Z" fill="#000001"/>
<path fill-rule="evenodd" clip-rule="evenodd" d="M74.4547 63.9902L74.5192 0H-10.5L74.4547 63.9902Z" fill="#FF0000"/>
<path d="M41.996 15.9201L40.8607 15.8685C40.5124 15.0428 39.5319 14.7332 38.9255 15.0944C38.3837 15.1331 35.5067 15.0428 35.5067 15.0428L37.6096 15.9588C38.1256 17.3651 39.9318 17.7005 39.9318 17.7005C39.777 20.2807 37.3129 17.3651 35.2487 18.8358C33.7779 19.726 33.7521 20.771 32.9522 22.4869C32.5618 23.0793 32.1307 23.6441 31.6621 24.1769L33.4038 24.0479L32.849 24.7704L34.9132 24.4736C34.9132 24.4736 34.6423 24.7059 34.4746 24.8865C34.7842 24.951 36.8355 24.4091 36.8355 24.4091L36.6936 25.0671C37.7386 24.6414 39.0416 24.2156 39.0416 24.2156C39.0416 24.2156 39.5061 24.6027 39.9318 24.7704L40.2285 23.5964L41.4026 23.8931L41.6993 22.7062C43.4668 25.0671 44.0602 27.428 47.2984 28.0215L47.0017 26.8346C47.9048 27.2216 49.5819 28.0473 49.5819 28.0473L49.84 27.5054C51.2462 28.5117 52.4202 28.4988 53.1943 28.602L52.6137 27.1313L53.2072 27.428L52.317 25.0671L53.2072 25.3638L52.0203 23.5964L52.4589 23.2996L52.3299 22.4094C54.0845 23.0029 56.4583 23.8931 56.7421 25.9573C57.0389 29.1955 53.491 30.0857 51.143 29.789C52.9105 31.2597 56.1487 30.6662 57.6323 29.1955C58.1921 28.5042 58.5929 27.6981 58.8063 26.8346C59.1031 27.7248 59.6965 28.8988 59.6965 30.0857C59.3998 32.7304 55.852 33.6206 53.5039 33.9174C56.1487 35.3881 60.8705 33.6206 61.1673 29.789C61.1673 26.5378 59.1031 25.0671 58.2129 23.5964C58.0997 23.0702 58.0007 22.541 57.9162 22.0095C58.0452 22.0353 58.8063 22.4223 58.8063 22.4223C58.8063 22.4223 58.2903 21.4419 58.2129 21.2354C58.2129 21.2354 57.2969 18.7326 56.9615 18.1778C57.0131 18.1391 57.6323 18.281 57.6323 18.281L55.2069 15.2493L55.8907 15.1718C55.8907 15.1718 53.104 12.9657 52.3299 12.6819L53.2201 12.3852C51.4397 11.5079 49.3755 12.0884 47.6081 13.2754L47.9048 12.3852L47.3629 12.4368V11.4305L47.9048 10.6177L47.0275 10.321L47.6081 8.85024L46.7308 9.14696L47.0275 7.66332C47.0275 7.66332 46.3566 7.97295 45.9567 7.92135C45.9696 7.96005 46.434 6.92795 46.434 6.92795C46.1502 6.48931 46.434 5.59912 46.434 5.59912C44.3698 5.89585 44.0731 6.19258 42.8991 7.96005C41.1187 11.2112 41.7122 12.6819 42.0089 15.9201H41.996Z" fill="#FFCC00" stroke="#FFCC00" stroke-width="0.296729"/>
<path fill-rule="evenodd" clip-rule="evenodd" d="M53.1418 20.771C53.2966 21.029 54.9609 21.8289 56.2252 22.5514C55.8898 21.1838 53.4256 20.8871 53.1289 20.771H53.1418Z" fill="#FF0000" stroke="#FF0000" stroke-width="0.387037"/>
<path fill-rule="evenodd" clip-rule="evenodd" d="M12.5937 53.2048L10.7101 52.005L8.19438 53.2177L8.76204 51.0632L6.82685 49.0377L9.05876 48.9087L10.3876 46.4574L11.2004 48.5216L13.9354 49.0248L12.2196 50.4439L12.5937 53.2048ZM17.4059 42.6774L16.5286 42.2645L15.7029 42.7419L15.8319 41.7872L15.1094 41.1421L16.0641 40.9615L16.4512 40.0842L16.9156 40.9357L17.8703 41.0389L17.1995 41.7356L17.4059 42.6774ZM21.6504 36.6396L19.741 35.7107L17.8832 36.7428L18.1799 34.6528L16.6189 33.2078L18.7089 32.8466L19.5862 30.9114L20.5925 32.795L22.6954 33.0272L21.2375 34.5754L21.6504 36.6396ZM12.9162 28.2538L10.6714 27.1184L8.47821 28.3312L8.83944 25.8541L7.00746 24.1254L9.4845 23.7254L10.5553 21.4419L11.7164 23.6738L14.2064 23.9834L12.4389 25.7896L12.9162 28.2538ZM4.85296 36.9621L2.58234 35.6204L0.324617 37.0008L0.905173 34.4206L-1.10742 32.7047L1.52443 32.4467L2.54363 30.0083L3.57573 32.4338L6.22049 32.6531L4.2466 34.3948L4.85296 36.9621Z" fill="white"/>
</g>
</g>
<defs>
<clipPath id="clip0_10790_11681">
<rect width="64" height="64" rx="32" fill="white"/>
</clipPath>
</defs>
</svg>
