<svg width="64" height="64" viewBox="0 0 64 64" fill="none" xmlns="http://www.w3.org/2000/svg">
<g clip-path="url(#clip0_10790_11692)">
<path d="M0 42.625H64V64H0V42.625Z" fill="#0038A8"/>
<path d="M0 21.3374H64V42.6624H0V21.3374Z" fill="white"/>
<path d="M0 0H64V21.3375H0V0Z" fill="#D52B1E"/>
<path d="M32.0573 40.1845C36.5774 40.1845 40.2416 36.5202 40.2416 32.0002C40.2416 27.4801 36.5774 23.8159 32.0573 23.8159C27.5373 23.8159 23.873 27.4801 23.873 32.0002C23.873 36.5202 27.5373 40.1845 32.0573 40.1845Z" stroke="black" stroke-width="0.213334"/>
<path d="M32.0578 38.7299C35.7746 38.7299 38.7876 35.7169 38.7876 32.0002C38.7876 28.2835 35.7746 25.2705 32.0578 25.2705C28.3411 25.2705 25.3281 28.2835 25.3281 32.0002C25.3281 35.7169 28.3411 38.7299 32.0578 38.7299Z" stroke="black" stroke-width="0.09697"/>
<path d="M32.0572 37.1589C34.9064 37.1589 37.216 34.8492 37.216 32.0001C37.216 29.151 34.9064 26.8413 32.0572 26.8413C29.2081 26.8413 26.8984 29.151 26.8984 32.0001C26.8984 34.8492 29.2081 37.1589 32.0572 37.1589Z" stroke="black" stroke-width="0.077576"/>
<path d="M27.7004 35.1626L26.7504 35.7251L26.4629 35.2251C26.4196 35.1594 26.3859 35.0878 26.3629 35.0126C26.3527 34.9572 26.3615 34.8999 26.3879 34.8501C26.4129 34.7876 26.4504 34.7501 26.5129 34.7126C26.5574 34.6843 26.6085 34.6683 26.6612 34.6661C26.7139 34.6639 26.7662 34.6756 26.8129 34.7001L26.9129 34.7751C26.9091 34.7461 26.9091 34.7166 26.9129 34.6876L26.9254 34.6126L26.9629 34.5251L27.1504 34.2251L27.3504 34.5501L27.1504 34.8876C27.1308 34.9178 27.118 34.952 27.1129 34.9876C27.1099 35.0133 27.1143 35.0393 27.1254 35.0626L27.1504 35.0876L27.5254 34.8626L27.7004 35.1626ZM26.9629 35.2001L26.8879 35.0751C26.8731 35.0489 26.8563 35.0239 26.8379 35.0001C26.8296 34.992 26.8199 34.9856 26.8091 34.9813C26.7984 34.9771 26.7869 34.9749 26.7754 34.9751C26.7538 34.9723 26.7318 34.9767 26.7129 34.9876C26.6754 35.0126 26.6629 35.0251 26.6504 35.0626L26.7004 35.1876L26.7754 35.3126L26.9629 35.2001ZM26.0754 34.4626L25.7879 33.5876L26.0129 33.5251L26.1879 34.0626L26.3504 34.0126L26.1879 33.5126L26.4004 33.4376L26.5629 33.9376L26.7754 33.8751L26.5879 33.3126L26.8379 33.2376L27.1254 34.1126L26.0754 34.4626ZM25.7004 33.1751L25.6254 32.6126C25.6254 32.4876 25.6254 32.3876 25.6879 32.3251C25.7379 32.2626 25.8129 32.2126 25.9254 32.2001C26.0379 32.2001 26.1254 32.2126 26.2004 32.2751C26.2629 32.3376 26.3129 32.4376 26.3254 32.5751L26.3504 32.7501L26.7504 32.7126L26.7879 33.0501L25.7004 33.1751ZM26.1254 32.7876L26.1129 32.7001C26.1129 32.6376 26.0879 32.5876 26.0629 32.5751C26.0519 32.5628 26.0384 32.5531 26.0233 32.5466C26.0082 32.5402 25.9918 32.5371 25.9754 32.5376C25.9424 32.5381 25.911 32.5515 25.8879 32.5751C25.8629 32.6001 25.8629 32.6501 25.8629 32.7126L25.8754 32.8126L26.1254 32.7876ZM25.6629 31.1001L25.7004 30.7626L26.3504 30.8376C26.4129 30.8376 26.4754 30.8626 26.5254 30.8876C26.5879 30.9126 26.6379 30.9501 26.6754 31.0001L26.7504 31.1501C26.7695 31.2281 26.7695 31.3096 26.7504 31.3876C26.7504 31.4376 26.7504 31.5001 26.7254 31.5626C26.7254 31.6251 26.7004 31.6751 26.6629 31.7126L26.5629 31.8126C26.5222 31.8432 26.4752 31.8645 26.4254 31.8751C26.3504 31.8876 26.3004 31.9001 26.2379 31.8876L25.5879 31.8126L25.6254 31.4751L26.2879 31.5501C26.3504 31.5501 26.4004 31.5501 26.4379 31.5126C26.4754 31.4876 26.4879 31.4376 26.5004 31.3876C26.5052 31.3614 26.5043 31.3344 26.4978 31.3086C26.4914 31.2827 26.4794 31.2585 26.4629 31.2376C26.4379 31.2001 26.3879 31.1876 26.3379 31.1751L25.6629 31.1001ZM25.8004 30.3001L26.0129 29.6876C26.0504 29.5876 26.1004 29.5251 26.1754 29.4876C26.2077 29.47 26.2435 29.4598 26.2802 29.4576C26.317 29.4554 26.3537 29.4614 26.3879 29.4751C26.4382 29.4938 26.4812 29.5282 26.5105 29.5732C26.5398 29.6182 26.5537 29.6715 26.5504 29.7251C26.6004 29.6501 26.6504 29.6001 26.7004 29.6001C26.7605 29.5758 26.8278 29.5758 26.8879 29.6001C26.9381 29.6167 26.983 29.6462 27.0182 29.6857C27.0533 29.7252 27.0773 29.7733 27.0879 29.8251V29.9501L27.0379 30.1001L26.8504 30.6626L25.8004 30.3001ZM26.3254 30.1126L26.3754 29.9751C26.4004 29.9251 26.4004 29.8876 26.3879 29.8501C26.3879 29.8376 26.3629 29.8126 26.3254 29.8001C26.3118 29.7935 26.2968 29.79 26.2816 29.79C26.2665 29.79 26.2515 29.7935 26.2379 29.8001L26.1754 29.9001L26.1254 30.0501L26.3254 30.1126ZM26.7379 30.2626L26.8004 30.0876V29.9626C26.7955 29.9481 26.7873 29.9349 26.7764 29.9241C26.7656 29.9132 26.7524 29.905 26.7379 29.9001C26.7243 29.8935 26.7093 29.89 26.6941 29.89C26.679 29.89 26.664 29.8935 26.6504 29.9001C26.6254 29.9251 26.6004 29.9626 26.5879 30.0251L26.5254 30.1876L26.7379 30.2626ZM26.3254 28.9751L26.5004 28.6751L27.2129 29.1001L27.4879 28.6501L27.7254 28.7876L27.2754 29.5376L26.3254 28.9751ZM27.0004 27.9626L27.2129 27.7001L28.0629 28.4001L27.8379 28.6626L27.0004 27.9626ZM28.4754 27.3876L28.7629 27.2626C28.8004 27.3376 28.8254 27.4126 28.8254 27.4876C28.8298 27.5563 28.8169 27.6251 28.7879 27.6876C28.7505 27.7592 28.6995 27.8229 28.6379 27.8751C28.5658 27.9418 28.4807 27.9929 28.3879 28.0251C28.3004 28.0501 28.2129 28.0501 28.1129 28.0251C27.9984 27.9838 27.8985 27.9099 27.8254 27.8126C27.7004 27.6876 27.6504 27.5376 27.6629 27.4001C27.6629 27.2626 27.7379 27.1376 27.8754 27.0251C27.9578 26.9458 28.0625 26.8934 28.1754 26.8751C28.285 26.865 28.3948 26.8914 28.4879 26.9501L28.3004 27.2001C28.2777 27.1835 28.2523 27.1708 28.2254 27.1626C28.1966 27.1561 28.1667 27.1561 28.1379 27.1626C28.1049 27.1715 28.0748 27.1887 28.0504 27.2126C27.9879 27.2626 27.9629 27.3251 27.9754 27.4001C27.9754 27.4501 28.0129 27.5251 28.0879 27.5876C28.1629 27.6876 28.2379 27.7376 28.2879 27.7501C28.3504 27.7501 28.4004 27.7501 28.4504 27.7001C28.5004 27.6501 28.5254 27.6126 28.5254 27.5626C28.5254 27.5126 28.5129 27.4501 28.4754 27.3876ZM29.6504 26.9626L29.3129 27.1501L29.3504 27.3376L29.0379 27.5001L28.8879 26.3251L29.2129 26.1501L30.1004 26.9376L29.7879 27.1001L29.6504 26.9626ZM29.4754 26.7876L29.1879 26.5001L29.2629 26.9001L29.4754 26.7876ZM30.5254 25.6626L31.0254 25.5751C31.1078 25.5575 31.193 25.5575 31.2754 25.5751C31.3379 25.5876 31.3879 25.6126 31.4379 25.6626C31.4879 25.7001 31.5254 25.7501 31.5629 25.8126L31.6129 26.0251C31.6379 26.1501 31.6379 26.2376 31.6129 26.3001C31.6024 26.3675 31.5768 26.4316 31.5379 26.4876C31.5056 26.5344 31.4628 26.5729 31.4129 26.6001L31.2129 26.6626L30.7129 26.7501L30.5254 25.6626ZM30.9004 25.8501L31.0004 26.4376H31.0879C31.1504 26.4126 31.2129 26.4001 31.2254 26.3751C31.2629 26.3626 31.2754 26.3251 31.2879 26.2876V26.0876C31.2629 25.9751 31.2254 25.9001 31.1879 25.8626C31.1379 25.8251 31.0629 25.8126 30.9879 25.8376L30.9004 25.8501ZM31.9379 25.4751L32.8504 25.5001V25.7501L32.2754 25.7251L32.2629 25.9001L32.7879 25.9126V26.1376L32.2504 26.1251V26.3376L32.8379 26.3626L32.8254 26.6126L31.8879 26.5751L31.9379 25.4751ZM33.2629 25.5751L33.6004 25.6501L33.4004 26.4626L33.9129 26.5876L33.8504 26.8501L33.0004 26.6501L33.2629 25.5751ZM35.0379 26.1626L35.5254 26.4501C35.6379 26.5126 35.7004 26.5751 35.7254 26.6626C35.7379 26.7501 35.7254 26.8376 35.6754 26.9251C35.6529 26.9689 35.6211 27.0073 35.5823 27.0375C35.5434 27.0677 35.4984 27.0891 35.4504 27.1001C35.3629 27.1251 35.2629 27.1001 35.1379 27.0251L34.9754 26.9376L34.7754 27.2876L34.4754 27.1126L35.0379 26.1626ZM35.1004 26.7376L35.1629 26.7876L35.3004 26.8251C35.3157 26.8224 35.3302 26.8165 35.3431 26.8079C35.356 26.7993 35.367 26.7882 35.3754 26.7751C35.3864 26.7612 35.3944 26.745 35.3987 26.7278C35.403 26.7106 35.4036 26.6926 35.4004 26.6751C35.3879 26.6376 35.3629 26.6126 35.3004 26.5751L35.2254 26.5251L35.1004 26.7376ZM36.0504 28.0251L35.7629 27.7626L35.6004 27.8626L35.3504 27.6126L36.4004 27.1001L36.6754 27.3501L36.2254 28.4376L35.9754 28.1876L36.0504 28.0251ZM36.1629 27.8001L36.3379 27.4251L35.9879 27.6376L36.1629 27.8001ZM36.2879 28.5376L37.2004 27.9126L37.5254 28.3751L37.6504 28.6001L37.6379 28.7626C37.6129 28.8126 37.5754 28.8626 37.5129 28.9001C37.4712 28.9371 37.4185 28.959 37.3629 28.9626C37.3116 28.9667 37.2601 28.9582 37.2129 28.9376C37.1759 28.9178 37.1422 28.8925 37.1129 28.8626V29.0376L37.0754 29.1126L36.9004 29.4251L36.6879 29.1126L36.8629 28.7751L36.9004 28.6751C36.9004 28.6501 36.9004 28.6126 36.8754 28.5876L36.8504 28.5626L36.4754 28.8126L36.2879 28.5376ZM37.0379 28.4501L37.1129 28.5751L37.1754 28.6251C37.1825 28.6355 37.1918 28.6442 37.2026 28.6507C37.2133 28.6571 37.2254 28.6612 37.2379 28.6626C37.2504 28.6626 37.2754 28.6626 37.3004 28.6376C37.314 28.6299 37.3256 28.6191 37.3343 28.6061C37.343 28.593 37.3485 28.5781 37.3504 28.5626L37.3004 28.4376L37.2129 28.3126L37.0379 28.4501ZM37.3754 30.1001L37.2254 29.7376L37.0379 29.7501L36.9129 29.4376L38.0879 29.4126L38.2129 29.7501L37.3504 30.5501L37.2254 30.2126L37.3754 30.1001ZM37.5629 29.9501L37.8879 29.6876L37.4754 29.7126L37.5629 29.9501ZM37.8504 31.1501L38.0754 31.1126L38.1629 31.6376L37.6879 31.7126C37.618 31.638 37.559 31.5538 37.5129 31.4626C37.4256 31.2752 37.4036 31.064 37.4504 30.8626C37.4879 30.7751 37.5379 30.7126 37.6254 30.6501C37.711 30.5905 37.8095 30.5519 37.9129 30.5376C38.0215 30.517 38.1337 30.5257 38.2379 30.5626C38.3349 30.5983 38.4181 30.664 38.4754 30.7501C38.5129 30.8251 38.5504 30.9126 38.5629 31.0376C38.5774 31.1287 38.5774 31.2215 38.5629 31.3126C38.5561 31.3712 38.5346 31.4271 38.5004 31.4751L38.3379 31.6001L38.2254 31.2751C38.2629 31.2626 38.2879 31.2376 38.3129 31.2001C38.3254 31.1626 38.3379 31.1126 38.3254 31.0751C38.3235 31.0402 38.3134 31.0062 38.2961 30.9758C38.2787 30.9454 38.2545 30.9195 38.2254 30.9001C38.1629 30.8626 38.0754 30.8626 37.9754 30.8751C37.8504 30.8876 37.7629 30.9251 37.7254 30.9751C37.7026 31.0025 37.6862 31.0348 37.6776 31.0694C37.6689 31.104 37.6682 31.1401 37.6754 31.1751L37.7129 31.2876L37.7879 31.3876H37.8879L37.8504 31.1501ZM38.5754 32.7501L38.5379 33.0876L37.8879 33.0376C37.8272 33.0308 37.768 33.0139 37.7129 32.9876C37.6547 32.9625 37.6033 32.924 37.5629 32.8751C37.5285 32.8351 37.5029 32.7882 37.4879 32.7376C37.4685 32.6557 37.4642 32.571 37.4754 32.4876C37.4754 32.4376 37.4754 32.3751 37.5004 32.3126L37.5504 32.1626C37.58 32.1179 37.6182 32.0797 37.6629 32.0501C37.6999 32.0211 37.7424 31.9998 37.7879 31.9876C37.8542 31.9775 37.9216 31.9775 37.9879 31.9876L38.6379 32.0376L38.6129 32.3751L37.9379 32.3126C37.8754 32.3126 37.8254 32.3126 37.7879 32.3501C37.7504 32.3876 37.7379 32.4251 37.7254 32.4876C37.7254 32.5501 37.7254 32.5876 37.7629 32.6251C37.8004 32.6626 37.8379 32.6876 37.9004 32.6876L38.5754 32.7501ZM37.3504 33.9251L37.4754 33.5501L37.3254 33.4376L37.4254 33.1126L38.3504 33.8501L38.2254 34.2001L37.0504 34.2501L37.1754 33.9126L37.3504 33.9251ZM37.6004 33.9251H38.0129L37.6754 33.7001L37.6004 33.9251ZM38.0004 34.8251L37.8004 35.1501H37.3754L37.5754 35.5251L37.3754 35.8501L37.0504 35.1501L36.6504 34.9251L36.8254 34.6251L37.2254 34.8626L38.0004 34.8251Z" fill="black"/>
<path d="M33.1506 28.175C33.1506 28.175 36.2631 29.525 35.7131 32.3C35.1756 35.0625 33.4381 35.05 32.7631 35.35C32.0756 35.6625 31.6131 36.1 31.3381 36.0375C31.0756 35.975 30.7131 35.7626 30.7131 35.7626C30.7131 35.7626 30.6881 36.225 31.2381 36.3C31.7881 36.3875 32.4881 35.5875 32.8506 35.5C33.2131 35.4125 35.3006 35.175 35.8256 32.3625C36.4256 29.35 33.1631 28.2625 33.1506 28.175Z" fill="#009B3A" stroke="black" stroke-width="0.0125"/>
<path d="M34.7129 28.7751C34.7293 28.8634 34.7359 28.9417 34.7318 28.9976C34.7277 29.0535 34.713 29.0838 34.6902 29.0838C34.6673 29.0838 34.6374 29.0535 34.6053 28.9976C34.5732 28.9417 34.5407 28.8634 34.5129 28.7751C34.4937 28.7143 34.4774 28.6507 34.4652 28.5892C34.453 28.5277 34.4452 28.4699 34.4424 28.4202C34.4396 28.3706 34.4419 28.3304 34.4491 28.3028C34.4564 28.2751 34.4683 28.2607 34.4841 28.2607C34.4999 28.2607 34.519 28.2751 34.5401 28.3028C34.5612 28.3304 34.5836 28.3706 34.6057 28.4202C34.6278 28.4699 34.6489 28.5277 34.6675 28.5892C34.6861 28.6507 34.7016 28.7143 34.7129 28.7751ZM34.6129 28.8001C34.644 28.8562 34.6729 28.9154 34.6976 28.9732C34.7222 29.0311 34.742 29.0861 34.7554 29.1345C34.7687 29.1828 34.7754 29.2231 34.7749 29.2525C34.7745 29.2819 34.7668 29.2996 34.7525 29.3044C34.7383 29.3091 34.7178 29.3008 34.6925 29.28C34.6673 29.2592 34.6379 29.2264 34.6065 29.1841C34.5752 29.1417 34.5427 29.0909 34.5113 29.0353C34.48 28.9797 34.4506 28.9207 34.4254 28.8626C34.3865 28.7731 34.3593 28.6902 34.3484 28.6278C34.3375 28.5655 34.3436 28.5274 34.3655 28.5201C34.3875 28.5128 34.4241 28.5366 34.4691 28.5876C34.5141 28.6386 34.5649 28.7136 34.6129 28.8001ZM34.3004 29.0001C34.3551 29.0162 34.4089 29.0349 34.4588 29.0551C34.5088 29.0753 34.5538 29.0966 34.5913 29.1179C34.6288 29.1391 34.6581 29.1598 34.6775 29.1789C34.697 29.1979 34.7061 29.2149 34.7045 29.2289C34.7028 29.2428 34.6904 29.2535 34.668 29.2602C34.6455 29.2669 34.6134 29.2696 34.5736 29.2681C34.5338 29.2666 34.4869 29.2609 34.4357 29.2514C34.3846 29.2419 34.3301 29.2287 34.2754 29.2126C34.1649 29.1801 34.0602 29.1377 33.9845 29.0948C33.9087 29.0519 33.868 29.012 33.8713 28.9838C33.8746 28.9557 33.9217 28.9415 34.0021 28.9446C34.0826 28.9476 34.1899 28.9676 34.3004 29.0001Z" fill="#009B3A" stroke="black" stroke-width="0.0125"/>
<path d="M34.3505 28.8875C34.3984 28.9198 34.4445 28.954 34.4862 28.9882C34.528 29.0224 34.5645 29.0559 34.5937 29.0868C34.6229 29.1177 34.6442 29.1455 34.6565 29.1684C34.6687 29.1914 34.6717 29.2091 34.6651 29.2206C34.6585 29.2321 34.6426 29.2371 34.6182 29.2354C34.5938 29.2337 34.5615 29.2252 34.523 29.2106C34.4845 29.1959 34.4406 29.1752 34.3939 29.1498C34.3471 29.1244 34.2984 29.0948 34.2505 29.0625C34.1953 29.03 34.1392 28.9928 34.0866 28.9538C34.034 28.9148 33.9862 28.875 33.9469 28.8374C33.9076 28.7998 33.8777 28.7654 33.8597 28.7369C33.8416 28.7083 33.8358 28.6864 33.8426 28.6727C33.8495 28.659 33.8688 28.6539 33.8992 28.6578C33.9296 28.6617 33.9702 28.6744 34.018 28.6952C34.0658 28.7159 34.1194 28.744 34.1749 28.7773C34.2303 28.8106 34.2861 28.8483 34.338 28.8875H34.3505Z" fill="#009B3A" stroke="black" stroke-width="0.0125"/>
<path d="M34.4746 28.8374C34.5278 28.8812 34.5838 28.9337 34.6372 28.99C34.6906 29.0463 34.7396 29.1043 34.7794 29.1586C34.8192 29.2128 34.8484 29.2613 34.8642 29.2995C34.8801 29.3376 34.882 29.3641 34.8698 29.3763C34.8576 29.3885 34.8317 29.386 34.7946 29.3691C34.7576 29.3522 34.7106 29.3214 34.6582 29.2797C34.6059 29.2381 34.5499 29.187 34.4958 29.1314C34.4418 29.0758 34.3914 29.0176 34.3496 28.9624C34.3055 28.9043 34.2726 28.8517 34.2544 28.8103C34.2362 28.7689 34.2333 28.7402 34.2462 28.7273C34.2591 28.7145 34.2871 28.718 34.3273 28.7373C34.3676 28.7567 34.4185 28.7914 34.4746 28.8374Z" fill="#009B3A" stroke="black" stroke-width="0.0125"/>
<path d="M34.6879 29.225L34.5504 29.3C34.5129 29.3125 34.4754 29.2625 34.4004 29.3C34.3254 29.35 34.2754 29.425 34.2504 29.4625C34.2379 29.5125 34.2754 29.525 34.3754 29.4875C34.4629 29.4375 34.5004 29.3625 34.5379 29.3375C34.5754 29.3 34.6629 29.2625 34.7004 29.25L34.8254 29.0625C34.8504 29.0125 34.9754 28.9375 35.0254 28.825C35.0629 28.75 35.0504 28.675 34.9879 28.7C34.9249 28.7458 34.8736 28.8058 34.8379 28.875C34.8004 28.9375 34.8379 29 34.8004 29.0625L34.6879 29.225ZM35.6629 29.55C35.6656 29.7331 35.6524 29.9047 35.6262 30.0271C35.6 30.1495 35.5629 30.2127 35.5232 30.2028C35.4834 30.1928 35.4441 30.1106 35.4141 29.9741C35.384 29.8376 35.3656 29.6581 35.3629 29.475C35.3615 29.3843 35.3641 29.2955 35.3703 29.2137C35.3766 29.1318 35.3866 29.0585 35.3995 28.9978C35.4125 28.9372 35.4283 28.8905 35.446 28.8604C35.4636 28.8302 35.4829 28.8172 35.5026 28.8222C35.5223 28.8271 35.542 28.8498 35.5608 28.8891C35.5795 28.9283 35.5968 28.9833 35.6117 29.0509C35.6265 29.1184 35.6387 29.1973 35.6475 29.2829C35.6563 29.3686 35.6615 29.4593 35.6629 29.55Z" fill="#009B3A" stroke="black" stroke-width="0.0125"/>
<path d="M35.5007 29.5375C35.5385 29.7146 35.5597 29.885 35.5595 30.0114C35.5593 30.1378 35.5378 30.2097 35.4996 30.2114C35.4615 30.2131 35.4099 30.1443 35.3562 30.0203C35.3025 29.8962 35.251 29.7271 35.2132 29.55C35.1948 29.4631 35.1803 29.3771 35.1705 29.2968C35.1608 29.2166 35.1559 29.1436 35.1563 29.0822C35.1566 29.0208 35.1621 28.972 35.1725 28.9388C35.1829 28.9055 35.198 28.8884 35.2169 28.8884C35.2358 28.8884 35.2581 28.9055 35.2826 28.9388C35.307 28.972 35.3332 29.0208 35.3596 29.0822C35.3859 29.1436 35.4119 29.2166 35.4362 29.2968C35.4604 29.3771 35.4823 29.4631 35.5007 29.55V29.5375Z" fill="#009B3A" stroke="black" stroke-width="0.0125"/>
<path d="M34.9997 29.7C35.0765 29.7463 35.1542 29.7993 35.2272 29.8549C35.3001 29.9106 35.3665 29.9676 35.4214 30.0218C35.4764 30.0759 35.5185 30.1259 35.5447 30.168C35.5709 30.2101 35.5805 30.2433 35.5729 30.2651C35.5653 30.287 35.5407 30.297 35.5007 30.2944C35.4608 30.2917 35.4066 30.2766 35.3421 30.25C35.2776 30.2234 35.2044 30.186 35.1278 30.1406C35.0513 30.0952 34.9734 30.0429 34.8997 29.9875C34.8309 29.9411 34.7642 29.8912 34.7032 29.8408C34.6422 29.7904 34.5881 29.7404 34.5442 29.6937C34.5002 29.647 34.4672 29.6044 34.4469 29.5684C34.4267 29.5325 34.4196 29.5038 34.4262 29.4841C34.4328 29.4644 34.4528 29.4541 34.4852 29.4536C34.5176 29.4532 34.5616 29.4627 34.6149 29.4816C34.6681 29.5004 34.7295 29.5283 34.7956 29.5637C34.8616 29.599 34.9309 29.6411 34.9997 29.6875V29.7Z" fill="#009B3A" stroke="black" stroke-width="0.0125"/>
<path d="M35.1007 29.55C35.2143 29.6878 35.3134 29.8312 35.3762 29.9485C35.439 30.0659 35.4603 30.1476 35.4354 30.1758C35.4106 30.204 35.3416 30.1763 35.2436 30.0988C35.1457 30.0213 35.0268 29.9003 34.9132 29.7625C34.8569 29.6943 34.8037 29.624 34.7564 29.5556C34.7091 29.4872 34.6688 29.4221 34.6377 29.364C34.6066 29.3059 34.5854 29.2559 34.5752 29.2169C34.5651 29.1779 34.5662 29.1507 34.5785 29.1367C34.5908 29.1228 34.6141 29.1224 34.647 29.1356C34.6799 29.1488 34.7218 29.1754 34.7703 29.2138C34.8188 29.2521 34.8729 29.3016 34.9296 29.3593C34.9863 29.417 35.0444 29.4818 35.1007 29.55Z" fill="#009B3A" stroke="black" stroke-width="0.0125"/>
<path d="M35.2994 29.5375C35.3443 29.6214 35.3858 29.7061 35.4213 29.7867C35.4569 29.8673 35.4859 29.9423 35.5066 30.0074C35.5274 30.0726 35.5395 30.1265 35.5423 30.1662C35.5451 30.2059 35.5385 30.2305 35.5229 30.2387C35.5073 30.2469 35.483 30.2385 35.4514 30.214C35.4198 30.1895 35.3815 30.1493 35.3387 30.0958C35.2959 30.0423 35.2494 29.9765 35.2019 29.9022C35.1544 29.8278 35.1068 29.7464 35.0619 29.6625C35.0169 29.5786 34.9755 29.494 34.9399 29.4133C34.9044 29.3327 34.8754 29.2577 34.8547 29.1926C34.8339 29.1275 34.8218 29.0735 34.819 29.0338C34.8162 28.9942 34.8228 28.9695 34.8384 28.9613C34.854 28.9531 34.8783 28.9615 34.9099 28.986C34.9415 29.0105 34.9798 29.0507 35.0226 29.1042C35.0654 29.1577 35.1119 29.2235 35.1594 29.2978C35.2069 29.3722 35.2544 29.4536 35.2994 29.5375Z" fill="#009B3A" stroke="black" stroke-width="0.0125"/>
<path d="M35.4758 30.1875L35.2383 30.2375C35.2008 30.2375 35.1633 30.15 35.0383 30.175C34.9133 30.2 34.8133 30.2875 34.7883 30.3375C34.7383 30.3875 34.7883 30.4375 34.9383 30.4125C35.0883 30.3875 35.1383 30.2875 35.2133 30.275L35.4758 30.225L35.7008 30.0125C35.7633 29.95 35.9508 29.8875 36.0508 29.7625C36.1383 29.6625 36.1383 29.5625 36.0508 29.575C35.9498 29.61 35.8594 29.6702 35.7883 29.75C35.7258 29.825 35.7383 29.9375 35.6633 30L35.4758 30.1875ZM36.1633 30.8375C36.1485 30.9266 36.1303 31.0131 36.1098 31.0922C36.0892 31.1714 36.0667 31.2415 36.0434 31.2986C36.0202 31.3558 35.9968 31.3988 35.9744 31.4253C35.9521 31.4518 35.9313 31.4612 35.9133 31.453C35.8952 31.4448 35.8802 31.4192 35.8692 31.3775C35.8582 31.3358 35.8513 31.279 35.849 31.2103C35.8467 31.1415 35.8489 31.0621 35.8557 30.9768C35.8624 30.8914 35.8735 30.8016 35.8883 30.7125C35.9031 30.6235 35.9212 30.537 35.9418 30.4578C35.9624 30.3787 35.9849 30.3086 36.0081 30.2514C36.0313 30.1943 36.0548 30.1512 36.0771 30.1247C36.0995 30.0982 36.1202 30.0888 36.1383 30.097C36.1564 30.1052 36.1713 30.1309 36.1824 30.1726C36.1934 30.2142 36.2003 30.2711 36.2026 30.3398C36.2049 30.4086 36.2026 30.4879 36.1959 30.5733C36.1891 30.6587 36.1781 30.7485 36.1633 30.8375Z" fill="#009B3A" stroke="black" stroke-width="0.0125"/>
<path d="M36.0006 30.8001C36.0102 30.9023 36.015 31.0103 36.0146 31.1152C36.0141 31.2201 36.0084 31.3189 35.998 31.4035C35.9876 31.4881 35.9727 31.556 35.9545 31.6017C35.9364 31.6474 35.9156 31.6697 35.8937 31.6665C35.8719 31.6634 35.8496 31.635 35.8288 31.5838C35.808 31.5325 35.7893 31.4597 35.7741 31.3715C35.7589 31.2833 35.7477 31.1821 35.7415 31.0762C35.7352 30.9704 35.7341 30.8629 35.7381 30.7626C35.7336 30.6687 35.7332 30.5744 35.7367 30.4859C35.7403 30.3974 35.7479 30.3166 35.7589 30.2487C35.7699 30.1807 35.7841 30.1272 35.8007 30.0915C35.8173 30.0557 35.8358 30.0386 35.8551 30.0413C35.8743 30.0439 35.894 30.0662 35.9126 30.1067C35.9313 30.1472 35.9487 30.2051 35.9636 30.2766C35.9784 30.348 35.9905 30.4315 35.9991 30.5217C36.0076 30.6119 36.0124 30.7067 36.0131 30.8001H36.0006Z" fill="#009B3A" stroke="black" stroke-width="0.0125"/>
<path d="M35.4994 30.8501C35.5591 30.9086 35.6166 30.9707 35.6685 31.0327C35.7204 31.0947 35.7656 31.1553 35.8013 31.2109C35.8371 31.2664 35.8627 31.3158 35.8767 31.3561C35.8906 31.3963 35.8926 31.4266 35.8825 31.4452C35.8724 31.4637 35.8504 31.47 35.8179 31.4639C35.7854 31.4577 35.7429 31.4391 35.6932 31.4092C35.6434 31.3793 35.5873 31.3388 35.5282 31.2899C35.4691 31.2411 35.4083 31.185 35.3494 31.1251C35.2816 31.0656 35.2134 30.9984 35.15 30.9286C35.0865 30.8588 35.0294 30.7883 34.9831 30.7223C34.9368 30.6564 34.9024 30.5969 34.8826 30.5482C34.8628 30.4996 34.8582 30.4631 34.8689 30.4415C34.8797 30.4199 34.9057 30.4139 34.9448 30.4238C34.984 30.4338 35.0353 30.4594 35.0949 30.4988C35.1544 30.5382 35.2207 30.5903 35.2887 30.6512C35.3566 30.712 35.4244 30.7801 35.4869 30.8501H35.4994Z" fill="#009B3A" stroke="black" stroke-width="0.0125"/>
<path d="M35.6257 30.7375C35.669 30.817 35.7091 30.898 35.7435 30.9759C35.7779 31.0538 35.806 31.1269 35.8262 31.1913C35.8464 31.2557 35.8583 31.3099 35.8613 31.351C35.8642 31.392 35.8582 31.419 35.8434 31.4305C35.8286 31.442 35.8054 31.4377 35.7752 31.4179C35.745 31.3981 35.7082 31.3631 35.6671 31.315C35.626 31.2669 35.5813 31.2066 35.5356 31.1376C35.4899 31.0685 35.444 30.992 35.4007 30.9125C35.3509 30.8294 35.3033 30.7409 35.2612 30.6534C35.2191 30.5658 35.1835 30.4813 35.157 30.406C35.1304 30.3306 35.1137 30.2661 35.1078 30.2172C35.1019 30.1684 35.1072 30.1362 35.1231 30.1231C35.139 30.11 35.1652 30.1163 35.1998 30.1415C35.2345 30.1666 35.2767 30.2101 35.3235 30.2688C35.3703 30.3275 35.4205 30.3999 35.4706 30.4809C35.5207 30.5619 35.5694 30.6495 35.6132 30.7375H35.6257Z" fill="#009B3A" stroke="black" stroke-width="0.0125"/>
<path d="M35.813 30.7501C35.8424 30.8426 35.8682 30.9353 35.8891 31.0232C35.91 31.1111 35.9254 31.1924 35.9346 31.2623C35.9438 31.3323 35.9465 31.3897 35.9426 31.4311C35.9386 31.4725 35.9282 31.4972 35.9118 31.5038C35.8953 31.5104 35.8733 31.4987 35.8469 31.4694C35.8205 31.4401 35.7902 31.3938 35.7578 31.3331C35.7254 31.2724 35.6916 31.1985 35.6581 31.1156C35.6247 31.0328 35.5924 30.9426 35.563 30.8501C35.5336 30.7577 35.5077 30.665 35.4868 30.5771C35.466 30.4892 35.4505 30.4079 35.4413 30.338C35.4322 30.268 35.4295 30.2106 35.4334 30.1692C35.4373 30.1278 35.4478 30.1031 35.4642 30.0965C35.4806 30.0899 35.5026 30.1016 35.5291 30.1309C35.5555 30.1602 35.5857 30.2065 35.6181 30.2672C35.6505 30.3279 35.6844 30.4018 35.7178 30.4847C35.7512 30.5675 35.7836 30.6577 35.813 30.7501Z" fill="#009B3A" stroke="black" stroke-width="0.0125"/>
<path d="M35.874 31.4374H35.624C35.5865 31.4374 35.574 31.3374 35.449 31.3374C35.324 31.3374 35.199 31.3999 35.1615 31.4499C35.1115 31.4874 35.1615 31.5499 35.299 31.5499C35.449 31.5499 35.524 31.4749 35.599 31.4624H35.8615L36.1115 31.2999C36.1865 31.2499 36.399 31.2249 36.5115 31.1249C36.6115 31.0499 36.6365 30.9374 36.549 30.9499C36.4398 30.9644 36.3363 31.0075 36.249 31.0749C36.174 31.1249 36.174 31.2374 36.0865 31.2874L35.8615 31.4374M36.199 32.2749C36.1032 32.4278 36.0007 32.5625 35.9142 32.6495C35.8277 32.7365 35.7642 32.7686 35.7377 32.7388C35.7111 32.709 35.7238 32.6196 35.7728 32.4904C35.8218 32.3612 35.9032 32.2028 35.999 32.0499C36.0949 31.8971 36.1973 31.7623 36.2838 31.6753C36.3704 31.5883 36.4339 31.5562 36.4604 31.5861C36.4869 31.6159 36.4743 31.7052 36.4253 31.8344C36.3763 31.9636 36.2949 32.1221 36.199 32.2749Z" fill="#009B3A"/>
<path d="M35.874 31.4374H35.624C35.5865 31.4374 35.574 31.3374 35.449 31.3374C35.324 31.3374 35.199 31.3999 35.1615 31.4499C35.1115 31.4874 35.1615 31.5499 35.299 31.5499C35.449 31.5499 35.524 31.4749 35.599 31.4624H35.8615L36.1115 31.2999C36.1865 31.2499 36.399 31.2249 36.5115 31.1249C36.6115 31.0499 36.6365 30.9374 36.549 30.9499C36.4398 30.9644 36.3363 31.0075 36.249 31.0749C36.174 31.1249 36.174 31.2374 36.0865 31.2874L35.8615 31.4374M36.199 32.2749C36.1032 32.4278 36.0007 32.5625 35.9142 32.6495C35.8277 32.7365 35.7642 32.7686 35.7377 32.7388C35.7111 32.709 35.7238 32.6196 35.7728 32.4904C35.8218 32.3612 35.9032 32.2028 35.999 32.0499C36.0949 31.8971 36.1973 31.7623 36.2838 31.6753C36.3704 31.5883 36.4339 31.5562 36.4604 31.5861C36.4869 31.6159 36.4743 31.7052 36.4253 31.8344C36.3763 31.9636 36.2949 32.1221 36.199 32.2749Z" stroke="black" stroke-width="0.0125"/>
<path d="M36.0754 32.175C36.0404 32.2661 36.0027 32.3543 35.9644 32.4347C35.9262 32.515 35.8881 32.586 35.8523 32.6434C35.8166 32.7008 35.7839 32.7436 35.7561 32.7694C35.7283 32.7951 35.706 32.8033 35.6904 32.7934C35.6748 32.7836 35.6662 32.7559 35.6652 32.712C35.6642 32.668 35.6707 32.6087 35.6844 32.5373C35.6981 32.466 35.7187 32.384 35.745 32.2961C35.7713 32.2082 35.8029 32.1161 35.8379 32.025C35.9085 31.8411 35.9887 31.6727 36.0609 31.5567C36.1331 31.4407 36.1914 31.3867 36.2229 31.4066C36.2544 31.4265 36.2565 31.5187 36.2289 31.6628C36.2012 31.8069 36.146 31.9911 36.0754 32.175ZM35.5879 32.0125C35.6483 32.1689 35.693 32.3294 35.7122 32.4587C35.7315 32.5881 35.7237 32.6756 35.6906 32.7022C35.6574 32.7287 35.6016 32.692 35.5355 32.6002C35.4693 32.5083 35.3983 32.3689 35.3379 32.2125C35.2775 32.0562 35.2327 31.8957 35.2135 31.7663C35.1942 31.637 35.202 31.5494 35.2352 31.5229C35.2683 31.4964 35.3241 31.5331 35.3903 31.6249C35.4564 31.7167 35.5275 31.8562 35.5879 32.0125Z" fill="#009B3A" stroke="black" stroke-width="0.0125"/>
<path d="M35.7491 31.9625C35.7678 32.1662 35.7712 32.3654 35.7586 32.5165C35.7461 32.6675 35.7185 32.7579 35.6821 32.7679C35.6456 32.7778 35.6032 32.7065 35.5642 32.5695C35.5252 32.4325 35.4928 32.2412 35.4741 32.0375C35.4648 31.9367 35.4592 31.8358 35.4575 31.7408C35.4559 31.6457 35.4582 31.5583 35.4645 31.4835C35.4707 31.4088 35.4807 31.3481 35.4938 31.3049C35.5069 31.2618 35.523 31.237 35.541 31.2321C35.5591 31.2272 35.5788 31.2422 35.599 31.2762C35.6193 31.3103 35.6396 31.3627 35.6589 31.4305C35.6782 31.4983 35.6961 31.5802 35.7116 31.6715C35.7271 31.7628 35.7398 31.8617 35.7491 31.9625Z" fill="#009B3A" stroke="black" stroke-width="0.0125"/>
<path d="M35.9258 32.0627C35.9163 32.1619 35.9033 32.2599 35.8876 32.351C35.8718 32.4421 35.8537 32.5245 35.8342 32.5935C35.8147 32.6625 35.7942 32.7168 35.7738 32.7533C35.7535 32.7898 35.7337 32.8077 35.7157 32.806C35.6976 32.8044 35.6816 32.7832 35.6686 32.7437C35.6556 32.7042 35.6458 32.6472 35.6397 32.5758C35.6337 32.5045 35.6316 32.4202 35.6335 32.3279C35.6354 32.2355 35.6413 32.1369 35.6508 32.0377C35.6604 31.9384 35.6734 31.8404 35.6891 31.7494C35.7048 31.6583 35.723 31.5759 35.7425 31.5068C35.762 31.4378 35.7825 31.3835 35.8028 31.347C35.8232 31.3106 35.8429 31.2927 35.861 31.2943C35.879 31.2959 35.895 31.3171 35.9081 31.3566C35.9211 31.3961 35.9309 31.4532 35.9369 31.5245C35.9429 31.5959 35.9451 31.6801 35.9432 31.7725C35.9413 31.8648 35.9354 31.9634 35.9258 32.0627Z" fill="#009B3A" stroke="black" stroke-width="0.0125"/>
<path d="M35.7009 32.7126L35.4884 32.6126C35.4509 32.5876 35.4759 32.5001 35.3634 32.4501C35.2384 32.4001 35.1134 32.4001 35.0634 32.4251C35.0009 32.4501 35.0134 32.5126 35.1509 32.5876C35.2759 32.6501 35.3759 32.6001 35.4509 32.6376L35.7009 32.7376L35.9759 32.6876C36.0634 32.6876 36.2634 32.7376 36.4009 32.6876C36.5259 32.6626 36.5884 32.5626 36.5134 32.5376C36.4083 32.5036 36.2958 32.4993 36.1884 32.5251C36.1009 32.5501 36.0509 32.6501 35.9634 32.6751C35.9009 32.6751 35.7134 32.7251 35.7009 32.7126ZM35.8259 33.7376C35.7484 33.8042 35.6697 33.8659 35.5943 33.9192C35.519 33.9726 35.4484 34.0165 35.3866 34.0485C35.3249 34.0805 35.2731 34.0999 35.2344 34.1057C35.1956 34.1114 35.1706 34.1034 35.1607 34.0821C35.1509 34.0607 35.1564 34.0265 35.177 33.9813C35.1975 33.9361 35.2327 33.8808 35.2806 33.8187C35.3284 33.7565 35.3879 33.6887 35.4558 33.619C35.5236 33.5493 35.5984 33.4792 35.6759 33.4126C35.7516 33.3478 35.8284 33.2878 35.9018 33.236C35.9753 33.1843 36.0439 33.1418 36.1038 33.1111C36.1638 33.0803 36.2138 33.0619 36.2512 33.0568C36.2885 33.0517 36.3123 33.06 36.3214 33.0814C36.3304 33.1027 36.3244 33.1366 36.3038 33.1812C36.2831 33.2257 36.2482 33.28 36.2011 33.3409C36.1539 33.4018 36.0954 33.4682 36.0289 33.5363C35.9623 33.6044 35.8891 33.6728 35.8134 33.7376" fill="#009B3A"/>
<path d="M35.8259 33.7376C35.7484 33.8042 35.6697 33.8659 35.5943 33.9192C35.519 33.9726 35.4484 34.0165 35.3866 34.0485C35.3249 34.0805 35.2731 34.0999 35.2344 34.1057C35.1956 34.1114 35.1706 34.1034 35.1607 34.0821C35.1509 34.0607 35.1564 34.0265 35.177 33.9813C35.1975 33.9361 35.2327 33.8808 35.2806 33.8187C35.3284 33.7565 35.3879 33.6887 35.4558 33.619C35.5236 33.5493 35.5984 33.4792 35.6759 33.4126C35.7516 33.3478 35.8284 33.2878 35.9018 33.236C35.9753 33.1843 36.0439 33.1418 36.1038 33.1111C36.1638 33.0803 36.2138 33.0619 36.2512 33.0568C36.2885 33.0517 36.3123 33.06 36.3214 33.0814C36.3304 33.1027 36.3244 33.1366 36.3038 33.1812C36.2831 33.2257 36.2482 33.28 36.2011 33.3409C36.1539 33.4018 36.0954 33.4682 36.0289 33.5363C35.9623 33.6044 35.8891 33.6728 35.8134 33.7376M35.7009 32.7126L35.4884 32.6126C35.4509 32.5876 35.4759 32.5001 35.3634 32.4501C35.2384 32.4001 35.1134 32.4001 35.0634 32.4251C35.0009 32.4501 35.0134 32.5126 35.1509 32.5876C35.2759 32.6501 35.3759 32.6001 35.4509 32.6376L35.7009 32.7376L35.9759 32.6876C36.0634 32.6876 36.2634 32.7376 36.4009 32.6876C36.5259 32.6626 36.5884 32.5626 36.5134 32.5376C36.4083 32.5036 36.2958 32.4993 36.1884 32.5251C36.1009 32.5501 36.0509 32.6501 35.9634 32.6751C35.9009 32.6751 35.7134 32.7251 35.7009 32.7126Z" stroke="black" stroke-width="0.0125"/>
<path d="M35.6991 33.5876C35.6325 33.6844 35.5581 33.7817 35.4819 33.8717C35.4057 33.9616 35.3298 34.0419 35.2603 34.1059C35.1908 34.1699 35.1297 34.216 35.0817 34.2404C35.0337 34.2649 35.0002 34.267 34.9839 34.2467C34.9677 34.2263 34.969 34.184 34.9879 34.1232C35.0068 34.0624 35.0427 33.9848 35.0928 33.8964C35.1428 33.8081 35.2057 33.7116 35.2762 33.6146C35.3468 33.5176 35.4231 33.4227 35.4991 33.3376C35.5658 33.2409 35.6402 33.1436 35.7164 33.0536C35.7926 32.9636 35.8684 32.8834 35.9379 32.8194C36.0074 32.7554 36.0686 32.7093 36.1166 32.6849C36.1646 32.6604 36.198 32.6583 36.2143 32.6786C36.2306 32.699 36.2292 32.7412 36.2103 32.802C36.1914 32.8628 36.1555 32.9405 36.1055 33.0288C36.0554 33.1171 35.9926 33.2137 35.9221 33.3107C35.8515 33.4077 35.7752 33.5026 35.6991 33.5876Z" fill="#009B3A" stroke="black" stroke-width="0.0125"/>
<path d="M35.2257 33.2251C35.2333 33.3255 35.2367 33.4265 35.2356 33.5223C35.2345 33.6181 35.2289 33.707 35.2192 33.7837C35.2095 33.8605 35.1959 33.9237 35.1791 33.9696C35.1623 34.0156 35.1427 34.0435 35.1213 34.0517C35.1 34.0599 35.0774 34.0483 35.0547 34.0175C35.0321 33.9867 35.0099 33.9373 34.9894 33.8721C34.9689 33.807 34.9505 33.7273 34.9353 33.6378C34.9201 33.5482 34.9083 33.4505 34.9007 33.3501C34.8931 33.2498 34.8897 33.1488 34.8908 33.053C34.8919 32.9571 34.8975 32.8683 34.9072 32.7915C34.9169 32.7148 34.9305 32.6516 34.9473 32.6056C34.9641 32.5596 34.9837 32.5318 35.0051 32.5235C35.0264 32.5153 35.0491 32.527 35.0717 32.5578C35.0943 32.5886 35.1165 32.638 35.137 32.7032C35.1575 32.7683 35.1759 32.8479 35.1911 32.9375C35.2063 33.0271 35.2181 33.1248 35.2257 33.2251Z" fill="#009B3A" stroke="black" stroke-width="0.0125"/>
<path d="M35.4125 33.2251C35.3707 33.3832 35.3222 33.5209 35.2743 33.6176C35.2263 33.7144 35.1815 33.7652 35.1465 33.7624C35.1114 33.7596 35.0879 33.7034 35.0796 33.6021C35.0712 33.5008 35.0784 33.3598 35.1 33.2001C35.1158 33.0842 35.1386 32.9623 35.1667 32.8441C35.1947 32.7259 35.2273 32.6146 35.2618 32.5192C35.2963 32.4238 35.3317 32.347 35.3653 32.2947C35.3988 32.2425 35.4295 32.2163 35.455 32.2184C35.4804 32.2204 35.4999 32.2506 35.5118 32.3064C35.5237 32.3623 35.5278 32.4424 35.5237 32.5402C35.5196 32.638 35.5074 32.7509 35.4881 32.8698C35.4688 32.9887 35.4429 33.1104 35.4125 33.2251Z" fill="#009B3A" stroke="black" stroke-width="0.0125"/>
<path d="M35.5747 33.3876C35.5341 33.4878 35.4902 33.5856 35.4454 33.6753C35.4006 33.765 35.3559 33.845 35.3139 33.9106C35.2718 33.9762 35.2332 34.0262 35.2002 34.0577C35.1672 34.0892 35.1405 34.1016 35.1216 34.0942C35.0835 34.0793 35.0795 33.9846 35.1106 33.831C35.1416 33.6774 35.2052 33.4775 35.2872 33.2751C35.3286 33.1735 35.3733 33.0744 35.4188 32.9837C35.4642 32.8929 35.5095 32.8122 35.5521 32.7461C35.5947 32.68 35.6338 32.6299 35.6671 32.5986C35.7004 32.5672 35.7272 32.5553 35.7461 32.5636C35.7649 32.5718 35.7755 32.5999 35.7771 32.6464C35.7787 32.6929 35.7713 32.7568 35.7554 32.8345C35.7395 32.9122 35.7154 33.0021 35.6844 33.0991C35.6534 33.1962 35.6161 33.2985 35.5747 33.4001" fill="#009B3A"/>
<path d="M35.5747 33.3876C35.5341 33.4878 35.4902 33.5856 35.4454 33.6753C35.4006 33.765 35.3559 33.845 35.3139 33.9106C35.2718 33.9762 35.2332 34.0262 35.2002 34.0577C35.1672 34.0892 35.1405 34.1016 35.1216 34.0942C35.0835 34.0793 35.0795 33.9846 35.1106 33.831C35.1416 33.6774 35.2052 33.4775 35.2872 33.2751C35.3286 33.1735 35.3733 33.0744 35.4188 32.9837C35.4642 32.8929 35.5095 32.8122 35.5521 32.7461C35.5947 32.68 35.6338 32.6299 35.6671 32.5986C35.7004 32.5672 35.7272 32.5553 35.7461 32.5636C35.7649 32.5718 35.7755 32.5999 35.7771 32.6464C35.7787 32.6929 35.7713 32.7568 35.7554 32.8345C35.7395 32.9122 35.7154 33.0021 35.6844 33.0991C35.6534 33.1962 35.6161 33.2985 35.5747 33.4001" stroke="black" stroke-width="0.0125"/>
<path d="M35.1251 34.0375L34.9126 33.85C34.8876 33.8125 34.9376 33.725 34.8251 33.625C34.7359 33.5447 34.6202 33.5002 34.5001 33.5C34.4251 33.5 34.4251 33.575 34.5501 33.7C34.6751 33.825 34.8001 33.8 34.8626 33.8625C34.9498 33.919 35.0296 33.9862 35.1001 34.0625L35.4376 34.1125C35.5251 34.125 35.7251 34.275 35.9001 34.275C36.0501 34.275 36.1501 34.2 36.0626 34.1375C35.9629 34.0671 35.8466 34.024 35.7251 34.0125C35.6126 34.0125 35.5251 34.1 35.4126 34.0875L35.1126 34.0375M34.8126 35.0125C34.6937 35.0393 34.5701 35.0603 34.4512 35.0739C34.3323 35.0876 34.2213 35.0935 34.1267 35.0912C34.0321 35.089 33.9564 35.0786 33.9053 35.0609C33.8543 35.0432 33.8293 35.0187 33.8323 34.9892C33.8352 34.9596 33.866 34.9259 33.9224 34.8906C33.9787 34.8553 34.0591 34.8192 34.1573 34.7853C34.2555 34.7514 34.369 34.7204 34.4891 34.6948C34.6092 34.6692 34.7327 34.6496 34.8501 34.6375C34.9691 34.6107 35.0927 34.5897 35.2116 34.5761C35.3305 34.5624 35.4415 34.5565 35.5361 34.5588C35.6307 34.561 35.7064 34.5714 35.7574 34.5891C35.8085 34.6068 35.8335 34.6313 35.8305 34.6608C35.8275 34.6904 35.7967 34.7241 35.7404 34.7594C35.6841 34.7948 35.6037 34.8308 35.5055 34.8647C35.4072 34.8986 35.2937 34.9296 35.1737 34.9552C35.0536 34.9808 34.9301 35.0004 34.8126 35.0125Z" fill="#009B3A"/>
<path d="M35.1251 34.0375L34.9126 33.85C34.8876 33.8125 34.9376 33.725 34.8251 33.625C34.7359 33.5447 34.6202 33.5002 34.5001 33.5C34.4251 33.5 34.4251 33.575 34.5501 33.7C34.6751 33.825 34.8001 33.8 34.8626 33.8625C34.9498 33.919 35.0296 33.9862 35.1001 34.0625L35.4376 34.1125C35.5251 34.125 35.7251 34.275 35.9001 34.275C36.0501 34.275 36.1501 34.2 36.0626 34.1375C35.9629 34.0671 35.8466 34.024 35.7251 34.0125C35.6126 34.0125 35.5251 34.1 35.4126 34.0875L35.1126 34.0375M34.8126 35.0125C34.6937 35.0393 34.5701 35.0603 34.4512 35.0739C34.3323 35.0876 34.2213 35.0935 34.1267 35.0912C34.0321 35.089 33.9564 35.0786 33.9053 35.0609C33.8543 35.0432 33.8293 35.0187 33.8323 34.9892C33.8352 34.9596 33.866 34.9259 33.9224 34.8906C33.9787 34.8553 34.0591 34.8192 34.1573 34.7853C34.2555 34.7514 34.369 34.7204 34.4891 34.6948C34.6092 34.6692 34.7327 34.6496 34.8501 34.6375C34.9691 34.6107 35.0927 34.5897 35.2116 34.5761C35.3305 34.5624 35.4415 34.5565 35.5361 34.5588C35.6307 34.561 35.7064 34.5714 35.7574 34.5891C35.8085 34.6068 35.8335 34.6313 35.8305 34.6608C35.8275 34.6904 35.7967 34.7241 35.7404 34.7594C35.6841 34.7948 35.6037 34.8308 35.5055 34.8647C35.4072 34.8986 35.2937 34.9296 35.1737 34.9552C35.0536 34.9808 34.9301 35.0004 34.8126 35.0125Z" stroke="black" stroke-width="0.0125"/>
<path d="M34.7996 34.8C34.6004 34.8726 34.4117 34.9238 34.2709 34.9432C34.1301 34.9626 34.0476 34.9489 34.0397 34.9048C34.0318 34.8607 34.0992 34.7894 34.2284 34.7052C34.3576 34.6209 34.5392 34.5298 34.7371 34.45C34.9362 34.3773 35.125 34.3261 35.2658 34.3067C35.4066 34.2873 35.4891 34.301 35.497 34.3451C35.5049 34.3892 35.4375 34.4605 35.3083 34.5448C35.1791 34.629 34.9975 34.7201 34.7996 34.8Z" fill="#009B3A" stroke="black" stroke-width="0.0125"/>
<path d="M34.5131 34.1876C34.4243 34.3583 34.3272 34.5103 34.2392 34.6165C34.1511 34.7226 34.078 34.776 34.0328 34.767C33.9877 34.7579 33.9735 34.6871 33.9928 34.5672C34.0121 34.4473 34.0636 34.2861 34.1381 34.1126C34.1834 34.0071 34.2358 33.9003 34.2917 33.7997C34.3476 33.6991 34.4056 33.6071 34.4617 33.53C34.5178 33.4528 34.5707 33.3925 34.6168 33.353C34.6628 33.3136 34.7009 33.296 34.7283 33.3015C34.7558 33.307 34.772 33.3355 34.7759 33.3849C34.7798 33.4343 34.7712 33.5035 34.7507 33.5878C34.7302 33.672 34.6984 33.7693 34.6574 33.8728C34.6163 33.9764 34.5671 34.0838 34.5131 34.1876Z" fill="#009B3A" stroke="black" stroke-width="0.0125"/>
<path d="M34.7124 34.2999C34.6359 34.3865 34.5563 34.4696 34.4781 34.5446C34.3999 34.6195 34.3246 34.6848 34.2566 34.7367C34.1886 34.7887 34.1291 34.8262 34.0817 34.8472C34.0342 34.8682 33.9996 34.8722 33.9799 34.8591C33.9602 34.846 33.9558 34.8159 33.9669 34.7707C33.9779 34.7254 34.0043 34.6658 34.0445 34.5953C34.0846 34.5248 34.1378 34.4448 34.2009 34.3598C34.264 34.2748 34.3359 34.1865 34.4124 34.0999C34.5669 33.9251 34.7308 33.768 34.8682 33.6631C35.0055 33.5582 35.1051 33.5142 35.1448 33.5407C35.1846 33.5673 35.1614 33.6622 35.0803 33.8045C34.9992 33.9469 34.8669 34.1251 34.7124 34.2999Z" fill="#009B3A" stroke="black" stroke-width="0.0125"/>
<path d="M34.762 34.5502C34.6662 34.6269 34.5657 34.7006 34.4673 34.7663C34.369 34.832 34.2749 34.8882 34.1913 34.9313C34.1077 34.9743 34.0365 35.0033 33.9824 35.0162C33.9282 35.0291 33.8924 35.0256 33.8773 35.006C33.8622 34.9864 33.8681 34.9512 33.8946 34.9026C33.9212 34.854 33.9677 34.7932 34.0312 34.7241C34.0947 34.6551 34.1738 34.5794 34.2631 34.502C34.3525 34.4246 34.4501 34.3473 34.5495 34.2752C34.7366 34.1322 34.9279 34.0096 35.0813 33.9343C35.2347 33.8591 35.3376 33.8372 35.3675 33.8737C35.3973 33.9102 35.3516 34.0019 35.2404 34.1288C35.1292 34.2557 34.9616 34.4072 34.7745 34.5502" fill="#009B3A"/>
<path d="M34.762 34.5502C34.6662 34.6269 34.5657 34.7006 34.4673 34.7663C34.369 34.832 34.2749 34.8882 34.1913 34.9313C34.1077 34.9743 34.0365 35.0033 33.9824 35.0162C33.9282 35.0291 33.8924 35.0256 33.8773 35.006C33.8622 34.9864 33.8681 34.9512 33.8946 34.9026C33.9212 34.854 33.9677 34.7932 34.0312 34.7241C34.0947 34.6551 34.1738 34.5794 34.2631 34.502C34.3525 34.4246 34.4501 34.3473 34.5495 34.2752C34.7366 34.1322 34.9279 34.0096 35.0813 33.9343C35.2347 33.8591 35.3376 33.8372 35.3675 33.8737C35.3973 33.9102 35.3516 34.0019 35.2404 34.1288C35.1292 34.2557 34.9616 34.4072 34.7745 34.5502" stroke="black" stroke-width="0.0125"/>
<path d="M33.9743 34.9L33.8868 34.6125C33.8743 34.55 33.9743 34.4875 33.9243 34.3375C33.8821 34.2062 33.7931 34.095 33.6743 34.025C33.6118 33.9875 33.5493 34.0625 33.6118 34.25C33.6618 34.4375 33.7993 34.5 33.8368 34.5875L33.9368 34.9125C34.0118 34.95 34.1493 35.0875 34.2368 35.1625C34.3243 35.225 34.4368 35.475 34.6118 35.575C34.7368 35.6625 34.8618 35.65 34.8368 35.5375C34.7773 35.4127 34.687 35.3051 34.5743 35.225C34.4743 35.15 34.3243 35.1875 34.2368 35.1125C34.1743 35.0625 33.9743 34.9125 33.9868 34.9" fill="#009B3A"/>
<path d="M33.9743 34.9L33.8868 34.6125C33.8743 34.55 33.9743 34.4875 33.9243 34.3375C33.8821 34.2062 33.7931 34.095 33.6743 34.025C33.6118 33.9875 33.5493 34.0625 33.6118 34.25C33.6618 34.4375 33.7993 34.5 33.8368 34.5875L33.9368 34.9125C34.0118 34.95 34.1493 35.0875 34.2368 35.1625C34.3243 35.225 34.4368 35.475 34.6118 35.575C34.7368 35.6625 34.8618 35.65 34.8368 35.5375C34.7773 35.4127 34.687 35.3051 34.5743 35.225C34.4743 35.15 34.3243 35.1875 34.2368 35.1125C34.1743 35.0625 33.9743 34.9125 33.9868 34.9" stroke="black" stroke-width="0.0125"/>
<path d="M33.5 35.7376C33.2869 35.74 33.0838 35.7177 32.9343 35.6757C32.7849 35.6337 32.7012 35.5752 32.7012 35.5129C32.7012 35.4506 32.7849 35.3894 32.9343 35.3426C33.0838 35.2958 33.2869 35.2671 33.5 35.2626C33.7131 35.2603 33.9162 35.2825 34.0657 35.3245C34.2151 35.3666 34.2988 35.4251 34.2988 35.4874C34.2988 35.5497 34.2151 35.6108 34.0657 35.6576C33.9162 35.7045 33.7131 35.7332 33.5 35.7376Z" fill="#009B3A" stroke="black" stroke-width="0.0125"/>
<path d="M33.3884 35.0001C33.247 35.1823 33.093 35.3413 32.9602 35.442C32.8274 35.5427 32.7267 35.5769 32.6803 35.5371C32.6339 35.4973 32.6456 35.3868 32.7127 35.2298C32.7799 35.0729 32.897 34.8823 33.0384 34.7001C33.1798 34.5179 33.3338 34.359 33.4666 34.2583C33.5994 34.1576 33.7001 34.1234 33.7465 34.1632C33.7929 34.2029 33.7812 34.3135 33.7141 34.4704C33.6469 34.6274 33.5298 34.8179 33.3884 35.0001Z" fill="#009B3A" stroke="black" stroke-width="0.0125"/>
<path d="M33.5002 35.3751C33.3241 35.4391 33.1588 35.4785 33.0324 35.4865C32.906 35.4945 32.8264 35.4707 32.8072 35.419C32.7881 35.3674 32.8305 35.2911 32.9272 35.2033C33.024 35.1155 33.169 35.0216 33.3377 34.9376C33.5137 34.8736 33.679 34.8342 33.8054 34.8262C33.9318 34.8181 34.0114 34.842 34.0306 34.8937C34.0498 34.9453 34.0074 35.0216 33.9106 35.1094C33.8139 35.1972 33.6688 35.2911 33.5002 35.3751ZM33.7252 28.2501C33.8152 28.3341 33.8901 28.417 33.9352 28.4824C33.9803 28.5478 33.9923 28.591 33.9688 28.6035C33.9453 28.6161 33.888 28.597 33.8082 28.5501C33.7285 28.5032 33.6319 28.4319 33.5377 28.3501C33.4852 28.3046 33.4351 28.2573 33.3904 28.2111C33.3458 28.165 33.3077 28.1211 33.2785 28.0822C33.2493 28.0433 33.2297 28.0103 33.2209 27.9852C33.2121 27.9601 33.2143 27.9436 33.2273 27.9366C33.2404 27.9296 33.2641 27.9324 33.2968 27.9447C33.3296 27.957 33.3707 27.9786 33.4175 28.0081C33.4643 28.0376 33.5159 28.0743 33.5688 28.116C33.6218 28.1577 33.6751 28.2033 33.7252 28.2501ZM33.4752 28.4626C33.6133 28.4807 33.7477 28.5093 33.8489 28.5421C33.9501 28.5748 34.0098 28.6091 34.0147 28.6372C34.0197 28.6654 33.9696 28.6852 33.8755 28.6923C33.7813 28.6994 33.6508 28.6932 33.5127 28.6751C33.3745 28.6569 33.2401 28.6284 33.1389 28.5956C33.0377 28.5628 32.9781 28.5286 32.9731 28.5004C32.9681 28.4723 33.0182 28.4524 33.1124 28.4453C33.2065 28.4382 33.337 28.4444 33.4752 28.4626Z" fill="#009B3A" stroke="black" stroke-width="0.0125"/>
<path d="M33.5742 28.325C33.7022 28.3899 33.8196 28.4614 33.9007 28.5237C33.9818 28.586 34.0199 28.6341 34.0066 28.6573C33.9934 28.6805 33.9298 28.677 33.83 28.6475C33.7301 28.618 33.6022 28.5649 33.4742 28.5C33.4109 28.4679 33.3494 28.4338 33.2934 28.3997C33.2374 28.3656 33.1879 28.3322 33.1477 28.3013C33.0666 28.239 33.0285 28.191 33.0418 28.1678C33.0551 28.1446 33.1186 28.1481 33.2184 28.1776C33.3183 28.2071 33.4463 28.2601 33.5742 28.325ZM29.8867 34.9375C29.8867 34.9375 30.5742 35.0875 31.1742 35.3C31.7617 35.5125 32.6742 36.2625 32.9242 36.3C33.1867 36.3125 33.5617 36.225 33.7117 35.825C33.2867 35.95 33.0367 36.1125 32.6367 35.8875C32.4992 35.8375 32.0367 35.4125 31.5117 35.1875C31.014 34.9935 30.5047 34.8307 29.9867 34.7L29.8867 34.9375ZM30.6242 28.7375L31.4117 28.3125L30.5367 28.5375L30.4367 28.6875L30.6242 28.7375Z" fill="#009B3A" stroke="black" stroke-width="0.0125"/>
<path d="M31.3746 28.9249C31.0621 28.8749 30.5871 28.7624 30.2871 28.7374C30.4996 28.5124 30.7871 28.125 30.9621 27.8875C30.8371 28.1125 30.6621 28.4125 30.5871 28.6375C30.7996 28.75 31.1371 28.8374 31.3746 28.9249Z" fill="#009B3A" stroke="black" stroke-width="0.0125"/>
<path d="M30.4746 28.7875L31.1746 28.2375L30.3621 28.6125L30.2871 28.775H30.4746" fill="#009B3A"/>
<path d="M30.4746 28.7875L31.1746 28.2375L30.3621 28.6125L30.2871 28.775H30.4746" stroke="black" stroke-width="0.0125"/>
<path d="M31.2254 28.9126C30.9129 28.8626 30.4504 28.7501 30.1504 28.7251C30.3504 28.4876 30.6254 28.1001 30.8004 27.8501C30.6754 28.0751 30.5129 28.3876 30.4379 28.6126C30.6504 28.7376 30.9879 28.8251 31.2254 28.9126Z" fill="#009B3A" stroke="black" stroke-width="0.0125"/>
<path d="M30.3633 28.8251L31.1883 28.4875L30.3008 28.625L30.1758 28.775L30.3633 28.8251Z" fill="#009B3A" stroke="black" stroke-width="0.0125"/>
<path d="M31.1246 28.9249C30.8246 28.8999 30.3371 28.8375 30.0371 28.85C30.2121 28.5875 30.4371 28.15 30.5871 27.8875C30.4996 28.1375 30.3621 28.4625 30.3246 28.7C30.5496 28.8 30.8871 28.8624 31.1371 28.9249" fill="#009B3A"/>
<path d="M31.1246 28.9249C30.8246 28.8999 30.3371 28.8375 30.0371 28.85C30.2121 28.5875 30.4371 28.15 30.5871 27.8875C30.4996 28.1375 30.3621 28.4625 30.3246 28.7C30.5496 28.8 30.8871 28.8624 31.1371 28.9249" stroke="black" stroke-width="0.0125"/>
<path d="M30.2746 28.8376L30.8371 28.1501L30.1246 28.6751L30.0996 28.8626L30.2746 28.8251" fill="#009B3A"/>
<path d="M30.2746 28.8376L30.8371 28.1501L30.1246 28.6751L30.0996 28.8626L30.2746 28.8251" stroke="black" stroke-width="0.0125"/>
<path d="M31.1254 28.975C30.8004 28.975 30.2754 28.9375 29.9629 28.975C30.1254 28.6625 30.3129 28.175 30.4379 27.875C30.3754 28.15 30.2629 28.525 30.2379 28.7875C30.4879 28.875 30.8629 28.9125 31.1254 28.975Z" fill="#009B3A" stroke="black" stroke-width="0.0125"/>
<path d="M30.1629 29.0001C30.3853 28.7767 30.6103 28.5558 30.8379 28.3376L30.0254 28.8001L29.9629 28.9876H30.1629" fill="#009B3A"/>
<path d="M30.1629 29.0001C30.3853 28.7767 30.6103 28.5558 30.8379 28.3376L30.0254 28.8001L29.9629 28.9876H30.1629" stroke="black" stroke-width="0.0125"/>
<path d="M30.9746 29C30.6246 29 30.0746 28.9751 29.7246 29.0126C29.9496 28.6751 30.2746 28.1375 30.4746 27.8C30.3496 28.1 30.1371 28.525 30.0621 28.8C30.3121 28.9 30.6996 28.925 30.9746 28.9875" fill="#009B3A"/>
<path d="M30.9746 29C30.6246 29 30.0746 28.9751 29.7246 29.0126C29.9496 28.6751 30.2746 28.1375 30.4746 27.8C30.3496 28.1 30.1371 28.525 30.0621 28.8C30.3121 28.9 30.6996 28.925 30.9746 28.9875" stroke="black" stroke-width="0.0125"/>
<path d="M29.9371 29.0375L30.8121 28.3L29.8121 28.8251L29.7246 29.0375H29.9371Z" fill="#009B3A" stroke="black" stroke-width="0.0125"/>
<path d="M30.8496 29.0126C30.4996 29.0626 29.9496 29.125 29.5996 29.2125C29.8057 28.7918 29.9934 28.3622 30.1621 27.925C30.0871 28.2375 29.9496 28.675 29.9121 28.9625C30.1746 29.0125 30.5621 29.0001 30.8496 29.0126Z" fill="#009B3A" stroke="black" stroke-width="0.0125"/>
<path d="M29.8258 29.1875C30.0438 28.8771 30.2646 28.5688 30.4883 28.2625L29.6508 29.0125L29.6133 29.25L29.8133 29.1875" fill="#009B3A"/>
<path d="M29.8258 29.1875C30.0438 28.8771 30.2646 28.5688 30.4883 28.2625L29.6508 29.0125L29.6133 29.25L29.8133 29.1875" stroke="black" stroke-width="0.0125"/>
<path d="M30.6504 29.125C30.3004 29.1625 29.7504 29.1875 29.4004 29.25C29.6004 28.9125 29.8754 28.35 30.0254 28C29.9379 28.3125 29.7754 28.7375 29.7254 29.025C29.9754 29.0875 30.3754 29.0875 30.6504 29.125Z" fill="#009B3A" stroke="black" stroke-width="0.0125"/>
<path d="M29.7008 29.2876L30.5508 28.5376L29.5883 29.0626L29.4883 29.2876H29.7008Z" fill="#009B3A" stroke="black" stroke-width="0.0125"/>
<path d="M30.5508 29.1625C30.1883 29.2375 29.6383 29.325 29.3008 29.4375C29.4633 29.075 29.6758 28.4875 29.8008 28.125C29.7383 28.45 29.6258 28.875 29.6008 29.175C29.8633 29.2125 30.2633 29.1625 30.5508 29.1625Z" fill="#009B3A" stroke="black" stroke-width="0.0125"/>
<path d="M29.5633 29.325L30.1008 28.3125L29.3633 29.1875V29.4125L29.5633 29.325Z" fill="#009B3A" stroke="black" stroke-width="0.0125"/>
<path d="M30.5504 29.2251C30.1754 29.3126 29.5754 29.4501 29.2129 29.5876C29.3504 29.1751 29.5129 28.5126 29.6129 28.1001C29.5754 28.4626 29.4879 28.9501 29.5129 29.2751C29.8004 29.3001 30.2379 29.2376 30.5504 29.2251Z" fill="#009B3A" stroke="black" stroke-width="0.0125"/>
<path d="M29.4496 29.55L30.1371 28.55L29.2621 29.3625L29.2246 29.6125L29.4496 29.55Z" fill="#009B3A" stroke="black" stroke-width="0.0125"/>
<path d="M30.4004 29.3376C30.0254 29.4626 29.4379 29.6126 29.0879 29.7626C29.2129 29.3501 29.3379 28.6876 29.4129 28.2751C29.3879 28.6376 29.3379 29.1251 29.3629 29.4376C29.6629 29.4501 30.0879 29.3626 30.4004 29.3376Z" fill="#009B3A" stroke="black" stroke-width="0.0125"/>
<path d="M29.3129 29.7L29.8379 28.575L29.0879 29.5499V29.7999L29.3129 29.7Z" fill="#009B3A" stroke="black" stroke-width="0.0125"/>
<path d="M30.2504 29.4876C29.8754 29.5751 29.2754 29.6876 28.9004 29.8126C29.0629 29.4126 29.2504 28.7501 29.3629 28.3501C29.3129 28.7126 29.2129 29.1876 29.2129 29.5126C29.5129 29.5501 29.9379 29.4876 30.2504 29.4876Z" fill="#009B3A" stroke="black" stroke-width="0.0125"/>
<path d="M29.1867 29.8125L30.0367 28.9375L29.0367 29.5875L28.9492 29.8375L29.1992 29.8125" fill="#009B3A"/>
<path d="M29.1867 29.8125L30.0367 28.9375L29.0367 29.5875L28.9492 29.8375L29.1992 29.8125" stroke="black" stroke-width="0.0125"/>
<path d="M30.0875 29.6376C29.7125 29.6876 29.1125 29.7376 28.75 29.8376C28.925 29.4376 29.15 28.8001 29.2875 28.4001C29.2125 28.7501 29.0875 29.2376 29.0625 29.5626C29.35 29.6251 29.775 29.6126 30.0875 29.6376Z" fill="#009B3A" stroke="black" stroke-width="0.0125"/>
<path d="M29.025 29.725L29.6 28.625L28.8125 29.55V29.8L29.025 29.725Z" fill="#009B3A" stroke="black" stroke-width="0.0125"/>
<path d="M30.125 29.5C29.7125 29.675 29.075 29.9125 28.6875 30.125C28.8125 29.625 28.9375 28.85 29.025 28.375C29.0125 28.7875 28.95 29.3625 28.9875 29.725C29.325 29.725 29.7875 29.575 30.1375 29.5125" fill="#009B3A"/>
<path d="M30.125 29.5C29.7125 29.675 29.075 29.9125 28.6875 30.125C28.8125 29.625 28.9375 28.85 29.025 28.375C29.0125 28.7875 28.95 29.3625 28.9875 29.725C29.325 29.725 29.7875 29.575 30.1375 29.5125" stroke="black" stroke-width="0.0125"/>
<path d="M28.9367 30.05L29.6367 28.8L28.7242 29.8625L28.6992 30.1625L28.9492 30.05" fill="#009B3A"/>
<path d="M28.9367 30.05L29.6367 28.8L28.7242 29.8625L28.6992 30.1625L28.9492 30.05" stroke="black" stroke-width="0.0125"/>
<path d="M29.9758 29.6626C29.5633 29.8501 28.9258 30.1251 28.5508 30.3501C28.6508 29.8501 28.7508 29.0876 28.8133 28.6001C28.8133 29.0126 28.7883 29.5876 28.8383 29.9376C29.1758 29.9126 29.6258 29.7501 29.9633 29.6626" fill="#009B3A"/>
<path d="M29.9758 29.6626C29.5633 29.8501 28.9258 30.1251 28.5508 30.3501C28.6508 29.8501 28.7508 29.0876 28.8133 28.6001C28.8133 29.0126 28.7883 29.5876 28.8383 29.9376C29.1758 29.9126 29.6258 29.7501 29.9633 29.6626" stroke="black" stroke-width="0.0125"/>
<path d="M28.8008 30.2501L29.3008 28.9001L28.5508 30.1001L28.5633 30.3876L28.8008 30.2501Z" fill="#009B3A" stroke="black" stroke-width="0.0125"/>
<path d="M29.7875 29.7751C29.3875 29.9751 28.75 30.2501 28.375 30.4751C28.475 29.9751 28.575 29.2126 28.625 28.7251C28.6375 29.1376 28.6125 29.7001 28.6625 30.0626C28.9875 30.0251 29.45 29.8626 29.7875 29.7751Z" fill="#009B3A" stroke="black" stroke-width="0.0125"/>
<path d="M28.6875 30.4126L29.4625 29.2126L28.475 30.1876L28.4375 30.4876L28.6875 30.4126Z" fill="#009B3A" stroke="black" stroke-width="0.0125"/>
<path d="M29.7492 29.7125C29.3992 30 28.8242 30.425 28.4992 30.75C28.4992 30.25 28.4242 29.475 28.3867 29C28.4867 29.4 28.5742 29.95 28.6992 30.275C29.0117 30.1625 29.4367 29.8875 29.7617 29.7125" fill="#009B3A"/>
<path d="M29.7492 29.7125C29.3992 30 28.8242 30.425 28.4992 30.75C28.4992 30.25 28.4242 29.475 28.3867 29C28.4867 29.4 28.5742 29.95 28.6992 30.275C29.0117 30.1625 29.4367 29.8875 29.7617 29.7125" stroke="black" stroke-width="0.0125"/>
<path d="M28.725 30.4626L28.8125 29.0376L28.4375 30.4126L28.5375 30.6876L28.725 30.4626Z" fill="#009B3A" stroke="black" stroke-width="0.0125"/>
<path d="M29.6496 29.85C29.2871 30.1375 28.7121 30.55 28.3996 30.8625C28.3996 30.3625 28.3246 29.6125 28.2871 29.125C28.3746 29.525 28.4621 30.075 28.5871 30.4C28.9121 30.2875 29.3371 30.0125 29.6496 29.85Z" fill="#009B3A" stroke="black" stroke-width="0.0125"/>
<path d="M28.625 30.7C28.7458 30.2364 28.8708 29.7739 29 29.3125L28.375 30.5875L28.4125 30.875L28.6375 30.7" fill="#009B3A"/>
<path d="M28.625 30.7C28.7458 30.2364 28.8708 29.7739 29 29.3125L28.375 30.5875L28.4125 30.875L28.6375 30.7" stroke="black" stroke-width="0.0125"/>
<path d="M29.6125 29.875C29.275 30.2125 28.725 30.7125 28.425 31.075C28.3625 30.575 28.2125 29.7875 28.125 29.3125C28.25 29.7 28.4125 30.25 28.575 30.575C28.9 30.425 29.3 30.0875 29.6125 29.875Z" fill="#009B3A" stroke="black" stroke-width="0.0125"/>
<path d="M28.6254 30.8751L28.7004 29.4001L28.3379 30.8376L28.4504 31.1126L28.6379 30.8876" fill="#009B3A"/>
<path d="M28.6254 30.8751L28.7004 29.4001L28.3379 30.8376L28.4504 31.1126L28.6379 30.8876" stroke="black" stroke-width="0.0125"/>
<path d="M29.4992 30.1251C29.1367 30.4251 28.5617 30.8751 28.2242 31.2126C28.2242 30.6876 28.1242 29.9001 28.0742 29.4001C28.1867 29.8126 28.2867 30.3751 28.4242 30.7126C28.7492 30.5876 29.1742 30.3001 29.4992 30.1251Z" fill="#009B3A" stroke="black" stroke-width="0.0125"/>
<path d="M28.5242 31.0501L29.0367 29.6501L28.2617 30.9001L28.2867 31.2001L28.5242 31.0501Z" fill="#009B3A" stroke="black" stroke-width="0.0125"/>
<path d="M29.5004 30.125C29.1754 30.475 28.6629 30.9875 28.3754 31.35C28.3254 30.8375 28.1754 30.05 28.0879 29.5625C28.2129 29.95 28.3629 30.5125 28.5254 30.8375C28.8254 30.6875 29.2004 30.3375 29.5004 30.125Z" fill="#009B3A" stroke="black" stroke-width="0.0125"/>
<path d="M28.5508 31.1251L28.4883 29.6501L28.2383 31.1126L28.3883 31.3626L28.5508 31.1126" fill="#009B3A"/>
<path d="M28.5508 31.1251L28.4883 29.6501L28.2383 31.1126L28.3883 31.3626L28.5508 31.1126" stroke="black" stroke-width="0.0125"/>
<path d="M29.3371 30.25C29.0246 30.5875 28.5246 31.1 28.2496 31.475C28.1871 30.95 28.0121 30.1625 27.9121 29.675C28.0496 30.075 28.2121 30.6375 28.3871 30.9625C28.6746 30.8 29.0496 30.4625 29.3371 30.2375" fill="#009B3A"/>
<path d="M29.3371 30.25C29.0246 30.5875 28.5246 31.1 28.2496 31.475C28.1871 30.95 28.0121 30.1625 27.9121 29.675C28.0496 30.075 28.2121 30.6375 28.3871 30.9625C28.6746 30.8 29.0496 30.4625 29.3371 30.2375" stroke="black" stroke-width="0.0125"/>
<path d="M28.4625 31.2751L28.625 29.7751L28.1875 31.1876L28.275 31.4751L28.4625 31.2751Z" fill="#009B3A" stroke="black" stroke-width="0.0125"/>
<path d="M29.275 30.3C28.9875 30.675 28.525 31.2375 28.275 31.625C28.175 31.125 27.95 30.35 27.8125 29.875C27.975 30.25 28.1875 30.8 28.375 31.1125C28.65 30.925 29 30.5375 29.275 30.3Z" fill="#009B3A" stroke="black" stroke-width="0.0125"/>
<path d="M28.4508 31.4126L28.3633 29.9126L28.1758 31.4001L28.3008 31.6501L28.4508 31.4001" fill="#009B3A"/>
<path d="M28.4508 31.4126L28.3633 29.9126L28.1758 31.4001L28.3008 31.6501L28.4508 31.4001" stroke="black" stroke-width="0.0125"/>
<path d="M29.25 30.3751C28.975 30.7751 28.5375 31.3751 28.3125 31.7751C28.1875 31.2751 27.9125 30.5126 27.75 30.0376C27.9375 30.4126 28.175 30.9501 28.375 31.2501C28.65 31.0501 28.975 30.6501 29.25 30.3751Z" fill="#009B3A" stroke="black" stroke-width="0.0125"/>
<path d="M28.5504 31.55L28.7004 30.05L28.2754 31.4625L28.3629 31.7626L28.5504 31.55Z" fill="#009B3A" stroke="black" stroke-width="0.0125"/>
<path d="M29.1883 30.525C28.9508 30.95 28.5758 31.5999 28.3883 32.0374C28.2133 31.5499 27.8883 30.8375 27.6758 30.3875C27.9008 30.7375 28.1758 31.2375 28.4133 31.5125C28.6633 31.2625 28.9508 30.825 29.1883 30.5125" fill="#009B3A"/>
<path d="M29.1883 30.525C28.9508 30.95 28.5758 31.5999 28.3883 32.0374C28.2133 31.5499 27.8883 30.8375 27.6758 30.3875C27.9008 30.7375 28.1758 31.2375 28.4133 31.5125C28.6633 31.2625 28.9508 30.825 29.1883 30.5125" stroke="black" stroke-width="0.0125"/>
<path d="M28.4992 31.675L28.0742 30.25L28.2117 31.75L28.4117 31.9625L28.4992 31.675Z" fill="#009B3A" stroke="black" stroke-width="0.0125"/>
<path d="M29.175 30.6875C28.925 31.1125 28.55 31.7626 28.35 32.2001C28.1625 31.7126 27.8375 31 27.625 30.55C27.85 30.9 28.125 31.4 28.375 31.675C28.625 31.425 28.9375 30.9875 29.175 30.6875Z" fill="#009B3A" stroke="black" stroke-width="0.0125"/>
<path d="M28.5121 31.95L28.3621 30.45L28.2246 31.95L28.3746 32.2L28.5121 31.95Z" fill="#009B3A" stroke="black" stroke-width="0.0125"/>
<path d="M29.2004 30.8251C28.9504 31.2501 28.5504 31.8751 28.3504 32.3126C28.1754 31.8251 27.8504 31.1001 27.6504 30.6501C27.8754 31.0001 28.1504 31.5001 28.3754 31.7751C28.6504 31.5501 28.9504 31.1126 29.2004 30.8251Z" fill="#009B3A" stroke="black" stroke-width="0.0125"/>
<path d="M28.5004 32.0626L28.2254 30.5876L28.2129 32.1001L28.3754 32.3376L28.5004 32.0626Z" fill="#009B3A" stroke="black" stroke-width="0.0125"/>
<path d="M29.1008 31.0375C28.8258 31.4375 28.4008 32.0375 28.1758 32.4625C28.0258 31.9625 27.7383 31.2125 27.5508 30.7625C27.7633 31.125 28.0133 31.6375 28.2258 31.9375C28.5008 31.7125 28.8383 31.3125 29.1008 31.0375Z" fill="#009B3A" stroke="black" stroke-width="0.0125"/>
<path d="M28.3754 32.2251L28.5004 30.7251L28.0879 32.1501L28.1879 32.4376L28.3754 32.2251Z" fill="#009B3A" stroke="black" stroke-width="0.0125"/>
<path d="M29.1133 31.075C28.8883 31.5125 28.5133 32.175 28.3258 32.6125C28.1383 32.1375 27.7758 31.4375 27.5508 31C27.8008 31.3375 28.0883 31.825 28.3383 32.075C28.5883 31.825 28.8758 31.375 29.1133 31.075Z" fill="#009B3A" stroke="black" stroke-width="0.0125"/>
<path d="M28.3258 32.3499L27.8633 30.95L28.0383 32.45L28.2383 32.65L28.3258 32.3499Z" fill="#009B3A" stroke="black" stroke-width="0.0125"/>
<path d="M29.05 31.1875C28.8875 31.6625 28.625 32.4 28.5 32.875C28.25 32.45 27.7875 31.8375 27.5 31.4625C27.7875 31.7375 28.15 32.15 28.4375 32.3375C28.65 32.05 28.8625 31.5375 29.05 31.1875Z" fill="#009B3A" stroke="black" stroke-width="0.0125"/>
<path d="M28.7383 32.4751L28.2383 31.0876L28.4508 32.5751L28.6508 32.7626L28.7383 32.4626" fill="#009B3A"/>
<path d="M28.7383 32.4751L28.2383 31.0876L28.4508 32.5751L28.6508 32.7626L28.7383 32.4626" stroke="black" stroke-width="0.0125"/>
<path d="M29.0492 31.3376C28.8867 31.8126 28.6242 32.5501 28.5117 33.0251C28.2617 32.6001 27.7867 32.0001 27.5117 31.6251C27.7867 31.9001 28.1492 32.3001 28.4367 32.5001C28.6492 32.2001 28.8617 31.6876 29.0492 31.3376Z" fill="#009B3A" stroke="black" stroke-width="0.0125"/>
<path d="M28.7379 32.7001L28.0879 31.4126L28.4629 32.8501L28.6879 33.0126L28.7379 32.7001Z" fill="#009B3A" stroke="black" stroke-width="0.0125"/>
<path d="M29 31.45C28.9 31.95 28.725 32.7125 28.6625 33.2C28.35 32.825 27.825 32.2875 27.5 31.95C27.8125 32.2 28.225 32.5375 28.525 32.7C28.7 32.3625 28.85 31.825 29 31.45Z" fill="#009B3A" stroke="black" stroke-width="0.0125"/>
<path d="M28.775 32.9124L28.4375 31.45L28.4875 32.9625L28.675 33.1875L28.775 32.9124Z" fill="#009B3A" stroke="black" stroke-width="0.0125"/>
<path d="M29 31.6125C28.95 32.1125 28.8375 32.9001 28.8375 33.4001C28.4875 33.0626 27.9125 32.6 27.5625 32.3125C27.9 32.5 28.3375 32.8 28.65 32.9125C28.7875 32.5625 28.9 32 29 31.6125Z" fill="#009B3A" stroke="black" stroke-width="0.0125"/>
<path d="M28.8 33.0126L27.875 31.9626L28.575 33.2376L28.825 33.3251L28.8 33.0126Z" fill="#009B3A" stroke="black" stroke-width="0.0125"/>
<path d="M29.0242 31.7876C28.9617 32.2876 28.8492 33.0751 28.8492 33.5751C28.4992 33.2376 27.9242 32.7751 27.5742 32.4876C27.9117 32.6751 28.3492 32.9751 28.6617 33.0876C28.8117 32.7376 28.9117 32.1876 29.0242 31.7876Z" fill="#009B3A" stroke="black" stroke-width="0.0125"/>
<path d="M28.9 33.25C28.6585 32.8356 28.421 32.4189 28.1875 32L28.6375 33.4125L28.875 33.5625L28.9 33.2625" fill="#009B3A"/>
<path d="M28.9 33.25C28.6585 32.8356 28.421 32.4189 28.1875 32L28.6375 33.4125L28.875 33.5625L28.9 33.2625" stroke="black" stroke-width="0.0125"/>
<path d="M29.0629 32C29.0254 32.5 28.9504 33.3 28.9629 33.8C28.6004 33.475 28.0129 33.05 27.6504 32.7875C27.9879 32.95 28.4379 33.225 28.7629 33.3125C28.8879 32.95 28.9629 32.4 29.0629 32Z" fill="#009B3A" stroke="black" stroke-width="0.0125"/>
<path d="M29 33.5C28.975 33.5 28.125 32.375 28.125 32.375L28.75 33.7L29 33.8V33.5Z" fill="#009B3A" stroke="black" stroke-width="0.0125"/>
<path d="M29.0746 32.2375C29.0371 32.7375 28.9746 33.5375 28.9871 34.0375C28.563 33.6815 28.1208 33.3477 27.6621 33.0375C27.9996 33.2 28.4621 33.4625 28.7871 33.55C28.9121 33.1875 28.9746 32.6375 29.0746 32.2375Z" fill="#009B3A" stroke="black" stroke-width="0.0125"/>
<path d="M29.0742 33.6751L28.4492 32.3501L28.7992 33.8001L29.0117 33.9876L29.0742 33.6751Z" fill="#009B3A" stroke="black" stroke-width="0.0125"/>
<path d="M29.1004 32.375C29.1004 32.9 29.1129 33.7 29.1754 34.1875C28.8004 33.9375 28.1629 33.575 27.7754 33.3625C28.1254 33.4875 28.6004 33.7 28.9254 33.7375C29.0129 33.3625 29.0504 32.8 29.0879 32.3875" fill="#009B3A"/>
<path d="M29.1004 32.375C29.1004 32.9 29.1129 33.7 29.1754 34.1875C28.8004 33.9375 28.1629 33.575 27.7754 33.3625C28.1254 33.4875 28.6004 33.7 28.9254 33.7375C29.0129 33.3625 29.0504 32.8 29.0879 32.3875" stroke="black" stroke-width="0.0125"/>
<path d="M29.1758 33.625L28.0508 32.8625L29.0008 33.9001L29.2633 33.925L29.1758 33.625Z" fill="#009B3A" stroke="black" stroke-width="0.0125"/>
<path d="M29.1258 32.4375C29.1758 32.95 29.2133 33.75 29.3008 34.2375C28.8349 33.9591 28.3551 33.7046 27.8633 33.475C28.2133 33.575 28.7008 33.7625 29.0258 33.8C29.1008 33.425 29.1008 32.85 29.1258 32.4375Z" fill="#009B3A" stroke="black" stroke-width="0.0125"/>
<path d="M29.3008 33.9126L28.3633 32.8376L29.0758 34.1251L29.3258 34.2251L29.3008 33.9126Z" fill="#009B3A" stroke="black" stroke-width="0.0125"/>
<path d="M29.2133 32.625C29.2758 33.15 29.3508 33.9375 29.4633 34.425C29.0508 34.2 28.4008 33.925 27.9883 33.7375C28.3633 33.825 28.8383 33.9875 29.1758 34C29.2258 33.625 29.2008 33.05 29.2133 32.625Z" fill="#009B3A" stroke="black" stroke-width="0.0125"/>
<path d="M29.475 34.0875L28.375 33.3125L29.3125 34.375H29.5625L29.475 34.0875Z" fill="#009B3A" stroke="black" stroke-width="0.0125"/>
<path d="M29.2508 32.8501C29.3508 33.3501 29.4758 34.1376 29.6133 34.6251C29.1883 34.4251 28.5258 34.2126 28.1133 34.0751C28.4758 34.1251 28.9758 34.2376 29.3008 34.2251C29.3258 33.8376 29.2633 33.2751 29.2508 32.8501Z" fill="#009B3A" stroke="black" stroke-width="0.0125"/>
<path d="M29.6 34.2501L28.6875 33.1626L29.375 34.4626L29.625 34.5626L29.6 34.2501Z" fill="#009B3A" stroke="black" stroke-width="0.0125"/>
<path d="M29.3008 33C29.4508 33.4875 29.6508 34.2501 29.8383 34.7126C29.4008 34.5876 28.7133 34.45 28.3008 34.3625C28.6633 34.3625 29.1633 34.4125 29.4883 34.3625C29.4883 33.9625 29.3633 33.4125 29.3008 32.9875" fill="#009B3A"/>
<path d="M29.3008 33C29.4508 33.4875 29.6508 34.2501 29.8383 34.7126C29.4008 34.5876 28.7133 34.45 28.3008 34.3625C28.6633 34.3625 29.1633 34.4125 29.4883 34.3625C29.4883 33.9625 29.3633 33.4125 29.3008 32.9875" stroke="black" stroke-width="0.0125"/>
<path d="M29.65 34.2501L28.375 33.9751L29.5875 34.5751L29.8375 34.4876L29.65 34.2501Z" fill="#009B3A" stroke="black" stroke-width="0.0125"/>
<path d="M29.3875 33.15C29.5375 33.6375 29.7375 34.3999 29.9125 34.8624C29.475 34.7374 28.7875 34.6 28.375 34.5125C28.7375 34.5125 29.25 34.5625 29.5625 34.5125C29.5625 34.1125 29.4375 33.5625 29.3875 33.1375" fill="#009B3A"/>
<path d="M29.3875 33.15C29.5375 33.6375 29.7375 34.3999 29.9125 34.8624C29.475 34.7374 28.7875 34.6 28.375 34.5125C28.7375 34.5125 29.25 34.5625 29.5625 34.5125C29.5625 34.1125 29.4375 33.5625 29.3875 33.1375" stroke="black" stroke-width="0.0125"/>
<path d="M29.8617 34.3751C29.8617 34.4001 28.6367 33.7876 28.6367 33.7876L29.7367 34.6876L29.9867 34.6626L29.8617 34.3876" fill="#009B3A"/>
<path d="M29.8617 34.3751C29.8617 34.4001 28.6367 33.7876 28.6367 33.7876L29.7367 34.6876L29.9867 34.6626L29.8617 34.3876" stroke="black" stroke-width="0.0125"/>
<path d="M29.325 33.2375C29.575 33.675 29.925 34.3875 30.2 34.8C29.75 34.7625 29.05 34.7875 28.625 34.8C28.975 34.7125 29.475 34.6501 29.775 34.5251C29.7 34.1501 29.4625 33.625 29.325 33.2375Z" fill="#009B3A" stroke="black" stroke-width="0.0125"/>
<path d="M30.0504 34.5126L28.7754 34.1626L29.9754 34.8376L30.2254 34.7626L30.0504 34.5126Z" fill="#009B3A" stroke="black" stroke-width="0.0125"/>
<path d="M29.4617 33.425C29.7117 33.8625 30.0617 34.575 30.3367 34.975C29.8867 34.95 29.1867 34.975 28.7617 35C29.1242 34.9125 29.6242 34.8376 29.9242 34.7126C29.8242 34.3376 29.5992 33.8125 29.4492 33.425" fill="#009B3A"/>
<path d="M29.4617 33.425C29.7117 33.8625 30.0617 34.575 30.3367 34.975C29.8867 34.95 29.1867 34.975 28.7617 35C29.1242 34.9125 29.6242 34.8376 29.9242 34.7126C29.8242 34.3376 29.5992 33.8125 29.4492 33.425" stroke="black" stroke-width="0.0125"/>
<path d="M30.2129 34.6251L29.0254 33.9126L30.0629 34.9126H30.3379L30.2129 34.6251Z" fill="#009B3A" stroke="black" stroke-width="0.0125"/>
<path d="M29.5504 33.5376C29.8379 33.9501 30.2629 34.6126 30.5754 34.9876C30.1254 35.0126 29.4504 35.1376 29.0254 35.2126C29.3754 35.0876 29.8504 34.9376 30.1379 34.7626C30.0129 34.3876 29.7254 33.9126 29.5504 33.5376Z" fill="#009B3A" stroke="black" stroke-width="0.0125"/>
<path d="M30.3004 34.725L29.0254 34.7001L30.2879 35.0751L30.5129 34.9375L30.3004 34.725ZM31.0504 28.525L31.9629 28.3625L31.0504 28.3876L30.8879 28.475L31.0504 28.525Z" fill="#009B3A" stroke="black" stroke-width="0.0125"/>
<path d="M31.5496 28.7125C31.2871 28.6375 30.8746 28.5 30.5996 28.4375C30.9396 28.3027 31.2732 28.1526 31.5996 27.9875C31.3871 28.1125 31.0996 28.2875 30.9371 28.4125C31.0871 28.5125 31.3621 28.625 31.5621 28.7125" fill="#009B3A"/>
<path d="M31.5496 28.7125C31.2871 28.6375 30.8746 28.5 30.5996 28.4375C30.9396 28.3027 31.2732 28.1526 31.5996 27.9875C31.3871 28.1125 31.0996 28.2875 30.9371 28.4125C31.0871 28.5125 31.3621 28.625 31.5621 28.7125" stroke="black" stroke-width="0.0125"/>
<path d="M31.0004 28.55L31.9004 28.3L30.9754 28.425L30.8379 28.525L31.0004 28.55Z" fill="#009B3A" stroke="black" stroke-width="0.0125"/>
<path d="M31.6 28.7875C31.2875 28.75 30.8 28.6875 30.5 28.6875C30.725 28.4875 31.05 28.1375 31.25 27.9375C31.125 28.125 30.9 28.3875 30.8125 28.575C31.025 28.6625 31.3625 28.7125 31.6 28.7875Z" fill="#009B3A" stroke="black" stroke-width="0.0125"/>
<path d="M30.6754 28.625L31.6004 28.5L30.7004 28.4875L30.5254 28.5625L30.6754 28.6125" fill="#009B3A"/>
<path d="M30.6754 28.625L31.6004 28.5L30.7004 28.4875L30.5254 28.5625L30.6754 28.6125" stroke="black" stroke-width="0.0125"/>
<path d="M31.3633 28.8125C31.0758 28.7625 30.6508 28.6625 30.3633 28.6375C30.6258 28.5125 31.0258 28.2625 31.2758 28.1375C31.0883 28.2625 30.8258 28.45 30.6883 28.575C30.8633 28.6625 31.1508 28.7375 31.3633 28.825" fill="#009B3A"/>
<path d="M31.3633 28.8125C31.0758 28.7625 30.6508 28.6625 30.3633 28.6375C30.6258 28.5125 31.0258 28.2625 31.2758 28.1375C31.0883 28.2625 30.8258 28.45 30.6883 28.575C30.8633 28.6625 31.1508 28.7375 31.3633 28.825" stroke="black" stroke-width="0.0125"/>
<path d="M30.5996 28.6L31.4121 28.25L30.5121 28.5L30.4121 28.6H30.5996Z" fill="#009B3A" stroke="black" stroke-width="0.0125"/>
<path d="M31.3375 28.9249C31.0875 28.8249 30.7375 28.6625 30.5 28.5875C30.6875 28.425 30.9375 28.125 31.1 27.95C30.975 28.125 30.8125 28.3625 30.75 28.5375C30.9 28.6625 31.15 28.8 31.3375 28.9125" fill="#009B3A"/>
<path d="M31.3375 28.9249C31.0875 28.8249 30.7375 28.6625 30.5 28.5875C30.6875 28.425 30.9375 28.125 31.1 27.95C30.975 28.125 30.8125 28.3625 30.75 28.5375C30.9 28.6625 31.15 28.8 31.3375 28.9125" stroke="black" stroke-width="0.0125"/>
<path d="M30.6383 28.6625L31.2758 28.3875L30.5883 28.4874L30.5008 28.6124L30.6383 28.6625ZM30.1258 34.625H28.8008L30.1383 34.9625L30.3633 34.8125L30.1133 34.625" fill="#009B3A"/>
<path d="M30.1258 34.625H28.8008L30.1383 34.9625L30.3633 34.8125L30.1133 34.625M30.6383 28.6625L31.2758 28.3875L30.5883 28.4874L30.5008 28.6124L30.6383 28.6625Z" stroke="black" stroke-width="0.0125"/>
<path d="M30.35 34.7L29 34.375L30.2875 35L30.5375 34.925L30.3375 34.675" fill="#009B3A"/>
<path d="M30.35 34.7L29 34.375L30.2875 35L30.5375 34.925L30.3375 34.675" stroke="black" stroke-width="0.0125"/>
<path d="M30.5633 34.7876L29.2383 34.7126L30.5633 35.1251L30.7883 35.0001L30.5633 34.7876Z" fill="#009B3A" stroke="black" stroke-width="0.0125"/>
<path d="M29.7258 33.8501C30.0633 34.2251 30.5883 34.8376 30.9508 35.1751C30.5008 35.2376 29.8258 35.4251 29.4258 35.5251C29.7508 35.3751 30.2133 35.1876 30.4758 35.0001C30.3008 34.6501 29.9508 34.2001 29.7258 33.8501Z" fill="#009B3A" stroke="black" stroke-width="0.0125"/>
<path d="M30.7508 34.8501L29.4258 34.4126L30.6758 35.1626L30.9258 35.1001L30.7508 34.8501Z" fill="#009B3A" stroke="black" stroke-width="0.0125"/>
<path d="M29.8496 33.9375C30.2246 34.275 30.7871 34.825 31.1746 35.125C30.7496 35.25 30.1121 35.5125 29.7246 35.675C30.0246 35.475 30.4746 35.2375 30.6996 35.0125C30.4996 34.675 30.0996 34.2625 29.8496 33.9375Z" fill="#009B3A" stroke="black" stroke-width="0.0125"/>
<path d="M30.8496 34.9375L29.5996 35.1875L30.9246 35.275L31.1121 35.0875L30.8621 34.9375" fill="#009B3A"/>
<path d="M30.8496 34.9375L29.5996 35.1875L30.9246 35.275L31.1121 35.0875L30.8621 34.9375" stroke="black" stroke-width="0.0125"/>
<path d="M30.5996 34.8501L29.2871 34.9501L30.6371 35.1876L30.8496 35.0251L30.5996 34.8501Z" fill="#009B3A" stroke="black" stroke-width="0.0125"/>
<path d="M30.8371 34.9251L29.4746 34.7126L30.8121 35.2501L31.0621 35.1501L30.8371 34.9251Z" fill="#009B3A" stroke="black" stroke-width="0.0125"/>
<path d="M31.0633 35L29.7383 35.025L31.0883 35.325L31.3008 35.1875L31.0633 35Z" fill="#009B3A" stroke="black" stroke-width="0.0125"/>
<path d="M30.1496 34.125C30.5246 34.475 31.0871 35.05 31.4746 35.35C31.0246 35.45 30.3746 35.675 29.9746 35.8125C30.2871 35.6375 30.7371 35.4375 30.9871 35.225C30.7871 34.875 30.3996 34.45 30.1496 34.125Z" fill="#009B3A" stroke="black" stroke-width="0.0125"/>
<path d="M31.2504 35.0501L29.9004 34.7126L31.2004 35.3626L31.4504 35.2876L31.2504 35.0501Z" fill="#009B3A" stroke="black" stroke-width="0.0125"/>
<path d="M30.2754 34.2C30.6879 34.5125 31.2879 35.0249 31.7004 35.2874C31.2217 35.4866 30.7505 35.7034 30.2879 35.9375C30.5754 35.725 31.0004 35.45 31.2129 35.2125C30.9879 34.8875 30.5629 34.5125 30.2754 34.2Z" fill="#009B3A" stroke="black" stroke-width="0.0125"/>
<path d="M31.375 35.125L30.125 35.4625H31.4625L31.625 35.2625L31.375 35.125Z" fill="#009B3A" stroke="black" stroke-width="0.0125"/>
<path d="M33.0758 33.2625L32.0633 32.5625L31.0633 33.2625L31.4383 32.1375L30.5508 31.45H31.6758L32.0633 30.325L32.4383 31.45H33.5758L32.7008 32.15L33.0758 33.275V33.2625Z" fill="#FEDF00" stroke="black" stroke-width="0.0625"/>
</g>
<defs>
<clipPath id="clip0_10790_11692">
<rect width="64" height="64" rx="32" fill="white"/>
</clipPath>
</defs>
</svg>
