<svg width="64" height="64" viewBox="0 0 64 64" fill="none" xmlns="http://www.w3.org/2000/svg">
<g clip-path="url(#clip0_10790_11848)">
<path d="M0 0H64V32H0V0Z" fill="#0038A8"/>
<path d="M0 32H64V64H0V32Z" fill="#CE1126"/>
<path d="M55.425 32L0 64V0" fill="white"/>
<path d="M3.15 5.55005L5.075 7.21255L7.3125 5.98755L6.3125 8.32505L8.1875 10.075L5.625 9.86255L4.55 12.1625L3.9625 9.68755L1.4375 9.36255L3.625 8.05005L3.15 5.55005ZM46.5125 28.625L46.5625 31.1625L48.975 32L46.5625 32.8376L46.5125 35.375L44.975 33.35L42.5375 34.1L44 32L42.5375 29.9125L44.975 30.65L46.5125 28.625ZM4.5625 51.8376L5.6375 54.1376L8.175 53.925L6.325 55.675L7.3125 58.0126L5.075 56.7875L3.15 58.4501L3.6375 55.9501L1.45 54.6376L3.975 54.3125L4.5625 51.8376ZM19.8625 18.5L19.0375 19.325L19.4375 25.6125L19.025 25.65L18.275 19.9125L17.5875 20.5875L18.6125 25.7125C17.79 25.8789 17.0083 26.206 16.3125 26.675L13.4 22.3251H12.4375L15.9625 26.925L15.65 27.1875L11.4875 22.4375H10.3125V23.625L15.0625 27.7875L14.7875 28.1L10.1875 24.5751V25.5375L14.5375 28.4501C14.0725 29.1467 13.7497 29.9283 13.5875 30.75L8.4625 29.725L7.775 30.4125L13.525 31.1625L13.475 31.5875L7.1875 31.175L6.35 32L7.1875 32.8251L13.475 32.425L13.5125 32.8376L7.775 33.5876L8.45 34.2751L13.575 33.25C13.7413 34.0726 14.0684 34.8542 14.5375 35.55L10.1875 38.4626V39.425L14.7875 35.9001L15.05 36.2126L10.3 40.375V41.55H11.5L15.6625 36.8L15.975 37.0751L12.45 41.675H13.4125L16.325 37.3251C17.0215 37.7903 17.8032 38.1132 18.625 38.2751L17.6 43.4001L18.2875 44.0876L19.0375 38.3376L19.45 38.3876L19.05 44.675L19.875 45.5126L20.7 44.675L20.3 38.3876L20.7125 38.35L21.4625 44.0876L22.15 43.4125L21.125 38.2875C21.9475 38.1212 22.7292 37.7941 23.425 37.3251L26.3375 41.675H27.3L23.75 37.0751L24.0625 36.8125L28.225 41.5625H29.4V40.375L24.65 36.2126L24.925 35.9001L29.525 39.425V38.4626L25.175 35.55C25.64 34.8534 25.9628 34.0718 26.125 33.25L31.25 34.2751L31.9375 33.5876L26.1875 32.8376L26.2375 32.425L32.525 32.8251L33.3625 32L32.525 31.175L26.2375 31.5875C26.2375 31.4375 26.2125 31.3 26.2 31.1625L31.9375 30.4125L31.2625 29.725L26.1375 30.75C25.9712 29.9275 25.6441 29.1459 25.175 28.4501L29.525 25.5375V24.5751L24.925 28.1L24.6625 27.7875L29.4125 23.625V22.4501H28.225L24.0625 27.2001L23.75 26.925L27.275 22.3251H26.3125L23.4 26.675C22.7033 26.2101 21.9217 25.8872 21.1 25.725L22.125 20.6L21.4375 19.9125L20.6875 25.6625L20.275 25.6125L20.675 19.325L19.8625 18.5Z" fill="#FCD116"/>
</g>
<defs>
<clipPath id="clip0_10790_11848">
<rect width="64" height="64" rx="32" fill="white"/>
</clipPath>
</defs>
</svg>
