<svg width="64" height="64" viewBox="0 0 64 64" fill="none" xmlns="http://www.w3.org/2000/svg">
<g clip-path="url(#clip0_10790_11853)">
<path d="M0 0H64V64H0V0Z" fill="#00247D"/>
<path d="M41.5258 33.5125C40.5626 34.447 39.8825 35.6341 39.5633 36.9375C38.9758 40.2875 38.1883 41.0375 36.9758 40.3125C36.9758 42.125 38.3133 42.2625 38.8883 41.2125C38.8883 42.9 39.4008 44.3625 40.5633 45.6125C41.0633 46.15 41.1508 45.7875 40.9133 45.2C40.6883 44.6125 40.6883 42.7375 40.2133 41.65C40.9633 42.2875 42.0633 41.925 41.9633 40.175C41.0133 40.85 40.0633 40.825 39.9633 39.2375C39.8383 37.375 40.4633 34.675 41.5258 33.5125ZM40.3883 20.15C40.4508 19.4875 40.3383 18.8 39.9258 18.375C39.1383 17.5375 38.3633 17.8125 37.7883 18.4875C36.9258 17.925 36.4758 19.9 35.4883 19.5625C35.6508 20.2 35.9133 20.475 36.4008 20.2625C35.8883 20.8125 36.4008 21.475 35.8008 22.1375C36.8883 22.5625 37.4758 21.8375 37.4258 20.5875C37.5137 20.6939 37.6255 20.778 37.7522 20.8329C37.8788 20.8878 38.0166 20.9119 38.1543 20.9034C38.292 20.8949 38.4258 20.8539 38.5447 20.7838C38.6636 20.7137 38.7642 20.6165 38.8383 20.5C38.2633 20.2875 38.2633 19.6875 38.4883 19.125C38.8383 18.2875 40.4883 18.325 40.3883 20.15Z" fill="#F7E017" stroke="black" stroke-width="0.05"/>
<path d="M42.9117 29.8001C41.6742 30.5751 39.4117 30.2501 39.2117 28.3376C38.9992 26.4126 40.5617 25.5626 40.9867 25.3126C41.6367 24.9251 42.1492 25.6126 41.9367 26.4251C42.6617 26.1126 42.8117 25.1126 42.4742 24.5376C43.4242 24.6251 44.3117 23.7626 44.6867 22.5376C44.3492 22.9126 43.4367 22.6626 42.6867 22.6001C42.9117 22.3001 42.9117 21.7126 42.8367 21.4001C42.0492 22.3626 40.9117 21.9251 39.3992 24.7251C39.757 23.2055 40.0904 21.6803 40.3992 20.1501C40.4867 18.3251 38.8492 18.2751 38.4992 19.1251C38.8742 19.6251 38.6742 20.2376 38.5367 21.1501C38.3742 22.2251 38.0367 24.7251 37.7242 25.5626C37.6367 24.2501 36.9117 24.1626 36.7742 23.5376C36.5617 23.7001 36.4492 24.1376 36.4867 24.4501C36.2367 24.1126 35.3492 24.5251 35.0242 24.0251C34.6742 24.8626 35.2367 25.6876 35.8117 26.0501C35.4742 26.0751 35.3992 26.5626 35.0242 26.5626C35.5242 27.2626 36.0367 27.5376 36.6242 27.6001C37.2242 27.6501 37.6617 27.9126 38.0242 28.7751C38.6117 30.1626 40.8242 31.0626 42.9117 29.8001Z" fill="#337321" stroke="black" stroke-width="0.05"/>
<path d="M45.987 28.1124C45.287 30.4124 43.3745 32.0499 42.512 32.2999C40.591 32.9888 38.8119 34.0224 37.262 35.3499C37.137 35.3124 37.012 35.2625 36.937 35.1875C36.537 34.85 36.212 33.7749 36.912 32.8499C39.0995 30.4124 41.4495 31.4749 42.912 29.7999C41.687 30.5749 39.4245 30.25 39.212 28.325C40.537 28.75 42.937 28.775 44.837 26.325C45.0995 26.6625 45.837 27.7249 45.987 28.1124Z" fill="#F7E017" stroke="black" stroke-width="0.05"/>
<path d="M41.5247 33.5126C40.4122 34.6376 39.8372 37.3875 39.9622 39.2375C39.9997 39.75 40.1122 40.1125 40.2997 40.3125C40.3747 39.2625 40.9997 36.5375 42.5622 35.3125C44.4965 33.774 45.9496 31.7136 46.7497 29.375C46.5997 28.9 46.3747 28.5625 45.9247 28.2375C45.1747 30.725 43.1247 31.9126 41.5372 33.5251L41.5247 33.5126Z" fill="#337321" stroke="black" stroke-width="0.05"/>
<path d="M45.2754 27.0376C44.7658 27.919 44.0215 28.6417 43.1254 29.1251C43.3129 28.8751 43.3754 28.5501 43.3754 28.2876C42.2879 28.7876 40.1004 28.7376 39.2129 28.3501C40.5379 28.7626 42.9379 28.7876 44.8379 26.3501C45.0254 26.6001 45.1879 26.8126 45.2754 27.0501V27.0376Z" fill="#316D3A" stroke="black" stroke-width="0.05"/>
<path d="M36.9131 32.8501C35.1381 34.8376 36.3131 36.5751 37.0006 36.9626C36.8131 38.3376 37.9131 38.1751 37.8881 39.3376C38.3256 39.0376 38.4506 38.2376 38.3881 37.5876C38.9381 38.3126 40.3506 37.5126 40.6631 38.8376C40.8506 37.3751 39.8881 35.9001 38.7006 36.0376C39.2006 35.5126 38.9131 34.6626 38.4506 34.4376C38.3631 35.5126 37.3256 35.5126 36.9381 35.1876C36.5381 34.8501 36.2131 33.7751 36.9131 32.8501Z" fill="#337321" stroke="black" stroke-width="0.05"/>
<path d="M40.751 45.475C40.5635 45.6 40.5885 45.9125 40.701 46.1C40.951 46.4875 40.526 47.375 41.326 47.5625C41.551 47.6125 41.726 47.4375 41.826 47.125C42.0635 46.25 41.2885 46.1625 41.2135 45.75C41.151 45.325 40.926 45.375 40.7635 45.475H40.751Z" fill="#F7E017" stroke="black" stroke-width="0.05"/>
<path d="M41.4242 47.1251C41.1742 47.2501 40.9242 47.4626 41.0492 48.4626C41.0867 48.8751 41.0617 49.8751 40.7617 49.8876C40.9492 50.0001 41.3367 50.1126 41.5117 49.8626C41.6617 50.1751 42.0117 50.0876 42.1617 49.7001C42.3367 49.8751 42.5992 49.5751 42.5992 49.3126C42.7617 49.4376 43.0992 49.2501 42.9992 48.6626C43.1992 48.7376 43.4617 48.5751 43.5492 48.4126C43.2617 48.3501 42.5242 47.8751 42.3492 47.5001C42.1742 47.1251 41.7242 46.9501 41.4242 47.1251Z" fill="#F7E017" stroke="black" stroke-width="0.05"/>
<path d="M37.3867 19.05C37.5117 18.85 37.6367 18.65 37.7867 18.4875M41.8242 22.725C42.0242 22.5875 42.3242 22.575 42.6867 22.6M41.4992 49.8625C41.4242 49.725 41.3867 49.1375 41.4492 48.7875M42.1617 49.7001C42.0367 49.5751 41.7867 49.1751 41.7367 48.8251M42.5992 49.3125C42.2909 49.0084 42.0669 48.6293 41.9492 48.2126M42.9992 48.6501C42.8117 48.6001 42.2242 48.15 41.9742 47.6625" stroke="black" stroke-width="0.05"/>
<path d="M53.7375 32.875C56.6 35.75 56.775 38.0125 56.3375 39.35C56.1125 38.1 54.925 36.1625 53.6875 35.6625L53.7375 32.875Z" fill="#F7E017" stroke="black" stroke-width="0.05"/>
<path d="M48.6246 31.275H53.9246V38.75C53.9246 45.125 50.9371 48.9 47.9246 50.9C44.8871 48.9 41.9121 45.125 41.9121 38.75V31.25H45.6246C45.6246 31.65 45.6621 32.225 46.0371 32.8125C46.9121 32.7125 47.9121 31.9375 48.5996 31.2625L48.6246 31.275Z" fill="#337321" stroke="black" stroke-width="0.05"/>
<path d="M53.9252 31.275V38.75C53.9252 40.675 53.6502 42.375 53.1877 43.8375L47.9252 32.3125L42.6502 43.8375C42.1471 42.189 41.8984 40.4735 41.9127 38.75V31.25L53.9252 31.275Z" fill="#006EC7" stroke="black" stroke-width="0.05"/>
<path d="M53.3496 43.3C53.2496 43.6375 53.0871 44.1876 52.9496 44.5251L47.9246 33.375L42.8746 44.5251C42.7496 44.1876 42.5746 43.65 42.4746 43.3L47.9121 31.3L53.3496 43.3Z" fill="#F7E017"/>
<path d="M50.3133 47.4001L50.8133 47.7001C51.0877 46.9187 51.1734 46.0834 51.0633 45.2626C50.7508 46.1751 49.7258 46.1376 49.4508 46.7001C49.6258 46.8001 49.7758 46.9376 49.9133 47.0501C49.4626 47.583 48.9101 48.0207 48.2883 48.3376V42.3751C48.2883 41.9501 48.1633 41.6001 48.1633 41.2501V40.0251C48.1633 39.7501 48.1258 39.3501 47.9133 39.3501C47.7008 39.3501 47.6633 39.7501 47.6633 40.0251V41.2626C47.6633 41.6001 47.5383 42.0126 47.5383 42.3751V48.3251C47.2883 47.4376 46.2883 47.7376 45.8133 46.8501C46.0008 46.8001 46.1883 46.7751 46.3758 46.8251C46.0258 45.4126 45.0758 45.3001 44.8883 44.8751C44.8883 45.4626 44.6758 46.8251 45.0133 47.4126C45.0758 47.3001 45.1883 47.1876 45.3258 47.1001C45.7133 48.1251 47.5008 48.1251 47.9133 49.8251C48.2508 49.2001 49.4633 48.4751 50.3133 47.3876V47.4001Z" fill="#F7E017" stroke="black" stroke-width="0.05"/>
<path d="M47.9129 42.4499C48.3129 42.4499 49.5629 42.2999 50.0254 42.2999C50.1504 42.2999 50.2379 42.0874 50.2379 41.8249C50.2379 41.5749 50.1379 41.3624 50.0254 41.3624C49.5754 41.3624 48.3129 41.2124 47.9129 41.2124C47.5254 41.2124 46.2629 41.3624 45.8129 41.3624C45.6879 41.3624 45.5879 41.5749 45.5879 41.8249C45.5879 42.0874 45.6879 42.2999 45.8129 42.2999C46.2629 42.2999 47.5254 42.4499 47.9129 42.4499ZM47.6629 40.0124C47.5763 39.9359 47.4659 39.8917 47.3504 39.8874C47.0879 39.8874 46.8629 40.1249 46.8629 40.3999C46.8629 40.6874 47.0754 40.9249 47.3504 40.9249C47.6004 40.9249 47.8254 40.6874 47.8254 40.3999C47.8254 40.1874 48.0879 40.1874 48.0879 40.3999C48.0879 40.8624 47.7629 41.2249 47.3379 41.2249C46.9254 41.2249 46.5879 40.8499 46.5879 40.3999C46.5879 39.9499 46.9379 39.5874 47.3379 39.5874C47.4629 39.5874 47.5879 39.6249 47.6879 39.6874L47.6629 40.0124Z" fill="#F7E017" stroke="black" stroke-width="0.05"/>
<path d="M45.8125 42.3C45.9375 42.3 46.025 42.0876 46.025 41.8251C46.025 41.5751 45.925 41.3625 45.8125 41.3625" fill="#F7E017"/>
<path d="M45.8125 42.3C45.9375 42.3 46.025 42.0876 46.025 41.8251C46.025 41.5751 45.925 41.3625 45.8125 41.3625" stroke="black" stroke-width="0.05"/>
<path d="M45.9867 42.3001C46.1117 42.3001 46.1992 42.0876 46.1992 41.8251C46.1992 41.5751 46.0992 41.3626 45.9867 41.3626M47.1242 42.4001C47.2742 42.4001 47.3867 42.1501 47.3867 41.8251C47.3867 41.5126 47.2742 41.2626 47.1367 41.2626M47.3992 42.4251C47.5492 42.4251 47.6742 42.1501 47.6742 41.8251C47.6742 41.5001 47.5492 41.2376 47.3992 41.2376M48.2992 42.4251C48.4492 42.4251 48.5617 42.1626 48.5617 41.8251C48.5617 41.5001 48.4367 41.2251 48.2992 41.2251M48.5742 42.4126C48.7242 42.4126 48.8492 42.1626 48.8492 41.8251C48.8492 41.5126 48.7242 41.2501 48.5742 41.2501M49.8242 42.3126C49.9492 42.3126 50.0492 42.1001 50.0492 41.8251C50.0492 41.5626 49.9492 41.3501 49.8242 41.3501M45.3242 47.1126C45.4617 47.0126 45.6367 46.9126 45.8242 46.8626L45.3242 47.1126ZM50.0617 47.1751L49.9242 47.0501L50.0617 47.1751ZM50.3117 47.4001C50.6557 46.9809 50.9109 46.496 51.0617 45.9751L50.3117 47.4001Z" fill="#F7E017"/>
<path d="M45.9867 42.3001C46.1117 42.3001 46.1992 42.0876 46.1992 41.8251C46.1992 41.5751 46.0992 41.3626 45.9867 41.3626M47.1242 42.4001C47.2742 42.4001 47.3867 42.1501 47.3867 41.8251C47.3867 41.5126 47.2742 41.2626 47.1367 41.2626M47.3992 42.4251C47.5492 42.4251 47.6742 42.1501 47.6742 41.8251C47.6742 41.5001 47.5492 41.2376 47.3992 41.2376M48.2992 42.4251C48.4492 42.4251 48.5617 42.1626 48.5617 41.8251C48.5617 41.5001 48.4367 41.2251 48.2992 41.2251M48.5742 42.4126C48.7242 42.4126 48.8492 42.1626 48.8492 41.8251C48.8492 41.5126 48.7242 41.2501 48.5742 41.2501M49.8242 42.3126C49.9492 42.3126 50.0492 42.1001 50.0492 41.8251C50.0492 41.5626 49.9492 41.3501 49.8242 41.3501M45.3242 47.1126C45.4617 47.0126 45.6367 46.9126 45.8242 46.8626M50.0617 47.1751L49.9242 47.0501M50.3117 47.4001C50.6557 46.9809 50.9109 46.496 51.0617 45.9751" stroke="black" stroke-width="0.05"/>
<path d="M46.8496 36.5751C46.8496 36.4376 46.9371 36.3751 47.0496 36.2751C47.1746 36.1626 47.2371 36.1001 47.3496 36.1001H48.8871C48.9871 36.1001 49.0121 36.1376 49.0121 36.2626V38.7501C49.0121 38.8751 48.9996 38.9126 48.8871 38.9126H46.8496V36.5501" fill="white"/>
<path d="M46.8496 36.5751C46.8496 36.4376 46.9371 36.3751 47.0496 36.2751C47.1746 36.1626 47.2371 36.1001 47.3496 36.1001H48.8871C48.9871 36.1001 49.0121 36.1376 49.0121 36.2626V38.7501C49.0121 38.8751 48.9996 38.9126 48.8871 38.9126H46.8496V36.5501" stroke="black" stroke-width="0.05"/>
<path d="M48.5 39.125C48.7 39.125 48.675 39.1125 48.8125 38.9375C48.9625 38.7625 48.9375 38.7875 48.9375 38.625V36.3499C48.9375 36.2374 48.9125 36.2 48.8125 36.2H47.4C47.2875 36.2 47.2375 36.2625 47.125 36.375C47.025 36.4625 46.9375 36.5125 46.9375 36.6375V39.125H48.5Z" fill="#E5E5E5" stroke="black" stroke-width="0.05"/>
<path d="M48.6496 39.0625C48.6496 39.1875 48.6246 39.225 48.5246 39.225H46.9871C46.8621 39.225 46.8496 39.1875 46.8496 39.0625V36.5876C46.8496 36.4626 46.8746 36.425 46.9871 36.425H48.5121C48.6371 36.425 48.6496 36.4626 48.6496 36.5876V39.0625Z" fill="white" stroke="black" stroke-width="0.05"/>
<path d="M51.6242 29.8251C51.9117 30.2126 51.9992 30.7501 51.8492 31.2626H51.3992C51.5867 30.6001 51.4742 29.9626 50.6867 29.8876C49.4992 29.7626 48.1242 32.4876 46.0617 32.8251C45.4367 31.9626 45.4742 30.3251 46.2492 29.5501C45.8492 28.1751 45.0117 26.6751 44.4367 26.0376C44.0617 25.9626 43.6117 25.9126 43.3242 25.9376C43.7184 25.1057 44.378 24.4285 45.1992 24.0126C45.2992 23.8126 45.4242 23.6376 45.5367 23.4626C45.6117 22.3876 49.8742 22.8876 50.7867 23.5501C50.7867 24.7501 51.1617 28.7376 51.6117 29.8251H51.6242Z" fill="#96877D" stroke="black" stroke-width="0.05"/>
<path d="M46.4496 30.5499C46.3496 28.6999 45.7246 27.1749 44.8496 26.1374C45.1666 26.2284 45.5007 26.243 45.8244 26.18C46.1482 26.117 46.4524 25.9782 46.7121 25.7749C47.4621 25.1749 49.4746 24.0999 50.2121 24.5624C50.2746 24.7124 50.2996 25.0624 50.2621 25.2749C50.0871 24.7249 48.1496 25.5874 47.5996 25.8499C47.0871 26.1374 46.8496 26.5249 47.0371 27.3999C46.7371 27.0999 46.8371 26.7999 46.5246 26.5874C46.6496 26.9499 46.7496 27.5874 46.7871 28.1249C46.6621 27.7499 46.4621 26.9499 46.0121 26.4749C46.4886 27.8469 46.6842 29.3008 46.5871 30.7499C46.8996 30.7499 47.5871 30.3749 47.8621 30.1249C47.6246 30.5374 46.9246 30.8249 46.4621 30.9374C46.2387 31.392 46.1272 31.8935 46.1371 32.3999C46.0996 31.8874 46.2371 30.6249 46.4496 30.5499ZM51.6246 29.8249C51.2246 29.3124 50.4996 29.0374 49.5871 29.3249C49.7371 29.2499 50.0371 29.1124 50.2996 29.0499C50.2746 28.7624 50.0496 27.5124 50.0121 27.2124L50.2621 27.0874C50.3871 27.8374 50.5621 28.6874 50.6621 29.0374C50.7496 29.0624 50.9371 29.1124 51.0996 29.2124C51.0246 28.9124 50.6246 26.8249 50.6371 26.5874L50.9871 26.3749C51.0894 27.5416 51.2986 28.6965 51.6121 29.8249H51.6246Z" fill="black"/>
<path d="M51.4121 31.2751C51.5871 30.6001 51.4746 29.9751 50.6871 29.8876C50.0621 29.8251 49.4121 30.5376 48.6246 31.2626L51.4121 31.2751ZM46.2621 25.2876C45.9121 25.3501 45.1371 25.2626 44.7371 25.1126C44.7621 24.9876 44.7996 24.8626 44.8621 24.7251C44.6121 24.9126 44.1496 25.2876 43.9746 25.5626C44.5246 25.6876 45.6871 25.7626 46.2621 25.2876Z" fill="#96877D" stroke="black" stroke-width="0.05"/>
<path d="M46.2508 29.5499C46.3758 29.9999 46.4633 30.4249 46.4758 30.7999M45.2008 24.0125C44.9883 24.3875 44.8008 24.7749 44.7383 25.1124C45.1383 25.2624 45.9133 25.35 46.2633 25.2875" stroke="black" stroke-width="0.05"/>
<path d="M44.4375 26.0375L44.85 26.1375C45.167 26.2285 45.5011 26.2431 45.8248 26.1801C46.1486 26.1171 46.4528 25.9783 46.7125 25.775C47.2875 25.275 48.875 23.725 50.6625 23.5625" stroke="black" stroke-width="0.05"/>
<path d="M43.9746 25.5626C44.5371 25.6876 45.6871 25.7626 46.2621 25.2876C47.3622 24.2859 48.7474 23.6523 50.2246 23.4751" stroke="black" stroke-width="0.05"/>
<path d="M53.7371 32.875C55.6871 34.5 57.1246 36.05 57.5496 38.5375C57.9746 41.0375 58.7621 41.7 59.7371 41.0375C59.4996 42.475 58.2996 42.65 57.2746 41.5375C57.3621 43.2 56.8121 45.2 55.3621 45.9125C55.2746 44.9125 55.8246 44.1375 55.6621 43.3125C55.5996 42.95 55.5746 42.1125 55.9746 41.725C55.1996 42.0375 53.9871 41.45 53.8746 40.1C54.7496 40.6 55.8996 40.675 56.3371 39.35C56.7746 38.0125 56.5871 35.7375 53.7371 32.8875V32.875ZM56.1996 19.9C56.7996 18.025 58.3871 18.2125 58.9246 19.0125C60.4871 17.9625 60.6871 20.3375 62.0246 19.875C61.9994 20.1092 61.8858 20.325 61.7069 20.4783C61.5281 20.6316 61.2974 20.7109 61.0621 20.7C61.5746 21.25 60.8496 22.0875 61.9371 22.5875C61.0121 23.1375 59.7121 22.5625 59.3621 21.0375C59.0621 21.75 57.9746 21.75 57.5246 21.1625C58.4871 20.875 58.4121 19.8125 57.8746 19.4C57.3371 18.975 56.3746 19.15 56.1996 19.9ZM51.4746 24.05C51.8946 25.6397 52.6825 27.1084 53.7746 28.3375C54.8996 29.55 56.5871 29.25 57.5246 28.0875C57.5496 30.4 55.5246 30.5875 54.3996 29.8625C53.9121 29.5375 53.5246 29.7 53.9871 30.2125C54.7121 31 56.2871 31.575 58.1496 32.05C61.3996 32.875 60.2496 35.9625 59.2996 35.925C59.5746 35.925 59.7996 35.5875 59.3996 35.1625C56.5746 32.125 50.8246 33.325 50.9121 26.55C50.3121 28.325 47.8246 27.6375 48.9871 25.525C49.3621 25.8875 50.0121 25.9125 50.1996 25.3625C50.3496 24.925 50.2496 24.175 49.5996 23.5375C49.6996 23.525 49.9371 23.5375 49.9121 23.2125C49.9371 23.4 50.0871 23.675 50.4496 23.5875C50.5496 23.775 50.6621 23.9125 50.8121 23.8375C50.8371 23.825 50.9371 23.775 50.8871 23.575C50.9246 23.95 51.2871 24.075 51.4746 24.05Z" fill="#337321" stroke="black" stroke-width="0.05"/>
<path d="M54.4123 29.8626C55.7623 30.9126 57.2873 30.9126 58.6873 28.9751C59.1248 28.3501 59.8248 27.8376 60.3123 27.7751C60.8123 27.7126 60.7873 27.1626 61.1498 27.0501C60.9248 26.9751 60.8248 26.6376 60.4748 26.6751C61.3498 26.3251 61.0998 25.4876 61.5248 25.0876C61.1748 25.2376 60.6248 24.6126 60.1248 25.4126C60.2498 25.0376 60.0873 24.6126 59.9623 24.4501C59.9998 24.8626 59.2748 24.9501 59.1248 26.0001C59.0498 26.6001 58.7873 26.5626 58.7373 25.6376C58.6998 24.9751 58.4373 23.1126 58.1123 22.1751C57.7873 21.2376 57.7123 19.9376 58.1498 19.7501C58.0873 19.6126 57.9873 19.5001 57.8748 19.4001C57.3373 18.9876 56.3873 19.1501 56.1998 19.9001C55.5998 21.7876 57.2998 22.8751 57.1498 24.9251C56.8998 23.4001 54.8248 23.0126 54.8498 21.5126C54.1748 21.8751 54.2748 22.5376 54.5248 23.0626C54.1123 22.2876 53.1498 23.5626 52.3373 22.5126C52.2498 23.9001 53.2748 24.4251 54.1123 24.4876C54.0309 24.6553 53.9841 24.8376 53.9748 25.0238C53.9654 25.21 53.9937 25.3961 54.0578 25.5711C54.122 25.7461 54.2208 25.9064 54.3482 26.0424C54.4757 26.1783 54.6293 26.2873 54.7998 26.3626C54.8248 24.8126 57.4998 25.4501 57.5248 28.1126C57.5498 30.3876 55.4998 30.5751 54.3998 29.8626H54.4123ZM58.1498 32.0501C61.3998 32.8751 60.2498 35.9626 59.2998 35.9251C58.6873 35.9251 58.1123 35.3001 58.0748 34.7876C57.3748 35.2251 57.5623 36.1001 58.0998 36.4501C56.6248 36.2376 56.0123 37.3876 55.9748 38.6501C56.2498 38.0626 57.0623 38.0251 57.3623 38.1501C57.6623 38.2751 58.4498 38.3501 58.7623 37.9251C58.5123 38.1876 58.9248 38.8001 58.5623 39.2751C59.7873 39.2126 60.3123 37.8626 60.1123 37.2626C61.6873 35.5501 61.3873 32.7376 58.1498 32.0501ZM55.6748 45.2251C55.8873 45.3876 55.8623 45.7251 55.7123 45.9251C55.4248 46.3501 55.8623 47.3501 54.9748 47.5251C54.7123 47.5751 54.5248 47.3751 54.4373 47.0251C54.1873 46.0251 55.0623 45.9626 55.1623 45.5001C55.2498 45.0376 55.4998 45.1001 55.6748 45.2251Z" fill="#F7E017" stroke="black" stroke-width="0.05"/>
<path d="M54.8742 47.025C55.1617 47.2 55.4117 47.4375 55.2492 48.5375C55.1867 49 55.1742 50.125 55.5117 50.1625C55.2992 50.2625 54.8617 50.375 54.6867 50.0875C54.4992 50.425 54.0992 50.3 53.9617 49.8625C53.7492 50.05 53.4617 49.7 53.4867 49.4C53.2992 49.525 52.9367 49.3125 53.0492 48.65C52.8242 48.7375 52.5492 48.5375 52.4492 48.3625C52.7742 48.3 53.6117 47.8125 53.8242 47.4C54.0242 47 54.5367 46.825 54.8742 47.025Z" fill="#F7E017" stroke="black" stroke-width="0.05"/>
<path d="M54.6883 50.0876C54.7758 49.9376 54.8383 49.2876 54.7758 48.8876M53.9633 49.8751C54.1133 49.7501 54.4008 49.3001 54.4633 48.9126M53.4883 49.4126C53.6633 49.3126 54.1258 48.6626 54.2383 48.2126M53.0508 48.6626C53.5425 48.4379 53.9529 48.0668 54.2258 47.6001" stroke="black" stroke-width="0.05"/>
<path d="M50.9127 26.5626C50.8752 29.4001 51.8752 30.8376 53.2502 31.7751C52.7377 31.4001 52.9502 30.1626 52.2627 29.7626C52.4252 29.7501 52.6877 30.0126 53.0877 29.9126C52.9002 29.3876 52.5752 28.5876 51.8127 28.4751C52.0127 28.4501 52.4377 28.5251 52.7252 28.4001C52.3252 27.6751 51.2752 28.0251 50.9127 26.5626ZM50.6752 23.8501C50.5877 23.8126 50.5127 23.7251 50.4502 23.6001C50.0752 23.6876 49.9502 23.4001 49.9127 23.2251C49.9377 23.5376 49.7002 23.5251 49.6002 23.5376C50.2502 24.1876 50.3502 24.9376 50.2002 25.3626C50.0127 25.9126 49.3627 25.8876 48.9877 25.5251C48.9377 26.7126 50.2252 27.1001 50.6877 25.6126C50.6877 25.8626 50.9502 25.8376 51.0252 26.1626C51.3502 25.5376 51.1002 24.6126 50.6752 23.8501Z" fill="#F7E017" stroke="black" stroke-width="0.05"/>
<path d="M48.6252 18.225C48.0896 17.5687 47.7981 16.7471 47.8002 15.9C47.8252 15.3 48.0377 14.625 48.7752 14.9C48.5502 14.9 48.7127 15.4625 48.4627 15.525C48.6627 15.6 48.9252 15.4 48.9627 15.275C49.0127 15.475 49.3127 15.425 49.3377 15.65C49.4627 15.525 49.3377 14.9875 49.1502 14.875C49.2752 14.8 49.3502 14.375 49.2877 14.1625C49.1752 14.1875 49.0002 14.375 48.9627 14.6625C49.0252 14.4375 48.9627 13.875 48.6252 13.7875C48.5377 13.95 48.5127 14.325 48.6377 14.5375C48.3377 14.45 47.8877 14.6875 47.7877 14.9875C47.8127 14.6125 47.8627 14.1 48.0377 13.7625C48.1127 13.65 47.9502 13.4625 47.8377 13.725C47.6002 13.2 47.0002 12.925 46.7377 13.1875C46.4627 13.4375 46.1127 13.0625 45.8877 13.475C45.6627 13.8875 44.9127 13.9375 44.9502 14.375C44.9752 14.6375 44.9252 15.05 44.8127 15.2C44.5502 15.55 44.9377 15.825 45.0127 16.1375C44.9627 15.0875 46.3752 13.0375 47.7877 13.8375C47.6627 14.1 47.5377 14.625 47.5002 15.2625C47.4377 16.2125 47.5627 17.5375 48.3252 18.3125L48.6252 18.225Z" fill="#337321" stroke="black" stroke-width="0.05"/>
<path d="M49.0491 14.9125C49.0366 14.6625 49.3991 14.3375 49.8866 14.35C50.4741 14.35 50.9241 15 51.3866 14.9375C51.8616 14.875 51.6366 15.1875 51.5366 15.2625C51.483 15.3071 51.4428 15.3659 51.4207 15.4322C51.3986 15.4984 51.3955 15.5695 51.4116 15.6375C51.4491 15.7875 51.3866 15.8875 51.1991 15.7375C50.7741 15.425 50.3616 15.8625 49.8116 15.6125C49.3366 15.4125 49.0616 15.2875 49.0491 14.9125Z" fill="#C8102E" stroke="black" stroke-width="0.05"/>
<path d="M46.6492 21.4625C46.4117 20.5875 45.5242 19.6375 45.0992 19.4125L45.0742 18.95C45.3117 18.825 45.8742 18.3125 46.1242 18.0125C47.8742 19.0125 50.2492 17.6 51.3367 16.1375L51.7617 16.4375L51.5492 16.7625L51.3242 16.625C51.0617 17.0125 50.0617 18.125 49.7617 18.375C50.1238 18.4814 50.4973 18.5444 50.8742 18.5625C51.8492 17.7375 52.6242 16.9875 52.9992 16.9375L53.2992 17.4375L53.0242 17.6625L52.7992 17.5125C51.5876 18.9066 50.6694 20.5306 50.0992 22.2875C49.4492 22.1125 47.1242 22.2249 46.6492 21.4625Z" fill="#96877D" stroke="black" stroke-width="0.05"/>
<path d="M49.7504 18.3751C49.6004 18.3251 49.4754 18.2751 49.4004 18.2251C49.2129 18.4251 48.7504 18.6001 48.1504 18.6376" stroke="black" stroke-width="0.05"/>
<path d="M46.7491 21.1625C46.5866 20.125 46.8366 18.975 47.2741 18.6375C47.8015 19.0162 48.4375 19.2137 49.0866 19.2002C49.7357 19.1866 50.363 18.9629 50.8741 18.5625" stroke="black" stroke-width="0.05"/>
<path d="M46.75 20.6251C47.4875 20.5876 49.1 20.7501 49.5 20.8126C49.8875 20.8876 50.55 21.0751 50.4625 21.3126M47.0875 20.4751L47.3 20.2251L47.0875 19.9751L46.875 20.2251L47.0875 20.4751Z" stroke="black" stroke-width="0.05"/>
<path d="M47.5883 15.3124C47.3258 14.8624 46.5883 14.7249 46.4258 15.3124C46.3633 15.5874 46.2508 15.8624 46.0758 15.9874C45.9008 16.1124 45.9508 16.4874 46.0258 16.6499C46.2008 17.0624 46.0383 17.4499 46.4008 17.7124C46.4008 17.3874 46.8008 17.0624 47.1383 16.9749C47.4758 16.8874 47.9883 16.5374 48.0508 16.1249C48.1258 15.7249 48.2383 15.3874 47.5883 15.3124Z" fill="#337321" stroke="black" stroke-width="0.05"/>
<path d="M45.9117 19.3H46.0117V20.05L46.0617 20.0875L46.6117 19.7125L46.6617 19.8125L46.1117 20.1875V20.2626L46.6617 20.6376L46.6117 20.7375L46.0617 20.3625C46.0485 20.3791 46.0313 20.392 46.0117 20.4V21.15H45.9117V20.4L45.8617 20.3625L45.3117 20.7375L45.2617 20.65L45.8117 20.275V20.2001L45.2617 19.8251L45.3117 19.725L45.8617 20.1L45.9117 20.0625V19.3Z" fill="#96877D" stroke="black" stroke-width="0.05"/>
<path d="M46.7508 21.1501C46.657 21.2696 46.5375 21.3665 46.4012 21.4336C46.2649 21.5007 46.1152 21.5362 45.9633 21.5376C45.3508 21.5376 44.8633 20.9501 44.8633 20.2251C44.8633 19.5001 45.3508 18.9126 45.9633 18.9126C46.3133 18.9126 46.6383 19.1126 46.8383 19.4251C46.7758 19.6001 46.7133 19.9626 46.7133 20.1376C46.6633 19.6876 46.3383 19.3251 45.9633 19.3251C45.5383 19.3251 45.2133 19.7376 45.2133 20.2251C45.2133 20.7251 45.5383 21.1251 45.9633 21.1251C46.3008 21.1251 46.6133 20.8376 46.6883 20.4501C46.6883 20.6251 46.7008 21.0251 46.7383 21.1501H46.7508Z" fill="#96877D" stroke="black" stroke-width="0.05"/>
<path d="M45.5 22.4124C45.3848 22.2468 45.3197 22.0515 45.3125 21.8499C45.4125 21.8499 45.6125 21.9249 45.7 22.0374C45.7 21.8874 45.65 21.5874 45.675 21.4499C45.8 21.5124 46.0625 21.6874 46.1625 21.8874C46.1375 21.7624 46.0875 21.3874 46.1375 21.1749C46.275 21.2749 46.5125 21.5374 46.5625 21.7124C46.5625 21.4374 46.65 20.9749 46.725 20.8624C46.825 20.9874 46.9875 21.1124 47.1 21.2749C47.1125 21.0499 47.2125 20.7749 47.35 20.7124C47.5139 20.9598 47.6167 21.2425 47.65 21.5374C47.75 21.4874 47.9 21.2874 47.95 21.1624C48.0125 21.2874 48.075 21.4749 48.0375 21.7124C48.18 21.573 48.2872 21.4016 48.35 21.2124C48.4375 21.2999 48.6125 21.4999 48.6625 21.7249C48.6375 21.5499 48.65 21.2249 48.6 21.0499C48.775 21.1499 48.9125 21.3499 48.95 21.5499C49 21.3624 49.1 21.0249 49.2 20.9249C49.3037 21.1483 49.3591 21.3911 49.3625 21.6374C49.425 21.5124 49.525 21.2624 49.6125 21.1999C49.6875 21.3499 49.6875 21.6874 49.6625 21.8624C49.7468 21.7255 49.8573 21.6066 49.9875 21.5124C49.9875 21.5874 50.0125 21.7624 49.9875 21.8874C50.0875 21.8124 50.2625 21.4374 50.325 21.2374C50.4875 21.3374 50.65 21.6749 50.6625 21.8374C50.8306 21.7238 50.9715 21.5744 51.075 21.3999C51.075 21.4874 51.1125 21.7624 51.075 21.9624C51.1375 21.8749 51.2 21.7124 51.2375 21.6374C51.2875 21.7874 51.25 22.1124 51.2125 22.2874C51.3125 22.1874 51.4625 22.1124 51.5625 22.1124C51.5625 22.3499 51.4375 22.7624 51.3 23.0749C50.175 22.6999 47.85 22.5624 45.5 22.4124Z" fill="#337321" stroke="black" stroke-width="0.05"/>
<path d="M49.3867 15.0626C49.3867 14.9626 49.5742 14.7251 49.9242 14.7251C50.3242 14.7251 50.7117 15.1001 51.0492 15.0626C51.3742 15.0376 51.2117 15.1751 51.1367 15.2001C51.0617 15.2376 51.0242 15.2876 51.0492 15.3501C51.0742 15.4126 51.0367 15.4501 50.8992 15.4001C50.5992 15.2751 50.3117 15.4501 49.9242 15.3501C49.5867 15.2626 49.3992 15.2251 49.3867 15.0626Z" fill="#F7E017"/>
<path d="M45.8633 23.2499C45.5133 23.7499 45.1633 23.6624 45.0883 23.3374C45.0258 23.0124 45.2758 22.8624 45.1883 22.5874C45.0883 22.3124 45.3383 22.1874 45.4508 22.3124C45.5758 22.4374 45.9508 22.0374 46.1008 22.4499C46.2633 22.8624 46.4008 23.1624 46.3008 23.3249C46.2133 23.4874 45.9258 23.4124 45.8633 23.2374V23.2499ZM47.3633 22.4999C47.2883 22.3124 47.6508 21.9624 47.8383 22.2124C48.0258 22.4624 48.3258 21.9374 48.4883 22.3374L48.7758 23.1499C48.8633 23.3749 48.3383 23.4999 48.1758 23.2999C48.2008 23.4249 47.7258 23.5374 47.5883 23.1624L47.3633 22.4874V22.4999ZM49.7758 22.7249C49.6883 22.5249 50.1133 22.2499 50.3383 22.5999C50.4008 22.4624 50.8133 22.4249 50.8383 22.8499L50.9008 23.6999C50.9008 23.8624 50.6508 24.0124 50.4508 23.5874C50.1008 23.6749 49.9508 23.4499 49.9133 23.2124L49.7758 22.7249Z" fill="#F7E017" stroke="black" stroke-width="0.05"/>
<path d="M46.0874 22.4501C46.0249 22.3001 46.3749 22.0251 46.6124 22.2376C46.8624 22.4501 47.1874 22.0626 47.3249 22.4251C47.6124 23.1876 47.6249 23.2376 47.5499 23.3876C47.4624 23.5376 47.0874 23.4751 46.9874 23.2751C46.9749 23.4126 46.6499 23.4001 46.4874 23.2751C46.2874 23.1501 46.1624 22.7001 46.0874 22.4501ZM48.5374 22.4751C48.4499 22.2626 48.9999 22.0751 49.2374 22.4501C49.3624 22.3251 49.6249 22.3126 49.7749 22.7251C49.9249 23.1251 49.9499 23.3501 49.8374 23.4626C49.7624 23.5376 49.4749 23.5876 49.3874 23.4001C49.2624 23.5001 48.8624 23.4126 48.7749 23.1501C48.6874 22.9001 48.6124 22.6626 48.5249 22.4751H48.5374ZM50.8499 22.8876C50.8374 22.7001 51.1374 22.6001 51.2374 22.8876C51.3624 23.1751 51.7124 22.9126 51.7374 23.3876C51.7374 23.4751 51.6999 23.8251 51.5874 23.9876C51.4749 24.1626 50.9374 23.9876 50.8999 23.6376C50.8624 23.2751 50.8499 23.0751 50.8499 22.8876Z" fill="#337321" stroke="black" stroke-width="0.05"/>
<path d="M45.8629 23.25C45.7379 23.0375 45.5504 22.7 45.3379 23.0625M47.0004 23.275C46.9074 23.132 46.8358 22.9761 46.7879 22.8125M48.1754 23.2999C48.0608 23.2032 47.9672 23.0841 47.9004 22.95M48.0629 22.575C48.2754 22.6 48.4129 22.825 48.4754 22.9375C48.5379 23.0375 48.6754 23.225 48.7754 23.25M49.3879 23.4125C49.3129 23.275 49.2504 23.1625 49.2379 23.0625M49.2379 22.45C49.3129 22.575 49.3629 22.6625 49.4004 22.775M50.4504 23.5875C50.3723 23.3972 50.2423 23.2326 50.0754 23.1124M50.4004 22.825C50.4129 23.2375 50.8754 23.2624 50.9004 23.5499M51.2504 22.8875C51.2879 22.9875 51.3129 23.1 51.3129 23.2625" stroke="black" stroke-width="0.05"/>
<path d="M0 0H32V32H0V0Z" fill="#012169"/>
<path d="M32 0V4L20.125 16L32 27.6875V32H27.8125L15.875 20.25L4.25 32H0V27.75L11.625 16.0625L0 4.625V0H3.875L15.875 11.75L27.5 0H32Z" fill="white"/>
<path d="M11.5 20.25L12.1875 22.375L2.625 32H0V31.8125L11.5 20.25ZM19.25 19.5L22.625 20L32 29.1875V32L19.25 19.5ZM32 0L20 12.25L19.75 9.5L29.125 0H32ZM0 0.0625L12.0625 11.875L8.375 11.375L0 3.0625V0.0625Z" fill="#C8102E"/>
<path d="M11 0V32H21V0H11ZM0 11V21H32V11H0Z" fill="white"/>
<path d="M0 13V19H32V13H0ZM13 0V32H19V0H13Z" fill="#C8102E"/>
</g>
<defs>
<clipPath id="clip0_10790_11853">
<rect width="64" height="64" rx="32" fill="white"/>
</clipPath>
</defs>
</svg>
