<svg width="64" height="64" viewBox="0 0 64 64" fill="none" xmlns="http://www.w3.org/2000/svg">
<g clip-path="url(#clip0_10790_11909)">
<path d="M25.6004 0H64.0004V64H25.5879L25.6004 0Z" fill="#FF0000"/>
<path d="M0.00078125 0H25.6008V64H-0.0117188L0.00078125 0Z" fill="#006600"/>
<path fill-rule="evenodd" clip-rule="evenodd" d="M36.7246 40.825C32.4246 40.7 12.7246 28.4 12.5996 26.4375L13.6746 24.625C15.6246 27.4625 35.7746 39.425 37.7496 39L36.7246 40.825Z" fill="#FFFF00" stroke="black" stroke-width="0.0875" stroke-linecap="round" stroke-linejoin="round"/>
<path fill-rule="evenodd" clip-rule="evenodd" d="M13.4486 24.3749C13.0611 25.4124 18.5861 28.8249 25.2361 32.8749C31.8861 36.9124 37.6111 39.4124 38.0486 39.0624L38.2361 38.6999C38.1611 38.8249 37.9611 38.8624 37.6611 38.7749C35.8611 38.2499 31.1736 36.0999 25.3736 32.5874C19.5736 29.0749 14.5236 25.8249 13.7486 24.4499C13.6848 24.3221 13.6546 24.1801 13.6611 24.0374H13.6361L13.4736 24.3249L13.4486 24.3749ZM36.8236 40.8749C36.7486 41.0124 36.6111 41.0124 36.3611 40.9999C34.7486 40.8124 29.8611 38.4374 24.1111 34.9874C17.3861 30.9624 11.8361 27.2999 12.4486 26.3499L12.6111 26.0499L12.6361 26.0624C12.0986 27.6874 23.5861 34.2499 24.2611 34.6749C30.8986 38.7999 36.5111 41.1999 37.0111 40.5749L36.8236 40.8749Z" fill="#FFFF00" stroke="black" stroke-width="0.0875" stroke-linecap="round" stroke-linejoin="round"/>
<path fill-rule="evenodd" clip-rule="evenodd" d="M25.6234 27.6249C29.9109 27.5874 35.2234 27.0374 38.2734 25.8249L37.6234 24.7499C35.8109 25.7499 30.4859 26.4124 25.5859 26.4999C19.7859 26.4499 15.6984 25.9124 13.6484 24.5374L13.0234 25.6749C16.7984 27.2624 20.6484 27.6124 25.6234 27.6249Z" fill="#FFFF00" stroke="black" stroke-width="0.0875" stroke-linecap="round" stroke-linejoin="round"/>
<path fill-rule="evenodd" clip-rule="evenodd" d="M38.4613 25.8499C38.3488 26.0124 36.3613 26.6999 33.4238 27.1999C30.8337 27.5884 28.2179 27.7806 25.5988 27.7749C23.091 27.7862 20.5852 27.6275 18.0988 27.2999C15.0363 26.8124 13.4363 26.1374 12.8488 25.8999L12.9988 25.6124C14.6611 26.2676 16.3934 26.729 18.1613 26.9874C20.6272 27.3099 23.112 27.4644 25.5988 27.4499C28.197 27.4515 30.7917 27.2593 33.3613 26.8749C36.3613 26.3874 38.0113 25.7624 38.2363 25.4749L38.4613 25.8499ZM37.8738 24.7499C37.5488 24.9999 35.9238 25.5874 33.0738 26.0374C30.6105 26.391 28.1249 26.5665 25.6363 26.5624C23.2367 26.5806 20.8388 26.4261 18.4613 26.0999C15.5488 25.7249 14.0113 25.0374 13.4613 24.8374L13.6238 24.5499C14.0488 24.7749 15.5488 25.3749 18.4988 25.7999C20.8654 26.1066 23.25 26.2528 25.6363 26.2374C28.1041 26.2408 30.5689 26.0653 33.0113 25.7124C35.8863 25.3124 37.4363 24.5874 37.6738 24.3999L37.8738 24.7499ZM11.4988 32.7999C14.1488 34.2249 20.0113 34.9499 25.5738 34.9999C30.6363 34.9999 37.2363 34.2124 39.6988 32.8999L39.6238 31.4749C38.8613 32.6874 31.7988 33.8499 25.5238 33.7999C19.2488 33.7499 13.4238 32.7749 11.4863 31.5249V32.7999" fill="#FFFF00"/>
<path d="M11.4988 32.7999C14.1488 34.2249 20.0113 34.9499 25.5738 34.9999C30.6363 34.9999 37.2363 34.2124 39.6988 32.8999L39.6238 31.4749C38.8613 32.6874 31.7988 33.8499 25.5238 33.7999C19.2488 33.7499 13.4238 32.7749 11.4863 31.5249V32.7999M38.4613 25.8499C38.3488 26.0124 36.3613 26.6999 33.4238 27.1999C30.8337 27.5884 28.2179 27.7806 25.5988 27.7749C23.091 27.7862 20.5852 27.6275 18.0988 27.2999C15.0363 26.8124 13.4363 26.1374 12.8488 25.8999L12.9988 25.6124C14.6611 26.2676 16.3934 26.729 18.1613 26.9874C20.6272 27.3099 23.112 27.4644 25.5988 27.4499C28.197 27.4515 30.7917 27.2593 33.3613 26.8749C36.3613 26.3874 38.0113 25.7624 38.2363 25.4749L38.4613 25.8499ZM37.8738 24.7499C37.5488 24.9999 35.9238 25.5874 33.0738 26.0374C30.6105 26.391 28.1249 26.5665 25.6363 26.5624C23.2367 26.5806 20.8388 26.4261 18.4613 26.0999C15.5488 25.7249 14.0113 25.0374 13.4613 24.8374L13.6238 24.5499C14.0488 24.7749 15.5488 25.3749 18.4988 25.7999C20.8654 26.1066 23.25 26.2528 25.6363 26.2374C28.1041 26.2408 30.5689 26.0653 33.0113 25.7124C35.8863 25.3124 37.4363 24.5874 37.6738 24.3999L37.8738 24.7499Z" stroke="black" stroke-width="0.0875" stroke-linecap="round" stroke-linejoin="round"/>
<path fill-rule="evenodd" clip-rule="evenodd" d="M39.8367 32.5999V32.9374C39.4617 33.3874 37.1367 34.0624 34.2242 34.5249C31.3393 34.944 28.4269 35.1446 25.5117 35.1249C22.0867 35.1249 19.3617 34.8749 17.2367 34.5499C15.1978 34.3181 13.205 33.783 11.3242 32.9624V32.5624C12.6242 33.4249 16.1117 34.0499 17.2867 34.2374C19.3867 34.5624 22.0992 34.7999 25.5117 34.7999C29.0992 34.7999 31.9742 34.5499 34.1742 34.2124C36.2742 33.9124 39.2492 33.1249 39.8367 32.5999ZM39.8367 31.3874V31.7374C39.4617 32.1749 37.1367 32.8499 34.2242 33.3124C31.3393 33.7315 28.4269 33.9321 25.5117 33.9124C22.0867 33.9124 19.3617 33.6624 17.2492 33.3499C15.2055 33.115 13.2084 32.5757 11.3242 31.7499V31.3499C12.6242 32.2124 16.1117 32.8499 17.2867 33.0249C19.3992 33.3499 22.1117 33.5999 25.5117 33.5999C29.0992 33.5999 31.9742 33.3499 34.1742 32.9999C36.2742 32.6999 39.2492 31.9124 39.8367 31.3874ZM25.5617 40.5749C19.4867 40.5374 14.2742 38.9249 13.1742 38.6499L13.9742 39.8999C15.9117 40.7249 20.9992 41.9499 25.6242 41.8124C30.2492 41.6749 34.2867 41.3124 37.1242 39.9374L37.9492 38.6249C36.0117 39.5374 29.4117 40.5749 25.5742 40.5749" fill="#FFFF00"/>
<path d="M25.5617 40.5749C19.4867 40.5374 14.2742 38.9249 13.1742 38.6499L13.9742 39.8999C15.9117 40.7249 20.9992 41.9499 25.6242 41.8124C30.2492 41.6749 34.2867 41.3124 37.1242 39.9374L37.9492 38.6249C36.0117 39.5374 29.4117 40.5749 25.5742 40.5749M39.8367 32.5999V32.9374C39.4617 33.3874 37.1367 34.0624 34.2242 34.5249C31.3393 34.944 28.4269 35.1446 25.5117 35.1249C22.0867 35.1249 19.3617 34.8749 17.2367 34.5499C15.1978 34.3181 13.205 33.783 11.3242 32.9624V32.5624C12.6242 33.4249 16.1117 34.0499 17.2867 34.2374C19.3867 34.5624 22.0992 34.7999 25.5117 34.7999C29.0992 34.7999 31.9742 34.5499 34.1742 34.2124C36.2742 33.9124 39.2492 33.1249 39.8367 32.5999ZM39.8367 31.3874V31.7374C39.4617 32.1749 37.1367 32.8499 34.2242 33.3124C31.3393 33.7315 28.4269 33.9321 25.5117 33.9124C22.0867 33.9124 19.3617 33.6624 17.2492 33.3499C15.2055 33.115 13.2084 32.5757 11.3242 31.7499V31.3499C12.6242 32.2124 16.1117 32.8499 17.2867 33.0249C19.3992 33.3499 22.1117 33.5999 25.5117 33.5999C29.0992 33.5999 31.9742 33.3499 34.1742 32.9999C36.2742 32.6999 39.2492 31.9124 39.8367 31.3874Z" stroke="black" stroke-width="0.0875" stroke-linecap="round" stroke-linejoin="round"/>
<path fill-rule="evenodd" clip-rule="evenodd" d="M37.4363 39.6374C37.3145 39.8229 37.1895 40.0063 37.0613 40.1874C35.6429 40.6579 34.1936 41.0296 32.7238 41.2999C30.3653 41.7339 27.972 41.9514 25.5738 41.9499C20.1863 41.8749 15.7738 40.8249 13.6988 39.9249L13.5238 39.6374L13.5613 39.5874L13.8363 39.6999C17.6316 40.9575 21.6007 41.6113 25.5988 41.6374C28.0988 41.6499 30.5988 41.3499 32.6113 40.9999C35.7113 40.3749 36.9613 39.9124 37.3488 39.6999L37.4363 39.6374ZM38.1488 38.4624H38.1613C38.0708 38.6214 37.9791 38.7797 37.8863 38.9374C37.1738 39.1874 35.2238 39.7624 32.3863 40.1624C30.5113 40.4124 29.3488 40.6624 25.6363 40.7374C21.3827 40.6915 17.1555 40.0606 13.0738 38.8624L12.9238 38.5499C17.0697 39.6877 21.3385 40.3173 25.6363 40.4249C29.0363 40.3499 30.4863 40.0999 32.3363 39.8374C35.6488 39.3374 37.3113 38.7874 37.8113 38.6249C37.8075 38.6164 37.8033 38.6081 37.7988 38.5999L38.1488 38.4624Z" fill="#FFFF00" stroke="black" stroke-width="0.075" stroke-linecap="round" stroke-linejoin="round"/>
<path fill-rule="evenodd" clip-rule="evenodd" d="M38.2246 31.6749C38.2496 35.6749 36.1996 39.2749 34.5496 40.8624C32.1259 43.2196 28.8927 44.5612 25.5121 44.6124C21.4746 44.6874 17.6746 42.0499 16.6496 40.8999C14.6496 38.6374 13.0246 35.7749 12.9746 31.8999C13.2246 27.5249 14.9371 24.4874 17.4246 22.3999C19.8316 20.42 22.858 19.3493 25.9746 19.3749C29.1496 19.4624 32.8746 21.0249 35.4371 24.1249C37.1121 26.1499 37.8496 28.3499 38.2246 31.6874V31.6749ZM25.5496 17.9749C33.2996 17.9749 39.6746 24.2874 39.6746 32.0124C39.6515 35.7434 38.1531 39.3137 35.5067 41.9437C32.8602 44.5738 29.2807 46.0499 25.5496 46.0499C17.7996 46.0499 11.4746 39.7499 11.4746 32.0124C11.4746 24.2749 17.7996 17.9749 25.5496 17.9749Z" fill="#FFFF00" stroke="black" stroke-width="0.0875" stroke-linecap="round" stroke-linejoin="round"/>
<path fill-rule="evenodd" clip-rule="evenodd" d="M25.5875 17.9249C33.3375 17.9249 39.6625 24.2624 39.6625 32.0124C39.6625 39.7624 33.3375 46.0999 25.5875 46.0999C21.8521 46.0899 18.2728 44.6008 15.6327 41.9584C12.9925 39.3159 11.5066 35.7352 11.5 31.9999C11.5099 28.2667 12.9973 24.6892 15.6371 22.0494C18.2768 19.4096 21.8543 17.9223 25.5875 17.9124V17.9249ZM11.8125 32.0124C11.8125 39.5874 18.0375 45.7874 25.5875 45.7874C33.1375 45.7874 39.35 39.5874 39.35 32.0124C39.35 24.4374 33.1375 18.2499 25.5875 18.2499C21.9404 18.263 18.4462 19.7168 15.866 22.2946C13.2859 24.8723 11.829 28.3652 11.8125 32.0124Z" fill="#FFFF00" stroke="black" stroke-width="0.0875" stroke-linecap="round" stroke-linejoin="round"/>
<path fill-rule="evenodd" clip-rule="evenodd" d="M25.6 19.0999C32.6625 19.0999 38.4875 24.9124 38.4875 31.9999C38.4875 39.0999 32.6625 44.8999 25.6 44.8999C22.1806 44.89 18.9039 43.5281 16.4848 41.1114C14.0657 38.6946 12.7007 35.4193 12.6875 31.9999C12.6875 24.9124 18.5125 19.0999 25.5875 19.0999H25.6ZM13 31.9999C13 38.9249 18.6875 44.5874 25.6 44.5874C32.5 44.5874 38.1875 38.9249 38.1875 31.9999C38.1875 25.0749 32.5 19.4124 25.5875 19.4124C18.675 19.4124 13 25.0749 13 31.9999Z" fill="#FFFF00" stroke="black" stroke-width="0.0875" stroke-linecap="round" stroke-linejoin="round"/>
<path fill-rule="evenodd" clip-rule="evenodd" d="M26.1617 17.875H24.9492V46.175H26.1617V17.875Z" fill="#FFFF00" stroke="black" stroke-width="0.0875" stroke-linecap="round" stroke-linejoin="round"/>
<path fill-rule="evenodd" clip-rule="evenodd" d="M26.0359 17.7124H26.3484V46.3374H26.0359V17.7124ZM24.8359 17.7124H25.1484V46.3374H24.8359V17.7124Z" fill="#FFFF00" stroke="black" stroke-width="0.0875" stroke-linecap="round" stroke-linejoin="round"/>
<path fill-rule="evenodd" clip-rule="evenodd" d="M39.6742 32.5624V31.4999L38.8242 30.7124L33.9867 29.4249L27.0117 28.7124L18.6367 29.1374L12.6492 30.5624L11.4492 31.4624V32.4999L14.4992 31.1249L21.7492 29.9999H28.7242L33.8492 30.5624L37.3992 31.4249L39.6742 32.5624Z" fill="#FFFF00" stroke="black" stroke-width="0.0875" stroke-linecap="round" stroke-linejoin="round"/>
<path fill-rule="evenodd" clip-rule="evenodd" d="M25.5867 29.8375C28.6428 29.825 31.6935 30.097 34.6992 30.65C37.3367 31.175 39.1992 31.8375 39.8242 32.575V32.95C39.0742 32.025 36.5742 31.35 34.6367 30.95C32.0992 30.4625 28.8867 30.15 25.5867 30.15C22.0867 30.15 18.8367 30.4875 16.3367 30.975C14.3367 31.375 11.6617 32.1625 11.3242 32.95V32.575C11.5117 32.025 13.4992 31.2125 16.2992 30.65C19.3635 30.0941 22.4725 29.8221 25.5867 29.8375ZM25.5867 28.625C28.647 28.6132 31.7017 28.8852 34.7117 29.4375C37.3367 29.9625 39.2117 30.625 39.8367 31.375V31.7375C39.0742 30.8125 36.5617 30.1375 34.6367 29.75C32.0992 29.25 28.8867 28.9375 25.5867 28.9375C22.4929 28.9279 19.4048 29.2041 16.3617 29.7625C14.4242 30.1375 11.6367 30.9625 11.3242 31.7375V31.3625C11.5117 30.825 13.5492 29.9875 16.2992 29.45C19.3631 28.8899 22.4721 28.6137 25.5867 28.625ZM25.5242 22.4625C30.7617 22.4375 35.3367 23.2 37.4242 24.275L38.1867 25.5875C36.3742 24.6125 31.4367 23.5875 25.5242 23.75C20.7117 23.775 15.5742 24.275 12.9867 25.65L13.8992 24.125C16.0242 23.025 21.0242 22.475 25.5242 22.4625Z" fill="#FFFF00" stroke="black" stroke-width="0.0875" stroke-linecap="round" stroke-linejoin="round"/>
<path fill-rule="evenodd" clip-rule="evenodd" d="M25.5859 23.55C28.5859 23.55 31.4609 23.7125 33.7609 24.125C35.8984 24.525 37.9484 25.125 38.2359 25.45L38.4609 25.85C37.7484 25.3875 35.9859 24.8625 33.7109 24.4375C31.0246 24.0095 28.3056 23.8212 25.5859 23.875C22.2109 23.875 19.5859 24.0375 17.3359 24.4375C14.9609 24.875 13.3109 25.5125 12.8984 25.8125L13.1234 25.4C13.9109 24.9875 15.1734 24.5 17.2859 24.125C19.6109 23.7 22.2484 23.575 25.5859 23.55ZM25.5859 22.35C28.226 22.3084 30.8647 22.4924 33.4734 22.9C35.2109 23.2375 36.9234 23.7625 37.5609 24.225L37.8859 24.75C37.3234 24.125 35.2109 23.5375 33.3359 23.2125C31.1609 22.8375 28.4484 22.6875 25.5859 22.6625C22.5859 22.6625 19.8109 22.85 17.6609 23.2375C15.6109 23.6375 14.2859 24.1 13.7234 24.4625L14.0109 24.0125C14.7859 23.6125 16.0359 23.2375 17.6109 22.925C19.7734 22.5375 22.5734 22.35 25.5859 22.35ZM32.5859 37.8625C30.2748 37.464 27.9307 37.2882 25.5859 37.3375C16.8484 37.4375 14.0359 39.125 13.6859 39.6375L13.0359 38.575C15.2484 36.9625 19.9984 36.0625 25.6234 36.15C28.5359 36.2 31.0484 36.4 33.1734 36.8L32.5734 37.8625" fill="#FFFF00"/>
<path d="M32.5859 37.8625C30.2748 37.464 27.9307 37.2882 25.5859 37.3375C16.8484 37.4375 14.0359 39.125 13.6859 39.6375L13.0359 38.575C15.2484 36.9625 19.9984 36.0625 25.6234 36.15C28.5359 36.2 31.0484 36.4 33.1734 36.8L32.5734 37.8625M25.5859 23.55C28.5859 23.55 31.4609 23.7125 33.7609 24.125C35.8984 24.525 37.9484 25.125 38.2359 25.45L38.4609 25.85C37.7484 25.3875 35.9859 24.8625 33.7109 24.4375C31.0246 24.0095 28.3056 23.8212 25.5859 23.875C22.2109 23.875 19.5859 24.0375 17.3359 24.4375C14.9609 24.875 13.3109 25.5125 12.8984 25.8125L13.1234 25.4C13.9109 24.9875 15.1734 24.5 17.2859 24.125C19.6109 23.7 22.2484 23.575 25.5859 23.55ZM25.5859 22.35C28.226 22.3084 30.8647 22.4924 33.4734 22.9C35.2109 23.2375 36.9234 23.7625 37.5609 24.225L37.8859 24.75C37.3234 24.125 35.2109 23.5375 33.3359 23.2125C31.1609 22.8375 28.4484 22.6875 25.5859 22.6625C22.5859 22.6625 19.8109 22.85 17.6609 23.2375C15.6109 23.6375 14.2859 24.1 13.7234 24.4625L14.0109 24.0125C14.7859 23.6125 16.0359 23.2375 17.6109 22.925C19.7734 22.5375 22.5734 22.35 25.5859 22.35Z" stroke="black" stroke-width="0.0875" stroke-linecap="round" stroke-linejoin="round"/>
<path fill-rule="evenodd" clip-rule="evenodd" d="M25.5371 37.1874C27.9621 37.2249 30.3496 37.3124 32.6621 37.7499L32.4871 38.0499C30.1965 37.6543 27.8738 37.4744 25.5496 37.5124C22.3246 37.4874 19.0496 37.7874 16.2246 38.5999C15.3246 38.8499 13.8496 39.4249 13.6871 39.8999L13.5246 39.6249C13.5746 39.3499 14.4746 38.7624 16.1496 38.2999C19.3996 37.3624 22.4371 37.2124 25.5246 37.1749L25.5371 37.1874ZM25.6496 35.9624C28.2099 35.9599 30.7655 36.1816 33.2871 36.6249L33.1121 36.9374C30.6546 36.4878 28.1603 36.2702 25.6621 36.2874C22.4246 36.2874 18.9996 36.5249 15.8746 37.4249C14.8746 37.7249 13.1246 38.3499 13.0746 38.8499L12.9121 38.5624C12.9496 38.1124 14.4496 37.5124 15.8121 37.1124C19.0217 36.2729 22.3329 35.8858 25.6496 35.9624Z" fill="#FFFF00" stroke="black" stroke-width="0.075" stroke-linecap="round" stroke-linejoin="round"/>
<path fill-rule="evenodd" clip-rule="evenodd" d="M38.0492 38.7374L36.9992 40.3624L33.9867 37.6874L26.1617 32.4374L17.3492 27.5874L12.7617 26.0249L13.7367 24.2124L14.0742 24.0374L16.9242 24.7499L26.2992 29.5874L31.7117 32.9999L36.2492 36.2499L38.0992 38.3874L38.0492 38.7374Z" fill="#FFFF00" stroke="black" stroke-width="0.0875" stroke-linecap="round" stroke-linejoin="round"/>
<path fill-rule="evenodd" clip-rule="evenodd" d="M12.5988 26.0624C13.4113 25.5249 19.3113 28.1499 25.4738 31.8749C31.6363 35.6124 37.5238 39.8249 36.9988 40.6249L36.8238 40.8874L36.7363 40.9499C36.7613 40.9499 36.8488 40.8249 36.7363 40.5374C36.4613 39.6749 32.2988 36.3499 25.3613 32.1624C18.6113 28.1374 12.9863 25.7124 12.4238 26.4124L12.5988 26.0624ZM38.2613 38.7124C38.7613 37.7124 33.2988 33.5874 26.5113 29.5749C19.5738 25.6374 14.5613 23.3249 13.6488 24.0124L13.4488 24.3874C13.4488 24.3999 13.4488 24.3624 13.4988 24.3249C13.6613 24.1874 13.9363 24.1999 14.0613 24.1999C15.6363 24.2124 20.1363 26.2749 26.4363 29.8999C29.1988 31.4999 38.1113 37.2249 38.0738 38.8249C38.0738 38.9624 38.0863 38.9874 38.0363 39.0624L38.2613 38.7124Z" fill="#FFFF00" stroke="black" stroke-width="0.0875" stroke-linecap="round" stroke-linejoin="round"/>
<path d="M17.1484 33.559C17.1505 34.663 17.3716 35.7556 17.7988 36.7737C18.226 37.7917 18.8509 38.7148 19.6373 39.4897C20.4141 40.2784 21.3393 40.9057 22.3596 41.3353C23.38 41.7649 24.4752 41.9884 25.5822 41.9928C27.8227 41.9926 29.9714 41.1025 31.5556 39.5181C32.3392 38.739 32.9612 37.8127 33.3859 36.7925C33.8105 35.7723 34.0295 34.6783 34.0302 33.5732V22.3092L17.1484 22.2808V33.559Z" fill="white" stroke="black" stroke-width="0.0995558"/>
<path d="M17.4902 33.5733C17.4932 34.6323 17.7059 35.6803 18.116 36.6567C18.5261 37.6331 19.1255 38.5187 19.8796 39.2622C21.3938 40.7843 23.4499 41.6436 25.5969 41.6516C27.7401 41.6527 29.7963 40.8037 31.3143 39.2907C32.0658 38.5459 32.6625 37.6599 33.0702 36.6835C33.4778 35.7071 33.6882 34.6598 33.6894 33.6018V22.6506H17.4902V33.5733ZM30.4325 25.936V32.8907L30.4183 33.616C30.4231 34.2514 30.2996 34.8812 30.0552 35.4677C29.8108 36.0542 29.4506 36.5853 28.996 37.0293C28.0916 37.9369 26.864 38.4484 25.5827 38.4516C24.2458 38.4516 23.0654 37.8827 22.1836 37.0009C21.276 36.0965 20.7645 34.8688 20.7614 33.5875V25.9075L30.4325 25.936Z" fill="#FF0000" stroke="black" stroke-width="0.0711113"/>
<path d="M18.5137 25.5091C18.5279 24.7269 19.0826 24.542 19.0826 24.542C19.0968 24.542 19.6941 24.7411 19.6941 25.5233L18.5137 25.5091Z" fill="#FFFF00"/>
<path d="M18.0303 24.5562L17.9307 25.4522H18.5281C18.5281 24.7127 19.097 24.5989 19.097 24.5989C19.1112 24.5989 19.6658 24.7553 19.6801 25.4522H20.2774L20.1636 24.542L18.0303 24.5562ZM17.8881 25.4664H20.3059C20.3485 25.4664 20.3912 25.5091 20.3912 25.566C20.3912 25.6371 20.3485 25.6798 20.3059 25.6798H17.8881C17.8454 25.6798 17.8027 25.6371 17.8027 25.566C17.8027 25.5091 17.8454 25.4664 17.9023 25.4664H17.8881Z" fill="#FFFF00" stroke="black" stroke-width="0.0711113"/>
<path d="M18.7696 25.4522C18.7696 24.9829 19.0967 24.8549 19.0967 24.8549C19.0967 24.8549 19.4238 24.9971 19.4238 25.4522H18.7696ZM17.9447 24.1722H20.2629C20.3056 24.1722 20.3483 24.2291 20.3483 24.286C20.3483 24.3287 20.3056 24.3713 20.2629 24.3713H17.9447C17.902 24.3713 17.8594 24.3287 17.8594 24.2718C17.8594 24.2291 17.902 24.1864 17.9447 24.1864V24.1722ZM18.0016 24.3855H20.1918C20.2345 24.3855 20.2772 24.4282 20.2772 24.4851C20.2772 24.542 20.2345 24.5847 20.1918 24.5847H17.9874C17.9305 24.5847 17.902 24.542 17.902 24.4851C17.902 24.4282 17.9305 24.3855 17.9874 24.3855H18.0016ZM18.7127 22.878H18.8834V22.9918H19.0114V22.878H19.1963V23.006H19.3243V22.8638H19.4949V23.1482C19.4949 23.2051 19.4665 23.2335 19.4238 23.2335H18.798C18.7554 23.2335 18.7127 23.2051 18.7127 23.1624V22.878ZM19.3669 23.262L19.4096 24.1722H18.798L18.8407 23.2478H19.3669" fill="#FFFF00"/>
<path d="M19.3669 23.262L19.4096 24.1722H18.798L18.8407 23.2478H19.3669M18.7696 25.4522C18.7696 24.9829 19.0967 24.8549 19.0967 24.8549C19.0967 24.8549 19.4238 24.9971 19.4238 25.4522H18.7696ZM17.9447 24.1722H20.2629C20.3056 24.1722 20.3483 24.2291 20.3483 24.286C20.3483 24.3287 20.3056 24.3713 20.2629 24.3713H17.9447C17.902 24.3713 17.8594 24.3287 17.8594 24.2718C17.8594 24.2291 17.902 24.1864 17.9447 24.1864V24.1722ZM18.0016 24.3855H20.1918C20.2345 24.3855 20.2772 24.4282 20.2772 24.4851C20.2772 24.542 20.2345 24.5847 20.1918 24.5847H17.9874C17.9305 24.5847 17.902 24.542 17.902 24.4851C17.902 24.4282 17.9305 24.3855 17.9874 24.3855H18.0016ZM18.7127 22.878H18.8834V22.9918H19.0114V22.878H19.1963V23.006H19.3243V22.8638H19.4949V23.1482C19.4949 23.2051 19.4665 23.2335 19.4238 23.2335H18.798C18.7554 23.2335 18.7127 23.2051 18.7127 23.1624V22.878Z" stroke="black" stroke-width="0.0711113"/>
<path d="M18.6275 23.6887V24.1723H18.0586V23.6887H18.6275Z" fill="#FFFF00" stroke="black" stroke-width="0.0711113"/>
<path d="M20.1353 23.6887V24.1723H19.5664V23.6887H20.1353Z" fill="#FFFF00" stroke="black" stroke-width="0.0711113"/>
<path d="M17.959 23.3188H18.1297V23.4611H18.2577V23.3188H18.4283V23.4611H18.5563V23.3188H18.727V23.6033C18.727 23.6602 18.6985 23.6886 18.6559 23.6886H18.0443C18.0217 23.6886 18 23.6796 17.984 23.6636C17.968 23.6476 17.959 23.6259 17.959 23.6033V23.3188Z" fill="#FFFF00" stroke="black" stroke-width="0.0711113"/>
<path d="M19.4668 23.3188H19.6375V23.4611H19.7655V23.3188H19.9361V23.4611H20.0641V23.3188H20.2348V23.6033C20.2348 23.6602 20.2064 23.6886 20.1637 23.6886H19.5521C19.5295 23.6886 19.5078 23.6796 19.4918 23.6636C19.4758 23.6476 19.4668 23.6259 19.4668 23.6033V23.3188Z" fill="#FFFF00" stroke="black" stroke-width="0.0711113"/>
<path d="M19.041 23.5464C19.041 23.4611 19.169 23.4611 19.169 23.5464V23.774H19.041V23.5464Z" fill="#000001"/>
<path d="M18.2871 23.8594C18.2871 23.7741 18.4009 23.7741 18.4009 23.8594V24.0301H18.2871V23.8594Z" fill="#000001"/>
<path d="M19.793 23.8594C19.793 23.7741 19.9067 23.7741 19.9067 23.8594V24.0301H19.793V23.8594Z" fill="#000001"/>
<path d="M18.5137 32.0941C18.5279 31.3118 19.0826 31.127 19.0826 31.127C19.0968 31.127 19.6941 31.3261 19.6941 32.1083L18.5137 32.0941Z" fill="#FFFF00"/>
<path d="M18.0303 31.1412L17.9307 32.0372H18.5281C18.5281 31.2976 19.097 31.1838 19.097 31.1838C19.1112 31.1838 19.6658 31.3403 19.6801 32.0372H20.2774L20.1636 31.127L18.0303 31.1412ZM17.8881 32.0514H20.3059C20.3485 32.0514 20.3912 32.0941 20.3912 32.151C20.3912 32.2221 20.3485 32.2647 20.3059 32.2647H17.8881C17.8454 32.2647 17.8027 32.2221 17.8027 32.151C17.8027 32.0941 17.8454 32.0514 17.9023 32.0514H17.8881Z" fill="#FFFF00" stroke="black" stroke-width="0.0711113"/>
<path d="M18.7696 32.0372C18.7696 31.5678 19.0967 31.4398 19.0967 31.4398C19.0967 31.4398 19.4238 31.5821 19.4238 32.0372H18.7696ZM17.9447 30.7572H20.2629C20.3056 30.7572 20.3483 30.8141 20.3483 30.871C20.3483 30.9136 20.3056 30.9563 20.2629 30.9563H17.9447C17.902 30.9563 17.8594 30.9136 17.8594 30.8567C17.8594 30.8141 17.902 30.7714 17.9447 30.7714V30.7572ZM18.0016 30.9705H20.1918C20.2345 30.9705 20.2772 31.0132 20.2772 31.0701C20.2772 31.127 20.2345 31.1696 20.1918 31.1696H17.9874C17.9305 31.1696 17.902 31.127 17.902 31.0701C17.902 31.0132 17.9305 30.9705 17.9874 30.9705H18.0016ZM18.7127 29.463H18.8834V29.5767H19.0114V29.463H19.1963V29.591H19.3243V29.4487H19.4949V29.7332C19.4949 29.7901 19.4665 29.8185 19.4238 29.8185H18.798C18.7554 29.8185 18.7127 29.7901 18.7127 29.7474V29.463ZM19.3669 29.847L19.4096 30.7572H18.798L18.8407 29.8327H19.3669" fill="#FFFF00"/>
<path d="M19.3669 29.847L19.4096 30.7572H18.798L18.8407 29.8327H19.3669M18.7696 32.0372C18.7696 31.5678 19.0967 31.4398 19.0967 31.4398C19.0967 31.4398 19.4238 31.5821 19.4238 32.0372H18.7696ZM17.9447 30.7572H20.2629C20.3056 30.7572 20.3483 30.8141 20.3483 30.871C20.3483 30.9136 20.3056 30.9563 20.2629 30.9563H17.9447C17.902 30.9563 17.8594 30.9136 17.8594 30.8567C17.8594 30.8141 17.902 30.7714 17.9447 30.7714V30.7572ZM18.0016 30.9705H20.1918C20.2345 30.9705 20.2772 31.0132 20.2772 31.0701C20.2772 31.127 20.2345 31.1696 20.1918 31.1696H17.9874C17.9305 31.1696 17.902 31.127 17.902 31.0701C17.902 31.0132 17.9305 30.9705 17.9874 30.9705H18.0016ZM18.7127 29.463H18.8834V29.5767H19.0114V29.463H19.1963V29.591H19.3243V29.4487H19.4949V29.7332C19.4949 29.7901 19.4665 29.8185 19.4238 29.8185H18.798C18.7554 29.8185 18.7127 29.7901 18.7127 29.7474V29.463Z" stroke="black" stroke-width="0.0711113"/>
<path d="M18.6275 30.2737V30.7572H18.0586V30.2737H18.6275Z" fill="#FFFF00" stroke="black" stroke-width="0.0711113"/>
<path d="M20.1353 30.2737V30.7572H19.5664V30.2737H20.1353Z" fill="#FFFF00" stroke="black" stroke-width="0.0711113"/>
<path d="M17.959 29.9038H18.1297V30.046H18.2577V29.9038H18.4283V30.046H18.5563V29.9038H18.727V30.1883C18.727 30.2451 18.6985 30.2736 18.6559 30.2736H18.0443C18.0217 30.2736 18 30.2646 17.984 30.2486C17.968 30.2326 17.959 30.2109 17.959 30.1883V29.9038Z" fill="#FFFF00" stroke="black" stroke-width="0.0711113"/>
<path d="M19.4668 29.9038H19.6375V30.046H19.7655V29.9038H19.9361V30.046H20.0641V29.9038H20.2348V30.1883C20.2348 30.2451 20.2064 30.2736 20.1637 30.2736H19.5521C19.5295 30.2736 19.5078 30.2646 19.4918 30.2486C19.4758 30.2326 19.4668 30.2109 19.4668 30.1883V29.9038Z" fill="#FFFF00" stroke="black" stroke-width="0.0711113"/>
<path d="M19.041 30.1314C19.041 30.046 19.169 30.046 19.169 30.1314V30.3589H19.041V30.1314Z" fill="#000001"/>
<path d="M18.2871 30.4444C18.2871 30.359 18.4009 30.359 18.4009 30.4444V30.615H18.2871V30.4444Z" fill="#000001"/>
<path d="M19.793 30.4444C19.793 30.359 19.9067 30.359 19.9067 30.4444V30.615H19.793V30.4444Z" fill="#000001"/>
<path d="M21.0808 38.9569C20.5357 38.3956 20.7954 37.8717 20.7954 37.8717C20.8054 37.8616 21.3676 37.5781 21.9226 38.1293L21.0808 38.9569Z" fill="#FFFF00"/>
<path d="M20.065 38.6286L20.6306 39.3306L21.0515 38.9067C20.5267 38.3856 20.8469 37.9018 20.8469 37.9018C20.8569 37.8917 21.3587 37.6083 21.8632 38.0893L22.2841 37.6654L21.5581 37.1048L20.065 38.6286ZM20.6106 39.3709L22.3143 37.6553C22.3443 37.625 22.4047 37.6248 22.445 37.6649C22.4955 37.715 22.4957 37.7753 22.4656 37.8056L20.762 39.5212C20.7319 39.5515 20.6716 39.5517 20.6211 39.5016C20.5808 39.4615 20.5806 39.4012 20.6206 39.3608L20.6106 39.3709Z" fill="#FFFF00" stroke="black" stroke-width="0.0711113"/>
<path d="M21.2222 38.7352C20.8892 38.4045 21.0288 38.0822 21.0288 38.0822C21.0288 38.0822 21.3603 37.9503 21.6832 38.271L21.2222 38.7352ZM19.7327 38.4186L21.3662 36.7736C21.3963 36.7433 21.4667 36.7531 21.5071 36.7932C21.5373 36.8233 21.5376 36.8836 21.5075 36.9139L19.874 38.5589C19.8439 38.5891 19.7836 38.5893 19.7432 38.5493C19.7129 38.5192 19.7127 38.4589 19.7428 38.4286L19.7327 38.4186ZM19.9242 38.5285L21.4675 36.9744C21.4975 36.9441 21.5579 36.9439 21.5982 36.984C21.6386 37.0241 21.6388 37.0844 21.6088 37.1147L20.0554 38.6789C20.0153 38.7193 19.965 38.7094 19.9247 38.6693C19.8843 38.6292 19.8741 38.579 19.9141 38.5386L19.9242 38.5285ZM19.3555 36.9616L19.4758 36.8405L19.5565 36.9207L19.6467 36.8299L19.566 36.7497L19.6963 36.6185L19.7871 36.7087L19.8773 36.6179L19.7764 36.5177L19.8966 36.3966L20.0984 36.597C20.1388 36.6371 20.139 36.6773 20.1089 36.7076L19.6679 37.1516C19.6379 37.1819 19.5876 37.1921 19.5574 37.1621L19.3555 36.9616ZM20.089 36.768L20.7649 37.3791L20.334 37.8131L19.7081 37.1314L20.0789 36.758" fill="#FFFF00"/>
<path d="M20.089 36.768L20.7649 37.3791L20.334 37.8131L19.7081 37.1314L20.0789 36.758M21.2222 38.7352C20.8892 38.4045 21.0288 38.0822 21.0288 38.0822C21.0288 38.0822 21.3603 37.9503 21.6832 38.271L21.2222 38.7352ZM19.7327 38.4186L21.3662 36.7736C21.3963 36.7433 21.4667 36.7531 21.5071 36.7932C21.5373 36.8233 21.5376 36.8836 21.5075 36.9139L19.874 38.5589C19.8439 38.5891 19.7836 38.5893 19.7432 38.5493C19.7129 38.5192 19.7127 38.4589 19.7428 38.4286L19.7327 38.4186ZM19.9242 38.5285L21.4675 36.9744C21.4975 36.9441 21.5579 36.9439 21.5982 36.984C21.6386 37.0241 21.6388 37.0844 21.6088 37.1147L20.0554 38.6789C20.0153 38.7193 19.965 38.7094 19.9247 38.6693C19.8843 38.6292 19.8741 38.579 19.9141 38.5386L19.9242 38.5285ZM19.3555 36.9616L19.4758 36.8405L19.5565 36.9207L19.6467 36.8299L19.566 36.7497L19.6963 36.6185L19.7871 36.7087L19.8773 36.6179L19.7764 36.5177L19.8966 36.3966L20.0984 36.597C20.1388 36.6371 20.139 36.6773 20.1089 36.7076L19.6679 37.1516C19.6379 37.1819 19.5876 37.1921 19.5574 37.1621L19.3555 36.9616Z" stroke="black" stroke-width="0.0711113"/>
<path d="M19.8696 37.5934L20.2127 37.9341L19.8119 38.3378L19.4688 37.9971L19.8696 37.5934Z" fill="#FFFF00" stroke="black" stroke-width="0.0711113"/>
<path d="M20.9321 36.5236L21.2752 36.8643L20.8744 37.268L20.5312 36.9272L20.9321 36.5236Z" fill="#FFFF00" stroke="black" stroke-width="0.0711113"/>
<path d="M19.1367 37.8071L19.257 37.686L19.3579 37.7862L19.4481 37.6954L19.3472 37.5952L19.4674 37.4741L19.5683 37.5743L19.6585 37.4835L19.5576 37.3833L19.6779 37.2622L19.8797 37.4626C19.9201 37.5027 19.9202 37.5429 19.8902 37.5732L19.4592 38.0071C19.4433 38.0232 19.4216 38.0323 19.399 38.0323C19.3763 38.0324 19.3546 38.0235 19.3386 38.0076L19.1367 37.8071Z" fill="#FFFF00" stroke="black" stroke-width="0.0711113"/>
<path d="M20.1992 36.7373L20.3195 36.6162L20.4204 36.7164L20.5106 36.6256L20.4097 36.5254L20.5299 36.4043L20.6308 36.5045L20.721 36.4137L20.6201 36.3135L20.7404 36.1924L20.9422 36.3928C20.9826 36.4329 20.9827 36.4731 20.9527 36.5034L20.5217 36.9373C20.5058 36.9534 20.4841 36.9624 20.4615 36.9625C20.4388 36.9626 20.4171 36.9537 20.4011 36.9377L20.1992 36.7373Z" fill="#FFFF00" stroke="black" stroke-width="0.0711113"/>
<path d="M20.0591 37.2004C19.9985 37.1402 20.0887 37.0494 20.1493 37.1095L20.3107 37.2699L20.2206 37.3607L20.0591 37.2004Z" fill="#000001"/>
<path d="M19.7505 37.9557C19.6899 37.8956 19.7701 37.8149 19.8307 37.875L19.9518 37.9953L19.8716 38.076L19.7505 37.9557Z" fill="#000001"/>
<path d="M20.813 36.8862C20.7524 36.826 20.8326 36.7453 20.8932 36.8054L21.0143 36.9257L20.9341 37.0064L20.813 36.8862Z" fill="#000001"/>
<path d="M25.0137 25.5091C25.0279 24.7269 25.5826 24.542 25.5826 24.542C25.5968 24.542 26.1941 24.7411 26.1941 25.5233L25.0137 25.5091Z" fill="#FFFF00"/>
<path d="M24.5303 24.5562L24.4307 25.4522H25.0281C25.0281 24.7127 25.597 24.5989 25.597 24.5989C25.6112 24.5989 26.1658 24.7553 26.1801 25.4522H26.7774L26.6636 24.542L24.5303 24.5562ZM24.3881 25.4664H26.8059C26.8485 25.4664 26.8912 25.5091 26.8912 25.566C26.8912 25.6371 26.8485 25.6798 26.8059 25.6798H24.3881C24.3454 25.6798 24.3027 25.6371 24.3027 25.566C24.3027 25.5091 24.3454 25.4664 24.4023 25.4664H24.3881Z" fill="#FFFF00" stroke="black" stroke-width="0.0711113"/>
<path d="M25.2696 25.4522C25.2696 24.9829 25.5967 24.8549 25.5967 24.8549C25.5967 24.8549 25.9238 24.9971 25.9238 25.4522H25.2696ZM24.4447 24.1722H26.7629C26.8056 24.1722 26.8483 24.2291 26.8483 24.286C26.8483 24.3287 26.8056 24.3713 26.7629 24.3713H24.4447C24.402 24.3713 24.3594 24.3287 24.3594 24.2718C24.3594 24.2291 24.402 24.1864 24.4447 24.1864V24.1722ZM24.5016 24.3855H26.6918C26.7345 24.3855 26.7772 24.4282 26.7772 24.4851C26.7772 24.542 26.7345 24.5847 26.6918 24.5847H24.4874C24.4305 24.5847 24.402 24.542 24.402 24.4851C24.402 24.4282 24.4305 24.3855 24.4874 24.3855H24.5016ZM25.2127 22.878H25.3834V22.9918H25.5114V22.878H25.6963V23.006H25.8243V22.8638H25.9949V23.1482C25.9949 23.2051 25.9665 23.2335 25.9238 23.2335H25.298C25.2554 23.2335 25.2127 23.2051 25.2127 23.1624V22.878ZM25.8669 23.262L25.9096 24.1722H25.298L25.3407 23.2478H25.8669" fill="#FFFF00"/>
<path d="M25.8669 23.262L25.9096 24.1722H25.298L25.3407 23.2478H25.8669M25.2696 25.4522C25.2696 24.9829 25.5967 24.8549 25.5967 24.8549C25.5967 24.8549 25.9238 24.9971 25.9238 25.4522H25.2696ZM24.4447 24.1722H26.7629C26.8056 24.1722 26.8483 24.2291 26.8483 24.286C26.8483 24.3287 26.8056 24.3713 26.7629 24.3713H24.4447C24.402 24.3713 24.3594 24.3287 24.3594 24.2718C24.3594 24.2291 24.402 24.1864 24.4447 24.1864V24.1722ZM24.5016 24.3855H26.6918C26.7345 24.3855 26.7772 24.4282 26.7772 24.4851C26.7772 24.542 26.7345 24.5847 26.6918 24.5847H24.4874C24.4305 24.5847 24.402 24.542 24.402 24.4851C24.402 24.4282 24.4305 24.3855 24.4874 24.3855H24.5016ZM25.2127 22.878H25.3834V22.9918H25.5114V22.878H25.6963V23.006H25.8243V22.8638H25.9949V23.1482C25.9949 23.2051 25.9665 23.2335 25.9238 23.2335H25.298C25.2554 23.2335 25.2127 23.2051 25.2127 23.1624V22.878Z" stroke="black" stroke-width="0.0711113"/>
<path d="M25.1275 23.6887V24.1723H24.5586V23.6887H25.1275Z" fill="#FFFF00" stroke="black" stroke-width="0.0711113"/>
<path d="M26.6353 23.6887V24.1723H26.0664V23.6887H26.6353Z" fill="#FFFF00" stroke="black" stroke-width="0.0711113"/>
<path d="M24.459 23.3188H24.6297V23.4611H24.7577V23.3188H24.9283V23.4611H25.0563V23.3188H25.227V23.6033C25.227 23.6602 25.1985 23.6886 25.1559 23.6886H24.5443C24.5217 23.6886 24.5 23.6796 24.484 23.6636C24.468 23.6476 24.459 23.6259 24.459 23.6033V23.3188Z" fill="#FFFF00" stroke="black" stroke-width="0.0711113"/>
<path d="M25.9668 23.3188H26.1375V23.4611H26.2655V23.3188H26.4361V23.4611H26.5641V23.3188H26.7348V23.6033C26.7348 23.6602 26.7064 23.6886 26.6637 23.6886H26.0521C26.0295 23.6886 26.0078 23.6796 25.9918 23.6636C25.9758 23.6476 25.9668 23.6259 25.9668 23.6033V23.3188Z" fill="#FFFF00" stroke="black" stroke-width="0.0711113"/>
<path d="M25.541 23.5464C25.541 23.4611 25.669 23.4611 25.669 23.5464V23.774H25.541V23.5464Z" fill="#000001"/>
<path d="M24.7871 23.8594C24.7871 23.7741 24.9009 23.7741 24.9009 23.8594V24.0301H24.7871V23.8594Z" fill="#000001"/>
<path d="M26.293 23.8594C26.293 23.7741 26.4067 23.7741 26.4067 23.8594V24.0301H26.293V23.8594Z" fill="#000001"/>
<path d="M32.6504 25.5091C32.6362 24.7269 32.0815 24.542 32.0815 24.542C32.0673 24.542 31.4699 24.7411 31.4699 25.5233L32.6504 25.5091Z" fill="#FFFF00"/>
<path d="M33.1338 24.5562L33.2333 25.4522H32.636C32.636 24.7127 32.0671 24.5989 32.0671 24.5989C32.0529 24.5989 31.4982 24.7553 31.484 25.4522H30.8867L31.0004 24.542L33.1338 24.5562ZM33.276 25.4664H30.8582C30.8155 25.4664 30.7729 25.5091 30.7729 25.566C30.7729 25.6371 30.8155 25.6798 30.8582 25.6798H33.276C33.3187 25.6798 33.3613 25.6371 33.3613 25.566C33.3613 25.5091 33.3187 25.4664 33.2618 25.4664H33.276Z" fill="#FFFF00" stroke="black" stroke-width="0.0711113"/>
<path d="M32.3945 25.4522C32.3945 24.9829 32.0674 24.8549 32.0674 24.8549C32.0674 24.8549 31.7402 24.9971 31.7402 25.4522H32.3945ZM33.2194 24.1722H30.9011C30.8585 24.1722 30.8158 24.2291 30.8158 24.286C30.8158 24.3287 30.8585 24.3713 30.9011 24.3713H33.2194C33.262 24.3713 33.3047 24.3287 33.3047 24.2718C33.3047 24.2291 33.262 24.1864 33.2194 24.1864V24.1722ZM33.1625 24.3855H30.9722C30.9296 24.3855 30.8869 24.4282 30.8869 24.4851C30.8869 24.542 30.9296 24.5847 30.9722 24.5847H33.1767C33.2336 24.5847 33.262 24.542 33.262 24.4851C33.262 24.4282 33.2336 24.3855 33.1767 24.3855H33.1625ZM32.4514 22.878H32.2807V22.9918H32.1527V22.878H31.9678V23.006H31.8398V22.8638H31.6691V23.1482C31.6691 23.2051 31.6976 23.2335 31.7402 23.2335H32.366C32.4087 23.2335 32.4514 23.2051 32.4514 23.1624V22.878ZM31.7971 23.262L31.7545 24.1722H32.366L32.3234 23.2478H31.7971" fill="#FFFF00"/>
<path d="M31.7971 23.262L31.7545 24.1722H32.366L32.3234 23.2478H31.7971M32.3945 25.4522C32.3945 24.9829 32.0674 24.8549 32.0674 24.8549C32.0674 24.8549 31.7402 24.9971 31.7402 25.4522H32.3945ZM33.2194 24.1722H30.9011C30.8585 24.1722 30.8158 24.2291 30.8158 24.286C30.8158 24.3287 30.8585 24.3713 30.9011 24.3713H33.2194C33.262 24.3713 33.3047 24.3287 33.3047 24.2718C33.3047 24.2291 33.262 24.1864 33.2194 24.1864V24.1722ZM33.1625 24.3855H30.9722C30.9296 24.3855 30.8869 24.4282 30.8869 24.4851C30.8869 24.542 30.9296 24.5847 30.9722 24.5847H33.1767C33.2336 24.5847 33.262 24.542 33.262 24.4851C33.262 24.4282 33.2336 24.3855 33.1767 24.3855H33.1625ZM32.4514 22.878H32.2807V22.9918H32.1527V22.878H31.9678V23.006H31.8398V22.8638H31.6691V23.1482C31.6691 23.2051 31.6976 23.2335 31.7402 23.2335H32.366C32.4087 23.2335 32.4514 23.2051 32.4514 23.1624V22.878Z" stroke="black" stroke-width="0.0711113"/>
<path d="M32.5366 23.6887V24.1723H33.1055V23.6887H32.5366Z" fill="#FFFF00" stroke="black" stroke-width="0.0711113"/>
<path d="M31.0288 23.6887V24.1723H31.5977V23.6887H31.0288Z" fill="#FFFF00" stroke="black" stroke-width="0.0711113"/>
<path d="M33.2051 23.3188H33.0344V23.4611H32.9064V23.3188H32.7357V23.4611H32.6077V23.3188H32.4371V23.6033C32.4371 23.6602 32.4655 23.6886 32.5082 23.6886H33.1197C33.1424 23.6886 33.1641 23.6796 33.1801 23.6636C33.1961 23.6476 33.2051 23.6259 33.2051 23.6033V23.3188Z" fill="#FFFF00" stroke="black" stroke-width="0.0711113"/>
<path d="M31.6973 23.3188H31.5266V23.4611H31.3986V23.3188H31.2279V23.4611H31.0999V23.3188H30.9293V23.6033C30.9293 23.6602 30.9577 23.6886 31.0004 23.6886H31.6119C31.6346 23.6886 31.6563 23.6796 31.6723 23.6636C31.6883 23.6476 31.6973 23.6259 31.6973 23.6033V23.3188Z" fill="#FFFF00" stroke="black" stroke-width="0.0711113"/>
<path d="M32.123 23.5464C32.123 23.4611 31.995 23.4611 31.995 23.5464V23.774H32.123V23.5464Z" fill="#000001"/>
<path d="M32.877 23.8594C32.877 23.7741 32.7632 23.7741 32.7632 23.8594V24.0301H32.877V23.8594Z" fill="#000001"/>
<path d="M31.3711 23.8594C31.3711 23.7741 31.2573 23.7741 31.2573 23.8594V24.0301H31.3711V23.8594Z" fill="#000001"/>
<path d="M32.6504 32.0941C32.6362 31.3118 32.0815 31.127 32.0815 31.127C32.0673 31.127 31.4699 31.3261 31.4699 32.1083L32.6504 32.0941Z" fill="#FFFF00"/>
<path d="M33.1338 31.1412L33.2333 32.0372H32.636C32.636 31.2976 32.0671 31.1838 32.0671 31.1838C32.0529 31.1838 31.4982 31.3403 31.484 32.0372H30.8867L31.0004 31.127L33.1338 31.1412ZM33.276 32.0514H30.8582C30.8155 32.0514 30.7729 32.0941 30.7729 32.151C30.7729 32.2221 30.8155 32.2647 30.8582 32.2647H33.276C33.3187 32.2647 33.3613 32.2221 33.3613 32.151C33.3613 32.0941 33.3187 32.0514 33.2618 32.0514H33.276Z" fill="#FFFF00" stroke="black" stroke-width="0.0711113"/>
<path d="M32.3945 32.0372C32.3945 31.5678 32.0674 31.4398 32.0674 31.4398C32.0674 31.4398 31.7402 31.5821 31.7402 32.0372H32.3945ZM33.2194 30.7572H30.9011C30.8585 30.7572 30.8158 30.8141 30.8158 30.871C30.8158 30.9136 30.8585 30.9563 30.9011 30.9563H33.2194C33.262 30.9563 33.3047 30.9136 33.3047 30.8567C33.3047 30.8141 33.262 30.7714 33.2194 30.7714V30.7572ZM33.1625 30.9705H30.9722C30.9296 30.9705 30.8869 31.0132 30.8869 31.0701C30.8869 31.127 30.9296 31.1696 30.9722 31.1696H33.1767C33.2336 31.1696 33.262 31.127 33.262 31.0701C33.262 31.0132 33.2336 30.9705 33.1767 30.9705H33.1625ZM32.4514 29.463H32.2807V29.5767H32.1527V29.463H31.9678V29.591H31.8398V29.4487H31.6691V29.7332C31.6691 29.7901 31.6976 29.8185 31.7402 29.8185H32.366C32.4087 29.8185 32.4514 29.7901 32.4514 29.7474V29.463ZM31.7971 29.847L31.7545 30.7572H32.366L32.3234 29.8327H31.7971" fill="#FFFF00"/>
<path d="M31.7971 29.847L31.7545 30.7572H32.366L32.3234 29.8327H31.7971M32.3945 32.0372C32.3945 31.5678 32.0674 31.4398 32.0674 31.4398C32.0674 31.4398 31.7402 31.5821 31.7402 32.0372H32.3945ZM33.2194 30.7572H30.9011C30.8585 30.7572 30.8158 30.8141 30.8158 30.871C30.8158 30.9136 30.8585 30.9563 30.9011 30.9563H33.2194C33.262 30.9563 33.3047 30.9136 33.3047 30.8567C33.3047 30.8141 33.262 30.7714 33.2194 30.7714V30.7572ZM33.1625 30.9705H30.9722C30.9296 30.9705 30.8869 31.0132 30.8869 31.0701C30.8869 31.127 30.9296 31.1696 30.9722 31.1696H33.1767C33.2336 31.1696 33.262 31.127 33.262 31.0701C33.262 31.0132 33.2336 30.9705 33.1767 30.9705H33.1625ZM32.4514 29.463H32.2807V29.5767H32.1527V29.463H31.9678V29.591H31.8398V29.4487H31.6691V29.7332C31.6691 29.7901 31.6976 29.8185 31.7402 29.8185H32.366C32.4087 29.8185 32.4514 29.7901 32.4514 29.7474V29.463Z" stroke="black" stroke-width="0.0711113"/>
<path d="M32.5366 30.2737V30.7572H33.1055V30.2737H32.5366Z" fill="#FFFF00" stroke="black" stroke-width="0.0711113"/>
<path d="M31.0288 30.2737V30.7572H31.5977V30.2737H31.0288Z" fill="#FFFF00" stroke="black" stroke-width="0.0711113"/>
<path d="M33.2051 29.9038H33.0344V30.046H32.9064V29.9038H32.7357V30.046H32.6077V29.9038H32.4371V30.1883C32.4371 30.2451 32.4655 30.2736 32.5082 30.2736H33.1197C33.1424 30.2736 33.1641 30.2646 33.1801 30.2486C33.1961 30.2326 33.2051 30.2109 33.2051 30.1883V29.9038Z" fill="#FFFF00" stroke="black" stroke-width="0.0711113"/>
<path d="M31.6973 29.9038H31.5266V30.046H31.3986V29.9038H31.2279V30.046H31.0999V29.9038H30.9293V30.1883C30.9293 30.2451 30.9577 30.2736 31.0004 30.2736H31.6119C31.6346 30.2736 31.6563 30.2646 31.6723 30.2486C31.6883 30.2326 31.6973 30.2109 31.6973 30.1883V29.9038Z" fill="#FFFF00" stroke="black" stroke-width="0.0711113"/>
<path d="M32.123 30.1314C32.123 30.046 31.995 30.046 31.995 30.1314V30.3589H32.123V30.1314Z" fill="#000001"/>
<path d="M32.877 30.4444C32.877 30.359 32.7632 30.359 32.7632 30.4444V30.615H32.877V30.4444Z" fill="#000001"/>
<path d="M31.3711 30.4444C31.3711 30.359 31.2573 30.359 31.2573 30.4444V30.615H31.3711V30.4444Z" fill="#000001"/>
<path d="M30.0833 38.9569C30.6283 38.3956 30.3687 37.8717 30.3687 37.8717C30.3587 37.8616 29.7965 37.5781 29.2414 38.1293L30.0833 38.9569Z" fill="#FFFF00"/>
<path d="M31.0991 38.6286L30.5335 39.3306L30.1126 38.9067C30.6373 38.3856 30.3172 37.9018 30.3172 37.9018C30.3072 37.8917 29.8053 37.6083 29.3008 38.0893L28.8799 37.6654L29.606 37.1048L31.0991 38.6286ZM30.5534 39.3709L28.8498 37.6553C28.8197 37.625 28.7594 37.6248 28.719 37.6649C28.6686 37.715 28.6683 37.7753 28.6984 37.8056L30.4021 39.5212C30.4321 39.5515 30.4925 39.5517 30.5429 39.5016C30.5833 39.4615 30.5835 39.4012 30.5434 39.3608L30.5534 39.3709Z" fill="#FFFF00" stroke="black" stroke-width="0.0711113"/>
<path d="M29.9419 38.7352C30.2749 38.4045 30.1352 38.0822 30.1352 38.0822C30.1352 38.0822 29.8038 37.9503 29.4809 38.271L29.9419 38.7352ZM31.4314 38.4186L29.7979 36.7736C29.7678 36.7433 29.6974 36.7531 29.657 36.7932C29.6267 36.8233 29.6265 36.8836 29.6566 36.9139L31.2901 38.5589C31.3201 38.5891 31.3805 38.5893 31.4208 38.5493C31.4511 38.5192 31.4513 38.4589 31.4213 38.4286L31.4314 38.4186ZM31.2399 38.5285L29.6966 36.9744C29.6665 36.9441 29.6062 36.9439 29.5658 36.984C29.5255 37.0241 29.5252 37.0844 29.5553 37.1147L31.1086 38.6789C31.1487 38.7193 31.199 38.7094 31.2394 38.6693C31.2798 38.6292 31.29 38.579 31.2499 38.5386L31.2399 38.5285ZM31.8085 36.9616L31.6883 36.8405L31.6076 36.9207L31.5174 36.8299L31.5981 36.7497L31.4678 36.6185L31.377 36.7087L31.2868 36.6179L31.3877 36.5177L31.2675 36.3966L31.0656 36.597C31.0253 36.6371 31.0251 36.6773 31.0552 36.7076L31.4961 37.1516C31.5262 37.1819 31.5764 37.1921 31.6067 37.1621L31.8085 36.9616ZM31.0751 36.768L30.3991 37.3791L30.8301 37.8131L31.456 37.1314L31.0852 36.758" fill="#FFFF00"/>
<path d="M31.0751 36.768L30.3991 37.3791L30.8301 37.8131L31.456 37.1314L31.0852 36.758M29.9419 38.7352C30.2749 38.4045 30.1352 38.0822 30.1352 38.0822C30.1352 38.0822 29.8038 37.9503 29.4809 38.271L29.9419 38.7352ZM31.4314 38.4186L29.7979 36.7736C29.7678 36.7433 29.6974 36.7531 29.657 36.7932C29.6267 36.8233 29.6265 36.8836 29.6566 36.9139L31.2901 38.5589C31.3201 38.5891 31.3805 38.5893 31.4208 38.5493C31.4511 38.5192 31.4513 38.4589 31.4213 38.4286L31.4314 38.4186ZM31.2399 38.5285L29.6966 36.9744C29.6665 36.9441 29.6062 36.9439 29.5658 36.984C29.5255 37.0241 29.5252 37.0844 29.5553 37.1147L31.1086 38.6789C31.1487 38.7193 31.199 38.7094 31.2394 38.6693C31.2798 38.6292 31.29 38.579 31.2499 38.5386L31.2399 38.5285ZM31.8085 36.9616L31.6883 36.8405L31.6076 36.9207L31.5174 36.8299L31.5981 36.7497L31.4678 36.6185L31.377 36.7087L31.2868 36.6179L31.3877 36.5177L31.2675 36.3966L31.0656 36.597C31.0253 36.6371 31.0251 36.6773 31.0552 36.7076L31.4961 37.1516C31.5262 37.1819 31.5764 37.1921 31.6067 37.1621L31.8085 36.9616Z" stroke="black" stroke-width="0.0711113"/>
<path d="M31.2945 37.5934L30.9513 37.9341L31.3522 38.3378L31.6953 37.9971L31.2945 37.5934Z" fill="#FFFF00" stroke="black" stroke-width="0.0711113"/>
<path d="M30.232 36.5236L29.8888 36.8643L30.2897 37.268L30.6328 36.9272L30.232 36.5236Z" fill="#FFFF00" stroke="black" stroke-width="0.0711113"/>
<path d="M32.0273 37.8071L31.9071 37.686L31.8062 37.7862L31.716 37.6954L31.8169 37.5952L31.6966 37.4741L31.5957 37.5743L31.5055 37.4835L31.6064 37.3833L31.4862 37.2622L31.2844 37.4626C31.244 37.5027 31.2438 37.5429 31.2739 37.5732L31.7048 38.0071C31.7208 38.0232 31.7425 38.0323 31.7651 38.0323C31.7877 38.0324 31.8095 38.0235 31.8255 38.0076L32.0273 37.8071Z" fill="#FFFF00" stroke="black" stroke-width="0.0711113"/>
<path d="M30.9648 36.7373L30.8446 36.6162L30.7437 36.7164L30.6535 36.6256L30.7544 36.5254L30.6341 36.4043L30.5332 36.5045L30.443 36.4137L30.5439 36.3135L30.4237 36.1924L30.2219 36.3928C30.1815 36.4329 30.1813 36.4731 30.2114 36.5034L30.6423 36.9373C30.6583 36.9534 30.68 36.9624 30.7026 36.9625C30.7252 36.9626 30.747 36.9537 30.763 36.9377L30.9648 36.7373Z" fill="#FFFF00" stroke="black" stroke-width="0.0711113"/>
<path d="M31.105 37.2004C31.1655 37.1402 31.0753 37.0494 31.0148 37.1095L30.8533 37.2699L30.9435 37.3607L31.105 37.2004Z" fill="#000001"/>
<path d="M31.4136 37.9557C31.4741 37.8956 31.394 37.8149 31.3334 37.875L31.2123 37.9953L31.2925 38.076L31.4136 37.9557Z" fill="#000001"/>
<path d="M30.3511 36.8862C30.4116 36.826 30.3315 36.7453 30.2709 36.8054L30.1498 36.9257L30.23 37.0064L30.3511 36.8862Z" fill="#000001"/>
<path d="M24.545 32.3358C24.5424 32.636 24.6543 32.9259 24.8579 33.1465C24.9528 33.2527 25.0689 33.3379 25.1987 33.3967C25.3285 33.4554 25.4692 33.4865 25.6116 33.4878C25.9103 33.4878 26.1805 33.3456 26.3654 33.1465C26.569 32.9259 26.6809 32.636 26.6783 32.3358V30.7998H24.545V32.3358Z" fill="#003399"/>
<path d="M25.0434 31.5963C25.1612 31.5963 25.2567 31.5008 25.2567 31.383C25.2567 31.2652 25.1612 31.1697 25.0434 31.1697C24.9256 31.1697 24.8301 31.2652 24.8301 31.383C24.8301 31.5008 24.9256 31.5963 25.0434 31.5963Z" fill="white"/>
<path d="M26.2231 31.5963C26.3409 31.5963 26.4364 31.5008 26.4364 31.383C26.4364 31.2652 26.3409 31.1697 26.2231 31.1697C26.1053 31.1697 26.0098 31.2652 26.0098 31.383C26.0098 31.5008 26.1053 31.5963 26.2231 31.5963Z" fill="white"/>
<path d="M25.6254 32.1652C25.7433 32.1652 25.8388 32.0697 25.8388 31.9519C25.8388 31.834 25.7433 31.7385 25.6254 31.7385C25.5076 31.7385 25.4121 31.834 25.4121 31.9519C25.4121 32.0697 25.5076 32.1652 25.6254 32.1652Z" fill="white"/>
<path d="M25.0434 32.7624C25.1612 32.7624 25.2567 32.6668 25.2567 32.549C25.2567 32.4312 25.1612 32.3357 25.0434 32.3357C24.9256 32.3357 24.8301 32.4312 24.8301 32.549C24.8301 32.6668 24.9256 32.7624 25.0434 32.7624Z" fill="white"/>
<path d="M26.2231 32.7624C26.3409 32.7624 26.4364 32.6668 26.4364 32.549C26.4364 32.4312 26.3409 32.3357 26.2231 32.3357C26.1053 32.3357 26.0098 32.4312 26.0098 32.549C26.0098 32.6668 26.1053 32.7624 26.2231 32.7624Z" fill="white"/>
<path d="M24.545 28.6381C24.5424 28.9382 24.6543 29.2281 24.8579 29.4487C24.9528 29.5549 25.0689 29.6401 25.1987 29.6989C25.3285 29.7577 25.4692 29.7887 25.6116 29.7901C25.9103 29.7901 26.1805 29.6478 26.3654 29.4487C26.569 29.2281 26.6809 28.9382 26.6783 28.6381V27.1021H24.545V28.6381Z" fill="#003399"/>
<path d="M25.0434 27.8986C25.1612 27.8986 25.2567 27.8031 25.2567 27.6853C25.2567 27.5674 25.1612 27.4719 25.0434 27.4719C24.9256 27.4719 24.8301 27.5674 24.8301 27.6853C24.8301 27.8031 24.9256 27.8986 25.0434 27.8986Z" fill="white"/>
<path d="M26.2231 27.8986C26.3409 27.8986 26.4364 27.8031 26.4364 27.6853C26.4364 27.5674 26.3409 27.4719 26.2231 27.4719C26.1053 27.4719 26.0098 27.5674 26.0098 27.6853C26.0098 27.8031 26.1053 27.8986 26.2231 27.8986Z" fill="white"/>
<path d="M25.6254 28.4674C25.7433 28.4674 25.8388 28.3719 25.8388 28.2541C25.8388 28.1363 25.7433 28.0408 25.6254 28.0408C25.5076 28.0408 25.4121 28.1363 25.4121 28.2541C25.4121 28.3719 25.5076 28.4674 25.6254 28.4674Z" fill="white"/>
<path d="M25.0434 29.0646C25.1612 29.0646 25.2567 28.9691 25.2567 28.8513C25.2567 28.7335 25.1612 28.6379 25.0434 28.6379C24.9256 28.6379 24.8301 28.7335 24.8301 28.8513C24.8301 28.9691 24.9256 29.0646 25.0434 29.0646Z" fill="white"/>
<path d="M26.2231 29.0646C26.3409 29.0646 26.4364 28.9691 26.4364 28.8513C26.4364 28.7335 26.3409 28.6379 26.2231 28.6379C26.1053 28.6379 26.0098 28.7335 26.0098 28.8513C26.0098 28.9691 26.1053 29.0646 26.2231 29.0646Z" fill="white"/>
<path d="M21.586 32.3358C21.5834 32.636 21.6953 32.9259 21.8989 33.1465C21.9939 33.2527 22.11 33.3379 22.2397 33.3967C22.3695 33.4554 22.5102 33.4865 22.6526 33.4878C22.9513 33.4878 23.2215 33.3456 23.4064 33.1465C23.61 32.9259 23.7219 32.636 23.7193 32.3358V30.7998H21.586V32.3358Z" fill="#003399"/>
<path d="M22.0844 31.5963C22.2022 31.5963 22.2978 31.5008 22.2978 31.383C22.2978 31.2652 22.2022 31.1697 22.0844 31.1697C21.9666 31.1697 21.8711 31.2652 21.8711 31.383C21.8711 31.5008 21.9666 31.5963 22.0844 31.5963Z" fill="white"/>
<path d="M23.2641 31.5963C23.3819 31.5963 23.4774 31.5008 23.4774 31.383C23.4774 31.2652 23.3819 31.1697 23.2641 31.1697C23.1463 31.1697 23.0508 31.2652 23.0508 31.383C23.0508 31.5008 23.1463 31.5963 23.2641 31.5963Z" fill="white"/>
<path d="M22.6665 32.1652C22.7843 32.1652 22.8798 32.0697 22.8798 31.9519C22.8798 31.834 22.7843 31.7385 22.6665 31.7385C22.5486 31.7385 22.4531 31.834 22.4531 31.9519C22.4531 32.0697 22.5486 32.1652 22.6665 32.1652Z" fill="white"/>
<path d="M22.0844 32.7624C22.2022 32.7624 22.2978 32.6668 22.2978 32.549C22.2978 32.4312 22.2022 32.3357 22.0844 32.3357C21.9666 32.3357 21.8711 32.4312 21.8711 32.549C21.8711 32.6668 21.9666 32.7624 22.0844 32.7624Z" fill="white"/>
<path d="M23.2641 32.7624C23.3819 32.7624 23.4774 32.6668 23.4774 32.549C23.4774 32.4312 23.3819 32.3357 23.2641 32.3357C23.1463 32.3357 23.0508 32.4312 23.0508 32.549C23.0508 32.6668 23.1463 32.7624 23.2641 32.7624Z" fill="white"/>
<path d="M27.502 32.3358C27.4994 32.636 27.6113 32.9259 27.8149 33.1465C27.9099 33.2527 28.026 33.3379 28.1558 33.3967C28.2856 33.4554 28.4262 33.4865 28.5687 33.4878C28.8673 33.4878 29.1376 33.3456 29.3224 33.1465C29.526 32.9259 29.6379 32.636 29.6353 32.3358V30.7998H27.502V32.3358Z" fill="#003399"/>
<path d="M28.0004 31.5963C28.1183 31.5963 28.2138 31.5008 28.2138 31.383C28.2138 31.2652 28.1183 31.1697 28.0004 31.1697C27.8826 31.1697 27.7871 31.2652 27.7871 31.383C27.7871 31.5008 27.8826 31.5963 28.0004 31.5963Z" fill="white"/>
<path d="M29.1801 31.5963C29.298 31.5963 29.3935 31.5008 29.3935 31.383C29.3935 31.2652 29.298 31.1697 29.1801 31.1697C29.0623 31.1697 28.9668 31.2652 28.9668 31.383C28.9668 31.5008 29.0623 31.5963 29.1801 31.5963Z" fill="white"/>
<path d="M28.5825 32.1652C28.7003 32.1652 28.7958 32.0697 28.7958 31.9519C28.7958 31.834 28.7003 31.7385 28.5825 31.7385C28.4647 31.7385 28.3691 31.834 28.3691 31.9519C28.3691 32.0697 28.4647 32.1652 28.5825 32.1652Z" fill="white"/>
<path d="M28.0004 32.7624C28.1183 32.7624 28.2138 32.6668 28.2138 32.549C28.2138 32.4312 28.1183 32.3357 28.0004 32.3357C27.8826 32.3357 27.7871 32.4312 27.7871 32.549C27.7871 32.6668 27.8826 32.7624 28.0004 32.7624Z" fill="white"/>
<path d="M29.1801 32.7624C29.298 32.7624 29.3935 32.6668 29.3935 32.549C29.3935 32.4312 29.298 32.3357 29.1801 32.3357C29.0623 32.3357 28.9668 32.4312 28.9668 32.549C28.9668 32.6668 29.0623 32.7624 29.1801 32.7624Z" fill="white"/>
<path d="M24.545 36.0052C24.5424 36.3054 24.6543 36.5953 24.8579 36.8159C24.9528 36.9221 25.0689 37.0073 25.1987 37.0661C25.3285 37.1249 25.4692 37.1559 25.6116 37.1572C25.9103 37.1572 26.1805 37.015 26.3654 36.8159C26.569 36.5953 26.6809 36.3054 26.6783 36.0052V34.4692H24.545V36.0052Z" fill="#003399"/>
<path d="M25.0434 35.2658C25.1612 35.2658 25.2567 35.1703 25.2567 35.0524C25.2567 34.9346 25.1612 34.8391 25.0434 34.8391C24.9256 34.8391 24.8301 34.9346 24.8301 35.0524C24.8301 35.1703 24.9256 35.2658 25.0434 35.2658Z" fill="white"/>
<path d="M26.2231 35.2658C26.3409 35.2658 26.4364 35.1703 26.4364 35.0524C26.4364 34.9346 26.3409 34.8391 26.2231 34.8391C26.1053 34.8391 26.0098 34.9346 26.0098 35.0524C26.0098 35.1703 26.1053 35.2658 26.2231 35.2658Z" fill="white"/>
<path d="M25.6254 35.8346C25.7433 35.8346 25.8388 35.7391 25.8388 35.6213C25.8388 35.5035 25.7433 35.408 25.6254 35.408C25.5076 35.408 25.4121 35.5035 25.4121 35.6213C25.4121 35.7391 25.5076 35.8346 25.6254 35.8346Z" fill="white"/>
<path d="M25.0434 36.4318C25.1612 36.4318 25.2567 36.3363 25.2567 36.2185C25.2567 36.1006 25.1612 36.0051 25.0434 36.0051C24.9256 36.0051 24.8301 36.1006 24.8301 36.2185C24.8301 36.3363 24.9256 36.4318 25.0434 36.4318Z" fill="white"/>
<path d="M26.2231 36.4318C26.3409 36.4318 26.4364 36.3363 26.4364 36.2185C26.4364 36.1006 26.3409 36.0051 26.2231 36.0051C26.1053 36.0051 26.0098 36.1006 26.0098 36.2185C26.0098 36.3363 26.1053 36.4318 26.2231 36.4318Z" fill="white"/>
</g>
<defs>
<clipPath id="clip0_10790_11909">
<rect width="64" height="64" rx="32" fill="white"/>
</clipPath>
</defs>
</svg>
