<svg width="64" height="64" viewBox="0 0 64 64" fill="none" xmlns="http://www.w3.org/2000/svg">
<g clip-path="url(#clip0_11297_21577)">
<path d="M32 64C49.6731 64 64 49.6731 64 32C64 14.3269 49.6731 0 32 0C14.3269 0 0 14.3269 0 32C0 49.6731 14.3269 64 32 64Z" fill="#0052B4"/>
<path d="M14.0569 19.4785L14.7473 21.6045H16.9823L15.1743 22.9181L15.8649 25.0435L14.0569 23.7299L12.2483 25.0435L12.9389 22.9181L11.1309 21.6045H13.3659L14.0569 19.4785Z" fill="#F0F0F0"/>
<path d="M21.0133 17.3914L21.7041 19.5172H23.9393L22.1311 20.831L22.8219 22.9566L21.0133 21.6432L19.2051 22.9566L19.8959 20.831L18.0879 19.5172H20.3229L21.0133 17.3914Z" fill="#F0F0F0"/>
<path d="M27.9686 15.3047L28.6596 17.4307H30.8944L29.0864 18.7441L29.777 20.8699L27.9686 19.5563L26.1604 20.8699L26.8512 18.7441L25.043 17.4307H27.2778L27.9686 15.3047Z" fill="#F0F0F0"/>
<path d="M49.943 19.4785L49.2526 21.6045H47.0176L48.8256 22.9181L48.135 25.0435L49.943 23.7299L51.7516 25.0435L51.061 22.9181L52.869 21.6045H50.634L49.943 19.4785Z" fill="#F0F0F0"/>
<path d="M42.9885 17.3914L42.2977 19.5172H40.0625L41.8707 20.831L41.1799 22.9566L42.9885 21.6432L44.7965 22.9566L44.1059 20.831L45.9139 19.5172H43.6789L42.9885 17.3914Z" fill="#F0F0F0"/>
<path d="M36.0313 15.3047L35.3403 17.4307H33.1055L34.9135 18.7441L34.2229 20.8699L36.0313 19.5563L37.8395 20.8699L37.1487 18.7441L38.9567 17.4307H36.7221L36.0313 15.3047Z" fill="#F0F0F0"/>
<path d="M37.5661 33.3914L32.0009 26.4348L29.2183 27.826V30.6088L25.0443 33.3916H22.2617V36.9862C26.3399 38.6378 29.2183 42.634 29.2183 47.3044H32.0009V44.5218L34.7835 41.739L37.5663 44.5218L40.3491 41.739V38.9562L43.1317 34.7826L37.5661 33.3914Z" fill="#FFDA44"/>
</g>
<defs>
<clipPath id="clip0_11297_21577">
<rect width="64" height="64" fill="white"/>
</clipPath>
</defs>
</svg>
