<svg width="64" height="64" viewBox="0 0 64 64" fill="none" xmlns="http://www.w3.org/2000/svg">
<g clip-path="url(#clip0_11297_21588)">
<path d="M30.0254 -0.0375772C30.1796 -0.0381129 30.3339 -0.0386485 30.4928 -0.0392004C30.8175 -0.0399145 31.1422 -0.0399837 31.4669 -0.0394388C31.9579 -0.0390449 32.4488 -0.0419773 32.9397 -0.0451456C34.5505 -0.0492391 36.0582 -0.0100843 37.6255 0.37502C37.8605 0.420783 38.0957 0.465472 38.3311 0.508809C44.1392 1.66878 49.4871 4.38909 53.7979 8.44875C54.1191 8.75145 54.1191 8.75145 54.4556 9.01174C54.7209 9.22607 54.9304 9.43519 55.1489 9.69533C55.4929 10.0993 55.8484 10.4881 56.2114 10.875C60.2158 15.2853 62.7173 20.9735 63.6942 26.8134C63.7296 27.0093 63.769 27.2046 63.8139 27.3986C64.0148 28.2733 64.0388 29.1177 64.0381 30.0127C64.0389 30.2443 64.0389 30.2443 64.0397 30.4806C64.0405 30.8061 64.0405 31.1315 64.04 31.457C64.0396 31.9491 64.0425 32.4411 64.0457 32.9331C64.0498 34.5459 64.0113 36.0559 63.6255 37.625C63.5797 37.86 63.5351 38.0952 63.4917 38.3306C62.4288 43.6557 60.0507 48.6355 56.5005 52.75C56.4198 52.8446 56.3391 52.9392 56.2559 53.0366C54.9256 54.5552 53.4895 56.0333 51.8755 57.25C51.8083 57.3017 51.7412 57.3535 51.672 57.4068C47.3429 60.7352 42.2805 62.9318 36.8755 63.75C36.7357 63.7722 36.5958 63.7943 36.4517 63.8172C34.9865 64.0274 33.5336 64.0447 32.0552 64.0391C31.8639 64.0387 31.8639 64.0387 31.6687 64.0383C29.8402 64.0321 28.0464 64.0012 26.2505 63.625C26.0677 63.5878 26.0677 63.5878 25.8812 63.5498C19.8335 62.2847 14.335 59.5451 9.87551 55.25C9.79309 55.171 9.71067 55.092 9.62576 55.0106C8.43972 53.8675 7.34724 52.7054 6.37551 51.375C6.26825 51.2311 6.161 51.0873 6.05373 50.9434C5.29897 49.9195 4.62914 48.8553 4.00051 47.75C3.95495 47.671 3.90939 47.5921 3.86245 47.5107C2.04078 44.328 0.910098 40.7929 0.30684 37.1867C0.271426 36.9907 0.232058 36.7954 0.187085 36.6015C-0.0137445 35.7267 -0.0377846 34.8823 -0.0370856 33.9873C-0.0376212 33.8329 -0.0381569 33.6785 -0.0387088 33.5194C-0.0394235 33.194 -0.0394915 32.8685 -0.0389472 32.543C-0.0385537 32.051 -0.0414835 31.559 -0.044654 31.0669C-0.0487454 29.4542 -0.010315 27.9442 0.375512 26.375C0.421278 26.1401 0.465968 25.9049 0.509301 25.6695C1.57228 20.3439 3.95068 15.3652 7.50051 11.25C7.57979 11.1569 7.65907 11.0638 7.74075 10.9678C9.21714 9.27967 10.811 7.69575 12.6255 6.37502C12.7693 6.26796 12.913 6.16086 13.0567 6.05373C14.0804 5.29873 15.1435 4.62581 16.2505 4.00002C16.3389 3.94975 16.4273 3.89947 16.5184 3.84768C19.6737 2.07119 23.1294 0.93019 26.6915 0.306346C26.8947 0.269306 27.0974 0.229459 27.2995 0.186593C28.2136 -0.000170171 29.0943 -0.0383078 30.0254 -0.0375772Z" fill="#D70027"/>
<path d="M30.2502 -2.88785e-05C30.2502 0.0412211 30.2502 0.0824711 30.2502 0.124971C29.6727 0.166221 29.0952 0.207471 28.5002 0.249971C28.5236 0.425061 28.547 0.600151 28.571 0.780546C28.7978 2.49246 29.0039 4.20573 29.1952 5.92194C29.225 6.18756 29.2548 6.45318 29.2846 6.7188C29.3644 7.42987 29.4438 8.14097 29.5232 8.8521C29.5728 9.29713 29.6225 9.74216 29.6722 10.1872C29.8281 11.5822 29.9837 12.9772 30.139 14.3723C30.3178 15.9788 30.4974 17.5853 30.6776 19.1916C30.8174 20.438 30.9565 21.6845 31.0952 22.931C31.1778 23.6739 31.2607 24.4168 31.3443 25.1597C31.4227 25.8558 31.5002 26.5519 31.577 27.2482C31.6054 27.5038 31.6341 27.7594 31.6631 28.0149C31.7025 28.3629 31.7408 28.711 31.7789 29.0592C31.7907 29.1608 31.8025 29.2624 31.8146 29.3672C31.8818 29.9955 31.9119 30.4025 31.5359 30.9199C31.4442 31.0185 31.3525 31.1171 31.2581 31.2187C31.1249 31.3686 31.1249 31.3686 30.989 31.5215C30.205 32.014 29.0531 31.7343 28.1639 31.6322C28.0487 31.6195 27.9335 31.6068 27.8148 31.5938C27.4323 31.5515 27.0498 31.5083 26.6674 31.4651C26.3918 31.4344 26.1161 31.4039 25.8405 31.3733C25.0943 31.2905 24.3482 31.2069 23.6022 31.1231C22.8204 31.0354 22.0386 30.9485 21.2568 30.8615C19.9444 30.7153 18.6319 30.5687 17.3196 30.4217C15.9709 30.2706 14.6221 30.1199 13.2733 29.9695C13.1902 29.9603 13.1071 29.951 13.0214 29.9415C12.6873 29.9042 12.3532 29.867 12.019 29.8298C9.45695 29.5442 6.89493 29.2584 4.33302 28.9716C4.06495 28.9416 3.79688 28.9116 3.52881 28.8817C3.16247 28.8407 2.79614 28.7997 2.42982 28.7586C2.32415 28.7468 2.21848 28.7351 2.10961 28.7229C1.48918 28.6533 0.869594 28.5786 0.250239 28.5C0.208989 29.0775 0.167739 29.655 0.125239 30.25C0.0839889 30.25 0.0427389 30.25 0.00023892 30.25C-0.0478528 29.0103 0.0476241 27.8761 0.313777 26.6624C0.380219 26.3517 0.44015 26.0401 0.499751 25.728C1.55071 20.3809 3.93846 15.379 7.50024 11.25C7.57952 11.1568 7.65879 11.0637 7.74047 10.9677C9.21687 9.27962 10.8107 7.6957 12.6252 6.37497C12.769 6.26791 12.9127 6.16081 13.0564 6.05368C14.0802 5.29868 15.1432 4.62576 16.2502 3.99997C16.3386 3.9497 16.427 3.89942 16.5181 3.84763C19.6976 2.05753 23.1623 0.93846 26.7463 0.296785C26.9633 0.256787 27.1792 0.211217 27.3948 0.164522C28.3458 -0.0382633 29.2824 -0.0235394 30.2502 -2.88785e-05Z" fill="#0052B3"/>
<path d="M34.125 7.24439e-05C35.2299 -0.0564316 36.2545 0.0835423 37.3315 0.31361C37.6448 0.379236 37.959 0.439501 38.2734 0.499584C44.1029 1.64811 49.4732 4.37659 53.7973 8.4488C54.1185 8.7515 54.1185 8.7515 54.455 9.01179C54.7203 9.22612 54.9298 9.43525 55.1484 9.69538C55.4923 10.0994 55.8479 10.4882 56.2109 10.8751C60.225 15.2961 62.7038 20.9785 63.6966 26.8269C63.7538 27.1466 63.8202 27.4636 63.8872 27.7813C63.9761 28.2202 64.0284 28.6287 64.0156 29.0782C64.0133 29.1829 64.0111 29.2877 64.0087 29.3956C64.0058 29.4713 64.0029 29.547 64 29.6251C63.9587 29.6251 63.9175 29.6251 63.875 29.6251C63.875 29.2538 63.875 28.8826 63.875 28.5001C63.7796 28.511 63.6843 28.522 63.586 28.5332C60.9748 28.8327 58.3633 29.1295 55.7516 29.4247C55.4538 29.4583 55.156 29.492 54.8582 29.5256C54.7042 29.5431 54.5502 29.5605 54.3916 29.5784C53.1938 29.7138 51.9961 29.85 50.7984 29.9862C48.7418 30.2202 46.6852 30.4528 44.6284 30.6841C43.5307 30.8076 42.4331 30.9316 41.3356 31.0569C40.3865 31.1652 39.4373 31.2725 38.488 31.3785C37.9951 31.4336 37.5023 31.4892 37.0097 31.546C36.5534 31.5987 36.097 31.6499 35.6405 31.7001C35.3947 31.7274 35.1492 31.7563 34.9036 31.7852C34.6851 31.8088 34.6851 31.8088 34.4621 31.8329C34.3358 31.8472 34.2095 31.8614 34.0794 31.8761C33.593 31.8746 33.349 31.7073 32.9824 31.4029C32.8954 31.3138 32.8084 31.2247 32.7187 31.1329C32.6304 31.0467 32.5421 30.9605 32.4511 30.8717C31.9875 30.0153 32.264 28.8 32.3733 27.8588C32.3866 27.7392 32.3999 27.6196 32.4136 27.4964C32.4577 27.0998 32.503 26.7033 32.5483 26.3069C32.5804 26.021 32.6124 25.735 32.6444 25.4491C32.731 24.6759 32.8185 23.9028 32.9062 23.1297C32.9979 22.3207 33.0886 21.5115 33.1795 20.7024C33.332 19.3453 33.4851 17.9882 33.6385 16.6312C33.7965 15.2341 33.9542 13.8369 34.1114 12.4397C34.1211 12.3534 34.1308 12.2672 34.1408 12.1783C34.1895 11.7455 34.2382 11.3127 34.2869 10.8799C34.6903 7.29485 35.0948 3.70992 35.5 0.125072C35.0462 0.125072 34.5925 0.125072 34.125 0.125072C34.125 0.0838224 34.125 0.0425724 34.125 7.24439e-05Z" fill="#0052B3"/>
<path d="M30 32.2501C29.4619 33.0414 28.8261 33.6892 28.1468 34.3572C27.6912 34.8061 27.2594 35.2631 26.8462 35.7516C26.5001 36.1405 26.1262 36.5014 25.7558 36.8669C25.4274 37.1925 25.1125 37.5232 24.8125 37.8751C24.4022 38.3565 23.9558 38.798 23.5059 39.2418C23.1775 39.5675 22.8625 39.8982 22.5625 40.2501C22.1522 40.7315 21.7058 41.173 21.2559 41.6168C20.9275 41.9425 20.6125 42.2732 20.3125 42.6251C19.9022 43.1065 19.4558 43.548 19.0059 43.9918C18.6775 44.3175 18.3625 44.6482 18.0625 45.0001C17.6522 45.4815 17.2058 45.923 16.7559 46.3668C16.4275 46.6925 16.1125 47.0232 15.8125 47.3751C15.4022 47.8564 14.956 48.2978 14.5062 48.7415C14.1 49.1443 13.722 49.5618 13.3511 49.9967C12.978 50.415 12.5739 50.8021 12.1753 51.1959C11.9204 51.4542 11.6806 51.7164 11.4453 51.9923C10.9722 52.5467 10.4524 53.0516 9.93167 53.5606C9.67726 53.8215 9.45867 54.0774 9.25003 54.3751C6.99745 53.3652 5.1793 49.8235 4.00003 47.7501C3.95447 47.6711 3.90891 47.5921 3.86197 47.5108C2.03606 44.3207 0.914564 40.7846 0.303374 37.1723C0.246944 36.8579 0.180045 36.5467 0.112822 36.2345C0.00469598 35.7008 -0.0262677 35.2162 -0.0155958 34.672C-0.01334 34.5208 -0.0110841 34.3697 -0.0087599 34.214C-0.00585951 34.1021 -0.00295912 33.9903 2.91578e-05 33.8751C0.0412792 33.8751 0.0825292 33.8751 0.125029 33.8751C0.125029 34.4114 0.125029 34.9476 0.125029 35.5001C1.03373 35.4005 1.94239 35.3006 2.85101 35.2003C3.15874 35.1663 3.46648 35.1325 3.77423 35.0988C4.22209 35.0498 4.6699 35.0003 5.1177 34.9508C5.25051 34.9363 5.38332 34.9218 5.52016 34.9069C6.28014 34.8225 7.03816 34.7292 7.79603 34.6278C9.8258 34.3569 11.8605 34.1327 13.8957 33.908C14.3168 33.8615 14.7378 33.8148 15.1587 33.7681C16.1513 33.6581 17.1439 33.5484 18.1365 33.4389C19.1571 33.3263 20.1777 33.2131 21.1982 33.0996C22.0801 33.0015 22.962 32.9039 23.844 32.8065C24.3684 32.7487 24.8928 32.6906 25.4172 32.6322C25.9085 32.5774 26.3999 32.5232 26.8913 32.4693C27.0709 32.4496 27.2505 32.4296 27.43 32.4095C28.2902 32.313 29.134 32.2235 30 32.2501Z" fill="#0052B3"/>
<path d="M34 32.25C35.5715 32.329 37.1285 32.4869 38.6917 32.6626C38.9566 32.692 39.2214 32.7214 39.4863 32.7507C40.1996 32.8298 40.9128 32.9095 41.6261 32.9893C42.3747 33.073 43.1233 33.1562 43.872 33.2394C45.1275 33.3791 46.383 33.5191 47.6385 33.6593C49.2491 33.8392 50.8599 34.0186 52.4707 34.1978C53.8582 34.3521 55.2457 34.5067 56.6332 34.6613C57.0783 34.7109 57.5233 34.7605 57.9683 34.81C58.6672 34.8879 59.366 34.9658 60.0648 35.0439C60.321 35.0726 60.5772 35.1011 60.8335 35.1297C61.1834 35.1686 61.5333 35.2077 61.8832 35.2469C61.9844 35.2581 62.0855 35.2694 62.1897 35.2809C62.7532 35.3442 63.3141 35.4169 63.875 35.5C63.875 34.9637 63.875 34.4275 63.875 33.875C63.9163 33.875 63.9575 33.875 64 33.875C64.0506 35.0743 63.941 36.1645 63.6865 37.3356C63.6203 37.6472 63.5602 37.9596 63.5005 38.2725C62.4427 43.6508 59.6006 51.0618 54.875 54.375C52.9951 52.5186 52.9951 52.5186 52.3418 51.7441C51.9975 51.3564 51.6247 50.9972 51.2557 50.6332C50.8524 50.2332 50.4776 49.8186 50.1094 49.3867C49.8146 49.0575 49.5019 48.7477 49.1875 48.4375C48.7227 47.9789 48.2829 47.5086 47.8594 47.0117C47.5646 46.6825 47.2519 46.3727 46.9375 46.0625C46.4727 45.6039 46.0329 45.1336 45.6094 44.6367C45.3146 44.3075 45.0019 43.9977 44.6875 43.6875C44.2227 43.2289 43.7829 42.7586 43.3594 42.2617C43.0646 41.9325 42.7519 41.6227 42.4375 41.3125C41.9727 40.8539 41.5329 40.3836 41.1094 39.8867C40.8146 39.5575 40.5019 39.2477 40.1875 38.9375C39.7227 38.4789 39.2829 38.0086 38.8594 37.5117C38.5646 37.1825 38.2519 36.8727 37.9375 36.5625C37.4727 36.1039 37.0329 35.6336 36.6094 35.1367C36.3146 34.8075 36.0019 34.4977 35.6875 34.1875C34.2637 32.7775 34.2637 32.7775 34 32.25Z" fill="#0051B3"/>
<path d="M7.12524 11.625C7.66637 11.7324 7.98696 12.025 8.39086 12.3828C8.5374 12.5097 8.68405 12.6365 8.83081 12.7632C8.90261 12.8254 8.97442 12.8877 9.0484 12.9518C9.40853 13.2608 9.78126 13.5535 10.1531 13.8481C10.5944 14.2001 11.0315 14.5573 11.469 14.9141C12.1069 15.4341 12.7493 15.9475 13.3987 16.4531C14.0344 16.9486 14.6523 17.4612 15.2646 17.9853C15.8098 18.4498 16.3698 18.8925 16.9352 19.3322C17.6324 19.8762 18.314 20.4385 18.9954 21.0021C19.5498 21.4604 20.1075 21.9138 20.6706 22.3613C21.1057 22.7094 21.5371 23.062 21.969 23.4141C22.607 23.9341 23.2493 24.4475 23.8987 24.9531C24.5344 25.4486 25.1523 25.9612 25.7646 26.4853C26.3096 26.9496 26.8693 27.3923 27.4346 27.8316C28.133 28.3763 28.8155 28.9396 29.4957 29.5067C30.0674 29.9815 30.6517 30.4346 31.2502 30.875C31.0883 31.2363 30.9353 31.5003 30.6252 31.75C30.3578 31.7908 30.3578 31.7908 30.0525 31.7808C29.9411 31.7774 29.8297 31.7739 29.715 31.7704C29.1958 31.7392 28.6806 31.6916 28.1639 31.6322C28.0487 31.6195 27.9335 31.6069 27.8148 31.5938C27.4323 31.5516 27.0498 31.5083 26.6674 31.4651C26.3918 31.4345 26.1161 31.4039 25.8405 31.3734C25.0943 31.2906 24.3482 31.2069 23.6022 31.1231C22.8204 31.0354 22.0386 30.9485 21.2568 30.8615C19.9444 30.7154 18.6319 30.5687 17.3196 30.4217C15.9709 30.2707 14.6221 30.1199 13.2733 29.9696C13.1902 29.9603 13.1071 29.951 13.0214 29.9415C12.6873 29.9043 12.3531 29.867 12.019 29.8298C9.45695 29.5443 6.89493 29.2585 4.33302 28.9716C4.06495 28.9416 3.79688 28.9117 3.52881 28.8817C3.16247 28.8408 2.79614 28.7997 2.42982 28.7587C2.32415 28.7469 2.21848 28.7351 2.10961 28.7229C1.48918 28.6533 0.869594 28.5787 0.250239 28.5C0.208989 29.0775 0.167739 29.655 0.125239 30.25C0.0839889 30.25 0.0427389 30.25 0.00023892 30.25C-0.0478528 29.0103 0.0476241 27.8762 0.313777 26.6624C0.380219 26.3517 0.44015 26.0401 0.499751 25.728C1.53933 20.4388 3.90826 15.891 7.12524 11.625Z" fill="#0052B3"/>
<path d="M56.75 11.75C57.3332 12.1619 57.6944 12.6468 58.0938 13.2266C58.1593 13.3208 58.2249 13.4151 58.2924 13.5122C58.9042 14.4012 59.4684 15.3112 60 16.25C60.0452 16.3284 60.0904 16.4069 60.137 16.4877C61.9637 19.6787 63.0833 23.2139 63.6967 26.8268C63.7538 27.1465 63.8202 27.4635 63.8872 27.7812C63.9761 28.2201 64.0285 28.6286 64.0156 29.0781C64.0134 29.1829 64.0111 29.2876 64.0088 29.3955C64.0059 29.4712 64.003 29.547 64 29.625C63.9587 29.625 63.9175 29.625 63.875 29.625C63.875 29.2537 63.875 28.8825 63.875 28.5C63.7797 28.5109 63.6843 28.5219 63.5861 28.5332C60.9749 28.8326 58.3634 29.1295 55.7517 29.4246C55.4538 29.4583 55.156 29.4919 54.8582 29.5256C54.7042 29.543 54.5503 29.5604 54.3916 29.5783C53.1938 29.7138 51.9961 29.8499 50.7984 29.9861C48.7419 30.2201 46.6852 30.4528 44.6284 30.684C43.5307 30.8075 42.4331 30.9315 41.3356 31.0568C40.3866 31.1651 39.4374 31.2725 38.488 31.3785C37.9952 31.4335 37.5024 31.4891 37.0097 31.546C36.5534 31.5986 36.0971 31.6499 35.6405 31.7C35.3948 31.7274 35.1492 31.7562 34.9037 31.7851C34.6851 31.8087 34.6851 31.8087 34.4622 31.8328C34.3359 31.8471 34.2096 31.8614 34.0795 31.8761C33.7232 31.8749 33.5438 31.8225 33.25 31.625C33.1401 31.3833 33.1401 31.3833 33.125 31.125C33.6478 30.3487 34.3932 29.8247 35.1274 29.2612C35.6577 28.853 36.1727 28.4275 36.6875 28C37.3367 27.4619 37.9906 26.9317 38.6562 26.4141C39.2196 25.9759 39.7703 25.5265 40.3125 25.0625C40.9242 24.539 41.5494 24.0371 42.1849 23.5428C42.8822 22.9988 43.5637 22.4365 44.2452 21.8729C44.7996 21.4146 45.3572 20.9612 45.9204 20.5137C46.3555 20.1656 46.7869 19.813 47.2188 19.4609C47.8567 18.9409 48.499 18.4275 49.1484 17.9219C49.7842 17.4264 50.402 16.9138 51.0144 16.3897C51.5596 15.9252 52.1196 15.4825 52.6849 15.0428C53.3807 14.4999 54.0609 13.939 54.7408 13.3765C55.405 12.8272 56.074 12.2848 56.75 11.75Z" fill="#0052B3"/>
<path d="M0.249512 28.5C1.90724 28.576 3.5489 28.7402 5.19754 28.9261C5.47494 28.9569 5.75234 28.9877 6.02975 29.0185C6.7763 29.1014 7.52277 29.185 8.26923 29.2687C9.05177 29.3563 9.83437 29.4434 10.617 29.5305C11.9284 29.6765 13.2398 29.8229 14.5511 29.9696C15.9007 30.1206 17.2503 30.2713 18.5999 30.4217C18.6834 30.431 18.7668 30.4403 18.8528 30.4499C19.2716 30.4966 19.6903 30.5432 20.109 30.5899C23.5726 30.9759 27.0361 31.3627 30.4995 31.75C30.362 31.9911 30.362 31.9911 30.1245 32.25C29.7682 32.3456 29.7682 32.3456 29.3252 32.393C29.2438 32.4024 29.1623 32.4117 29.0783 32.4214C28.8048 32.4522 28.5311 32.4798 28.2572 32.5074C28.0611 32.5288 27.8649 32.5504 27.6688 32.5723C27.135 32.6311 26.601 32.6871 26.0669 32.7427C25.5056 32.8016 24.9447 32.8631 24.3838 32.9243C23.3178 33.0403 22.2517 33.154 21.1854 33.2669C19.6313 33.4315 18.0775 33.5997 16.5237 33.7676C16.2923 33.7926 16.0609 33.8176 15.8295 33.8426C15.7163 33.8549 15.603 33.8671 15.4863 33.8797C14.8215 33.9515 14.1566 34.0227 13.4917 34.0933C11.3722 34.3185 9.25601 34.5518 7.14388 34.8389C6.56445 34.9165 5.98377 34.9832 5.40283 35.0483C5.28472 35.0617 5.1666 35.075 5.0449 35.0888C4.802 35.1161 4.55909 35.1433 4.31616 35.1703C3.94654 35.2116 3.57703 35.2539 3.20752 35.2961C2.96794 35.323 2.72836 35.3498 2.48877 35.3765C2.38055 35.389 2.27234 35.4015 2.16085 35.4143C1.4778 35.4891 0.811685 35.5109 0.124512 35.5C0.0184044 34.3468 -0.0197693 33.2046 -0.0161133 32.0469C-0.0168384 31.8158 -0.0168384 31.8158 -0.0175781 31.5801C-0.0151513 29.294 -0.0151513 29.294 0.249512 28.5Z" fill="#FDD944"/>
<path d="M63.875 28.4999C64.0145 29.4786 64.0191 30.4501 64.0163 31.4363C64.0156 31.7163 64.0163 31.9963 64.0171 32.2763C64.0175 33.3569 63.9741 34.4231 63.875 35.4999C62.2698 35.4197 60.6786 35.2569 59.0816 35.0798C58.8059 35.0496 58.5301 35.0194 58.2544 34.9892C57.5117 34.9078 56.769 34.8258 56.0264 34.7436C55.5623 34.6922 55.0981 34.6409 54.6339 34.5896C53.2636 34.4382 51.8933 34.2865 50.5231 34.1341C50.2737 34.1064 50.0243 34.0787 49.775 34.051C49.6924 34.0418 49.6099 34.0326 49.5248 34.0232C48.1818 33.8739 46.8387 33.7261 45.4955 33.579C44.1135 33.4275 42.7318 33.2748 41.3501 33.1209C40.5754 33.0346 39.8007 32.9489 39.0258 32.8645C38.299 32.7854 37.5724 32.7046 36.8459 32.6226C36.5788 32.5927 36.3116 32.5634 36.0444 32.5348C35.6809 32.4957 35.3178 32.4545 34.9546 32.4128C34.8477 32.4018 34.7409 32.3909 34.6308 32.3796C34.377 32.3493 34.1254 32.3012 33.875 32.2499C33.7925 32.1262 33.71 32.0024 33.625 31.8749C33.8976 31.6023 34.4911 31.6527 34.8696 31.6115C35.048 31.5915 35.048 31.5915 35.23 31.571C35.6317 31.5259 36.0335 31.4817 36.4354 31.4374C36.7221 31.4054 37.0089 31.3734 37.2957 31.3413C38.0772 31.254 38.8587 31.1674 39.6403 31.081C40.457 30.9906 41.2737 30.8996 42.0904 30.8087C43.5511 30.6463 45.0118 30.4844 46.4725 30.3227C47.7963 30.1762 49.1201 30.0291 50.4439 29.8816C52.1444 29.6922 53.8449 29.5032 55.5455 29.3147C56.1951 29.2426 56.8447 29.1704 57.4943 29.098C58.2599 29.0127 59.0254 28.9279 59.7911 28.8435C60.0721 28.8124 60.3531 28.7811 60.6341 28.7497C61.0178 28.7069 61.4015 28.6646 61.7852 28.6225C61.8964 28.6099 62.0075 28.5974 62.1221 28.5844C62.7106 28.5205 63.283 28.4874 63.875 28.4999Z" fill="#FCD844"/>
<path d="M32.2101 -0.0234106C32.3772 -0.0232277 32.5443 -0.0231461 32.7114 -0.0231665C33.6477 -0.0189883 34.5685 0.0235345 35.4992 0.125027C35.4232 1.78275 35.259 3.42442 35.0731 5.07306C35.0423 5.35045 35.0115 5.62786 34.9807 5.90527C34.8978 6.65181 34.8142 7.39829 34.7305 8.14474C34.6428 8.92728 34.5558 9.70989 34.4687 10.4925C34.3227 11.8039 34.1763 13.1153 34.0296 14.4266C33.8786 15.7762 33.7279 17.1258 33.5775 18.4755C33.5682 18.5589 33.5589 18.6424 33.5493 18.7283C33.5026 19.1471 33.456 19.5658 33.4093 19.9845C33.0233 23.4481 32.6365 26.9116 32.2492 30.375C32.0062 30.2804 32.0062 30.2804 31.7492 30.125C31.6595 29.7368 31.6048 29.383 31.5657 28.9887C31.552 28.8695 31.5383 28.7503 31.5242 28.6275C31.4786 28.2257 31.4364 27.8236 31.3941 27.4215C31.3622 27.1343 31.3301 26.8471 31.2978 26.5599C31.2105 25.7781 31.1261 24.996 31.0422 24.2138C30.9541 23.3965 30.8634 22.5794 30.773 21.7623C30.6214 20.3896 30.4716 19.0166 30.3229 17.6436C30.17 16.2307 30.0159 14.818 29.8603 13.4054C29.8507 13.3184 29.8411 13.2315 29.8313 13.1419C29.7928 12.7924 29.7543 12.4429 29.7158 12.0934C29.5407 10.5043 29.3665 8.91499 29.1926 7.32571C29.1749 7.1643 29.1572 7.00289 29.139 6.83659C29.0375 5.90891 28.9364 4.98118 28.8359 4.05339C28.8053 3.77205 28.7747 3.49071 28.7439 3.2094C28.702 2.82595 28.6606 2.44245 28.6192 2.05895C28.6069 1.94713 28.5946 1.83531 28.5819 1.7201C28.5293 1.22768 28.4836 0.746173 28.4992 0.250027C29.7481 0.0357052 30.9426 -0.0352452 32.2101 -0.0234106Z" fill="#FDD944"/>
<path d="M52.25 7.125C53.0925 7.70395 53.7895 8.3936 54.5 9.125C54.8011 9.42796 55.1034 9.7291 55.4102 10.0264C55.5017 10.1156 55.5932 10.2049 55.6875 10.2969C55.779 10.3855 55.8705 10.4741 55.9648 10.5654C56.3086 10.9386 56.5866 11.3326 56.875 11.75C55.9531 12.5528 55.0239 13.3395 54.058 14.089C53.4673 14.5488 52.8889 15.0223 52.3125 15.5C51.6632 16.038 51.0094 16.5683 50.3438 17.0859C49.7804 17.5241 49.2297 17.9735 48.6875 18.4375C48.0754 18.9613 47.4499 19.4635 46.814 19.958C46.2216 20.4202 45.641 20.8956 45.0625 21.375C44.4232 21.9046 43.7801 22.4276 43.125 22.9375C42.291 23.587 41.4762 24.2586 40.6616 24.9321C39.9032 25.559 39.1385 26.1782 38.3741 26.7978C38.1213 27.003 37.869 27.2087 37.6167 27.4146C36.8154 28.068 36.0113 28.7165 35.1953 29.3516C34.5227 29.8753 33.8766 30.4215 33.25 31C33.1675 30.9587 33.085 30.9175 33 30.875C33.0445 30.8211 33.089 30.7672 33.1349 30.7117C35.1292 28.2999 35.1292 28.2999 37.0781 25.8516C37.5736 25.2158 38.0862 24.598 38.6103 23.9856C39.0751 23.4401 39.5181 22.8797 39.958 22.314C40.4926 21.6288 41.0457 20.9599 41.6002 20.2908C42.0624 19.7316 42.5156 19.1665 42.9609 18.5938C43.4536 17.9603 43.9636 17.3452 44.4853 16.7356C44.9498 16.1904 45.3925 15.6304 45.8322 15.0651C46.3762 14.3678 46.9385 13.6863 47.5021 13.0048C47.9604 12.4504 48.4138 11.8928 48.8613 11.3296C49.2094 10.8945 49.562 10.4631 49.9141 10.0312C50.52 9.2876 51.1177 8.53803 51.7077 7.78162C52.1138 7.26122 52.1138 7.26122 52.25 7.125Z" fill="#FDD944"/>
<path d="M11.75 7C12.6415 7.86364 13.428 8.80617 14.1888 9.78537C14.6571 10.3866 15.1387 10.9758 15.625 11.5625C16.163 12.2118 16.6933 12.8656 17.2109 13.5312C17.6491 14.0946 18.0985 14.6453 18.5625 15.1875C19.086 15.7992 19.5879 16.4244 20.0822 17.0599C20.6262 17.7572 21.1885 18.4387 21.7521 19.1202C22.2104 19.6746 22.6638 20.2322 23.1113 20.7954C23.4594 21.2305 23.812 21.6619 24.1641 22.0938C24.6841 22.7317 25.1975 23.374 25.7031 24.0234C26.1986 24.6592 26.7112 25.277 27.2353 25.8894C27.6991 26.4338 28.1421 26.9925 28.58 27.558C28.9125 27.9854 29.2524 28.405 29.6006 28.8198C29.6811 28.916 29.7616 29.0121 29.8446 29.1112C30.0032 29.2999 30.1625 29.488 30.3227 29.6754C30.4305 29.8039 30.4305 29.8039 30.5405 29.9351C30.6051 30.011 30.6697 30.0869 30.7362 30.1651C30.875 30.375 30.875 30.375 30.875 30.75C30.7722 30.6623 30.6694 30.5747 30.5635 30.4844C29.8325 29.8625 29.0981 29.2473 28.3462 28.6509C27.9108 28.3039 27.4788 27.9529 27.0469 27.6016C26.9617 27.5323 26.8765 27.4631 26.7887 27.3917C26.3549 27.039 25.9214 26.686 25.4883 26.3325C24.6982 25.6884 23.9057 25.0484 23.1016 24.4219C22.4658 23.9264 21.848 23.4138 21.2356 22.8897C20.6904 22.4252 20.1304 21.9825 19.5651 21.5428C18.8678 20.9988 18.1863 20.4365 17.5048 19.8729C16.9504 19.4146 16.3928 18.9612 15.8296 18.5137C15.3945 18.1656 14.9631 17.813 14.5312 17.4609C13.8933 16.9409 13.251 16.4275 12.6016 15.9219C12.0358 15.481 11.4825 15.0288 10.9375 14.5625C10.1034 13.8489 9.24224 13.1727 8.375 12.5C8.25608 12.4073 8.13717 12.3147 8.01465 12.2192C7.75999 12.0209 7.50508 11.8228 7.25 11.625C7.83428 10.788 8.51335 10.0771 9.23685 9.36243C9.42954 9.17202 9.62121 8.98063 9.81274 8.78906C10.4376 8.16654 11.0688 7.56144 11.75 7Z" fill="#FDD944"/>
</g>
<defs>
<clipPath id="clip0_11297_21588">
<rect width="64" height="64" fill="white"/>
</clipPath>
</defs>
</svg>
