<svg width="64" height="64" viewBox="0 0 64 64" fill="none" xmlns="http://www.w3.org/2000/svg">
<g clip-path="url(#clip0_10790_12077)">
<path d="M0 0H64V64H0V0Z" fill="#20603D"/>
<path d="M0 0H64V48H0V0Z" fill="#FAD201"/>
<path d="M0 0H64V32H0V0Z" fill="#00A1DE"/>
<path d="M57.1197 16.7251L49.9731 17.1429L56.7641 19.4006L49.7598 17.9518L55.7419 21.8806L49.342 18.6629L54.0886 24.0228L48.7465 19.2673L51.9642 25.6672L48.0265 19.6851L49.4664 26.6805L47.2176 19.8984L46.7998 27.045L46.7109 16.6362L57.1197 16.7251Z" fill="#E5BE01"/>
<path d="M57.1197 16.7251L49.9731 16.3073L56.7641 14.0496L49.7598 15.4984L55.7419 11.5696L49.342 14.7873L54.0886 9.42741L48.7465 14.1829L51.9642 7.783L48.0265 13.7651L49.4664 6.76968L47.2176 13.5518L46.7998 6.40524L46.7109 16.814L57.1197 16.7251Z" fill="#E5BE01"/>
<path d="M36.4799 16.7251L43.6265 17.1429L36.8355 19.4006L43.8398 17.9518L37.8577 21.8806L44.2576 18.6629L39.511 24.0228L44.8531 19.2673L41.6354 25.6672L45.5731 19.6851L44.1332 26.6805L46.382 19.8984L46.7998 27.045L46.8887 16.6362L36.4799 16.7251Z" fill="#E5BE01"/>
<path d="M36.4799 16.7251L43.6265 16.3073L36.8355 14.0496L43.8398 15.4984L37.8577 11.5696L44.2576 14.7873L39.511 9.42741L44.8531 14.1829L41.6354 7.783L45.5731 13.7651L44.1332 6.76968L46.382 13.5518L46.7998 6.40524L46.8887 16.814L36.4799 16.7251Z" fill="#E5BE01"/>
<path d="M46.8008 19.774C48.4846 19.774 49.8496 18.4089 49.8496 16.7251C49.8496 15.0413 48.4846 13.6763 46.8008 13.6763C45.117 13.6763 43.752 15.0413 43.752 16.7251C43.752 18.4089 45.117 19.774 46.8008 19.774Z" fill="#E5BE01" stroke="#00A1DE" stroke-width="0.302218"/>
<g clip-path="url(#clip1_10790_12077)">
<mask id="mask0_10790_12077" style="mask-type:luminance" maskUnits="userSpaceOnUse" x="0" y="-1" width="65" height="65">
<path d="M0.00585938 -0.000732422H64.0044V63.9892H0.00585938V-0.000732422Z" fill="white"/>
</mask>
<g mask="url(#mask0_10790_12077)">
<path fill-rule="evenodd" clip-rule="evenodd" d="M-13.4785 0.0251465H78.7271V63.9292H-13.4785V0.0251465Z" fill="#FFE900"/>
<path fill-rule="evenodd" clip-rule="evenodd" d="M-13.5215 0.0250797L-13.4184 46.0978L58.3276 -0.00927734L-13.5215 0.0250797Z" fill="#35A100"/>
<path fill-rule="evenodd" clip-rule="evenodd" d="M78.839 63.9291L78.6758 16.0269L6.30273 63.972L78.839 63.9377V63.9291Z" fill="#C70000"/>
<path fill-rule="evenodd" clip-rule="evenodd" d="M-13.4785 49.5765L-13.4184 63.9979L2.23981 63.9721L78.7099 12.7029L78.624 0.162574L63.1548 0.0251465L-13.4785 49.5765Z" fill="#000001"/>
<path fill-rule="evenodd" clip-rule="evenodd" d="M57.2369 23.1301L51.7226 22.9412L49.5495 28.1119L48.3213 22.8295L42.807 22.6405L47.5654 19.5742L46.3286 14.2832L50.4944 17.6674L55.2442 14.5838L53.0625 19.7546L57.2369 23.1301ZM22.837 45.5137L17.3141 45.3162L15.1496 50.4869L13.9213 45.2045L8.39844 45.0155L13.1569 41.9406L11.92 36.6668L16.0858 40.051L20.8357 36.9674L18.6626 42.1296L22.837 45.5137Z" fill="white"/>
</g>
</g>
</g>
<defs>
<clipPath id="clip0_10790_12077">
<rect width="64" height="64" rx="32" fill="white"/>
</clipPath>
<clipPath id="clip1_10790_12077">
<rect width="64" height="64" fill="white"/>
</clipPath>
</defs>
</svg>
