<svg width="64" height="64" viewBox="0 0 64 64" fill="none" xmlns="http://www.w3.org/2000/svg">
<g clip-path="url(#clip0_11513_9003)">
<path d="M-22.9833 0H58.9667C61.7333 0.0166667 63.9833 2.28333 63.9833 5.05V58.9333C63.9833 61.7167 61.7167 63.9833 58.9333 63.9833H-22.9833C-25.75 63.9833 -28 61.7167 -28 58.95V5.05C-28 2.28333 -25.75 0.0166667 -22.9833 0Z" fill="#20603D"/>
<path d="M-22.9833 0H58.9667C61.7333 0.0166667 63.9833 2.28333 63.9833 5.05V48H-28V5.05C-28 2.28333 -25.75 0.0166667 -22.9833 0Z" fill="#FAD201"/>
<path d="M-22.9833 0H58.9667C61.7333 0.0166667 63.9833 2.28333 63.9833 5.05V32H-28V5.05C-28 2.28333 -25.75 0.0166667 -22.9833 0Z" fill="#00A1DE"/>
<path d="M59.1168 16.7166L51.9668 17.1333L58.7668 19.3833L51.7501 17.95L57.7335 21.8833L51.3335 18.6666L56.1001 24.0166L50.7501 19.2666L53.9668 25.65L50.0168 19.6833L51.4668 26.6833L49.2168 19.9L48.8001 27.0333L48.7168 16.6333L59.1168 16.7166Z" fill="#E5BE01"/>
<path d="M59.1168 16.7166L51.9668 16.2999L58.7668 14.0499L51.7501 15.4999L57.7335 11.5666L51.3335 14.7666L56.1001 9.41657L50.7501 14.1832L53.9668 7.78324L50.0168 13.7666L51.4668 6.7499L49.2168 13.5499L48.8001 6.3999L48.7168 16.8166L59.1168 16.7166Z" fill="#E5BE01"/>
<path d="M38.4824 16.7166L45.6324 17.1333L38.8324 19.3833L45.8491 17.95L39.8658 21.8833L46.2658 18.6666L41.4991 24.0166L46.8491 19.2666L43.6324 25.65L47.5658 19.6833L46.1324 26.6833L48.3824 19.9L48.7991 27.0333L48.8824 16.6333L38.4824 16.7166Z" fill="#E5BE01"/>
<path d="M38.4824 16.7166L45.6324 16.2999L38.8324 14.0499L45.8491 15.4999L39.8658 11.5666L46.2658 14.7666L41.4991 9.41657L46.8491 14.1832L43.6324 7.78324L47.5658 13.7666L46.1324 6.7499L48.3824 13.5499L48.7991 6.3999L48.8824 16.8166L38.4824 16.7166Z" fill="#E5BE01"/>
<path d="M51.85 16.7167C51.85 15.0334 50.4833 13.6667 48.8 13.6667C47.1167 13.6667 45.75 15.0334 45.75 16.7167C45.75 18.4001 47.1167 19.7667 48.8 19.7667C50.4833 19.7667 51.85 18.4001 51.85 16.7167Z" fill="#E5BE01" stroke="#00A1DE" stroke-width="0.3869" stroke-miterlimit="2.6131"/>
</g>
<defs>
<clipPath id="clip0_11513_9003">
<rect width="64" height="64" rx="32" fill="white"/>
</clipPath>
</defs>
</svg>
