<svg width="64" height="64" viewBox="0 0 64 64" fill="none" xmlns="http://www.w3.org/2000/svg">
<g clip-path="url(#clip0_10790_12125)">
<path fill-rule="evenodd" clip-rule="evenodd" d="M0 0H64V64H0V0Z" fill="#CE1126"/>
<path fill-rule="evenodd" clip-rule="evenodd" d="M0 0H32V32H0V0Z" fill="#002B7F"/>
<path fill-rule="evenodd" clip-rule="evenodd" d="M18.375 28.925L15.925 27.2626L13.5625 28.9501L14.3125 26.0126L12.0625 24.175L14.9625 24.0126L15.925 21.2125L16.9875 24.0625L19.8375 24.125L17.5625 26.0625L18.375 28.925ZM17.95 9.32505L16 8.07505L14.075 9.32505L14.6 6.95005L12.8875 5.43755L15.175 5.23755L16.025 3.05005L16.9125 5.26255L19.1625 5.43755L17.4125 7.00005L17.95 9.32505ZM9.2875 16.375L7.3875 15.025L5.4625 16.325L6.0375 14.0375L4.25 12.525L6.525 12.425L7.3625 10.1625L8.1875 12.3875L10.475 12.525L8.6875 14.025L9.2875 16.375ZM26.6625 14.7875L24.825 13.6L23.0375 14.8125L23.5375 12.6375L21.9125 11.2375L24.075 11.0625L24.825 9.01255L25.65 11.0875L27.75 11.2125L26.1 12.6625L26.6625 14.7875ZM21.525 19.9501L20.3125 19.175L19.1125 19.9501L19.425 18.5L18.3375 17.5375L19.7625 17.4125L20.3125 16.0375L20.875 17.4125L22.275 17.5375L21.2125 18.5L21.525 19.9501Z" fill="white"/>
</g>
<defs>
<clipPath id="clip0_10790_12125">
<rect width="64" height="64" rx="32" fill="white"/>
</clipPath>
</defs>
</svg>
