<svg width="64" height="64" viewBox="0 0 64 64" fill="none" xmlns="http://www.w3.org/2000/svg">
<g clip-path="url(#clip0_10790_12130)">
<path fill-rule="evenodd" clip-rule="evenodd" d="M0 32H64V64H0V32Z" fill="#19B6EF"/>
<path fill-rule="evenodd" clip-rule="evenodd" d="M0 0H64V32H0V0Z" fill="white"/>
<path fill-rule="evenodd" clip-rule="evenodd" d="M31.612 45.225C38.5995 40 46.1245 29.325 37.312 23.7125C35.662 23.3875 33.8245 23.4875 32.937 24.1875C32.4745 23.9125 32.112 23.9375 31.637 24.4375C31.312 24.0375 30.987 23.85 30.2995 24.0625C29.6629 23.7159 28.9635 23.4998 28.2423 23.4269C27.5212 23.3539 26.7927 23.4255 26.0995 23.6375C18.412 28.2625 23.112 39.2125 31.5995 45.225H31.612Z" fill="#FFDD00" stroke="#7D6C00" stroke-width="0.3"/>
<path fill-rule="evenodd" clip-rule="evenodd" d="M44.5375 33.3499C44.5375 33.3499 45.325 32.2874 45.35 32.2874C46.1375 31.8249 46.225 31.2249 46.225 31.2249C47.0125 30.9749 46.7625 30.3374 46.825 30.2499C46.9477 30.1285 47.0312 29.9731 47.0647 29.8037C47.0981 29.6344 47.0799 29.4589 47.0125 29.2999C47.0125 29.1874 47.2875 28.1874 46.9 28.0499C46.925 26.9874 46.2625 27.0874 45.7375 27.7874C45.175 27.9499 45.05 28.4124 45.2375 28.9124C44.5125 28.9124 44.4875 29.9749 44.7 30.5749C43.725 30.5499 44.275 31.6374 44.2375 31.6999C43.9125 31.8499 44.4875 33.3999 44.5375 33.3499ZM38.375 42.4374L38.875 42.7374C38.9625 43.1124 39.3125 43.3374 39.575 43.2749C39.7 43.8499 40.325 43.7749 40.7625 43.4374C41.1375 43.9624 41.575 43.9749 42.175 43.7999C42.725 44.1999 43.425 44.0249 43.8875 43.5999C44.3875 44.0124 44.725 43.7249 44.975 43.2749C45.3625 43.3749 45.675 43.3124 45.8125 42.9249C46.575 42.8624 46.1875 42.1499 45.5625 41.8374C46.0625 41.4124 46.625 40.5124 45.8375 40.3749C45.5875 40.1999 45.1375 40.2374 44.7875 40.3999C44.7 39.9999 44.1375 39.8999 43.5375 40.3499C43.325 39.8999 42.6 40.1124 42.2625 40.4249C41.825 40.0499 41.3125 40.0499 40.55 40.4874L38.375 42.4374ZM38.375 41.2749C38.4625 40.7749 38.125 39.8749 38.65 39.7749C38.55 38.9499 38.7 38.0124 39.65 38.0999C39.8125 37.3124 39.775 36.5749 40.6875 36.4749C40.6875 36.4749 41.425 33.9124 42.1875 35.6874C42.475 36.1874 42.425 37.0374 41.825 36.8749C41.95 37.4999 41.7375 38.0624 41.0375 38.0374C41.35 38.4874 41.25 39.0874 40.9125 39.3749L38.375 41.2749ZM42.8 38.0999L43.5875 37.9374C44.4 37.3874 44.725 37.1749 45.1375 37.7749C45.8125 37.6249 46.4625 37.6999 46.4375 38.2374C47.25 38.2874 47.2375 38.7999 47.15 39.2124C47.275 39.9249 46.9625 40.8624 46.4625 39.7249C44.8875 38.7624 44 38.8874 41.5 39.4499L42.8 38.0999ZM43.2125 37.3124C43.2375 37.2874 45.55 36.6874 45.3 35.9749C45.95 35.8749 46.0875 35.2249 46.1125 35.2249C47.475 34.7874 47.3875 33.9999 47.3875 33.9999C47.775 33.5749 48.4625 33.1624 48.3125 32.4249C48.3625 31.5874 48.4375 31.0624 47.3125 31.6124C46.4625 31.5249 46.175 32.0124 45.925 32.7374C45.525 32.2749 44.8875 33.0249 44.8125 33.6999C44.8125 33.6999 43.775 34.6999 43.775 34.7249L42.9125 36.3249L43.2125 37.3124Z" fill="#4FD46B" stroke="#3A9D4F" stroke-width="0.3" stroke-linejoin="round"/>
<path fill-rule="evenodd" clip-rule="evenodd" d="M43.2617 35.5125C42.7117 35.1 42.3992 34.6 42.5117 34.1C42.1367 33.6125 41.8867 33.3125 42.2367 32.8875L41.9617 31.8875C41.2492 31.6125 41.5492 31.0125 41.7492 30.8C41.4117 30.3375 41.3992 29.85 41.7117 29.4125C41.7117 28.5375 42.3242 28.8625 42.8367 29.4125C42.8367 29.4125 43.6742 30.0125 43.0492 30.55C43.6742 30.7625 43.8617 31.3 43.5117 31.525C44.0492 31.775 44.1367 32.2625 43.8367 32.5875C44.3867 33.025 44.1742 33.5875 44.3492 34.0875L43.2617 35.5125Z" fill="#4FD46B" stroke="#3A9D4F" stroke-width="0.3" stroke-linejoin="round"/>
<path fill-rule="evenodd" clip-rule="evenodd" d="M44.2496 31.475C44.2121 31.45 43.3121 30.3 43.5621 30.225C43.5121 29.875 43.2371 29.4875 43.3996 29.1375C42.9621 28.7 42.9495 28.175 43.287 27.7625C42.987 27.35 43.1245 26.8 43.537 26.45C43.412 25.7875 43.8745 25.625 44.2871 25.5C44.5996 24.425 45.0996 24.7 45.3871 25.525C45.8121 25.9 45.7496 26.4625 45.5996 26.8875C46.0996 27.225 45.7996 27.65 45.5746 27.8375L44.2496 31.475Z" fill="#4FD46B" stroke="#3A9D4F" stroke-width="0.3" stroke-linejoin="round"/>
<path fill-rule="evenodd" clip-rule="evenodd" d="M44.1133 25.75L43.3508 24.9875C43.5383 24.5875 43.7008 23.8625 43.1258 23.55C42.8133 22.775 41.2508 21.825 40.9883 23.65C40.7383 23.1 40.2383 22.5625 39.8633 23.2C39.0508 22.4875 38.6133 22.7 39.0383 23.6C39.0383 23.6 38.6633 24.2 39.6633 24.6625C39.7383 24.7375 39.3258 25.75 40.5258 25.775C40.3008 26.1125 40.6758 26.6 41.1508 26.5625C40.8008 26.9875 41.3883 27.4375 41.7508 27.2625C41.5883 27.7375 41.6008 27.9625 42.2508 28.025L43.0008 28.8625L43.5883 29.6875L44.1008 25.75H44.1133Z" fill="#4FD46B" stroke="#3A9D4F" stroke-width="0.3" stroke-linejoin="round"/>
<path d="M44.5742 32.875C44.5992 32.825 46.0242 29.5625 46.2117 28.5625M44.7117 27.0625C44.7117 27.0625 44.9617 29.725 44.2992 31.6875M40.3492 24.375C40.3492 24.375 43.2617 27.175 43.5367 28.325M42.3742 24.075C42.3742 24.075 42.5742 26.375 43.3742 28.6375M47.5242 32.4375C47.5242 32.4375 44.6117 34.8874 43.1867 37.0374M44.7617 41.0374C44.7617 41.0374 40.9242 41.5624 39.2367 41.5999M43.4867 42.6875C43.4867 42.6875 38.7367 42.5624 38.3867 42.2249M41.1242 36.5C41.1242 36.5375 38.7117 40.525 38.6242 41.8375" stroke="#3A9D4F" stroke-width="0.275" stroke-linecap="round"/>
<path fill-rule="evenodd" clip-rule="evenodd" d="M31.5882 44.4624C26.5507 39.7124 21.3882 30.7874 26.5257 26.2874C27.4257 26.7999 28.5132 26.3374 29.9882 25.7624C30.4382 26.2499 31.0132 26.3749 31.5757 26.0124C32.2257 26.2749 32.7007 26.0624 33.0132 25.7124C34.4632 26.5624 36.3257 26.9999 36.7632 26.1624C41.8132 30.9624 36.7007 39.9124 31.5757 44.4624H31.5882Z" fill="#65C7FF" stroke="#7D6C00" stroke-width="0.3"/>
<path fill-rule="evenodd" clip-rule="evenodd" d="M31.6129 44.325C29.3094 42.0995 27.3991 39.5003 25.9629 36.6375C26.2129 36.4125 26.3379 36.35 26.4754 35.9625C27.2084 36.0933 27.9598 36.0806 28.6879 35.9249C28.8879 36.6874 28.9379 37.325 29.4129 37.9625L30.4379 35.9625C31.1599 36.1445 31.9159 36.1445 32.6379 35.9625C33.0629 36.5375 32.9129 37.3999 33.6629 38.0499C34.1129 36.7249 34.5629 36.6374 35.0129 35.9249C35.6754 36.1624 36.1004 36.05 36.6379 35.8875C36.9254 36.2125 36.7879 36.2 37.3129 36.6875C35.9023 39.5607 33.9694 42.1464 31.6129 44.3125V44.325Z" fill="#8FC753"/>
<path fill-rule="evenodd" clip-rule="evenodd" d="M25.6871 21.9125C25.6871 22.0318 25.6397 22.1463 25.5553 22.2307C25.4709 22.3151 25.3565 22.3625 25.2371 22.3625C25.1178 22.3625 25.0033 22.3151 24.9189 22.2307C24.8345 22.1463 24.7871 22.0318 24.7871 21.9125C24.7871 21.7932 24.8345 21.6787 24.9189 21.5943C25.0033 21.5099 25.1178 21.4625 25.2371 21.4625C25.3565 21.4625 25.4709 21.5099 25.5553 21.5943C25.6397 21.6787 25.6871 21.7932 25.6871 21.9125ZM25.2246 20.875C25.2246 20.9943 25.1772 21.1088 25.0928 21.1932C25.0084 21.2776 24.894 21.325 24.7746 21.325C24.6553 21.325 24.5408 21.2776 24.4564 21.1932C24.372 21.1088 24.3246 20.9943 24.3246 20.875C24.3246 20.7557 24.372 20.6412 24.4564 20.5568C24.5408 20.4724 24.6553 20.425 24.7746 20.425C24.894 20.425 25.0084 20.4724 25.0928 20.5568C25.1772 20.6412 25.2246 20.7557 25.2246 20.875ZM24.6746 19.925C24.6855 19.9895 24.6821 20.0556 24.6648 20.1187C24.6476 20.1818 24.6167 20.2404 24.5745 20.2903C24.5322 20.3403 24.4796 20.3804 24.4203 20.4079C24.3609 20.4355 24.2963 20.4497 24.2309 20.4497C24.1654 20.4497 24.1008 20.4355 24.0415 20.4079C23.9821 20.3804 23.9295 20.3403 23.8873 20.2903C23.845 20.2404 23.8142 20.1818 23.7969 20.1187C23.7796 20.0556 23.7762 19.9895 23.7871 19.925C23.8048 19.8201 23.859 19.7248 23.9403 19.6561C24.0215 19.5874 24.1245 19.5497 24.2309 19.5497C24.3373 19.5497 24.4402 19.5874 24.5214 19.6561C24.6027 19.7248 24.6569 19.8201 24.6746 19.925ZM24.2996 19C24.3155 19.0662 24.3163 19.1351 24.3017 19.2016C24.2871 19.268 24.2577 19.3304 24.2156 19.3838C24.1735 19.4373 24.1198 19.4805 24.0586 19.5102C23.9973 19.5399 23.9302 19.5553 23.8621 19.5553C23.7941 19.5553 23.7269 19.5399 23.6657 19.5102C23.6044 19.4805 23.5507 19.4373 23.5086 19.3838C23.4665 19.3304 23.4371 19.268 23.4225 19.2016C23.408 19.1351 23.4087 19.0662 23.4246 19C23.4483 18.9018 23.5043 18.8144 23.5836 18.7518C23.663 18.6893 23.7611 18.6553 23.8621 18.6553C23.9631 18.6553 24.0612 18.6893 24.1406 18.7518C24.22 18.8144 24.276 18.9018 24.2996 19ZM24.3621 17.9875C24.373 18.052 24.3696 18.1181 24.3523 18.1812C24.3351 18.2443 24.3042 18.3029 24.262 18.3528C24.2197 18.4028 24.1671 18.4429 24.1078 18.4704C24.0484 18.498 23.9838 18.5122 23.9184 18.5122C23.8529 18.5122 23.7883 18.498 23.729 18.4704C23.6696 18.4429 23.617 18.4028 23.5748 18.3528C23.5325 18.3029 23.5017 18.2443 23.4844 18.1812C23.4671 18.1181 23.4637 18.052 23.4746 17.9875C23.4923 17.8826 23.5465 17.7873 23.6278 17.7186C23.709 17.6499 23.812 17.6122 23.9184 17.6122C24.0248 17.6122 24.1277 17.6499 24.2089 17.7186C24.2902 17.7873 24.3444 17.8826 24.3621 17.9875ZM26.7246 16.325C26.7246 16.3841 26.713 16.4426 26.6904 16.4972C26.6677 16.5518 26.6346 16.6014 26.5928 16.6432C26.551 16.685 26.5014 16.7181 26.4468 16.7407C26.3922 16.7634 26.3337 16.775 26.2746 16.775C26.2155 16.775 26.157 16.7634 26.1024 16.7407C26.0478 16.7181 25.9982 16.685 25.9564 16.6432C25.9146 16.6014 25.8815 16.5518 25.8589 16.4972C25.8363 16.4426 25.8246 16.3841 25.8246 16.325C25.8246 16.2057 25.872 16.0912 25.9564 16.0068C26.0408 15.9224 26.1553 15.875 26.2746 15.875C26.394 15.875 26.5084 15.9224 26.5928 16.0068C26.6772 16.0912 26.7246 16.2057 26.7246 16.325ZM25.8371 16.475C25.848 16.5395 25.8446 16.6056 25.8273 16.6687C25.8101 16.7318 25.7792 16.7904 25.737 16.8403C25.6947 16.8903 25.6421 16.9304 25.5828 16.9579C25.5234 16.9855 25.4588 16.9997 25.3934 16.9997C25.3279 16.9997 25.2633 16.9855 25.204 16.9579C25.1446 16.9304 25.092 16.8903 25.0498 16.8403C25.0075 16.7904 24.9767 16.7318 24.9594 16.6687C24.9421 16.6056 24.9387 16.5395 24.9496 16.475C24.9673 16.3701 25.0216 16.2748 25.1028 16.2061C25.184 16.1374 25.287 16.0997 25.3934 16.0997C25.4997 16.0997 25.6027 16.1374 25.6839 16.2061C25.7652 16.2748 25.8194 16.3701 25.8371 16.475ZM24.8746 17.0625C24.8746 17.1216 24.863 17.1801 24.8404 17.2347C24.8177 17.2893 24.7846 17.3389 24.7428 17.3807C24.701 17.4225 24.6514 17.4556 24.5968 17.4782C24.5422 17.5009 24.4837 17.5125 24.4246 17.5125C24.3655 17.5125 24.307 17.5009 24.2524 17.4782C24.1978 17.4556 24.1482 17.4225 24.1064 17.3807C24.0646 17.3389 24.0315 17.2893 24.0089 17.2347C23.9863 17.1801 23.9746 17.1216 23.9746 17.0625C23.9746 16.9432 24.022 16.8287 24.1064 16.7443C24.1908 16.6599 24.3053 16.6125 24.4246 16.6125C24.544 16.6125 24.6584 16.6599 24.7428 16.7443C24.8272 16.8287 24.8746 16.9432 24.8746 17.0625ZM27.8621 16.3375C27.8621 16.4568 27.8147 16.5713 27.7303 16.6557C27.6459 16.7401 27.5315 16.7875 27.4121 16.7875C27.2928 16.7875 27.1783 16.7401 27.0939 16.6557C27.0095 16.5713 26.9621 16.4568 26.9621 16.3375C26.9621 16.2182 27.0095 16.1037 27.0939 16.0193C27.1783 15.9349 27.2928 15.8875 27.4121 15.8875C27.5315 15.8875 27.6459 15.9349 27.7303 16.0193C27.8147 16.1037 27.8621 16.2182 27.8621 16.3375ZM29.0996 16.4375C29.1105 16.502 29.1071 16.5681 29.0898 16.6312C29.0726 16.6943 29.0417 16.7529 28.9995 16.8028C28.9572 16.8528 28.9046 16.8929 28.8453 16.9204C28.7859 16.948 28.7213 16.9622 28.6559 16.9622C28.5904 16.9622 28.5258 16.948 28.4665 16.9204C28.4071 16.8929 28.3545 16.8528 28.3123 16.8028C28.27 16.7529 28.2392 16.6943 28.2219 16.6312C28.2046 16.5681 28.2012 16.502 28.2121 16.4375C28.2358 16.3393 28.2918 16.2519 28.3711 16.1893C28.4505 16.1268 28.5486 16.0928 28.6496 16.0928C28.7506 16.0928 28.8487 16.1268 28.9281 16.1893C29.0075 16.2519 29.0635 16.3393 29.0871 16.4375H29.0996ZM30.1996 16.375C30.2105 16.4395 30.2071 16.5056 30.1898 16.5687C30.1726 16.6318 30.1417 16.6904 30.0995 16.7403C30.0572 16.7903 30.0046 16.8304 29.9453 16.8579C29.8859 16.8855 29.8213 16.8997 29.7559 16.8997C29.6904 16.8997 29.6258 16.8855 29.5665 16.8579C29.5071 16.8304 29.4545 16.7903 29.4123 16.7403C29.37 16.6904 29.3392 16.6318 29.3219 16.5687C29.3046 16.5056 29.3012 16.4395 29.3121 16.375C29.3298 16.2701 29.384 16.1748 29.4653 16.1061C29.5465 16.0374 29.6495 15.9997 29.7559 15.9997C29.8623 15.9997 29.9652 16.0374 30.0464 16.1061C30.1277 16.1748 30.1819 16.2701 30.1996 16.375Z" fill="white" stroke="black" stroke-width="0.1375"/>
<path fill-rule="evenodd" clip-rule="evenodd" d="M32.7883 15.6626C32.7883 15.9676 32.6671 16.2601 32.4515 16.4758C32.2358 16.6914 31.9433 16.8126 31.6383 16.8126C31.3333 16.8126 31.0408 16.6914 30.8251 16.4758C30.6094 16.2601 30.4883 15.9676 30.4883 15.6626C30.5179 15.3799 30.6511 15.1181 30.8624 14.9279C31.0736 14.7376 31.3478 14.6323 31.632 14.6323C31.9163 14.6323 32.1905 14.7376 32.4017 14.9279C32.6129 15.1181 32.7462 15.3799 32.7758 15.6626H32.7883Z" fill="#FFDD00" stroke="#7D6C00" stroke-width="0.1375"/>
<path fill-rule="evenodd" clip-rule="evenodd" d="M33.9879 16.3626C33.9879 16.4819 33.9405 16.5964 33.8561 16.6808C33.7717 16.7652 33.6572 16.8126 33.5379 16.8126C33.4185 16.8126 33.3041 16.7652 33.2197 16.6808C33.1353 16.5964 33.0879 16.4819 33.0879 16.3626C33.0879 16.2432 33.1353 16.1288 33.2197 16.0444C33.3041 15.96 33.4185 15.9126 33.5379 15.9126C33.6572 15.9126 33.7717 15.96 33.8561 16.0444C33.9405 16.1288 33.9879 16.2432 33.9879 16.3626ZM35.1504 16.4501C35.1613 16.5146 35.1579 16.5807 35.1406 16.6438C35.1233 16.7069 35.0925 16.7655 35.0502 16.8154C35.008 16.8654 34.9554 16.9055 34.896 16.933C34.8367 16.9606 34.7721 16.9748 34.7066 16.9748C34.6412 16.9748 34.5766 16.9606 34.5172 16.933C34.4579 16.9055 34.4053 16.8654 34.363 16.8154C34.3208 16.7655 34.2899 16.7069 34.2727 16.6438C34.2554 16.5807 34.252 16.5146 34.2629 16.4501C34.2806 16.3452 34.3348 16.2499 34.4161 16.1812C34.4973 16.1125 34.6002 16.0748 34.7066 16.0748C34.813 16.0748 34.916 16.1125 34.9972 16.1812C35.0785 16.2499 35.1327 16.3452 35.1504 16.4501ZM36.2754 16.4001C36.2863 16.4646 36.2829 16.5307 36.2656 16.5938C36.2483 16.6569 36.2175 16.7155 36.1752 16.7654C36.133 16.8154 36.0804 16.8555 36.021 16.883C35.9617 16.9106 35.8971 16.9248 35.8316 16.9248C35.7662 16.9248 35.7016 16.9106 35.6422 16.883C35.5829 16.8555 35.5303 16.8154 35.488 16.7654C35.4458 16.7155 35.4149 16.6569 35.3977 16.5938C35.3804 16.5307 35.377 16.4646 35.3879 16.4001C35.4056 16.2952 35.4598 16.1999 35.5411 16.1312C35.6223 16.0625 35.7252 16.0248 35.8316 16.0248C35.938 16.0248 36.041 16.0625 36.1222 16.1312C36.2035 16.1999 36.2577 16.2952 36.2754 16.4001ZM37.2254 16.3626C37.2363 16.4271 37.2329 16.4932 37.2156 16.5563C37.1983 16.6194 37.1675 16.678 37.1252 16.7279C37.083 16.7779 37.0304 16.818 36.971 16.8455C36.9117 16.8731 36.8471 16.8873 36.7816 16.8873C36.7162 16.8873 36.6516 16.8731 36.5922 16.8455C36.5329 16.818 36.4803 16.7779 36.438 16.7279C36.3958 16.678 36.3649 16.6194 36.3476 16.5563C36.3304 16.4932 36.327 16.4271 36.3379 16.3626C36.3556 16.2577 36.4098 16.1624 36.4911 16.0937C36.5723 16.025 36.6752 15.9873 36.7816 15.9873C36.888 15.9873 36.991 16.025 37.0722 16.0937C37.1534 16.1624 37.2077 16.2577 37.2254 16.3626ZM38.4129 16.4876C38.4129 16.6069 38.3655 16.7214 38.2811 16.8058C38.1967 16.8902 38.0822 16.9376 37.9629 16.9376C37.8435 16.9376 37.7291 16.8902 37.6447 16.8058C37.5603 16.7214 37.5129 16.6069 37.5129 16.4876C37.5129 16.3682 37.5603 16.2538 37.6447 16.1694C37.7291 16.085 37.8435 16.0376 37.9629 16.0376C38.0822 16.0376 38.1967 16.085 38.2811 16.1694C38.3655 16.2538 38.4129 16.3682 38.4129 16.4876ZM39.3379 17.0751C39.3488 17.1396 39.3454 17.2057 39.3281 17.2688C39.3108 17.3319 39.28 17.3905 39.2377 17.4404C39.1955 17.4904 39.1429 17.5305 39.0835 17.558C39.0242 17.5856 38.9596 17.5998 38.8941 17.5998C38.8287 17.5998 38.7641 17.5856 38.7047 17.558C38.6454 17.5305 38.5928 17.4904 38.5505 17.4404C38.5083 17.3905 38.4774 17.3319 38.4602 17.2688C38.4429 17.2057 38.4395 17.1396 38.4504 17.0751C38.4681 16.9702 38.5223 16.8749 38.6036 16.8062C38.6848 16.7375 38.7877 16.6998 38.8941 16.6998C39.0005 16.6998 39.1035 16.7375 39.1847 16.8062C39.266 16.8749 39.3202 16.9702 39.3379 17.0751Z" fill="white" stroke="black" stroke-width="0.1375"/>
<path fill-rule="evenodd" clip-rule="evenodd" d="M25.25 20.225L26.4 22.425H36.9625L38.175 20.3C37.4625 19.8125 36.975 19.4375 35.9625 19.675C35.375 18.8375 34.75 18.675 33.8125 18.775C33.5578 18.4795 33.2004 18.2918 32.8125 18.25L30.5875 18.3125C30.0125 18.3625 29.5625 18.8125 29.5375 18.8125C28.5875 18.6875 27.725 18.725 27.5 19.6375C26.6375 19.425 26.0375 19.6625 25.25 20.225Z" fill="#E40000" stroke="#AC0000" stroke-width="0.3"/>
<path fill-rule="evenodd" clip-rule="evenodd" d="M39.7254 18.0501C39.7363 18.1146 39.7329 18.1807 39.7156 18.2438C39.6983 18.3069 39.6675 18.3654 39.6252 18.4154C39.583 18.4653 39.5304 18.5055 39.471 18.533C39.4117 18.5605 39.3471 18.5748 39.2816 18.5748C39.2162 18.5748 39.1516 18.5605 39.0922 18.533C39.0329 18.5055 38.9803 18.4653 38.938 18.4154C38.8958 18.3654 38.8649 18.3069 38.8477 18.2438C38.8304 18.1807 38.827 18.1146 38.8379 18.0501C38.8556 17.9452 38.9098 17.8499 38.9911 17.7812C39.0723 17.7125 39.1753 17.6748 39.2816 17.6748C39.388 17.6748 39.491 17.7125 39.5722 17.7812C39.6535 17.8499 39.7077 17.9452 39.7254 18.0501ZM39.8004 19.0876C39.8113 19.1521 39.8079 19.2182 39.7906 19.2813C39.7733 19.3444 39.7425 19.4029 39.7003 19.4529C39.658 19.5028 39.6054 19.543 39.546 19.5705C39.4867 19.598 39.4221 19.6123 39.3566 19.6123C39.2912 19.6123 39.2266 19.598 39.1672 19.5705C39.1079 19.543 39.0553 19.5028 39.013 19.4529C38.9708 19.4029 38.9399 19.3444 38.9227 19.2813C38.9054 19.2182 38.902 19.1521 38.9129 19.0876C38.9306 18.9827 38.9848 18.8874 39.0661 18.8187C39.1473 18.75 39.2503 18.7123 39.3566 18.7123C39.463 18.7123 39.566 18.75 39.6472 18.8187C39.7285 18.8874 39.7827 18.9827 39.8004 19.0876ZM39.4754 20.0626C39.4863 20.1271 39.4829 20.1932 39.4656 20.2563C39.4483 20.3194 39.4175 20.3779 39.3752 20.4279C39.333 20.4778 39.2804 20.518 39.221 20.5455C39.1617 20.573 39.0971 20.5873 39.0316 20.5873C38.9662 20.5873 38.9016 20.573 38.8422 20.5455C38.7829 20.518 38.7303 20.4778 38.688 20.4279C38.6458 20.3779 38.6149 20.3194 38.5977 20.2563C38.5804 20.1932 38.577 20.1271 38.5879 20.0626C38.6056 19.9577 38.6598 19.8624 38.7411 19.7937C38.8223 19.725 38.9253 19.6873 39.0316 19.6873C39.138 19.6873 39.241 19.725 39.3222 19.7937C39.4035 19.8624 39.4577 19.9577 39.4754 20.0626ZM39.0629 20.8626C39.0788 20.9287 39.0795 20.9976 39.065 21.0641C39.0504 21.1306 39.021 21.1929 38.9789 21.2464C38.9368 21.2998 38.8831 21.343 38.8218 21.3727C38.7606 21.4025 38.6934 21.4179 38.6254 21.4179C38.5573 21.4179 38.4902 21.4025 38.4289 21.3727C38.3677 21.343 38.314 21.2998 38.2719 21.2464C38.2298 21.1929 38.2004 21.1306 38.1858 21.0641C38.1712 20.9976 38.172 20.9287 38.1879 20.8626C38.2115 20.7643 38.2675 20.6769 38.3469 20.6144C38.4263 20.5519 38.5244 20.5179 38.6254 20.5179C38.7264 20.5179 38.8245 20.5519 38.9039 20.6144C38.9832 20.6769 39.0392 20.7643 39.0629 20.8626ZM38.5879 21.8626C38.5879 21.9819 38.5405 22.0964 38.4561 22.1808C38.3717 22.2652 38.2572 22.3126 38.1379 22.3126C38.0185 22.3126 37.9041 22.2652 37.8197 22.1808C37.7353 22.0964 37.6879 21.9819 37.6879 21.8626C37.6879 21.7432 37.7353 21.6288 37.8197 21.5444C37.9041 21.46 38.0185 21.4126 38.1379 21.4126C38.2572 21.4126 38.3717 21.46 38.4561 21.5444C38.5405 21.6288 38.5879 21.7432 38.5879 21.8626ZM32.3379 20.5876C32.3509 20.6813 32.3436 20.7768 32.3166 20.8675C32.2895 20.9583 32.2434 21.0421 32.1812 21.1135C32.119 21.1849 32.0422 21.2421 31.9561 21.2813C31.8699 21.3206 31.7763 21.3409 31.6816 21.3409C31.587 21.3409 31.4934 21.3206 31.4072 21.2813C31.3211 21.2421 31.2443 21.1849 31.1821 21.1135C31.1199 21.0421 31.0738 20.9583 31.0467 20.8675C31.0197 20.7768 31.0124 20.6813 31.0254 20.5876C31.0473 20.4291 31.1258 20.2839 31.2465 20.1788C31.3671 20.0737 31.5217 20.0159 31.6816 20.0159C31.8416 20.0159 31.9962 20.0737 32.1168 20.1788C32.2374 20.2839 32.316 20.4291 32.3379 20.5876ZM32.4629 19.0751C32.477 19.1877 32.4671 19.302 32.4337 19.4104C32.4003 19.5189 32.3441 19.619 32.2691 19.7041C32.194 19.7892 32.1017 19.8574 31.9982 19.904C31.8948 19.9507 31.7826 19.9749 31.6691 19.9749C31.5557 19.9749 31.4435 19.9507 31.34 19.904C31.2366 19.8574 31.1443 19.7892 31.0692 19.7041C30.9941 19.619 30.938 19.5189 30.9046 19.4104C30.8712 19.302 30.8612 19.1877 30.8754 19.0751C30.8754 18.8629 30.9597 18.6594 31.1097 18.5094C31.2597 18.3594 31.4632 18.2751 31.6754 18.2751C31.8876 18.2751 32.091 18.3594 32.2411 18.5094C32.3911 18.6594 32.4754 18.8629 32.4754 19.0751H32.4629Z" fill="white" stroke="black" stroke-width="0.1375"/>
<path fill-rule="evenodd" clip-rule="evenodd" d="M32.3633 17.6001C32.3633 17.7907 32.2876 17.9735 32.1528 18.1083C32.018 18.2431 31.8352 18.3188 31.6445 18.3188C31.4539 18.3188 31.2711 18.2431 31.1363 18.1083C31.0015 17.9735 30.9258 17.7907 30.9258 17.6001C30.9258 17.4095 31.0015 17.2267 31.1363 17.0919C31.2711 16.9571 31.4539 16.8813 31.6445 16.8813C31.8352 16.8813 32.018 16.9571 32.1528 17.0919C32.2876 17.2267 32.3633 17.4095 32.3633 17.6001Z" fill="white" stroke="black" stroke-width="0.1375"/>
<path fill-rule="evenodd" clip-rule="evenodd" d="M31.4008 14.5376V13.9626H30.9258L30.9383 13.5376H31.3508V13.1626H31.9383V13.5001H32.4008V13.9501H31.9133V14.5501L31.4008 14.5376Z" fill="#FFDD00" stroke="#7D6C00" stroke-width="0.1375"/>
<path d="M26.3365 22.4251C25.399 20.8126 23.999 18.6376 24.8615 17.7001C26.0615 16.3376 28.8615 17.5751 30.649 16.7751C30.774 18.3126 30.349 20.8376 31.0365 21.3626L30.399 21.9251C30.0115 21.4251 29.274 20.7501 28.3615 21.9501C27.849 21.5001 27.2615 21.5751 26.9865 22.1751C26.7115 22.2126 26.7365 22.3251 26.3365 22.4251ZM37.0241 22.3626C37.9616 20.7626 39.3615 18.5876 38.499 17.6376C37.299 16.2876 34.4991 17.5126 32.7116 16.7251C32.5866 18.2501 33.0115 20.7751 32.324 21.3126L32.9616 21.8626C33.5866 21.0001 34.3365 20.9751 34.9865 21.9001C35.5115 21.4376 36.049 21.5001 36.374 22.1251C36.649 22.1626 36.6241 22.2626 37.0241 22.3751V22.3626Z" stroke="#FFDD00" stroke-width="0.4125"/>
<path fill-rule="evenodd" clip-rule="evenodd" d="M26.3121 23.6251C29.8257 23.3052 33.361 23.3052 36.8746 23.6251L37.2871 22.4251C33.5996 21.7501 31.0496 21.6751 26.2246 22.3376L26.3121 23.6251Z" fill="#FFDD00" stroke="#7D6C00" stroke-width="0.3"/>
<path fill-rule="evenodd" clip-rule="evenodd" d="M31.2121 43.9126L31.2996 43.3501C31.6746 43.4626 31.9621 43.4126 32.2746 43.3001L32.5996 42.8126L32.3496 42.5251C32.1371 42.5751 31.9746 42.7751 31.8246 42.9501C31.6121 42.9501 31.4246 42.8501 31.2121 42.8126L31.0121 41.9501C30.8121 41.7126 30.3871 41.7376 30.4746 42.1626L30.5246 42.4876C30.5996 42.6876 30.6371 42.9751 30.7746 43.1126V43.4626L31.2121 43.9126ZM31.3746 41.4751C31.0871 41.6126 30.7496 41.3751 30.3996 41.2251C30.0746 41.2126 29.8121 41.4751 29.4121 41.4001C29.4871 41.1876 29.6621 41.1501 29.7871 41.0251C29.6996 40.4751 29.9871 40.2876 30.0746 40.2876C30.1496 40.2876 30.4746 40.3751 30.4746 40.3751L30.7996 40.4126C30.9996 40.7626 31.2621 41.0876 31.3746 41.4751Z" fill="#C76E2E"/>
<path fill-rule="evenodd" clip-rule="evenodd" d="M29.4371 48.8125C30.3746 47.275 36.9371 44.2125 43.0871 37.575C36.8371 43.6125 32.9121 45.0875 27.7871 48.775L29.4371 48.8125Z" fill="#FFE100" stroke="#E9BF00" stroke-width="0.3"/>
<path fill-rule="evenodd" clip-rule="evenodd" d="M38.45 41.75C38.45 41.876 38.4 41.9968 38.3109 42.0859C38.2218 42.175 38.101 42.225 37.975 42.225C37.849 42.225 37.7282 42.175 37.6391 42.0859C37.55 41.9968 37.5 41.876 37.5 41.75C37.5 41.624 37.55 41.5032 37.6391 41.4141C37.7282 41.325 37.849 41.275 37.975 41.275C38.101 41.275 38.2218 41.325 38.3109 41.4141C38.4 41.5032 38.45 41.624 38.45 41.75ZM43.0375 37.1125C43.0375 37.2567 42.9802 37.395 42.8782 37.497C42.7763 37.599 42.638 37.6562 42.4938 37.6562C42.3495 37.6562 42.2112 37.599 42.1093 37.497C42.0073 37.395 41.95 37.2567 41.95 37.1125C41.95 36.9683 42.0073 36.83 42.1093 36.728C42.2112 36.626 42.3495 36.5687 42.4938 36.5687C42.638 36.5687 42.7763 36.626 42.8782 36.728C42.9802 36.83 43.0375 36.9683 43.0375 37.1125ZM44.5625 33.1625C44.5625 33.2885 44.5125 33.4093 44.4234 33.4984C44.3343 33.5875 44.2135 33.6375 44.0875 33.6375C43.9615 33.6375 43.8407 33.5875 43.7516 33.4984C43.6625 33.4093 43.6125 33.2885 43.6125 33.1625C43.6125 33.0365 43.6625 32.9157 43.7516 32.8266C43.8407 32.7375 43.9615 32.6875 44.0875 32.6875C44.2135 32.6875 44.3343 32.7375 44.4234 32.8266C44.5125 32.9157 44.5625 33.0365 44.5625 33.1625ZM43.0625 28.0375C43.0625 28.1635 43.0125 28.2843 42.9234 28.3734C42.8343 28.4625 42.7135 28.5125 42.5875 28.5125C42.4615 28.5125 42.3407 28.4625 42.2516 28.3734C42.1625 28.2843 42.1125 28.1635 42.1125 28.0375C42.1125 27.9115 42.1625 27.7907 42.2516 27.7016C42.3407 27.6125 42.4615 27.5625 42.5875 27.5625C42.7135 27.5625 42.8343 27.6125 42.9234 27.7016C43.0125 27.7907 43.0625 27.9115 43.0625 28.0375Z" fill="#9D4916" stroke="#68300E" stroke-width="0.1375"/>
<path fill-rule="evenodd" clip-rule="evenodd" d="M26.5504 35.9501V33.925L26.3379 33.75V33.2751L26.7129 33.2375L26.7879 30.9875L26.5379 30.85L26.5129 30.475C26.5129 30.475 26.7879 30.575 26.7879 30.5L26.8504 30.0625C26.8504 30.0625 26.6879 30.0251 26.6879 29.9501C26.6879 29.8751 26.8879 29.7125 26.8879 29.7125C26.8879 29.7125 26.7879 29.6125 26.7629 29.55L26.6504 29.175L26.7504 28.8L26.6879 28.5875L26.5129 28.275L26.7629 28.0375L26.6879 27.6625C26.6879 27.6 26.8504 27.3125 26.8879 27.2875L27.2004 26.875L27.7754 26.7375L28.4629 26.8375L28.8379 27.0875L28.9129 27.7001C28.9129 27.7001 28.8379 28.0751 28.8129 28.0751L28.5004 28.2001C28.5004 28.2001 28.1629 28.2376 28.1254 28.2001C28.0879 28.1626 28.2254 28.6125 28.2254 28.6125V29.025L28.1879 29.5375C28.1879 29.5375 28.1879 29.7875 28.1629 29.8125L28.0504 29.9501L28.0254 30.4625L28.5629 30.6L28.5379 30.9125L28.1629 30.9501L28.2254 33.0375L28.7754 33.1376V33.725L28.5254 33.85L28.4629 35.9501H26.5504ZM34.8629 35.975V33.9626L34.6629 33.7875V33.3125L35.0379 33.2751L35.1129 31.025L34.8629 30.875L34.8379 30.5C34.8379 30.5 35.1129 30.6 35.1129 30.5375L35.1754 30.0875C35.1754 30.0875 35.0004 30.0625 35.0004 29.9875C35.0004 29.9125 35.2129 29.75 35.2129 29.75C35.2129 29.75 35.1129 29.6501 35.0754 29.5751C35.0379 29.5001 34.9754 29.2001 34.9754 29.2001L35.0754 28.8251L35.0004 28.625L34.8379 28.3125L35.0754 28.0625L35.0004 27.6875C35.049 27.5512 35.1209 27.4243 35.2129 27.3125L35.5129 26.9125L36.1004 26.775L36.7879 26.875L37.1629 27.125L37.2254 27.725C37.2254 27.725 37.1629 28.1 37.1254 28.1C37.0879 28.1 36.8129 28.25 36.8129 28.25C36.8129 28.25 36.4754 28.275 36.4379 28.25C36.4004 28.225 36.5504 28.65 36.5504 28.65V29.0625L36.5129 29.5751C36.5129 29.5751 36.5129 29.825 36.4754 29.85L36.3754 29.9875L36.3379 30.5L36.8879 30.6376L36.8504 30.9501L36.4754 30.9875L36.5504 33.0751L37.0879 33.175V33.75L36.8504 33.8876L36.7879 35.975H34.8629ZM30.6629 36.05V34.0251L30.4504 33.8625V33.375L30.8254 33.35L30.9004 31.0875L30.6504 30.9501L30.6254 30.5751C30.6254 30.5751 30.9004 30.675 30.9004 30.6125L30.9629 30.1625C30.9629 30.1625 30.7879 30.125 30.7879 30.0625C30.7879 30 31.0004 29.8125 31.0004 29.8125L30.8629 29.65C30.8254 29.5875 30.7629 29.275 30.7629 29.275L30.8629 28.9L30.7879 28.6875L30.6254 28.3876L30.8629 28.1376L30.7879 27.7626C30.8365 27.6262 30.9084 27.4993 31.0004 27.3876L31.3129 26.975L31.8879 26.85L32.5754 26.9501L32.9504 27.1875L33.0129 27.8C33.0129 27.8 32.9504 28.175 32.9129 28.175C32.8754 28.175 32.6129 28.3125 32.6129 28.3125C32.6129 28.3125 32.2629 28.35 32.2379 28.3125C32.2129 28.275 32.3379 28.725 32.3379 28.725V29.1376L32.3004 29.6376C32.3004 29.6376 32.3004 29.8875 32.2629 29.925C32.2254 29.95 32.1629 30.05 32.1629 30.05L32.1254 30.5751L32.6754 30.7001L32.6379 31.0126L32.2629 31.05L32.3379 33.1376L32.8879 33.2375V33.8251L32.6379 33.9501L32.5754 36.05H30.6629Z" fill="white" stroke="#A9A9A9" stroke-width="0.1375"/>
<path fill-rule="evenodd" clip-rule="evenodd" d="M27.0508 35.9249V34.3374H27.9508V35.9999L27.0508 35.9249ZM31.2508 36.0499L31.2883 34.4249H32.0883V36.0249L31.2633 36.0624L31.2508 36.0499ZM35.4008 36.0249L35.3383 34.4999L36.1883 34.4624V36.0624L35.4008 36.0249ZM27.2758 31.2124H27.7758V32.0499H27.2758V31.2124ZM31.3258 31.2499H32.0258V32.0499H31.3258V31.2499ZM35.4508 31.3124H36.0758V32.0749H35.4508V31.3124Z" fill="black"/>
<path d="M27.5371 27.5999C28.0871 28.2124 28.1246 28.2124 28.1246 28.2124M31.6246 27.5874C31.7121 27.7999 31.8871 28.2499 32.0996 28.2749M35.9996 27.6999C35.9996 27.6999 36.1621 28.1749 36.4121 28.2374" stroke="#A8A8A8" stroke-width="0.1375"/>
<path fill-rule="evenodd" clip-rule="evenodd" d="M26.9634 25.875C28.5634 25.35 26.5884 24.3125 26.2634 25.875C25.7384 25.95 25.6759 26.3375 24.5509 26.1625C21.8384 30.5875 23.8509 37.7 31.7759 45.075C17.5759 33 23.3509 24.075 27.2759 24.4C29.4134 24.55 28.3384 27.2125 26.9634 25.875Z" fill="#B97700"/>
<path d="M27.4004 23.6C27.4004 23.6 28.7129 23.95 28.7129 24.5125M28.7129 23.5125C28.7129 23.5125 29.6129 23.9 29.8129 24.2625M35.8254 23.6625C35.8254 23.6625 34.6754 23.8 34.4254 24.1625M34.0754 23.75C34.0754 23.75 33.4254 24.3125 33.4754 24.4625M33.9254 26.1625C33.8254 26.1125 33.3754 25.5125 33.4754 24.7625M29.5129 25.7625C29.5129 25.7625 29.8129 25.4125 29.8129 24.7625M31.6129 24.5125L31.6629 25.9625M32.9129 25.7625C32.9129 25.6625 33.3254 24.7125 32.8754 24.2625M30.1629 24.0625C30.1629 24.0625 29.8129 25.0125 30.0629 25.8125M32.7254 24.9125C32.7254 24.9125 32.1754 25.0625 31.9254 25.3125M30.3629 25.0625C30.3629 25.0125 30.9629 24.9125 31.1629 25.2625" stroke="#7D6C00" stroke-width="0.3"/>
<path fill-rule="evenodd" clip-rule="evenodd" d="M29.4117 40.2499C29.4367 40.2499 29.9117 40.1624 29.9117 39.9249C30.1617 39.7749 29.9742 39.3374 29.9742 39.3374L29.5242 39.2499L28.9117 38.5499C28.8867 38.3374 28.9617 38.1374 28.8242 37.9249C28.3992 38.0249 28.1617 38.3749 28.0117 38.7874C28.1242 38.9124 28.1367 39.0499 28.3242 39.1624C28.5242 39.1999 28.6617 39.0874 28.8492 39.1249C28.9492 39.2874 28.9242 39.4374 28.9492 39.5874C29.1992 39.7749 29.2617 40.0249 29.4117 40.2499ZM28.8617 37.2874V36.4624L28.2742 36.4499C28.1992 36.5749 28.0617 36.6249 27.9742 36.7374L27.5742 36.9374C27.7367 37.1499 27.9492 37.2624 28.0742 37.3624C28.3867 37.4499 28.6242 37.4499 28.8617 37.2874ZM27.0117 38.4999L26.6992 37.9624C26.9059 37.9049 27.1259 37.9181 27.3242 37.9999C27.3242 37.9999 27.4617 38.3374 27.3617 38.4624C27.3117 38.5874 26.9992 38.5249 27.0117 38.4999ZM31.8867 39.0499C31.9792 39.0136 32.061 38.9544 32.1244 38.8779C32.1878 38.8014 32.2307 38.7101 32.2492 38.6124L31.6492 37.9249H31.1242C30.9992 37.7874 30.7992 37.7624 30.6367 37.7624C30.6367 37.7624 30.8117 38.0124 31.0242 38.0749C31.1867 38.4124 31.8492 39.0499 31.8992 39.0499H31.8867ZM32.4617 39.1374C32.7173 39.0228 32.9941 38.9632 33.2742 38.9624C33.2492 38.7499 33.6617 38.2499 33.6617 38.2499L34.4117 39.2249C34.2742 39.3374 34.0367 39.2999 33.8492 39.3374C33.8492 39.3374 33.4867 39.6874 33.4492 39.6999C33.4117 39.7124 32.7617 39.8624 32.4492 39.6749C32.2992 39.3999 32.4742 39.0874 32.4617 39.1374ZM32.8867 37.4249C32.9742 37.1124 33.0117 36.7999 32.8867 36.4249C32.8867 36.4249 32.0367 36.3999 32.0367 36.4249L31.4742 36.6749C31.4742 36.6749 31.6617 37.2374 31.8742 37.1749C31.9742 37.4749 32.2617 37.3999 32.3992 37.4999L32.8867 37.4249ZM36.1992 36.5749C36.0867 36.9249 36.0242 37.2999 36.1992 37.6499C36.3492 37.6749 36.5242 37.7749 36.6617 37.7499L37.3492 36.5249C36.8742 36.3749 36.4992 36.3874 36.1992 36.5749Z" fill="#C76E2E"/>
<path fill-rule="evenodd" clip-rule="evenodd" d="M36.4121 25.7499C34.8121 25.2499 36.7871 24.1999 37.1121 25.7499C37.6371 25.8374 37.6996 26.2249 38.8246 26.0624C41.5246 30.4749 39.5246 37.5999 31.5996 44.9624C45.7871 32.8874 40.0246 23.9624 36.0996 24.2874C33.9496 24.4374 35.0371 27.0999 36.4121 25.7624V25.7499Z" fill="#B97700"/>
<path fill-rule="evenodd" clip-rule="evenodd" d="M36.5743 37.95C36.5493 37.95 36.1618 38.2375 36.1618 38.2375L35.6118 38.45L35.0243 38.4625L34.8993 38.0625L35.3493 37.6625C34.9743 37.6 34.5868 37.75 34.2868 38.0375C34.2868 38.0375 34.2868 38.475 34.5368 38.7C34.7224 38.8946 34.923 39.0743 35.1368 39.2375C35.4243 39.2875 35.6868 39.2375 35.8743 39.1L36.5743 37.95ZM33.4743 41.975C33.6618 42.025 34.9868 40.275 34.9868 40.275C34.8689 39.9602 34.6369 39.7014 34.3368 39.55C34.3368 39.55 33.6868 40.3 33.6743 40.5625C33.5743 40.8 33.2868 41.6875 33.4118 41.8C33.3993 41.825 33.3493 42.175 33.4743 41.975Z" fill="#C76E2E"/>
<path fill-rule="evenodd" clip-rule="evenodd" d="M24.8496 42.3249C22.8746 40.5999 20.1996 39.6499 16.4746 40.9499C17.4746 41.3749 18.5621 41.5249 19.4871 41.9874L24.8496 42.3249Z" fill="#006800" stroke="#004100" stroke-width="0.3" stroke-linejoin="round"/>
<path d="M19.125 41.1001C23.025 41.1751 24.1625 42.1501 23.95 41.9876" stroke="#00A400" stroke-width="0.275" stroke-linecap="round"/>
<path fill-rule="evenodd" clip-rule="evenodd" d="M24.925 42.5249C23.7625 42.7499 22.15 43.8749 21.675 43.8249C20.4125 43.6749 19.2125 43.1499 17.9875 42.7624C17.475 42.5999 16.9625 42.7624 16.4375 42.7624C20.8125 40.6874 22.3125 40.9749 24.9375 42.5124L24.925 42.5249Z" fill="#006800" stroke="#004100" stroke-width="0.275" stroke-linejoin="round"/>
<path fill-rule="evenodd" clip-rule="evenodd" d="M22.0504 39.4751C22.0504 39.4751 20.5879 39.6751 19.9254 39.7251C19.2879 39.6751 18.3379 39.0751 17.3004 37.9751C16.7504 37.3751 15.5129 37.4501 15.5129 37.4501C18.2629 36.8626 20.3879 37.4126 22.0504 39.4751ZM20.0504 36.6376C18.0629 36.5126 15.5879 34.7251 15.0254 32.6126C15.0254 32.6501 15.7504 33.0751 15.6379 33.1876C18.8879 34.0126 19.1129 34.6751 20.0629 36.6376H20.0504ZM23.3879 40.0501C23.6754 38.2501 23.7629 37.0501 22.8879 35.9876C22.2004 35.1751 22.0129 34.6876 21.5129 33.5501C21.3754 35.9251 20.8629 37.8751 23.3879 40.0501ZM20.2629 35.0501C21.7379 32.9001 21.9879 31.2751 21.7629 28.7251C21.6062 29.2256 21.414 29.7144 21.1879 30.1876C19.0004 31.5626 19.9754 33.7126 20.2629 35.0626V35.0501Z" fill="#006800" stroke="#004100" stroke-width="0.3" stroke-linejoin="round"/>
<path fill-rule="evenodd" clip-rule="evenodd" d="M18.9632 24.6626C20.4382 26.8126 20.2132 28.8376 19.9757 31.4001C19.8228 30.9 19.6348 30.4113 19.4132 29.9376C17.2132 28.5626 18.6757 26.0001 18.9632 24.6626Z" fill="#006800" stroke="#004100" stroke-width="0.3" stroke-linejoin="round"/>
<path fill-rule="evenodd" clip-rule="evenodd" d="M20.1758 28C23.7508 26.1875 22.3758 23.9 23.0258 22.1375C20.5508 23.9875 20.2258 25.9499 20.1758 27.9874V28Z" fill="#006800" stroke="#004100" stroke-width="0.3" stroke-linejoin="round"/>
<path d="M20.6621 27.5375C21.1121 26.2875 21.9996 24.1375 22.0871 24.1375M19.6121 30.1875C19.5246 29.2875 19.0871 26.8875 19.0371 26.65" stroke="#00A400" stroke-width="0.275" stroke-linecap="round"/>
<path fill-rule="evenodd" clip-rule="evenodd" d="M19.775 34.1999C17.775 34.0749 15.6375 31.3624 15.0625 29.2499C15.0625 29.2749 15.8 29.6999 15.675 29.8124C18.525 31.0874 18.825 32.2374 19.775 34.1874V34.1999ZM19.1875 32.3249C17.7125 30.1749 17.45 28.5499 17.6875 25.9999C17.725 26.1999 18.2125 27.4624 18.25 27.4624C20.4375 28.8374 19.4625 30.9874 19.1875 32.3374V32.3249ZM20.5 28.5624C24.2 26.9249 23.0625 25.1999 24.1625 23.3999C21.6875 25.2374 20.5375 26.5249 20.5 28.5624Z" fill="#006800" stroke="#004100" stroke-width="0.3" stroke-linejoin="round"/>
<path d="M20.6621 28.1875C22.1621 26.6875 22.6996 25.4375 22.6996 25.4375" stroke="#00A400" stroke-width="0.275" stroke-linecap="round"/>
<path fill-rule="evenodd" clip-rule="evenodd" d="M33.7992 48.85L35.5992 48.8875C29.6367 43.2875 18.1867 40.85 19.7867 30.5625C18.1242 41.725 29.1242 42.75 33.7992 48.85Z" fill="#FFE100" stroke="#E9BF00" stroke-width="0.3"/>
<path fill-rule="evenodd" clip-rule="evenodd" d="M20.7246 28.3499C20.7246 28.4254 20.7097 28.5002 20.6808 28.5699C20.6519 28.6397 20.6096 28.7031 20.5562 28.7565C20.5028 28.8099 20.4394 28.8522 20.3697 28.8811C20.2999 28.91 20.2251 28.9249 20.1496 28.9249C20.0741 28.9249 19.9993 28.91 19.9296 28.8811C19.8598 28.8522 19.7964 28.8099 19.743 28.7565C19.6896 28.7031 19.6473 28.6397 19.6184 28.5699C19.5895 28.5002 19.5746 28.4254 19.5746 28.3499C19.5746 28.1974 19.6352 28.0511 19.743 27.9433C19.8509 27.8355 19.9971 27.7749 20.1496 27.7749C20.3021 27.7749 20.4484 27.8355 20.5562 27.9433C20.664 28.0511 20.7246 28.1974 20.7246 28.3499ZM20.3746 31.4999C20.3746 31.6441 20.3173 31.7824 20.2153 31.8844C20.1134 31.9864 19.9751 32.0437 19.8309 32.0437C19.6866 32.0437 19.5483 31.9864 19.4464 31.8844C19.3444 31.7824 19.2871 31.6441 19.2871 31.4999C19.2871 31.3557 19.3444 31.2174 19.4464 31.1154C19.5483 31.0134 19.6866 30.9562 19.8309 30.9562C19.9751 30.9562 20.1134 31.0134 20.2153 31.1154C20.3173 31.2174 20.3746 31.3557 20.3746 31.4999ZM20.8746 35.9999C20.8746 36.1259 20.8246 36.2467 20.7355 36.3358C20.6464 36.4249 20.5256 36.4749 20.3996 36.4749C20.2736 36.4749 20.1528 36.4249 20.0637 36.3358C19.9747 36.2467 19.9246 36.1259 19.9246 35.9999C19.9246 35.8739 19.9747 35.7531 20.0637 35.664C20.1528 35.5749 20.2736 35.5249 20.3996 35.5249C20.5256 35.5249 20.6464 35.5749 20.7355 35.664C20.8246 35.7531 20.8746 35.8739 20.8746 35.9999ZM25.0496 40.9624C25.0496 41.09 24.9989 41.2124 24.9087 41.3027C24.8184 41.393 24.696 41.4437 24.5684 41.4437C24.4407 41.4437 24.3183 41.393 24.2281 41.3027C24.1378 41.2124 24.0871 41.09 24.0871 40.9624C24.0871 40.8348 24.1378 40.7124 24.2281 40.6221C24.3183 40.5319 24.4407 40.4812 24.5684 40.4812C24.696 40.4812 24.8184 40.5319 24.9087 40.6221C24.9989 40.7124 25.0496 40.8348 25.0496 40.9624ZM25.6496 42.3874C25.6496 42.5134 25.5996 42.6342 25.5105 42.7233C25.4214 42.8124 25.3006 42.8624 25.1746 42.8624C25.0486 42.8624 24.9278 42.8124 24.8387 42.7233C24.7497 42.6342 24.6996 42.5134 24.6996 42.3874C24.6996 42.2614 24.7497 42.1406 24.8387 42.0515C24.9278 41.9624 25.0486 41.9124 25.1746 41.9124C25.3006 41.9124 25.4214 41.9624 25.5105 42.0515C25.5996 42.1406 25.6496 42.2614 25.6496 42.3874Z" fill="#9D4916" stroke="#68300E" stroke-width="0.1375"/>
<path fill-rule="evenodd" clip-rule="evenodd" d="M27.7516 46.5373C27.4838 46.3332 27.2693 46.0673 27.1266 45.7623L25.2516 45.5498L25.2266 46.6248L27.7641 46.5373H27.7516Z" fill="white" stroke="black" stroke-width="0.1375"/>
<path fill-rule="evenodd" clip-rule="evenodd" d="M14.0379 45.2749C15.1254 45.4749 16.7629 45.1749 17.3004 45.8749C17.9504 46.5999 15.3004 47.7249 15.6754 48.3499C16.4879 49.2249 17.3379 48.8624 18.2504 48.3874C18.4754 47.9124 18.6379 47.0749 18.7504 46.8249C18.4254 46.0624 17.5254 45.6874 17.7504 44.5249C19.2754 43.9499 22.1879 43.9999 22.5004 44.2249C22.7504 44.6999 22.5254 44.9249 22.5754 45.3124C22.3254 45.7874 21.6754 46.6124 21.6754 47.0624C23.2629 47.6124 23.6754 46.9624 25.1129 46.9999C26.7879 47.0249 27.8129 47.4749 28.1754 46.8124C27.9254 46.2374 26.3879 46.6999 25.8004 46.3249C25.5129 46.2249 25.3254 45.9999 25.0754 45.7374C24.8254 45.4749 24.1129 45.4624 24.0004 44.8249C24.3004 43.4624 26.2629 43.6749 26.5879 43.4624L31.7129 43.8124C32.6379 43.7874 33.1629 45.4624 31.9129 45.9624C30.6629 46.4624 26.9504 45.2124 25.3504 46.0874C25.2629 45.7249 24.1004 45.1999 24.0254 45.1749C23.5254 45.3249 22.5754 45.2749 22.5754 45.2749C22.3379 45.7124 22.0754 46.0249 21.8379 46.4624C20.7754 45.9999 19.7754 46.8249 18.6129 46.5874L16.8004 46.7749L15.6504 46.6749L13.9004 47.1749L15.1504 46.0749L14.0379 45.2749Z" fill="white" stroke="black" stroke-width="0.1375" stroke-linejoin="round"/>
<path fill-rule="evenodd" clip-rule="evenodd" d="M13.9633 45.0625C13.9745 45.1322 13.9705 45.2035 13.9515 45.2715C13.9325 45.3395 13.899 45.4026 13.8532 45.4563C13.8075 45.5101 13.7506 45.5533 13.6865 45.5829C13.6224 45.6125 13.5526 45.6278 13.482 45.6278C13.4114 45.6278 13.3417 45.6125 13.2776 45.5829C13.2135 45.5533 13.1566 45.5101 13.1108 45.4563C13.0651 45.4026 13.0315 45.3395 13.0125 45.2715C12.9935 45.2035 12.9895 45.1322 13.0008 45.0625C13.0193 44.9482 13.0778 44.8442 13.166 44.7691C13.2542 44.6941 13.3662 44.6528 13.482 44.6528C13.5978 44.6528 13.7099 44.6941 13.798 44.7691C13.8862 44.8442 13.9448 44.9482 13.9633 45.0625ZM13.8383 47.45C13.8383 47.5793 13.7869 47.7033 13.6955 47.7947C13.6041 47.8862 13.4801 47.9375 13.3508 47.9375C13.2215 47.9375 13.0975 47.8862 13.0061 47.7947C12.9146 47.7033 12.8633 47.5793 12.8633 47.45C12.8633 47.3207 12.9146 47.1967 13.0061 47.1053C13.0975 47.0139 13.2215 46.9625 13.3508 46.9625C13.4801 46.9625 13.6041 47.0139 13.6955 47.1053C13.7869 47.1967 13.8383 47.3207 13.8383 47.45Z" fill="white" stroke="black" stroke-width="0.1375"/>
<path fill-rule="evenodd" clip-rule="evenodd" d="M35.502 46.5498C35.8145 46.2623 36.002 46.0748 36.127 45.7623L38.002 45.5623L38.0395 46.6373L35.502 46.5498Z" fill="white" stroke="black" stroke-width="0.1375"/>
<path fill-rule="evenodd" clip-rule="evenodd" d="M49.2142 45.2874C48.1267 45.4874 46.4892 45.1874 45.9642 45.8874C45.3142 46.6124 47.9642 47.7374 47.5892 48.3624C46.7642 49.2374 45.9267 48.8749 45.0017 48.3999C44.7892 47.9249 44.6267 47.0874 44.5017 46.8374C44.8392 46.0749 45.7392 45.6874 45.5017 44.5249C43.9892 43.9624 41.0767 44.0124 40.7517 44.2249C40.5017 44.7124 40.7392 44.9374 40.6892 45.3124C40.9392 45.8124 41.5767 46.6249 41.5767 47.0624C39.9892 47.6249 39.5767 46.9749 38.1392 47.0124C36.4642 47.0374 35.4392 47.4874 35.0767 46.8124C35.3267 46.2374 36.8642 46.7124 37.4517 46.3374C37.7392 46.2374 37.9267 45.9999 38.1892 45.7499C38.4517 45.4999 39.1517 45.4749 39.2517 44.8374C38.9517 43.4749 36.9892 43.6874 36.6642 43.4749L31.5392 43.8249C30.6142 43.7999 30.1017 45.4749 31.3517 45.9749C32.6017 46.4749 36.3017 45.2249 37.9142 46.0874C38.0017 45.7374 39.1517 45.2124 39.2392 45.1874C39.7267 45.3374 40.6892 45.2874 40.6892 45.2874C40.9142 45.7124 41.1892 46.0374 41.4267 46.4749C42.4892 45.9999 43.4892 46.8374 44.6517 46.5999L46.4517 46.7874L47.6142 46.6874L49.3642 47.1874L48.1142 46.0874L49.2142 45.2874Z" fill="white" stroke="black" stroke-width="0.1375" stroke-linejoin="round"/>
<path fill-rule="evenodd" clip-rule="evenodd" d="M49.3016 45.0625C49.2903 45.1321 49.2943 45.2035 49.3133 45.2715C49.3323 45.3395 49.3658 45.4025 49.4116 45.4563C49.4574 45.51 49.5143 45.5532 49.5784 45.5828C49.6425 45.6124 49.7122 45.6278 49.7828 45.6278C49.8534 45.6278 49.9232 45.6124 49.9873 45.5828C50.0514 45.5532 50.1083 45.51 50.154 45.4563C50.1998 45.4025 50.2333 45.3395 50.2523 45.2715C50.2713 45.2035 50.2753 45.1321 50.2641 45.0625C50.2641 44.9332 50.2127 44.8092 50.1213 44.7177C50.0299 44.6263 49.9059 44.575 49.7766 44.575C49.6473 44.575 49.5233 44.6263 49.4319 44.7177C49.3404 44.8092 49.2891 44.9332 49.2891 45.0625H49.3016ZM49.4266 47.4625C49.4153 47.5321 49.4193 47.6035 49.4383 47.6715C49.4573 47.7395 49.4908 47.8025 49.5366 47.8563C49.5824 47.91 49.6393 47.9532 49.7034 47.9828C49.7675 48.0124 49.8372 48.0278 49.9078 48.0278C49.9784 48.0278 50.0482 48.0124 50.1123 47.9828C50.1764 47.9532 50.2333 47.91 50.279 47.8563C50.3248 47.8025 50.3583 47.7395 50.3773 47.6715C50.3963 47.6035 50.4003 47.5321 50.3891 47.4625C50.3706 47.3481 50.312 47.2441 50.2238 47.1691C50.1356 47.094 50.0236 47.0528 49.9078 47.0528C49.792 47.0528 49.68 47.094 49.5918 47.1691C49.5036 47.2441 49.445 47.3481 49.4266 47.4625Z" fill="white" stroke="black" stroke-width="0.1375"/>
<path fill-rule="evenodd" clip-rule="evenodd" d="M31.6016 43.9124C31.1641 43.8249 31.0141 43.85 30.7266 43.825L30.0391 45.9375C31.0891 46.025 32.0766 46.025 32.0766 46.025C31.4391 45.9 31.5891 43.925 31.6016 43.9V43.9124Z" fill="white"/>
<path d="M27.125 45.375V43.9375H27.375V45.1375H28.05V45.3625L27.125 45.375Z" fill="black"/>
<path d="M28.25 45.4375V44H28.5V45.425L28.25 45.4375Z" fill="black"/>
<path d="M29.3496 45.5376H28.9121V44.1251L29.3371 44.1001C29.4788 44.1001 29.5871 44.1293 29.6621 44.1876C29.7454 44.2626 29.7871 44.3584 29.7871 44.4751C29.7871 44.5834 29.7329 44.6709 29.6246 44.7376C29.7996 44.8043 29.8871 44.9293 29.8871 45.1126C29.8871 45.2543 29.8371 45.3626 29.7371 45.4376C29.6454 45.5043 29.5204 45.5376 29.3621 45.5376H29.3496ZM29.1746 44.3251V44.6501H29.2996C29.4579 44.6501 29.5371 44.5918 29.5371 44.4751C29.5371 44.3751 29.4621 44.3251 29.3121 44.3251H29.1746ZM29.1746 44.8501V45.3251H29.2996C29.4079 45.3251 29.4871 45.3084 29.5371 45.2751C29.5954 45.2501 29.6246 45.1918 29.6246 45.1001C29.6246 45.0168 29.5996 44.9584 29.5496 44.9251C29.5079 44.8751 29.4246 44.8501 29.2996 44.8501H29.1746Z" fill="black"/>
<path d="M30.4875 44.4126V44.7626H30.95V44.9876H30.5V45.4126H31.1625V45.6251H30.25V44.2126H31.15V44.4376L30.4875 44.4126Z" fill="black"/>
<path d="M32.3125 45.6501L31.9375 45.0501H31.75V45.6501H31.5V44.2501H31.6625L31.8875 44.2251C32.2542 44.2251 32.4375 44.3668 32.4375 44.6501C32.4375 44.7334 32.4167 44.8043 32.375 44.8626C32.3167 44.9459 32.25 45.0001 32.175 45.0251L32.625 45.6626L32.3125 45.6501ZM31.75 44.4501V44.8251H31.875L32.0875 44.8126C32.1458 44.7793 32.175 44.7209 32.175 44.6376C32.175 44.5543 32.1542 44.5001 32.1125 44.4751C32.0542 44.4501 31.9625 44.4376 31.8375 44.4376H31.75V44.4501Z" fill="black"/>
<path d="M33.325 44.4125V45.6125H33.075V44.4125H32.625V44.1875H33.8V44.4125H33.325Z" fill="black"/>
<path d="M34.7758 45.4126L34.6633 45.1251H34.1633L34.0883 45.4126H33.8008L34.3758 43.9626H34.4883L35.0633 45.4126H34.7758ZM34.4133 44.3876L34.2633 44.9251H34.6008L34.4133 44.3876Z" fill="black"/>
<path d="M35.2617 45.3L35.3492 45.0751C35.4575 45.1334 35.5534 45.1625 35.6367 45.1625C35.7867 45.1625 35.8617 45.1126 35.8617 45.0126L35.8117 44.8876L35.5992 44.725L35.3742 44.5876L35.2867 44.4626L35.2617 44.3C35.2617 44.1834 35.2992 44.0876 35.3742 44.0126C35.4576 43.9542 35.5617 43.925 35.6867 43.925C35.8534 43.925 35.9784 43.9542 36.0617 44.0126L35.9742 44.2375C35.8909 44.1542 35.7951 44.1125 35.6867 44.1125C35.6284 44.1125 35.5867 44.1292 35.5617 44.1625C35.5284 44.1959 35.5117 44.2375 35.5117 44.2875C35.5117 44.3709 35.5951 44.4542 35.7617 44.5375C35.8701 44.5875 35.9492 44.6334 35.9992 44.675L36.0867 44.8L36.0992 44.9875C36.0992 45.1042 36.0575 45.2001 35.9742 45.2751C35.8909 45.3501 35.7701 45.3876 35.6117 45.3876C35.4701 45.3876 35.3534 45.3501 35.2617 45.2751V45.3Z" fill="black"/>
<path d="M20.1758 42.4749C21.5258 42.6374 23.3883 42.5249 24.2008 42.4749M18.1508 37.8875C19.2758 38.7875 21.7633 39.3125 21.7258 39.3125M23.1383 39.5625C22.7758 37.6875 22.3758 37.25 22.0508 36.0625M16.2383 33.95C18.1508 34.8125 18.4383 35.3749 19.6508 36.2249M20.3383 34.3499C20.5008 32.0499 20.8383 31.4375 21.4008 30.9125M16.2383 30.625C17.2171 31.6872 18.2046 32.7414 19.2008 33.7874M18.2758 28.5125C19.1258 29.125 19.1258 31.3125 19.1258 31.3125" stroke="#00A400" stroke-width="0.275" stroke-linecap="round"/>
</g>
<defs>
<clipPath id="clip0_10790_12130">
<rect width="64" height="64" rx="32" fill="white"/>
</clipPath>
</defs>
</svg>
