<svg width="64" height="64" viewBox="0 0 64 64" fill="none" xmlns="http://www.w3.org/2000/svg">
<g clip-path="url(#clip0_10790_12195)">
<path d="M0 0H64V64H0V0Z" fill="#12AD2B"/>
<path d="M0 18.2876H64V45.7126H0V18.2876Z" fill="#FFCE00"/>
<path d="M0 0V64L24 32" fill="#D21034"/>
<path d="M34.6133 24.3958L32.051 32.2817L35.994 33.5628" fill="#000001"/>
<path d="M34.6133 24.3958L37.1756 32.2817L33.2326 33.5628" fill="#000001"/>
<path d="M42.498 30.1252H34.2063V34.2711" fill="#000001"/>
<path d="M42.498 30.1252L35.7899 34.999L33.353 31.6449" fill="#000001"/>
<path d="M39.4863 39.3958L36.924 31.5098L32.9811 32.791" fill="#000001"/>
<path d="M39.4863 39.3958L32.7782 34.522L35.215 31.1679" fill="#000001"/>
<path d="M29.7383 39.3958L36.4464 34.522L34.0096 31.1679" fill="#000001"/>
<path d="M29.7383 39.3958L32.3006 31.5098L36.2435 32.791" fill="#000001"/>
<path d="M26.7266 30.1252L33.4347 34.999L35.8716 31.6449" fill="#000001"/>
<path d="M26.7266 30.1252H35.0183V34.2711" fill="#000001"/>
<path d="M53.252 24.3958L50.6897 32.2817L54.6326 33.5628" fill="#000001"/>
<path d="M53.252 24.3958L55.8142 32.2817L51.8713 33.5628" fill="#000001"/>
<path d="M61.1367 30.1252H52.845V34.2711" fill="#000001"/>
<path d="M61.1367 30.1252L54.4286 34.999L51.9917 31.6449" fill="#000001"/>
<path d="M58.125 39.3958L55.5627 31.5098L51.6197 32.791" fill="#000001"/>
<path d="M58.125 39.3958L51.4168 34.522L53.8537 31.1679" fill="#000001"/>
<path d="M48.377 39.3958L55.0851 34.522L52.6482 31.1679" fill="#000001"/>
<path d="M48.377 39.3958L50.9392 31.5098L54.8822 32.791" fill="#000001"/>
<path d="M45.3652 30.1252L52.0734 34.999L54.5103 31.6449" fill="#000001"/>
<path d="M45.3652 30.1252H53.657V34.2711" fill="#000001"/>
</g>
<defs>
<clipPath id="clip0_10790_12195">
<rect width="64" height="64" rx="32" fill="white"/>
</clipPath>
</defs>
</svg>
