<svg width="64" height="64" viewBox="0 0 64 64" fill="none" xmlns="http://www.w3.org/2000/svg">
<g clip-path="url(#clip0_10790_12231)">
<mask id="mask0_10790_12231" style="mask-type:luminance" maskUnits="userSpaceOnUse" x="-1" y="0" width="65" height="64">
<path d="M-0.00195312 0H63.9882V63.9902H-0.00195312V0Z" fill="white"/>
</mask>
<g mask="url(#mask0_10790_12231)">
<path fill-rule="evenodd" clip-rule="evenodd" d="M-16 0H79.9853V63.9902H-16V0Z" fill="#165D31"/>
<path fill-rule="evenodd" clip-rule="evenodd" d="M8.18902 18.1392C8.08581 19.6357 7.9439 22.2676 9.22112 22.5385C10.7564 22.6804 9.90489 19.9324 10.4596 19.4422C10.5758 19.1842 10.7693 19.1842 10.7822 19.5067V21.8289C10.7693 22.603 11.2595 22.8094 11.6466 22.9771C12.0594 22.9384 12.3174 22.9513 12.4851 23.3384L12.6658 27.3765C12.6658 27.3765 13.6075 27.6345 13.6463 25.1058C13.6979 23.6222 13.3495 22.3708 13.5559 22.0869C13.5559 21.8031 13.9172 21.7902 14.1752 21.9192C14.5751 22.2031 14.7558 22.5643 15.375 22.4095C16.3297 22.1515 16.8974 21.687 16.9232 20.9645C16.8903 20.253 16.7422 19.5515 16.4845 18.8874C16.5232 18.7584 16.291 18.4359 16.3426 18.3069C16.5103 18.5649 16.7684 18.552 16.8329 18.3069C16.6651 17.765 16.42 17.2619 16.0072 17.0426C15.6717 16.7458 15.1815 16.8103 15.0009 17.4296C14.9797 18.2428 15.2548 19.036 15.775 19.6615C15.9372 20.0121 16.0039 20.3993 15.9685 20.7839C15.6975 20.9516 15.4266 20.8742 15.1944 20.642C15.1944 20.642 14.4332 20.0615 14.4332 19.9453C14.6396 18.6552 14.4848 18.5133 14.3687 18.1521C14.2913 17.6618 14.0591 17.507 13.8656 17.1716C13.6721 16.9652 13.4269 16.9652 13.2979 17.1716C12.9625 17.7521 13.1173 18.9906 13.3624 19.5454C13.543 20.0615 13.8011 20.384 13.6721 20.384C13.5688 20.6678 13.3624 20.6033 13.2076 20.2679C13.0161 19.5573 12.9249 18.8234 12.9367 18.0876C12.8722 17.507 12.8077 16.2814 12.4206 15.9718C12.1884 15.6621 11.8401 15.8169 11.724 16.1008C11.6913 16.6599 11.7043 17.2209 11.7627 17.7779C12.0207 18.681 12.0981 19.5067 12.2271 20.4485C12.2658 21.7128 11.4917 21.0032 11.5304 20.3711C11.7111 19.5583 11.6595 18.2682 11.5046 17.9456C11.3756 17.6231 11.2337 17.5457 10.937 17.5973C10.679 17.5715 10.0726 18.2424 9.90489 19.3777C9.90489 19.3777 9.75007 19.9582 9.68557 20.4614C9.59526 21.0419 9.22112 21.4548 8.95019 20.384C8.71797 19.6099 8.57606 17.6876 8.18902 18.1392Z" fill="white"/>
<path fill-rule="evenodd" clip-rule="evenodd" d="M12.3705 24.28L8.37109 26.2023C8.4098 25.2992 10.2676 23.6479 11.5319 23.6221C12.3576 23.6479 12.1512 23.9446 12.3705 24.2671V24.28Z" fill="white"/>
<path fill-rule="evenodd" clip-rule="evenodd" d="M11.6729 25.5315C9.55705 30.9629 16.6011 31.7241 17.3881 25.7508C17.4655 25.5057 17.7751 25.2605 17.8139 25.6605C17.6461 31.079 12.3695 31.4402 11.4664 29.7373C11.2471 29.3502 11.1826 28.4472 11.1568 27.9053C11.0278 26.8474 10.4601 27.2602 10.3827 28.3181C10.2924 28.8987 10.3053 29.0664 10.3053 29.6341C10.5892 33.8915 17.401 32.0595 18.5105 28.5375C19.0911 26.5894 18.4073 25.1444 18.7298 25.1444C19.4007 25.8798 20.3554 25.2476 20.5618 24.9896C20.6521 24.8606 20.8714 24.7832 21.0263 24.9509C21.5423 25.338 22.4841 25.1444 22.6776 24.4865C22.7808 23.8285 22.8711 23.1576 22.8969 22.461C22.4712 22.59 22.1487 22.6803 22.1229 22.848L22.0326 23.4415C21.9939 23.6221 21.6197 23.635 21.6068 23.3899C21.4391 22.6545 20.7682 22.5513 20.3554 23.6995C20.0845 23.9317 19.5813 23.9575 19.5297 23.635C19.5942 22.8609 19.2846 22.7577 18.6653 23.1189L18.059 18.6035C18.317 18.6035 18.5621 18.7841 18.7943 18.4874C18.5363 17.6746 17.9816 16.0362 17.6848 15.9071C17.53 15.7265 17.4139 15.8426 17.2204 15.8813C16.885 15.9846 16.5753 16.2684 16.6785 16.8231L17.7106 23.2996C17.7622 23.5705 17.53 23.9446 17.2333 23.9059C16.7301 23.5576 16.6011 22.8738 15.7497 22.8996C15.1175 22.8996 14.4079 23.5834 14.3305 24.2413C14.2144 24.7574 14.1757 25.3251 14.3305 25.7766C14.7563 26.2926 15.2852 26.2539 15.7497 26.1249C16.1238 25.9701 16.4334 25.596 16.5753 25.6863C16.6656 25.8024 16.5882 27.0409 14.7821 28.0085C13.6984 28.4988 12.8211 28.602 12.3566 27.7118C12.0728 27.157 12.3824 25.0412 11.6729 25.5186V25.5315Z" fill="white"/>
<path fill-rule="evenodd" clip-rule="evenodd" d="M20.6141 19.997C21.0399 19.8551 23.0396 17.5458 23.0396 17.5458L22.7428 17.3135C22.6267 17.2103 22.6396 17.12 22.7428 17.0168C23.2331 16.733 23.0783 16.0879 22.8202 15.8041C22.652 15.72 22.4665 15.6763 22.2784 15.6763C22.0903 15.6763 21.9048 15.72 21.7365 15.8041C21.3882 16.1524 21.3108 16.6814 21.5817 17.0168C21.8397 17.1458 22.1236 17.4038 21.9429 17.5587C21.1173 18.4359 18.8724 19.9454 19.1305 20.0099C19.1821 20.0744 20.5754 20.0744 20.6141 20.0099V19.997ZM8.49984 28.1248C7.75157 29.3246 7.68706 31.1179 8.1128 31.6468C8.31922 31.9048 8.68046 32.0081 8.95138 31.9306C9.42873 31.7242 9.63515 30.7695 9.51904 30.4212C9.36423 30.1632 9.23521 30.1374 9.0804 30.3438C8.74496 31.0147 8.60305 30.5502 8.57725 30.1761C8.52564 29.4665 8.59015 28.7956 8.66756 28.2796C8.75787 27.7506 8.66756 27.9055 8.49984 28.1248ZM40.6369 26.1896C39.9144 24.6285 38.9081 23.0804 38.5856 22.4869C37.6126 20.9462 36.5797 19.4442 35.4893 17.9844C34.7152 17.0555 36.7665 18.3714 35.2312 16.5266C34.6507 16.0105 34.612 15.9976 34.1217 15.5848C33.8766 15.4041 33.2831 15.0945 33.1799 15.6106C33.1287 15.9804 33.1462 16.3566 33.2315 16.7201C33.2831 16.9781 33.6573 17.4038 33.8508 17.6619C36.302 20.9517 38.4823 24.2931 40.5723 28.4731C40.9078 28.3183 40.8304 26.4605 40.6369 26.1896Z" fill="white"/>
<path fill-rule="evenodd" clip-rule="evenodd" d="M37.4504 31.4404C37.3085 31.6081 37.7987 32.2918 38.4438 32.2918C39.5275 32.1628 40.4693 31.5565 41.3466 29.9696C41.5788 29.5826 41.9916 28.8085 42.0045 28.1763C42.0948 24.564 41.8239 21.7515 41.2821 19.1455C41.2563 18.8874 41.2821 18.5778 41.3208 18.5004C41.3853 18.423 41.6175 18.5004 41.7465 18.3069C41.9271 18.1134 41.2563 16.5523 40.8821 15.9589C40.7402 15.6879 40.6886 15.5073 40.4693 15.9847C40.2242 16.3717 40.0823 17.0555 40.0823 17.6876C40.5983 21.2484 40.766 24.3705 41.1015 27.9183C41.1273 28.2667 41.0757 28.7698 40.8434 28.9633C39.8998 30.0191 38.7435 30.8633 37.4504 31.4404ZM52.003 31.4275C51.2289 31.8661 51.2289 32.3822 51.8611 32.408C52.9319 32.2789 54.2091 32.1886 55.0864 30.8598C55.3186 30.4857 55.6025 29.4794 55.6154 28.873C55.6928 25.2607 55.5638 22.5514 55.0219 19.9453C54.9961 19.6873 54.88 19.1068 54.9187 19.0294C54.9961 18.8487 55.3444 19.0423 55.4734 18.8358C55.6541 18.6552 54.5704 17.249 54.1833 16.6426C54.0414 16.3846 53.9898 16.204 53.7705 16.6813C53.5254 17.0684 53.448 17.765 53.5383 18.3714C54.1188 22.2418 54.5446 25.1446 54.622 28.5634C54.5833 28.8988 54.5704 29.0794 54.4155 29.4794C54.0801 29.918 53.706 30.4599 53.3447 30.7179C52.9964 30.9759 52.2481 31.2339 52.003 31.4275Z" fill="white"/>
<path fill-rule="evenodd" clip-rule="evenodd" d="M52.584 27.9569V25.596C52.574 25.0077 52.4422 24.4279 52.1969 23.8931C51.9647 23.377 52.1066 22.9771 52.0034 22.4223C51.9002 21.8805 51.926 21.0548 51.7712 20.4097C51.7196 20.1517 51.5906 19.3518 51.6422 19.2744C51.6938 19.0938 51.9389 19.2744 52.055 19.068C52.2356 18.8745 51.4358 16.8103 51.0358 16.2297C50.8939 15.9717 50.6359 16.0491 50.3004 16.4877C50.0037 16.7587 50.1198 17.4037 50.2359 18.0101C51.01 22.0482 51.5777 25.7121 51.4616 29.5438C51.4229 29.8792 52.5969 28.5762 52.584 27.9569ZM46.8687 22.9513C46.3914 22.9513 45.3722 21.9966 45.0625 21.4547C45.0178 21.3241 45.0005 21.1857 45.0116 21.0481C45.0227 20.9105 45.062 20.7766 45.127 20.6548C45.3077 20.5258 45.5915 20.3968 45.7979 20.5258C45.7979 20.5258 46.0043 20.8355 45.9656 20.8742C46.2236 21.0032 46.3527 20.9258 46.3785 20.8097C46.3914 20.629 46.2882 20.5129 46.2882 20.2936C46.4172 19.7389 47.0622 19.6485 47.2945 20.0098C47.4751 20.2291 47.5396 20.6935 47.5654 21.0161C47.5654 21.1709 47.3074 20.9774 47.1525 21.0161C47.0106 21.0677 46.9719 21.2354 46.959 21.3902C46.9332 21.8031 46.8816 22.461 46.8687 22.9384V22.9513ZM37.8894 28.9632C38.0185 27.7247 37.8507 25.5444 37.8378 24.8219C37.7862 23.1061 37.5024 19.7905 37.3734 19.2486C37.2186 18.2036 37.7991 19.3647 37.7217 18.7584C37.5282 17.7263 36.9476 17.0038 36.2768 16.0491C36.0575 15.7524 36.0704 15.6879 35.722 16.1265C35.3608 16.978 35.6833 17.5585 35.7736 18.2165C36.2639 20.371 36.5477 22.3449 36.6767 24.3059C36.8214 26.3455 36.8386 28.3922 36.7283 30.434C37.1025 30.4598 37.6959 29.8405 37.8894 28.9632Z" fill="white"/>
<path fill-rule="evenodd" clip-rule="evenodd" d="M54.2468 26.9895C53.3824 25.5574 52.0923 23.9964 51.7439 23.4158C50.5888 21.7942 49.3753 20.2149 48.1058 18.6811C47.035 17.5587 48.596 18.5005 47.8994 17.6361C47.3059 16.991 47.1253 16.7846 46.635 16.3976C46.377 16.2298 46.2222 15.9202 46.1448 16.4492C46.1061 16.9136 46.0803 17.4555 46.1061 17.8554C46.1061 18.0747 46.3383 18.4747 46.5318 18.7198C49.1121 21.9064 51.9504 25.1704 54.2339 29.2601C54.5564 29.0795 54.4532 27.2475 54.2339 26.9895H54.2468Z" fill="white"/>
<path fill-rule="evenodd" clip-rule="evenodd" d="M15.3241 24.3318C15.2596 24.4479 15.1177 24.5899 15.1693 24.7189C15.2725 24.8479 15.3499 24.8866 15.5047 24.8995C15.6337 24.8995 15.8401 24.9253 15.8788 24.8479C15.9254 24.791 15.9558 24.7228 15.9672 24.6502C15.9785 24.5777 15.9703 24.5034 15.9434 24.435C15.8143 24.0738 15.4015 24.2028 15.3241 24.3318Z" fill="#165D31"/>
<path fill-rule="evenodd" clip-rule="evenodd" d="M44.2742 45.3221C45.4224 45.3608 46.1707 45.3737 47.1899 45.4898L48.3768 45.3608C49.7056 45.2318 49.7701 47.2573 49.7701 47.2573C49.7572 48.4442 49.2928 48.4958 48.7122 48.6248C48.3768 48.6764 48.1962 48.4313 48.0284 48.1733C47.8091 48.2636 47.5124 48.2765 47.1383 48.2249C46.6609 48.1991 46.1836 48.1991 45.7191 48.1604C45.2031 48.1217 44.9321 48.2249 44.429 48.1733C44.3129 48.341 44.171 48.5603 43.8742 48.4958C43.6162 48.47 43.3066 47.7346 43.3969 47.1928C43.5775 46.7928 43.5259 46.9219 43.513 46.7412C38.817 46.6251 34.0951 46.4187 29.4894 46.4832C25.877 46.4832 22.3292 46.638 18.7813 46.7928C16.8848 46.767 15.427 46.4574 14.4336 44.9867C14.5239 44.9867 19.2716 45.2705 20.652 45.1802C23.2322 45.1415 25.5674 44.9351 28.1863 44.8577C33.3468 44.948 38.4428 44.948 43.6033 45.3092C43.1131 44.9738 43.0873 44.1739 43.8613 43.9804C43.913 43.9417 43.9517 44.3674 44.0678 44.3674C44.6612 44.3287 44.4032 45.1415 44.2742 45.3221ZM23.5806 16.9006C22.8065 19.1326 24.0192 21.5709 24.8707 21.3387C25.49 21.5967 25.877 20.4227 26.135 19.1455C26.3027 18.7842 26.4318 18.7455 26.5221 18.9261C26.4963 20.6291 26.6511 21.0032 27.0897 21.5193C27.3421 21.7446 27.6667 21.8723 28.005 21.8794C28.3433 21.8865 28.673 21.7725 28.9346 21.558L29.6958 20.7839C29.8635 20.6162 30.0828 20.6033 30.3279 20.7581C30.5602 20.9774 30.5215 21.3387 31.0246 21.5967C31.4374 21.7644 32.3405 21.6354 32.5469 21.2742C32.8179 20.7968 32.8953 20.6291 33.0243 20.4485C33.2178 20.1905 33.5532 20.2937 33.5532 20.384C33.5274 20.5259 33.3339 20.6807 33.4629 20.9387C33.6952 21.1194 33.7597 21.0032 33.9016 20.9645C34.3918 20.7323 34.766 19.6486 34.766 19.6486C34.7789 19.2616 34.5595 19.2874 34.4176 19.3648L34.0306 19.6357C33.7726 19.6744 33.3081 19.8292 33.0759 19.468C32.8437 19.0423 32.8308 18.4359 32.6502 17.9973C32.6502 17.9714 32.3405 17.3135 32.6373 17.2748C32.7792 17.3006 33.1017 17.378 33.1533 17.12C33.3081 16.8619 32.8179 16.1266 32.4824 15.7524C32.1986 15.4428 31.7858 15.4041 31.3987 15.7266C31.1407 15.9847 31.1665 16.2427 31.1149 16.5136C31.0703 16.7018 31.0704 16.8979 31.1152 17.0861C31.16 17.2743 31.2483 17.4494 31.3729 17.5973C31.6439 18.1263 32.147 18.81 31.9793 19.7905C31.9793 19.7905 31.6826 20.2421 31.1794 20.1776C30.973 20.126 30.6376 20.0485 30.4569 18.7068C30.3279 17.6876 30.4827 16.2685 30.057 15.6105C29.9022 15.1977 29.799 14.8106 29.4119 15.5073C29.3087 15.7653 28.8701 16.1782 29.1797 17.0297C29.4749 17.7795 29.564 18.5947 29.4377 19.3906C29.2571 19.6615 29.2184 19.7647 28.9733 20.0356C28.6508 20.384 28.2895 20.2937 28.0186 20.1647C27.7606 19.9969 27.5542 19.9066 27.4381 19.3519C27.4639 18.4746 27.5026 17.0426 27.3477 16.7329C27.1155 16.2685 26.7285 16.4362 26.5608 16.5781C25.8122 17.4083 25.3115 18.4319 25.1158 19.5325C24.8965 20.2421 24.6643 20.0485 24.4966 19.7518C24.0966 19.3648 24.0708 16.4104 23.5806 16.9006Z" fill="white"/>
<path fill-rule="evenodd" clip-rule="evenodd" d="M25.9285 21.7645C26.2897 21.5065 26.122 21.3388 26.651 21.8677C27.3318 23.0648 27.729 24.4021 27.8121 25.7768C27.7734 26.0993 28.0056 26.2929 28.1088 26.2283C28.1604 25.4801 30.0053 24.4222 31.6824 24.2674C31.9405 24.2157 31.8115 23.7255 31.8502 23.4675C31.7469 22.5386 32.3662 21.6871 33.2564 21.6226C34.4433 21.8032 34.8432 22.4354 34.869 23.403C34.74 25.2737 32.7919 25.5962 31.6953 25.7252C31.5276 25.8026 31.4631 25.88 31.6953 25.9703L36.2753 25.9832L36.5075 26.1122C36.5333 26.2412 36.443 26.138 36.2495 26.4348C36.056 26.7315 35.8108 27.4282 35.7979 27.8797C34.4249 28.2805 33.0165 28.5483 31.5921 28.6796C31.1019 28.9376 30.8568 29.273 30.9471 29.6472C31.1148 30.0729 32.2243 30.4858 32.2243 30.5116C32.4307 30.6406 32.6758 30.9502 32.1598 31.5695C29.9279 31.4792 28.1991 30.5245 27.6056 29.1827C27.425 29.0537 27.2186 29.1827 27.1025 29.3633C26.3258 30.5573 25.2059 31.4883 23.8901 32.0339C22.9999 32.2532 22.0968 31.9049 21.6711 31.3243C21.3872 30.9889 21.4001 30.6277 21.284 30.5503C20.8067 30.7567 16.6912 32.5113 17.2201 31.6985C18.2135 30.6148 19.9552 29.8278 21.4776 28.7699C21.6066 28.4216 21.8001 27.2217 22.4064 26.8347C22.4322 26.8347 22.3032 27.5314 22.3161 27.8281C22.3161 28.0732 22.3032 28.1635 22.3548 28.099C22.458 28.0345 24.3158 26.5767 24.4577 26.1251C24.6384 25.8671 24.5093 25.222 24.5093 25.1962C24.1739 24.2932 23.6837 24.2287 23.503 23.7771C23.3353 23.1836 23.4127 22.5128 23.7482 22.3193C24.0449 22.0483 24.3932 22.0741 24.7287 22.3709C25.1157 22.7063 25.4382 23.3643 25.5414 23.8545C25.4769 24.048 25.0512 23.7255 24.8964 23.8287C25.1544 24.0867 25.2834 24.4093 25.3737 24.7963C25.6318 25.8284 25.5414 26.2154 25.3092 26.8863C24.4835 28.6151 23.4256 29.144 22.4967 29.7762C22.4709 29.7891 22.458 30.2277 22.8064 30.46C22.9354 30.589 23.4127 30.6406 23.9675 30.46C25.1742 29.7937 26.1504 28.777 26.7671 27.5443C26.9348 26.6154 26.7026 25.6349 26.4574 24.7834C26.1762 24.1042 25.9181 23.4158 25.6834 22.7192C25.6576 22.2032 25.6963 22.0225 25.9414 21.7645H25.9285ZM13.9561 16.9394C14.4722 17.1846 15.4656 17.0685 15.4269 16.2299L15.4011 15.8299C15.2979 15.5719 15.0011 15.6364 14.9366 15.9073C14.9108 15.9848 14.9753 16.1267 14.8979 16.1654C14.8463 16.2041 14.6786 16.1783 14.6915 15.946C14.6915 15.8686 14.6399 15.7912 14.6012 15.7396C14.5625 15.7267 14.5496 15.7138 14.4851 15.7138C14.4077 15.7138 14.4206 15.7396 14.369 15.8041L14.3303 15.9977C14.3303 16.088 14.2916 16.1138 14.227 16.1267C14.1625 16.1267 14.1754 16.1267 14.1238 16.1009C14.0851 16.0622 14.0464 16.0493 14.0464 15.9848L14.0206 15.7783C13.9863 15.7403 13.9414 15.7133 13.8916 15.7009C13.5949 15.7009 13.582 16.0364 13.5949 16.1654C13.5691 16.1783 13.5562 16.7717 13.9561 16.9394Z" fill="white"/>
<path fill-rule="evenodd" clip-rule="evenodd" d="M29.3874 23.4674C29.9034 23.7254 31.1677 23.5706 30.8581 22.7579L30.8323 22.3708C30.7291 22.1128 30.4453 22.1773 30.3678 22.4353C30.3549 22.5127 30.4066 22.6546 30.3291 22.6933C30.2904 22.7449 30.1227 22.7191 30.1227 22.4869C30.1227 22.4095 30.0711 22.3321 30.0324 22.2805C30.0066 22.2547 29.9808 22.2547 29.9163 22.2547C29.8518 22.2547 29.8518 22.2676 29.8131 22.3321L29.7744 22.5256C29.7615 22.6159 29.7228 22.6546 29.6712 22.6546C29.5938 22.6546 29.6196 22.6546 29.5551 22.6288C29.5293 22.5901 29.4777 22.5772 29.4777 22.5127C29.4777 22.4482 29.4777 22.345 29.4519 22.3063C29.4261 22.2676 29.3745 22.2547 29.3228 22.2418C29.039 22.2418 29.0132 22.5643 29.0261 22.6933C29.0132 22.7191 29.0003 23.2997 29.3874 23.4674ZM38.3924 20.7582C38.9085 21.0162 39.9019 20.9001 39.8632 20.0615L39.8374 19.6616C39.7342 19.4035 39.4374 19.468 39.3729 19.7261C39.3471 19.8164 39.4116 19.9454 39.3342 19.9841C39.2826 20.0357 39.1149 20.0099 39.1278 19.7777C39.1278 19.7003 39.0633 19.6228 39.0375 19.5712C38.9988 19.5583 38.9859 19.5454 38.9085 19.5454C38.844 19.5454 38.844 19.5712 38.8053 19.6357L38.7666 19.8293C38.7666 19.9067 38.7279 19.9454 38.6634 19.9583C38.5988 19.9583 38.6117 19.9583 38.5601 19.9196C38.5214 19.8938 38.4827 19.868 38.4827 19.8164C38.4827 19.7519 38.4698 19.6486 38.444 19.597C38.4182 19.5583 38.3795 19.5454 38.315 19.5325C38.0312 19.5325 38.0183 19.868 38.0312 19.9841C38.0054 20.0099 37.9925 20.6033 38.3924 20.7582ZM43.0369 27.5571C42.1338 28.5892 42.5337 30.2922 42.7401 30.6534C43.0498 31.2727 43.282 31.6597 43.8755 31.9564C44.4173 32.3435 44.8301 32.0984 45.0624 31.8274C45.6042 31.2727 45.6042 29.8406 45.8622 29.5568C46.0429 29.0408 46.4815 29.1311 46.7008 29.3633C46.9 29.6437 47.1661 29.8698 47.4749 30.0213C47.9781 30.4599 48.5715 30.5373 49.165 30.1503C49.5649 29.918 49.8358 29.6213 50.0681 29.0408C50.3261 28.3312 50.1971 25.0801 50.1326 23.1578C50.1197 23.003 49.6165 20.5001 49.6165 20.4743C49.6165 20.4485 49.5391 19.1971 49.4875 18.9004C49.4875 18.7843 49.4488 18.7456 49.5778 18.7714C49.7068 18.8746 49.7326 18.8875 49.81 18.9262C49.939 18.952 50.0681 18.7198 49.9906 18.5004L48.7263 16.1782C48.636 16.0879 48.507 15.9847 48.3393 16.2169C48.2417 16.302 48.1635 16.4071 48.1101 16.5251C48.0566 16.6431 48.0292 16.7712 48.0297 16.9007C48.0684 17.4554 48.1587 18.0102 48.1974 18.5649L48.7134 21.3774C48.8682 23.39 48.9069 25.0285 49.0618 27.054C49.036 27.8925 48.7779 28.6408 48.5199 28.7311C48.5199 28.7311 48.1458 28.9634 47.9006 28.7311C47.7071 28.6408 46.9718 27.4926 46.9718 27.4926C46.5847 27.1443 46.3525 27.2346 46.0687 27.4926C45.3462 28.2022 45.0108 29.5439 44.5076 30.4599C44.3786 30.6663 44.0045 30.8469 43.6045 30.447C42.5724 29.0279 43.1788 27.0411 43.0498 27.5571H43.0369ZM38.6246 15.8299C39.102 16.0234 39.4245 16.991 39.3213 17.4554C39.231 18.0231 38.973 18.6553 38.8053 18.5649C38.5988 18.5004 38.9343 17.9973 38.7408 17.4683C38.6375 17.1329 37.9925 16.5007 38.057 16.3201C37.928 15.9331 38.3408 15.7654 38.6246 15.8299Z" fill="white"/>
<path fill-rule="evenodd" clip-rule="evenodd" d="M44.5711 28.1248C44.6614 26.9637 44.4937 26.267 44.4679 25.5961C44.4421 24.9253 43.6939 19.7906 43.5648 19.2745C43.3713 18.3069 44.2744 19.1455 44.1712 18.5779C43.8616 17.8683 43.1004 16.8362 42.8553 16.2298C42.7134 15.9718 42.765 15.7267 42.4424 16.1524C42.1639 16.9197 42.0668 17.741 42.1586 18.5521C42.9327 22.5902 43.7197 25.9445 43.5906 29.7891C43.9648 29.7891 44.3905 28.9505 44.5711 28.1119V28.1248ZM52.6215 17.4555C53.0602 17.6748 53.3053 18.8746 53.2666 19.21C53.1763 19.8422 52.944 20.5002 52.7763 20.4227C52.6086 20.3453 52.815 19.4939 52.7247 19.2358C52.6344 18.8617 52.0539 18.1908 52.1055 17.9844C51.9894 17.5716 52.3635 17.3909 52.6215 17.4684V17.4555ZM20.6651 25.9445C21.078 26.1122 21.3102 26.9766 21.2715 27.2346C21.1941 27.699 20.9748 28.1893 20.8199 28.1377C20.6522 28.0732 20.8457 27.4539 20.7683 27.2604C20.7296 26.7831 20.162 26.5379 20.1749 26.3444C20.0717 25.9574 20.42 25.8929 20.6651 25.9574V25.9445Z" fill="white"/>
<path fill-rule="evenodd" clip-rule="evenodd" d="M30.612 27.2733C31.128 27.2991 31.3989 27.7248 30.9087 27.8925C30.4184 28.0603 29.9411 28.1893 29.9411 28.8988C30.1217 29.8922 29.6831 29.5439 29.4251 29.4149C29.1283 29.1956 28.2768 28.6795 28.1607 27.5442C28.1478 27.2862 28.3542 27.054 28.6897 27.054C29.2057 27.183 29.954 27.2088 30.5991 27.2733H30.612Z" fill="#165D31"/>
<path fill-rule="evenodd" clip-rule="evenodd" d="M9.67431 15.5459C10.2807 15.7265 10.3194 16.6167 10.2678 16.8877C10.1904 17.365 9.97104 17.8682 9.81623 17.8036C9.64851 17.752 9.81623 17.107 9.73882 16.9006C9.64851 16.6167 9.13246 16.1007 9.19697 15.9459C9.06796 15.6362 9.42919 15.4943 9.67431 15.5588V15.5459ZM21.6596 19.7517C21.1951 20.0098 21.0145 20.758 21.2983 21.1967C21.5693 21.5837 21.995 21.4418 22.0595 21.4418C22.5111 21.4934 22.782 20.5774 22.782 20.5774C22.782 20.5774 22.7949 20.3194 22.2659 20.8096C22.0337 20.8483 22.0079 20.7709 21.9434 20.6419C21.8884 20.3992 21.9156 20.145 22.0208 19.9194C22.0982 19.7001 21.9176 19.5969 21.6596 19.7517ZM25.1429 15.1976C24.9236 15.3653 24.4462 15.8427 24.4333 16.3974C24.4333 16.707 24.3688 16.707 24.5624 16.9135C24.7172 17.1199 24.872 17.107 25.1687 16.9522C25.2426 16.9043 25.3058 16.8419 25.3546 16.7686C25.4035 16.6954 25.4368 16.613 25.4525 16.5264C25.5299 16.1652 25.0784 16.6941 25.0268 16.2942C24.9236 15.933 25.2074 15.7781 25.4783 15.4169C25.4783 15.1718 25.4783 15.0041 25.1558 15.1976H25.1429ZM27.9683 15.7136C27.8559 16.1662 27.7868 16.6284 27.7619 17.0941C27.6845 17.4424 28.1231 17.5843 28.3295 17.1328C28.6263 16.32 28.6263 15.9717 28.6521 15.6233C28.5617 15.1073 28.2005 15.1073 27.9683 15.7007V15.7136ZM45.7075 24.7316C45.7591 24.6671 48.2103 22.9254 48.2103 22.9254C48.4555 22.848 48.4039 23.8285 48.2878 23.8285C47.5307 24.5623 46.6592 25.168 45.7075 25.6218C45.5785 25.6992 45.4624 24.9509 45.7075 24.7187V24.7316ZM47.9265 24.7187C48.3523 24.9251 48.5329 26.1895 48.4813 26.5249C48.4942 27.1958 48.0684 27.7247 47.9007 27.6344C47.7201 27.557 47.9136 26.8087 47.8362 26.5507C47.7459 26.1766 47.3718 25.4799 47.4363 25.2864C47.3073 24.8606 47.6685 24.6413 47.9265 24.7187ZM33.4255 30.1372C33.5932 29.8792 34.1093 29.5309 34.1222 29.5309C34.3673 29.4019 34.5995 29.6212 34.5866 29.6083C34.6253 29.8534 34.4318 30.0727 34.4963 30.3953C34.5479 30.5243 34.5866 30.6662 34.8318 30.6146C35.2188 30.3179 35.58 30.2921 35.9671 30.2663C36.2638 30.2921 36.2638 30.7823 36.0832 30.7952C35.3607 30.95 35.0511 31.1435 34.535 31.3371C34.2899 31.479 34.0835 31.2984 34.0835 31.2854C34.0835 31.2725 33.9545 31.1435 34.0448 30.821C34.0577 30.563 33.9545 30.434 33.748 30.4598C33.5803 30.5372 33.4384 30.5888 33.361 30.4082C33.3223 30.2792 33.3223 30.2146 33.4255 30.1372ZM50.4939 30.8081C50.5971 30.9371 50.6745 31.0661 50.4939 31.2854L50.0294 31.6725C49.9391 31.8273 49.9004 32.0337 50.1455 32.0982C50.5971 32.2272 51.655 31.5435 51.655 31.5306C51.8227 31.4016 51.7711 31.1564 51.7453 31.1564C51.655 31.0403 51.4228 31.1048 51.2808 31.0919C51.2034 31.0919 50.9712 31.0532 51.0744 30.8468C51.1776 30.7178 51.2034 30.6404 51.2679 30.4727C51.3454 30.3179 51.2808 30.2146 51.0228 30.1243C50.7648 30.0856 50.6616 30.1114 50.3778 30.1243C50.21 30.163 50.1584 30.2275 50.1197 30.4211C50.1455 30.7049 50.3133 30.692 50.5068 30.8081H50.4939Z" fill="white"/>
<path fill-rule="evenodd" clip-rule="evenodd" d="M33.5144 23.7126C33.4499 23.8416 33.2177 23.8287 32.9984 23.7126C32.7791 23.5965 32.6758 23.3901 32.7404 23.2739C32.8049 23.1578 33.0371 23.1578 33.2564 23.2739C33.4757 23.3901 33.5789 23.5965 33.5144 23.7126ZM22.3806 17.0297C22.2516 17.0684 22.0839 16.9523 22.0065 16.7717C21.9291 16.5911 21.9678 16.4492 22.0968 16.4105C22.2258 16.3718 22.3936 16.5008 22.471 16.6685C22.5484 16.8362 22.5097 17.0039 22.3806 17.0297ZM44.4031 46.8703C45.5642 46.9219 46.6737 46.8832 47.8348 46.9477C48.0541 47.1154 47.8993 47.567 47.7574 47.5283L46.7769 47.5025C46.7769 47.1284 45.8093 47.1929 45.848 47.5154C45.332 47.5799 44.8675 47.5025 44.3515 47.4767C44.1967 47.2832 44.2225 46.9477 44.4031 46.8703Z" fill="#165D31"/>
</g>
</g>
<defs>
<clipPath id="clip0_10790_12231">
<rect width="64" height="64" rx="32" fill="white"/>
</clipPath>
</defs>
</svg>
