<svg width="64" height="64" viewBox="0 0 64 64" fill="none" xmlns="http://www.w3.org/2000/svg">
<g clip-path="url(#clip0_10790_12748)">
<mask id="mask0_10790_12748" style="mask-type:luminance" maskUnits="userSpaceOnUse" x="0" y="0" width="64" height="65">
<path d="M0.00195312 0H63.9965V64.0036H0.00195312V0Z" fill="white"/>
</mask>
<g mask="url(#mask0_10790_12748)">
<path fill-rule="evenodd" clip-rule="evenodd" d="M-2.5 0H93.5009V64.0036H-2.5V0Z" fill="white"/>
<path fill-rule="evenodd" clip-rule="evenodd" d="M-2.5 0H93.5009V31.9973H-2.5V0Z" fill="#DF0000"/>
<path fill-rule="evenodd" clip-rule="evenodd" d="M19.6445 5.36439C17.1182 5.90569 14.8551 7.29985 13.2353 9.31272C11.6155 11.3256 10.7377 13.8345 10.7494 16.4182C10.7611 19.0018 11.6614 21.5028 13.2993 23.5009C14.9372 25.4991 17.2128 26.8728 19.7439 27.3913C18.0396 27.89 16.2428 27.986 14.4952 27.6715C12.7476 27.357 11.0969 26.6407 9.67351 25.5791C8.25007 24.5176 7.09278 23.1397 6.29293 21.5544C5.49309 19.969 5.07258 18.2195 5.06457 16.4438C5.05656 14.6681 5.46128 12.9149 6.24679 11.3224C7.0323 9.72988 8.17712 8.34169 9.59092 7.26732C11.0047 6.19296 12.6488 5.46182 14.3936 5.13158C16.1383 4.80134 17.9359 4.88104 19.6445 5.36439Z" fill="white"/>
<path fill-rule="evenodd" clip-rule="evenodd" d="M15.742 14.6667L14.0352 13.4204L16.1575 13.4023L16.8077 11.3884L17.485 13.4023H19.5983L17.9005 14.6667L18.5507 16.6806L16.8258 15.4433L15.1099 16.6896L15.742 14.6667ZM18.0901 21.6116L16.3742 20.3653L18.4965 20.3472L19.1558 18.3333L19.8241 20.3382H21.9464L20.2305 21.6026L20.8898 23.6165L19.1739 22.3883L17.458 23.6346L18.0901 21.6116ZM25.884 21.5574L24.1681 20.3111L26.2814 20.293L26.9406 18.2791L27.6089 20.293H29.7403L28.0334 21.5574L28.6927 23.5713L26.9677 22.3341L25.2518 23.5804L25.884 21.5574ZM28.205 14.6757L26.4891 13.4294L28.6114 13.4113L29.2616 11.3974L29.939 13.4023H32.0522L30.3544 14.6667L31.0046 16.6806L29.2797 15.4524L27.5638 16.6987L28.205 14.6757ZM22.0367 10.115L20.3208 8.86867L22.4431 8.85061L23.1024 6.83667L23.7707 8.85061H25.893L24.1771 10.115L24.8364 12.1199L23.1205 10.8916L21.4046 12.1379L22.0367 10.115Z" fill="white"/>
</g>
</g>
<defs>
<clipPath id="clip0_10790_12748">
<rect width="64" height="64" rx="32" fill="white"/>
</clipPath>
</defs>
</svg>
