<svg width="64" height="64" viewBox="0 0 64 64" fill="none" xmlns="http://www.w3.org/2000/svg">
<g clip-path="url(#clip0_10790_12757)">
<path d="M0 0H64V64H0V0Z" fill="#EE1C25"/>
<path d="M0 0H64V42.6625H0V0Z" fill="#0B4EA2"/>
<path d="M0 0H64V21.3375H0V0Z" fill="white"/>
<path d="M25.4004 49.4375C19.6629 46.6875 11.4629 41.1875 11.4629 30.3375C11.4629 19.4875 11.9754 14.5625 11.9754 14.5625H38.8254C38.8254 14.5625 39.3504 19.4875 39.3504 30.3375C39.3504 41.1875 31.1254 46.675 25.4004 49.4375Z" fill="white"/>
<path d="M25.4008 48C20.1383 45.4625 12.6133 40.4375 12.6133 30.475C12.6133 20.5125 13.0883 16 13.0883 16H37.7133C37.7133 16 38.1883 20.525 38.1883 30.475C38.1883 40.425 30.6633 45.475 25.4008 48Z" fill="#EE1C25"/>
<path d="M26.5254 27.8751C27.9504 27.9001 30.7379 27.9501 33.2129 27.1251C33.2129 27.1251 33.1379 28.0001 33.1379 29.0376C33.1379 30.0751 33.2129 30.9501 33.2129 30.9501C31.0369 30.3506 28.7801 30.0975 26.5254 30.2001V35.7001H24.2754V30.2001C22.0207 30.0975 19.7639 30.3506 17.5879 30.9501C17.5879 30.9501 17.6629 30.0751 17.6629 29.0376C17.6629 28.0001 17.5879 27.1251 17.5879 27.1251C20.0754 27.9501 22.8504 27.9001 24.2754 27.8751V24.4126C22.4826 24.3687 20.6952 24.6264 18.9879 25.1751C18.9879 25.1751 19.0504 24.3001 19.0504 23.2626C19.0504 22.2251 18.9879 21.3376 18.9879 21.3376C21.1129 22.0501 22.9754 22.1126 24.2629 22.0876C24.2004 19.9126 23.5629 17.1626 23.5629 17.1626C23.5629 17.1626 24.8754 17.2626 25.4004 17.2626C25.9254 17.2626 27.2379 17.1626 27.2379 17.1626C27.2379 17.1626 26.6004 19.9126 26.5254 22.1001C28.3177 22.1529 30.1059 21.8993 31.8129 21.3501C31.8129 21.3501 31.7504 22.2251 31.7504 23.2626C31.7504 24.3001 31.8129 25.1751 31.8129 25.1751C29.6879 24.4626 27.8254 24.4126 26.5254 24.4251V27.8751Z" fill="white"/>
<path d="M25.4004 35.1001C22.7504 35.1001 21.3254 38.7751 21.3254 38.7751C21.3254 38.7751 20.5379 37.0251 18.3754 37.0251C16.9129 37.0251 15.8379 38.3376 15.1504 39.5501C17.8129 43.7751 22.0629 46.3876 25.4004 48.0001C28.7379 46.3876 32.9879 43.7751 35.6504 39.5376C34.9629 38.3376 33.8879 37.0376 32.4254 37.0376C30.2629 37.0376 29.4754 38.7876 29.4754 38.7876C29.4754 38.7876 28.0504 35.1001 25.4004 35.1001Z" fill="#0B4EA2"/>
</g>
<defs>
<clipPath id="clip0_10790_12757">
<rect width="64" height="64" rx="32" fill="white"/>
</clipPath>
</defs>
</svg>
