<svg width="64" height="64" viewBox="0 0 64 64" fill="none" xmlns="http://www.w3.org/2000/svg">
<g clip-path="url(#clip0_10790_12765)">
<mask id="mask0_10790_12765" style="mask-type:luminance" maskUnits="userSpaceOnUse" x="-1" y="0" width="65" height="64">
<path d="M-0.00390625 0H63.9924V63.9963H-0.00390625V0Z" fill="white"/>
</mask>
<g mask="url(#mask0_10790_12765)">
<path fill-rule="evenodd" clip-rule="evenodd" d="M-7.75 0H120.255V63.9963H-7.75V0Z" fill="white"/>
<path fill-rule="evenodd" clip-rule="evenodd" d="M-7.75 42.6729H120.255V63.9964H-7.75V42.6729Z" fill="#D50000"/>
<path fill-rule="evenodd" clip-rule="evenodd" d="M-7.75 21.3364H120.255V42.6728H-7.75V21.3364Z" fill="#0000BF"/>
<path fill-rule="evenodd" clip-rule="evenodd" d="M28.5399 11.6205C28.038 19.3289 27.7549 23.5498 26.5838 25.5059C25.3098 27.6035 24.0744 29.1348 19.1199 30.9879C14.1783 29.1348 12.9429 27.6035 11.6689 25.5059C10.5108 23.5498 10.2148 19.3289 9.71289 11.6205L10.4464 11.376C11.9134 10.9256 13.0202 10.5652 13.8309 10.4108C14.9891 10.1534 15.98 9.88319 19.1071 9.81885C22.2342 9.87032 23.2251 10.1663 24.3833 10.4108C25.2069 10.5781 26.3522 10.9256 27.8064 11.376L28.5399 11.6205Z" fill="#D50000"/>
<path fill-rule="evenodd" clip-rule="evenodd" d="M27.8201 11.363C27.3439 19.0585 26.9579 22.5846 26.3273 24.2704C25.1305 27.1787 23.2259 28.7744 19.1208 30.2801C15.0285 28.7616 13.124 27.1787 11.9143 24.2704C11.2966 22.5846 10.8977 19.0714 10.4473 11.363C11.8886 10.9126 13.021 10.5652 13.8317 10.3979C14.9899 10.1534 15.9808 9.85738 19.1079 9.80591C22.235 9.85738 23.2388 10.1534 24.397 10.3979C25.2206 10.5652 26.3659 10.9126 27.8201 11.363Z" fill="#0000BF"/>
<path fill-rule="evenodd" clip-rule="evenodd" d="M19.1201 13.718L19.3132 14.1942L20.1754 14.31L19.622 14.6446L20.1625 15.0049L19.3775 15.1336L19.133 15.5582L18.8756 15.1207L18.1035 15.0178L18.6183 14.6446L18.1035 14.31L18.9271 14.1813L19.1201 13.718Z" fill="#FFDF00"/>
<path fill-rule="evenodd" clip-rule="evenodd" d="M26.0308 22.4561L25.5547 22.07L25.2072 21.5038L24.538 20.9118L24.1777 20.3198L23.5085 19.715L23.174 19.1231L22.8136 18.8271L22.5691 18.6083L21.9643 19.1359L21.6297 19.7279L21.205 20.1011L20.7546 19.7408L20.4072 19.1359L19.1203 16.8582L17.8334 19.1359L17.4988 19.7408L17.0356 20.1011L16.6238 19.715L16.2892 19.1359L15.6844 18.6083L15.4398 18.8271L15.0795 19.1231L14.7449 19.715L14.0758 20.3198L13.7154 20.9118L13.0334 21.5038L12.6988 22.07L12.2227 22.4561C12.4974 24.1726 13.3082 25.7582 14.539 26.9859C15.3626 27.7709 17.0484 28.839 19.1074 29.5467C20.7984 29.0113 22.3619 28.1354 23.7016 26.973C24.9347 25.7505 25.75 24.1696 26.0308 22.4561Z" fill="white"/>
<path fill-rule="evenodd" clip-rule="evenodd" d="M21.1796 10.488L21.3726 10.9512L22.2348 11.0799L21.6814 11.4016L22.2219 11.7748L21.4369 11.9035L21.1924 12.3282L20.935 11.8907L20.1758 11.7877L20.6905 11.4016L20.1629 11.0799L20.9865 10.9512L21.1796 10.488ZM17.0616 10.488L17.2546 10.9384L18.1168 11.0671L17.5634 11.4016L18.1039 11.762L17.3189 11.8907L17.0744 12.3153L16.8042 11.8778L16.0578 11.7748L16.5725 11.4016L16.0449 11.0671L16.8685 10.9384L17.0616 10.4751V10.488Z" fill="#FFDF00"/>
<path fill-rule="evenodd" clip-rule="evenodd" d="M24.9614 25.3773H24.0349L23.1726 25.3129L22.1303 24.7982L20.9464 24.811L19.9297 25.3129L19.1319 25.3773L18.3211 25.3129L17.3045 24.811H16.1334L15.0911 25.3258L14.2289 25.3773H13.2766L12.8262 24.6051L12.839 24.5794L14.2417 24.811L15.0911 24.7467L16.1334 24.2319H17.3174L18.3469 24.7467L19.1447 24.811L19.9426 24.7338L20.9721 24.2448H22.1303L23.1855 24.7467L24.0477 24.811L25.3989 24.5665L25.4247 24.6051L24.9614 25.3773ZM14.1517 26.574L15.0782 26.5097L16.1206 25.995H17.2916L18.3211 26.4968L19.119 26.574L19.9169 26.4968L20.9464 25.995H22.1174L23.1598 26.5097L24.0992 26.574L24.704 25.8277L24.6783 25.8019L24.0349 25.995L23.1726 25.9306L22.1303 25.4159H20.9592L19.9297 25.9306L19.1319 25.995L18.334 25.9306L17.3045 25.4159H16.1334L15.0911 25.9306L14.2289 25.995L13.5854 25.8405V25.8663L14.1517 26.574Z" fill="#0000BF"/>
</g>
</g>
<defs>
<clipPath id="clip0_10790_12765">
<rect width="64" height="64" rx="32" fill="white"/>
</clipPath>
</defs>
</svg>
