<svg width="64" height="64" viewBox="0 0 64 64" fill="none" xmlns="http://www.w3.org/2000/svg">
<path d="M60.4 22.4998L52.2 20.2998L11.7 43.6998L9.5 51.8998C13.3 56.1998 18.3 59.3998 24.2 60.9998C40.2 65.2998 56.7 55.7998 60.9 39.7998C62.6 33.8998 62.3 27.8998 60.4 22.4998Z" fill="#699635"/>
<path d="M39.7996 3.00018C23.7996 -1.29982 7.2996 8.20018 2.9996 24.2002C1.3996 30.1002 1.6996 36.1002 3.4996 41.5002L7.1996 42.5002L11.6996 43.7002L52.1996 20.3002L53.3996 15.8002L54.3996 12.1002C50.6996 7.80018 45.6996 4.60018 39.7996 3.00018Z" fill="#2A5F9E"/>
<path d="M3.5 41.5001C4.2 43.4001 5 45.2001 6 47.0001C7 48.7001 8.2 50.4001 9.5 51.9001L60.4 22.5001C59.1 18.7001 57.1 15.1001 54.4 12.1001L3.5 41.5001Z" fill="#FFE62E"/>
<path d="M19.0008 20.5001L21.0008 21.9001L20.2008 19.7001L22.2008 18.3001H19.8008L19.0008 16.1001L18.2008 18.3001H15.8008L17.8008 19.7001L17.0008 21.9001L19.0008 20.5001Z" fill="white"/>
<path d="M13.6004 14.7999L15.6004 16.0999L14.8004 13.8999L16.8004 12.5999H14.4004L13.6004 10.3999L12.8004 12.5999H10.4004L12.4004 13.8999L11.6004 16.0999L13.6004 14.7999Z" fill="white"/>
<path d="M24.3996 14.7999L26.3996 16.0999L25.5996 13.8999L27.5996 12.5999H25.1996L24.3996 10.3999L23.5996 12.5999H21.0996L23.0996 13.8999L22.3996 16.0999L24.3996 14.7999Z" fill="white"/>
<path d="M13.6004 26.2999L15.6004 27.5999L14.8004 25.3999L16.8004 24.0999H14.4004L13.6004 21.8999L12.8004 24.0999H10.4004L12.4004 25.3999L11.6004 27.5999L13.6004 26.2999Z" fill="white"/>
<path d="M24.3996 26.2999L26.3996 27.5999L25.5996 25.3999L27.5996 24.0999H25.1996L24.3996 21.8999L23.5996 24.0999H21.0996L23.0996 25.3999L22.3996 27.5999L24.3996 26.2999Z" fill="white"/>
</svg>
