<svg width="64" height="64" viewBox="0 0 64 64" fill="none" xmlns="http://www.w3.org/2000/svg">
<g clip-path="url(#clip0_10790_12822)">
<path fill-rule="evenodd" clip-rule="evenodd" d="M0 0H64V64H0V0Z" fill="white"/>
<path fill-rule="evenodd" clip-rule="evenodd" d="M2.74609 20.9434L10.5486 9.244L12.4985 10.5444L4.69599 22.2438L2.74609 20.9434ZM5.67093 22.894L13.4734 11.1946L15.4233 12.495L7.62082 24.1944L5.67093 22.894ZM8.59577 24.8446L16.3983 13.1453L18.3482 14.4457L10.5457 26.145L8.59577 24.8446Z" fill="#000001"/>
<path fill-rule="evenodd" clip-rule="evenodd" d="M45.6445 49.5525L53.447 37.8531L55.3969 39.1536L47.5944 50.8529L45.6445 49.5525ZM48.5694 51.5031L56.3719 39.8038L58.3218 41.1042L50.5193 52.8035L48.5694 51.5031ZM51.4942 53.4537L59.2967 41.7544L61.2466 43.0548L53.4441 54.7542L51.4942 53.4537Z" fill="#000001"/>
<path fill-rule="evenodd" clip-rule="evenodd" d="M48.5703 43.0525L58.3198 49.5546L48.5703 43.0525Z" fill="black"/>
<path d="M48.5703 43.0525L58.3198 49.5546" stroke="white" stroke-width="1.17188"/>
<path fill-rule="evenodd" clip-rule="evenodd" d="M20.2969 24.1965C22.3662 21.0937 25.5834 18.9399 29.2407 18.2091C32.898 17.4783 36.6959 18.2303 39.7987 20.2997C42.9016 22.369 45.0553 25.5862 45.7861 29.2435C46.5169 32.9008 45.7649 36.6987 43.6956 39.8015L20.2969 24.1965Z" fill="#CD2E3A"/>
<path fill-rule="evenodd" clip-rule="evenodd" d="M20.2966 24.1966C18.2273 27.2995 17.4753 31.0973 18.2061 34.7546C18.9369 38.4119 21.0906 41.6291 24.1935 43.6985C27.2964 45.7678 31.0942 46.5198 34.7515 45.789C38.4088 45.0582 41.626 42.9045 43.6954 39.8016C44.73 38.2502 45.106 36.3513 44.7406 34.5226C44.3752 32.694 43.2984 31.0854 41.7469 30.0507C40.1955 29.016 38.2966 28.64 36.4679 29.0054C34.6393 29.3708 33.0307 30.4477 31.996 31.9991L20.2966 24.1966Z" fill="#0047A0"/>
<path d="M31.9971 31.999C34.1517 28.7683 33.2793 24.4026 30.0487 22.248C26.818 20.0934 22.4523 20.9658 20.2977 24.1965C18.1431 27.4272 19.0155 31.7928 22.2462 33.9474C25.4768 36.102 29.8425 35.2297 31.9971 31.999Z" fill="#CD2E3A"/>
<path fill-rule="evenodd" clip-rule="evenodd" d="M10.5566 54.7542L2.75414 43.0548L4.70403 41.7544L12.5065 53.4537L10.5566 54.7542ZM13.4815 52.8035L5.67898 41.1042L7.62887 39.8038L15.4314 51.5031L13.4815 52.8035ZM16.4063 50.8529L8.60382 39.1535L10.5537 37.8531L18.3562 49.5525L16.4063 50.8529Z" fill="#000001"/>
<path fill-rule="evenodd" clip-rule="evenodd" d="M53.4551 26.145L45.6526 14.4457L47.6025 13.1452L55.405 24.8446L53.4551 26.145ZM56.3799 24.1944L48.5774 12.495L50.5273 11.1946L58.3298 22.894L56.3799 24.1944ZM59.3048 22.2438L51.5023 10.5444L53.4521 9.244L61.2546 20.9434L59.3048 22.2438Z" fill="#000001"/>
<path fill-rule="evenodd" clip-rule="evenodd" d="M9.0918 47.2791L12.0166 45.3284L9.0918 47.2791ZM48.5771 20.9456L51.9894 18.6699L48.5771 20.9456ZM54.9143 16.7193L57.8391 14.7686L54.9143 16.7193Z" fill="black"/>
<path d="M9.0918 47.2791L12.0166 45.3284M48.5771 20.9456L51.9894 18.6699M54.9143 16.7193L57.8391 14.7686" stroke="white" stroke-width="1.17188"/>
</g>
<defs>
<clipPath id="clip0_10790_12822">
<rect width="64" height="64" rx="32" fill="white"/>
</clipPath>
</defs>
</svg>
