<svg width="64" height="64" viewBox="0 0 64 64" fill="none" xmlns="http://www.w3.org/2000/svg">
<g clip-path="url(#clip0_10790_13405)">
<path d="M0 0H64V64H0V0Z" fill="#FFB700"/>
<path d="M2.66211 32.0001L11.4246 2.6626H20.1871V61.3376H11.4371L2.66211 32.0001Z" fill="#FF5B00"/>
<path d="M2.66211 2.6626H11.4246V61.3376H2.67461L2.66211 2.6626Z" fill="#005641"/>
<path d="M22.8379 2.6626H61.3379V61.3376H22.8379V2.6626Z" fill="#8D2029"/>
<path d="M57.9258 56.8625C57.9258 56.8625 58.2883 57.6001 58.6883 57.9001C59.2883 58.3376 60.5008 58.3126 61.0133 58.8251C61.6383 59.4501 60.9633 60.2501 60.9758 60.3251L61.0133 60.75C61.0133 60.75 60.5883 60.75 60.4133 60.7875C60.1508 60.825 60.0383 61.0376 59.5508 61.0126C58.3133 60.9251 58.3633 59.8125 58.3008 58.8625C58.2383 58.4875 58.0883 58.025 58.0133 57.6625C57.9383 57.35 57.9258 56.8625 57.9258 56.8625Z" fill="#FFB700" stroke="black" stroke-width="0.1125"/>
<path d="M26.6133 56.8625C26.6133 56.8625 26.2508 57.6001 25.8508 57.9001C25.2508 58.3376 24.0383 58.3126 23.5258 58.8251C22.9008 59.4501 23.5758 60.2501 23.5633 60.3251L23.5258 60.75C23.5258 60.75 23.9508 60.75 24.1258 60.7875C24.3883 60.825 24.5008 61.0376 24.9883 61.0126C26.2258 60.9251 26.1758 59.8125 26.2383 58.8625C26.3008 58.4875 26.4508 58.025 26.5258 57.6625C26.6008 57.35 26.6133 56.8625 26.6133 56.8625Z" fill="#FFB700" stroke="black" stroke-width="0.1125"/>
<path d="M57.9258 7.13745C57.9258 7.13745 58.2883 6.39995 58.6883 6.09995C59.2883 5.66245 60.5008 5.68745 61.0133 5.17495C61.6383 4.54995 60.9633 3.74995 60.9758 3.67495L61.0133 3.24995C61.0133 3.24995 60.5883 3.24995 60.4133 3.21245C60.1508 3.17495 60.0383 2.96245 59.5508 2.98745C58.3133 3.07495 58.3633 4.18745 58.3008 5.13745C58.2383 5.51245 58.0883 5.97495 58.0133 6.33745C57.9383 6.64995 57.9258 7.13745 57.9258 7.13745Z" fill="#FFB700" stroke="black" stroke-width="0.1125"/>
<path d="M26.5996 7.13745C26.5996 7.13745 26.2371 6.39995 25.8371 6.09995C25.2371 5.66245 24.0246 5.68745 23.5121 5.17495C22.8871 4.54995 23.5621 3.74995 23.5496 3.67495L23.5121 3.24995C23.5121 3.24995 23.9371 3.24995 24.1121 3.21245C24.3746 3.17495 24.4871 2.96245 24.9746 2.98745C26.2121 3.07495 26.1621 4.18745 26.2246 5.13745C26.2871 5.51245 26.4371 5.97495 26.5121 6.33745C26.5871 6.64995 26.5996 7.13745 26.5996 7.13745Z" fill="#FFB700" stroke="black" stroke-width="0.1125"/>
<path d="M36.3491 41.98L36.5791 41.84L36.6791 41.98C36.8091 42.16 37.1791 42.15 37.4191 41.98L37.6091 41.83L37.7691 41.97C37.9691 42.16 38.3491 42.16 38.5991 41.97C38.7691 41.85 38.7991 41.84 38.8991 41.94C38.9691 42 39.1691 42.06 39.3391 42.09C39.6591 42.13 39.6591 42.13 39.8391 41.85C39.9991 41.62 40.0191 41.53 39.9891 41.3C39.9612 41.1243 39.9411 40.9475 39.9291 40.77C39.9091 40.51 39.9191 40.51 40.2891 40.37C40.4728 40.3136 40.653 40.2468 40.8291 40.17C40.9791 40.08 41.3991 39.59 41.3991 39.49C41.3991 39.47 41.2391 39.43 41.0391 39.41C40.2391 39.31 40.1091 38.89 40.6291 38.11C41.4591 36.81 41.9691 35.56 41.9691 34.77C41.9691 34.41 41.9991 34.29 42.0391 34.37C42.2291 34.68 41.8891 36.01 41.3891 36.97L41.1891 37.35L41.3791 37.31C41.4791 37.28 42.1191 37.01 42.7791 36.71C44.5991 35.89 45.2191 35.73 46.3991 35.78C47.3891 35.82 47.7991 36.01 48.4991 36.74C48.8691 37.14 49.2291 37.41 49.8791 37.82C51.2591 38.68 51.3191 38.76 51.3891 39.78C51.4591 40.81 51.4191 40.87 50.6391 41.04C49.9691 41.19 49.5491 41.5 49.4391 41.94C49.3791 42.16 49.5091 42.17 49.8391 41.95L50.0891 41.79L50.1991 41.95C50.3491 42.16 50.6491 42.16 50.8991 41.95L51.0991 41.8L51.2991 41.95C51.5991 42.2 51.9991 42.14 52.1191 41.83C52.1391 41.78 52.1991 41.79 52.3191 41.9C52.5491 42.1 53.1191 42.18 53.1791 42.02C53.1991 41.96 53.1591 41.82 53.0791 41.7C52.7491 41.2 52.6391 40.97 52.6391 40.7C52.6391 40.32 52.7391 40.13 53.1791 39.83C53.6991 39.45 53.8591 38.97 53.4591 38.97C53.2191 38.97 52.9691 38.75 52.8091 38.4C52.4891 37.68 52.5591 36.88 53.0391 35.54C53.4072 34.7516 53.5918 33.89 53.5791 33.02C53.5791 32.28 53.5591 32.16 53.3991 31.75C53.274 31.465 53.1198 31.1935 52.9391 30.94L52.6591 30.57L53.0091 30.27C54.0891 29.38 53.8691 27.92 52.5691 27.36C52.1691 27.18 52.0691 27.17 51.3691 27.17C50.9691 27.17 50.3191 27.23 49.9691 27.3C49.4993 27.3744 49.0248 27.4145 48.5491 27.42C47.8691 27.42 47.7491 27.4 47.4891 27.26C47.2191 27.12 47.1691 27.05 47.1191 26.71C47.1143 26.678 47.1018 26.6476 47.0826 26.6214C47.0635 26.5953 47.0383 26.5742 47.0091 26.56C46.9091 26.53 46.4891 26.9 46.4291 27.06C46.3891 27.15 46.3691 27.14 46.2791 27.03C46.1943 26.921 46.1269 26.7996 46.0791 26.67C45.9791 26.34 46.1091 26.1 46.4991 25.91L46.7991 25.77L46.6191 25.66C46.2591 25.43 45.6391 25.59 45.4191 25.96C45.3491 26.06 45.2791 26.16 45.2591 26.16C45.2391 26.16 45.1191 26.06 44.9991 25.93C44.5291 25.47 44.6891 24.79 45.3191 24.59C45.6491 24.48 45.9491 24.56 46.0091 24.79C46.1091 25.12 46.3891 24.68 46.3391 24.27C46.3091 24 46.3091 23.99 46.4991 23.99C46.7591 23.99 47.2991 24.33 47.4791 24.59C47.6791 24.9 47.6591 25.39 47.4391 25.75L47.2691 26.03L47.4991 25.99C47.8191 25.92 48.1391 25.72 48.2991 25.47C48.3835 25.3108 48.4308 25.1346 48.4378 24.9546C48.4447 24.7745 48.411 24.5952 48.3391 24.43C48.1891 24.16 48.2091 24.12 48.4291 24.21C48.7891 24.36 48.9891 24.53 49.1291 24.82C49.2691 25.08 49.2791 25.14 49.2091 25.42C49.1613 25.5905 49.087 25.7524 48.9891 25.9C48.8691 26.06 48.8591 26.09 48.9591 26.09C49.1391 26.09 49.4991 25.92 49.6291 25.79C49.6991 25.71 49.7991 25.54 49.8491 25.39L49.9491 25.14L50.0491 25.34C50.1991 25.61 50.4991 25.86 50.8591 26.02C51.2491 26.18 51.4091 26.19 51.2091 26.04C51.0691 25.94 50.8091 25.19 50.8991 25.12C51.3307 25.3617 51.7248 25.6649 52.0691 26.02C52.6391 26.53 52.9991 26.7 53.5191 26.7C54.1891 26.7 54.5791 26.12 54.2791 25.57C54.1091 25.25 53.7191 25.2 53.4791 25.47C53.3791 25.6 53.3491 25.7 53.3791 25.84C53.4191 26 53.4091 26.02 53.2591 26.02C53.0591 26.02 52.6791 25.77 51.9991 25.2C51.0526 24.3854 49.9646 23.7516 48.7891 23.33C47.9928 23.146 47.1705 23.102 46.3591 23.2C45.7191 23.32 44.9591 23.69 44.5391 24.08C43.8091 24.78 43.7991 25.71 44.5091 26.56L44.7091 26.8L44.5791 27.02C44.4813 27.1776 44.4329 27.3608 44.44 27.5461C44.4472 27.7315 44.5095 27.9104 44.6191 28.06C44.7191 28.2 44.8191 28.31 44.8491 28.31C44.8691 28.31 44.8891 28.22 44.8991 28.11C44.9191 27.84 45.0391 27.66 45.2391 27.59C45.4191 27.52 45.5391 27.56 46.3591 27.89C47.2291 28.23 48.6591 28.25 50.1791 27.95C50.8379 27.7979 51.5235 27.8047 52.1791 27.97C52.8991 28.27 53.0591 29.04 52.5391 29.62C52.3091 29.88 52.0991 29.98 51.3691 30.18C50.7336 30.3476 50.0729 30.3984 49.4191 30.33C48.3391 30.32 47.9491 30.34 47.5191 30.43C47.0291 30.53 46.7391 30.54 45.3391 30.51L43.7091 30.47L43.8891 30.61C43.9855 30.6956 44.0893 30.7726 44.1991 30.84C44.3291 30.91 44.3191 30.92 44.1391 30.99C44.0391 31.03 43.7991 31.06 43.6091 31.06H43.2791L43.2391 31.34C43.2122 31.472 43.2122 31.608 43.2391 31.74C43.2791 31.84 43.2591 31.86 43.1591 31.82C43.0891 31.79 42.8991 31.74 42.7291 31.71C42.5576 31.6732 42.3901 31.6196 42.2291 31.55C42.0391 31.45 42.0191 31.45 41.9491 31.58C41.8891 31.68 41.3291 32.1 41.2491 32.1C41.213 31.8406 41.1389 31.5879 41.0291 31.35C40.9291 31.14 40.8391 30.9 40.8091 30.83C40.7791 30.72 40.7591 30.71 40.7091 30.8C40.6791 30.85 40.6391 31 40.6091 31.12C40.5741 31.282 40.5133 31.4373 40.4291 31.58L40.2791 31.8L40.1791 31.61C40.0791 31.41 39.9191 31.19 39.8591 31.19C39.8391 31.19 39.8091 31.25 39.7891 31.34C39.7391 31.5 39.3491 31.97 39.2491 31.97C39.2191 31.97 39.1891 31.84 39.1891 31.67C39.1891 31.52 39.1591 31.38 39.1191 31.38C39.0791 31.38 39.0491 31.43 39.0491 31.48C39.0491 31.6 38.7191 31.98 38.5991 31.98C38.5591 31.98 38.4791 32.02 38.4291 32.08C38.3091 32.21 38.2091 32.19 38.2591 32.04C38.2732 31.9119 38.2595 31.7824 38.2191 31.66L38.1191 31.34C38.0991 31.29 37.9791 31.31 37.7191 31.39C37.3191 31.52 37.1791 31.49 37.3891 31.33C37.4691 31.27 37.5891 31.06 37.6491 30.87C37.7191 30.67 37.8191 30.5 37.8691 30.48C37.9391 30.46 37.9391 30.48 37.8491 30.6C37.7913 30.6761 37.7534 30.7655 37.7391 30.86C37.7391 30.91 37.6891 31.04 37.6391 31.15C37.5791 31.25 37.5391 31.35 37.5491 31.36C37.5591 31.37 37.7191 31.31 37.8991 31.23L38.2191 31.07V31.21C38.2191 31.29 38.2591 31.49 38.3091 31.66L38.3991 31.96L38.6191 31.86C38.8391 31.76 39.0491 31.4 39.0491 31.11C39.0491 30.97 39.1291 30.99 39.1691 31.14C39.1691 31.18 39.2291 31.35 39.2691 31.51L39.3691 31.79L39.5191 31.61C39.6091 31.51 39.7091 31.31 39.7491 31.18C39.8291 30.94 39.9491 30.83 39.9491 31.01C39.9491 31.13 40.2891 31.59 40.3491 31.55C40.3891 31.53 40.4491 31.36 40.4991 31.17C40.5991 30.77 40.7491 30.51 40.8491 30.57C40.8891 30.59 40.8991 30.63 40.8791 30.67C40.8591 30.69 40.9391 30.95 41.0591 31.23C41.1461 31.4399 41.2328 31.6499 41.3191 31.86C41.3591 31.96 41.3991 31.96 41.6491 31.73C41.7991 31.59 41.9491 31.44 41.9591 31.39C41.9891 31.31 42.0191 31.32 42.1591 31.41C42.454 31.5658 42.777 31.661 43.1091 31.69C43.1291 31.67 43.1491 31.49 43.1491 31.29L43.1591 30.92L43.3591 30.96C43.4591 30.99 43.6891 30.99 43.8591 30.96L44.1591 30.92L43.8891 30.72C43.7391 30.62 43.5891 30.49 43.5491 30.43C43.5191 30.37 43.3791 30.31 43.2291 30.3C42.8191 30.26 42.0891 29.86 42.0891 29.66C42.0891 29.62 42.1891 29.69 42.3091 29.8C42.5891 30.05 42.9691 30.2 43.3091 30.2H43.5491L43.3991 30C43.2923 29.8449 43.2237 29.6667 43.1991 29.48C43.1791 29.18 43.1491 29.14 42.8391 28.93C42.6593 28.8027 42.4919 28.6588 42.3391 28.5L42.1691 28.31L42.0791 28.54C42.0291 28.67 41.9791 28.77 41.9491 28.77C41.9291 28.77 41.8291 28.69 41.7491 28.6C41.6929 28.5348 41.6251 28.4806 41.5491 28.44C41.5191 28.44 41.4491 28.56 41.3691 28.71L41.2291 28.98L41.1291 28.83C41.0401 28.7075 40.9396 28.5936 40.8291 28.49C40.7091 28.39 40.6591 28.31 40.6991 28.31C40.7391 28.31 40.8691 28.41 40.9991 28.54L41.2191 28.77L41.3191 28.6C41.3769 28.4822 41.3945 28.3487 41.3691 28.22C41.3291 28.04 41.3391 28.03 41.3991 28.15C41.4854 28.2629 41.5863 28.3638 41.6991 28.45L41.9191 28.63L42.0691 28.36C42.2191 28.08 42.2191 28.08 42.2791 28.25C42.3791 28.46 43.0291 29 43.5791 29.31C43.6791 29.36 43.6391 29.2 43.4791 28.81C43.4311 28.6819 43.4041 28.5468 43.3991 28.41C43.3991 28.23 43.3491 28.15 43.1191 27.97C42.9762 27.8786 42.8565 27.755 42.7697 27.6092C42.6829 27.4634 42.6313 27.2993 42.6191 27.13C42.5891 26.96 42.5291 26.78 42.4791 26.72C42.4191 26.62 42.3991 26.68 42.4191 26.98C42.4391 27.19 42.4091 27.45 42.3591 27.56L42.2791 27.76L42.2191 27.59C42.1791 27.5 42.0191 27.34 41.8691 27.24C41.7191 27.14 41.6091 27.04 41.6291 27.02C41.6491 27 41.8091 27.09 41.9791 27.22C42.2491 27.43 42.2991 27.45 42.3391 27.36C42.3791 27.26 42.3391 26.8 42.2591 26.48C42.2191 26.32 42.2191 26.32 42.4191 26.52C42.5591 26.66 42.6391 26.84 42.7091 27.14C42.7891 27.52 42.8291 27.59 43.1791 27.9C43.3891 28.09 43.5791 28.23 43.5891 28.22C43.6091 28.2 43.6291 27.72 43.6491 27.14C43.6891 26.03 43.6491 25.76 43.3791 25.42L43.2391 25.24L43.4591 25.01C43.7056 24.7743 43.8703 24.4659 43.9291 24.13L43.9691 23.86L43.7291 24.09C43.5291 24.28 43.4291 24.32 43.1991 24.32C42.9691 24.32 42.8791 24.28 42.7291 24.12C42.4955 23.8951 42.2106 23.7303 41.8991 23.64C41.7791 23.6 41.7391 23.62 41.7391 23.7C41.7391 23.76 41.6791 23.92 41.5991 24.07L41.4591 24.33L41.1591 24.03C40.9691 23.86 40.7591 23.71 40.5891 23.67C40.1791 23.57 40.1591 23.57 40.1591 23.88C40.1591 24.35 39.9591 24.44 39.5991 24.13C39.3191 23.89 39.0991 23.83 38.5691 23.9L38.1691 23.94L38.2391 24.12C38.2991 24.27 38.2891 24.34 38.1591 24.51C37.9491 24.79 37.6791 24.91 37.2591 24.91C37.0591 24.91 36.8191 24.95 36.7191 25C36.6191 25.05 36.3591 25.1 36.1491 25.12C35.9491 25.14 35.7191 25.18 35.6491 25.2C35.5491 25.24 35.5491 25.2 35.5791 24.98C35.6291 24.64 35.3791 24.38 35.0091 24.38C34.5191 24.38 34.2991 24.82 34.4891 25.4C34.528 25.5252 34.5614 25.652 34.5891 25.78C34.7205 26.0301 34.8968 26.2538 35.1091 26.44C35.3691 26.7 35.6091 26.97 35.6491 27.04C35.7296 27.1443 35.832 27.2296 35.9491 27.29L36.1691 27.41L36.1391 27.17C36.1091 26.91 36.1591 26.87 36.2991 27.06C36.3491 27.12 36.4791 27.23 36.5791 27.29C36.7491 27.39 36.7791 27.39 36.7791 27.31C36.7791 27.25 36.8091 27.12 36.8491 27.02L36.9191 26.84L37.0491 27.09C37.1191 27.23 37.3491 27.54 37.5591 27.79C37.9691 28.26 38.2291 28.79 38.0991 28.91C38.0391 28.96 37.8991 28.96 37.5991 28.9C37.3791 28.86 37.0991 28.83 36.9791 28.85C36.7491 28.88 36.7291 28.85 36.8791 28.67C37.0291 28.47 36.9991 28.44 36.6991 28.44C36.3491 28.44 35.4791 28.27 35.1391 28.14C34.8191 28.01 34.7391 28.04 34.6391 28.35L34.4691 28.91L34.3691 29.21L34.7291 29.18C34.9147 29.1606 35.0986 29.1272 35.2791 29.08C35.35 29.0564 35.4246 29.0462 35.4991 29.05C35.5191 29.06 35.4691 29.18 35.3991 29.32L35.2591 29.56L35.4791 29.52C35.5991 29.49 35.7791 29.43 35.8791 29.38C36.0591 29.3 36.0791 29.3 36.2191 29.53C36.3891 29.8 36.5191 29.79 36.5491 29.5C36.5791 29.2 36.6791 29.24 36.8691 29.64C37.0491 30.02 37.2291 30.16 37.2691 29.94C37.2791 29.86 37.3691 29.74 37.4791 29.66C37.6991 29.51 37.8591 29.56 37.9491 29.79C38.0491 30.04 37.8291 30.29 37.2091 30.67C36.635 30.987 36.1409 31.4312 35.7648 31.9685C35.3887 32.5058 35.1405 33.122 35.0391 33.77C34.8491 34.95 35.4391 36.17 36.5991 37.06C37.1591 37.48 38.0491 37.92 37.9891 37.76C37.7491 37.03 37.7591 35.66 37.9991 35.43C38.0391 35.39 38.0291 35.53 37.9691 35.74C37.7691 36.53 37.8691 37.15 38.3691 38.61C38.8091 39.93 38.7491 40.5 38.1091 40.87C37.9091 40.99 37.7791 41.01 37.2291 41C36.6291 41 36.5591 41 36.3691 41.16C36.1394 41.3947 35.989 41.6954 35.9391 42.02C35.9391 42.15 36.0791 42.13 36.3391 41.98H36.3491Z" fill="#FFB700" stroke="black" stroke-width="0.56"/>
<path d="M46.0498 41.9501L46.2998 41.7901L46.4698 41.9501C46.6898 42.1601 46.9598 42.1501 47.1698 41.9401C47.2698 41.8401 47.3498 41.7801 47.3598 41.7901L47.4498 41.9501C47.4998 42.0401 47.6098 42.0801 47.8098 42.1001C48.0398 42.1101 48.1098 42.1001 48.2098 41.9601L48.3098 41.7901L48.5598 41.9501C49.2398 42.3901 49.5998 41.9301 49.2898 41.0201C49.1398 40.5601 49.2298 40.3001 49.7198 39.7201C49.9298 39.4701 50.0998 39.2001 50.0998 39.1201C50.0998 39.0101 50.0598 38.9901 49.7798 39.0001C49.5198 39.0001 49.4398 38.9701 49.2998 38.8201C49.0698 38.5701 49.0898 38.2801 49.3398 37.9601L49.5398 37.7101L49.1798 37.4701C48.8924 37.2579 48.6247 37.0203 48.3798 36.7601C48.1615 36.5025 47.8946 36.2904 47.5944 36.136C47.2941 35.9816 46.9663 35.8878 46.6298 35.8601L46.1598 35.8101V36.1701C46.1598 36.6201 46.3798 37.0601 46.9598 37.8001C47.6198 38.6401 47.6598 38.7701 47.6898 39.8701L47.7198 40.8001L47.5198 40.9801C47.3498 41.1401 47.2798 41.1701 46.7198 41.2001C46.1898 41.2301 46.0698 41.2601 45.9198 41.4001C45.7443 41.5281 45.623 41.7172 45.5798 41.9301C45.5498 42.0801 45.5598 42.1101 45.6698 42.1101C45.7398 42.1101 45.9098 42.0401 46.0498 41.9501ZM31.8298 39.5501C31.8903 39.4613 31.9249 39.3575 31.9298 39.2501C31.9298 39.1501 31.9898 39.1101 32.2498 39.0701L32.5598 39.0301L32.3598 38.8601C32.1098 38.6601 32.0798 38.5101 32.2998 38.5101C32.5198 38.5101 32.8798 38.2901 32.9398 38.1201C32.9698 38.0401 32.9398 37.9401 32.8998 37.8901C32.7798 37.7501 32.5498 37.7701 32.5098 37.9301C32.4598 38.0901 32.3898 38.0901 32.2098 37.9301C31.9598 37.6801 31.9498 37.1701 32.2098 36.8701C32.3198 36.7301 32.3198 36.7301 32.1698 36.5801C32.0098 36.4201 31.8898 36.1201 31.9698 36.0401C31.9898 36.0201 32.1198 36.0401 32.2498 36.0901C32.4498 36.1501 32.5198 36.1501 32.5998 36.0901C32.8298 35.9001 32.5798 35.6601 32.1998 35.7201C32.0398 35.7401 31.9798 35.7201 31.9598 35.6401C31.9398 35.5801 31.8098 35.5001 31.6598 35.4601C31.3898 35.3901 31.3898 35.3901 31.3898 35.5801C31.3898 35.7801 31.2698 35.8201 31.0498 35.6901C30.8698 35.5901 30.6998 35.6701 30.6998 35.8601C30.6998 36.0401 30.8698 36.1201 31.1998 36.1001C31.4398 36.0901 31.4498 36.2701 31.2198 36.5301L31.0498 36.7301L31.1798 36.9201C31.3798 37.2001 31.3598 37.6701 31.1498 37.9101L30.9798 38.0901L30.8698 37.9401C30.7098 37.7401 30.4998 37.7501 30.4398 37.9701C30.4098 38.1101 30.4398 38.1701 30.6198 38.3301C30.7398 38.4301 30.9198 38.5101 31.0098 38.5101C31.2398 38.5101 31.2298 38.7001 30.9898 38.8801L30.7898 39.0301L31.0898 39.0701C31.2498 39.1001 31.3898 39.1401 31.3898 39.1701C31.3898 39.3001 31.5898 39.6901 31.6498 39.6901C31.6898 39.6901 31.7698 39.6201 31.8298 39.5401V39.5501Z" fill="#FFB700" stroke="black" stroke-width="0.56"/>
<path d="M35.6497 37.8901C35.9197 37.7901 36.4997 37.2901 36.4997 37.1801C36.4997 37.1401 36.3397 36.9601 36.1397 36.7801C35.7397 36.4201 35.2897 35.7901 35.1697 35.4301C35.1097 35.2301 34.8197 34.9101 33.9997 34.1101L32.9097 33.0601L32.5997 33.1401C32.4197 33.1801 32.2097 33.2201 32.1297 33.2201C31.9797 33.2201 31.9797 33.2201 32.1797 33.3801L32.3797 33.5401L32.6797 33.3801C32.9497 33.2201 32.9597 33.2201 32.9897 33.3501C33.0097 33.4201 32.9697 33.5501 32.8897 33.6401C32.8197 33.7301 32.7797 33.8401 32.7897 33.8701C32.8197 33.9001 32.7497 33.9701 32.6397 34.0301C32.4397 34.1301 32.2897 34.4601 32.4497 34.4601C32.5997 34.4601 32.9197 34.0601 32.8797 33.9301C32.8597 33.8601 32.8797 33.7901 32.8997 33.7701C33.0297 33.7001 33.0197 34.0101 32.8997 34.1701C32.8197 34.2501 32.7797 34.3501 32.7997 34.3901C32.8197 34.4201 32.7497 34.4901 32.6397 34.5501C32.4397 34.6501 32.2897 34.9801 32.4497 34.9801C32.6097 34.9801 32.9197 34.6001 32.8897 34.4601C32.8697 34.3901 32.8697 34.3101 32.8997 34.2901C32.9897 34.2501 33.0297 34.4901 32.9597 34.6101C32.9413 34.6438 32.9317 34.6816 32.9317 34.7201C32.9317 34.7585 32.9413 34.7963 32.9597 34.8301C33.0297 34.9601 32.9597 35.2001 32.8297 35.2801C32.7797 35.3101 32.8097 35.3801 32.9497 35.4801C33.1497 35.6201 33.1497 35.6401 33.1497 36.2801C33.1497 36.8201 33.1697 36.9601 33.2697 37.0501C33.3697 37.1501 33.3897 37.1501 33.3897 37.0501C33.3897 36.9501 33.5897 36.8101 33.7397 36.8101C33.7897 36.8101 34.0797 37.0601 34.3897 37.3601C34.6997 37.6601 35.0297 37.9301 35.1197 37.9401L35.3397 37.9801C35.3697 37.9801 35.5097 37.9501 35.6497 37.8801V37.8901ZM32.3197 35.2801C32.3197 35.1101 31.9597 34.9201 31.5297 34.8801C31.1797 34.8301 31.1797 34.8401 31.1797 35.0101C31.1797 35.1501 31.2297 35.2101 31.4797 35.3101C31.8597 35.4801 32.3197 35.4601 32.3197 35.2801Z" fill="#FFB700" stroke="black" stroke-width="0.56"/>
<path d="M32.7099 35.2601C32.8899 35.1001 32.9699 34.9201 32.8599 34.9201C32.7399 34.9201 32.4199 35.2001 32.4199 35.3201C32.4199 35.4801 32.4799 35.4701 32.7199 35.2601H32.7099ZM32.3399 34.7501C32.3499 34.6501 32.2899 34.5901 32.1099 34.5001C31.7099 34.3301 31.2499 34.2401 31.1399 34.3301C30.9299 34.5001 31.0699 34.7201 31.3999 34.7601C31.5399 34.7701 31.7199 34.8101 31.8099 34.8501C32.0699 34.9501 32.3099 34.9001 32.3399 34.7501ZM32.3399 34.2201C32.3599 34.0901 32.2699 34.0401 31.5399 33.7801C30.9899 33.5801 30.7499 33.6801 30.9299 34.0101C30.9899 34.1201 31.0899 34.1701 31.3199 34.2101C31.4899 34.2301 31.7199 34.2801 31.8299 34.3201C32.1299 34.4201 32.3099 34.3801 32.3299 34.2201H32.3399ZM32.6999 33.7301C32.8099 33.6201 32.8999 33.4901 32.8999 33.4301C32.8999 33.2801 32.4699 33.5601 32.4099 33.7601C32.3499 33.9901 32.4599 33.9801 32.7099 33.7301H32.6999ZM32.3399 33.7001C32.3599 33.5401 32.0999 33.4001 31.5799 33.2901C31.1899 33.2001 31.0199 33.2501 31.0499 33.4301C31.0699 33.5301 31.1999 33.6001 31.5499 33.7101C32.1399 33.8901 32.3099 33.8901 32.3399 33.7001ZM32.8399 32.9601C33.5199 32.6601 33.5699 31.9101 32.9399 31.7101C32.6799 31.6301 32.5199 31.6801 32.4199 31.8501C32.3399 31.9901 32.3899 32.2301 32.4899 32.2301C32.5299 32.2301 32.5599 32.2801 32.5599 32.3301C32.5599 32.6001 31.5399 32.7101 31.1199 32.5001C30.9699 32.4301 30.9199 32.2301 31.0299 32.2301C31.1299 32.2301 31.1899 32.0301 31.1399 31.9001C31.0799 31.7001 30.8799 31.6401 30.6099 31.7201C29.9799 31.8801 29.9999 32.6201 30.6399 32.9201C31.3479 33.18 32.1228 33.194 32.8399 32.9601Z" fill="#FFB700" stroke="black" stroke-width="0.56"/>
<path d="M32.4291 32.38C32.4691 32.34 32.4491 32.28 32.3891 32.24C32.2491 32.13 32.2591 31.96 32.4091 31.77C32.5291 31.63 32.5391 31.41 32.5791 29.26C32.6491 25.55 32.9291 22.76 33.2891 22.08C33.4391 21.82 33.4191 21.82 33.0391 22.08C32.5405 22.4273 32.138 22.8952 31.8691 23.44C31.2491 24.59 31.0391 26.14 31.0391 29.46C31.0391 31.34 31.0491 31.59 31.1591 31.76C31.2591 31.94 31.2591 32 31.1991 32.18C31.1491 32.29 31.1291 32.41 31.1491 32.43C31.2891 32.56 32.2891 32.53 32.4291 32.38ZM38.0391 28.84C38.0691 28.81 38.0191 28.64 37.9391 28.48C37.8191 28.22 37.7691 28.18 37.5991 28.18C36.7995 28.1105 36.0196 27.8935 35.2991 27.54C34.7891 27.31 34.5991 27.26 34.5491 27.32C34.3891 27.47 34.6491 27.82 35.0491 28.01C35.6377 28.2221 36.2543 28.3468 36.8791 28.38C37.1491 28.38 37.1591 28.38 36.9991 28.61L36.8991 28.77H37.1991L37.6991 28.83C37.9991 28.9 37.9991 28.9 38.0391 28.84Z" fill="#FFB700" stroke="black" stroke-width="0.56"/>
<path d="M41.1992 30.5099C41.1992 30.4099 40.9092 30.1599 40.6292 29.9899C40.3992 29.8599 40.3592 29.8499 40.3592 29.9599C40.3592 30.1199 40.2192 30.5299 40.1592 30.5299C40.1292 30.5299 40.0792 30.4499 40.0592 30.3599C40.0292 30.2599 39.9192 30.0599 39.8092 29.9299L39.6092 29.6799L39.4692 29.9099C39.3292 30.1299 39.0792 30.3399 38.9692 30.3399C38.9492 30.3399 38.9392 30.2199 38.9692 30.0899C38.9792 29.9299 38.9692 29.8099 38.9192 29.7899C38.8792 29.7599 38.8392 29.7699 38.8392 29.8099C38.8392 29.8899 38.4992 30.2699 38.4392 30.2699C38.3992 30.2699 38.3592 30.1699 38.3392 30.0299L38.2592 29.5499C38.2392 29.4299 38.2892 29.5099 38.3592 29.7499L38.5192 30.1599L38.6792 29.9099C38.7516 29.8066 38.8057 29.6916 38.8392 29.5699C38.8392 29.5199 38.8692 29.4999 38.9092 29.5199C38.9492 29.5399 38.9992 29.7099 39.0192 29.8899L39.0692 30.2299L39.2492 30.0299C39.3433 29.9296 39.4302 29.8226 39.5092 29.7099C39.5792 29.5899 39.5892 29.5899 39.7392 29.7099C39.8192 29.7899 39.9492 29.9599 40.0292 30.0999C40.1092 30.2399 40.1792 30.3399 40.1892 30.3299L40.2492 30.0099L40.2892 29.7099C40.2992 29.6599 40.8292 30.0099 41.0292 30.1799C41.1492 30.2899 41.2692 30.3699 41.2892 30.3499C41.3092 30.3299 41.3292 30.1699 41.3292 29.9799C41.3292 29.6999 41.2992 29.6199 41.1292 29.4699C40.9292 29.2899 40.9292 29.2899 40.8492 29.4199C40.7492 29.5899 40.6392 29.5899 40.6392 29.4199C40.6392 29.2999 40.2592 28.8299 40.1692 28.8299C40.1392 28.8299 40.0592 28.9299 39.9892 29.0599C39.9192 29.1899 39.8392 29.2899 39.8192 29.2899C39.7192 29.2899 39.1892 28.6899 39.1892 28.5899C39.1892 28.5099 39.2292 28.5299 39.3192 28.6699C39.4086 28.8013 39.5126 28.922 39.6292 29.0299C39.8292 29.2099 39.9092 29.1699 39.9892 28.8199C40.0192 28.7199 40.0592 28.6399 40.0892 28.6399C40.1692 28.6399 40.6292 29.1299 40.6892 29.2899L40.7592 29.4499L40.8092 29.2699C40.8692 29.0499 40.9392 29.0499 41.0392 29.2499C41.0792 29.3299 41.2792 29.5099 41.4792 29.6299L41.8492 29.8699L41.9192 29.6299C41.9592 29.4999 42.0192 29.4299 42.0392 29.4699C42.0792 29.5199 41.9792 29.9199 41.9092 29.9999C41.9092 30.0099 41.7792 29.9399 41.6492 29.8499L41.3992 29.6699V29.9899C41.3992 30.1599 41.3792 30.3699 41.3592 30.4499C41.3092 30.6099 41.1892 30.6499 41.1892 30.5099H41.1992ZM39.3492 27.9699C38.9092 27.6099 38.8492 27.5299 38.8492 27.3499L38.8592 27.1699L38.8892 27.3399C38.9092 27.4399 39.0292 27.5999 39.1692 27.7199L39.4292 27.9199L39.5792 27.7399C39.6692 27.6399 39.7392 27.5199 39.7392 27.4799C39.7392 27.3599 39.7592 27.3699 40.0592 27.6299C40.3192 27.8599 40.3292 27.8599 40.3592 27.7099C40.3892 27.6299 40.3792 27.4699 40.3592 27.3599C40.2592 27.0599 40.2792 27.0199 40.4092 27.1999L40.6492 27.4799C40.7492 27.5899 40.7592 27.5899 40.7992 27.4499C40.8292 27.3599 40.8492 27.2099 40.8492 27.1099V26.9199L41.0792 27.1899C41.3092 27.4499 41.3292 27.4599 41.3892 27.3299C41.4392 27.2599 41.4692 27.0899 41.4692 26.9599C41.4692 26.7799 41.4892 26.7399 41.5292 26.7999C41.6092 26.9199 41.5592 27.2199 41.4192 27.4799L41.3192 27.6799L41.1892 27.4699C41.0192 27.2099 40.9592 27.2099 40.8592 27.4899C40.7592 27.7599 40.6892 27.7799 40.5892 27.5699C40.5292 27.4399 40.5092 27.4599 40.4692 27.7399L40.4192 28.0399L40.1192 27.8099L39.8192 27.5799L39.6692 27.7299C39.5992 27.8199 39.5392 27.9299 39.5392 27.9699C39.5392 28.0699 39.4592 28.0699 39.3492 27.9699ZM43.2492 26.6099C43.0992 26.4699 42.9892 26.3299 43.0092 26.3099C43.0392 26.2799 43.0592 26.2699 43.0692 26.2899C43.166 26.3931 43.266 26.4931 43.3692 26.5899C43.7092 26.9499 43.6392 26.9599 43.2592 26.6099H43.2492ZM38.0492 26.0699C37.9092 25.8699 37.9192 25.7499 38.0992 25.5299C38.2192 25.3799 38.2792 25.3599 38.4992 25.3899C38.6492 25.3999 38.9592 25.5299 39.1892 25.6699C39.5216 25.8685 39.902 25.9722 40.2892 25.9699L40.1192 25.6899C39.8992 25.3599 39.8992 25.3199 40.1592 25.5199C40.4192 25.7299 40.7292 25.7899 41.4292 25.7699L41.7692 25.7599L41.5692 25.5599C41.2992 25.2899 41.3792 25.2599 41.6892 25.5299C41.9692 25.7799 41.9592 25.7999 41.3492 25.8599C41.0948 25.8856 40.838 25.8687 40.5892 25.8099C40.2492 25.7099 40.2292 25.7199 40.2992 25.8299C40.3392 25.8999 40.3992 25.9499 40.4292 25.9499C40.4692 25.9499 40.4992 25.9899 40.4992 26.0299C40.4992 26.1599 39.7592 26.0399 39.3992 25.8699C38.5992 25.4599 38.4992 25.4199 38.2992 25.4799C38.2459 25.5004 38.1973 25.5313 38.1561 25.5708C38.1149 25.6103 38.0819 25.6576 38.0592 25.7099C37.9292 26.0399 38.3992 26.2999 38.5892 26.0099C38.6492 25.9199 38.6392 25.8699 38.5392 25.7599C38.3992 25.6199 38.4192 25.5999 38.5992 25.6599C38.7292 25.7099 38.7392 26.0199 38.6192 26.1399C38.4892 26.2699 38.1692 26.2399 38.0492 26.0699Z" fill="#000001" stroke="black" stroke-width="0.56"/>
<path d="M41.2395 25.26C41.1395 25.16 41.2195 25.14 41.6695 25.13C42.2295 25.12 42.5695 25.03 42.9695 24.77C43.2895 24.57 43.3795 24.61 43.0695 24.82C42.7995 25.02 42.3695 25.16 41.9395 25.2L41.4295 25.27C41.3495 25.29 41.2595 25.28 41.2295 25.26H41.2395Z" fill="#000001" stroke="black" stroke-width="0.56"/>
<path d="M36.3491 41.98L36.5791 41.84L36.6791 41.98C36.8091 42.16 37.1791 42.15 37.4191 41.98L37.6091 41.83L37.7691 41.97C37.9691 42.16 38.3491 42.16 38.5991 41.97C38.7691 41.85 38.7991 41.84 38.8991 41.94C38.9691 42 39.1691 42.06 39.3391 42.09C39.6591 42.13 39.6591 42.13 39.8391 41.85C39.9991 41.62 40.0191 41.53 39.9891 41.3C39.9612 41.1243 39.9411 40.9475 39.9291 40.77C39.9091 40.51 39.9191 40.51 40.2891 40.37C40.4728 40.3136 40.653 40.2468 40.8291 40.17C40.9791 40.08 41.3991 39.59 41.3991 39.49C41.3991 39.47 41.2391 39.43 41.0391 39.41C40.2391 39.31 40.1091 38.89 40.6291 38.11C41.4591 36.81 41.9691 35.56 41.9691 34.77C41.9691 34.41 41.9991 34.29 42.0391 34.37C42.2291 34.68 41.8891 36.01 41.3891 36.97L41.1891 37.35L41.3791 37.31C41.4791 37.28 42.1191 37.01 42.7791 36.71C44.5991 35.89 45.2191 35.73 46.3991 35.78C47.3891 35.82 47.7991 36.01 48.4991 36.74C48.8691 37.14 49.2291 37.41 49.8791 37.82C51.2591 38.68 51.3191 38.76 51.3891 39.78C51.4591 40.81 51.4191 40.87 50.6391 41.04C49.9691 41.19 49.5491 41.5 49.4391 41.94C49.3791 42.16 49.5091 42.17 49.8391 41.95L50.0891 41.79L50.1991 41.95C50.3491 42.16 50.6491 42.16 50.8991 41.95L51.0991 41.8L51.2991 41.95C51.5991 42.2 51.9991 42.14 52.1191 41.83C52.1391 41.78 52.1991 41.79 52.3191 41.9C52.5491 42.1 53.1191 42.18 53.1791 42.02C53.1991 41.96 53.1591 41.82 53.0791 41.7C52.7491 41.2 52.6391 40.97 52.6391 40.7C52.6391 40.32 52.7391 40.13 53.1791 39.83C53.6991 39.45 53.8591 38.97 53.4591 38.97C53.2191 38.97 52.9691 38.75 52.8091 38.4C52.4891 37.68 52.5591 36.88 53.0391 35.54C53.4072 34.7516 53.5918 33.89 53.5791 33.02C53.5791 32.28 53.5591 32.16 53.3991 31.75C53.274 31.465 53.1198 31.1935 52.9391 30.94L52.6591 30.57L53.0091 30.27C54.0891 29.38 53.8691 27.92 52.5691 27.36C52.1691 27.18 52.0691 27.17 51.3691 27.17C50.9691 27.17 50.3191 27.23 49.9691 27.3C49.4993 27.3744 49.0248 27.4145 48.5491 27.42C47.8691 27.42 47.7491 27.4 47.4891 27.26C47.2191 27.12 47.1691 27.05 47.1191 26.71C47.1143 26.678 47.1018 26.6476 47.0826 26.6214C47.0635 26.5953 47.0383 26.5742 47.0091 26.56C46.9091 26.53 46.4891 26.9 46.4291 27.06C46.3891 27.15 46.3691 27.14 46.2791 27.03C46.1943 26.921 46.1269 26.7996 46.0791 26.67C45.9791 26.34 46.1091 26.1 46.4991 25.91L46.7991 25.77L46.6191 25.66C46.2591 25.43 45.6391 25.59 45.4191 25.96C45.3491 26.06 45.2791 26.16 45.2591 26.16C45.2391 26.16 45.1191 26.06 44.9991 25.93C44.5291 25.47 44.6891 24.79 45.3191 24.59C45.6491 24.48 45.9491 24.56 46.0091 24.79C46.1091 25.12 46.3891 24.68 46.3391 24.27C46.3091 24 46.3091 23.99 46.4991 23.99C46.7591 23.99 47.2991 24.33 47.4791 24.59C47.6791 24.9 47.6591 25.39 47.4391 25.75L47.2691 26.03L47.4991 25.99C47.8191 25.92 48.1391 25.72 48.2991 25.47C48.3835 25.3108 48.4308 25.1346 48.4378 24.9546C48.4447 24.7745 48.411 24.5952 48.3391 24.43C48.1891 24.16 48.2091 24.12 48.4291 24.21C48.7891 24.36 48.9891 24.53 49.1291 24.82C49.2691 25.08 49.2791 25.14 49.2091 25.42C49.1613 25.5905 49.087 25.7524 48.9891 25.9C48.8691 26.06 48.8591 26.09 48.9591 26.09C49.1391 26.09 49.4991 25.92 49.6291 25.79C49.6991 25.71 49.7991 25.54 49.8491 25.39L49.9491 25.14L50.0491 25.34C50.1991 25.61 50.4991 25.86 50.8591 26.02C51.2491 26.18 51.4091 26.19 51.2091 26.04C51.0691 25.94 50.8091 25.19 50.8991 25.12C51.3307 25.3617 51.7248 25.6649 52.0691 26.02C52.6391 26.53 52.9991 26.7 53.5191 26.7C54.1891 26.7 54.5791 26.12 54.2791 25.57C54.1091 25.25 53.7191 25.2 53.4791 25.47C53.3791 25.6 53.3491 25.7 53.3791 25.84C53.4191 26 53.4091 26.02 53.2591 26.02C53.0591 26.02 52.6791 25.77 51.9991 25.2C51.0526 24.3854 49.9646 23.7516 48.7891 23.33C47.9928 23.146 47.1705 23.102 46.3591 23.2C45.7191 23.32 44.9591 23.69 44.5391 24.08C43.8091 24.78 43.7991 25.71 44.5091 26.56L44.7091 26.8L44.5791 27.02C44.4813 27.1776 44.4329 27.3608 44.44 27.5461C44.4472 27.7315 44.5095 27.9104 44.6191 28.06C44.7191 28.2 44.8191 28.31 44.8491 28.31C44.8691 28.31 44.8891 28.22 44.8991 28.11C44.9191 27.84 45.0391 27.66 45.2391 27.59C45.4191 27.52 45.5391 27.56 46.3591 27.89C47.2291 28.23 48.6591 28.25 50.1791 27.95C50.8379 27.7979 51.5235 27.8047 52.1791 27.97C52.8991 28.27 53.0591 29.04 52.5391 29.62C52.3091 29.88 52.0991 29.98 51.3691 30.18C50.7336 30.3476 50.0729 30.3984 49.4191 30.33C48.3391 30.32 47.9491 30.34 47.5191 30.43C47.0291 30.53 46.7391 30.54 45.3391 30.51L43.7091 30.47L43.8891 30.61C43.9855 30.6956 44.0893 30.7726 44.1991 30.84C44.3291 30.91 44.3191 30.92 44.1391 30.99C44.0391 31.03 43.7991 31.06 43.6091 31.06H43.2791L43.2391 31.34C43.2122 31.472 43.2122 31.608 43.2391 31.74C43.2791 31.84 43.2591 31.86 43.1591 31.82C43.0891 31.79 42.8991 31.74 42.7291 31.71C42.5576 31.6732 42.3901 31.6196 42.2291 31.55C42.0391 31.45 42.0191 31.45 41.9491 31.58C41.8891 31.68 41.3291 32.1 41.2491 32.1C41.213 31.8406 41.1389 31.5879 41.0291 31.35C40.9291 31.14 40.8391 30.9 40.8091 30.83C40.7791 30.72 40.7591 30.71 40.7091 30.8C40.6791 30.85 40.6391 31 40.6091 31.12C40.5741 31.282 40.5133 31.4373 40.4291 31.58L40.2791 31.8L40.1791 31.61C40.0791 31.41 39.9191 31.19 39.8591 31.19C39.8391 31.19 39.8091 31.25 39.7891 31.34C39.7391 31.5 39.3491 31.97 39.2491 31.97C39.2191 31.97 39.1891 31.84 39.1891 31.67C39.1891 31.52 39.1591 31.38 39.1191 31.38C39.0791 31.38 39.0491 31.43 39.0491 31.48C39.0491 31.6 38.7191 31.98 38.5991 31.98C38.5591 31.98 38.4791 32.02 38.4291 32.08C38.3091 32.21 38.2091 32.19 38.2591 32.04C38.2732 31.9119 38.2595 31.7824 38.2191 31.66L38.1191 31.34C38.0991 31.29 37.9791 31.31 37.7191 31.39C37.3191 31.52 37.1791 31.49 37.3891 31.33C37.4691 31.27 37.5891 31.06 37.6491 30.87C37.7191 30.67 37.8191 30.5 37.8691 30.48C37.9391 30.46 37.9391 30.48 37.8491 30.6C37.7913 30.6761 37.7534 30.7655 37.7391 30.86C37.7391 30.91 37.6891 31.04 37.6391 31.15C37.5791 31.25 37.5391 31.35 37.5491 31.36C37.5591 31.37 37.7191 31.31 37.8991 31.23L38.2191 31.07V31.21C38.2191 31.29 38.2591 31.49 38.3091 31.66L38.3991 31.96L38.6191 31.86C38.8391 31.76 39.0491 31.4 39.0491 31.11C39.0491 30.97 39.1291 30.99 39.1691 31.14C39.1691 31.18 39.2291 31.35 39.2691 31.51L39.3691 31.79L39.5191 31.61C39.6091 31.51 39.7091 31.31 39.7491 31.18C39.8291 30.94 39.9491 30.83 39.9491 31.01C39.9491 31.13 40.2891 31.59 40.3491 31.55C40.3891 31.53 40.4491 31.36 40.4991 31.17C40.5991 30.77 40.7491 30.51 40.8491 30.57C40.8891 30.59 40.8991 30.63 40.8791 30.67C40.8591 30.69 40.9391 30.95 41.0591 31.23C41.1461 31.4399 41.2328 31.6499 41.3191 31.86C41.3591 31.96 41.3991 31.96 41.6491 31.73C41.7991 31.59 41.9491 31.44 41.9591 31.39C41.9891 31.31 42.0191 31.32 42.1591 31.41C42.454 31.5658 42.777 31.661 43.1091 31.69C43.1291 31.67 43.1491 31.49 43.1491 31.29L43.1591 30.92L43.3591 30.96C43.4591 30.99 43.6891 30.99 43.8591 30.96L44.1591 30.92L43.8891 30.72C43.7391 30.62 43.5891 30.49 43.5491 30.43C43.5191 30.37 43.3791 30.31 43.2291 30.3C42.8191 30.26 42.0891 29.86 42.0891 29.66C42.0891 29.62 42.1891 29.69 42.3091 29.8C42.5891 30.05 42.9691 30.2 43.3091 30.2H43.5491L43.3991 30C43.2923 29.8449 43.2237 29.6667 43.1991 29.48C43.1791 29.18 43.1491 29.14 42.8391 28.93C42.6593 28.8027 42.4919 28.6588 42.3391 28.5L42.1691 28.31L42.0791 28.54C42.0291 28.67 41.9791 28.77 41.9491 28.77C41.9291 28.77 41.8291 28.69 41.7491 28.6C41.6929 28.5348 41.6251 28.4806 41.5491 28.44C41.5191 28.44 41.4491 28.56 41.3691 28.71L41.2291 28.98L41.1291 28.83C41.0401 28.7075 40.9396 28.5936 40.8291 28.49C40.7091 28.39 40.6591 28.31 40.6991 28.31C40.7391 28.31 40.8691 28.41 40.9991 28.54L41.2191 28.77L41.3191 28.6C41.3769 28.4822 41.3945 28.3487 41.3691 28.22C41.3291 28.04 41.3391 28.03 41.3991 28.15C41.4854 28.2629 41.5863 28.3638 41.6991 28.45L41.9191 28.63L42.0691 28.36C42.2191 28.08 42.2191 28.08 42.2791 28.25C42.3791 28.46 43.0291 29 43.5791 29.31C43.6791 29.36 43.6391 29.2 43.4791 28.81C43.4311 28.6819 43.4041 28.5468 43.3991 28.41C43.3991 28.23 43.3491 28.15 43.1191 27.97C42.9762 27.8786 42.8565 27.755 42.7697 27.6092C42.6829 27.4634 42.6313 27.2993 42.6191 27.13C42.5891 26.96 42.5291 26.78 42.4791 26.72C42.4191 26.62 42.3991 26.68 42.4191 26.98C42.4391 27.19 42.4091 27.45 42.3591 27.56L42.2791 27.76L42.2191 27.59C42.1791 27.5 42.0191 27.34 41.8691 27.24C41.7191 27.14 41.6091 27.04 41.6291 27.02C41.6491 27 41.8091 27.09 41.9791 27.22C42.2491 27.43 42.2991 27.45 42.3391 27.36C42.3791 27.26 42.3391 26.8 42.2591 26.48C42.2191 26.32 42.2191 26.32 42.4191 26.52C42.5591 26.66 42.6391 26.84 42.7091 27.14C42.7891 27.52 42.8291 27.59 43.1791 27.9C43.3891 28.09 43.5791 28.23 43.5891 28.22C43.6091 28.2 43.6291 27.72 43.6491 27.14C43.6891 26.03 43.6491 25.76 43.3791 25.42L43.2391 25.24L43.4591 25.01C43.7056 24.7743 43.8703 24.4659 43.9291 24.13L43.9691 23.86L43.7291 24.09C43.5291 24.28 43.4291 24.32 43.1991 24.32C42.9691 24.32 42.8791 24.28 42.7291 24.12C42.4955 23.8951 42.2106 23.7303 41.8991 23.64C41.7791 23.6 41.7391 23.62 41.7391 23.7C41.7391 23.76 41.6791 23.92 41.5991 24.07L41.4591 24.33L41.1591 24.03C40.9691 23.86 40.7591 23.71 40.5891 23.67C40.1791 23.57 40.1591 23.57 40.1591 23.88C40.1591 24.35 39.9591 24.44 39.5991 24.13C39.3191 23.89 39.0991 23.83 38.5691 23.9L38.1691 23.94L38.2391 24.12C38.2991 24.27 38.2891 24.34 38.1591 24.51C37.9491 24.79 37.6791 24.91 37.2591 24.91C37.0591 24.91 36.8191 24.95 36.7191 25C36.6191 25.05 36.3591 25.1 36.1491 25.12C35.9491 25.14 35.7191 25.18 35.6491 25.2C35.5491 25.24 35.5491 25.2 35.5791 24.98C35.6291 24.64 35.3791 24.38 35.0091 24.38C34.5191 24.38 34.2991 24.82 34.4891 25.4C34.528 25.5252 34.5614 25.652 34.5891 25.78C34.7205 26.0301 34.8968 26.2538 35.1091 26.44C35.3691 26.7 35.6091 26.97 35.6491 27.04C35.7296 27.1443 35.832 27.2296 35.9491 27.29L36.1691 27.41L36.1391 27.17C36.1091 26.91 36.1591 26.87 36.2991 27.06C36.3491 27.12 36.4791 27.23 36.5791 27.29C36.7491 27.39 36.7791 27.39 36.7791 27.31C36.7791 27.25 36.8091 27.12 36.8491 27.02L36.9191 26.84L37.0491 27.09C37.1191 27.23 37.3491 27.54 37.5591 27.79C37.9691 28.26 38.2291 28.79 38.0991 28.91C38.0391 28.96 37.8991 28.96 37.5991 28.9C37.3791 28.86 37.0991 28.83 36.9791 28.85C36.7491 28.88 36.7291 28.85 36.8791 28.67C37.0291 28.47 36.9991 28.44 36.6991 28.44C36.3491 28.44 35.4791 28.27 35.1391 28.14C34.8191 28.01 34.7391 28.04 34.6391 28.35L34.4691 28.91L34.3691 29.21L34.7291 29.18C34.9147 29.1606 35.0986 29.1272 35.2791 29.08C35.35 29.0564 35.4246 29.0462 35.4991 29.05C35.5191 29.06 35.4691 29.18 35.3991 29.32L35.2591 29.56L35.4791 29.52C35.5991 29.49 35.7791 29.43 35.8791 29.38C36.0591 29.3 36.0791 29.3 36.2191 29.53C36.3891 29.8 36.5191 29.79 36.5491 29.5C36.5791 29.2 36.6791 29.24 36.8691 29.64C37.0491 30.02 37.2291 30.16 37.2691 29.94C37.2791 29.86 37.3691 29.74 37.4791 29.66C37.6991 29.51 37.8591 29.56 37.9491 29.79C38.0491 30.04 37.8291 30.29 37.2091 30.67C36.635 30.987 36.1409 31.4312 35.7648 31.9685C35.3887 32.5058 35.1405 33.122 35.0391 33.77C34.8491 34.95 35.4391 36.17 36.5991 37.06C37.1591 37.48 38.0491 37.92 37.9891 37.76C37.7491 37.03 37.7591 35.66 37.9991 35.43C38.0391 35.39 38.0291 35.53 37.9691 35.74C37.7691 36.53 37.8691 37.15 38.3691 38.61C38.8091 39.93 38.7491 40.5 38.1091 40.87C37.9091 40.99 37.7791 41.01 37.2291 41C36.6291 41 36.5591 41 36.3691 41.16C36.1394 41.3947 35.989 41.6954 35.9391 42.02C35.9391 42.15 36.0791 42.13 36.3391 41.98H36.3491Z" fill="#FFB700"/>
<path d="M46.0498 41.9501L46.2998 41.7901L46.4698 41.9501C46.6898 42.1601 46.9598 42.1501 47.1698 41.9401C47.2698 41.8401 47.3498 41.7801 47.3598 41.7901L47.4498 41.9501C47.4998 42.0401 47.6098 42.0801 47.8098 42.1001C48.0398 42.1101 48.1098 42.1001 48.2098 41.9601L48.3098 41.7901L48.5598 41.9501C49.2398 42.3901 49.5998 41.9301 49.2898 41.0201C49.1398 40.5601 49.2298 40.3001 49.7198 39.7201C49.9298 39.4701 50.0998 39.2001 50.0998 39.1201C50.0998 39.0101 50.0598 38.9901 49.7798 39.0001C49.5198 39.0001 49.4398 38.9701 49.2998 38.8201C49.0698 38.5701 49.0898 38.2801 49.3398 37.9601L49.5398 37.7101L49.1798 37.4701C48.8924 37.2579 48.6247 37.0203 48.3798 36.7601C48.1615 36.5025 47.8946 36.2904 47.5944 36.136C47.2941 35.9816 46.9663 35.8878 46.6298 35.8601L46.1598 35.8101V36.1701C46.1598 36.6201 46.3798 37.0601 46.9598 37.8001C47.6198 38.6401 47.6598 38.7701 47.6898 39.8701L47.7198 40.8001L47.5198 40.9801C47.3498 41.1401 47.2798 41.1701 46.7198 41.2001C46.1898 41.2301 46.0698 41.2601 45.9198 41.4001C45.7443 41.5281 45.623 41.7172 45.5798 41.9301C45.5498 42.0801 45.5598 42.1101 45.6698 42.1101C45.7398 42.1101 45.9098 42.0401 46.0498 41.9501ZM31.8298 39.5501C31.8903 39.4613 31.9249 39.3575 31.9298 39.2501C31.9298 39.1501 31.9898 39.1101 32.2498 39.0701L32.5598 39.0301L32.3598 38.8601C32.1098 38.6601 32.0798 38.5101 32.2998 38.5101C32.5198 38.5101 32.8798 38.2901 32.9398 38.1201C32.9698 38.0401 32.9398 37.9401 32.8998 37.8901C32.7798 37.7501 32.5498 37.7701 32.5098 37.9301C32.4598 38.0901 32.3898 38.0901 32.2098 37.9301C31.9598 37.6801 31.9498 37.1701 32.2098 36.8701C32.3198 36.7301 32.3198 36.7301 32.1698 36.5801C32.0098 36.4201 31.8898 36.1201 31.9698 36.0401C31.9898 36.0201 32.1198 36.0401 32.2498 36.0901C32.4498 36.1501 32.5198 36.1501 32.5998 36.0901C32.8298 35.9001 32.5798 35.6601 32.1998 35.7201C32.0398 35.7401 31.9798 35.7201 31.9598 35.6401C31.9398 35.5801 31.8098 35.5001 31.6598 35.4601C31.3898 35.3901 31.3898 35.3901 31.3898 35.5801C31.3898 35.7801 31.2698 35.8201 31.0498 35.6901C30.8698 35.5901 30.6998 35.6701 30.6998 35.8601C30.6998 36.0401 30.8698 36.1201 31.1998 36.1001C31.4398 36.0901 31.4498 36.2701 31.2198 36.5301L31.0498 36.7301L31.1798 36.9201C31.3798 37.2001 31.3598 37.6701 31.1498 37.9101L30.9798 38.0901L30.8698 37.9401C30.7098 37.7401 30.4998 37.7501 30.4398 37.9701C30.4098 38.1101 30.4398 38.1701 30.6198 38.3301C30.7398 38.4301 30.9198 38.5101 31.0098 38.5101C31.2398 38.5101 31.2298 38.7001 30.9898 38.8801L30.7898 39.0301L31.0898 39.0701C31.2498 39.1001 31.3898 39.1401 31.3898 39.1701C31.3898 39.3001 31.5898 39.6901 31.6498 39.6901C31.6898 39.6901 31.7698 39.6201 31.8298 39.5401V39.5501Z" fill="#FFB700"/>
<path d="M35.6497 37.8901C35.9197 37.7901 36.4997 37.2901 36.4997 37.1801C36.4997 37.1401 36.3397 36.9601 36.1397 36.7801C35.7397 36.4201 35.2897 35.7901 35.1697 35.4301C35.1097 35.2301 34.8197 34.9101 33.9997 34.1101L32.9097 33.0601L32.5997 33.1401C32.4197 33.1801 32.2097 33.2201 32.1297 33.2201C31.9797 33.2201 31.9797 33.2201 32.1797 33.3801L32.3797 33.5401L32.6797 33.3801C32.9497 33.2201 32.9597 33.2201 32.9897 33.3501C33.0097 33.4201 32.9697 33.5501 32.8897 33.6401C32.8197 33.7301 32.7797 33.8401 32.7897 33.8701C32.8197 33.9001 32.7497 33.9701 32.6397 34.0301C32.4397 34.1301 32.2897 34.4601 32.4497 34.4601C32.5997 34.4601 32.9197 34.0601 32.8797 33.9301C32.8597 33.8601 32.8797 33.7901 32.8997 33.7701C33.0297 33.7001 33.0197 34.0101 32.8997 34.1701C32.8197 34.2501 32.7797 34.3501 32.7997 34.3901C32.8197 34.4201 32.7497 34.4901 32.6397 34.5501C32.4397 34.6501 32.2897 34.9801 32.4497 34.9801C32.6097 34.9801 32.9197 34.6001 32.8897 34.4601C32.8697 34.3901 32.8697 34.3101 32.8997 34.2901C32.9897 34.2501 33.0297 34.4901 32.9597 34.6101C32.9413 34.6438 32.9317 34.6816 32.9317 34.7201C32.9317 34.7585 32.9413 34.7963 32.9597 34.8301C33.0297 34.9601 32.9597 35.2001 32.8297 35.2801C32.7797 35.3101 32.8097 35.3801 32.9497 35.4801C33.1497 35.6201 33.1497 35.6401 33.1497 36.2801C33.1497 36.8201 33.1697 36.9601 33.2697 37.0501C33.3697 37.1501 33.3897 37.1501 33.3897 37.0501C33.3897 36.9501 33.5897 36.8101 33.7397 36.8101C33.7897 36.8101 34.0797 37.0601 34.3897 37.3601C34.6997 37.6601 35.0297 37.9301 35.1197 37.9401L35.3397 37.9801C35.3697 37.9801 35.5097 37.9501 35.6497 37.8801V37.8901ZM32.3197 35.2801C32.3197 35.1101 31.9597 34.9201 31.5297 34.8801C31.1797 34.8301 31.1797 34.8401 31.1797 35.0101C31.1797 35.1501 31.2297 35.2101 31.4797 35.3101C31.8597 35.4801 32.3197 35.4601 32.3197 35.2801Z" fill="#FFB700"/>
<path d="M32.7099 35.2601C32.8899 35.1001 32.9699 34.9201 32.8599 34.9201C32.7399 34.9201 32.4199 35.2001 32.4199 35.3201C32.4199 35.4801 32.4799 35.4701 32.7199 35.2601H32.7099ZM32.3399 34.7501C32.3499 34.6501 32.2899 34.5901 32.1099 34.5001C31.7099 34.3301 31.2499 34.2401 31.1399 34.3301C30.9299 34.5001 31.0699 34.7201 31.3999 34.7601C31.5399 34.7701 31.7199 34.8101 31.8099 34.8501C32.0699 34.9501 32.3099 34.9001 32.3399 34.7501ZM32.3399 34.2201C32.3599 34.0901 32.2699 34.0401 31.5399 33.7801C30.9899 33.5801 30.7499 33.6801 30.9299 34.0101C30.9899 34.1201 31.0899 34.1701 31.3199 34.2101C31.4899 34.2301 31.7199 34.2801 31.8299 34.3201C32.1299 34.4201 32.3099 34.3801 32.3299 34.2201H32.3399ZM32.6999 33.7301C32.8099 33.6201 32.8999 33.4901 32.8999 33.4301C32.8999 33.2801 32.4699 33.5601 32.4099 33.7601C32.3499 33.9901 32.4599 33.9801 32.7099 33.7301H32.6999ZM32.3399 33.7001C32.3599 33.5401 32.0999 33.4001 31.5799 33.2901C31.1899 33.2001 31.0199 33.2501 31.0499 33.4301C31.0699 33.5301 31.1999 33.6001 31.5499 33.7101C32.1399 33.8901 32.3099 33.8901 32.3399 33.7001ZM32.8399 32.9601C33.5199 32.6601 33.5699 31.9101 32.9399 31.7101C32.6799 31.6301 32.5199 31.6801 32.4199 31.8501C32.3399 31.9901 32.3899 32.2301 32.4899 32.2301C32.5299 32.2301 32.5599 32.2801 32.5599 32.3301C32.5599 32.6001 31.5399 32.7101 31.1199 32.5001C30.9699 32.4301 30.9199 32.2301 31.0299 32.2301C31.1299 32.2301 31.1899 32.0301 31.1399 31.9001C31.0799 31.7001 30.8799 31.6401 30.6099 31.7201C29.9799 31.8801 29.9999 32.6201 30.6399 32.9201C31.3479 33.18 32.1228 33.194 32.8399 32.9601Z" fill="#FFB700"/>
<path d="M32.4291 32.38C32.4691 32.34 32.4491 32.28 32.3891 32.24C32.2491 32.13 32.2591 31.96 32.4091 31.77C32.5291 31.63 32.5391 31.41 32.5791 29.26C32.6491 25.55 32.9291 22.76 33.2891 22.08C33.4391 21.82 33.4191 21.82 33.0391 22.08C32.5405 22.4273 32.138 22.8952 31.8691 23.44C31.2491 24.59 31.0391 26.14 31.0391 29.46C31.0391 31.34 31.0491 31.59 31.1591 31.76C31.2591 31.94 31.2591 32 31.1991 32.18C31.1491 32.29 31.1291 32.41 31.1491 32.43C31.2891 32.56 32.2891 32.53 32.4291 32.38ZM38.0391 28.84C38.0691 28.81 38.0191 28.64 37.9391 28.48C37.8191 28.22 37.7691 28.18 37.5991 28.18C36.7995 28.1105 36.0196 27.8935 35.2991 27.54C34.7891 27.31 34.5991 27.26 34.5491 27.32C34.3891 27.47 34.6491 27.82 35.0491 28.01C35.6377 28.2221 36.2543 28.3468 36.8791 28.38C37.1491 28.38 37.1591 28.38 36.9991 28.61L36.8991 28.77H37.1991L37.6991 28.83C37.9991 28.9 37.9991 28.9 38.0391 28.84Z" fill="#FFB700"/>
<path d="M41.1992 30.5099C41.1992 30.4099 40.9092 30.1599 40.6292 29.9899C40.3992 29.8599 40.3592 29.8499 40.3592 29.9599C40.3592 30.1199 40.2192 30.5299 40.1592 30.5299C40.1292 30.5299 40.0792 30.4499 40.0592 30.3599C40.0292 30.2599 39.9192 30.0599 39.8092 29.9299L39.6092 29.6799L39.4692 29.9099C39.3292 30.1299 39.0792 30.3399 38.9692 30.3399C38.9492 30.3399 38.9392 30.2199 38.9692 30.0899C38.9792 29.9299 38.9692 29.8099 38.9192 29.7899C38.8792 29.7599 38.8392 29.7699 38.8392 29.8099C38.8392 29.8899 38.4992 30.2699 38.4392 30.2699C38.3992 30.2699 38.3592 30.1699 38.3392 30.0299L38.2592 29.5499C38.2392 29.4299 38.2892 29.5099 38.3592 29.7499L38.5192 30.1599L38.6792 29.9099C38.7516 29.8066 38.8057 29.6916 38.8392 29.5699C38.8392 29.5199 38.8692 29.4999 38.9092 29.5199C38.9492 29.5399 38.9992 29.7099 39.0192 29.8899L39.0692 30.2299L39.2492 30.0299C39.3433 29.9296 39.4302 29.8226 39.5092 29.7099C39.5792 29.5899 39.5892 29.5899 39.7392 29.7099C39.8192 29.7899 39.9492 29.9599 40.0292 30.0999C40.1092 30.2399 40.1792 30.3399 40.1892 30.3299L40.2492 30.0099L40.2892 29.7099C40.2992 29.6599 40.8292 30.0099 41.0292 30.1799C41.1492 30.2899 41.2692 30.3699 41.2892 30.3499C41.3092 30.3299 41.3292 30.1699 41.3292 29.9799C41.3292 29.6999 41.2992 29.6199 41.1292 29.4699C40.9292 29.2899 40.9292 29.2899 40.8492 29.4199C40.7492 29.5899 40.6392 29.5899 40.6392 29.4199C40.6392 29.2999 40.2592 28.8299 40.1692 28.8299C40.1392 28.8299 40.0592 28.9299 39.9892 29.0599C39.9192 29.1899 39.8392 29.2899 39.8192 29.2899C39.7192 29.2899 39.1892 28.6899 39.1892 28.5899C39.1892 28.5099 39.2292 28.5299 39.3192 28.6699C39.4086 28.8013 39.5126 28.922 39.6292 29.0299C39.8292 29.2099 39.9092 29.1699 39.9892 28.8199C40.0192 28.7199 40.0592 28.6399 40.0892 28.6399C40.1692 28.6399 40.6292 29.1299 40.6892 29.2899L40.7592 29.4499L40.8092 29.2699C40.8692 29.0499 40.9392 29.0499 41.0392 29.2499C41.0792 29.3299 41.2792 29.5099 41.4792 29.6299L41.8492 29.8699L41.9192 29.6299C41.9592 29.4999 42.0192 29.4299 42.0392 29.4699C42.0792 29.5199 41.9792 29.9199 41.9092 29.9999C41.9092 30.0099 41.7792 29.9399 41.6492 29.8499L41.3992 29.6699V29.9899C41.3992 30.1599 41.3792 30.3699 41.3592 30.4499C41.3092 30.6099 41.1892 30.6499 41.1892 30.5099H41.1992ZM39.3492 27.9699C38.9092 27.6099 38.8492 27.5299 38.8492 27.3499L38.8592 27.1699L38.8892 27.3399C38.9092 27.4399 39.0292 27.5999 39.1692 27.7199L39.4292 27.9199L39.5792 27.7399C39.6692 27.6399 39.7392 27.5199 39.7392 27.4799C39.7392 27.3599 39.7592 27.3699 40.0592 27.6299C40.3192 27.8599 40.3292 27.8599 40.3592 27.7099C40.3892 27.6299 40.3792 27.4699 40.3592 27.3599C40.2592 27.0599 40.2792 27.0199 40.4092 27.1999L40.6492 27.4799C40.7492 27.5899 40.7592 27.5899 40.7992 27.4499C40.8292 27.3599 40.8492 27.2099 40.8492 27.1099V26.9199L41.0792 27.1899C41.3092 27.4499 41.3292 27.4599 41.3892 27.3299C41.4392 27.2599 41.4692 27.0899 41.4692 26.9599C41.4692 26.7799 41.4892 26.7399 41.5292 26.7999C41.6092 26.9199 41.5592 27.2199 41.4192 27.4799L41.3192 27.6799L41.1892 27.4699C41.0192 27.2099 40.9592 27.2099 40.8592 27.4899C40.7592 27.7599 40.6892 27.7799 40.5892 27.5699C40.5292 27.4399 40.5092 27.4599 40.4692 27.7399L40.4192 28.0399L40.1192 27.8099L39.8192 27.5799L39.6692 27.7299C39.5992 27.8199 39.5392 27.9299 39.5392 27.9699C39.5392 28.0699 39.4592 28.0699 39.3492 27.9699ZM43.2492 26.6099C43.0992 26.4699 42.9892 26.3299 43.0092 26.3099C43.0392 26.2799 43.0592 26.2699 43.0692 26.2899C43.166 26.3931 43.266 26.4931 43.3692 26.5899C43.7092 26.9499 43.6392 26.9599 43.2592 26.6099H43.2492ZM38.0492 26.0699C37.9092 25.8699 37.9192 25.7499 38.0992 25.5299C38.2192 25.3799 38.2792 25.3599 38.4992 25.3899C38.6492 25.3999 38.9592 25.5299 39.1892 25.6699C39.5216 25.8685 39.902 25.9722 40.2892 25.9699L40.1192 25.6899C39.8992 25.3599 39.8992 25.3199 40.1592 25.5199C40.4192 25.7299 40.7292 25.7899 41.4292 25.7699L41.7692 25.7599L41.5692 25.5599C41.2992 25.2899 41.3792 25.2599 41.6892 25.5299C41.9692 25.7799 41.9592 25.7999 41.3492 25.8599C41.0948 25.8856 40.838 25.8687 40.5892 25.8099C40.2492 25.7099 40.2292 25.7199 40.2992 25.8299C40.3392 25.8999 40.3992 25.9499 40.4292 25.9499C40.4692 25.9499 40.4992 25.9899 40.4992 26.0299C40.4992 26.1599 39.7592 26.0399 39.3992 25.8699C38.5992 25.4599 38.4992 25.4199 38.2992 25.4799C38.2459 25.5004 38.1973 25.5313 38.1561 25.5708C38.1149 25.6103 38.0819 25.6576 38.0592 25.7099C37.9292 26.0399 38.3992 26.2999 38.5892 26.0099C38.6492 25.9199 38.6392 25.8699 38.5392 25.7599C38.3992 25.6199 38.4192 25.5999 38.5992 25.6599C38.7292 25.7099 38.7392 26.0199 38.6192 26.1399C38.4892 26.2699 38.1692 26.2399 38.0492 26.0699Z" fill="#000001"/>
<path d="M41.2395 25.26C41.1395 25.16 41.2195 25.14 41.6695 25.13C42.2295 25.12 42.5695 25.03 42.9695 24.77C43.2895 24.57 43.3795 24.61 43.0695 24.82C42.7995 25.02 42.3695 25.16 41.9395 25.2L41.4295 25.27C41.3495 25.29 41.2595 25.28 41.2295 25.26H41.2395Z" fill="#000001"/>
</g>
<defs>
<clipPath id="clip0_10790_13405">
<rect width="64" height="64" rx="32" fill="white"/>
</clipPath>
</defs>
</svg>
