<svg width="64" height="64" viewBox="0 0 64 64" fill="none" xmlns="http://www.w3.org/2000/svg">
<g clip-path="url(#clip0_11297_21649)">
<path d="M0 0H64V64H0V0Z" fill="#3E5EB9"/>
<path d="M0 12H64V52H0V12Z" fill="#FFD900"/>
<path d="M0 16H64V48H0V16Z" fill="#B10C0C"/>
<path d="M55.4542 26.3689L52.459 27.4289L55.4418 28.4766L58.437 27.4289L55.4542 26.3689Z" fill="white" stroke="black" stroke-width="0.123259"/>
<path d="M53.4695 27.0715H10.218C10.007 27.0715 9.83594 27.2288 9.83594 27.4228C9.83594 27.6168 10.007 27.7741 10.218 27.7741H53.4695C53.6806 27.7741 53.8516 27.6168 53.8516 27.4228C53.8516 27.2288 53.6806 27.0715 53.4695 27.0715Z" fill="#FFD900" stroke="black" stroke-width="0.123259"/>
<path d="M52.8041 27.7741C52.8959 27.7712 52.9834 27.7343 53.0495 27.6705C53.1155 27.6067 53.1555 27.5206 53.1616 27.429C53.1585 27.3352 53.1199 27.246 53.0535 27.1796C52.9871 27.1133 52.898 27.0746 52.8041 27.0715M52.459 27.7741C52.5486 27.7683 52.6331 27.7301 52.6966 27.6666C52.7601 27.6031 52.7983 27.5186 52.8041 27.429C52.8013 27.3372 52.7644 27.2497 52.7006 27.1837C52.6368 27.1176 52.5507 27.0776 52.459 27.0715M52.1016 27.7741C52.1934 27.7712 52.2808 27.7343 52.3469 27.6705C52.413 27.6067 52.4529 27.5206 52.459 27.429C52.4559 27.3352 52.4173 27.246 52.3509 27.1796C52.2845 27.1133 52.1954 27.0746 52.1016 27.0715" fill="#FFD900"/>
<path d="M52.8041 27.7741C52.8959 27.7712 52.9834 27.7343 53.0495 27.6705C53.1155 27.6067 53.1555 27.5206 53.1616 27.429C53.1585 27.3352 53.1199 27.246 53.0535 27.1796C52.9871 27.1133 52.898 27.0746 52.8041 27.0715M52.459 27.7741C52.5486 27.7683 52.6331 27.7301 52.6966 27.6666C52.7601 27.6031 52.7983 27.5186 52.8041 27.429C52.8013 27.3372 52.7644 27.2497 52.7006 27.1837C52.6368 27.1176 52.5507 27.0776 52.459 27.0715M52.1016 27.7741C52.1934 27.7712 52.2808 27.7343 52.3469 27.6705C52.413 27.6067 52.4529 27.5206 52.459 27.429C52.4559 27.3352 52.4173 27.246 52.3509 27.1796C52.2845 27.1133 52.1954 27.0746 52.1016 27.0715" stroke="black" stroke-width="0.123259"/>
<path d="M52.5811 28.4766L49.5859 29.5366L52.5688 30.5843L55.564 29.5366L52.5811 28.4766Z" fill="white" stroke="black" stroke-width="0.123259"/>
<path d="M50.5965 29.1792H7.34499C7.13396 29.1792 6.96289 29.3365 6.96289 29.5305C6.96289 29.7245 7.13396 29.8818 7.34499 29.8818H50.5965C50.8075 29.8818 50.9786 29.7245 50.9786 29.5305C50.9786 29.3365 50.8075 29.1792 50.5965 29.1792Z" fill="#FFD900" stroke="black" stroke-width="0.123259"/>
<path d="M49.9311 29.8818C50.0229 29.8789 50.1103 29.842 50.1764 29.7782C50.2425 29.7144 50.2825 29.6283 50.2885 29.5366C50.2855 29.4428 50.2468 29.3537 50.1804 29.2873C50.1141 29.2209 50.0249 29.1823 49.9311 29.1792M49.586 29.8818C49.6756 29.876 49.76 29.8377 49.8236 29.7742C49.8871 29.7107 49.9253 29.6263 49.9311 29.5366C49.9282 29.4448 49.8913 29.3574 49.8275 29.2913C49.7637 29.2252 49.6776 29.1853 49.586 29.1792M49.2285 29.8818C49.3203 29.8789 49.4078 29.842 49.4738 29.7782C49.5399 29.7144 49.5799 29.6283 49.586 29.5366C49.5829 29.4428 49.5442 29.3537 49.4779 29.2873C49.4115 29.2209 49.3223 29.1823 49.2285 29.1792" fill="#FFD900"/>
<path d="M49.9311 29.8818C50.0229 29.8789 50.1103 29.842 50.1764 29.7782C50.2425 29.7144 50.2825 29.6283 50.2885 29.5366C50.2855 29.4428 50.2468 29.3537 50.1804 29.2873C50.1141 29.2209 50.0249 29.1823 49.9311 29.1792M49.586 29.8818C49.6756 29.876 49.76 29.8377 49.8236 29.7742C49.8871 29.7107 49.9253 29.6263 49.9311 29.5366C49.9282 29.4448 49.8913 29.3574 49.8275 29.2913C49.7637 29.2252 49.6776 29.1853 49.586 29.1792M49.2285 29.8818C49.3203 29.8789 49.4078 29.842 49.4738 29.7782C49.5399 29.7144 49.5799 29.6283 49.586 29.5366C49.5829 29.4428 49.5442 29.3537 49.4779 29.2873C49.4115 29.2209 49.3223 29.1823 49.2285 29.1792" stroke="black" stroke-width="0.123259"/>
<path d="M61.4194 31.4719H2.588C2.30209 31.4719 2.07031 31.7092 2.07031 32.0019C2.07031 32.2947 2.30209 32.5319 2.588 32.5319H61.4194C61.7053 32.5319 61.9371 32.2947 61.9371 32.0019C61.9371 31.7092 61.7053 31.4719 61.4194 31.4719Z" fill="#FFD900" stroke="black" stroke-width="0.135585"/>
<path d="M49.2758 32C45.7633 35.525 41.0633 42.5625 31.6758 42.5625C23.4508 42.5625 17.5883 35.525 14.0508 32C17.5883 28.475 23.4508 21.4375 31.6758 21.4375C41.0508 21.4375 45.7633 28.475 49.2758 32Z" fill="white" stroke="black" stroke-width="0.125"/>
<path d="M30.4375 25.1125C31.375 26.1625 30.6 26.5875 31.5875 26.6625C32.6375 26.7375 32.0375 27.775 32.925 27.8125C33.5375 27.8375 32.8625 30.2875 33.45 31.1C34.05 31.95 34.5625 31.35 34.575 31.9625C34.575 32.5875 32.925 32.525 32.9 34.4625C32.85 35.5875 31.5 35.6625 31.4375 36.3875C31.3625 37.0625 34.0875 37.45 34.0625 38.05C34.0125 38.6625 31.1125 38.5625 30.975 39.25C30.9125 39.875 34.975 40.375 35.3125 42.175C34.1185 42.4407 32.8982 42.5707 31.675 42.5625C23.45 42.5625 17.5875 35.525 14.0625 32C17.5875 28.475 23.45 21.4375 31.675 21.4375C31.675 21.4375 29.2375 23.6625 30.4375 25.1125Z" fill="black"/>
<path d="M21.0781 31.0651V28.2424V31.0651ZM22.7791 28.2424V31.0651V28.2424ZM24.4801 28.2424V31.0651V28.2424Z" fill="black"/>
<path d="M21.0781 31.0651V28.2424M22.7791 28.2424V31.0651M24.4801 28.2424V31.0651" stroke="white" stroke-width="0.850485"/>
<path d="M21.0781 35.7611V32.9385V35.7611ZM22.7791 32.9385V35.7611V32.9385ZM24.4801 32.9385V35.7611V32.9385Z" fill="black"/>
<path d="M21.0781 35.7611V32.9385M22.7791 32.9385V35.7611M24.4801 32.9385V35.7611" stroke="white" stroke-width="0.850485"/>
<path d="M26.2051 31.0651V28.2424V31.0651ZM27.906 28.2424V31.0651V28.2424ZM29.607 28.2424V31.0651V28.2424Z" fill="black"/>
<path d="M26.2051 31.0651V28.2424M27.906 28.2424V31.0651M29.607 28.2424V31.0651" stroke="white" stroke-width="0.850485"/>
<path d="M26.2051 35.7611V32.9385V35.7611ZM27.906 32.9385V35.7611V32.9385ZM29.607 32.9385V35.7611V32.9385Z" fill="black"/>
<path d="M26.2051 35.7611V32.9385M27.906 32.9385V35.7611M29.607 32.9385V35.7611" stroke="white" stroke-width="0.850485"/>
<path d="M33.9941 31.0651V28.2424V31.0651ZM35.6951 28.2424V31.0651V28.2424ZM37.3961 28.2424V31.0651V28.2424Z" fill="black"/>
<path d="M33.9941 31.0651V28.2424M35.6951 28.2424V31.0651M37.3961 28.2424V31.0651" stroke="black" stroke-width="0.850485"/>
<path d="M33.9941 35.7611V32.9385V35.7611ZM35.6951 32.9385V35.7611V32.9385ZM37.3961 32.9385V35.7611V32.9385Z" fill="black"/>
<path d="M33.9941 35.7611V32.9385M35.6951 32.9385V35.7611M37.3961 32.9385V35.7611" stroke="black" stroke-width="0.850485"/>
<path d="M39.1211 31.0651V28.2424V31.0651ZM40.8221 28.2424V31.0651V28.2424ZM42.523 28.2424V31.0651V28.2424Z" fill="black"/>
<path d="M39.1211 31.0651V28.2424M40.8221 28.2424V31.0651M42.523 28.2424V31.0651" stroke="black" stroke-width="0.850485"/>
<path d="M39.1211 35.7611V32.9385V35.7611ZM40.8221 32.9385V35.7611V32.9385ZM42.523 32.9385V35.7611V32.9385Z" fill="black"/>
<path d="M39.1211 35.7611V32.9385M40.8221 32.9385V35.7611M42.523 32.9385V35.7611" stroke="black" stroke-width="0.850485"/>
<path d="M57.7238 31.5874C57.1863 32.4999 58.1363 31.2749 60.4363 32.8124C60.6707 33.0059 60.8627 33.2456 61.0003 33.5166C61.138 33.7876 61.2183 34.084 61.2363 34.3874C61.1238 34.3249 61.0488 34.1624 60.9238 34.0624C60.7613 34.2249 61.0988 34.9874 61.1363 35.3499C60.7738 35.1499 60.8113 35.0624 60.6863 34.8124C60.7113 35.1124 60.6238 35.9374 60.7738 36.2499C60.4863 36.1624 60.5113 35.9374 60.3613 35.8999C60.4613 36.2499 60.2738 36.6374 60.3238 37.0499C60.1613 36.8874 59.9738 36.7499 59.8988 36.6749C59.8863 36.8874 59.5863 37.3874 59.5738 37.5624C59.5221 37.5283 59.4777 37.4842 59.4434 37.4327C59.409 37.3812 59.3854 37.3233 59.3738 37.2624C59.0422 37.6505 58.7608 38.0789 58.5363 38.5374C58.0613 38.1124 56.8363 37.0874 56.6738 36.5374C56.5363 36.8499 56.3238 36.9499 55.9238 37.1749C55.7738 36.3124 55.1738 35.3499 55.4863 34.5999C55.2709 34.7354 55.0624 34.8814 54.8613 35.0374C55.0446 34.2807 55.3991 33.5761 55.8976 32.978C56.396 32.3799 57.0251 31.9041 57.7363 31.5874H57.7238Z" fill="#333333" stroke="black" stroke-width="0.1125"/>
<path d="M55.7363 36.1626C55.9613 35.7126 56.1613 35.5751 56.3113 35.2876C56.5613 34.7876 56.5988 34.3876 56.8113 34.4501C57.0363 34.5126 57.0363 34.7126 56.7488 35.2001C56.4738 35.7001 56.3363 35.8126 55.7363 36.1626ZM57.2363 37.2126C57.2113 36.8876 57.3113 36.7376 57.2863 36.5251C57.2613 36.1376 57.0988 35.8751 57.3113 35.8501C57.4988 35.8501 57.5988 35.9751 57.5988 36.3501C57.5988 36.7251 57.5488 36.8501 57.2238 37.2126H57.2363ZM58.3738 37.8751C58.2863 37.4001 58.3488 37.2001 58.2863 36.8876C58.1988 36.3626 57.9988 36.0126 58.1863 35.9501C58.3738 35.9001 58.4863 36.0751 58.5613 36.6251C58.6238 37.1626 58.5988 37.3126 58.3738 37.8751ZM59.5613 34.5876C59.2738 34.3626 59.1113 34.3501 58.9363 34.2126C58.6238 33.9626 58.4613 33.7251 58.3613 33.8501C58.2613 33.9751 58.3363 34.1126 58.6613 34.3376C58.9863 34.5626 59.1113 34.5751 59.5613 34.5876ZM59.3613 36.1376C59.2113 35.8251 59.0613 35.7626 58.9613 35.5626C58.7988 35.2126 58.7988 34.9251 58.6113 34.9876C58.4363 35.0751 58.4113 35.2376 58.6113 35.5626C58.8113 35.9001 58.9113 35.9501 59.3613 36.1376Z" fill="#B3B3B3"/>
<path d="M4.66211 32.4751C4.62461 32.2126 4.68711 32.1751 4.52461 31.9751C4.77461 32.0626 4.77461 32.3501 5.06211 32.1501C5.17461 32.0876 5.21211 32.0876 5.08711 31.7876C5.38711 31.8001 6.38711 32.1501 6.54961 32.1626C6.97461 32.1626 7.73711 31.7126 8.27461 32.2876C8.77461 32.7876 8.61211 33.3376 8.61211 34.0376C8.41211 33.9501 8.49961 33.9126 8.28711 33.6501C8.44961 34.2751 8.28711 35.4001 8.28711 36.0751C8.19961 35.9001 8.21211 35.9751 8.12461 35.8251C7.91211 36.4126 7.64961 36.5376 7.64961 37.2626C7.56211 36.9751 7.64961 37.0376 7.56211 36.8876C7.34961 37.3501 5.91211 37.7501 6.47461 38.2001C5.97461 37.9126 5.76211 37.9501 5.53711 37.6876C5.43711 37.7501 5.36211 37.8751 5.27461 38.0251C4.39961 37.6251 4.71211 36.7751 4.02461 36.1876C3.89961 36.4376 3.97461 36.4001 3.83711 36.7876C3.71211 36.2376 3.66211 35.9001 3.51211 35.5001C3.38711 35.7126 3.38711 35.6251 3.13711 35.9626C3.03711 35.3001 2.88711 35.1376 2.93711 34.7126C2.68711 34.8876 2.86211 34.8126 2.59961 35.0376C2.84961 33.3376 3.89961 32.0751 4.64961 32.4751H4.66211Z" fill="#333333" stroke="black" stroke-width="0.1375"/>
<path d="M3.58789 35.25C3.81289 34.7 4.01289 34.5375 4.16289 34.1875C4.41289 33.5625 4.45039 33.0625 4.66289 33.1375C4.87539 33.2125 4.87539 33.4625 4.58789 34.075C4.30039 34.7 4.17539 34.825 3.58789 35.25ZM4.43789 36.625C4.52539 36.125 4.66289 35.9625 4.72539 35.6375C4.83789 35.0875 4.77539 34.675 4.97539 34.6875C5.17539 34.7125 5.22539 34.9375 5.08789 35.475C4.95039 36.0375 4.86289 36.1625 4.42539 36.625H4.43789ZM5.43789 37.5875C5.47539 37.1125 5.58789 36.925 5.60039 36.6125C5.63789 36.075 5.52539 35.6875 5.72539 35.6875C5.91289 35.6875 5.97539 35.875 5.92539 36.425C5.86289 36.9625 5.80039 37.1 5.45039 37.5875H5.43789ZM7.62539 34.4625C7.21289 34.05 6.96289 33.9625 6.68789 33.7125C6.22539 33.2375 5.98789 32.8 5.81289 32.9625C5.65039 33.1125 5.75039 33.3375 6.25039 33.7875C6.75039 34.2375 6.92539 34.3 7.62539 34.4625ZM7.37539 36.075C7.11289 35.6625 6.90039 35.5375 6.72539 35.275C6.41289 34.8 6.32539 34.4 6.13789 34.5C5.96289 34.6 6.01289 34.8125 6.33789 35.275C6.67539 35.725 6.80039 35.8125 7.37539 36.075Z" fill="#B3B3B3"/>
<path d="M25.9863 23.3125C25.4863 24.25 26.8363 23 28.9363 24.5875C29.4515 25.1354 29.7835 25.83 29.8863 26.575C29.4554 26.4364 29.0405 26.252 28.6488 26.025C28.6488 26.025 29.5863 26.9625 29.5863 28.0375C29.2488 27.8375 29.0863 27.8625 28.9613 27.6125C28.9613 27.9625 29.2738 28.175 29.2738 28.7125C29.0702 28.5518 28.8527 28.4096 28.6238 28.2875C28.9363 28.825 28.0613 29.875 28.4988 30.2125C28.128 30.1623 27.7713 30.0365 27.451 29.843C27.1307 29.6495 26.8534 29.3924 26.6363 29.0875C26.4738 29.1875 26.4613 29.3625 26.4488 29.55C26.4738 29.575 25.2863 28.675 25.3988 28.325C25.2624 28.4962 25.1836 28.7063 25.1738 28.925C24.7217 28.5482 24.3804 28.0557 24.1863 27.5L23.7863 28C23.6488 27.125 23.6488 27.15 23.9363 26.4C23.7374 26.536 23.5455 26.682 23.3613 26.8375C23.5101 26.092 23.8228 25.389 24.2768 24.7793C24.7308 24.1697 25.3148 23.6686 25.9863 23.3125Z" fill="#333333" stroke="black" stroke-width="0.1"/>
<path d="M24.7754 27.9125C24.8629 27.2625 25.0254 27.0375 25.0754 26.6C25.1754 25.875 25.0629 25.325 25.3254 25.35C25.5754 25.3625 25.6504 25.6375 25.5254 26.3625C25.4004 27.1125 25.2754 27.275 24.7754 27.925V27.9125ZM26.1504 29.1125C26.0879 28.5625 26.1879 28.325 26.1504 27.975C26.1004 27.35 25.9004 26.9375 26.1254 26.9C26.3629 26.8625 26.4754 27.0625 26.5004 27.7C26.5254 28.325 26.4629 28.4875 26.1379 29.1125H26.1504ZM28.2754 30.0875C28.0379 29.6125 27.8379 29.4625 27.6879 29.1625C27.4379 28.625 27.3629 28.1875 27.1629 28.2625C26.9629 28.35 26.9754 28.575 27.2629 29.1C27.5629 29.625 27.6879 29.725 28.2629 30.0875H28.2754ZM29.0129 25.8375C28.4129 25.525 28.1129 25.5125 27.7379 25.325C27.0629 24.9625 26.6754 24.575 26.5379 24.8C26.4129 25.0125 26.5879 25.225 27.2754 25.55C27.9629 25.8625 28.1754 25.875 29.0004 25.825L29.0129 25.8375ZM29.2254 27.6C28.7879 27.25 28.5379 27.2 28.2629 26.975C27.7629 26.5625 27.5254 26.175 27.3754 26.3375C27.2129 26.5 27.3129 26.7125 27.8254 27.0875C28.3254 27.4625 28.5129 27.5125 29.2254 27.6Z" fill="#B3B3B3"/>
</g>
<defs>
<clipPath id="clip0_11297_21649">
<rect width="64" height="64" rx="32" fill="white"/>
</clipPath>
</defs>
</svg>
