<svg width="64" height="64" viewBox="0 0 64 64" fill="none" xmlns="http://www.w3.org/2000/svg">
<g clip-path="url(#clip0_10790_13446)">
<mask id="mask0_10790_13446" style="mask-type:luminance" maskUnits="userSpaceOnUse" x="0" y="0" width="64" height="64">
<path d="M0 0H64V64H0V0Z" fill="white"/>
</mask>
<g mask="url(#mask0_10790_13446)">
<path d="M0 0H96V64H0V0Z" fill="#FF0000"/>
<path d="M0 0H48V32H0V0Z" fill="#000095"/>
<path d="M20.5367 16.925L20.1992 18.2L21.4617 18.5375L21.2117 17.6125L20.5367 16.925ZM26.7867 17.6125L26.5367 18.5375L27.7992 18.2L27.4617 16.925L26.7867 17.6125ZM21.2117 14.3875L20.5367 15.075L20.7867 16L21.2117 14.3875Z" fill="white"/>
<path d="M20.7871 16L20.5371 16.925L21.2121 17.6125L20.7871 16Z" fill="white"/>
<path d="M20.5383 15.075L19.6133 16L20.5383 16.925L20.7883 16L20.5383 15.075ZM22.3883 18.7875L23.0758 19.4625L24.0008 19.2125L22.3883 18.7875ZM24.9258 19.4625L26.2008 19.8L26.5383 18.5375L25.6133 18.7875L24.9258 19.4625Z" fill="white"/>
<path d="M25.6129 18.7875L26.5379 18.5375L26.7879 17.6125L25.6129 18.7875ZM21.4629 18.5375L21.8004 19.8L23.0754 19.4625L22.3879 18.7875L21.4629 18.5375ZM24.0004 19.2125L24.9254 19.4625L25.6129 18.7875L24.0004 19.2125Z" fill="white"/>
<path d="M23.0742 19.4624L23.9992 20.3874L24.9242 19.4624L23.9992 19.2124L23.0742 19.4624ZM21.4617 13.4624L20.1992 13.7999L20.5367 15.0749L21.2117 14.3874L21.4617 13.4624ZM21.2117 17.6124L21.4617 18.5374L22.3867 18.7874L21.2117 17.6124ZM27.2117 15.9999L27.4617 15.0749L26.7867 14.3874L27.2117 15.9999Z" fill="white"/>
<path d="M22.3879 13.2124L21.4629 13.4624L21.2129 14.3874L22.3879 13.2124ZM26.7879 14.3874L26.5379 13.4624L25.6129 13.2124L26.7879 14.3874ZM27.4629 16.9249L28.3879 15.9999L27.4629 15.0749L27.2129 15.9999L27.4629 16.9249Z" fill="white"/>
<path d="M26.7871 14.3876L25.6121 13.2126L23.9996 12.7876L22.3871 13.2126L21.2121 14.3876L20.7871 16.0001L21.2121 17.6126L22.3871 18.7876L23.9996 19.2126L25.6121 18.7876L26.7871 17.6126L27.2121 16.0001L26.7871 14.3876Z" fill="white"/>
<path d="M26.7879 17.6125L27.4629 16.925L27.2129 16L26.7879 17.6125ZM27.4629 15.075L27.8004 13.8L26.5379 13.4625L26.7879 14.3875L27.4629 15.075ZM26.5379 13.4625L26.2004 12.2L24.9254 12.5375L25.6129 13.2125L26.5379 13.4625ZM23.0754 12.5375L21.8004 12.2L21.4629 13.4625L22.3879 13.2125L23.0754 12.5375Z" fill="white"/>
<path d="M23.9992 12.7876L23.0742 12.5376L22.3867 13.2126L23.9992 12.7876Z" fill="white"/>
<path d="M24.9242 12.5375L23.9992 11.6125L23.0742 12.5375L23.9992 12.7875L24.9242 12.5375Z" fill="white"/>
<path d="M25.6133 13.2126L24.9258 12.5376L24.0008 12.7876L25.6133 13.2126ZM23.0758 19.4626L21.8008 19.8001L22.3883 22.0001L24.0008 20.3876L23.0758 19.4626ZM22.3883 22.0001L24.0008 28.0001L25.6133 22.0001L24.0008 20.3876L22.3883 22.0001ZM21.4633 18.5376L20.2008 18.2001L19.6133 20.3876L21.8008 19.8001L21.4633 18.5376Z" fill="white"/>
<path d="M19.6133 20.3876L18.0008 26.3876L22.3883 22L21.8008 19.8L19.6133 20.3876ZM18.0008 17.6125L13.6133 22L19.6133 20.3876L20.2008 18.2001L18.0008 17.6125Z" fill="white"/>
<path d="M20.5375 16.925L19.6125 16L18 17.6125L20.2 18.2L20.5375 16.925ZM20.5375 15.075L20.2 13.8L18 14.3875L19.6125 16L20.5375 15.075Z" fill="white"/>
<path d="M18 14.3875L12 16L18 17.6125L19.6125 16L18 14.3875ZM30 17.6125L27.8 18.2L28.3875 20.3875L34.3875 22L30 17.6125Z" fill="white"/>
<path d="M26.5375 18.5375L26.2 19.8L28.3875 20.3875L27.8 18.2L26.5375 18.5375ZM24.925 19.4625L24 20.3875L25.6125 22L26.2 19.8L24.925 19.4625ZM27.4625 16.925L27.8 18.2L30 17.6125L28.3875 16L27.4625 16.925ZM25.6125 22L30 26.3876L28.3875 20.3875L26.2 19.8L25.6125 22ZM26.5375 13.4625L27.8 13.8L28.3875 11.6125L26.2 12.2L26.5375 13.4625ZM30 14.3875L34.3875 10L28.3875 11.6125L27.8 13.8L30 14.3875ZM28.3875 11.6125L30 5.61255L25.6125 10L26.2 12.2L28.3875 11.6125ZM30 17.6125L36 16L30 14.3875L28.3875 16L30 17.6125Z" fill="white"/>
<path d="M27.4625 15.075L28.3875 16L30 14.3875L27.8 13.8L27.4625 15.075ZM22.3875 10L18 5.61255L19.6125 11.6125L21.8 12.2L22.3875 10ZM21.4625 13.4625L21.8 12.2L19.6125 11.6125L20.2 13.8L21.4625 13.4625Z" fill="white"/>
<path d="M19.6133 11.6125L13.6133 10L18.0008 14.3875L20.2008 13.8L19.6133 11.6125ZM24.9258 12.5375L26.2008 12.2L25.6133 10L24.0008 11.6125L24.9258 12.5375Z" fill="white"/>
<path d="M25.6117 10L23.9992 4L22.3867 10L23.9992 11.6125L25.6117 10Z" fill="white"/>
<path d="M23.0758 12.5375L24.0008 11.6125L22.3883 10L21.8008 12.2L23.0758 12.5375Z" fill="white"/>
<path d="M23.9992 22.8C27.7548 22.8 30.7992 19.7555 30.7992 16C30.7992 12.2444 27.7548 9.19995 23.9992 9.19995C20.2437 9.19995 17.1992 12.2444 17.1992 16C17.1992 19.7555 20.2437 22.8 23.9992 22.8Z" fill="#000095"/>
<path d="M24 22C27.3137 22 30 19.3137 30 16C30 12.6863 27.3137 10 24 10C20.6863 10 18 12.6863 18 16C18 19.3137 20.6863 22 24 22Z" fill="white"/>
</g>
</g>
<defs>
<clipPath id="clip0_10790_13446">
<rect width="64" height="64" rx="32" fill="white"/>
</clipPath>
</defs>
</svg>
