<svg width="64" height="64" viewBox="0 0 64 64" fill="none" xmlns="http://www.w3.org/2000/svg">
<g clip-path="url(#clip0_10790_13475)">
<path d="M0 0H64V64H0V0Z" fill="#006600"/>
<path d="M0 0H64V45.7125H0V0Z" fill="white"/>
<path d="M0 0H64V18.2875H0V0Z" fill="#CC0000"/>
<path d="M29.4399 31.1498C29.5647 30.9351 29.756 30.767 29.9849 30.6708C30.2137 30.5745 30.4677 30.5554 30.7084 30.6164C30.9491 30.6773 31.1634 30.815 31.3188 31.0085C31.4743 31.2021 31.5626 31.441 31.5702 31.6892V36.2606H32.4296V31.6892C32.4372 31.441 32.5254 31.2021 32.6809 31.0085C32.8364 30.815 33.0507 30.6773 33.2914 30.6164C33.5321 30.5554 33.786 30.5745 34.0149 30.6708C34.2438 30.767 34.4351 30.9351 34.5599 31.1498C34.6943 30.7445 34.7306 30.313 34.6657 29.8909C34.6009 29.4689 34.4367 29.0682 34.1868 28.722C33.9368 28.3758 33.6082 28.0938 33.228 27.8994C32.8478 27.7049 32.4269 27.6035 31.9999 27.6035C31.5729 27.6035 31.1519 27.7049 30.7717 27.8994C30.3916 28.0938 30.063 28.3758 29.813 28.722C29.5631 29.0682 29.3989 29.4689 29.334 29.8909C29.2692 30.313 29.3054 30.7445 29.4399 31.1498Z" fill="#F8C300"/>
<path d="M30.0527 29.9521C30.4284 29.8759 30.8185 29.9196 31.1679 30.0771C31.5174 30.2346 31.8085 30.4979 32.0002 30.8298C32.1918 30.4979 32.4829 30.2346 32.8324 30.0771C33.1818 29.9196 33.572 29.8759 33.9476 29.9521C33.883 29.4815 33.6501 29.0503 33.2921 28.7381C32.9341 28.4259 32.4752 28.2539 32.0002 28.2539C31.5252 28.2539 31.0662 28.4259 30.7082 28.7381C30.3502 29.0503 30.1174 29.4815 30.0527 29.9521Z" fill="white"/>
<path d="M31.5701 34.4321C31.511 35.0798 31.2713 35.6979 30.8783 36.2161C30.4852 36.7343 29.9546 37.1317 29.3468 37.3632C28.739 37.5947 28.0785 37.6509 27.4403 37.5255C26.8021 37.4001 26.212 37.0981 25.737 36.6538C25.5345 37.1645 25.2183 37.6223 24.8123 37.9923C24.4063 38.3623 23.9212 38.6348 23.394 38.7891C22.8668 38.9434 22.3113 38.9754 21.7699 38.8826C21.2285 38.7899 20.7153 38.5748 20.2695 38.2538C20.6078 41.5819 25.5998 40.9053 25.9655 37.6687C27.5381 40.4207 30.9941 39.6344 31.9998 36.2607L31.5701 34.4321Z" fill="#F8C300"/>
<path d="M32.4299 34.4321C32.489 35.0798 32.7287 35.6979 33.1217 36.2161C33.5148 36.7343 34.0454 37.1317 34.6532 37.3632C35.261 37.5947 35.9215 37.6509 36.5597 37.5255C37.1979 37.4001 37.788 37.0981 38.263 36.6538C38.4655 37.1645 38.7817 37.6223 39.1877 37.9923C39.5937 38.3623 40.0788 38.6348 40.606 38.7891C41.1332 38.9434 41.6887 38.9754 42.2301 38.8826C42.7715 38.7899 43.2847 38.5748 43.7305 38.2538C43.3922 41.5819 38.4002 40.9053 38.0345 37.6687C36.4619 40.4207 33.0059 39.6344 32.0002 36.2607L32.4299 34.4321Z" fill="#F8C300"/>
<path d="M28.2342 40.3476C27.5393 41.8562 26.1496 42.1122 24.9336 40.8962C24.9336 40.8962 25.4182 40.5488 25.9393 40.4573C25.9075 40.224 25.9261 39.9865 25.9939 39.7609C26.0617 39.5354 26.1772 39.327 26.3325 39.1499C26.7234 39.4034 27.0143 39.7847 27.1553 40.2288C27.8867 40.1373 28.2342 40.3476 28.2342 40.3476Z" fill="#F8C300"/>
<path d="M33.6993 40.1777C32.7674 41.5526 31.3545 41.5781 30.3535 40.1799C30.3535 40.1799 30.8883 39.9162 31.4173 39.9112C31.424 39.6757 31.4812 39.4445 31.585 39.233C31.6887 39.0216 31.8366 38.8349 32.0187 38.6855C32.3631 38.9994 32.5877 39.4231 32.6544 39.8843C33.3909 39.9135 33.6993 40.1777 33.6993 40.1777Z" fill="#F8C300"/>
<path d="M39.0646 40.8904C37.9228 42.0966 36.5243 41.8935 35.7624 40.3519C35.7624 40.3519 36.3328 40.1781 36.8557 40.2586C36.9004 40.0274 36.9941 39.8084 37.1307 39.6165C37.2673 39.4246 37.4434 39.2642 37.6473 39.1462C37.9363 39.5117 38.0896 39.9661 38.0808 40.432C38.8029 40.5799 39.0646 40.8904 39.0646 40.8904Z" fill="#F8C300"/>
<path d="M23.1309 43.7031C28.9178 41.9805 35.0811 41.9805 40.868 43.7031" stroke="#F8C300" stroke-width="1.46286"/>
<path d="M34.2342 21.2173L30.6206 23.8427L32.0009 19.5947L33.3811 23.8427L29.7676 21.2173H34.2342Z" fill="#F8C300"/>
<path d="M27.8338 22.9361L24.2202 25.5615L25.6005 21.3135L26.9807 25.5615L23.3672 22.9361H27.8338Z" fill="#F8C300"/>
<path d="M23.1521 27.6172L19.5386 30.2426L20.9188 25.9946L22.2991 30.2426L18.6855 27.6172H23.1521Z" fill="#F8C300"/>
<path d="M21.4334 34.0171L17.8198 36.6425L19.2001 32.3945L20.5803 36.6425L16.9668 34.0171H21.4334Z" fill="#F8C300"/>
<path d="M36.1662 22.9361L39.7798 25.5615L38.3995 21.3135L37.0193 25.5615L40.6328 22.9361H36.1662Z" fill="#F8C300"/>
<path d="M40.8479 27.6172L44.4614 30.2426L43.0812 25.9946L41.7009 30.2426L45.3145 27.6172H40.8479Z" fill="#F8C300"/>
<path d="M42.5666 34.0171L46.1802 36.6425L44.7999 32.3945L43.4197 36.6425L47.0332 34.0171H42.5666Z" fill="#F8C300"/>
</g>
<defs>
<clipPath id="clip0_10790_13475">
<rect width="64" height="64" rx="32" fill="white"/>
</clipPath>
</defs>
</svg>
