<svg width="64" height="64" viewBox="0 0 64 64" fill="none" xmlns="http://www.w3.org/2000/svg">
<g clip-path="url(#clip0_11513_9878)">
<path d="M34.641 64.3333H9.89744C7.27247 64.3333 4.75502 63.2906 2.89889 61.4344C1.04276 59.5783 0 57.0609 0 54.4359V9.89744C0 7.27247 1.04276 4.75502 2.89889 2.89889C4.75502 1.04276 7.27247 0 9.89744 0H34.641V64.3333Z" fill="#FDDF00"/>
<path d="M64.3327 54.4359C64.3327 57.0609 63.2899 59.5783 61.4338 61.4344C59.5777 63.2906 57.0602 64.3333 54.4352 64.3333H32.166V0H54.4352C57.0602 0 59.5777 1.04276 61.4338 2.89889C63.2899 4.75502 64.3327 7.27247 64.3327 9.89744V54.4359Z" fill="#EEEEEE"/>
<path d="M58.9288 22.8482L59.7428 21.3413L58.0801 22.096L58.9288 22.8482Z" fill="#A1A1A1"/>
<path d="M59.0021 21.4827C59.0017 21.563 59.0172 21.6425 59.0476 21.7168C59.078 21.7911 59.1228 21.8586 59.1793 21.9156C59.2358 21.9726 59.303 22.0179 59.377 22.0489C59.4511 22.0799 59.5305 22.096 59.6107 22.0964C59.691 22.0967 59.7705 22.0812 59.8448 22.0508C59.9191 22.0204 59.9866 21.9756 60.0436 21.9191C60.1006 21.8626 60.1459 21.7954 60.1769 21.7214C60.2079 21.6473 60.2241 21.5679 60.2244 21.4877C60.225 21.3256 60.1613 21.1699 60.0471 21.0548C59.933 20.9397 59.7778 20.8747 59.6157 20.874C59.4536 20.8734 59.2979 20.9371 59.1828 21.0513C59.0677 21.1654 59.0027 21.3206 59.0021 21.4827ZM57.5768 21.8415C57.2898 22.1261 57.4358 22.7372 57.901 23.1999C58.3661 23.6676 58.9748 23.8111 59.2594 23.5241C59.5464 23.2395 59.4029 22.6308 58.9352 22.1656C58.475 21.7005 57.8638 21.552 57.5768 21.8415Z" fill="#A1A1A1"/>
<path d="M43.4494 36.0319C44.3872 36.9202 45.1839 35.7721 46.6809 34.4458C48.0493 33.2334 57.0435 24.8701 58.0085 24.0189C58.976 23.1677 58.0778 21.881 56.9569 22.9252C55.8361 23.9694 45.0775 32.9761 44.2709 33.711C43.4618 34.4483 42.4102 35.0471 43.4494 36.0319Z" fill="#CB9C2B"/>
<path d="M57.7699 23.6504L58.8512 24.8579L58.3094 25.3231L58.8512 25.7858L59.3931 25.3231L60.1651 26.1742V27.0229L58.6582 28.3022L57.7699 27.7207V27.0229H57.0351V27.6836L57.4211 27.7207L57.7699 28.1067L57.8071 28.9975L56.4709 30.0788L53.7293 27.4782L57.7699 23.6504ZM36.2727 38.7514C36.26 39.2434 36.3459 39.733 36.5254 40.1913C36.7048 40.6496 36.9743 41.0674 37.3178 41.4199C37.6613 41.7724 38.0719 42.0526 38.5254 42.2439C38.9789 42.4351 39.4661 42.5337 39.9583 42.5337C40.4505 42.5337 40.9377 42.4351 41.3912 42.2439C41.8447 42.0526 42.2553 41.7724 42.5988 41.4199C42.9423 41.0674 43.2117 40.6496 43.3912 40.1913C43.5707 39.733 43.6566 39.2434 43.6438 38.7514C43.6189 37.7905 43.2197 36.8773 42.5313 36.2064C41.8428 35.5355 40.9195 35.1601 39.9583 35.1601C38.997 35.1601 38.0738 35.5355 37.3853 36.2064C36.6968 36.8773 36.2976 37.7905 36.2727 38.7514ZM38.6333 38.7539C38.3949 38.7509 38.1627 38.6775 37.966 38.5428C37.7693 38.4082 37.6168 38.2183 37.5279 37.9971C37.4389 37.776 37.4174 37.5334 37.466 37.3C37.5147 37.0667 37.6314 36.8529 37.8013 36.6857C37.9712 36.5185 38.1869 36.4054 38.421 36.3605C38.6551 36.3157 38.8973 36.3412 39.117 36.4337C39.3367 36.5263 39.524 36.6818 39.6555 36.8807C39.7869 37.0796 39.8566 37.313 39.8556 37.5513L39.8531 37.5687C39.8878 37.5662 39.9175 37.5464 39.9546 37.5464C39.9748 37.2395 40.1112 36.9519 40.3359 36.742C40.5606 36.5321 40.8569 36.4156 41.1644 36.4162C41.4719 36.4168 41.7676 36.5345 41.9915 36.7454C42.2154 36.9562 42.3505 37.2444 42.3695 37.5513C42.3689 37.8679 42.2437 38.1716 42.021 38.3966C41.7983 38.6216 41.496 38.75 41.1794 38.7539C41.4174 38.7573 41.6492 38.831 41.8454 38.9657C42.0417 39.1005 42.1938 39.2902 42.2825 39.5112C42.3713 39.7321 42.3927 39.9743 42.3442 40.2074C42.2957 40.4404 42.1793 40.654 42.0098 40.8211C41.8402 40.9883 41.6251 41.1016 41.3913 41.1468C41.1576 41.192 40.9157 41.1671 40.6961 41.0752C40.4764 40.9833 40.2889 40.8285 40.1569 40.6304C40.025 40.4322 39.9546 40.1994 39.9546 39.9614C39.9175 39.9614 39.8878 39.9416 39.8506 39.9391L39.8556 39.9589C39.8359 40.2658 39.7002 40.5537 39.4759 40.764C39.2516 40.9744 38.9556 41.0915 38.6481 41.0915C38.3406 41.0915 38.0446 40.9744 37.8203 40.764C37.596 40.5537 37.4603 40.2658 37.4406 39.9589C37.4425 39.642 37.5684 39.3385 37.7913 39.1133C38.0142 38.888 38.3164 38.759 38.6333 38.7539Z" fill="#CB9C2B"/>
<path d="M42.3673 35.2525C42.0802 35.537 42.2262 36.1482 42.6914 36.6109C43.1566 37.0761 43.7653 37.2221 44.0498 36.935C44.3369 36.6505 44.1933 36.0418 43.7257 35.5766C43.263 35.1114 42.6518 34.9654 42.3673 35.2525ZM36.4436 35.7176C36.4436 35.8853 36.5103 36.0461 36.6288 36.1647C36.7474 36.2832 36.9082 36.3498 37.0758 36.3498C37.2435 36.3498 37.4043 36.2832 37.5229 36.1647C37.6414 36.0461 37.708 35.8853 37.708 35.7176C37.708 35.55 37.6414 35.3892 37.5229 35.2706C37.4043 35.1521 37.2435 35.0854 37.0758 35.0854C36.9082 35.0854 36.7474 35.1521 36.6288 35.2706C36.5103 35.3892 36.4436 35.55 36.4436 35.7176ZM41.9441 41.807C41.9441 41.9747 42.0108 42.1355 42.1293 42.2541C42.2479 42.3726 42.4087 42.4392 42.5763 42.4392C42.744 42.4392 42.9048 42.3726 43.0234 42.2541C43.1419 42.1355 43.2085 41.9747 43.2085 41.807C43.2085 41.6394 43.1419 41.4786 43.0234 41.36C42.9048 41.2414 42.744 41.1748 42.5763 41.1748C42.4087 41.1748 42.2479 41.2414 42.1293 41.36C42.0108 41.4786 41.9441 41.6394 41.9441 41.807ZM36.2754 41.6017C36.2754 41.7693 36.342 41.9301 36.4606 42.0487C36.5791 42.1673 36.7399 42.2339 36.9076 42.2339C37.0753 42.2339 37.2361 42.1673 37.3546 42.0487C37.4732 41.9301 37.5398 41.7693 37.5398 41.6017C37.5398 41.434 37.4732 41.2732 37.3546 41.1546C37.2361 41.0361 37.0753 40.9695 36.9076 40.9695C36.7399 40.9695 36.5791 41.0361 36.4606 41.1546C36.342 41.2732 36.2754 41.434 36.2754 41.6017Z" fill="#A1A1A1"/>
<path d="M53.8672 29.8978C54.2102 29.6738 54.4816 29.356 54.6491 28.9823C55.3889 27.369 54.471 24.7734 53.9093 23.7713C53.2239 22.5415 53.6445 21.7398 53.9736 21.3563C53.8702 21.3164 53.7604 21.2954 53.6495 21.2944C53.3798 21.2944 53.1175 21.4256 52.8775 21.6854C52.155 22.4549 52.4964 23.4818 53.5035 25.8151C54.2606 27.5645 54.5551 28.8264 53.8672 29.8978Z" fill="#B4B4B5"/>
<path d="M52.4844 22.3757C52.657 22.1212 52.891 21.9142 53.1647 21.7741C53.4385 21.634 53.7432 21.5652 54.0506 21.574C54.5925 21.574 55.1517 21.7769 55.6219 22.1332L56.3147 21.0891C56.0079 20.8342 55.268 20.3047 54.4317 20.3047C54.2143 20.3046 53.9984 20.3414 53.7933 20.4136C52.8456 20.7525 52.5264 21.626 52.4844 22.3757Z" fill="#B4B4B5"/>
<path d="M37.5699 22.8482L36.7559 21.3413L38.4186 22.096L37.5699 22.8482Z" fill="#CB9C2B"/>
<path d="M37.4977 21.4827C37.4981 21.563 37.4826 21.6425 37.4522 21.7168C37.4217 21.7911 37.377 21.8586 37.3205 21.9156C37.264 21.9726 37.1968 22.0179 37.1227 22.0489C37.0487 22.0799 36.9693 22.096 36.889 22.0964C36.8088 22.0967 36.7292 22.0812 36.655 22.0508C36.5807 22.0204 36.5131 21.9756 36.4562 21.9191C36.3992 21.8626 36.3539 21.7954 36.3229 21.7214C36.2918 21.6473 36.2757 21.5679 36.2754 21.4877C36.2747 21.3256 36.3385 21.1699 36.4527 21.0548C36.5668 20.9397 36.722 20.8747 36.8841 20.874C37.0462 20.8734 37.2019 20.9371 37.317 21.0513C37.4321 21.1654 37.4971 21.3206 37.4977 21.4827ZM38.9205 21.8415C39.2075 22.1261 39.0615 22.7372 38.5963 23.1999C38.1312 23.6676 37.5225 23.8111 37.2379 23.5241C36.9509 23.2395 37.0944 22.6308 37.5621 22.1656C38.0248 21.7005 38.6359 21.552 38.9205 21.8415Z" fill="#CB9C2B"/>
<path d="M53.0447 36.0319C52.1069 36.9202 51.3102 35.7721 49.8132 34.4458C48.4449 33.2334 39.4506 24.8701 38.4856 24.0189C37.5181 23.1677 38.4163 21.881 39.5372 22.9252C40.6581 23.9694 51.4166 32.9761 52.2232 33.711C53.0323 34.4483 54.0839 35.0471 53.0447 36.0319Z" fill="#A1A1A1"/>
<path d="M38.7272 23.6504L37.6459 24.8579L38.1878 25.3231L37.6459 25.7858L37.104 25.3231L36.332 26.1742V27.0229L37.8389 28.3022L38.7272 27.7207V27.0229H39.4621V27.6836L39.0761 27.7207L38.7272 28.1067L38.6901 28.9975L40.0262 30.0788L42.7678 27.4782L38.7272 23.6504ZM56.5401 35.0671C56.0481 35.0543 55.5585 35.1402 55.1002 35.3197C54.6419 35.4992 54.2242 35.7686 53.8716 36.1121C53.5191 36.4556 53.239 36.8662 53.0477 37.3197C52.8564 37.7732 52.7578 38.2604 52.7578 38.7526C52.7578 39.2448 52.8564 39.732 53.0477 40.1855C53.239 40.639 53.5191 41.0496 53.8716 41.3931C54.2242 41.7366 54.6419 42.0061 55.1002 42.1856C55.5585 42.365 56.0481 42.4509 56.5401 42.4382C57.5011 42.4133 58.4143 42.0141 59.0851 41.3256C59.756 40.6371 60.1314 39.7139 60.1314 38.7526C60.1314 37.7914 59.756 36.8681 59.0851 36.1797C58.4143 35.4912 57.5011 35.092 56.5401 35.0671ZM59.0541 39.9589C59.0344 40.2658 58.8986 40.5537 58.6744 40.764C58.4501 40.9744 58.1541 41.0915 57.8466 41.0915C57.5391 41.0915 57.2431 40.9744 57.0188 40.764C56.7945 40.5537 56.6588 40.2658 56.6391 39.9589L56.644 39.9391C56.6069 39.9416 56.5772 39.9614 56.5401 39.9614C56.5125 40.2627 56.3732 40.5428 56.1495 40.7467C55.9259 40.9506 55.6341 41.0634 55.3315 41.0631C55.0289 41.0628 54.7373 40.9494 54.5141 40.745C54.2909 40.5407 54.1521 40.2603 54.1251 39.9589C54.1251 39.2982 54.6571 38.7663 55.3153 38.7539C55.1571 38.7527 55.0006 38.7204 54.8548 38.6588C54.7091 38.5972 54.5769 38.5075 54.4658 38.3948C54.3547 38.2821 54.2669 38.1486 54.2074 38.002C54.1479 37.8554 54.1178 37.6984 54.119 37.5402C54.1201 37.382 54.1524 37.2255 54.214 37.0797C54.2756 36.934 54.3653 36.8018 54.478 36.6907C54.5907 36.5796 54.7242 36.4918 54.8708 36.4323C55.0175 36.3728 55.1744 36.3427 55.3326 36.3439C55.9982 36.3439 56.5376 36.8833 56.5401 37.5464C56.5772 37.5464 56.6069 37.5662 56.6416 37.5687L56.6391 37.5513C56.6381 37.3131 56.7077 37.0798 56.8391 36.881C56.9704 36.6822 57.1576 36.5266 57.3771 36.434C57.5967 36.3414 57.8387 36.3158 58.0728 36.3604C58.3069 36.4051 58.5225 36.518 58.6925 36.6849C58.8626 36.8518 58.9794 37.0654 59.0283 37.2986C59.0773 37.5318 59.0561 37.7742 58.9675 37.9954C58.8789 38.2167 58.7269 38.4067 58.5305 38.5417C58.3341 38.6766 58.1022 38.7505 57.8639 38.7539C58.1805 38.7591 58.4825 38.8881 58.705 39.1134C58.9275 39.3387 59.0528 39.6422 59.0541 39.9589Z" fill="#A1A1A1"/>
<path d="M54.133 35.2525C54.42 35.537 54.2741 36.1482 53.8089 36.6109C53.3437 37.0761 52.735 37.2221 52.4505 36.935C52.1634 36.6505 52.3069 36.0418 52.7746 35.5766C53.2373 35.1114 53.8485 34.9654 54.133 35.2525ZM60.0566 35.7176C60.0566 35.8853 59.99 36.0461 59.8715 36.1647C59.7529 36.2832 59.5921 36.3498 59.4244 36.3498C59.2568 36.3498 59.096 36.2832 58.9774 36.1647C58.8588 36.0461 58.7922 35.8853 58.7922 35.7176C58.7922 35.55 58.8588 35.3892 58.9774 35.2706C59.096 35.1521 59.2568 35.0854 59.4244 35.0854C59.5921 35.0854 59.7529 35.1521 59.8715 35.2706C59.99 35.3892 60.0566 35.55 60.0566 35.7176ZM54.5561 41.807C54.5561 41.9747 54.4895 42.1355 54.371 42.2541C54.2524 42.3726 54.0916 42.4392 53.9239 42.4392C53.7563 42.4392 53.5955 42.3726 53.4769 42.2541C53.3583 42.1355 53.2917 41.9747 53.2917 41.807C53.2917 41.6394 53.3583 41.4786 53.4769 41.36C53.5955 41.2414 53.7563 41.1748 53.9239 41.1748C54.0916 41.1748 54.2524 41.2414 54.371 41.36C54.4895 41.4786 54.5561 41.6394 54.5561 41.807ZM60.2249 41.6017C60.2249 41.7693 60.1583 41.9301 60.0397 42.0487C59.9212 42.1673 59.7604 42.2339 59.5927 42.2339C59.425 42.2339 59.2642 42.1673 59.1457 42.0487C59.0271 41.9301 58.9605 41.7693 58.9605 41.6017C58.9605 41.434 59.0271 41.2732 59.1457 41.1546C59.2642 41.0361 59.425 40.9695 59.5927 40.9695C59.7604 40.9695 59.9212 41.0361 60.0397 41.1546C60.1583 41.2732 60.2249 41.434 60.2249 41.6017Z" fill="#CB9C2B"/>
<path d="M51.7557 21.5742C51.7557 25.2041 50.1746 25.1051 48.2223 25.1051C46.2725 25.1051 44.6914 25.2041 44.6914 21.5742C44.6914 17.9443 46.2725 14.0225 48.2223 14.0225C50.1746 14.0225 51.7557 17.9443 51.7557 21.5742Z" fill="black"/>
<path d="M48.069 24.8578C47.0199 24.8578 46.2875 24.8256 45.7852 24.4372C45.2111 23.9893 44.9414 23.0812 44.9414 21.5743C44.9414 17.8875 46.5671 14.27 48.2249 14.27C49.8827 14.27 51.5108 17.8875 51.5108 21.5743C51.5108 24.8578 50.192 24.8578 48.5218 24.8578H48.069Z" fill="white"/>
<path d="M50.0708 22.3731C48.8336 22.0119 49.0341 20.8267 48.2249 20.8267C47.4158 20.8267 47.6163 22.0119 46.3791 22.3731C45.1444 22.7344 44.5332 22.1678 44.5332 22.1678L45.1097 24.5382C45.1097 24.5382 46.1465 23.6623 48.2249 23.6623C50.3034 23.6623 51.3402 24.5382 51.3402 24.5382L51.9167 22.1678C51.9167 22.1653 51.3055 22.7319 50.0708 22.3731Z" fill="#CB9C2B"/>
<path d="M50.2727 19.236C48.8995 18.8575 49.1222 17.6079 48.224 17.6079C47.3258 17.6079 47.546 18.8575 46.1752 19.236C44.8044 19.6146 44.1289 19.0208 44.1289 19.0208L44.7673 21.5149C44.7673 21.5149 45.9203 20.592 48.224 20.592C50.5301 20.592 51.6806 21.5149 51.6806 21.5149L52.319 19.0208C52.319 19.0232 51.6435 19.6171 50.2727 19.236Z" fill="#CB9C2B"/>
<path d="M49.9468 15.9473C48.7913 15.6281 48.9769 14.5765 48.2222 14.5765C47.465 14.5765 47.6531 15.6281 46.4975 15.9473C45.3445 16.2665 44.7754 15.7667 44.7754 15.7667L45.3148 17.8674C45.3148 17.8674 46.2847 17.2835 48.2246 17.2835C50.1645 17.2835 51.1345 17.8674 51.1345 17.8674L51.6739 15.7667C51.6714 15.7667 51.0999 16.2665 49.9468 15.9473ZM47.7817 13.6041C47.7817 13.9703 47.9797 14.2697 48.2222 14.2697C48.4647 14.2697 48.6626 13.9728 48.6626 13.6041C48.6626 13.2354 48.4647 12.9385 48.2222 12.9385C47.9822 12.9385 47.7817 13.2354 47.7817 13.6041Z" fill="#CB9C2B"/>
<path d="M47.1133 12.8816C47.1133 13.134 47.6106 13.3394 48.2243 13.3394C48.8379 13.3394 49.3353 13.134 49.3353 12.8816C49.3353 12.6268 48.8379 12.4214 48.2243 12.4214C47.6106 12.4239 47.1133 12.6292 47.1133 12.8816Z" fill="#CB9C2B"/>
<path d="M47.7832 12.2112C47.7832 12.466 47.9812 12.6714 48.2237 12.6714C48.4662 12.6714 48.6641 12.466 48.6641 12.2112C48.6641 11.9563 48.4662 11.7534 48.2237 11.7534C48.1049 11.7567 47.9921 11.8065 47.9097 11.8921C47.8273 11.9777 47.7819 12.0923 47.7832 12.2112Z" fill="#CB9C2B"/>
<path d="M42.5837 29.8978C42.2407 29.6738 41.9693 29.356 41.8018 28.9823C41.062 27.369 41.9799 24.7734 42.5416 23.7713C43.227 22.5415 42.8064 21.7398 42.4773 21.3563C42.5807 21.3164 42.6905 21.2954 42.8014 21.2944C43.0711 21.2944 43.3334 21.4256 43.5734 21.6854C44.2959 22.4549 43.9545 23.4818 42.9474 25.8151C42.1903 27.5645 41.8958 28.8264 42.5837 29.8978Z" fill="#B4B4B5"/>
<path d="M43.967 22.3757C43.7943 22.1213 43.5602 21.9145 43.2865 21.7744C43.0128 21.6343 42.7081 21.5654 42.4008 21.574C41.8589 21.574 41.2997 21.7769 40.8295 22.1332L40.1367 21.0891C40.4435 20.8342 41.1834 20.3047 42.0197 20.3047C42.2399 20.3047 42.4527 20.3418 42.6581 20.4136C43.6033 20.7525 43.9225 21.626 43.967 22.3757Z" fill="#B4B4B5"/>
<path d="M48.2253 29.6922C48.7202 30.0733 48.834 31.548 48.834 33.2874V46.8568C48.834 46.8568 49.5936 47.0498 49.361 49.0615C49.2942 49.6355 48.1634 49.5267 47.9704 49.0615C47.7774 48.5963 47.8715 47.1043 48.2278 46.8964V33.4037C48.2278 31.3946 47.8913 30.6151 47.7873 30.2341C47.6809 29.853 47.9878 29.5066 48.2253 29.6922Z" fill="#EC1C24"/>
<path d="M52.8907 39.0924C52.4057 38.7534 51.7253 37.8997 51.1413 37.0832C50.3693 35.9994 50.1739 35.2621 49.4068 34.3342C48.6397 33.4063 46.6306 31.4837 46.1555 31.5505C45.9674 31.5777 45.7695 32.0157 45.9501 32.1691C46.1308 32.3225 46.6974 32.9411 47.9717 33.9086C49.2484 34.8761 49.4414 35.9574 50.5054 37.5038C51.4877 38.9315 52.3364 39.9064 53.101 40.0376C52.9903 39.7329 52.9196 39.4152 52.8907 39.0924Z" fill="#EC1C24"/>
<path d="M50.3777 31.056C49.9249 31.489 48.5244 32.8598 47.7623 33.7506C47.0002 34.6414 46.0352 36.7693 45.184 37.7343C44.6372 38.3529 44.0458 38.8824 43.5955 39.209C43.5595 39.5393 43.4788 39.8631 43.3555 40.1716C43.9691 39.9662 44.845 39.402 45.9437 37.8135C47.4629 35.6088 48.1978 33.9857 48.9327 33.3671C49.6676 32.7485 49.962 32.5654 50.3752 32.1348C50.7909 31.7018 50.833 30.6205 50.3777 31.056Z" fill="#EC1C24"/>
<path d="M47.3196 32.8621V47.1664C46.5006 47.8246 46.7332 48.9158 46.8866 49.4527C47.04 49.9896 48.3786 49.9872 48.5865 49.7199C48.7943 49.4527 48.8512 47.6316 48.0866 47.013V33.7529C48.0866 33.404 47.3196 32.3301 47.3196 32.8621Z" fill="#EC1C24"/>
<path d="M42.299 39.5453C41.5641 40.0575 40.9331 40.9409 42.5761 41.599C44.2191 42.2572 46.394 43.1455 48.2251 43.1455C50.0561 43.1455 53.4781 41.9034 54.2798 41.3442C55.0815 40.785 55.4279 40.1194 54.1512 39.7433C53.4806 39.5453 53.3792 40.0526 53.728 40.1689C54.0769 40.2851 54.4827 40.6464 53.6018 40.9681C52.7235 41.2897 50.7118 42.2325 48.084 42.2325C45.4563 42.2325 42.9819 41.1116 42.5761 40.9681C42.1703 40.8246 42.059 40.3619 42.346 40.1689C42.633 39.9759 42.6281 39.3177 42.299 39.5453Z" fill="#EC1C24"/>
<path d="M49.1287 46.4169C49.1287 46.5557 49.0735 46.6888 48.9754 46.7869C48.8773 46.8851 48.7442 46.9402 48.6054 46.9402C48.4666 46.9402 48.3335 46.8851 48.2353 46.7869C48.1372 46.6888 48.082 46.5557 48.082 46.4169C48.082 46.2781 48.1372 46.145 48.2353 46.0468C48.3335 45.9487 48.4666 45.8936 48.6054 45.8936C48.7442 45.8936 48.8773 45.9487 48.9754 46.0468C49.0735 46.145 49.1287 46.2781 49.1287 46.4169Z" fill="#CB9C2B"/>
<path d="M48.2498 46.7631C48.2498 46.9019 48.1946 47.035 48.0965 47.1331C47.9984 47.2313 47.8652 47.2864 47.7265 47.2864C47.5877 47.2864 47.4545 47.2313 47.3564 47.1331C47.2583 47.035 47.2031 46.9019 47.2031 46.7631C47.2031 46.6243 47.2583 46.4912 47.3564 46.393C47.4545 46.2949 47.5877 46.2397 47.7265 46.2397C47.8652 46.2397 47.9984 46.2949 48.0965 46.393C48.1946 46.4912 48.2498 46.6243 48.2498 46.7631Z" fill="#CB9C2B"/>
</g>
<defs>
<clipPath id="clip0_11513_9878">
<rect width="64" height="64" rx="32" fill="white"/>
</clipPath>
</defs>
</svg>
