<svg width="64" height="64" viewBox="0 0 64 64" fill="none" xmlns="http://www.w3.org/2000/svg">
<g clip-path="url(#clip0_11513_9791)">
<g clip-path="url(#clip1_11513_9791)">
<path d="M66.1111 -0.638672H-3.11111C-5.73381 -0.638672 -8.24908 0.40319 -10.1036 2.25772C-11.9581 4.11224 -13 6.62752 -13 9.25022L-13 19.1391H76V9.25022C76 6.62752 74.9581 4.11224 73.1036 2.25772C71.2491 0.40319 68.7338 -0.638672 66.1111 -0.638672Z" fill="#CC162B"/>
<path d="M-13 53.7502C-13 56.3729 -11.9581 58.8882 -10.1036 60.7427C-8.24908 62.5972 -5.73381 63.6391 -3.11111 63.6391H66.1111C68.7338 63.6391 71.2491 62.5972 73.1036 60.7427C74.9581 58.8882 76 56.3729 76 53.7502V43.8613H-13V53.7502Z" fill="#3C762C"/>
<path d="M-13 38.9164H76V43.8609H-13V38.9164ZM-13 19.1387H76V24.0831H-13V19.1387Z" fill="#EEEEEE"/>
<path d="M-13 24.0835H76V38.9168H-13V24.0835Z" fill="#0D218A"/>
</g>
</g>
<defs>
<clipPath id="clip0_11513_9791">
<rect width="64" height="64" rx="32" fill="white"/>
</clipPath>
<clipPath id="clip1_11513_9791">
<rect width="89" height="89" fill="white" transform="translate(-13 -13)"/>
</clipPath>
</defs>
</svg>
