<svg width="64" height="64" viewBox="0 0 64 64" fill="none" xmlns="http://www.w3.org/2000/svg">
<g clip-path="url(#clip0_10790_13538)">
<path d="M0 0H64V64H0V0Z" fill="#E70013"/>
<path d="M32.0001 16.875C28.0219 16.8584 24.2 18.4229 21.3752 21.2242C18.5505 24.0255 16.9542 27.8343 16.9376 31.8125C16.9211 35.7907 18.4855 39.6126 21.2868 42.4374C24.0882 45.2622 27.8969 46.8584 31.8751 46.875C35.87 46.875 39.7012 45.2881 42.5259 42.4633C45.3507 39.6385 46.9376 35.8073 46.9376 31.8125C46.9376 27.8177 45.3507 23.9865 42.5259 21.1617C39.7012 18.3369 35.87 16.75 31.8751 16.75L32.0001 16.875ZM41.0001 38.625C39.5926 40.5291 37.6201 41.9405 35.3637 42.6582C33.1073 43.3759 30.6819 43.3634 28.433 42.6224C26.1841 41.8815 24.2263 40.4498 22.8385 38.5313C21.4507 36.6128 20.7036 34.3053 20.7036 31.9375C20.7036 29.5697 21.4507 27.2622 22.8385 25.3437C24.2263 23.4252 26.1841 21.9935 28.433 21.2526C30.6819 20.5116 33.1073 20.4991 35.3637 21.2168C37.6201 21.9345 39.5926 23.3459 41.0001 25.25C39.7072 24.0855 38.1044 23.3208 36.3859 23.0484C34.6673 22.7761 32.9066 23.0077 31.317 23.7153C29.7273 24.423 28.3769 25.5762 27.4292 27.0355C26.4815 28.4948 25.9771 30.1975 25.9771 31.9375C25.9771 33.6775 26.4815 35.3802 27.4292 36.8395C28.3769 38.2988 29.7273 39.452 31.317 40.1597C32.9066 40.8673 34.6673 41.0989 36.3859 40.8266C38.1044 40.5542 39.7072 39.7895 41.0001 38.625ZM40.4126 35.9125L35.7376 34.4L32.8501 38.375V33.4625L28.1876 31.9375L32.8501 30.4125V25.4875L35.7376 29.475L40.4126 27.9625L37.5251 31.9375L40.4126 35.9125Z" fill="white"/>
</g>
<defs>
<clipPath id="clip0_10790_13538">
<rect width="64" height="64" rx="32" fill="white"/>
</clipPath>
</defs>
</svg>
