<svg width="64" height="64" viewBox="0 0 64 64" fill="none" xmlns="http://www.w3.org/2000/svg">
<g clip-path="url(#clip0_10790_13731)">
<path d="M64 64V0H0V64H64Z" fill="#002868"/>
<path d="M61.375 23.9375V35.1875C61.375 42.6875 57.625 50.7625 48.25 55.1375C38.875 50.7625 35.125 42.6875 35.125 35.1875V23.9375H61.375Z" fill="#FCD116" stroke="black"/>
<path d="M61.375 23.9375V35.1875C61.375 42.6875 57.625 50.7625 48.25 55.1375C38.875 50.7625 35.125 42.6875 35.125 35.1875V23.9375H61.375Z" stroke="white" stroke-width="0.875"/>
<path d="M43.5129 36.3251C43.1754 36.9001 42.5879 37.0251 42.1379 36.8376C41.6754 36.6626 41.2504 35.5626 40.7754 34.9626C40.3254 34.3876 40.2004 34.6376 39.9004 34.3001C39.4632 33.9 38.9542 33.5861 38.4004 33.3751C37.9879 33.1876 37.5629 33.0126 37.2754 32.3001C37.4021 32.012 37.6349 31.7837 37.9254 31.6626C38.1629 31.5751 38.3504 31.2376 38.3754 30.9376C38.4129 30.6501 38.6629 30.3376 39.0004 30.1126C38.8379 30.1376 38.5129 30.0751 38.3629 29.9626C38.2254 29.8376 37.9879 29.8751 37.8504 29.9876C37.7004 30.0751 37.5254 30.1126 37.2754 30.0751C37.3754 30.0001 37.5504 29.8251 37.5629 29.6751C37.5754 29.5251 37.7629 29.4376 38.1254 29.4376C38.4754 29.4376 38.7004 29.0251 38.9879 29.0251C38.7879 29.0251 38.8254 28.6876 38.9379 28.6751C38.4379 28.5751 38.5004 28.1751 38.7004 28.1751C38.6879 28.1126 38.6254 28.0501 38.3879 27.9626C38.1754 27.8876 38.2754 27.6876 38.4504 27.5626C38.3004 27.2501 38.4379 27.0126 38.6879 26.8126C38.3379 26.8001 38.7254 26.3126 38.8129 26.0501C38.9129 25.8001 38.9504 25.7626 39.0629 25.9251C39.1879 26.0626 39.4754 26.3876 39.8004 26.4876C40.1129 26.5751 40.3004 26.7501 40.3629 27.0126C40.4254 27.3001 40.5504 27.4376 40.8879 27.5626C41.2504 27.6751 41.7379 27.9751 41.6754 28.6376C41.9116 28.6465 42.1391 28.7296 42.3254 28.8751" fill="#FCAD56"/>
<path d="M43.5129 36.3251C43.1754 36.9001 42.5879 37.0251 42.1379 36.8376C41.6754 36.6626 41.2504 35.5626 40.7754 34.9626C40.3254 34.3876 40.2004 34.6376 39.9004 34.3001C39.4632 33.9 38.9542 33.5861 38.4004 33.3751C37.9879 33.1876 37.5629 33.0126 37.2754 32.3001C37.4021 32.012 37.6349 31.7837 37.9254 31.6626C38.1629 31.5751 38.3504 31.2376 38.3754 30.9376C38.4129 30.6501 38.6629 30.3376 39.0004 30.1126C38.8379 30.1376 38.5129 30.0751 38.3629 29.9626C38.2254 29.8376 37.9879 29.8751 37.8504 29.9876C37.7004 30.0751 37.5254 30.1126 37.2754 30.0751C37.3754 30.0001 37.5504 29.8251 37.5629 29.6751C37.5754 29.5251 37.7629 29.4376 38.1254 29.4376C38.4754 29.4376 38.7004 29.0251 38.9879 29.0251C38.7879 29.0251 38.8254 28.6876 38.9379 28.6751C38.4379 28.5751 38.5004 28.1751 38.7004 28.1751C38.6879 28.1126 38.6254 28.0501 38.3879 27.9626C38.1754 27.8876 38.2754 27.6876 38.4504 27.5626C38.3004 27.2501 38.4379 27.0126 38.6879 26.8126C38.3379 26.8001 38.7254 26.3126 38.8129 26.0501C38.9129 25.8001 38.9504 25.7626 39.0629 25.9251C39.1879 26.0626 39.4754 26.3876 39.8004 26.4876C40.1129 26.5751 40.3004 26.7501 40.3629 27.0126C40.4254 27.3001 40.5504 27.4376 40.8879 27.5626C41.2504 27.6751 41.7379 27.9751 41.6754 28.6376C41.9116 28.6465 42.1391 28.7296 42.3254 28.8751" stroke="black" stroke-width="0.0375" stroke-linecap="round" stroke-linejoin="round"/>
<path d="M44.3746 27.8625C44.3751 28.0146 44.4102 28.1646 44.4774 28.3011C44.5445 28.4375 44.6419 28.5569 44.7621 28.65C44.9996 28.85 45.1996 29 45.1496 29.2375C45.1121 29.4875 45.1996 29.6375 45.3996 29.8C45.6246 29.95 45.7746 30.1376 45.7246 30.4501C45.6746 30.7626 45.6996 30.95 45.8246 31.1875C45.9496 31.425 46.1746 31.6125 46.0746 31.9875C45.9746 32.3625 46.0246 32.8625 46.1496 33.1125C46.2746 33.35 46.1496 33.5376 45.9371 33.9501C45.7121 34.3626 45.5871 34.5125 45.1371 34.675C44.6746 34.8125 44.6371 35.1 44.6371 35.5751C44.6371 36.0751 44.3121 36.325 43.6996 36.2375C43.0746 36.75 42.6871 36.1375 42.5246 35.375C42.3621 34.6125 42.3496 33.775 41.4246 33.1125C40.5121 32.425 40.8746 31.2625 41.6371 30.8C42.3996 30.3375 42.3121 29 42.2121 28.175C42.1371 27.3375 42.6871 26.875 43.1121 26.425C43.6746 26.6375 44.3746 27.5 44.3746 27.8625Z" fill="#FFA1A1" stroke="black" stroke-width="0.0375" stroke-linecap="round" stroke-linejoin="round"/>
<path d="M43.0495 33.1876C42.8745 32.7751 42.687 32.3751 43.137 31.5001C43.612 30.6126 43.312 29.9376 43.1745 29.4876C43.037 29.0501 42.9995 28.6376 43.1745 28.4501C43.362 28.2876 43.437 28.1751 43.4495 27.8751C43.462 27.5876 43.6995 27.6876 43.737 27.8251C43.7745 27.9626 43.7995 28.2001 43.5495 28.6251C43.2995 29.0626 44.2495 30.1251 43.812 31.2626C43.512 32.0626 43.912 33.0751 44.062 33.7876C44.212 34.5001 44.312 36.1626 43.2745 36.4126C43.987 36.0751 43.3245 33.8376 43.0495 33.1876Z" fill="#F1B2DC" stroke="black" stroke-width="0.0375" stroke-linecap="round" stroke-linejoin="round"/>
<path d="M38.4121 33.0625C38.5746 33.1 38.6621 33 38.7121 32.8875C38.7621 32.775 38.7996 32.7125 38.9621 32.7C39.1121 32.7 39.3621 32.65 39.4246 32.525C39.4746 32.4 39.6621 32.525 39.8246 32.2C39.9871 31.875 40.0871 31.4999 40.5121 31.3624M41.6746 28.6375C41.5121 28.6375 41.0621 28.6625 40.8746 29.0625M39.5746 26.7C39.9496 26.8125 39.7996 27.0625 39.9871 27.2C40.3246 27.475 40.0121 27.75 40.2996 27.825C40.5871 27.9 40.5621 27.95 40.4996 28.2625C40.3996 28.625 40.7496 28.6375 40.6246 28.875M38.9996 30.1124C39.2246 29.8999 39.7621 29.75 39.8871 29.525M38.9871 29.025C39.3121 29.025 39.7496 29.15 39.8121 29.025M38.9371 28.6749C39.0996 28.6749 39.4246 28.5625 39.4871 28.3375M38.6996 28.1749C38.9346 28.1832 39.1663 28.1177 39.3621 27.9874M38.4496 27.5625C38.5871 27.45 38.8371 27.5749 39.0746 27.4249M38.6871 26.8125C38.7996 26.8125 39.0371 26.7749 39.0371 26.9249" stroke="black" stroke-width="0.0375" stroke-linecap="round" stroke-linejoin="round"/>
<path d="M53.6406 29.6719C53.6406 29.6719 52.5469 28.75 51.6406 28.125C50.7344 27.5 49.6406 26.7344 49.6406 26.5781C49.8125 26.4531 50.7344 27.0469 52 27.8125C53.2812 28.5938 54 29.3594 54 29.3594L53.6406 29.6719ZM53.5625 30.2969C53.5625 30.2969 52.5 29.6562 51.4531 29.2031C50.3594 28.75 48.7188 28.75 48.5469 28.5938C48.5469 28.4375 50.4531 28.3438 51.8125 28.8906C53.2031 29.5312 53.9219 29.9844 53.9219 29.9844L53.5625 30.2969ZM53.5469 31.3594C53.5469 31.3594 52.3906 30.8281 51.2656 30.5781C50.1719 30.3281 48.6094 30.4219 48.4219 30.2812C48.4219 30.125 50.3594 29.8125 51.8125 30.2812C53.2812 30.7344 53.9062 31.0469 53.9062 31.0469L53.5469 31.3594ZM53.4844 32.4375C53.4844 32.4375 52.6094 31.8438 51.4531 31.7188C50.3594 31.6094 48.9062 32.4375 48.7188 32.2812C48.7188 32.125 49.9844 31.2031 51.5625 31.3594C53.1094 31.5156 53.8438 32.125 53.8438 32.125L53.4844 32.4375ZM53.8438 29.0312C53.8438 29.0312 52.7344 28.0156 52.7344 27.3281C52.7344 26.7188 53.4062 25.7812 53.7031 25.7812C53.5469 26.0938 53.0312 26.7188 53.0312 27.3281C53.0312 27.9531 54.2031 28.7188 54.2031 28.7188L53.8438 29.0312Z" fill="#9E540A" stroke="black" stroke-width="0.034375" stroke-linecap="round" stroke-linejoin="round"/>
<path d="M53.844 29.0312C53.844 29.0312 54.0628 28.0156 54.0628 27.3281C54.0628 26.4062 53.4065 25.5625 53.469 25.3281C53.7034 25.5625 54.3597 26.25 54.3597 27.3281C54.3597 28.2656 54.2034 28.7188 54.2034 28.7188L53.844 29.0312Z" fill="#9E540A" stroke="black" stroke-width="0.034375" stroke-linecap="round" stroke-linejoin="round"/>
<path d="M54.1094 28.7031C54.1094 28.4062 54 28.1406 53.8125 27.9375C53.5625 27.6406 53.1875 27.5469 52.7969 27.6094C52.3281 27.6875 51.9531 27.9688 51.7188 28.4062C51.4062 28.9844 51.375 29.6094 51.3594 30.2188C51.3594 32.3281 51.4375 33.1875 51.5 35.2656C51.5156 35.875 51.625 37.125 51.3438 38.1094C51.2344 38.5312 51.1094 38.9219 50.9219 39.3281C51.0469 38.8125 51.1094 38.5469 51.1719 38.1562C51.3438 37.1406 51.2969 36.1875 51.2656 35.25C51.2031 33.3281 51.0938 32.3438 51.0312 30.0156C51.0156 29.3125 51.0781 28.7812 51.4062 28.2188C51.75 27.6406 52.3438 27.2188 53.0156 27.2188C53.2969 27.2188 53.5312 27.2656 53.7656 27.4062C54.2344 27.6562 54.4531 28.1719 54.4531 28.6875L54.1094 28.7031Z" fill="#9E540A" stroke="#FCD116" stroke-width="0.1875" stroke-linecap="round" stroke-linejoin="round"/>
<path d="M54.1094 28.7031C54.1094 28.4062 54 28.1406 53.8125 27.9375C53.5625 27.6406 53.1875 27.5469 52.7969 27.6094C52.3281 27.6875 51.9531 27.9688 51.7188 28.4062C51.4062 28.9844 51.375 29.6094 51.3594 30.2188C51.3594 32.3281 51.4375 33.1875 51.5 35.2656C51.5156 35.875 51.625 37.125 51.3438 38.1094C51.2344 38.5312 51.1094 38.9219 50.9219 39.3281C51.0469 38.8125 51.1094 38.5469 51.1719 38.1562C51.3438 37.1406 51.2969 36.1875 51.2656 35.25C51.2031 33.3281 51.0938 32.3438 51.0312 30.0156C51.0156 29.3125 51.0781 28.7812 51.4062 28.2188C51.75 27.6406 52.3438 27.2188 53.0156 27.2188C53.2969 27.2188 53.5312 27.2656 53.7656 27.4062C54.2344 27.6562 54.4531 28.1719 54.4531 28.6875L54.1094 28.7031Z" fill="#9E540A"/>
<path d="M54.2031 36.2344C54.2031 36.2344 53.7656 37.0156 53.4375 37.5781C53.1094 38.1406 52.8437 38.2656 52.5937 38.0938C52.3594 37.9219 52.5625 37.4688 52.75 37.25C52.9375 37.0312 53.9844 36.0156 53.9844 36.0156L54.2031 36.2344Z" fill="#9E540A" stroke="black" stroke-width="0.034375" stroke-linecap="round" stroke-linejoin="round"/>
<path d="M54.312 36.2969C54.312 36.2969 54.1402 37.1875 53.9995 37.8281C53.8745 38.4688 53.6558 38.6875 53.3902 38.6094C53.1089 38.5469 53.1558 38.0312 53.2652 37.7656C53.3745 37.5 54.0308 36.1562 54.0308 36.1562L54.312 36.2969Z" fill="#9E540A" stroke="black" stroke-width="0.034375" stroke-linecap="round" stroke-linejoin="round"/>
<path d="M54.5007 36.3281V37.8906C54.5007 38.5469 54.3444 38.8125 54.0475 38.7969C53.7663 38.7812 53.7038 38.2812 53.7663 37.9844C53.8132 37.7031 54.2038 36.25 54.2038 36.25L54.5007 36.3281Z" fill="#9E540A" stroke="black" stroke-width="0.034375" stroke-linecap="round" stroke-linejoin="round"/>
<path d="M55.3594 29.6719C55.3594 29.6719 56.4531 28.75 57.3594 28.125C58.2656 27.5 59.3594 26.7344 59.3594 26.5781C59.1875 26.4531 58.2656 27.0469 57 27.8125C55.7188 28.5938 55 29.3594 55 29.3594L55.3594 29.6719ZM55.4375 30.2969C55.4375 30.2969 56.5 29.6562 57.5469 29.2031C58.6406 28.75 60.2812 28.75 60.4531 28.5938C60.4531 28.4375 58.5469 28.3438 57.1875 28.8906C55.7969 29.5312 55.0781 29.9844 55.0781 29.9844L55.4375 30.2969ZM55.4531 31.3594C55.4531 31.3594 56.6094 30.8281 57.7344 30.5781C58.8281 30.3281 60.3906 30.4219 60.5781 30.2812C60.5781 30.125 58.6406 29.8125 57.1875 30.2812C55.7188 30.7344 55.0938 31.0469 55.0938 31.0469L55.4531 31.3594ZM55.5156 32.4375C55.5156 32.4375 56.3906 31.8438 57.5469 31.7188C58.6406 31.6094 60.0938 32.4375 60.2812 32.2812C60.2812 32.125 59.0156 31.2031 57.4375 31.3594C55.8906 31.5156 55.1562 32.125 55.1562 32.125L55.5156 32.4375ZM55.1562 29.0312C55.1562 29.0312 56.2656 28.0156 56.2656 27.3281C56.2656 26.7188 55.5938 25.7812 55.2969 25.7812C55.4531 26.0938 55.9688 26.7188 55.9688 27.3281C55.9688 27.9531 54.7969 28.7188 54.7969 28.7188L55.1562 29.0312Z" fill="#9E540A" stroke="black" stroke-width="0.034375" stroke-linecap="round" stroke-linejoin="round"/>
<path d="M55.156 29.0312C55.156 29.0312 54.9372 28.0156 54.9372 27.3281C54.9372 26.4062 55.5935 25.5625 55.531 25.3281C55.2966 25.5625 54.6403 26.25 54.6403 27.3281C54.6403 28.2656 54.7966 28.7188 54.7966 28.7188L55.156 29.0312Z" fill="#9E540A" stroke="black" stroke-width="0.034375" stroke-linecap="round" stroke-linejoin="round"/>
<path d="M54.8906 28.7031C54.8906 28.4062 55 28.1406 55.1875 27.9375C55.4375 27.6406 55.8125 27.5469 56.2031 27.6094C56.6719 27.6875 57.0469 27.9688 57.2812 28.4062C57.5938 28.9844 57.625 29.6094 57.6406 30.2188C57.6406 32.3281 57.5625 33.1875 57.5 35.2656C57.4844 35.875 57.375 37.125 57.6562 38.1094C57.7656 38.5312 57.8906 38.9219 58.0781 39.3281C57.9531 38.8125 57.8906 38.5469 57.8281 38.1562C57.6562 37.1406 57.7031 36.1875 57.7344 35.25C57.7969 33.3281 57.9062 32.3438 57.9688 30.0156C57.9844 29.3125 57.9219 28.7812 57.5938 28.2188C57.25 27.6406 56.6562 27.2188 55.9844 27.2188C55.7031 27.2188 55.4688 27.2656 55.2344 27.4062C54.7656 27.6562 54.5469 28.1719 54.5469 28.6875L54.8906 28.7031Z" fill="#9E540A" stroke="#FCD116" stroke-width="0.1875" stroke-linecap="round" stroke-linejoin="round"/>
<path d="M54.8906 28.7031C54.8906 28.4062 55 28.1406 55.1875 27.9375C55.4375 27.6406 55.8125 27.5469 56.2031 27.6094C56.6719 27.6875 57.0469 27.9688 57.2812 28.4062C57.5938 28.9844 57.625 29.6094 57.6406 30.2188C57.6406 32.3281 57.5625 33.1875 57.5 35.2656C57.4844 35.875 57.375 37.125 57.6562 38.1094C57.7656 38.5312 57.8906 38.9219 58.0781 39.3281C57.9531 38.8125 57.8906 38.5469 57.8281 38.1562C57.6562 37.1406 57.7031 36.1875 57.7344 35.25C57.7969 33.3281 57.9062 32.3438 57.9688 30.0156C57.9844 29.3125 57.9219 28.7812 57.5938 28.2188C57.25 27.6406 56.6562 27.2188 55.9844 27.2188C55.7031 27.2188 55.4688 27.2656 55.2344 27.4062C54.7656 27.6562 54.5469 28.1719 54.5469 28.6875L54.8906 28.7031Z" fill="#9E540A"/>
<path d="M54.7969 36.2344C54.7969 36.2344 55.2344 37.0156 55.5625 37.5781C55.8906 38.1406 56.1563 38.2656 56.4063 38.0938C56.6406 37.9219 56.4375 37.4688 56.25 37.25C56.0625 37.0312 55.0156 36.0156 55.0156 36.0156L54.7969 36.2344Z" fill="#9E540A" stroke="black" stroke-width="0.034375" stroke-linecap="round" stroke-linejoin="round"/>
<path d="M54.688 36.2969C54.688 36.2969 54.8598 37.1875 55.0005 37.8281C55.1255 38.4688 55.3442 38.6875 55.6098 38.6094C55.8911 38.5469 55.8442 38.0312 55.7348 37.7656C55.6255 37.5 54.9692 36.1562 54.9692 36.1562L54.688 36.2969Z" fill="#9E540A" stroke="black" stroke-width="0.034375" stroke-linecap="round" stroke-linejoin="round"/>
<path d="M54.4993 36.3281V37.8906C54.4993 38.5469 54.6556 38.8125 54.9525 38.7969C55.2337 38.7812 55.2962 38.2812 55.2337 37.9844C55.1868 37.7031 54.7962 36.25 54.7962 36.25L54.4993 36.3281Z" fill="#9E540A" stroke="black" stroke-width="0.034375" stroke-linecap="round" stroke-linejoin="round"/>
<path d="M54.5 36.3125C53.6719 36.2969 53.5938 36 53.5938 36C53.5938 36 53.4844 35.625 53.4688 35.3906C53.4531 35.3594 53.2344 34.8906 53.2969 34.6875C53.2188 34.5 53.0312 34.0469 53.2031 33.9688C53.125 33.75 53 33.5 52.9844 33.2656C52.9219 33.0938 52.7656 32.7188 52.8906 32.5938C52.8906 32.5938 52.5938 31.9688 52.7344 31.8125C52.7344 31.8125 52.5938 31.2031 52.7344 31.0469C52.7344 31.0469 52.7344 30.4219 52.8906 30.2656C52.8906 30.2656 52.8906 29.6562 53.0312 29.5C53.0312 29.5312 53.4688 28.6406 54.5 28.6406L54.4844 29.9688H54.5V36.3125Z" fill="#9E540A" stroke="black" stroke-width="0.034375" stroke-linecap="round" stroke-linejoin="round"/>
<path d="M54.5 32.9062C53.1719 32.8906 52.8906 32.5938 52.8906 32.5938M54.5 32.125C53.1719 32.125 52.7344 31.8125 52.7344 31.8125M54.5 31.3594C53.1719 31.3438 52.7344 31.0469 52.7344 31.0469M54.5 30.5781C53.1719 30.5625 52.8906 30.2656 52.8906 30.2656M54.4844 29.9688C54.5 29.9688 53.4844 29.9688 53.3281 29.8125L53.0312 29.5156M54.5 35.6875C54.1094 35.6875 53.6719 35.625 53.4688 35.3906M54.5 35.0625C53.7656 35.0625 53.3281 34.7656 53.3281 34.7656C53.3281 34.7656 53.3125 34.7344 53.2969 34.6875M54.5 34.2969C53.5312 34.2812 53.2656 34.0781 53.2031 33.9688M54.5 33.6719C53.1719 33.6719 53.0312 33.3594 53.0312 33.3594L52.9844 33.2656" stroke="black" stroke-width="0.034375" stroke-linecap="round" stroke-linejoin="round"/>
<path d="M54.5 36.3125C55.3281 36.2969 55.4062 36 55.4062 36C55.4062 36 55.5156 35.625 55.5312 35.3906C55.5469 35.3594 55.7656 34.8906 55.7031 34.6875C55.7812 34.5 55.9688 34.0469 55.7969 33.9688C55.875 33.75 56 33.5 56.0156 33.2656C56.0781 33.0938 56.2344 32.7188 56.1094 32.5938C56.1094 32.5938 56.4062 31.9688 56.2656 31.8125C56.2656 31.8125 56.4062 31.2031 56.2656 31.0469C56.2656 31.0469 56.2656 30.4219 56.1094 30.2656C56.1094 30.2656 56.1094 29.6562 55.9688 29.5C55.9688 29.5312 55.5312 28.6406 54.5 28.6406L54.5156 29.9688H54.5V36.3125Z" fill="#9E540A" stroke="black" stroke-width="0.034375" stroke-linecap="round" stroke-linejoin="round"/>
<path d="M54.5 32.9062C55.8281 32.8906 56.1094 32.5938 56.1094 32.5938M54.5 32.125C55.8281 32.125 56.2656 31.8125 56.2656 31.8125M54.5 31.3594C55.8281 31.3438 56.2656 31.0469 56.2656 31.0469M54.5 30.5781C55.8281 30.5625 56.1094 30.2656 56.1094 30.2656M54.5156 29.9688C54.5 29.9688 55.5156 29.9688 55.6719 29.8125L55.9688 29.5156M54.5 35.6875C54.8906 35.6875 55.3281 35.625 55.5312 35.3906M54.5 35.0625C55.2344 35.0625 55.6719 34.7656 55.6719 34.7656C55.6719 34.7656 55.6875 34.7344 55.7031 34.6875M54.5 34.2969C55.4688 34.2812 55.7344 34.0781 55.7969 33.9688M54.5 33.6719C55.8281 33.6719 55.9688 33.3594 55.9688 33.3594L56.0156 33.2656" stroke="black" stroke-width="0.034375" stroke-linecap="round" stroke-linejoin="round"/>
<path d="M48.2495 50.6875C47.5776 51.3125 46.2808 50.9062 45.8745 50.625C45.4526 50.7656 44.3276 50.3281 44.0308 49.8438C43.2183 49.9531 42.937 48.7969 43.0776 48.5C43.2964 48.0625 42.9058 47.7812 43.187 47.4844C43.5776 47.1094 42.9683 46.75 43.3433 46.5C43.7183 46.2344 43.2495 45.7969 43.6245 45.5156C44.0151 45.2188 43.4214 44.8125 43.8276 44.6094C44.2339 44.4062 43.7808 43.875 44.1245 43.6719C44.4683 43.4688 43.9214 42.9531 44.3901 42.7188C44.8433 42.4844 44.437 42.0781 44.7964 41.9062C45.187 41.7031 44.8276 41.2812 45.187 41.1406C45.5933 40.9688 45.2964 40.5156 45.6401 40.3906C45.937 40.2812 45.7495 40 45.937 39.75H48.2495" fill="#009E49"/>
<path d="M48.2495 50.6875C47.5776 51.3125 46.2808 50.9062 45.8745 50.625C45.4526 50.7656 44.3276 50.3281 44.0308 49.8438C43.2183 49.9531 42.937 48.7969 43.0776 48.5C43.2964 48.0625 42.9058 47.7812 43.187 47.4844C43.5776 47.1094 42.9683 46.75 43.3433 46.5C43.7183 46.2344 43.2495 45.7969 43.6245 45.5156C44.0151 45.2188 43.4214 44.8125 43.8276 44.6094C44.2339 44.4062 43.7808 43.875 44.1245 43.6719C44.4683 43.4688 43.9214 42.9531 44.3901 42.7188C44.8433 42.4844 44.437 42.0781 44.7964 41.9062C45.187 41.7031 44.8276 41.2812 45.187 41.1406C45.5933 40.9688 45.2964 40.5156 45.6401 40.3906C45.937 40.2812 45.7495 40 45.937 39.75H48.2495" stroke="black" stroke-width="0.034375" stroke-linecap="round" stroke-linejoin="round"/>
<path d="M46.7034 39.8438C46.3909 40.1562 46.7659 40.3906 46.4534 40.7656C46.1253 41.1562 46.4222 41.3594 46.1566 41.7031C45.8909 42.0469 46.2816 42.2188 45.9847 42.6094C45.6878 42.9844 46.0472 43.2188 45.7191 43.5312C45.4066 43.8594 45.7816 44.1406 45.4534 44.4844C45.1409 44.8438 45.5159 45.0781 45.2034 45.3906C44.8753 45.7188 45.2503 46.0625 44.9378 46.375C44.6253 46.7031 45.0003 47.1094 44.6409 47.4844C44.2972 47.8594 44.7034 48.1562 44.4222 48.4375C44.1253 48.7344 44.3909 49.0312 44.1878 49.2344C43.9847 49.4375 43.9534 49.7188 44.0316 49.8438M47.3128 39.9531C47.0316 40.3438 47.4691 40.5156 47.2034 40.8281C46.9378 41.1562 47.3128 41.2656 47.1097 41.6406C46.9066 42.0156 47.2659 42.1094 47.0003 42.4844C46.7347 42.8594 47.1409 43.1562 46.8597 43.5312C46.5628 43.9062 47.0003 44.1094 46.7347 44.4844C46.4847 44.875 46.8597 45.0781 46.6253 45.3594C46.3909 45.6562 46.7972 45.9375 46.5003 46.2969C46.2191 46.6406 46.6253 46.9062 46.3909 47.2188C46.1566 47.5469 46.4847 47.8906 46.2816 48.1562C46.0784 48.4062 46.4222 48.7969 46.1253 49.1406C45.8441 49.4844 46.1878 49.7188 46.0159 49.9531C45.8441 50.1875 45.7034 50.5312 45.8753 50.625" stroke="black" stroke-width="0.034375" stroke-linecap="round" stroke-linejoin="round"/>
<path d="M48.2485 50.6875C48.9204 51.3125 50.2173 50.9062 50.6235 50.625C51.0454 50.7656 52.1704 50.3281 52.4673 49.8438C53.2798 49.9531 53.561 48.7969 53.4204 48.5C53.2017 48.0625 53.5923 47.7812 53.311 47.4844C52.9204 47.1094 53.5298 46.75 53.1548 46.5C52.7798 46.2344 53.2485 45.7969 52.8735 45.5156C52.4829 45.2188 53.0767 44.8125 52.6704 44.6094C52.2642 44.4062 52.7173 43.875 52.3735 43.6719C52.0298 43.4688 52.5767 42.9531 52.1079 42.7188C51.6548 42.4844 52.061 42.0781 51.7017 41.9062C51.311 41.7031 51.6704 41.2812 51.311 41.1406C50.9048 40.9688 51.2017 40.5156 50.8579 40.3906C50.561 40.2812 50.7485 40 50.561 39.75H48.2485" fill="#009E49"/>
<path d="M48.2485 50.6875C48.9204 51.3125 50.2173 50.9062 50.6235 50.625C51.0454 50.7656 52.1704 50.3281 52.4673 49.8438C53.2798 49.9531 53.561 48.7969 53.4204 48.5C53.2017 48.0625 53.5923 47.7812 53.311 47.4844C52.9204 47.1094 53.5298 46.75 53.1548 46.5C52.7798 46.2344 53.2485 45.7969 52.8735 45.5156C52.4829 45.2188 53.0767 44.8125 52.6704 44.6094C52.2642 44.4062 52.7173 43.875 52.3735 43.6719C52.0298 43.4688 52.5767 42.9531 52.1079 42.7188C51.6548 42.4844 52.061 42.0781 51.7017 41.9062C51.311 41.7031 51.6704 41.2812 51.311 41.1406C50.9048 40.9688 51.2017 40.5156 50.8579 40.3906C50.561 40.2812 50.7485 40 50.561 39.75H48.2485" stroke="black" stroke-width="0.034375" stroke-linecap="round" stroke-linejoin="round"/>
<path d="M49.7946 39.8438C50.1071 40.1562 49.7321 40.3906 50.0446 40.7656C50.3727 41.1562 50.0759 41.3594 50.3415 41.7031C50.6071 42.0469 50.2165 42.2188 50.5134 42.6094C50.8102 42.9844 50.4509 43.2188 50.779 43.5312C51.0915 43.8594 50.7165 44.1406 51.0446 44.4844C51.3571 44.8438 50.9821 45.0781 51.2946 45.3906C51.6227 45.7188 51.2477 46.0625 51.5602 46.375C51.8727 46.7031 51.4977 47.1094 51.8571 47.4844C52.2009 47.8594 51.7946 48.1562 52.0759 48.4375C52.3727 48.7344 52.1071 49.0312 52.3102 49.2344C52.5134 49.4375 52.5446 49.7188 52.4665 49.8438M49.1852 39.9531C49.4665 40.3438 49.029 40.5156 49.2946 40.8281C49.5602 41.1562 49.1852 41.2656 49.3884 41.6406C49.5915 42.0156 49.2321 42.1094 49.4977 42.4844C49.7634 42.8594 49.3571 43.1562 49.6384 43.5312C49.9352 43.9062 49.4977 44.1094 49.7634 44.4844C50.0134 44.875 49.6384 45.0781 49.8727 45.3594C50.1071 45.6562 49.7009 45.9375 49.9977 46.2969C50.279 46.6406 49.8727 46.9062 50.1071 47.2188C50.3415 47.5469 50.0134 47.8906 50.2165 48.1562C50.4196 48.4062 50.0759 48.7969 50.3727 49.1406C50.654 49.4844 50.3102 49.7188 50.4821 49.9531C50.654 50.1875 50.7946 50.5312 50.6227 50.625" stroke="black" stroke-width="0.034375" stroke-linecap="round" stroke-linejoin="round"/>
<path d="M48.25 50.6875V39.75" stroke="#009E49" stroke-width="0.034375" stroke-linecap="round" stroke-linejoin="round"/>
<path d="M48.249 40.3125C48.1083 40.9219 48.4521 41.4531 48.249 41.9688C48.0458 42.4688 48.3896 42.6719 48.2802 43.0781C48.1552 43.4844 48.4208 43.7812 48.249 44.2188C48.0771 44.6562 48.4833 45 48.249 45.5781C48.0146 46.1406 48.4052 46.2812 48.249 46.8594C48.0771 47.5156 48.5458 47.8594 48.249 48.3281C47.9521 48.7969 48.5146 48.9062 48.2802 49.4375C48.0458 49.9531 48.4208 50.1562 48.249 50.6875" stroke="black" stroke-width="0.034375" stroke-linecap="round" stroke-linejoin="round"/>
<path d="M48.4844 42.2812C48.4062 42.4531 48.7188 42.8593 48.5469 43.1718C48.3594 43.4687 48.6406 43.9375 48.4531 44.3125C48.2656 44.6875 48.75 45.1562 48.5625 45.5937C48.3594 46.0312 48.6562 46.5781 48.5625 46.9843C48.4844 47.3906 48.7656 48.1718 48.5625 48.4531C48.3594 48.75 48.7656 48.8281 48.5312 49.5468C48.2969 50.2656 48.1406 49.6562 48.2812 49.4375C48.5781 48.9531 47.9531 48.7968 48.25 48.3281C48.5469 47.8593 48.0781 47.5156 48.25 46.8593C48.4062 46.2812 48.0156 46.1406 48.25 45.5781C48.4844 45 48.0781 44.6562 48.25 44.2187C48.4219 43.7812 48.1562 43.4843 48.2812 43.0781C48.3906 42.6718 48.0469 42.4687 48.25 41.9687C48.4062 41.4687 48.5625 42.1093 48.4844 42.2812ZM47.1719 42.7812C47.0625 42.9687 47.3594 43.3281 47.0938 43.6875C46.9062 43.9375 47.2188 44.2343 46.9531 44.5937C46.7812 44.8437 47.125 45.1562 46.8906 45.5156C46.7344 45.7187 47 46.1093 46.8125 46.4062C46.625 46.7187 46.9062 46.9687 46.5781 47.375C46.3906 47.5937 46.7188 48.1406 46.5156 48.3125C46.3125 48.4843 46.5 49.1562 46.3594 49.25C46.2344 49.3593 46.3594 49.8437 46.0156 49.9531C46.1875 49.7187 45.8438 49.4843 46.125 49.1406C46.4219 48.7968 46.0781 48.4062 46.2812 48.1562C46.4844 47.8906 46.1562 47.5468 46.3906 47.2187C46.625 46.9062 46.2188 46.6406 46.5 46.2968C46.7969 45.9375 46.3906 45.6562 46.625 45.3593C46.8594 45.0781 46.4844 44.875 46.7344 44.4843C47 44.1093 46.5625 43.9062 46.8594 43.5312C47.1406 43.1562 46.7344 42.8593 47 42.4843C47.2656 42.1093 46.9062 42.0156 47.1094 41.6406C47.4844 41.7812 47.2969 42.5937 47.1719 42.7812ZM46.3906 41.7656C46.2344 42.0156 46.4531 42.3125 46.2188 42.625C45.9844 42.9531 46.2188 43.3593 45.9844 43.625C45.75 43.875 46.0469 44.375 45.75 44.5781C45.4531 44.7812 45.6406 45.3906 45.4062 45.5937C45.1719 45.7968 45.4062 46.375 45.1406 46.6718C44.875 46.9687 45 47.5781 44.8438 47.7187C44.7031 47.8593 45.0469 48.1562 44.7969 48.3593C44.5312 48.5625 44.5312 48.9687 44.1875 49.2343C44.3906 49.0312 44.125 48.7343 44.4219 48.4375C44.7031 48.1562 44.2969 47.8593 44.6406 47.4843C45 47.1093 44.625 46.7031 44.9375 46.375C45.25 46.0625 44.875 45.7187 45.2031 45.3906C45.5156 45.0781 45.1406 44.8437 45.4531 44.4843C45.7812 44.1406 45.4062 43.8593 45.7188 43.5312C46.0469 43.2187 45.6875 42.9843 45.9844 42.6093C46.2812 42.2187 45.8906 42.0468 46.1562 41.7031C46.2812 41.5468 46.2812 41.4062 46.2812 41.2812C46.4688 40.7968 46.4688 41.6406 46.3906 41.7656Z" fill="#FCD116" stroke="black" stroke-width="0.034375" stroke-linecap="round" stroke-linejoin="round"/>
<path d="M46.0781 40.1094C46.0781 36.8281 46.5312 35.6875 48.25 35.6875C49.9688 35.6875 50.4219 36.8281 50.4219 40.1094H46.0781Z" fill="#CE1126" stroke="black" stroke-width="0.034375" stroke-linecap="round" stroke-linejoin="round"/>
<path d="M46.0781 40.1094C46.0781 36.8281 46.5312 35.6875 48.25 35.6875C47.4688 35.6875 46.9844 36.2969 46.8594 36.7031C46.7188 37.1094 46.7969 37.0781 46.9688 36.9219C47.1406 36.7656 47.0625 37.1094 46.9062 37.2969C46.7656 37.4844 46.625 38.0312 46.8281 37.8594C47.0312 37.6719 47.1875 37.875 46.9688 38.1875C46.75 38.4844 46.5625 39.2031 46.7812 38.9531C47 38.7031 47.0469 39.1094 46.9062 39.3125C46.7812 39.5156 46.7969 39.7031 46.9062 39.6094C47.0312 39.5156 47.0156 39.9375 46.9062 40.1094H46.0781ZM49.0625 40.0469C49.0625 39.5625 49.0781 38.4219 48.8125 38.0469C48.625 37.75 48.625 37.4375 48.8438 37.7812C49.0625 38.125 49.1719 37.9531 49.0156 37.6094C48.8281 37.1719 48.5781 36.6875 48.6406 36.5938C48.7188 36.4844 48.7656 36.5312 48.9219 36.7656C49.0781 37 49.1094 36.6562 48.9375 36.4219C48.7656 36.2031 48.7812 36.1562 49.1406 36.3125C49.7812 36.5781 50.0938 37.3438 50.0938 39.9219L49.0625 40.0469Z" fill="#000001" stroke="black" stroke-width="0.034375" stroke-linecap="round" stroke-linejoin="round"/>
<path d="M48.2498 40.5781C47.5623 40.5781 46.8123 40.4688 46.3123 40.2656C45.7186 40.0313 45.6873 39.8281 45.8904 39.5781C46.0467 39.3906 46.3592 39.5 46.6717 39.6406C46.9686 39.7656 47.8123 39.8594 48.2498 39.8594C48.6873 39.8594 49.5311 39.7656 49.8279 39.625C50.1404 39.5 50.4529 39.3906 50.6092 39.5781C50.8123 39.8281 50.7811 40.0313 50.1873 40.2656C49.6873 40.4688 48.9373 40.5781 48.2498 40.5781Z" fill="#CE1126" stroke="black" stroke-width="0.034375" stroke-linecap="round" stroke-linejoin="round"/>
<path d="M0 -0.0625H32V31.9375H0V-0.0625Z" fill="#012169"/>
<path d="M32 -0.0625V3.9375L20.125 15.9375L32 27.625V31.9375H27.8125L15.875 20.1875L4.25 31.9375H0V27.6875L11.625 16L0 4.5625V-0.0625H3.875L15.875 11.6875L27.5 -0.0625H32Z" fill="white"/>
<path d="M11.5 20.1875L12.1875 22.3125L2.625 31.9375H0V31.75L11.5 20.1875ZM19.25 19.4375L22.625 19.9375L32 29.125V31.9375L19.25 19.4375ZM32 -0.0625L20 12.1875L19.75 9.4375L29.125 -0.0625H32ZM0 0L12.0625 11.8125L8.375 11.3125L0 3V0Z" fill="#C8102E"/>
<path d="M11 -0.0625V31.9375H21V-0.0625H11ZM0 10.9375V20.9375H32V10.9375H0Z" fill="white"/>
<path d="M0 12.9375V18.9375H32V12.9375H0ZM13 -0.0625V31.9375H19V-0.0625H13Z" fill="#C8102E"/>
</g>
<defs>
<clipPath id="clip0_10790_13731">
<rect width="64" height="64" rx="32" fill="white"/>
</clipPath>
</defs>
</svg>
