<svg width="64" height="64" viewBox="0 0 64 64" fill="none" xmlns="http://www.w3.org/2000/svg">
<g clip-path="url(#clip0_10790_13541)">
<path d="M0 0H64V64H0V0Z" fill="#00843D"/>
<path d="M47.6625 7.0874C48.7265 7.53501 49.6808 8.2079 50.4597 9.05973C51.2387 9.91157 51.8237 10.9221 52.1746 12.0218C52.5255 13.1214 52.6339 14.2841 52.4923 15.4297C52.3507 16.5752 51.9626 17.6765 51.3545 18.6577C50.7464 19.6388 49.9329 20.4765 48.97 21.113C48.0071 21.7496 46.9177 22.1699 45.7768 22.345C44.6358 22.5201 43.4705 22.4458 42.361 22.1273C41.2516 21.8088 40.2243 21.2536 39.35 20.4999C41.1063 21.2599 43.0771 21.364 44.9038 20.7934C46.7304 20.2228 48.2915 19.0153 49.3029 17.3907C50.3143 15.7661 50.7088 13.8324 50.4146 11.9414C50.1204 10.0505 49.1571 8.32797 47.7 7.0874H47.6625ZM40.1 12.9374L40.95 10.1499L38.5875 11.8999H41.5625L39.2 10.1499L40.1 12.9374ZM40.1 8.8374L40.95 6.0874L38.5875 7.7874H41.5625L39.2 6.0874L40.1 8.8374ZM44.1125 10.9624L45.0125 8.1749L42.65 9.8749H45.575L43.2125 8.1749L44.1125 10.9624ZM35.9875 14.9249L36.9375 12.1749L34.5625 13.8874H37.45L35.0875 12.1874L35.9875 14.9249ZM40.05 17.0499L41 14.2624L38.625 15.9624H41.5125L39.15 14.2624L40.05 17.0499Z" fill="white"/>
<path d="M11.5254 0H28.8129V64H11.5254V0Z" fill="#D22630"/>
<path d="M15.7246 0H15.1621L14.0746 0.95L13.6496 0.575H14.0246L13.9746 0.1H13.2246L11.9496 1.4125V1.8875H12.5746V1.5125L12.8496 1.8L12.1371 2.3625L12.4746 2.6875L11.5246 3.6375V4.2L13.1746 2.7L12.8496 2.3625L13.5121 1.7375L12.9371 1.175L13.3121 0.8L14.0746 1.5125L15.7246 0ZM11.4746 0V1.175L11.8996 0.8V0.325H12.3246L12.6621 0H11.4746ZM14.6871 0H14.2121L14.3121 0.2875L14.6871 0Z" fill="#383739"/>
<path d="M15.6754 0H15.2129L14.0754 1.0375L13.5504 0.5625H14.0254L13.9379 0.1875H13.3129L12.0004 1.4125V1.7875H12.4754V1.325L12.9379 1.75L12.2379 2.3625L12.5629 2.6875L11.5254 3.6375V4.1625L13.0879 2.6875L12.7504 2.375L13.4629 1.75L12.8379 1.1875L13.3254 0.7625L14.0754 1.475L15.6754 0ZM11.5254 0V1.125L11.8504 0.75V0.2875H12.3254L12.5754 0H11.5254ZM14.6004 0H14.3129V0.1875L14.6004 0Z" fill="#FFC72C"/>
<path d="M11.5254 7.4126V8.0376L12.4754 8.9751L12.1254 9.2501L12.8379 9.9126L12.5504 10.1876V9.7626H11.9379V10.2501L13.2629 11.5251H13.9629L14.0129 11.0501H13.6879L14.1629 10.6751L15.2004 11.6251L14.1129 12.6126L13.6879 12.2376H14.0629L14.0129 11.7626H13.2129L11.8879 13.0376V13.5126H12.5129V13.1376L12.7879 13.3626L12.0754 14.0251L12.4129 14.3626L11.4629 15.2501V15.8751L13.1129 14.3626L12.7879 14.0251L13.4504 13.3626L12.8879 12.8501L13.2629 12.4751L14.0129 13.1751L15.6629 11.6751L14.0129 10.1126L13.2629 10.8126L12.8879 10.4376L13.4504 9.9251L12.7879 9.2626L13.1129 8.9751L11.4629 7.4126H11.5254ZM11.5254 10.4876V12.8501L11.9004 12.4251V11.9501H12.3254L12.6629 11.6626L12.3254 11.3376H11.9004V10.8626L11.5254 10.4876ZM14.3629 11.2876L14.2504 11.6251L14.3004 11.9501L14.6754 11.6251L14.3629 11.2876Z" fill="#383739"/>
<path d="M11.5254 7.5V8L12.5629 8.9375L12.2379 9.275L12.9379 9.9375L12.4754 10.3125V9.8375H12.0004V10.25L13.3254 11.475H13.9379L13.9754 11.1H13.5129L14.0754 10.625L15.2004 11.6625L14.0754 12.6625L13.5504 12.1875H14.0254L13.9379 11.8125H13.3129L12.0004 13.0375V13.4625H12.4754V12.9875L12.9379 13.3625L12.2379 14.025L12.5629 14.3625L11.5254 15.3V15.775L13.0879 14.3625L12.7504 14.025L13.4629 13.3625L12.8379 12.85L13.3254 12.375L14.0754 13.125L15.6754 11.6625L14.0754 10.2L13.3254 10.9125L12.8504 10.4375L13.4629 9.925L12.7504 9.25L13.0879 8.9625L11.5254 7.5ZM11.5254 10.5375V12.75L11.8504 12.425V11.95H12.3254L12.5754 11.6625L12.2754 11.3875H11.8504V10.9125L11.5254 10.5375ZM14.3629 11.3875L14.3129 11.625V11.85L14.6004 11.625L14.3629 11.3875Z" fill="#FFC72C"/>
<path d="M11.5246 19.4626V20.0751L12.4746 21.0126L12.1371 21.3001L12.8496 21.9251L12.5621 22.2001V21.8251H11.9496V22.2876L13.2746 23.5251H13.9746L14.0246 23.1001H13.6996L14.1746 22.7251L15.2121 23.6626L14.1246 24.6126L13.6996 24.2376H14.0746L14.0246 23.8001H13.2246L11.8996 25.0751V25.5501H12.5246V25.1251L12.7996 25.4126L12.0871 26.0751L12.4246 26.3501L11.4746 27.3001V27.8626L13.1246 26.3126L12.7996 26.0251L13.4621 25.3626L12.8996 24.8001L13.2746 24.4626L14.0246 25.1751L15.6746 23.6126L14.0246 22.1126L13.2746 22.8126L12.8996 22.4376L13.4621 21.8626L12.7996 21.2501L13.1246 20.9251L11.4746 19.4126L11.5246 19.4626ZM11.5246 22.4876V24.8501L11.8996 24.4751V24.0001H12.3246L12.6621 23.6626L12.3246 23.3376H11.8996V22.8626L11.5246 22.4876ZM14.3621 23.3376L14.2621 23.6626L14.3121 24.0001L14.6871 23.6626L14.3621 23.3376Z" fill="#383739"/>
<path d="M11.5254 19.5V19.975L12.5629 20.975L12.2379 21.3L12.9379 21.925L12.4754 22.3375V21.875H12.0004V22.3L13.3254 23.5375H13.9379L13.9754 23.1625H13.5129L14.0754 22.6875L15.2004 23.6875L14.0754 24.7125L13.5504 24.2375H14.0254L13.9379 23.8625H13.3129L12.0004 25.0375V25.4625H12.4754V24.9875L12.9379 25.3625L12.2379 26.025L12.5629 26.3125L11.5254 27.25V27.875L13.0879 26.45L12.7504 26.125L13.4629 25.4625L12.8379 24.8875L13.3254 24.4625L14.0754 25.175L15.6754 23.7625L14.0754 22.25L13.3254 22.95L12.8504 22.525L13.4629 21.9625L12.7504 21.3375L13.0879 21.0125L11.5254 19.5ZM11.5254 22.575V24.8L11.8504 24.4625V24H12.3254L12.5754 23.6625L12.2754 23.375H11.8504V22.9125L11.5254 22.575ZM14.3629 23.425L14.3129 23.675V23.9L14.6004 23.6625L14.3629 23.425Z" fill="#FFC72C"/>
<path d="M11.5246 31.4624V32.1124L12.4746 33.0124L12.1371 33.2999L12.8496 33.9624L12.5621 34.2374V33.8124H11.9496V34.2874L13.2746 35.5624H13.9746L14.0246 35.0874H13.6996L14.1746 34.7124L15.2121 35.6624L14.1246 36.6624L13.6996 36.2749H14.0746L14.0246 35.7999H13.2246L11.8996 37.0749V37.5499H12.5246V37.1749L12.7996 37.4499L12.0871 38.0749L12.4246 38.3999L11.4746 39.3499V39.9124L13.1246 38.3999L12.7996 38.0749L13.4621 37.4499L12.8996 36.8874L13.2746 36.5124L14.0246 37.2249L15.6746 35.7124L14.0246 34.1999L13.2746 34.8999L12.8996 34.5249L13.4621 33.9624L12.7996 33.2999L13.1246 33.0124L11.4746 31.4624H11.5246ZM11.5246 34.5249V36.8999L11.8996 36.5124V36.0374H12.3246L12.6621 35.7124L12.3246 35.3749H11.8996V34.8999L11.5246 34.5249ZM14.3621 35.3749L14.2621 35.6624L14.3121 35.9874L14.6871 35.6624L14.3621 35.3749Z" fill="#383739"/>
<path d="M11.5254 31.5498V32.0248L12.5629 33.0248L12.2379 33.2998L12.9379 33.9623L12.4754 34.3373V33.8623H12.0004V34.3373L13.3254 35.5248H13.9379L13.9754 35.1873H13.5129L14.0754 34.6623L15.2004 35.7123L14.0754 36.7498L13.5504 36.2748H14.0254L13.9379 35.8998H13.3129L12.0004 37.1248V37.4998H12.4754V37.0248L12.9379 37.4498L12.2379 38.0748L12.5629 38.3998L11.5254 39.3498V39.8123L13.0879 38.3998L12.7504 38.0748L13.4629 37.4498L12.8379 36.8873L13.3254 36.4123L14.0754 37.1623L15.6754 35.7123L14.0754 34.2373L13.3254 34.9498L12.8504 34.4748L13.4629 34.0123L12.7504 33.2998L13.0879 33.0123L11.5254 31.5498ZM11.5254 34.5748V36.8373L11.8504 36.5123V36.0373H12.3254L12.5754 35.7498L12.2754 35.4748H11.8504V34.9998L11.5254 34.6248V34.5748ZM14.3629 35.4748L14.3129 35.6623V35.8998L14.6004 35.6498L14.3629 35.4748Z" fill="#FFC72C"/>
<path d="M11.5246 43.5V44.125L12.4746 45.0625L12.1371 45.3375L12.8496 46L12.5621 46.2875V45.8125H11.9496V46.2875L13.2746 47.5625H13.9746L14.0246 47.0875H13.6996L14.1746 46.7125L15.2121 47.6625L14.1246 48.65L13.6996 48.275H14.0746L14.0246 47.8H13.2246L11.8996 49.075V49.55H12.5246V49.175L12.7996 49.4L12.0871 50.0625L12.4246 50.4L11.4746 51.3V51.9125L13.1246 50.4L12.7996 50.0625L13.4621 49.4L12.8996 48.8875L13.2746 48.5125L14.0246 49.2125L15.6746 47.7125L14.0246 46.15L13.2746 46.85L12.8996 46.475L13.4621 45.9625L12.7996 45.3L13.1246 45.0125L11.5246 43.5ZM11.5246 46.575V48.9375L11.8996 48.5125V48.0375H12.3246L12.6621 47.75L12.3246 47.425H11.8996V46.95L11.5246 46.575ZM14.3621 47.375L14.2621 47.7L14.3121 48.0375L14.6871 47.7L14.3621 47.375Z" fill="#383739"/>
<path d="M11.5254 43.6001V44.0626L12.5629 45.0126L12.2379 45.3376L12.9379 46.0001L12.4754 46.3751V45.9126H12.0004V46.3376L13.3254 47.5626H13.9379L13.9754 47.1876H13.5129L14.0754 46.7126L15.2004 47.7501L14.0754 48.7501L13.5504 48.2751H14.0254L13.9379 47.9001H13.3129L12.0004 49.1251V49.6001H12.4754V49.1251L12.9379 49.4501L12.2504 50.1251L12.5754 50.4626L11.5379 51.4001V51.8751L13.1004 50.4626L12.7629 50.1251L13.4754 49.4626L12.8504 48.9501L13.3379 48.4751L14.0879 49.2251L15.6879 47.7626L14.0879 46.3001L13.3379 47.0126L12.8629 46.5376L13.4754 46.0126L12.7629 45.3501L13.1004 45.0751L11.5254 43.6001ZM11.5254 46.6126V48.8376L11.8504 48.5126V48.0376H12.3254L12.5754 47.7501L12.2754 47.4626H11.8504V47.0001L11.5254 46.6126ZM14.3629 47.4626L14.3129 47.7126V47.9376L14.6004 47.7001L14.3629 47.4626Z" fill="#FFC72C"/>
<path d="M24.5625 0H25.175L26.2125 0.95L26.6875 0.575H26.25L26.3375 0.1H27L28.325 1.4125V1.8875H27.7625V1.5125L27.425 1.8L28.1375 2.3625L27.8125 2.6875L28.75 3.6375V4.2L27.15 2.7L27.475 2.3625L26.7625 1.7375L27.3875 1.175L26.9625 0.8L26.2125 1.5125L24.5625 0ZM28.8125 0V1.175L28.3875 0.8V0.325H28.0125L27.675 0H28.8125ZM25.65 0H26.075L25.975 0.2875L25.65 0Z" fill="#383739"/>
<path d="M24.6504 0H25.1254L26.2129 1.0375L26.7754 0.5625H26.3129L26.4004 0.1875H26.9254L28.3379 1.4125V1.8375H27.8754V1.375L27.4129 1.75L28.1629 2.3625L27.8379 2.6875L28.8754 3.6375V4.1625L27.2504 2.7375L27.5879 2.4125L26.9254 1.75L27.4004 1.175L26.9254 0.75L26.1754 1.4625L24.6504 0ZM28.8129 0V1.125L28.4379 0.75V0.2875H28.0004L27.7254 0H28.8129ZM25.6879 0H25.9754V0.1875L25.6879 0Z" fill="#FFC72C"/>
<path d="M28.8133 7.4126V8.0376L27.8133 8.9751L28.1508 9.2626L27.4383 9.9251L27.7758 10.2001V9.7751H28.3383V10.2501L27.0133 11.5251H26.3508L26.2633 11.0501H26.6383L26.2133 10.6751L25.1758 11.6251L26.2133 12.6126L26.6883 12.2376H26.2508L26.3383 11.7626H27.0008L28.3258 13.0376V13.5126H27.7633V13.1376L27.4258 13.3626L28.1383 14.0251L27.8133 14.3626L28.7508 15.2501V15.8751L27.1508 14.3626L27.4758 14.0251L26.7633 13.3626L27.3883 12.8501L26.9633 12.4751L26.2133 13.1751L24.5508 11.6751L26.2008 10.1126L26.9508 10.8126L27.3883 10.4376L26.7633 9.9251L27.5008 9.2501L27.1758 8.9626L28.8133 7.4126ZM28.8133 10.4876V12.8501L28.3883 12.4251V11.9501H28.0133L27.6758 11.6626L28.0133 11.3376H28.3883V10.8626L28.8133 10.4876ZM25.9758 11.2876L26.0258 11.6251V11.9501L25.6508 11.6251L25.9758 11.2876Z" fill="#383739"/>
<path d="M28.8133 7.5V8L27.7758 8.9375L28.1008 9.275L27.4008 9.9375L27.8258 10.3125V9.8375H28.2883V10.25L26.9758 11.475H26.4508L26.3508 11.1H26.8258L26.2633 10.625L25.1383 11.6625L26.2633 12.6625L26.8258 12.1875H26.3508L26.4508 11.8125H26.9258L28.2508 13.0375V13.4625H27.7758V12.9875L27.3008 13.3625L28.0508 14.025L27.7258 14.3625L28.7633 15.3V15.775L27.1633 14.375L27.4883 14.0375L26.8258 13.375L27.4008 12.8625L26.9258 12.3875L26.1758 13.1375L24.6133 11.675L26.1633 10.2125L26.9133 10.925L27.4008 10.45L26.9258 9.9375L27.5883 9.275L27.2508 8.9875L28.8133 7.5ZM28.8133 10.5375V12.75L28.4383 12.425V11.95H28.0008L27.7133 11.6625L28.0008 11.3875H28.4633V10.9125L28.8133 10.5375ZM25.9758 11.375V11.8375L25.7008 11.6125L25.9758 11.375Z" fill="#FFC72C"/>
<path d="M28.8133 19.4626V20.0751L27.8133 21.0126L28.1508 21.3001L27.4383 21.9251L27.7758 22.2001V21.8251H28.3383V22.2876L27.0133 23.5251H26.3508L26.2633 23.1001H26.6383L26.2133 22.7251L25.1758 23.6626L26.2133 24.6126L26.6883 24.2376H26.2508L26.3383 23.8001H27.0008L28.3258 25.0751V25.5501H27.7633V25.1251L27.4258 25.4126L28.1383 26.0751L27.8133 26.3501L28.7508 27.3001V27.8626L27.1508 26.3126L27.4758 26.0251L26.7633 25.3626L27.3883 24.8001L26.9633 24.4626L26.2133 25.1751L24.5508 23.6126L26.2008 22.1126L26.9508 22.8126L27.3883 22.4376L26.7633 21.8626L27.4758 21.2501L27.1508 20.9251L28.8008 19.4126L28.8133 19.4626ZM28.8133 22.4876V24.8501L28.3883 24.4751V24.0001H28.0133L27.6758 23.6626L28.0133 23.3376H28.3883V22.8626L28.8133 22.4876ZM25.9758 23.3376L26.0258 23.6626V24.0001L25.6508 23.6626L25.9758 23.3376Z" fill="#383739"/>
<path d="M28.8137 19.5V19.975L27.7762 20.975L28.1012 21.3L27.4012 21.925L27.8262 22.3375V21.875H28.2887V22.3L26.9762 23.5375H26.4512L26.3512 23.1625H26.8262L26.2637 22.6875L25.1387 23.6875L26.2637 24.7125L26.8262 24.2375H26.3512L26.4512 23.8625H26.9262L28.3387 25.05V25.475H27.8762V25L27.4137 25.375L28.1637 26.0375L27.8387 26.325L28.8762 27.2625V27.8875L27.2512 26.4375L27.5887 26.1125L26.9262 25.45L27.4887 24.875L27.0137 24.45L26.2637 25.1625L24.7012 23.75L26.2637 22.2375L27.0137 22.9375L27.4887 22.5125L26.9262 21.95L27.5887 21.325L27.2512 21L28.8137 19.5ZM28.8137 22.575V24.8L28.4387 24.4625V24H28.0012L27.7137 23.6625L28.0012 23.375H28.4637V22.9125L28.8137 22.575ZM25.9762 23.425V23.9L25.7012 23.6625L25.9762 23.425Z" fill="#FFC72C"/>
<path d="M28.8133 31.4626V32.1126L27.8133 33.0126L28.1508 33.3001L27.4383 33.9626L27.7758 34.2376V33.8126H28.3383V34.2876L27.0133 35.5626H26.3508L26.2633 35.0876H26.6383L26.2133 34.7126L25.1758 35.6626L26.2133 36.6626L26.6883 36.2751H26.2508L26.3383 35.8001H27.0008L28.3258 37.0751V37.5501H27.7633V37.1751L27.4258 37.4501L28.1383 38.0751L27.8133 38.4001L28.7508 39.3501V39.9126L27.1508 38.4001L27.4758 38.0751L26.7633 37.4501L27.3883 36.8376L26.9633 36.4626L26.2133 37.1751L24.5508 35.6626L26.2008 34.1501L26.9508 34.8626L27.3883 34.4876L26.7633 33.9126L27.4758 33.2501L27.1508 32.9626L28.8008 31.4126L28.8133 31.4626ZM28.8133 34.5251V36.9001L28.3758 36.5001V36.0251H28.0008L27.6633 35.7001L28.0008 35.3626H28.3758V34.8876L28.8133 34.5251ZM25.9758 35.3751L26.0258 35.6626V35.9876L25.6508 35.6626L25.9758 35.3751Z" fill="#383739"/>
<path d="M28.8133 31.55V32.0251L27.7758 33.0625L28.1008 33.35L27.4008 34.0126L27.8258 34.3876V33.9125H28.2883V34.3876L26.9758 35.5625H26.4508L26.3508 35.2375H26.8258L26.2633 34.7126L25.1383 35.75L26.2633 36.8L26.8258 36.3251H26.3508L26.4508 35.9501H26.9258L28.2508 37.175V37.55H27.7758V37.0751L27.3008 37.5L28.0508 38.125L27.7258 38.4501L28.7633 39.3876V39.8625L27.1633 38.4501L27.4883 38.1125L26.8258 37.5L27.4008 36.8376L26.9258 36.375L26.1758 37.125L24.6133 35.6625L26.1633 34.2001L26.9133 34.9001L27.4008 34.4375L26.8258 33.9626L27.4883 33.25L27.1633 32.9626L28.8133 31.55ZM28.8133 34.5751V36.8376L28.4383 36.5126V36.0375H28.0008L27.7133 35.75L28.0008 35.475H28.4633V35L28.8008 34.625L28.8133 34.5751ZM25.9758 35.475V35.9001L25.7008 35.6501L25.9758 35.475Z" fill="#FFC72C"/>
<path d="M28.8133 43.5V44.125L27.8133 45.0625L28.1508 45.3375L27.4383 46L27.7758 46.2875V45.8125H28.3383V46.2875L27.0133 47.5625H26.3508L26.2633 47.0875H26.6383L26.2133 46.7125L25.1758 47.6625L26.2133 48.65L26.6883 48.275H26.2508L26.3383 47.8H27.0008L28.3258 49.125V49.6H27.7633V49.225L27.4258 49.45L28.1383 50.1125L27.8133 50.45L28.7508 51.3375V51.9625L27.1508 50.45L27.4758 50.1125L26.7633 49.45L27.3883 48.9375L26.9633 48.5625L26.2133 49.2625L24.5508 47.7L26.2008 46.15L26.9508 46.85L27.3883 46.475L26.7633 45.9625L27.4758 45.3L27.1508 45.0125L28.8133 43.5ZM28.8133 46.575V48.9375L28.3758 48.5V48.025H28.0008L27.6633 47.7375L28.0008 47.4125H28.3758V46.9375L28.8133 46.575ZM25.9758 47.375L26.0258 47.7V48.0375L25.6508 47.7L25.9758 47.375Z" fill="#383739"/>
<path d="M28.8137 43.6001V44.0626L27.7762 45.0126L28.1012 45.3376L27.4012 46.0001L27.8262 46.3751V45.9126H28.2887V46.3376L26.9762 47.5626H26.4512L26.3512 47.1876H26.8262L26.2637 46.7126L25.1387 47.7501L26.2637 48.7501L26.8262 48.2751H26.3512L26.4512 47.9001H26.9262L28.3387 49.1251V49.6001H27.8762V49.1251L27.4137 49.4501L28.1637 50.1126L27.8387 50.4501L28.8762 51.3876V51.8626L27.2512 50.4501L27.5887 50.1126L26.9262 49.4501L27.4887 48.9376L27.0137 48.4626L26.2637 49.2126L24.7012 47.7501L26.2637 46.2876L27.0137 47.0001L27.4887 46.5251L26.9262 46.0001L27.5887 45.3376L27.2512 45.0626L28.8137 43.6001ZM28.8137 46.6126V48.8376L28.4387 48.5126V48.0376H28.0012L27.7137 47.7501L28.0012 47.4626H28.4637V47.0001L28.8137 46.6126ZM25.9762 47.4626V47.9376L25.7012 47.7001L25.9762 47.4626Z" fill="#FFC72C"/>
<path d="M12.9367 56.5875C12.9867 56.9625 13.2742 57.25 13.3617 57.625C13.5117 57.25 13.6117 56.9125 13.5117 56.5C13.4617 56.1625 13.2242 55.925 13.1742 55.6375C12.8992 55.8875 12.8492 56.2625 12.9367 56.5875ZM12.8492 58.1375C13.0919 58.464 13.4149 58.7224 13.7867 58.8875C13.6992 58.5625 13.8367 58.3875 13.9742 58.1375C14.1742 57.8625 14.2617 57.6249 14.1242 57.2874C14.0517 57.4588 13.9549 57.6187 13.8367 57.7625C13.6992 57.95 13.5992 58.1374 13.5492 58.4249C13.3729 58.2773 13.2427 58.082 13.1742 57.8624C13.0198 57.5839 12.7902 57.3544 12.5117 57.2C12.6117 57.525 12.6617 57.8625 12.8492 58.1375ZM14.1742 59.0875C14.1742 59.275 14.0742 59.4625 14.1242 59.65L13.5492 59.1875C13.2617 59.0504 13.0062 58.8545 12.7992 58.6124C12.7992 58.9874 12.9867 59.325 13.2742 59.5625L14.3617 60.1749C14.3117 59.8374 14.4492 59.5499 14.5492 59.2249C14.5924 59.079 14.5979 58.9244 14.5651 58.7758C14.5323 58.6271 14.4623 58.4892 14.3617 58.375C14.3617 58.625 14.2617 58.85 14.1742 59.0875ZM14.9242 60.3125L15.2992 61.025C14.9742 60.925 14.6367 60.6874 14.3617 60.5499C13.9867 60.3124 13.5492 60.225 13.2242 59.9375C13.3617 60.5625 13.7867 60.8875 14.3992 61.125C14.8742 61.25 15.2117 61.1625 15.7242 61.4C15.6692 61.0396 15.5596 60.6898 15.3992 60.3624L15.0242 59.65C14.9185 59.8536 14.8834 60.0866 14.9242 60.3125ZM16.2492 61.2625C16.3679 61.4662 16.5301 61.6412 16.7242 61.775C16.2492 61.775 15.7742 61.5 15.2992 61.5C15.0242 61.5 14.7367 61.5875 14.3992 61.5C14.7742 61.775 15.1492 61.975 15.6367 62.0625C16.1992 62.1125 16.7242 61.975 17.3367 62.0625C17.0778 61.8394 16.8655 61.5676 16.7117 61.2625C16.4867 60.8875 16.2492 60.5999 15.7742 60.5499C15.9617 60.7374 16.1117 61.025 16.2492 61.2625ZM17.9992 62.1124C17.0992 62.2499 16.2992 62.4375 15.3992 62.4375C16.3376 62.7997 17.374 62.8174 18.3242 62.4874C18.7567 62.2944 19.2256 62.1964 19.6992 62.2C20.5272 62.2927 21.2879 62.6999 21.8242 63.3375L22.0992 63.0999C21.5367 62.6327 20.8751 62.2998 20.1647 62.1266C19.4543 61.9533 18.7137 61.9442 17.9992 62.0999V62.1124Z" fill="#FFC72C"/>
<path d="M13.7004 7.49995L12.2754 6.62495V4.62495L13.7004 3.77495V2.68745L14.9754 1.88745H16.0629L18.0879 0.762451H22.3379L24.2754 1.88745H25.3129L26.6379 2.68745V3.77495L28.0504 4.62495V6.62495L26.6379 7.47495V8.56245L25.3129 9.31245H24.2754L22.2879 10.45H18.0379L16.0129 9.32495H14.9754L13.7004 8.61245V7.49995Z" fill="#383739"/>
<path d="M18.0379 0.800049L16.0629 1.92505H15.0254L13.7004 2.68755V3.77505L12.2754 4.62505V6.62505L13.7004 7.47505V8.56255L14.9754 9.31255H16.0629L18.0379 10.45H22.2879L24.2879 9.32505H25.3129L26.5879 8.56255V7.47505L28.0129 6.62505V4.62505L26.5879 3.77505V2.68755L25.3129 1.93755H24.2754L22.2879 0.812549L18.0379 0.800049ZM18.1379 1.27505H22.2004L24.1379 2.36255H25.1754L26.1254 2.92505V4.01255L27.5379 4.86255V6.37505L26.1254 7.22505V8.31255L25.1754 8.93755H24.1379L22.2004 10H18.1879L16.1504 8.96255H15.1254L14.1879 8.33755V7.26255L12.7504 6.42505V4.91255L14.1754 4.06255V2.93755L15.1129 2.36255H16.1504L18.1379 1.27505Z" fill="#00843D"/>
<path d="M20.125 5.6624V1.2749H18.125L16.1375 2.3999H15.125L14.1875 2.9749V4.0624L12.8125 4.9124V5.6249H20.1875V9.9249H22.2125L24.2 8.8374H25.2375L26.175 8.2624V7.1749L27.6 6.3249V5.6624H20.125Z" fill="#FFC72C"/>
<path d="M12.8008 5.6624V6.3749L14.2133 7.2249V8.3124L15.1633 8.8749H16.1633L18.1383 9.9624H20.1258V5.6624H27.5008V4.9624L26.0758 4.1124V2.9874L25.2258 2.3624H24.1883L22.1883 1.2749H20.2133V5.6624H12.8008Z" fill="white"/>
<path d="M15.8254 2.8375L15.4879 2.5L15.1629 2.6875L15.4879 3.025L15.0254 3.3125H16.0629L16.8629 4.0625L17.1504 3.775L16.3379 3.025V2.55L15.8254 2.8375Z" fill="#383739"/>
<path d="M17.475 2.65005L17.1 2.36255L16.7625 2.55005L17.1 2.87505L16.625 3.16255H17.625L18.4625 3.91255L18.7125 3.63755L17.95 2.88755V2.41255L17.475 2.65005ZM15.675 3.77505L15.3 3.45005L14.975 3.63755L15.35 3.96255L14.875 4.25005H15.825L16.675 5.00005L16.9625 4.72505L16.15 3.97505V3.50005L15.675 3.77505Z" fill="#383739"/>
<path d="M20.1621 1.2251H19.2746L18.7996 1.7001H17.9496L17.2871 2.0251L17.4746 2.3626L18.0371 2.0751H18.2871L19.2246 3.1126L20.1621 2.5001V1.2251Z" fill="#383739"/>
<path d="M15.5004 2.5501L15.7754 2.8376L15.5379 2.9751L15.2129 2.6876L15.5004 2.5501ZM16.2504 2.6001V3.0751L17.0504 3.7751L16.8129 4.0251L16.0629 3.2626H15.2504L16.3004 2.6001H16.2504ZM17.1004 2.4126L17.3879 2.6876L17.1379 2.8376L16.8629 2.5501L17.1004 2.4126ZM17.8504 2.4501V2.9251L18.6629 3.6376L18.4629 3.8751L17.6629 3.1251H16.8129L17.8504 2.4501Z" fill="#D22630"/>
<path d="M15.3508 3.45015L15.6758 3.73765L15.4008 3.92515L15.1133 3.58765L15.3508 3.45015ZM16.1508 3.50015V3.96265L16.9008 4.67515L16.7258 4.91265L15.9133 4.16265H15.1258L16.1508 3.50015ZM20.1258 1.27515H19.3758L18.8758 1.75015H17.9383L17.3758 2.02515L17.4633 2.31265L18.0258 2.02515H18.3133L19.1633 3.02515L20.1133 2.45015L20.1258 1.27515Z" fill="#D22630"/>
<path d="M15.8254 8.50005L15.4879 8.78755L15.1629 8.53755L15.4879 8.26255L15.0254 7.98755H16.0629L16.8629 7.17505L17.1504 7.46255L16.3379 8.21255V8.75005L15.8254 8.50005Z" fill="#383739"/>
<path d="M17.475 8.6001L17.1 8.9251L16.7625 8.6876L17.1 8.4126L16.625 8.1251H17.625L18.4625 7.3251L18.7125 7.6001L17.9 8.3501V8.8751L17.475 8.6001ZM15.675 7.5626L15.3 7.8876L14.975 7.6501L15.35 7.3251L14.875 7.0751H15.825L16.675 6.2876L16.9625 6.5626L16.15 7.3126V7.7876L15.675 7.5626Z" fill="#383739"/>
<path d="M20.1621 10.0125H19.2746L18.7996 9.58755H17.9496L17.2871 9.26255L17.4746 8.88755L18.0371 9.21255H18.2871L19.2246 8.17505L20.1621 8.73755V10.0125Z" fill="#383739"/>
<path d="M15.5004 8.73765L15.7754 8.45015L15.5379 8.26265L15.2129 8.55015L15.5004 8.73765ZM16.2504 8.68765V8.21265L17.0504 7.46265L16.8129 7.27515L16.0629 8.02515H15.2504L16.3004 8.68765H16.2504ZM17.1004 8.87515L17.3879 8.60015L17.1379 8.41265L16.8629 8.68765L17.1004 8.87515ZM17.8504 8.78765V8.31265L18.6629 7.60015L18.4629 7.41265L17.6629 8.16265H16.8129L17.8504 8.78765Z" fill="#D22630"/>
<path d="M15.3508 7.7875L15.6758 7.5125L15.4008 7.3625L15.1133 7.65L15.3508 7.7875ZM16.1508 7.7875V7.325L16.9008 6.575L16.7258 6.375L15.9133 7.125H15.1258L16.1508 7.7875ZM20.1258 9.9625H19.3758L18.8883 9.5375H17.9508L17.3883 9.2125L17.4758 8.925L18.0383 9.2625H18.3258L19.1758 8.2125L20.1258 8.7875V9.9625Z" fill="#D22630"/>
<path d="M15.2504 4.25L14.8254 4.0625L14.3129 4.4375V4.5375L13.4629 5.6625L14.3129 6.75V6.85L14.8254 7.225L15.2504 7.0875L15.0254 6.9V6.6125L15.1129 6.475H15.5879V4.8625H15.1129L15.0254 4.775V4.4375L15.2504 4.25Z" fill="#383739"/>
<path d="M14.3625 4.48755L14.825 4.11255L15.1625 4.25005L14.975 4.38755V4.72505L15.0625 4.86255H15.5375V6.37505H15.0625L14.975 6.51255V6.88755L15.1625 7.03755L14.825 7.13755L14.3625 6.80005V6.71255L13.5 5.62505L14.35 4.58755L14.3625 4.48755Z" fill="#D22630"/>
<path d="M24.4625 2.8375L24.8 2.5L25.175 2.6875L24.8 3.025L25.275 3.3125H24.325L23.475 4.0625L23.1875 3.775L24 3.025V2.55L24.4625 2.8375Z" fill="#383739"/>
<path d="M22.8629 2.65005L23.1879 2.36255L23.5254 2.55005L23.1879 2.87505L23.6629 3.16255H22.7254L21.8629 3.91255L21.5879 3.63755L22.3879 2.88755V2.41255L22.8629 2.65005ZM24.6129 3.77505L24.9379 3.45005L25.2754 3.63755L24.9379 3.96255L25.4129 4.25005H24.4129L23.5754 5.00005L23.3254 4.72505L24.0879 3.92505V3.45005L24.6129 3.77505Z" fill="#383739"/>
<path d="M20.1621 1.2251H21.0121L21.4871 1.7001H22.3371L22.9996 2.0251L22.8746 2.3751L22.2496 2.0876H22.0246L21.1246 3.1251L20.1746 2.5126L20.1621 1.2251Z" fill="#383739"/>
<path d="M24.8496 2.5501L24.5121 2.8376L24.7996 2.9751L25.0746 2.6876L24.8496 2.5501ZM24.0371 2.6001V3.0751L23.2871 3.7751L23.4746 4.0251L24.2746 3.2626H25.0746L24.0871 2.6001H24.0371ZM23.1871 2.4126L22.9121 2.6876L23.1496 2.8376L23.4746 2.5501L23.1871 2.4126ZM22.4371 2.4501V2.9251L21.7246 3.6376L21.9121 3.8751L22.6621 3.1251H23.4746L22.4371 2.4501Z" fill="#D22630"/>
<path d="M24.9371 3.45015L24.6496 3.73765L24.8996 3.92515L25.2246 3.58765L24.9371 3.45015ZM24.1871 3.50015V3.96265L23.3746 4.67515L23.6246 4.91265L24.4246 4.16265H25.2246L24.1871 3.50015ZM20.1621 1.27515H21.0121L21.4996 1.75015H22.3496L22.9746 2.02515L22.8246 2.31265L22.2996 2.02515H22.0246L21.1246 3.02515L20.1746 2.45015L20.1621 1.27515Z" fill="#D22630"/>
<path d="M24.4625 8.50005L24.8 8.78755L25.175 8.53755L24.8 8.26255L25.275 7.98755H24.325L23.475 7.17505L23.1875 7.46255L24 8.21255V8.75005L24.4625 8.50005Z" fill="#383739"/>
<path d="M22.8629 8.6001L23.1879 8.9251L23.5254 8.6876L23.1879 8.4126L23.6629 8.1251H22.7254L21.8629 7.3251L21.5879 7.6001L22.3879 8.3501V8.8751L22.8629 8.6001ZM24.6129 7.5626L24.9379 7.8876L25.2754 7.6501L24.9379 7.3251L25.4129 7.0751H24.4129L23.5754 6.2876L23.3254 6.5626L24.1379 7.3126V7.8376L24.6129 7.5626Z" fill="#383739"/>
<path d="M20.1621 10.0125H21.0121L21.4871 9.58755H22.3371L22.9996 9.26255L22.8621 8.88755L22.2371 9.21255H22.0121L21.1121 8.17505L20.1621 8.73755V10.0125Z" fill="#383739"/>
<path d="M24.8496 8.73765L24.5121 8.45015L24.7996 8.26265L25.0746 8.55015L24.8496 8.73765ZM24.0371 8.68765V8.21265L23.2871 7.46265L23.4746 7.27515L24.2746 8.02515H25.0746L24.0871 8.68765H24.0371ZM23.1871 8.87515L22.9121 8.60015L23.1496 8.41265L23.4746 8.68765L23.1871 8.87515ZM22.4371 8.78765V8.31265L21.7246 7.65015L21.9121 7.46265L22.7246 8.21265H23.5246L22.4871 8.83765L22.4371 8.78765Z" fill="#D22630"/>
<path d="M24.9371 7.7875L24.6496 7.5125L24.8996 7.3625L25.2246 7.65L24.9371 7.7875ZM24.1871 7.7875V7.325L23.3746 6.575L23.6246 6.375L24.4246 7.125H25.2246L24.1871 7.7875ZM20.1621 9.9125H21.0121L21.4996 9.5H22.3496L22.9746 9.175L22.8246 8.8875L22.2996 9.225H22.0246L21.1246 8.1875L20.1746 8.75L20.1621 9.9125Z" fill="#D22630"/>
<path d="M25.0367 4.25L25.4992 4.0625L25.9742 4.4375V4.5375L26.9242 5.6625L25.9742 6.7125V6.8L25.4117 7.175L24.9867 7.0375L25.2742 6.85V6.6125L25.1742 6.475H24.6992V4.8625H25.1742L25.2742 4.775V4.4375L25.0367 4.25Z" fill="#383739"/>
<path d="M25.9738 4.48755L25.4613 4.11255L25.1738 4.25005L25.3613 4.38755V4.72505L25.2238 4.86255H24.7988V6.37505H25.2738L25.3613 6.51255V6.88755L25.1738 7.03755L25.4613 7.13755L25.9238 6.80005V6.71255L26.7738 5.62505L25.9738 4.58755V4.48755Z" fill="#D22630"/>
<path d="M14.5504 6.5125L14.3004 6.325V6.25L13.8379 5.625L14.3129 5.025V4.925L14.5504 4.7375L14.9254 5.0625H14.6879L15.0629 5.4375H15.8754L16.4879 4.975V3.5375H18.0879L19.9754 2.4125V2.125L19.6504 1.9375H19.6004L19.2754 2.125L19.2254 2.3125L18.9879 1.9875L19.4629 1.5625H19.5129L20.0754 1.1875H20.2629L20.7879 1.5625H20.8754L21.3504 1.9875L21.0629 2.3125V2.125L20.7379 1.9375H20.6379L20.3754 2.125V2.4125L22.2504 3.5375H23.8129V4.875L24.4754 5.35H25.2879L25.6129 5.025H25.3754L25.8004 4.6875L26.0379 4.875V4.975L26.5129 5.5875L26.0379 6.2V6.3L25.8004 6.4875L25.3754 6.125H25.6129L25.2879 5.8H24.4754L23.8129 6.275V7.5875H22.2129L20.3629 8.75V9.0375L20.6379 9.225H20.7379L21.0129 9.0375L21.0629 8.8875L21.3504 9.225L20.8754 9.6H20.7879L20.2629 9.975H20.0754L19.5129 9.6H19.4629L18.9879 9.225L19.2254 8.8875L19.2754 9.0375L19.6004 9.225H19.6504L19.9379 9.0375V8.75L18.0879 7.625H16.5379V6.275L15.9129 5.8H15.1254L14.7504 6.125H14.9879L14.5504 6.5125Z" fill="#383739"/>
<path d="M20.1617 9.2999L20.3617 9.4499L20.1617 9.6374V9.2999ZM19.5492 9.5874L20.0242 9.9624H20.1242V9.6874L19.8367 9.4374L20.1242 9.2624V8.6874L18.1242 7.4624H16.7117V6.2374L15.8617 5.6624H14.7242L14.4367 5.9999L14.1617 5.6624H13.8242L14.2992 6.2374V6.3249L14.4367 6.4749L14.7742 6.2249H14.6242V6.1874L14.9992 5.8124H15.8617L16.5242 6.2874V7.5999H18.0742L19.9617 8.7874V9.1124L19.6867 9.2999H19.5367L19.2117 9.1124V8.9749L19.0242 9.2124L19.4992 9.5374L19.5492 9.5874ZM14.4992 5.3374L14.7367 5.6249H14.2492L14.4992 5.3374ZM20.1617 1.6499L19.9367 1.7999L20.1242 1.9249L20.1617 1.6499ZM25.5492 5.6624L25.7367 5.9124L25.9867 5.6624H25.5492ZM20.7867 1.6624L20.2617 1.2749H20.1617V1.5999L20.4492 1.7999L20.1617 2.0249V2.5999L22.1992 3.7749H23.6117V5.0124L24.3617 5.6249H25.4992L25.7867 5.2874L26.1242 5.6249H26.4492L25.9742 5.0499V4.9624L25.7867 4.7749L25.4992 4.9999H25.6492V5.0374L25.2742 5.4624H24.4242L23.7617 4.9499V3.6249H22.1992L20.3117 2.4999V2.1624L20.6367 1.9124H20.7367L21.0617 2.1624V2.2499L21.2492 2.0124L20.8242 1.6374L20.7867 1.6624Z" fill="#FFC72C"/>
<path d="M20.1242 9.6249L19.9367 9.4499L20.1242 9.2999V9.6249ZM14.7367 5.6624L14.4992 5.9124L14.2617 5.6624H14.7367ZM20.7867 9.5874L20.2617 9.9624H20.1617V9.6874L20.4492 9.4374L20.1617 9.2624V8.6874L22.1617 7.4624H23.6117V6.2374L24.3617 5.6624H25.4992L25.7867 5.9999L26.1242 5.6624H26.4492L25.9742 6.2374V6.3249L25.7867 6.4749L25.4992 6.2249H25.6492V6.1874L25.2742 5.8124H24.4242L23.7617 6.2874V7.5999H22.1992L20.3117 8.7874V9.1124L20.6367 9.2999H20.7367L21.0617 9.1124V8.9749L21.2492 9.2124L20.8242 9.5374L20.7867 9.5874ZM25.7867 5.3374L25.5992 5.6249H26.0742L25.7867 5.3374ZM19.5492 1.6499L20.0242 1.2749H20.1242V1.5999L19.8367 1.7999L20.1242 2.0249V2.5999L18.1242 3.7749H16.7117V5.0124L15.8617 5.6624H14.7242L14.4367 5.3374L14.1617 5.6624H13.8242L14.2992 5.0999V5.0124L14.4367 4.8124L14.7742 5.0624H14.6242V5.0999L14.9992 5.5249H15.8617L16.5242 5.0124V3.6249H18.0742L19.9617 2.4999V2.1624L19.6867 1.9124H19.5367L19.2117 2.1624V2.2499L19.0242 2.0124L19.4992 1.6374L19.5492 1.6499ZM20.1742 1.9374L20.3617 1.7999L20.1617 1.6499L20.1742 1.9374Z" fill="white"/>
<path d="M20.125 5.6624V2.6499L18.1875 3.7749H16.75V5.0124L16 5.5749H20.15V8.5999L22.15 7.3624H23.5625V6.1874L24.3125 5.6249L20.125 5.6624Z" fill="#00843D"/>
<path d="M16 5.6626L16.725 6.2376V7.4126H18.125L20.1125 8.6376V5.6251H24.3125L23.5625 5.0501V3.7751H22.1375L20.15 2.6001V5.6626H16Z" fill="#D22630"/>
<path d="M18.0383 4.16245L17.7133 3.82495L17.3383 4.06245L17.7133 4.38745L17.2383 4.63745H18.1883L19.0383 5.43745L19.3133 5.14995L18.5133 4.39995V3.92495L18.0383 4.16245ZM22.2883 7.08745L22.6258 7.41245L22.9508 7.22495L22.6258 6.89995L23.0508 6.61245H22.1008L21.2508 5.86245L21.0133 6.13745L21.8258 6.88745V7.37495L22.2883 7.08745ZM18.0383 7.08745L17.7133 7.41245L17.3383 7.22495L17.7133 6.89995L17.2383 6.61245H18.1883L19.0383 5.86245L19.3133 6.13745L18.5133 6.88745V7.37495L18.0383 7.08745ZM22.2883 4.16245L22.6258 3.82495L22.9508 4.06245L22.6258 4.38745L23.0508 4.63745H22.1008L21.2508 5.43745L21.0133 5.14995L21.8258 4.39995V3.92495L22.2883 4.16245Z" fill="#383739"/>
<path d="M22.6258 7.37505L22.2883 7.08755L22.5758 6.90005L22.8633 7.17505L22.6258 7.37505ZM21.8758 7.32505V6.85005L21.0633 6.13755L21.2508 5.90005L22.0633 6.65005H22.9133L21.8758 7.32505ZM17.6633 3.92505L18.0008 4.20005L17.7508 4.35005L17.4258 4.06255L17.6633 3.92505ZM18.4633 3.92505V4.37505L19.2133 5.12505L19.0383 5.32505L18.2383 4.57505H17.4883L18.4258 3.95005L18.4633 3.92505Z" fill="#D22630"/>
<path d="M22.6258 3.92505L22.2883 4.20005L22.5758 4.35005L22.8633 4.06255L22.6258 3.92505ZM21.8758 3.92505V4.37505L21.0633 5.18755L21.2508 5.37505L22.0633 4.62505H22.9133L21.8758 3.92505ZM17.6633 7.36255L18.0008 7.08755L17.7508 6.90005L17.4258 7.17505L17.6633 7.36255ZM18.4633 7.32505V6.85005L19.2133 6.13755L19.0383 5.90005L18.2383 6.65005H17.4883L18.5133 7.32505H18.4633Z" fill="#00843D"/>
<path d="M22.2871 5.6625L20.1621 7.0875L18.0371 5.6625L20.1621 4.25L22.2871 5.6625Z" fill="#383739"/>
<path d="M20.125 4.25L18.125 5.6625H22.1875L20.1625 4.25V6.9375L22.2 5.6625H18.1875L20.1625 7L20.125 4.25Z" fill="white"/>
<path d="M20.7371 6.13745V6.51245H19.6121V6.13745H18.8496V5.13745H19.5996V4.76245H20.7246V5.13745H21.4371V6.08745L20.7371 6.13745Z" fill="#383739"/>
<path d="M19.6492 4.8125V5.1875H18.8992V5.625H20.1242V4.8125H19.6492ZM20.1617 5.625H21.3992V5.15H20.6867V4.8125H20.2117V5.625H20.1617ZM18.8867 5.625V6.0875H19.6367V6.4625H20.1242V5.6625L18.8867 5.625ZM20.1617 6.475H20.6367V6.1H21.3867V5.625H20.1617V6.475Z" fill="#D22630"/>
<path d="M23.75 21.725V21.125H25.5V20.4625H27.2V14.8375H25.5V14.225H23.8V13.6125H22.1V13H18.325V13.625H16.5375V14.225H14.825V14.85H13.125V20.5H14.825V21.1125H16.5375V21.7375H18.2375V22.3375H22.0625V21.725H23.75Z" fill="#383739"/>
<path d="M18.2746 13.0376V13.6501H16.5746V14.2751H14.8746V14.8751H13.2246V20.4001H14.9246V21.0626H16.6246V21.6876H18.3246V22.2876H22.0996V21.6751H23.7621V21.0626H25.4621V20.4001H27.1621V14.8751H25.4621V14.2626H23.7496V13.7001H22.0496V13.0751L18.2746 13.0376ZM18.7496 13.5126H21.5871V14.1251H23.2871V14.7376H24.9871V15.3501H26.6871V19.9751H24.9871V20.6001H23.2871V21.2126H21.5871V21.8251H18.7496V21.2501H16.9996V20.6376H15.2996V20.0251H13.5996V15.4001H15.2996V14.7751H16.9996V14.1751H18.6996L18.7496 13.5126Z" fill="#FFC72C"/>
<path d="M17.0992 21.1625V20.5375H15.3992V19.9375H13.6992V15.4H15.3992V14.775H17.0992V14.175H18.7992V13.5H21.5367V14.1625H23.2367V14.775H24.9367V15.3875H26.6367V19.925H24.9367V20.5375H23.2492V21.15H21.5492V21.7625H18.7992V21.1375L17.0992 21.1625Z" fill="#D22630"/>
<path d="M17.475 14.6375L17 14.2625V14.925L16.625 15.2125V14.7875L16.2 15.1625L15.825 14.7875V15.2125L15.35 14.875V15.5L14.975 15.775V15.4L14.5 15.725L14.025 15.4V15.775L13.65 15.45V17.2375H13.125V18.0875H13.6V19.8375L14.075 19.5125V19.8875L14.55 19.55L14.975 19.8875V19.5125L15.35 19.7875V20.4125L15.825 20.075V20.5L16.2 20.125L16.625 20.5V20.075L17.05 20.3625V21.0125L17.525 20.6375V21.1125L17.9 20.7375L18.375 21.1125V20.6375L18.75 20.975V21.6375L19.3125 21.1125V21.7375L20.1625 21.25L20.975 21.725V21.125L21.5875 21.65V20.9875L21.9625 20.65V21.125L22.4375 20.75L22.8125 21.125V20.65L23.2875 21.025V20.375L23.7125 20.0875V20.5125L24.0875 20.1375L24.5125 20.5125V20.0875L24.9875 20.4125V19.85L25.3625 19.5625V19.9375L25.8375 19.6125L26.2625 19.95V19.575L26.6875 19.9V18.1H27.1625V17.25H26.6875V15.4625L26.2125 15.7875V15.4125L25.7875 15.7375L25.3125 15.4125V15.7875L25 15.5V14.875L24.525 15.2125V14.7875L24.1 15.1625L23.725 14.7875V15.2125L23.25 14.925V14.2625L22.825 14.6V14.125L22.4 14.6L21.975 14.125V14.6L21.6 14.3125V13.65L20.975 14.175V13.55L20.175 14.025L19.325 13.55V14.175L18.7625 13.65V14.3125L18.3375 14.6V14.125L17.9125 14.6L17.4875 14.125L17.475 14.6375Z" fill="#383739"/>
<path d="M14.1258 15.875V15.5L14.5008 15.775L14.9258 15.4875V15.8625L15.3508 15.5375V19.7875L14.8758 19.4625V19.8375L14.5008 19.55L14.1258 19.8375V19.4625L13.6508 19.7875V18.0375H13.1758V17.2875H13.6508V15.5875L14.1258 15.875ZM17.5258 14.2625L17.9008 14.6L18.2758 14.2625V14.7375L18.7508 14.3625V20.975L18.2758 20.6375V21.0625L17.9008 20.6875L17.5258 21.0625V20.5875L17.0508 20.9625V14.375L17.5258 14.7V14.2625ZM22.7758 14.2625L22.4008 14.6L22.0133 14.2625V14.7375L21.5383 14.3625V20.975L22.0133 20.6375V21.0625L22.3883 20.6875L22.7633 21.0625V20.5875L23.2383 20.9625V14.375L22.7633 14.7L22.7758 14.2625ZM26.2133 15.875V15.5L25.7883 15.775L25.4133 15.4875V15.8625L24.9383 15.5375V19.7875L25.4133 19.4625V19.8375L25.7883 19.55L26.2133 19.8375V19.4625L26.6383 19.7875V18.0375H27.1133V17.2875H26.6258V15.5875L26.2133 15.875Z" fill="#00843D"/>
<path d="M15.8754 14.8751L16.2004 15.2126L16.5754 14.8751V15.2501L17.0504 14.9751V20.3501L16.5754 20.0751V20.4501L16.2004 20.1251L15.8754 20.4501V20.0751L15.4004 20.3626V14.9751L15.8754 15.2501V14.8751ZM19.3754 14.2626L18.8004 13.7501V21.5876L19.3629 21.0626V21.7251L20.1629 21.2126L20.9129 21.6751V21.0626L21.5379 21.5876V13.7501L20.9129 14.2626V13.6001L20.1629 14.0751L19.3629 13.6001L19.3754 14.2626ZM24.4629 14.8876L24.0879 15.2126L23.7629 14.8751V15.2501L23.2879 14.9751V20.3501L23.7629 20.0751V20.4501L24.0879 20.1251L24.4629 20.4501V20.0751L24.9379 20.3626V14.9751L24.4629 15.2501V14.8876Z" fill="#FFC72C"/>
<path d="M14.3133 16.9125L14.5008 16.9625L14.6883 16.9125C14.758 16.8091 14.8062 16.6927 14.8298 16.5702C14.8534 16.4478 14.8521 16.3219 14.8258 16.2L14.6383 16.4375L14.5008 16.25L14.3633 16.4375L14.1758 16.2C14.1758 16.4375 14.1758 16.725 14.3008 16.9125H14.3133ZM16.1133 16.4375L15.9633 16.3V16L15.6383 16.2875L16.2008 16.85L16.7633 16.2875L16.4383 16V16.2875L16.3383 16.425V15.95L16.5883 15.7125L16.2133 15.4375L15.8758 15.7125L16.1133 15.9625V16.4375ZM17.8133 15.875L17.6633 15.775V15.5L17.3383 15.7875L17.9008 16.35L18.4633 15.7875L18.1383 15.5V15.7875L18.0383 15.8875V15.4125L18.2883 15.225L17.9133 14.8875L17.5758 15.225L17.8133 15.4125V15.875Z" fill="#383739"/>
<path d="M14.5004 16.3374L14.6379 16.5374L14.7879 16.3374C14.7879 16.5874 14.7879 16.7624 14.6379 16.8124C14.6203 16.8313 14.5991 16.8464 14.5754 16.8568C14.5517 16.8671 14.5262 16.8724 14.5004 16.8724C14.4746 16.8724 14.449 16.8671 14.4254 16.8568C14.4017 16.8464 14.3804 16.8313 14.3629 16.8124C14.2629 16.7624 14.2129 16.5749 14.2129 16.3374L14.4004 16.5374L14.5004 16.3374ZM18.0004 15.3999V16.0124L18.1879 15.7749V15.5874L18.4254 15.7749L17.9504 16.2499L17.4254 15.7749L17.6129 15.5874V15.7749L17.8629 16.0124V15.3874L17.6129 15.2124L17.9004 14.9624L18.1879 15.2124L18.0004 15.3999Z" fill="white"/>
<path d="M16.3016 15.9125V16.5375L16.4891 16.2875V16.125L16.7266 16.3125L16.2516 16.775L15.7266 16.3125L15.9141 16.125V16.3125L16.1641 16.55V15.925L15.9141 15.7375L16.2016 15.5L16.4891 15.75L16.3016 15.9125Z" fill="#D22630"/>
<path d="M25.9762 16.9125L25.7887 16.9625L25.6012 16.9125C25.4637 16.725 25.4637 16.4375 25.4637 16.2L25.7012 16.4375L25.7887 16.25L25.9262 16.4375L26.1762 16.2C26.1762 16.4375 26.1762 16.725 25.9762 16.9125ZM24.2262 16.4375L24.3262 16.3V16L24.6512 16.2875L24.0887 16.85L23.5262 16.2875L23.8512 16V16.2875L24.0012 16.425V15.95L23.7512 15.7125L24.0887 15.4375L24.4637 15.7125L24.2262 15.9625V16.4375ZM22.4762 15.875L22.6262 15.775V15.5L22.9512 15.7875L22.3887 16.35L21.8262 15.7875L22.1512 15.5V15.7875L22.2887 15.8875V15.4125L22.0637 15.225L22.3887 14.8875L22.7637 15.225L22.4887 15.4125L22.4762 15.875Z" fill="#383739"/>
<path d="M25.7891 16.3374L25.7016 16.5374L25.5016 16.3374C25.5016 16.5874 25.5516 16.7624 25.6516 16.8124C25.668 16.841 25.6917 16.8647 25.7202 16.8812C25.7487 16.8977 25.7811 16.9064 25.8141 16.9064C25.847 16.9064 25.8794 16.8977 25.9079 16.8812C25.9364 16.8647 25.9601 16.841 25.9766 16.8124C26.0766 16.7624 26.1266 16.5749 26.1266 16.3374L25.9266 16.5374L25.7891 16.3374ZM22.3391 15.3999V16.0124L22.1016 15.7749V15.5874L21.9141 15.7749L22.3891 16.2499L22.8641 15.7749L22.6766 15.5874V15.7749L22.4891 16.0124V15.3874L22.6766 15.2124L22.3891 14.9624L22.1016 15.2124L22.3391 15.3999Z" fill="white"/>
<path d="M24.0383 15.9125V16.5375L23.8008 16.2875V16.125L23.6133 16.3125L24.0883 16.775L24.5633 16.3125L24.3758 16.125V16.3125L24.1883 16.55V15.925L24.3758 15.7375L24.0883 15.5L23.8008 15.75L24.0383 15.9125Z" fill="#D22630"/>
<path d="M20.7883 16.0625L20.6383 15.8125L21.1133 15.4L20.6383 15.0625V15.3125L20.5008 15.4375V14.975L20.9258 14.6875L20.1758 14.125L19.4133 14.6875L19.8383 15.025V15.4875L19.6508 15.3V15.0625L19.1758 15.4L19.6508 15.875L19.5133 16.1125L20.7883 16.0625Z" fill="#383739"/>
<path d="M19.5504 16.0624L19.7379 15.8124L19.2754 15.3999L19.6004 15.1499V15.2999L19.8879 15.5499V14.9749L19.4629 14.6874L20.1629 14.2124L20.8254 14.6874L20.4504 14.9749V15.5374L20.7379 15.2999V15.1624L21.0629 15.3999L20.5879 15.8749L20.7379 16.0624H19.5504Z" fill="#D22630"/>
<path d="M19.8379 14.6875L20.1629 14.925L20.5004 14.6875L20.1629 14.45L19.8379 14.6875Z" fill="#383739"/>
<path d="M20.1637 14.5L20.4137 14.6875L20.1637 14.875L19.8887 14.6875L20.1637 14.5Z" fill="#00843D"/>
<path d="M14.3133 18.4251C14.3393 18.404 14.3694 18.3887 14.4017 18.3801C14.434 18.3715 14.4678 18.3698 14.5008 18.3751L14.6883 18.4251C14.7553 18.5202 14.8021 18.6281 14.8258 18.7421C14.8494 18.8561 14.8494 18.9737 14.8258 19.0876L14.6383 18.8876L14.5008 19.1376L14.3633 18.8876L14.1758 19.1376C14.1758 18.9376 14.1758 18.6626 14.3008 18.4626L14.3133 18.4251ZM16.1133 18.8876L15.9633 19.0376V19.3126L15.6383 18.9876L16.2008 18.4626L16.7633 18.9876L16.4383 19.3126V19.0376L16.3383 18.8876V19.3626L16.5883 19.6126L16.2133 19.8876L15.8758 19.6001L16.1133 19.3626V18.8876ZM17.8133 19.4126L17.6633 19.5501V19.8376L17.3383 19.5501L17.9008 18.9876L18.4633 19.5501L18.1383 19.8376V19.5501L18.0383 19.4126V19.8876L18.2883 20.1251L17.9133 20.4001L17.5758 20.1251L17.8133 19.9376V19.4126Z" fill="#383739"/>
<path d="M14.5004 18.9876L14.6379 18.8001L14.7879 18.9876C14.7879 18.7501 14.7879 18.5126 14.6379 18.4626C14.6203 18.4437 14.5991 18.4286 14.5754 18.4182C14.5517 18.4079 14.5262 18.4026 14.5004 18.4026C14.4746 18.4026 14.449 18.4079 14.4254 18.4182C14.4017 18.4286 14.3804 18.4437 14.3629 18.4626C14.2629 18.5626 14.2129 18.7501 14.2129 18.9876L14.4004 18.8001L14.5004 18.9876ZM18.0004 19.9376V19.3126L18.1879 19.5626V19.7376L18.4254 19.5501L17.9504 19.0876L17.4254 19.5501L17.6129 19.7376V19.5501L17.8629 19.3126V19.9376L17.6129 20.1251L17.9004 20.3626L18.1879 20.1126L18.0004 19.9376Z" fill="white"/>
<path d="M16.3016 19.3752V18.8002L16.4891 18.9877V19.1752L16.7266 18.9877L16.2516 18.5127L15.7266 18.9877L15.9141 19.1752V19.0002L16.1641 18.8127V19.3752L15.9141 19.5627L16.2016 19.8127L16.4891 19.5627L16.3016 19.3752Z" fill="#D22630"/>
<path d="M25.9762 18.4251C25.9502 18.404 25.9201 18.3887 25.8878 18.3801C25.8554 18.3715 25.8217 18.3698 25.7887 18.3751L25.6012 18.4251C25.4637 18.6126 25.4637 18.8876 25.4637 19.0876L25.7012 18.8376L25.7887 19.0876L25.9262 18.8376L26.1762 19.0876C26.1762 18.8876 26.1762 18.6126 25.9762 18.4251ZM24.2262 18.8876L24.3262 19.0376V19.3126L24.6512 18.9876L24.0887 18.4626L23.5262 18.9876L23.8512 19.3126V19.0376L24.0012 18.8876V19.3626L23.7512 19.6126L24.0887 19.8876L24.4637 19.6001L24.2262 19.3626V18.8876ZM22.4762 19.3626L22.6262 19.5126V19.7876L22.9512 19.5126L22.3887 18.9376L21.8262 19.5126L22.1512 19.7876V19.5126L22.2887 19.3626V19.8376L22.0637 20.0751L22.3887 20.3626L22.7637 20.0751L22.4887 19.8876L22.4762 19.3626Z" fill="#383739"/>
<path d="M25.7891 18.9876L25.7016 18.8001L25.5016 18.9876C25.5016 18.7501 25.5516 18.5126 25.6516 18.4626C25.668 18.4341 25.6917 18.4103 25.7202 18.3938C25.7487 18.3773 25.7811 18.3687 25.8141 18.3687C25.847 18.3687 25.8794 18.3773 25.9079 18.3938C25.9364 18.4103 25.9601 18.4341 25.9766 18.4626C26.0766 18.5626 26.1266 18.7501 26.1266 18.9876L25.9266 18.8001L25.7891 18.9876ZM22.3391 19.9376V19.3126L22.1016 19.5626V19.7376L21.9141 19.5501L22.3891 19.0876L22.8641 19.5501L22.6766 19.7376V19.5501L22.4891 19.3126V19.9376L22.6766 20.1251L22.3891 20.3626L22.1016 20.1126L22.3391 19.9376Z" fill="white"/>
<path d="M24.0375 19.3751V18.8001L23.8 18.9876V19.1751L23.625 19.0001L24.1 18.5251L24.575 19.0001L24.3875 19.1876V19.0001L24.2 18.8126V19.3751L24.3875 19.5251L24.1 19.8001L23.8125 19.5251L24.0375 19.3751Z" fill="#D22630"/>
<path d="M20.7883 19.2251L20.6383 19.4626L21.1133 19.9376L20.6383 20.2626V20.0251L20.5008 19.8376V20.3126L20.9258 20.6376L20.1758 21.1626L19.4133 20.6376L19.8383 20.3126V19.8376L19.6508 20.0251V20.2626L19.1758 19.9376L19.6508 19.4626L19.5133 19.2126L20.7883 19.2251Z" fill="#383739"/>
<path d="M19.5504 19.2751L19.7379 19.5126L19.2754 19.9376L19.6004 20.1626V19.9751L19.8879 19.7376V20.3626L19.4629 20.6376L20.1629 21.1126L20.8254 20.6376L20.4504 20.3626V19.7376L20.7379 19.9876V20.1626L21.0629 19.9376L20.5879 19.4626L20.7379 19.2751H19.5504Z" fill="#D22630"/>
<path d="M19.8379 20.6376L20.1629 20.3625L20.5004 20.6376L20.1629 20.8876L19.8379 20.6376Z" fill="#383739"/>
<path d="M20.1637 20.7877L20.4137 20.6377L20.1637 20.4502L19.8887 20.6377L20.1637 20.7877Z" fill="#00843D"/>
<path d="M26.2117 17.375H25.4992V17.1H23.2492L21.5867 16.0625H18.7492L17.1492 17.1H14.8242V17.3875H14.0742V17.95H14.8242V18.275H17.1492L18.7492 19.3125H21.5867L23.1867 18.275H25.4617V17.95H26.2117V17.375Z" fill="#383739"/>
<path d="M18.7508 16.0625L17.1508 17.15H14.8758V17.425H14.1758V17.9H14.9258V18.1875H17.1883L18.8008 19.225H21.6258L23.1758 18.1875H25.4508V17.85H26.2008V17.475H25.4508V17.1875H23.1383L21.5758 16.15L18.7508 16.0625ZM18.7508 16.25H21.5383L22.9508 17.1875V17.3375H24.6258V17.95H23.0008V18.1375L21.5383 19.0875H18.7883L17.3383 18.1375V17.95H15.6758V17.325H17.3383V17.2L18.7508 16.25Z" fill="#D22630"/>
<path d="M21.5371 16.3L22.9496 17.2375V17.3876H24.5621V17.9501H22.9496V18.1376L21.5371 19.0875H18.7871L17.3871 18.1376V17.9501H15.7246V17.475H17.3871V17.2875L18.7996 16.3375L21.5371 16.3Z" fill="#D22630"/>
<path d="M18.0879 18.1875L18.7129 18.6625L19.0879 18.375L18.8379 18.1875L18.7129 18.275L18.5629 18.1875L20.9254 16.4375H20.4504L18.0879 18.1875ZM19.3754 18.875H19.8504L22.2129 17.125L21.5879 16.6625L21.1254 16.9501L21.4129 17.1376L21.6004 16.9875L21.7379 17.1376L19.3754 18.875ZM20.3754 18.875H20.8379L18.4754 17.125L18.6754 17L18.8004 17.125L19.0504 16.9501L18.6754 16.6625L18.0504 17.1376L20.3754 18.875ZM21.7504 18.175L21.6004 18.2626L21.4129 18.175L21.1629 18.3625L21.6004 18.65L22.2129 18.175L19.8504 16.425H19.3754L21.7504 18.175ZM17.5879 17.65L18.0129 17.9375L18.4379 17.65L17.9629 17.375L17.5879 17.65Z" fill="#383739"/>
<path d="M19.75 17.6625L20.1625 17.95L20.5875 17.6625L20.125 17.3875L19.75 17.6625ZM22.725 17.6625L22.25 17.95L21.875 17.6625L22.2875 17.3875L22.725 17.6625Z" fill="#383739"/>
<path d="M22.1512 18.1876L21.6387 18.6126L21.3012 18.3626L21.4387 18.2376L21.6387 18.3626L21.8262 18.1876L19.5512 16.4876H19.8887L22.1512 18.1876ZM20.7387 18.8501H20.4012L18.1387 17.1501L18.7012 16.7251L19.0387 16.9626L18.8512 17.0876L18.7012 16.9626L18.4637 17.1501L20.7387 18.8501ZM19.8887 18.8501H19.5512L21.8262 17.1501L21.6387 16.9626L21.4387 17.0876L21.3137 16.9626L21.6387 16.7126L22.1512 17.1501L19.8887 18.8501ZM20.4012 16.4751H20.7387L18.4637 18.1876L18.7137 18.3751L18.8387 18.2376L19.0387 18.3626L18.7012 18.6126L18.1387 18.1876L20.4012 16.4751Z" fill="#FFC72C"/>
<path d="M18.0379 17.4751L18.3754 17.6626L18.0379 17.9126L17.7129 17.6626L18.0379 17.4751ZM20.1629 17.4751L20.5004 17.6626L20.1629 17.9126L19.8379 17.6626L20.1629 17.4751ZM22.2879 17.4751L21.9629 17.6626L22.2879 17.9126L22.6254 17.6626L22.2879 17.4751Z" fill="#00843D"/>
<path d="M12.8492 29.2375L12.6992 29.475L12.9867 29.7125L12.6992 29.9L12.8492 30.1375L13.1742 30.1875L13.5117 29.9375L14.3617 30.4125V30.0375L13.8367 29.7125L14.3117 29.375V28.9125L13.5117 29.475L13.1742 29.1875L12.8492 29.2375ZM12.8492 27.725L12.6992 27.9625L12.9867 28.2L12.6992 28.4375L12.8492 28.625L13.1742 28.675L13.5117 28.425L14.3617 28.9125V28.5375L13.8367 28.2L14.3117 27.8625V27.4L13.5117 27.9625L13.1742 27.675L12.8492 27.725ZM12.8492 31.65L12.6992 31.4L12.9867 31.175L12.6992 30.9875L12.8492 30.7375L13.1742 30.7L13.5117 30.9375L14.3617 30.4625V30.8375L13.8367 31.175L14.3117 31.5V31.975L13.5117 31.4125L13.1742 31.6875L12.8492 31.65ZM27.4867 29.2375L27.6242 29.475L27.3492 29.7125L27.6242 29.9L27.4367 30.1375L27.1117 30.1875L26.7742 29.9375L25.9742 30.4125V30.0375L26.4492 29.7125L25.9742 29.375V28.9125L26.7742 29.475L27.1117 29.1875L27.4867 29.2375ZM27.4367 27.725L27.6242 27.9625L27.3492 28.2L27.6242 28.4375L27.4367 28.625L27.1117 28.675L26.7742 28.425L25.9742 28.9125V28.5375L26.4492 28.2L25.9742 27.8625V27.4L26.7742 27.9625L27.1117 27.675L27.4367 27.725ZM27.4367 31.65L27.6242 31.4L27.3492 31.175L27.6242 30.9875L27.4367 30.7375L27.1117 30.7L26.7742 30.9375L25.9742 30.4625V30.8375L26.4492 31.175L25.9742 31.5V31.975L26.7742 31.4125L27.1117 31.6875L27.4367 31.65ZM24.1367 25.125V25.75H24.6117V26.025H25.0742V25.55H24.6992V25.125H24.1367ZM25.5492 26.125V26.7375H25.9742V27.0125H26.4492V26.55H25.9742V26.125H25.5492ZM16.1117 25.175V25.7375H15.6242V26.025H15.1992V25.55H15.6242V25.125L16.1117 25.175ZM24.1367 34.2375V33.625H24.6117V33.35H25.0742V33.8125H24.6992V34.2375H24.1367ZM16.1117 34.2375V33.625H15.6242V33.35H15.1992V33.8125H15.6242V34.2375H16.1117ZM25.5492 33.3V32.5875H25.9742V32.3125H26.4492V32.775H25.9742V33.25L25.5492 33.3ZM14.7492 26.075V26.6875H14.2492V26.975H13.8242V26.5H14.2492V26.075H14.7492ZM14.7492 33.2V32.5875H14.2492V32.3125H13.8242V32.775H14.2492V33.25L14.7492 33.2ZM21.8367 25.075L21.4617 24.75L21.1242 25.0375L21.4117 25.3625L21.0367 25.7H21.5992L21.7867 25.5L22.0242 25.7H22.5867L22.2117 25.3625L22.4992 25.0375L22.1617 24.75L21.7867 25.075H21.8367ZM20.1367 25.075L19.7617 24.75L19.4242 25.0375L19.7117 25.3625L19.3367 25.7H19.8992L20.1367 25.5L20.3242 25.7H20.8867L20.5117 25.3625L20.7992 25.0375L20.4617 24.75L20.1367 25.075ZM18.4367 25.075L18.7617 24.75L19.1367 25.0375L18.8117 25.3625L19.2367 25.7H18.6117L18.4367 25.5L18.2492 25.7H17.6742L18.0492 25.3625L17.7742 25.0375L18.0992 24.75L18.4367 25.075ZM21.7867 34.2L21.4492 34.525L21.1242 34.2375L21.4117 33.9625L21.0367 33.5875H21.5992L21.7867 33.775L22.0242 33.5875H22.5867L22.2117 33.9625L22.4992 34.2375L22.1617 34.525L21.7867 34.2ZM20.1367 34.2L19.7617 34.525L19.4242 34.2375L19.7117 33.9625L19.3367 33.5875H19.8992L20.1367 33.775L20.3242 33.5875H20.8867L20.5117 33.9625L20.7992 34.2375L20.4617 34.525L20.1367 34.2ZM18.4367 34.2L18.7617 34.525L19.1367 34.2375L18.8117 33.9625L19.2367 33.5875H18.6117L18.4367 33.775L18.2492 33.5875H17.6742L18.0492 33.9625L17.7742 34.2375L18.0992 34.525L18.4367 34.2Z" fill="#383739"/>
<path d="M14.3133 30.0376V30.3751L13.5133 29.9001L13.1758 30.1376H12.9008L12.7508 29.9501L13.0383 29.7001L12.7508 29.4751L12.9008 29.2876H13.1758L13.5133 29.5251L14.3133 29.0501V29.3376L13.6883 29.7626L14.3133 30.0376ZM14.3133 28.5376V28.8626L13.5008 28.3751L13.1633 28.6126H12.8883L12.7383 28.4251L13.0258 28.1751L12.7383 27.9501L12.8883 27.7626H13.1633L13.5008 28.0001L14.3008 27.5251V27.8126L13.7383 28.1876L14.3133 28.5376ZM14.3133 30.8376V30.5126L13.5133 30.9876L13.1758 30.7376H12.9008L12.7508 30.9376L13.0383 31.1751L12.7508 31.4126L12.9008 31.6001H13.1758L13.5133 31.3626L14.3133 31.8376V31.5501L13.6883 31.1751L14.3133 30.8376ZM25.9758 30.0376V30.3751L26.7258 29.9001L27.0633 30.1376H27.4008L27.4883 29.9501L27.2008 29.7001L27.4883 29.4751L27.4008 29.2876H27.0633L26.7383 29.5251L25.9883 29.0501V29.3376L26.5508 29.7126L25.9758 30.0376ZM25.9758 28.5376V28.8626L26.7258 28.3876L27.0633 28.6251H27.4008L27.4883 28.4376L27.2008 28.1876L27.4883 27.9626L27.4008 27.7751H27.0633L26.7508 28.0001L26.0008 27.5251V27.8126L26.5633 28.1876L25.9758 28.5376ZM25.9758 30.8376V30.5126L26.7258 30.9876L27.0633 30.7376H27.4008L27.4883 30.9376L27.2008 31.1751L27.4883 31.4126L27.4008 31.6001H27.0633L26.7383 31.3626L25.9883 31.8376V31.5501L26.5508 31.1751L25.9758 30.8376ZM24.5633 25.1751V25.6001H24.9883V25.9751H24.6133V25.7001H24.1258V25.2251L24.5633 25.1751ZM25.9383 26.1751V26.5501H26.3133V27.0126H25.9758V26.6876H25.5008V26.1626L25.9383 26.1751ZM15.6383 25.2251V25.6001H15.2133V25.9751H15.5883V25.7001H16.0633V25.2251H15.6383ZM24.6133 34.2001V33.8251H24.9883V33.3501H24.6133V33.6751H24.1258V34.2001H24.6133ZM15.6383 34.2001V33.8251H15.2133V33.3501H15.5883V33.6751H16.0633V34.2001H15.6383ZM25.9258 33.2501V32.7751H26.3008V32.4001H25.9758V32.6876H25.5008V33.2001L25.9258 33.2501ZM14.3008 26.1626V26.5376H13.8883V27.0126H14.2633V26.6876H14.7383V26.1626H14.3008ZM14.3008 33.2501V32.7751H13.8883V32.4001H14.2633V32.6876H14.7383V33.2001L14.3008 33.2501ZM21.4008 24.8501L21.7758 25.1751L22.1508 24.8501L22.4008 25.0751L22.1008 25.4126L22.4383 25.7001H22.0008L21.7508 25.5001L21.5758 25.7001H21.1008L21.4258 25.4126L21.1508 25.0751L21.4008 24.8501ZM19.7383 24.8501L20.1133 25.1751L20.4508 24.8501L20.7383 25.0751L20.4508 25.4126L20.7883 25.7001H20.3133L20.1258 25.5001L19.8758 25.7001H19.4133L19.7883 25.4126L19.5133 25.0751L19.7383 24.8501ZM18.8008 24.8501L18.4258 25.1751L18.0883 24.8501L17.8133 25.0751L18.0883 25.4126L17.7633 25.7001H18.2383L18.4258 25.5001L18.6633 25.7001H19.1258L18.7508 25.4126L19.0383 25.0751L18.8008 24.8501ZM21.4383 34.5251L21.7758 34.2001L22.1508 34.5251L22.4008 34.2876L22.1008 34.0126L22.4383 33.6751H22.0008L21.7508 33.8626L21.5758 33.6751H21.1008L21.4258 34.0126L21.1508 34.2876L21.4383 34.5251ZM19.7383 34.5251L20.1133 34.2001L20.4508 34.5251L20.7383 34.2876L20.4508 34.0126L20.7883 33.6751H20.3133L20.1258 33.8751L19.8758 33.6876H19.4133L19.7883 34.0251L19.5133 34.3001L19.7383 34.5251ZM18.8008 34.5251L18.4258 34.2001L18.0883 34.5251L17.8133 34.2876L18.0883 34.0126L17.7633 33.6751H18.2383L18.4258 33.8626L18.6633 33.6751H19.1258L18.7508 34.0126L19.0383 34.2876L18.8008 34.5251Z" fill="#00843D"/>
<path d="M15.5875 32.6875V33.625H24.65V32.6875H26.025V26.6875H24.65V25.7375H15.6375V26.6875H14.3125V32.6875H15.5875Z" fill="#383739"/>
<path d="M15.675 25.75V26.7375H14.375V32.625H15.6875V33.575H24.6625V32.625H25.9875V26.725H24.6625V25.775H15.6875L15.675 25.75ZM16.25 26.125H24.0875V27.0625L24.425 27.35H25.65V32.075H24.425L24.0875 32.3125V33.25H16.25V32.3125L15.9125 32.0625H14.75V27.35H15.925L16.2625 27.1V26.1625L16.25 26.125Z" fill="#FFC72C"/>
<path d="M16.2996 26.1626V27.0626L17.4746 26.1626H16.2996ZM22.8121 26.1626L23.9996 27.0626V26.1626H22.8121ZM14.7871 27.4001V28.2001L15.8746 27.4001H14.7871ZM24.4121 27.4001L25.5496 28.2001V27.4001H24.4121ZM25.5496 31.1751L24.4246 32.0251H25.5496V31.1751ZM14.7871 31.1751V32.0251H15.8746L14.7871 31.1751ZM16.2871 32.3001V33.2001H17.4746L16.2871 32.3001ZM23.9996 32.3001L22.8121 33.2001H23.9996V32.3001Z" fill="#D22630"/>
<path d="M22.7629 26.1626L25.5504 28.2501V31.1751L22.7254 33.2501H17.5254L14.7754 31.1751V28.3376L17.5754 26.2126L22.7629 26.1626Z" fill="#00843D"/>
<path d="M15.4508 31.4625L15.1133 31.0875L15.4008 30.75L15.1133 30.375L15.4008 30.0375L15.1133 29.7125L15.4008 29.3375L15.1133 29L15.4008 28.625L15.1133 28.2875L15.4508 27.9125H24.8758L25.2133 28.2875L24.8758 28.625L25.2133 29L24.8758 29.3375L25.2133 29.7125L24.8758 30.0375L25.2133 30.375L24.8758 30.75L25.2133 31.075L24.8758 31.45L15.4508 31.4625ZM21.9133 26.6375L21.5383 26.3125L21.2133 26.6375L20.8758 26.3125L20.5008 26.6375L20.1633 26.3125L19.7883 26.6375L19.4633 26.3125L19.1258 26.6375L18.7508 26.3125L18.3758 26.6375V32.775L18.7508 33.0625L19.1258 32.775L19.4633 33.0625L19.7883 32.775L20.1633 33.0625L20.5008 32.775L20.8758 33.0625L21.2133 32.775L21.5383 33.0625L21.9133 32.7375V26.6375Z" fill="#383739"/>
<path d="M21.1625 26.6376L20.875 26.3501L20.55 26.6376V32.7501L20.875 33.0251L21.1625 32.7501V26.6376ZM19.7375 26.6376L19.4625 26.3501L19.125 26.6376V32.7501L19.4625 33.0251L19.7875 32.7501L19.7375 26.6376Z" fill="#FFC72C"/>
<path d="M15.4504 31.4126L15.1629 31.0751L15.4504 30.7501H24.8754L25.1254 31.0751L24.8379 31.4126H15.4504ZM24.8754 29.3751L25.1254 29.7126L24.8379 29.9876H15.4379L15.1504 29.7126L15.4379 29.3751H24.8754ZM24.8754 28.6251L25.1254 28.2876L24.8379 27.9626H15.4379L15.1504 28.2876L15.4379 28.6251H24.8754Z" fill="#FFC72C"/>
<path d="M21.8738 26.6374L21.5363 26.3499L21.2113 26.6374V32.7499L21.5363 33.0249L21.8613 32.7499L21.8738 26.6374ZM19.0863 26.6374L18.7488 26.3499L18.4238 26.6374V32.7499L18.7488 33.0249L19.0863 32.7499V26.6374Z" fill="#D22630"/>
<path d="M15.4496 30.6998L15.1621 30.3748L15.4496 30.0373H24.8746L25.1246 30.3748L24.8371 30.6998H15.4496ZM15.4496 29.2873L15.1621 28.9998L15.4496 28.6748H24.8746L25.1246 28.9998L24.8371 29.3373L15.4496 29.2873Z" fill="#D22630"/>
<path d="M20.5004 32.7374L20.1629 33.0124L19.8379 32.7374V26.6249L20.1629 26.3374L20.5004 26.6249V32.7374Z" fill="#D22630"/>
<path d="M23.3379 26.7749H16.9629V27.2499H16.1504V32.1249H17.0004V32.5874H23.3754V32.1249H24.1879V27.3124H23.3754V26.7874L23.3379 26.7749Z" fill="#383739"/>
<path d="M16.9992 26.8249V27.2999H16.1992V32.0249H16.9992V32.5874H17.6617L16.3367 31.4999V27.8749L17.6617 26.7749H16.9992V26.8249ZM22.6742 26.8249L23.9492 27.9124V31.4624L22.6742 32.5374H23.3367V32.0749H24.0867V27.3499H23.2867V26.8249H22.6742Z" fill="#D22630"/>
<path d="M17.7492 26.825L16.3867 27.95V31.4125L17.7617 32.5374H22.5242L23.9492 31.4125V27.9625L22.5242 26.8375L17.7492 26.825ZM17.8117 27.0125H22.4867L23.7117 28.0499V31.375L22.4867 32.375H17.8117L16.5742 31.325V28.025L17.8117 27.0125Z" fill="#00843D"/>
<path d="M19.0875 31.3625L19.275 31.4625V31.6875L19.025 31.9375L19.4125 32.3125H19.0375L18.7875 32.0625L18.5125 32.3125H18.1875L18.5625 31.9375L18.275 31.6875L18.325 31.4625L18.5125 31.3625L18.8 31.6L19.0875 31.3625ZM20.4 31.3625L20.65 31.4625V31.6875L20.4 31.9375L20.775 32.3125H20.4L20.1625 32.0625L19.8875 32.3125H19.5125L19.8875 31.9375L19.6375 31.6875V31.4625L19.8875 31.3625L20.1625 31.6L20.4 31.3625ZM21.25 31.3625L21.0625 31.4625L21.0125 31.6875L21.2625 31.9375L20.8875 32.3125H21.2625L21.5375 32.0625L21.775 32.3125H22.15L21.775 31.9375L22.0125 31.6875V31.4625L21.7625 31.3625L21.5375 31.6L21.25 31.3625ZM19.0875 28.0125L19.275 27.9125V27.675L19.025 27.4375L19.4125 27.0625H19.0375L18.7875 27.3L18.5125 27.0625H18.1875L18.5625 27.4375L18.275 27.6875L18.325 27.9125L18.5125 28.0125L18.8 27.7625L19.0875 28.0125ZM20.4 28.0125L20.65 27.9125V27.675L20.4 27.4375L20.775 27.0625H20.4L20.1625 27.3L19.8875 27.0625H19.5125L19.8875 27.4375L19.6375 27.6875V27.9125L19.8875 28.0125L20.1625 27.7625L20.4 28.0125ZM21.25 28.0125L21.0625 27.9125L21.0125 27.675L21.2625 27.4375L20.8875 27.0625H21.2625L21.5375 27.3L21.775 27.0625H22.15L21.775 27.4375L22.0125 27.6875V27.9125L21.7625 28.0125L21.5375 27.7625L21.25 28.0125ZM23.6625 28.3875L23.475 28.575L23.6625 28.7125V29L23.3375 28.7625L23.0875 28.95H22.875L22.775 28.7625L23.025 28.575L22.775 28.3375L22.875 28.2H23.1125L23.35 28.3375L23.675 28.1L23.6625 28.3875ZM23.6625 29.5125L23.475 29.7125L23.6625 29.85V30.1375L23.3375 29.8875L23.0875 30.0875H22.875L22.775 29.9L23.025 29.7125L22.775 29.4625L22.875 29.3375H23.1125L23.35 29.4625L23.675 29.2375L23.6625 29.5125ZM23.6625 30.9875L23.475 30.8375L23.6625 30.65V30.375L23.3375 30.6125L23.0875 30.4125H22.875L22.775 30.6125L23.025 30.8375L22.775 31.0375L22.875 31.1625L23.1125 31.225L23.35 31.0375L23.675 31.2625L23.6625 30.9875ZM16.625 28.375L16.8625 28.5625L16.625 28.7V28.9875L16.9625 28.75L17.1875 28.9375H17.4375L17.525 28.75L17.3375 28.5625L17.525 28.325L17.425 28.1875H17.1875L16.9625 28.325L16.625 28.0875V28.375ZM16.625 29.5L16.8625 29.7L16.625 29.8375V30.125L16.9625 29.875L17.1875 30.075H17.4375L17.525 29.8875L17.3375 29.7L17.525 29.45L17.425 29.325H17.1875L16.9625 29.45L16.625 29.225V29.5ZM16.625 30.975L16.8625 30.825L16.625 30.6375V30.375L16.9625 30.6125L17.1875 30.4125H17.4375L17.525 30.6125L17.3375 30.8375L17.525 31.0375L17.425 31.1625L17.1875 31.225L16.9625 31.0375L16.625 31.2625V30.975Z" fill="#00843D"/>
<path d="M17.85 27.0625L16.675 28.0125L16.9625 28.2875L17.1875 28.1H17.475L17.575 28.35L17.3875 28.575L17.575 28.7625L17.475 28.95L17.1875 29L16.9625 28.8125L16.625 29.1V29.1875L16.9625 29.4375L17.1875 29.2375H17.475L17.575 29.475L17.3875 29.7125L17.575 29.9L17.475 30.0875L17.1875 30.1375L16.9625 29.95L16.625 30.225V30.325L16.9625 30.5625L17.1875 30.375H17.475L17.575 30.6125L17.3875 30.8375L17.575 31.0375L17.475 31.225L17.1875 31.2625L16.9625 31.075L16.675 31.325L17.85 32.3125H18.1L18.475 31.9375L18.225 31.7375L18.275 31.4625L18.525 31.3125L18.8 31.5625L19.0375 31.3125L19.3125 31.4625V31.7375L19.125 31.925L19.4625 32.3L19.8375 31.925L19.6 31.7375V31.4625L19.8875 31.3125L20.1625 31.5625L20.4125 31.3125L20.6875 31.4625V31.7375L20.45 31.925L20.825 32.3L21.2 31.925L20.975 31.7375V31.4625L21.25 31.3125L21.5375 31.5625L21.775 31.3125L22.0125 31.4625L22.0625 31.7375L21.8125 31.925L22.1875 32.3H22.4875L23.6625 31.3625L23.3375 31.075L23.15 31.2625H22.8625L22.725 31.0375L22.9125 30.8375L22.725 30.6125L22.85 30.4125L23.15 30.375L23.3375 30.5625L23.6625 30.3125V30.225L23.3375 29.95L23.15 30.1375H22.8625L22.725 29.8875L22.9125 29.7125L22.725 29.4625L22.85 29.2875H23.15L23.3375 29.425L23.6625 29.1875V29.1L23.3375 28.8125L23.15 29H22.8625L22.725 28.7625L22.9125 28.575L22.725 28.3375L22.85 28.15H23.15L23.3375 28.2875L23.6625 28.05L22.4875 27.0625H22.2L21.825 27.4375L22.0625 27.625V27.9125L21.775 28.05L21.5375 27.8625L21.25 28.05L21.0125 27.925L20.975 27.625L21.2125 27.4375L20.8375 27.0625L20.4625 27.4375L20.7375 27.625L20.6875 27.9125L20.4 28.05L20.1625 27.8625L19.8875 28.05L19.6375 27.925L19.6 27.625L19.8375 27.4375L19.4625 27.0625L19.125 27.4375L19.375 27.625L19.3125 27.9125L19.0375 28.05L18.7875 27.8625L18.5125 28.05L18.275 27.925V27.625L18.4625 27.4375L18.0875 27.0625H17.85ZM16.625 29.5625V29.8125L16.7625 29.7125L16.625 29.5625Z" fill="#D22630"/>
<path d="M18.8 32.125L18.6125 32.3125H18.9875L18.8 32.125ZM20.175 32.125L19.975 32.3125H20.35L20.175 32.125ZM21.5375 32.125L21.3 32.3125H21.725L21.5375 32.125ZM18.6125 27.0625L18.8 27.25L18.9875 27.0625H18.6125ZM19.9375 27.0625L20.1625 27.25L20.3625 27.0625H19.9375ZM21.35 27.0625L21.5375 27.25L21.725 27.0625H21.35ZM23.6625 28.475L23.525 28.575L23.6625 28.675V28.475ZM23.6625 29.5625L23.525 29.7125L23.6625 29.8V29.5625ZM23.6625 30.7L23.525 30.8375L23.6625 30.9375V30.7ZM16.625 28.4375V28.675L16.7625 28.575L16.625 28.4375ZM16.625 29.5625V29.8125L16.7625 29.7125L16.625 29.5625ZM16.625 30.7V30.9375L16.7625 30.8375L16.625 30.7Z" fill="white"/>
<path d="M21.3008 29.2875V28.9125H20.9258V28.4375H19.3633V28.9125H18.9383V29.3375H18.4258V30.0875H18.9883V30.4625H19.4133V30.9375H20.9133V30.4625H21.3008V30.0875H21.8633V29.2875H21.3008Z" fill="#383739"/>
<path d="M20.1258 28.5251V29.0001L19.5008 29.3376V29.6626H18.4258V29.3751H18.9883V28.9501H19.4133V28.4751L20.1258 28.5251ZM20.1633 30.9001V30.4126L20.8258 30.0376V29.7626H21.8258V30.0876H21.2508V30.4626H20.8758V30.9376L20.1633 30.9001Z" fill="#FFC72C"/>
<path d="M20.7879 29.6626V29.3376L20.1629 28.9626V28.4751H20.8754V28.9501H21.2504V29.3751H21.8254V29.6626H20.7879ZM18.4629 29.7126H19.5129V30.0376L20.1254 30.4126V30.8876H19.4629V30.4126H19.0379V30.0376H18.4629V29.7126Z" fill="white"/>
<path d="M19.5 29.7499V30.0374L20.125 30.3749V29.7124L19.5 29.7499Z" fill="#D22630"/>
<path d="M20.125 29L19.5 29.375V29.6625H20.125V29Z" fill="#00843D"/>
<path d="M20.7891 29.6625V29.375L20.1641 29V29.6625H20.7891Z" fill="#D22630"/>
<path d="M20.1641 30.3749L20.7891 30.0374V29.7124H20.1641V30.3749Z" fill="#00843D"/>
<path d="M14.6379 37.7499V38.9624H13.5129V40.1499H12.2754V43.3624H13.5129V44.4874H14.6379V45.7624H18.9379L19.7379 46.2374L19.3629 46.4249H17.8129L17.6629 46.2874H19.0879L18.7129 45.9124H16.6754L17.6129 46.8499H19.5129L20.1254 46.4249L20.7379 46.8499H22.6129L23.5754 45.9124H21.5379L21.1629 46.2874H22.5754L22.3879 46.4249H20.8879L20.5004 46.2499L21.2504 45.7749H25.6004V44.3999H26.7754V43.2749H27.9629V40.1499H26.7754V39.0249H25.6004V37.7999H21.2504L20.5004 37.3249L20.8754 37.0874H22.3879L22.5254 37.2374H21.1254L21.5504 37.6624H23.5379L22.6379 36.7124H20.7504L20.1254 37.0874L19.4754 36.7124H17.5879L16.6879 37.6624H18.7129L19.0879 37.2374H17.6754L17.8254 37.0874H19.3754L19.7504 37.3374L18.9504 37.7999L14.6379 37.7499Z" fill="#D22630"/>
<path d="M21.2504 45.6749H25.6004V44.4H26.7754V43.275H27.9629V40.15H26.7754V39.025H25.6004V37.775H21.2504L19.4629 36.7H17.5754L16.7629 37.5499H18.6629L18.9879 37.2249H17.5754L17.8129 36.9749H19.3629L21.4004 38.2125H25.0754V39.4874H26.2629V40.6124H27.4879V42.8375H26.2629V43.9249H25.0754V45.15H21.4004L19.3629 46.4249H17.8129L17.5629 46.1875H19.0004L18.6754 45.9124H16.7504L17.6004 46.7625H19.4504L21.2504 45.6749ZM18.8879 45.2H15.1254V43.9749H13.9504V42.8499H12.7504V40.625H13.9379V39.4874H15.1129V38.2125H18.8879L20.9254 36.9874H22.5254L22.7254 37.2249H21.3004L21.6379 37.5499H23.5129L22.6754 36.7H20.7879L19.0879 37.7874H14.7879V39.0125H13.6004V40.1375H12.2754V43.2625H13.5129V44.3875H14.6879V45.6749H18.9379L20.7879 46.7625H22.6629L23.4754 45.9124H21.5879L21.3004 46.1875H22.7254L22.4754 46.4375H20.8754L18.8879 45.2Z" fill="#FFC72C"/>
<path d="M24.8 43.6V44.875H21.35L20.1625 45.5751L18.9875 44.875H15.5375V43.6H14.375V42.5H13.125V41H14.3625V39.875H15.5375V38.625H19L20.175 37.925L21.3625 38.6376H24.8125V39.8625H25.9875V40.9875H27.175V42.5126H25.9875V43.6376L24.8 43.6Z" fill="#00843D"/>
<path d="M15.9629 43.175V44.4H17.8504L15.9754 43.125L15.9629 43.175ZM15.9629 40.2375V39.0625H17.8504L15.9754 40.2875L15.9629 40.2375ZM24.3254 43.175V44.4H22.4379L24.3254 43.125V43.175ZM24.3254 40.2375V39.0625H22.4379L24.3254 40.2875V40.2375Z" fill="#383739"/>
<path d="M16.0625 43.2126L17.7125 44.35H16.0625V43.2126ZM16.0625 40.2375L17.7125 39.1125H16.0625V40.2375ZM24.275 43.2126L22.575 44.35H24.275V43.2126ZM24.275 40.2375L22.575 39.1125H24.275V40.2375Z" fill="#D22630"/>
<path d="M18.425 41.3749V40.7499H18.175L17.15 40.1499L16.2 40.7624H15.9625V41.3874H15.5V42.0374H15.975V42.6624H16.1625L17.1625 43.3124L18.2 42.6499H18.3875V42.0374H19.1375V41.3749H18.425Z" fill="#383739"/>
<path d="M17.1875 40.1499L18.1375 40.7624H16.25L17.1875 40.1499ZM18.1375 42.6499L17.1875 43.2749L16.25 42.6499H18.1375ZM17.85 41.4249V42.0374H16.725V41.4749L17.85 41.4249Z" fill="#D22630"/>
<path d="M18.3258 42.0375V42.6H17.2008V42.0375H18.3258ZM17.1508 42.0375V42.6H16.0008V42.0375H17.1508ZM19.0258 41.4125V42.0375H17.9508V41.475L19.0258 41.4125ZM16.6758 41.4125V42.0375H15.5508V41.475L16.6758 41.4125ZM18.3258 40.8125V41.375H17.2008V40.8125H18.3258ZM17.1508 40.8125V41.375H16.0008V40.8125H17.1508Z" fill="#FFC72C"/>
<path d="M16.3375 41.5625V41.9H15.875V41.5625H16.3375ZM16.8125 40.95V41.275H16.3375V40.95H16.8125ZM18.0375 40.95V41.275H17.475V40.95H18.0375ZM17.575 41.575V41.9H17V41.5625L17.575 41.575ZM18.75 41.575V41.9H18.25V41.5625L18.75 41.575ZM18.0375 42.1749V42.5125H17.475V42.1749H18.0375ZM16.8125 42.1749V42.5125H16.3375V42.1749H16.8125Z" fill="#383739"/>
<path d="M16.3 41.5625H15.875V41.85H16.3375L16.3 41.5625ZM16.7625 41H16.3375V41.2375H16.8125L16.7625 41ZM18 41H17.525V41.2375H18V41ZM17.475 41.5625H17V41.8125H17.475V41.5625ZM18.6625 41.5625H18.2375V41.8125H18.6625V41.5625ZM17.95 42.225H17.475V42.4625H17.95V42.225ZM16.725 42.225H16.3V42.4625H16.7625L16.725 42.225Z" fill="white"/>
<path d="M21.9125 41.3749V40.7499H22.1625L23.1 40.1499H23.15L24.1375 40.7624H24.375V41.3874H24.85V42.0374H24.375V42.6624H24.0875L23.15 43.3124L22.15 42.6499H21.9125V42.0374H21.25V41.3749H21.9125Z" fill="#383739"/>
<path d="M23.1492 40.1499L22.1992 40.7624H24.0867L23.1492 40.1499ZM22.1992 42.6499L23.1492 43.2749L24.0867 42.6499H22.1992ZM22.4367 41.4249V42.0374H23.6117V41.4749L22.4367 41.4249Z" fill="#D22630"/>
<path d="M21.9625 42.0375V42.6H23.15V42.0375H21.9625ZM23.15 42.0375V42.6H24.325V42.0375H23.15ZM21.25 41.4125V42.0375H22.3875V41.475L21.25 41.4125ZM23.625 41.4125V42.0375H24.8V41.475L23.625 41.4125ZM21.9625 40.8125V41.375H23.15V40.8125H21.9625ZM23.15 40.8125V41.375H24.325V40.8125H23.15Z" fill="#FFC72C"/>
<path d="M23.9496 41.5625V41.9H24.4621V41.5625H23.9496ZM23.4746 40.95V41.275H23.9996V40.95H23.4746ZM22.2871 40.95V41.275H22.7621V40.95H22.2871ZM22.7621 41.575V41.9H23.2371V41.5625L22.7621 41.575ZM21.5371 41.575V41.9H22.0621V41.5625L21.5371 41.575ZM22.2871 42.1749V42.5125H22.7621V42.1749H22.2871ZM23.4746 42.1749V42.5125H23.9996V42.1749H23.4746Z" fill="#383739"/>
<path d="M24.0004 41.5625H24.4629V41.85H24.0004V41.5625ZM23.5254 41H24.0004V41.2375H23.5254V41ZM22.3379 41H22.7629V41.2375H22.2879L22.3379 41ZM22.8129 41.6125H23.2379V41.85H22.7629L22.8129 41.6125ZM21.5879 41.6125H22.0629V41.85H21.5879V41.6125ZM22.3379 42.2375H22.7629V42.4625H22.2879L22.3379 42.2375ZM23.5254 42.2375H24.0004V42.4625H23.5254V42.2375Z" fill="white"/>
<path d="M21.3992 40.3375V40.95H21.1492L20.1617 41.6124L19.1242 40.95H18.9367V40.325H18.3242V39.6749H18.9492V39.0499H19.1242L20.1617 38.45L21.1617 39.0625H21.3992V39.6749H21.9617V40.3375H21.3992Z" fill="#383739"/>
<path d="M20.1621 41.5625L21.1121 40.95H19.2246L20.1621 41.5625ZM21.1121 39.0625L20.1621 38.5L19.2246 39.0625H21.1121Z" fill="#FFC72C"/>
<path d="M21.35 39.675V39.1125H20.1625V39.675H21.35ZM20.125 39.675V39.1125H18.9875V39.675H20.125ZM21.9125 40.3V39.725H20.7875V40.2875L21.9125 40.3ZM20.7375 40.3V39.725H19.6125V40.2875L20.7375 40.3ZM19.55 40.3V39.725H18.375V40.2875L19.55 40.3ZM21.35 40.9001V40.3376H20.1625V40.9001H21.35ZM20.125 40.9001V40.3376H18.9875V40.9001H20.125Z" fill="#D22630"/>
<path d="M19.8367 39.2V39.575H19.3117V39.2H19.8367ZM21.0117 39.2V39.575H20.4992V39.2H21.0117ZM19.2242 39.8624V40.2H18.6992V39.8624H19.2242ZM20.3992 39.8624V40.2H19.9367V39.8624H20.3992ZM21.6367 39.8624V40.2H21.1117V39.8624H21.6367ZM19.7867 40.4874V40.8125H19.3117V40.4749L19.7867 40.4874ZM21.0117 40.4874V40.8125H20.4992V40.4749L21.0117 40.4874Z" fill="#383739"/>
<path d="M19.7492 39.3H19.3742V39.5375H19.7492V39.3ZM20.9742 39.3H20.5492V39.5375H20.9742V39.3ZM19.1742 39.9125H18.6992V40.1501H19.1742V39.9125ZM20.3617 39.9125H19.9367V40.1501H20.3992L20.3617 39.9125ZM21.5867 39.9125H21.1117V40.1501H21.5867V39.9125ZM19.7367 40.5251H19.3617V40.7626H19.7367V40.5251ZM20.9742 40.5251H20.5492V40.7626H20.9742V40.5251Z" fill="white"/>
<path d="M21.3992 43.7374V44.3999H21.1492L20.1617 45.0624L19.1242 44.3999H18.9367V43.7749H18.3242V43.1249H18.9492V42.4999H19.1242L20.1617 41.8999L21.1617 42.5124H21.3992V43.1249H21.9617V43.7874L21.3992 43.7374Z" fill="#383739"/>
<path d="M20.1621 44.9124L21.1121 44.3499H19.2246L20.1621 44.9124ZM21.1121 42.4624L20.1621 41.8999L19.2246 42.4624H21.1121Z" fill="#FFC72C"/>
<path d="M21.35 43.075V42.5125H20.1625V43.075H21.35ZM20.125 43.075V42.5125H18.9875V43.075H20.125ZM21.9125 43.7V43.125H20.7875V43.6875L21.9125 43.7ZM20.7375 43.7V43.125H19.6125V43.6875L20.7375 43.7ZM19.55 43.7V43.125H18.375V43.6875L19.55 43.7ZM21.35 44.2999V43.75H20.1625V44.3125L21.35 44.2999ZM20.125 44.2999V43.75H18.9875V44.3125L20.125 44.2999Z" fill="#D22630"/>
<path d="M19.8367 42.6499V42.9374H19.3117V42.6499H19.8367ZM21.0117 42.6499V42.9374H20.4992V42.6499H21.0117ZM19.2242 43.2749V43.5999H18.6992V43.2499L19.2242 43.2749ZM20.3992 43.2749V43.5999H19.9367V43.2499L20.3992 43.2749ZM21.6367 43.2749V43.5999H21.1117V43.2499L21.6367 43.2749ZM19.7867 43.8749V44.2124H19.3117V43.8749H19.7867ZM21.0117 43.8749V44.2124H20.4992V43.8749H21.0117Z" fill="#383739"/>
<path d="M19.7492 42.7H19.3742V42.8875H19.7492V42.7ZM20.9742 42.7H20.5492V42.8875H20.9742V42.7ZM19.1742 43.3125H18.6992V43.5H19.1742V43.3125ZM20.3617 43.3125H19.9367V43.5H20.3992L20.3617 43.3125ZM21.5867 43.3125H21.1117V43.5H21.5867V43.3125ZM19.7367 43.9375H19.3617V44.1624H19.7367V43.9375ZM20.9742 43.9375H20.5492V44.1624H20.9742V43.9375Z" fill="white"/>
<path d="M13.5996 51.1L18.0996 48.75H22.1996L26.6871 51.1V55.075L22.1871 57.525H18.0871L13.5996 55.075V51.1Z" fill="#383739"/>
<path d="M18.1379 48.75L13.6504 51.1V55.075L18.1379 57.4375H22.2004L26.6379 55.0625V51.15L22.2004 48.7875L18.1379 48.75ZM18.1879 49.075H22.1004L26.3504 51.3375V54.8875L22.1004 57.15H18.1879L13.9379 54.8875V51.3375L18.1879 49.075Z" fill="#00843D"/>
<path d="M20.1629 53.0875V57.1H22.1004L26.3129 54.8375V53.1375H20.1629V49.125H18.1879L14.0254 51.3375V53.0875H20.1629Z" fill="#FFC72C"/>
<path d="M20.1258 53.0875V57.1H18.2383L13.9883 54.8375V53.1375H20.1633V49.125H22.1008L26.3133 51.3375V53.0875H20.1258Z" fill="white"/>
<path d="M20.55 56.875V55.7375L20.175 55.975L19.8 55.725V56.8625H18.6125L19.4125 56.3V55.4501L18.1875 54.7001H17.375V51.4875H18.175L19.4 50.7375V49.925L18.6 49.3625H19.825V50.4875L20.2 50.25L20.575 50.5V49.3625H21.7125L20.9625 49.925V50.725L22.1375 51.475H22.9875V54.7001H22.1375L20.9625 55.4501V56.3L21.7125 56.8625L20.55 56.875Z" fill="#383739"/>
<path d="M20.5883 49.4V50.5875L20.1633 50.35V50.675L22.0133 51.8625H22.6258V53.0875H22.9133V51.5H22.1008L20.8758 50.75V49.8375L21.5383 49.375H20.5883V49.4ZM17.4258 53.1375V54.6375H18.2383L19.4633 55.45V56.3L18.7508 56.825H19.7008V55.625L20.1633 55.875V55.5375L18.2883 54.35H17.7133V53.125L17.4258 53.1375Z" fill="#FFC72C"/>
<path d="M18.7508 49.3999L19.4633 49.8749V50.7749L18.2383 51.5249H17.4258V53.0874H17.7133V51.8749H18.2758L20.1633 50.6874V50.3624L19.7008 50.5999V49.4124L18.7508 49.3999ZM22.6258 53.1374V54.3624H22.0008L20.1633 55.5499V55.8749L20.5883 55.6374V56.8249H21.5383L20.8758 56.3499V55.4499L22.1008 54.6499H22.9133V53.1249L22.6258 53.1374Z" fill="white"/>
<path d="M17.75 54.3125H18.325L20.1625 55.5L22.0125 54.3125H22.575V51.875H22.0125L20.125 50.75L18.325 51.875H17.7625L17.75 54.3125Z" fill="#D22630"/>
<path d="M21.4375 53.7H21.8125V53.5125H21.5375V53.1875H22.1625V54.0374H21.5375V54.5999H20.3125V53.75H20.875V54.125H20.6375V54.275H21.2125V53.9375L18.8375 52.525H18.4625V52.7125H18.8V53.0374H18.125V52.1875H18.75V51.575H19.9625V52.4249H19.45V52.0999H19.6375V51.95H19.075V52.2374L21.4375 53.7ZM21.2125 52.2874V51.95H20.625V52.0999H20.875V52.4249H20.3V51.575H21.525V52.2H22.1875V53.0374H21.5625V52.7125H21.85V52.525H21.475L19.125 53.9375V54.275H19.7V54.125H19.5V53.75H20.0625V54.5999H18.7875V54.0374H18.1625V53.1875H18.8375V53.5125H18.4125V53.7H18.8375L21.2125 52.2874Z" fill="#383739"/>
<path d="M21.2496 53.9375V54.3125H20.5871V54.075H20.8371V53.8H20.3621V54.55H21.4871V54H22.1121V53.25H21.5871V53.475H21.8621V53.7625H21.3996L19.0246 52.3V51.925H19.6996V52.1625H19.4996V52.3875H19.9621V51.6375H18.7871V52.2625H18.1621V53.0125H18.7371V52.7625H18.4121V52.4875H18.8746L21.2496 53.9375ZM21.3996 52.525H21.8621V52.7625H21.5871V53H22.0996V52.25H21.4996V51.625H20.3746V52.375H20.8371V52.15H20.5996V51.9H21.2621V52.275L18.8996 53.7H18.4371V53.4625H18.7621V53.225H18.1996V53.975H18.8121V54.55H19.9871V53.85H19.5246V54.125H19.7121V54.375H19.0496V53.9875L21.3996 52.525Z" fill="white"/>
<path d="M25.3758 53.3251V54.5501H24.8758V54.0751H24.3133V54.5501H23.7508V53.3751H24.3133V53.8001H24.8383V53.3251H25.3758ZM23.4758 54.9751V56.2126H22.9508V55.7876H22.3883V56.2501H21.8758V54.9751H22.4008V55.4501H22.9633V54.9751H23.4758ZM25.3633 52.9001V51.6751H24.8883V52.1001H24.3258V51.6251H23.7633V52.9001H24.3258V52.4251H24.8508V52.9001H25.3633ZM14.9258 53.3251V54.5501H15.4508V54.0751H16.0633V54.5501H16.5383V53.3751H16.0008V53.8001H15.4383V53.3251H14.9258ZM14.9258 52.9001V51.6751H15.4508V52.1001H16.0633V51.6251H16.5383V52.9001H16.0008V52.4251H15.4383V52.9001H14.9258ZM23.4758 51.2501V49.9751H22.9508V50.4501H22.3883V49.9751H21.8758V51.2501H22.4008V50.7751H22.9633V51.2501H23.4758ZM16.8633 54.9751V56.2126H17.3383V55.7876H17.9508V56.2501H18.4258V54.9751H17.9508V55.4501H17.3758V54.9751H16.8633ZM16.8633 51.2001V49.9751H17.3383V50.4501H17.9508V49.9751H18.4258V51.2501H17.9508V50.7751H17.3758V51.2501L16.8633 51.2001ZM23.8008 50.3501V51.3001H25.5008L23.8008 50.3501ZM16.5383 55.8251V54.8876H14.7383L16.5383 55.8251ZM16.5383 50.3501V51.3001H14.7383L16.5383 50.3501ZM23.8008 55.8251V54.8876H25.5008L23.8008 55.8251Z" fill="#383739"/>
<path d="M24.8871 54.0749V54.5499H25.3621V53.3749H24.8871V53.7999H24.2746V53.3249H23.7996V54.5124H24.2746V54.0374L24.8871 54.0749ZM23.0121 55.7374V56.2124H23.4246V55.0249H22.9496V55.4999H22.3371V55.0249H21.9121V56.1499H22.3871V55.7499L23.0121 55.7374ZM24.8871 52.1499V51.6749H25.3621V52.8499H24.8871V52.3749H24.2746V52.8499H23.7996V51.7249H24.2746V52.1499H24.8871ZM15.4496 54.0249V54.5124H14.9746V53.3749H15.4496V53.7999H16.0621V53.3249H16.4871V54.5124H15.9996V54.0374L15.4496 54.0249ZM15.4496 52.1499V51.6749H14.9746V52.8499H15.4496V52.3749H16.0621V52.8499H16.4871V51.7249H15.9996V52.1499H15.4496ZM22.9996 50.4874V50.0249H23.4246V51.1999H22.9496V50.7249H22.3371V51.1999H21.9121V50.0249H22.3871V50.4874H22.9996ZM17.3371 55.7374V56.2124H16.8621V55.0249H17.3371V55.4999H17.9496V55.0249H18.4246V56.1499H17.9496V55.7499L17.3371 55.7374ZM17.3371 50.4874V50.0249H16.8621V51.1999H17.3371V50.7249H17.9496V51.1999H18.4246V50.0249H17.9496V50.4874H17.3371Z" fill="#D22630"/>
<path d="M23.8508 50.45V51.25H25.3758L23.8508 50.45ZM14.9258 54.9375L16.4883 55.7874V54.9375H14.9258Z" fill="#FFC72C"/>
<path d="M16.4883 50.45L14.9258 51.25H16.5383L16.4883 50.45ZM23.8633 54.9375V55.7874L25.3633 54.9375H23.8633Z" fill="white"/>
<path d="M27.4 56.5875C27.3 56.9625 27.025 57.25 26.925 57.625C26.825 57.25 26.675 56.9125 26.775 56.5C26.825 56.1625 27.1125 55.925 27.15 55.6375C27.4375 55.8875 27.4875 56.2625 27.4 56.5875ZM27.4875 58.1375C27.2448 58.464 26.9219 58.7224 26.55 58.8875C26.5875 58.5625 26.45 58.3875 26.3 58.1375C26.125 57.8625 26.025 57.6249 26.2125 57.2874C26.2695 57.4559 26.3494 57.6158 26.45 57.7625C26.6375 57.95 26.7375 58.1374 26.7375 58.4249C26.9138 58.2773 27.044 58.082 27.1125 57.8624C27.2804 57.5769 27.528 57.3467 27.825 57.2C27.725 57.525 27.675 57.8625 27.4875 58.1375ZM26.1125 59.0875L26.2125 59.65L26.775 59.1875C27.025 59.0375 27.3 58.8499 27.525 58.6124C27.5193 58.7984 27.4712 58.9805 27.3846 59.1451C27.298 59.3097 27.175 59.4525 27.025 59.5625C26.6875 59.8 26.2625 59.9374 25.975 60.1749C25.975 59.8374 25.8875 59.5499 25.7875 59.2249C25.7443 59.079 25.7389 58.9244 25.7717 58.7758C25.8044 58.6271 25.8744 58.4892 25.975 58.375L26.1125 59.0875ZM25.3625 60.3125C25.3125 60.5625 25.125 60.7875 24.9875 61.025C25.3625 60.925 25.65 60.6874 25.925 60.5499C26.35 60.3124 26.775 60.225 27.1125 59.9375C26.925 60.5625 26.4875 60.8875 25.8875 61.125C25.4625 61.25 25.1375 61.1625 24.6125 61.4C24.6675 61.0396 24.7771 60.6898 24.9375 60.3624L25.275 59.65C25.3625 59.8375 25.4625 60.075 25.3625 60.3125ZM24.0875 61.2625C23.9689 61.4662 23.8067 61.6412 23.6125 61.775C24.0875 61.775 24.5125 61.5 25.0375 61.5C25.3125 61.5 25.6 61.5875 25.8875 61.5C25.5125 61.775 25.1375 61.975 24.7 62.0625C24.1375 62.1125 23.6125 61.975 22.95 62.0625C23.2375 61.825 23.425 61.5875 23.575 61.2625C23.85 60.8875 24.0375 60.5999 24.5125 60.5499C24.325 60.7374 24.225 61.025 24.0375 61.2625H24.0875ZM22.2875 62.1124C23.1875 62.2499 24.0375 62.4375 24.9375 62.4375C23.9843 62.812 22.9278 62.8298 21.9625 62.4874C21.5454 62.3013 21.0943 62.2034 20.6375 62.2C20.025 62.25 19.3125 62.4875 18.5125 63.3375L18.1875 63.0999C18.7426 62.62 19.4039 62.2789 20.1168 62.1051C20.8297 61.9312 21.5738 61.9294 22.2875 62.0999V62.1124Z" fill="#FFC72C"/>
</g>
<defs>
<clipPath id="clip0_10790_13541">
<rect width="64" height="64" rx="32" fill="white"/>
</clipPath>
</defs>
</svg>
