<svg width="64" height="64" viewBox="0 0 64 64" fill="none" xmlns="http://www.w3.org/2000/svg">
<g clip-path="url(#clip0_10790_13784)">
<path d="M0 0H64V64H0V0Z" fill="#009FCA"/>
<path fill-rule="evenodd" clip-rule="evenodd" d="M59.7504 28.2876L60.6379 30.8376L58.3379 29.2626L56.0254 30.8376L56.9129 28.2876L54.6004 26.7126H57.4629L58.3379 24.1626L59.2129 26.7126H62.0629L59.7504 28.2876ZM52.6004 48.6376L53.4754 51.1876L51.1754 49.6001L48.8754 51.1876L49.7504 48.6376L47.4504 47.0501H50.3004L51.1754 44.5001L52.0504 47.0626H54.9129L52.6004 48.6376ZM59.7629 44.0251L60.6379 46.5751L58.3379 45.0001L56.0254 46.5751L56.9129 44.0251L54.6004 42.4501H57.4629L58.3379 39.9001L59.2129 42.4501H62.0629L59.7629 44.0251ZM28.9879 58.7751L29.8754 61.3376L27.5754 59.7501L25.2629 61.3376L26.1504 58.7876L23.8379 57.2126H26.6879L27.5629 54.6626L28.4504 57.2126H31.3004L28.9879 58.7751ZM34.3754 47.7251L33.5004 45.1751L35.8004 46.7501L38.1004 45.1751L37.2254 47.7251L39.5254 49.3001H36.6754L35.8004 51.8501L34.9254 49.3001H32.0754L34.3754 47.7251ZM42.7879 36.1001L41.9004 33.5501L44.2004 35.1251L46.5129 33.5501L45.6379 36.1001L47.9379 37.6751H45.0879L44.2129 40.2251L43.3379 37.6751H40.4754L42.7879 36.1001ZM49.8504 33.6876L48.9754 31.1376L51.2754 32.7126L53.5754 31.1376L52.7004 33.6876L55.0004 35.2626H52.1504L51.2754 37.8126L50.4004 35.2626H47.5379L49.8504 33.6876ZM42.7879 53.8126L41.9004 51.2626L44.2004 52.8376L46.5129 51.2626L45.6379 53.8126L47.9379 55.3876H45.0879L44.2129 57.9376L43.3379 55.3876H40.4754L42.7879 53.8126ZM34.3754 55.8626L33.5004 53.3126L35.8004 54.8876L38.1004 53.3126L37.2254 55.8626L39.5254 57.4376H36.6754L35.8004 59.9876L34.9254 57.4376H32.0754L34.3754 55.8626Z" fill="#FFF40D"/>
<path d="M0 0H32V32H0V0Z" fill="#012169"/>
<path d="M32 0V4L20.125 16L32 27.6875V32H27.8125L15.875 20.25L4.25 32H0V27.75L11.625 16.0625L0 4.625V0H3.875L15.875 11.75L27.5 0H32Z" fill="white"/>
<path d="M11.5 20.25L12.1875 22.375L2.625 32H0V31.8125L11.5 20.25ZM19.25 19.5L22.625 20L32 29.1875V32L19.25 19.5ZM32 0L20 12.25L19.75 9.5L29.125 0H32ZM0 0.0625L12.0625 11.875L8.375 11.375L0 3.0625V0.0625Z" fill="#C8102E"/>
<path d="M11 0V32H21V0H11ZM0 11V21H32V11H0Z" fill="white"/>
<path d="M0 13V19H32V13H0ZM13 0V32H19V0H13Z" fill="#C8102E"/>
<g clip-path="url(#clip1_10790_13784)">
<mask id="mask0_10790_13784" style="mask-type:luminance" maskUnits="userSpaceOnUse" x="-1" y="0" width="65" height="64">
<path d="M-0.00195312 0H63.9882V63.9902H-0.00195312V0Z" fill="white"/>
</mask>
<g mask="url(#mask0_10790_13784)">
<path fill-rule="evenodd" clip-rule="evenodd" d="M-16 42.6646H79.9853V53.3339H-16V42.6646Z" fill="#FFE700"/>
<path fill-rule="evenodd" clip-rule="evenodd" d="M-16 31.9951H79.9853V42.6645H-16V31.9951Z" fill="#000001"/>
<path fill-rule="evenodd" clip-rule="evenodd" d="M-16 21.3386H79.9853V31.9951H-16V21.3386Z" fill="#DE3908"/>
<path fill-rule="evenodd" clip-rule="evenodd" d="M-16 10.6694H79.9853V21.3388H-16V10.6694Z" fill="#FFE700"/>
<path fill-rule="evenodd" clip-rule="evenodd" d="M-16 0H79.9853V10.6693H-16V0Z" fill="#000001"/>
<path fill-rule="evenodd" clip-rule="evenodd" d="M41.9656 31.995C41.9656 34.6382 40.9156 37.1732 39.0466 39.0422C37.1776 40.9112 34.6426 41.9612 31.9994 41.9612C29.3562 41.9612 26.8213 40.9112 24.9522 39.0422C23.0832 37.1732 22.0332 34.6382 22.0332 31.995C22.0332 29.3518 23.0832 26.8169 24.9522 24.9478C26.8213 23.0788 29.3562 22.0288 31.9994 22.0288C34.6426 22.0288 37.1776 23.0788 39.0466 24.9478C40.9156 26.8169 41.9656 29.3518 41.9656 31.995Z" fill="#FFFDFF" stroke="black" stroke-width="0.116111"/>
<path fill-rule="evenodd" clip-rule="evenodd" d="M30.2388 24.3575L29.5938 23.1706C29.8518 22.9126 30.2646 22.7319 30.9355 22.7319L30.871 24.0221L30.2388 24.3575Z" fill="#DE3108" stroke="black" stroke-width="0.116111"/>
<path fill-rule="evenodd" clip-rule="evenodd" d="M30.8711 24.0479L30.9485 22.732C30.9485 22.732 32.2902 22.6546 33.0127 23.519L32.3031 24.5511L30.8711 24.0479Z" fill="#FFE700" stroke="black" stroke-width="0.116111"/>
<path fill-rule="evenodd" clip-rule="evenodd" d="M32.3281 24.5382L32.9861 23.5061C33.4247 23.9705 33.6053 24.306 33.6828 24.7962C33.6828 24.822 32.6378 25.0543 32.6378 25.0543L32.3281 24.5382Z" fill="#DE3108" stroke="black" stroke-width="0.116111"/>
<path fill-rule="evenodd" clip-rule="evenodd" d="M30.5744 41.4C30.5744 41.4 31.8129 39.9809 34.2125 40.2776C33.8513 39.6971 32.6773 39.7616 32.6773 39.7616C32.6773 39.7616 32.3161 37.0007 32.5999 36.8717C32.8837 36.7427 34.0835 36.8717 34.0835 36.8717C34.2512 36.8717 34.5222 36.4459 34.3029 36.175C34.0835 35.9041 33.4514 34.8591 33.7094 34.6527C33.9674 34.4463 35.3866 34.7688 35.3866 34.7688L31.3872 29.6341C31.3872 29.6341 30.9743 27.6989 31.8 26.7829C32.7805 25.9572 32.6773 25.0799 32.6515 25.0928C32.5225 24.1898 31.1549 23.5447 30.2261 24.3704C29.6842 25.0283 30.0454 25.5315 30.0454 25.5315C30.0454 25.5315 28.6263 25.9185 28.5618 26.1766C28.5102 26.4088 30.1745 26.1249 30.1745 26.1249L30.0196 27.2603C30.0196 27.2603 26.7685 30.2275 29.2456 32.7691C29.2843 32.7691 29.3359 32.653 29.3359 32.653C29.3359 32.653 30.2132 33.7367 31.1291 33.9689C31.9935 34.8591 31.9032 34.7172 31.9032 34.7172C31.9032 34.7172 32.0838 36.1105 31.9161 36.3943C31.0084 36.282 30.0908 36.2733 29.1811 36.3685C28.8843 36.4588 27.749 36.4072 28.0199 38.2521L28.4328 37.3103C28.4328 37.3103 28.407 37.9812 28.6779 38.2134C28.6263 37.5168 28.9359 37.0394 28.9359 37.0394C28.9359 37.0394 28.9875 37.8135 29.1682 37.9167C29.3359 38.0457 29.3359 36.6782 30.2777 36.7814C31.2195 36.9104 31.9032 36.8717 31.9032 36.8717C31.9032 36.8717 32.2128 39.5293 32.1096 39.7874C31.4388 39.6197 29.8132 39.8519 29.71 40.2647C30.6647 40.2002 31.1033 40.3163 31.1033 40.3163C31.1033 40.3163 30.3293 41.0001 30.5744 41.4Z" fill="black" stroke="black" stroke-width="0.10321" stroke-linecap="round" stroke-linejoin="round"/>
<path fill-rule="evenodd" clip-rule="evenodd" d="M30.9605 26.8347C30.9605 26.8347 28.5866 29.4408 29.6058 31.4405C29.6703 31.1566 29.6445 30.9889 29.6703 31.0018C29.6187 30.9631 29.9671 31.234 29.9284 31.1824C29.9542 31.0405 29.8381 30.7309 29.8381 30.7309L30.1477 30.8083L29.9671 30.46L30.4186 30.5245C30.4186 30.5245 30.2638 30.0858 30.3154 30.0858C30.4402 30.0925 30.565 30.1011 30.6895 30.1116C30.0187 28.9118 30.6508 27.9184 30.9476 26.8476L30.9605 26.8347Z" fill="#9CA69C" stroke="#9CA69C" stroke-width="0.10321" stroke-linecap="round" stroke-linejoin="round"/>
<path fill-rule="evenodd" clip-rule="evenodd" d="M31.7734 24.6155C31.7734 24.6155 31.9025 25.5186 31.4122 25.7766C31.3348 25.8282 31.0252 25.9314 31.0639 26.112C31.1284 26.3571 31.2574 26.3055 31.4509 26.2668C31.967 26.1765 32.5604 25.0799 31.7734 24.6155Z" fill="#9CA69C" stroke="#9CA69C" stroke-width="0.116111"/>
<path fill-rule="evenodd" clip-rule="evenodd" d="M30.8968 25.3769C30.8968 25.4282 30.8764 25.4774 30.8401 25.5137C30.8038 25.55 30.7546 25.5704 30.7033 25.5704C30.652 25.5704 30.6027 25.55 30.5664 25.5137C30.5302 25.4774 30.5098 25.4282 30.5098 25.3769C30.5098 25.3255 30.5302 25.2763 30.5664 25.24C30.6027 25.2037 30.652 25.1833 30.7033 25.1833C30.7546 25.1833 30.8038 25.2037 30.8401 25.24C30.8764 25.2763 30.8968 25.3255 30.8968 25.3769Z" fill="white"/>
<path fill-rule="evenodd" clip-rule="evenodd" d="M30.1358 26.125C30.0067 26.2282 29.3617 26.912 30.0067 27.1571C30.6776 26.9765 30.4841 26.8604 30.6389 26.7056C30.6389 26.4088 30.3035 26.3185 30.1358 26.125Z" fill="#DE3108" stroke="black" stroke-width="0.116111"/>
<path fill-rule="evenodd" clip-rule="evenodd" d="M31.566 32.5627C31.5273 32.7176 31.3854 33.2594 31.5918 33.6723C32.1595 33.44 32.4175 33.5045 32.611 33.6336C32.1466 33.2465 31.966 33.1046 31.566 32.5627Z" fill="#9CA69C" stroke="#9CA69C" stroke-width="0.10321" stroke-linecap="round" stroke-linejoin="round"/>
<path fill-rule="evenodd" clip-rule="evenodd" d="M32.5469 35.1431L32.5727 36.4074C32.5727 36.4074 33.0242 36.4977 33.2177 36.4074C33.4242 36.33 33.2177 35.5301 32.5469 35.1431Z" fill="white" stroke="white" stroke-width="0.10321" stroke-linecap="round" stroke-linejoin="round"/>
<path fill-rule="evenodd" clip-rule="evenodd" d="M35.7597 35.2978C35.7597 35.2978 34.934 33.3239 32.8569 32.8208C30.7798 32.3176 31.0378 30.1115 31.2056 29.9696C31.2959 29.7761 31.3604 29.4793 31.9667 29.7632C32.5731 30.047 35.334 31.4403 35.7339 31.5048C36.1338 31.5693 35.7855 35.3494 35.7597 35.2978Z" fill="#9CA69C" stroke="black" stroke-width="0.116111"/>
<path fill-rule="evenodd" clip-rule="evenodd" d="M33.7738 32.8208C33.7351 32.8337 36.5605 34.485 35.709 35.9042C36.5218 35.3752 36.2509 34.4334 36.2509 34.4334C36.2509 34.4334 36.9088 36.1493 35.3091 36.9879C35.4897 37.1427 35.5929 37.104 35.5929 37.104L35.3349 37.3749C35.3349 37.3749 35.2059 37.5813 36.2767 37.0653C35.9799 37.2975 35.9541 37.4652 35.9541 37.4652C35.9541 37.4652 36.0445 37.6975 36.7411 37.0782C36.4637 37.3512 36.2288 37.6643 36.0445 38.0071C37.5926 37.8652 40.9211 32.8853 34.9995 31.4146L35.2575 31.6984L33.7738 32.8208Z" fill="#DE3108" stroke="black" stroke-width="0.10321" stroke-linejoin="round"/>
<path fill-rule="evenodd" clip-rule="evenodd" d="M33.8895 32.3304C34.2765 32.5885 34.4055 32.6917 34.4571 32.8207C34.1088 32.7433 33.7862 32.7691 33.7862 32.7691C33.7862 32.7691 33.038 32.0466 32.8961 31.995C32.7928 31.995 32.1994 31.608 32.1994 31.608C31.9027 31.466 31.6317 30.4468 32.7154 30.7436C33.8507 31.2725 34.0056 31.3112 34.0056 31.3112L35.3473 31.737L36.1214 32.6014C36.1214 32.6014 34.7409 31.9176 34.5732 31.9047C34.9603 32.2143 35.1667 32.6272 35.1667 32.6272C34.728 32.4981 34.3539 32.3949 33.8895 32.3304Z" fill="white" stroke="black" stroke-width="0.10321" stroke-linecap="round" stroke-linejoin="round"/>
<path d="M28.5488 26.2282C28.5488 26.2282 29.8648 25.9186 30.0196 25.9702" stroke="white" stroke-width="0.10321" stroke-linecap="round"/>
<path fill-rule="evenodd" clip-rule="evenodd" d="M-16 53.3337H79.9853V64.0031H-16V53.3337Z" fill="#DE3908"/>
</g>
</g>
</g>
<defs>
<clipPath id="clip0_10790_13784">
<rect width="64" height="64" rx="32" fill="white"/>
</clipPath>
<clipPath id="clip1_10790_13784">
<rect width="64" height="64" fill="white"/>
</clipPath>
</defs>
</svg>
