<svg width="64" height="64" viewBox="0 0 64 64" fill="none" xmlns="http://www.w3.org/2000/svg">
<g clip-path="url(#clip0_10790_13982)">
<path d="M0 0H64V64H0V0Z" fill="white"/>
<path d="M35.5 7.11255H64V14.225H35.5V7.11255ZM35.5 21.3375H64V28.4501H35.5V21.3375ZM0 35.55H64V42.675H0V35.55ZM0 49.7751H64V56.9001H0V49.7751Z" fill="#0038A8"/>
<path d="M16.9934 21.2561L18.1668 23.0161C13.317 26.5361 16.2503 28.5699 12.8477 29.665C14.9597 27.6312 12.4957 27.4357 14.2948 23.0943" fill="#FCD116"/>
<path d="M16.9934 21.2561L18.1668 23.0161C13.317 26.5361 16.2503 28.5699 12.8477 29.665C14.9597 27.6312 12.4957 27.4357 14.2948 23.0943" stroke="black" stroke-width="0.234667" stroke-miterlimit="20" stroke-linecap="square"/>
<path d="M16.133 21.7644C13.4734 26.1449 15.1943 28.5697 12.8477 29.704" stroke="black" stroke-width="0.234667" stroke-miterlimit="20"/>
<path d="M17.7764 17.7751H20.123L17.7764 30.6818L15.4297 17.7751H17.7764V30.6818V17.7751Z" fill="#FCD116"/>
<path d="M17.7764 17.7751H20.123L17.7764 30.6818M17.7764 17.7751H15.4297L17.7764 30.6818M17.7764 17.7751V30.6818" stroke="black" stroke-width="0.234667" stroke-miterlimit="20"/>
<path d="M14.7616 19.6835L14.3468 21.7576C8.42842 20.8173 9.0645 24.3296 5.88409 22.6979C8.8156 22.7532 7.21157 20.8727 11.5535 19.075" fill="#FCD116"/>
<path d="M14.7616 19.6835L14.3468 21.7576C8.42842 20.8173 9.0645 24.3296 5.88409 22.6979C8.8156 22.7532 7.21157 20.8727 11.5535 19.075" stroke="black" stroke-width="0.234667" stroke-miterlimit="20" stroke-linecap="square"/>
<path d="M13.7938 19.4344C8.81575 20.6513 8.31795 23.5828 5.85659 22.7254" stroke="black" stroke-width="0.234667" stroke-miterlimit="20"/>
<path d="M17.7765 17.7751L19.4359 19.4344L8.65014 26.9015L16.1172 16.1157L17.7765 17.7751L8.65014 26.9015L17.7765 17.7751Z" fill="#FCD116"/>
<path d="M17.7765 17.7751L19.4359 19.4344L8.65014 26.9015M17.7765 17.7751L16.1172 16.1157L8.65014 26.9015M17.7765 17.7751L8.65014 26.9015" stroke="black" stroke-width="0.234667" stroke-miterlimit="20"/>
<path d="M14.2949 16.9929L12.5349 18.1663C9.01492 13.3165 6.98114 16.2498 5.88603 12.8472C7.91981 14.9592 8.11536 12.4952 12.4567 14.2943" fill="#FCD116"/>
<path d="M14.2949 16.9929L12.5349 18.1663C9.01492 13.3165 6.98114 16.2498 5.88603 12.8472C7.91981 14.9592 8.11536 12.4952 12.4567 14.2943" stroke="black" stroke-width="0.234667" stroke-miterlimit="20" stroke-linecap="square"/>
<path d="M13.7852 16.1325C9.40471 13.4729 6.97982 15.1938 5.8456 12.8472" stroke="black" stroke-width="0.234667" stroke-miterlimit="20"/>
<path d="M17.7754 17.7751V20.1218L4.86872 17.7751L17.7754 15.4285V17.7751H4.86872H17.7754Z" fill="#FCD116"/>
<path d="M17.7754 17.7751V20.1218L4.86872 17.7751M17.7754 17.7751V15.4285L4.86872 17.7751M17.7754 17.7751H4.86872" stroke="black" stroke-width="0.234667" stroke-miterlimit="20"/>
<path d="M15.8673 14.7606L13.7931 14.3458C14.7334 8.42745 11.2212 9.06353 12.8528 5.88312C12.7975 8.81463 14.6781 7.21059 16.4757 11.5525" fill="#FCD116"/>
<path d="M15.8673 14.7606L13.7931 14.3458C14.7334 8.42745 11.2212 9.06353 12.8528 5.88312C12.7975 8.81463 14.6781 7.21059 16.4757 11.5525" stroke="black" stroke-width="0.234667" stroke-miterlimit="20" stroke-linecap="square"/>
<path d="M16.1164 13.7928C14.8995 8.81478 11.968 8.31697 12.8253 5.85561" stroke="black" stroke-width="0.234667" stroke-miterlimit="20"/>
<path d="M17.7742 17.7751L16.1149 19.4344L8.64785 8.64867L19.4336 16.1157L17.7742 17.7751L8.64785 8.64867L17.7742 17.7751Z" fill="#FCD116"/>
<path d="M17.7742 17.7751L16.1149 19.4344L8.64785 8.64867M17.7742 17.7751L19.4336 16.1157L8.64785 8.64867M17.7742 17.7751L8.64785 8.64867" stroke="black" stroke-width="0.234667" stroke-miterlimit="20"/>
<path d="M18.5573 14.2939L17.384 12.5339C22.2338 9.01394 19.3005 6.98017 22.7031 5.88505C20.5911 7.91883 23.0551 8.11439 21.256 12.4557" fill="#FCD116"/>
<path d="M18.5573 14.2939L17.384 12.5339C22.2338 9.01394 19.3005 6.98016 22.7031 5.88505C20.5911 7.91883 23.0551 8.11439 21.256 12.4557" stroke="black" stroke-width="0.234667" stroke-miterlimit="20" stroke-linecap="square"/>
<path d="M19.4178 13.7856C22.0773 9.4052 20.3565 6.98031 22.7031 5.84609" stroke="black" stroke-width="0.234667" stroke-miterlimit="20"/>
<path d="M17.7744 17.7749H15.4278L17.7744 4.86823L20.1211 17.7749H17.7744V4.86823V17.7749Z" fill="#FCD116"/>
<path d="M17.7744 17.7749H15.4278L17.7744 4.86823M17.7744 17.7749H20.1211L17.7744 4.86823M17.7744 17.7749V4.86823" stroke="black" stroke-width="0.234667" stroke-miterlimit="20"/>
<path d="M20.7892 15.8666L21.204 13.7924C27.1224 14.7327 26.4863 11.2204 29.6667 12.8521C26.7352 12.7968 28.3392 14.6774 23.9973 16.475" fill="#FCD116"/>
<path d="M20.7892 15.8666L21.204 13.7924C27.1224 14.7327 26.4863 11.2204 29.6667 12.8521C26.7352 12.7968 28.3392 14.6774 23.9973 16.475" stroke="black" stroke-width="0.234667" stroke-miterlimit="20" stroke-linecap="square"/>
<path d="M21.757 16.1156C26.735 14.8988 27.2328 11.9673 29.6942 12.8246" stroke="black" stroke-width="0.234667" stroke-miterlimit="20"/>
<path d="M17.7742 17.775L16.1149 16.1156L26.9006 8.64859L19.4336 19.4343L17.7742 17.775L26.9006 8.64859L17.7742 17.775Z" fill="#FCD116"/>
<path d="M17.7742 17.775L16.1149 16.1156L26.9006 8.64859M17.7742 17.775L19.4336 19.4343L26.9006 8.64859M17.7742 17.775L26.9006 8.64859" stroke="black" stroke-width="0.234667" stroke-miterlimit="20"/>
<path d="M21.2559 18.5571L23.0159 17.3838C26.5359 22.2335 28.5696 19.3002 29.6648 22.7029C27.631 20.5909 27.4354 23.0549 23.0941 21.2558" fill="#FCD116"/>
<path d="M21.2559 18.5571L23.0159 17.3838C26.5359 22.2335 28.5696 19.3002 29.6648 22.7029C27.631 20.5909 27.4354 23.0549 23.0941 21.2558" stroke="black" stroke-width="0.234667" stroke-miterlimit="20" stroke-linecap="square"/>
<path d="M21.7656 19.4175C26.1461 22.0771 28.571 20.3562 29.7052 22.7029" stroke="black" stroke-width="0.234667" stroke-miterlimit="20"/>
<path d="M17.7754 17.7749V15.4282L30.6821 17.7749L17.7754 20.1216V17.7749H30.6821H17.7754Z" fill="#FCD116"/>
<path d="M17.7754 17.7749V15.4282L30.6821 17.7749M17.7754 17.7749V20.1216L30.6821 17.7749M17.7754 17.7749H30.6821" stroke="black" stroke-width="0.234667" stroke-miterlimit="20"/>
<path d="M19.6835 20.7894L21.7576 21.2043C20.8173 27.1226 24.3296 26.4865 22.6979 29.6669C22.7532 26.7354 20.8727 28.3395 19.075 23.9975" fill="#FCD116"/>
<path d="M19.6835 20.7894L21.7576 21.2043C20.8173 27.1226 24.3296 26.4865 22.6979 29.6669C22.7532 26.7354 20.8727 28.3395 19.075 23.9975" stroke="black" stroke-width="0.234667" stroke-miterlimit="20" stroke-linecap="square"/>
<path d="M19.4344 21.7572C20.6513 26.7353 23.5828 27.2331 22.7254 29.6944" stroke="black" stroke-width="0.234667" stroke-miterlimit="20"/>
<path d="M17.7765 17.775L19.4359 16.1156L26.9029 26.9014L16.1172 19.4343L17.7765 17.775L26.9029 26.9014L17.7765 17.775Z" fill="#FCD116"/>
<path d="M17.7765 17.775L19.4359 16.1156L26.9029 26.9014M17.7765 17.775L16.1172 19.4343L26.9029 26.9014M17.7765 17.775L26.9029 26.9014" stroke="black" stroke-width="0.234667" stroke-miterlimit="20"/>
<path d="M17.7749 22.0773C20.1509 22.0773 22.0771 20.1512 22.0771 17.7751C22.0771 15.3991 20.1509 13.4729 17.7749 13.4729C15.3988 13.4729 13.4727 15.3991 13.4727 17.7751C13.4727 20.1512 15.3988 22.0773 17.7749 22.0773Z" fill="#FCD116" stroke="black" stroke-width="0.234667" stroke-miterlimit="20"/>
<path d="M20.944 16.0541C20.6702 16.367 20.5138 15.8195 19.536 15.8195C18.5582 15.8195 18.4018 16.4061 18.2453 16.2888C18.0889 16.1715 19.0667 15.4675 19.3796 15.4284C19.6925 15.3893 20.592 15.7021 20.944 16.0541ZM19.8098 16.4061C20.0836 16.6408 19.8489 17.1493 19.5751 17.1493C19.3013 17.1493 18.7929 16.6799 19.0276 16.367" fill="black"/>
<path d="M18.5195 16.7583C18.5586 16.2889 18.9498 16.2107 19.5755 16.2107C20.2013 16.2107 20.4751 16.68 20.7098 16.7974C20.436 16.7974 20.2013 16.4062 19.5755 16.4062C18.9498 16.4062 18.9498 16.4062 18.5195 16.7974M18.6369 16.8756C18.7933 16.6409 18.9889 17.1103 19.4191 17.1103C19.8493 17.1103 20.084 16.9929 20.3578 16.7974C20.6315 16.6018 19.9666 17.2667 19.5364 17.2667C19.1062 17.2667 18.5195 17.032 18.6369 16.8756Z" fill="black"/>
<path d="M19.9659 17.1101C20.4743 16.8363 20.1614 16.4452 19.9659 16.3669C20.0441 16.4452 20.357 16.8363 19.9659 17.1101ZM17.7756 19.4567C18.0103 19.4567 18.0885 19.3785 18.4014 19.3785C18.7143 19.3785 19.4574 19.8087 19.8876 19.6523C18.9881 20.0043 19.3401 19.7696 17.7756 19.7696H17.5801M20.0441 20.0043C19.8876 19.7305 19.9268 19.8087 19.6139 19.3785C19.9268 19.6132 20.005 19.7305 20.0441 20.0043ZM17.7756 20.3954C18.7534 20.3954 18.597 20.1998 19.8876 19.6523C18.949 19.7696 18.7534 20.0825 17.7756 20.0825H17.5801M17.7756 18.9483C18.0494 18.9483 18.1276 18.7527 18.4405 18.7527C18.7534 18.7527 19.1836 18.8701 19.3792 19.0265C19.4183 19.0656 19.2619 18.7136 18.949 18.6745C18.6361 18.6354 18.7534 18.1269 18.4014 18.0487C18.4014 18.2052 18.5187 18.1661 18.5579 18.4007C18.5579 18.5963 18.2059 18.5963 18.1276 18.4007C18.2059 18.7136 17.9712 18.7136 17.7756 18.7136" fill="black"/>
<path d="M14.6068 16.0541C14.8805 16.367 15.037 15.8195 16.0148 15.8195C16.9925 15.8195 17.149 16.4061 17.3054 16.2888C17.4619 16.1715 16.4841 15.4675 16.1712 15.4284C15.8583 15.3893 14.9588 15.7021 14.6068 16.0541ZM15.741 16.4061C15.4672 16.6408 15.7019 17.1493 15.9757 17.1493C16.2494 17.1493 16.7579 16.6799 16.5232 16.367" fill="black"/>
<path d="M17.0312 16.7583C16.9921 16.2889 16.601 16.2107 15.9752 16.2107C15.3495 16.2107 15.0757 16.68 14.841 16.7974C15.1148 16.7974 15.3495 16.4062 15.9752 16.4062C16.601 16.4062 16.601 16.4062 17.0312 16.7974M16.9139 16.8756C16.7575 16.6409 16.5619 17.1103 16.1317 17.1103C15.7015 17.1103 15.4668 16.9929 15.193 16.7974C14.9192 16.6018 15.5841 17.2667 16.0144 17.2667C16.4446 17.2667 17.0312 17.032 16.9139 16.8756Z" fill="black"/>
<path d="M15.5849 17.1101C15.0765 16.8363 15.3894 16.4452 15.5849 16.3669C15.5067 16.4452 15.1938 16.8363 15.5849 17.1101ZM17.7751 19.4567C17.5405 19.4567 17.4623 19.3785 17.1494 19.3785C16.8365 19.3785 16.0934 19.8087 15.6631 19.6523C16.5627 20.0043 16.2107 19.7696 17.7751 19.7696H17.9707M15.5067 20.0043C15.6631 19.7305 15.624 19.8087 15.9369 19.3785C15.624 19.6132 15.5458 19.7305 15.5067 20.0043ZM17.7751 20.3954C16.7974 20.3954 16.9538 20.1998 15.6631 19.6523C16.6018 19.7696 16.7974 20.0825 17.7751 20.0825H17.9707M17.7751 18.9483C17.5014 18.9483 17.4231 18.7527 17.1103 18.7527C16.7974 18.7527 16.3671 18.8701 16.1716 19.0265C16.1325 19.0656 16.2889 18.7136 16.6018 18.6745C16.9147 18.6354 16.7974 18.1269 17.1494 18.0487C17.1494 18.2052 17.032 18.1661 16.9929 18.4007C16.9929 18.5963 17.3449 18.5963 17.4231 18.4007C17.3449 18.7136 17.5796 18.7136 17.7751 18.7136" fill="black"/>
<path d="M17.7751 20.7476C17.5795 20.7476 17.0711 20.8649 17.7751 20.8649C18.4791 20.8649 17.9707 20.7476 17.7751 20.7476Z" fill="black"/>
</g>
<defs>
<clipPath id="clip0_10790_13982">
<rect width="64" height="64" rx="32" fill="white"/>
</clipPath>
</defs>
</svg>
