<svg width="64" height="64" viewBox="0 0 64 64" fill="none" xmlns="http://www.w3.org/2000/svg">
<g clip-path="url(#clip0_10790_14035)">
<path d="M0 42.6626H64V64.0001H0V42.6626Z" fill="#1EB53A"/>
<path d="M0 0H64V21.3375H0V0Z" fill="#0099B5"/>
<path d="M0 20.4751H64V43.5251H0V20.4751Z" fill="#CE1126"/>
<path d="M0 21.75H64V42.25H0V21.75Z" fill="white"/>
<path d="M17.925 17.9125C22.1638 17.9125 25.6 14.4763 25.6 10.2375C25.6 5.99871 22.1638 2.5625 17.925 2.5625C13.6862 2.5625 10.25 5.99871 10.25 10.2375C10.25 14.4763 13.6862 17.9125 17.925 17.9125Z" fill="white"/>
<path d="M20.4758 17.9125C24.7146 17.9125 28.1508 14.4763 28.1508 10.2375C28.1508 5.99871 24.7146 2.5625 20.4758 2.5625C16.237 2.5625 12.8008 5.99871 12.8008 10.2375C12.8008 14.4763 16.237 17.9125 20.4758 17.9125Z" fill="#0099B5"/>
<path d="M34.8126 14.8391L34.3262 16.2983L35.0686 16.5543" fill="white"/>
<path d="M34.8124 14.8391L35.2988 16.2983L34.5564 16.5543" fill="white"/>
<path d="M36.2734 15.9006L34.7353 15.8889L34.7212 16.6741" fill="white"/>
<path d="M36.2735 15.9007L35.036 16.8142L34.5632 16.1872" fill="white"/>
<path d="M33.3515 15.9004L34.589 16.814L35.0618 16.187" fill="white"/>
<path d="M33.3516 15.9003L34.8897 15.8887L34.9038 16.6738" fill="white"/>
<path d="M35.7159 17.6177L35.2517 16.1513L34.5006 16.3805" fill="white"/>
<path d="M35.7158 17.6177L34.4646 16.723L34.9147 16.0796" fill="white"/>
<path d="M33.9092 17.6177L35.1604 16.723L34.7103 16.0796" fill="white"/>
<path d="M33.9091 17.6177L34.3733 16.1513L35.1244 16.3805" fill="white"/>
<path d="M34.8126 8.69507L34.3262 10.1543L35.0686 10.4103" fill="white"/>
<path d="M34.8124 8.69507L35.2988 10.1543L34.5564 10.4103" fill="white"/>
<path d="M36.2734 9.75654L34.7353 9.74486L34.7212 10.53" fill="white"/>
<path d="M36.2735 9.75664L35.036 10.6702L34.5632 10.0432" fill="white"/>
<path d="M33.3515 9.7564L34.589 10.6699L35.0618 10.043" fill="white"/>
<path d="M33.3516 9.7563L34.8897 9.74462L34.9038 10.5298" fill="white"/>
<path d="M35.7159 11.4736L35.2517 10.0072L34.5006 10.2365" fill="white"/>
<path d="M35.7158 11.4736L34.4646 10.579L34.9147 9.93552" fill="white"/>
<path d="M33.9092 11.4736L35.1604 10.579L34.7103 9.93552" fill="white"/>
<path d="M33.9091 11.4736L34.3733 10.0072L35.1244 10.2365" fill="white"/>
<path d="M34.8126 2.55103L34.3262 4.01023L35.0686 4.26623" fill="white"/>
<path d="M34.8124 2.55103L35.2988 4.01023L34.5564 4.26623" fill="white"/>
<path d="M36.2734 3.6125L34.7353 3.60082L34.7212 4.38599" fill="white"/>
<path d="M36.2735 3.6126L35.036 4.52611L34.5632 3.89916" fill="white"/>
<path d="M33.3515 3.61236L34.589 4.52587L35.0618 3.89891" fill="white"/>
<path d="M33.3516 3.61225L34.8897 3.60058L34.9038 4.38575" fill="white"/>
<path d="M35.7159 5.3296L35.2517 3.86318L34.5006 4.09245" fill="white"/>
<path d="M35.7158 5.32958L34.4646 4.43496L34.9147 3.79148" fill="white"/>
<path d="M33.9092 5.32958L35.1604 4.43496L34.7103 3.79148" fill="white"/>
<path d="M33.9091 5.3296L34.3733 3.86318L35.1244 4.09245" fill="white"/>
<path d="M40.9571 14.8391L40.4707 16.2983L41.2131 16.5543" fill="white"/>
<path d="M40.957 14.8391L41.4434 16.2983L40.701 16.5543" fill="white"/>
<path d="M42.4179 15.9006L40.8798 15.8889L40.8657 16.6741" fill="white"/>
<path d="M42.4181 15.9007L41.1806 16.8142L40.7077 16.1872" fill="white"/>
<path d="M39.496 15.9004L40.7335 16.814L41.2064 16.187" fill="white"/>
<path d="M39.4962 15.9003L41.0343 15.8887L41.0483 16.6738" fill="white"/>
<path d="M41.8604 17.6177L41.3962 16.1513L40.6451 16.3805" fill="white"/>
<path d="M41.8603 17.6177L40.6091 16.723L41.0592 16.0796" fill="white"/>
<path d="M40.0538 17.6177L41.305 16.723L40.8548 16.0796" fill="white"/>
<path d="M40.0537 17.6177L40.5179 16.1513L41.2689 16.3805" fill="white"/>
<path d="M40.9571 8.69507L40.4707 10.1543L41.2131 10.4103" fill="white"/>
<path d="M40.957 8.69507L41.4434 10.1543L40.701 10.4103" fill="white"/>
<path d="M42.4179 9.75654L40.8798 9.74486L40.8657 10.53" fill="white"/>
<path d="M42.4181 9.75664L41.1806 10.6702L40.7077 10.0432" fill="white"/>
<path d="M39.496 9.7564L40.7335 10.6699L41.2064 10.043" fill="white"/>
<path d="M39.4962 9.7563L41.0343 9.74462L41.0483 10.5298" fill="white"/>
<path d="M41.8604 11.4736L41.3962 10.0072L40.6451 10.2365" fill="white"/>
<path d="M41.8603 11.4736L40.6091 10.579L41.0592 9.93552" fill="white"/>
<path d="M40.0538 11.4736L41.305 10.579L40.8548 9.93552" fill="white"/>
<path d="M40.0537 11.4736L40.5179 10.0072L41.2689 10.2365" fill="white"/>
<path d="M40.9571 2.55103L40.4707 4.01023L41.2131 4.26623" fill="white"/>
<path d="M40.957 2.55103L41.4434 4.01023L40.701 4.26623" fill="white"/>
<path d="M42.4179 3.6125L40.8798 3.60082L40.8657 4.38599" fill="white"/>
<path d="M42.4181 3.6126L41.1806 4.52611L40.7077 3.89916" fill="white"/>
<path d="M39.496 3.61236L40.7335 4.52587L41.2064 3.89891" fill="white"/>
<path d="M39.4962 3.61225L41.0343 3.60058L41.0483 4.38575" fill="white"/>
<path d="M41.8604 5.3296L41.3962 3.86318L40.6451 4.09245" fill="white"/>
<path d="M41.8603 5.32958L40.6091 4.43496L41.0592 3.79148" fill="white"/>
<path d="M40.0538 5.32958L41.305 4.43496L40.8548 3.79148" fill="white"/>
<path d="M40.0537 5.3296L40.5179 3.86318L41.2689 4.09245" fill="white"/>
<path d="M47.1016 14.8391L46.6152 16.2983L47.3576 16.5543" fill="white"/>
<path d="M47.1015 14.8391L47.5879 16.2983L46.8455 16.5543" fill="white"/>
<path d="M48.5624 15.9006L47.0243 15.8889L47.0103 16.6741" fill="white"/>
<path d="M48.5626 15.9007L47.3251 16.8142L46.8522 16.1872" fill="white"/>
<path d="M45.6405 15.9004L46.878 16.814L47.3509 16.187" fill="white"/>
<path d="M45.6407 15.9003L47.1788 15.8887L47.1929 16.6738" fill="white"/>
<path d="M48.0049 17.6177L47.5407 16.1513L46.7897 16.3805" fill="white"/>
<path d="M48.0048 17.6177L46.7536 16.723L47.2038 16.0796" fill="white"/>
<path d="M46.1983 17.6177L47.4495 16.723L46.9994 16.0796" fill="white"/>
<path d="M46.1982 17.6177L46.6624 16.1513L47.4135 16.3805" fill="white"/>
<path d="M47.1016 8.69507L46.6152 10.1543L47.3576 10.4103" fill="white"/>
<path d="M47.1015 8.69507L47.5879 10.1543L46.8455 10.4103" fill="white"/>
<path d="M48.5624 9.75654L47.0243 9.74486L47.0103 10.53" fill="white"/>
<path d="M48.5626 9.75664L47.3251 10.6702L46.8522 10.0432" fill="white"/>
<path d="M45.6405 9.7564L46.878 10.6699L47.3509 10.043" fill="white"/>
<path d="M45.6407 9.7563L47.1788 9.74462L47.1929 10.5298" fill="white"/>
<path d="M48.0049 11.4736L47.5407 10.0072L46.7897 10.2365" fill="white"/>
<path d="M48.0048 11.4736L46.7536 10.579L47.2038 9.93552" fill="white"/>
<path d="M46.1983 11.4736L47.4495 10.579L46.9994 9.93552" fill="white"/>
<path d="M46.1982 11.4736L46.6624 10.0072L47.4135 10.2365" fill="white"/>
<path d="M47.1016 2.55103L46.6152 4.01023L47.3576 4.26623" fill="white"/>
<path d="M47.1015 2.55103L47.5879 4.01023L46.8455 4.26623" fill="white"/>
<path d="M48.5624 3.6125L47.0243 3.60082L47.0103 4.38599" fill="white"/>
<path d="M48.5626 3.6126L47.3251 4.52611L46.8522 3.89916" fill="white"/>
<path d="M45.6405 3.61236L46.878 4.52587L47.3509 3.89891" fill="white"/>
<path d="M45.6407 3.61225L47.1788 3.60058L47.1929 4.38575" fill="white"/>
<path d="M48.0049 5.3296L47.5407 3.86318L46.7897 4.09245" fill="white"/>
<path d="M48.0048 5.32958L46.7536 4.43496L47.2038 3.79148" fill="white"/>
<path d="M46.1983 5.32958L47.4495 4.43496L46.9994 3.79148" fill="white"/>
<path d="M46.1982 5.3296L46.6624 3.86318L47.4135 4.09245" fill="white"/>
<path d="M22.5255 14.8391L22.0391 16.2983L22.7815 16.5543" fill="white"/>
<path d="M22.5253 14.8391L23.0117 16.2983L22.2693 16.5543" fill="white"/>
<path d="M23.9862 15.9006L22.4482 15.8889L22.4341 16.6741" fill="white"/>
<path d="M23.9864 15.9007L22.7489 16.8142L22.2761 16.1872" fill="white"/>
<path d="M21.0644 15.9004L22.3018 16.814L22.7747 16.187" fill="white"/>
<path d="M21.0645 15.9003L22.6026 15.8887L22.6167 16.6738" fill="white"/>
<path d="M23.4288 17.6177L22.9646 16.1513L22.2135 16.3805" fill="white"/>
<path d="M23.4287 17.6177L22.1775 16.723L22.6276 16.0796" fill="white"/>
<path d="M21.6221 17.6177L22.8733 16.723L22.4232 16.0796" fill="white"/>
<path d="M21.622 17.6177L22.0862 16.1513L22.8373 16.3805" fill="white"/>
<path d="M28.67 14.8391L28.1836 16.2983L28.926 16.5543" fill="white"/>
<path d="M28.6698 14.8391L29.1562 16.2983L28.4138 16.5543" fill="white"/>
<path d="M30.1308 15.9006L28.5927 15.8889L28.5786 16.6741" fill="white"/>
<path d="M30.1309 15.9007L28.8935 16.8142L28.4206 16.1872" fill="white"/>
<path d="M27.2089 15.9004L28.4464 16.814L28.9193 16.187" fill="white"/>
<path d="M27.2091 15.9003L28.7472 15.8887L28.7612 16.6738" fill="white"/>
<path d="M29.5733 17.6177L29.1091 16.1513L28.358 16.3805" fill="white"/>
<path d="M29.5732 17.6177L28.322 16.723L28.7721 16.0796" fill="white"/>
<path d="M27.7667 17.6177L29.0179 16.723L28.5677 16.0796" fill="white"/>
<path d="M27.7666 17.6177L28.2307 16.1513L28.9818 16.3805" fill="white"/>
<path d="M28.67 8.69507L28.1836 10.1543L28.926 10.4103" fill="white"/>
<path d="M28.6698 8.69507L29.1562 10.1543L28.4138 10.4103" fill="white"/>
<path d="M30.1308 9.75654L28.5927 9.74486L28.5786 10.53" fill="white"/>
<path d="M30.1309 9.75664L28.8935 10.6702L28.4206 10.0432" fill="white"/>
<path d="M27.2089 9.7564L28.4464 10.6699L28.9193 10.043" fill="white"/>
<path d="M27.2091 9.7563L28.7472 9.74462L28.7612 10.5298" fill="white"/>
<path d="M29.5733 11.4736L29.1091 10.0072L28.358 10.2365" fill="white"/>
<path d="M29.5732 11.4736L28.322 10.579L28.7721 9.93552" fill="white"/>
<path d="M27.7667 11.4736L29.0179 10.579L28.5677 9.93552" fill="white"/>
<path d="M27.7666 11.4736L28.2307 10.0072L28.9818 10.2365" fill="white"/>
</g>
<defs>
<clipPath id="clip0_10790_14035">
<rect width="64" height="64" rx="32" fill="white"/>
</clipPath>
</defs>
</svg>
