<svg width="64" height="64" viewBox="0 0 64 64" fill="none" xmlns="http://www.w3.org/2000/svg">
<g clip-path="url(#clip0_10790_14262)">
<path d="M0 0H64V64H0V0Z" fill="#009543"/>
<path d="M0 0H64V32H0V0Z" fill="#D21034"/>
<mask id="mask0_10790_14262" style="mask-type:luminance" maskUnits="userSpaceOnUse" x="0" y="0" width="64" height="65">
<path d="M0 0V64.0003L29.8667 37.7265H64.0001V26.2738H29.8667L0 0Z" fill="white"/>
</mask>
<g mask="url(#mask0_10790_14262)">
<path d="M0 0L29.8667 26.2738H64.0001V37.7265H29.8667L0 64.0003" fill="black"/>
<path d="M0 0L29.8667 26.2738H64.0001V37.7265H29.8667L0 64.0003" stroke="#FDCE12" stroke-width="10.7673"/>
<path d="M0 0L29.8667 26.2738H64.0001M64.0001 37.7265H29.8667L0 64.0003" stroke="black" stroke-width="5.87306"/>
</g>
<path d="M8.451 37.4929V40.7515C11.2872 40.7515 16.8631 38.5791 16.8631 31.567C16.8631 24.5549 10.9131 23.2515 9.13893 23.2515C7.35272 23.2515 1.86133 24.5308 1.86133 30.2515C1.86133 35.9963 7.25617 36.5274 8.31824 36.5274C9.38032 36.5274 13.3631 35.5618 12.9045 31.2653C12.7856 32.3139 12.2838 33.2818 11.4954 33.9833C10.707 34.6849 9.68738 35.0708 8.63204 35.067C5.73548 35.067 3.92513 32.9187 3.92513 30.7946C3.92513 28.6704 5.6872 25.8222 8.74066 25.8222C11.7941 25.8222 14.0269 28.5377 14.0269 31.2653C14.0269 34.0049 11.8786 37.4808 8.451 37.4808V37.4929Z" fill="#FDCE12"/>
<path d="M5.95312 33.2327L6.12209 33.3534C6.12209 33.3534 7.47382 30.2758 11.0824 28.0913C10.6238 28.3327 8.21003 29.5396 5.95312 33.2327Z" fill="#FDCE12" stroke="#FDCE12" stroke-width="0.096552"/>
<path d="M6.30304 32.7016C6.30304 32.7016 5.89269 31.8568 6.25476 31.4706C6.61683 31.0964 6.45993 32.4723 6.45993 32.4723L6.61683 32.243C6.61683 32.243 6.37545 31.2051 6.64097 30.9878C6.91856 30.7585 6.7858 31.9895 6.7858 31.9895L6.95476 31.7723C6.95476 31.7723 6.77373 30.7585 7.03925 30.5654C7.31683 30.3723 7.14787 31.5309 7.14787 31.5309L7.34097 31.2895C7.34097 31.2895 7.19614 30.324 7.52201 30.0947C7.84787 29.8654 7.55821 31.012 7.55821 31.012L7.77545 30.7706C7.77545 30.7706 7.6789 29.8895 7.95649 29.6844C8.23408 29.4913 8.00477 30.5292 8.00477 30.5292L8.19787 30.3119C8.19787 30.3119 8.13752 29.4913 8.40304 29.2982C8.68063 29.105 8.42718 30.0826 8.42718 30.0826L8.63235 29.8895C8.63235 29.8895 8.58408 29.0568 8.92201 28.8999C9.25994 28.743 8.86167 29.6723 8.86167 29.6723L9.10304 29.4792C9.10304 29.4792 9.16339 28.5137 9.45305 28.4292C9.7427 28.3326 9.33236 29.274 9.33236 29.274L9.53753 29.105C9.53753 29.105 9.64615 28.2844 9.95994 28.1878C10.2858 28.0792 9.76684 28.9361 9.76684 28.9361L9.97201 28.7792C9.97201 28.7792 10.2013 27.9585 10.503 27.8619C10.7927 27.7775 10.1893 28.6464 10.1893 28.6464L10.3944 28.5016C10.3944 28.5016 10.7203 27.7533 10.9979 27.705C11.2513 27.6568 10.6841 28.3206 10.6841 28.3206L10.9375 28.1757C10.9375 28.1757 11.3599 27.4033 11.5168 27.6326C11.6617 27.874 10.9134 28.224 10.9134 28.224L10.672 28.3688C10.672 28.3688 11.5772 27.9344 11.6858 28.1516C11.7944 28.3688 10.4427 28.5137 10.4427 28.5137L10.2255 28.6585C10.2255 28.6585 11.1306 28.4171 11.022 28.6464C10.9013 28.8757 10.0082 28.8275 10.0082 28.8275L9.80305 28.9723C9.80305 28.9723 10.7082 28.755 10.5875 28.9723C10.4668 29.1654 9.5858 29.1533 9.5858 29.1533L9.36856 29.3344C9.36856 29.3344 10.2496 29.093 10.1168 29.3706C9.99615 29.6361 8.98236 29.624 8.98236 29.624L8.74097 29.8654C8.74097 29.8654 9.67029 29.5395 9.5858 29.793C9.51339 30.0344 8.45132 30.1551 8.45132 30.1551L8.20994 30.3964C8.20994 30.3964 9.21167 30.0706 8.90994 30.3723C8.62028 30.6861 7.88408 30.7585 7.88408 30.7585L7.60649 31.1206C7.60649 31.1206 8.59615 30.5171 8.45132 30.8551C8.31856 31.193 7.34097 31.4223 7.34097 31.4223L7.14787 31.6637C7.14787 31.6637 8.04097 31.1447 7.94442 31.4223C7.85994 31.724 6.90649 32.0257 6.90649 32.0257L6.74959 32.243C6.74959 32.243 7.79959 31.6154 7.71511 31.9413C7.61856 32.2551 6.61683 32.4844 6.61683 32.4844L6.49614 32.6895C6.49614 32.6895 7.46166 32.1223 7.46166 32.3999C7.4858 32.6654 6.32718 32.9309 6.32718 32.9309L6.30304 32.7016Z" fill="#FDCE12"/>
<path d="M11.6973 33.2327L11.5283 33.3534C11.5283 33.3534 10.1766 30.2758 6.56794 28.0913C7.02656 28.3327 9.44036 29.5396 11.6973 33.2327Z" fill="#FDCE12" stroke="#FDCE12" stroke-width="0.096552"/>
<path d="M11.3474 32.7016C11.3474 32.7016 11.7577 31.8568 11.3956 31.4706C11.0336 31.0964 11.1905 32.4723 11.1905 32.4723L11.0336 32.243C11.0336 32.243 11.2749 31.2051 11.0094 30.9878C10.7318 30.7585 10.8646 31.9895 10.8646 31.9895L10.6956 31.7723C10.6956 31.7723 10.8767 30.7585 10.6111 30.5654C10.3336 30.3723 10.5025 31.5309 10.5025 31.5309L10.3094 31.2895C10.3094 31.2895 10.4542 30.324 10.1284 30.0947C9.80252 29.8654 10.0922 31.012 10.0922 31.012L9.87494 30.7706C9.87494 30.7706 9.97149 29.8895 9.6939 29.6844C9.41631 29.4913 9.64563 30.5292 9.64563 30.5292L9.45252 30.3119C9.45252 30.3119 9.51287 29.4913 9.24735 29.2982C8.96976 29.105 9.22321 30.0826 9.22321 30.0826L9.01804 29.8895C9.01804 29.8895 9.06631 29.0568 8.72838 28.8999C8.39045 28.743 8.78873 29.6723 8.78873 29.6723L8.54735 29.4792C8.54735 29.4792 8.487 28.5137 8.19735 28.4292C7.90769 28.3326 8.31804 29.274 8.31804 29.274L8.11286 29.105C8.11286 29.105 8.00424 28.2844 7.69045 28.1878C7.36458 28.0792 7.88355 28.9361 7.88355 28.9361L7.67838 28.7792C7.67838 28.7792 7.44907 27.9585 7.14734 27.8619C6.85769 27.7775 7.46114 28.6464 7.46114 28.6464L7.25596 28.5016C7.25596 28.5016 6.9301 27.7533 6.65251 27.705C6.39906 27.6568 6.96631 28.3206 6.96631 28.3206L6.71286 28.1757C6.71286 28.1757 6.29044 27.4033 6.13355 27.6326C5.98872 27.874 6.737 28.224 6.737 28.224L6.97838 28.3688C6.97838 28.3688 6.0732 27.9344 5.96458 28.1516C5.85596 28.3688 7.20769 28.5137 7.20769 28.5137L7.42493 28.6585C7.42493 28.6585 6.51975 28.4171 6.62838 28.6464C6.74907 28.8757 7.64217 28.8275 7.64217 28.8275L7.84734 28.9723C7.84734 28.9723 6.94217 28.755 7.06286 28.9723C7.18355 29.1654 8.06459 29.1533 8.06459 29.1533L8.28183 29.3344C8.28183 29.3344 7.40079 29.093 7.53355 29.3706C7.65424 29.6361 8.66804 29.624 8.66804 29.624L8.90942 29.8654C8.90942 29.8654 7.9801 29.5395 8.06459 29.793C8.137 30.0344 9.19907 30.1551 9.19907 30.1551L9.44045 30.3964C9.44045 30.3964 8.43873 30.0706 8.74045 30.3723C9.03011 30.6861 9.76632 30.7585 9.76632 30.7585L10.0439 31.1206C10.0439 31.1206 9.05424 30.5171 9.19907 30.8551C9.33183 31.193 10.3094 31.4223 10.3094 31.4223L10.5025 31.6637C10.5025 31.6637 9.60942 31.1447 9.70597 31.4223C9.79045 31.724 10.7439 32.0257 10.7439 32.0257L10.9008 32.243C10.9008 32.243 9.8508 31.6154 9.93528 31.9413C10.0318 32.2551 11.0336 32.4844 11.0336 32.4844L11.1543 32.6895C11.1543 32.6895 10.1887 32.1223 10.1887 32.3999C10.1646 32.6654 11.3232 32.9309 11.3232 32.9309L11.3474 32.7016Z" fill="#FDCE12"/>
</g>
<defs>
<clipPath id="clip0_10790_14262">
<rect width="64" height="64" rx="32" fill="white"/>
</clipPath>
</defs>
</svg>
