<svg width="64" height="64" viewBox="0 0 64 64" fill="none" xmlns="http://www.w3.org/2000/svg">
<g clip-path="url(#clip0_10790_14281)">
<path d="M0 0H64V64H0V0Z" fill="#CF142B"/>
<path d="M0 0H64V42.6625H0V0Z" fill="#00247D"/>
<path d="M0 0H64V21.3375H0V0Z" fill="#FFCC00"/>
<path d="M35.8344 23.2739L34.6025 25.6551L35.9893 26.3869L35.8344 23.2739Z" fill="white"/>
<path d="M35.8336 23.274L36.1767 25.933L34.6233 26.1463L35.8336 23.274Z" fill="white"/>
<path d="M38.0117 25.528L35.3663 25.0922L35.0989 26.6372L38.0117 25.528Z" fill="white"/>
<path d="M38.0118 25.5279L35.589 26.676L34.9061 25.2645L38.0118 25.5279Z" fill="white"/>
<path d="M33.018 24.6477L34.902 26.5551L36.0265 25.4624L33.018 24.6477Z" fill="white"/>
<path d="M33.0171 24.6477L35.652 25.143L35.3749 26.6863L33.0171 24.6477Z" fill="white"/>
<path d="M36.5391 28.2949L36.136 25.6443L34.584 25.8674L36.5391 28.2949Z" fill="white"/>
<path d="M36.5391 28.2949L34.6985 26.3455L35.8299 25.2599L36.5391 28.2949Z" fill="white"/>
<path d="M33.4523 27.7507L35.8486 26.5483L35.1568 25.1412L33.4523 27.7507Z" fill="white"/>
<path d="M33.452 27.7508L34.7373 25.3979L36.1194 26.1384L33.452 27.7508Z" fill="white"/>
<path d="M42.9679 25.8703L40.9959 27.6866L42.0487 28.8485L42.9679 25.8703Z" fill="white"/>
<path d="M42.9676 25.8704L42.3807 28.4864L40.848 28.1556L42.9676 25.8704Z" fill="white"/>
<path d="M44.2419 28.7329L41.9051 27.4186L41.1254 28.779L44.2419 28.7329Z" fill="white"/>
<path d="M44.2424 28.7329L41.5731 28.9831L41.4141 27.4232L44.2424 28.7329Z" fill="white"/>
<path d="M39.8521 26.1981L40.9701 28.6349L42.4005 27.9926L39.8521 26.1981Z" fill="white"/>
<path d="M39.853 26.1982L42.1596 27.5648L41.3713 28.9202L39.853 26.1982Z" fill="white"/>
<path d="M41.9137 30.8299L42.4415 28.2014L40.9068 27.8802L41.9137 30.8299Z" fill="white"/>
<path d="M41.9144 30.83L40.8517 28.3686L42.2861 27.7354L41.9144 30.83Z" fill="white"/>
<path d="M39.2001 29.2631L41.8632 28.9528L41.6943 27.394L39.2001 29.2631Z" fill="white"/>
<path d="M39.2003 29.263L41.2128 27.4916L42.2582 28.6602L39.2003 29.263Z" fill="white"/>
<path d="M48.7816 30.7498L46.3073 31.7821L46.8992 33.234L48.7816 30.7498Z" fill="white"/>
<path d="M48.7809 30.7497L47.3346 33.0072L46.0075 32.1721L48.7809 30.7497Z" fill="white"/>
<path d="M49.0001 33.8757L47.2537 31.8414L46.0557 32.8531L49.0001 33.8757Z" fill="white"/>
<path d="M48.9999 33.8758L46.406 33.1979L46.7901 31.6777L48.9999 33.8758Z" fill="white"/>
<path d="M45.7415 29.9917L45.9586 32.6639L47.5224 32.5496L45.7415 29.9917Z" fill="white"/>
<path d="M45.741 29.9917L47.441 32.0648L46.2367 33.0689L45.741 29.9917Z" fill="white"/>
<path d="M46.0952 35.0497L47.4902 32.7602L46.1578 31.9335L46.0952 35.0497Z" fill="white"/>
<path d="M46.0943 35.0497L45.9374 32.3732L47.5019 32.2688L46.0943 35.0497Z" fill="white"/>
<path d="M44.0809 32.6493L46.6895 33.2685L47.064 31.7459L44.0809 32.6493Z" fill="white"/>
<path d="M44.0812 32.6493L46.5782 31.6731L47.1609 33.1287L44.0812 32.6493Z" fill="white"/>
<path d="M52.5782 37.324L49.9 37.4477L49.9597 39.0146L52.5782 37.324Z" fill="white"/>
<path d="M52.5781 37.324L50.4469 38.9507L49.4855 37.712L52.5781 37.324Z" fill="white"/>
<path d="M51.7136 40.3363L50.7683 37.8275L49.2966 38.3684L51.7136 40.3363Z" fill="white"/>
<path d="M51.7141 40.3363L49.5085 38.8121L50.3894 37.515L51.7141 40.3363Z" fill="white"/>
<path d="M49.9808 35.5717L49.2709 38.1571L50.7795 38.5845L49.9808 35.5717Z" fill="white"/>
<path d="M49.9801 35.5716L50.8686 38.1011L49.3935 38.6328L49.9801 35.5716Z" fill="white"/>
<path d="M48.5831 40.4456L50.6771 38.7713L49.7078 37.5388L48.5831 40.4456Z" fill="white"/>
<path d="M48.5829 40.4457L49.3509 37.877L50.8567 38.314L48.5829 40.4457Z" fill="white"/>
<path d="M47.5114 37.5011L49.7509 38.9751L50.6236 37.6725L47.5114 37.5011Z" fill="white"/>
<path d="M47.512 37.5011L50.1923 37.4378L50.2421 39.005L47.512 37.5011Z" fill="white"/>
<path d="M11.4981 37.3242L13.6293 38.9509L14.5907 37.7123L11.4981 37.3242Z" fill="white"/>
<path d="M11.498 37.3242L14.1762 37.448L14.1165 39.0148L11.498 37.3242Z" fill="white"/>
<path d="M14.0961 35.5719L13.2076 38.1014L14.6827 38.633L14.0961 35.5719Z" fill="white"/>
<path d="M14.0953 35.5719L14.8052 38.1573L13.2966 38.5847L14.0953 35.5719Z" fill="white"/>
<path d="M12.362 40.3365L14.5677 38.8123L13.6868 37.5152L12.362 40.3365Z" fill="white"/>
<path d="M12.3626 40.3366L13.3079 37.8277L14.7796 38.3687L12.3626 40.3366Z" fill="white"/>
<path d="M16.5661 37.5011L13.8858 37.4378L13.8361 39.005L16.5661 37.5011Z" fill="white"/>
<path d="M16.5667 37.5011L14.3272 38.9751L13.4546 37.6725L16.5667 37.5011Z" fill="white"/>
<path d="M15.4952 40.4457L14.7272 37.877L13.2214 38.314L15.4952 40.4457Z" fill="white"/>
<path d="M15.495 40.4456L13.4011 38.7713L14.3703 37.5388L15.495 40.4456Z" fill="white"/>
<path d="M15.2933 30.75L16.7396 33.0074L18.0667 32.1723L15.2933 30.75Z" fill="white"/>
<path d="M15.2926 30.75L17.7669 31.7823L17.175 33.2343L15.2926 30.75Z" fill="white"/>
<path d="M18.3333 29.992L16.6332 32.065L17.8375 33.0691L18.3333 29.992Z" fill="white"/>
<path d="M18.3328 29.9919L18.1156 32.6642L16.5518 32.5498L18.3328 29.9919Z" fill="white"/>
<path d="M15.0762 33.876L17.6702 33.1981L17.286 31.678L15.0762 33.876Z" fill="white"/>
<path d="M15.0761 33.8759L16.8225 31.8417L18.0204 32.8534L15.0761 33.8759Z" fill="white"/>
<path d="M19.995 32.6493L17.498 31.6731L16.9152 33.1287L19.995 32.6493Z" fill="white"/>
<path d="M19.9952 32.6493L17.3867 33.2685L17.0122 31.7459L19.9952 32.6493Z" fill="white"/>
<path d="M17.9799 35.0499L18.1368 32.3735L16.5723 32.269L17.9799 35.0499Z" fill="white"/>
<path d="M17.9791 35.0499L16.584 32.7604L17.9164 31.9337L17.9791 35.0499Z" fill="white"/>
<path d="M21.1086 25.8707L21.6955 28.4867L23.2282 28.1558L21.1086 25.8707Z" fill="white"/>
<path d="M21.1082 25.8705L23.0803 27.6869L22.0274 28.8488L21.1082 25.8705Z" fill="white"/>
<path d="M24.2251 26.1982L21.9186 27.5648L22.7068 28.9202L24.2251 26.1982Z" fill="white"/>
<path d="M24.226 26.1981L23.108 28.6349L21.6776 27.9926L24.226 26.1981Z" fill="white"/>
<path d="M19.8337 28.7334L22.5031 28.9836L22.662 27.4237L19.8337 28.7334Z" fill="white"/>
<path d="M19.8342 28.7334L22.171 27.4191L22.9507 28.7795L19.8342 28.7334Z" fill="white"/>
<path d="M24.8759 29.2633L22.8634 27.4919L21.8179 28.6604L24.8759 29.2633Z" fill="white"/>
<path d="M24.876 29.2633L22.213 28.9531L22.3818 27.3942L24.876 29.2633Z" fill="white"/>
<path d="M22.1617 30.83L23.2245 28.3686L21.7901 27.7354L22.1617 30.83Z" fill="white"/>
<path d="M22.1625 30.8299L21.6347 28.2014L23.1694 27.8802L22.1625 30.8299Z" fill="white"/>
<path d="M28.2426 23.2742L27.8994 25.9332L29.4528 26.1465L28.2426 23.2742Z" fill="white"/>
<path d="M28.2418 23.2741L29.4737 25.6554L28.0869 26.3871L28.2418 23.2741Z" fill="white"/>
<path d="M31.059 24.648L28.4241 25.1433L28.7013 26.6866L31.059 24.648Z" fill="white"/>
<path d="M31.0582 24.6479L29.1741 26.5554L28.0497 25.4626L31.0582 24.6479Z" fill="white"/>
<path d="M26.0644 25.5284L28.4872 26.6765L29.1701 25.265L26.0644 25.5284Z" fill="white"/>
<path d="M26.0645 25.5285L28.7099 25.0927L28.9773 26.6377L26.0645 25.5285Z" fill="white"/>
<path d="M30.6222 27.751L29.3369 25.3982L27.9548 26.1386L30.6222 27.751Z" fill="white"/>
<path d="M30.6219 27.7509L28.2256 26.5485L28.9174 25.1414L30.6219 27.7509Z" fill="white"/>
<path d="M27.5371 28.2952L29.3777 26.3457L28.2463 25.2601L27.5371 28.2952Z" fill="white"/>
<path d="M27.5371 28.2951L27.9402 25.6446L29.4922 25.8677L27.5371 28.2951Z" fill="white"/>
</g>
<defs>
<clipPath id="clip0_10790_14281">
<rect width="64" height="64" rx="32" fill="white"/>
</clipPath>
</defs>
</svg>
