<svg width="64" height="64" viewBox="0 0 64 64" fill="none" xmlns="http://www.w3.org/2000/svg">
<g clip-path="url(#clip0_10790_13864)">
<path d="M0 0H64V64H0V0Z" fill="#000066"/>
<path d="M36.3689 15.5865L59.4943 15.5034L59.4481 36.0983C59.4481 36.0983 60.2608 39.2383 49.7509 43.9945C53.5282 43.6067 57.6472 39.58 57.6472 39.58C57.6472 39.58 59.3188 37.4282 60.1407 38.6288C60.9534 39.8294 61.72 40.4389 62.3203 40.9099C62.9206 41.3717 63.3916 42.6647 62.4958 43.6067C61.5907 44.5579 60.1777 44.678 59.7898 43.5235C59.1895 43.8283 55.5046 48.289 47.95 48.5014C40.2662 48.3721 36.0641 43.4774 36.0641 43.4774C36.0641 43.4774 35.039 45.112 33.5706 43.8283C32.1576 42.1475 33.2289 41.0762 33.2289 41.0762C33.2289 41.0762 34.4295 40.3928 34.7804 39.9217C35.3345 39.2753 35.51 38.4164 36.4428 38.4164C37.5695 38.5087 37.9943 39.4046 37.9943 39.4046C37.9943 39.4046 41.8547 43.4774 46.0199 43.9945C36.6275 39.4877 36.2765 36.6986 36.3227 36.0152L36.3689 15.5865Z" fill="white"/>
<path d="M36.923 16.1498L58.977 16.0205V35.8396C59.0232 38.4255 54.6826 41.0391 47.9038 44.3823C40.9126 40.7805 36.8768 38.5918 36.8398 35.7934L36.923 16.1498Z" fill="#006129" stroke="black" stroke-width="0.175472"/>
<path d="M39.9258 19.0775L41.2187 17.1658L42.5394 19.0867" stroke="#FFC72C" stroke-width="0.175472"/>
<path d="M41.4859 18.357C41.4859 18.4256 41.4587 18.4913 41.4102 18.5398C41.3617 18.5883 41.2959 18.6156 41.2273 18.6156C41.1588 18.6156 41.093 18.5883 41.0445 18.5398C40.996 18.4913 40.9688 18.4256 40.9688 18.357C40.9688 18.2884 40.996 18.2226 41.0445 18.1741C41.093 18.1256 41.1588 18.0984 41.2273 18.0984C41.2959 18.0984 41.3617 18.1256 41.4102 18.1741C41.4587 18.2226 41.4859 18.2884 41.4859 18.357Z" fill="#FFC72C" stroke="black" stroke-width="0.0831184"/>
<path d="M40.165 20.4903H42.1875C42.1875 20.4903 42.2152 20.2317 41.9751 20.0747C43.0372 19.9269 42.7601 19.0034 43.6375 18.948C43.8222 18.9757 43.1757 19.3451 43.1757 19.3451C43.1757 19.3451 42.6493 19.7145 42.8986 19.9085C43.0833 20.0655 43.1757 19.8161 43.1942 19.6314C43.2219 19.4467 44.0531 19.3266 43.933 18.8002C43.7391 18.3662 42.5754 19.0958 42.5754 19.0958L41.7442 19.0865C41.6888 18.9942 41.4672 18.6248 41.227 18.6248C40.95 18.6248 40.7468 19.0865 40.7468 19.0865H38.872C38.872 19.0865 38.8074 19.576 39.7586 19.6684C39.971 19.9454 40.1373 20.0193 40.3312 20.0932C40.2019 20.1948 40.165 20.3241 40.165 20.4903ZM40.3127 20.0839H41.9936H40.3127Z" fill="#FFC72C"/>
<path d="M40.3127 20.0839H41.9936M40.165 20.4903H42.1875C42.1875 20.4903 42.2152 20.2317 41.9751 20.0747C43.0372 19.9269 42.7601 19.0034 43.6375 18.948C43.8222 18.9757 43.1757 19.3451 43.1757 19.3451C43.1757 19.3451 42.6493 19.7145 42.8986 19.9085C43.0833 20.0655 43.1757 19.8161 43.1942 19.6314C43.2219 19.4467 44.0531 19.3266 43.933 18.8002C43.7391 18.3662 42.5754 19.0958 42.5754 19.0958L41.7442 19.0865C41.6888 18.9942 41.4672 18.6248 41.227 18.6248C40.95 18.6248 40.7468 19.0865 40.7468 19.0865H38.872C38.872 19.0865 38.8074 19.576 39.7586 19.6684C39.971 19.9454 40.1373 20.0193 40.3312 20.0932C40.2019 20.1948 40.165 20.3241 40.165 20.4903Z" stroke="black" stroke-width="0.0831184"/>
<path d="M39.5469 19.0959C39.5469 19.0959 39.6762 19.881 40.3042 20.0657L39.5469 19.0959Z" fill="#FFC72C"/>
<path d="M39.5469 19.0959C39.5469 19.0959 39.6762 19.881 40.3042 20.0657" stroke="black" stroke-width="0.0831184"/>
<path d="M39.4453 19.0773C39.5007 18.7818 39.6207 18.7264 39.7408 18.3385C39.7593 17.9691 39.4453 18.0153 39.5376 17.7844C39.7039 17.5165 39.6207 17.2672 39.3067 17.0732C39.3714 17.415 38.9004 17.7382 38.9004 18.0153C38.9004 18.2923 39.1405 18.2369 39.1128 18.6617C39.1313 18.9018 39.0482 18.8464 39.0204 19.0773H39.4453Z" fill="url(#paint0_linear_10790_13864)" stroke="black" stroke-width="0.0831184"/>
<path d="M41.4666 17.2211C41.4666 17.2848 41.4413 17.3458 41.3962 17.3909C41.3512 17.4359 41.2901 17.4612 41.2265 17.4612C41.1628 17.4612 41.1017 17.4359 41.0567 17.3909C41.0116 17.3458 40.9863 17.2848 40.9863 17.2211C40.9863 17.1574 41.0116 17.0963 41.0567 17.0513C41.1017 17.0063 41.1628 16.981 41.2265 16.981C41.2901 16.981 41.3512 17.0063 41.3962 17.0513C41.4413 17.0963 41.4666 17.1574 41.4666 17.2211Z" fill="#FFC72C" stroke="black" stroke-width="0.0831184"/>
<path d="M39.8516 22.8919L41.1445 20.9802L42.4652 22.9012" stroke="#FFC72C" stroke-width="0.175472"/>
<path d="M41.4117 22.1714C41.4117 22.24 41.3845 22.3058 41.336 22.3543C41.2875 22.4028 41.2217 22.43 41.1531 22.43C41.0845 22.43 41.0188 22.4028 40.9703 22.3543C40.9218 22.3058 40.8945 22.24 40.8945 22.1714C40.8945 22.1029 40.9218 22.0371 40.9703 21.9886C41.0188 21.9401 41.0845 21.9128 41.1531 21.9128C41.2217 21.9128 41.2875 21.9401 41.336 21.9886C41.3845 22.0371 41.4117 22.1029 41.4117 22.1714Z" fill="#FFC72C" stroke="black" stroke-width="0.0831184"/>
<path d="M40.0908 24.3048H42.1133C42.1133 24.3048 42.141 24.0462 41.9009 23.8892C42.963 23.7414 42.6859 22.8179 43.5633 22.7624C43.748 22.7902 43.1015 23.1596 43.1015 23.1596C43.1015 23.1596 42.5751 23.529 42.8244 23.7229C43.0091 23.8799 43.1015 23.6306 43.12 23.4459C43.1477 23.2612 43.9788 23.1411 43.8588 22.6147C43.6648 22.1806 42.5012 22.9102 42.5012 22.9102L41.67 22.901C41.6146 22.8086 41.3929 22.4392 41.1528 22.4392C40.8758 22.4392 40.6726 22.901 40.6726 22.901H38.7978C38.7978 22.901 38.7332 23.3905 39.6844 23.4828C39.8968 23.7599 40.063 23.8338 40.257 23.9076C40.1277 24.0092 40.0908 24.1385 40.0908 24.3048ZM40.2385 23.8984H41.9194H40.2385Z" fill="#FFC72C"/>
<path d="M40.2385 23.8984H41.9194M40.0908 24.3048H42.1133C42.1133 24.3048 42.141 24.0462 41.9009 23.8892C42.963 23.7414 42.6859 22.8179 43.5633 22.7624C43.748 22.7902 43.1015 23.1596 43.1015 23.1596C43.1015 23.1596 42.5751 23.529 42.8244 23.7229C43.0091 23.8799 43.1015 23.6306 43.12 23.4459C43.1477 23.2612 43.9788 23.1411 43.8588 22.6147C43.6648 22.1806 42.5012 22.9102 42.5012 22.9102L41.67 22.901C41.6146 22.8086 41.3929 22.4392 41.1528 22.4392C40.8758 22.4392 40.6726 22.901 40.6726 22.901H38.7978C38.7978 22.901 38.7332 23.3905 39.6844 23.4828C39.8968 23.7599 40.063 23.8338 40.257 23.9076C40.1277 24.0092 40.0908 24.1385 40.0908 24.3048Z" stroke="black" stroke-width="0.0831184"/>
<path d="M39.4727 22.9104C39.4727 22.9104 39.602 23.6954 40.23 23.8801L39.4727 22.9104Z" fill="#FFC72C"/>
<path d="M39.4727 22.9104C39.4727 22.9104 39.602 23.6954 40.23 23.8801" stroke="black" stroke-width="0.0831184"/>
<path d="M39.3711 22.8918C39.4265 22.5962 39.5465 22.5408 39.6666 22.1529C39.6851 21.7835 39.3711 21.8297 39.4634 21.5988C39.6296 21.331 39.5465 21.0816 39.2325 20.8877C39.2972 21.2294 38.8262 21.5526 38.8262 21.8297C38.8262 22.1068 39.0663 22.0514 39.0386 22.4762C39.0571 22.7163 38.9739 22.6609 38.9462 22.8918H39.3711Z" fill="url(#paint1_linear_10790_13864)" stroke="black" stroke-width="0.0831184"/>
<path d="M41.3923 21.0355C41.3923 21.0992 41.3671 21.1603 41.322 21.2053C41.277 21.2504 41.2159 21.2756 41.1522 21.2756C41.0885 21.2756 41.0275 21.2504 40.9824 21.2053C40.9374 21.1603 40.9121 21.0992 40.9121 21.0355C40.9121 20.9718 40.9374 20.9108 40.9824 20.8657C41.0275 20.8207 41.0885 20.7954 41.1522 20.7954C41.2159 20.7954 41.277 20.8207 41.322 20.8657C41.3671 20.9108 41.3923 20.9718 41.3923 21.0355Z" fill="#FFC72C" stroke="black" stroke-width="0.0831184"/>
<path d="M39.8242 26.6507L41.1172 24.739L42.4378 26.66" stroke="#FFC72C" stroke-width="0.175472"/>
<path d="M41.3844 25.9302C41.3844 25.9988 41.3571 26.0646 41.3086 26.1131C41.2601 26.1616 41.1944 26.1888 41.1258 26.1888C41.0572 26.1888 40.9914 26.1616 40.9429 26.1131C40.8944 26.0646 40.8672 25.9988 40.8672 25.9302C40.8672 25.8616 40.8944 25.7959 40.9429 25.7474C40.9914 25.6989 41.0572 25.6716 41.1258 25.6716C41.1944 25.6716 41.2601 25.6989 41.3086 25.7474C41.3571 25.7959 41.3844 25.8616 41.3844 25.9302Z" fill="#FFC72C" stroke="black" stroke-width="0.0831184"/>
<path d="M40.0634 28.0635H42.086C42.086 28.0635 42.1137 27.805 41.8735 27.648C42.9356 27.5002 42.6585 26.5766 43.5359 26.5212C43.7206 26.5489 43.0741 26.9184 43.0741 26.9184C43.0741 26.9184 42.5477 27.2878 42.7971 27.4817C42.9818 27.6387 43.0741 27.3894 43.0926 27.2047C43.1203 27.0199 43.9515 26.8999 43.8314 26.3735C43.6375 25.9394 42.4738 26.669 42.4738 26.669L41.6427 26.6598C41.5872 26.5674 41.3656 26.198 41.1255 26.198C40.8484 26.198 40.6452 26.6598 40.6452 26.6598H38.7705C38.7705 26.6598 38.7058 27.1492 39.6571 27.2416C39.8695 27.5187 40.0357 27.5925 40.2296 27.6664C40.1003 27.768 40.0634 27.8973 40.0634 28.0635ZM40.2112 27.6572H41.892H40.2112Z" fill="#FFC72C"/>
<path d="M40.2112 27.6572H41.892M40.0634 28.0635H42.086C42.086 28.0635 42.1137 27.805 41.8735 27.648C42.9356 27.5002 42.6585 26.5766 43.5359 26.5212C43.7206 26.5489 43.0741 26.9184 43.0741 26.9184C43.0741 26.9184 42.5477 27.2878 42.7971 27.4817C42.9818 27.6387 43.0741 27.3894 43.0926 27.2047C43.1203 27.0199 43.9515 26.8999 43.8314 26.3735C43.6375 25.9394 42.4738 26.669 42.4738 26.669L41.6427 26.6598C41.5872 26.5674 41.3656 26.198 41.1255 26.198C40.8484 26.198 40.6452 26.6598 40.6452 26.6598H38.7705C38.7705 26.6598 38.7058 27.1492 39.6571 27.2416C39.8695 27.5187 40.0357 27.5925 40.2296 27.6664C40.1003 27.768 40.0634 27.8973 40.0634 28.0635Z" stroke="black" stroke-width="0.0831184"/>
<path d="M39.4453 26.6692C39.4453 26.6692 39.5746 27.4542 40.2026 27.6389L39.4453 26.6692Z" fill="#FFC72C"/>
<path d="M39.4453 26.6692C39.4453 26.6692 39.5746 27.4542 40.2026 27.6389" stroke="black" stroke-width="0.0831184"/>
<path d="M39.3437 26.6506C39.3991 26.355 39.5192 26.2996 39.6392 25.9117C39.6577 25.5423 39.3437 25.5885 39.4361 25.3576C39.6023 25.0898 39.5192 24.8404 39.2052 24.6465C39.2698 24.9882 38.7988 25.3114 38.7988 25.5885C38.7988 25.8656 39.0389 25.8101 39.0112 26.235C39.0297 26.4751 38.9466 26.4197 38.9189 26.6506H39.3437Z" fill="url(#paint2_linear_10790_13864)" stroke="black" stroke-width="0.0831184"/>
<path d="M41.365 24.7943C41.365 24.858 41.3397 24.9191 41.2947 24.9641C41.2496 25.0091 41.1886 25.0344 41.1249 25.0344C41.0612 25.0344 41.0001 25.0091 40.9551 24.9641C40.9101 24.9191 40.8848 24.858 40.8848 24.7943C40.8848 24.7306 40.9101 24.6696 40.9551 24.6245C41.0001 24.5795 41.0612 24.5542 41.1249 24.5542C41.1886 24.5542 41.2496 24.5795 41.2947 24.6245C41.3397 24.6696 41.365 24.7306 41.365 24.7943Z" fill="#FFC72C" stroke="black" stroke-width="0.0831184"/>
<path d="M42.2891 30.7235L43.582 28.8118L44.9027 30.7327" stroke="#FFC72C" stroke-width="0.175472"/>
<path d="M43.8492 30.003C43.8492 30.0716 43.822 30.1373 43.7735 30.1858C43.725 30.2343 43.6592 30.2616 43.5906 30.2616C43.522 30.2616 43.4563 30.2343 43.4078 30.1858C43.3593 30.1373 43.332 30.0716 43.332 30.003C43.332 29.9344 43.3593 29.8686 43.4078 29.8201C43.4563 29.7716 43.522 29.7444 43.5906 29.7444C43.6592 29.7444 43.725 29.7716 43.7735 29.8201C43.822 29.8686 43.8492 29.9344 43.8492 30.003Z" fill="#FFC72C" stroke="black" stroke-width="0.0831184"/>
<path d="M42.5283 32.1363H44.5508C44.5508 32.1363 44.5785 31.8777 44.3384 31.7207C45.4005 31.5729 45.1234 30.6494 46.0008 30.594C46.1855 30.6217 45.539 30.9911 45.539 30.9911C45.539 30.9911 45.0126 31.3605 45.2619 31.5545C45.4466 31.7115 45.539 31.4621 45.5575 31.2774C45.5852 31.0927 46.4163 30.9726 46.2963 30.4462C46.1023 30.0122 44.9387 30.7418 44.9387 30.7418L44.1075 30.7325C44.0521 30.6402 43.8304 30.2708 43.5903 30.2708C43.3133 30.2708 43.1101 30.7325 43.1101 30.7325H41.2353C41.2353 30.7325 41.1707 31.222 42.1219 31.3143C42.3343 31.5914 42.5005 31.6653 42.6945 31.7392C42.5652 31.8408 42.5283 31.9701 42.5283 32.1363ZM42.676 31.7299H44.3569H42.676Z" fill="#FFC72C"/>
<path d="M42.676 31.7299H44.3569M42.5283 32.1363H44.5508C44.5508 32.1363 44.5785 31.8777 44.3384 31.7207C45.4005 31.5729 45.1234 30.6494 46.0008 30.594C46.1855 30.6217 45.539 30.9911 45.539 30.9911C45.539 30.9911 45.0126 31.3605 45.2619 31.5545C45.4466 31.7115 45.539 31.4621 45.5575 31.2774C45.5852 31.0927 46.4163 30.9726 46.2963 30.4462C46.1023 30.0122 44.9387 30.7418 44.9387 30.7418L44.1075 30.7325C44.0521 30.6402 43.8304 30.2708 43.5903 30.2708C43.3133 30.2708 43.1101 30.7325 43.1101 30.7325H41.2353C41.2353 30.7325 41.1707 31.222 42.1219 31.3143C42.3343 31.5914 42.5005 31.6653 42.6945 31.7392C42.5652 31.8408 42.5283 31.9701 42.5283 32.1363Z" stroke="black" stroke-width="0.0831184"/>
<path d="M41.9102 30.7419C41.9102 30.7419 42.0395 31.527 42.6675 31.7117L41.9102 30.7419Z" fill="#FFC72C"/>
<path d="M41.9102 30.7419C41.9102 30.7419 42.0395 31.527 42.6675 31.7117" stroke="black" stroke-width="0.0831184"/>
<path d="M41.8086 30.7233C41.864 30.4278 41.984 30.3724 42.1041 29.9845C42.1226 29.6151 41.8086 29.6612 41.9009 29.4304C42.0671 29.1625 41.984 28.9132 41.67 28.7192C41.7347 29.0609 41.2637 29.3842 41.2637 29.6612C41.2637 29.9383 41.5038 29.8829 41.4761 30.3077C41.4946 30.5478 41.4114 30.4924 41.3837 30.7233H41.8086Z" fill="url(#paint3_linear_10790_13864)" stroke="black" stroke-width="0.0831184"/>
<path d="M43.8298 28.8671C43.8298 28.9308 43.8046 28.9918 43.7595 29.0369C43.7145 29.0819 43.6534 29.1072 43.5897 29.1072C43.526 29.1072 43.465 29.0819 43.4199 29.0369C43.3749 28.9918 43.3496 28.9308 43.3496 28.8671C43.3496 28.8034 43.3749 28.7423 43.4199 28.6973C43.465 28.6523 43.526 28.627 43.5897 28.627C43.6534 28.627 43.7145 28.6523 43.7595 28.6973C43.8046 28.7423 43.8298 28.8034 43.8298 28.8671Z" fill="#FFC72C" stroke="black" stroke-width="0.0831184"/>
<path d="M39.5 34.0575L40.793 32.1458L42.1136 34.0667" stroke="#FFC72C" stroke-width="0.175472"/>
<path d="M41.0602 33.337C41.0602 33.4055 41.0329 33.4713 40.9844 33.5198C40.9359 33.5683 40.8701 33.5956 40.8016 33.5956C40.733 33.5956 40.6672 33.5683 40.6187 33.5198C40.5702 33.4713 40.543 33.4055 40.543 33.337C40.543 33.2684 40.5702 33.2026 40.6187 33.1541C40.6672 33.1056 40.733 33.0784 40.8016 33.0784C40.8701 33.0784 40.9359 33.1056 40.9844 33.1541C41.0329 33.2026 41.0602 33.2684 41.0602 33.337Z" fill="#FFC72C" stroke="black" stroke-width="0.0831184"/>
<path d="M39.7392 35.4703H41.7617C41.7617 35.4703 41.7894 35.2117 41.5493 35.0547C42.6114 34.9069 42.3343 33.9834 43.2117 33.928C43.3964 33.9557 42.7499 34.3251 42.7499 34.3251C42.7499 34.3251 42.2235 34.6945 42.4729 34.8885C42.6576 35.0455 42.7499 34.7961 42.7684 34.6114C42.7961 34.4267 43.6273 34.3066 43.5072 33.7802C43.3133 33.3461 42.1496 34.0757 42.1496 34.0757L41.3184 34.0665C41.263 33.9742 41.0414 33.6047 40.8013 33.6047C40.5242 33.6047 40.321 34.0665 40.321 34.0665H38.4462C38.4462 34.0665 38.3816 34.556 39.3328 34.6483C39.5452 34.9254 39.7115 34.9993 39.9054 35.0732C39.7761 35.1748 39.7392 35.304 39.7392 35.4703ZM39.887 35.0639H41.5678H39.887Z" fill="#FFC72C"/>
<path d="M39.887 35.0639H41.5678M39.7392 35.4703H41.7617C41.7617 35.4703 41.7894 35.2117 41.5493 35.0547C42.6114 34.9069 42.3343 33.9834 43.2117 33.928C43.3964 33.9557 42.7499 34.3251 42.7499 34.3251C42.7499 34.3251 42.2235 34.6945 42.4729 34.8885C42.6576 35.0455 42.7499 34.7961 42.7684 34.6114C42.7961 34.4267 43.6273 34.3066 43.5072 33.7802C43.3133 33.3461 42.1496 34.0757 42.1496 34.0757L41.3184 34.0665C41.263 33.9742 41.0414 33.6047 40.8013 33.6047C40.5242 33.6047 40.321 34.0665 40.321 34.0665H38.4462C38.4462 34.0665 38.3816 34.556 39.3328 34.6483C39.5452 34.9254 39.7115 34.9993 39.9054 35.0732C39.7761 35.1748 39.7392 35.304 39.7392 35.4703Z" stroke="black" stroke-width="0.0831184"/>
<path d="M39.1211 34.0759C39.1211 34.0759 39.2504 34.8609 39.8784 35.0456L39.1211 34.0759Z" fill="#FFC72C"/>
<path d="M39.1211 34.0759C39.1211 34.0759 39.2504 34.8609 39.8784 35.0456" stroke="black" stroke-width="0.0831184"/>
<path d="M39.0195 34.0573C39.0749 33.7618 39.195 33.7064 39.315 33.3185C39.3335 32.9491 39.0195 32.9952 39.1118 32.7643C39.2781 32.4965 39.195 32.2472 38.881 32.0532C38.9456 32.3949 38.4746 32.7182 38.4746 32.9952C38.4746 33.2723 38.7147 33.2169 38.687 33.6417C38.7055 33.8818 38.6224 33.8264 38.5947 34.0573H39.0195Z" fill="url(#paint4_linear_10790_13864)" stroke="black" stroke-width="0.0831184"/>
<path d="M41.0408 32.2011C41.0408 32.2647 41.0155 32.3258 40.9705 32.3708C40.9254 32.4159 40.8644 32.4412 40.8007 32.4412C40.737 32.4412 40.6759 32.4159 40.6309 32.3708C40.5858 32.3258 40.5605 32.2647 40.5605 32.2011C40.5605 32.1374 40.5858 32.0763 40.6309 32.0313C40.6759 31.9862 40.737 31.9609 40.8007 31.9609C40.8644 31.9609 40.9254 31.9862 40.9705 32.0313C41.0155 32.0763 41.0408 32.1374 41.0408 32.2011Z" fill="#FFC72C" stroke="black" stroke-width="0.0831184"/>
<path d="M39.5742 37.9916L40.8672 36.0798L42.1878 38.0008" stroke="#FFC72C" stroke-width="0.175472"/>
<path d="M41.1344 37.271C41.1344 37.3396 41.1071 37.4054 41.0586 37.4539C41.0101 37.5024 40.9444 37.5296 40.8758 37.5296C40.8072 37.5296 40.7414 37.5024 40.6929 37.4539C40.6444 37.4054 40.6172 37.3396 40.6172 37.271C40.6172 37.2025 40.6444 37.1367 40.6929 37.0882C40.7414 37.0397 40.8072 37.0125 40.8758 37.0125C40.9444 37.0125 41.0101 37.0397 41.0586 37.0882C41.1071 37.1367 41.1344 37.2025 41.1344 37.271Z" fill="#FFC72C" stroke="black" stroke-width="0.0831184"/>
<path d="M39.8134 39.4044H41.836C41.836 39.4044 41.8637 39.1458 41.6235 38.9888C42.6856 38.841 42.4085 37.9175 43.2859 37.8621C43.4706 37.8898 42.8241 38.2592 42.8241 38.2592C42.8241 38.2592 42.2977 38.6286 42.5471 38.8225C42.7318 38.9795 42.8241 38.7302 42.8426 38.5455C42.8703 38.3608 43.7015 38.2407 43.5814 37.7143C43.3875 37.2802 42.2238 38.0098 42.2238 38.0098L41.3927 38.0006C41.3372 37.9082 41.1156 37.5388 40.8755 37.5388C40.5984 37.5388 40.3952 38.0006 40.3952 38.0006H38.5205C38.5205 38.0006 38.4558 38.4901 39.4071 38.5824C39.6195 38.8595 39.7857 38.9334 39.9796 39.0072C39.8503 39.1088 39.8134 39.2381 39.8134 39.4044ZM39.9612 38.998H41.642H39.9612Z" fill="#FFC72C"/>
<path d="M39.9612 38.998H41.642M39.8134 39.4044H41.836C41.836 39.4044 41.8637 39.1458 41.6235 38.9888C42.6856 38.841 42.4085 37.9175 43.2859 37.8621C43.4706 37.8898 42.8241 38.2592 42.8241 38.2592C42.8241 38.2592 42.2977 38.6286 42.5471 38.8225C42.7318 38.9795 42.8241 38.7302 42.8426 38.5455C42.8703 38.3608 43.7015 38.2407 43.5814 37.7143C43.3875 37.2802 42.2238 38.0098 42.2238 38.0098L41.3927 38.0006C41.3372 37.9082 41.1156 37.5388 40.8755 37.5388C40.5984 37.5388 40.3952 38.0006 40.3952 38.0006H38.5205C38.5205 38.0006 38.4558 38.4901 39.4071 38.5824C39.6195 38.8595 39.7857 38.9334 39.9796 39.0072C39.8503 39.1088 39.8134 39.2381 39.8134 39.4044Z" stroke="black" stroke-width="0.0831184"/>
<path d="M39.1953 38.01C39.1953 38.01 39.3246 38.795 39.9526 38.9797L39.1953 38.01Z" fill="#FFC72C"/>
<path d="M39.1953 38.01C39.1953 38.01 39.3246 38.795 39.9526 38.9797" stroke="black" stroke-width="0.0831184"/>
<path d="M39.0937 37.9914C39.1491 37.6958 39.2692 37.6404 39.3892 37.2526C39.4077 36.8831 39.0937 36.9293 39.1861 36.6984C39.3523 36.4306 39.2692 36.1812 38.9552 35.9873C39.0198 36.329 38.5488 36.6523 38.5488 36.9293C38.5488 37.2064 38.7889 37.151 38.7612 37.5758C38.7797 37.8159 38.6966 37.7605 38.6689 37.9914H39.0937Z" fill="url(#paint5_linear_10790_13864)" stroke="black" stroke-width="0.0831184"/>
<path d="M41.115 36.1351C41.115 36.1988 41.0897 36.2599 41.0447 36.3049C40.9996 36.35 40.9386 36.3753 40.8749 36.3753C40.8112 36.3753 40.7501 36.35 40.7051 36.3049C40.6601 36.2599 40.6348 36.1988 40.6348 36.1351C40.6348 36.0715 40.6601 36.0104 40.7051 35.9653C40.7501 35.9203 40.8112 35.895 40.8749 35.895C40.9386 35.895 40.9996 35.9203 41.0447 35.9653C41.0897 36.0104 41.115 36.0715 41.115 36.1351Z" fill="#FFC72C" stroke="black" stroke-width="0.0831184"/>
<path d="M53.4375 19.1422L54.7305 17.2305L56.0511 19.1514" stroke="#FFC72C" stroke-width="0.175472"/>
<path d="M54.9977 18.4217C54.9977 18.4903 54.9704 18.556 54.9219 18.6045C54.8734 18.653 54.8076 18.6803 54.7391 18.6803C54.6705 18.6803 54.6047 18.653 54.5562 18.6045C54.5077 18.556 54.4805 18.4903 54.4805 18.4217C54.4805 18.3531 54.5077 18.2873 54.5562 18.2388C54.6047 18.1903 54.6705 18.1631 54.7391 18.1631C54.8076 18.1631 54.8734 18.1903 54.9219 18.2388C54.9704 18.2873 54.9977 18.3531 54.9977 18.4217Z" fill="#FFC72C" stroke="black" stroke-width="0.0831184"/>
<path d="M53.6767 20.555H55.6992C55.6992 20.555 55.7269 20.2964 55.4868 20.1394C56.5489 19.9916 56.2718 19.0681 57.1492 19.0127C57.3339 19.0404 56.6874 19.4098 56.6874 19.4098C56.6874 19.4098 56.161 19.7792 56.4104 19.9732C56.5951 20.1302 56.6874 19.8808 56.7059 19.6961C56.7336 19.5114 57.5648 19.3913 57.4447 18.8649C57.2508 18.4309 56.0871 19.1605 56.0871 19.1605L55.2559 19.1512C55.2005 19.0589 54.9789 18.6895 54.7388 18.6895C54.4617 18.6895 54.2585 19.1512 54.2585 19.1512H52.3837C52.3837 19.1512 52.3191 19.6407 53.2703 19.7331C53.4827 20.0101 53.649 20.084 53.8429 20.1579C53.7136 20.2595 53.6767 20.3888 53.6767 20.555ZM53.8245 20.1486H55.5053H53.8245Z" fill="#FFC72C"/>
<path d="M53.8245 20.1486H55.5053M53.6767 20.555H55.6992C55.6992 20.555 55.7269 20.2964 55.4868 20.1394C56.5489 19.9916 56.2718 19.0681 57.1492 19.0127C57.3339 19.0404 56.6874 19.4098 56.6874 19.4098C56.6874 19.4098 56.161 19.7792 56.4104 19.9732C56.5951 20.1302 56.6874 19.8808 56.7059 19.6961C56.7336 19.5114 57.5648 19.3913 57.4447 18.8649C57.2508 18.4309 56.0871 19.1605 56.0871 19.1605L55.2559 19.1512C55.2005 19.0589 54.9789 18.6895 54.7388 18.6895C54.4617 18.6895 54.2585 19.1512 54.2585 19.1512H52.3837C52.3837 19.1512 52.3191 19.6407 53.2703 19.7331C53.4827 20.0101 53.649 20.084 53.8429 20.1579C53.7136 20.2595 53.6767 20.3888 53.6767 20.555Z" stroke="black" stroke-width="0.0831184"/>
<path d="M53.0586 19.1606C53.0586 19.1606 53.1879 19.9457 53.8159 20.1304L53.0586 19.1606Z" fill="#FFC72C"/>
<path d="M53.0586 19.1606C53.0586 19.1606 53.1879 19.9457 53.8159 20.1304" stroke="black" stroke-width="0.0831184"/>
<path d="M52.957 19.142C53.0124 18.8465 53.1325 18.7911 53.2525 18.4032C53.271 18.0338 52.957 18.0799 53.0493 17.8491C53.2156 17.5812 53.1325 17.3319 52.8185 17.1379C52.8831 17.4796 52.4121 17.8029 52.4121 18.0799C52.4121 18.357 52.6522 18.3016 52.6245 18.7264C52.643 18.9665 52.5599 18.9111 52.5322 19.142H52.957Z" fill="url(#paint6_linear_10790_13864)" stroke="black" stroke-width="0.0831184"/>
<path d="M54.9783 17.2858C54.9783 17.3495 54.953 17.4105 54.908 17.4556C54.8629 17.5006 54.8019 17.5259 54.7382 17.5259C54.6745 17.5259 54.6134 17.5006 54.5684 17.4556C54.5233 17.4105 54.498 17.3495 54.498 17.2858C54.498 17.2221 54.5233 17.161 54.5684 17.116C54.6134 17.071 54.6745 17.0457 54.7382 17.0457C54.8019 17.0457 54.8629 17.071 54.908 17.116C54.953 17.161 54.9783 17.2221 54.9783 17.2858Z" fill="#FFC72C" stroke="black" stroke-width="0.0831184"/>
<path d="M53.3066 22.8827L54.5996 20.9709L55.9203 22.8919" stroke="#FFC72C" stroke-width="0.175472"/>
<path d="M54.8668 22.1622C54.8668 22.2307 54.8395 22.2965 54.7911 22.345C54.7426 22.3935 54.6768 22.4207 54.6082 22.4207C54.5396 22.4207 54.4738 22.3935 54.4254 22.345C54.3769 22.2965 54.3496 22.2307 54.3496 22.1622C54.3496 22.0936 54.3769 22.0278 54.4254 21.9793C54.4738 21.9308 54.5396 21.9036 54.6082 21.9036C54.6768 21.9036 54.7426 21.9308 54.7911 21.9793C54.8395 22.0278 54.8668 22.0936 54.8668 22.1622Z" fill="#FFC72C" stroke="black" stroke-width="0.0831184"/>
<path d="M53.5458 24.2955H55.5684C55.5684 24.2955 55.5961 24.0369 55.356 23.8799C56.418 23.7321 56.141 22.8086 57.0183 22.7532C57.203 22.7809 56.5566 23.1503 56.5566 23.1503C56.5566 23.1503 56.0301 23.5197 56.2795 23.7136C56.4642 23.8707 56.5566 23.6213 56.575 23.4366C56.6027 23.2519 57.4339 23.1318 57.3139 22.6054C57.1199 22.1713 55.9563 22.9009 55.9563 22.9009L55.1251 22.8917C55.0697 22.7993 54.848 22.4299 54.6079 22.4299C54.3308 22.4299 54.1277 22.8917 54.1277 22.8917H52.2529C52.2529 22.8917 52.1882 23.3812 53.1395 23.4735C53.3519 23.7506 53.5181 23.8245 53.7121 23.8984C53.5828 23.9999 53.5458 24.1292 53.5458 24.2955ZM53.6936 23.8891H55.3744H53.6936Z" fill="#FFC72C"/>
<path d="M53.6936 23.8891H55.3744M53.5458 24.2955H55.5684C55.5684 24.2955 55.5961 24.0369 55.356 23.8799C56.418 23.7321 56.141 22.8086 57.0183 22.7532C57.203 22.7809 56.5566 23.1503 56.5566 23.1503C56.5566 23.1503 56.0301 23.5197 56.2795 23.7136C56.4642 23.8707 56.5566 23.6213 56.575 23.4366C56.6027 23.2519 57.4339 23.1318 57.3139 22.6054C57.1199 22.1713 55.9563 22.9009 55.9563 22.9009L55.1251 22.8917C55.0697 22.7993 54.848 22.4299 54.6079 22.4299C54.3308 22.4299 54.1277 22.8917 54.1277 22.8917H52.2529C52.2529 22.8917 52.1882 23.3812 53.1395 23.4735C53.3519 23.7506 53.5181 23.8245 53.7121 23.8984C53.5828 23.9999 53.5458 24.1292 53.5458 24.2955Z" stroke="black" stroke-width="0.0831184"/>
<path d="M52.9277 22.9011C52.9277 22.9011 53.057 23.6861 53.685 23.8708L52.9277 22.9011Z" fill="#FFC72C"/>
<path d="M52.9277 22.9011C52.9277 22.9011 53.057 23.6861 53.685 23.8708" stroke="black" stroke-width="0.0831184"/>
<path d="M52.8261 22.8825C52.8815 22.587 53.0016 22.5315 53.1217 22.1437C53.1401 21.7742 52.8261 21.8204 52.9185 21.5895C53.0847 21.3217 53.0016 21.0724 52.6876 20.8784C52.7523 21.2201 52.2812 21.5434 52.2812 21.8204C52.2812 22.0975 52.5214 22.0421 52.4937 22.4669C52.5121 22.707 52.429 22.6516 52.4013 22.8825H52.8261Z" fill="url(#paint7_linear_10790_13864)" stroke="black" stroke-width="0.0831184"/>
<path d="M54.8474 21.0263C54.8474 21.0899 54.8221 21.151 54.7771 21.196C54.7321 21.2411 54.671 21.2664 54.6073 21.2664C54.5436 21.2664 54.4825 21.2411 54.4375 21.196C54.3925 21.151 54.3672 21.0899 54.3672 21.0263C54.3672 20.9626 54.3925 20.9015 54.4375 20.8565C54.4825 20.8114 54.5436 20.7861 54.6073 20.7861C54.671 20.7861 54.7321 20.8114 54.7771 20.8565C54.8221 20.9015 54.8474 20.9626 54.8474 21.0263Z" fill="#FFC72C" stroke="black" stroke-width="0.0831184"/>
<path d="M53.1406 26.7152L54.4336 24.8035L55.7542 26.7244" stroke="#FFC72C" stroke-width="0.175472"/>
<path d="M54.7008 25.9947C54.7008 26.0633 54.6735 26.129 54.625 26.1775C54.5765 26.226 54.5108 26.2533 54.4422 26.2533C54.3736 26.2533 54.3078 26.226 54.2593 26.1775C54.2108 26.129 54.1836 26.0633 54.1836 25.9947C54.1836 25.9261 54.2108 25.8603 54.2593 25.8118C54.3078 25.7633 54.3736 25.7361 54.4422 25.7361C54.5108 25.7361 54.5765 25.7633 54.625 25.8118C54.6735 25.8603 54.7008 25.9261 54.7008 25.9947Z" fill="#FFC72C" stroke="black" stroke-width="0.0831184"/>
<path d="M53.3798 28.128H55.4024C55.4024 28.128 55.4301 27.8694 55.1899 27.7124C56.252 27.5646 55.975 26.6411 56.8523 26.5857C57.037 26.6134 56.3905 26.9828 56.3905 26.9828C56.3905 26.9828 55.8641 27.3522 56.1135 27.5462C56.2982 27.7032 56.3905 27.4538 56.409 27.2691C56.4367 27.0844 57.2679 26.9643 57.1478 26.4379C56.9539 26.0039 55.7902 26.7335 55.7902 26.7335L54.9591 26.7242C54.9037 26.6319 54.682 26.2625 54.4419 26.2625C54.1648 26.2625 53.9616 26.7242 53.9616 26.7242H52.0869C52.0869 26.7242 52.0222 27.2137 52.9735 27.306C53.1859 27.5831 53.3521 27.657 53.5461 27.7309C53.4168 27.8325 53.3798 27.9618 53.3798 28.128ZM53.5276 27.7216H55.2084H53.5276Z" fill="#FFC72C"/>
<path d="M53.5276 27.7216H55.2084M53.3798 28.128H55.4024C55.4024 28.128 55.4301 27.8694 55.1899 27.7124C56.252 27.5646 55.975 26.6411 56.8523 26.5857C57.037 26.6134 56.3905 26.9828 56.3905 26.9828C56.3905 26.9828 55.8641 27.3522 56.1135 27.5462C56.2982 27.7032 56.3905 27.4538 56.409 27.2691C56.4367 27.0844 57.2679 26.9643 57.1478 26.4379C56.9539 26.0039 55.7902 26.7335 55.7902 26.7335L54.9591 26.7242C54.9037 26.6319 54.682 26.2625 54.4419 26.2625C54.1648 26.2625 53.9616 26.7242 53.9616 26.7242H52.0869C52.0869 26.7242 52.0222 27.2137 52.9735 27.306C53.1859 27.5831 53.3521 27.657 53.5461 27.7309C53.4168 27.8325 53.3798 27.9618 53.3798 28.128Z" stroke="black" stroke-width="0.0831184"/>
<path d="M52.7617 26.7336C52.7617 26.7336 52.891 27.5186 53.519 27.7034L52.7617 26.7336Z" fill="#FFC72C"/>
<path d="M52.7617 26.7336C52.7617 26.7336 52.891 27.5186 53.519 27.7034" stroke="black" stroke-width="0.0831184"/>
<path d="M52.6601 26.715C52.7155 26.4195 52.8356 26.3641 52.9557 25.9762C52.9741 25.6068 52.6601 25.6529 52.7525 25.4221C52.9187 25.1542 52.8356 24.9049 52.5216 24.7109C52.5862 25.0526 52.1152 25.3759 52.1152 25.6529C52.1152 25.93 52.3554 25.8746 52.3276 26.2994C52.3461 26.5395 52.263 26.4841 52.2353 26.715H52.6601Z" fill="url(#paint8_linear_10790_13864)" stroke="black" stroke-width="0.0831184"/>
<path d="M54.6814 24.8588C54.6814 24.9225 54.6561 24.9835 54.6111 25.0286C54.5661 25.0736 54.505 25.0989 54.4413 25.0989C54.3776 25.0989 54.3165 25.0736 54.2715 25.0286C54.2265 24.9835 54.2012 24.9225 54.2012 24.8588C54.2012 24.7951 54.2265 24.734 54.2715 24.689C54.3165 24.644 54.3776 24.6187 54.4413 24.6187C54.505 24.6187 54.5661 24.644 54.6111 24.689C54.6561 24.734 54.6814 24.7951 54.6814 24.8588Z" fill="#FFC72C" stroke="black" stroke-width="0.0831184"/>
<path d="M53.3359 30.474L54.6289 28.5623L55.9495 30.4832" stroke="#FFC72C" stroke-width="0.175472"/>
<path d="M54.8961 29.7535C54.8961 29.822 54.8688 29.8878 54.8203 29.9363C54.7719 29.9848 54.7061 30.0121 54.6375 30.0121C54.5689 30.0121 54.5031 29.9848 54.4546 29.9363C54.4062 29.8878 54.3789 29.822 54.3789 29.7535C54.3789 29.6849 54.4062 29.6191 54.4546 29.5706C54.5031 29.5221 54.5689 29.4949 54.6375 29.4949C54.7061 29.4949 54.7719 29.5221 54.8203 29.5706C54.8688 29.6191 54.8961 29.6849 54.8961 29.7535Z" fill="#FFC72C" stroke="black" stroke-width="0.0831184"/>
<path d="M53.5751 31.8868H55.5977C55.5977 31.8868 55.6254 31.6282 55.3853 31.4712C56.4473 31.3234 56.1703 30.3999 57.0476 30.3445C57.2323 30.3722 56.5859 30.7416 56.5859 30.7416C56.5859 30.7416 56.0594 31.111 56.3088 31.305C56.4935 31.462 56.5859 31.2126 56.6043 31.0279C56.632 30.8432 57.4632 30.7231 57.3432 30.1967C57.1492 29.7627 55.9856 30.4922 55.9856 30.4922L55.1544 30.483C55.099 30.3907 54.8773 30.0212 54.6372 30.0212C54.3601 30.0212 54.157 30.483 54.157 30.483H52.2822C52.2822 30.483 52.2175 30.9725 53.1688 31.0648C53.3812 31.3419 53.5474 31.4158 53.7414 31.4897C53.6121 31.5913 53.5751 31.7206 53.5751 31.8868ZM53.7229 31.4804H55.4037H53.7229Z" fill="#FFC72C"/>
<path d="M53.7229 31.4804H55.4037M53.5751 31.8868H55.5977C55.5977 31.8868 55.6254 31.6282 55.3853 31.4712C56.4473 31.3234 56.1703 30.3999 57.0476 30.3445C57.2323 30.3722 56.5859 30.7416 56.5859 30.7416C56.5859 30.7416 56.0594 31.111 56.3088 31.305C56.4935 31.462 56.5859 31.2126 56.6043 31.0279C56.632 30.8432 57.4632 30.7231 57.3432 30.1967C57.1492 29.7627 55.9856 30.4922 55.9856 30.4922L55.1544 30.483C55.099 30.3907 54.8773 30.0212 54.6372 30.0212C54.3601 30.0212 54.157 30.483 54.157 30.483H52.2822C52.2822 30.483 52.2175 30.9725 53.1688 31.0648C53.3812 31.3419 53.5474 31.4158 53.7414 31.4897C53.6121 31.5913 53.5751 31.7206 53.5751 31.8868Z" stroke="black" stroke-width="0.0831184"/>
<path d="M52.957 30.4924C52.957 30.4924 53.0863 31.2774 53.7143 31.4621L52.957 30.4924Z" fill="#FFC72C"/>
<path d="M52.957 30.4924C52.957 30.4924 53.0863 31.2774 53.7143 31.4621" stroke="black" stroke-width="0.0831184"/>
<path d="M52.8554 30.4738C52.9108 30.1783 53.0309 30.1229 53.151 29.735C53.1694 29.3656 52.8554 29.4117 52.9478 29.1809C53.114 28.913 53.0309 28.6637 52.7169 28.4697C52.7815 28.8114 52.3105 29.1347 52.3105 29.4117C52.3105 29.6888 52.5507 29.6334 52.523 30.0582C52.5414 30.2983 52.4583 30.2429 52.4306 30.4738H52.8554Z" fill="url(#paint9_linear_10790_13864)" stroke="black" stroke-width="0.0831184"/>
<path d="M54.8767 28.6176C54.8767 28.6812 54.8514 28.7423 54.8064 28.7874C54.7614 28.8324 54.7003 28.8577 54.6366 28.8577C54.5729 28.8577 54.5118 28.8324 54.4668 28.7874C54.4218 28.7423 54.3965 28.6812 54.3965 28.6176C54.3965 28.5539 54.4218 28.4928 54.4668 28.4478C54.5118 28.4027 54.5729 28.3774 54.6366 28.3774C54.7003 28.3774 54.7614 28.4027 54.8064 28.4478C54.8514 28.4928 54.8767 28.5539 54.8767 28.6176Z" fill="#FFC72C" stroke="black" stroke-width="0.0831184"/>
<path d="M53.2891 34.242L54.582 32.3303L55.9027 34.2513" stroke="#FFC72C" stroke-width="0.175472"/>
<path d="M54.8492 33.5215C54.8492 33.5901 54.822 33.6559 54.7735 33.7044C54.725 33.7529 54.6592 33.7801 54.5906 33.7801C54.522 33.7801 54.4563 33.7529 54.4078 33.7044C54.3593 33.6559 54.332 33.5901 54.332 33.5215C54.332 33.4529 54.3593 33.3872 54.4078 33.3387C54.4563 33.2902 54.522 33.2629 54.5906 33.2629C54.6592 33.2629 54.725 33.2902 54.7735 33.3387C54.822 33.3872 54.8492 33.4529 54.8492 33.5215Z" fill="#FFC72C" stroke="black" stroke-width="0.0831184"/>
<path d="M53.5283 35.6549H55.5508C55.5508 35.6549 55.5785 35.3963 55.3384 35.2393C56.4005 35.0915 56.1234 34.168 57.0008 34.1125C57.1855 34.1403 56.539 34.5097 56.539 34.5097C56.539 34.5097 56.0126 34.8791 56.2619 35.073C56.4466 35.23 56.539 34.9807 56.5575 34.796C56.5852 34.6113 57.4163 34.4912 57.2963 33.9648C57.1023 33.5307 55.9387 34.2603 55.9387 34.2603L55.1075 34.2511C55.0521 34.1587 54.8304 33.7893 54.5903 33.7893C54.3133 33.7893 54.1101 34.2511 54.1101 34.2511H52.2353C52.2353 34.2511 52.1707 34.7406 53.1219 34.8329C53.3343 35.11 53.5005 35.1838 53.6945 35.2577C53.5652 35.3593 53.5283 35.4886 53.5283 35.6549ZM53.676 35.2485H55.3569H53.676Z" fill="#FFC72C"/>
<path d="M53.676 35.2485H55.3569M53.5283 35.6549H55.5508C55.5508 35.6549 55.5785 35.3963 55.3384 35.2393C56.4005 35.0915 56.1234 34.168 57.0008 34.1125C57.1855 34.1403 56.539 34.5097 56.539 34.5097C56.539 34.5097 56.0126 34.8791 56.2619 35.073C56.4466 35.23 56.539 34.9807 56.5575 34.796C56.5852 34.6113 57.4163 34.4912 57.2963 33.9648C57.1023 33.5307 55.9387 34.2603 55.9387 34.2603L55.1075 34.2511C55.0521 34.1587 54.8304 33.7893 54.5903 33.7893C54.3133 33.7893 54.1101 34.2511 54.1101 34.2511H52.2353C52.2353 34.2511 52.1707 34.7406 53.1219 34.8329C53.3343 35.11 53.5005 35.1838 53.6945 35.2577C53.5652 35.3593 53.5283 35.4886 53.5283 35.6549Z" stroke="black" stroke-width="0.0831184"/>
<path d="M52.9102 34.2605C52.9102 34.2605 53.0395 35.0455 53.6675 35.2302L52.9102 34.2605Z" fill="#FFC72C"/>
<path d="M52.9102 34.2605C52.9102 34.2605 53.0395 35.0455 53.6675 35.2302" stroke="black" stroke-width="0.0831184"/>
<path d="M52.8086 34.2419C52.864 33.9463 52.984 33.8909 53.1041 33.503C53.1226 33.1336 52.8086 33.1798 52.9009 32.9489C53.0671 32.6811 52.984 32.4317 52.67 32.2378C52.7347 32.5795 52.2637 32.9027 52.2637 33.1798C52.2637 33.4569 52.5038 33.4014 52.4761 33.8263C52.4946 34.0664 52.4114 34.011 52.3837 34.2419H52.8086Z" fill="url(#paint10_linear_10790_13864)" stroke="black" stroke-width="0.0831184"/>
<path d="M54.8298 32.3856C54.8298 32.4493 54.8046 32.5104 54.7595 32.5554C54.7145 32.6004 54.6534 32.6257 54.5897 32.6257C54.526 32.6257 54.465 32.6004 54.4199 32.5554C54.3749 32.5104 54.3496 32.4493 54.3496 32.3856C54.3496 32.3219 54.3749 32.2609 54.4199 32.2158C54.465 32.1708 54.526 32.1455 54.5897 32.1455C54.6534 32.1455 54.7145 32.1708 54.7595 32.2158C54.8046 32.2609 54.8298 32.3219 54.8298 32.3856Z" fill="#FFC72C" stroke="black" stroke-width="0.0831184"/>
<path d="M53.3066 38.0287L54.5996 36.1169L55.9203 38.0379" stroke="#FFC72C" stroke-width="0.175472"/>
<path d="M54.8668 37.3082C54.8668 37.3767 54.8395 37.4425 54.7911 37.491C54.7426 37.5395 54.6768 37.5667 54.6082 37.5667C54.5396 37.5667 54.4738 37.5395 54.4254 37.491C54.3769 37.4425 54.3496 37.3767 54.3496 37.3082C54.3496 37.2396 54.3769 37.1738 54.4254 37.1253C54.4738 37.0768 54.5396 37.0496 54.6082 37.0496C54.6768 37.0496 54.7426 37.0768 54.7911 37.1253C54.8395 37.1738 54.8668 37.2396 54.8668 37.3082Z" fill="#FFC72C" stroke="black" stroke-width="0.0831184"/>
<path d="M53.5458 39.4415H55.5684C55.5684 39.4415 55.5961 39.1829 55.356 39.0259C56.418 38.8781 56.141 37.9546 57.0183 37.8992C57.203 37.9269 56.5566 38.2963 56.5566 38.2963C56.5566 38.2963 56.0301 38.6657 56.2795 38.8596C56.4642 39.0166 56.5566 38.7673 56.575 38.5826C56.6027 38.3979 57.4339 38.2778 57.3139 37.7514C57.1199 37.3173 55.9563 38.0469 55.9563 38.0469L55.1251 38.0377C55.0697 37.9453 54.848 37.5759 54.6079 37.5759C54.3308 37.5759 54.1277 38.0377 54.1277 38.0377H52.2529C52.2529 38.0377 52.1882 38.5272 53.1395 38.6195C53.3519 38.8966 53.5181 38.9705 53.7121 39.0444C53.5828 39.1459 53.5458 39.2752 53.5458 39.4415ZM53.6936 39.0351H55.3744H53.6936Z" fill="#FFC72C"/>
<path d="M53.6936 39.0351H55.3744M53.5458 39.4415H55.5684C55.5684 39.4415 55.5961 39.1829 55.356 39.0259C56.418 38.8781 56.141 37.9546 57.0183 37.8992C57.203 37.9269 56.5566 38.2963 56.5566 38.2963C56.5566 38.2963 56.0301 38.6657 56.2795 38.8596C56.4642 39.0166 56.5566 38.7673 56.575 38.5826C56.6027 38.3979 57.4339 38.2778 57.3139 37.7514C57.1199 37.3173 55.9563 38.0469 55.9563 38.0469L55.1251 38.0377C55.0697 37.9453 54.848 37.5759 54.6079 37.5759C54.3308 37.5759 54.1277 38.0377 54.1277 38.0377H52.2529C52.2529 38.0377 52.1882 38.5272 53.1395 38.6195C53.3519 38.8966 53.5181 38.9705 53.7121 39.0444C53.5828 39.1459 53.5458 39.2752 53.5458 39.4415Z" stroke="black" stroke-width="0.0831184"/>
<path d="M52.9277 38.0471C52.9277 38.0471 53.057 38.8321 53.685 39.0168L52.9277 38.0471Z" fill="#FFC72C"/>
<path d="M52.9277 38.0471C52.9277 38.0471 53.057 38.8321 53.685 39.0168" stroke="black" stroke-width="0.0831184"/>
<path d="M52.8261 38.0285C52.8815 37.733 53.0016 37.6775 53.1217 37.2897C53.1401 36.9202 52.8261 36.9664 52.9185 36.7355C53.0847 36.4677 53.0016 36.2184 52.6876 36.0244C52.7523 36.3661 52.2812 36.6894 52.2812 36.9664C52.2812 37.2435 52.5214 37.1881 52.4937 37.6129C52.5121 37.853 52.429 37.7976 52.4013 38.0285H52.8261Z" fill="url(#paint11_linear_10790_13864)" stroke="black" stroke-width="0.0831184"/>
<path d="M54.8474 36.1722C54.8474 36.2359 54.8221 36.297 54.7771 36.342C54.7321 36.3871 54.671 36.4124 54.6073 36.4124C54.5436 36.4124 54.4825 36.3871 54.4375 36.342C54.3925 36.297 54.3672 36.2359 54.3672 36.1722C54.3672 36.1086 54.3925 36.0475 54.4375 36.0025C54.4825 35.9574 54.5436 35.9321 54.6073 35.9321C54.671 35.9321 54.7321 35.9574 54.7771 36.0025C54.8221 36.0475 54.8474 36.1086 54.8474 36.1722Z" fill="#FFC72C" stroke="black" stroke-width="0.0831184"/>
<path d="M49.2524 39.8109C49.2524 39.8109 49.7788 41.0299 50.3791 40.2726C50.9794 39.5338 50.767 39.2106 50.767 39.2106L49.4186 38.481L49.0215 39.3121L49.2524 39.8109Z" fill="#FFC72C" stroke="black" stroke-width="0.0831184"/>
<path d="M50.4165 39.6537C50.4165 39.6537 50.5089 39.663 50.5735 39.5337C50.6474 39.4044 50.4165 39.349 50.3057 39.2012L50.1949 39.4321L50.4165 39.6537ZM47.3689 39.3213L46.1867 39.9677C46.1867 39.9677 45.5957 40.0878 45.5587 39.9677C45.5125 39.8569 45.568 39.7553 45.882 39.7369C46.1867 39.7276 47.0179 38.9611 47.0179 38.9611L47.3689 39.3305V39.3213ZM47.3873 18.2738L47.4243 18.6987C47.4427 18.8464 47.1934 19.1604 47.1841 19.142C47.1657 19.1235 47.0456 19.1604 47.0641 19.2436C47.0733 19.3359 47.2488 19.3636 47.2488 19.3636C47.2488 19.3636 47.1841 19.6684 47.2488 19.6869C47.3227 19.6961 47.0641 20.0747 47.2488 20.1763C47.4427 20.2779 47.766 20.4165 47.9137 20.3887C48.0615 20.3518 47.9137 20.9521 47.9137 20.9521L47.4981 21.8295L49.7516 21.5986L49.2898 20.8598C49.2898 20.8598 49.0682 20.7028 49.1236 20.2779C49.1882 19.8623 49.0959 17.9414 49.0959 17.9414L47.4889 17.7197L47.3873 18.2738ZM46.9717 21.6171C46.9717 21.6171 46.2421 21.9495 46.2698 22.8546C46.0851 23.732 45.9835 24.6093 45.9835 24.6093C45.9835 24.6093 45.1154 25.5883 44.8568 25.9484C44.589 26.2994 44.1919 27.0105 44.0534 27.2045C43.9056 27.3892 43.333 28.0172 43.3422 28.2573C43.3607 28.4882 43.2129 29.5318 43.7855 29.6426C43.9333 29.7072 44.4043 28.442 44.4043 28.442C44.4043 28.442 44.432 27.9063 44.2658 27.7955C44.1088 27.7032 44.6167 27.3522 44.6167 27.3522L45.8173 26.4564C46.039 26.2717 46.6393 25.6067 46.6393 25.6067L46.9717 21.6171Z" fill="#FFC6B5" stroke="black" stroke-width="0.0831184"/>
<path d="M47.8117 20.9246C47.8117 20.9246 47.9964 21.4417 48.4212 21.3494C48.846 21.257 49.3448 20.8691 49.3448 20.8691C49.3448 20.8691 49.7419 20.8507 49.7973 20.9153C49.8527 20.9707 50.8686 21.9497 50.8316 22.2544C50.8039 22.5685 50.3699 22.4761 50.2036 22.6793C50.0466 22.8825 49.7788 23.3996 49.8527 23.7875C49.9266 24.1569 50.1482 24.6556 50.1205 24.8496C50.0928 25.0343 49.9358 25.0989 49.9358 25.2005C49.9358 25.2929 50.0651 25.4776 50.0651 25.6623C50.0651 25.8562 49.8804 26.1333 49.9173 26.3272C49.9451 26.512 49.9543 27.0661 49.9543 27.0661L49.9173 29.652C49.9173 29.652 50.0651 29.7351 50.0743 29.8829C50.0928 30.0214 51.0718 34.2789 51.0718 34.2789C51.0718 34.2789 51.0256 34.4174 50.924 34.399C50.8224 34.3805 51.3211 35.0547 51.3304 35.2486C51.3488 35.4333 51.8475 36.9295 51.8291 37.1326C51.8198 37.3358 51.7367 37.7976 51.6998 37.8068C51.6536 37.8253 52.023 38.7488 51.9584 38.8874C51.9029 39.0351 51.3119 39.0259 51.3119 39.0259L51.1456 38.9889C51.1456 38.9889 51.1549 39.1829 51.0441 39.2014C50.924 39.2106 50.0651 39.1552 50.0651 39.1552C50.0651 39.1552 49.8158 39.5338 49.668 39.5246C49.5202 39.5061 49.3263 39.2475 49.2893 39.2845C49.2432 39.3307 49.4186 39.58 49.3817 39.6539C49.3263 39.7278 48.5875 39.8848 48.4397 39.5338C48.2919 39.1829 48.532 39.2752 48.4766 39.2014C48.4397 39.1275 48.1072 38.9335 47.9964 38.9889C47.904 39.0536 48.2642 39.1367 48.2457 39.2845C48.2365 39.4322 47.9225 39.6539 47.8117 39.6539C47.6916 39.6539 47.4146 39.109 46.999 39.1644C46.5926 39.2291 46.334 39.3307 46.334 39.3307C46.334 39.3307 45.8445 39.5338 45.6414 39.4877C45.4382 39.4507 45.3458 39.2845 45.3458 39.2014C45.3458 39.109 45.4936 38.7304 45.4844 38.6103C45.4659 38.4995 45.3458 38.3794 45.3458 38.2039C45.3458 38.0192 45.6875 37.4282 45.6875 37.4282L45.6691 34.7314C45.6691 34.7314 45.3643 34.7314 45.3458 34.5467C45.3366 34.362 45.8168 30.2892 45.9 30.0214L46.1585 28.8208C46.1585 28.8208 45.9369 28.9316 45.9184 28.8208C45.9092 28.7284 46.5834 26.4011 46.5834 26.4011C46.5834 26.4011 46.6942 25.2375 46.6942 24.9327C46.6942 24.6279 46.6388 24.2031 46.6388 24.2031C46.6388 24.2031 46.0385 23.9445 46.02 23.5566C45.9646 22.9379 46.5926 22.5962 46.6665 22.393L46.962 21.5618C46.962 21.5618 47.2853 21.0077 47.8117 20.9246Z" fill="white" stroke="black" stroke-width="0.0831184"/>
<path d="M47.5913 39.506C47.5913 39.506 46.1691 40.2449 45.9659 40.3095C45.7627 40.3649 45.6335 40.0602 45.8366 40.0047C46.0398 39.9401 46.363 39.9124 46.363 39.9124C46.363 39.9124 45.8828 39.5337 45.9013 39.5153L46.5662 39.2751C46.5847 39.2751 46.7694 39.6446 46.8987 39.6261C47.0821 39.5371 47.2555 39.4287 47.4159 39.3029L47.5913 39.506Z" fill="#FFC72C" stroke="black" stroke-width="0.0831184"/>
<path d="M49.5859 39.9124C49.7245 40.0879 49.7706 40.3834 50.0846 40.2079C50.3894 40.0325 49.9276 39.7092 49.9276 39.7092L49.5859 39.9124Z" fill="#FFC6B5" stroke="black" stroke-width="0.0831184"/>
<path d="M50.1483 39.8848C50.1483 39.8848 50.2961 40.0049 50.4254 39.8663C50.5547 39.737 50.1668 39.46 50.1668 39.46L49.9728 39.6816L50.1483 39.8848ZM50.7763 22.3284C50.7948 22.3284 51.2566 23.7691 51.3212 24.1385C51.3766 24.5079 51.5706 25.9671 51.4967 26.1703C51.4228 26.3735 50.6747 27.3524 50.5916 27.6018C50.4993 27.8511 49.9728 28.8024 49.9728 28.8024C49.9728 28.8024 49.8435 29.7444 49.7881 29.7813C49.7235 29.8275 49.9359 30.0584 49.9174 30.1323C49.8897 30.2246 49.4926 30.631 49.3171 30.594C49.1324 30.5479 48.8554 30.3447 48.8554 30.1507C48.8277 29.966 48.8554 29.3288 48.9939 29.1718C49.1232 29.0055 49.8158 27.3894 49.8528 27.2878C49.899 27.1769 50.4808 25.9025 50.4993 25.69C50.5177 25.4684 50.3145 24.9605 50.1114 24.7757C49.6496 23.4181 49.8343 22.6054 50.7763 22.3284Z" fill="#FFC6B5" stroke="black" stroke-width="0.0831184"/>
<path d="M47.3313 18.1908C47.3313 18.1908 47.6638 18.237 47.8393 18.1354C48.0148 18.0338 48.2179 17.9876 48.3657 18.1908C48.5135 18.394 48.6151 18.3755 48.6151 18.3755C48.6151 18.3755 48.3934 18.9296 48.6151 18.985C48.8275 19.0405 48.9383 19.0405 48.9475 19.1143C48.966 19.1882 48.7628 19.3452 48.8182 19.4191C48.8736 19.493 48.9752 19.5761 48.9937 19.6408C49.0029 19.6962 48.8644 19.9455 48.9014 20.0102C48.9475 20.0656 49.0861 20.2965 49.1692 20.2965C49.2615 20.2965 49.1969 20.6659 49.4647 20.5735C49.7233 20.4812 49.7141 20.2503 49.7141 20.2503C49.7141 20.2503 49.9911 20.2133 50.065 19.964C50.1297 19.7146 50.3051 19.65 50.3051 19.65C50.3051 19.65 50.6561 19.4653 50.1943 19.1698C50.1943 17.1195 48.8459 17.3411 48.8459 17.3411C48.8459 17.3411 48.6889 16.9717 48.4211 17.0179C48.1625 17.0641 48.1441 17.3689 47.9593 17.3411C47.7654 17.3134 47.7192 17.1841 47.71 17.1934C47.6915 17.2119 47.5253 17.5074 47.5253 17.572C47.5253 17.6459 47.0173 17.4797 47.0635 17.8491C47.1097 18.237 47.359 18.2185 47.3406 18.1908H47.3313Z" fill="#9C5100" stroke="black" stroke-width="0.0831184"/>
<path d="M49.7154 21.4972C49.7154 21.4972 48.4132 22.3284 48.4409 22.6239M50.0109 21.645C50.0109 21.645 49.7154 21.9682 49.6969 21.9682M50.3988 21.9959C50.3988 21.9959 49.7523 22.5223 49.8539 22.8548M47.3604 21.4233C47.3604 21.4233 47.1664 21.8205 47.2126 21.9498C47.2495 22.0791 47.582 22.5778 47.6189 22.8825C47.6651 23.1965 47.6189 23.4089 47.6189 23.4089M47.0186 22.1529C47.0186 22.1529 47.0741 22.6147 47.1664 22.7071C47.2588 22.7994 47.4897 23.1965 47.5174 23.3535M46.8986 24.1016C46.8986 24.1016 47.2865 24.2863 47.6374 23.5567M48.2008 23.0488C48.1915 23.0488 47.9237 23.7599 48.3947 24.0277C48.8565 24.2955 49.2167 24.2586 49.4106 24.1847C49.623 24.1201 49.8447 23.9815 49.8447 23.9815M47.9976 23.9261C47.9976 23.9261 48.0253 24.8866 49.4476 25.8378M48.0622 24.8312C48.0622 24.8312 48.0438 25.6808 48.5979 26.0595M47.7667 23.8338C47.7667 23.8338 47.3419 25.099 47.0002 25.2191M47.6374 24.7573C47.6374 24.7573 47.6189 25.6624 47.4989 25.9856M47.3881 26.2073C47.3881 26.2073 47.6744 26.5767 47.9976 26.5397C48.3208 26.512 48.4594 26.1334 48.6718 26.1888C48.8934 26.2534 49.0966 26.4289 49.6046 26.3827M48.875 26.7614C48.875 26.7614 48.875 27.5095 49.0135 27.5833C49.1428 27.6572 49.0781 28.3406 49.0781 28.3406M47.0925 26.4104C47.0925 26.4104 47.0741 27.1123 46.9909 27.3617C46.8986 27.611 46.7231 28.0359 46.7601 28.4053M46.1967 28.8116C46.2706 28.7839 46.5199 28.5623 46.5199 28.5623M46.6492 28.7193C46.6492 28.7193 46.0212 31.416 46.1967 33.023M46.797 28.8578C46.797 28.8578 46.4738 30.8711 46.6215 31.259M46.64 28.7932L47.8683 28.8855M48.0438 28.7193C48.0438 28.7193 48.3763 28.904 48.8473 28.8671M47.896 29.7075C47.896 29.7075 47.8406 33.1523 47.7482 33.9188M49.6969 30.4925C49.6969 30.4925 50.0756 33.5217 50.2972 33.7987M48.9673 30.8711C48.9673 30.8711 49.1982 33.5494 49.3367 33.7895M45.6426 34.7223C45.6426 34.7223 46.1043 34.5745 46.5107 34.1405C46.9725 34.7685 47.6928 34.1682 47.6928 34.1682C47.6928 34.1682 48.8011 34.9255 49.2998 34.0758C50.0663 34.5745 50.445 34.0019 50.445 34.0019C50.445 34.0019 50.722 34.4267 50.9252 34.3806M49.7154 34.6761C49.7154 34.6761 50.2787 37.3544 51.1284 38.1117" stroke="black" stroke-width="0.0831184"/>
<path d="M46.7784 34.3989C46.7784 34.3989 46.8431 36.6339 46.9724 38.2131M46.6676 36.9294C46.6676 36.9294 46.5937 38.3886 46.5106 38.4994M45.8087 38.638C45.8087 38.638 45.9657 39.2752 46.7692 38.6841C47.5727 38.1023 47.5911 38.9058 47.6188 38.9889C47.6465 39.0813 47.7758 39.7093 48.0806 39.1829M48.7271 38.324C48.7271 38.324 48.5978 39.6169 49.7522 38.6749C50.9066 37.7237 51.1006 38.6564 51.1375 38.952M48.7456 17.6921C48.7456 17.6921 48.644 18.3386 49.3274 18.274C49.235 18.6341 49.5121 18.745 49.5121 18.745M50.0108 19.1421C50.0293 19.1421 50.3248 19.3268 50.0108 19.5669M49.0226 19.65C49.0226 19.65 49.1704 19.8347 49.3274 19.7886C49.4936 19.7424 49.7522 19.9456 49.7522 19.9456C49.7522 19.9456 49.9739 20.0195 50.0016 19.9733M48.1268 20.2042C48.1268 20.2042 48.6255 20.3981 48.958 19.6131M47.2125 19.373L47.4988 19.3914M43.9616 28.6084L43.9893 29.2456M43.3613 28.5529C43.3613 28.5529 43.7769 29.2456 43.7307 29.6058" stroke="black" stroke-width="0.0831184"/>
<path d="M47.25 19.6685H47.5178L47.2869 19.77M48.8754 29.9936C48.8754 29.9936 49.1802 29.9567 49.171 30.4738C49.3649 29.8274 49.762 29.8181 49.762 29.8181" stroke="black" stroke-width="0.0831184" stroke-linejoin="round"/>
<path d="M47.6191 18.8465C47.6653 18.8465 47.8223 18.791 47.85 18.8372C47.887 18.8742 47.6746 18.9111 47.6191 18.8465Z" stroke="black" stroke-width="0.157001" stroke-linejoin="round"/>
<path d="M47.8209 44.641C51.6761 44.4583 55.3077 42.7784 57.9429 39.9586C57.906 39.9217 58.7648 38.7211 59.4483 38.8873C60.1317 39.0628 61.1199 41.0761 62.3205 41.5102C62.9208 42.4522 62.1542 43.3111 61.8956 43.4773C61.6371 43.6528 60.4734 44.1238 60.3072 43.4404C60.1317 42.7477 59.79 42.8862 59.79 42.8862C59.79 42.8862 54.2949 48.2427 47.9502 48.0303C41.3931 48.0673 35.9812 42.877 35.9812 42.877L35.5102 43.3942C35.5102 43.3942 34.993 43.9483 34.7344 43.9114C34.4758 43.8652 33.3583 43.1356 33.2752 42.406C33.1829 41.6764 33.9586 41.2054 33.9586 41.2054C33.9586 41.2054 35.8519 39.7462 36.0643 38.9797C36.4984 38.5456 37.3111 39.2752 37.3111 39.2752C37.3111 39.2752 42.2889 44.9827 47.8209 44.6317V44.641Z" fill="#FFC72C" stroke="black" stroke-width="0.175472"/>
<path d="M33.8379 41.3163C33.8379 41.3163 34.3458 41.187 34.5305 41.3994C34.7153 41.6118 36.0082 42.8771 36.0082 42.8771" stroke="black" stroke-width="0.175472"/>
<path d="M35.0016 41.9165L34.4844 42.2952C34.4844 42.2952 35.7773 42.5537 35.4818 43.4034M61.858 41.2793C61.858 41.2793 61.6087 41.1407 61.2116 41.4363C60.8052 41.741 59.7985 42.8677 59.7985 42.8677" stroke="black" stroke-width="0.175472"/>
<path d="M60.7143 41.8796L61.2685 42.3045C61.2685 42.3045 60.114 42.3876 60.3634 43.4774" stroke="black" stroke-width="0.175472"/>
<path d="M40.3777 42.6832C40.3407 42.7756 40.2484 42.6832 40.1745 42.7017C39.9898 42.7017 39.8236 42.831 39.6573 42.9233L37.958 43.9115C37.9026 43.893 37.9118 43.8469 37.9303 43.8007L38.3921 41.6766C38.4106 41.5565 38.4475 41.3995 38.3274 41.3071C38.2813 41.2702 38.3551 41.2056 38.3921 41.2702L39.2602 41.889C39.2325 41.9721 39.1771 41.9074 39.1309 41.8797C39.0109 41.7597 38.8631 41.8705 38.8723 42.0183L38.5583 43.4128C38.9462 43.1912 39.3341 42.9695 39.722 42.7294C39.8513 42.674 39.9529 42.4893 39.8143 42.3784C39.7589 42.3415 39.6666 42.2584 39.7589 42.2399L40.3777 42.6832ZM40.9872 45.6385C40.9688 45.6939 40.941 45.7032 40.8949 45.6662L39.879 45.1121C39.8882 45.0475 39.9159 45.0382 39.9621 45.0752C40.0545 45.1398 40.2022 45.1675 40.2761 45.0567L40.6455 44.3825L41.1627 43.4405C41.2366 43.3205 41.1535 43.1819 41.0426 43.1357C41.0057 43.1173 40.9503 43.0988 40.9965 43.0619C41.0149 43.0342 41.0703 43.0896 41.098 43.0988L42.077 43.6345C42.0678 43.6899 42.0401 43.6991 41.9939 43.6622C41.9015 43.5975 41.7538 43.5698 41.6799 43.6806L41.3105 44.3548L40.7933 45.2968C40.7194 45.4076 40.8025 45.5554 40.9133 45.6016L40.9872 45.6385ZM44.9215 44.715L44.6444 45.4908C44.5244 45.4815 44.6075 45.3338 44.5705 45.2599C44.5522 45.083 44.4806 44.9159 44.3651 44.7806C44.2497 44.6454 44.0959 44.5484 43.9241 44.5026C43.647 44.4287 43.37 44.5672 43.2037 44.7889C42.9625 45.1174 42.8214 45.5087 42.7974 45.9156C42.7889 46.0316 42.8119 46.1477 42.8639 46.2517C42.9159 46.3558 42.995 46.4438 43.0929 46.5067C43.2557 46.6083 43.4462 46.6568 43.6378 46.6452L43.8317 46.0634C43.8594 45.9341 43.7209 45.8509 43.6193 45.8232C43.6008 45.7863 43.6378 45.7309 43.684 45.7771L44.6998 46.1465C44.6998 46.2665 44.5521 46.128 44.469 46.1834C44.3489 46.2296 44.3397 46.3774 44.2843 46.4882L44.1642 46.8391C43.7024 46.8668 43.2407 46.7745 42.8343 46.5436C42.4556 46.3035 42.1878 45.8325 42.2709 45.3707C42.3264 44.9736 42.5757 44.6042 42.9359 44.4287C43.2684 44.244 43.6747 44.2532 44.0257 44.3918C44.2104 44.4564 44.3766 44.5765 44.5244 44.7058C44.6167 44.8258 44.783 44.8258 44.8568 44.6965L44.9215 44.715ZM46.5746 47.3748C46.5746 47.4117 46.5746 47.4579 46.5192 47.4302L45.3556 47.2547C45.3556 47.2085 45.3556 47.1716 45.411 47.1993C45.5033 47.2178 45.6511 47.2178 45.688 47.107C45.7434 46.95 45.7527 46.7837 45.7804 46.6267L45.9836 45.2784C46.0113 45.186 45.9836 45.0752 45.882 45.0382C45.8173 45.0105 45.7619 45.0105 45.6973 44.9921C45.6973 44.9551 45.6973 44.9182 45.7527 44.9366L46.9163 45.1214C46.9163 45.1583 46.9163 45.1952 46.8609 45.1768C46.7686 45.1491 46.63 45.1583 46.5839 45.2691C46.5285 45.4169 46.5192 45.5831 46.4915 45.7401L46.2883 47.0885C46.2606 47.1808 46.2883 47.3009 46.3992 47.3378L46.5839 47.3748H46.5746ZM49.7331 46.6175L49.6869 47.4394L47.5998 47.541C47.5905 47.4948 47.5998 47.4671 47.6552 47.4764C47.7568 47.4764 47.8953 47.4302 47.9138 47.3101L47.8861 46.7006L47.8214 45.4631C47.8306 45.343 47.729 45.2506 47.609 45.2599C47.572 45.2414 47.4705 45.2968 47.4797 45.2322C47.4612 45.1768 47.5443 45.2045 47.572 45.1952L48.7357 45.1306C48.7357 45.186 48.7357 45.2137 48.6711 45.2045C48.5695 45.2045 48.4309 45.2229 48.394 45.3522C48.3848 45.5277 48.4032 45.7032 48.4125 45.8787L48.4771 47.1716C48.4771 47.2732 48.5695 47.3748 48.6803 47.3563C48.8465 47.3471 49.022 47.3563 49.1882 47.3101C49.4191 47.2455 49.5392 47.0146 49.6038 46.8022C49.65 46.7468 49.6038 46.599 49.6962 46.6175H49.7331ZM51.3493 44.6042C51.2939 44.6042 51.3216 44.6781 51.3031 44.715C51.2108 45.4076 51.1277 46.1003 51.0261 46.7837C51.0076 46.9407 50.9707 47.1162 50.8229 47.1901C50.7675 47.2178 50.8137 47.3009 50.8691 47.2547L51.5617 47.0423C51.5525 46.9315 51.414 47.0423 51.3401 47.0146C51.1831 47.0146 51.1554 46.8207 51.1831 46.7006C51.1831 46.6082 51.2015 46.5344 51.2108 46.4512L52.005 46.2111C52.1066 46.3404 52.2174 46.4605 52.3098 46.599C52.3837 46.7283 52.2174 46.7837 52.1251 46.8114C52.0697 46.8114 52.1066 46.9038 52.1528 46.8668L53.1964 46.5528C53.1964 46.4328 53.0486 46.5528 52.984 46.4605C52.7808 46.3219 52.6423 46.1188 52.4853 45.9341L51.3493 44.6042ZM51.3493 45.4354L51.9034 46.1095L51.2293 46.3127L51.3493 45.4354ZM54.9142 43.0526L55.2189 43.6068C55.1266 43.6991 55.0712 43.5052 54.9881 43.4775C54.9191 43.4171 54.8328 43.3802 54.7416 43.3719C54.6503 43.3636 54.5588 43.3844 54.4801 43.4313L54.2954 43.5329L55.2005 45.2229C55.2466 45.3615 55.4221 45.3892 55.5422 45.3153C55.5791 45.2784 55.6253 45.2599 55.6345 45.3245C55.4868 45.4169 55.3113 45.5 55.1543 45.5831L54.554 45.9064C54.5078 45.8602 54.5355 45.8325 54.5909 45.814C54.6235 45.8022 54.6529 45.7829 54.6767 45.7577C54.7005 45.7325 54.718 45.702 54.7279 45.6688C54.7378 45.6355 54.7397 45.6004 54.7336 45.5663C54.7274 45.5322 54.7134 45.5 54.6925 45.4723L53.7967 43.8099C53.6305 43.9023 53.4273 43.9762 53.3811 44.1793C53.3349 44.3179 53.3996 44.4749 53.3996 44.5857C53.3534 44.6411 53.3349 44.5672 53.3072 44.5303L53.0579 44.05L54.9142 43.0526ZM56.3272 42.2122L56.8998 42.9787C57.0291 42.8864 57.1399 42.7386 57.103 42.5724C57.1214 42.4431 56.9367 42.2953 57.0014 42.203C57.0383 42.1845 57.066 42.2769 57.0937 42.3046L57.7587 43.1819C57.6663 43.2743 57.6109 43.0803 57.5185 43.0526C57.3892 42.9603 57.2138 42.9141 57.0752 43.0157C56.9737 43.0526 56.9829 43.108 57.0475 43.1727C57.1953 43.3666 57.3431 43.579 57.5093 43.773C57.6017 43.8653 57.731 43.773 57.8141 43.6991C58.0357 43.5513 58.2297 43.3112 58.2204 43.0342C58.2389 42.9049 58.1558 42.7756 58.1558 42.6647C58.2112 42.6001 58.2204 42.7017 58.2481 42.7386L58.5621 43.2927L56.9367 44.5211C56.8721 44.4749 56.9367 44.4379 56.9829 44.4102C57.1307 44.3179 57.0845 44.1239 56.9829 44.0223L55.9301 42.6463C55.8377 42.5262 55.6715 42.5909 55.5884 42.674C55.5422 42.7294 55.496 42.6278 55.5606 42.6186L57.0845 41.4641L57.5001 42.0183C57.4077 42.1106 57.3154 41.8982 57.2138 41.889C57.0106 41.7781 56.7705 41.8613 56.6042 41.9998L56.3179 42.2122" fill="black"/>
<path d="M0 0H32V32H0V0Z" fill="#012169"/>
<path d="M32 0V4L20.125 16L32 27.6875V32H27.8125L15.875 20.25L4.25 32H0V27.75L11.625 16.0625L0 4.625V0H3.875L15.875 11.75L27.5 0H32Z" fill="white"/>
<path d="M11.5 20.25L12.1875 22.375L2.625 32H0V31.8125L11.5 20.25ZM19.25 19.5L22.625 20L32 29.1875V32L19.25 19.5ZM32 0L20 12.25L19.75 9.5L29.125 0H32ZM0 0.0625L12.0625 11.875L8.375 11.375L0 3.0625V0.0625Z" fill="#C8102E"/>
<path d="M11 0V32H21V0H11ZM0 11V21H32V11H0Z" fill="white"/>
<path d="M0 13V19H32V13H0ZM13 0V32H19V0H13Z" fill="#C8102E"/>
</g>
<defs>
<linearGradient id="paint0_linear_10790_13864" x1="39.1592" y1="18.5148" x2="38.1087" y2="18.3599" gradientUnits="userSpaceOnUse">
<stop stop-color="#FF0000"/>
<stop offset="1" stop-color="#FFFF00"/>
</linearGradient>
<linearGradient id="paint1_linear_10790_13864" x1="39.0849" y1="22.3292" x2="38.0345" y2="22.1744" gradientUnits="userSpaceOnUse">
<stop stop-color="#FF0000"/>
<stop offset="1" stop-color="#FFFF00"/>
</linearGradient>
<linearGradient id="paint2_linear_10790_13864" x1="39.0576" y1="26.088" x2="38.0071" y2="25.9332" gradientUnits="userSpaceOnUse">
<stop stop-color="#FF0000"/>
<stop offset="1" stop-color="#FFFF00"/>
</linearGradient>
<linearGradient id="paint3_linear_10790_13864" x1="41.5224" y1="30.1608" x2="40.472" y2="30.0059" gradientUnits="userSpaceOnUse">
<stop stop-color="#FF0000"/>
<stop offset="1" stop-color="#FFFF00"/>
</linearGradient>
<linearGradient id="paint4_linear_10790_13864" x1="38.7334" y1="33.4948" x2="37.6829" y2="33.3399" gradientUnits="userSpaceOnUse">
<stop stop-color="#FF0000"/>
<stop offset="1" stop-color="#FFFF00"/>
</linearGradient>
<linearGradient id="paint5_linear_10790_13864" x1="38.8076" y1="37.4288" x2="37.7571" y2="37.274" gradientUnits="userSpaceOnUse">
<stop stop-color="#FF0000"/>
<stop offset="1" stop-color="#FFFF00"/>
</linearGradient>
<linearGradient id="paint6_linear_10790_13864" x1="52.6709" y1="18.5795" x2="51.6204" y2="18.4246" gradientUnits="userSpaceOnUse">
<stop stop-color="#FF0000"/>
<stop offset="1" stop-color="#FFFF00"/>
</linearGradient>
<linearGradient id="paint7_linear_10790_13864" x1="52.54" y1="22.32" x2="51.4896" y2="22.1651" gradientUnits="userSpaceOnUse">
<stop stop-color="#FF0000"/>
<stop offset="1" stop-color="#FFFF00"/>
</linearGradient>
<linearGradient id="paint8_linear_10790_13864" x1="52.374" y1="26.1525" x2="51.3235" y2="25.9976" gradientUnits="userSpaceOnUse">
<stop stop-color="#FF0000"/>
<stop offset="1" stop-color="#FFFF00"/>
</linearGradient>
<linearGradient id="paint9_linear_10790_13864" x1="52.5693" y1="29.9113" x2="51.5189" y2="29.7564" gradientUnits="userSpaceOnUse">
<stop stop-color="#FF0000"/>
<stop offset="1" stop-color="#FFFF00"/>
</linearGradient>
<linearGradient id="paint10_linear_10790_13864" x1="52.5224" y1="33.6793" x2="51.472" y2="33.5245" gradientUnits="userSpaceOnUse">
<stop stop-color="#FF0000"/>
<stop offset="1" stop-color="#FFFF00"/>
</linearGradient>
<linearGradient id="paint11_linear_10790_13864" x1="52.54" y1="37.4659" x2="51.4896" y2="37.3111" gradientUnits="userSpaceOnUse">
<stop stop-color="#FF0000"/>
<stop offset="1" stop-color="#FFFF00"/>
</linearGradient>
<clipPath id="clip0_10790_13864">
<rect width="64" height="64" rx="32" fill="white"/>
</clipPath>
</defs>
</svg>
