<svg width="64" height="64" viewBox="0 0 64 64" fill="none" xmlns="http://www.w3.org/2000/svg">
<g clip-path="url(#clip0_11297_21617)">
<path d="M0 0H64V64H0V0Z" fill="white"/>
<path d="M20.4383 39.4999C20.4383 39.4999 20.3883 39.1374 21.0508 38.8749C21.7133 38.6249 21.7633 37.6624 21.6383 37.0249C21.6383 37.0249 21.2883 37.6374 20.8633 37.8374C20.8633 37.8374 20.1758 38.1999 20.1383 38.8874C20.1383 38.8874 20.1383 39.1374 20.0883 39.3249C20.0633 39.4374 19.7508 38.4749 20.3383 37.7499C20.9258 37.0124 21.0883 36.4124 20.6258 35.2499C20.6258 35.2499 20.5758 35.9499 20.1133 36.3624C19.6383 36.7624 19.5883 36.7999 19.5883 37.7624C19.5883 37.7624 19.5883 38.0999 19.4258 38.2124C19.4258 38.2124 19.0508 37.6749 18.9633 37.3374C18.8633 36.9749 18.8258 36.8374 19.2383 36.4249C19.2383 36.4249 20.5633 35.5624 19.6133 33.6749C19.6133 33.6749 19.5758 34.3374 19.1133 34.7124C18.6633 35.0874 18.7008 35.3499 18.6758 36.0124C18.6508 36.6749 18.6008 36.6374 18.5508 36.7249C18.5508 36.7249 17.7133 35.1749 18.3633 34.3499C19.0133 33.5249 19.3758 33.3499 18.6633 31.8124C18.6633 31.8124 18.6883 32.5999 18.1133 32.9874C17.5383 33.3749 17.6758 34.2999 17.6758 34.2999C17.6758 34.2999 17.7133 34.6374 17.5883 34.8874C17.5883 34.8874 16.7758 33.2999 17.5508 32.4499C18.2133 31.7249 18.2633 31.2124 17.9008 30.1874C17.9008 30.1874 17.8633 30.6624 17.5008 30.9249C17.1258 31.1749 16.8508 31.4249 16.9133 32.4249C16.9133 32.4249 16.9383 33.1124 16.8508 33.2999C16.8508 33.2999 16.5133 32.6749 16.4133 32.2624C16.3258 31.8499 16.2883 31.6124 16.5383 31.1999C16.7883 30.7874 17.7883 29.5999 16.5883 27.8999C16.5883 27.8999 16.5508 28.4499 16.2508 28.9499C15.9508 29.4499 16.0883 30.0374 16.1508 30.4874C16.2258 30.9374 16.0008 31.3749 16.0008 31.3749C16.0008 31.3749 15.4883 30.4249 15.5883 29.3374C15.7133 28.2499 15.2633 27.3374 14.2508 26.7124C14.2508 26.7124 13.5258 28.3999 14.5258 29.2624C14.5258 29.2624 15.3758 30.1124 15.5883 31.1374C15.5883 31.1374 14.9383 31.0624 14.3633 29.9249C13.7758 28.7999 12.5633 28.9749 12.4883 28.9624C12.4883 28.9624 12.6758 30.7124 14.5383 31.2124C14.5383 31.2124 15.7383 31.4249 15.9508 32.2999C15.9508 32.2999 16.1508 32.8999 16.2383 33.2249C16.2383 33.2249 15.8633 33.0749 15.5133 32.5624C15.1633 32.0374 15.2133 31.9749 14.0383 31.8624C14.0383 31.8624 13.5633 31.8124 13.3133 31.4749C13.3133 31.4749 13.8133 33.3374 15.0758 33.3249C15.0758 33.3249 16.2383 33.1999 16.8883 34.7249L16.5883 34.5249C16.4258 34.3999 15.9883 34.1874 15.1383 34.2999C14.2883 34.4124 14.0508 34.2499 13.8383 34.1749C13.8383 34.1749 14.7008 35.7624 15.9133 35.2999C17.1258 34.8249 17.7133 36.5249 17.7258 36.5624C17.7258 36.5624 17.5633 36.4374 17.3508 36.2249C17.1383 36.0124 16.6883 35.7624 15.8508 36.0249C15.8508 36.0249 15.2383 36.2624 14.6258 36.0749C14.6258 36.0749 15.2133 37.2124 16.6008 37.0249C17.9758 36.8249 18.3383 38.0499 18.3383 38.0499L18.0258 37.8374C17.9008 37.7374 17.4258 37.4624 16.4258 37.7624C15.4258 38.0624 15.0633 37.7124 15.0633 37.7124C15.0633 37.7124 15.6258 38.7249 16.6883 38.8374C16.6883 38.8374 17.2758 38.8374 17.5383 38.7499C17.7796 38.6477 18.0491 38.633 18.3001 38.7083C18.5512 38.7836 18.768 38.9442 18.9133 39.1624C18.9133 39.1624 18.7883 39.1874 18.5883 39.0999C18.5883 39.0999 17.8758 38.8499 17.3383 39.2999C17.3383 39.2999 16.8633 39.7999 16.1758 39.6999C16.1758 39.6999 17.0508 40.5499 18.4633 39.8249C18.4633 39.8249 18.9383 39.4874 19.2758 39.7499C19.6258 40.0124 20.4383 39.4999 20.4383 39.4999Z" fill="#369443" stroke="#010002" stroke-width="0.15" stroke-miterlimit="10"/>
<path d="M28.2246 18.3752C28.2246 18.3752 28.0621 16.9127 29.2246 16.7752C30.4246 16.6377 31.0246 16.8877 31.0246 16.8877L31.5621 17.9502L31.3746 18.6752L30.6246 19.0127C30.6246 19.0127 30.7496 17.9127 29.7496 17.8877C29.4996 17.8877 29.3371 17.9877 28.9371 17.9252C28.5246 17.8502 28.3121 18.3002 28.2246 18.3627V18.3752Z" fill="#F4C53D" stroke="#010002" stroke-width="0.15" stroke-miterlimit="10"/>
<path d="M36.3746 21.9626C36.1996 22.1876 35.5121 22.2626 35.5121 22.2626C35.5121 22.2626 36.2246 22.8001 36.5246 23.5876C36.8371 24.3626 28.2996 23.5876 28.2996 23.5876C28.2996 23.5876 28.6746 23.3251 28.9246 22.8376C28.9246 22.8376 28.5496 22.9626 28.1621 22.5876C28.1621 22.5876 28.4496 22.6876 28.8121 22.1251C28.8121 22.1251 29.3621 21.4251 29.7496 21.2376C29.7496 21.2376 29.5621 21.3501 29.1371 21.1126C29.1371 21.1126 29.8871 21.0126 30.1371 19.7501C30.1371 19.7501 30.1871 19.4751 30.4746 19.0626C30.7496 18.6626 30.6871 19.1501 31.2121 18.5251C31.2121 18.5251 31.4496 18.0751 31.2371 17.8126C31.0246 17.5501 30.8121 17.6376 30.3746 17.3751C29.9371 17.1126 29.7496 16.9751 29.8996 16.5751C30.0496 16.1751 30.4246 16.2376 30.4871 16.2376C30.5371 16.2376 30.5746 15.8876 31.0371 15.6501C31.6637 15.4643 32.3288 15.4513 32.9621 15.6126C33.1496 15.7251 33.9121 15.9501 34.3496 17.0626C34.7996 18.1876 34.2246 18.6126 35.4496 20.3126C35.4496 20.3126 34.9496 20.4126 34.6496 20.3126C34.6496 20.3126 35.2746 21.4376 36.3746 21.9626Z" fill="#F4C53D" stroke="#010002" stroke-width="0.15" stroke-miterlimit="10"/>
<path d="M31.0869 17.2253C30.1119 17.1753 30.4869 16.2378 30.4869 16.2378" stroke="#010002" stroke-width="0.15" stroke-miterlimit="10"/>
<path d="M32.8004 17.35C32.8004 17.35 32.6254 17.2625 32.4879 17.075C32.2754 16.8 31.8129 16.675 31.5629 16.925C31.5629 16.925 31.3129 17.2125 31.0879 17.225C31.0879 17.225 31.3379 17.3 31.5129 17.4625C31.6879 17.625 31.8754 17.7375 32.1379 17.7125C32.3879 17.6625 32.4379 17.525 32.5504 17.45C32.6754 17.3625 32.8004 17.35 32.8004 17.35Z" fill="#F4C53D" stroke="#010002" stroke-width="0.15" stroke-miterlimit="10"/>
<path d="M20.2872 41.6499C20.2872 41.6499 20.2622 41.0249 21.0622 40.9624L23.4122 44.2374C23.4122 44.2374 23.3247 44.4499 22.2622 44.4249C22.2622 44.4249 22.1372 44.4249 22.0872 44.5499C21.9997 44.7499 20.2872 41.6499 20.2872 41.6499Z" fill="#369443" stroke="#010002" stroke-width="0.15" stroke-miterlimit="10"/>
<path d="M22.8706 37.8432C22.8706 37.8432 22.1193 39.1319 21.2115 39.153C21.2115 39.153 19.6503 38.9633 19.2092 39.3713C18.9006 39.6558 18.5859 39.8907 18.4564 40.6178C18.33 41.345 18.7048 41.5015 18.7937 41.5332C18.7937 41.5332 18.8629 42.0526 19.3763 41.9171C19.3763 41.9171 19.4064 42.459 20.3127 42.1986C21.2205 41.9381 21.5969 42.0209 21.773 41.1176C21.9522 40.2128 22.1163 40.2279 22.2774 40.1195C22.4942 39.9735 22.9022 39.8365 23.2048 39.6618C23.4758 39.5053 24.5176 38.9753 24.8729 38.9347C25.2282 38.8925 25.1499 37.6971 25.1499 37.6971H24.2315L23.7874 37.0423L22.8706 37.8432ZM25.7611 31.3786C25.7611 31.3786 24.8428 32.1268 24.0719 31.3786C24.0719 31.3786 23.7618 31.7519 23.1385 31.6435C22.5183 31.5336 22.4144 31.2069 22.3557 31.0203C22.3557 31.0203 21.8167 31.3334 21.362 31.085C20.9104 30.8381 20.9104 30.4632 20.9104 30.4632C20.9104 30.4632 20.12 30.6198 19.715 30.0838C19.31 29.5494 19.5569 29.0194 19.7752 28.9562C19.7752 28.9562 18.9216 29.1805 18.6883 28.4474C18.6261 28.2836 18.6165 28.1046 18.6608 27.9352C18.705 27.7658 18.8009 27.6143 18.9352 27.5019C18.9352 27.5019 17.1376 27.4929 16.3999 26.9298C16.3999 26.9298 15.7872 26.5444 16.153 26.1394C16.153 26.1394 14.5346 25.8805 14.1296 25.2361C14.1296 25.2361 13.952 25.0585 14.0107 24.7468C14.0107 24.7468 14.0212 24.5707 14.1989 24.5602C14.1989 24.5602 12.3531 24.2741 11.8202 23.6659C11.8202 23.6659 11.5642 23.3859 11.6922 23.011C11.6922 23.011 11.7193 22.9131 11.763 22.8454C11.763 22.8454 10.0828 22.4916 9.25481 21.7434C9.25481 21.7434 8.77606 21.3173 9.02296 20.7452C9.02296 20.7452 6.21521 19.9774 6.86558 18.7399C6.86558 18.7399 5.55279 18.3138 5.96831 17.129C5.96831 17.129 4.88284 16.578 5.35557 15.7048C5.80872 14.8693 7.20131 15.8508 8.84833 16.307C8.84833 16.307 13.3106 17.7101 15.5072 18.0835L21.749 27.3769L25.3908 28.7801L25.7611 31.3786Z" fill="#F4C53D" stroke="#010002" stroke-width="0.15055"/>
<path d="M25.8052 24.5345C25.8052 24.5345 25.2195 24.0949 24.1762 24.6113C24.1762 24.6113 23.8255 24.8536 23.5484 24.5887C23.4884 24.5314 23.4418 24.4614 23.412 24.384C23.3822 24.3065 23.3699 24.2233 23.3761 24.1405C23.3823 24.0577 23.4068 23.9774 23.4478 23.9052C23.4888 23.833 23.5453 23.7708 23.6132 23.723C24.3915 23.1464 24.6791 21.4166 23.4957 20.6985C23.4957 20.6985 21.7795 19.6807 15.482 18.0789C15.482 18.0789 14.955 17.9314 14.672 18.0021C14.5351 18.037 14.4102 18.1084 14.3105 18.2086C14.2108 18.3088 14.1401 18.4341 14.1059 18.5712C14.1059 18.5712 13.8229 19.3736 14.7714 19.8328C14.7714 19.8328 15.1989 20.0285 15.64 20.155C15.64 20.155 15.1553 20.0496 14.9475 20.5283C14.7518 20.986 15.0378 21.4542 15.9261 21.7553C15.9261 21.7553 16.167 21.8487 16.5087 21.9315C16.5087 21.9315 15.7484 22.1498 16.1143 22.764C16.1143 22.764 16.4395 23.4084 17.5897 23.5228C17.5897 23.5228 16.7315 23.6161 17.3367 24.4321C17.3367 24.4321 17.6032 24.8792 18.4418 25.0448C18.4418 25.0448 17.8065 25.0659 18.1256 25.6365C18.4478 26.2086 19.2021 26.5308 19.9458 26.5835C19.9458 26.5835 20.3477 26.6045 20.6293 26.5413C20.6293 26.5413 19.9217 26.8951 20.3372 27.4868C20.3372 27.4868 20.6428 27.9083 21.4076 27.8872C21.4076 27.8872 21.2104 28.5496 21.7704 28.7996C22.207 28.9953 22.5699 28.6821 22.5699 28.6821C22.5699 28.6821 22.4223 29.3912 23.0592 29.6411C23.0592 29.6411 23.3768 29.8052 23.851 29.6411C23.851 29.6411 24.2124 30.4526 25.5011 29.882C26.7898 29.3144 25.8052 24.536 25.8052 24.536V24.5345ZM25.8805 31.9024C25.8805 31.9024 25.6923 32.9171 24.1943 34.1938C24.1943 34.1938 23.0381 35.213 23.0667 36.3873C23.0968 37.5842 22.8604 37.7181 22.4058 38.1231C22.4058 38.1231 23.3437 38.1969 23.7968 37.5721C23.7968 37.5721 23.7773 38.6109 23.6388 38.7057C23.6388 38.7057 23.9338 38.7238 24.3599 38.2586C24.3599 38.2586 24.6158 37.9876 24.8537 37.8837C24.8537 37.8837 24.5767 38.6019 24.7935 39.2673C24.7935 39.2673 24.8627 39.0069 25.2286 38.8924C25.2286 38.8924 25.891 38.7569 26.1469 37.8009C26.1469 37.8009 26.314 37.1686 27.3513 36.6056C27.3513 36.6056 28.5256 36.163 28.4955 35.5849C28.4654 35.0052 25.882 31.9024 25.882 31.9024H25.8805Z" fill="#F4C53D" stroke="#010002" stroke-width="0.15055"/>
<path d="M31.3246 44.9837C31.3246 44.9837 31.0551 46.1701 30.1202 46.0752C30.1202 46.0752 29.4593 46.012 29.509 44.91C29.509 44.91 28.5319 45.4309 28.3738 44.1422C28.3738 44.1422 27.4856 44.3484 27.4961 43.144C27.4961 43.144 26.6681 43.2886 26.766 42.2181C26.766 42.2181 25.8672 42.459 25.8672 41.4503C25.8672 41.4503 23.7655 41.1011 28.1465 37.1055L32.0548 39.433L31.3246 44.9837Z" fill="#F4C53D" stroke="#010002" stroke-width="0.15055" stroke-miterlimit="10"/>
<path d="M31.7597 39.6557C31.7597 39.6557 31.1078 40.2339 30.6441 39.3697C30.6441 39.3697 30.0118 39.3396 29.914 38.8608C29.914 38.8608 29.4006 38.8097 29.3012 38.3204C29.3012 38.3204 28.6012 38.2481 28.6208 37.6564C28.6208 37.6564 27.3471 37.5571 28.6208 36.1148C29.8944 34.6725 32.0548 38.5086 32.0548 38.5086L31.7597 39.6557ZM32.4854 39.2974C33.1177 39.2974 33.8328 43.2418 33.6476 45.619C33.5799 46.4817 33.1177 47.1863 32.4854 47.1863C31.8531 47.1863 31.3924 46.4817 31.3261 45.619C31.1395 43.2418 31.8546 39.2974 32.4854 39.2974Z" fill="#F4C53D" stroke="#010002" stroke-width="0.15055"/>
<path d="M32.4845 40.5621C32.9668 40.5621 33.3577 39.9824 33.3577 39.2674C33.3577 38.5523 32.9668 37.9727 32.4845 37.9727C32.0023 37.9727 31.6113 38.5523 31.6113 39.2674C31.6113 39.9824 32.0023 40.5621 32.4845 40.5621Z" fill="#F4C53D" stroke="#010002" stroke-width="0.15055"/>
<path d="M29.5075 44.9098C29.5075 44.9098 29.6068 42.8217 31.4165 39.8272M28.3723 44.142C28.3723 44.142 28.0908 42.9361 30.6426 39.3696C30.6426 39.3696 30.346 38.519 31.2539 37.9725M27.4946 43.1439C27.4946 43.1439 27.4148 41.8386 29.9125 38.8607C29.9125 38.8607 29.6912 38.0929 30.596 37.4787M26.7645 42.218C26.7645 42.218 26.8578 40.8992 29.2997 38.3202C29.2997 38.3202 29.1793 37.5313 30.0525 37.0421M25.8672 41.4502C25.8672 41.4502 26.0433 39.9432 28.6192 37.6563C28.6192 37.6563 28.5304 37.0631 29.3886 36.4609" stroke="#010002" stroke-width="0.15055" stroke-miterlimit="10"/>
<path d="M5.96875 17.1289C5.96875 17.1289 7.99064 18.3002 14.2927 19.4715M6.86603 18.7398C6.86603 18.7398 12.3415 20.5253 14.8918 20.7451M9.0219 20.7451C9.0219 20.7451 12.2346 21.7538 15.9969 22.3906M11.7634 22.8468C11.7634 22.8468 15.3917 23.7185 17.126 23.863M14.1993 24.5601C14.1993 24.5601 17.269 25.1999 18.0459 25.2767M16.1535 26.1393C16.1535 26.1393 18.3936 26.4796 19.2849 26.4615M18.9356 27.5003C18.9356 27.5003 19.8419 27.4581 20.277 27.3859M19.7742 28.9561C19.7742 28.9561 20.545 28.7484 20.9982 28.4578M20.9093 30.4631C20.9093 30.4631 21.5025 30.2343 21.7885 29.611M22.3561 31.0202C22.3561 31.0202 22.8138 30.6092 22.8439 30.1515M24.0724 31.3785C24.0724 31.3785 23.9008 31.2294 24.0182 30.5851M23.8511 29.6396C23.8511 29.6396 23.7607 29.4559 23.7909 29.1639M20.6143 20.4124C20.6143 20.4124 21.65 20.8279 21.9948 21.4C22.3411 21.9721 22.1137 22.5276 21.9948 22.8453C21.9361 23.0064 21.2059 24.414 22.0641 25.4332M20.6278 26.5383C20.6278 26.5383 20.6338 26.5338 20.9982 26.4178M18.4418 25.0418C18.4418 25.0418 19.0591 25.1653 19.6658 25.1713M17.5882 23.5182C17.5882 23.5182 18.3138 23.592 18.9958 23.5815M16.5088 21.9284C16.5088 21.9284 17.5551 22.1362 18.1166 22.1467M15.6401 20.155C15.6401 20.155 16.9303 20.5223 17.8893 20.6533M20.0211 21.4121C20.0211 21.4121 19.0937 22.2747 20.2093 23.0756C20.2093 23.0756 19.7456 23.8028 20.673 24.5616M20.4261 24.9199C20.4261 24.9199 20.2876 26.3079 21.9858 26.3079C21.9858 26.3079 21.6591 27.544 23.2986 27.5033C23.2986 27.5033 23.4852 28.4909 24.6686 28.2922M22.0625 39.1544C22.0625 39.1544 21.7931 39.2146 21.2104 39.1544M19.5724 39.8815C19.5724 39.8815 18.7535 39.7566 18.7926 41.5346M20.0663 40.2865C20.0663 40.2865 19.3255 40.1932 19.3737 41.9185M27.2129 36.1298C27.2129 36.1298 26.8576 36.2021 26.6107 36.4836C26.3653 36.7636 25.891 36.7109 25.891 36.7109C25.891 36.7109 26.147 36.5032 26.2373 35.9838C26.3246 35.4644 26.6122 35.3078 26.6122 35.3078M25.7646 34.817C25.7646 34.817 25.4093 34.8893 25.1624 35.1693C24.9155 35.4508 24.4412 35.3981 24.4412 35.3981C24.4412 35.3981 24.6972 35.1904 24.7875 34.671C24.8763 34.1516 25.1624 33.995 25.1624 33.995M25.5192 36.8329C25.5192 36.8329 25.209 36.8976 24.9938 37.1415C24.7785 37.3869 24.3645 37.3417 24.3645 37.3417C24.3645 37.3417 24.5903 37.1611 24.6656 36.7064C24.7438 36.2533 24.9938 36.1163 24.9938 36.1163" stroke="#010002" stroke-width="0.15055"/>
<path d="M41.856 37.8432C41.856 37.8432 42.6073 39.1319 43.5151 39.153C43.5151 39.153 45.0763 38.9633 45.5174 39.3713C45.826 39.6558 46.1407 39.8907 46.2701 40.6178C46.3966 41.345 46.0217 41.5015 45.9329 41.5332C45.9329 41.5332 45.8636 42.0526 45.3503 41.9171C45.3503 41.9171 45.3202 42.459 44.4139 42.1986C43.506 41.9381 43.1297 42.0209 42.9535 41.1176C42.7744 40.2128 42.6103 40.2279 42.4492 40.1195C42.2324 39.9735 41.8244 39.8365 41.5218 39.6618C41.2508 39.5053 40.209 38.9753 39.8537 38.9347C39.4984 38.8925 39.5767 37.6971 39.5767 37.6971H40.495L40.9392 37.0423L41.856 37.8432ZM38.9654 31.3786C38.9654 31.3786 39.8838 32.1268 40.6546 31.3786C40.6546 31.3786 40.9648 31.7519 41.588 31.6435C42.2083 31.5336 42.3122 31.2069 42.3709 31.0203C42.3709 31.0203 42.9099 31.3334 43.3645 31.085C43.8162 30.8381 43.8162 30.4632 43.8162 30.4632C43.8162 30.4632 44.6066 30.6198 45.0115 30.0838C45.4165 29.5494 45.1696 29.0194 44.9513 28.9562C44.9513 28.9562 45.8049 29.1805 46.0383 28.4474C46.1004 28.2836 46.11 28.1046 46.0658 27.9352C46.0215 27.7658 45.9256 27.6143 45.7914 27.5019C45.7914 27.5019 47.589 27.4929 48.3266 26.9298C48.3266 26.9298 48.9394 26.5444 48.5735 26.1394C48.5735 26.1394 50.192 25.8805 50.5969 25.2361C50.5969 25.2361 50.7746 25.0585 50.7159 24.7468C50.7159 24.7468 50.7053 24.5707 50.5277 24.5602C50.5277 24.5602 52.3734 24.2741 52.9064 23.6659C52.9064 23.6659 53.1623 23.3859 53.0343 23.011C53.0343 23.011 53.0072 22.9131 52.9636 22.8454C52.9636 22.8454 54.6437 22.4916 55.4718 21.7434C55.4718 21.7434 55.9505 21.3173 55.7036 20.7452C55.7036 20.7452 58.5114 19.9774 57.861 18.7399C57.861 18.7399 59.1738 18.3138 58.7583 17.129C58.7583 17.129 59.8437 16.578 59.371 15.7048C58.9178 14.8693 57.5253 15.8508 55.8782 16.307C55.8782 16.307 51.4159 17.7101 49.2194 18.0835L42.9776 27.3769L39.3358 28.7801L38.9654 31.3786Z" fill="#F4C53D" stroke="#010002" stroke-width="0.15055"/>
<path d="M38.9214 24.5345C38.9214 24.5345 39.507 24.0949 40.5503 24.6113C40.5503 24.6113 40.9011 24.8536 41.1781 24.5887C41.2382 24.5314 41.2848 24.4614 41.3146 24.384C41.3444 24.3065 41.3566 24.2233 41.3504 24.1405C41.3442 24.0577 41.3198 23.9774 41.2788 23.9052C41.2378 23.833 41.1813 23.7708 41.1134 23.723C40.335 23.1464 40.0475 21.4166 41.2308 20.6985C41.2308 20.6985 42.9471 19.6807 49.2446 18.0789C49.2446 18.0789 49.7715 17.9314 50.0545 18.0021C50.1915 18.037 50.3164 18.1084 50.4161 18.2086C50.5157 18.3088 50.5864 18.4341 50.6206 18.5712C50.6206 18.5712 50.9037 19.3736 49.9552 19.8328C49.9552 19.8328 49.5276 20.0285 49.0865 20.155C49.0865 20.155 49.5713 20.0496 49.779 20.5283C49.9748 20.986 49.6887 21.4542 48.8005 21.7553C48.8005 21.7553 48.5596 21.8487 48.2178 21.9315C48.2178 21.9315 48.9781 22.1498 48.6123 22.764C48.6123 22.764 48.2871 23.4084 47.1369 23.5228C47.1369 23.5228 47.995 23.6161 47.3898 24.4321C47.3898 24.4321 47.1233 24.8792 46.2848 25.0448C46.2848 25.0448 46.9201 25.0659 46.6009 25.6365C46.2788 26.2086 45.5245 26.5308 44.7808 26.5835C44.7808 26.5835 44.3788 26.6045 44.0973 26.5413C44.0973 26.5413 44.8049 26.8951 44.3894 27.4868C44.3894 27.4868 44.0837 27.9083 43.3189 27.8872C43.3189 27.8872 43.5162 28.5496 42.9561 28.7996C42.5195 28.9953 42.1567 28.6821 42.1567 28.6821C42.1567 28.6821 42.3042 29.3912 41.6674 29.6411C41.6674 29.6411 41.3497 29.8052 40.8755 29.6411C40.8755 29.6411 40.5142 30.4526 39.2255 29.882C37.9368 29.3144 38.9214 24.536 38.9214 24.536V24.5345ZM38.8461 31.9024C38.8461 31.9024 39.0343 32.9171 40.5323 34.1938C40.5323 34.1938 41.6885 35.213 41.6599 36.3873C41.6298 37.5842 41.8661 37.7181 42.3208 38.1231C42.3208 38.1231 41.3829 38.1969 40.9297 37.5721C40.9297 37.5721 40.9493 38.6109 41.0878 38.7057C41.0878 38.7057 40.7927 38.7238 40.3667 38.2586C40.3667 38.2586 40.1107 37.9876 39.8729 37.8837C39.8729 37.8837 40.1499 38.6019 39.9331 39.2673C39.9331 39.2673 39.8638 39.0069 39.498 38.8924C39.498 38.8924 38.8356 38.7569 38.5796 37.8009C38.5796 37.8009 38.4125 37.1686 37.3752 36.6056C37.3752 36.6056 36.2009 36.163 36.231 35.5849C36.2612 35.0052 38.8446 31.9024 38.8446 31.9024H38.8461Z" fill="#F4C53D" stroke="#010002" stroke-width="0.15055"/>
<path d="M33.4019 44.9837C33.4019 44.9837 33.6714 46.1701 34.6063 46.0752C34.6063 46.0752 35.2673 46.012 35.2176 44.91C35.2176 44.91 36.1946 45.4309 36.3527 44.1422C36.3527 44.1422 37.241 44.3484 37.2304 43.144C37.2304 43.144 38.0585 43.2886 37.9606 42.2181C37.9606 42.2181 38.8594 42.459 38.8594 41.4503C38.8594 41.4503 40.9611 41.1011 36.5801 37.1055L32.6718 39.433L33.4019 44.9837Z" fill="#F4C53D" stroke="#010002" stroke-width="0.15055" stroke-miterlimit="10"/>
<path d="M32.9668 39.6557C32.9668 39.6557 33.6187 40.2339 34.0824 39.3697C34.0824 39.3697 34.7147 39.3396 34.8126 38.8608C34.8126 38.8608 35.326 38.8097 35.4253 38.3204C35.4253 38.3204 36.1254 38.2481 36.1058 37.6564C36.1058 37.6564 37.3795 37.5571 36.1058 36.1148C34.8322 34.6725 32.6718 38.5086 32.6718 38.5086L32.9668 39.6557ZM32.2412 39.2974C31.6089 39.2974 30.8938 43.2418 31.0789 45.619C31.1467 46.4817 31.6089 47.1863 32.2412 47.1863C32.8735 47.1863 33.3342 46.4817 33.4004 45.619C33.5871 43.2418 32.872 39.2974 32.2412 39.2974Z" fill="#F4C53D" stroke="#010002" stroke-width="0.15055"/>
<path d="M32.242 40.5621C31.7598 40.5621 31.3689 39.9824 31.3689 39.2674C31.3689 38.5523 31.7598 37.9727 32.242 37.9727C32.7243 37.9727 33.1152 38.5523 33.1152 39.2674C33.1152 39.9824 32.7243 40.5621 32.242 40.5621Z" fill="#F4C53D" stroke="#010002" stroke-width="0.15055"/>
<path d="M35.2191 44.9098C35.2191 44.9098 35.1197 42.8217 33.3101 39.8272M36.3542 44.142C36.3542 44.142 36.6358 42.9361 34.0839 39.3696C34.0839 39.3696 34.3805 38.519 33.4727 37.9725M37.2319 43.1439C37.2319 43.1439 37.3117 41.8386 34.8141 38.8607C34.8141 38.8607 35.0354 38.0929 34.1306 37.4787M37.9621 42.218C37.9621 42.218 37.8688 40.8992 35.4268 38.3202C35.4268 38.3202 35.5473 37.5313 34.6741 37.0421M38.8594 41.4502C38.8594 41.4502 38.6832 39.9432 36.1073 37.6563C36.1073 37.6563 36.1961 37.0631 35.338 36.4609" stroke="#010002" stroke-width="0.15055" stroke-miterlimit="10"/>
<path d="M58.7578 17.1289C58.7578 17.1289 56.7359 18.3002 50.4339 19.4715M57.8605 18.7398C57.8605 18.7398 52.385 20.5253 49.8347 20.7451M55.7047 20.7451C55.7047 20.7451 52.4919 21.7538 48.7297 22.3906M52.9631 22.8468C52.9631 22.8468 49.3349 23.7185 47.6006 23.863M50.5272 24.5601C50.5272 24.5601 47.4575 25.1999 46.6807 25.2767M48.5731 26.1393C48.5731 26.1393 46.3329 26.4796 45.4417 26.4615M45.7909 27.5003C45.7909 27.5003 44.8846 27.4581 44.4495 27.3859M44.9524 28.9561C44.9524 28.9561 44.1816 28.7484 43.7284 28.4578M43.8172 30.4631C43.8172 30.4631 43.2241 30.2343 42.938 29.611M42.3704 31.0202C42.3704 31.0202 41.9128 30.6092 41.8827 30.1515M40.6542 31.3785C40.6542 31.3785 40.8258 31.2294 40.7084 30.5851M40.8755 29.6396C40.8755 29.6396 40.9658 29.4559 40.9357 29.1639M44.1123 20.4124C44.1123 20.4124 43.0765 20.8279 42.7318 21.4C42.3855 21.9721 42.6128 22.5276 42.7318 22.8453C42.7905 23.0064 43.5206 24.414 42.6625 25.4332M44.0988 26.5383C44.0988 26.5383 44.0927 26.5338 43.7284 26.4178M46.2847 25.0418C46.2847 25.0418 45.6675 25.1653 45.0608 25.1713M47.1384 23.5182C47.1384 23.5182 46.4127 23.592 45.7307 23.5815M48.2178 21.9284C48.2178 21.9284 47.1715 22.1362 46.6099 22.1467M49.0865 20.155C49.0865 20.155 47.7963 20.5223 46.8373 20.6533M44.7055 21.4121C44.7055 21.4121 45.6329 22.2747 44.5173 23.0756C44.5173 23.0756 44.981 23.8028 44.0536 24.5616M44.3005 24.9199C44.3005 24.9199 44.439 26.3079 42.7408 26.3079C42.7408 26.3079 43.0675 27.544 41.428 27.5033C41.428 27.5033 41.2413 28.4909 40.058 28.2922M42.664 39.1544C42.664 39.1544 42.9335 39.2146 43.5161 39.1544M45.1541 39.8815C45.1541 39.8815 45.9731 39.7566 45.934 41.5346M44.6603 40.2865C44.6603 40.2865 45.401 40.1932 45.3528 41.9185M37.5137 36.1298C37.5137 36.1298 37.869 36.2021 38.1159 36.4836C38.3613 36.7636 38.8355 36.7109 38.8355 36.7109C38.8355 36.7109 38.5796 36.5032 38.4893 35.9838C38.4019 35.4644 38.1144 35.3078 38.1144 35.3078M38.962 34.817C38.962 34.817 39.3173 34.8893 39.5642 35.1693C39.8111 35.4508 40.2853 35.3981 40.2853 35.3981C40.2853 35.3981 40.0294 35.1904 39.9391 34.671C39.8502 34.1516 39.5642 33.995 39.5642 33.995M39.2074 36.8329C39.2074 36.8329 39.5175 36.8976 39.7328 37.1415C39.9481 37.3869 40.3621 37.3417 40.3621 37.3417C40.3621 37.3417 40.1363 37.1611 40.061 36.7064C39.9827 36.2533 39.7328 36.1163 39.7328 36.1163" stroke="#010002" stroke-width="0.15055"/>
<path d="M47.4629 34.0876L46.6004 33.5876L45.1754 39.7751L44.5879 39.3501L45.9754 33.4251L45.0004 33.4501L47.3129 29.2251L47.4629 34.1001V34.0876ZM50.8379 35.7626L50.3004 34.8876L46.0004 39.9751L45.5379 39.4501L49.8254 34.4501L48.9504 33.9751L52.8754 31.3876L50.8379 35.7626Z" fill="#0081C6" stroke="#010002" stroke-width="0.15" stroke-miterlimit="10"/>
<path d="M49.9742 32.9248L49.2617 32.1998L45.4117 39.5998L44.8242 39.2498L48.6992 31.8748L47.7492 31.6248L51.0117 28.1748L49.9742 32.9248ZM44.4617 41.8623L44.1742 43.0373L44.9617 43.8248L43.8367 48.5248L42.8492 47.1998L41.3867 47.8873L42.5117 43.1748L43.5367 42.8873L43.7992 41.7123C43.7992 41.7123 44.1117 41.5873 44.4617 41.8623Z" fill="#0081C6" stroke="#010002" stroke-width="0.15" stroke-miterlimit="10"/>
<path d="M44.7254 41.0752L44.1629 42.1377L44.7254 43.1127L42.4879 47.3627L41.8629 45.8002L40.2754 46.0627L42.5129 41.8127H43.5754L44.1254 40.7627C44.1254 40.7627 44.5254 40.7627 44.7254 41.0752Z" fill="#0081C6" stroke="#010002" stroke-width="0.15" stroke-miterlimit="10"/>
<path d="M44.825 41.3875L43.3125 43.3125L43.6625 44.3875L40.575 48L40.2875 46.3375L38.6875 46.2125L41.775 42.6L42.8125 42.85L44.4125 40.825C44.4125 40.825 44.85 41.0375 44.825 41.3875ZM6.55 36.8875C6.9125 36.7375 7.175 36.6 7.175 36.2125C7.175 36.125 7.125 35.925 7.0125 35.6125L4.6 28.225C4.518 27.9519 4.41778 27.6847 4.3 27.425C4.1875 27.2125 3.975 27.125 3.6875 27.0125H6.7625C6.425 27.1625 6.125 27.2875 6.1375 27.6375C6.1375 27.7875 6.1625 27.975 6.2375 28.225L8.1 34L9.95 28.2125C10.025 27.9625 10.075 27.775 10.075 27.6375C10.0625 27.2625 9.7375 27.1375 9.425 27H12.4125C12.1375 27.1125 11.9125 27.1875 11.8 27.4125C11.75 27.5125 11.6375 27.7625 11.5 28.2125L9.0875 35.5875C9.01546 35.7908 8.96109 35.9999 8.925 36.2125C8.925 36.2125 8.8125 36.675 9.55 36.875L6.55 36.8875ZM58.075 36.1375V27.7625C58.0793 27.6494 58.0534 27.5373 58 27.4375C57.9625 27.35 57.75 27.1375 57.45 27.0125H60.225C60.0039 27.0907 59.812 27.2346 59.675 27.425C59.6206 27.5289 59.5947 27.6453 59.6 27.7625V36.1375C59.6 36.275 59.625 36.3875 59.675 36.475C59.725 36.55 59.925 36.75 60.225 36.8875H57.45C57.75 36.7625 57.95 36.55 58 36.475C58.05 36.3875 58.075 36.275 58.075 36.125V36.1375Z" fill="#0081C6" stroke="#010002" stroke-width="0.15" stroke-miterlimit="10"/>
<path d="M32.4883 38.9751C32.4883 38.9751 39.8883 35.6876 39.9133 28.1001H25.0508C25.0758 35.6876 32.4883 38.9751 32.4883 38.9751Z" fill="white" stroke="#010002" stroke-width="0.15"/>
<path d="M26.1992 28.1001V32.9501C26.1992 32.9501 26.7617 34.0751 27.3367 34.7876V28.1001H26.1992ZM28.4867 28.1001V36.1001C28.4867 36.1001 29.1992 36.8001 29.6242 37.1376V28.1001H28.4867ZM30.7617 28.1001V37.9751C30.7617 37.9751 31.5867 38.5126 31.9117 38.6876V28.1001H30.7617ZM38.7617 28.1001V32.9501C38.7617 32.9501 38.1992 34.0751 37.6242 34.7876V28.1001H38.7617ZM36.4742 28.1001V36.1001C36.4742 36.1001 35.7617 36.8001 35.3492 37.1376V28.1001H36.4742ZM34.1992 28.1001V37.9751C34.1992 37.9751 33.3742 38.5126 33.0492 38.6876V28.1001H34.1992Z" fill="#A60032" stroke="#010002" stroke-width="0.15"/>
<path d="M39.9133 22.5748C39.9133 22.5748 36.2758 24.4748 32.4883 22.4248C28.6883 24.4748 25.0508 22.5748 25.0508 22.5748V28.0998H39.9133V22.5748Z" fill="#162667" stroke="#010002" stroke-width="0.15" stroke-miterlimit="10"/>
</g>
<defs>
<clipPath id="clip0_11297_21617">
<rect width="64" height="64" rx="32" fill="white"/>
</clipPath>
</defs>
</svg>
