<svg width="64" height="64" viewBox="0 0 64 64" fill="none" xmlns="http://www.w3.org/2000/svg">
<g clip-path="url(#clip0_10790_14591)">
<path d="M0 0H64V32H0V0Z" fill="#000001"/>
<path d="M0 32H64V64H0V32Z" fill="#007A3D"/>
<path d="M0 18.6626H64V45.3251H0V18.6626Z" fill="white"/>
<path d="M0 0L32 32L0 64V0Z" fill="#C4111B"/>
<path d="M48.7504 40.7541C53.5852 40.7541 57.5046 36.8347 57.5046 31.9999C57.5046 27.165 53.5852 23.2456 48.7504 23.2456C43.9155 23.2456 39.9961 27.165 39.9961 31.9999C39.9961 36.8347 43.9155 40.7541 48.7504 40.7541Z" fill="#C4111B"/>
<path d="M52.0316 40.7541C56.8665 40.7541 60.7859 36.8347 60.7859 31.9999C60.7859 27.165 56.8665 23.2456 52.0316 23.2456C47.1968 23.2456 43.2773 27.165 43.2773 31.9999C43.2773 36.8347 47.1968 40.7541 52.0316 40.7541Z" fill="white"/>
<path d="M46.4043 37.2934L50.1213 34.6274L53.8384 37.3447L52.4541 32.9612L56.1711 30.2695L51.5825 30.2439L50.1726 25.886L48.7242 30.2311L44.1484 30.2183L47.827 32.9355L46.4043 37.2934Z" fill="#C4111B"/>
</g>
<defs>
<clipPath id="clip0_10790_14591">
<rect width="64" height="64" rx="32" fill="white"/>
</clipPath>
</defs>
</svg>
