<svg width="64" height="64" viewBox="0 0 64 64" fill="none" xmlns="http://www.w3.org/2000/svg">
<g clip-path="url(#clip0_10790_14600)">
<mask id="mask0_10790_14600" style="mask-type:luminance" maskUnits="userSpaceOnUse" x="-1" y="0" width="65" height="64">
<path d="M-0.00585938 0H63.9843V63.9902H-0.00585938V0Z" fill="white"/>
</mask>
<g mask="url(#mask0_10790_14600)">
<path fill-rule="evenodd" clip-rule="evenodd" d="M-32 0H63.9853V63.9902H-32V0Z" fill="#198A00"/>
<path fill-rule="evenodd" clip-rule="evenodd" d="M52.7356 22.99H63.9854V63.9902H52.7227L52.7356 22.99Z" fill="#EF7D00"/>
<path fill-rule="evenodd" clip-rule="evenodd" d="M41.4863 22.9641H52.7362V63.9901H41.4863V22.9641Z" fill="#000001"/>
<path fill-rule="evenodd" clip-rule="evenodd" d="M29.9902 23.0029H41.4723V63.9902H29.9902V23.0029Z" fill="#DE2010"/>
<path fill-rule="evenodd" clip-rule="evenodd" d="M56.4509 8.19227C56.4509 8.19227 60.6954 6.3861 61.0953 6.01196C61.2889 6.23128 59.4053 8.51481 55.7413 9.36629C59.0698 8.56641 61.9081 6.10227 62.4758 6.17968C62.6435 6.21838 62.6048 8.59221 54.993 10.6435C60.2568 9.26308 63.3273 6.72153 63.2885 7.00536C63.3273 7.05696 62.7725 9.00505 58.1539 10.5145C59.444 10.2178 62.9273 8.08906 62.8886 8.5019C63.0047 8.66962 59.5085 13.1464 53.1998 11.6885C58.2313 13.0044 61.5082 9.84363 61.9726 9.89524C62.0758 9.92104 61.0437 12.6561 54.6963 12.8238C57.741 12.5142 56.8637 12.8109 56.8637 12.8109C56.8637 12.8109 55.0576 14.2172 52.903 13.2625C54.606 13.7269 54.7866 13.7398 54.8253 13.8946C54.7092 14.0752 53.3159 14.3591 51.9613 13.6366C53.045 14.0752 54.0255 14.1527 54.0384 14.3204C53.8478 14.4556 53.6268 14.5416 53.395 14.5709C53.1632 14.6001 52.9277 14.5717 52.7095 14.4881C52.1032 14.2172 46.4137 10.7209 46.4137 10.7209L56.0897 8.06326L56.4509 8.19227ZM45.072 17.6489C44.9652 17.6363 44.8569 17.6461 44.754 17.6777C44.6512 17.7093 44.5561 17.762 44.4748 17.8324C44.3934 17.9028 44.3277 17.9894 44.2817 18.0866C44.2357 18.1839 44.2105 18.2896 44.2076 18.3972C44.2076 18.3972 44.1302 18.4617 44.1818 18.8229C44.2405 18.7092 44.3096 18.6013 44.3882 18.5004C44.4785 18.5004 44.8785 18.6294 45.4848 18.152C44.9301 18.7326 45.2655 18.9519 45.2655 18.9519C45.2655 18.9519 45.1365 19.4164 45.5622 19.5067C45.4332 19.3132 45.5106 19.1583 45.5106 19.1583C45.5106 19.1583 46.1041 19.0938 46.0654 18.3585C46.0912 19.0164 46.4524 19.1841 46.4524 19.1841C46.4524 19.1841 46.4524 19.5454 46.8395 19.5712C46.633 19.3906 46.6717 19.1067 46.6717 19.1067C46.6717 19.1067 47.1878 18.7326 46.7492 18.1133C47.0072 17.9714 47.2265 17.5586 47.2265 17.5586C47.2265 17.5586 46.8653 17.4038 46.7104 17.2748C46.633 17.1199 46.7104 16.2169 46.7104 16.2169L46.4911 15.0557L45.8848 16.8619C45.9106 16.6039 45.9235 17.636 45.072 17.636V17.6489Z" fill="#EF7D00" stroke="black" stroke-width="0.116111" stroke-linejoin="round"/>
<path fill-rule="evenodd" clip-rule="evenodd" d="M49.2794 15.03C49.2923 15.0558 49.9245 15.7395 50.5179 15.7008C50.7372 15.5202 50.0406 15.1074 50.0406 15.0171C50.2986 15.2364 51.3178 16.1137 51.9758 15.7911C52.2338 15.4299 51.4984 15.4815 50.6985 14.4752C51.2533 14.8493 52.6595 15.675 53.3175 15.3525C53.5884 15.0558 51.8596 14.114 51.2791 13.3915L49.7825 12.6174L47.7441 14.2946L49.2794 15.03Z" fill="#EF7D00" stroke="black" stroke-width="0.116111" stroke-linejoin="round"/>
<path fill-rule="evenodd" clip-rule="evenodd" d="M46.9824 9.35343C46.9824 9.35343 47.6791 8.94059 50.44 9.14701C50.7367 9.18571 52.3235 8.60516 52.8267 8.43744C53.6266 8.29553 56.181 7.72787 56.8777 7.21182C57.3679 7.14731 56.7487 8.11491 56.1294 8.33423C55.4843 8.63096 53.1105 9.45664 52.259 9.34053C53.2782 9.35343 52.7106 10.1791 51.0334 9.77917C51.8333 10.2307 51.5495 10.3081 51.5495 10.3081C51.5495 10.3081 50.1303 10.3855 49.7433 10.063C50.698 10.4242 50.3109 10.5532 50.3109 10.5532C50.3109 10.5532 49.3304 10.6436 48.8918 10.4371C49.5756 10.6436 49.2272 10.7726 49.2272 10.7726C49.2272 10.7726 48.6596 10.8629 48.1951 10.6952C47.7307 10.5274 47.0211 9.35343 46.9824 9.35343Z" fill="#EF7D00" stroke="black" stroke-width="0.116111" stroke-linecap="round" stroke-linejoin="round"/>
<path fill-rule="evenodd" clip-rule="evenodd" d="M48.0911 15.4171L48.1943 17.2491L48.0911 17.391C48.0395 17.4555 46.801 17.1975 46.9687 18.1651C46.9687 18.5521 46.9687 18.6424 47.2268 18.8617C47.1622 18.6037 47.1881 18.4231 47.1881 18.4231C47.1881 18.4231 47.5364 18.6424 47.8847 18.0618C47.6525 18.6295 47.8202 18.8359 47.8718 18.8359C47.9234 18.952 47.7815 19.4165 48.246 19.4036C48.0653 19.2359 48.1556 18.9778 48.1556 18.9778C48.1556 18.9778 48.6459 18.9004 48.4653 18.0102C48.6459 17.8296 48.7233 18.0102 48.7233 18.0102C48.7233 18.0102 48.7749 18.5263 49.2007 18.4231C49.3942 18.5392 49.1748 18.823 49.1748 18.823C49.1748 18.823 49.4845 18.823 49.5748 18.565C49.678 18.307 49.7812 17.8296 49.2652 17.6361C49.2007 17.4426 49.4716 17.4297 49.4716 17.4297C49.4716 17.4297 49.7941 17.5329 49.8973 17.7006C49.9876 17.8683 49.9489 17.2749 49.549 17.2104C49.0458 17.1975 49.02 17.0813 49.02 17.0684L48.891 15.3655L48.0911 15.4171Z" fill="#EF7D00" stroke="black" stroke-width="0.116111" stroke-linejoin="round"/>
<path fill-rule="evenodd" clip-rule="evenodd" d="M49.8332 16.9781C49.8332 16.8878 48.9817 15.7395 49.1881 15.5847C49.4074 15.6363 49.7687 16.1653 50.0525 15.9847C49.9751 15.7783 49.7171 15.8944 49.4074 15.3783C49.1236 14.7849 49.0849 13.8947 48.0528 12.9271C48.7237 13.9592 50.2331 14.5526 50.2976 14.243C50.3621 13.9334 48.9688 12.8239 49.0333 12.54C49.3042 13.1077 50.7105 14.3462 51.7426 14.2559C51.8071 14.0108 50.8911 13.5205 50.6589 13.069C50.0138 12.6303 48.2463 11.108 48.2076 10.7597C47.9023 10.2316 47.4837 9.7778 46.982 9.43084C46.9046 9.35343 46.8917 9.26312 46.8788 9.21152C46.4789 8.28263 47.0078 7.973 47.3174 7.92139C47.5755 7.90849 47.64 7.93429 47.8335 7.85688L47.1755 7.59886C47.4594 7.80528 48.1818 7.62466 48.0141 8.21812C48.3366 8.10201 49.0075 7.31503 47.2529 7.12151C46.6853 6.47645 44.3501 6.08941 43.7696 8.94059C43.8083 8.97929 43.8341 9.018 43.9889 9.13411C43.2406 8.77287 41.2538 8.48905 40.5314 8.38584C38.5962 7.81818 36.5836 6.47645 36.3901 6.63127C36.132 6.76028 37.5512 8.08911 37.4867 8.11491C36.2353 7.39244 35.1129 6.87639 34.055 6.41194C33.3067 6.12812 32.5713 5.48305 32.481 5.61207C32.223 6.17972 33.6808 7.59886 33.9517 7.76658C34.2098 7.92139 36.3643 8.92769 36.3256 8.92769C33.1003 7.46985 32.5584 7.19892 32.4036 7.0312C32.1198 6.9667 31.4231 6.03781 31.2425 6.08941C31.1264 6.19262 31.3328 7.67627 32.8809 8.33423C33.139 8.51485 36.1708 9.62436 36.145 9.70176L32.5197 8.20522C31.8488 7.94719 31.0232 7.0183 30.8683 7.12151C30.7264 7.22472 31.2554 8.21812 31.9262 8.54065C32.2875 8.69547 33.6421 9.36633 34.8806 9.79207C34.958 9.83078 32.6745 8.92769 31.565 8.46324C31.0748 8.20522 30.8296 7.84398 30.7651 7.92139C30.6361 7.9988 30.9457 9.46954 34.4807 10.3081C34.571 10.3468 35.7192 10.0372 35.6676 10.0759C35.0143 10.2382 34.3504 10.3545 33.6808 10.4242C33.6421 10.5274 33.9001 11.0564 35.7321 10.9403C35.9643 10.9403 37.2287 10.4887 37.1254 10.579C37.0738 10.6307 35.3967 11.1725 35.2677 11.1854C35.1645 11.1854 34.571 11.2628 34.5581 11.3144C34.5323 11.4047 34.9838 11.7789 35.9772 11.8305C36.8416 11.8821 38.4801 11.3144 38.4543 11.3531C38.4156 11.3918 36.8674 11.9208 36.8158 11.9466C36.7642 11.9853 36.1966 12.0111 36.1708 12.0627C36.1321 12.1659 36.9964 12.9787 39.5638 12.1143C39.3058 12.4626 38.0672 12.6949 38.0672 12.7594C38.0672 12.811 38.3382 13.0819 38.7768 13.1722C38.9961 13.2238 39.2929 13.2109 39.5509 13.1722C40.1881 13.0469 40.7727 12.7321 41.228 12.2691C41.2925 12.4626 39.5896 13.3399 39.667 13.4173C40.0411 13.7657 41.2667 13.3657 41.3442 13.327C42.1755 12.8876 42.9732 12.3874 43.7309 11.8305C43.7696 12.024 40.7636 13.6624 40.8023 13.727C40.9958 14.0237 42.0279 13.7012 42.0666 13.6753L43.4084 12.9529C43.4471 12.9271 41.9376 13.8431 42.0666 13.985C42.0021 14.5655 44.4276 13.5721 44.6211 13.4431C44.7114 13.3786 43.46 13.9979 43.46 14.2946C43.847 14.9784 45.1629 14.7591 45.3564 14.6042C45.4597 14.5397 45.2274 15.1203 45.3048 15.0687C45.4607 14.9088 45.5912 14.7261 45.6919 14.5268C45.6661 14.7203 45.5113 15.0171 45.4339 15.3654C45.3564 15.7137 45.3306 16.1137 45.2145 16.5265C45.1887 16.7071 46.0144 16.1653 45.8983 14.8752C45.9628 15.546 45.6403 16.8104 45.7177 16.862C45.8983 16.991 46.3627 16.2427 46.4273 15.7266C46.5563 15.9847 46.8659 16.5265 47.1239 16.6555C47.0981 16.2685 47.1239 16.2685 47.0078 15.8944C47.0723 15.3783 47.0852 14.6816 47.0981 13.8818C47.8077 15.2235 48.0786 15.7912 47.8851 16.8233C48.0915 16.9136 48.4269 16.1008 48.4011 15.6879C48.6592 16.8491 49.8203 17.0168 49.8461 16.9781H49.8332Z" fill="#EF7D00" stroke="black" stroke-width="0.129012" stroke-linecap="round" stroke-linejoin="round"/>
<path fill-rule="evenodd" clip-rule="evenodd" d="M38.1704 8.46313C38.1704 8.46313 37.6931 8.82437 37.0996 8.79857C37.2415 9.39202 38.48 8.94048 38.48 8.94048C38.48 8.94048 37.8866 9.59845 37.4479 9.71456C37.706 9.90808 38.7768 9.84357 38.9574 9.74036C39.138 9.62425 39.4605 9.22431 39.4605 9.22431C39.4605 9.22431 38.3639 10.4886 38.1962 10.4757C38.1833 10.6176 39.3573 10.566 39.6025 10.3467C39.8476 10.1274 40.4539 9.79196 40.4539 9.79196C40.4539 9.79196 38.8413 10.9144 38.7768 10.9144C39.3702 11.0821 40.5829 10.7338 41.357 10.2564C40.2088 11.0176 40.1056 11.1595 39.5251 11.4175C40.0411 11.5207 40.2991 11.8691 42.0666 11.1079C43.0729 10.6305 43.6405 9.76616 43.6405 9.76616C42.8741 10.6655 41.9574 11.425 40.9313 12.011C40.8797 12.14 42.1053 12.656 43.6792 11.0305" fill="#EF7D00"/>
<path d="M38.1704 8.46313C38.1704 8.46313 37.6931 8.82437 37.0996 8.79857C37.2415 9.39202 38.48 8.94048 38.48 8.94048C38.48 8.94048 37.8866 9.59845 37.4479 9.71456C37.706 9.90808 38.7768 9.84357 38.9574 9.74036C39.138 9.62425 39.4605 9.22431 39.4605 9.22431C39.4605 9.22431 38.3639 10.4886 38.1962 10.4757C38.1833 10.6176 39.3573 10.566 39.6025 10.3467C39.8476 10.1274 40.4539 9.79196 40.4539 9.79196C40.4539 9.79196 38.8413 10.9144 38.7768 10.9144C39.3702 11.0821 40.5829 10.7338 41.357 10.2564C40.2088 11.0176 40.1056 11.1595 39.5251 11.4175C40.0411 11.5207 40.2991 11.8691 42.0666 11.1079C43.0729 10.6305 43.6405 9.76616 43.6405 9.76616C42.8741 10.6655 41.9574 11.425 40.9313 12.011C40.8797 12.14 42.1053 12.656 43.6792 11.0305" stroke="black" stroke-width="0.129012" stroke-linecap="round" stroke-linejoin="round"/>
<path fill-rule="evenodd" clip-rule="evenodd" d="M46.6861 11.9982C46.6861 11.9982 46.7893 12.5014 47.2021 12.8755C47.6278 13.2625 47.6665 13.6367 47.6665 13.6367M46.4667 8.76001C46.4667 8.76001 46.6215 9.21155 47.0473 9.49538C47.5127 9.86828 47.9062 10.323 48.2084 10.8371C48.3416 11.4069 48.4407 11.9842 48.5051 12.5659M43.7704 9.44378C43.7962 9.62439 43.1511 10.4759 44.0413 11.4822C43.2285 12.4756 43.2285 12.6046 43.2285 12.6046C43.2285 12.6046 43.6801 12.8626 44.5057 12.153C45.8475 13.8044 45.4088 14.5656 45.4088 14.5656" fill="#EF7D00"/>
<path d="M46.6861 11.9982C46.6861 11.9982 46.7893 12.5014 47.2021 12.8755C47.6278 13.2625 47.6665 13.6367 47.6665 13.6367M46.4667 8.76001C46.4667 8.76001 46.6215 9.21155 47.0473 9.49538C47.5127 9.86828 47.9062 10.323 48.2084 10.8371C48.3416 11.4069 48.4407 11.9842 48.5051 12.5659M43.7704 9.44378C43.7962 9.62439 43.1511 10.4759 44.0413 11.4822C43.2285 12.4756 43.2285 12.6046 43.2285 12.6046C43.2285 12.6046 43.6801 12.8626 44.5057 12.153C45.8475 13.8044 45.4088 14.5656 45.4088 14.5656" stroke="black" stroke-width="0.129012" stroke-linecap="round"/>
<path fill-rule="evenodd" clip-rule="evenodd" d="M45.2788 13.4045C45.2788 13.4045 45.1626 13.2239 45.382 12.5659C45.5884 12.7981 45.8077 12.8497 45.898 12.953C45.9883 13.0562 47.0204 13.1981 47.0849 13.8689" fill="#EF7D00"/>
<path d="M45.2788 13.4045C45.2788 13.4045 45.1626 13.2239 45.382 12.5659C45.5884 12.7981 45.8077 12.8497 45.898 12.953C45.9883 13.0562 47.0204 13.1981 47.0849 13.8689" stroke="black" stroke-width="0.129012" stroke-linecap="round" stroke-linejoin="round"/>
<path fill-rule="evenodd" clip-rule="evenodd" d="M46.4793 7.18593C46.4793 7.13433 46.2729 6.69569 45.5117 7.23754C45.9246 7.26334 46.3245 7.49556 46.4793 7.18593Z" fill="#EF7D00" stroke="black" stroke-width="0.129012"/>
<path fill-rule="evenodd" clip-rule="evenodd" d="M53.756 9.18579C53.7947 9.21159 56.0395 9.70184 56.7878 9.44382C55.8331 10.721 53.9237 9.85666 53.9237 9.85666C54.8655 10.1405 54.9042 10.1147 55.2009 10.3727C55.2912 10.6307 53.485 10.5146 52.8787 10.1792C54.5558 10.6952 54.5816 10.6694 54.6333 10.863C54.7107 11.1468 51.924 10.7984 51.666 10.4243C52.4142 11.0049 52.8271 11.1081 53.2399 11.379C52.7239 11.5983 51.795 11.8176 50.0791 10.6049C52.3368 12.6691 54.3752 12.5401 54.6978 12.9014C53.9108 14.0625 50.8661 12.2176 49.4599 11.2758C48.0665 10.3469 52.5304 13.5335 52.9432 13.4819C52.7368 13.8044 51.266 13.5206 51.1628 13.3658" fill="#EF7D00"/>
<path d="M53.756 9.18579C53.7947 9.21159 56.0395 9.70184 56.7878 9.44382C55.8331 10.721 53.9237 9.85666 53.9237 9.85666C54.8655 10.1405 54.9042 10.1147 55.2009 10.3727C55.2912 10.6307 53.485 10.5146 52.8787 10.1792C54.5558 10.6952 54.5816 10.6694 54.6333 10.863C54.7107 11.1468 51.924 10.7984 51.666 10.4243C52.4142 11.0049 52.8271 11.1081 53.2399 11.379C52.7239 11.5983 51.795 11.8176 50.0791 10.6049C52.3368 12.6691 54.3752 12.5401 54.6978 12.9014C53.9108 14.0625 50.8661 12.2176 49.4599 11.2758C48.0665 10.3469 52.5304 13.5335 52.9432 13.4819C52.7368 13.8044 51.266 13.5206 51.1628 13.3658" stroke="black" stroke-width="0.129012" stroke-linejoin="round"/>
<path fill-rule="evenodd" clip-rule="evenodd" d="M54.3349 11.3403C54.0769 11.379 53.3028 11.379 53.1738 11.3532L54.3349 11.3403Z" fill="#EF7D00"/>
<path d="M54.3349 11.3403C54.0769 11.379 53.3028 11.379 53.1738 11.3532" stroke="black" stroke-width="0.129012" stroke-linecap="round"/>
<path fill-rule="evenodd" clip-rule="evenodd" d="M37.5117 8.12793C37.5117 8.12793 39.2147 9.03102 39.9372 8.96651C39.7436 9.14713 39.4598 9.22454 39.4598 9.22454C39.6404 9.28904 40.1307 9.55997 40.8789 9.37935C40.7112 9.55997 40.479 9.76639 40.479 9.76639C40.479 9.76639 41.1241 10.0115 41.8465 9.63738C41.7226 9.78615 41.6063 9.94117 41.4982 10.1018L42.0143 10.1405" fill="#EF7D00"/>
<path d="M37.5117 8.12793C37.5117 8.12793 39.2147 9.03102 39.9372 8.96651C39.7436 9.14713 39.4598 9.22454 39.4598 9.22454C39.6404 9.28904 40.1307 9.55997 40.8789 9.37935C40.7112 9.55997 40.479 9.76639 40.479 9.76639C40.479 9.76639 41.1241 10.0115 41.8465 9.63738C41.7226 9.78615 41.6063 9.94117 41.4982 10.1018L42.0143 10.1405" stroke="black" stroke-width="0.129012" stroke-linecap="round" stroke-linejoin="round"/>
</g>
</g>
<defs>
<clipPath id="clip0_10790_14600">
<rect width="64" height="64" rx="32" fill="white"/>
</clipPath>
</defs>
</svg>
