<svg width="64" height="64" viewBox="0 0 64 64" fill="none" xmlns="http://www.w3.org/2000/svg">
<g clip-path="url(#clip0_10790_14622)">
<mask id="mask0_10790_14622" style="mask-type:luminance" maskUnits="userSpaceOnUse" x="0" y="-1" width="65" height="65">
<path d="M0.00976562 -0.00268555H64.0046V63.9938H0.00976562V-0.00268555Z" fill="white"/>
</mask>
<g mask="url(#mask0_10790_14622)">
<path d="M-0.1875 0.0124512H127.377V63.9785H-0.1875V0.0124512Z" fill="#006400"/>
<path d="M-0.1875 9.15039H127.377V54.8404H-0.1875V9.15039Z" fill="#FFD200"/>
<path d="M-0.1875 18.2883H127.377V45.7023H-0.1875V18.2883Z" fill="#D40000"/>
<path d="M-0.1875 27.4265H127.377V36.5645H-0.1875V27.4265Z" fill="#000001"/>
<path d="M-0.1875 0.0124512V63.9785L42.334 31.9955L-0.1875 0.0124512Z" fill="black" stroke="black" stroke-width="3.04162"/>
<path d="M-0.1875 0.0124512V63.9785L42.334 31.9955L-0.1875 0.0124512Z" fill="white"/>
<path d="M15.9853 15.9126L24.4137 41.9102L2.36328 25.8426H29.6226L7.55698 41.9102L15.9853 15.9126Z" fill="#D40000"/>
<path d="M12.3874 38.6509L13.8757 38.3768L16.6244 38.2702L17.6419 38.3616L19.9198 38.7423L20.0868 38.5139V36.869L20.3602 35.4526L20.8158 34.021L21.3169 32.8788L21.9548 31.6908L22.9874 31.9497H23.2608L23.2911 31.7518L21.1043 29.8785L18.8264 28.127L15.531 25.6598L15.2272 25.5836L14.878 22.9945L14.6198 22.2178L14.2705 21.9132L13.6175 21.7L12.8886 21.7304L12.5545 21.9132L11.8559 22.0655L11.4914 22.1264L11.2484 22.4158L11.2181 22.7813L12.2355 22.8117L12.4937 22.9184L12.4633 23.025L11.8863 23.1011L11.6129 23.1925L11.9318 23.4362L12.2659 23.558L12.6911 23.7103L12.7823 24.0149L12.8126 27.9443L12.5848 28.5535L12.5089 29.6957L12.843 31.0664L11.9926 32.0411L11.5066 32.9092L11.4155 33.4423L11.1573 33.9753L11.127 34.3104L11.294 34.6759L11.947 36.8386L12.2811 38.6205L12.3874 38.6509Z" fill="#FFCC00"/>
<path d="M13.1755 21.6389C12.9021 21.6389 12.7806 21.6694 12.5224 21.8065C12.3085 21.9293 12.0698 22.0022 11.8239 22.0197C11.4442 22.0197 11.1405 22.2938 11.1405 22.6441V22.8726L11.6872 22.8573C13.2969 22.903 11.8391 23.0553 11.7176 23.0706C11.3227 23.1467 11.8087 23.4665 12.2795 23.6341C12.7806 23.7864 12.7502 23.695 12.7502 25.9186C12.7502 27.7309 12.7502 27.9898 12.5984 28.4011C12.401 29.0103 12.401 29.9241 12.5984 30.5333C12.6895 30.7769 12.7502 30.9902 12.7502 31.0358C12.7502 31.0663 12.5073 31.3557 12.2187 31.6907C11.6872 32.2999 11.3683 32.9244 11.3683 33.366C11.3493 33.5081 11.2973 33.6438 11.2164 33.762C11.019 34.0209 11.019 34.4626 11.2012 34.6301C11.3987 34.8129 12.2035 37.9503 12.2187 38.5442C12.2187 38.7575 12.2491 38.7575 13.4792 38.5138C14.4815 38.3158 16.8353 38.2701 18.0351 38.4224C18.5818 38.4985 19.2196 38.6204 19.4474 38.6661C20.1763 38.8641 20.1459 38.8945 20.1459 38.0112C20.1515 36.6194 20.4141 35.2407 20.9204 33.9448C21.2106 33.2063 21.5611 32.4932 21.9683 31.8126C21.9683 31.8126 22.2416 31.843 22.5757 31.9344C23.1984 32.0867 23.3806 32.0715 23.3806 31.7821C23.3806 31.6298 22.7276 31.0815 19.5233 28.5838C18.2309 27.5229 16.8986 26.5119 15.5293 25.553C15.4382 25.553 15.3471 25.5074 15.3319 25.4464L15.1041 23.9996C14.9978 23.2533 14.8459 22.5223 14.7852 22.37C14.5726 21.9131 14.1626 21.6846 13.4792 21.6389C13.378 21.6357 13.2767 21.6357 13.1755 21.6389ZM13.1906 21.7912H13.4944C14.4967 21.8522 14.6789 22.1263 14.9522 23.9234C15.026 24.3989 15.0868 24.8763 15.1345 25.3551C15.1345 25.4769 14.9978 25.6292 14.6485 25.8576C14.0738 26.2621 13.5621 26.7496 13.1299 27.3045L12.9325 27.5786L12.8869 26.939V25.1418C12.9325 23.8168 12.8869 23.695 12.4617 23.5427C12.1124 23.4208 11.6568 23.299 11.7783 23.2229C11.9302 23.1315 12.082 23.1924 12.4465 23.0858C12.5984 23.0553 12.5832 23.0706 12.5528 22.9487C12.5224 22.7507 12.3098 22.6441 11.7479 22.6746C11.2924 22.705 11.2468 22.6898 11.2772 22.568C11.3379 22.3243 11.5809 22.172 11.9606 22.1263C12.193 22.0993 12.419 22.0323 12.6287 21.9283C12.7983 21.8261 12.9929 21.7734 13.1906 21.776V21.7912ZM15.4534 25.7206H15.5141C15.7723 25.7663 23.2288 31.6146 23.2288 31.7821C23.2288 31.843 23.168 31.8887 23.0769 31.8887C23.0161 31.8887 21.1179 31.3557 18.8703 30.7008C15.2863 29.6347 14.77 29.4824 14.6181 29.2844C14.5125 29.1505 14.4538 28.9855 14.451 28.8148C14.4483 28.6442 14.5017 28.4773 14.603 28.3401C14.6759 28.2514 14.7278 28.1473 14.7548 28.0355C14.7548 27.8528 14.3752 28.3097 14.2992 28.5686C14.2233 28.8732 14.3752 29.391 14.603 29.5585C14.6941 29.6347 15.3775 29.8631 16.1216 30.0916C17.3972 30.4571 17.4883 30.5028 17.5491 30.716C17.701 31.2186 17.1694 31.8126 16.4101 31.9801C16.1254 32.0485 15.857 32.1727 15.6204 32.3456C14.8325 33.0001 13.9523 33.5338 13.0084 33.9295C12.9477 33.9752 12.8717 34.2189 12.8262 34.4474C12.7351 34.95 12.7047 35.0261 12.5528 35.0261C12.4769 35.0261 12.4617 34.9804 12.5224 34.8129C12.6287 34.5083 12.6136 34.1428 12.5073 34.1428C12.4313 34.1428 12.401 34.2494 12.401 34.4169C12.401 34.5692 12.3554 34.752 12.2947 34.7977C12.2187 34.889 12.2035 34.8281 12.2339 34.4474C12.2643 34.1885 12.2491 33.9905 12.2187 33.9905C12.1428 33.9905 12.0061 34.3712 11.9606 34.7063C11.9302 34.9043 11.9302 34.9043 11.8694 34.6606C11.8239 34.4778 11.8391 34.356 11.9757 34.1275C12.062 33.9621 12.1137 33.7807 12.1276 33.5945C12.1276 33.3965 12.2795 33.1985 12.9932 32.4827C13.4488 32.0106 14.0107 31.4166 14.2081 31.1577C14.5574 30.7312 14.5726 30.7008 14.5574 30.2591C14.5574 30.0154 14.527 29.787 14.4967 29.7565C14.4055 29.6651 14.284 30.1525 14.3448 30.4114C14.3752 30.6551 14.3448 30.7312 13.8436 31.3252C13.4831 31.7392 13.103 32.1356 12.7047 32.5132C12.1124 33.0614 11.8998 33.366 11.8998 33.6402C11.8998 33.7316 11.8391 33.9448 11.7479 34.1428C11.6568 34.3408 11.6265 34.5387 11.6568 34.5844C11.6872 34.6301 11.6568 34.6301 11.6113 34.5844C11.5353 34.5083 11.5353 34.3864 11.5961 34.1275C11.6308 33.9986 11.6412 33.8643 11.6265 33.7316C11.5505 33.5793 11.4442 33.762 11.3987 34.1428C11.3683 34.356 11.3227 34.5235 11.2772 34.4931C11.1709 34.4321 11.2012 34.0362 11.3379 33.8229C11.4138 33.7163 11.4898 33.4726 11.5353 33.2747C11.6416 32.7111 11.8846 32.2542 12.4161 31.645C12.5863 31.4592 12.7484 31.2661 12.9021 31.0663L12.7502 30.5637C12.5466 29.8846 12.536 29.162 12.7199 28.4772C12.9173 27.8985 13.3121 27.3197 13.9348 26.6953C14.5422 26.1013 15.1345 25.7358 15.4534 25.7206ZM17.7313 30.6246C17.7505 30.6232 17.7699 30.6245 17.7883 30.6284C17.8067 30.6324 17.8236 30.6389 17.8379 30.6475C17.8523 30.6562 17.8637 30.6667 17.8715 30.6785C17.8793 30.6903 17.8833 30.7031 17.8832 30.716C17.8739 30.7339 17.8564 30.7495 17.8333 30.7605C17.8102 30.7715 17.7825 30.7774 17.7541 30.7774C17.7257 30.7774 17.6981 30.7715 17.6749 30.7605C17.6518 30.7495 17.6344 30.7339 17.625 30.716C17.6242 30.6949 17.6344 30.6743 17.6538 30.6576C17.6732 30.641 17.7006 30.6293 17.7313 30.6246ZM18.111 30.6703C18.1302 30.6689 18.1496 30.6702 18.168 30.6741C18.1863 30.6781 18.2033 30.6846 18.2176 30.6932C18.232 30.7018 18.2434 30.7124 18.2512 30.7242C18.259 30.736 18.263 30.7488 18.2628 30.7617C18.2535 30.7796 18.2361 30.7952 18.213 30.8061C18.1898 30.8171 18.1621 30.823 18.1338 30.823C18.1054 30.823 18.0777 30.8171 18.0546 30.8061C18.0314 30.7952 18.014 30.7796 18.0047 30.7617C18.0039 30.7406 18.0141 30.72 18.0334 30.7033C18.0528 30.6867 18.0802 30.675 18.111 30.6703ZM18.5058 30.7465C18.525 30.745 18.5444 30.7463 18.5628 30.7503C18.5812 30.7542 18.5981 30.7607 18.6124 30.7694C18.6268 30.778 18.6382 30.7886 18.646 30.8004C18.6538 30.8122 18.6578 30.8249 18.6577 30.8379C18.6484 30.8558 18.6309 30.8713 18.6078 30.8823C18.5847 30.8933 18.557 30.8992 18.5286 30.8992C18.5002 30.8992 18.4726 30.8933 18.4494 30.8823C18.4263 30.8713 18.4089 30.8558 18.3995 30.8379C18.3987 30.8168 18.4089 30.7961 18.4283 30.7795C18.4476 30.7628 18.4751 30.7512 18.5058 30.7465ZM18.8703 30.8226C18.8895 30.8212 18.9089 30.8225 18.9273 30.8264C18.9457 30.8304 18.9626 30.8369 18.9769 30.8455C18.9913 30.8541 19.0027 30.8647 19.0105 30.8765C19.0183 30.8883 19.0223 30.9011 19.0222 30.914C19.0128 30.9319 18.9954 30.9475 18.9723 30.9584C18.9491 30.9694 18.9215 30.9753 18.8931 30.9753C18.8647 30.9753 18.837 30.9694 18.8139 30.9584C18.7908 30.9475 18.7733 30.9319 18.764 30.914C18.7632 30.8929 18.7734 30.8723 18.7927 30.8556C18.8121 30.839 18.8395 30.8273 18.8703 30.8226ZM17.9136 30.914C17.9327 30.9126 17.9522 30.9139 17.9705 30.9178C17.9889 30.9218 18.0058 30.9283 18.0202 30.9369C18.0345 30.9455 18.046 30.9561 18.0538 30.9679C18.0616 30.9797 18.0655 30.9925 18.0654 31.0054C18.0561 31.0233 18.0387 31.0388 18.0155 31.0498C17.9924 31.0608 17.9647 31.0667 17.9363 31.0667C17.908 31.0667 17.8803 31.0608 17.8572 31.0498C17.834 31.0388 17.8166 31.0233 17.8073 31.0054C17.8065 30.9843 17.8166 30.9637 17.836 30.947C17.8554 30.9303 17.8828 30.9187 17.9136 30.914ZM18.278 30.9749C18.2972 30.9735 18.3166 30.9748 18.335 30.9787C18.3534 30.9827 18.3703 30.9892 18.3847 30.9978C18.399 31.0064 18.4105 31.017 18.4182 31.0288C18.426 31.0406 18.43 31.0534 18.4299 31.0663C18.4206 31.0842 18.4031 31.0998 18.38 31.1107C18.3569 31.1217 18.3292 31.1276 18.3008 31.1276C18.2724 31.1276 18.2448 31.1217 18.2216 31.1107C18.1985 31.0998 18.1811 31.0842 18.1717 31.0663C18.1709 31.0452 18.1811 31.0246 18.2005 31.0079C18.2199 30.9913 18.2473 30.9796 18.278 30.9749ZM19.0677 31.0054C19.0869 31.0039 19.1063 31.0052 19.1247 31.0092C19.1431 31.0131 19.16 31.0196 19.1743 31.0283C19.1887 31.0369 19.2001 31.0475 19.2079 31.0593C19.2157 31.0711 19.2197 31.0839 19.2196 31.0968C19.2103 31.1147 19.1928 31.1302 19.1697 31.1412C19.1466 31.1522 19.1189 31.1581 19.0905 31.1581C19.0621 31.1581 19.0344 31.1522 19.0113 31.1412C18.9882 31.1302 18.9707 31.1147 18.9614 31.0968C18.9606 31.0757 18.9708 31.055 18.9902 31.0384C19.0095 31.0217 19.0369 31.0101 19.0677 31.0054ZM18.6577 31.0054C18.6769 31.0039 18.6963 31.0052 18.7147 31.0092C18.733 31.0131 18.75 31.0196 18.7643 31.0283C18.7787 31.0369 18.7901 31.0475 18.7979 31.0593C18.8057 31.0711 18.8097 31.0839 18.8096 31.0968C18.8002 31.1147 18.7828 31.1302 18.7597 31.1412C18.7365 31.1522 18.7088 31.1581 18.6805 31.1581C18.6521 31.1581 18.6244 31.1522 18.6013 31.1412C18.5782 31.1302 18.5607 31.1147 18.5514 31.0968C18.5506 31.0757 18.5608 31.055 18.5801 31.0384C18.5995 31.0217 18.6269 31.0101 18.6577 31.0054ZM19.417 31.0968C19.4322 31.0968 19.9789 31.2186 20.6319 31.4014L21.8316 31.7517L21.6038 32.1629C21.4765 32.383 21.355 32.6065 21.2394 32.833C21.0875 33.1376 21.0571 33.1376 20.3282 32.9701C19.5385 32.7873 18.2932 32.6198 17.0176 32.5132L15.8027 32.4065L16.2583 32.239C16.5334 32.1329 16.8021 32.0109 17.0631 31.8735C17.3669 31.706 17.4883 31.6755 17.9591 31.7212C18.6425 31.7669 19.0981 31.6298 19.2803 31.3557L19.4322 31.0968H19.417ZM18.0806 31.1881C18.0998 31.1867 18.1192 31.188 18.1376 31.192C18.156 31.1959 18.1729 31.2024 18.1872 31.211C18.2016 31.2197 18.213 31.2302 18.2208 31.242C18.2286 31.2538 18.2326 31.2666 18.2325 31.2795C18.2231 31.2974 18.2057 31.313 18.1826 31.324C18.1594 31.335 18.1318 31.3409 18.1034 31.3409C18.075 31.3409 18.0473 31.335 18.0242 31.324C18.0011 31.313 17.9836 31.2974 17.9743 31.2795C17.9735 31.2584 17.9837 31.2378 18.0031 31.2211C18.0224 31.2045 18.0498 31.1928 18.0806 31.1881ZM18.931 31.1881C18.9502 31.1867 18.9696 31.188 18.988 31.192C19.0064 31.1959 19.0233 31.2024 19.0377 31.211C19.052 31.2197 19.0635 31.2302 19.0713 31.242C19.0791 31.2538 19.083 31.2666 19.0829 31.2795C19.0714 31.2944 19.054 31.3069 19.0326 31.3157C19.0111 31.3244 18.9865 31.329 18.9614 31.329C18.9363 31.329 18.9117 31.3244 18.8903 31.3157C18.8688 31.3069 18.8514 31.2944 18.8399 31.2795C18.8391 31.2584 18.8493 31.2378 18.8687 31.2211C18.8881 31.2045 18.9155 31.1928 18.9462 31.1881H18.931ZM17.7161 31.1881C17.7353 31.1867 17.7547 31.188 17.7731 31.192C17.7915 31.1959 17.8084 31.2024 17.8228 31.211C17.8371 31.2197 17.8486 31.2302 17.8564 31.242C17.8642 31.2538 17.8681 31.2666 17.868 31.2795C17.8587 31.2974 17.8412 31.313 17.8181 31.324C17.795 31.335 17.7673 31.3409 17.7389 31.3409C17.7105 31.3409 17.6829 31.335 17.6597 31.324C17.6366 31.313 17.6192 31.2974 17.6098 31.2795C17.6138 31.2611 17.6262 31.2439 17.6452 31.2303C17.6642 31.2167 17.6889 31.2073 17.7161 31.2034V31.1881ZM18.521 31.2186C18.5561 31.2157 18.5916 31.222 18.6199 31.2362C18.6483 31.2504 18.6672 31.2714 18.6729 31.2948C18.6635 31.3127 18.6461 31.3282 18.623 31.3392C18.5998 31.3502 18.5722 31.3561 18.5438 31.3561C18.5154 31.3561 18.4877 31.3502 18.4646 31.3392C18.4415 31.3282 18.424 31.3127 18.4147 31.2948C18.4187 31.2763 18.431 31.2592 18.45 31.2456C18.469 31.2319 18.4938 31.2225 18.521 31.2186ZM17.5187 31.3861C17.5379 31.3847 17.5573 31.386 17.5757 31.3899C17.5941 31.3939 17.611 31.4004 17.6253 31.409C17.6397 31.4177 17.6511 31.4282 17.6589 31.44C17.6667 31.4518 17.6707 31.4646 17.6706 31.4775C17.6613 31.4954 17.6438 31.511 17.6207 31.522C17.5976 31.533 17.5699 31.5389 17.5415 31.5389C17.5131 31.5389 17.4854 31.533 17.4623 31.522C17.4392 31.511 17.4217 31.4954 17.4124 31.4775C17.4116 31.4564 17.4218 31.4358 17.4412 31.4191C17.4605 31.4025 17.4879 31.3908 17.5187 31.3861ZM17.8984 31.3861C17.9196 31.3843 17.9412 31.3859 17.9614 31.3907C17.9816 31.3955 17.9999 31.4034 18.0146 31.4138C18.0294 31.4241 18.0403 31.4367 18.0465 31.4504C18.0527 31.4641 18.054 31.4786 18.0502 31.4927C18.0409 31.5107 18.0235 31.5262 18.0003 31.5372C17.9772 31.5482 17.9495 31.5541 17.9212 31.5541C17.8928 31.5541 17.8651 31.5482 17.842 31.5372C17.8188 31.5262 17.8014 31.5107 17.7921 31.4927C17.7913 31.4716 17.8014 31.451 17.8208 31.4344C17.8402 31.4177 17.8676 31.406 17.8984 31.4014V31.3861ZM18.2932 31.4166C18.3284 31.4137 18.3638 31.42 18.3922 31.4342C18.4205 31.4484 18.4395 31.4694 18.4451 31.4927C18.4358 31.5107 18.4183 31.5262 18.3952 31.5372C18.3721 31.5482 18.3444 31.5541 18.316 31.5541C18.2876 31.5541 18.2599 31.5482 18.2368 31.5372C18.2137 31.5262 18.1962 31.5107 18.1869 31.4927C18.1909 31.4743 18.2033 31.4572 18.2223 31.4435C18.2412 31.4299 18.266 31.4205 18.2932 31.4166ZM18.7184 31.4166C18.7376 31.4152 18.757 31.4165 18.7754 31.4204C18.7938 31.4243 18.8107 31.4309 18.8251 31.4395C18.8394 31.4481 18.8509 31.4587 18.8586 31.4705C18.8664 31.4823 18.8704 31.4951 18.8703 31.508C18.861 31.5259 18.8435 31.5414 18.8204 31.5524C18.7973 31.5634 18.7696 31.5693 18.7412 31.5693C18.7128 31.5693 18.6852 31.5634 18.662 31.5524C18.6389 31.5414 18.6215 31.5259 18.6121 31.508C18.6113 31.4869 18.6215 31.4662 18.6409 31.4496C18.6603 31.4329 18.6877 31.4213 18.7184 31.4166ZM15.6356 32.6502C17.4283 32.6977 19.2127 32.9119 20.966 33.2899C20.9812 33.3051 20.8749 33.6706 20.7078 34.1123L20.4041 35.0261C20.3889 35.1023 20.2826 35.1023 20.0245 35.0718C18.764 34.8738 15.1193 34.889 13.7222 35.1023C12.9173 35.2241 12.811 35.2089 12.8717 35.0413L13.0236 34.5083L13.1147 34.0971L13.9348 33.6706C14.4814 33.3909 15.0001 33.0594 15.4838 32.6807H15.6204L15.6356 32.6502ZM11.5353 34.8129C11.5809 34.8129 11.672 34.8586 11.7783 34.9347C11.9302 35.0261 12.1124 35.1023 12.1883 35.1023C12.5832 35.1023 12.7958 35.6658 13.1299 37.5391L13.2514 38.2092C13.2818 38.3615 13.2514 38.3919 12.9021 38.4681C12.4769 38.5595 12.3706 38.5747 12.3706 38.5138C12.3706 38.3615 11.9454 36.4273 11.7631 35.7419C11.6724 35.44 11.5914 35.1352 11.5202 34.8281C11.5225 34.8268 11.5251 34.8261 11.5277 34.8261C11.5304 34.8261 11.533 34.8268 11.5353 34.8281V34.8129ZM15.8786 35.1175H16.319L16.1671 35.2698C15.909 35.5744 15.7875 35.5896 15.6053 35.3916C15.5412 35.3253 15.4898 35.2479 15.4534 35.1632C15.4534 35.1327 15.6508 35.1023 15.8786 35.1023V35.1175ZM16.805 35.1175H17.625L17.4428 35.3002C17.2302 35.5439 17.215 35.5439 16.9872 35.3002L16.805 35.1023V35.1175ZM18.0502 35.1175H18.2477C18.354 35.1175 18.5514 35.1175 18.6729 35.1479L18.9007 35.1936L18.6881 35.3916C18.5666 35.4982 18.4603 35.5896 18.4451 35.5744L18.2325 35.3307L18.0502 35.1175ZM19.3411 35.1632L19.5233 35.2089C19.6296 35.2393 19.8574 35.2546 20.0245 35.2698H20.3282L20.1004 35.4678C20.0178 35.5448 19.9259 35.6113 19.827 35.6658C19.8118 35.6658 19.6752 35.5439 19.5689 35.4069L19.3411 35.1632ZM14.7548 35.1784H14.7852C14.8004 35.2089 14.7396 35.3307 14.6333 35.4373L14.4815 35.6505L14.2537 35.4678L14.0259 35.2698L14.3904 35.2241L14.7548 35.1784ZM15.1041 35.2089L15.3471 35.4221L15.5901 35.6505L15.1345 35.681L14.6789 35.6962L14.8915 35.4678L15.1041 35.2089ZM17.8376 35.2089C17.8832 35.2089 17.9136 35.2241 17.9591 35.2546C18.0385 35.3295 18.1052 35.417 18.1565 35.5135C18.2173 35.6353 18.2021 35.6658 18.0047 35.6658L17.625 35.5896L17.4428 35.5439L17.6402 35.3459C17.7313 35.2546 17.7921 35.1936 17.8528 35.1936L17.8376 35.2089ZM16.5772 35.2089C16.6531 35.2089 16.729 35.2546 16.8202 35.4069C16.9265 35.5744 16.9265 35.5744 16.5164 35.5744H16.1064L16.319 35.3764C16.4253 35.2698 16.5164 35.2241 16.5772 35.2241V35.2089ZM19.1588 35.2393L19.3411 35.4221C19.5537 35.6201 19.5841 35.7419 19.4322 35.7267L19.007 35.681L18.6729 35.6505L18.9159 35.4525L19.1588 35.2393ZM13.8133 35.3459C13.8436 35.3459 13.9651 35.4221 14.0563 35.5287L14.2385 35.7267L13.8588 35.7876L13.3273 35.8638C13.221 35.8942 13.2514 35.8181 13.4792 35.6201C13.631 35.4678 13.7829 35.3459 13.8133 35.3459ZM13.2514 35.3459H13.3121C13.4336 35.3764 13.4336 35.4069 13.221 35.6201L12.9932 35.8485L12.9173 35.6505C12.8565 35.4982 12.8717 35.4525 13.0084 35.3916C13.0862 35.3626 13.1684 35.3472 13.2514 35.3459ZM20.2371 35.6201C20.2674 35.6201 20.2674 35.6505 20.2371 35.7115C20.2067 35.8333 20.07 35.8638 20.07 35.7419C20.07 35.7115 20.1156 35.6658 20.1763 35.6353L20.2371 35.6201ZM16.9872 35.8638C18.1565 35.8638 19.3411 35.8942 19.6296 35.9247C20.1004 35.9856 20.1459 36.0008 20.1459 36.1836C20.1459 36.3968 20.0852 36.412 19.4474 36.3054C19.2651 36.2597 18.4906 36.1988 17.7465 36.1379C16.3023 36.0503 14.853 36.1013 13.4184 36.2902C13.1299 36.3207 13.054 36.2902 13.054 36.1988C13.054 36.0008 14.603 35.8638 16.9872 35.8638ZM15.423 36.3054H16.2431L16.0608 36.5034C15.833 36.7471 15.8179 36.7471 15.6053 36.5034L15.423 36.3054ZM16.4861 36.3054L16.6987 36.5186L16.9113 36.7623L16.4709 36.7776H16.0305L16.2583 36.5339L16.4861 36.3054ZM16.805 36.3054H17.625L17.4428 36.5034C17.2302 36.7471 17.215 36.7471 16.9872 36.5034L16.805 36.3054ZM14.8611 36.3054C14.8915 36.3054 14.8611 36.3816 14.7548 36.5339C14.6485 36.6709 14.5422 36.7776 14.527 36.7776C14.4967 36.7776 14.3904 36.6862 14.2992 36.5796L14.117 36.3816H14.3904C14.5293 36.3823 14.6676 36.3617 14.8004 36.3207C14.8204 36.3165 14.8411 36.3165 14.8611 36.3207V36.3054ZM15.1649 36.3816L15.3623 36.5643L15.5901 36.7623L15.1952 36.7928L14.7548 36.8232L14.9674 36.5948L15.1649 36.3816ZM17.8073 36.3816L18.0199 36.6253C18.2628 36.8842 18.2477 36.8994 17.701 36.7928L17.4428 36.7471L17.625 36.5643L17.8073 36.3816ZM18.111 36.3816H18.4755C18.8703 36.3816 18.9159 36.4425 18.6881 36.6557C18.5058 36.808 18.5058 36.808 18.2932 36.5796L18.111 36.3816ZM13.464 36.4577C13.6462 36.4577 13.631 36.473 13.4032 36.7014C13.2362 36.8689 13.221 36.8689 13.1603 36.7471C13.1147 36.5948 13.2514 36.473 13.464 36.4577ZM19.3563 36.4882C19.417 36.4882 19.5385 36.4882 19.66 36.5186L20.0093 36.5796L19.8118 36.7623L19.6296 36.9451L19.4626 36.7319L19.3107 36.4882H19.3563ZM13.8892 36.5643C13.9348 36.5643 13.9803 36.5948 14.0563 36.6709C14.2081 36.8232 14.2081 36.8232 14.0866 36.8842C13.9689 36.923 13.846 36.9435 13.7222 36.9451H13.4792L13.6766 36.7319C13.7829 36.6253 13.8285 36.5796 13.874 36.5643H13.8892ZM19.0677 36.61C19.1285 36.61 19.174 36.6405 19.25 36.7623L19.3866 36.9451H19.0677C18.8551 36.9451 18.764 36.9146 18.764 36.8537C18.7944 36.7928 18.8703 36.7014 18.9614 36.6557L19.0677 36.61ZM20.0396 36.808C20.07 36.808 20.07 36.8385 20.07 36.8842C20.07 37.0365 19.9333 37.1431 19.8726 37.0365C19.8574 36.9908 19.8878 36.9146 19.9485 36.8689L20.0396 36.808ZM16.1064 36.9908C17.4276 36.9908 18.8855 37.0822 19.7511 37.2345L19.9941 37.2801V37.9503C19.9941 38.4529 19.9637 38.6204 19.8878 38.6204L19.1285 38.4681C17.3724 38.1695 15.5834 38.1182 13.8133 38.3158L13.464 38.3615L13.3729 37.798C13.3351 37.6073 13.3148 37.4136 13.3121 37.2192C13.3121 37.2192 13.6614 37.1431 14.0714 37.0974C14.5726 37.0212 15.3167 36.9908 16.1064 36.9908Z" fill="black"/>
<path d="M18.7647 33.1833C18.3091 33.1833 17.9902 33.5032 17.9902 33.9753C17.9902 34.7063 18.8103 35.0719 19.2963 34.554C19.7822 34.0362 19.4481 33.1833 18.7647 33.1833ZM18.7647 33.3661C18.9258 33.3661 19.0803 33.4303 19.1943 33.5445C19.3082 33.6588 19.3722 33.8137 19.3722 33.9753C19.3722 34.4322 18.871 34.7368 18.461 34.5388C18.051 34.3104 18.0814 33.6098 18.5218 33.427C18.5934 33.393 18.6706 33.3724 18.7495 33.3661H18.7647Z" fill="black"/>
<path d="M15.712 33.092C15.2564 33.092 14.9375 33.4119 14.9375 33.884C14.9375 34.615 15.7576 34.9806 16.2435 34.4627C16.7295 33.9449 16.3954 33.092 15.712 33.092ZM15.712 33.2748C15.8731 33.2748 16.0276 33.339 16.1415 33.4532C16.2555 33.5675 16.3194 33.7224 16.3194 33.884C16.3194 34.3409 15.8183 34.6455 15.4083 34.4475C14.9982 34.2191 15.0286 33.5185 15.469 33.3357C15.5406 33.3017 15.6178 33.2811 15.6968 33.2748H15.712Z" fill="black"/>
<path d="M13.1766 22.1416C13.1132 22.1455 13.0533 22.174 13.0085 22.2218C12.9637 22.2695 12.937 22.3332 12.9336 22.4005C12.9336 22.4753 12.9616 22.5471 13.0114 22.6C13.0613 22.653 13.1289 22.6827 13.1994 22.6827C13.2698 22.6827 13.3374 22.653 13.3873 22.6C13.4371 22.5471 13.4651 22.4753 13.4651 22.4005C13.4634 22.3629 13.4544 22.3261 13.4387 22.2924C13.423 22.2586 13.4009 22.2287 13.3739 22.2044C13.3468 22.1801 13.3153 22.162 13.2814 22.1512C13.2474 22.1404 13.2118 22.1371 13.1766 22.1416ZM13.1918 22.233C13.2401 22.233 13.2864 22.2506 13.3206 22.282C13.3548 22.3135 13.374 22.3561 13.374 22.4005C13.374 22.4449 13.3548 22.4875 13.3206 22.519C13.2864 22.5504 13.2401 22.568 13.1918 22.568C13.1434 22.568 13.0971 22.5504 13.0629 22.519C13.0287 22.4875 13.0095 22.4449 13.0095 22.4005C13.0095 22.3785 13.0142 22.3567 13.0234 22.3364C13.0326 22.3161 13.046 22.2976 13.0629 22.282C13.0798 22.2665 13.0999 22.2541 13.122 22.2457C13.1441 22.2373 13.1678 22.233 13.1918 22.233Z" fill="black"/>
</g>
</g>
<defs>
<clipPath id="clip0_10790_14622">
<rect width="64" height="64" rx="32" fill="white"/>
</clipPath>
</defs>
</svg>
