<svg width="13" height="14" viewBox="0 0 13 14" fill="none" xmlns="http://www.w3.org/2000/svg">
<path d="M1.3 2.45039H3.25L4.55 1.15039H8.45L9.75 2.45039H11.7C12.4178 2.45039 13 3.03255 13 3.75039V11.5504C13 12.2682 12.4178 12.8504 11.7 12.8504H1.3C0.582156 12.8504 0 12.2682 0 11.5504V3.75039C0 3.03255 0.582156 2.45039 1.3 2.45039ZM6.5 4.40039C4.70519 4.40039 3.25 5.85558 3.25 7.65039C3.25 9.4452 4.70519 10.9004 6.5 10.9004C8.29481 10.9004 9.75 9.4452 9.75 7.65039C9.75 5.85558 8.29481 4.40039 6.5 4.40039ZM6.5 5.70039C7.57697 5.70039 8.45 6.57342 8.45 7.65039C8.45 8.72736 7.57697 9.60039 6.5 9.60039C5.42303 9.60039 4.55 8.72736 4.55 7.65039C4.55 6.57342 5.42303 5.70039 6.5 5.70039Z" fill="#0E73A9"/>
</svg>
