<svg width="794" height="228" viewBox="0 0 794 228" fill="none" xmlns="http://www.w3.org/2000/svg">
<path d="M0 0H786C790.418 0 794 3.58172 794 8V220C794 224.418 790.418 228 786 228H0V0Z" fill="url(#paint0_linear_10373_7908)"/>
<path d="M652.648 199.453H635.227V199.584H652.648V199.453Z" fill="#EBEBEB"/>
<path d="M590.221 200.883H585.65V201.015H590.221V200.883Z" fill="#EBEBEB"/>
<path d="M634.699 194.571H624.605V194.703H634.699V194.571Z" fill="#EBEBEB"/>
<path d="M466.312 195.455H443.594V195.587H466.312V195.455Z" fill="#EBEBEB"/>
<path d="M474.328 195.455H470.998V195.587H474.328V195.455Z" fill="#EBEBEB"/>
<path d="M534.428 197.675H485.152V197.806H534.428V197.675Z" fill="#EBEBEB"/>
<path d="M540.661 167.531H439.101C438.305 167.531 437.541 167.215 436.977 166.652C436.414 166.088 436.098 165.324 436.098 164.528V21.7627C436.105 20.9707 436.424 20.2135 436.987 19.656C437.549 19.0984 438.309 18.7856 439.101 18.7856H540.661C541.458 18.7856 542.222 19.1021 542.785 19.6653C543.348 20.2285 543.665 20.9924 543.665 21.789V164.528C543.665 165.324 543.348 166.088 542.785 166.652C542.222 167.215 541.458 167.531 540.661 167.531ZM439.101 18.8908C438.34 18.8922 437.61 19.1952 437.072 19.7335C436.534 20.2718 436.231 21.0014 436.229 21.7627V164.528C436.231 165.289 436.534 166.019 437.072 166.557C437.61 167.095 438.34 167.398 439.101 167.4H540.661C541.422 167.398 542.152 167.095 542.69 166.557C543.229 166.019 543.532 165.289 543.533 164.528V21.7627C543.532 21.0014 543.229 20.2718 542.69 19.7335C542.152 19.1952 541.422 18.8922 540.661 18.8908H439.101Z" fill="white"/>
<path d="M654.441 167.531H552.871C552.075 167.53 551.311 167.213 550.748 166.65C550.185 166.087 549.869 165.324 549.867 164.528V21.7627C549.875 20.9711 550.195 20.2148 550.758 19.6575C551.32 19.1002 552.079 18.787 552.871 18.7856H654.441C655.231 18.7884 655.989 19.1024 656.549 19.6597C657.109 20.2169 657.427 20.9725 657.434 21.7627V164.528C657.434 165.323 657.119 166.085 656.558 166.648C655.997 167.211 655.236 167.528 654.441 167.531ZM552.871 18.8908C552.109 18.8922 551.38 19.1952 550.841 19.7335C550.303 20.2718 550 21.0014 549.999 21.7627V164.528C550 165.289 550.303 166.019 550.841 166.557C551.38 167.095 552.109 167.398 552.871 167.4H654.441C655.203 167.398 655.932 167.095 656.47 166.557C657.009 166.019 657.312 165.289 657.313 164.528V21.7627C657.312 21.0014 657.009 20.2718 656.47 19.7335C655.932 19.1952 655.203 18.8922 654.441 18.8908H552.871Z" fill="white"/>
<path d="M679 190.99H416V191.121H679V190.99Z" fill="#EBEBEB"/>
<path d="M470.299 104.015V101.122H462.982L447.881 93.127V101.122H446.145V104.015H444.299V190.963H472.151V104.015H470.299Z" fill="#9FBCFF"/>
<path d="M457.302 107.833H452.646V112.488H457.302V107.833Z" fill="#FAFAFA"/>
<path d="M457.302 114.855H452.646V119.51H457.302V114.855Z" fill="#FAFAFA"/>
<path d="M450.8 121.871H446.145V126.526H450.8V121.871Z" fill="#FAFAFA"/>
<path d="M463.798 121.871H459.143V126.526H463.798V121.871Z" fill="#FAFAFA"/>
<path d="M470.3 121.871H465.645V126.526H470.3V121.871Z" fill="#FAFAFA"/>
<path d="M463.798 128.893H459.143V133.548H463.798V128.893Z" fill="#FAFAFA"/>
<path d="M457.302 135.91H452.646V140.565H457.302V135.91Z" fill="#FAFAFA"/>
<path d="M470.3 135.91H465.645V140.565H470.3V135.91Z" fill="#FAFAFA"/>
<path d="M450.8 142.932H446.145V147.587H450.8V142.932Z" fill="#FAFAFA"/>
<path d="M457.302 142.931H452.646V147.586H457.302V142.931Z" fill="#FAFAFA"/>
<path d="M463.798 142.931H459.143V147.586H463.798V142.931Z" fill="#FAFAFA"/>
<path d="M470.3 149.948H465.645V154.603H470.3V149.948Z" fill="#FAFAFA"/>
<path d="M450.8 156.97H446.145V161.625H450.8V156.97Z" fill="#FAFAFA"/>
<path d="M470.3 163.991H465.645V168.646H470.3V163.991Z" fill="#FAFAFA"/>
<path d="M450.836 170.904L446.182 170.837L446.115 175.491L450.77 175.558L450.836 170.904Z" fill="#FAFAFA"/>
<path d="M470.3 178.03H465.645V182.685H470.3V178.03Z" fill="#FAFAFA"/>
<path d="M514.168 138.403H486.316V190.958H514.168V138.403Z" fill="#9FBCFF"/>
<path d="M512.321 142.931H507.666V147.586H512.321V142.931Z" fill="#FAFAFA"/>
<path d="M492.817 149.948H488.162V154.603H492.817V149.948Z" fill="#FAFAFA"/>
<path d="M505.819 149.948H501.164V154.603H505.819V149.948Z" fill="#FAFAFA"/>
<path d="M512.321 149.948H507.666V154.603H512.321V149.948Z" fill="#FAFAFA"/>
<path d="M499.319 156.97H494.664V161.625H499.319V156.97Z" fill="#FAFAFA"/>
<path d="M492.817 163.991H488.162V168.646H492.817V163.991Z" fill="#FAFAFA"/>
<path d="M505.819 163.991H501.164V168.646H505.819V163.991Z" fill="#FAFAFA"/>
<path d="M512.321 163.991H507.666V168.646H512.321V163.991Z" fill="#FAFAFA"/>
<path d="M512.358 171.179L507.703 171.112L507.637 175.767L512.291 175.833L512.358 171.179Z" fill="#FAFAFA"/>
<path d="M499.319 178.03H494.664V182.685H499.319V178.03Z" fill="#FAFAFA"/>
<path d="M505.819 178.03H501.164V182.685H505.819V178.03Z" fill="#FAFAFA"/>
<path d="M583.843 115.502V111.205H575.153V115.502H560.73V190.963H585.947V115.502H583.843Z" fill="#9FBCFF"/>
<path d="M572.599 120.935H568.875V124.659H572.599V120.935Z" fill="#FAFAFA"/>
<path d="M577.802 120.935H574.078V124.659H577.802V120.935Z" fill="#FAFAFA"/>
<path d="M567.398 126.547H563.674V130.271H567.398V126.547Z" fill="#FAFAFA"/>
<path d="M572.599 126.547H568.875V130.271H572.599V126.547Z" fill="#FAFAFA"/>
<path d="M582.999 126.547H579.275V130.271H582.999V126.547Z" fill="#FAFAFA"/>
<path d="M567.398 132.165H563.674V135.888H567.398V132.165Z" fill="#FAFAFA"/>
<path d="M577.802 132.165H574.078V135.888H577.802V132.165Z" fill="#FAFAFA"/>
<path d="M582.999 132.165H579.275V135.888H582.999V132.165Z" fill="#FAFAFA"/>
<path d="M567.398 143.395H563.674V147.118H567.398V143.395Z" fill="#FAFAFA"/>
<path d="M577.802 143.394H574.078V147.118H577.802V143.394Z" fill="#FAFAFA"/>
<path d="M567.398 149.012H563.674V152.736H567.398V149.012Z" fill="#FAFAFA"/>
<path d="M572.599 149.012H568.875V152.736H572.599V149.012Z" fill="#FAFAFA"/>
<path d="M582.999 149.012H579.275V152.736H582.999V149.012Z" fill="#FAFAFA"/>
<path d="M582.999 154.629H579.275V158.353H582.999V154.629Z" fill="#FAFAFA"/>
<path d="M567.398 160.241H563.674V163.965H567.398V160.241Z" fill="#FAFAFA"/>
<path d="M572.599 160.241H568.875V163.965H572.599V160.241Z" fill="#FAFAFA"/>
<path d="M577.833 165.92L574.109 165.867L574.056 169.591L577.78 169.644L577.833 165.92Z" fill="#FAFAFA"/>
<path d="M583.028 165.99L579.305 165.937L579.251 169.66L582.975 169.713L583.028 165.99Z" fill="#FAFAFA"/>
<path d="M567.398 171.476H563.674V175.2H567.398V171.476Z" fill="#FAFAFA"/>
<path d="M647.256 83.4806V69.2793C643.196 69.2807 639.264 70.7007 636.139 73.2938C633.015 75.8869 630.895 79.4902 630.146 83.4806H626.195V190.963H649.481V83.4806H647.256Z" fill="#9FBCFF"/>
<path d="M631.896 89.103H628.172V92.8269H631.896V89.103Z" fill="#FAFAFA"/>
<path d="M631.896 94.7153H628.172V98.4392H631.896V94.7153Z" fill="#FAFAFA"/>
<path d="M642.3 94.7153H638.576V98.4392H642.3V94.7153Z" fill="#FAFAFA"/>
<path d="M647.498 94.7153H643.773V98.4392H647.498V94.7153Z" fill="#FAFAFA"/>
<path d="M637.099 100.333H633.375V104.056H637.099V100.333Z" fill="#FAFAFA"/>
<path d="M647.498 100.333H643.773V104.056H647.498V100.333Z" fill="#FAFAFA"/>
<path d="M631.896 105.95H628.172V109.674H631.896V105.95Z" fill="#FAFAFA"/>
<path d="M642.3 105.95H638.576V109.674H642.3V105.95Z" fill="#FAFAFA"/>
<path d="M642.3 111.562H638.576V115.286H642.3V111.562Z" fill="#FAFAFA"/>
<path d="M647.498 111.562H643.773V115.286H647.498V111.562Z" fill="#FAFAFA"/>
<path d="M637.099 117.18H633.375V120.904H637.099V117.18Z" fill="#FAFAFA"/>
<path d="M647.498 117.18H643.773V120.904H647.498V117.18Z" fill="#FAFAFA"/>
<path d="M637.099 122.797H633.375V126.521H637.099V122.797Z" fill="#FAFAFA"/>
<path d="M642.3 122.797H638.576V126.521H642.3V122.797Z" fill="#FAFAFA"/>
<path d="M642.3 128.409H638.576V132.133H642.3V128.409Z" fill="#FAFAFA"/>
<path d="M647.498 128.409H643.773V132.133H647.498V128.409Z" fill="#FAFAFA"/>
<path d="M637.132 139.627L633.408 139.573L633.355 143.297L637.079 143.35L637.132 139.627Z" fill="#FAFAFA"/>
<path d="M647.528 139.775L643.805 139.722L643.751 143.445L647.475 143.498L647.528 139.775Z" fill="#FAFAFA"/>
<path d="M647.498 145.256H643.773V148.98H647.498V145.256Z" fill="#FAFAFA"/>
<path d="M633.763 190.963H609.062V106.586L633.763 116.622V190.963Z" fill="#9FBCFF"/>
<path d="M620.677 115.317H616.953V119.041H620.677V115.317Z" fill="#FAFAFA"/>
<path d="M615.474 120.935H611.75V124.659H615.474V120.935Z" fill="#FAFAFA"/>
<path d="M615.474 126.547H611.75V130.271H615.474V126.547Z" fill="#FAFAFA"/>
<path d="M620.677 126.547H616.953V130.271H620.677V126.547Z" fill="#FAFAFA"/>
<path d="M625.878 126.547H622.154V130.271H625.878V126.547Z" fill="#FAFAFA"/>
<path d="M615.474 137.782H611.75V141.506H615.474V137.782Z" fill="#FAFAFA"/>
<path d="M625.878 137.782H622.154V141.506H625.878V137.782Z" fill="#FAFAFA"/>
<path d="M620.677 143.395H616.953V147.118H620.677V143.395Z" fill="#FAFAFA"/>
<path d="M615.474 149.012H611.75V152.736H615.474V149.012Z" fill="#FAFAFA"/>
<path d="M625.878 149.012H622.154V152.736H625.878V149.012Z" fill="#FAFAFA"/>
<path d="M631.081 149.012H627.357V152.736H631.081V149.012Z" fill="#FAFAFA"/>
<path d="M620.677 154.629H616.953V158.353H620.677V154.629Z" fill="#FAFAFA"/>
<path d="M615.474 160.241H611.75V163.965H615.474V160.241Z" fill="#FAFAFA"/>
<path d="M620.677 160.241H616.953V163.965H620.677V160.241Z" fill="#FAFAFA"/>
<path d="M631.081 160.241H627.357V163.965H631.081V160.241Z" fill="#FAFAFA"/>
<path d="M615.505 165.771L611.781 165.717L611.728 169.441L615.452 169.494L615.505 165.771Z" fill="#FAFAFA"/>
<path d="M625.911 165.914L622.188 165.861L622.134 169.584L625.858 169.638L625.911 165.914Z" fill="#FAFAFA"/>
<path d="M631.107 165.989L627.383 165.936L627.33 169.659L631.053 169.712L631.107 165.989Z" fill="#FAFAFA"/>
<path d="M620.677 171.476H616.953V175.2H620.677V171.476Z" fill="#FAFAFA"/>
<path d="M490.89 50.8123C486.45 50.8123 474 52.8636 474 45.3159C474 38.9043 480.086 39.3776 480.086 39.3776C480.086 39.3776 479.912 33.8233 485.346 33.0659C490.906 32.3085 491.747 38.3257 491.747 38.3257C491.747 38.3257 501.399 34.5071 499.927 44.1114C499.927 44.1114 505.276 43.0595 505.276 47.3619C505.26 52.1746 495.193 50.7965 490.89 50.8123Z" fill="white"/>
<path d="M563.481 63.7389C557.311 63.7389 540 66.5897 540 56.1017C540 47.1602 548.458 47.844 548.458 47.844C548.458 47.844 548.216 40.1226 555.754 39.0917C563.481 38.0398 564.648 46.3817 564.648 46.3817C564.648 46.3817 578.061 41.0694 576.02 54.4029C576.02 54.4029 583.458 52.9196 583.458 58.9262C583.458 65.6324 569.461 63.7179 563.481 63.7389Z" fill="white"/>
<path d="M636.179 42.0981C631.661 42.0981 619 44.202 619 36.507C619 29.9849 625.191 30.4688 625.191 30.4688C625.191 30.4688 625.002 24.8198 630.525 24.0677C636.179 23.2945 637.031 29.4011 637.031 29.4011C637.031 29.4011 646.846 25.5141 645.353 35.2657C645.353 35.2657 650.797 34.1822 650.797 38.5741C650.776 43.4604 640.555 42.0823 636.179 42.0981Z" fill="white"/>
<path d="M544.965 212.718C601.29 212.718 646.951 210.052 646.951 206.764C646.951 203.475 601.29 200.81 544.965 200.81C488.639 200.81 442.979 203.475 442.979 206.764C442.979 210.052 488.639 212.718 544.965 212.718Z" fill="#9FBCFF"/>
<path d="M589.117 80.2381C589.117 80.2381 586.217 76.3841 592.078 74.4468C597.94 72.5095 600.558 73.3756 600.558 73.3756C600.558 73.3756 598.314 73.7908 597.627 74.2366C596.941 74.6825 602.182 73.1143 604.365 76.7069C604.365 76.7069 603.243 75.9946 602.244 76.3072C601.245 76.6198 604.903 77.3886 602.982 81.217C601.06 85.0455 607.419 83.9026 606.112 88.4998C604.806 93.097 598.329 91.2161 595.762 91.6415C593.195 92.0668 587.718 94.4603 588.4 89.289C588.4 89.289 587.887 89.9194 588.02 91.6671C588.02 91.6671 586.13 89.289 588.302 86.2755C587.807 85.3061 587.619 84.2083 587.764 83.1292C587.91 82.0501 588.382 81.0414 589.117 80.2381Z" fill="#263238"/>
<path d="M610.595 137.644C610.595 137.644 615.463 150.001 616.585 156.607C617.707 163.213 620.581 189.31 620.581 189.31L616.339 189.823C616.339 189.823 609.863 173.843 609.601 158.616C609.601 158.616 603.735 145.757 600.988 140.888L610.595 137.644Z" fill="#FFB573"/>
<path d="M620.92 182.115L622.16 191.114C622.183 191.301 622.26 191.478 622.381 191.622C622.501 191.767 622.661 191.873 622.841 191.929C624.018 192.316 625.216 192.637 626.428 192.893C627.82 193.006 629.218 193.044 630.614 193.006C630.842 193.002 631.063 193.079 631.24 193.222C631.417 193.366 631.538 193.566 631.582 193.79C631.64 194.058 631.592 194.339 631.448 194.573C631.304 194.807 631.075 194.976 630.809 195.045L617.83 198.351C617.703 198.385 617.571 198.393 617.441 198.374C617.311 198.356 617.186 198.312 617.073 198.245C616.961 198.177 616.863 198.088 616.785 197.982C616.707 197.876 616.652 197.756 616.621 197.628L613.316 184.303C613.253 184.039 613.293 183.761 613.427 183.525C613.561 183.289 613.78 183.113 614.039 183.032L619.639 181.3C619.777 181.255 619.923 181.241 620.067 181.259C620.211 181.277 620.349 181.327 620.472 181.405C620.594 181.483 620.698 181.587 620.775 181.71C620.853 181.832 620.902 181.971 620.92 182.115Z" fill="#263238"/>
<path d="M605.604 119.296L607.1 124.673C607.1 124.673 609.473 129.664 612.593 140.15L601.864 143.897C601.864 143.897 595.372 136.532 593.876 128.168C592.38 119.804 593.876 119.783 593.876 119.783L605.604 119.296Z" fill="#263238"/>
<path opacity="0.2" d="M605.604 119.296L607.1 124.673C607.1 124.673 609.473 129.664 612.593 140.15L601.864 143.897C601.864 143.897 595.372 136.532 593.876 128.168C592.38 119.804 593.876 119.783 593.876 119.783L605.604 119.296Z" fill="white"/>
<path opacity="0.2" d="M603.331 123.351L601.363 123.914V126.989L599.345 133.36C599.345 133.36 599.068 136.973 599.093 140.197C600.057 141.647 600.907 142.759 601.404 143.349C606.646 135.436 603.331 123.351 603.331 123.351Z" fill="black"/>
<path d="M599.617 140.637C599.617 140.637 599.617 160.625 597.624 163.731C595.631 166.837 581.771 185.323 581.771 185.323L578.656 183.099C578.656 183.099 583.396 168.123 591.133 160.507C591.133 160.507 589.134 147.274 589.134 139.038L599.617 140.637Z" fill="#FFB573"/>
<path d="M586.658 180.623L581.227 187.911C581.112 188.06 581.042 188.238 581.026 188.426C581.009 188.613 581.047 188.801 581.135 188.967C581.699 190.065 582.32 191.132 582.995 192.165C583.907 193.223 584.875 194.233 585.895 195.189C586.058 195.348 586.16 195.558 586.186 195.784C586.211 196.01 586.157 196.238 586.033 196.429C585.884 196.66 585.652 196.825 585.385 196.89C585.118 196.955 584.837 196.915 584.598 196.778L573.044 189.997C572.931 189.932 572.832 189.844 572.753 189.74C572.673 189.635 572.616 189.516 572.583 189.389C572.551 189.262 572.544 189.13 572.563 189C572.583 188.87 572.628 188.746 572.696 188.634L579.715 176.846C579.856 176.614 580.08 176.444 580.341 176.369C580.603 176.295 580.883 176.323 581.124 176.446L586.325 179.158C586.452 179.223 586.563 179.316 586.651 179.429C586.738 179.543 586.8 179.674 586.832 179.813C586.863 179.953 586.864 180.097 586.834 180.237C586.804 180.377 586.744 180.509 586.658 180.623Z" fill="#263238"/>
<path d="M603.109 119.296C603.109 119.296 604.483 134.646 600.988 140.888L600.363 143.887H588.886C586.693 135.903 587.446 127.396 591.007 119.922L603.109 119.296Z" fill="#263238"/>
<path opacity="0.2" d="M603.109 119.296C603.109 119.296 604.483 134.646 600.988 140.888L600.363 143.887H588.886C586.693 135.903 587.446 127.396 591.007 119.922L603.109 119.296Z" fill="white"/>
<path d="M620.834 125.785L622.453 129.095L625.988 131.269C626.324 131.475 626.572 131.798 626.685 132.176C626.752 132.393 626.771 132.623 626.742 132.849C626.714 133.074 626.637 133.291 626.518 133.485C626.399 133.679 626.239 133.846 626.051 133.973C625.863 134.101 625.649 134.187 625.425 134.226L624.21 134.41C623.832 134.478 623.442 134.405 623.114 134.205L621.408 133.18C621.222 133.068 621.061 132.92 620.934 132.743C620.807 132.567 620.717 132.367 620.67 132.155L620.193 129.962L618.072 126.84L620.834 125.785Z" fill="#FFB573"/>
<path d="M602.904 93.4096C602.904 93.4096 606.23 93.2046 609.473 99.0472C612.716 104.89 612.819 109.118 614.597 112.157C616.754 115.857 617.717 115.647 621.96 127.384C621.617 127.842 621.188 128.227 620.695 128.516C620.202 128.806 619.657 128.994 619.09 129.07C619.09 129.07 613.095 120.419 610.221 114.422C607.347 108.426 602.238 97.4481 602.238 97.4481L602.904 93.4096Z" fill="#407BFF"/>
<path opacity="0.2" d="M606.86 107.329C607.235 103.627 606.938 99.8871 605.984 96.29L604.77 97.6584C604.77 97.6584 604.488 99.2728 604.145 101.538C604.934 103.224 605.887 105.264 606.86 107.329Z" fill="black"/>
<path d="M593.088 86.6958C593.667 88.9457 594.348 93.0919 592.842 94.7012C594.717 95.9982 596.753 97.0457 598.898 97.8173C601.306 95.5827 599.923 94.3014 599.923 94.3014C597.361 93.8248 597.31 91.949 597.632 90.1604L593.088 86.6958Z" fill="#FFB573"/>
<path opacity="0.2" d="M594.949 88.126L597.644 90.176C597.559 90.593 597.509 91.0165 597.496 91.4419C596.522 91.3548 595.011 90.5706 594.852 89.5559C594.8 89.0772 594.833 88.5932 594.949 88.126Z" fill="black"/>
<path d="M590.587 83.4769C592.042 86.9415 592.586 88.4431 595.009 89.627C598.652 91.4157 602.587 88.8685 602.182 85.0401C601.829 81.5909 599.508 76.5068 595.552 76.3274C594.678 76.2782 593.805 76.4541 593.018 76.8382C592.231 77.2223 591.555 77.8019 591.056 78.5215C590.556 79.2412 590.249 80.077 590.165 80.949C590.08 81.821 590.22 82.7002 590.572 83.5026L590.587 83.4769Z" fill="#FFB573"/>
<path d="M590.725 86.5727C591.153 87.161 591.796 87.5555 592.514 87.6695C593.467 87.813 593.825 86.9315 593.461 86.0961C593.139 85.3427 592.247 84.3587 591.34 84.5995C591.145 84.6579 590.966 84.7635 590.821 84.907C590.676 85.0505 590.568 85.2275 590.508 85.4224C590.447 85.6173 590.435 85.8241 590.473 86.0247C590.511 86.2253 590.598 86.4135 590.725 86.5727Z" fill="#FFB573"/>
<path d="M598.863 82.2422C599.386 82.8554 599.992 83.3935 600.662 83.8412C600.544 84.0088 600.392 84.1488 600.215 84.2514C600.038 84.3541 599.841 84.417 599.637 84.4357L598.863 82.2422Z" fill="#ED893E"/>
<path d="M594.49 81.6217C594.465 81.6293 594.439 81.6293 594.414 81.6217C594.395 81.6144 594.379 81.6036 594.365 81.5898C594.351 81.576 594.34 81.5596 594.332 81.5415C594.324 81.5234 594.32 81.5039 594.32 81.4843C594.32 81.4646 594.324 81.4451 594.332 81.427C594.435 81.1665 594.599 80.9347 594.81 80.751C595.021 80.5672 595.274 80.437 595.546 80.3712C595.584 80.3666 595.623 80.3767 595.655 80.3995C595.686 80.4223 595.708 80.4562 595.715 80.4942C595.719 80.5131 595.719 80.5325 595.715 80.5513C595.711 80.5701 595.703 80.588 595.692 80.6037C595.681 80.6195 595.667 80.6329 595.651 80.6432C595.634 80.6534 595.616 80.6603 595.597 80.6633C595.374 80.7215 595.169 80.8318 594.997 80.985C594.825 81.1383 594.692 81.3301 594.608 81.5449C594.597 81.5664 594.58 81.5847 594.559 81.5981C594.538 81.6115 594.515 81.6197 594.49 81.6217Z" fill="#263238"/>
<path d="M600.604 79.5256C600.579 79.5331 600.552 79.5331 600.527 79.5256C600.315 79.438 600.085 79.4016 599.856 79.4194C599.627 79.4372 599.406 79.5087 599.21 79.6281C599.195 79.6399 599.177 79.6486 599.158 79.6534C599.14 79.6583 599.12 79.6594 599.101 79.6565C599.082 79.6536 599.063 79.6469 599.047 79.6367C599.031 79.6266 599.016 79.6132 599.005 79.5973C598.983 79.5645 598.974 79.5242 598.981 79.485C598.987 79.4459 599.009 79.4108 599.041 79.3872C599.278 79.2384 599.547 79.1483 599.826 79.1242C600.105 79.1001 600.386 79.1429 600.645 79.2488C600.663 79.2552 600.68 79.2651 600.695 79.2781C600.71 79.2911 600.722 79.3068 600.73 79.3245C600.739 79.3421 600.744 79.3612 600.745 79.3808C600.746 79.4004 600.743 79.42 600.737 79.4385C600.727 79.4649 600.709 79.4881 600.687 79.5052C600.664 79.5224 600.637 79.533 600.609 79.5358L600.604 79.5256Z" fill="#263238"/>
<path d="M596.658 82.4779C596.761 82.7649 596.991 82.9443 597.171 82.8828C597.35 82.8213 597.427 82.5292 597.324 82.2422C597.222 81.9551 596.991 81.7758 596.812 81.8373C596.633 81.8988 596.54 82.1909 596.658 82.4779Z" fill="#263238"/>
<path d="M599.916 81.3399C600.018 81.6269 600.249 81.8062 600.428 81.7396C600.608 81.673 600.684 81.3911 600.587 81.099C600.49 80.8069 600.254 80.6326 600.075 80.6992C599.895 80.7659 599.813 81.0477 599.916 81.3399Z" fill="#263238"/>
<path d="M600 80.7406L600.62 80.2998C600.62 80.2998 600.456 80.9661 600 80.7406Z" fill="#263238"/>
<path d="M596.74 81.8831L597.36 81.4424C597.36 81.4424 597.196 82.1035 596.74 81.8831Z" fill="#263238"/>
<path d="M575.712 102.65L575.963 102.664C576.082 102.671 576.183 102.58 576.19 102.461L577.091 86.1885C577.097 86.0698 577.006 85.9682 576.888 85.9617L576.637 85.9478C576.518 85.9412 576.417 86.0321 576.41 86.1508L575.509 102.424C575.503 102.542 575.594 102.644 575.712 102.65Z" fill="#263238"/>
<path opacity="0.3" d="M575.712 102.65L575.963 102.664C576.082 102.671 576.183 102.58 576.19 102.461L577.091 86.1885C577.097 86.0698 577.006 85.9682 576.888 85.9617L576.637 85.9478C576.518 85.9412 576.417 86.0321 576.41 86.1508L575.509 102.424C575.503 102.542 575.594 102.644 575.712 102.65Z" fill="white"/>
<path d="M569.488 88.9098L576.4 86.5317C575.643 88.2728 575.536 90.2278 576.098 92.0412L569.488 88.9098Z" fill="#407BFF"/>
<path d="M589.841 120.711C589.841 120.711 595.917 121.542 606.647 120.045C605.735 116.317 605.427 112.467 605.734 108.642C606.247 102.235 607.728 93.415 602.906 93.415C597.414 93.415 589.508 93.7482 587.099 95.911C584.691 98.0738 593.212 107.647 589.841 120.711Z" fill="#407BFF"/>
<path d="M592.441 94.0502V92.9688C592.44 92.8439 592.466 92.7203 592.517 92.6063C592.568 92.4923 592.643 92.3907 592.737 92.3084C592.831 92.2261 592.941 92.1651 593.061 92.1296C593.181 92.0941 593.307 92.0849 593.43 92.1027C595.039 92.2268 596.658 92.0848 598.221 91.6824C598.437 91.6384 598.662 91.6765 598.851 91.7892C599.041 91.902 599.181 92.0814 599.246 92.2923L599.584 93.4608C599.584 93.4608 600.337 95.2187 598.18 95.4135C594.414 95.7466 592.441 94.0502 592.441 94.0502Z" fill="#407BFF"/>
<path opacity="0.2" d="M590.731 105.505C590.546 102.758 589.132 99.1089 589.132 99.1089L587.344 100.001C588.707 103.967 591.509 110.307 590.367 118.082C590.367 118.046 590.367 118.015 590.367 117.979C591.294 112.265 593.344 110.681 593.19 109.062C593.118 108.119 590.905 107.632 590.731 105.505Z" fill="black"/>
<path opacity="0.2" d="M599.615 93.6763C599.738 94.1478 599.84 95.2599 598.145 95.4137C596.237 95.6506 594.305 95.2371 592.662 94.24C594.118 95.3809 595.865 96.0911 597.704 96.2901C600.64 96.5463 599.615 93.6763 599.615 93.6763Z" fill="black"/>
<path d="M579.12 105.397L577.537 102.486L578.019 99.283C578.061 99.0077 578.011 98.7263 577.878 98.4818C577.745 98.2374 577.535 98.0435 577.281 97.9299L576.123 97.4174L575.61 96.7614C575.491 96.6183 575.342 96.5032 575.173 96.4242C575.005 96.3452 574.821 96.3042 574.634 96.3042C574.448 96.3042 574.264 96.3452 574.095 96.4242C573.927 96.5032 573.778 96.6183 573.658 96.7614L572.972 97.5609C572.767 97.8027 572.658 98.1106 572.664 98.4271L572.721 100.159C572.73 100.443 572.834 100.716 573.018 100.933L575.231 103.593L576.727 106.755L579.12 105.397Z" fill="#FFB573"/>
<path d="M587.099 95.9106C587.099 95.9106 584.645 96.0798 584.394 102.194C584.143 108.308 584.394 110.681 584.394 110.681C584.394 110.681 582.898 109.559 578.656 103.445L575.658 105.438C575.658 105.438 580.27 118.963 585.906 117.943C591.542 116.924 589.902 103.081 589.902 103.081C589.902 103.081 589.554 97.5097 587.099 95.9106Z" fill="#407BFF"/>
<path d="M599.105 86.8138C599.258 86.824 599.412 86.824 599.566 86.8138C599.589 86.8067 599.609 86.7912 599.621 86.7703C599.633 86.7495 599.637 86.7248 599.632 86.7011C599.628 86.6836 599.618 86.668 599.604 86.6562C599.59 86.6443 599.573 86.6368 599.556 86.6344C599.168 86.6558 598.781 86.5863 598.425 86.4315C598.069 86.2766 597.755 86.0408 597.506 85.7427C597.489 85.7261 597.466 85.7168 597.442 85.7168C597.418 85.7168 597.395 85.7261 597.378 85.7427C597.363 85.7608 597.355 85.7834 597.355 85.8067C597.355 85.83 597.363 85.8526 597.378 85.8708C597.589 86.134 597.851 86.3529 598.147 86.5147C598.444 86.6765 598.769 86.7782 599.105 86.8138Z" fill="#263238"/>
<path d="M595.271 82.2422L592.822 84.1436V84.487L595.425 82.6778L595.271 82.2422Z" fill="#263238"/>
<path opacity="0.2" d="M595.271 82.2422L592.822 84.1436V84.487L595.425 82.6778L595.271 82.2422Z" fill="black"/>
<path d="M590.45 77.9934C590.45 77.9934 595.471 72.3558 600.533 78.2445L598.484 78.7057L595.727 77.4347L597.572 79.1055L595.01 80.2997L593.222 78.7057L594.313 80.2997C593.908 80.4827 593.558 80.7679 593.296 81.1273C593.035 81.4867 592.872 81.908 592.822 82.3497C592.556 83.9743 594.677 89.3352 592.028 89.2788C589.379 89.2224 589.189 83.2517 589.189 83.2517L590.45 77.9934Z" fill="#263238"/>
<path d="M602.578 80.5971C602.312 79.6951 601.553 79.8027 600.652 80.0846C600.133 80.1623 599.666 80.4401 599.35 80.8585L597.977 81.2633C597.485 81.0833 596.943 81.1035 596.466 81.3197C595.569 81.5811 594.867 81.904 595.133 82.8009C595.196 83.0149 595.301 83.2144 595.441 83.3881C595.581 83.5617 595.754 83.7061 595.949 83.8129C596.145 83.9198 596.36 83.987 596.582 84.0108C596.804 84.0345 597.028 84.0144 597.242 83.9514C597.456 83.8885 597.655 83.7841 597.829 83.644C598.002 83.504 598.147 83.3311 598.254 83.1353C598.36 82.9394 598.428 82.7245 598.451 82.5026C598.475 82.2808 598.455 82.0565 598.392 81.8425C598.364 81.7442 598.324 81.6496 598.274 81.5606C598.419 81.4614 598.58 81.3886 598.751 81.3453C598.916 81.2908 599.089 81.2631 599.263 81.2633C599.271 81.3675 599.29 81.4705 599.319 81.5708C599.447 82.0031 599.74 82.3671 600.135 82.5829C600.531 82.7987 600.996 82.8485 601.428 82.7214C601.86 82.5943 602.224 82.3007 602.44 81.9052C602.655 81.5097 602.705 81.0447 602.578 80.6124V80.5971Z" fill="#263238"/>
<path opacity="0.2" d="M602.578 80.5971C602.312 79.6951 601.553 79.8027 600.652 80.0846C600.133 80.1623 599.666 80.4401 599.35 80.8585L597.977 81.2633C597.485 81.0833 596.943 81.1035 596.466 81.3197C595.569 81.5811 594.867 81.904 595.133 82.8009C595.196 83.0149 595.301 83.2144 595.441 83.3881C595.581 83.5617 595.754 83.7061 595.949 83.8129C596.145 83.9198 596.36 83.987 596.582 84.0108C596.804 84.0345 597.028 84.0144 597.242 83.9514C597.456 83.8885 597.655 83.7841 597.829 83.644C598.002 83.504 598.147 83.3311 598.254 83.1353C598.36 82.9394 598.428 82.7245 598.451 82.5026C598.475 82.2808 598.455 82.0565 598.392 81.8425C598.364 81.7442 598.324 81.6496 598.274 81.5606C598.419 81.4614 598.58 81.3886 598.751 81.3453C598.916 81.2908 599.089 81.2631 599.263 81.2633C599.271 81.3675 599.29 81.4705 599.319 81.5708C599.447 82.0031 599.74 82.3671 600.135 82.5829C600.531 82.7987 600.996 82.8485 601.428 82.7214C601.86 82.5943 602.224 82.3007 602.44 81.9052C602.655 81.5097 602.705 81.0447 602.578 80.6124V80.5971Z" fill="black"/>
<path d="M626.69 181.638C626.69 181.638 630.481 187.317 627.171 190.925L629.923 197.034C630.136 197.009 630.352 197.028 630.558 197.089C630.764 197.151 630.955 197.253 631.12 197.391C631.284 197.529 631.42 197.698 631.517 197.89C631.614 198.081 631.671 198.29 631.685 198.505L630.148 198.582C630.148 198.582 628.652 198.582 627.499 196.834C626.346 195.086 624.451 192.319 624.558 190.751C624.666 189.182 624.194 187.378 621.673 184.549C619.153 181.72 625.342 180.167 626.69 181.638Z" fill="#407BFF"/>
<path d="M626.69 181.638C626.69 181.638 630.481 187.317 627.171 190.925L629.923 197.034C630.136 197.009 630.352 197.028 630.558 197.089C630.764 197.151 630.955 197.253 631.12 197.391C631.284 197.529 631.42 197.698 631.517 197.89C631.614 198.081 631.671 198.29 631.685 198.505L630.148 198.582C630.148 198.582 628.652 198.582 627.499 196.834C626.346 195.086 624.451 192.319 624.558 190.751C624.666 189.182 624.194 187.378 621.673 184.549C619.153 181.72 625.342 180.167 626.69 181.638Z" fill="#A05F41"/>
<path d="M617.994 174.729C616.283 175.592 614.77 176.802 613.552 178.281C611.149 181.356 604.437 183.821 601.378 177.256C601.378 177.256 599.794 182.704 605.287 183.714C605.287 183.714 604.165 184.575 602.187 183.878C602.187 183.878 604.585 186.732 610.247 183.458C609.819 184.193 609.208 184.806 608.474 185.236C608.474 185.236 610.954 185.108 613.085 182.197C614.781 179.875 617.364 176.692 617.364 176.692L617.994 174.729Z" fill="#407BFF"/>
<path d="M617.994 174.729C616.283 175.592 614.77 176.802 613.552 178.281C611.149 181.356 604.437 183.821 601.378 177.256C601.378 177.256 599.794 182.704 605.287 183.714C605.287 183.714 604.165 184.575 602.187 183.878C602.187 183.878 604.585 186.732 610.247 183.458C609.819 184.193 609.208 184.806 608.474 185.236C608.474 185.236 610.954 185.108 613.085 182.197C614.781 179.875 617.364 176.692 617.364 176.692L617.994 174.729Z" fill="#792909"/>
<path d="M643.116 180.285L643.464 187.061L641.732 189.859L638.1 190.423C638.231 189.796 638.557 189.227 639.032 188.798C639.508 188.368 640.107 188.101 640.743 188.034L640.928 187.066L639.391 181.274L643.116 180.285Z" fill="#407BFF"/>
<path d="M643.116 180.285L643.464 187.061L641.732 189.859L638.1 190.423C638.231 189.796 638.557 189.227 639.032 188.798C639.508 188.368 640.107 188.101 640.743 188.034L640.928 187.066L639.391 181.274L643.116 180.285Z" fill="#A05F41"/>
<path d="M616.104 178.312C616.36 176.072 616.959 173.915 623.656 172.91C630.353 171.906 634.155 171.373 636.84 170.071C639.524 168.769 641.538 165.914 644.525 168.841C647.512 171.767 648.409 179.47 643.5 182.391C638.592 185.313 627.509 182.473 623.451 182.935C619.393 183.396 615.612 182.617 616.104 178.312Z" fill="#407BFF"/>
<path opacity="0.6" d="M616.104 178.312C616.36 176.072 616.959 173.915 623.656 172.91C630.353 171.906 634.155 171.373 636.84 170.071C639.524 168.769 641.538 165.914 644.525 168.841C647.512 171.767 648.409 179.47 643.5 182.391C638.592 185.313 627.509 182.473 623.451 182.935C619.393 183.396 615.612 182.617 616.104 178.312Z" fill="#FF8000"/>
<path d="M639.723 168.298C639.723 168.298 643.919 163.311 645.313 161.24C646.706 159.17 651.779 161.84 652.04 163.265C652.301 164.689 650.108 174.54 645.753 180.152C641.398 185.764 639.723 168.298 639.723 168.298Z" fill="#407BFF"/>
<path d="M639.723 168.298C639.723 168.298 643.919 163.311 645.313 161.24C646.706 159.17 651.779 161.84 652.04 163.265C652.301 164.689 650.108 174.54 645.753 180.152C641.398 185.764 639.723 168.298 639.723 168.298Z" fill="#B37E66"/>
<path opacity="0.2" d="M629.042 183.206C623.206 182.356 623.493 180.408 623.493 180.408L622.253 180.049L621.444 181.243L621.377 183.047C622.062 183.05 622.746 183.012 623.426 182.935C624.723 182.786 626.741 182.976 629.063 183.206H629.042Z" fill="black"/>
<path d="M623.595 179.798C623.595 179.798 622.437 187.609 619.424 189.7C617.687 190.904 617.221 193.882 617.021 196.132C616.878 197.792 618.046 198.582 615.904 198.945C615.904 198.945 615.464 194.102 614.659 191.581C614.567 191.296 614.551 190.993 614.613 190.701C614.675 190.408 614.813 190.137 615.013 189.915C615.899 188.926 617.252 187.106 616.955 185.456C616.514 183.042 615.474 181.407 616.104 178.312C616.734 175.216 623.185 177.943 623.595 179.798Z" fill="#407BFF"/>
<path d="M623.595 179.798C623.595 179.798 622.437 187.609 619.424 189.7C617.687 190.904 617.221 193.882 617.021 196.132C616.878 197.792 618.046 198.582 615.904 198.945C615.904 198.945 615.464 194.102 614.659 191.581C614.567 191.296 614.551 190.993 614.613 190.701C614.675 190.408 614.813 190.137 615.013 189.915C615.899 188.926 617.252 187.106 616.955 185.456C616.514 183.042 615.474 181.407 616.104 178.312C616.734 175.216 623.185 177.943 623.595 179.798Z" fill="#B37E66"/>
<path opacity="0.2" d="M643.398 178.117L641.544 177.81L640.872 178.589C640.872 178.589 643.158 182.689 638.787 183.647C640.423 183.58 642.025 183.151 643.475 182.391C643.863 182.162 644.225 181.892 644.556 181.587L643.398 178.117Z" fill="black"/>
<path d="M640.498 178.056C640.498 178.056 644.469 183.965 646.944 184.298C649.419 184.631 653.092 182.919 653.092 182.919C653.092 182.919 654.389 184.626 656.305 183.898L654.573 181.818L651.94 180.828H648.107C648.107 180.828 647.128 175.442 646.883 174.14C646.637 172.838 639.853 177.143 640.498 178.056Z" fill="#407BFF"/>
<path d="M640.498 178.056C640.498 178.056 644.469 183.965 646.944 184.298C649.419 184.631 653.092 182.919 653.092 182.919C653.092 182.919 654.389 184.626 656.305 183.898L654.573 181.818L651.94 180.828H648.107C648.107 180.828 647.128 175.442 646.883 174.14C646.637 172.838 639.853 177.143 640.498 178.056Z" fill="#B37E66"/>
<path opacity="0.2" d="M650.53 166.293L647.067 167.723L645.775 169.261C645.775 169.261 647.702 171.352 650.479 170.599C650.909 169.281 651.253 168.036 651.504 166.955C651.198 166.708 650.872 166.487 650.53 166.293Z" fill="black"/>
<path d="M644.512 161.404C644.512 161.404 646.638 158.98 649.061 158.734C651.485 158.488 652.566 160.113 653.376 160.01C654.185 159.908 656.809 158.76 657.475 159.498C658.141 160.236 658.356 163.172 657.316 163.664C657.316 163.664 657.183 165.919 653.596 166.606C653.596 166.606 651.034 170.24 647.898 170.024C644.763 169.809 641.212 165.202 644.512 161.404Z" fill="#407BFF"/>
<path opacity="0.6" d="M644.512 161.404C644.512 161.404 646.638 158.98 649.061 158.734C651.485 158.488 652.566 160.113 653.376 160.01C654.185 159.908 656.809 158.76 657.475 159.498C658.141 160.236 658.356 163.172 657.316 163.664C657.316 163.664 657.183 165.919 653.596 166.606C653.596 166.606 651.034 170.24 647.898 170.024C644.763 169.809 641.212 165.202 644.512 161.404Z" fill="#FF8000"/>
<path d="M645.218 161.471C645.3 161.417 645.395 161.382 645.493 161.372C645.591 161.361 645.691 161.374 645.783 161.41C645.875 161.445 645.958 161.503 646.024 161.577C646.089 161.65 646.136 161.739 646.161 161.835C646.601 163.649 647.314 167.949 644.547 169.215C641.006 170.835 642.692 164.064 643.645 162.732C644.112 162.245 644.641 161.821 645.218 161.471Z" fill="#407BFF"/>
<path d="M645.218 161.471C645.3 161.417 645.395 161.382 645.493 161.372C645.591 161.361 645.691 161.374 645.783 161.41C645.875 161.445 645.958 161.503 646.024 161.577C646.089 161.65 646.136 161.739 646.161 161.835C646.601 163.649 647.314 167.949 644.547 169.215C641.006 170.835 642.692 164.064 643.645 162.732C644.112 162.245 644.641 161.821 645.218 161.471Z" fill="#792909"/>
<path d="M639.617 168.175C640.301 170.091 641.408 171.83 642.856 173.26C644.303 174.69 646.054 175.776 647.979 176.436C648.097 176.477 648.225 176.473 648.34 176.426C648.455 176.379 648.549 176.291 648.604 176.18L648.937 175.55C648.972 175.484 648.993 175.412 648.997 175.337C649.002 175.263 648.99 175.189 648.962 175.119C648.935 175.05 648.893 174.988 648.839 174.936C648.785 174.885 648.721 174.846 648.65 174.822C646.893 174.205 645.285 173.226 643.931 171.947C642.577 170.669 641.507 169.12 640.79 167.401C640.763 167.339 640.721 167.285 640.667 167.244C640.614 167.202 640.551 167.175 640.484 167.164C640.417 167.154 640.349 167.16 640.285 167.182C640.221 167.205 640.164 167.243 640.119 167.293L639.699 167.77C639.65 167.823 639.616 167.889 639.602 167.961C639.587 168.032 639.593 168.106 639.617 168.175Z" fill="#263238"/>
<path opacity="0.57" d="M639.617 168.175C640.301 170.091 641.408 171.83 642.856 173.26C644.303 174.69 646.054 175.776 647.979 176.436C648.097 176.477 648.225 176.473 648.34 176.426C648.455 176.379 648.549 176.291 648.604 176.18L648.937 175.55C648.972 175.484 648.993 175.412 648.997 175.337C649.002 175.263 648.99 175.189 648.962 175.119C648.935 175.05 648.893 174.988 648.839 174.936C648.785 174.885 648.721 174.846 648.65 174.822C646.893 174.205 645.285 173.226 643.931 171.947C642.577 170.669 641.507 169.12 640.79 167.401C640.763 167.339 640.721 167.285 640.667 167.244C640.614 167.202 640.551 167.175 640.484 167.164C640.417 167.154 640.349 167.16 640.285 167.182C640.221 167.205 640.164 167.243 640.119 167.293L639.699 167.77C639.65 167.823 639.616 167.889 639.602 167.961C639.587 168.032 639.593 168.106 639.617 168.175Z" fill="black"/>
<path d="M650.135 161.297C650.314 161.604 650.621 161.758 650.826 161.64C651.031 161.522 651.041 161.174 650.857 160.871C650.673 160.569 650.375 160.41 650.17 160.528C649.966 160.646 649.95 160.989 650.135 161.297Z" fill="#263238"/>
<path d="M649.828 159.462C649.832 159.497 649.826 159.532 649.809 159.563C649.793 159.594 649.767 159.62 649.736 159.636C649.511 159.788 649.319 159.984 649.174 160.214C649.028 160.443 648.932 160.7 648.891 160.969C648.884 161.013 648.861 161.053 648.825 161.079C648.79 161.106 648.745 161.118 648.701 161.112C648.68 161.109 648.659 161.102 648.64 161.09C648.621 161.079 648.605 161.064 648.592 161.047C648.579 161.029 648.57 161.009 648.565 160.987C648.56 160.966 648.559 160.944 648.563 160.923C648.563 160.882 648.742 159.759 649.588 159.339C649.627 159.319 649.673 159.315 649.715 159.329C649.757 159.342 649.792 159.372 649.813 159.411C649.82 159.427 649.825 159.444 649.828 159.462Z" fill="#407BFF"/>
<path d="M649.828 159.462C649.832 159.497 649.826 159.532 649.809 159.563C649.793 159.594 649.767 159.62 649.736 159.636C649.511 159.788 649.319 159.984 649.174 160.214C649.028 160.443 648.932 160.7 648.891 160.969C648.884 161.013 648.861 161.053 648.825 161.079C648.79 161.106 648.745 161.118 648.701 161.112C648.68 161.109 648.659 161.102 648.64 161.09C648.621 161.079 648.605 161.064 648.592 161.047C648.579 161.029 648.57 161.009 648.565 160.987C648.56 160.966 648.559 160.944 648.563 160.923C648.563 160.882 648.742 159.759 649.588 159.339C649.627 159.319 649.673 159.315 649.715 159.329C649.757 159.342 649.792 159.372 649.813 159.411C649.82 159.427 649.825 159.444 649.828 159.462Z" fill="#792909"/>
<path d="M655.152 162.64C655.187 162.634 655.222 162.64 655.252 162.657C655.283 162.674 655.307 162.7 655.321 162.732C655.474 162.956 655.671 163.147 655.9 163.293C656.129 163.438 656.386 163.535 656.654 163.577C656.698 163.584 656.737 163.607 656.764 163.643C656.791 163.678 656.803 163.723 656.797 163.767C656.79 163.81 656.766 163.849 656.73 163.875C656.695 163.9 656.651 163.911 656.608 163.905C656.567 163.905 655.45 163.721 655.024 162.88C655.006 162.841 655.003 162.795 655.016 162.754C655.029 162.712 655.058 162.677 655.096 162.655C655.113 162.645 655.133 162.639 655.152 162.64Z" fill="#792909"/>
<path d="M655.701 159.39C655.933 159.786 656.265 160.113 656.664 160.339C657.051 160.564 657.488 160.688 657.935 160.697C657.881 160.27 657.72 159.863 657.469 159.513C657.172 159.17 656.459 159.221 655.701 159.39Z" fill="#263238"/>
<path d="M640.878 167.805L627.126 138.341L626.07 138.854L639.802 168.554C639.829 168.61 639.869 168.66 639.919 168.697C639.969 168.734 640.028 168.758 640.09 168.768C640.152 168.777 640.215 168.77 640.274 168.749C640.332 168.728 640.385 168.693 640.427 168.646L640.816 168.215C640.865 168.16 640.896 168.092 640.907 168.019C640.918 167.947 640.908 167.873 640.878 167.805Z" fill="#263238"/>
<path d="M622.56 131.458C619.035 133.631 624.61 138.31 626.147 139.51C626.259 139.598 626.391 139.657 626.532 139.679C626.673 139.702 626.818 139.687 626.951 139.638H627.013C627.191 139.572 627.342 139.447 627.44 139.284C627.537 139.121 627.577 138.929 627.551 138.741C627.228 136.46 625.993 129.342 622.56 131.458ZM626.147 138.459C626.071 138.487 625.989 138.495 625.91 138.483C625.83 138.47 625.754 138.437 625.691 138.387C624.666 137.613 620.567 134.19 623.098 132.611C625.629 131.033 626.459 136.399 626.649 137.885C626.666 137.993 626.644 138.103 626.588 138.197C626.532 138.291 626.445 138.362 626.342 138.398L626.147 138.459Z" fill="#263238"/>
<path opacity="0.3" d="M622.56 131.458C619.035 133.631 624.61 138.31 626.147 139.51C626.259 139.598 626.391 139.657 626.532 139.679C626.673 139.702 626.818 139.687 626.951 139.638H627.013C627.191 139.572 627.342 139.447 627.44 139.284C627.537 139.121 627.577 138.929 627.551 138.741C627.228 136.46 625.993 129.342 622.56 131.458ZM626.147 138.459C626.071 138.487 625.989 138.495 625.91 138.483C625.83 138.47 625.754 138.437 625.691 138.387C624.666 137.613 620.567 134.19 623.098 132.611C625.629 131.033 626.459 136.399 626.649 137.885C626.666 137.993 626.644 138.103 626.588 138.197C626.532 138.291 626.445 138.362 626.342 138.398L626.147 138.459Z" fill="white"/>
<path d="M480.73 190.821L481.167 200.61L486.38 200.736L486.622 190.616L480.73 190.821Z" fill="#FF8B7B"/>
<path opacity="0.1" d="M480.973 196.175C482.794 196.511 484.657 196.556 486.491 196.307L486.591 192.052L483.661 191.357L480.758 191.41L480.973 196.175Z" fill="black"/>
<path d="M486.869 199.321C486.844 199.317 486.822 199.304 486.805 199.286C486.788 199.269 486.777 199.246 486.774 199.221C486.769 199.197 486.772 199.172 486.782 199.151C486.793 199.129 486.81 199.111 486.832 199.1C486.905 199.058 488.646 198.074 489.462 198.306C489.617 198.347 489.751 198.447 489.835 198.584C489.89 198.661 489.919 198.753 489.919 198.847C489.919 198.942 489.89 199.034 489.835 199.11C489.625 199.373 488.988 199.484 488.368 199.479C487.864 199.47 487.363 199.417 486.869 199.321ZM487.247 199.163C488.173 199.284 489.43 199.284 489.662 198.958C489.698 198.921 489.73 198.847 489.662 198.7C489.638 198.657 489.605 198.62 489.564 198.592C489.524 198.564 489.478 198.545 489.43 198.537C489.358 198.516 489.284 198.506 489.209 198.506C488.519 198.596 487.853 198.82 487.247 199.163Z" fill="#407BFF"/>
<path d="M486.805 199.31C486.787 199.3 486.772 199.285 486.763 199.266C486.754 199.247 486.75 199.226 486.753 199.205C486.753 199.142 486.9 197.801 487.537 197.285C487.627 197.21 487.732 197.153 487.845 197.119C487.958 197.084 488.077 197.073 488.194 197.086C488.52 197.122 488.62 197.285 488.631 197.422C488.736 197.98 487.531 199.053 486.932 199.316H486.884C486.872 199.321 486.858 199.324 486.844 199.323C486.83 199.322 486.817 199.318 486.805 199.31ZM488.115 197.306C487.965 197.306 487.82 197.358 487.705 197.454C487.331 197.882 487.098 198.414 487.037 198.979C487.652 198.616 488.441 197.775 488.415 197.438C488.415 197.406 488.415 197.322 488.184 197.301L488.115 197.306Z" fill="#407BFF"/>
<path d="M486.363 198.621L480.929 198.59C480.83 198.588 480.733 198.621 480.654 198.682C480.576 198.743 480.521 198.83 480.498 198.927L479.488 203.345C479.445 203.53 479.475 203.725 479.574 203.888C479.672 204.051 479.83 204.169 480.014 204.218C480.065 204.223 480.116 204.223 480.166 204.218C482.128 204.218 483.848 204.097 486.31 204.113C489.187 204.113 488.456 204.47 491.838 204.539C493.879 204.575 494.263 202.261 493.416 202.14C489.461 201.614 489.056 200.426 487.541 198.984C487.205 198.725 486.786 198.596 486.363 198.621Z" fill="#263238"/>
<path d="M468.827 118.978C468.827 118.978 487.589 146.681 488.347 152.583C488.92 157.064 487.331 194.829 487.331 194.829C484.935 195.034 482.524 194.976 480.141 194.655C480.141 194.655 478.884 176.835 477.921 164.99C477.511 159.925 477.6 155.959 477.138 154.913C475.607 151.415 460.342 135.452 458.517 129.024C456.692 122.597 457.391 119.088 457.391 119.088L468.827 118.978Z" fill="#407BFF"/>
<path opacity="0.3" d="M468.827 118.978C468.827 118.978 487.589 146.681 488.347 152.583C488.92 157.064 487.331 194.829 487.331 194.829C484.935 195.034 482.524 194.976 480.141 194.655C480.141 194.655 478.884 176.835 477.921 164.99C477.511 159.925 477.6 155.959 477.138 154.913C475.607 151.415 460.342 135.452 458.517 129.024C456.692 122.597 457.391 119.088 457.391 119.088L468.827 118.978Z" fill="white"/>
<path opacity="0.2" d="M469.859 145.43C465.125 139.586 463.726 123.607 463.726 123.607L459.581 127.431L459.26 130.86C461.18 134.742 465.782 140.459 469.859 145.43Z" fill="black"/>
<path d="M464.087 119.972C464.087 119.972 464.934 154.687 461.341 166.284C461.218 166.655 461.019 166.995 460.757 167.284C460.496 167.574 460.177 167.805 459.821 167.965C459.465 168.125 459.079 168.209 458.689 168.212C458.299 168.215 457.913 168.137 457.554 167.983L453.094 166.169C452.759 166.044 452.453 165.851 452.194 165.604C451.936 165.357 451.731 165.059 451.592 164.73C451.452 164.4 451.382 164.046 451.384 163.688C451.386 163.331 451.462 162.977 451.605 162.65L452.294 161.104C452.294 161.104 451.079 143.326 450.542 137.361C450.006 131.397 447.844 127.152 450.542 119.152L464.087 119.972Z" fill="#407BFF"/>
<path opacity="0.3" d="M464.087 119.972C464.087 119.972 464.934 154.687 461.341 166.284C461.218 166.655 461.019 166.995 460.757 167.284C460.496 167.574 460.177 167.805 459.821 167.965C459.465 168.125 459.079 168.209 458.689 168.212C458.299 168.215 457.913 168.137 457.554 167.983L453.094 166.169C452.759 166.044 452.453 165.851 452.194 165.604C451.936 165.357 451.731 165.059 451.592 164.73C451.452 164.4 451.382 164.046 451.384 163.688C451.386 163.331 451.462 162.977 451.605 162.65L452.294 161.104C452.294 161.104 451.079 143.326 450.542 137.361C450.006 131.397 447.844 127.152 450.542 119.152L464.087 119.972Z" fill="white"/>
<path d="M452.409 167.115L450.32 172.712L452.945 174.226L456.28 169.361L452.409 167.115Z" fill="#263238"/>
<path opacity="0.6" d="M452.409 167.115L450.32 172.712L452.945 174.226L456.28 169.361L452.409 167.115Z" fill="white"/>
<path d="M447.771 201.888C442.553 201.362 436.278 200.273 436.862 198.332C437.851 195.045 443.7 191.305 445.672 188.728C448.087 185.603 452.184 174.342 452.184 174.342C452.323 174.053 452.571 173.83 452.873 173.723C453.176 173.615 453.509 173.632 453.799 173.769L448.907 171.875L446.751 175.636L441.491 187.897L437.283 191.578L433.301 196.086L432.428 198.553L433.706 199.689L439.708 201.735L445.136 202.319L447.771 201.888Z" fill="#263238"/>
<path opacity="0.1" d="M447.771 201.888C442.553 201.362 436.278 200.273 436.862 198.332C437.851 195.045 443.7 191.305 445.672 188.728C448.087 185.603 452.184 174.342 452.184 174.342C452.323 174.053 452.571 173.83 452.873 173.723C453.176 173.615 453.509 173.632 453.799 173.769L448.907 171.875L446.751 175.636L441.491 187.897L437.283 191.578L433.301 196.086L432.428 198.553L433.706 199.689L439.708 201.735L445.136 202.319L447.771 201.888Z" fill="white"/>
<path d="M443.879 202.624L447.866 202.303C447.866 202.303 448.392 203.355 446.151 203.618C443.91 203.881 443.879 202.624 443.879 202.624Z" fill="#263238"/>
<path opacity="0.2" d="M443.879 202.624L447.866 202.303C447.866 202.303 448.392 203.355 446.151 203.618C443.91 203.881 443.879 202.624 443.879 202.624Z" fill="black"/>
<path d="M451.032 164.296L460.347 168.015C460.497 168.071 460.631 168.161 460.739 168.279C460.847 168.396 460.926 168.538 460.969 168.692C461.012 168.845 461.018 169.007 460.987 169.164C460.956 169.32 460.888 169.467 460.789 169.593C460.121 170.413 458.454 171.097 454.325 169.545C449.891 167.878 449.407 166.09 449.654 164.996C449.689 164.853 449.754 164.72 449.846 164.605C449.937 164.49 450.052 164.397 450.183 164.33C450.313 164.264 450.457 164.226 450.604 164.221C450.75 164.215 450.896 164.24 451.032 164.296Z" fill="#263238"/>
<path opacity="0.7" d="M451.032 164.296L460.347 168.015C460.497 168.071 460.631 168.161 460.739 168.279C460.847 168.396 460.926 168.538 460.969 168.692C461.012 168.845 461.018 169.007 460.987 169.164C460.956 169.32 460.888 169.467 460.789 169.593C460.121 170.413 458.454 171.097 454.325 169.545C449.891 167.878 449.407 166.09 449.654 164.996C449.689 164.853 449.754 164.72 449.846 164.605C449.937 164.49 450.052 164.397 450.183 164.33C450.313 164.264 450.457 164.226 450.604 164.221C450.75 164.215 450.896 164.24 451.032 164.296Z" fill="white"/>
<path d="M449.139 201.772C449.217 201.777 449.291 201.809 449.349 201.862C449.407 201.915 449.444 201.987 449.456 202.065C449.467 202.143 449.451 202.222 449.41 202.289C449.37 202.357 449.307 202.408 449.233 202.435C443.179 204.433 430.334 201.136 431.581 197.701C432.933 193.982 438.419 190.274 440.391 187.581C442.99 184.084 447.429 171.644 447.429 171.644C447.498 171.494 447.598 171.36 447.721 171.25C447.844 171.14 447.989 171.056 448.145 171.005C448.302 170.953 448.468 170.934 448.633 170.949C448.797 170.964 448.957 171.013 449.102 171.092L455.451 174.474C455.524 174.511 455.589 174.564 455.642 174.627C455.695 174.691 455.735 174.764 455.758 174.843C455.782 174.922 455.789 175.006 455.78 175.088C455.77 175.17 455.744 175.249 455.703 175.321C455.621 175.457 455.492 175.559 455.34 175.608C455.188 175.656 455.023 175.648 454.877 175.584L449.854 173.227C449.711 173.159 449.555 173.119 449.396 173.11C449.238 173.101 449.079 173.124 448.929 173.177C448.779 173.23 448.641 173.311 448.522 173.417C448.404 173.524 448.308 173.652 448.239 173.795C448.239 173.795 444.142 185.062 441.727 188.186C439.734 190.763 433.906 194.498 432.917 197.785C432.107 200.51 444.81 201.509 449.139 201.772Z" fill="#263238"/>
<path opacity="0.5" d="M449.139 201.772C449.217 201.777 449.291 201.809 449.349 201.862C449.407 201.915 449.444 201.987 449.456 202.065C449.467 202.143 449.451 202.222 449.41 202.289C449.37 202.357 449.307 202.408 449.233 202.435C443.179 204.433 430.334 201.136 431.581 197.701C432.933 193.982 438.419 190.274 440.391 187.581C442.99 184.084 447.429 171.644 447.429 171.644C447.498 171.494 447.598 171.36 447.721 171.25C447.844 171.14 447.989 171.056 448.145 171.005C448.302 170.953 448.468 170.934 448.633 170.949C448.797 170.964 448.957 171.013 449.102 171.092L455.451 174.474C455.524 174.511 455.589 174.564 455.642 174.627C455.695 174.691 455.735 174.764 455.758 174.843C455.782 174.922 455.789 175.006 455.78 175.088C455.77 175.17 455.744 175.249 455.703 175.321C455.621 175.457 455.492 175.559 455.34 175.608C455.188 175.656 455.023 175.648 454.877 175.584L449.854 173.227C449.711 173.159 449.555 173.119 449.396 173.11C449.238 173.101 449.079 173.124 448.929 173.177C448.779 173.23 448.641 173.311 448.522 173.417C448.404 173.524 448.308 173.652 448.239 173.795C448.239 173.795 444.142 185.062 441.727 188.186C439.734 190.763 433.906 194.498 432.917 197.785C432.107 200.51 444.81 201.509 449.139 201.772Z" fill="white"/>
<path d="M498.348 100.856L498.64 100.818C498.761 100.802 498.847 100.691 498.831 100.571L496.548 83.0883C496.532 82.9673 496.421 82.882 496.3 82.8978L496.008 82.936C495.887 82.9518 495.802 83.0626 495.817 83.1836L498.101 100.666C498.116 100.787 498.227 100.872 498.348 100.856Z" fill="#263238"/>
<path opacity="0.3" d="M498.348 100.856L498.64 100.818C498.761 100.802 498.847 100.691 498.831 100.571L496.548 83.0883C496.532 82.9673 496.421 82.882 496.3 82.8978L496.008 82.936C495.887 82.9518 495.802 83.0626 495.817 83.1836L498.101 100.666C498.116 100.787 498.227 100.872 498.348 100.856Z" fill="white"/>
<path d="M489.014 87.5092L495.883 83.6064C495.42 85.6042 495.695 87.7018 496.656 89.5131L489.014 87.5092Z" fill="#407BFF"/>
<path d="M480.125 99.2594C480.125 99.2594 483.36 104.829 484.438 105.103C485.516 105.376 494.506 99.2594 494.506 99.2594L495.137 96.0299C495.163 95.8955 495.226 95.771 495.319 95.6705C495.412 95.5701 495.531 95.4978 495.663 95.4618L497.099 95.12L498.714 93.5736C498.784 93.5046 498.868 93.4507 498.959 93.415C499.051 93.3793 499.149 93.3627 499.248 93.3662C499.346 93.3696 499.443 93.393 499.532 93.435C499.621 93.477 499.7 93.5367 499.766 93.6104L499.918 93.784C500.022 93.8933 500.087 94.0338 500.102 94.1837L500.597 98.4599C500.608 98.57 500.596 98.6813 500.56 98.786L499.86 100.737C499.816 100.861 499.74 100.97 499.639 101.053C499.538 101.136 499.416 101.191 499.287 101.211L496.21 101.684C496.21 101.684 487.668 111.036 483.986 111.036C480.304 111.036 475.633 103.562 475.633 103.562L480.125 99.2594Z" fill="#FF8B7B"/>
<path d="M470.705 88.582C473.12 90.0284 475.284 91.8582 477.112 93.9996C479.379 96.6294 481.846 101.011 481.846 101.011C481.846 101.011 478.879 104.004 476.06 104.935L469.79 96.7715C469.79 96.7715 468.601 90.6701 470.705 88.582Z" fill="#407BFF"/>
<path opacity="0.2" d="M474.528 102.941C473.424 101.505 473.944 94.4888 473.944 94.4888L473.334 92.832L471.383 93.1424L470.01 95.7354L470.22 97.3449L474.528 102.941Z" fill="black"/>
<path d="M449.333 122.16C449.333 122.16 447.308 89.3972 457.029 86.5622C466.749 83.7272 475.639 91.1487 474.424 93.3052C473.209 95.4617 468.538 115.643 471.594 122.16C471.583 122.16 463.015 126.084 449.333 122.16Z" fill="#407BFF"/>
<path d="M450.858 98.234C450.858 98.234 445.33 101.542 445.072 102.626C444.814 103.709 450.516 112.093 450.516 112.093L454.293 113.219C454.428 113.244 454.554 113.306 454.655 113.399C454.757 113.492 454.83 113.612 454.866 113.745L455.224 115.176L456.802 116.754C456.873 116.821 456.93 116.903 456.969 116.993C457.008 117.084 457.028 117.181 457.028 117.28C457.028 117.378 457.008 117.475 456.969 117.566C456.93 117.656 456.873 117.738 456.802 117.805L456.634 117.963C456.523 118.065 456.383 118.129 456.234 118.147L451.963 118.673C451.853 118.689 451.741 118.678 451.637 118.642L449.664 117.99C449.54 117.949 449.43 117.875 449.346 117.775C449.261 117.676 449.206 117.555 449.186 117.427L448.66 114.355C448.66 114.355 439.192 105.94 439.139 102.258C439.086 98.5759 446.503 93.8105 446.503 93.8105L450.858 98.234Z" fill="#FF8B7B"/>
<path opacity="0.2" d="M458.655 91.7431C460.191 85.5524 454.21 93.3211 454.21 93.3211L451.165 95.1514C450.603 97.3288 450.187 99.541 449.918 101.773C451.964 100.632 457.392 96.8556 458.655 91.7431Z" fill="black"/>
<path d="M469.28 90.844C469.305 90.7917 469.325 90.7371 469.338 90.6809C469.338 90.6283 469.338 90.5705 469.375 90.5179C469.378 90.4723 469.378 90.4267 469.375 90.3811C469.375 90.3285 469.375 90.2759 469.375 90.2233V90.155C469.375 90.0392 469.375 89.9183 469.375 89.7973V89.792C469.257 89.0016 469.01 88.2358 468.644 87.5251L468.207 87.341C468.177 86.1854 468.512 85.0498 469.165 84.0957L465.399 78.0312C465.136 80.3035 464.42 83.98 462.916 86.0261C462.469 85.9892 462.011 85.9577 461.543 85.9577C461.659 86.3206 461.811 86.7624 462.011 87.2358L462.09 87.4252C462.143 87.5303 462.19 87.6408 462.243 87.7513L462.364 88.0037L462.469 88.1931C462.511 88.272 462.553 88.3509 462.6 88.4298L462.711 88.6191L462.868 88.8716L462.979 89.0399C463.063 89.1609 463.147 89.2818 463.237 89.3976L463.316 89.4975C463.405 89.6132 463.5 89.7289 463.6 89.8394C463.637 89.8857 463.678 89.9296 463.721 89.9709C463.8 90.055 463.878 90.1392 463.963 90.2181L464.105 90.3496C464.194 90.4337 464.283 90.5074 464.378 90.581L464.515 90.6915C464.654 90.8003 464.8 90.9005 464.951 90.9913C465.099 91.085 465.254 91.1676 465.414 91.2385L465.572 91.3068C465.688 91.3594 465.809 91.4068 465.93 91.4489L466.119 91.512C466.245 91.5488 466.377 91.5803 466.508 91.6066L466.687 91.6435C466.885 91.6816 467.086 91.7062 467.287 91.7171C467.441 91.725 467.596 91.725 467.75 91.7171H467.844C467.97 91.7072 468.095 91.6878 468.218 91.6592H468.271C468.364 91.6349 468.455 91.6032 468.544 91.5646H468.607C468.692 91.5247 468.773 91.4772 468.849 91.4226L468.902 91.3752C468.956 91.3302 469.007 91.281 469.054 91.2279L469.091 91.1806C469.141 91.1211 469.183 91.0558 469.217 90.986C469.259 90.8966 469.27 90.844 469.28 90.844Z" fill="#FF8B7B"/>
<path opacity="0.2" d="M466.938 80.4873L469.184 84.064C468.911 84.5176 468.678 84.9946 468.49 85.4894C467.855 85.1558 467.311 84.6725 466.905 84.0814C466.499 83.4902 466.243 82.8091 466.159 82.0968C466.112 81.229 466.612 80.4821 466.938 80.4873Z" fill="black"/>
<path d="M471.899 77.6159C469.931 75.0964 469.747 71.3988 470.231 70.7782C470.715 70.1575 475.223 70.4836 475.659 70.9886C477.874 73.4396 474.671 76.5692 474.671 76.5692L475.144 78.1944L471.899 77.6159Z" fill="#263238"/>
<path d="M465.577 74.7229C465.203 78.573 464.793 80.8032 466.413 83.0596C468.838 86.4627 473.819 85.4528 475.323 81.8025C476.686 78.4941 477.054 72.7715 473.567 70.6676C472.8 70.1984 471.927 69.9332 471.029 69.8973C470.131 69.8614 469.239 70.056 468.438 70.4626C467.637 70.8693 466.953 71.4743 466.453 72.2201C465.952 72.9659 465.65 73.8275 465.577 74.7229Z" fill="#FF8B7B"/>
<path d="M471.362 76.7686C471.314 77.0841 471.435 77.3576 471.641 77.3892C471.846 77.4208 472.046 77.1999 472.093 76.8632C472.14 76.5266 472.019 76.2794 471.814 76.2478C471.609 76.2163 471.409 76.4635 471.362 76.7686Z" fill="#263238"/>
<path d="M474.866 77.3262C474.818 77.6313 474.939 77.9101 475.144 77.9416C475.35 77.9732 475.55 77.747 475.597 77.442C475.644 77.1369 475.523 76.8529 475.318 76.8213C475.113 76.7897 474.913 77.0159 474.866 77.3262Z" fill="#263238"/>
<path d="M473.545 77.2368C473.76 78.2419 474.114 79.212 474.597 80.1192C474.361 80.2378 474.101 80.3035 473.837 80.3116C473.573 80.3198 473.31 80.2703 473.066 80.1665L473.545 77.2368Z" fill="#FF5652"/>
<path d="M470.389 75.1278C470.357 75.1211 470.327 75.1086 470.299 75.091C470.266 75.0551 470.248 75.0082 470.248 74.9595C470.248 74.9109 470.266 74.8639 470.299 74.828C470.503 74.6237 470.752 74.4698 471.026 74.3785C471.3 74.2872 471.591 74.261 471.877 74.3021C471.901 74.3071 471.924 74.3168 471.944 74.3306C471.964 74.3445 471.981 74.3622 471.995 74.3827C472.008 74.4033 472.017 74.4263 472.021 74.4504C472.025 74.4745 472.025 74.4991 472.019 74.523C472.008 74.5706 471.979 74.612 471.937 74.6385C471.896 74.665 471.846 74.6745 471.798 74.665C471.57 74.6298 471.336 74.6497 471.116 74.7229C470.897 74.796 470.698 74.9204 470.536 75.0858C470.516 75.1032 470.492 75.1161 470.467 75.1234C470.442 75.1307 470.415 75.1322 470.389 75.1278Z" fill="#263238"/>
<path d="M476.454 76.1168C476.423 76.1091 476.395 76.0933 476.373 76.0711C476.351 76.0489 476.335 76.021 476.327 75.9905C476.267 75.7691 476.154 75.5652 476 75.3952C475.845 75.2252 475.653 75.094 475.439 75.0122C475.391 74.9983 475.351 74.966 475.327 74.9226C475.304 74.8792 475.298 74.8282 475.312 74.7808C475.326 74.7334 475.358 74.6934 475.402 74.6697C475.445 74.6461 475.496 74.6406 475.544 74.6545C475.82 74.754 476.068 74.9181 476.267 75.1331C476.467 75.3482 476.612 75.6079 476.69 75.8906C476.698 75.913 476.701 75.9367 476.699 75.9603C476.697 75.9838 476.69 76.0068 476.68 76.0278C476.669 76.0488 476.654 76.0675 476.636 76.0828C476.618 76.098 476.597 76.1096 476.575 76.1168C476.556 76.1253 476.535 76.1297 476.514 76.1297C476.493 76.1297 476.473 76.1253 476.454 76.1168Z" fill="#263238"/>
<path d="M467.931 71.1409C467.931 71.1409 480.671 73.918 477.694 64.8555C477.694 64.8555 476.721 68.0639 470.63 66.5228C465.549 65.2289 462.892 66.6859 463.545 68.8634C464.197 71.0409 467.931 71.1409 467.931 71.1409Z" fill="#263238"/>
<path d="M466.375 78.1101C466.375 78.1101 467.953 78.0522 467.275 76.6374C466.596 75.2225 466.707 74.0811 467.922 73.5288C469.137 72.9766 468.385 70.373 468.385 70.373L464.245 69.3789C464.245 69.3789 460.316 70.2994 464.05 76.8898L466.375 78.1101Z" fill="#263238"/>
<path d="M463.151 77.9838C463.535 78.8746 464.255 79.5777 465.155 79.9404C466.36 80.4086 467.086 79.3724 466.859 78.1679C466.659 77.116 465.807 75.538 464.534 75.5906C463.261 75.6432 462.693 76.8793 463.151 77.9838Z" fill="#FF8B7B"/>
<path d="M456.019 86.9883C452.099 88.6765 448.512 91.0508 445.426 93.9995L449.634 99.4013C449.634 99.4013 456.619 96.3138 458.676 92.9739C460.043 90.7438 458.907 88.6346 457.992 87.4722C457.761 87.187 457.443 86.9853 457.087 86.8979C456.731 86.8105 456.356 86.8423 456.019 86.9883Z" fill="#407BFF"/>
<path d="M472.639 81.7814C472.806 81.7946 472.973 81.7946 473.139 81.7814C473.164 81.773 473.185 81.755 473.197 81.7313C473.208 81.7077 473.21 81.6803 473.202 81.6552C473.197 81.6365 473.186 81.62 473.171 81.6077C473.156 81.5955 473.137 81.5882 473.118 81.5868C472.7 81.6104 472.281 81.5351 471.898 81.3669C471.514 81.1988 471.175 80.9425 470.909 80.619C470.89 80.6027 470.865 80.5938 470.84 80.5938C470.815 80.5938 470.791 80.6027 470.772 80.619C470.755 80.6389 470.746 80.664 470.746 80.69C470.746 80.716 470.755 80.7411 470.772 80.761C471 81.0459 471.283 81.2828 471.604 81.4579C471.924 81.633 472.276 81.743 472.639 81.7814Z" fill="#263238"/>
<path d="M512.143 186.303V197.29C512.143 197.359 512.143 197.422 512.143 197.49C511.324 198.703 510.89 200.135 510.897 201.598C510.897 205.359 513.648 208.436 517.035 208.436C520.422 208.436 523.173 205.369 523.173 201.598C523.173 197.827 520.417 194.761 517.035 194.761C515.878 194.773 514.752 195.14 513.811 195.812V185.661L514.216 185.572C515.475 185.415 516.746 185.371 518.013 185.44H526.603C526.992 198.195 536.245 208.441 547.564 208.441C559.136 208.441 568.541 197.743 568.541 184.599C568.541 172.759 560.903 162.908 550.93 161.072L552.65 144.635C552.814 143.057 552.982 141.511 553.145 139.949C553.173 138.823 553.416 137.712 553.86 136.677C555.007 134.431 556.948 133.826 559.068 133.663C559.172 133.763 559.295 133.841 559.429 133.892C559.564 133.944 559.707 133.968 559.851 133.963H568.104C569.646 133.963 569.646 131.57 568.104 131.57H559.857C559.698 131.565 559.54 131.594 559.394 131.656C559.248 131.717 559.117 131.81 559.01 131.928H558.857C557.167 131.944 555.534 132.542 554.232 133.621C552.931 134.699 552.04 136.192 551.709 137.85C551.262 140.259 551.183 142.773 550.915 145.214L550.031 153.629H545.176C545.134 153.106 544.898 152.618 544.515 152.26C544.131 151.902 543.628 151.7 543.104 151.694H523.831C523.307 151.7 522.805 151.901 522.421 152.258C522.038 152.615 521.802 153.102 521.758 153.624C519.954 153.593 518.076 153.503 516.388 154.234C510.933 156.633 512.143 163.507 512.143 168.325V186.308V186.303ZM513.779 201.724C514.715 202.634 515.961 203.155 517.266 203.181C518.35 203.239 518.318 201.561 517.266 201.509C515.546 201.419 514.684 200.636 514.247 199.557C514.487 199.009 514.876 198.539 515.37 198.2C515.863 197.862 516.442 197.669 517.04 197.643C518.839 197.643 520.307 199.415 520.307 201.598C520.307 203.781 518.839 205.548 517.04 205.548C515.241 205.548 513.837 203.844 513.779 201.724ZM529.48 185.419H530.327C530.716 195.886 538.296 204.27 547.569 204.27C557.085 204.27 564.827 195.439 564.827 184.578C564.827 174.863 558.626 166.773 550.504 165.18C550.546 164.759 550.594 164.338 550.636 163.923C559.162 165.611 565.674 174.232 565.674 184.578C565.674 196.149 557.553 205.543 547.569 205.543C537.828 205.548 529.864 196.596 529.48 185.424V185.419ZM529.48 183.741C529.864 172.57 537.828 163.612 547.569 163.612C548.043 163.612 548.516 163.639 548.984 163.681C548.942 164.107 548.895 164.528 548.853 164.948C548.427 164.911 548.001 164.885 547.569 164.885C538.296 164.885 530.737 173.269 530.327 183.741H529.48ZM550.373 166.453C557.853 167.983 563.523 175.526 563.523 184.578C563.523 194.734 556.353 202.987 547.543 202.987C538.974 202.987 531.963 195.176 531.579 185.414H539.7C543.288 185.414 548.058 185.94 548.8 181.154C549.153 178.871 549.289 176.536 549.526 174.242L550.373 166.453ZM531.605 183.741C531.989 173.974 539.001 166.163 547.569 166.163C547.953 166.163 548.337 166.163 548.721 166.216C548.402 169.242 548.085 172.265 547.769 175.284C547.517 177.687 547.88 182.589 545.029 183.563C543.977 183.92 542.62 183.741 541.536 183.741H531.605ZM513.816 183.962V165.643C513.816 164.065 513.774 162.455 513.816 160.861C513.911 157.49 516.446 155.318 519.707 155.297H522.426C522.814 155.639 523.314 155.826 523.831 155.823H543.109C543.626 155.826 544.126 155.639 544.513 155.297H549.863C549.668 157.143 549.479 158.978 549.284 160.83C548.716 160.777 548.148 160.746 547.569 160.746C536.25 160.746 526.997 170.986 526.608 183.747H519.46C518.234 183.747 517.003 183.72 515.778 183.747C515.125 183.76 514.476 183.834 513.837 183.968L513.816 183.962Z" fill="#407BFF"/>
<path opacity="0.4" d="M512.143 186.303V197.29C512.143 197.359 512.143 197.422 512.143 197.49C511.324 198.703 510.89 200.135 510.897 201.598C510.897 205.359 513.648 208.436 517.035 208.436C520.422 208.436 523.173 205.369 523.173 201.598C523.173 197.827 520.417 194.761 517.035 194.761C515.878 194.773 514.752 195.14 513.811 195.812V185.661L514.216 185.572C515.475 185.415 516.746 185.371 518.013 185.44H526.603C526.992 198.195 536.245 208.441 547.564 208.441C559.136 208.441 568.541 197.743 568.541 184.599C568.541 172.759 560.903 162.908 550.93 161.072L552.65 144.635C552.814 143.057 552.982 141.511 553.145 139.949C553.173 138.823 553.416 137.712 553.86 136.677C555.007 134.431 556.948 133.826 559.068 133.663C559.172 133.763 559.295 133.841 559.429 133.892C559.564 133.944 559.707 133.968 559.851 133.963H568.104C569.646 133.963 569.646 131.57 568.104 131.57H559.857C559.698 131.565 559.54 131.594 559.394 131.656C559.248 131.717 559.117 131.81 559.01 131.928H558.857C557.167 131.944 555.534 132.542 554.232 133.621C552.931 134.699 552.04 136.192 551.709 137.85C551.262 140.259 551.183 142.773 550.915 145.214L550.031 153.629H545.176C545.134 153.106 544.898 152.618 544.515 152.26C544.131 151.902 543.628 151.7 543.104 151.694H523.831C523.307 151.7 522.805 151.901 522.421 152.258C522.038 152.615 521.802 153.102 521.758 153.624C519.954 153.593 518.076 153.503 516.388 154.234C510.933 156.633 512.143 163.507 512.143 168.325V186.308V186.303ZM513.779 201.724C514.715 202.634 515.961 203.155 517.266 203.181C518.35 203.239 518.318 201.561 517.266 201.509C515.546 201.419 514.684 200.636 514.247 199.557C514.487 199.009 514.876 198.539 515.37 198.2C515.863 197.862 516.442 197.669 517.04 197.643C518.839 197.643 520.307 199.415 520.307 201.598C520.307 203.781 518.839 205.548 517.04 205.548C515.241 205.548 513.837 203.844 513.779 201.724ZM529.48 185.419H530.327C530.716 195.886 538.296 204.27 547.569 204.27C557.085 204.27 564.827 195.439 564.827 184.578C564.827 174.863 558.626 166.773 550.504 165.18C550.546 164.759 550.594 164.338 550.636 163.923C559.162 165.611 565.674 174.232 565.674 184.578C565.674 196.149 557.553 205.543 547.569 205.543C537.828 205.548 529.864 196.596 529.48 185.424V185.419ZM529.48 183.741C529.864 172.57 537.828 163.612 547.569 163.612C548.043 163.612 548.516 163.639 548.984 163.681C548.942 164.107 548.895 164.528 548.853 164.948C548.427 164.911 548.001 164.885 547.569 164.885C538.296 164.885 530.737 173.269 530.327 183.741H529.48ZM550.373 166.453C557.853 167.983 563.523 175.526 563.523 184.578C563.523 194.734 556.353 202.987 547.543 202.987C538.974 202.987 531.963 195.176 531.579 185.414H539.7C543.288 185.414 548.058 185.94 548.8 181.154C549.153 178.871 549.289 176.536 549.526 174.242L550.373 166.453ZM531.605 183.741C531.989 173.974 539.001 166.163 547.569 166.163C547.953 166.163 548.337 166.163 548.721 166.216C548.402 169.242 548.085 172.265 547.769 175.284C547.517 177.687 547.88 182.589 545.029 183.563C543.977 183.92 542.62 183.741 541.536 183.741H531.605ZM513.816 183.962V165.643C513.816 164.065 513.774 162.455 513.816 160.861C513.911 157.49 516.446 155.318 519.707 155.297H522.426C522.814 155.639 523.314 155.826 523.831 155.823H543.109C543.626 155.826 544.126 155.639 544.513 155.297H549.863C549.668 157.143 549.479 158.978 549.284 160.83C548.716 160.777 548.148 160.746 547.569 160.746C536.25 160.746 526.997 170.986 526.608 183.747H519.46C518.234 183.747 517.003 183.72 515.778 183.747C515.125 183.76 514.476 183.834 513.837 183.968L513.816 183.962Z" fill="white"/>
<path d="M513.821 173.774H569.63C570.705 173.774 571.576 172.903 571.576 171.828V171.571C571.576 170.496 570.705 169.624 569.63 169.624H513.821C512.747 169.624 511.875 170.496 511.875 171.571V171.828C511.875 172.903 512.747 173.774 513.821 173.774Z" fill="#407BFF"/>
<path opacity="0.4" d="M513.821 173.774H569.63C570.705 173.774 571.576 172.903 571.576 171.828V171.571C571.576 170.496 570.705 169.624 569.63 169.624H513.821C512.747 169.624 511.875 170.496 511.875 171.571V171.828C511.875 172.903 512.747 173.774 513.821 173.774Z" fill="black"/>
<path d="M524.672 105.239L524.633 105.223C524.453 105.149 524.247 105.235 524.173 105.415L517.491 121.708C517.417 121.888 517.503 122.094 517.683 122.168L517.722 122.184C517.902 122.258 518.108 122.171 518.182 121.991L524.864 105.699C524.938 105.519 524.852 105.313 524.672 105.239Z" fill="#263238"/>
<path opacity="0.3" d="M524.672 105.239L524.633 105.223C524.453 105.149 524.247 105.235 524.173 105.415L517.491 121.708C517.417 121.888 517.503 122.094 517.683 122.168L517.722 122.184C517.902 122.258 518.108 122.171 518.182 121.991L524.864 105.699C524.938 105.519 524.852 105.313 524.672 105.239Z" fill="white"/>
<path d="M530.459 111.604L524.746 105.992C524.681 108.068 523.866 110.05 522.453 111.573L530.459 111.604Z" fill="#407BFF"/>
<path d="M521.679 120.698C521.679 120.698 522.148 118.068 521.869 117.158C521.74 116.811 521.563 116.483 521.343 116.185C520.932 115.612 520.291 113.971 519.623 113.729C519.318 113.619 518.65 113.96 518.408 114.171C517.466 114.997 516.377 117.369 516.409 118.621C516.409 119.467 517.524 120.951 518.124 121.55C518.422 121.765 518.741 121.95 519.076 122.102L520.854 125.484L523.484 123.765L521.679 120.698Z" fill="#FFC3BD"/>
<path d="M544.603 119.404C544.603 119.404 539.401 119.762 536.671 122.113C534.477 123.996 529.969 129.529 528.781 129.393C527.592 129.256 523.042 122.108 523.042 122.108C521.724 122.559 520.545 123.346 519.623 124.391C519.623 124.391 525.288 136.683 528.639 136.683C532.468 136.683 541.678 126.431 541.678 126.431L544.603 119.404Z" fill="#407BFF"/>
<path opacity="0.1" d="M534.262 133.595C535.314 127.189 537.007 124.774 537.007 124.774L539.111 125.911L540.069 128.135C538.236 130.062 536.297 131.884 534.262 133.595Z" fill="black"/>
<path d="M504.89 190.437L502.934 195.623L507.51 196.48L510.171 192.451L504.89 190.437Z" fill="#FFC3BD"/>
<path d="M502.701 194.813L507.961 195.823C508.058 195.841 508.146 195.891 508.21 195.966C508.274 196.041 508.31 196.135 508.314 196.233L508.45 200.715C508.455 200.905 508.385 201.09 508.255 201.229C508.125 201.369 507.946 201.452 507.756 201.461H507.604C505.705 201.062 504.032 200.636 501.665 200.183C498.867 199.657 499.514 200.12 496.216 199.542C494.227 199.189 494.296 196.87 495.164 196.912C499.098 197.164 499.719 196.076 501.476 194.987C501.849 194.78 502.285 194.718 502.701 194.813Z" fill="#263238"/>
<path d="M548.596 154.582C548.596 154.582 553.708 168.941 546.024 169.198L529.46 169.74C526.734 169.782 524.009 169.641 521.302 169.319C521.302 169.319 521.07 178.261 508.862 195.287C508.862 195.287 506.411 195.187 503.654 192.478C503.654 192.478 513.901 164.559 517.63 161.351C522.727 156.964 548.596 154.582 548.596 154.582Z" fill="#263238"/>
<path opacity="0.1" d="M548.596 154.582C548.596 154.582 553.708 168.941 546.024 169.198L529.46 169.74C526.734 169.782 524.009 169.641 521.302 169.319C521.302 169.319 521.07 178.261 508.862 195.287C508.862 195.287 506.411 195.187 503.654 192.478C503.654 192.478 513.901 164.559 517.63 161.351C522.727 156.964 548.596 154.582 548.596 154.582Z" fill="white"/>
<path d="M510.58 193.998L508.944 196.292L502.848 193.141L503.705 190.479L510.58 193.998Z" fill="#263238"/>
<path opacity="0.5" d="M510.58 193.998L508.944 196.292L502.848 193.141L503.705 190.479L510.58 193.998Z" fill="white"/>
<path d="M560.088 156.822C560.088 156.822 547.664 158.305 537.381 155.712C536.534 149.591 536.094 143.42 536.066 137.24C536.145 128.298 534.277 119.62 547.974 119.031C561.287 118.457 564.233 117.484 561.482 129.634C558.731 141.784 559.599 147.439 560.088 156.822Z" fill="#407BFF"/>
<path d="M511.18 193.398L509.055 198.516L513.605 199.526L516.398 195.586L511.18 193.398Z" fill="#FFC3BD"/>
<path d="M508.819 197.738L514.079 198.926C514.175 198.946 514.262 198.999 514.323 199.076C514.385 199.153 514.418 199.249 514.416 199.347V203.828C514.416 203.923 514.398 204.016 514.363 204.104C514.327 204.191 514.274 204.271 514.208 204.338C514.141 204.405 514.062 204.458 513.975 204.494C513.888 204.53 513.795 204.549 513.7 204.549C513.65 204.554 513.598 204.554 513.548 204.549C511.665 204.091 510.008 203.607 507.656 203.076C504.879 202.45 505.505 202.945 502.228 202.25C500.256 201.835 500.403 199.515 501.26 199.621C505.19 200.005 505.847 198.942 507.625 197.906C507.99 197.709 508.414 197.649 508.819 197.738Z" fill="#263238"/>
<path d="M559.44 156.375C559.44 156.375 564.069 169.624 556.379 169.624H539.81C537.083 169.575 534.363 169.345 531.667 168.935C531.667 168.935 529.327 180.638 515.493 197.985C515.493 197.985 512.726 197.801 510.064 195.003C510.064 195.003 520.921 164.57 524.75 161.482C529.995 157.259 559.44 156.375 559.44 156.375Z" fill="#263238"/>
<path opacity="0.2" d="M559.44 156.375C559.44 156.375 564.069 169.624 556.379 169.624H539.81C537.083 169.575 534.363 169.345 531.667 168.935C531.667 168.935 529.327 180.638 515.493 197.985C515.493 197.985 512.726 197.801 510.064 195.003C510.064 195.003 520.921 164.57 524.75 161.482C529.995 157.259 559.44 156.375 559.44 156.375Z" fill="white"/>
<path d="M516.888 197.149L515.173 199.384L509.188 196.034L510.134 193.398L516.888 197.149Z" fill="#263238"/>
<path opacity="0.5" d="M516.888 197.149L515.173 199.384L509.188 196.034L510.134 193.398L516.888 197.149Z" fill="white"/>
<path opacity="0.1" d="M560.277 123.596L562.26 125.516C562.102 126.689 561.844 128.051 561.481 129.634C561.166 131.033 560.898 132.343 560.671 133.584C558.652 129.666 557.6 124.159 557.6 124.159L560.277 123.596Z" fill="black"/>
<path d="M559.878 144.982L557.248 147.854C557.248 147.854 553.287 148.975 552.13 149.753C551.783 149.984 551.02 150.552 550.988 150.968C551.022 151.121 551.086 151.266 551.176 151.394C551.266 151.523 551.381 151.632 551.514 151.715C552.703 152.325 555.543 151.957 556.858 151.715C557.55 151.604 558.212 151.349 558.799 150.968C559.077 150.558 559.293 150.11 559.441 149.637L562.413 147.113L559.878 144.982Z" fill="#FFC3BD"/>
<path d="M560.823 119.604C565.116 122.281 573.353 129.819 573.342 134.689C573.332 139.56 561.207 148.89 561.207 148.89C561.207 148.89 559.682 148.57 558.53 145.777C558.53 145.777 566.552 136.52 566.394 135.362C566.236 134.205 560.082 130.103 558.199 126.058C556.316 122.013 558.714 118.295 560.823 119.604Z" fill="#407BFF"/>
<path d="M552.62 120.719C552.064 121.266 551.413 121.707 550.7 122.024C549.088 122.628 547.353 122.83 545.645 122.613L544.067 121.84L543.957 120.946L543.994 120.725H544.073C547.087 120.199 547.65 117.716 547.418 115.433L553.814 111.383C552.952 113.845 551.837 118.095 552.62 120.719Z" fill="#FFC3BD"/>
<path d="M554.102 118.763L553.05 120.251L550.241 122.192L546.964 122.718L544.586 122.366L543.818 121.319L544.513 119.404C545.66 119.199 546.82 119.074 547.984 119.031C550.335 118.931 552.366 118.815 554.102 118.763Z" fill="#FFC3BD"/>
<path d="M546.326 123.154C542.445 123.154 543.297 120.856 544.159 119.473C544.564 119.383 544.996 119.31 545.448 119.246C544.333 120.298 543.086 122.024 546.726 122.208C548.056 122.314 549.39 122.05 550.579 121.444C551.769 120.839 552.767 119.916 553.464 118.778L555.279 118.731C554.532 120.067 552.165 123.154 546.326 123.154Z" fill="#407BFF"/>
<path opacity="0.5" d="M546.326 123.154C542.445 123.154 543.297 120.856 544.159 119.473C544.564 119.383 544.996 119.31 545.448 119.246C544.333 120.298 543.086 122.024 546.726 122.208C548.056 122.314 549.39 122.05 550.579 121.444C551.769 120.839 552.767 119.916 553.464 118.778L555.279 118.731C554.532 120.067 552.165 123.154 546.326 123.154Z" fill="white"/>
<path opacity="0.2" d="M551.209 113.04L547.422 115.407C547.469 115.965 547.469 116.526 547.422 117.085C548.721 117.085 550.509 116.254 551.209 114.934C551.656 114.129 551.519 113.182 551.209 113.04Z" fill="black"/>
<path d="M547.601 107.381C550.509 105.65 552.103 102.063 551.861 101.269C551.619 100.475 547.054 99.0704 546.428 99.4018C543.308 100.98 545.265 105.287 545.265 105.287L544.182 106.708L547.601 107.381Z" fill="#263238"/>
<path d="M555.553 107.239C554.449 111.178 554.001 113.55 551.545 115.128C547.863 117.558 543.318 114.655 543.229 110.479C543.15 106.692 544.975 100.906 549.22 100.164C550.154 99.998 551.115 100.073 552.012 100.383C552.909 100.693 553.712 101.226 554.345 101.934C554.977 102.641 555.418 103.498 555.626 104.424C555.834 105.35 555.802 106.313 555.532 107.223L555.553 107.239Z" fill="#FFC3BD"/>
<path d="M555.774 110.053C558.494 108.049 559.661 104.53 559.309 103.783C559.083 103.288 558.761 102.842 558.362 102.471C557.963 102.1 557.495 101.811 556.985 101.621C556.474 101.431 555.931 101.343 555.387 101.363C554.843 101.383 554.308 101.51 553.812 101.737C550.656 103.247 553.234 108.222 553.234 108.222L552.287 109.779L555.774 110.053Z" fill="#263238"/>
<path d="M556.7 111.383C555.979 112.113 555.001 112.531 553.975 112.546C552.608 112.546 552.287 111.241 552.97 110.147C553.581 109.159 555.027 107.97 556.253 108.491C557.478 109.011 557.578 110.468 556.7 111.383Z" fill="#FFC3BD"/>
<path d="M549.079 107.044C549.011 107.37 548.784 107.57 548.553 107.57C548.321 107.57 548.227 107.228 548.295 106.902C548.364 106.576 548.595 106.35 548.821 106.376C549.047 106.402 549.137 106.723 549.079 107.044Z" fill="#263238"/>
<path d="M545.396 106.255C545.322 106.576 545.096 106.781 544.87 106.755C544.644 106.728 544.544 106.407 544.618 106.087C544.691 105.766 544.917 105.561 545.144 105.561C545.37 105.561 545.465 105.929 545.396 106.255Z" fill="#263238"/>
<path d="M546.733 106.67C546.13 107.578 545.404 108.398 544.576 109.106C544.765 109.312 544.996 109.476 545.254 109.585C545.512 109.694 545.79 109.746 546.07 109.737L546.733 106.67Z" fill="#ED847E"/>
<path d="M550.656 105.792C550.689 105.802 550.723 105.802 550.756 105.792C550.801 105.768 550.835 105.729 550.853 105.681C550.87 105.634 550.87 105.581 550.851 105.534C550.724 105.252 550.533 105.004 550.293 104.809C550.052 104.614 549.77 104.479 549.467 104.414C549.441 104.408 549.414 104.408 549.388 104.413C549.362 104.418 549.337 104.428 549.315 104.443C549.293 104.458 549.274 104.478 549.26 104.5C549.246 104.523 549.237 104.548 549.233 104.575C549.229 104.601 549.23 104.628 549.237 104.654C549.244 104.68 549.256 104.704 549.273 104.725C549.289 104.746 549.31 104.763 549.333 104.775C549.357 104.788 549.383 104.796 549.409 104.798C549.647 104.854 549.869 104.964 550.057 105.12C550.245 105.276 550.394 105.474 550.493 105.697C550.51 105.725 550.534 105.749 550.562 105.766C550.591 105.782 550.623 105.791 550.656 105.792Z" fill="#263238"/>
<path d="M544.286 104.467C544.319 104.469 544.351 104.463 544.381 104.449C544.41 104.435 544.436 104.414 544.454 104.388C544.6 104.193 544.789 104.035 545.006 103.926C545.224 103.816 545.463 103.758 545.706 103.757C545.757 103.761 545.808 103.745 545.847 103.713C545.886 103.68 545.911 103.634 545.917 103.583C545.92 103.557 545.917 103.531 545.91 103.507C545.902 103.482 545.89 103.459 545.873 103.439C545.856 103.419 545.835 103.403 545.812 103.392C545.789 103.38 545.764 103.374 545.738 103.373C545.428 103.365 545.12 103.432 544.841 103.567C544.562 103.703 544.32 103.903 544.134 104.151C544.118 104.171 544.106 104.193 544.099 104.217C544.092 104.242 544.09 104.267 544.093 104.292C544.096 104.317 544.104 104.341 544.116 104.363C544.129 104.385 544.145 104.404 544.165 104.419C544.181 104.435 544.2 104.447 544.221 104.456C544.242 104.464 544.264 104.467 544.286 104.467Z" fill="#263238"/>
<path d="M554.737 103.325C554.737 103.325 542.245 102.147 545.795 97.082C550.329 90.6072 551.255 96.0879 551.255 96.0879C551.255 96.0879 558.761 94.4363 556.515 98.8808C556.52 98.8808 563.585 102.941 554.737 103.325Z" fill="#263238"/>
<path d="M546.127 111.525C545.949 111.5 545.773 111.46 545.601 111.404C545.574 111.397 545.55 111.379 545.535 111.354C545.521 111.33 545.516 111.301 545.522 111.273C545.527 111.259 545.535 111.246 545.544 111.235C545.554 111.224 545.566 111.215 545.579 111.209C545.592 111.202 545.607 111.199 545.621 111.198C545.636 111.197 545.651 111.199 545.664 111.204C546.11 111.348 546.582 111.385 547.044 111.312C547.507 111.24 547.945 111.061 548.326 110.789C548.347 110.769 548.376 110.758 548.405 110.758C548.434 110.758 548.462 110.769 548.484 110.789C548.503 110.809 548.514 110.837 548.514 110.865C548.514 110.894 548.503 110.921 548.484 110.941C548.152 111.194 547.771 111.376 547.366 111.477C546.961 111.577 546.539 111.594 546.127 111.525Z" fill="#263238"/>
<path d="M516.595 207.278L502.719 205.604C502.419 205.567 502.145 205.413 501.958 205.175C501.771 204.937 501.687 204.634 501.723 204.334L501.741 204.188C501.777 203.887 501.931 203.613 502.169 203.426C502.407 203.24 502.71 203.155 503.011 203.191L516.886 204.865C517.188 204.902 517.463 205.057 517.65 205.296C517.838 205.535 517.923 205.839 517.887 206.141L517.869 206.287C517.833 206.588 517.679 206.862 517.441 207.048C517.202 207.235 516.9 207.32 516.599 207.284L516.595 207.278Z" fill="#407BFF"/>
<g opacity="0.4">
<path d="M516.593 207.278L502.717 205.604C502.417 205.567 502.143 205.413 501.956 205.175C501.769 204.937 501.685 204.634 501.721 204.334L501.739 204.188C501.775 203.887 501.929 203.613 502.167 203.426C502.405 203.24 502.708 203.155 503.009 203.191L516.884 204.865C517.186 204.902 517.461 205.057 517.649 205.296C517.836 205.535 517.921 205.839 517.885 206.141L517.867 206.287C517.831 206.588 517.677 206.862 517.439 207.048C517.2 207.235 516.898 207.32 516.597 207.284L516.593 207.278Z" fill="black"/>
</g>
<path d="M588.129 133.59H582.164C579.292 133.59 576.404 133.7 574.89 136.662C574.443 137.696 574.199 138.807 574.169 139.933L573.68 144.62C572.628 154.497 571.593 164.375 570.576 174.253C570.34 176.546 570.203 178.882 569.845 181.164C569.104 185.945 564.338 185.425 560.751 185.425H539.043C537.774 185.355 536.501 185.399 535.24 185.556C530.879 186.377 528.323 191.294 525.872 194.571L517.603 205.617C517.419 205.869 517.229 206.143 517.04 206.369C516.404 207.226 514.936 206.369 515.594 205.522C520.038 199.579 524.42 193.572 528.938 187.681C529.855 186.462 531.042 185.472 532.405 184.788C533.768 184.103 535.271 183.744 536.797 183.736C538.027 183.71 539.258 183.736 540.479 183.736H562.571C563.654 183.736 565.017 183.915 566.063 183.557C568.914 182.584 568.551 177.682 568.804 175.279C569.856 165.254 570.908 155.225 571.96 145.193C572.212 142.763 572.302 140.249 572.749 137.829C573.077 136.17 573.967 134.674 575.269 133.593C576.571 132.513 578.205 131.914 579.897 131.896C581.927 131.833 583.974 131.896 586.009 131.896H588.145C588.367 131.896 588.579 131.984 588.736 132.141C588.893 132.298 588.981 132.511 588.981 132.733C588.981 132.954 588.893 133.167 588.736 133.324C588.579 133.481 588.367 133.569 588.145 133.569L588.129 133.59Z" fill="#407BFF"/>
<g opacity="0.5">
<path d="M588.129 133.59H582.164C579.292 133.59 576.404 133.7 574.89 136.662C574.443 137.696 574.199 138.807 574.169 139.933L573.68 144.62C572.628 154.497 571.593 164.375 570.576 174.253C570.34 176.546 570.203 178.882 569.845 181.164C569.104 185.945 564.338 185.425 560.751 185.425H539.043C537.774 185.355 536.501 185.399 535.24 185.556C530.879 186.377 528.323 191.294 525.872 194.571L517.603 205.617C517.419 205.869 517.229 206.143 517.04 206.369C516.404 207.226 514.936 206.369 515.594 205.522C520.038 199.579 524.42 193.572 528.938 187.681C529.855 186.462 531.042 185.472 532.405 184.788C533.768 184.103 535.271 183.744 536.797 183.736C538.027 183.71 539.258 183.736 540.479 183.736H562.571C563.654 183.736 565.017 183.915 566.063 183.557C568.914 182.584 568.551 177.682 568.804 175.279C569.856 165.254 570.908 155.225 571.96 145.193C572.212 142.763 572.302 140.249 572.749 137.829C573.077 136.17 573.967 134.674 575.269 133.593C576.571 132.513 578.205 131.914 579.897 131.896C581.927 131.833 583.974 131.896 586.009 131.896H588.145C588.367 131.896 588.579 131.984 588.736 132.141C588.893 132.298 588.981 132.511 588.981 132.733C588.981 132.954 588.893 133.167 588.736 133.324C588.579 133.481 588.367 133.569 588.145 133.569L588.129 133.59Z" fill="white"/>
</g>
<path d="M589.133 133.974H580.88C579.339 133.974 579.339 131.581 580.88 131.581H589.133C590.675 131.581 590.675 133.974 589.133 133.974Z" fill="#407BFF"/>
<g opacity="0.4">
<path d="M589.133 133.974H580.88C579.339 133.974 579.339 131.581 580.88 131.581H589.133C590.675 131.581 590.675 133.974 589.133 133.974Z" fill="black"/>
</g>
<path d="M531.926 201.598C531.926 197.832 534.677 194.761 538.064 194.761C541.452 194.761 544.203 197.822 544.203 201.598C544.203 205.375 541.446 208.436 538.064 208.436C534.682 208.436 531.926 205.359 531.926 201.598ZM534.798 201.598C534.798 203.776 536.26 205.548 538.064 205.548C539.868 205.548 541.325 203.776 541.325 201.598C541.325 199.421 539.863 197.643 538.064 197.643C536.265 197.643 534.798 199.416 534.798 201.598Z" fill="#263238"/>
<g opacity="0.1">
<path d="M531.926 201.598C531.926 197.832 534.677 194.761 538.064 194.761C541.452 194.761 544.203 197.822 544.203 201.598C544.203 205.375 541.446 208.436 538.064 208.436C534.682 208.436 531.926 205.359 531.926 201.598ZM534.798 201.598C534.798 203.776 536.26 205.548 538.064 205.548C539.868 205.548 541.325 203.776 541.325 201.598C541.325 199.421 539.863 197.643 538.064 197.643C536.265 197.643 534.798 199.416 534.798 201.598Z" fill="white"/>
</g>
<path d="M571.696 155.297C561.381 155.297 551.066 155.239 540.752 155.297C537.469 155.297 534.966 157.49 534.86 160.862C534.813 162.44 534.86 164.049 534.86 165.643V195.35C534.86 197.98 534.65 201.325 538.311 201.509C539.363 201.562 539.363 203.239 538.311 203.182C534.95 203.013 533.182 200.436 533.182 197.291V168.32C533.182 163.502 531.973 156.628 537.433 154.229C539.3 153.409 541.446 153.624 543.439 153.624H571.696C571.918 153.624 572.131 153.712 572.288 153.869C572.444 154.026 572.532 154.239 572.532 154.461C572.532 154.682 572.444 154.895 572.288 155.052C572.131 155.209 571.918 155.297 571.696 155.297Z" fill="#407BFF"/>
<g opacity="0.7">
<path d="M571.696 155.297C561.381 155.297 551.066 155.239 540.752 155.297C537.469 155.297 534.966 157.49 534.86 160.862C534.813 162.44 534.86 164.049 534.86 165.643V195.35C534.86 197.98 534.65 201.325 538.311 201.509C539.363 201.562 539.363 203.239 538.311 203.182C534.95 203.013 533.182 200.436 533.182 197.291V168.32C533.182 163.502 531.973 156.628 537.433 154.229C539.3 153.409 541.446 153.624 543.439 153.624H571.696C571.918 153.624 572.131 153.712 572.288 153.869C572.444 154.026 572.532 154.239 572.532 154.461C572.532 154.682 572.444 154.895 572.288 155.052C572.131 155.209 571.918 155.297 571.696 155.297Z" fill="white"/>
</g>
<path d="M544.724 155.839H564.265C565.34 155.839 566.211 154.968 566.211 153.893V153.635C566.211 152.56 565.34 151.689 564.265 151.689H544.724C543.649 151.689 542.778 152.56 542.778 153.635V153.893C542.778 154.968 543.649 155.839 544.724 155.839Z" fill="#407BFF"/>
<path opacity="0.4" d="M544.724 155.839H564.265C565.34 155.839 566.211 154.968 566.211 153.893V153.635C566.211 152.56 565.34 151.689 564.265 151.689H544.724C543.649 151.689 542.778 152.56 542.778 153.635V153.893C542.778 154.968 543.649 155.839 544.724 155.839Z" fill="black"/>
<path d="M547.611 184.583C547.611 171.434 557.021 160.746 568.588 160.746C580.155 160.746 589.581 171.439 589.581 184.583C589.581 197.727 580.171 208.426 568.599 208.426C557.027 208.426 547.611 197.727 547.611 184.583ZM550.489 184.583C550.489 196.155 558.61 205.549 568.588 205.549C578.566 205.549 586.693 196.144 586.693 184.583C586.693 173.022 578.572 163.618 568.588 163.618C558.605 163.618 550.489 173.022 550.489 184.583Z" fill="#263238"/>
<g opacity="0.1">
<path d="M547.611 184.583C547.611 171.434 557.021 160.746 568.588 160.746C580.155 160.746 589.581 171.439 589.581 184.583C589.581 197.727 580.171 208.426 568.599 208.426C557.027 208.426 547.611 197.727 547.611 184.583ZM550.489 184.583C550.489 196.155 558.61 205.549 568.588 205.549C578.566 205.549 586.693 196.144 586.693 184.583C586.693 173.022 578.572 163.618 568.588 163.618C558.605 163.618 550.489 173.022 550.489 184.583Z" fill="white"/>
</g>
<path d="M551.33 184.583C551.33 173.727 559.073 164.891 568.588 164.891C578.103 164.891 585.851 173.727 585.851 184.583C585.851 195.439 578.109 204.276 568.588 204.276C559.068 204.276 551.33 195.444 551.33 184.583ZM552.608 184.583C552.608 194.74 559.778 202.992 568.588 202.992C577.399 202.992 584.573 194.734 584.573 184.583C584.573 174.432 577.404 166.174 568.588 166.174C559.772 166.174 552.608 174.432 552.608 184.583Z" fill="#407BFF"/>
<g opacity="0.7">
<path d="M551.33 184.583C551.33 173.727 559.073 164.891 568.588 164.891C578.103 164.891 585.851 173.727 585.851 184.583C585.851 195.439 578.109 204.276 568.588 204.276C559.068 204.276 551.33 195.444 551.33 184.583ZM552.608 184.583C552.608 194.74 559.778 202.992 568.588 202.992C577.399 202.992 584.573 194.734 584.573 184.583C584.573 174.432 577.404 166.174 568.588 166.174C559.772 166.174 552.608 174.432 552.608 184.583Z" fill="white"/>
</g>
<defs>
<linearGradient id="paint0_linear_10373_7908" x1="0" y1="114" x2="794" y2="114" gradientUnits="userSpaceOnUse">
<stop offset="0.235092" stop-color="white"/>
<stop offset="0.471733" stop-color="#EDF2FF"/>
<stop offset="1" stop-color="#C4D6FF"/>
</linearGradient>
</defs>
</svg>
