<svg width="28" height="28" viewBox="0 0 28 28" fill="none" xmlns="http://www.w3.org/2000/svg">
<path opacity="0.45" d="M23.916 11.8883H20.5443C17.7793 11.8883 15.5277 9.63658 15.5277 6.87158V3.49992C15.5277 2.85825 15.0027 2.33325 14.361 2.33325H9.41435C5.82102 2.33325 2.91602 4.66659 2.91602 8.83159V19.1683C2.91602 23.3333 5.82102 25.6666 9.41435 25.6666H18.5843C22.1777 25.6666 25.0827 23.3333 25.0827 19.1683V13.0549C25.0827 12.4133 24.5577 11.8883 23.916 11.8883Z" fill="#0E73A9"/>
<path d="M18.4336 2.57841C17.9553 2.10007 17.127 2.42674 17.127 3.09174V7.16341C17.127 8.86674 18.5736 10.2784 20.3353 10.2784C21.4436 10.2901 22.9836 10.2901 24.302 10.2901C24.967 10.2901 25.317 9.50841 24.8503 9.04174C23.1703 7.35007 20.1603 4.30507 18.4336 2.57841Z" fill="#0E73A9"/>
<path d="M15.75 16.0417H8.75C8.27167 16.0417 7.875 15.6451 7.875 15.1667C7.875 14.6884 8.27167 14.2917 8.75 14.2917H15.75C16.2283 14.2917 16.625 14.6884 16.625 15.1667C16.625 15.6451 16.2283 16.0417 15.75 16.0417Z" fill="#0E73A9"/>
<path d="M13.4167 20.7083H8.75C8.27167 20.7083 7.875 20.3116 7.875 19.8333C7.875 19.3549 8.27167 18.9583 8.75 18.9583H13.4167C13.895 18.9583 14.2917 19.3549 14.2917 19.8333C14.2917 20.3116 13.895 20.7083 13.4167 20.7083Z" fill="#0E73A9"/>
</svg>
