<svg width="375" height="257" viewBox="0 0 375 257" fill="none" xmlns="http://www.w3.org/2000/svg">
<g clip-path="url(#clip0_10572_16419)">
<rect width="375" height="257" fill="url(#paint0_linear_10572_16419)"/>
<rect x="16" y="26" width="40" height="40" rx="6" fill="white"/>
<path d="M33.9589 35.0671L32.418 36.9244V38.2495L32.4278 39.5747L32.8302 39.8257C33.0461 39.9662 33.4093 40.2975 33.6252 40.5786C34.3711 41.5324 34.6753 42.5664 34.6753 44.1124C34.6753 44.7047 34.7244 45.0561 34.8422 45.277C35.2839 46.1504 34.7931 47.6061 33.1835 50.1862C33.0265 50.4472 32.9087 50.7082 32.9283 50.7684C32.9676 50.8889 35.2642 52.6759 35.382 52.6759C35.4311 52.6759 35.4605 48.5598 35.4605 43.5402C35.4605 38.5105 35.4998 34.4045 35.539 34.4045C35.5881 34.4045 36.864 35.0069 38.3657 35.7397L41.104 37.085L41.1334 38.0989C41.153 38.7716 41.1236 39.1229 41.0549 39.1229C40.996 39.1229 40.6918 38.9824 40.3679 38.8218C40.044 38.6511 39.7692 38.5206 39.7495 38.5206C39.7201 38.5206 39.0134 39.3538 38.1694 40.3678L36.6383 42.2251V47.7767L36.6481 53.3284L37.3744 53.6698C38.3755 54.1316 39.2686 54.754 39.4944 55.1255C39.6808 55.4367 39.6808 55.3363 39.6808 47.576C39.6808 43.2591 39.7201 39.7253 39.7594 39.7253C39.8771 39.7253 45.1084 42.3054 45.2556 42.4359C45.393 42.5564 45.4224 43.9016 45.2949 43.9819C45.2458 44.012 44.9906 43.9217 44.7158 43.8012C43.8128 43.3695 43.9895 43.2792 42.3014 45.0963L40.7605 46.7628V52.3747V57.9967H40.3581H39.9655L39.9949 58.3681L40.0244 58.7496H41.9382H43.8521L43.8815 51.8426C43.8913 48.0478 43.9306 44.9457 43.9797 44.9457C44.0189 44.9457 45.285 45.528 46.7965 46.2307L49.5446 47.5157L49.5741 53.1578L49.5937 58.7998H50.477H51.3603V58.4083C51.3603 58.077 51.3211 58.0067 51.1444 57.9766L50.9187 57.9465L50.8696 52.2743L50.8205 46.6122L49.152 45.8492C48.2393 45.4276 47.2283 44.9658 46.9241 44.8252L46.3548 44.5542V43.1587V41.7633L44.2447 40.7192L42.1345 39.6851V38.0487V36.4224L40.6918 35.6996C38.8172 34.776 35.5587 33.1998 35.5292 33.1998C35.5096 33.1998 34.8029 34.0331 33.9589 35.0671Z" fill="#0F6DDB"/>
<path d="M29.042 39.9361C27.8446 40.1168 26.9711 40.7192 26.4215 41.7532C26.0878 42.3756 26.0878 42.4058 26.0583 43.8615C26.0289 45.1565 25.9994 45.3573 25.8326 45.5079C25.332 45.9697 25.7835 47.2246 27.3539 49.7846C27.6287 50.2163 27.7072 50.4572 27.7072 50.7985C27.7072 51.2302 27.6876 51.2704 27.0496 51.7924C25.7246 52.8967 25.0867 53.3084 23.1924 54.2922C22.1226 54.8444 21.1902 55.3664 21.1117 55.4668C21.0136 55.5772 20.9056 56.1495 20.7977 57.1433C20.7093 57.9665 20.6406 58.6793 20.6406 58.7195C20.6406 58.7697 24.8021 58.7998 29.8763 58.7998H39.1217L39.0628 58.4183C39.0334 58.2175 38.9548 57.5047 38.8861 56.8422C38.7782 55.768 38.7389 55.6174 38.5132 55.4065C38.3758 55.276 37.4826 54.7741 36.5404 54.2922C34.6658 53.3385 34.2929 53.1076 32.9384 52.0033L32.0257 51.2704V50.7684C32.0257 50.3568 32.0846 50.1761 32.3594 49.7946C32.536 49.5236 32.8108 49.0618 32.9581 48.7606C33.1053 48.4695 33.331 48.0578 33.4586 47.8571C33.7531 47.4053 34.0868 46.4114 34.0868 45.9998C34.0868 45.8091 34.0082 45.6083 33.9003 45.5079C33.7432 45.3573 33.7138 45.1465 33.6745 43.9116C33.6353 42.3756 33.5077 41.9138 32.9384 41.1509C32.2416 40.2072 30.6025 39.6952 29.042 39.9361Z" fill="#0F6DDB"/>
<path d="M45.1797 47.9973V48.941L45.798 49.1518C46.1317 49.2623 46.8678 49.4932 47.4273 49.6638C47.9867 49.8445 48.5069 50.0052 48.5854 50.0353C48.7621 50.1056 48.7719 48.8306 48.5854 48.68C48.4774 48.5896 45.2975 47.0536 45.2189 47.0536C45.1993 47.0536 45.1797 47.4753 45.1797 47.9973Z" fill="#0F6DDB"/>
<path d="M45.1949 51.4913L45.2243 52.425L46.6474 52.5957C47.4326 52.686 48.2178 52.7663 48.3945 52.7663L48.7183 52.7764L48.6889 52.1539L48.6594 51.5315L46.9419 51.0597C45.9997 50.7886 45.2145 50.5778 45.1949 50.5677C45.185 50.5677 45.185 50.9894 45.1949 51.4913Z" fill="#0F6DDB"/>
<path d="M45.1797 54.7838V55.5869L46.9267 55.5668L48.6639 55.5367V54.8842V54.2316L47.4861 54.1212C46.8384 54.0509 46.0532 54.0007 45.7489 53.9907L45.1797 53.9806V54.7838Z" fill="#0F6DDB"/>
<path d="M45.1797 57.9967V58.7998L46.9267 58.7797L48.6639 58.7496L48.6933 57.9665L48.7228 57.1935H46.9463H45.1797V57.9967Z" fill="#0F6DDB"/>
<path d="M17.9176 105V87.5455H28.8608V89.8125H20.5511V95.1307H28.2898V97.3892H20.5511V102.733H28.9631V105H17.9176ZM32.174 105V91.9091H34.62V94.0398H34.782C35.0547 93.3182 35.5007 92.7557 36.12 92.3523C36.7393 91.9432 37.4808 91.7386 38.3445 91.7386C39.2195 91.7386 39.9524 91.9432 40.5433 92.3523C41.1399 92.7614 41.5803 93.3239 41.8643 94.0398H42.0007C42.3132 93.3409 42.8104 92.7841 43.4922 92.3693C44.174 91.9489 44.9865 91.7386 45.9297 91.7386C47.1172 91.7386 48.0859 92.1108 48.8359 92.8551C49.5916 93.5994 49.9695 94.7216 49.9695 96.2216V105H47.4212V96.4602C47.4212 95.5739 47.1797 94.9318 46.6967 94.5341C46.2138 94.1364 45.6371 93.9375 44.9666 93.9375C44.1371 93.9375 43.4922 94.1932 43.032 94.7045C42.5717 95.2102 42.3416 95.8608 42.3416 96.6562V105H39.8018V96.2983C39.8018 95.5881 39.5803 95.017 39.1371 94.5852C38.6939 94.1534 38.1172 93.9375 37.407 93.9375C36.924 93.9375 36.478 94.0653 36.0689 94.321C35.6655 94.571 35.3388 94.9205 35.0888 95.3693C34.8445 95.8182 34.7223 96.3381 34.7223 96.929V105H32.174ZM53.3849 109.909V91.9091H55.8736V94.0312H56.0866C56.2344 93.7585 56.4474 93.4432 56.7259 93.0852C57.0043 92.7273 57.3906 92.4148 57.8849 92.1477C58.3793 91.875 59.0327 91.7386 59.8452 91.7386C60.902 91.7386 61.8452 92.0057 62.6747 92.5398C63.5043 93.0739 64.1548 93.8437 64.6264 94.8494C65.1037 95.8551 65.3423 97.0653 65.3423 98.4801C65.3423 99.8949 65.1065 101.108 64.6349 102.119C64.1634 103.125 63.5156 103.901 62.6918 104.446C61.8679 104.986 60.9276 105.256 59.8707 105.256C59.0753 105.256 58.4247 105.122 57.919 104.855C57.419 104.588 57.027 104.276 56.7429 103.918C56.4588 103.56 56.2401 103.241 56.0866 102.963H55.9332V109.909H53.3849ZM55.8821 98.4545C55.8821 99.375 56.0156 100.182 56.2827 100.875C56.5497 101.568 56.9361 102.111 57.4418 102.503C57.9474 102.889 58.5668 103.082 59.2997 103.082C60.0611 103.082 60.6974 102.881 61.2088 102.477C61.7202 102.068 62.1065 101.514 62.3679 100.815C62.6349 100.116 62.7685 99.3295 62.7685 98.4545C62.7685 97.5909 62.6378 96.8153 62.3764 96.1278C62.1207 95.4403 61.7344 94.8977 61.2173 94.5C60.706 94.1023 60.0668 93.9034 59.2997 93.9034C58.5611 93.9034 57.9361 94.0937 57.4247 94.4744C56.919 94.8551 56.5355 95.3864 56.2741 96.0682C56.0128 96.75 55.8821 97.5455 55.8821 98.4545ZM70.7457 87.5455V105H68.1974V87.5455H70.7457ZM79.6882 105.264C78.4609 105.264 77.3899 104.983 76.4751 104.42C75.5604 103.858 74.8501 103.071 74.3445 102.06C73.8388 101.048 73.5859 99.8665 73.5859 98.5142C73.5859 97.1562 73.8388 95.9687 74.3445 94.9517C74.8501 93.9347 75.5604 93.1449 76.4751 92.5824C77.3899 92.0199 78.4609 91.7386 79.6882 91.7386C80.9155 91.7386 81.9865 92.0199 82.9013 92.5824C83.8161 93.1449 84.5263 93.9347 85.032 94.9517C85.5376 95.9687 85.7905 97.1562 85.7905 98.5142C85.7905 99.8665 85.5376 101.048 85.032 102.06C84.5263 103.071 83.8161 103.858 82.9013 104.42C81.9865 104.983 80.9155 105.264 79.6882 105.264ZM79.6967 103.125C80.4922 103.125 81.1513 102.915 81.674 102.494C82.1967 102.074 82.5831 101.514 82.8331 100.815C83.0888 100.116 83.2166 99.3466 83.2166 98.5057C83.2166 97.6705 83.0888 96.9034 82.8331 96.2045C82.5831 95.5 82.1967 94.9347 81.674 94.5085C81.1513 94.0824 80.4922 93.8693 79.6967 93.8693C78.8956 93.8693 78.2308 94.0824 77.7024 94.5085C77.1797 94.9347 76.7905 95.5 76.5348 96.2045C76.2848 96.9034 76.1598 97.6705 76.1598 98.5057C76.1598 99.3466 76.2848 100.116 76.5348 100.815C76.7905 101.514 77.1797 102.074 77.7024 102.494C78.2308 102.915 78.8956 103.125 79.6967 103.125ZM89.8004 109.909C89.4197 109.909 89.0732 109.878 88.7607 109.815C88.4482 109.759 88.2152 109.696 88.0618 109.628L88.6754 107.54C89.1413 107.665 89.5561 107.719 89.9197 107.702C90.2834 107.685 90.6044 107.548 90.8828 107.293C91.1669 107.037 91.4169 106.619 91.6328 106.04L91.9482 105.17L87.1584 91.9091H89.8857L93.201 102.068H93.3374L96.6527 91.9091H99.3885L93.9936 106.747C93.7436 107.429 93.4254 108.006 93.0391 108.477C92.6527 108.955 92.1925 109.313 91.6584 109.551C91.1243 109.79 90.505 109.909 89.8004 109.909ZM106.98 105.264C105.69 105.264 104.58 104.989 103.648 104.438C102.722 103.881 102.006 103.099 101.5 102.094C101 101.082 100.75 99.8977 100.75 98.5398C100.75 97.1989 101 96.017 101.5 94.9943C102.006 93.9716 102.71 93.1733 103.614 92.5994C104.523 92.0256 105.585 91.7386 106.801 91.7386C107.54 91.7386 108.256 91.8608 108.949 92.1051C109.642 92.3494 110.264 92.733 110.815 93.2557C111.366 93.7784 111.801 94.4574 112.119 95.2926C112.438 96.1222 112.597 97.1307 112.597 98.3182V99.2216H102.19V97.3125H110.099C110.099 96.642 109.963 96.0483 109.69 95.5312C109.418 95.0085 109.034 94.5966 108.54 94.2955C108.051 93.9943 107.477 93.8438 106.818 93.8438C106.102 93.8438 105.477 94.0199 104.943 94.3722C104.415 94.7187 104.006 95.1733 103.716 95.7358C103.432 96.2926 103.29 96.8977 103.29 97.5511V99.0426C103.29 99.9176 103.443 100.662 103.75 101.276C104.062 101.889 104.497 102.358 105.054 102.682C105.611 103 106.261 103.159 107.006 103.159C107.489 103.159 107.929 103.091 108.327 102.955C108.724 102.812 109.068 102.602 109.358 102.324C109.648 102.045 109.869 101.702 110.023 101.293L112.435 101.727C112.241 102.437 111.895 103.06 111.395 103.594C110.901 104.122 110.278 104.534 109.528 104.83C108.784 105.119 107.935 105.264 106.98 105.264ZM115.424 105V91.9091H117.887V93.9886H118.023C118.262 93.2841 118.683 92.7301 119.285 92.3267C119.893 91.9176 120.58 91.7131 121.347 91.7131C121.506 91.7131 121.694 91.7187 121.91 91.7301C122.131 91.7415 122.305 91.7557 122.43 91.7727V94.2102C122.327 94.1818 122.146 94.1506 121.884 94.1165C121.623 94.0767 121.362 94.0568 121.1 94.0568C120.498 94.0568 119.961 94.1847 119.489 94.4403C119.023 94.6903 118.654 95.0398 118.381 95.4886C118.109 95.9318 117.972 96.4375 117.972 97.0057V105H115.424ZM131.191 105V87.5455H137.413C138.765 87.5455 139.887 87.7784 140.779 88.2443C141.677 88.7102 142.347 89.3551 142.79 90.179C143.234 90.9972 143.455 91.9432 143.455 93.017C143.455 94.0852 143.231 95.0256 142.782 95.8381C142.339 96.6449 141.668 97.2727 140.771 97.7216C139.879 98.1705 138.756 98.3949 137.404 98.3949H132.691V96.1278H137.165C138.018 96.1278 138.711 96.0057 139.245 95.7614C139.785 95.517 140.18 95.1619 140.43 94.696C140.68 94.2301 140.805 93.6705 140.805 93.017C140.805 92.358 140.677 91.7869 140.421 91.304C140.171 90.821 139.776 90.4517 139.237 90.196C138.702 89.9347 138.001 89.804 137.131 89.804H133.825V105H131.191ZM139.808 97.125L144.12 105H141.12L136.893 97.125H139.808ZM151.933 105.264C150.643 105.264 149.533 104.989 148.601 104.438C147.675 103.881 146.959 103.099 146.453 102.094C145.953 101.082 145.703 99.8977 145.703 98.5398C145.703 97.1989 145.953 96.017 146.453 94.9943C146.959 93.9716 147.663 93.1733 148.567 92.5994C149.476 92.0256 150.538 91.7386 151.754 91.7386C152.493 91.7386 153.209 91.8608 153.902 92.1051C154.595 92.3494 155.217 92.733 155.768 93.2557C156.32 93.7784 156.754 94.4574 157.072 95.2926C157.391 96.1222 157.55 97.1307 157.55 98.3182V99.2216H147.143V97.3125H155.053C155.053 96.642 154.916 96.0483 154.643 95.5312C154.371 95.0085 153.987 94.5966 153.493 94.2955C153.004 93.9943 152.43 93.8438 151.771 93.8438C151.055 93.8438 150.43 94.0199 149.896 94.3722C149.368 94.7187 148.959 95.1733 148.669 95.7358C148.385 96.2926 148.243 96.8977 148.243 97.5511V99.0426C148.243 99.9176 148.396 100.662 148.703 101.276C149.016 101.889 149.45 102.358 150.007 102.682C150.564 103 151.214 103.159 151.959 103.159C152.442 103.159 152.882 103.091 153.28 102.955C153.678 102.812 154.021 102.602 154.311 102.324C154.601 102.045 154.822 101.702 154.976 101.293L157.388 101.727C157.195 102.437 156.848 103.06 156.348 103.594C155.854 104.122 155.232 104.534 154.482 104.83C153.737 105.119 152.888 105.264 151.933 105.264ZM165.866 110.182C164.826 110.182 163.931 110.045 163.181 109.773C162.437 109.5 161.829 109.139 161.357 108.69C160.886 108.241 160.533 107.75 160.3 107.216L162.491 106.312C162.644 106.562 162.849 106.827 163.104 107.105C163.366 107.389 163.718 107.631 164.161 107.83C164.61 108.028 165.187 108.128 165.891 108.128C166.857 108.128 167.656 107.892 168.286 107.42C168.917 106.955 169.232 106.21 169.232 105.188V102.614H169.07C168.917 102.892 168.695 103.202 168.406 103.543C168.121 103.884 167.729 104.179 167.229 104.429C166.729 104.679 166.079 104.804 165.278 104.804C164.244 104.804 163.312 104.562 162.482 104.08C161.658 103.591 161.005 102.872 160.522 101.923C160.045 100.969 159.806 99.7955 159.806 98.4034C159.806 97.0114 160.042 95.8182 160.513 94.8239C160.991 93.8295 161.644 93.0682 162.474 92.5398C163.303 92.0057 164.244 91.7386 165.295 91.7386C166.107 91.7386 166.763 91.875 167.263 92.1477C167.763 92.4148 168.153 92.7273 168.431 93.0852C168.715 93.4432 168.934 93.7585 169.087 94.0312H169.275V91.9091H171.772V105.29C171.772 106.415 171.511 107.338 170.988 108.06C170.465 108.781 169.758 109.315 168.866 109.662C167.979 110.009 166.979 110.182 165.866 110.182ZM165.84 102.69C166.573 102.69 167.192 102.52 167.698 102.179C168.21 101.832 168.596 101.338 168.857 100.696C169.124 100.048 169.258 99.2727 169.258 98.3693C169.258 97.4886 169.127 96.7131 168.866 96.0426C168.604 95.3722 168.221 94.8494 167.715 94.4744C167.21 94.0937 166.585 93.9034 165.84 93.9034C165.073 93.9034 164.434 94.1023 163.923 94.5C163.411 94.892 163.025 95.4261 162.763 96.1023C162.508 96.7784 162.38 97.5341 162.38 98.3693C162.38 99.2273 162.511 99.9801 162.772 100.628C163.033 101.276 163.42 101.781 163.931 102.145C164.448 102.509 165.085 102.69 165.84 102.69ZM175.19 105V91.9091H177.738V105H175.19ZM176.477 89.8892C176.033 89.8892 175.653 89.7415 175.335 89.446C175.022 89.1449 174.866 88.7869 174.866 88.3722C174.866 87.9517 175.022 87.5937 175.335 87.2983C175.653 86.9972 176.033 86.8466 176.477 86.8466C176.92 86.8466 177.298 86.9972 177.61 87.2983C177.928 87.5937 178.087 87.9517 178.087 88.3722C178.087 88.7869 177.928 89.1449 177.61 89.446C177.298 89.7415 176.92 89.8892 176.477 89.8892ZM190.976 95.1051L188.666 95.5142C188.57 95.2187 188.416 94.9375 188.206 94.6705C188.001 94.4034 187.723 94.1847 187.371 94.0142C187.018 93.8437 186.578 93.7585 186.05 93.7585C185.328 93.7585 184.726 93.9205 184.243 94.2443C183.76 94.5625 183.518 94.9744 183.518 95.4801C183.518 95.9176 183.68 96.2699 184.004 96.5369C184.328 96.804 184.851 97.0227 185.572 97.1932L187.652 97.6705C188.857 97.9489 189.754 98.3778 190.345 98.9574C190.936 99.5369 191.232 100.29 191.232 101.216C191.232 102 191.004 102.699 190.55 103.312C190.101 103.92 189.473 104.398 188.666 104.744C187.865 105.091 186.936 105.264 185.879 105.264C184.413 105.264 183.217 104.952 182.291 104.327C181.365 103.696 180.797 102.801 180.587 101.642L183.05 101.267C183.203 101.909 183.518 102.395 183.996 102.724C184.473 103.048 185.095 103.21 185.862 103.21C186.697 103.21 187.365 103.037 187.865 102.69C188.365 102.338 188.615 101.909 188.615 101.403C188.615 100.994 188.462 100.651 188.155 100.372C187.854 100.094 187.391 99.8835 186.766 99.7415L184.55 99.2557C183.328 98.9773 182.425 98.5341 181.839 97.9261C181.26 97.3182 180.97 96.5483 180.97 95.6165C180.97 94.8437 181.186 94.1676 181.618 93.5881C182.05 93.0085 182.646 92.5568 183.408 92.233C184.169 91.9034 185.041 91.7386 186.024 91.7386C187.439 91.7386 188.553 92.0455 189.365 92.6591C190.178 93.267 190.714 94.0824 190.976 95.1051ZM200.144 91.9091V93.9545H192.994V91.9091H200.144ZM194.911 88.7727H197.46V101.156C197.46 101.651 197.533 102.023 197.681 102.273C197.829 102.517 198.019 102.685 198.252 102.776C198.491 102.861 198.749 102.903 199.028 102.903C199.232 102.903 199.411 102.889 199.565 102.861C199.718 102.832 199.837 102.81 199.923 102.793L200.383 104.898C200.235 104.955 200.025 105.011 199.752 105.068C199.479 105.131 199.138 105.165 198.729 105.17C198.059 105.182 197.434 105.062 196.854 104.812C196.275 104.562 195.806 104.176 195.448 103.653C195.09 103.131 194.911 102.474 194.911 101.685V88.7727ZM202.963 105V91.9091H205.426V93.9886H205.562C205.801 93.2841 206.222 92.7301 206.824 92.3267C207.432 91.9176 208.119 91.7131 208.886 91.7131C209.045 91.7131 209.233 91.7187 209.449 91.7301C209.67 91.7415 209.844 91.7557 209.969 91.7727V94.2102C209.866 94.1818 209.685 94.1506 209.423 94.1165C209.162 94.0767 208.901 94.0568 208.639 94.0568C208.037 94.0568 207.5 94.1847 207.028 94.4403C206.563 94.6903 206.193 95.0398 205.92 95.4886C205.648 95.9318 205.511 96.4375 205.511 97.0057V105H202.963ZM215.866 105.29C215.037 105.29 214.287 105.136 213.616 104.83C212.946 104.517 212.415 104.065 212.023 103.474C211.636 102.884 211.443 102.159 211.443 101.301C211.443 100.562 211.585 99.9545 211.869 99.4773C212.153 99 212.537 98.6222 213.02 98.3438C213.503 98.0653 214.043 97.8551 214.639 97.7131C215.236 97.571 215.844 97.4631 216.463 97.3892C217.247 97.2983 217.884 97.2244 218.372 97.1676C218.861 97.1051 219.216 97.0057 219.438 96.8693C219.659 96.733 219.77 96.5114 219.77 96.2045V96.1449C219.77 95.4006 219.56 94.8239 219.139 94.4148C218.724 94.0057 218.105 93.8011 217.281 93.8011C216.423 93.8011 215.747 93.9915 215.253 94.3722C214.764 94.7472 214.426 95.1648 214.239 95.625L211.844 95.0795C212.128 94.2841 212.543 93.642 213.088 93.1534C213.639 92.6591 214.273 92.3011 214.989 92.0795C215.705 91.8523 216.457 91.7386 217.247 91.7386C217.77 91.7386 218.324 91.8011 218.909 91.9261C219.5 92.0455 220.051 92.267 220.562 92.5909C221.08 92.9148 221.503 93.3778 221.832 93.9801C222.162 94.5767 222.327 95.3523 222.327 96.3068V105H219.838V103.21H219.736C219.571 103.54 219.324 103.864 218.994 104.182C218.665 104.5 218.241 104.764 217.724 104.974C217.207 105.185 216.588 105.29 215.866 105.29ZM216.42 103.244C217.125 103.244 217.727 103.105 218.227 102.827C218.733 102.548 219.116 102.185 219.378 101.736C219.645 101.281 219.778 100.795 219.778 100.278V98.5909C219.688 98.6818 219.511 98.767 219.25 98.8466C218.994 98.9205 218.702 98.9858 218.372 99.0426C218.043 99.0937 217.722 99.142 217.409 99.1875C217.097 99.2273 216.835 99.2614 216.625 99.2898C216.131 99.3523 215.679 99.4574 215.27 99.6051C214.866 99.7528 214.543 99.9659 214.298 100.244C214.06 100.517 213.94 100.881 213.94 101.335C213.94 101.966 214.173 102.443 214.639 102.767C215.105 103.085 215.699 103.244 216.42 103.244ZM231.832 91.9091V93.9545H224.681V91.9091H231.832ZM226.599 88.7727H229.147V101.156C229.147 101.651 229.221 102.023 229.369 102.273C229.516 102.517 229.707 102.685 229.94 102.776C230.178 102.861 230.437 102.903 230.715 102.903C230.92 102.903 231.099 102.889 231.252 102.861C231.406 102.832 231.525 102.81 231.61 102.793L232.07 104.898C231.923 104.955 231.712 105.011 231.44 105.068C231.167 105.131 230.826 105.165 230.417 105.17C229.746 105.182 229.121 105.062 228.542 104.812C227.962 104.562 227.494 104.176 227.136 103.653C226.778 103.131 226.599 102.474 226.599 101.685V88.7727ZM234.651 105V91.9091H237.199V105H234.651ZM235.938 89.8892C235.494 89.8892 235.114 89.7415 234.795 89.446C234.483 89.1449 234.327 88.7869 234.327 88.3722C234.327 87.9517 234.483 87.5937 234.795 87.2983C235.114 86.9972 235.494 86.8466 235.938 86.8466C236.381 86.8466 236.759 86.9972 237.071 87.2983C237.389 87.5937 237.548 87.9517 237.548 88.3722C237.548 88.7869 237.389 89.1449 237.071 89.446C236.759 89.7415 236.381 89.8892 235.938 89.8892ZM246.141 105.264C244.914 105.264 243.843 104.983 242.928 104.42C242.013 103.858 241.303 103.071 240.798 102.06C240.292 101.048 240.039 99.8665 240.039 98.5142C240.039 97.1562 240.292 95.9687 240.798 94.9517C241.303 93.9347 242.013 93.1449 242.928 92.5824C243.843 92.0199 244.914 91.7386 246.141 91.7386C247.369 91.7386 248.44 92.0199 249.354 92.5824C250.269 93.1449 250.979 93.9347 251.485 94.9517C251.991 95.9687 252.244 97.1562 252.244 98.5142C252.244 99.8665 251.991 101.048 251.485 102.06C250.979 103.071 250.269 103.858 249.354 104.42C248.44 104.983 247.369 105.264 246.141 105.264ZM246.15 103.125C246.945 103.125 247.604 102.915 248.127 102.494C248.65 102.074 249.036 101.514 249.286 100.815C249.542 100.116 249.67 99.3466 249.67 98.5057C249.67 97.6705 249.542 96.9034 249.286 96.2045C249.036 95.5 248.65 94.9347 248.127 94.5085C247.604 94.0824 246.945 93.8693 246.15 93.8693C245.349 93.8693 244.684 94.0824 244.156 94.5085C243.633 94.9347 243.244 95.5 242.988 96.2045C242.738 96.9034 242.613 97.6705 242.613 98.5057C242.613 99.3466 242.738 100.116 242.988 100.815C243.244 101.514 243.633 102.074 244.156 102.494C244.684 102.915 245.349 103.125 246.15 103.125ZM257.636 97.2273V105H255.088V91.9091H257.534V94.0398H257.696C257.997 93.3466 258.469 92.7898 259.111 92.3693C259.759 91.9489 260.574 91.7386 261.557 91.7386C262.449 91.7386 263.23 91.9261 263.901 92.3011C264.571 92.6705 265.091 93.2216 265.46 93.9545C265.83 94.6875 266.014 95.5937 266.014 96.6733V105H263.466V96.9801C263.466 96.0312 263.219 95.2898 262.724 94.7557C262.23 94.2159 261.551 93.946 260.688 93.946C260.097 93.946 259.571 94.0739 259.111 94.3295C258.656 94.5852 258.295 94.9602 258.028 95.4545C257.767 95.9432 257.636 96.5341 257.636 97.2273ZM275.988 105V87.5455H286.812V89.8125H278.621V95.1307H286.036V97.3892H278.621V105H275.988ZM294.399 105.264C293.172 105.264 292.101 104.983 291.186 104.42C290.271 103.858 289.561 103.071 289.055 102.06C288.55 101.048 288.297 99.8665 288.297 98.5142C288.297 97.1562 288.55 95.9687 289.055 94.9517C289.561 93.9347 290.271 93.1449 291.186 92.5824C292.101 92.0199 293.172 91.7386 294.399 91.7386C295.626 91.7386 296.697 92.0199 297.612 92.5824C298.527 93.1449 299.237 93.9347 299.743 94.9517C300.249 95.9687 300.501 97.1562 300.501 98.5142C300.501 99.8665 300.249 101.048 299.743 102.06C299.237 103.071 298.527 103.858 297.612 104.42C296.697 104.983 295.626 105.264 294.399 105.264ZM294.408 103.125C295.203 103.125 295.862 102.915 296.385 102.494C296.908 102.074 297.294 101.514 297.544 100.815C297.8 100.116 297.928 99.3466 297.928 98.5057C297.928 97.6705 297.8 96.9034 297.544 96.2045C297.294 95.5 296.908 94.9347 296.385 94.5085C295.862 94.0824 295.203 93.8693 294.408 93.8693C293.607 93.8693 292.942 94.0824 292.413 94.5085C291.891 94.9347 291.501 95.5 291.246 96.2045C290.996 96.9034 290.871 97.6705 290.871 98.5057C290.871 99.3466 290.996 100.116 291.246 100.815C291.501 101.514 291.891 102.074 292.413 102.494C292.942 102.915 293.607 103.125 294.408 103.125ZM303.346 105V91.9091H305.809V93.9886H305.945C306.184 93.2841 306.604 92.7301 307.207 92.3267C307.815 91.9176 308.502 91.7131 309.269 91.7131C309.428 91.7131 309.616 91.7187 309.832 91.7301C310.053 91.7415 310.227 91.7557 310.352 91.7727V94.2102C310.249 94.1818 310.067 94.1506 309.806 94.1165C309.545 94.0767 309.283 94.0568 309.022 94.0568C308.42 94.0568 307.883 94.1847 307.411 94.4403C306.945 94.6903 306.576 95.0398 306.303 95.4886C306.031 95.9318 305.894 96.4375 305.894 97.0057V105H303.346ZM312.557 105V91.9091H315.003V94.0398H315.165C315.438 93.3182 315.884 92.7557 316.503 92.3523C317.122 91.9432 317.864 91.7386 318.727 91.7386C319.602 91.7386 320.335 91.9432 320.926 92.3523C321.523 92.7614 321.963 93.3239 322.247 94.0398H322.384C322.696 93.3409 323.193 92.7841 323.875 92.3693C324.557 91.9489 325.369 91.7386 326.312 91.7386C327.5 91.7386 328.469 92.1108 329.219 92.8551C329.974 93.5994 330.352 94.7216 330.352 96.2216V105H327.804V96.4602C327.804 95.5739 327.563 94.9318 327.08 94.5341C326.597 94.1364 326.02 93.9375 325.349 93.9375C324.52 93.9375 323.875 94.1932 323.415 94.7045C322.955 95.2102 322.724 95.8608 322.724 96.6562V105H320.185V96.2983C320.185 95.5881 319.963 95.017 319.52 94.5852C319.077 94.1534 318.5 93.9375 317.79 93.9375C317.307 93.9375 316.861 94.0653 316.452 94.321C316.048 94.571 315.722 94.9205 315.472 95.3693C315.227 95.8182 315.105 96.3381 315.105 96.929V105H312.557Z" fill="white"/>
<path d="M26.7727 126H25.3636C25.2803 125.595 25.1345 125.239 24.9261 124.932C24.7216 124.625 24.4716 124.367 24.1761 124.159C23.8845 123.947 23.5606 123.788 23.2045 123.682C22.8485 123.576 22.4773 123.523 22.0909 123.523C21.3864 123.523 20.7481 123.701 20.1761 124.057C19.608 124.413 19.1553 124.938 18.8182 125.631C18.4848 126.324 18.3182 127.174 18.3182 128.182C18.3182 129.189 18.4848 130.04 18.8182 130.733C19.1553 131.426 19.608 131.951 20.1761 132.307C20.7481 132.663 21.3864 132.841 22.0909 132.841C22.4773 132.841 22.8485 132.788 23.2045 132.682C23.5606 132.576 23.8845 132.419 24.1761 132.21C24.4716 131.998 24.7216 131.739 24.9261 131.432C25.1345 131.121 25.2803 130.765 25.3636 130.364H26.7727C26.6667 130.958 26.4735 131.491 26.1932 131.96C25.9129 132.43 25.5644 132.83 25.1477 133.159C24.7311 133.485 24.2633 133.733 23.7443 133.903C23.2292 134.074 22.678 134.159 22.0909 134.159C21.0985 134.159 20.2159 133.917 19.4432 133.432C18.6705 132.947 18.0625 132.258 17.6193 131.364C17.1761 130.47 16.9545 129.409 16.9545 128.182C16.9545 126.955 17.1761 125.894 17.6193 125C18.0625 124.106 18.6705 123.417 19.4432 122.932C20.2159 122.447 21.0985 122.205 22.0909 122.205C22.678 122.205 23.2292 122.29 23.7443 122.46C24.2633 122.631 24.7311 122.881 25.1477 123.21C25.5644 123.536 25.9129 123.934 26.1932 124.403C26.4735 124.869 26.6667 125.402 26.7727 126ZM28.8679 134V125.273H30.1634V126.591H30.2543C30.4134 126.159 30.7012 125.809 31.1179 125.54C31.5346 125.271 32.0043 125.136 32.527 125.136C32.6255 125.136 32.7486 125.138 32.8963 125.142C33.044 125.146 33.1558 125.152 33.2315 125.159V126.523C33.1861 126.511 33.0819 126.494 32.919 126.472C32.7599 126.445 32.5914 126.432 32.4134 126.432C31.9891 126.432 31.6103 126.521 31.277 126.699C30.9474 126.873 30.6861 127.116 30.4929 127.426C30.3035 127.733 30.2088 128.083 30.2088 128.477V134H28.8679ZM38.2145 134.182C37.3736 134.182 36.6482 133.996 36.0384 133.625C35.4323 133.25 34.9645 132.727 34.6349 132.057C34.3092 131.383 34.1463 130.598 34.1463 129.705C34.1463 128.811 34.3092 128.023 34.6349 127.341C34.9645 126.655 35.4228 126.121 36.0099 125.739C36.6009 125.352 37.2902 125.159 38.0781 125.159C38.5327 125.159 38.9815 125.235 39.4247 125.386C39.8679 125.538 40.2713 125.784 40.6349 126.125C40.9986 126.462 41.2884 126.909 41.5043 127.466C41.7202 128.023 41.8281 128.708 41.8281 129.523V130.091H35.1009V128.932H40.4645C40.4645 128.439 40.366 128 40.169 127.614C39.9759 127.227 39.6993 126.922 39.3395 126.699C38.9834 126.475 38.563 126.364 38.0781 126.364C37.544 126.364 37.0819 126.496 36.6918 126.761C36.3054 127.023 36.008 127.364 35.7997 127.784C35.5914 128.205 35.4872 128.655 35.4872 129.136V129.909C35.4872 130.568 35.6009 131.127 35.8281 131.585C36.0592 132.04 36.3793 132.386 36.7884 132.625C37.1974 132.86 37.6728 132.977 38.2145 132.977C38.5668 132.977 38.8849 132.928 39.169 132.83C39.4569 132.727 39.705 132.576 39.9134 132.375C40.1217 132.17 40.2827 131.917 40.3963 131.614L41.6918 131.977C41.5554 132.417 41.3262 132.803 41.0043 133.136C40.6823 133.466 40.2846 133.723 39.8111 133.909C39.3376 134.091 38.8054 134.182 38.2145 134.182ZM46.4361 134.205C45.883 134.205 45.3812 134.1 44.9304 133.892C44.4796 133.68 44.1217 133.375 43.8565 132.977C43.5914 132.576 43.4588 132.091 43.4588 131.523C43.4588 131.023 43.5573 130.617 43.7543 130.307C43.9512 129.992 44.2145 129.746 44.544 129.568C44.8736 129.39 45.2372 129.258 45.6349 129.17C46.0365 129.08 46.4399 129.008 46.8452 128.955C47.3755 128.886 47.8054 128.835 48.1349 128.801C48.4683 128.763 48.7107 128.701 48.8622 128.614C49.0175 128.527 49.0952 128.375 49.0952 128.159V128.114C49.0952 127.553 48.9418 127.117 48.6349 126.807C48.3319 126.496 47.8717 126.341 47.2543 126.341C46.6141 126.341 46.1122 126.481 45.7486 126.761C45.3849 127.042 45.1293 127.341 44.9815 127.659L43.7088 127.205C43.9361 126.674 44.2391 126.261 44.6179 125.966C45.0005 125.667 45.4171 125.458 45.8679 125.341C46.3224 125.22 46.7694 125.159 47.2088 125.159C47.4891 125.159 47.8111 125.193 48.1747 125.261C48.5421 125.326 48.8963 125.46 49.2372 125.665C49.5819 125.869 49.8679 126.178 50.0952 126.591C50.3224 127.004 50.4361 127.557 50.4361 128.25V134H49.0952V132.818H49.027C48.9361 133.008 48.7846 133.21 48.5724 133.426C48.3603 133.642 48.0781 133.826 47.7259 133.977C47.3736 134.129 46.9437 134.205 46.4361 134.205ZM46.6406 133C47.1709 133 47.6179 132.896 47.9815 132.688C48.349 132.479 48.6255 132.21 48.8111 131.881C49.0005 131.551 49.0952 131.205 49.0952 130.841V129.614C49.0384 129.682 48.9134 129.744 48.7202 129.801C48.5308 129.854 48.3111 129.902 48.0611 129.943C47.8149 129.981 47.5743 130.015 47.3395 130.045C47.1084 130.072 46.9209 130.095 46.777 130.114C46.4285 130.159 46.1027 130.233 45.7997 130.335C45.5005 130.434 45.258 130.583 45.0724 130.784C44.8906 130.981 44.7997 131.25 44.7997 131.591C44.7997 132.057 44.9721 132.409 45.3168 132.648C45.6652 132.883 46.1065 133 46.6406 133ZM56.679 125.273V126.409H52.1562V125.273H56.679ZM53.4744 123.182H54.8153V131.5C54.8153 131.879 54.8703 132.163 54.9801 132.352C55.0938 132.538 55.2377 132.663 55.4119 132.727C55.59 132.788 55.7775 132.818 55.9744 132.818C56.1222 132.818 56.2434 132.811 56.3381 132.795C56.4328 132.777 56.5085 132.761 56.5653 132.75L56.8381 133.955C56.7472 133.989 56.6203 134.023 56.4574 134.057C56.2945 134.095 56.0881 134.114 55.8381 134.114C55.4593 134.114 55.0881 134.032 54.7244 133.869C54.3646 133.706 54.0653 133.458 53.8267 133.125C53.5919 132.792 53.4744 132.371 53.4744 131.864V123.182ZM62.2614 134.182C61.4205 134.182 60.6951 133.996 60.0852 133.625C59.4792 133.25 59.0114 132.727 58.6818 132.057C58.3561 131.383 58.1932 130.598 58.1932 129.705C58.1932 128.811 58.3561 128.023 58.6818 127.341C59.0114 126.655 59.4697 126.121 60.0568 125.739C60.6477 125.352 61.3371 125.159 62.125 125.159C62.5795 125.159 63.0284 125.235 63.4716 125.386C63.9148 125.538 64.3182 125.784 64.6818 126.125C65.0455 126.462 65.3352 126.909 65.5511 127.466C65.767 128.023 65.875 128.708 65.875 129.523V130.091H59.1477V128.932H64.5114C64.5114 128.439 64.4129 128 64.2159 127.614C64.0227 127.227 63.7462 126.922 63.3864 126.699C63.0303 126.475 62.6098 126.364 62.125 126.364C61.5909 126.364 61.1288 126.496 60.7386 126.761C60.3523 127.023 60.0549 127.364 59.8466 127.784C59.6383 128.205 59.5341 128.655 59.5341 129.136V129.909C59.5341 130.568 59.6477 131.127 59.875 131.585C60.1061 132.04 60.4261 132.386 60.8352 132.625C61.2443 132.86 61.7197 132.977 62.2614 132.977C62.6136 132.977 62.9318 132.928 63.2159 132.83C63.5038 132.727 63.7519 132.576 63.9602 132.375C64.1686 132.17 64.3295 131.917 64.4432 131.614L65.7386 131.977C65.6023 132.417 65.3731 132.803 65.0511 133.136C64.7292 133.466 64.3314 133.723 63.858 133.909C63.3845 134.091 62.8523 134.182 62.2614 134.182ZM73.2784 137.273C73.0511 137.273 72.8485 137.254 72.6705 137.216C72.4924 137.182 72.3693 137.148 72.3011 137.114L72.642 135.932C72.9678 136.015 73.2557 136.045 73.5057 136.023C73.7557 136 73.9773 135.888 74.1705 135.688C74.3674 135.491 74.5473 135.17 74.7102 134.727L74.9602 134.045L71.733 125.273H73.1875L75.5966 132.227H75.6875L78.0966 125.273H79.5511L75.8466 135.273C75.6799 135.723 75.4735 136.097 75.2273 136.392C74.9811 136.691 74.6951 136.913 74.3693 137.057C74.0473 137.201 73.6837 137.273 73.2784 137.273ZM84.554 134.182C83.7661 134.182 83.0748 133.994 82.4801 133.619C81.8892 133.244 81.4271 132.72 81.0938 132.045C80.7642 131.371 80.5994 130.583 80.5994 129.682C80.5994 128.773 80.7642 127.979 81.0938 127.301C81.4271 126.623 81.8892 126.097 82.4801 125.722C83.0748 125.347 83.7661 125.159 84.554 125.159C85.3419 125.159 86.0313 125.347 86.6222 125.722C87.2169 126.097 87.679 126.623 88.0085 127.301C88.3419 127.979 88.5085 128.773 88.5085 129.682C88.5085 130.583 88.3419 131.371 88.0085 132.045C87.679 132.72 87.2169 133.244 86.6222 133.619C86.0313 133.994 85.3419 134.182 84.554 134.182ZM84.554 132.977C85.1525 132.977 85.6449 132.824 86.0312 132.517C86.4176 132.21 86.7036 131.807 86.8892 131.307C87.0748 130.807 87.1676 130.265 87.1676 129.682C87.1676 129.098 87.0748 128.555 86.8892 128.051C86.7036 127.547 86.4176 127.14 86.0312 126.83C85.6449 126.519 85.1525 126.364 84.554 126.364C83.9555 126.364 83.4631 126.519 83.0767 126.83C82.6903 127.14 82.4044 127.547 82.2188 128.051C82.0331 128.555 81.9403 129.098 81.9403 129.682C81.9403 130.265 82.0331 130.807 82.2188 131.307C82.4044 131.807 82.6903 132.21 83.0767 132.517C83.4631 132.824 83.9555 132.977 84.554 132.977ZM96.0554 130.432V125.273H97.3963V134H96.0554V132.523H95.9645C95.7599 132.966 95.4418 133.343 95.0099 133.653C94.5781 133.96 94.0327 134.114 93.3736 134.114C92.8281 134.114 92.3433 133.994 91.919 133.756C91.4948 133.513 91.1615 133.15 90.919 132.665C90.6766 132.176 90.5554 131.561 90.5554 130.818V125.273H91.8963V130.727C91.8963 131.364 92.0743 131.871 92.4304 132.25C92.7902 132.629 93.2486 132.818 93.8054 132.818C94.1387 132.818 94.4777 132.733 94.8224 132.562C95.1709 132.392 95.4626 132.131 95.6974 131.778C95.9361 131.426 96.0554 130.977 96.0554 130.432ZM99.8523 134V125.273H101.148V126.591H101.239C101.398 126.159 101.686 125.809 102.102 125.54C102.519 125.271 102.989 125.136 103.511 125.136C103.61 125.136 103.733 125.138 103.881 125.142C104.028 125.146 104.14 125.152 104.216 125.159V126.523C104.17 126.511 104.066 126.494 103.903 126.472C103.744 126.445 103.576 126.432 103.398 126.432C102.973 126.432 102.595 126.521 102.261 126.699C101.932 126.873 101.67 127.116 101.477 127.426C101.288 127.733 101.193 128.083 101.193 128.477V134H99.8523ZM112.874 134.205C112.321 134.205 111.819 134.1 111.368 133.892C110.917 133.68 110.559 133.375 110.294 132.977C110.029 132.576 109.896 132.091 109.896 131.523C109.896 131.023 109.995 130.617 110.192 130.307C110.389 129.992 110.652 129.746 110.982 129.568C111.311 129.39 111.675 129.258 112.072 129.17C112.474 129.08 112.877 129.008 113.283 128.955C113.813 128.886 114.243 128.835 114.572 128.801C114.906 128.763 115.148 128.701 115.3 128.614C115.455 128.527 115.533 128.375 115.533 128.159V128.114C115.533 127.553 115.379 127.117 115.072 126.807C114.769 126.496 114.309 126.341 113.692 126.341C113.052 126.341 112.55 126.481 112.186 126.761C111.822 127.042 111.567 127.341 111.419 127.659L110.146 127.205C110.374 126.674 110.677 126.261 111.055 125.966C111.438 125.667 111.855 125.458 112.305 125.341C112.76 125.22 113.207 125.159 113.646 125.159C113.927 125.159 114.249 125.193 114.612 125.261C114.98 125.326 115.334 125.46 115.675 125.665C116.019 125.869 116.305 126.178 116.533 126.591C116.76 127.004 116.874 127.557 116.874 128.25V134H115.533V132.818H115.464C115.374 133.008 115.222 133.21 115.01 133.426C114.798 133.642 114.516 133.826 114.163 133.977C113.811 134.129 113.381 134.205 112.874 134.205ZM113.078 133C113.608 133 114.055 132.896 114.419 132.688C114.786 132.479 115.063 132.21 115.249 131.881C115.438 131.551 115.533 131.205 115.533 130.841V129.614C115.476 129.682 115.351 129.744 115.158 129.801C114.968 129.854 114.749 129.902 114.499 129.943C114.252 129.981 114.012 130.015 113.777 130.045C113.546 130.072 113.358 130.095 113.214 130.114C112.866 130.159 112.54 130.233 112.237 130.335C111.938 130.434 111.696 130.583 111.51 130.784C111.328 130.981 111.237 131.25 111.237 131.591C111.237 132.057 111.41 132.409 111.754 132.648C112.103 132.883 112.544 133 113.078 133ZM122.866 134.182C122.048 134.182 121.344 133.989 120.753 133.602C120.162 133.216 119.707 132.684 119.389 132.006C119.071 131.328 118.912 130.553 118.912 129.682C118.912 128.795 119.075 128.013 119.401 127.335C119.73 126.653 120.188 126.121 120.776 125.739C121.366 125.352 122.056 125.159 122.844 125.159C123.457 125.159 124.01 125.273 124.503 125.5C124.995 125.727 125.399 126.045 125.713 126.455C126.027 126.864 126.223 127.341 126.298 127.886H124.957C124.855 127.489 124.628 127.136 124.276 126.83C123.927 126.519 123.457 126.364 122.866 126.364C122.344 126.364 121.885 126.5 121.491 126.773C121.101 127.042 120.796 127.422 120.577 127.915C120.361 128.403 120.253 128.977 120.253 129.636C120.253 130.311 120.359 130.898 120.571 131.398C120.787 131.898 121.09 132.286 121.48 132.562C121.874 132.839 122.336 132.977 122.866 132.977C123.215 132.977 123.531 132.917 123.815 132.795C124.099 132.674 124.34 132.5 124.537 132.273C124.734 132.045 124.874 131.773 124.957 131.455H126.298C126.223 131.97 126.035 132.434 125.736 132.847C125.44 133.256 125.048 133.581 124.56 133.824C124.075 134.062 123.51 134.182 122.866 134.182ZM131.804 134.182C130.986 134.182 130.281 133.989 129.69 133.602C129.099 133.216 128.645 132.684 128.327 132.006C128.009 131.328 127.849 130.553 127.849 129.682C127.849 128.795 128.012 128.013 128.338 127.335C128.668 126.653 129.126 126.121 129.713 125.739C130.304 125.352 130.993 125.159 131.781 125.159C132.395 125.159 132.948 125.273 133.44 125.5C133.933 125.727 134.336 126.045 134.651 126.455C134.965 126.864 135.16 127.341 135.236 127.886H133.895C133.793 127.489 133.565 127.136 133.213 126.83C132.865 126.519 132.395 126.364 131.804 126.364C131.281 126.364 130.823 126.5 130.429 126.773C130.039 127.042 129.734 127.422 129.514 127.915C129.298 128.403 129.19 128.977 129.19 129.636C129.19 130.311 129.296 130.898 129.509 131.398C129.724 131.898 130.027 132.286 130.418 132.562C130.812 132.839 131.274 132.977 131.804 132.977C132.152 132.977 132.469 132.917 132.753 132.795C133.037 132.674 133.277 132.5 133.474 132.273C133.671 132.045 133.812 131.773 133.895 131.455H135.236C135.16 131.97 134.973 132.434 134.673 132.847C134.378 133.256 133.986 133.581 133.497 133.824C133.012 134.062 132.448 134.182 131.804 134.182ZM140.741 134.182C139.954 134.182 139.262 133.994 138.668 133.619C138.077 133.244 137.615 132.72 137.281 132.045C136.952 131.371 136.787 130.583 136.787 129.682C136.787 128.773 136.952 127.979 137.281 127.301C137.615 126.623 138.077 126.097 138.668 125.722C139.262 125.347 139.954 125.159 140.741 125.159C141.529 125.159 142.219 125.347 142.81 125.722C143.404 126.097 143.866 126.623 144.196 127.301C144.529 127.979 144.696 128.773 144.696 129.682C144.696 130.583 144.529 131.371 144.196 132.045C143.866 132.72 143.404 133.244 142.81 133.619C142.219 133.994 141.529 134.182 140.741 134.182ZM140.741 132.977C141.34 132.977 141.832 132.824 142.219 132.517C142.605 132.21 142.891 131.807 143.077 131.307C143.262 130.807 143.355 130.265 143.355 129.682C143.355 129.098 143.262 128.555 143.077 128.051C142.891 127.547 142.605 127.14 142.219 126.83C141.832 126.519 141.34 126.364 140.741 126.364C140.143 126.364 139.651 126.519 139.264 126.83C138.878 127.14 138.592 127.547 138.406 128.051C138.221 128.555 138.128 129.098 138.128 129.682C138.128 130.265 138.221 130.807 138.406 131.307C138.592 131.807 138.878 132.21 139.264 132.517C139.651 132.824 140.143 132.977 140.741 132.977ZM152.243 130.432V125.273H153.584V134H152.243V132.523H152.152C151.947 132.966 151.629 133.343 151.197 133.653C150.766 133.96 150.22 134.114 149.561 134.114C149.016 134.114 148.531 133.994 148.107 133.756C147.682 133.513 147.349 133.15 147.107 132.665C146.864 132.176 146.743 131.561 146.743 130.818V125.273H148.084V130.727C148.084 131.364 148.262 131.871 148.618 132.25C148.978 132.629 149.436 132.818 149.993 132.818C150.326 132.818 150.665 132.733 151.01 132.562C151.358 132.392 151.65 132.131 151.885 131.778C152.124 131.426 152.243 130.977 152.243 130.432ZM157.381 128.75V134H156.04V125.273H157.335V126.636H157.449C157.653 126.193 157.964 125.837 158.381 125.568C158.797 125.295 159.335 125.159 159.994 125.159C160.585 125.159 161.102 125.28 161.545 125.523C161.989 125.761 162.333 126.125 162.58 126.614C162.826 127.098 162.949 127.712 162.949 128.455V134H161.608V128.545C161.608 127.86 161.43 127.326 161.074 126.943C160.718 126.557 160.229 126.364 159.608 126.364C159.18 126.364 158.797 126.456 158.46 126.642C158.127 126.828 157.864 127.098 157.67 127.455C157.477 127.811 157.381 128.242 157.381 128.75ZM169.195 125.273V126.409H164.672V125.273H169.195ZM165.99 123.182H167.331V131.5C167.331 131.879 167.386 132.163 167.496 132.352C167.609 132.538 167.753 132.663 167.928 132.727C168.106 132.788 168.293 132.818 168.49 132.818C168.638 132.818 168.759 132.811 168.854 132.795C168.948 132.777 169.024 132.761 169.081 132.75L169.354 133.955C169.263 133.989 169.136 134.023 168.973 134.057C168.81 134.095 168.604 134.114 168.354 134.114C167.975 134.114 167.604 134.032 167.24 133.869C166.88 133.706 166.581 133.458 166.342 133.125C166.107 132.792 165.99 132.371 165.99 131.864V123.182ZM179.507 125.273V126.409H174.984V125.273H179.507ZM176.303 123.182H177.643V131.5C177.643 131.879 177.698 132.163 177.808 132.352C177.922 132.538 178.066 132.663 178.24 132.727C178.418 132.788 178.606 132.818 178.803 132.818C178.95 132.818 179.071 132.811 179.166 132.795C179.261 132.777 179.337 132.761 179.393 132.75L179.666 133.955C179.575 133.989 179.448 134.023 179.286 134.057C179.123 134.095 178.916 134.114 178.666 134.114C178.287 134.114 177.916 134.032 177.553 133.869C177.193 133.706 176.893 133.458 176.655 133.125C176.42 132.792 176.303 132.371 176.303 131.864V123.182ZM184.976 134.182C184.188 134.182 183.497 133.994 182.902 133.619C182.311 133.244 181.849 132.72 181.516 132.045C181.186 131.371 181.021 130.583 181.021 129.682C181.021 128.773 181.186 127.979 181.516 127.301C181.849 126.623 182.311 126.097 182.902 125.722C183.497 125.347 184.188 125.159 184.976 125.159C185.764 125.159 186.453 125.347 187.044 125.722C187.639 126.097 188.101 126.623 188.43 127.301C188.764 127.979 188.93 128.773 188.93 129.682C188.93 130.583 188.764 131.371 188.43 132.045C188.101 132.72 187.639 133.244 187.044 133.619C186.453 133.994 185.764 134.182 184.976 134.182ZM184.976 132.977C185.574 132.977 186.067 132.824 186.453 132.517C186.839 132.21 187.125 131.807 187.311 131.307C187.497 130.807 187.589 130.265 187.589 129.682C187.589 129.098 187.497 128.555 187.311 128.051C187.125 127.547 186.839 127.14 186.453 126.83C186.067 126.519 185.574 126.364 184.976 126.364C184.377 126.364 183.885 126.519 183.499 126.83C183.112 127.14 182.826 127.547 182.641 128.051C182.455 128.555 182.362 129.098 182.362 129.682C182.362 130.265 182.455 130.807 182.641 131.307C182.826 131.807 183.112 132.21 183.499 132.517C183.885 132.824 184.377 132.977 184.976 132.977ZM195.477 134V125.273H196.773V126.591H196.864C197.023 126.159 197.311 125.809 197.727 125.54C198.144 125.271 198.614 125.136 199.136 125.136C199.235 125.136 199.358 125.138 199.506 125.142C199.653 125.146 199.765 125.152 199.841 125.159V126.523C199.795 126.511 199.691 126.494 199.528 126.472C199.369 126.445 199.201 126.432 199.023 126.432C198.598 126.432 198.22 126.521 197.886 126.699C197.557 126.873 197.295 127.116 197.102 127.426C196.913 127.733 196.818 128.083 196.818 128.477V134H195.477ZM204.824 134.182C203.983 134.182 203.258 133.996 202.648 133.625C202.042 133.25 201.574 132.727 201.244 132.057C200.919 131.383 200.756 130.598 200.756 129.705C200.756 128.811 200.919 128.023 201.244 127.341C201.574 126.655 202.032 126.121 202.619 125.739C203.21 125.352 203.9 125.159 204.688 125.159C205.142 125.159 205.591 125.235 206.034 125.386C206.477 125.538 206.881 125.784 207.244 126.125C207.608 126.462 207.898 126.909 208.114 127.466C208.33 128.023 208.438 128.708 208.438 129.523V130.091H201.71V128.932H207.074C207.074 128.439 206.975 128 206.778 127.614C206.585 127.227 206.309 126.922 205.949 126.699C205.593 126.475 205.172 126.364 204.688 126.364C204.153 126.364 203.691 126.496 203.301 126.761C202.915 127.023 202.617 127.364 202.409 127.784C202.201 128.205 202.097 128.655 202.097 129.136V129.909C202.097 130.568 202.21 131.127 202.438 131.585C202.669 132.04 202.989 132.386 203.398 132.625C203.807 132.86 204.282 132.977 204.824 132.977C205.176 132.977 205.494 132.928 205.778 132.83C206.066 132.727 206.314 132.576 206.523 132.375C206.731 132.17 206.892 131.917 207.006 131.614L208.301 131.977C208.165 132.417 207.936 132.803 207.614 133.136C207.292 133.466 206.894 133.723 206.42 133.909C205.947 134.091 205.415 134.182 204.824 134.182ZM213.045 134.205C212.492 134.205 211.991 134.1 211.54 133.892C211.089 133.68 210.731 133.375 210.466 132.977C210.201 132.576 210.068 132.091 210.068 131.523C210.068 131.023 210.167 130.617 210.364 130.307C210.561 129.992 210.824 129.746 211.153 129.568C211.483 129.39 211.847 129.258 212.244 129.17C212.646 129.08 213.049 129.008 213.455 128.955C213.985 128.886 214.415 128.835 214.744 128.801C215.078 128.763 215.32 128.701 215.472 128.614C215.627 128.527 215.705 128.375 215.705 128.159V128.114C215.705 127.553 215.551 127.117 215.244 126.807C214.941 126.496 214.481 126.341 213.864 126.341C213.223 126.341 212.722 126.481 212.358 126.761C211.994 127.042 211.739 127.341 211.591 127.659L210.318 127.205C210.545 126.674 210.848 126.261 211.227 125.966C211.61 125.667 212.027 125.458 212.477 125.341C212.932 125.22 213.379 125.159 213.818 125.159C214.098 125.159 214.42 125.193 214.784 125.261C215.152 125.326 215.506 125.46 215.847 125.665C216.191 125.869 216.477 126.178 216.705 126.591C216.932 127.004 217.045 127.557 217.045 128.25V134H215.705V132.818H215.636C215.545 133.008 215.394 133.21 215.182 133.426C214.97 133.642 214.688 133.826 214.335 133.977C213.983 134.129 213.553 134.205 213.045 134.205ZM213.25 133C213.78 133 214.227 132.896 214.591 132.688C214.958 132.479 215.235 132.21 215.42 131.881C215.61 131.551 215.705 131.205 215.705 130.841V129.614C215.648 129.682 215.523 129.744 215.33 129.801C215.14 129.854 214.92 129.902 214.67 129.943C214.424 129.981 214.184 130.015 213.949 130.045C213.718 130.072 213.53 130.095 213.386 130.114C213.038 130.159 212.712 130.233 212.409 130.335C212.11 130.434 211.867 130.583 211.682 130.784C211.5 130.981 211.409 131.25 211.409 131.591C211.409 132.057 211.581 132.409 211.926 132.648C212.275 132.883 212.716 133 213.25 133ZM223.038 134.182C222.22 134.182 221.516 133.989 220.925 133.602C220.334 133.216 219.879 132.684 219.561 132.006C219.243 131.328 219.084 130.553 219.084 129.682C219.084 128.795 219.247 128.013 219.572 127.335C219.902 126.653 220.36 126.121 220.947 125.739C221.538 125.352 222.228 125.159 223.016 125.159C223.629 125.159 224.182 125.273 224.675 125.5C225.167 125.727 225.571 126.045 225.885 126.455C226.199 126.864 226.394 127.341 226.47 127.886H225.129C225.027 127.489 224.8 127.136 224.447 126.83C224.099 126.519 223.629 126.364 223.038 126.364C222.516 126.364 222.057 126.5 221.663 126.773C221.273 127.042 220.968 127.422 220.749 127.915C220.533 128.403 220.425 128.977 220.425 129.636C220.425 130.311 220.531 130.898 220.743 131.398C220.959 131.898 221.262 132.286 221.652 132.562C222.046 132.839 222.508 132.977 223.038 132.977C223.387 132.977 223.703 132.917 223.987 132.795C224.271 132.674 224.512 132.5 224.709 132.273C224.906 132.045 225.046 131.773 225.129 131.455H226.47C226.394 131.97 226.207 132.434 225.908 132.847C225.612 133.256 225.22 133.581 224.732 133.824C224.247 134.062 223.682 134.182 223.038 134.182ZM229.771 128.75V134H228.43V122.364H229.771V126.636H229.885C230.089 126.186 230.396 125.828 230.805 125.562C231.218 125.294 231.768 125.159 232.453 125.159C233.048 125.159 233.569 125.278 234.016 125.517C234.463 125.752 234.809 126.114 235.055 126.602C235.305 127.087 235.43 127.705 235.43 128.455V134H234.089V128.545C234.089 127.852 233.91 127.316 233.55 126.938C233.194 126.555 232.699 126.364 232.067 126.364C231.627 126.364 231.233 126.456 230.885 126.642C230.54 126.828 230.268 127.098 230.067 127.455C229.87 127.811 229.771 128.242 229.771 128.75ZM246.179 125.273V126.409H241.656V125.273H246.179ZM242.974 123.182H244.315V131.5C244.315 131.879 244.37 132.163 244.48 132.352C244.594 132.538 244.738 132.663 244.912 132.727C245.09 132.788 245.277 132.818 245.474 132.818C245.622 132.818 245.743 132.811 245.838 132.795C245.933 132.777 246.009 132.761 246.065 132.75L246.338 133.955C246.247 133.989 246.12 134.023 245.957 134.057C245.795 134.095 245.588 134.114 245.338 134.114C244.959 134.114 244.588 134.032 244.224 133.869C243.865 133.706 243.565 133.458 243.327 133.125C243.092 132.792 242.974 132.371 242.974 131.864V123.182ZM251.648 134.182C250.86 134.182 250.169 133.994 249.574 133.619C248.983 133.244 248.521 132.72 248.188 132.045C247.858 131.371 247.693 130.583 247.693 129.682C247.693 128.773 247.858 127.979 248.188 127.301C248.521 126.623 248.983 126.097 249.574 125.722C250.169 125.347 250.86 125.159 251.648 125.159C252.436 125.159 253.125 125.347 253.716 125.722C254.311 126.097 254.773 126.623 255.102 127.301C255.436 127.979 255.602 128.773 255.602 129.682C255.602 130.583 255.436 131.371 255.102 132.045C254.773 132.72 254.311 133.244 253.716 133.619C253.125 133.994 252.436 134.182 251.648 134.182ZM251.648 132.977C252.246 132.977 252.739 132.824 253.125 132.517C253.511 132.21 253.797 131.807 253.983 131.307C254.169 130.807 254.261 130.265 254.261 129.682C254.261 129.098 254.169 128.555 253.983 128.051C253.797 127.547 253.511 127.14 253.125 126.83C252.739 126.519 252.246 126.364 251.648 126.364C251.049 126.364 250.557 126.519 250.17 126.83C249.784 127.14 249.498 127.547 249.312 128.051C249.127 128.555 249.034 129.098 249.034 129.682C249.034 130.265 249.127 130.807 249.312 131.307C249.498 131.807 249.784 132.21 250.17 132.517C250.557 132.824 251.049 132.977 251.648 132.977ZM257.649 137.273V125.273H258.945V126.659H259.104C259.202 126.508 259.339 126.314 259.513 126.08C259.691 125.841 259.945 125.629 260.274 125.443C260.607 125.254 261.058 125.159 261.626 125.159C262.361 125.159 263.009 125.343 263.57 125.71C264.13 126.078 264.568 126.598 264.882 127.273C265.196 127.947 265.354 128.742 265.354 129.659C265.354 130.583 265.196 131.384 264.882 132.062C264.568 132.737 264.132 133.259 263.575 133.631C263.018 133.998 262.376 134.182 261.649 134.182C261.089 134.182 260.64 134.089 260.303 133.903C259.965 133.714 259.706 133.5 259.524 133.261C259.342 133.019 259.202 132.818 259.104 132.659H258.99V137.273H257.649ZM258.967 129.636C258.967 130.295 259.064 130.877 259.257 131.381C259.45 131.881 259.732 132.273 260.104 132.557C260.475 132.837 260.929 132.977 261.467 132.977C262.028 132.977 262.496 132.83 262.871 132.534C263.25 132.235 263.534 131.833 263.723 131.33C263.916 130.822 264.013 130.258 264.013 129.636C264.013 129.023 263.918 128.47 263.729 127.977C263.543 127.481 263.261 127.089 262.882 126.801C262.507 126.509 262.036 126.364 261.467 126.364C260.922 126.364 260.464 126.502 260.092 126.778C259.721 127.051 259.441 127.434 259.251 127.926C259.062 128.415 258.967 128.985 258.967 129.636ZM275.695 125.273V126.409H271.172V125.273H275.695ZM272.49 123.182H273.831V131.5C273.831 131.879 273.886 132.163 273.996 132.352C274.109 132.538 274.253 132.663 274.428 132.727C274.606 132.788 274.793 132.818 274.99 132.818C275.138 132.818 275.259 132.811 275.354 132.795C275.448 132.777 275.524 132.761 275.581 132.75L275.854 133.955C275.763 133.989 275.636 134.023 275.473 134.057C275.31 134.095 275.104 134.114 274.854 134.114C274.475 134.114 274.104 134.032 273.74 133.869C273.38 133.706 273.081 133.458 272.842 133.125C272.607 132.792 272.49 132.371 272.49 131.864V123.182ZM280.28 134.205C279.727 134.205 279.225 134.1 278.774 133.892C278.323 133.68 277.965 133.375 277.7 132.977C277.435 132.576 277.303 132.091 277.303 131.523C277.303 131.023 277.401 130.617 277.598 130.307C277.795 129.992 278.058 129.746 278.388 129.568C278.717 129.39 279.081 129.258 279.479 129.17C279.88 129.08 280.284 129.008 280.689 128.955C281.219 128.886 281.649 128.835 281.979 128.801C282.312 128.763 282.554 128.701 282.706 128.614C282.861 128.527 282.939 128.375 282.939 128.159V128.114C282.939 127.553 282.786 127.117 282.479 126.807C282.176 126.496 281.715 126.341 281.098 126.341C280.458 126.341 279.956 126.481 279.592 126.761C279.229 127.042 278.973 127.341 278.825 127.659L277.553 127.205C277.78 126.674 278.083 126.261 278.462 125.966C278.844 125.667 279.261 125.458 279.712 125.341C280.166 125.22 280.613 125.159 281.053 125.159C281.333 125.159 281.655 125.193 282.018 125.261C282.386 125.326 282.74 125.46 283.081 125.665C283.426 125.869 283.712 126.178 283.939 126.591C284.166 127.004 284.28 127.557 284.28 128.25V134H282.939V132.818H282.871C282.78 133.008 282.628 133.21 282.416 133.426C282.204 133.642 281.922 133.826 281.57 133.977C281.217 134.129 280.787 134.205 280.28 134.205ZM280.484 133C281.015 133 281.462 132.896 281.825 132.688C282.193 132.479 282.469 132.21 282.655 131.881C282.844 131.551 282.939 131.205 282.939 130.841V129.614C282.882 129.682 282.757 129.744 282.564 129.801C282.375 129.854 282.155 129.902 281.905 129.943C281.659 129.981 281.418 130.015 281.183 130.045C280.952 130.072 280.765 130.095 280.621 130.114C280.272 130.159 279.946 130.233 279.643 130.335C279.344 130.434 279.102 130.583 278.916 130.784C278.734 130.981 278.643 131.25 278.643 131.591C278.643 132.057 278.816 132.409 279.161 132.648C279.509 132.883 279.95 133 280.484 133ZM288.068 122.364V134H286.727V122.364H288.068ZM294.183 134.182C293.342 134.182 292.617 133.996 292.007 133.625C291.401 133.25 290.933 132.727 290.604 132.057C290.278 131.383 290.115 130.598 290.115 129.705C290.115 128.811 290.278 128.023 290.604 127.341C290.933 126.655 291.392 126.121 291.979 125.739C292.57 125.352 293.259 125.159 294.047 125.159C294.501 125.159 294.95 125.235 295.393 125.386C295.837 125.538 296.24 125.784 296.604 126.125C296.967 126.462 297.257 126.909 297.473 127.466C297.689 128.023 297.797 128.708 297.797 129.523V130.091H291.07V128.932H296.433C296.433 128.439 296.335 128 296.138 127.614C295.945 127.227 295.668 126.922 295.308 126.699C294.952 126.475 294.532 126.364 294.047 126.364C293.513 126.364 293.051 126.496 292.661 126.761C292.274 127.023 291.977 127.364 291.768 127.784C291.56 128.205 291.456 128.655 291.456 129.136V129.909C291.456 130.568 291.57 131.127 291.797 131.585C292.028 132.04 292.348 132.386 292.757 132.625C293.166 132.86 293.642 132.977 294.183 132.977C294.536 132.977 294.854 132.928 295.138 132.83C295.426 132.727 295.674 132.576 295.882 132.375C296.09 132.17 296.251 131.917 296.365 131.614L297.661 131.977C297.524 132.417 297.295 132.803 296.973 133.136C296.651 133.466 296.253 133.723 295.78 133.909C295.306 134.091 294.774 134.182 294.183 134.182ZM301.178 128.75V134H299.837V125.273H301.132V126.636H301.246C301.45 126.193 301.761 125.837 302.178 125.568C302.594 125.295 303.132 125.159 303.791 125.159C304.382 125.159 304.899 125.28 305.342 125.523C305.786 125.761 306.13 126.125 306.376 126.614C306.623 127.098 306.746 127.712 306.746 128.455V134H305.405V128.545C305.405 127.86 305.227 127.326 304.871 126.943C304.515 126.557 304.026 126.364 303.405 126.364C302.977 126.364 302.594 126.456 302.257 126.642C301.924 126.828 301.661 127.098 301.467 127.455C301.274 127.811 301.178 128.242 301.178 128.75ZM312.991 125.273V126.409H308.469V125.273H312.991ZM309.787 123.182H311.128V131.5C311.128 131.879 311.183 132.163 311.293 132.352C311.406 132.538 311.55 132.663 311.724 132.727C311.902 132.788 312.09 132.818 312.287 132.818C312.435 132.818 312.556 132.811 312.651 132.795C312.745 132.777 312.821 132.761 312.878 132.75L313.151 133.955C313.06 133.989 312.933 134.023 312.77 134.057C312.607 134.095 312.401 134.114 312.151 134.114C311.772 134.114 311.401 134.032 311.037 133.869C310.677 133.706 310.378 133.458 310.139 133.125C309.904 132.792 309.787 132.371 309.787 131.864V123.182ZM322.077 134.205C321.524 134.205 321.022 134.1 320.571 133.892C320.12 133.68 319.762 133.375 319.497 132.977C319.232 132.576 319.099 132.091 319.099 131.523C319.099 131.023 319.198 130.617 319.395 130.307C319.592 129.992 319.855 129.746 320.185 129.568C320.514 129.39 320.878 129.258 321.276 129.17C321.677 129.08 322.08 129.008 322.486 128.955C323.016 128.886 323.446 128.835 323.776 128.801C324.109 128.763 324.351 128.701 324.503 128.614C324.658 128.527 324.736 128.375 324.736 128.159V128.114C324.736 127.553 324.582 127.117 324.276 126.807C323.973 126.496 323.512 126.341 322.895 126.341C322.255 126.341 321.753 126.481 321.389 126.761C321.026 127.042 320.77 127.341 320.622 127.659L319.349 127.205C319.577 126.674 319.88 126.261 320.259 125.966C320.641 125.667 321.058 125.458 321.509 125.341C321.963 125.22 322.41 125.159 322.849 125.159C323.13 125.159 323.452 125.193 323.815 125.261C324.183 125.326 324.537 125.46 324.878 125.665C325.223 125.869 325.509 126.178 325.736 126.591C325.963 127.004 326.077 127.557 326.077 128.25V134H324.736V132.818H324.668C324.577 133.008 324.425 133.21 324.213 133.426C324.001 133.642 323.719 133.826 323.366 133.977C323.014 134.129 322.584 134.205 322.077 134.205ZM322.281 133C322.812 133 323.259 132.896 323.622 132.688C323.99 132.479 324.266 132.21 324.452 131.881C324.641 131.551 324.736 131.205 324.736 130.841V129.614C324.679 129.682 324.554 129.744 324.361 129.801C324.171 129.854 323.952 129.902 323.702 129.943C323.455 129.981 323.215 130.015 322.98 130.045C322.749 130.072 322.562 130.095 322.418 130.114C322.069 130.159 321.743 130.233 321.44 130.335C321.141 130.434 320.899 130.583 320.713 130.784C320.531 130.981 320.44 131.25 320.44 131.591C320.44 132.057 320.613 132.409 320.957 132.648C321.306 132.883 321.747 133 322.281 133ZM329.865 128.75V134H328.524V125.273H329.82V126.636H329.933C330.138 126.193 330.448 125.837 330.865 125.568C331.282 125.295 331.82 125.159 332.479 125.159C333.07 125.159 333.587 125.28 334.03 125.523C334.473 125.761 334.818 126.125 335.064 126.614C335.31 127.098 335.433 127.712 335.433 128.455V134H334.092V128.545C334.092 127.86 333.914 127.326 333.558 126.943C333.202 126.557 332.714 126.364 332.092 126.364C331.664 126.364 331.282 126.456 330.945 126.642C330.611 126.828 330.348 127.098 330.155 127.455C329.962 127.811 329.865 128.242 329.865 128.75ZM341.179 134.182C340.452 134.182 339.81 133.998 339.253 133.631C338.696 133.259 338.26 132.737 337.946 132.062C337.632 131.384 337.474 130.583 337.474 129.659C337.474 128.742 337.632 127.947 337.946 127.273C338.26 126.598 338.698 126.078 339.259 125.71C339.819 125.343 340.467 125.159 341.202 125.159C341.77 125.159 342.219 125.254 342.548 125.443C342.882 125.629 343.135 125.841 343.31 126.08C343.488 126.314 343.626 126.508 343.724 126.659H343.838V122.364H345.179V134H343.884V132.659H343.724C343.626 132.818 343.486 133.019 343.304 133.261C343.122 133.5 342.863 133.714 342.526 133.903C342.188 134.089 341.74 134.182 341.179 134.182ZM341.361 132.977C341.899 132.977 342.353 132.837 342.724 132.557C343.096 132.273 343.378 131.881 343.571 131.381C343.764 130.877 343.861 130.295 343.861 129.636C343.861 128.985 343.766 128.415 343.577 127.926C343.387 127.434 343.107 127.051 342.736 126.778C342.365 126.502 341.906 126.364 341.361 126.364C340.793 126.364 340.319 126.509 339.94 126.801C339.565 127.089 339.283 127.481 339.094 127.977C338.908 128.47 338.815 129.023 338.815 129.636C338.815 130.258 338.91 130.822 339.099 131.33C339.293 131.833 339.577 132.235 339.952 132.534C340.33 132.83 340.8 132.977 341.361 132.977ZM23.4091 151.227L22.2045 151.568C22.1288 151.367 22.017 151.172 21.8693 150.983C21.7254 150.79 21.5284 150.631 21.2784 150.506C21.0284 150.381 20.7083 150.318 20.3182 150.318C19.7841 150.318 19.339 150.441 18.983 150.688C18.6307 150.93 18.4545 151.239 18.4545 151.614C18.4545 151.947 18.5758 152.21 18.8182 152.403C19.0606 152.597 19.4394 152.758 19.9545 152.886L21.25 153.205C22.0303 153.394 22.6117 153.684 22.9943 154.074C23.3769 154.46 23.5682 154.958 23.5682 155.568C23.5682 156.068 23.4242 156.515 23.1364 156.909C22.8523 157.303 22.4545 157.614 21.9432 157.841C21.4318 158.068 20.8371 158.182 20.1591 158.182C19.2689 158.182 18.5322 157.989 17.9489 157.602C17.3655 157.216 16.9962 156.652 16.8409 155.909L18.1136 155.591C18.2348 156.061 18.464 156.413 18.8011 156.648C19.142 156.883 19.5871 157 20.1364 157C20.7614 157 21.2576 156.867 21.625 156.602C21.9962 156.333 22.1818 156.011 22.1818 155.636C22.1818 155.333 22.0758 155.08 21.8636 154.875C21.6515 154.667 21.3258 154.511 20.8864 154.409L19.4318 154.068C18.6326 153.879 18.0455 153.585 17.6705 153.188C17.2992 152.786 17.1136 152.284 17.1136 151.682C17.1136 151.189 17.2519 150.754 17.5284 150.375C17.8087 149.996 18.1894 149.699 18.6705 149.483C19.1553 149.267 19.7045 149.159 20.3182 149.159C21.1818 149.159 21.8598 149.348 22.3523 149.727C22.8485 150.106 23.2008 150.606 23.4091 151.227ZM29.3821 149.273V150.409H24.8594V149.273H29.3821ZM26.1776 147.182H27.5185V155.5C27.5185 155.879 27.5734 156.163 27.6832 156.352C27.7969 156.538 27.9408 156.663 28.1151 156.727C28.2931 156.788 28.4806 156.818 28.6776 156.818C28.8253 156.818 28.9465 156.811 29.0412 156.795C29.1359 156.777 29.2116 156.761 29.2685 156.75L29.5412 157.955C29.4503 157.989 29.3234 158.023 29.1605 158.057C28.9976 158.095 28.7912 158.114 28.5412 158.114C28.1624 158.114 27.7912 158.032 27.4276 157.869C27.0677 157.706 26.7685 157.458 26.5298 157.125C26.295 156.792 26.1776 156.371 26.1776 155.864V147.182ZM31.3991 158V149.273H32.6946V150.591H32.7855C32.9446 150.159 33.2325 149.809 33.6491 149.54C34.0658 149.271 34.5355 149.136 35.0582 149.136C35.1567 149.136 35.2798 149.138 35.4276 149.142C35.5753 149.146 35.687 149.152 35.7628 149.159V150.523C35.7173 150.511 35.6132 150.494 35.4503 150.472C35.2912 150.445 35.1226 150.432 34.9446 150.432C34.5204 150.432 34.1416 150.521 33.8082 150.699C33.4787 150.873 33.2173 151.116 33.0241 151.426C32.8348 151.733 32.7401 152.083 32.7401 152.477V158H31.3991ZM40.7457 158.182C39.9048 158.182 39.1795 157.996 38.5696 157.625C37.9635 157.25 37.4957 156.727 37.1662 156.057C36.8404 155.383 36.6776 154.598 36.6776 153.705C36.6776 152.811 36.8404 152.023 37.1662 151.341C37.4957 150.655 37.9541 150.121 38.5412 149.739C39.1321 149.352 39.8215 149.159 40.6094 149.159C41.0639 149.159 41.5128 149.235 41.956 149.386C42.3991 149.538 42.8026 149.784 43.1662 150.125C43.5298 150.462 43.8196 150.909 44.0355 151.466C44.2514 152.023 44.3594 152.708 44.3594 153.523V154.091H37.6321V152.932H42.9957C42.9957 152.439 42.8973 152 42.7003 151.614C42.5071 151.227 42.2306 150.922 41.8707 150.699C41.5147 150.475 41.0942 150.364 40.6094 150.364C40.0753 150.364 39.6132 150.496 39.223 150.761C38.8366 151.023 38.5393 151.364 38.331 151.784C38.1226 152.205 38.0185 152.655 38.0185 153.136V153.909C38.0185 154.568 38.1321 155.127 38.3594 155.585C38.5904 156.04 38.9105 156.386 39.3196 156.625C39.7287 156.86 40.2041 156.977 40.7457 156.977C41.098 156.977 41.4162 156.928 41.7003 156.83C41.9882 156.727 42.2363 156.576 42.4446 156.375C42.6529 156.17 42.8139 155.917 42.9276 155.614L44.223 155.977C44.0866 156.417 43.8575 156.803 43.5355 157.136C43.2135 157.466 42.8158 157.723 42.3423 157.909C41.8688 158.091 41.3366 158.182 40.7457 158.182ZM48.9673 158.205C48.4143 158.205 47.9124 158.1 47.4616 157.892C47.0109 157.68 46.6529 157.375 46.3878 156.977C46.1226 156.576 45.9901 156.091 45.9901 155.523C45.9901 155.023 46.0885 154.617 46.2855 154.307C46.4825 153.992 46.7457 153.746 47.0753 153.568C47.4048 153.39 47.7685 153.258 48.1662 153.17C48.5677 153.08 48.9711 153.008 49.3764 152.955C49.9067 152.886 50.3366 152.835 50.6662 152.801C50.9995 152.763 51.242 152.701 51.3935 152.614C51.5488 152.527 51.6264 152.375 51.6264 152.159V152.114C51.6264 151.553 51.473 151.117 51.1662 150.807C50.8632 150.496 50.4029 150.341 49.7855 150.341C49.1454 150.341 48.6435 150.481 48.2798 150.761C47.9162 151.042 47.6605 151.341 47.5128 151.659L46.2401 151.205C46.4673 150.674 46.7704 150.261 47.1491 149.966C47.5317 149.667 47.9484 149.458 48.3991 149.341C48.8537 149.22 49.3007 149.159 49.7401 149.159C50.0204 149.159 50.3423 149.193 50.706 149.261C51.0734 149.326 51.4276 149.46 51.7685 149.665C52.1132 149.869 52.3991 150.178 52.6264 150.591C52.8537 151.004 52.9673 151.557 52.9673 152.25V158H51.6264V156.818H51.5582C51.4673 157.008 51.3158 157.21 51.1037 157.426C50.8916 157.642 50.6094 157.826 50.2571 157.977C49.9048 158.129 49.4749 158.205 48.9673 158.205ZM49.1719 157C49.7022 157 50.1491 156.896 50.5128 156.688C50.8802 156.479 51.1567 156.21 51.3423 155.881C51.5317 155.551 51.6264 155.205 51.6264 154.841V153.614C51.5696 153.682 51.4446 153.744 51.2514 153.801C51.062 153.854 50.8423 153.902 50.5923 153.943C50.3461 153.981 50.1056 154.015 49.8707 154.045C49.6397 154.072 49.4522 154.095 49.3082 154.114C48.9598 154.159 48.634 154.233 48.331 154.335C48.0317 154.434 47.7893 154.583 47.6037 154.784C47.4219 154.981 47.331 155.25 47.331 155.591C47.331 156.057 47.5033 156.409 47.848 156.648C48.1965 156.883 48.6378 157 49.1719 157ZM55.4148 158V149.273H56.7102V150.636H56.8239C57.0057 150.17 57.2992 149.809 57.7045 149.551C58.1098 149.29 58.5966 149.159 59.1648 149.159C59.7405 149.159 60.2197 149.29 60.6023 149.551C60.9886 149.809 61.2898 150.17 61.5057 150.636H61.5966C61.8201 150.186 62.1553 149.828 62.6023 149.562C63.0492 149.294 63.5852 149.159 64.2102 149.159C64.9905 149.159 65.6288 149.403 66.125 149.892C66.6212 150.377 66.8693 151.133 66.8693 152.159V158H65.5284V152.159C65.5284 151.515 65.3523 151.055 65 150.778C64.6477 150.502 64.233 150.364 63.7557 150.364C63.142 150.364 62.6667 150.549 62.3295 150.92C61.9924 151.288 61.8239 151.754 61.8239 152.318V158H60.4602V152.023C60.4602 151.527 60.2992 151.127 59.9773 150.824C59.6553 150.517 59.2405 150.364 58.733 150.364C58.3845 150.364 58.0587 150.456 57.7557 150.642C57.4564 150.828 57.214 151.085 57.0284 151.415C56.8466 151.741 56.7557 152.117 56.7557 152.545V158H55.4148ZM70.6619 146.364V158H69.321V146.364H70.6619ZM73.1179 158V149.273H74.4588V158H73.1179ZM73.7997 147.818C73.5384 147.818 73.313 147.729 73.1236 147.551C72.938 147.373 72.8452 147.159 72.8452 146.909C72.8452 146.659 72.938 146.445 73.1236 146.267C73.313 146.089 73.5384 146 73.7997 146C74.0611 146 74.2846 146.089 74.4702 146.267C74.6596 146.445 74.7543 146.659 74.7543 146.909C74.7543 147.159 74.6596 147.373 74.4702 147.551C74.2846 147.729 74.0611 147.818 73.7997 147.818ZM78.2557 152.75V158H76.9148V149.273H78.2102V150.636H78.3239C78.5284 150.193 78.839 149.837 79.2557 149.568C79.6723 149.295 80.2102 149.159 80.8693 149.159C81.4602 149.159 81.9773 149.28 82.4205 149.523C82.8636 149.761 83.2083 150.125 83.4545 150.614C83.7008 151.098 83.8239 151.712 83.8239 152.455V158H82.483V152.545C82.483 151.86 82.3049 151.326 81.9489 150.943C81.5928 150.557 81.1042 150.364 80.483 150.364C80.0549 150.364 79.6723 150.456 79.3352 150.642C79.0019 150.828 78.7386 151.098 78.5455 151.455C78.3523 151.811 78.2557 152.242 78.2557 152.75ZM89.9332 158.182C89.0923 158.182 88.367 157.996 87.7571 157.625C87.151 157.25 86.6832 156.727 86.3537 156.057C86.0279 155.383 85.8651 154.598 85.8651 153.705C85.8651 152.811 86.0279 152.023 86.3537 151.341C86.6832 150.655 87.1416 150.121 87.7287 149.739C88.3196 149.352 89.009 149.159 89.7969 149.159C90.2514 149.159 90.7003 149.235 91.1435 149.386C91.5866 149.538 91.9901 149.784 92.3537 150.125C92.7173 150.462 93.0071 150.909 93.223 151.466C93.4389 152.023 93.5469 152.708 93.5469 153.523V154.091H86.8196V152.932H92.1832C92.1832 152.439 92.0848 152 91.8878 151.614C91.6946 151.227 91.4181 150.922 91.0582 150.699C90.7022 150.475 90.2817 150.364 89.7969 150.364C89.2628 150.364 88.8007 150.496 88.4105 150.761C88.0241 151.023 87.7268 151.364 87.5185 151.784C87.3101 152.205 87.206 152.655 87.206 153.136V153.909C87.206 154.568 87.3196 155.127 87.5469 155.585C87.7779 156.04 88.098 156.386 88.5071 156.625C88.9162 156.86 89.3916 156.977 89.9332 156.977C90.2855 156.977 90.6037 156.928 90.8878 156.83C91.1757 156.727 91.4238 156.576 91.6321 156.375C91.8404 156.17 92.0014 155.917 92.1151 155.614L93.4105 155.977C93.2741 156.417 93.045 156.803 92.723 157.136C92.401 157.466 92.0033 157.723 91.5298 157.909C91.0563 158.091 90.5241 158.182 89.9332 158.182ZM101.428 152.75V158H100.087V146.364H101.428V150.636H101.541C101.746 150.186 102.053 149.828 102.462 149.562C102.875 149.294 103.424 149.159 104.109 149.159C104.704 149.159 105.225 149.278 105.672 149.517C106.119 149.752 106.465 150.114 106.712 150.602C106.962 151.087 107.087 151.705 107.087 152.455V158H105.746V152.545C105.746 151.852 105.566 151.316 105.206 150.938C104.85 150.555 104.356 150.364 103.723 150.364C103.284 150.364 102.89 150.456 102.541 150.642C102.196 150.828 101.924 151.098 101.723 151.455C101.526 151.811 101.428 152.242 101.428 152.75ZM109.54 158V149.273H110.881V158H109.54ZM110.222 147.818C109.96 147.818 109.735 147.729 109.545 147.551C109.36 147.373 109.267 147.159 109.267 146.909C109.267 146.659 109.36 146.445 109.545 146.267C109.735 146.089 109.96 146 110.222 146C110.483 146 110.706 146.089 110.892 146.267C111.081 146.445 111.176 146.659 111.176 146.909C111.176 147.159 111.081 147.373 110.892 147.551C110.706 147.729 110.483 147.818 110.222 147.818ZM113.337 158V149.273H114.632V150.591H114.723C114.882 150.159 115.17 149.809 115.587 149.54C116.003 149.271 116.473 149.136 116.996 149.136C117.094 149.136 117.217 149.138 117.365 149.142C117.513 149.146 117.625 149.152 117.7 149.159V150.523C117.655 150.511 117.551 150.494 117.388 150.472C117.229 150.445 117.06 150.432 116.882 150.432C116.458 150.432 116.079 150.521 115.746 150.699C115.416 150.873 115.155 151.116 114.962 151.426C114.772 151.733 114.678 152.083 114.678 152.477V158H113.337ZM119.29 158V149.273H120.631V158H119.29ZM119.972 147.818C119.71 147.818 119.485 147.729 119.295 147.551C119.11 147.373 119.017 147.159 119.017 146.909C119.017 146.659 119.11 146.445 119.295 146.267C119.485 146.089 119.71 146 119.972 146C120.233 146 120.456 146.089 120.642 146.267C120.831 146.445 120.926 146.659 120.926 146.909C120.926 147.159 120.831 147.373 120.642 147.551C120.456 147.729 120.233 147.818 119.972 147.818ZM124.428 152.75V158H123.087V149.273H124.382V150.636H124.496C124.7 150.193 125.011 149.837 125.428 149.568C125.844 149.295 126.382 149.159 127.041 149.159C127.632 149.159 128.149 149.28 128.592 149.523C129.036 149.761 129.38 150.125 129.626 150.614C129.873 151.098 129.996 151.712 129.996 152.455V158H128.655V152.545C128.655 151.86 128.477 151.326 128.121 150.943C127.765 150.557 127.276 150.364 126.655 150.364C126.227 150.364 125.844 150.456 125.507 150.642C125.174 150.828 124.911 151.098 124.717 151.455C124.524 151.811 124.428 152.242 124.428 152.75ZM135.969 161.455C135.321 161.455 134.764 161.371 134.298 161.205C133.832 161.042 133.444 160.826 133.134 160.557C132.827 160.292 132.582 160.008 132.401 159.705L133.469 158.955C133.59 159.114 133.743 159.295 133.929 159.5C134.115 159.708 134.368 159.888 134.69 160.04C135.016 160.195 135.442 160.273 135.969 160.273C136.673 160.273 137.255 160.102 137.713 159.761C138.171 159.42 138.401 158.886 138.401 158.159V156.386H138.287C138.188 156.545 138.048 156.742 137.866 156.977C137.688 157.208 137.431 157.415 137.094 157.597C136.76 157.775 136.31 157.864 135.741 157.864C135.037 157.864 134.404 157.697 133.844 157.364C133.287 157.03 132.846 156.545 132.52 155.909C132.198 155.273 132.037 154.5 132.037 153.591C132.037 152.697 132.194 151.919 132.509 151.256C132.823 150.589 133.26 150.074 133.821 149.71C134.382 149.343 135.029 149.159 135.764 149.159C136.332 149.159 136.783 149.254 137.116 149.443C137.454 149.629 137.711 149.841 137.889 150.08C138.071 150.314 138.211 150.508 138.31 150.659H138.446V149.273H139.741V158.25C139.741 159 139.571 159.61 139.23 160.08C138.893 160.553 138.438 160.9 137.866 161.119C137.298 161.343 136.666 161.455 135.969 161.455ZM135.923 156.659C136.461 156.659 136.916 156.536 137.287 156.29C137.658 156.044 137.94 155.689 138.134 155.227C138.327 154.765 138.423 154.212 138.423 153.568C138.423 152.939 138.329 152.384 138.139 151.903C137.95 151.422 137.67 151.045 137.298 150.773C136.927 150.5 136.469 150.364 135.923 150.364C135.355 150.364 134.882 150.508 134.503 150.795C134.128 151.083 133.846 151.47 133.656 151.955C133.471 152.439 133.378 152.977 133.378 153.568C133.378 154.174 133.473 154.71 133.662 155.176C133.855 155.638 134.139 156.002 134.514 156.267C134.893 156.528 135.363 156.659 135.923 156.659ZM143.173 158.091C142.893 158.091 142.652 157.991 142.452 157.79C142.251 157.589 142.151 157.348 142.151 157.068C142.151 156.788 142.251 156.547 142.452 156.347C142.652 156.146 142.893 156.045 143.173 156.045C143.454 156.045 143.694 156.146 143.895 156.347C144.096 156.547 144.196 156.788 144.196 157.068C144.196 157.254 144.149 157.424 144.054 157.58C143.963 157.735 143.84 157.86 143.685 157.955C143.533 158.045 143.363 158.091 143.173 158.091Z" fill="white" fill-opacity="0.69"/>
<path d="M536.826 212.632L526.571 187.313L553.092 176.563L552.597 175.219L526.146 185.898L515.962 160.649L542.413 149.97L541.918 148.626L541.706 148.06L515.255 158.74L505.282 134.057L531.734 123.377L531.238 122.034L531.026 121.468L504.575 132.147L494.603 107.464L521.054 96.7848L520.842 96.219L520.347 94.8752L493.754 105.767L483.782 81.0839L510.233 70.4044L509.738 69.0606L509.526 68.4948L483.075 79.1743L473.103 54.4913L499.554 43.8118L499.059 42.468L498.846 41.9023L472.395 52.5817L462.423 27.8987L488.803 17.3607L488.308 16.0169L488.096 15.4511L461.645 26.1306L451.461 0.881788L477.912 -9.79768L477.346 -11L450.258 -0.0376348L450.541 0.598889L449.905 0.881788L424.585 11.1369L398.063 21.8871L387.313 -4.70548L360.226 6.25688L333.704 17.0071L307.677 27.4744L296.927 0.952514L269.839 11.9149L243.812 22.3822L233.204 -4.21041L206.116 6.75196L180.089 17.2192L153.567 27.9694L142.817 1.44759L116.295 12.1978L89.7734 22.948L79.0232 -3.57388L52.0063 7.24703L26.6868 17.5021L26.4039 16.8656L25.7673 17.1485L-1.32031 28.0402L-0.825238 29.3132L25.6259 18.6337L35.8103 43.8825L9.42988 54.562L9.64205 55.1278L10.1371 56.4716L36.5883 45.7921L46.5605 70.4751L20.1093 81.1546L20.6044 82.4984L20.8166 83.0642L47.2677 72.3847L57.2399 97.0677L30.7888 107.747L31.2839 109.091L31.4961 109.657L57.9472 98.9773L67.9901 123.448L41.539 134.128L41.7512 134.693L42.2462 136.037L68.6974 125.358L78.6696 150.041L52.2185 160.72L52.7135 162.064L52.9257 162.63L79.3768 151.95L89.3491 176.633L62.8979 187.313L63.393 188.656L63.6052 189.222L90.0563 178.543L100.029 203.226L73.5774 213.905L73.7896 214.471L74.2846 215.815L100.736 205.135L110.708 229.818L84.2569 240.498L84.7519 241.842L84.9641 242.407L111.415 231.728L121.6 256.977L95.1485 267.656L95.6436 269L122.731 258.038L123.368 257.755L123.085 257.118L148.404 246.863L174.926 236.113L185.676 262.635L212.198 251.885L238.72 241.134L249.47 267.656L275.992 256.906L303.08 245.944L329.107 235.476L339.857 261.998L366.379 251.248L392.9 240.498L403.651 267.02L430.738 256.057L457.26 245.307L483.287 234.84L494.037 261.362L520.559 250.612L547.647 239.649L536.826 212.632ZM345.09 198.275L355.487 224.019L329.672 234.416L319.276 208.672L345.09 198.275ZM91.3294 177.482L91.2586 177.34L116.507 167.156L126.904 192.9L101.655 203.084L101.443 202.519L91.3294 177.482ZM228.182 59.442L217.786 33.6982L243.529 23.3016L253.926 49.0455L228.182 59.442ZM355.699 69.6264L345.303 43.8825L371.046 33.486L381.443 59.2299L355.699 69.6264ZM143.029 156.406L153.426 182.15L127.682 192.546L117.285 166.802L143.029 156.406ZM488.096 170.409L462.352 180.806L451.956 155.062L477.7 144.666L488.096 170.409ZM387.384 150.324L397.78 176.067L372.037 186.464L361.64 160.72L387.384 150.324ZM148.121 92.612L158.518 118.427L132.774 128.823L122.378 103.079L148.121 92.612ZM302.16 92.117L312.557 117.861L286.813 128.328L276.417 102.584L302.16 92.117ZM450.895 154.638L425.151 165.034L414.754 139.29L440.498 128.894L450.895 154.638ZM413.623 138.795L387.879 149.192L377.482 123.448L403.226 113.052L413.623 138.795ZM414.401 138.513L404.004 112.769L429.748 102.372L440.145 128.116L414.401 138.513ZM377.129 122.67L366.732 96.9263L392.476 86.5297L402.873 112.274L377.129 122.67ZM376.351 123.024L350.607 133.42L340.21 107.676L365.954 97.2799L376.351 123.024ZM324.085 144.1L313.689 118.356L339.432 107.959L349.829 133.703L324.085 144.1ZM323.307 144.453L297.563 154.85L287.167 129.035L312.911 118.639L323.307 144.453ZM169.975 144.595L159.579 118.851L185.323 108.454L195.719 134.198L169.975 144.595ZM196.497 133.915L186.101 108.172L211.845 97.7749L222.241 123.519L196.497 133.915ZM222.595 124.297L232.991 150.041L207.248 160.437L196.851 134.693L222.595 124.297ZM233.769 149.758L223.373 124.014L249.117 113.617L259.513 139.361L233.769 149.758ZM158.801 119.205L169.198 144.948L143.454 155.345L133.057 129.601L158.801 119.205ZM196.073 134.976L206.47 160.72L180.726 171.117L170.329 145.373L196.073 134.976ZM259.867 140.068L270.263 165.812L244.52 176.209L234.123 150.465L259.867 140.068ZM286.389 129.389L296.785 155.133L271.041 165.529L260.645 139.786L286.389 129.389ZM376.704 123.731L387.101 149.475L361.357 159.871L350.961 134.128L376.704 123.731ZM413.906 139.573L424.302 165.317L398.558 175.714L388.162 149.97L413.906 139.573ZM403.651 111.991L393.254 86.2468L418.998 75.8502L429.395 101.594L403.651 111.991ZM313.335 117.578L302.938 91.8341L328.682 81.4375L339.079 107.181L313.335 117.578ZM260.291 139.008L249.895 113.264L275.639 102.867L286.035 128.611L260.291 139.008ZM223.019 123.165L212.623 97.4213L238.366 87.0248L248.763 112.769L223.019 123.165ZM212.34 96.6433L201.943 70.8995L227.687 60.5029L238.084 86.2468L212.34 96.6433ZM159.296 118.073L148.899 92.3291L174.643 81.9326L185.04 107.676L159.296 118.073ZM169.551 145.726L179.948 171.47L154.204 181.867L143.807 156.123L169.551 145.726ZM233.274 150.819L243.671 176.563L217.927 186.959L207.53 161.215L233.274 150.819ZM350.183 134.481L360.579 160.225L334.835 170.622L324.439 144.878L350.183 134.481ZM451.673 154.284L441.276 128.54L467.02 118.144L477.417 143.888L451.673 154.284ZM440.923 127.762L430.526 102.018L456.27 91.6219L466.667 117.366L440.923 127.762ZM430.243 101.24L419.847 75.4966L445.591 65.1L455.987 90.8439L430.243 101.24ZM366.449 96.1483L356.053 70.4044L381.797 60.0078L392.193 85.7517L366.449 96.1483ZM339.927 106.828L329.531 81.0839L355.275 70.6873L365.671 96.4312L339.927 106.828ZM276.134 101.736L265.737 75.9917L291.481 65.5951L301.878 91.339L276.134 101.736ZM211.562 96.997L185.818 107.394L175.421 81.6497L201.165 71.2531L211.562 96.997ZM122.024 102.301L111.627 76.5575L137.371 66.1609L147.768 91.9048L122.024 102.301ZM110.849 76.8404L121.246 102.584L95.5021 112.981L85.1056 87.2369L110.849 76.8404ZM121.529 103.362L131.925 129.106L106.182 139.503L95.785 113.759L121.529 103.362ZM132.279 129.884L142.676 155.628L116.932 166.025L106.535 140.281L132.279 129.884ZM206.752 161.498L217.149 187.242L191.405 197.639L181.009 171.895L206.752 161.498ZM270.546 166.59L280.943 192.334L255.199 202.731L244.802 177.058L270.546 166.59ZM271.324 166.307L297.068 155.911L307.465 181.655L281.721 192.051L271.324 166.307ZM323.59 145.161L333.987 170.905L308.243 181.372L297.846 155.628L323.59 145.161ZM360.862 161.003L371.259 186.747L345.515 197.143L335.118 171.4L360.862 161.003ZM424.656 166.095L435.053 191.839L409.309 202.236L398.912 176.492L424.656 166.095ZM451.178 155.416L461.574 181.16L435.83 191.556L425.434 165.812L451.178 155.416ZM392.971 85.3981L382.575 59.6542L408.319 49.2576L418.715 75.0015L392.971 85.3981ZM302.655 91.0561L292.259 65.3122L318.003 54.9156L328.399 80.6595L302.655 91.0561ZM249.612 112.486L239.144 86.7419L264.888 76.3453L275.285 102.089L249.612 112.486ZM148.546 91.5512L138.149 65.8073L163.893 55.4107L174.29 81.1546L148.546 91.5512ZM84.7519 86.459L74.3554 60.7151L100.099 50.3185L110.496 76.0624L84.7519 86.459ZM180.231 172.248L190.627 197.992L164.883 208.389L154.487 182.645L180.231 172.248ZM244.024 177.34L254.421 203.084L228.677 213.481L218.281 187.737L244.024 177.34ZM398.134 176.845L408.531 202.589L382.787 212.986L372.39 187.242L398.134 176.845ZM488.45 171.187L498.846 196.931L473.103 207.328L462.706 181.584L488.45 171.187ZM419.493 74.7186L409.096 48.9747L434.84 38.5075L445.237 64.2513L419.493 74.7186ZM382.221 58.8762L371.824 33.1324L397.568 22.7358L407.965 48.4797L382.221 58.8762ZM238.862 85.9639L228.465 60.22L254.209 49.8234L264.605 75.5673L238.862 85.9639ZM201.59 70.1215L191.193 44.3776L216.937 33.9811L227.333 59.7249L201.59 70.1215ZM175.068 80.8717L164.671 55.1278L190.415 44.7313L200.812 70.4751L175.068 80.8717ZM111.274 75.7795L100.877 50.0356L126.692 39.5683L137.088 65.3122L111.274 75.7795ZM74.0725 59.9371L63.6759 34.1932L89.4198 23.7967L99.8163 49.5405L74.0725 59.9371ZM153.709 182.928L164.105 208.672L138.361 219.068L127.965 193.395L153.709 182.928ZM190.981 198.77L201.377 224.514L175.633 234.911L165.237 209.167L190.981 198.77ZM217.503 188.091L227.899 213.835L202.155 224.231L191.759 198.487L217.503 188.091ZM281.297 193.183L291.693 218.927L265.949 229.323L255.553 203.579L281.297 193.183ZM307.818 182.433L318.215 208.177L292.471 218.573L282.074 192.829L307.818 182.433ZM334.34 171.753L344.737 197.497L318.993 207.894L308.596 182.15L334.34 171.753ZM371.612 187.525L382.009 213.269L356.265 223.665L345.868 197.921L371.612 187.525ZM408.814 203.367L419.21 229.111L393.466 239.508L383.07 213.764L408.814 203.367ZM461.928 181.938L472.325 207.682L446.581 218.078L436.184 192.334L461.928 181.938ZM499.624 196.648L489.228 170.905L514.477 160.72L524.873 186.464L499.624 196.648ZM514.123 159.942L488.874 170.127L478.478 144.383L503.726 134.198L513.911 159.447L514.123 159.942ZM503.373 133.42L478.195 143.605L467.798 117.861L493.047 107.676L493.259 108.242L503.231 132.925L503.373 133.42ZM492.693 106.898L467.445 117.083L457.048 91.339L482.297 81.1546L492.693 106.898ZM481.943 80.3059L456.694 90.4903L446.369 64.7464L471.617 54.562L481.802 79.8108L481.943 80.3059ZM471.264 53.784L446.015 63.9684L435.618 38.2246L460.867 28.0402L460.938 28.2523L461.079 28.606L471.052 53.289L471.264 53.784ZM329.177 80.3059L318.781 54.562L344.525 44.1654L354.921 69.9093L329.177 80.3059ZM291.905 64.5342L281.509 38.7904L307.253 28.3938L317.649 54.1377L291.905 64.5342ZM291.127 64.8171L265.383 75.2137L254.987 49.4698L280.731 39.0733L291.127 64.8171ZM137.866 65.0293L127.399 39.2854L153.143 28.8889L163.54 54.6327L137.866 65.0293ZM37.6491 44.6605L62.8979 34.4761L73.2945 60.22L48.0457 70.4044L47.975 70.1922L47.8335 69.8386L37.6491 44.6605ZM48.3993 71.1824L73.6481 60.998L84.0447 86.7419L58.7959 96.9263L48.6115 71.7482L48.3993 71.1824ZM59.0788 97.7042L84.3276 87.5198L94.7242 113.264L69.4753 123.448L69.2632 122.882L59.291 98.1993L59.0788 97.7042ZM69.829 124.297L95.0778 114.112L105.474 139.856L80.2255 150.041L69.829 124.297ZM80.5084 150.819L105.757 140.634L116.154 166.378L90.905 176.563L80.7206 151.314L80.5084 150.819ZM101.938 203.862L127.187 193.678L137.583 219.422L112.335 229.606L101.938 203.862ZM254.775 203.862L265.171 229.606L239.357 240.074L228.96 214.33L254.775 203.862ZM409.592 203.014L435.335 192.617L445.732 218.361L419.988 228.758L409.592 203.014ZM499.129 197.709L509.526 223.453L483.782 233.85L473.385 208.106L499.129 197.709ZM37.3662 43.8825L37.1541 43.3168L26.9697 18.1387L52.2185 7.95428L62.615 33.6982L37.3662 43.8825ZM510.304 223.17L499.907 197.426L525.156 187.242L525.368 187.808L525.934 187.596L536.118 212.844L510.304 223.17ZM450.117 1.51831L460.301 26.7671L460.514 27.3329L435.265 37.5173L424.868 11.7734L450.117 1.51831ZM424.161 11.9856L434.557 37.8002L408.814 48.1968L398.417 22.4529L424.161 11.9856ZM386.889 -3.78606L397.285 21.9578L371.542 32.3544L361.145 6.61051L386.889 -3.78606ZM360.367 6.89341L370.764 32.6373L345.02 43.0339L334.623 17.29L360.367 6.89341ZM333.845 17.6436L344.242 43.3875L318.498 53.784L308.101 28.0402L333.845 17.6436ZM296.573 1.80121L306.97 27.5451L281.226 37.9417L270.829 12.1978L296.573 1.80121ZM270.051 12.5514L280.448 38.2953L254.704 48.6918L244.307 22.948L270.051 12.5514ZM232.779 -3.29098L243.176 22.4529L217.432 32.8495L207.035 7.10558L232.779 -3.29098ZM206.257 7.45921L216.654 33.2031L190.91 43.5996L180.514 17.8558L206.257 7.45921ZM179.736 18.1387L190.132 43.8825L164.388 54.2791L153.992 28.5352L179.736 18.1387ZM142.463 2.29629L152.86 28.1109L127.116 38.5075L116.72 12.7636L142.463 2.29629ZM115.942 13.0465L126.338 38.7904L100.594 49.1869L90.1977 23.443L115.942 13.0465ZM78.6696 -2.79591L89.0662 22.948L63.3223 33.4153L52.9257 7.60066L78.6696 -2.79591ZM123.085 256.128L112.9 230.879L112.688 230.313L137.937 220.129L148.334 245.873L123.085 256.128ZM149.041 245.661L138.644 219.917L164.388 209.52L174.785 235.264L149.041 245.661ZM186.313 261.503L175.916 235.759L201.66 225.363L212.057 251.107L186.313 261.503ZM212.835 250.753L202.438 225.009L228.182 214.613L238.579 240.356L212.835 250.753ZM250.107 266.595L239.71 240.781L265.454 230.384L275.851 256.128L250.107 266.595ZM276.629 255.845L266.232 230.101L291.976 219.705L302.373 245.449L276.629 255.845ZM303.151 245.166L292.754 219.422L318.498 209.025L328.894 234.769L303.151 245.166ZM340.423 260.937L330.026 235.193L355.77 224.797L366.166 250.541L340.423 260.937ZM366.944 250.258L356.548 224.514L382.292 214.117L392.688 239.861L366.944 250.258ZM404.216 266.03L393.82 240.286L419.564 229.889L429.96 255.633L404.216 266.03ZM430.738 255.35L420.342 229.606L446.086 219.21L456.482 244.954L430.738 255.35ZM457.26 244.6L446.864 218.856L472.607 208.459L483.004 234.203L457.26 244.6ZM494.532 260.442L484.136 234.698L509.88 224.302L520.276 250.046L494.532 260.442ZM521.054 249.692L510.658 223.948L536.401 213.552L546.798 239.296L521.054 249.692Z" fill="url(#paint1_linear_10572_16419)"/>
</g>
<defs>
<linearGradient id="paint0_linear_10572_16419" x1="0" y1="128.5" x2="375" y2="128.5" gradientUnits="userSpaceOnUse">
<stop stop-color="#095984"/>
<stop offset="1" stop-color="#0E73A9"/>
</linearGradient>
<linearGradient id="paint1_linear_10572_16419" x1="553.092" y1="129" x2="-72.7525" y2="129" gradientUnits="userSpaceOnUse">
<stop offset="0.352472" stop-color="white" stop-opacity="0.1"/>
<stop offset="0.844832" stop-color="white" stop-opacity="0"/>
</linearGradient>
<clipPath id="clip0_10572_16419">
<rect width="375" height="257" fill="white"/>
</clipPath>
</defs>
</svg>
