<svg width="16" height="17" viewBox="0 0 16 17" fill="none" xmlns="http://www.w3.org/2000/svg">
<g clip-path="url(#clip0_17551_11921)">
<path d="M0.799805 16.5L1.9998 15.3L3.1998 16.5L4.3998 15.3L5.5998 16.5L6.7998 15.3L7.9998 16.5L9.1998 15.3L10.3998 16.5L11.5998 15.3L12.7998 16.5L13.9998 15.3L15.1998 16.5V0.5L13.9998 1.7L12.7998 0.5L11.5998 1.7L10.3998 0.5L9.1998 1.7L7.9998 0.5L6.7998 1.7L5.5998 0.5L4.3998 1.7L3.1998 0.5L1.9998 1.7L0.799805 0.5V16.5ZM12.7998 6.1H3.1998V4.5H12.7998V6.1ZM12.7998 9.3H3.1998V7.7H12.7998V9.3ZM12.7998 12.5H3.1998V10.9H12.7998V12.5Z" fill="#0E73A9"/>
</g>
<defs>
<clipPath id="clip0_17551_11921">
<rect width="16" height="16" fill="white" transform="translate(0 0.5)"/>
</clipPath>
</defs>
</svg>
