<svg width="28" height="28" viewBox="0 0 28 28" fill="none" xmlns="http://www.w3.org/2000/svg">
<path opacity="0.4" d="M7.85232 22.9833C8.80898 21.9566 10.2673 22.0383 11.1073 23.1583L12.2857 24.7333C13.2307 25.9816 14.759 25.9816 15.704 24.7333L16.8823 23.1583C17.7223 22.0383 19.1807 21.9566 20.1373 22.9833C22.214 25.1999 23.9057 24.4649 23.9057 21.3616V8.21325C23.9173 3.51158 22.8207 2.33325 18.4107 2.33325H9.59065C5.18065 2.33325 4.08398 3.51158 4.08398 8.21325V21.3499C4.08398 24.4649 5.78732 25.1883 7.85232 22.9833Z" fill="#0E73A9"/>
<path d="M18.6673 9.04175H9.33398C8.85565 9.04175 8.45898 8.64508 8.45898 8.16675C8.45898 7.68841 8.85565 7.29175 9.33398 7.29175H18.6673C19.1457 7.29175 19.5423 7.68841 19.5423 8.16675C19.5423 8.64508 19.1457 9.04175 18.6673 9.04175Z" fill="#0E73A9"/>
<path d="M17.5 13.7083H10.5C10.0217 13.7083 9.625 13.3116 9.625 12.8333C9.625 12.3549 10.0217 11.9583 10.5 11.9583H17.5C17.9783 11.9583 18.375 12.3549 18.375 12.8333C18.375 13.3116 17.9783 13.7083 17.5 13.7083Z" fill="#0E73A9"/>
</svg>
