<svg width="21" height="20" viewBox="0 0 21 20" fill="none" xmlns="http://www.w3.org/2000/svg">
<path d="M4.66667 17.5C4.20833 17.5 3.81597 17.3368 3.48958 17.0104C3.16319 16.684 3 16.2917 3 15.8333V4.16667C3 3.70833 3.16319 3.31597 3.48958 2.98958C3.81597 2.66319 4.20833 2.5 4.66667 2.5H16.3333C16.7917 2.5 17.184 2.66319 17.5104 2.98958C17.8368 3.31597 18 3.70833 18 4.16667V11.1042C17.7361 10.9514 17.4653 10.8125 17.1875 10.6875C16.9097 10.5625 16.625 10.4514 16.3333 10.3542V7.5H11.3333V10.3542C10.6944 10.5486 10.0972 10.8264 9.54167 11.1875C8.98611 11.5486 8.47222 11.9861 8 12.5H4.66667V15.8333H6.375C6.52778 16.1389 6.68056 16.4306 6.83333 16.7083C6.98611 16.9861 7.15278 17.25 7.33333 17.5H4.66667ZM4.66667 10.8333H9.66667V7.5H4.66667V10.8333ZM4.66667 5.83333H16.3333V4.16667H4.66667V5.83333ZM13.8333 19.1667C12.5694 19.1667 11.4028 18.8333 10.3333 18.1667C9.26389 17.5 8.48611 16.5833 8 15.4167C8.48611 14.25 9.26389 13.3333 10.3333 12.6667C11.4028 12 12.5694 11.6667 13.8333 11.6667C15.0972 11.6667 16.2639 12 17.3333 12.6667C18.4028 13.3333 19.1806 14.25 19.6667 15.4167C19.1806 16.5833 18.4028 17.5 17.3333 18.1667C16.2639 18.8333 15.0972 19.1667 13.8333 19.1667ZM13.8333 17.5C14.625 17.5 15.3715 17.3194 16.0729 16.9583C16.7743 16.5972 17.3472 16.0833 17.7917 15.4167C17.3472 14.75 16.7743 14.2361 16.0729 13.875C15.3715 13.5139 14.625 13.3333 13.8333 13.3333C13.0417 13.3333 12.2951 13.5139 11.5938 13.875C10.8924 14.2361 10.3194 14.75 9.875 15.4167C10.3194 16.0833 10.8924 16.5972 11.5938 16.9583C12.2951 17.3194 13.0417 17.5 13.8333 17.5ZM13.8333 16.6667C13.4861 16.6667 13.191 16.5451 12.9479 16.3021C12.7049 16.059 12.5833 15.7639 12.5833 15.4167C12.5833 15.0694 12.7049 14.7743 12.9479 14.5312C13.191 14.2882 13.4861 14.1667 13.8333 14.1667C14.1806 14.1667 14.4757 14.2882 14.7188 14.5312C14.9618 14.7743 15.0833 15.0694 15.0833 15.4167C15.0833 15.7639 14.9618 16.059 14.7188 16.3021C14.4757 16.5451 14.1806 16.6667 13.8333 16.6667Z" fill="#0E6596"/>
</svg>
